<svg xmlns="http://www.w3.org/2000/svg" viewBox="0 0 2498.7 628.52"><defs><style>.cls-1{fill:#fff;}</style></defs><title>1</title><g id="Camada_2" data-name="Camada 2"><g id="Camada_1-2" data-name="Camada 1"><g id="DESKTOP1"><rect y="275.69" width="2498.7" height="352.83"/><rect width="1576.79" height="352.83"/><path class="cls-1" d="M140.11,267,91.36,130h36.92l40.46,117.84H150.9L193.08,130h33.4l40.71,117.84H250.11L291.54,130H326.2l-49,137H239.57l-36.19-101h11.31L178,267Z"/><path class="cls-1" d="M407.85,269q-23.12,0-40.44-9.16a67.24,67.24,0,0,1-26.88-25.06Q331,218.83,331,198.46t9.16-36.4A64.84,64.84,0,0,1,365.76,137q16.44-9,37.05-9.05a74,74,0,0,1,35.79,8.65A64.58,64.58,0,0,1,463.85,161q9.28,15.78,9.3,37.92c0,1.53-.09,3.27-.26,5.22s-.33,3.78-.5,5.47l-109.76,0V186.49h89.16l-15.32,6.87q.25-10.69-4-18.58a31.38,31.38,0,0,0-11.81-12.34A33.88,33.88,0,0,0,403.06,158a34.62,34.62,0,0,0-17.7,4.45,30.92,30.92,0,0,0-11.93,12.48q-4.28,8-4.27,19V200q0,11.46,5,19.85A33.25,33.25,0,0,0,388,232.68q8.79,4.45,21.1,4.45a49.46,49.46,0,0,0,18.72-3.31,46,46,0,0,0,14.94-9.93l20.85,22.91a60.84,60.84,0,0,1-23.36,16.42Q426.18,269,407.85,269Z"/><path class="cls-1" d="M612.05,268.92q-15.57,0-26.88-5.47a42.25,42.25,0,0,1-17.45-14.89,37.7,37.7,0,0,1-6.16-21.12,38.76,38.76,0,0,1,5.9-21.26q5.89-9.28,18.71-14.38t33.65-5.1h35.67v22.9H623.85q-13.83,0-19,4.58a14.72,14.72,0,0,0-5.14,11.46,14.33,14.33,0,0,0,5.9,12.09q5.9,4.45,16,4.45a35.14,35.14,0,0,0,18-4.59,24.91,24.91,0,0,0,11.17-14l6,18.58a35.91,35.91,0,0,1-15.57,19.73Q629.89,268.91,612.05,268.92Zm41.19-2.05V240.15l-2.51-5.86V186.44q0-12.72-7.67-19.85t-23.48-7.12a67.45,67.45,0,0,0-21.23,3.44,59.13,59.13,0,0,0-18,9.29l-13.82-27.74a79.05,79.05,0,0,1,26.62-12.35,121,121,0,0,1,31.65-4.2q30.88,0,48,14.75t17.09,46.07v78.14Z"/><path class="cls-1" d="M725.33,266.86l0-136.94h37.43v38.94l-5.27-11.45a43.8,43.8,0,0,1,19.33-22q13.32-7.51,32.4-7.52v36.91a43.68,43.68,0,0,0-4.4-.76,34.86,34.86,0,0,0-4.14-.26q-16.57,0-26.37,9.43t-9.79,29v64.65Z"/><path class="cls-1" d="M898.38,268.87q-23.1,0-40.43-9.16a67.13,67.13,0,0,1-26.88-25.07q-9.55-15.9-9.56-36.26t9.17-36.4a64.9,64.9,0,0,1,25.61-25.08q16.46-9,37.05-9,19.83,0,35.79,8.65a64.58,64.58,0,0,1,25.25,24.43q9.29,15.78,9.3,37.92c0,1.53-.09,3.27-.25,5.22s-.34,3.78-.5,5.47l-109.77,0V186.41l89.17,0L927,193.27q.24-10.7-4-18.58a31.52,31.52,0,0,0-11.8-12.35,34,34,0,0,0-17.59-4.45,34.53,34.53,0,0,0-17.7,4.46A30.89,30.89,0,0,0,864,174.82q-4.28,8-4.27,19v6.11q0,11.44,5,19.85a33.28,33.28,0,0,0,13.82,12.85q8.79,4.46,21.1,4.45a49.45,49.45,0,0,0,18.71-3.31,46.07,46.07,0,0,0,14.94-9.93l20.85,22.9a60.59,60.59,0,0,1-23.35,16.42Q916.72,268.86,898.38,268.87Z"/><path class="cls-1" d="M1143,127.82a62.35,62.35,0,0,1,28.76,6.48,46.8,46.8,0,0,1,20,19.85q7.29,13.36,7.29,34.24v78.39h-39.18V194.5q0-16.55-7.17-24.43t-20.22-7.89a34.05,34.05,0,0,0-16.7,4.08,28.21,28.21,0,0,0-11.55,12q-4.14,7.89-4.14,20.87V266.8h-39.18l0-136.93h37.42v37.93l-7-11.46a50.4,50.4,0,0,1,20.85-21.13Q1125.67,127.82,1143,127.82Z"/><path class="cls-1" d="M1299.5,268.8q-21.36,0-38.06-9.16a68.33,68.33,0,0,1-26.25-25.06q-9.54-15.92-9.55-36.27,0-20.62,9.54-36.53a67.46,67.46,0,0,1,26.24-24.95q16.71-9,38-9,21.6,0,38.43,9a67.21,67.21,0,0,1,26.38,24.94q9.56,15.9,9.55,36.52t-9.54,36.4a68.32,68.32,0,0,1-26.36,24.95Q1321.1,268.8,1299.5,268.8Zm0-32.58a34.59,34.59,0,0,0,17.71-4.46,32.46,32.46,0,0,0,12.3-13.11q4.65-8.66,4.65-20.36,0-12-4.65-20.36a32.94,32.94,0,0,0-12.31-12.85,34.11,34.11,0,0,0-17.46-4.46,34.86,34.86,0,0,0-17.58,4.46,32.56,32.56,0,0,0-12.43,12.86q-4.65,8.4-4.64,20.36,0,11.72,4.65,20.36a32.16,32.16,0,0,0,12.43,13.11A34.27,34.27,0,0,0,1299.49,236.22Z"/><path class="cls-1" d="M1383.87,163.41V132.87l93.69,0v30.54Zm71.35,105.36q-23.87,0-37.17-12.34t-13.32-36.77l0-120.14h39.43l0,119.38q0,8.66,4.4,13.49t11.93,4.83q9.55,0,16.08-5.09l10.3,28a39.88,39.88,0,0,1-14.19,6.5A70,70,0,0,1,1455.22,268.77Z"/><path class="cls-1" d="M109.26,576l0-186.31h37.43v28l-.75,40.72,2.52,40.47,0,77.12Zm79.62-47.35q-16.83,0-29.64-7.63t-20-23.29q-7.17-15.66-7.17-39.58,0-24.18,6.78-39.71t19.71-23.16q12.93-7.64,30.26-7.64,19.35,0,34.54,8.77A64.39,64.39,0,0,1,247.51,421q8.91,15.78,8.92,37.16,0,21.63-8.91,37.29a64.53,64.53,0,0,1-24.11,24.44Q208.22,528.65,188.88,528.66Zm-6.54-32.58a32.58,32.58,0,0,0,29.76-17.7q4.65-8.52,4.64-20.23,0-12-4.65-20.36a32.94,32.94,0,0,0-12.3-12.86,34.22,34.22,0,0,0-17.46-4.45,34.73,34.73,0,0,0-17.58,4.46,32.56,32.56,0,0,0-12.43,12.86q-4.65,8.4-4.65,20.36,0,11.71,4.65,20.23a33.28,33.28,0,0,0,12.44,13.11A34,34,0,0,0,182.34,496.08Z"/><path class="cls-1" d="M282.56,526.6l0-136.93H320V428.6l-5.28-11.45a43.82,43.82,0,0,1,19.34-22q13.31-7.5,32.4-7.51v36.9c-1.5-.33-3-.59-4.39-.76a35.09,35.09,0,0,0-4.15-.25q-16.58,0-26.37,9.42t-9.79,29V526.6Z"/><path class="cls-1" d="M409.38,370.56q-11.07,0-17.84-6.36a21.75,21.75,0,0,1,0-31.56q6.78-6.37,17.83-6.37,10.8,0,17.71,6a19.49,19.49,0,0,1,6.91,15.4,21.74,21.74,0,0,1-6.78,16.41Q420.43,370.55,409.38,370.56Zm-19.57,156,0-136.94H429l0,136.94Z"/><path class="cls-1" d="M547.52,387.59a62.22,62.22,0,0,1,28.76,6.48,46.8,46.8,0,0,1,20,19.85q7.29,13.36,7.29,34.23l0,78.4H564.37V454.27q0-16.54-7.16-24.43T537,422a34.1,34.1,0,0,0-16.7,4.07,28.32,28.32,0,0,0-11.56,12q-4.14,7.89-4.14,20.87v67.71H465.41l0-136.93h37.42v37.93l-7-11.46A50.51,50.51,0,0,1,516.63,395Q530.19,387.59,547.52,387.59Z"/><path class="cls-1" d="M705.28,528.57q-21.85,0-38.81-9a67.56,67.56,0,0,1-26.63-25.07q-9.68-16-9.67-36.39,0-20.62,9.66-36.4a69.05,69.05,0,0,1,26.62-24.95q16.95-9.17,38.8-9.17,21.35,0,37.3,9a52.17,52.17,0,0,1,23,25.58L735.4,439q-5.52-9.68-13.31-14.12A33.81,33.81,0,0,0,705,420.39a36.2,36.2,0,0,0-17.84,4.46,32.9,32.9,0,0,0-12.8,12.86q-4.77,8.4-4.77,20.36t4.77,20.49a32.62,32.62,0,0,0,12.82,13A36.12,36.12,0,0,0,705,496a33.81,33.81,0,0,0,17.08-4.46q7.78-4.45,13.31-14.38l30.14,16.79a53.06,53.06,0,0,1-23,25.46Q726.63,528.57,705.28,528.57Z"/><path class="cls-1" d="M853.72,528.54q-23.12,0-40.44-9.15a67.13,67.13,0,0,1-26.88-25.07q-9.55-15.9-9.55-36.27t9.16-36.4a64.84,64.84,0,0,1,25.62-25.07q16.44-9,37-9a73.78,73.78,0,0,1,35.79,8.64,64.58,64.58,0,0,1,25.25,24.43q9.3,15.79,9.3,37.93c0,1.52-.08,3.27-.25,5.21s-.34,3.78-.5,5.48l-109.76,0V446.08h89.17l-15.32,6.87a36.77,36.77,0,0,0-4-18.58A31.52,31.52,0,0,0,866.51,422a33.9,33.9,0,0,0-17.58-4.45A34.59,34.59,0,0,0,831.22,422a31,31,0,0,0-11.93,12.47,39.66,39.66,0,0,0-4.26,19v6.11q0,11.46,5,19.85a33.36,33.36,0,0,0,13.82,12.86q8.79,4.46,21.1,4.45a49.41,49.41,0,0,0,18.71-3.32,46,46,0,0,0,14.94-9.92l20.86,22.9a60.81,60.81,0,0,1-23.36,16.42Q872.05,528.54,853.72,528.54Z"/><path class="cls-1" d="M990.61,528.52a129.16,129.16,0,0,1-33.16-4.19q-15.83-4.2-25.37-10.56l12.81-28.26a97.37,97.37,0,0,0,22.23,9.29,89.1,89.1,0,0,0,25,3.69q13.56,0,19.21-3.32T1017,486a7.8,7.8,0,0,0-4.4-7.25,38.08,38.08,0,0,0-11.55-3.69q-7.15-1.27-15.95-2.55A153.06,153.06,0,0,1,967.61,469a67.1,67.1,0,0,1-16.07-6.48,31.77,31.77,0,0,1-11.81-11.58q-4.4-7.38-4.4-19.09a37.43,37.43,0,0,1,7.53-23q7.54-10,21.35-15.65t33.4-5.61a128.89,128.89,0,0,1,28.26,3.18,86.48,86.48,0,0,1,24,8.77l-13.31,28.26a69.29,69.29,0,0,0-19.46-7.89,84.81,84.81,0,0,0-19-2.29q-13.56,0-19.59,3.57t-6,9.17A8.5,8.5,0,0,0,977,438a35.15,35.15,0,0,0,11.8,3.94q7.29,1.27,16.08,2.54a151.23,151.23,0,0,1,17.33,3.56,68,68,0,0,1,16,6.49A31.84,31.84,0,0,1,1050,466.15q4.39,7.38,4.4,19.09a35.54,35.54,0,0,1-7.54,22.27q-7.53,9.81-21.72,15.4T990.61,528.52Z"/><path class="cls-1" d="M1124,528.5a128.7,128.7,0,0,1-33.15-4.2q-15.83-4.2-25.37-10.56l12.8-28.25a98.21,98.21,0,0,0,22.23,9.29,89.2,89.2,0,0,0,25,3.68q13.56,0,19.21-3.31t5.65-9.16a7.82,7.82,0,0,0-4.4-7.26,38.08,38.08,0,0,0-11.55-3.69q-7.16-1.26-16-2.54a153.06,153.06,0,0,1-17.46-3.56,67,67,0,0,1-16.07-6.49,31.62,31.62,0,0,1-11.81-11.58q-4.39-7.37-4.4-19.08a37.43,37.43,0,0,1,7.53-23q7.53-10,21.35-15.66t33.4-5.6a129.49,129.49,0,0,1,28.26,3.17,86.8,86.8,0,0,1,24,8.78l-13.31,28.26a69.22,69.22,0,0,0-19.47-7.89,84.08,84.08,0,0,0-19-2.29q-13.56,0-19.59,3.57t-6,9.16a8.5,8.5,0,0,0,4.53,7.76,34.92,34.92,0,0,0,11.8,3.95q7.29,1.28,16.08,2.54a149.55,149.55,0,0,1,17.33,3.56,68,68,0,0,1,16,6.49,31.84,31.84,0,0,1,11.81,11.58q4.38,7.38,4.39,19.09a35.47,35.47,0,0,1-7.53,22.27q-7.53,9.79-21.72,15.4T1124,528.5Z"/><path class="cls-1" d="M1324.65,528.46q-15.57,0-26.87-5.47a42.13,42.13,0,0,1-17.46-14.88,37.73,37.73,0,0,1-6.16-21.13,38.84,38.84,0,0,1,5.9-21.25q5.89-9.28,18.71-14.39t33.66-5.09h35.66v22.91h-31.65q-13.82,0-19,4.58a14.68,14.68,0,0,0-5.15,11.46,14.33,14.33,0,0,0,5.9,12.08q5.91,4.46,16,4.46a35.21,35.21,0,0,0,18-4.59,24.93,24.93,0,0,0,11.18-14l6,18.58a36,36,0,0,1-15.57,19.73Q1342.5,528.46,1324.65,528.46Zm41.2-2V499.69l-2.51-5.85V446q0-12.72-7.66-19.85T1332.17,419a67.63,67.63,0,0,0-21.22,3.44,59.43,59.43,0,0,0-18,9.3L1279.17,404a79.14,79.14,0,0,1,26.62-12.35,121,121,0,0,1,31.65-4.21q30.9,0,48,14.76t17.08,46.06l0,78.14Z"/><path class="cls-1" d="M1520,387.42a62.23,62.23,0,0,1,28.76,6.49,46.74,46.74,0,0,1,20,19.85q7.29,13.35,7.29,34.23v78.39h-39.18V454.1q0-16.53-7.16-24.43t-20.22-7.89a34.28,34.28,0,0,0-16.71,4.08,28.33,28.33,0,0,0-11.55,12q-4.14,7.9-4.14,20.88v67.7h-39.18l0-136.94h37.42v37.92l-7-11.45a50.34,50.34,0,0,1,20.85-21.13Q1502.71,387.43,1520,387.42Z"/><path class="cls-1" d="M1626.06,577.79a66.84,66.84,0,0,1-20.59-3.31,48.21,48.21,0,0,1-17.08-9.16l14.31-28.51a31.26,31.26,0,0,0,10.42,6.62,32.73,32.73,0,0,0,11.93,2.29q8,0,12.94-4t8.91-13.11l7-16.8,3-4.33,48.7-118.1h37.43l-61,145.35q-6.54,16.8-14.94,26.09A47.89,47.89,0,0,1,1648.54,574,63.62,63.62,0,0,1,1626.06,577.79Zm23.1-46.07-60.05-142.27h40.19l47,114.78Z"/><path class="cls-1" d="M1932.21,387.35q16.07,0,28.51,6.49a45.67,45.67,0,0,1,19.47,19.85q7,13.35,7,34.23l0,78.39h-39.19V454q0-16.53-6.66-24.43t-18.71-7.89a30.49,30.49,0,0,0-15.57,4,25.79,25.79,0,0,0-10.42,11.71q-3.65,7.77-3.64,20.24v68.72h-39.18l0-72.29q0-16.55-6.66-24.43T1828,421.73a29.88,29.88,0,0,0-15.32,3.95,26.46,26.46,0,0,0-10.55,11.71q-3.77,7.77-3.76,20.23v68.73h-39.19l0-136.93h37.43v37.16l-7-10.69a47.08,47.08,0,0,1,19.84-21.25,59.39,59.39,0,0,1,29.38-7.26q18.59,0,32.66,9.54T1890,426.05l-13.82-3.82a55.82,55.82,0,0,1,21.6-25.33Q1912.62,387.36,1932.21,387.35Z"/><path class="cls-1" d="M2087.7,528.33q-21.35,0-38-9.15a68.22,68.22,0,0,1-26.25-25.07q-9.56-15.9-9.55-36.27,0-20.61,9.54-36.52a67.25,67.25,0,0,1,26.24-24.95q16.7-9,38-9.05,21.6,0,38.43,9a67.28,67.28,0,0,1,26.38,24.94q9.54,15.91,9.55,36.53t-9.54,36.4a68.33,68.33,0,0,1-26.37,24.94Q2109.3,528.33,2087.7,528.33Zm0-32.58a34.55,34.55,0,0,0,17.7-4.45,32.49,32.49,0,0,0,12.31-13.11q4.65-8.65,4.64-20.37,0-12-4.65-20.36a32.87,32.87,0,0,0-12.31-12.85,34.06,34.06,0,0,0-17.45-4.45,34.73,34.73,0,0,0-17.58,4.46,32.56,32.56,0,0,0-12.44,12.85q-4.64,8.4-4.64,20.36,0,11.71,4.65,20.37a32.09,32.09,0,0,0,12.44,13.1A34.25,34.25,0,0,0,2087.7,495.75Z"/><path class="cls-1" d="M2188.17,526.28l0-136.94h37.42v38.94l-5.28-11.45a43.78,43.78,0,0,1,19.34-22q13.31-7.51,32.4-7.52V424.2a43,43,0,0,0-4.39-.76,35.12,35.12,0,0,0-4.14-.26q-16.59,0-26.38,9.43t-9.79,29v64.65Z"/><path class="cls-1" d="M2361.23,528.29q-23.11,0-40.44-9.16a67.26,67.26,0,0,1-26.88-25.07q-9.55-15.9-9.55-36.26t9.16-36.4a64.93,64.93,0,0,1,25.62-25.08q16.44-9,37-9,19.84,0,35.8,8.65a64.48,64.48,0,0,1,25.24,24.43q9.3,15.78,9.3,37.92c0,1.53-.08,3.27-.25,5.22s-.33,3.78-.5,5.47L2316,469V445.83l89.16,0-15.32,6.88q.24-10.69-4-18.58A31.41,31.41,0,0,0,2374,421.76a34,34,0,0,0-17.58-4.45,34.59,34.59,0,0,0-17.71,4.46,31,31,0,0,0-11.93,12.47,39.9,39.9,0,0,0-4.26,19v6.11q0,11.44,5,19.85A33.25,33.25,0,0,0,2341.38,492q8.79,4.46,21.1,4.45a49.41,49.41,0,0,0,18.71-3.31,46.28,46.28,0,0,0,14.95-9.93l20.85,22.9a60.74,60.74,0,0,1-23.36,16.42Q2379.56,528.28,2361.23,528.29Z"/></g></g></g></svg>