<svg xmlns="http://www.w3.org/2000/svg" viewBox="0 0 1996.74 1230.89"><defs><style>.cls-1{fill:#fff;}.cls-2{fill:#b33176;}.cls-3{fill:#ececed;}</style></defs><title>5</title><g id="Camada_2" data-name="Camada 2"><g id="Camada_1-2" data-name="Camada 1"><g id="DESKTOP6"><g id="DESKTOP5"><rect class="cls-1" x="30.67" y="54.78" width="1935.4" height="1121.33" transform="translate(-33.77 58.49) rotate(-3.3)"/><path d="M423.31,292.75l62.25-3.08,1.3,26.19-95.42,4.72-5.89-119,93.2-4.62,1.3,26.19-60,3Zm-4.69-46.66,55.27-2.73,1.24,25-55.28,2.74Z"/><path d="M615.21,311.89a73.76,73.76,0,0,1-26.5-3.29,61,61,0,0,1-36.49-31,63,63,0,0,1-2.43-49.24A61.08,61.08,0,0,1,583,194a77.74,77.74,0,0,1,52.64-2.61,63.73,63.73,0,0,1,21.64,11.89,58.91,58.91,0,0,1,14.83,18.87,64.84,64.84,0,0,1,2.45,49.58A58.75,58.75,0,0,1,661.72,292a63.62,63.62,0,0,1-20.37,14A73.64,73.64,0,0,1,615.21,311.89ZM613.83,284a33.4,33.4,0,0,0,12.56-3,29.25,29.25,0,0,0,9.86-7.39,32.59,32.59,0,0,0,6.27-11.14,40.65,40.65,0,0,0-1.38-27.89,32.62,32.62,0,0,0-7.34-10.47,29.39,29.39,0,0,0-10.54-6.38A35,35,0,0,0,597.91,219a30.2,30.2,0,0,0-9.95,7.39,30.65,30.65,0,0,0-6.26,11.14,42.09,42.09,0,0,0,1.38,27.89,30.79,30.79,0,0,0,7.33,10.47,30.24,30.24,0,0,0,10.64,6.38A33.55,33.55,0,0,0,613.83,284Zm41.64,52.33a61.27,61.27,0,0,1-14.45-.91,49.79,49.79,0,0,1-13.27-4.54,78.27,78.27,0,0,1-13.66-9q-7.2-5.79-16.14-14.38l34.76-10.58a84.12,84.12,0,0,0,8.15,9.57,21.09,21.09,0,0,0,7,4.77,17.47,17.47,0,0,0,7.13,1.09q9.87-.48,17.61-9.39l15.5,17Q676.57,335.29,655.47,336.33Z"/><path d="M754,305q-26.37,1.31-41.79-12.42t-16.73-40.09l-3.28-66.16,33.68-1.67,3.22,65.14q.75,15.14,7,21.48T753,277.11q10.54-.51,16.08-7.44t4.79-22.06l-3.22-65.14,33.33-1.65L807.22,247q1.31,26.36-12.86,41.55T754,305Z"/><path d="M864.67,270.9l62.25-3.08L928.21,294l-95.41,4.73-5.9-119.06,93.21-4.61,1.3,26.19-60,3ZM860,224.25l55.28-2.74,1.24,25-55.28,2.74Z"/><path d="M947.09,293.08,941.2,174l54.25-2.69q16.34-.79,28.5,3.88a40.62,40.62,0,0,1,19,14.32q6.87,9.63,7.53,23.07.69,13.77-5.21,23.79a40.76,40.76,0,0,1-17.55,15.78q-11.65,5.79-28,6.59l-35.71,1.77,14.43-15,2.27,45.92Zm31.6-43.68-15.91-14.9,33.67-1.66q10.54-.53,15.59-5.38t4.64-13.19q-.4-8-5.9-12.41t-16-3.89l-33.68,1.67,14.37-16.23Zm41.88,40-31.74-41.91,35.88-1.77,31.91,41.9Z"/><path d="M1164.23,284.72a108.53,108.53,0,0,1-28.5-2.26q-13.71-3-22.31-8.19l9.81-25.55a78.16,78.16,0,0,0,18.87,7.51,68.71,68.71,0,0,0,21,2.29,42.58,42.58,0,0,0,11.25-1.76,12.52,12.52,0,0,0,6-3.7,7.71,7.71,0,0,0,1.69-5.37,7,7,0,0,0-4-6,37.23,37.23,0,0,0-10-3.43q-6.12-1.32-13.25-2.41a131,131,0,0,1-14.56-3.12,55.05,55.05,0,0,1-13.58-5.63,30.22,30.22,0,0,1-10.11-9.73q-4-6.12-4.44-15.64a34,34,0,0,1,4.83-19.51q5.36-9,16.83-14.81t29-6.72a100.86,100.86,0,0,1,23.18,1.5,68.09,68.09,0,0,1,20.38,6.91l-9,25.34a73.17,73.17,0,0,0-17.18-6.14,62.91,62.91,0,0,0-16.27-1.41,33.91,33.91,0,0,0-11.15,2.09,13.29,13.29,0,0,0-5.93,4.21,8.12,8.12,0,0,0-1.62,5.2,7.15,7.15,0,0,0,4.06,6.19,33.63,33.63,0,0,0,9.88,3.26q6,1.16,13.33,2.33a146.4,146.4,0,0,1,14.56,3.11,57.46,57.46,0,0,1,13.48,5.47,30.2,30.2,0,0,1,10.28,9.55q4.05,6,4.51,15.38a33.73,33.73,0,0,1-4.92,19.42q-5.43,9.06-16.91,14.91T1164.23,284.72Z"/><path d="M1218,279.67,1264.69,158l33.16-1.64,58.62,116.44-35,1.74L1275.2,174l13.26-.66L1252.38,278Zm27.59-24.73,7.45-25.09,58.17-2.88,9.89,24.24Z"/><path d="M1366.17,272.33l-5.9-119,60.55-3q23.64-1.17,35.64,6.93t12.67,21.88a28,28,0,0,1-4,16.39A31.28,31.28,0,0,1,1452.1,207a50.92,50.92,0,0,1-20.55,4.94l2.82-8.32a58,58,0,0,1,22.05,2.74,32.31,32.31,0,0,1,15.18,10.42,29.47,29.47,0,0,1,6.05,17.26q.76,15.3-11.31,24.6t-36.22,10.49Zm32-26,28.23-1.4q8.84-.43,13.12-3.63t4-9.32q-.3-6.12-4.87-8.88t-13.41-2.32l-30.62,1.52L1393.4,199l25.51-1.27q8.5-.42,12.61-3.52a9.62,9.62,0,0,0,3.83-8.71c-.19-4-1.76-6.82-4.68-8.55s-7.23-2.46-12.9-2.18L1394.64,176Z"/><path d="M1528.83,238l62.25-3.09,1.29,26.2L1497,265.86l-5.9-119.06,93.21-4.61,1.29,26.19-60,3Zm-4.7-46.66,55.28-2.74,1.23,25-55.27,2.73Z"/><path d="M1611.25,260.2l-5.89-119,54.25-2.69q16.34-.81,28.5,3.87a40.66,40.66,0,0,1,19,14.32q6.88,9.63,7.54,23.07.67,13.78-5.22,23.79a40.69,40.69,0,0,1-17.54,15.79q-11.65,5.77-28,6.58l-35.72,1.77,14.43-15,2.28,45.93Zm31.6-43.67-15.91-14.9,33.67-1.67q10.55-.53,15.59-5.38t4.63-13.18q-.39-8-5.9-12.41t-16-3.9l-33.68,1.67,14.37-16.23Zm41.88,40L1653,214.66l35.89-1.78,31.91,41.9Z"/><path d="M1758.09,209.46a25.48,25.48,0,0,1,1.3-10,33.93,33.93,0,0,1,4.13-8,52.09,52.09,0,0,1,5.55-6.67q3-3,5.6-5.73a28,28,0,0,0,4.24-5.58,10.7,10.7,0,0,0,1.49-6,9.28,9.28,0,0,0-4.55-7.7q-4.32-2.76-10.95-2.44a24,24,0,0,0-12.17,3.84,25.15,25.15,0,0,0-8.49,9.29l-26-12.19a50.23,50.23,0,0,1,18.31-19.23q12.07-7.5,31.13-8.45a67.41,67.41,0,0,1,23.31,2.52,35.34,35.34,0,0,1,16.35,10q6.14,6.85,6.65,17.23a31.33,31.33,0,0,1-1.38,11.67,29.08,29.08,0,0,1-4.85,8.93,95.22,95.22,0,0,1-6.37,7.22q-3.26,3.33-6.42,6.37a27.85,27.85,0,0,0-5,6.22,12.69,12.69,0,0,0-1.61,7.07Zm17.36,44.15q-8.51.42-14.12-4.59a17.06,17.06,0,0,1-6-12.32,16.44,16.44,0,0,1,4.74-12.77q5.12-5.27,13.61-5.7,8.68-.42,14.28,4.32a16.46,16.46,0,0,1,6,12.24,17.09,17.09,0,0,1-4.73,12.85Q1784.13,253.18,1775.45,253.61Z"/><polygon class="cls-2" points="1862.94 538.99 129.09 627.04 134.1 762.56 1867.95 674.51 1862.94 538.99"/><polygon class="cls-2" points="665.03 958.28 672.28 1082.02 1887.82 1013.61 1880.57 889.87 665.03 958.28"/><path class="cls-2" d="M246.34,492.24l-3.68-70.32,10.75-.56,46.94,51.94-5.32.27-2.84-54.24,12.86-.67L308.72,489l-10.74.56-46.84-52,5.32-.27,2.84,54.24Z"/><path class="cls-2" d="M366.24,487A41.16,41.16,0,0,1,351,485.05a36.21,36.21,0,0,1-12.51-7A34.75,34.75,0,0,1,329.93,467a36.08,36.08,0,0,1-3.56-14.16,36.54,36.54,0,0,1,2.06-14.57,34.25,34.25,0,0,1,7.34-11.86,36.6,36.6,0,0,1,11.66-8.22,41.12,41.12,0,0,1,15-3.5,41.66,41.66,0,0,1,15.21,1.87,35.52,35.52,0,0,1,12.4,6.91,34.41,34.41,0,0,1,8.49,11.09,36.91,36.91,0,0,1,3.57,14.31,36.54,36.54,0,0,1-2.06,14.57,34.95,34.95,0,0,1-18.9,20.12A41.52,41.52,0,0,1,366.24,487Zm-.6-11.45a25.85,25.85,0,0,0,9.7-2.32,23.11,23.11,0,0,0,7.51-5.53,23.78,23.78,0,0,0,4.77-8.1A26.18,26.18,0,0,0,389,449.52a26.68,26.68,0,0,0-2.33-9.85,22.78,22.78,0,0,0-5.59-7.56,23.68,23.68,0,0,0-8.1-4.72,26,26,0,0,0-9.89-1.29,26.85,26.85,0,0,0-9.8,2.32,22.68,22.68,0,0,0-7.61,5.59,25.85,25.85,0,0,0-3.78,27.85,24.72,24.72,0,0,0,5.63,7.61,22.54,22.54,0,0,0,8.16,4.76A26.53,26.53,0,0,0,365.64,475.52Z"/><path class="cls-2" d="M469.65,480.56l-13.06.68-3.68-70.32,51.33-2.68.58,11.05-38.27,2Zm-3-37.82,35-1.83.57,10.85-35,1.83Z"/><path class="cls-2" d="M526.1,477.6l-3.67-70.31,13.05-.69,3.68,70.32Z"/><path class="cls-2" d="M563.67,475.64,560,405.32l10.75-.56,33.43,49.72-5.63.3,27.55-52.92,10.75-.56,3.88,70.31-12.56.65-2.66-50.93,2.51-.13-23.27,44.33-5.92.31-28.37-41.63,3-.15L576.13,475Z"/><path class="cls-2" d="M661.41,485.84l4.55-22.7,2.3,7.43a8.5,8.5,0,0,1-6.09-1.85,7.66,7.66,0,0,1-2.67-5.85,7.88,7.88,0,0,1,2-6.1,8,8,0,0,1,5.66-2.56,7.83,7.83,0,0,1,6,2,8.1,8.1,0,0,1,2.57,5.81,13.4,13.4,0,0,1-.08,2.27,18.38,18.38,0,0,1-.56,2.7c-.29,1-.69,2.32-1.21,3.89l-4.48,14.54Z"/><path class="cls-2" d="M718.47,467.54l28-72,12.86-.67,35.42,68.65-13.76.72-30.44-62,5.22-.27-23.9,64.81Zm13.71-17,3.08-10.44,37.87-2,4.06,10.06Z"/><path class="cls-2" d="M875.33,460.34a41.66,41.66,0,0,1-15.26-1.87,35.53,35.53,0,0,1-12.4-7,34.82,34.82,0,0,1-8.54-11,38.63,38.63,0,0,1-1.51-28.93A34.53,34.53,0,0,1,845,399.68a36.4,36.4,0,0,1,11.65-8.22A45.53,45.53,0,0,1,888,390.08a31.62,31.62,0,0,1,12.55,7.9l-7.82,8.47a25.93,25.93,0,0,0-19.8-7,28.16,28.16,0,0,0-10.21,2.34,23.81,23.81,0,0,0-7.81,5.55,23.4,23.4,0,0,0-4.92,8.11,26.73,26.73,0,0,0,1,19.84,23.36,23.36,0,0,0,5.74,7.61,23.87,23.87,0,0,0,8.3,4.7,27.93,27.93,0,0,0,10.34,1.27,31.26,31.26,0,0,0,10-2.18,27.49,27.49,0,0,0,9-6.06l7.84,9.36A37.59,37.59,0,0,1,890,457.31,49.12,49.12,0,0,1,875.33,460.34Zm14.61-11.44-1.37-26.22,12.25-.64L902.28,450Z"/><path class="cls-2" d="M938,445l39.68-2.08.58,11.05-52.74,2.76-3.68-70.32,51.33-2.68.58,11.05-38.27,2Zm-2.58-30,35-1.83.57,10.74-35,1.83Z"/><path class="cls-2" d="M998.33,452.9l-3.68-70.32,10.75-.56L1052.34,434l-5.33.28L1044.17,380l12.86-.67,3.68,70.32-10.75.56-46.83-51.94,5.32-.28,2.84,54.24Z"/><path class="cls-2" d="M1099.49,447.61l-3.11-59.27-23.3,1.22-.58-11.05,59.67-3.12.58,11.05-23.31,1.22,3.1,59.27Z"/><path class="cls-2" d="M1163.7,433.17l39.68-2.08.58,11.05-52.74,2.76-3.68-70.31,51.33-2.69.58,11.05-38.27,2Zm-2.58-30,35-1.83.56,10.75-35,1.82Z"/><path class="cls-2" d="M1257.3,439.35,1253.62,369l10.75-.57,33.42,49.73-5.63.29,27.56-52.91,10.74-.56,3.88,70.3-12.55.66-2.67-50.93,2.51-.13-23.26,44.33-5.93.31-28.37-41.63,3-.16,2.66,50.93Z"/><path class="cls-2" d="M1371.23,422.31l39.68-2.07.58,11.05-52.74,2.76-3.68-70.32,51.34-2.69.57,11-38.27,2Zm-2.57-30,35-1.83.56,10.75-35,1.83Z"/><path class="cls-2" d="M1431.58,430.24l-3.68-70.32,13.06-.68,3.68,70.31Z"/><path class="cls-2" d="M1502.15,427.55a41.43,41.43,0,0,1-15.26-1.92,36.07,36.07,0,0,1-12.5-7,34.61,34.61,0,0,1-8.54-11.09,38.14,38.14,0,0,1-1.5-28.73,34.14,34.14,0,0,1,7.33-11.86,36.71,36.71,0,0,1,11.66-8.22,41.22,41.22,0,0,1,15-3.5,41.71,41.71,0,0,1,15.21,1.87A35.32,35.32,0,0,1,1526,364a34.48,34.48,0,0,1,8.49,11.08A38.51,38.51,0,0,1,1536,404a34.87,34.87,0,0,1-18.89,20.13A41.57,41.57,0,0,1,1502.15,427.55Zm-.6-11.45a26,26,0,0,0,9.7-2.32,23,23,0,0,0,7.52-5.53,23.8,23.8,0,0,0,4.76-8.11,25.94,25.94,0,0,0,1.34-10,26.49,26.49,0,0,0-2.33-9.85,22.62,22.62,0,0,0-5.58-7.56,23.68,23.68,0,0,0-8.1-4.72,25.85,25.85,0,0,0-9.89-1.29,26.65,26.65,0,0,0-9.8,2.32,22.62,22.62,0,0,0-7.62,5.59,25.43,25.43,0,0,0,1.86,35.46,22.56,22.56,0,0,0,8.15,4.76A26.53,26.53,0,0,0,1501.55,416.1Z"/><path class="cls-2" d="M1625.51,421.1a41.58,41.58,0,0,1-15.26-1.92,36.37,36.37,0,0,1-12.51-7,34.75,34.75,0,0,1-8.54-11.09,38,38,0,0,1-1.5-28.68,35,35,0,0,1,7.34-11.87,36.24,36.24,0,0,1,11.66-8.26,43.84,43.84,0,0,1,30.23-1.63,34.9,34.9,0,0,1,20.89,18,38.5,38.5,0,0,1,1.51,28.83,34.95,34.95,0,0,1-18.89,20.13A41.83,41.83,0,0,1,1625.51,421.1Zm-.6-11.45a26,26,0,0,0,9.7-2.32,23.39,23.39,0,0,0,12.32-13.74,27.8,27.8,0,0,0-1-19.74,23.39,23.39,0,0,0-13.69-12.33,26,26,0,0,0-9.89-1.3,26.91,26.91,0,0,0-9.8,2.33,22.68,22.68,0,0,0-7.61,5.59,25.83,25.83,0,0,0-3.78,27.84,24.77,24.77,0,0,0,5.63,7.62,22.83,22.83,0,0,0,8.16,4.76A26.93,26.93,0,0,0,1624.91,409.65Zm24.36,24.71a28,28,0,0,1-7.28-.53,29.41,29.41,0,0,1-7-2.45,40.16,40.16,0,0,1-7.3-4.76q-3.78-3-8.35-7.42L1633,415a38.5,38.5,0,0,0,5.69,5.65,18.44,18.44,0,0,0,5.19,2.95,13,13,0,0,0,4.92.75A15.87,15.87,0,0,0,1660.7,418l6.31,7A22.41,22.41,0,0,1,1649.27,434.36Z"/><path class="cls-2" d="M1712.8,416.53q-14.37.75-23-6.95t-9.42-23.18l-2.07-39.58,13.06-.68,2,39.17q.57,10.85,5.5,15.53t13.46,4.23q8.53-.45,12.9-5.61t3.8-16l-2-39.18,12.86-.67,2.07,39.58q.81,15.46-7,24T1712.8,416.53Z"/><path class="cls-2" d="M1779.87,400.94l39.68-2.08.58,11.05-52.74,2.76-3.67-70.32,51.33-2.68.58,11.05-38.28,2Zm-2.57-30,35-1.83.56,10.75-35,1.83Z"/><path class="cls-2" d="M668.51,588.55a29,29,0,0,1-12.44-2,23.08,23.08,0,0,1-9.69-7.15l7-9.22A21.19,21.19,0,0,0,660,575.9a15.13,15.13,0,0,0,7.79,1.61Q678.68,576.94,678,564l-1.89-36.26-25,1.31-.58-11,38-2,2.43,46.61q.66,12.45-5,18.9T668.51,588.55Z"/><path class="cls-2" d="M746.26,584.48q-14.37.76-23-7t-9.42-23.18l-2.07-39.58,13.06-.68,2,39.17q.57,10.86,5.49,15.53T745.86,573q8.53-.45,12.9-5.61t3.8-16l-2-39.18,12.86-.67,2.07,39.58q.81,15.47-7,24T746.26,584.48Z"/><path class="cls-2" d="M800.85,580.62l-3.68-70.32,10.75-.56,46.94,51.94-5.32.28-2.84-54.25,12.86-.67,3.68,70.32-10.75.56L805.65,526l5.32-.28,2.84,54.24Z"/><path class="cls-2" d="M902,575.33l-3.1-59.27-23.31,1.22-.57-11,59.67-3.12.57,11L912,515.38l3.1,59.27Z"/><path class="cls-2" d="M940.28,573.33l28-72,12.86-.67,35.42,68.66-13.77.72-30.43-62,5.22-.27-23.91,64.81Zm13.72-17,3.08-10.43,37.87-2,4,10.07Z"/><path class="cls-2" d="M1078.51,566.1l-3.11-59.27-23.3,1.22-.58-11.05,59.67-3.12.58,11.05-23.31,1.22,3.1,59.26Z"/><path class="cls-2" d="M1162.24,562.72A41.16,41.16,0,0,1,1147,560.8a36,36,0,0,1-12.51-7,34.75,34.75,0,0,1-8.54-11.09,38.11,38.11,0,0,1-1.5-28.72,34.2,34.2,0,0,1,7.34-11.87,36.6,36.6,0,0,1,11.66-8.22,41.12,41.12,0,0,1,15-3.5,41.66,41.66,0,0,1,15.21,1.87,35.52,35.52,0,0,1,12.4,6.91,34.41,34.41,0,0,1,8.49,11.09,38.63,38.63,0,0,1,1.51,28.88,34.95,34.95,0,0,1-18.9,20.12A41.52,41.52,0,0,1,1162.24,562.72Zm-.6-11.45a25.85,25.85,0,0,0,9.7-2.32,23.11,23.11,0,0,0,7.51-5.53,23.78,23.78,0,0,0,4.77-8.1,26.18,26.18,0,0,0,1.34-10.05,26.68,26.68,0,0,0-2.33-9.85,22.78,22.78,0,0,0-5.59-7.56,23.65,23.65,0,0,0-8.1-4.71,25.82,25.82,0,0,0-9.89-1.3,26.65,26.65,0,0,0-9.8,2.32,22.68,22.68,0,0,0-7.61,5.59,25.85,25.85,0,0,0-3.78,27.85,24.72,24.72,0,0,0,5.63,7.61,22.54,22.54,0,0,0,8.16,4.76A26.53,26.53,0,0,0,1161.64,551.27Z"/><path class="cls-2" d="M1219.34,558.73l-3.68-70.32,30.84-1.61a44,44,0,0,1,20.17,3.32,32.66,32.66,0,0,1,14.15,11.6,37.91,37.91,0,0,1,1.94,37,32.53,32.53,0,0,1-12.87,13,43.9,43.9,0,0,1-19.71,5.42ZM1231.82,547l17-.89a29.32,29.32,0,0,0,13.55-3.73,22.45,22.45,0,0,0,8.6-8.91,24.24,24.24,0,0,0,2.6-12.93,23.85,23.85,0,0,0-3.93-12.49,22.74,22.74,0,0,0-9.47-7.86,29.26,29.26,0,0,0-13.87-2.3l-17,.89Z"/><path class="cls-2" d="M1296.89,554.67l28-72,12.85-.67,35.43,68.65-13.77.72-30.44-62,5.23-.28L1310.25,554Zm13.72-17,3.08-10.44,37.87-2,4,10.06Z"/><path class="cls-2" d="M1409.45,549.79a51.68,51.68,0,0,1-15.84-1.54,35.67,35.67,0,0,1-12.33-5.45l4-10.38a36.84,36.84,0,0,0,10.74,5,37.77,37.77,0,0,0,12.87,1.54,27.43,27.43,0,0,0,8.88-1.67,10.69,10.69,0,0,0,4.85-3.53A7.4,7.4,0,0,0,1424,529a6.5,6.5,0,0,0-2.59-5.06,17.28,17.28,0,0,0-6.14-2.8q-3.72-1-8.24-1.68t-9.07-1.89a40.74,40.74,0,0,1-8.37-3.14,16.05,16.05,0,0,1-9-14.59,19,19,0,0,1,2.51-10.66,21.21,21.21,0,0,1,9-8.12q6.12-3.19,15.77-3.69a49.89,49.89,0,0,1,12.64.94,36.5,36.5,0,0,1,11.09,4.06l-3.59,10.36a38.94,38.94,0,0,0-10-3.66,37.08,37.08,0,0,0-9.72-.85,24.67,24.67,0,0,0-8.67,1.76,10.54,10.54,0,0,0-4.79,3.73,8,8,0,0,0-1.31,4.85,6.54,6.54,0,0,0,2.54,5.06,16.06,16.06,0,0,0,6.08,2.75q3.72.92,8.3,1.68t9.06,1.89a38.63,38.63,0,0,1,8.32,3.09,17.16,17.16,0,0,1,6.28,5.42,16.81,16.81,0,0,1,2.74,9,19,19,0,0,1-2.52,10.56,21.18,21.18,0,0,1-9,8.12Q1419.09,549.29,1409.45,549.79Z"/><path class="cls-2" d="M1502,532.86l39.68-2.07.58,11-52.74,2.76-3.68-70.31,51.33-2.69.58,11.05-38.27,2Zm-2.58-30,35-1.83.56,10.75-35,1.83Z"/><path class="cls-2" d="M1584.24,540.65a52.09,52.09,0,0,1-15.85-1.54,35.7,35.7,0,0,1-12.32-5.45l4-10.38a36.84,36.84,0,0,0,10.74,5,38,38,0,0,0,12.87,1.54,27.55,27.55,0,0,0,8.88-1.67,10.77,10.77,0,0,0,4.85-3.53,7.4,7.4,0,0,0,1.36-4.76,6.45,6.45,0,0,0-2.58-5.05A17.1,17.1,0,0,0,1590,512q-3.72-1-8.24-1.68t-9.07-1.9a39.62,39.62,0,0,1-8.37-3.14,16.9,16.9,0,0,1-6.28-5.46,17.15,17.15,0,0,1-2.74-9.12,19,19,0,0,1,2.51-10.66,21.18,21.18,0,0,1,8.94-8.12q6.14-3.2,15.77-3.7a50.44,50.44,0,0,1,12.65,1,36.85,36.85,0,0,1,11.09,4l-3.59,10.37a38.94,38.94,0,0,0-10-3.66,37.1,37.1,0,0,0-9.72-.86,24.88,24.88,0,0,0-8.67,1.77,10.59,10.59,0,0,0-4.79,3.72,8,8,0,0,0-1.31,4.86,6.51,6.51,0,0,0,2.53,5,16,16,0,0,0,6.09,2.76q3.72.91,8.3,1.68t9.06,1.89a38.83,38.83,0,0,1,8.32,3.09,17.31,17.31,0,0,1,6.28,5.41,16.73,16.73,0,0,1,2.73,9,18.79,18.79,0,0,1-2.52,10.55,21.05,21.05,0,0,1-9,8.13Q1593.88,540.15,1584.24,540.65Z"/><path class="cls-2" d="M1653,537.05a51.78,51.78,0,0,1-15.85-1.54,35.7,35.7,0,0,1-12.32-5.44l4-10.39a36.33,36.33,0,0,0,10.74,5,37.77,37.77,0,0,0,12.87,1.54,27.55,27.55,0,0,0,8.88-1.67,10.69,10.69,0,0,0,4.85-3.53,7.38,7.38,0,0,0,1.36-4.75,6.44,6.44,0,0,0-2.58-5.05,16.94,16.94,0,0,0-6.14-2.8q-3.72-1-8.24-1.69t-9.07-1.89a40.17,40.17,0,0,1-8.37-3.14,17,17,0,0,1-6.28-5.46,17.19,17.19,0,0,1-2.74-9.13,19,19,0,0,1,2.51-10.65,21.2,21.2,0,0,1,8.94-8.13q6.13-3.19,15.77-3.69a50,50,0,0,1,12.65.95,36.32,36.32,0,0,1,11.09,4.05L1671.42,480a38.94,38.94,0,0,0-10-3.66,37.08,37.08,0,0,0-9.72-.85,25.13,25.13,0,0,0-8.67,1.76,10.6,10.6,0,0,0-4.79,3.73,8,8,0,0,0-1.31,4.85,6.53,6.53,0,0,0,2.53,5.06,16,16,0,0,0,6.09,2.75q3.72.92,8.3,1.68t9.06,1.9a38.83,38.83,0,0,1,8.32,3.09,17.21,17.21,0,0,1,6.28,5.41,16.72,16.72,0,0,1,2.73,9,18.84,18.84,0,0,1-2.52,10.56,21.05,21.05,0,0,1-9,8.13Q1662.59,536.56,1653,537.05Z"/><path class="cls-2" d="M1689.86,534.12l28-72,12.86-.67,35.42,68.66-13.76.72-30.44-62,5.22-.27-23.91,64.81Zm13.72-17,3.08-10.44,37.87-2,4,10.07Z"/><path class="cls-2" d="M1802.42,529.23a52,52,0,0,1-15.84-1.53,35.8,35.8,0,0,1-12.32-5.45l4-10.39a36.15,36.15,0,0,0,10.73,5,37.8,37.8,0,0,0,12.88,1.54,27.42,27.42,0,0,0,8.87-1.67,10.57,10.57,0,0,0,4.85-3.53,7.38,7.38,0,0,0,1.37-4.75,6.47,6.47,0,0,0-2.58-5.05,17,17,0,0,0-6.14-2.8q-3.74-1-8.25-1.69c-3-.48-6-1.11-9.06-1.89a40.26,40.26,0,0,1-8.38-3.14,16.05,16.05,0,0,1-9-14.59,19.08,19.08,0,0,1,2.51-10.65,21.17,21.17,0,0,1,9-8.13q6.12-3.18,15.77-3.69a49.9,49.9,0,0,1,12.64.95,36.23,36.23,0,0,1,11.09,4.05l-3.59,10.36a38.67,38.67,0,0,0-10-3.66,37,37,0,0,0-9.71-.85,24.88,24.88,0,0,0-8.67,1.77,10.62,10.62,0,0,0-4.8,3.72,8,8,0,0,0-1.3,4.85,6.5,6.5,0,0,0,2.53,5.06,15.9,15.9,0,0,0,6.08,2.75c2.49.61,5.25,1.17,8.3,1.68s6.07,1.15,9.07,1.9a39,39,0,0,1,8.32,3.09,17.18,17.18,0,0,1,6.27,5.41,16.72,16.72,0,0,1,2.74,9,19,19,0,0,1-2.52,10.56,21.17,21.17,0,0,1-9,8.13Q1812.07,528.73,1802.42,529.23Z"/><path class="cls-3" d="M174.65,730.77,171,660.45l13.05-.68,3.68,70.32Z"/><path class="cls-3" d="M212.22,728.8l-3.68-70.31,10.75-.57,46.94,51.94-5.33.28-2.83-54.24,12.86-.68,3.67,70.32-10.75.56L217,674.16l5.32-.28,2.84,54.25Z"/><path class="cls-3" d="M312.17,723.58l-13.06.68-3.67-70.32,51.33-2.68.58,11-38.28,2Zm-3-37.82,35-1.83.56,10.85-34.95,1.83Z"/><path class="cls-3" d="M368.63,720.62,365,650.3l13.06-.68,3.1,59.27L417.87,707l.58,11.06Z"/><path class="cls-3" d="M463.51,716.67q-14.37.75-23-7t-9.42-23.18L429,647l13.06-.68,2,39.18q.57,10.84,5.49,15.52t13.47,4.23q8.53-.44,12.9-5.61t3.8-16l-2.05-39.18,12.86-.67,2.07,39.58q.81,15.47-6.95,24T463.51,716.67Z"/><path class="cls-3" d="M530.58,701.07,570.26,699l.58,11L518.1,712.8l-3.68-70.31,51.34-2.69.57,11.05-38.27,2Zm-9.83-64.66,12.85-14.47,11.25-.59,14.28,13.06-10.25.53-14.37-10.83,9.65-.51L531,635.88ZM528,671.09l35-1.83.56,10.75-35,1.82Z"/><path class="cls-3" d="M590.93,709l-3.68-70.31,10.75-.57,46.94,51.94-5.33.28-2.83-54.25,12.85-.67,3.68,70.32-10.75.56-46.83-51.94,5.32-.28,2.84,54.25Z"/><path class="cls-3" d="M710.42,703.75a40.9,40.9,0,0,1-15.1-1.88,35.28,35.28,0,0,1-20.79-18A38.63,38.63,0,0,1,673,654.94a34.83,34.83,0,0,1,7.33-11.87,36.1,36.1,0,0,1,11.56-8.21,43.53,43.53,0,0,1,30.76-1.3,31.14,31.14,0,0,1,12.51,8.16l-8,8.37a26.58,26.58,0,0,0-9-5.72,25.14,25.14,0,0,0-10.26-1.53,27.29,27.29,0,0,0-10,2.33,23.62,23.62,0,0,0-7.67,5.54,23.87,23.87,0,0,0-4.86,8.11,26.88,26.88,0,0,0,1,19.89,23.89,23.89,0,0,0,5.68,7.56,23.5,23.5,0,0,0,8.21,4.71,27.21,27.21,0,0,0,10.19,1.28,25.07,25.07,0,0,0,10-2.59,26.05,26.05,0,0,0,8.32-6.73l8.85,7.49a31.75,31.75,0,0,1-11.59,9.48A40.69,40.69,0,0,1,710.42,703.75Z"/><path class="cls-3" d="M756.38,700.34,752.7,630l13.06-.68,3.68,70.32Z"/><path class="cls-3" d="M784,698.89l28-72,12.86-.67,35.42,68.65-13.76.72-30.44-62,5.23-.28-23.91,64.81Zm13.71-17,3.09-10.44,37.87-2,4.05,10.06Z"/><path class="cls-3" d="M896.56,694a51.68,51.68,0,0,1-15.84-1.54A35.67,35.67,0,0,1,868.39,687l4-10.38a36.59,36.59,0,0,0,10.74,5A37.77,37.77,0,0,0,896,683.16a27.49,27.49,0,0,0,8.88-1.67,10.69,10.69,0,0,0,4.85-3.53,7.4,7.4,0,0,0,1.37-4.75,6.51,6.51,0,0,0-2.59-5.06,17.28,17.28,0,0,0-6.14-2.8q-3.72-1-8.24-1.68t-9.07-1.89a40.17,40.17,0,0,1-8.37-3.14,16.05,16.05,0,0,1-9-14.59,19,19,0,0,1,2.51-10.66,21.24,21.24,0,0,1,8.94-8.12q6.14-3.19,15.78-3.69a49.44,49.44,0,0,1,12.64.95,36.23,36.23,0,0,1,11.09,4.05L915,636.94a38.94,38.94,0,0,0-10-3.66,37.08,37.08,0,0,0-9.72-.85,24.67,24.67,0,0,0-8.67,1.76,10.54,10.54,0,0,0-4.79,3.73,8,8,0,0,0-1.31,4.85,6.56,6.56,0,0,0,2.53,5.06,16.18,16.18,0,0,0,6.09,2.75q3.72.92,8.3,1.68t9.06,1.89a39.17,39.17,0,0,1,8.32,3.09,17.25,17.25,0,0,1,6.28,5.42,16.81,16.81,0,0,1,2.74,9,19,19,0,0,1-2.52,10.56,21.12,21.12,0,0,1-9,8.12Q906.2,693.51,896.56,694Z"/><path class="cls-3" d="M989.15,677.08l39.68-2.08.58,11.06-52.74,2.75L973,618.5l51.33-2.69.58,11.05-38.27,2Zm-2.58-30,35-1.83.56,10.75-35,1.83Z"/><path class="cls-3" d="M1082.75,683.26,1079.07,613l13.06-.69,3.68,70.32Z"/><path class="cls-3" d="M1120.31,681.3,1116.64,611l10.74-.56,46.94,51.94-5.32.28-2.84-54.25,12.86-.67L1182.7,678l-10.75.56-46.84-51.94,5.33-.28,2.83,54.24Z"/><path class="cls-3" d="M1229.06,676.62a52.06,52.06,0,0,1-15.85-1.54,35.61,35.61,0,0,1-12.32-5.45l4-10.38a36.84,36.84,0,0,0,10.74,5,38,38,0,0,0,12.87,1.54,27.55,27.55,0,0,0,8.88-1.67,10.77,10.77,0,0,0,4.85-3.53,7.4,7.4,0,0,0,1.36-4.76,6.45,6.45,0,0,0-2.58-5,17.1,17.1,0,0,0-6.14-2.8q-3.72-1-8.25-1.68t-9.06-1.9a39.62,39.62,0,0,1-8.37-3.14,16.9,16.9,0,0,1-6.28-5.46,17.16,17.16,0,0,1-2.75-9.12,19,19,0,0,1,2.52-10.66,21.06,21.06,0,0,1,8.94-8.12q6.14-3.2,15.77-3.7a50.44,50.44,0,0,1,12.65,1,36.85,36.85,0,0,1,11.09,4l-3.59,10.37a38.94,38.94,0,0,0-10-3.66,36.66,36.66,0,0,0-9.72-.85,24.67,24.67,0,0,0-8.67,1.76,10.59,10.59,0,0,0-4.79,3.72,8,8,0,0,0-1.31,4.86,6.51,6.51,0,0,0,2.53,5,16,16,0,0,0,6.09,2.76q3.72.91,8.3,1.68t9.06,1.89a38.83,38.83,0,0,1,8.32,3.09,17.31,17.31,0,0,1,6.28,5.41,16.73,16.73,0,0,1,2.73,9,18.79,18.79,0,0,1-2.52,10.55,21.05,21.05,0,0,1-9,8.13Q1238.7,676.12,1229.06,676.62Z"/><path class="cls-3" d="M1275.92,673.16l-3.68-70.32,28.93-1.51a39.38,39.38,0,0,1,16.18,2.12,23,23,0,0,1,10.74,8,24.37,24.37,0,0,1,4.32,13.28,24,24,0,0,1-2.92,13.5,23.66,23.66,0,0,1-9.84,9.17,38.14,38.14,0,0,1-15.86,3.9l-21.6,1.13,5.41-6.32,1.38,26.32Zm11.75-25.6-6.06-6.13,21-1.09c5.75-.3,10-1.75,12.81-4.35s4.07-6.11,3.83-10.53-1.86-7.77-4.9-10.06-7.45-3.29-13.21-3l-21,1.1,5.39-6.73Z"/><path class="cls-3" d="M1353.37,669.11l-3.68-70.32,13.06-.68,3.68,70.32Z"/><path class="cls-3" d="M1390.94,667.14l-3.68-70.31,28.93-1.52a39.54,39.54,0,0,1,16.18,2.13,22.93,22.93,0,0,1,10.74,8,24.33,24.33,0,0,1,4.32,13.27,22.53,22.53,0,0,1-12.77,22.53,38.94,38.94,0,0,1-15.87,3.85l-21.59,1.13,5.42-6.13,1.37,26.32Zm11.75-25.59-6.06-6,21-1.1q8.64-.45,12.81-4.4t3.83-10.57q-.35-6.63-4.91-10.07t-13.2-3l-21,1.1,5.39-6.73Zm34.25,23.19-19.11-24.59,14-.73L1451,664Z"/><path class="cls-3" d="M1460,663.53l28-72,12.86-.67,35.42,68.65-13.76.72-30.44-62,5.22-.28-23.9,64.81Zm13.71-17,3.08-10.44,37.87-2,4.05,10.06Z"/><path class="cls-3" d="M1582.25,658.14a40.77,40.77,0,0,1-15.11-1.88,35.23,35.23,0,0,1-20.78-18,38.63,38.63,0,0,1-1.51-28.93,34.93,34.93,0,0,1,7.33-11.87,36.07,36.07,0,0,1,11.56-8.2,43.43,43.43,0,0,1,30.75-1.31,31.38,31.38,0,0,1,12.52,8.16l-8,8.37a26.83,26.83,0,0,0-9-5.72,25.06,25.06,0,0,0-10.25-1.53,27.09,27.09,0,0,0-10,2.34,23.37,23.37,0,0,0-7.67,5.54,23.78,23.78,0,0,0-4.86,8.11,26.89,26.89,0,0,0,1,19.89,24.11,24.11,0,0,0,5.68,7.56,23.39,23.39,0,0,0,8.21,4.7,27,27,0,0,0,10.18,1.28,25.07,25.07,0,0,0,10-2.59,25.78,25.78,0,0,0,8.31-6.73l8.86,7.5A31.91,31.91,0,0,1,1598,654.3,40.38,40.38,0,0,1,1582.25,658.14Zm-3.58,22.05a24.28,24.28,0,0,1-5.05-.24,15.42,15.42,0,0,1-4.2-1.29l1.9-6a18.79,18.79,0,0,0,3.38,1,15,15,0,0,0,3.54.22,6.81,6.81,0,0,0,4.11-1.23,3.07,3.07,0,0,0,1.13-2.57,2.91,2.91,0,0,0-1.44-2.45,7.4,7.4,0,0,0-4.16-.69l-3.12.17,2.17-10.49,6.73-.35-1,5.79q4.44.27,6.73,2.52a8.31,8.31,0,0,1-.91,12.59Q1584.9,679.86,1578.67,680.19Z"/><path class="cls-3" d="M1659.7,654.09a41.64,41.64,0,0,1-15.26-1.92,36.07,36.07,0,0,1-12.5-7,34.61,34.61,0,0,1-8.54-11.09,38.21,38.21,0,0,1-1.51-28.73,34.31,34.31,0,0,1,7.34-11.86,36.71,36.71,0,0,1,11.66-8.22,41.38,41.38,0,0,1,15-3.51,41.85,41.85,0,0,1,15.2,1.88,35.41,35.41,0,0,1,12.4,6.9,34.63,34.63,0,0,1,8.49,11.09,38.51,38.51,0,0,1,1.51,28.88,34.87,34.87,0,0,1-18.89,20.13A41.62,41.62,0,0,1,1659.7,654.09Zm-.6-11.45a26,26,0,0,0,9.7-2.32,23.3,23.3,0,0,0,7.52-5.53,23.8,23.8,0,0,0,4.76-8.11,25.94,25.94,0,0,0,1.34-10,26.64,26.64,0,0,0-2.33-9.85,22.76,22.76,0,0,0-5.58-7.57,23.77,23.77,0,0,0-8.11-4.71,25.79,25.79,0,0,0-9.88-1.29,26.65,26.65,0,0,0-9.8,2.32,22.62,22.62,0,0,0-7.62,5.59,25.43,25.43,0,0,0,1.86,35.46,22.56,22.56,0,0,0,8.15,4.76A26.73,26.73,0,0,0,1659.1,642.64Zm3.81-65.87a9.06,9.06,0,0,1-4.48-.83,22,22,0,0,1-3.59-2.18c-1.08-.81-2.11-1.53-3.08-2.15a4.85,4.85,0,0,0-2.87-.86,4.2,4.2,0,0,0-3.33,1.79,7.7,7.7,0,0,0-1.27,4.5l-6.73.35q-.12-6.15,2.6-9.91a9.46,9.46,0,0,1,7.55-4,10,10,0,0,1,4.52.72,16.23,16.23,0,0,1,3.63,2.12,34.71,34.71,0,0,0,3,2.16,4.72,4.72,0,0,0,2.81.81,4.44,4.44,0,0,0,3.39-1.69,6.45,6.45,0,0,0,1.23-4.29l6.73-.35a15.23,15.23,0,0,1-2.56,9.75A9.55,9.55,0,0,1,1662.91,576.77Z"/><path class="cls-3" d="M1729.29,638.36l39.68-2.07.57,11.05-52.73,2.76-3.68-70.32,51.33-2.69.58,11-38.28,2Zm-2.58-30,35-1.83.56,10.75-35,1.83Z"/><path class="cls-3" d="M1811.48,646.15a52,52,0,0,1-15.84-1.54,35.61,35.61,0,0,1-12.32-5.45l4-10.38a36.78,36.78,0,0,0,10.73,5,37.8,37.8,0,0,0,12.88,1.54,27.42,27.42,0,0,0,8.87-1.67,10.67,10.67,0,0,0,4.86-3.53,7.39,7.39,0,0,0,1.36-4.75,6.46,6.46,0,0,0-2.58-5.06,17.18,17.18,0,0,0-6.14-2.8q-3.74-1-8.25-1.68t-9.06-1.89a41.06,41.06,0,0,1-8.38-3.14,16.09,16.09,0,0,1-9-14.59,19,19,0,0,1,2.52-10.66,21.12,21.12,0,0,1,8.94-8.12q6.12-3.2,15.77-3.7a50.36,50.36,0,0,1,12.64.95,36.4,36.4,0,0,1,11.09,4.06L1830,589.08a38.67,38.67,0,0,0-10-3.66,37,37,0,0,0-9.71-.85,24.67,24.67,0,0,0-8.67,1.76,10.48,10.48,0,0,0-4.79,3.73,7.93,7.93,0,0,0-1.31,4.85A6.48,6.48,0,0,0,1798,600a15.89,15.89,0,0,0,6.09,2.76q3.72.91,8.29,1.68t9.07,1.89a39,39,0,0,1,8.32,3.09,17.3,17.3,0,0,1,6.27,5.42,16.61,16.61,0,0,1,2.74,9,18.84,18.84,0,0,1-2.52,10.56,21.09,21.09,0,0,1-9,8.12Q1821.13,645.65,1811.48,646.15Z"/><path class="cls-2" d="M395.19,825.54l39.68-2.07.58,11-52.74,2.75L379,767l51.34-2.69.57,11.05-38.27,2Zm-2.57-30,35-1.83.56,10.75-35,1.83Z"/><path class="cls-2" d="M503.05,831,500,771.71l-23.3,1.22-.58-11,59.67-3.12.58,11L513,771l3.1,59.27Z"/><path class="cls-2" d="M554.79,828.27,551.11,758,580,756.44a39.54,39.54,0,0,1,16.18,2.13,22.88,22.88,0,0,1,10.74,8,24.33,24.33,0,0,1,4.32,13.27,22.53,22.53,0,0,1-12.77,22.53,38.93,38.93,0,0,1-15.86,3.85l-21.6,1.13,5.42-6.13,1.38,26.32Zm11.75-25.59-6-6,21-1.1q8.64-.45,12.82-4.4t3.82-10.57q-.35-6.63-4.9-10.07t-13.21-3l-21,1.1,5.39-6.73Zm34.26,23.19-19.12-24.59,14-.73,19.22,24.58Z"/><path class="cls-2" d="M623.8,824.66l28-72,12.86-.67L700,820.67l-13.76.72-30.44-62,5.22-.28L637.16,824Zm13.71-17,3.08-10.44,37.87-2,4.06,10.06Z"/><path class="cls-2" d="M714.51,819.92l-3.68-70.32,10.75-.56L768.51,801l-5.32.27L760.35,747l12.86-.67,3.68,70.31-10.75.57-46.84-52,5.33-.27,2.84,54.24Z"/><path class="cls-2" d="M823.25,815.24a52.31,52.31,0,0,1-15.84-1.54,35.67,35.67,0,0,1-12.33-5.45l4-10.38a36.58,36.58,0,0,0,10.74,5,37.78,37.78,0,0,0,12.87,1.55,27.25,27.25,0,0,0,8.88-1.68,10.68,10.68,0,0,0,4.85-3.52,7.36,7.36,0,0,0,1.36-4.76,6.45,6.45,0,0,0-2.58-5,16.94,16.94,0,0,0-6.14-2.8q-3.72-1-8.24-1.68t-9.07-1.9a40.17,40.17,0,0,1-8.37-3.14,16.05,16.05,0,0,1-9-14.58,19,19,0,0,1,2.51-10.66,21.12,21.12,0,0,1,8.94-8.12q6.13-3.19,15.78-3.7a50.36,50.36,0,0,1,12.64,1,36.85,36.85,0,0,1,11.09,4l-3.59,10.37a38.57,38.57,0,0,0-10-3.66,37.1,37.1,0,0,0-9.72-.86,24.88,24.88,0,0,0-8.67,1.77,10.59,10.59,0,0,0-4.79,3.72,8,8,0,0,0-1.31,4.86,6.54,6.54,0,0,0,2.53,5,16,16,0,0,0,6.09,2.76c2.48.61,5.25,1.16,8.3,1.68s6.07,1.14,9.06,1.89a38.63,38.63,0,0,1,8.32,3.09,17.13,17.13,0,0,1,6.28,5.41,16.82,16.82,0,0,1,2.74,9,19,19,0,0,1-2.52,10.55,21.14,21.14,0,0,1-9,8.13Q832.89,814.73,823.25,815.24Z"/><path class="cls-2" d="M883.17,811.09l-13.06.69-3.68-70.32,51.33-2.68.58,11.05-38.27,2Zm-3-37.81,35-1.83.57,10.85-35,1.82Z"/><path class="cls-2" d="M971.82,807.46a41.22,41.22,0,0,1-15.26-1.92,35.91,35.91,0,0,1-12.5-7,34.57,34.57,0,0,1-8.54-11.08,38.14,38.14,0,0,1-1.5-28.73,34.18,34.18,0,0,1,7.33-11.87A36.71,36.71,0,0,1,953,738.64a41.43,41.43,0,0,1,15-3.5,41.85,41.85,0,0,1,15.2,1.87,35.59,35.59,0,0,1,12.4,6.91,34.52,34.52,0,0,1,8.49,11.09,38.51,38.51,0,0,1,1.51,28.88A34.89,34.89,0,0,1,986.75,804,41.57,41.57,0,0,1,971.82,807.46Zm-.6-11.45a25.85,25.85,0,0,0,9.7-2.32,23.16,23.16,0,0,0,7.52-5.53,23.66,23.66,0,0,0,4.76-8.1,26,26,0,0,0,1.34-10,26.73,26.73,0,0,0-2.33-9.85,22.62,22.62,0,0,0-5.58-7.56,23.82,23.82,0,0,0-8.1-4.71,26,26,0,0,0-9.89-1.3,26.66,26.66,0,0,0-9.8,2.33,22.46,22.46,0,0,0-7.62,5.58A25.43,25.43,0,0,0,953.08,790a22.41,22.41,0,0,0,8.15,4.76A26.53,26.53,0,0,0,971.22,796Z"/><path class="cls-2" d="M1028.93,803.47l-3.68-70.32,28.93-1.51a39.21,39.21,0,0,1,16.18,2.13,22.93,22.93,0,0,1,10.74,8.05,24.3,24.3,0,0,1,4.32,13.27,22.51,22.51,0,0,1-12.77,22.52,38.62,38.62,0,0,1-15.87,3.85l-21.59,1.13,5.42-6.12,1.38,26.32Zm11.75-25.6-6-6,21-1.1q8.64-.45,12.81-4.4t3.83-10.58q-.35-6.63-4.91-10.06t-13.2-3l-21,1.1,5.39-6.73Zm34.25,23.19-19.11-24.58,14-.73L1089,800.33Z"/><path class="cls-2" d="M1107.88,799.34,1104.2,729l10.75-.56,33.43,49.72-5.63.3,27.55-52.92,10.75-.56,3.88,70.31-12.56.66L1169.71,745l2.51-.13L1149,789.24l-5.92.3-28.37-41.62,3-.16,2.67,50.93Z"/><path class="cls-2" d="M1199.39,794.55l28-72,12.86-.67,35.42,68.65-13.76.72-30.44-62,5.22-.28-23.91,64.81Zm13.72-17,3.08-10.44,37.87-2,4,10.06Z"/><path class="cls-2" d="M1323.35,788.07l-3.68-70.32,13.06-.68,3.68,70.31Z"/><path class="cls-2" d="M1382.77,786a52.31,52.31,0,0,1-15.84-1.54A35.67,35.67,0,0,1,1354.6,779l4-10.38a36.84,36.84,0,0,0,10.74,5,38,38,0,0,0,12.87,1.54,27.43,27.43,0,0,0,8.88-1.67,10.77,10.77,0,0,0,4.85-3.53,7.41,7.41,0,0,0,1.37-4.76,6.49,6.49,0,0,0-2.59-5,16.86,16.86,0,0,0-6.14-2.8q-3.72-1-8.24-1.68t-9.07-1.9a39.62,39.62,0,0,1-8.37-3.14,17,17,0,0,1-6.28-5.46,17.15,17.15,0,0,1-2.74-9.12,19.11,19.11,0,0,1,2.51-10.66,21.12,21.12,0,0,1,8.94-8.12q6.14-3.19,15.78-3.7a50.36,50.36,0,0,1,12.64,1,36.75,36.75,0,0,1,11.09,4l-3.59,10.37a38.57,38.57,0,0,0-10-3.66,37.1,37.1,0,0,0-9.72-.86,24.88,24.88,0,0,0-8.67,1.77,10.59,10.59,0,0,0-4.79,3.72,8,8,0,0,0-1.31,4.86,6.52,6.52,0,0,0,2.54,5,15.91,15.91,0,0,0,6.08,2.76q3.72.91,8.3,1.68t9.06,1.89a38.63,38.63,0,0,1,8.32,3.09,17.22,17.22,0,0,1,6.28,5.41,16.82,16.82,0,0,1,2.74,9,19,19,0,0,1-2.52,10.55,21.14,21.14,0,0,1-9,8.13Q1392.41,785.46,1382.77,786Z"/><path class="cls-2" d="M1451.48,782.37a51.68,51.68,0,0,1-15.84-1.54,35.67,35.67,0,0,1-12.33-5.44l4-10.39a36.33,36.33,0,0,0,10.74,5,37.77,37.77,0,0,0,12.87,1.54,27.43,27.43,0,0,0,8.88-1.67,10.64,10.64,0,0,0,4.85-3.53,7.38,7.38,0,0,0,1.37-4.75,6.48,6.48,0,0,0-2.59-5.05,17,17,0,0,0-6.14-2.81q-3.72-1-8.24-1.68t-9.07-1.89a40.17,40.17,0,0,1-8.37-3.14,16.05,16.05,0,0,1-9-14.59,19.08,19.08,0,0,1,2.51-10.65,21.2,21.2,0,0,1,8.94-8.13q6.13-3.2,15.78-3.69a49.9,49.9,0,0,1,12.64.95,36.23,36.23,0,0,1,11.09,4.05L1470,725.3a38.94,38.94,0,0,0-10-3.66,37.08,37.08,0,0,0-9.72-.85,25.13,25.13,0,0,0-8.67,1.76,10.6,10.6,0,0,0-4.79,3.73,8,8,0,0,0-1.31,4.85,6.54,6.54,0,0,0,2.54,5.06,15.9,15.9,0,0,0,6.08,2.75c2.49.61,5.25,1.17,8.3,1.68s6.07,1.14,9.06,1.9a38.63,38.63,0,0,1,8.32,3.09,17.13,17.13,0,0,1,6.28,5.41,16.81,16.81,0,0,1,2.74,9,19,19,0,0,1-2.52,10.56,21.06,21.06,0,0,1-9,8.12Q1461.12,781.87,1451.48,782.37Z"/><path class="cls-2" d="M1531.34,778.2a41.43,41.43,0,0,1-15.26-1.93,35.91,35.91,0,0,1-12.5-7,34.57,34.57,0,0,1-8.54-11.08,38.14,38.14,0,0,1-1.5-28.73,34.18,34.18,0,0,1,7.33-11.87,36.82,36.82,0,0,1,11.66-8.22,41.43,41.43,0,0,1,15-3.5,41.93,41.93,0,0,1,15.21,1.87,35.64,35.64,0,0,1,12.39,6.91,34.38,34.38,0,0,1,8.49,11.09,38.51,38.51,0,0,1,1.51,28.88,34.94,34.94,0,0,1-18.89,20.13A42,42,0,0,1,1531.34,778.2Zm-.6-11.46a25.85,25.85,0,0,0,9.7-2.32,23,23,0,0,0,7.52-5.53,23.66,23.66,0,0,0,4.76-8.1,26,26,0,0,0,1.34-10,26.54,26.54,0,0,0-2.33-9.86,22.62,22.62,0,0,0-5.58-7.56,23.82,23.82,0,0,0-8.1-4.71,26,26,0,0,0-9.89-1.3,26.66,26.66,0,0,0-9.8,2.33,22.46,22.46,0,0,0-7.62,5.58,25.9,25.9,0,0,0-3.78,27.85,24.79,24.79,0,0,0,5.64,7.61,22.41,22.41,0,0,0,8.15,4.76A26.53,26.53,0,0,0,1530.74,766.74Z"/><path class="cls-2" d="M1621.7,772.46,1618,702.14l10.75-.56,46.93,51.94-5.32.28-2.84-54.25,12.86-.67,3.68,70.32-10.75.56-46.84-51.94,5.33-.28,2.83,54.24Z"/><path class="cls-2" d="M1741.59,767.2a41.61,41.61,0,0,1-15.26-1.92,36.09,36.09,0,0,1-12.5-7,34.57,34.57,0,0,1-8.54-11.08,38.14,38.14,0,0,1-1.5-28.73,34.18,34.18,0,0,1,7.33-11.87,36.84,36.84,0,0,1,11.66-8.21,43.85,43.85,0,0,1,30.23-1.63,35.41,35.41,0,0,1,12.4,6.9,34.52,34.52,0,0,1,8.49,11.09,38.51,38.51,0,0,1,1.51,28.88,34.94,34.94,0,0,1-18.89,20.13A42,42,0,0,1,1741.59,767.2Zm-.6-11.45a25.85,25.85,0,0,0,9.7-2.33,23.16,23.16,0,0,0,7.52-5.53,23.66,23.66,0,0,0,4.76-8.1,26,26,0,0,0,1.34-10,26.64,26.64,0,0,0-2.33-9.85,22.66,22.66,0,0,0-5.58-7.57,23.77,23.77,0,0,0-8.11-4.71,26,26,0,0,0-9.88-1.3,26.66,26.66,0,0,0-9.8,2.33,22.59,22.59,0,0,0-7.62,5.58,25.46,25.46,0,0,0,1.85,35.46,22.7,22.7,0,0,0,8.16,4.77A26.93,26.93,0,0,0,1741,755.75Z"/><path class="cls-2" d="M1820.55,763.07a52.34,52.34,0,0,1-15.85-1.54,35.61,35.61,0,0,1-12.32-5.45l4-10.38a36.58,36.58,0,0,0,10.74,5,37.72,37.72,0,0,0,12.87,1.55,27.52,27.52,0,0,0,8.88-1.68,10.68,10.68,0,0,0,4.85-3.52,7.42,7.42,0,0,0,1.36-4.76,6.45,6.45,0,0,0-2.58-5,17,17,0,0,0-6.14-2.8q-3.74-1-8.25-1.69a92.4,92.4,0,0,1-9.06-1.89,40.17,40.17,0,0,1-8.37-3.14,16.08,16.08,0,0,1-9-14.58,19,19,0,0,1,2.52-10.66,21,21,0,0,1,8.94-8.12q6.12-3.2,15.77-3.7a50.36,50.36,0,0,1,12.64,1,36.66,36.66,0,0,1,11.09,4L1839,706a38.9,38.9,0,0,0-10-3.67,37.4,37.4,0,0,0-9.71-.85,24.88,24.88,0,0,0-8.67,1.77,10.59,10.59,0,0,0-4.79,3.72,8,8,0,0,0-1.31,4.86,6.53,6.53,0,0,0,2.53,5,15.8,15.8,0,0,0,6.09,2.75c2.48.61,5.25,1.17,8.29,1.69s6.07,1.14,9.07,1.89a38.83,38.83,0,0,1,8.32,3.09,17.39,17.39,0,0,1,6.28,5.41,16.73,16.73,0,0,1,2.73,9,18.79,18.79,0,0,1-2.52,10.55,21.11,21.11,0,0,1-9,8.13Q1830.19,762.57,1820.55,763.07Z"/><path class="cls-2" d="M840.1,930.74l-3.68-70.32,10.75-.56,33.42,49.72-5.63.3L902.52,857l10.74-.56,3.88,70.31-12.55.66-2.67-50.93,2.51-.14-23.26,44.33-5.93.31-28.37-41.62,3-.16,2.66,50.93Z"/><path class="cls-2" d="M931.61,926l28-72,12.86-.67L1007.85,922l-13.76.72-30.44-62,5.22-.28L945,925.25Zm13.71-17,3.08-10.44,37.87-2,4.06,10.06Z"/><path class="cls-2" d="M1022.32,921.21l-3.68-70.32,13.06-.68,3.68,70.31Z"/><path class="cls-2" d="M1081.74,919.11a52.34,52.34,0,0,1-15.85-1.54,35.61,35.61,0,0,1-12.32-5.45l4-10.38a36.58,36.58,0,0,0,10.74,5,38,38,0,0,0,12.87,1.55,27.52,27.52,0,0,0,8.88-1.68,10.68,10.68,0,0,0,4.85-3.52,7.42,7.42,0,0,0,1.36-4.76,6.44,6.44,0,0,0-2.58-5,17,17,0,0,0-6.14-2.8q-3.74-1-8.25-1.69t-9.06-1.89a40.48,40.48,0,0,1-8.38-3.14,16.1,16.1,0,0,1-9-14.58,19,19,0,0,1,2.52-10.66,21.08,21.08,0,0,1,8.94-8.13q6.12-3.18,15.77-3.69a49.9,49.9,0,0,1,12.64,1,36.13,36.13,0,0,1,11.09,4L1100.21,862a38.87,38.87,0,0,0-10-3.66,37.4,37.4,0,0,0-9.71-.85,24.88,24.88,0,0,0-8.67,1.77,10.59,10.59,0,0,0-4.79,3.72,8,8,0,0,0-1.31,4.86,6.5,6.5,0,0,0,2.53,5,15.74,15.74,0,0,0,6.09,2.75c2.48.61,5.25,1.17,8.29,1.69s6.07,1.14,9.07,1.89a38.83,38.83,0,0,1,8.32,3.09,17.29,17.29,0,0,1,6.28,5.41,16.72,16.72,0,0,1,2.73,9,18.83,18.83,0,0,1-2.52,10.56,21.11,21.11,0,0,1-9,8.13Q1091.38,918.61,1081.74,919.11Z"/><path class="cls-2" d="M1161.84,913.91l-3.67-70.32L1189,842a43.75,43.75,0,0,1,20.17,3.32,32.56,32.56,0,0,1,14.16,11.6,37.87,37.87,0,0,1,1.93,37,32.53,32.53,0,0,1-12.87,13,43.77,43.77,0,0,1-19.71,5.41Zm12.48-11.74,17-.88a29.4,29.4,0,0,0,13.56-3.73,22.58,22.58,0,0,0,8.6-8.91,24.35,24.35,0,0,0,2.59-12.93,23.76,23.76,0,0,0-3.92-12.49,22.68,22.68,0,0,0-9.48-7.86,29.26,29.26,0,0,0-13.87-2.3l-17,.89Z"/><path class="cls-2" d="M1250.34,909.28,1246.66,839l13.06-.68,3.68,70.31Z"/><path class="cls-2" d="M1301,906.63l-13.06.68L1284.23,837l51.33-2.69.58,11.05-38.27,2Zm-3-37.82,35-1.83.57,10.85-35,1.83Z"/><path class="cls-2" d="M1369.9,891.94l39.68-2.07.58,11-52.74,2.76-3.67-70.32,51.33-2.69.58,11.05-38.28,2Zm-2.57-30,35-1.83.56,10.75-35,1.83Z"/><path class="cls-2" d="M1430.25,899.87l-3.68-70.32,28.94-1.51a39.33,39.33,0,0,1,16.17,2.12,23,23,0,0,1,10.75,8.05,24.36,24.36,0,0,1,4.32,13.27A22.53,22.53,0,0,1,1474,874a38.78,38.78,0,0,1-15.87,3.85l-21.6,1.13,5.43-6.13,1.37,26.32Zm11.76-25.6-6.06-6,21-1.1q8.64-.45,12.81-4.39t3.83-10.58q-.35-6.63-4.91-10.07t-13.2-3l-21,1.1,5.39-6.73Zm34.25,23.19-19.11-24.58,14-.73,19.21,24.57Z"/><path class="cls-2" d="M1521.69,884l39.68-2.07L1562,893l-52.74,2.76-3.68-70.32,51.33-2.69.58,11-38.27,2Zm-2.58-30,35-1.83.56,10.75-35,1.83Z"/><path class="cls-2" d="M1582,891.93l-3.68-70.32,10.75-.56L1636,873l-5.32.27L1627.88,819l12.86-.67,3.68,70.31-10.75.57-46.84-52,5.33-.28,2.84,54.25Z"/><path class="cls-2" d="M1683.19,886.63l-3.1-59.26-23.3,1.22-.58-11.05,59.67-3.12.58,11-23.31,1.22,3.1,59.27Z"/><path class="cls-2" d="M1747.41,872.2l39.68-2.08.57,11-52.73,2.76-3.68-70.32,51.33-2.68.58,11.05-38.27,2Zm-2.58-30,35-1.83.56,10.75-35,1.83Z"/><path class="cls-2" d="M1829.61,880a51.72,51.72,0,0,1-15.85-1.54,35.61,35.61,0,0,1-12.32-5.44l4-10.39a36.33,36.33,0,0,0,10.74,5,37.71,37.71,0,0,0,12.87,1.54,27.55,27.55,0,0,0,8.88-1.67,10.69,10.69,0,0,0,4.85-3.53,7.38,7.38,0,0,0,1.36-4.75,6.44,6.44,0,0,0-2.58-5,17.19,17.19,0,0,0-6.14-2.81c-2.49-.64-5.23-1.2-8.25-1.68s-6-1.11-9.06-1.89a40.17,40.17,0,0,1-8.37-3.14,17,17,0,0,1-6.28-5.46,17.22,17.22,0,0,1-2.75-9.13,19,19,0,0,1,2.52-10.65,21.08,21.08,0,0,1,8.94-8.13q6.13-3.19,15.77-3.69a49.9,49.9,0,0,1,12.64,1,36.13,36.13,0,0,1,11.09,4l-3.58,10.36a38.87,38.87,0,0,0-10-3.66,37,37,0,0,0-9.71-.85,24.9,24.9,0,0,0-8.67,1.76,10.6,10.6,0,0,0-4.79,3.73,7.93,7.93,0,0,0-1.31,4.85,6.53,6.53,0,0,0,2.53,5.06,16.1,16.1,0,0,0,6.09,2.75q3.72.91,8.3,1.68c3,.52,6.06,1.14,9.06,1.9a38.31,38.31,0,0,1,8.32,3.09,17.29,17.29,0,0,1,6.28,5.41,16.72,16.72,0,0,1,2.73,9,18.84,18.84,0,0,1-2.52,10.56,21.05,21.05,0,0,1-9,8.13Q1839.25,879.48,1829.61,880Z"/><path class="cls-3" d="M701.79,1055.36l-3.68-70.31,13.06-.69,3.1,59.27,36.77-1.92.57,11Z"/><path class="cls-3" d="M799.18,1051.28a41.64,41.64,0,0,1-15.26-1.92,36.19,36.19,0,0,1-12.5-7,34.71,34.71,0,0,1-8.54-11.08,38.14,38.14,0,0,1-1.5-28.73,34.06,34.06,0,0,1,7.34-11.87,36.48,36.48,0,0,1,11.65-8.21,41.43,41.43,0,0,1,15-3.51,41.93,41.93,0,0,1,15.21,1.87,35.77,35.77,0,0,1,12.4,6.91,34.35,34.35,0,0,1,8.48,11.09,36.56,36.56,0,0,1,3.57,14.32A36.14,36.14,0,0,1,833,1027.7a34.94,34.94,0,0,1-18.89,20.13A42,42,0,0,1,799.18,1051.28Zm-.6-11.46a25.61,25.61,0,0,0,9.7-2.32,23,23,0,0,0,7.52-5.53,23.5,23.5,0,0,0,4.76-8.1,25.78,25.78,0,0,0,1.34-10,26.44,26.44,0,0,0-2.33-9.85,22.56,22.56,0,0,0-5.58-7.57,23.82,23.82,0,0,0-8.1-4.71,26,26,0,0,0-9.89-1.3,26.66,26.66,0,0,0-9.8,2.33,22.69,22.69,0,0,0-7.62,5.58,25.31,25.31,0,0,0-4.81,8.11,25.46,25.46,0,0,0,6.67,27.35,22.46,22.46,0,0,0,8.16,4.76A26.45,26.45,0,0,0,798.58,1039.82Z"/><path class="cls-3" d="M889.29,1046.56a41.22,41.22,0,0,1-15.26-1.92,36.07,36.07,0,0,1-12.5-7,34.61,34.61,0,0,1-8.54-11.09,38.14,38.14,0,0,1-1.5-28.73A34.23,34.23,0,0,1,858.82,986a36.71,36.71,0,0,1,11.66-8.22,41.17,41.17,0,0,1,15-3.5,41.63,41.63,0,0,1,15.2,1.87,35.43,35.43,0,0,1,12.4,6.91,34.41,34.41,0,0,1,8.49,11.09,38.51,38.51,0,0,1,1.51,28.88,34.89,34.89,0,0,1-18.89,20.12A41.62,41.62,0,0,1,889.29,1046.56Zm-.6-11.45a26,26,0,0,0,9.7-2.32,23.16,23.16,0,0,0,7.52-5.53,23.85,23.85,0,0,0,4.76-8.1,26,26,0,0,0,1.34-10,26.68,26.68,0,0,0-2.33-9.85,22.62,22.62,0,0,0-5.58-7.56A23.63,23.63,0,0,0,896,987a25.79,25.79,0,0,0-9.88-1.29,26.65,26.65,0,0,0-9.8,2.32,22.62,22.62,0,0,0-7.62,5.59,25.43,25.43,0,0,0,1.86,35.46,22.56,22.56,0,0,0,8.15,4.76A26.53,26.53,0,0,0,888.69,1035.11Z"/><path class="cls-3" d="M946.4,1042.57l-3.68-70.32,13.06-.68,3.67,70.31Zm10.68-17.18L955.67,1010l34.76-40.2,14.77-.77-28.94,34.15-6.81,8.32ZM995.42,1040l-28.7-30.63,8.24-10,35.83,39.83Z"/><path class="cls-3" d="M1045.49,1038.39a51.68,51.68,0,0,1-15.84-1.54,35.61,35.61,0,0,1-12.32-5.45l4-10.38a36.52,36.52,0,0,0,10.73,5,37.8,37.8,0,0,0,12.88,1.54,27.42,27.42,0,0,0,8.87-1.67,10.67,10.67,0,0,0,4.86-3.53,7.44,7.44,0,0,0,1.36-4.75,6.46,6.46,0,0,0-2.58-5.06,17.36,17.36,0,0,0-6.14-2.8q-3.73-1-8.25-1.68c-3-.48-6-1.11-9.06-1.89a41.06,41.06,0,0,1-8.38-3.14,16.09,16.09,0,0,1-9-14.59,19,19,0,0,1,2.52-10.66,21.12,21.12,0,0,1,8.94-8.12q6.12-3.2,15.77-3.69a49.89,49.89,0,0,1,12.64.94,36.4,36.4,0,0,1,11.09,4.06L1064,981.32a38.67,38.67,0,0,0-10-3.66,37,37,0,0,0-9.71-.85,24.67,24.67,0,0,0-8.67,1.76,10.48,10.48,0,0,0-4.79,3.73,7.93,7.93,0,0,0-1.31,4.85,6.52,6.52,0,0,0,2.53,5.06,16,16,0,0,0,6.09,2.75q3.72.91,8.29,1.68t9.07,1.89a39,39,0,0,1,8.32,3.09,17.3,17.3,0,0,1,6.27,5.42,16.72,16.72,0,0,1,2.74,9,18.84,18.84,0,0,1-2.52,10.56,21.09,21.09,0,0,1-9,8.12Q1055.14,1037.88,1045.49,1038.39Z"/><path class="cls-3" d="M1115.66,1033.71l28-72,12.86-.67,35.42,68.66-13.76.72-30.44-62,5.23-.27L1129,1033Zm13.71-17,3.08-10.44,37.87-2,4.06,10.06Z"/><path class="cls-3" d="M1235.05,1028.48q-14.37.75-23-7t-9.42-23.18l-2.07-39.58,13.06-.68,2,39.17q.57,10.86,5.49,15.53t13.47,4.23q8.53-.45,12.9-5.61t3.8-16l-2-39.18,12.86-.67,2.07,39.58q.81,15.46-7,24T1235.05,1028.48Z"/><path class="cls-3" d="M1302.6,1023.93l-3.1-59.26-23.3,1.22-.58-11,59.67-3.13.58,11.06L1312.56,964l3.1,59.27Z"/><path class="cls-3" d="M1366.82,1009.5l39.67-2.08.58,11.05-52.74,2.76-3.67-70.32,51.33-2.68.58,11-38.28,2ZM1357,944.84l12.84-14.47,11.25-.59,14.28,13.05-10.25.54-14.36-10.83,9.64-.51-13.16,12.27Zm7.25,34.67,35-1.83.56,10.75-35,1.83Z"/><path class="cls-3" d="M1427.16,1017.42l-3.67-70.32,10.74-.56,46.94,51.94-5.32.27L1473,944.51l12.86-.67,3.68,70.32-10.75.56-46.84-52,5.32-.27,2.84,54.24Z"/><path class="cls-3" d="M1528.32,1012.13l-3.1-59.27-23.31,1.22-.57-11.05,59.67-3.12.57,11.05-23.3,1.22,3.1,59.26Z"/><path class="cls-3" d="M1580.05,1009.42l-3.68-70.32,13.06-.68,3.68,70.32Z"/><path class="cls-3" d="M1650.22,1006.76a41.19,41.19,0,0,1-15.11-1.88,35.23,35.23,0,0,1-20.78-18,38.63,38.63,0,0,1-1.51-28.93,34.83,34.83,0,0,1,7.33-11.87,35.94,35.94,0,0,1,11.56-8.21,43.58,43.58,0,0,1,30.75-1.31,31.38,31.38,0,0,1,12.52,8.16l-8,8.38a26.57,26.57,0,0,0-9-5.73,25.23,25.23,0,0,0-10.25-1.52,27.29,27.29,0,0,0-10,2.33,23.52,23.52,0,0,0-7.67,5.54,23.87,23.87,0,0,0-4.86,8.11,26.88,26.88,0,0,0,1,19.89,23.89,23.89,0,0,0,5.68,7.56,23.61,23.61,0,0,0,8.2,4.71,27.44,27.44,0,0,0,10.19,1.28,25.07,25.07,0,0,0,10-2.59,25.91,25.91,0,0,0,8.31-6.73l8.86,7.49a31.66,31.66,0,0,1-11.6,9.47A40.47,40.47,0,0,1,1650.22,1006.76Z"/><path class="cls-3" d="M1727.67,1002.71a41.64,41.64,0,0,1-15.26-1.92,36.09,36.09,0,0,1-12.5-7,34.57,34.57,0,0,1-8.54-11.08,38.21,38.21,0,0,1-1.51-28.73,34.35,34.35,0,0,1,7.34-11.87,36.71,36.71,0,0,1,11.66-8.22,41.38,41.38,0,0,1,15-3.5,41.85,41.85,0,0,1,15.2,1.87,35.59,35.59,0,0,1,12.4,6.91,34.52,34.52,0,0,1,8.49,11.09,38.51,38.51,0,0,1,1.51,28.88,34.94,34.94,0,0,1-18.89,20.13A42,42,0,0,1,1727.67,1002.71Zm-.6-11.46a25.85,25.85,0,0,0,9.7-2.32,23.16,23.16,0,0,0,7.52-5.53,23.66,23.66,0,0,0,4.76-8.1,26,26,0,0,0,1.34-10,26.73,26.73,0,0,0-2.33-9.85,22.62,22.62,0,0,0-5.58-7.56,23.77,23.77,0,0,0-8.11-4.71,26,26,0,0,0-9.88-1.3,26.61,26.61,0,0,0-9.8,2.33,22.46,22.46,0,0,0-7.62,5.58,25.85,25.85,0,0,0-3.78,27.85,24.79,24.79,0,0,0,5.64,7.61,22.41,22.41,0,0,0,8.15,4.76A26.53,26.53,0,0,0,1727.07,991.25Z"/><path class="cls-3" d="M1806.63,998.58a52.34,52.34,0,0,1-15.85-1.54,35.61,35.61,0,0,1-12.32-5.45l4-10.38a36.58,36.58,0,0,0,10.74,5,38,38,0,0,0,12.87,1.55,27.52,27.52,0,0,0,8.88-1.68,10.68,10.68,0,0,0,4.85-3.52,7.42,7.42,0,0,0,1.36-4.76,6.44,6.44,0,0,0-2.58-5,17,17,0,0,0-6.14-2.8c-2.49-.64-5.24-1.21-8.25-1.69s-6-1.11-9.06-1.89a40.17,40.17,0,0,1-8.37-3.14,16.08,16.08,0,0,1-9-14.58,19,19,0,0,1,2.52-10.66,21.08,21.08,0,0,1,8.94-8.13q6.12-3.18,15.77-3.69a50.36,50.36,0,0,1,12.64,1,36.13,36.13,0,0,1,11.09,4l-3.58,10.36a38.87,38.87,0,0,0-10-3.66,37.4,37.4,0,0,0-9.71-.85,24.88,24.88,0,0,0-8.67,1.77,10.59,10.59,0,0,0-4.79,3.72,8,8,0,0,0-1.31,4.85,6.53,6.53,0,0,0,2.53,5.06,15.8,15.8,0,0,0,6.09,2.75c2.48.61,5.25,1.17,8.29,1.69s6.07,1.14,9.07,1.89a38.83,38.83,0,0,1,8.32,3.09,17.29,17.29,0,0,1,6.28,5.41,16.72,16.72,0,0,1,2.73,9,18.84,18.84,0,0,1-2.52,10.56,21.11,21.11,0,0,1-9,8.13Q1816.27,998.08,1806.63,998.58Z"/><path class="cls-3" d="M1858.44,995.56a8.17,8.17,0,0,1-8.78-8,7.8,7.8,0,0,1,2.1-6.1,8.36,8.36,0,0,1,5.81-2.57,8.07,8.07,0,0,1,5.84,2,7.8,7.8,0,0,1,2.73,5.85,8.14,8.14,0,0,1-2.09,6.2A7.91,7.91,0,0,1,1858.44,995.56Z"/></g></g></g></g></svg>