<svg xmlns="http://www.w3.org/2000/svg" viewBox="0 0 2451.31 811.2"><defs><style>.cls-1{fill:#ececed;}</style></defs><title>6</title><g id="Camada_2" data-name="Camada 2"><g id="Camada_1-2" data-name="Camada 1"><g id="DESKTOP6"><rect class="cls-1" x="1210.05" y="187.86" width="1241.26" height="250.55"/><path class="cls-1" d="M1356.89,69.87H1349V14.73h7.88Zm32.37-24.57H1356.1V38.44h33.16Zm-.71-30.57h7.88V69.87h-7.88Z" transform="translate(-17.26 0)"/><path class="cls-1" d="M1438.74,70.5a31.73,31.73,0,0,1-11.7-2.12,28,28,0,0,1-9.34-5.95,27.44,27.44,0,0,1-6.14-8.94,28,28,0,0,1-2.21-11.19,28,28,0,0,1,2.21-11.18,27.38,27.38,0,0,1,6.14-8.95,28.1,28.1,0,0,1,9.3-5.94,31.48,31.48,0,0,1,11.74-2.13,31.82,31.82,0,0,1,11.65,2.09,27.46,27.46,0,0,1,9.3,5.91,26.81,26.81,0,0,1,6.11,9A28.76,28.76,0,0,1,1468,42.3a28.73,28.73,0,0,1-2.16,11.27,27.05,27.05,0,0,1-6.11,8.94,27.46,27.46,0,0,1-9.3,5.91A31.82,31.82,0,0,1,1438.74,70.5Zm0-7a22.38,22.38,0,0,0,8.46-1.57,20.28,20.28,0,0,0,6.78-4.45,21,21,0,0,0,4.49-6.74,21.72,21.72,0,0,0,1.61-8.43,21,21,0,0,0-6.1-15.12,19.79,19.79,0,0,0-6.78-4.49,22.38,22.38,0,0,0-8.46-1.58,22.63,22.63,0,0,0-8.55,1.58,20.24,20.24,0,0,0-6.82,4.49,21.12,21.12,0,0,0-4.53,6.73,21.48,21.48,0,0,0-1.61,8.39,21.72,21.72,0,0,0,1.61,8.43,20.42,20.42,0,0,0,11.35,11.19A22.63,22.63,0,0,0,1438.74,63.49Z" transform="translate(-17.26 0)"/><path class="cls-1" d="M1486.79,70.5a20.87,20.87,0,0,1-9.14-2,17.57,17.57,0,0,1-6.93-5.91l4.57-5.36a17.2,17.2,0,0,0,5.16,4.85,12.23,12.23,0,0,0,6.34,1.69q9.45,0,9.45-11.19v-31h-19.93V14.73H1504V52.15q0,9.21-4.37,13.79T1486.79,70.5Z" transform="translate(-17.26 0)"/><path class="cls-1" d="M1528.85,63H1561v6.85h-40V14.73h38.91v6.85h-31Zm-.7-24.5h28.35v6.7h-28.35Z" transform="translate(-17.26 0)"/><path class="cls-1" d="M1621.57,70.5a32.06,32.06,0,0,1-11.73-2.08,27.32,27.32,0,0,1-15.44-14.85,28.22,28.22,0,0,1-2.21-11.27A28.17,28.17,0,0,1,1594.4,31a27,27,0,0,1,6.18-8.94,27.89,27.89,0,0,1,9.33-5.91,34.61,34.61,0,0,1,23.8,0,23.56,23.56,0,0,1,9.21,6.38L1638,27.49a21.8,21.8,0,0,0-7.37-4.84,23.61,23.61,0,0,0-8.62-1.54,24.12,24.12,0,0,0-8.79,1.58,21,21,0,0,0-7,4.41,19.64,19.64,0,0,0-4.57,6.73,22.07,22.07,0,0,0-1.61,8.47,21.81,21.81,0,0,0,1.61,8.39,20.14,20.14,0,0,0,4.57,6.78,20.9,20.9,0,0,0,7,4.45,23.79,23.79,0,0,0,8.75,1.57,26.15,26.15,0,0,0,8.47-1.38,20.76,20.76,0,0,0,7.52-4.6l4.49,6a28,28,0,0,1-9.57,5.24A36.54,36.54,0,0,1,1621.57,70.5Zm13.32-8V42h7.56v21.5Z" transform="translate(-17.26 0)"/><path class="cls-1" d="M1658.36,69.87V14.73h21.51A30.33,30.33,0,0,1,1692.24,17a17.56,17.56,0,0,1,7.87,6.62A18.81,18.81,0,0,1,1702.87,34a18.6,18.6,0,0,1-2.76,10.28,17.54,17.54,0,0,1-7.87,6.58,30.33,30.33,0,0,1-12.37,2.28H1662.7l3.54-3.62v20.4Zm7.88-19.61-3.54-3.86h16.93q7.56,0,11.46-3.27T1695,34q0-5.91-3.9-9.14t-11.46-3.23H1662.7l3.54-3.94Zm29,19.61-14-20h8.43l14.18,20Z" transform="translate(-17.26 0)"/><path class="cls-1" d="M1739.34,70.5q-10.86,0-17.09-6.22T1716,46.08V14.73h7.87v31q0,9.21,4.06,13.47t11.46,4.25q7.49,0,11.54-4.25T1755,45.77v-31h7.64V46.08q0,12-6.18,18.2T1739.34,70.5Z" transform="translate(-17.26 0)"/><path class="cls-1" d="M1779.68,69.87V14.73h6.46L1822.61,60h-3.39V14.73h7.88V69.87h-6.46l-36.47-45.29h3.38V69.87Z" transform="translate(-17.26 0)"/><path class="cls-1" d="M1869.4,70.5a32.15,32.15,0,0,1-11.74-2.08,27.4,27.4,0,0,1-15.44-14.85A28.22,28.22,0,0,1,1840,42.3a28.17,28.17,0,0,1,2.2-11.26,27.07,27.07,0,0,1,6.19-8.94,27.89,27.89,0,0,1,9.33-5.91,34.58,34.58,0,0,1,23.79,0,23.52,23.52,0,0,1,9.22,6.38l-4.88,4.88a21.8,21.8,0,0,0-7.37-4.84,23.61,23.61,0,0,0-8.62-1.54,24.08,24.08,0,0,0-8.79,1.58,21,21,0,0,0-7,4.41,19.64,19.64,0,0,0-4.57,6.73,21.88,21.88,0,0,0-1.61,8.47,21.62,21.62,0,0,0,1.61,8.39,20.14,20.14,0,0,0,4.57,6.78,20.8,20.8,0,0,0,7,4.45,23.79,23.79,0,0,0,8.75,1.57,26,26,0,0,0,8.46-1.38,20.71,20.71,0,0,0,7.53-4.6l4.49,6a28,28,0,0,1-9.57,5.24A36.54,36.54,0,0,1,1869.4,70.5Zm13.32-8V42h7.56v21.5Z" transform="translate(-17.26 0)"/><path class="cls-1" d="M1914.07,63h32.14v6.85h-40V14.73h38.92v6.85h-31Zm-.71-24.5h28.36v6.7h-28.36Z" transform="translate(-17.26 0)"/><path class="cls-1" d="M1956.53,81.53l3.94-15.91,1,4.57a5.41,5.41,0,0,1-3.82-1.42,5,5,0,0,1-1.53-3.86,5.18,5.18,0,0,1,5.27-5.36,4.83,4.83,0,0,1,3.71,1.54,5.43,5.43,0,0,1,1.41,3.82,11.05,11.05,0,0,1-.11,1.54,17,17,0,0,1-.4,1.73,24.2,24.2,0,0,1-.83,2.4l-3.7,11Z" transform="translate(-17.26 0)"/><path class="cls-1" d="M1993.08,69.87l25-55.14h7.8l25.05,55.14h-8.27l-22.29-50.73h3.15l-22.3,50.73Zm10.64-13.78,2.12-6.3h31l2.28,6.3Z" transform="translate(-17.26 0)"/><path class="cls-1" d="M2060,69.87V14.73h6.46l24.74,41.67h-3.47l24.42-41.67h6.46l.08,55.14h-7.56L2111,26.63h1.81l-21.74,36.55h-3.63l-21.9-36.55h2V69.87Z" transform="translate(-17.26 0)"/><path class="cls-1" d="M2127.71,69.87l25-55.14h7.8l25.05,55.14h-8.27L2155,19.14h3.15l-22.3,50.73Zm10.63-13.78,2.13-6.3h31l2.28,6.3Z" transform="translate(-17.26 0)"/><path class="cls-1" d="M2194.59,69.87V14.73h6.46L2237.52,60h-3.38V14.73H2242V69.87h-6.46l-36.47-45.29h3.39V69.87Z" transform="translate(-17.26 0)"/><path class="cls-1" d="M2267.3,69.87h-7.88V14.73h7.88Zm32.38-24.57h-33.17V38.44h33.17ZM2299,14.73h7.88V69.87H2299Z" transform="translate(-17.26 0)"/><path class="cls-1" d="M2315.9,69.87l25-55.14h7.8l25.05,55.14h-8.28l-22.29-50.73h3.15L2324,69.87Zm10.64-13.78,2.13-6.3h31l2.29,6.3ZM2350.33,10a7,7,0,0,1-3.35-.78,13.91,13.91,0,0,1-2.64-1.86c-.79-.7-1.55-1.32-2.28-1.85a3.81,3.81,0,0,0-2.21-.78,3.41,3.41,0,0,0-2.79,1.3,6.21,6.21,0,0,0-1.23,3.58h-4.25a11.73,11.73,0,0,1,2.21-7A6.65,6.65,0,0,1,2339.3,0a6.81,6.81,0,0,1,3.39.83,14.28,14.28,0,0,1,2.68,1.89c.78.71,1.53,1.32,2.24,1.85a3.65,3.65,0,0,0,2.17.79,3.59,3.59,0,0,0,2.83-1.26A5.42,5.42,0,0,0,2353.8.63h4.25a10.81,10.81,0,0,1-2.17,6.77A6.74,6.74,0,0,1,2350.33,10Z" transform="translate(-17.26 0)"/><path class="cls-1" d="M1283.94,164.41V109.26h7.88v55.15Z" transform="translate(-17.26 0)"/><path class="cls-1" d="M1309.23,164.41V109.26h6.46l36.47,45.3h-3.39v-45.3h7.88v55.15h-6.46l-36.47-45.3h3.38v45.3Z" transform="translate(-17.26 0)"/><path class="cls-1" d="M1374.06,164.41V109.26h23.24a33.56,33.56,0,0,1,15.56,3.47,25.55,25.55,0,0,1,10.47,9.69,29.58,29.58,0,0,1,0,28.83,25.55,25.55,0,0,1-10.47,9.69,33.56,33.56,0,0,1-15.56,3.47Zm7.88-6.86h14.89a25.3,25.3,0,0,0,11.85-2.6,18.88,18.88,0,0,0,7.76-7.28,22.73,22.73,0,0,0,0-21.71,19,19,0,0,0-7.76-7.24,25.3,25.3,0,0,0-11.85-2.6h-14.89Z" transform="translate(-17.26 0)"/><path class="cls-1" d="M1440,164.41V109.26h7.88v55.15Z" transform="translate(-17.26 0)"/><path class="cls-1" d="M1473.16,157.55h32.14v6.86h-40V109.26h38.92v6.86h-31Zm-.71-24.5h28.36v6.7h-28.36Z" transform="translate(-17.26 0)"/><path class="cls-1" d="M1548.86,157.55H1581v6.86h-40V109.26h38.91v6.86h-31Zm-.7-24.5h28.35v6.7h-28.35Z" transform="translate(-17.26 0)"/><path class="cls-1" d="M1632.76,165a37.78,37.78,0,0,1-12-1.93,24.62,24.62,0,0,1-9.06-5l2.91-6.14a25.56,25.56,0,0,0,8,4.57,28.89,28.89,0,0,0,10.16,1.81,23.15,23.15,0,0,0,7.8-1.1,9.32,9.32,0,0,0,4.41-3,7.2,7.2,0,0,0,1.42-4.38,6,6,0,0,0-1.85-4.57,13.9,13.9,0,0,0-4.81-2.79,52.08,52.08,0,0,0-6.5-1.85q-3.54-.8-7.13-1.86a31.27,31.27,0,0,1-6.53-2.71,13.5,13.5,0,0,1-4.77-4.45,13,13,0,0,1-1.81-7.21,14.53,14.53,0,0,1,2.24-7.84,15.57,15.57,0,0,1,6.94-5.75,28.4,28.4,0,0,1,11.93-2.17,36.86,36.86,0,0,1,9.53,1.26,26.46,26.46,0,0,1,8.19,3.63l-2.6,6.3a25.15,25.15,0,0,0-7.48-3.43,29.22,29.22,0,0,0-7.64-1.06,21,21,0,0,0-7.64,1.18,9.27,9.27,0,0,0-4.37,3.15,7.52,7.52,0,0,0-1.38,4.41,6,6,0,0,0,1.85,4.65,13.21,13.21,0,0,0,4.8,2.76,65.63,65.63,0,0,0,6.5,1.85c2.37.55,4.74,1.17,7.13,1.85a30.48,30.48,0,0,1,6.54,2.68,13.48,13.48,0,0,1,4.77,4.41,12.75,12.75,0,0,1,1.81,7.09,14.13,14.13,0,0,1-2.29,7.76,15.74,15.74,0,0,1-7,5.75A29,29,0,0,1,1632.76,165Z" transform="translate(-17.26 0)"/><path class="cls-1" d="M1674.35,157.55h32.14v6.86h-40V109.26h38.91v6.86h-31Zm-.7-24.5H1702v6.7h-28.35Z" transform="translate(-17.26 0)"/><path class="cls-1" d="M1720.12,164.41V109.26h6.46l24.74,41.68h-3.47l24.42-41.68h6.46l.08,55.15h-7.56l-.08-43.25H1773l-21.74,36.55h-3.62l-21.9-36.55h2v43.25Z" transform="translate(-17.26 0)"/><path class="cls-1" d="M1787.87,164.41l25-55.15h7.8l25,55.15h-8.27l-22.29-50.74h3.15L1796,164.41Zm10.64-13.79,2.12-6.3h31l2.29,6.3Z" transform="translate(-17.26 0)"/><path class="cls-1" d="M1854.75,164.41V109.26h6.46l36.47,45.3h-3.38v-45.3h7.88v55.15h-6.46l-36.48-45.3h3.39v45.3Z" transform="translate(-17.26 0)"/><path class="cls-1" d="M1911.23,164.41l25-55.15h7.8l25,55.15h-8.28l-22.29-50.74h3.15l-22.29,50.74Zm10.64-13.79,2.13-6.3h31l2.29,6.3Z" transform="translate(-17.26 0)"/><path class="cls-1" d="M2025.07,165a31.53,31.53,0,0,1-11.7-2.13A28,28,0,0,1,2004,157a27.38,27.38,0,0,1-6.14-8.94,29.41,29.41,0,0,1,0-22.37,27.38,27.38,0,0,1,6.14-8.94,28.13,28.13,0,0,1,9.3-5.95,31.48,31.48,0,0,1,11.74-2.13,31.82,31.82,0,0,1,11.65,2.09,27.46,27.46,0,0,1,9.3,5.91,26.91,26.91,0,0,1,6.11,9,30.35,30.35,0,0,1,0,22.49A27.05,27.05,0,0,1,2046,157a27.46,27.46,0,0,1-9.3,5.91A31.82,31.82,0,0,1,2025.07,165Zm0-7a22.38,22.38,0,0,0,8.46-1.58,19.93,19.93,0,0,0,6.78-4.49,21.22,21.22,0,0,0,6.1-15.13,21.52,21.52,0,0,0-1.61-8.42,20.73,20.73,0,0,0-4.49-6.74,20.13,20.13,0,0,0-6.78-4.45,22.38,22.38,0,0,0-8.46-1.58,22.63,22.63,0,0,0-8.55,1.58,20.42,20.42,0,0,0-11.35,11.19,22.64,22.64,0,0,0,0,16.77,20.9,20.9,0,0,0,4.53,6.78,20.4,20.4,0,0,0,6.82,4.49A22.63,22.63,0,0,0,2025.07,158Zm18,17.88a19.79,19.79,0,0,1-10.32-2.8,33.1,33.1,0,0,1-5.2-3.78,76.18,76.18,0,0,1-5.83-5.71l8.43-2.21a35.8,35.8,0,0,0,4.53,4.77,15.13,15.13,0,0,0,4.29,2.68,11.66,11.66,0,0,0,4.25.82,12.92,12.92,0,0,0,10-4.72l3.7,4.49A17.19,17.19,0,0,1,2043.11,175.91Z" transform="translate(-17.26 0)"/><path class="cls-1" d="M2090.06,165q-10.87,0-17.1-6.23t-6.22-18.19V109.26h7.88v31q0,9.22,4.05,13.47t11.47,4.26q7.47,0,11.54-4.26t4.05-13.47v-31h7.64v31.36q0,12-6.18,18.19T2090.06,165Z" transform="translate(-17.26 0)"/><path class="cls-1" d="M2138.27,157.55h32.14v6.86h-40V109.26h38.92v6.86h-31Zm-.71-24.5h28.36v6.7h-28.36Z" transform="translate(-17.26 0)"/><path class="cls-1" d="M2222,164.41l-24.27-55.15h8.51l22.3,50.89h-4.89l22.45-50.89H2254l-24.18,55.15Z" transform="translate(-17.26 0)"/><path class="cls-1" d="M2269.74,157.55h32.15v6.86h-40V109.26h38.91v6.86h-31Zm-.7-24.5h28.36v6.7H2269Z" transform="translate(-17.26 0)"/><path class="cls-1" d="M2315.51,164.41V109.26H2322l24.74,41.68h-3.47l24.42-41.68h6.46l.08,55.15h-7.56l-.08-43.25h1.81l-21.74,36.55H2343l-21.9-36.55h2v43.25Z" transform="translate(-17.26 0)"/><path class="cls-1" d="M2392.32,164.88a5.33,5.33,0,0,1-5.36-5.44,5.1,5.1,0,0,1,1.58-3.86,5.32,5.32,0,0,1,3.78-1.49,5.08,5.08,0,0,1,3.66,1.49,5.15,5.15,0,0,1,1.54,3.86,5.25,5.25,0,0,1-1.54,3.9A5,5,0,0,1,2392.32,164.88Z" transform="translate(-17.26 0)"/><path class="cls-1" d="M2411.07,164.88a5.33,5.33,0,0,1-5.36-5.44,5.1,5.1,0,0,1,1.58-3.86,5.32,5.32,0,0,1,3.78-1.49,5.08,5.08,0,0,1,3.66,1.49,5.15,5.15,0,0,1,1.54,3.86,5.25,5.25,0,0,1-1.54,3.9A5,5,0,0,1,2411.07,164.88Z" transform="translate(-17.26 0)"/><path class="cls-1" d="M2429.82,164.88a5.31,5.31,0,0,1-5.36-5.44,5.09,5.09,0,0,1,1.57-3.86,5.33,5.33,0,0,1,3.79-1.49,5.11,5.11,0,0,1,3.66,1.49,5.18,5.18,0,0,1,1.53,3.86,5.28,5.28,0,0,1-1.53,3.9A5,5,0,0,1,2429.82,164.88Z" transform="translate(-17.26 0)"/><path class="cls-1" d="M1283.71,532.88v-54H1290l35.72,44.36h-3.32V478.88h7.72v54h-6.33l-35.71-44.35h3.31v44.35Z" transform="translate(-17.26 0)"/><path class="cls-1" d="M1371.57,533.5a30.91,30.91,0,0,1-11.45-2.09,27.37,27.37,0,0,1-9.15-5.82,26.79,26.79,0,0,1-6-8.76,28.84,28.84,0,0,1,0-21.9,26.89,26.89,0,0,1,6-8.76,27.65,27.65,0,0,1,9.11-5.82,30.82,30.82,0,0,1,11.49-2.08,31.28,31.28,0,0,1,11.42,2,26.91,26.91,0,0,1,9.1,5.79,26.33,26.33,0,0,1,6,8.79,29.65,29.65,0,0,1,0,22,26.51,26.51,0,0,1-6,8.76,27,27,0,0,1-9.1,5.78A31.07,31.07,0,0,1,1371.57,533.5Zm0-6.87a21.88,21.88,0,0,0,8.29-1.54,19.71,19.71,0,0,0,6.64-4.36,20.28,20.28,0,0,0,4.39-6.6,21,21,0,0,0,1.58-8.25,20.66,20.66,0,0,0-6-14.81,19.51,19.51,0,0,0-6.64-4.4,22.07,22.07,0,0,0-8.29-1.54,22.34,22.34,0,0,0-8.37,1.54,19.93,19.93,0,0,0-6.67,4.4,20.63,20.63,0,0,0-4.44,6.6,20.93,20.93,0,0,0-1.58,8.21,21.2,21.2,0,0,0,1.58,8.25,20.05,20.05,0,0,0,11.11,11A22.14,22.14,0,0,0,1371.57,526.63Z" transform="translate(-17.26 0)"/><path class="cls-1" d="M1428.58,533.5a36.89,36.89,0,0,1-11.81-1.89,24.29,24.29,0,0,1-8.87-4.9l2.86-6a25.17,25.17,0,0,0,7.86,4.48,28.48,28.48,0,0,0,10,1.77,22.46,22.46,0,0,0,7.63-1.08,9,9,0,0,0,4.32-3,7,7,0,0,0,1.39-4.28,5.86,5.86,0,0,0-1.81-4.48,13.42,13.42,0,0,0-4.71-2.73,52.53,52.53,0,0,0-6.36-1.82c-2.32-.51-4.64-1.11-7-1.81a30.79,30.79,0,0,1-6.4-2.66,13,13,0,0,1-4.67-4.36,12.7,12.7,0,0,1-1.78-7.06,14.23,14.23,0,0,1,2.2-7.67,15.27,15.27,0,0,1,6.79-5.63,27.86,27.86,0,0,1,11.69-2.12,36.18,36.18,0,0,1,9.33,1.23,25.93,25.93,0,0,1,8,3.55l-2.54,6.17a25.13,25.13,0,0,0-7.33-3.36,28.85,28.85,0,0,0-7.48-1,20.67,20.67,0,0,0-7.49,1.16,9.11,9.11,0,0,0-4.28,3.09,7.32,7.32,0,0,0-1.35,4.31,5.94,5.94,0,0,0,1.82,4.56,13,13,0,0,0,4.7,2.7,65.78,65.78,0,0,0,6.37,1.81q3.46.81,7,1.81a29.89,29.89,0,0,1,6.4,2.62,13.28,13.28,0,0,1,4.67,4.32,12.46,12.46,0,0,1,1.77,6.95,13.85,13.85,0,0,1-2.24,7.59,15.51,15.51,0,0,1-6.9,5.64A28.53,28.53,0,0,1,1428.58,533.5Z" transform="translate(-17.26 0)"/><path class="cls-1" d="M1477.33,533.5a36.89,36.89,0,0,1-11.81-1.89,24.29,24.29,0,0,1-8.87-4.9l2.86-6a25.11,25.11,0,0,0,7.87,4.48,28.38,28.38,0,0,0,9.95,1.77,22.46,22.46,0,0,0,7.63-1.08,9,9,0,0,0,4.32-3,7,7,0,0,0,1.39-4.28,5.86,5.86,0,0,0-1.81-4.48,13.42,13.42,0,0,0-4.71-2.73,52.53,52.53,0,0,0-6.36-1.82c-2.32-.51-4.64-1.11-7-1.81a30.79,30.79,0,0,1-6.4-2.66,13,13,0,0,1-4.67-4.36,12.7,12.7,0,0,1-1.78-7.06,14.23,14.23,0,0,1,2.2-7.67,15.27,15.27,0,0,1,6.79-5.63,27.86,27.86,0,0,1,11.69-2.12,36.18,36.18,0,0,1,9.33,1.23,25.93,25.93,0,0,1,8,3.55l-2.54,6.17a25.13,25.13,0,0,0-7.33-3.36,28.85,28.85,0,0,0-7.48-1,20.57,20.57,0,0,0-7.48,1.16,9.09,9.09,0,0,0-4.29,3.09,7.32,7.32,0,0,0-1.35,4.31,5.94,5.94,0,0,0,1.82,4.56,13,13,0,0,0,4.7,2.7,65.78,65.78,0,0,0,6.37,1.81q3.46.81,7,1.81a29.89,29.89,0,0,1,6.4,2.62,13.28,13.28,0,0,1,4.67,4.32,12.46,12.46,0,0,1,1.77,6.95,13.77,13.77,0,0,1-2.24,7.59,15.51,15.51,0,0,1-6.9,5.64A28.53,28.53,0,0,1,1477.33,533.5Z" transform="translate(-17.26 0)"/><path class="cls-1" d="M1534.72,533.5a30.93,30.93,0,0,1-11.46-2.09,27.32,27.32,0,0,1-9.14-5.82,26.82,26.82,0,0,1-6-8.76,28.84,28.84,0,0,1,0-21.9,26.92,26.92,0,0,1,6-8.76,27.61,27.61,0,0,1,9.1-5.82,30.87,30.87,0,0,1,11.5-2.08,31.18,31.18,0,0,1,11.41,2,27,27,0,0,1,9.11,5.79,26.16,26.16,0,0,1,6,8.79,29.52,29.52,0,0,1,0,22,26.33,26.33,0,0,1-6,8.76,27.08,27.08,0,0,1-9.11,5.78A31,31,0,0,1,1534.72,533.5Zm0-6.87a21.91,21.91,0,0,0,8.29-1.54,19.66,19.66,0,0,0,6.63-4.36,20.15,20.15,0,0,0,4.4-6.6,21.2,21.2,0,0,0,1.58-8.25,20.93,20.93,0,0,0-1.58-8.21,20.68,20.68,0,0,0-4.4-6.6,19.47,19.47,0,0,0-6.63-4.4,23.3,23.3,0,0,0-16.66,0,19.83,19.83,0,0,0-6.67,4.4,20.31,20.31,0,0,0-4.44,6.6,20.76,20.76,0,0,0-1.58,8.21,21,21,0,0,0,1.58,8.25,19.8,19.8,0,0,0,4.44,6.6,20,20,0,0,0,6.67,4.36A22.07,22.07,0,0,0,1534.72,526.63Z" transform="translate(-17.26 0)"/><path class="cls-1" d="M1605.3,526.17h31.47v6.71h-39.19v-54h38.11v6.71H1605.3Zm-.7-24h27.77v6.56H1604.6Z" transform="translate(-17.26 0)"/><path class="cls-1" d="M1665.85,533.5a36.83,36.83,0,0,1-11.8-1.89,24.29,24.29,0,0,1-8.87-4.9l2.85-6a25.22,25.22,0,0,0,7.87,4.48,28.47,28.47,0,0,0,9.95,1.77,22.53,22.53,0,0,0,7.64-1.08,9.1,9.1,0,0,0,4.32-3,7.09,7.09,0,0,0,1.39-4.28,5.87,5.87,0,0,0-1.82-4.48,13.28,13.28,0,0,0-4.7-2.73,52.19,52.19,0,0,0-6.37-1.82q-3.46-.76-7-1.81a31,31,0,0,1-6.4-2.66,13.12,13.12,0,0,1-4.67-4.36,12.78,12.78,0,0,1-1.77-7.06,14.14,14.14,0,0,1,2.2-7.67,15.21,15.21,0,0,1,6.79-5.63,27.81,27.81,0,0,1,11.68-2.12,36.25,36.25,0,0,1,9.34,1.23,26,26,0,0,1,8,3.55l-2.55,6.17a25,25,0,0,0-7.32-3.36,28.92,28.92,0,0,0-7.49-1,20.61,20.61,0,0,0-7.48,1.16,9.11,9.11,0,0,0-4.28,3.09,7.32,7.32,0,0,0-1.35,4.31,5.94,5.94,0,0,0,1.81,4.56,13.08,13.08,0,0,0,4.71,2.7c1.93.66,4,1.27,6.36,1.81s4.64,1.14,7,1.81a30,30,0,0,1,6.41,2.62,13.25,13.25,0,0,1,4.66,4.32,12.47,12.47,0,0,1,1.78,6.95,13.85,13.85,0,0,1-2.24,7.59,15.51,15.51,0,0,1-6.9,5.64A28.61,28.61,0,0,1,1665.85,533.5Z" transform="translate(-17.26 0)"/><path class="cls-1" d="M1708.82,532.88V485.59H1690.3v-6.71H1735v6.71h-18.52v47.29Z" transform="translate(-17.26 0)"/><path class="cls-1" d="M1744.22,532.88v-54h7.72v54Z" transform="translate(-17.26 0)"/><path class="cls-1" d="M1769,532.88v-54h7.71v47.29h29.23v6.71Z" transform="translate(-17.26 0)"/><path class="cls-1" d="M1839,533.5a30.93,30.93,0,0,1-11.46-2.09,27.32,27.32,0,0,1-9.14-5.82,26.82,26.82,0,0,1-6-8.76,29,29,0,0,1,0-21.9,26.92,26.92,0,0,1,6-8.76,27.61,27.61,0,0,1,9.1-5.82,30.87,30.87,0,0,1,11.5-2.08,31.18,31.18,0,0,1,11.41,2,27,27,0,0,1,9.11,5.79,26.33,26.33,0,0,1,6,8.79,29.65,29.65,0,0,1,0,22,26.51,26.51,0,0,1-6,8.76,27.08,27.08,0,0,1-9.11,5.78A31,31,0,0,1,1839,533.5Zm0-6.87a21.91,21.91,0,0,0,8.29-1.54,19.57,19.57,0,0,0,6.63-4.36,20.15,20.15,0,0,0,4.4-6.6,21.2,21.2,0,0,0,1.58-8.25,20.93,20.93,0,0,0-1.58-8.21,20.68,20.68,0,0,0-4.4-6.6,19.38,19.38,0,0,0-6.63-4.4,23.3,23.3,0,0,0-16.66,0,19.83,19.83,0,0,0-6.67,4.4,20.31,20.31,0,0,0-4.44,6.6,20.93,20.93,0,0,0-1.58,8.21,21.2,21.2,0,0,0,1.58,8.25,19.8,19.8,0,0,0,4.44,6.6,20,20,0,0,0,6.67,4.36A22.07,22.07,0,0,0,1839,526.63Z" transform="translate(-17.26 0)"/><path class="cls-1" d="M1912.62,532.88V485.59H1894.1v-6.71h44.67v6.71h-18.52v47.29Z" transform="translate(-17.26 0)"/><path class="cls-1" d="M1955.74,526.17h31.47v6.71H1948v-54h38.11v6.71h-30.39Zm-.7-24h27.77v6.56H1955Z" transform="translate(-17.26 0)"/><path class="cls-1" d="M2000.55,532.88v-54h6.33l24.22,40.81h-3.39l23.91-40.81H2058l.07,54h-7.4l-.08-42.35h1.78L2031,526.32h-3.54L2006,490.53H2008v42.35Z" transform="translate(-17.26 0)"/><path class="cls-1" d="M2096.67,532.88v-54H2103l24.23,40.81h-3.4l23.91-40.81h6.33l.08,54h-7.41l-.08-42.35h1.78l-21.29,35.79h-3.55l-21.44-35.79h1.92v42.35Z" transform="translate(-17.26 0)"/><path class="cls-1" d="M2193.55,533.5q-10.64,0-16.74-6.1t-6.09-17.82v-30.7h7.71v30.4q0,9,4,13.19c2.64,2.77,6.39,4.16,11.22,4.16s8.65-1.39,11.3-4.16,4-7.18,4-13.19v-30.4h7.49v30.7q0,11.73-6.06,17.82T2193.55,533.5Z" transform="translate(-17.26 0)"/><path class="cls-1" d="M2233.05,532.88v-54h7.71v54Z" transform="translate(-17.26 0)"/><path class="cls-1" d="M2268.53,532.88V485.59H2250v-6.71h44.66v6.71h-18.51v47.29Z" transform="translate(-17.26 0)"/><path class="cls-1" d="M2327.54,533.5a30.91,30.91,0,0,1-11.45-2.09,27.22,27.22,0,0,1-9.14-5.82,26.66,26.66,0,0,1-6-8.76,28.84,28.84,0,0,1,0-21.9,26.77,26.77,0,0,1,6-8.76,27.5,27.5,0,0,1,9.1-5.82,30.82,30.82,0,0,1,11.49-2.08,31.24,31.24,0,0,1,11.42,2,26.91,26.91,0,0,1,9.1,5.79,26.33,26.33,0,0,1,6,8.79,29.65,29.65,0,0,1,0,22,26.51,26.51,0,0,1-6,8.76,27,27,0,0,1-9.1,5.78A31,31,0,0,1,2327.54,533.5Zm0-6.87a21.88,21.88,0,0,0,8.29-1.54,19.71,19.71,0,0,0,6.64-4.36,20.28,20.28,0,0,0,4.39-6.6,21,21,0,0,0,1.59-8.25,20.72,20.72,0,0,0-6-14.81,19.51,19.51,0,0,0-6.64-4.4,22.07,22.07,0,0,0-8.29-1.54,22.34,22.34,0,0,0-8.37,1.54,19.93,19.93,0,0,0-6.67,4.4,20.63,20.63,0,0,0-4.44,6.6,20.93,20.93,0,0,0-1.58,8.21,21.2,21.2,0,0,0,1.58,8.25,20.05,20.05,0,0,0,11.11,11A22.14,22.14,0,0,0,2327.54,526.63Z" transform="translate(-17.26 0)"/><path class="cls-1" d="M2382.23,532.88l24.46-54h7.63l24.53,54h-8.1l-21.83-49.68H2412l-21.83,49.68Zm10.42-13.5,2.08-6.17h30.39l2.24,6.17Z" transform="translate(-17.26 0)"/><path class="cls-1" d="M1304,625.45l-23.76-54h8.33l21.83,49.83h-4.78l22-49.83h7.72l-23.68,54Z" transform="translate(-17.26 0)"/><path class="cls-1" d="M1350.7,618.74h31.48v6.71H1343v-54h38.11v6.71h-30.4Zm-.69-24h27.77v6.55H1350Z" transform="translate(-17.26 0)"/><path class="cls-1" d="M1395.52,625.45v-54h21.06a29.62,29.62,0,0,1,12.11,2.24,17.14,17.14,0,0,1,7.71,6.48,20.18,20.18,0,0,1,0,20.17,17.24,17.24,0,0,1-7.71,6.44,29.62,29.62,0,0,1-12.11,2.24h-16.82l3.48-3.55v20Zm7.72-19.21-3.48-3.78h16.59q7.41,0,11.22-3.2t3.82-9q0-5.79-3.82-8.95t-11.22-3.16h-16.59l3.48-3.86Zm28.38,19.21-13.73-19.6h8.26l13.88,19.6Z" transform="translate(-17.26 0)"/><path class="cls-1" d="M1498.19,626.06a31,31,0,0,1-11.38-2,26.47,26.47,0,0,1-9-5.79,27.08,27.08,0,0,1-6-8.75,29.24,29.24,0,0,1,0-22.06,26.77,26.77,0,0,1,6-8.76,27.06,27.06,0,0,1,9.06-5.78,32.51,32.51,0,0,1,22.91.07,23.7,23.7,0,0,1,9,6.29l-5,4.86a19.92,19.92,0,0,0-6.94-4.82,21.6,21.6,0,0,0-8.25-1.58,22.71,22.71,0,0,0-8.45,1.54,20.24,20.24,0,0,0-6.75,4.32,19.42,19.42,0,0,0-4.43,6.6,22.41,22.41,0,0,0,0,16.58,19.52,19.52,0,0,0,4.43,6.6,20.24,20.24,0,0,0,6.75,4.32,22.91,22.91,0,0,0,8.45,1.54,21.6,21.6,0,0,0,8.25-1.58,19.64,19.64,0,0,0,6.94-4.9l5,4.86a24,24,0,0,1-9,6.32A30.38,30.38,0,0,1,1498.19,626.06Z" transform="translate(-17.26 0)"/><path class="cls-1" d="M1553.89,626.06a30.92,30.92,0,0,1-11.46-2.08,27.48,27.48,0,0,1-9.14-5.82,26.92,26.92,0,0,1-6-8.76,28.86,28.86,0,0,1,0-21.91,26.88,26.88,0,0,1,6-8.75,27.35,27.35,0,0,1,9.1-5.82,32.73,32.73,0,0,1,22.91,0,26.94,26.94,0,0,1,9.1,5.78,26.18,26.18,0,0,1,6,8.8,29.65,29.65,0,0,1,0,22,26.17,26.17,0,0,1-6,8.75,26.81,26.81,0,0,1-9.1,5.79A31.22,31.22,0,0,1,1553.89,626.06Zm0-6.86a22.11,22.11,0,0,0,8.29-1.54,19.92,19.92,0,0,0,6.63-4.36,20.41,20.41,0,0,0,4.4-6.6,21.24,21.24,0,0,0,1.58-8.25,20.57,20.57,0,0,0-6-14.81,19.57,19.57,0,0,0-6.63-4.4,23.3,23.3,0,0,0-16.66,0,20,20,0,0,0-6.68,4.4,20.51,20.51,0,0,0-4.43,6.59,20.84,20.84,0,0,0-1.58,8.22,21.06,21.06,0,0,0,1.58,8.25,20,20,0,0,0,4.43,6.6,20.34,20.34,0,0,0,6.68,4.36A22.26,22.26,0,0,0,1553.89,619.2Z" transform="translate(-17.26 0)"/><path class="cls-1" d="M1595.15,625.45v-54h6.33l24.22,40.81h-3.39l23.91-40.81h6.33l.07,54h-7.4l-.08-42.35h1.77l-21.29,35.79h-3.54l-21.45-35.79h1.93v42.35Z" transform="translate(-17.26 0)"/><path class="cls-1" d="M1715.64,626.06a30.91,30.91,0,0,1-11.45-2.08,27.48,27.48,0,0,1-9.14-5.82,26.92,26.92,0,0,1-6-8.76,28.86,28.86,0,0,1,0-21.91,26.88,26.88,0,0,1,6-8.75,27.35,27.35,0,0,1,9.1-5.82,32.73,32.73,0,0,1,22.91,0,26.94,26.94,0,0,1,9.1,5.78,26.32,26.32,0,0,1,6,8.8,29.65,29.65,0,0,1,0,22,26.32,26.32,0,0,1-6,8.75,26.81,26.81,0,0,1-9.1,5.79A31.24,31.24,0,0,1,1715.64,626.06Zm0-6.86a22.12,22.12,0,0,0,8.3-1.54,19.92,19.92,0,0,0,6.63-4.36,20.41,20.41,0,0,0,4.4-6.6,21.24,21.24,0,0,0,1.58-8.25,20.57,20.57,0,0,0-6-14.81,19.57,19.57,0,0,0-6.63-4.4,23.33,23.33,0,0,0-16.67,0,19.93,19.93,0,0,0-6.67,4.4,20.51,20.51,0,0,0-4.43,6.59,20.84,20.84,0,0,0-1.59,8.22,21.06,21.06,0,0,0,1.59,8.25,20,20,0,0,0,4.43,6.6,20.29,20.29,0,0,0,6.67,4.36A22.34,22.34,0,0,0,1715.64,619.2Z" transform="translate(-17.26 0)"/><path class="cls-1" d="M1778.51,625.45v-54h6.33l24.22,40.81h-3.4l23.92-40.81h6.32l.08,54h-7.41l-.07-42.35h1.77L1809,618.89h-3.55L1784,583.1h1.93v42.35Z" transform="translate(-17.26 0)"/><path class="cls-1" d="M1877.4,626.06A30.91,30.91,0,0,1,1866,624a27.38,27.38,0,0,1-9.14-5.82,26.77,26.77,0,0,1-6-8.76,28.86,28.86,0,0,1,0-21.91,26.73,26.73,0,0,1,6-8.75,27.35,27.35,0,0,1,9.1-5.82,32.73,32.73,0,0,1,22.91,0,26.94,26.94,0,0,1,9.1,5.78,26.47,26.47,0,0,1,6,8.8,29.65,29.65,0,0,1,0,22,26.47,26.47,0,0,1-6,8.75,26.81,26.81,0,0,1-9.1,5.79A31.24,31.24,0,0,1,1877.4,626.06Zm0-6.86a22.07,22.07,0,0,0,8.29-1.54,19.86,19.86,0,0,0,6.64-4.36,20.41,20.41,0,0,0,4.4-6.6,21.24,21.24,0,0,0,1.58-8.25,20.57,20.57,0,0,0-6-14.81,19.51,19.51,0,0,0-6.64-4.4,21.88,21.88,0,0,0-8.29-1.54,22.14,22.14,0,0,0-8.37,1.54,19.93,19.93,0,0,0-6.67,4.4,20.51,20.51,0,0,0-4.43,6.59,20.84,20.84,0,0,0-1.59,8.22,21.06,21.06,0,0,0,1.59,8.25,20,20,0,0,0,4.43,6.6,20.29,20.29,0,0,0,6.67,4.36A22.34,22.34,0,0,0,1877.4,619.2Z" transform="translate(-17.26 0)"/><path class="cls-1" d="M1943.05,626.06a30.92,30.92,0,0,1-11.46-2.08,27.48,27.48,0,0,1-9.14-5.82,26.92,26.92,0,0,1-6-8.76,28.86,28.86,0,0,1,0-21.91,26.88,26.88,0,0,1,6-8.75,27.45,27.45,0,0,1,9.1-5.82,32.73,32.73,0,0,1,22.91,0,27.08,27.08,0,0,1,9.11,5.78,26.3,26.3,0,0,1,6,8.8,29.52,29.52,0,0,1,0,22,26.29,26.29,0,0,1-6,8.75,27,27,0,0,1-9.11,5.79A31.18,31.18,0,0,1,1943.05,626.06Zm0-6.86a22.11,22.11,0,0,0,8.29-1.54,19.72,19.72,0,0,0,6.63-4.36,20.25,20.25,0,0,0,4.4-6.6,21.24,21.24,0,0,0,1.58-8.25,21,21,0,0,0-1.58-8.22,20.75,20.75,0,0,0-4.4-6.59,19.38,19.38,0,0,0-6.63-4.4,23.3,23.3,0,0,0-16.66,0,19.83,19.83,0,0,0-6.67,4.4,20.38,20.38,0,0,0-4.44,6.59,20.84,20.84,0,0,0-1.58,8.22,21.06,21.06,0,0,0,1.58,8.25,19.9,19.9,0,0,0,4.44,6.6,20.19,20.19,0,0,0,6.67,4.36A22.26,22.26,0,0,0,1943.05,619.2Z" transform="translate(-17.26 0)"/><path class="cls-1" d="M1984.32,625.45v-54h22.75a32.9,32.9,0,0,1,15.24,3.39,25.23,25.23,0,0,1,10.26,9.49,29,29,0,0,1,0,28.23,25.1,25.1,0,0,1-10.26,9.49,32.78,32.78,0,0,1-15.24,3.4Zm7.71-6.71h14.58a24.86,24.86,0,0,0,11.61-2.55,18.58,18.58,0,0,0,7.6-7.14,22.26,22.26,0,0,0,0-21.25,18.59,18.59,0,0,0-7.6-7.09,24.86,24.86,0,0,0-11.61-2.55H1992Z" transform="translate(-17.26 0)"/><path class="cls-1" d="M2070.48,625.45v-54h22.76a32.89,32.89,0,0,1,15.23,3.39,25.11,25.11,0,0,1,10.26,9.49,29,29,0,0,1,0,28.23,25,25,0,0,1-10.26,9.49,32.77,32.77,0,0,1-15.23,3.4Zm7.71-6.71h14.58a24.8,24.8,0,0,0,11.61-2.55,18.52,18.52,0,0,0,7.6-7.14,22.26,22.26,0,0,0,0-21.25,18.53,18.53,0,0,0-7.6-7.09,24.8,24.8,0,0,0-11.61-2.55h-14.58Z" transform="translate(-17.26 0)"/><path class="cls-1" d="M2159.42,626.06A31,31,0,0,1,2148,624a27.48,27.48,0,0,1-9.14-5.82,26.89,26.89,0,0,1-6-8.76,28.86,28.86,0,0,1,0-21.91,26.85,26.85,0,0,1,6-8.75,27.39,27.39,0,0,1,9.11-5.82,32.73,32.73,0,0,1,22.91,0,27,27,0,0,1,9.1,5.78,26.47,26.47,0,0,1,6,8.8,29.65,29.65,0,0,1,0,22,26.47,26.47,0,0,1-6,8.75,26.91,26.91,0,0,1-9.1,5.79A31.28,31.28,0,0,1,2159.42,626.06Zm0-6.86a22.07,22.07,0,0,0,8.29-1.54,19.86,19.86,0,0,0,6.64-4.36,20.39,20.39,0,0,0,4.39-6.6,21.06,21.06,0,0,0,1.58-8.25,20.61,20.61,0,0,0-6-14.81,19.51,19.51,0,0,0-6.64-4.4,21.88,21.88,0,0,0-8.29-1.54,22.11,22.11,0,0,0-8.37,1.54,19.83,19.83,0,0,0-6.67,4.4,20.54,20.54,0,0,0-4.44,6.59,21,21,0,0,0-1.58,8.22,21.24,21.24,0,0,0,1.58,8.25,20.05,20.05,0,0,0,11.11,11A22.3,22.3,0,0,0,2159.42,619.2Z" transform="translate(-17.26 0)"/><path class="cls-1" d="M2222.29,625.45v-54H2245a32.9,32.9,0,0,1,15.24,3.39,25.23,25.23,0,0,1,10.26,9.49,29,29,0,0,1,0,28.23,25.1,25.1,0,0,1-10.26,9.49,32.78,32.78,0,0,1-15.24,3.4Zm7.71-6.71h14.58a24.86,24.86,0,0,0,11.61-2.55,18.58,18.58,0,0,0,7.6-7.14,22.26,22.26,0,0,0,0-21.25,18.59,18.59,0,0,0-7.6-7.09,24.86,24.86,0,0,0-11.61-2.55H2230Z" transform="translate(-17.26 0)"/><path class="cls-1" d="M2286.85,625.45v-54h7.72v54Z" transform="translate(-17.26 0)"/><path class="cls-1" d="M2303.44,625.45l24.45-54h7.64l24.53,54H2352l-21.83-49.68h3.08l-21.83,49.68Zm10.41-13.5,2.08-6.17h30.39l2.24,6.17Z" transform="translate(-17.26 0)"/><path class="cls-1" d="M2398.24,618.74h31.47v6.71h-39.19v-54h38.11v6.71h-30.39Zm-.7-24h27.77v6.55h-27.77Z" transform="translate(-17.26 0)"/><path class="cls-1" d="M1330.53,718.63a30.89,30.89,0,0,1-11.37-2,26.74,26.74,0,0,1-15-14.55,29.24,29.24,0,0,1,0-22.06,26.93,26.93,0,0,1,15.08-14.54,32.59,32.59,0,0,1,22.91.08,23.59,23.59,0,0,1,9,6.29l-5,4.86a20.08,20.08,0,0,0-6.94-4.83,21.6,21.6,0,0,0-8.25-1.58,22.71,22.71,0,0,0-8.45,1.55,20.24,20.24,0,0,0-6.75,4.32,19.48,19.48,0,0,0-4.43,6.59,22.56,22.56,0,0,0,0,16.59,19.48,19.48,0,0,0,4.43,6.59,20.24,20.24,0,0,0,6.75,4.32,22.71,22.71,0,0,0,8.45,1.54,21.42,21.42,0,0,0,8.25-1.58,19.48,19.48,0,0,0,6.94-4.89l5,4.85a24,24,0,0,1-9,6.33A30.38,30.38,0,0,1,1330.53,718.63Z" transform="translate(-17.26 0)"/><path class="cls-1" d="M1386.23,718.63a30.92,30.92,0,0,1-11.46-2.08,27.35,27.35,0,0,1-9.14-5.83,26.88,26.88,0,0,1-6-8.75,28.86,28.86,0,0,1,0-21.91,26.88,26.88,0,0,1,6-8.75,27.37,27.37,0,0,1,9.1-5.83,30.87,30.87,0,0,1,11.5-2.08,31.22,31.22,0,0,1,11.41,2,27,27,0,0,1,9.1,5.79,26,26,0,0,1,6,8.79,29.65,29.65,0,0,1,0,22,26.11,26.11,0,0,1-6,8.76,27.12,27.12,0,0,1-9.1,5.79A31.22,31.22,0,0,1,1386.23,718.63Zm0-6.87a21.91,21.91,0,0,0,8.29-1.54,19.76,19.76,0,0,0,6.63-4.36,20.26,20.26,0,0,0,4.4-6.59,21.25,21.25,0,0,0,1.58-8.26,20.61,20.61,0,0,0-6-14.81,19.54,19.54,0,0,0-6.63-4.39,23.16,23.16,0,0,0-16.66,0,20,20,0,0,0-6.68,4.39,20.47,20.47,0,0,0-6,14.81,21.07,21.07,0,0,0,1.58,8.26,19.88,19.88,0,0,0,4.43,6.59,20.18,20.18,0,0,0,6.68,4.36A22.07,22.07,0,0,0,1386.23,711.76Z" transform="translate(-17.26 0)"/><path class="cls-1" d="M1427.5,718V664h6.32l24.22,40.8h-3.39l23.91-40.8h6.33l.07,54h-7.4l-.08-42.35h1.78L1458,711.46h-3.55L1433,675.66h1.93V718Z" transform="translate(-17.26 0)"/><path class="cls-1" d="M1548,718.63a30.91,30.91,0,0,1-11.45-2.08,27.35,27.35,0,0,1-9.14-5.83,26.88,26.88,0,0,1-6-8.75,28.86,28.86,0,0,1,0-21.91,26.88,26.88,0,0,1,6-8.75,27.37,27.37,0,0,1,9.1-5.83A30.86,30.86,0,0,1,1548,663.4a31.24,31.24,0,0,1,11.42,2,27,27,0,0,1,9.1,5.79,26.18,26.18,0,0,1,6,8.79,29.65,29.65,0,0,1,0,22,26.26,26.26,0,0,1-6,8.76,27.12,27.12,0,0,1-9.1,5.79A31.24,31.24,0,0,1,1548,718.63Zm0-6.87a21.93,21.93,0,0,0,8.3-1.54,19.76,19.76,0,0,0,6.63-4.36,20.26,20.26,0,0,0,4.4-6.59,21.25,21.25,0,0,0,1.58-8.26,20.61,20.61,0,0,0-6-14.81,19.54,19.54,0,0,0-6.63-4.39,23.19,23.19,0,0,0-16.67,0,19.91,19.91,0,0,0-6.67,4.39,20.47,20.47,0,0,0-6,14.81,21.07,21.07,0,0,0,1.58,8.26,19.88,19.88,0,0,0,4.43,6.59,20.14,20.14,0,0,0,6.67,4.36A22.14,22.14,0,0,0,1548,711.76Z" transform="translate(-17.26 0)"/><path class="cls-1" d="M1635.23,718.63a30.92,30.92,0,0,1-11.46-2.08,27.35,27.35,0,0,1-9.14-5.83,26.88,26.88,0,0,1-6-8.75,29,29,0,0,1,0-21.91,26.88,26.88,0,0,1,6-8.75,27.47,27.47,0,0,1,9.1-5.83,30.87,30.87,0,0,1,11.5-2.08,31.18,31.18,0,0,1,11.41,2,27,27,0,0,1,9.11,5.79,26.33,26.33,0,0,1,6,8.79,29.65,29.65,0,0,1,0,22,26.41,26.41,0,0,1-6,8.76,27.16,27.16,0,0,1-9.11,5.79A31.18,31.18,0,0,1,1635.23,718.63Zm0-6.87a21.91,21.91,0,0,0,8.29-1.54,19.35,19.35,0,0,0,6.63-4.39,20.75,20.75,0,0,0,4.4-6.64,22.15,22.15,0,0,0,0-16.43,20.11,20.11,0,0,0-4.4-6.59,19.57,19.57,0,0,0-6.63-4.36,23.16,23.16,0,0,0-16.66,0,20,20,0,0,0-6.67,4.36,19.75,19.75,0,0,0-4.44,6.59,22.15,22.15,0,0,0,0,16.43,20.38,20.38,0,0,0,4.44,6.64,19.81,19.81,0,0,0,6.67,4.39A22.07,22.07,0,0,0,1635.23,711.76Zm17.66,17.52a20,20,0,0,1-5.17-.66,20.38,20.38,0,0,1-4.93-2.08,33.1,33.1,0,0,1-5.09-3.71,73,73,0,0,1-5.71-5.59l8.25-2.16a35.54,35.54,0,0,0,4.44,4.67,14.7,14.7,0,0,0,4.2,2.62,11.44,11.44,0,0,0,4.17.81,12.61,12.61,0,0,0,9.79-4.63l3.63,4.4A16.82,16.82,0,0,1,1652.89,729.28Z" transform="translate(-17.26 0)"/><path class="cls-1" d="M1698.87,718.63q-10.65,0-16.74-6.09t-6.1-17.82V664h7.72v30.39q0,9,4,13.19t11.22,4.16q7.33,0,11.3-4.16t4-13.19V664h7.48v30.7q0,11.71-6.06,17.82T1698.87,718.63Z" transform="translate(-17.26 0)"/><path class="cls-1" d="M1746.07,711.3h31.48V718h-39.19V664h38.11v6.71h-30.4Zm-.69-24h27.77v6.56h-27.77Z" transform="translate(-17.26 0)"/><path class="cls-1" d="M1804.31,718l24.46-54h7.63l24.53,54h-8.1L1831,668.33h3.09L1812.26,718Zm10.42-13.5,2.08-6.17h30.39l2.24,6.17Z" transform="translate(-17.26 0)"/><path class="cls-1" d="M1915.78,718.63a31.39,31.39,0,0,1-11.49-2,27.16,27.16,0,0,1-9.11-5.79,26.79,26.79,0,0,1-6-8.76,29.24,29.24,0,0,1,0-22.06,26.51,26.51,0,0,1,6-8.75,27.44,27.44,0,0,1,9.14-5.79,34,34,0,0,1,23.3,0,23.09,23.09,0,0,1,9,6.25l-4.78,4.78a21.27,21.27,0,0,0-7.21-4.74,24.52,24.52,0,0,0-17,0,20.43,20.43,0,0,0-6.86,4.32,19.18,19.18,0,0,0-4.48,6.59,22.35,22.35,0,0,0,0,16.51,19.44,19.44,0,0,0,4.48,6.63,20.18,20.18,0,0,0,6.82,4.36,23.22,23.22,0,0,0,8.56,1.54,25.65,25.65,0,0,0,8.3-1.35,20.18,20.18,0,0,0,7.36-4.51l4.4,5.86a27.15,27.15,0,0,1-9.37,5.13A35.69,35.69,0,0,1,1915.78,718.63Zm13-7.87v-20h7.4v21Z" transform="translate(-17.26 0)"/><path class="cls-1" d="M1959.52,711.3H1991V718H1951.8V664h38.11v6.71h-30.39Zm-.7-24h27.77v6.56h-27.77Z" transform="translate(-17.26 0)"/><path class="cls-1" d="M2004.33,718V664h6.33l35.71,44.35h-3.31V664h7.71v54h-6.32l-35.72-44.35h3.32V718Z" transform="translate(-17.26 0)"/><path class="cls-1" d="M2078.54,718V670.73H2060V664h44.66v6.71h-18.51V718Z" transform="translate(-17.26 0)"/><path class="cls-1" d="M2121.66,711.3h31.47V718H2114V664h38.1v6.71h-30.39Zm-.69-24h27.77v6.56H2121Z" transform="translate(-17.26 0)"/><path class="cls-1" d="M2212.45,718.63a30.91,30.91,0,0,1-11.45-2.08,27.25,27.25,0,0,1-9.14-5.83,26.73,26.73,0,0,1-6-8.75,28.86,28.86,0,0,1,0-21.91,26.73,26.73,0,0,1,6-8.75,27.37,27.37,0,0,1,9.1-5.83,30.82,30.82,0,0,1,11.49-2.08,31.24,31.24,0,0,1,11.42,2,27.06,27.06,0,0,1,9.1,5.79,26.33,26.33,0,0,1,6,8.79,29.65,29.65,0,0,1,0,22,26.41,26.41,0,0,1-6,8.76,27.22,27.22,0,0,1-9.1,5.79A31.24,31.24,0,0,1,2212.45,718.63Zm0-6.87a21.88,21.88,0,0,0,8.29-1.54,19.49,19.49,0,0,0,6.64-4.39,21.67,21.67,0,0,0,4.4-23.07,20.42,20.42,0,0,0-4.4-6.59,19.71,19.71,0,0,0-6.64-4.36,21.88,21.88,0,0,0-8.29-1.55,22.15,22.15,0,0,0-8.37,1.55,20.08,20.08,0,0,0-11.11,11,22.15,22.15,0,0,0,0,16.43,20.7,20.7,0,0,0,4.44,6.64,19.91,19.91,0,0,0,6.67,4.39A22.14,22.14,0,0,0,2212.45,711.76Zm17.67,17.52a19.91,19.91,0,0,1-5.17-.66,20.45,20.45,0,0,1-4.94-2.08,33.59,33.59,0,0,1-5.09-3.71,74.84,74.84,0,0,1-5.71-5.59l8.26-2.16a36.19,36.19,0,0,0,4.43,4.67,14.88,14.88,0,0,0,4.21,2.62,11.35,11.35,0,0,0,4.16.81,12.63,12.63,0,0,0,9.8-4.63l3.62,4.4A16.8,16.8,0,0,1,2230.12,729.28Z" transform="translate(-17.26 0)"/><path class="cls-1" d="M2276.09,718.63q-10.65,0-16.74-6.09t-6.09-17.82V664H2261v30.39q0,9,4,13.19t11.23,4.16q7.32,0,11.3-4.16t4-13.19V664h7.48v30.7q0,11.71-6.05,17.82T2276.09,718.63Z" transform="translate(-17.26 0)"/><path class="cls-1" d="M2323.3,711.3h31.47V718h-39.18V664h38.1v6.71H2323.3Zm-.7-24h27.77v6.56H2322.6Z" transform="translate(-17.26 0)"/><path class="cls-1" d="M2368.12,718V664h21.05a29.68,29.68,0,0,1,12.12,2.23,17.2,17.2,0,0,1,7.71,6.48,18.44,18.44,0,0,1,2.7,10.11,18.2,18.2,0,0,1-2.7,10.06,17.18,17.18,0,0,1-7.71,6.44,29.51,29.51,0,0,1-12.12,2.24h-16.81l3.47-3.55v20Zm7.71-19.21-3.47-3.77h16.58q7.41,0,11.23-3.21t3.82-9q0-5.79-3.82-9t-11.23-3.16h-16.58l3.47-3.86ZM2404.22,718l-13.73-19.59h8.25L2412.62,718Z" transform="translate(-17.26 0)"/><path class="cls-1" d="M1644.83,811.2q-10.63,0-16.74-6.1T1622,787.28v-30.7h7.71V787q0,9,4,13.2c2.64,2.77,6.39,4.16,11.22,4.16s8.65-1.39,11.3-4.16,4-7.18,4-13.2V756.58h7.49v30.7q0,11.73-6.06,17.82T1644.83,811.2Z" transform="translate(-17.26 0)"/><path class="cls-1" d="M1700.06,811.2a36.83,36.83,0,0,1-11.8-1.89,24.29,24.29,0,0,1-8.87-4.9l2.85-6a25.22,25.22,0,0,0,7.87,4.48,28.47,28.47,0,0,0,10,1.77,22.53,22.53,0,0,0,7.64-1.08,9.1,9.1,0,0,0,4.32-3,7,7,0,0,0,1.39-4.28,5.9,5.9,0,0,0-1.81-4.48,13.42,13.42,0,0,0-4.71-2.73,52.53,52.53,0,0,0-6.36-1.82q-3.48-.76-7-1.81a30.88,30.88,0,0,1-6.41-2.66,13,13,0,0,1-4.66-4.36,12.7,12.7,0,0,1-1.78-7.06,14.14,14.14,0,0,1,2.2-7.67,15.27,15.27,0,0,1,6.79-5.63,27.81,27.81,0,0,1,11.68-2.13,36.26,36.26,0,0,1,9.34,1.24,26,26,0,0,1,8,3.55l-2.54,6.17a25.13,25.13,0,0,0-7.33-3.36,28.92,28.92,0,0,0-7.49-1,20.65,20.65,0,0,0-7.48,1.16,9.16,9.16,0,0,0-4.28,3.08,7.38,7.38,0,0,0-1.35,4.32,6,6,0,0,0,1.81,4.56,12.92,12.92,0,0,0,4.71,2.69,63.51,63.51,0,0,0,6.36,1.82c2.32.54,4.64,1.14,7,1.81a30,30,0,0,1,6.41,2.62,13.16,13.16,0,0,1,4.66,4.32,12.38,12.38,0,0,1,1.78,7,13.87,13.87,0,0,1-2.24,7.59,15.51,15.51,0,0,1-6.9,5.64A28.61,28.61,0,0,1,1700.06,811.2Z" transform="translate(-17.26 0)"/><path class="cls-1" d="M1724.9,810.58l24.45-54H1757l24.53,54h-8.1l-21.83-49.68h3.09l-21.83,49.68Zm10.41-13.5,2.09-6.17h30.39l2.24,6.17Z" transform="translate(-17.26 0)"/><path class="cls-1" d="M1790.39,810.58v-54h21.06a29.62,29.62,0,0,1,12.11,2.24,17.14,17.14,0,0,1,7.71,6.48,18.43,18.43,0,0,1,2.7,10.1,18.23,18.23,0,0,1-2.7,10.07,17.24,17.24,0,0,1-7.71,6.44,29.62,29.62,0,0,1-12.11,2.24h-16.82l3.48-3.55v20Zm7.72-19.21-3.48-3.78h16.59q7.41,0,11.22-3.2t3.82-9q0-5.77-3.82-8.94t-11.22-3.17h-16.59l3.48-3.85Zm28.38,19.21L1812.76,791H1821l13.88,19.59Z" transform="translate(-17.26 0)"/><path class="cls-1" d="M1876.63,810.58h-7.71v-54h7.71Zm31.71-24.07h-32.48V779.8h32.48Zm-.7-29.93h7.72v54h-7.72Z" transform="translate(-17.26 0)"/><path class="cls-1" d="M1956.78,811.2a30.93,30.93,0,0,1-11.46-2.09,27.48,27.48,0,0,1-9.14-5.82,26.64,26.64,0,0,1-6-8.76,28.84,28.84,0,0,1,0-21.9,26.74,26.74,0,0,1,6-8.76,27.61,27.61,0,0,1,9.1-5.82,30.87,30.87,0,0,1,11.5-2.09,31.28,31.28,0,0,1,11.42,2,27,27,0,0,1,9.1,5.78,26.47,26.47,0,0,1,6,8.8,29.65,29.65,0,0,1,0,22,26.51,26.51,0,0,1-6,8.76,27,27,0,0,1-9.1,5.78A31.07,31.07,0,0,1,1956.78,811.2Zm0-6.87a21.88,21.88,0,0,0,8.29-1.54,19.57,19.57,0,0,0,6.63-4.36,20.25,20.25,0,0,0,4.4-6.6,21,21,0,0,0,1.58-8.25,20.61,20.61,0,0,0-6-14.81,19.38,19.38,0,0,0-6.63-4.4,23.3,23.3,0,0,0-16.66,0,19.83,19.83,0,0,0-6.67,4.4,20.31,20.31,0,0,0-4.44,6.6,20.93,20.93,0,0,0-1.58,8.21,21.2,21.2,0,0,0,1.58,8.25,20.05,20.05,0,0,0,11.11,11A22.07,22.07,0,0,0,1956.78,804.33Z" transform="translate(-17.26 0)"/><path class="cls-1" d="M2003.83,811.2a20.33,20.33,0,0,1-8.95-2,17.19,17.19,0,0,1-6.78-5.78l4.47-5.25a16.69,16.69,0,0,0,5,4.74,12,12,0,0,0,6.21,1.66q9.26,0,9.26-10.95V763.29h-19.52v-6.71h27.16v36.64q0,9-4.29,13.5T2003.83,811.2Z" transform="translate(-17.26 0)"/><path class="cls-1" d="M2045,803.87h31.48v6.71h-39.19v-54h38.11v6.71H2045Zm-.69-24h27.77v6.55h-27.77Z" transform="translate(-17.26 0)"/><path class="cls-1" d="M2091.31,811a5.19,5.19,0,0,1-5.25-5.32,5,5,0,0,1,1.54-3.78,5.2,5.2,0,0,1,3.71-1.47,5,5,0,0,1,3.58,1.47,5,5,0,0,1,1.51,3.78,5.15,5.15,0,0,1-1.51,3.82A4.9,4.9,0,0,1,2091.31,811Z" transform="translate(-17.26 0)"/><path d="M1333.1,376.13l-35.63-98.83h27L1354,362.35h-13l30.86-85.05h24.43l29.76,85.05h-12.49l30.3-85.05h25.35l-35.82,98.83h-27.55l-26.45-72.93h8.27l-26.82,72.93Z" transform="translate(-17.26 0)"/><path d="M1544.71,275.83a46.08,46.08,0,0,1,21,4.69,34,34,0,0,1,14.6,14.33q5.33,9.64,5.33,24.7v56.58H1557V324q0-11.94-5.23-17.63t-14.79-5.7a25.17,25.17,0,0,0-12.21,2.94,20.48,20.48,0,0,0-8.45,8.64q-3,5.69-3,15.06v48.86h-28.66V239.83h28.66v64.84l-6.43-8.26a36.56,36.56,0,0,1,15.24-15.25A47.06,47.06,0,0,1,1544.71,275.83Z" transform="translate(-17.26 0)"/><path d="M1661.16,377.6a57.45,57.45,0,0,1-27.82-6.62,51.36,51.36,0,0,1-19.2-70.62,48.91,48.91,0,0,1,19.2-18,58.1,58.1,0,0,1,27.82-6.53q15.79,0,28.11,6.53a48.89,48.89,0,0,1,19.29,18,49.74,49.74,0,0,1,7,26.36q0,14.86-7,26.26a49.69,49.69,0,0,1-19.29,18Q1677,377.6,1661.16,377.6Zm0-23.52a25.57,25.57,0,0,0,12.95-3.21,23.44,23.44,0,0,0,9-9.46,30.22,30.22,0,0,0,3.4-14.69,29.59,29.59,0,0,0-3.4-14.7,23.77,23.77,0,0,0-9-9.27,25.1,25.1,0,0,0-12.76-3.22,25.61,25.61,0,0,0-12.86,3.22,23.57,23.57,0,0,0-9.09,9.27,29.59,29.59,0,0,0-3.4,14.7,30.22,30.22,0,0,0,3.4,14.69,23.26,23.26,0,0,0,9.09,9.46A25.33,25.33,0,0,0,1661.16,354.08Z" transform="translate(-17.26 0)"/><path d="M1838.42,377.6q-16,0-28.38-6.52a48.75,48.75,0,0,1-26.54-44.36q0-14.88,7.07-26.27a50.2,50.2,0,0,1,19.47-18q12.4-6.61,28.38-6.62,15.61,0,27.28,6.53a37.86,37.86,0,0,1,16.81,18.46l-22,12.12a26.56,26.56,0,0,0-9.73-10.19,24.92,24.92,0,0,0-12.49-3.22,26.62,26.62,0,0,0-13,3.22,23.79,23.79,0,0,0-9.37,9.27,29,29,0,0,0-3.49,14.7,29.46,29.46,0,0,0,3.49,14.78,23.59,23.59,0,0,0,9.37,9.37,26.72,26.72,0,0,0,13,3.21,25,25,0,0,0,12.49-3.21q5.68-3.21,9.73-10.38l22,12.13A38.47,38.47,0,0,1,1865.7,371Q1854,377.6,1838.42,377.6Z" transform="translate(-17.26 0)"/><path d="M1931.73,377.6q-11.38,0-19.65-4a30.8,30.8,0,0,1-12.77-10.75,27,27,0,0,1-4.5-15.24,27.69,27.69,0,0,1,4.32-15.34q4.3-6.7,13.68-10.38t24.62-3.67h26.08V334.8h-23.15q-10.09,0-13.86,3.3a10.56,10.56,0,0,0-3.77,8.27,10.31,10.31,0,0,0,4.32,8.73q4.31,3.21,11.66,3.21a26,26,0,0,0,13.14-3.31,18.05,18.05,0,0,0,8.17-10.1l4.41,13.41A26,26,0,0,1,1953,372.55Q1944.78,377.61,1931.73,377.6Zm30.13-1.47V356.84l-1.84-4.22V318.08q0-9.18-5.6-14.33t-17.18-5.14a50,50,0,0,0-15.52,2.48,43.53,43.53,0,0,0-13.13,6.71l-10.11-20a58.4,58.4,0,0,1,19.47-8.9,89.29,89.29,0,0,1,23.15-3q22.59,0,35.08,10.66t12.49,33.25v56.39Z" transform="translate(-17.26 0)"/><path d="M2016.59,376.13V277.3H2044v28.11l-3.86-8.27a31.8,31.8,0,0,1,14.15-15.89q9.73-5.42,23.69-5.42v26.64c-1.1-.24-2.17-.43-3.21-.55a26.5,26.5,0,0,0-3-.19q-12.12,0-19.29,6.8t-7.16,20.94v46.66Z" transform="translate(-17.26 0)"/><path d="M2145.18,377.6q-16.91,0-29.58-6.62A48.74,48.74,0,0,1,2096,352.89a49.3,49.3,0,0,1-7-26.17,51.42,51.42,0,0,1,6.7-26.27,47.09,47.09,0,0,1,18.74-18.09,55.89,55.89,0,0,1,27.09-6.53,54.62,54.62,0,0,1,26.18,6.25,46.92,46.92,0,0,1,18.46,17.63q6.8,11.4,6.8,27.37c0,1.11-.07,2.36-.19,3.77s-.25,2.73-.37,3.95h-80.27V318.08h65.21l-11.2,5a26.2,26.2,0,0,0-2.94-13.41,22.92,22.92,0,0,0-8.64-8.91,25.06,25.06,0,0,0-12.85-3.21,25.57,25.57,0,0,0-13,3.21,22.51,22.51,0,0,0-8.73,9,28.47,28.47,0,0,0-3.12,13.69v4.41a27.13,27.13,0,0,0,3.67,14.33,24.22,24.22,0,0,0,10.11,9.27,34,34,0,0,0,15.42,3.22,36.67,36.67,0,0,0,13.69-2.39,33.71,33.71,0,0,0,10.93-7.17L2186,361.62a44.45,44.45,0,0,1-17.09,11.84A63.12,63.12,0,0,1,2145.18,377.6Z" transform="translate(-17.26 0)"/><path d="M2247.31,377.6a95.35,95.35,0,0,1-24.25-3q-11.58-3-18.55-7.63l9.37-20.39a71.5,71.5,0,0,0,16.25,6.71,65.84,65.84,0,0,0,18.28,2.66q9.91,0,14.05-2.39c2.76-1.59,4.13-3.79,4.13-6.61a5.62,5.62,0,0,0-3.21-5.23,28.13,28.13,0,0,0-8.45-2.67q-5.23-.91-11.67-1.83a112.63,112.63,0,0,1-12.76-2.58,49.45,49.45,0,0,1-11.76-4.68,23,23,0,0,1-8.63-8.36q-3.21-5.32-3.22-13.77a26.73,26.73,0,0,1,5.52-16.63q5.51-7.25,15.61-11.29t24.43-4.05a95.42,95.42,0,0,1,20.66,2.3,63.91,63.91,0,0,1,17.55,6.34l-9.74,20.39a51,51,0,0,0-14.23-5.7,62.58,62.58,0,0,0-13.87-1.65q-9.93,0-14.33,2.57t-4.41,6.61a6.13,6.13,0,0,0,3.31,5.61,26,26,0,0,0,8.63,2.84q5.33.93,11.76,1.84a110.62,110.62,0,0,1,12.67,2.57,49.92,49.92,0,0,1,11.66,4.69,23.08,23.08,0,0,1,8.64,8.35q3.21,5.34,3.21,13.78a25.4,25.4,0,0,1-5.51,16.07q-5.5,7.08-15.89,11.12T2247.31,377.6Z" transform="translate(-17.26 0)"/><path d="M2337.68,331.31a27.62,27.62,0,0,1,2.11-11.11,37.62,37.62,0,0,1,5.33-8.82,65.06,65.06,0,0,1,6.89-7.26q3.67-3.3,6.89-6.33a34.25,34.25,0,0,0,5.32-6.34,13.68,13.68,0,0,0,2.12-7.53,12.49,12.49,0,0,0-5.42-10.47q-5.43-4.05-14.24-4A32.78,32.78,0,0,0,2331,273a31,31,0,0,0-11.12,10l-22.22-13a52.66,52.66,0,0,1,20.48-18q12.95-6.61,31.5-6.62,14,0,24.43,3.95t16.35,11.48q5.88,7.53,5.88,18.37a32.65,32.65,0,0,1-7.9,22.41,77.83,77.83,0,0,1-7.44,7.53q-4,3.5-7.44,6.8a33,33,0,0,0-5.7,7,16.2,16.2,0,0,0-2.2,8.45Zm14,46.29a17,17,0,0,1-12.49-5,16.07,16.07,0,0,1-5-11.76,15.37,15.37,0,0,1,5-11.66,17.45,17.45,0,0,1,12.49-4.69q7.89,0,12.77,4.69a15.53,15.53,0,0,1,4.86,11.66,16.25,16.25,0,0,1-4.86,11.76Q2359.54,377.59,2351.64,377.6Z" transform="translate(-17.26 0)"/><path class="cls-1" d="M26.87,379.3V209.11H66.5l93.6,113.3H141.38V209.11h47.17V379.3H148.92L55.07,266H73.79V379.3Z" transform="translate(-17.26 0)"/><path class="cls-1" d="M341.48,382.71a105.31,105.31,0,0,1-37.56-6.57,87,87,0,0,1-49.85-46.8A86.29,86.29,0,0,1,246.9,294a84.85,84.85,0,0,1,7.17-35,87.63,87.63,0,0,1,49.72-46.68,111.52,111.52,0,0,1,75.37,0,89.51,89.51,0,0,1,29.91,18.48,86.61,86.61,0,0,1,19.82,28A85.6,85.6,0,0,1,436.06,294,88.16,88.16,0,0,1,429,329.58a83.92,83.92,0,0,1-19.82,28.08,90.53,90.53,0,0,1-30,18.48A105.1,105.1,0,0,1,341.48,382.71Zm0-39.88a47.68,47.68,0,0,0,18.11-3.4,41.8,41.8,0,0,0,14.59-9.85,46.79,46.79,0,0,0,9.73-15.32,58.89,58.89,0,0,0,0-40.11,46.9,46.9,0,0,0-9.73-15.32A42.07,42.07,0,0,0,359.59,249a49.93,49.93,0,0,0-36.22,0,43.21,43.21,0,0,0-14.71,9.85,44.13,44.13,0,0,0-9.73,15.32,60.85,60.85,0,0,0,0,40.11,44,44,0,0,0,9.73,15.32,42.93,42.93,0,0,0,14.71,9.85A47.65,47.65,0,0,0,341.48,342.83Z" transform="translate(-17.26 0)"/><path class="cls-1" d="M554.22,382.71a154.58,154.58,0,0,1-40.48-5.23q-19.33-5.22-31.25-13.25l15.81-35.74a111.25,111.25,0,0,0,26.38,12,98.08,98.08,0,0,0,29.78,4.74q10.21,0,16.17-1.7t8.75-4.86a11,11,0,0,0,2.8-7.54q0-5.58-5.35-8.87a53.33,53.33,0,0,0-14-5.59q-8.64-2.31-18.72-4.38a188.92,188.92,0,0,1-20.55-5.47,78.57,78.57,0,0,1-19-9,43.05,43.05,0,0,1-13.74-14.58q-5.24-9-5.22-22.62a48.49,48.49,0,0,1,8.26-27.47q8.26-12.41,25-19.94t41.82-7.53a144.79,144.79,0,0,1,33,3.76,97.38,97.38,0,0,1,28.57,11.31l-14.59,35.5a104.1,104.1,0,0,0-24.07-10,90.34,90.34,0,0,0-23.1-3.16q-10,0-16,2.19t-8.75,5.59a11.54,11.54,0,0,0-2.67,7.29,10.2,10.2,0,0,0,5.34,9.12,48.61,48.61,0,0,0,13.86,5.35c5.68,1.38,12,2.8,18.85,4.25a211.13,211.13,0,0,1,20.54,5.47,81.58,81.58,0,0,1,18.84,8.76,42.9,42.9,0,0,1,14,14.34q5.35,8.88,5.35,22.25a48.08,48.08,0,0,1-8.39,27.35q-8.38,12.52-25.16,20.06T554.22,382.71Z" transform="translate(-17.26 0)"/><path class="cls-1" d="M744.59,382.71a154.58,154.58,0,0,1-40.48-5.23q-19.33-5.22-31.25-13.25l15.81-35.74a111.25,111.25,0,0,0,26.38,12,98.08,98.08,0,0,0,29.78,4.74q10.21,0,16.17-1.7t8.75-4.86a11,11,0,0,0,2.8-7.54q0-5.58-5.35-8.87a53.33,53.33,0,0,0-14-5.59q-8.64-2.31-18.72-4.38A188.92,188.92,0,0,1,714,306.85a78.57,78.57,0,0,1-19-9,43.05,43.05,0,0,1-13.74-14.58q-5.24-9-5.23-22.62a48.49,48.49,0,0,1,8.27-27.47q8.26-12.41,25-19.94t41.82-7.53a144.79,144.79,0,0,1,33,3.76,97.49,97.49,0,0,1,28.57,11.31l-14.59,35.5a104.1,104.1,0,0,0-24.07-10,90.34,90.34,0,0,0-23.1-3.16q-10,0-16,2.19t-8.75,5.59a11.54,11.54,0,0,0-2.67,7.29,10.2,10.2,0,0,0,5.34,9.12,48.61,48.61,0,0,0,13.86,5.35q8.5,2.07,18.85,4.25A211.13,211.13,0,0,1,782,282.41a81.58,81.58,0,0,1,18.84,8.76,43,43,0,0,1,14,14.34q5.35,8.88,5.35,22.25a48.08,48.08,0,0,1-8.39,27.35q-8.38,12.52-25.16,20.06T744.59,382.71Z" transform="translate(-17.26 0)"/><path class="cls-1" d="M961,382.71a105.38,105.38,0,0,1-37.56-6.57,87,87,0,0,1-49.84-46.8A86.13,86.13,0,0,1,866.39,294a84.7,84.7,0,0,1,7.18-35,87.55,87.55,0,0,1,49.72-46.68,111.52,111.52,0,0,1,75.37,0,89.46,89.46,0,0,1,29.9,18.48,86.46,86.46,0,0,1,19.82,28,85.44,85.44,0,0,1,7.17,35.25,88.16,88.16,0,0,1-7,35.62,83.75,83.75,0,0,1-19.81,28.08,90.53,90.53,0,0,1-30,18.48A105.12,105.12,0,0,1,961,382.71Zm0-39.88a47.77,47.77,0,0,0,18.12-3.4,41.76,41.76,0,0,0,14.58-9.85,46.47,46.47,0,0,0,9.73-15.32,58.73,58.73,0,0,0,0-40.11,46.57,46.57,0,0,0-9.73-15.32A42,42,0,0,0,979.09,249a50,50,0,0,0-36.23,0,43.31,43.31,0,0,0-14.71,9.85,44,44,0,0,0-9.72,15.32,60.68,60.68,0,0,0,0,40.11,43.87,43.87,0,0,0,9.72,15.32,43,43,0,0,0,14.71,9.85A47.68,47.68,0,0,0,961,342.83Z" transform="translate(-17.26 0)"/><path class="cls-1" d="M64.67,570.93h89v37.44H17.26V438.18H150.5v37.44H64.67Zm-3.4-66.86h79v35.74h-79Z" transform="translate(-17.26 0)"/><path class="cls-1" d="M245.08,611.78a154.58,154.58,0,0,1-40.48-5.23q-19.33-5.22-31.25-13.25l15.81-35.74a111.25,111.25,0,0,0,26.38,12,98,98,0,0,0,29.78,4.74c6.81,0,12.19-.56,16.17-1.7s6.89-2.75,8.75-4.86a11,11,0,0,0,2.8-7.54q0-5.58-5.35-8.87a53.33,53.33,0,0,0-14-5.59q-8.64-2.31-18.72-4.38a188.92,188.92,0,0,1-20.55-5.47,78.57,78.57,0,0,1-19-9,43,43,0,0,1-13.74-14.58q-5.24-9-5.23-22.62a48.49,48.49,0,0,1,8.27-27.47q8.26-12.4,25-19.94t41.82-7.53a144.86,144.86,0,0,1,32.95,3.76,97.32,97.32,0,0,1,28.56,11.31l-14.58,35.5a104.1,104.1,0,0,0-24.07-10,90.34,90.34,0,0,0-23.1-3.16q-10,0-16.05,2.19T226.6,480a11.56,11.56,0,0,0-2.68,7.29q0,5.83,5.35,9.12a48.61,48.61,0,0,0,13.86,5.35q8.51,2.07,18.84,4.25a210.56,210.56,0,0,1,20.55,5.47,81.58,81.58,0,0,1,18.84,8.76,43.09,43.09,0,0,1,14,14.34q5.36,8.88,5.35,22.25a48.08,48.08,0,0,1-8.39,27.35q-8.39,12.52-25.16,20.06T245.08,611.78Z" transform="translate(-17.26 0)"/><path class="cls-1" d="M381.23,608.37v-132H329V438.18H481.4v38.17h-52v132Z" transform="translate(-17.26 0)"/><path class="cls-1" d="M504.5,608.37V438.18h48.14V608.37Z" transform="translate(-17.26 0)"/><path class="cls-1" d="M591.78,608.37V438.18h48.14v132h81v38.17Z" transform="translate(-17.26 0)"/><path class="cls-1" d="M827.86,611.78a105.31,105.31,0,0,1-37.56-6.57,87,87,0,0,1-49.85-46.8A86.29,86.29,0,0,1,733.28,523a84.85,84.85,0,0,1,7.17-35,87.61,87.61,0,0,1,49.73-46.68,111.52,111.52,0,0,1,75.37,0,89.56,89.56,0,0,1,29.9,18.48,86.61,86.61,0,0,1,19.82,28A85.44,85.44,0,0,1,922.44,523a88.13,88.13,0,0,1-7.05,35.62,83.78,83.78,0,0,1-19.82,28.08,90.59,90.59,0,0,1-30,18.48A105.12,105.12,0,0,1,827.86,611.78Zm0-39.88A47.68,47.68,0,0,0,846,568.5a41.71,41.71,0,0,0,14.59-9.85,46.47,46.47,0,0,0,9.73-15.32,58.89,58.89,0,0,0,0-40.11,46.57,46.57,0,0,0-9.73-15.32A42,42,0,0,0,846,478.05a49.93,49.93,0,0,0-36.22,0A43.31,43.31,0,0,0,795,487.9a44.13,44.13,0,0,0-9.73,15.32,60.85,60.85,0,0,0,0,40.11A44,44,0,0,0,795,558.65a43,43,0,0,0,14.71,9.85A47.68,47.68,0,0,0,827.86,571.9Z" transform="translate(-17.26 0)"/><path class="cls-1" d="M979.82,546.37a36.28,36.28,0,0,1,2.55-14.1,48.25,48.25,0,0,1,6.44-11.06,75.3,75.3,0,0,1,8.39-9.12q4.5-4.13,8.39-7.78a39.77,39.77,0,0,0,6.44-7.66,15.39,15.39,0,0,0,2.55-8.38,13.25,13.25,0,0,0-6-11.31q-6-4.24-15.44-4.25a34.37,34.37,0,0,0-17.63,4.61A36,36,0,0,0,962.8,490l-36.23-19.21A71.78,71.78,0,0,1,954,444.62q17.75-9.84,45-9.84,18.72,0,33.07,5.22t22.61,15.44q8.27,10.21,8.27,25.05a44.77,44.77,0,0,1-2.8,16.53,41.63,41.63,0,0,1-7.53,12.4q-4.76,5.35-9.61,9.84t-9.6,8.64a39.8,39.8,0,0,0-7.54,8.51,18.12,18.12,0,0,0-2.8,10Zm21.64,64.19q-12.16,0-19.82-7.54A24.34,24.34,0,0,1,974,585a23.48,23.48,0,0,1,7.66-17.87q7.67-7.17,19.82-7.17,12.39,0,20,7.17a23.48,23.48,0,0,1,7.66,17.87,24.34,24.34,0,0,1-7.66,18Q1013.86,610.56,1001.46,610.56Z" transform="translate(-17.26 0)"/></g></g></g></svg>