<svg xmlns="http://www.w3.org/2000/svg" viewBox="0 0 3684.22 466.87"><defs><style>.cls-1{fill:#fff;}</style></defs><title>7</title><g id="Camada_2" data-name="Camada 2"><g id="Camada_1-2" data-name="Camada 1"><g id="Camada_16" data-name="Camada 16"><rect x="822.43" width="2861.79" height="220.73"/><rect x="497.58" y="246.14" width="835.33" height="220.73"/><path d="M78.09,187.22V85.45h39.69q13.38,0,22.83,4.21a32.44,32.44,0,0,1,14.54,12.22q5.08,8,5.08,19t-5.08,19a33,33,0,0,1-14.54,12.22q-9.45,4.29-22.83,4.29H86.09l6.54-6.84v37.66ZM92.63,151l-6.54-7.27h31.26q14,0,21.15-6t7.2-16.87q0-10.9-7.2-16.86t-21.15-6H86.09l6.54-7.27Z" transform="translate(-78.09)"/><path d="M186.26,187.22V110.16h13.37V131.1l-1.31-5.23a23.72,23.72,0,0,1,10.76-12.22q7.56-4.22,18.61-4.21V123a9.86,9.86,0,0,0-1.67-.15h-1.53q-11.19,0-17.73,6.69t-6.55,19.34v38.38Z" transform="translate(-78.09)"/><path d="M269.71,188.09a36.37,36.37,0,0,1-15-2.91,23,23,0,0,1-10-8.07,20.45,20.45,0,0,1-3.49-11.7,22.08,22.08,0,0,1,3-11.34q3-5.08,9.74-8.14t18.25-3.05H296.6v10H272.76q-10.47,0-14.1,3.49a11.26,11.26,0,0,0-3.64,8.43,10.86,10.86,0,0,0,4.51,9.09q4.5,3.41,12.5,3.41a26.38,26.38,0,0,0,13.74-3.49,19.82,19.82,0,0,0,8.51-10.17l2.76,9.59a21.67,21.67,0,0,1-9.74,10.83Q280.32,188.09,269.71,188.09Zm25.3-.87V170.93l-.73-3.05V140.11q0-8.87-5.16-13.74t-15.49-4.87a40.85,40.85,0,0,0-13.37,2.26,34.38,34.38,0,0,0-11,6l-5.82-10.47A42.24,42.24,0,0,1,257.71,112a60.11,60.11,0,0,1,17.52-2.54q15.86,0,24.43,7.7t8.58,23.55v46.53Z" transform="translate(-78.09)"/><path d="M421.2,184a41.43,41.43,0,0,1-20-4.73,36,36,0,0,1-14-13.15,36.57,36.57,0,0,1-5.16-19.48,36.49,36.49,0,0,1,5.16-19.56,35.69,35.69,0,0,1,14-13,42.08,42.08,0,0,1,20-4.65,40.43,40.43,0,0,1,18,4,30.64,30.64,0,0,1,13,12.29q4.86,8.28,4.87,20.94,0,12.5-4.87,20.79a31.59,31.59,0,0,1-13,12.43A39.21,39.21,0,0,1,421.2,184Zm1.74,32.28a71.29,71.29,0,0,1-20.57-3,42.46,42.46,0,0,1-16.21-8.5l6.69-10.76a39.42,39.42,0,0,0,13.23,7.34,50.14,50.14,0,0,0,16.43,2.69q13.67,0,20.06-6.39T449,178.2V161.92l1.45-15.26-.73-15.42V110.16h13.23v66.59q0,20.35-10.17,29.95T422.94,216.3Zm-.14-44.49a28.46,28.46,0,0,0,13.66-3.2,23.91,23.91,0,0,0,9.38-8.87,26.74,26.74,0,0,0,0-26.17,23.47,23.47,0,0,0-9.38-8.8,29,29,0,0,0-13.66-3.12,29.46,29.46,0,0,0-13.74,3.12,23.33,23.33,0,0,0-9.45,8.8,26.74,26.74,0,0,0,0,26.17,23.77,23.77,0,0,0,9.45,8.87A28.9,28.9,0,0,0,422.8,171.81Z" transform="translate(-78.09)"/><path d="M531.83,188.09A44.75,44.75,0,0,1,510.1,183a36.66,36.66,0,0,1-14.54-13.95,39.76,39.76,0,0,1-5.16-20.36,40.56,40.56,0,0,1,5-20.35,36.21,36.21,0,0,1,13.81-13.89,39.37,39.37,0,0,1,19.84-5,38.94,38.94,0,0,1,19.77,4.94,35,35,0,0,1,13.45,13.88,43,43,0,0,1,4.87,20.87c0,.58,0,1.26-.07,2s-.12,1.51-.22,2.18H501.3v-10h58.3l-5.67,3.49a25.91,25.91,0,0,0-3-13.23,23.45,23.45,0,0,0-8.8-9.09,27.38,27.38,0,0,0-26,0,23.13,23.13,0,0,0-8.87,9.16,27.76,27.76,0,0,0-3.19,13.45v2.33a26.45,26.45,0,0,0,3.56,13.74,24.34,24.34,0,0,0,10,9.37,31.09,31.09,0,0,0,14.68,3.35,32.12,32.12,0,0,0,12.43-2.33,27.11,27.11,0,0,0,9.81-7l7.71,9a33.76,33.76,0,0,1-13,9.3A45.37,45.37,0,0,1,531.83,188.09Z" transform="translate(-78.09)"/><path d="M635.64,109.44a36.51,36.51,0,0,1,16.65,3.63,26.15,26.15,0,0,1,11.26,11.05q4.08,7.41,4.07,18.76v44.34h-14V144.48q0-11.21-5.45-16.87t-15.34-5.67a27.36,27.36,0,0,0-12.94,2.91,19.92,19.92,0,0,0-8.51,8.58q-3,5.67-3,14.1v39.69h-14V110.16h13.37V131l-2.18-5.52a26.83,26.83,0,0,1,11.63-11.78A38.14,38.14,0,0,1,635.64,109.44Z" transform="translate(-78.09)"/><path d="M690.45,121.65V110.16h49.14v11.49ZM728,188.09q-11.64,0-18-6.25T703.53,164V93.3h14v70.08q0,6.24,3.13,9.59t8.94,3.34a16.47,16.47,0,0,0,10.9-3.63l4.36,10a20.22,20.22,0,0,1-7.63,4.07A32.53,32.53,0,0,1,728,188.09Z" transform="translate(-78.09)"/><path d="M801.38,188.09A44.79,44.79,0,0,1,779.64,183a36.66,36.66,0,0,1-14.54-13.95,39.76,39.76,0,0,1-5.16-20.36,40.56,40.56,0,0,1,5-20.35,36.21,36.21,0,0,1,13.81-13.89,39.38,39.38,0,0,1,19.85-5,38.94,38.94,0,0,1,19.77,4.94,35,35,0,0,1,13.45,13.88,43.07,43.07,0,0,1,4.87,20.87c0,.58,0,1.26-.08,2s-.12,1.51-.21,2.18H770.85v-10h58.3l-5.67,3.49a26,26,0,0,0-3.06-13.23,23.43,23.43,0,0,0-8.79-9.09,27.38,27.38,0,0,0-26,0,23.13,23.13,0,0,0-8.87,9.16,27.65,27.65,0,0,0-3.2,13.45v2.33a26.54,26.54,0,0,0,3.56,13.74,24.41,24.41,0,0,0,10,9.37,31.09,31.09,0,0,0,14.68,3.35,32.08,32.08,0,0,0,12.43-2.33,27.15,27.15,0,0,0,9.82-7l7.7,9a33.69,33.69,0,0,1-13,9.3A45.32,45.32,0,0,1,801.38,188.09Z" transform="translate(-78.09)"/><path d="M858.51,208.73l7.27-29.36,1.89,8.43a10,10,0,0,1-7-2.62,9.21,9.21,0,0,1-2.83-7.12,9.56,9.56,0,0,1,9.74-9.89,8.86,8.86,0,0,1,6.83,2.84,10,10,0,0,1,2.62,7.05,17.53,17.53,0,0,1-.22,2.83,29.07,29.07,0,0,1-.73,3.2c-.34,1.22-.85,2.69-1.52,4.44l-6.84,20.2Z" transform="translate(-78.09)"/><path class="cls-1" d="M1014.69,78.82a50.77,50.77,0,0,1,23.2,5.07,36.36,36.36,0,0,1,15.7,15.39q5.67,10.34,5.67,26.14v61.8h-19.45V127.65q0-15.6-7.6-23.5t-21.37-7.9a38.18,38.18,0,0,0-18,4,27.71,27.71,0,0,0-11.86,12q-4.16,7.91-4.15,19.66v55.31H957.35V79.83H976v29l-3-7.7A37.29,37.29,0,0,1,989.16,84.7Q1000.1,78.82,1014.69,78.82Z" transform="translate(-78.09)"/><path class="cls-1" d="M1137.87,188.43a50.59,50.59,0,0,1-21-4.05A32.14,32.14,0,0,1,1103,173.14a28.42,28.42,0,0,1-4.87-16.31,30.71,30.71,0,0,1,4.16-15.81q4.14-7.08,13.57-11.34t25.43-4.26h34v14h-33.23q-14.6,0-19.65,4.86a15.72,15.72,0,0,0-5.07,11.76,15.1,15.1,0,0,0,6.28,12.66q6.29,4.75,17.43,4.76a36.85,36.85,0,0,0,19.14-4.86,27.7,27.7,0,0,0,11.86-14.19l3.85,13.38a30.26,30.26,0,0,1-13.58,15.09Q1152.67,188.44,1137.87,188.43Zm35.26-1.21V164.53l-1-4.26v-38.7q0-12.36-7.2-19.14t-21.57-6.79a56.87,56.87,0,0,0-18.64,3.14,47.9,47.9,0,0,0-15.4,8.41L1101.2,92.6a58.58,58.58,0,0,1,20-10.23,83.45,83.45,0,0,1,24.41-3.55q22.08,0,34,10.74t12,32.82v64.84Zm-12-123.59a17.84,17.84,0,0,1-8.61-2,34.75,34.75,0,0,1-6.78-4.76,66.88,66.88,0,0,0-5.88-4.76,9.72,9.72,0,0,0-5.67-2,8.81,8.81,0,0,0-7.19,3.34q-2.74,3.34-3.15,9.22H1113q.4-11.34,5.68-18a17.1,17.1,0,0,1,14.18-6.69,17.7,17.7,0,0,1,8.71,2.13,37.24,37.24,0,0,1,6.89,4.86,74.31,74.31,0,0,0,5.78,4.76,9.3,9.3,0,0,0,12.86-1.21q2.84-3.24,3-8.92H1181q-.21,10.76-5.57,17.43A17.4,17.4,0,0,1,1161.17,63.63Z" transform="translate(-78.09)"/><path class="cls-1" d="M1284.77,188.43a57.61,57.61,0,0,1-28.67-7.09,52.21,52.21,0,0,1-20-19.55,54.93,54.93,0,0,1-7.29-28.26q0-16,7.29-28.27A53,53,0,0,1,1256,85.91q12.55-7.08,28.77-7.09a58.35,58.35,0,0,1,28.67,7,51.07,51.07,0,0,1,19.85,19.35q7.18,12.36,7.19,28.37t-7.19,28.36a51.74,51.74,0,0,1-19.85,19.45A57.66,57.66,0,0,1,1284.77,188.43Zm0-17a36.87,36.87,0,0,0,18.54-4.66,32.82,32.82,0,0,0,12.86-13.27,41.23,41.23,0,0,0,4.66-19.95q0-11.55-4.66-20a33.33,33.33,0,0,0-12.86-13.07,36.87,36.87,0,0,0-18.54-4.66,36.28,36.28,0,0,0-18.44,4.66,34.92,34.92,0,0,0-13,13.07q-4.86,8.42-4.86,20a39.89,39.89,0,0,0,4.86,19.95,34.35,34.35,0,0,0,13,13.27A36.28,36.28,0,0,0,1284.77,171.41Z" transform="translate(-78.09)"/><path class="cls-1" d="M1492,188.43q-17.24,0-30.29-7.09a51,51,0,0,1-20.27-19.45q-7.18-12.36-7.19-28.36t7-28.37a50.47,50.47,0,0,1,19.25-19.35,54.83,54.83,0,0,1,27.66-7q15.6,0,27.55,6.89a48.69,48.69,0,0,1,18.74,19.35q6.8,12.47,6.79,29.07c0,.81,0,1.76-.1,2.84s-.17,2.1-.3,3h-91.38V126h81.25l-7.91,4.86a36.1,36.1,0,0,0-4.25-18.44,32.52,32.52,0,0,0-12.26-12.66,38.14,38.14,0,0,0-36.17,0,32.1,32.1,0,0,0-12.35,12.77,38.54,38.54,0,0,0-4.46,18.74v3.24a37,37,0,0,0,5,19.15,34.1,34.1,0,0,0,13.88,13.06,43.49,43.49,0,0,0,20.46,4.66,44.59,44.59,0,0,0,17.33-3.24,38,38,0,0,0,13.67-9.72L1534.38,171a47.07,47.07,0,0,1-18.13,13A63.17,63.17,0,0,1,1492,188.43Z" transform="translate(-78.09)"/><path class="cls-1" d="M1560.72,187.22l46.2-60-.21,9.92-44-57.34h21.68L1618.06,124h-8.31l33.64-44.17h21.27l-44.57,57.75.2-10.33,46.6,60h-22.08l-35.46-47,7.9,1.22-34.85,45.79Z" transform="translate(-78.09)"/><path class="cls-1" d="M1709,59.17a13,13,0,0,1-9.42-3.65,12,12,0,0,1-3.75-8.91,12.19,12.19,0,0,1,3.75-9.12,13,13,0,0,1,9.42-3.65,13.15,13.15,0,0,1,9.42,3.55,11.63,11.63,0,0,1,3.75,8.81,12.66,12.66,0,0,1-13.17,13Zm-9.72,128.05V79.83h19.45V187.22Z" transform="translate(-78.09)"/><path class="cls-1" d="M1797.77,188.43a87.45,87.45,0,0,1-25.43-3.64q-12-3.64-18.94-8.92l8.11-15.4a66.27,66.27,0,0,0,17,7.91,67.52,67.52,0,0,0,20.67,3.24q13.57,0,19.55-3.85a12.11,12.11,0,0,0,6-10.74,9.44,9.44,0,0,0-3.65-7.9,25,25,0,0,0-9.62-4.26q-6-1.41-13.27-2.53t-14.59-2.84a57.41,57.41,0,0,1-13.37-4.86,25.28,25.28,0,0,1-9.73-8.71q-3.65-5.58-3.64-14.89a27.55,27.55,0,0,1,5.47-17q5.46-7.3,15.5-11.25t23.8-4A94.29,94.29,0,0,1,1823,81.35q10.83,2.54,17.73,7.2l-8.31,15.39a45.77,45.77,0,0,0-15.2-6.68,69.74,69.74,0,0,0-15.8-1.83q-12.76,0-19.05,4.16t-6.28,10.64a10,10,0,0,0,3.75,8.4,27.08,27.08,0,0,0,9.73,4.56,117.4,117.4,0,0,0,13.27,2.74q7.29,1.11,14.59,2.84a58.72,58.72,0,0,1,13.27,4.76,25.69,25.69,0,0,1,9.72,8.51q3.75,5.46,3.75,14.58a26.11,26.11,0,0,1-5.67,16.82q-5.68,7.09-16,11T1797.77,188.43Z" transform="translate(-78.09)"/><path class="cls-1" d="M1864.23,95.84v-16h68.48v16Zm52.27,92.59q-16.21,0-25.12-8.71t-8.92-24.92V56.33h19.45V154q0,8.72,4.36,13.37t12.46,4.66q9.12,0,15.2-5.06l6.07,14a28.38,28.38,0,0,1-10.63,5.67A45.08,45.08,0,0,1,1916.5,188.43Z" transform="translate(-78.09)"/><path class="cls-1" d="M2018.82,188.43q-17.22,0-30.29-7.09a51,51,0,0,1-20.26-19.45q-7.2-12.36-7.19-28.36t7-28.37a50.45,50.45,0,0,1,19.24-19.35,54.83,54.83,0,0,1,27.66-7q15.6,0,27.55,6.89a48.78,48.78,0,0,1,18.75,19.35q6.78,12.47,6.78,29.07c0,.81,0,1.76-.1,2.84s-.17,2.1-.3,3h-91.38V126h81.25l-7.9,4.86a36.2,36.2,0,0,0-4.26-18.44,32.52,32.52,0,0,0-12.26-12.66,38.12,38.12,0,0,0-36.16,0,32.12,32.12,0,0,0-12.36,12.77,38.65,38.65,0,0,0-4.46,18.74v3.24a37,37,0,0,0,5,19.15A34.1,34.1,0,0,0,1999,166.75a43.53,43.53,0,0,0,20.47,4.66,44.58,44.58,0,0,0,17.32-3.24,38,38,0,0,0,13.68-9.72L2061.17,171A47.11,47.11,0,0,1,2043,184,63.17,63.17,0,0,1,2018.82,188.43Z" transform="translate(-78.09)"/><path class="cls-1" d="M2217.78,188.43a57.63,57.63,0,0,1-28.67-7.09,52.25,52.25,0,0,1-20-19.55,54.84,54.84,0,0,1-7.3-28.26q0-16,7.3-28.27A53.05,53.05,0,0,1,2189,85.91q12.57-7.08,28.77-7.09a58.32,58.32,0,0,1,28.67,7,51.17,51.17,0,0,1,19.86,19.35q7.18,12.36,7.19,28.37t-7.19,28.36a51.84,51.84,0,0,1-19.86,19.45A57.63,57.63,0,0,1,2217.78,188.43Zm0-17a36.84,36.84,0,0,0,18.54-4.66,32.85,32.85,0,0,0,12.87-13.27,41.34,41.34,0,0,0,4.66-19.95q0-11.55-4.66-20a33.35,33.35,0,0,0-12.87-13.07,36.84,36.84,0,0,0-18.54-4.66,36.24,36.24,0,0,0-18.43,4.66,34.92,34.92,0,0,0-13,13.07q-4.86,8.42-4.86,20a39.89,39.89,0,0,0,4.86,19.95,34.35,34.35,0,0,0,13,13.27A36.24,36.24,0,0,0,2217.78,171.41Z" transform="translate(-78.09)"/><path class="cls-1" d="M2424,188.43q-16.41,0-29.28-7.09a52.15,52.15,0,0,1-20.16-19.45q-7.29-12.36-7.29-28.36t7.29-28.37a51.49,51.49,0,0,1,20.16-19.35q12.87-7,29.28-7a57,57,0,0,1,26,5.78,40.79,40.79,0,0,1,17.72,17.12L2453,111.24a33,33,0,0,0-12.86-11.65,36.39,36.39,0,0,0-16.31-3.75A37.83,37.83,0,0,0,2405,100.5a34.49,34.49,0,0,0-13.16,13.07q-4.87,8.42-4.87,20t4.87,20.05A34.13,34.13,0,0,0,2405,166.75a37.83,37.83,0,0,0,18.85,4.66,36.38,36.38,0,0,0,16.31-3.74A33.07,33.07,0,0,0,2453,156l14.79,9.32a42.46,42.46,0,0,1-17.72,17.12A55.5,55.5,0,0,1,2424,188.43Z" transform="translate(-78.09)"/><path class="cls-1" d="M2550.27,188.43q-17.22,0-30.29-7.09a51,51,0,0,1-20.26-19.45q-7.2-12.36-7.2-28.36t7-28.37a50.47,50.47,0,0,1,19.25-19.35,54.83,54.83,0,0,1,27.66-7q15.6,0,27.55,6.89a48.69,48.69,0,0,1,18.74,19.35q6.79,12.47,6.79,29.07c0,.81,0,1.76-.1,2.84s-.17,2.1-.3,3h-91.38V126H2589l-7.91,4.86a36.1,36.1,0,0,0-4.25-18.44,32.52,32.52,0,0,0-12.26-12.66,38.12,38.12,0,0,0-36.16,0A32.12,32.12,0,0,0,2516,112.56a38.54,38.54,0,0,0-4.46,18.74v3.24a37,37,0,0,0,5,19.15,34.1,34.1,0,0,0,13.88,13.06,43.5,43.5,0,0,0,20.47,4.66,44.58,44.58,0,0,0,17.32-3.24,37.86,37.86,0,0,0,13.67-9.72L2592.61,171a47.07,47.07,0,0,1-18.13,13A63.17,63.17,0,0,1,2550.27,188.43Z" transform="translate(-78.09)"/><path class="cls-1" d="M2637.59,187.22V79.83h18.64V109l-1.82-7.29a33,33,0,0,1,15-17q10.53-5.88,25.94-5.88V97.66a14.77,14.77,0,0,0-2.33-.2h-2.13q-15.6,0-24.72,9.32T2657,133.73v53.49Z" transform="translate(-78.09)"/><path class="cls-1" d="M2719.45,95.84v-16h68.48v16Zm52.27,92.59q-16.21,0-25.12-8.71t-8.92-24.92V56.33h19.45V154q0,8.72,4.36,13.37T2774,172q9.12,0,15.19-5.06l6.08,14a28.46,28.46,0,0,1-10.63,5.67A45.13,45.13,0,0,1,2771.72,188.43Z" transform="translate(-78.09)"/><path class="cls-1" d="M2872.21,188.43a57.63,57.63,0,0,1-28.67-7.09,52.25,52.25,0,0,1-19.95-19.55,54.84,54.84,0,0,1-7.3-28.26q0-16,7.3-28.27a53.05,53.05,0,0,1,19.85-19.35q12.57-7.08,28.77-7.09a58.32,58.32,0,0,1,28.67,7,51.17,51.17,0,0,1,19.86,19.35q7.19,12.36,7.19,28.37t-7.19,28.36a51.84,51.84,0,0,1-19.86,19.45A57.63,57.63,0,0,1,2872.21,188.43Zm0-17a36.84,36.84,0,0,0,18.54-4.66,32.85,32.85,0,0,0,12.87-13.27,41.34,41.34,0,0,0,4.66-19.95q0-11.55-4.66-20a33.35,33.35,0,0,0-12.87-13.07,36.84,36.84,0,0,0-18.54-4.66,36.27,36.27,0,0,0-18.43,4.66,34.92,34.92,0,0,0-13,13.07q-4.86,8.42-4.86,20a39.89,39.89,0,0,0,4.86,19.95,34.35,34.35,0,0,0,13,13.27A36.27,36.27,0,0,0,2872.21,171.41Z" transform="translate(-78.09)"/><path class="cls-1" d="M3089,78.82a50.77,50.77,0,0,1,23.2,5.07,36.41,36.41,0,0,1,15.7,15.39q5.67,10.34,5.67,26.14v61.8h-19.45V127.65q0-15.6-7.6-23.5t-21.37-7.9a38.25,38.25,0,0,0-18,4,27.74,27.74,0,0,0-11.85,12q-4.16,7.91-4.15,19.66v55.31h-19.45V79.83h18.64v29l-3-7.7a37.29,37.29,0,0,1,16.21-16.41Q3074.42,78.82,3089,78.82Z" transform="translate(-78.09)"/><path class="cls-1" d="M3228.61,188.43q-17.24,0-30.29-7.09a51,51,0,0,1-20.27-19.45q-7.18-12.36-7.19-28.36t7-28.37a50.47,50.47,0,0,1,19.25-19.35,54.83,54.83,0,0,1,27.66-7q15.6,0,27.55,6.89a48.69,48.69,0,0,1,18.74,19.35q6.79,12.47,6.79,29.07c0,.81,0,1.76-.1,2.84s-.17,2.1-.3,3h-91.38V126h81.24l-7.9,4.86a36.1,36.1,0,0,0-4.25-18.44,32.52,32.52,0,0,0-12.26-12.66,38.14,38.14,0,0,0-36.17,0,32.19,32.19,0,0,0-12.36,12.77,38.65,38.65,0,0,0-4.45,18.74v3.24a37,37,0,0,0,5,19.15,34,34,0,0,0,13.88,13.06,43.46,43.46,0,0,0,20.46,4.66,44.59,44.59,0,0,0,17.33-3.24,38,38,0,0,0,13.67-9.72L3271,171a47.07,47.07,0,0,1-18.13,13A63.17,63.17,0,0,1,3228.61,188.43Z" transform="translate(-78.09)"/><path class="cls-1" d="M3450.26,78.82a49.67,49.67,0,0,1,22.9,5.07,36,36,0,0,1,15.5,15.39q5.57,10.34,5.57,26.14v61.8h-19.45V127.65q0-15.6-7.3-23.5T3447,96.25a34.5,34.5,0,0,0-17,4,27.13,27.13,0,0,0-11.24,12q-4,7.91-4,19.66v55.31h-19.46V127.65q0-15.6-7.19-23.5t-20.56-7.9a34.07,34.07,0,0,0-16.82,4,27.76,27.76,0,0,0-11.35,12q-4,7.91-4,19.66v55.31h-19.45V79.83h18.64V108.4l-3-7.29a36.69,36.69,0,0,1,15.6-16.41q10.54-5.88,24.52-5.88,15.39,0,26.54,7.6t14.59,23l-7.9-3.25a40.37,40.37,0,0,1,17-19.85Q3434.05,78.82,3450.26,78.82Z" transform="translate(-78.09)"/><path class="cls-1" d="M3652.87,188.43a57.63,57.63,0,0,1-28.67-7.09,52.25,52.25,0,0,1-19.95-19.55,54.84,54.84,0,0,1-7.3-28.26q0-16,7.3-28.27a53,53,0,0,1,19.85-19.35q12.57-7.08,28.77-7.09a58.32,58.32,0,0,1,28.67,7,51.17,51.17,0,0,1,19.86,19.35q7.18,12.36,7.19,28.37t-7.19,28.36a51.84,51.84,0,0,1-19.86,19.45A57.63,57.63,0,0,1,3652.87,188.43Zm0-17a36.84,36.84,0,0,0,18.54-4.66,32.85,32.85,0,0,0,12.87-13.27,41.34,41.34,0,0,0,4.66-19.95q0-11.55-4.66-20a33.35,33.35,0,0,0-12.87-13.07,36.84,36.84,0,0,0-18.54-4.66,36.31,36.31,0,0,0-18.44,4.66,35,35,0,0,0-13,13.07q-4.86,8.42-4.87,20a39.9,39.9,0,0,0,4.87,19.95,34.39,34.39,0,0,0,13,13.27A36.31,36.31,0,0,0,3652.87,171.41Z" transform="translate(-78.09)"/><path class="cls-1" d="M723.69,431.57q-17.22,0-30.29-7.09A51.09,51.09,0,0,1,673.14,405q-7.2-12.36-7.2-28.37t7-28.37a50.54,50.54,0,0,1,19.25-19.35,54.83,54.83,0,0,1,27.66-7q15.6,0,27.55,6.89a48.91,48.91,0,0,1,18.75,19.35q6.78,12.46,6.78,29.08c0,.81,0,1.75-.1,2.83s-.17,2.1-.3,3H681.14v-14h81.25l-7.9,4.87a36.18,36.18,0,0,0-4.26-18.44A32.46,32.46,0,0,0,738,342.93a38.12,38.12,0,0,0-36.16,0,32,32,0,0,0-12.36,12.76A38.54,38.54,0,0,0,685,374.43v3.24a36.93,36.93,0,0,0,5,19.15,34.12,34.12,0,0,0,13.88,13.07,43.5,43.5,0,0,0,20.47,4.66,44.76,44.76,0,0,0,17.32-3.24,37.89,37.89,0,0,0,13.68-9.73L766,414.14a47,47,0,0,1-18.13,13A63.17,63.17,0,0,1,723.69,431.57Z" transform="translate(-78.09)"/><path class="cls-1" d="M811,430.35V323h18.64v29.17l-1.82-7.29a33,33,0,0,1,15-17Q853.37,322,868.76,322V340.8a13.67,13.67,0,0,0-2.33-.2H864.3q-15.6,0-24.72,9.32t-9.12,26.94v53.49Z" transform="translate(-78.09)"/><path class="cls-1" d="M903.81,430.35V323h18.64v29.17l-1.82-7.29a33,33,0,0,1,15-17Q946.15,322,961.55,322V340.8a13.67,13.67,0,0,0-2.33-.2H957.1q-15.61,0-24.72,9.32t-9.12,26.94v53.49Z" transform="translate(-78.09)"/><path class="cls-1" d="M1020.11,431.57a50.75,50.75,0,0,1-21-4.05,32.19,32.19,0,0,1-13.88-11.25A28.44,28.44,0,0,1,980.4,400a30.66,30.66,0,0,1,4.15-15.8q4.16-7.1,13.57-11.35t25.43-4.25h34v14h-33.23q-14.58,0-19.65,4.86a15.69,15.69,0,0,0-5.07,11.75,15.11,15.11,0,0,0,6.28,12.66q6.29,4.77,17.43,4.76a36.89,36.89,0,0,0,19.15-4.86,27.65,27.65,0,0,0,11.85-14.18l3.85,13.37a30.28,30.28,0,0,1-13.58,15.1Q1034.9,431.56,1020.11,431.57Zm35.25-1.22V407.66l-1-4.26V364.71q0-12.36-7.19-19.15t-21.58-6.79a57,57,0,0,0-18.64,3.14,48.09,48.09,0,0,0-15.4,8.41l-8.1-14.59a58.61,58.61,0,0,1,19.95-10.23,83.57,83.57,0,0,1,24.42-3.55q22.08,0,34,10.74t12,32.83v64.83Z" transform="translate(-78.09)"/><path class="cls-1" d="M1165.38,431.57a55.9,55.9,0,0,1-27.86-6.89,50.47,50.47,0,0,1-19.35-19.25q-7.1-12.36-7.09-28.77t7.09-28.67a50.77,50.77,0,0,1,19.35-19.15,55.9,55.9,0,0,1,27.86-6.89,49.61,49.61,0,0,1,24.51,6.08,44.39,44.39,0,0,1,17.53,18.24q6.58,12.15,6.59,30.39t-6.39,30.39a43.76,43.76,0,0,1-17.32,18.34A49.77,49.77,0,0,1,1165.38,431.57Zm1.62-17a36.46,36.46,0,0,0,18.34-4.66,33.58,33.58,0,0,0,13-13.27,40.5,40.5,0,0,0,4.76-20q0-11.55-4.76-20a34,34,0,0,0-13-13.07,38.62,38.62,0,0,0-36.78,0,35,35,0,0,0-13,13.07q-4.87,8.42-4.87,20a39.8,39.8,0,0,0,4.87,20,34.53,34.53,0,0,0,13,13.27A36.28,36.28,0,0,0,1167,414.55Zm36.67,15.8v-29l1.22-24.92-2-24.92V280h19.45V430.35Z" transform="translate(-78.09)"/><path class="cls-1" d="M1316.32,431.57a57.63,57.63,0,0,1-28.67-7.09,52.35,52.35,0,0,1-20-19.56,54.79,54.79,0,0,1-7.3-28.26q0-16,7.3-28.26a53,53,0,0,1,19.85-19.35q12.57-7.1,28.77-7.1a58.32,58.32,0,0,1,28.67,7,51.23,51.23,0,0,1,19.86,19.35q7.19,12.36,7.19,28.37T1364.85,405A51.91,51.91,0,0,1,1345,424.48,57.63,57.63,0,0,1,1316.32,431.57Zm0-17a36.84,36.84,0,0,0,18.54-4.66,33,33,0,0,0,12.87-13.27,41.35,41.35,0,0,0,4.66-20q0-11.55-4.66-20a33.35,33.35,0,0,0-12.87-13.07,36.94,36.94,0,0,0-18.54-4.66,36.41,36.41,0,0,0-18.44,4.66,35,35,0,0,0-13,13.07q-4.86,8.42-4.86,20a39.9,39.9,0,0,0,4.86,20,34.53,34.53,0,0,0,13,13.27A36.31,36.31,0,0,0,1316.32,414.55Z" transform="translate(-78.09)"/><path d="M1493.17,352.57a36.38,36.38,0,0,1,16.65,3.64,26.09,26.09,0,0,1,11.27,11q4.07,7.42,4.07,18.76v44.34h-14V387.61q0-11.19-5.45-16.87t-15.34-5.67a27.38,27.38,0,0,0-12.94,2.91,20,20,0,0,0-8.51,8.58q-3,5.67-3,14.1v39.69h-14V353.3h13.37v20.79l-2.18-5.53a26.76,26.76,0,0,1,11.63-11.77A38.17,38.17,0,0,1,1493.17,352.57Z" transform="translate(-78.09)"/><path d="M1581.57,431.22a36.38,36.38,0,0,1-15-2.9,23.08,23.08,0,0,1-10-8.07,20.38,20.38,0,0,1-3.49-11.71,22,22,0,0,1,3-11.34q3-5.08,9.74-8.14T1584,386h24.42v10h-23.84q-10.47,0-14.1,3.49a11.25,11.25,0,0,0-3.64,8.43,10.84,10.84,0,0,0,4.51,9.09q4.5,3.42,12.5,3.42a26.48,26.48,0,0,0,13.74-3.49,19.88,19.88,0,0,0,8.51-10.18l2.76,9.59a21.73,21.73,0,0,1-9.74,10.84Q1592.17,431.22,1581.57,431.22Zm25.29-.87V414.07l-.72-3.05V383.25q0-8.87-5.17-13.74t-15.48-4.87a40.8,40.8,0,0,0-13.37,2.25,34.29,34.29,0,0,0-11,6l-5.82-10.47a42.16,42.16,0,0,1,14.32-7.35,60,60,0,0,1,17.52-2.54q15.84,0,24.43,7.71t8.57,23.55v46.52Z" transform="translate(-78.09)"/><path d="M1742.22,352.57a36.37,36.37,0,0,1,16.64,3.64,26,26,0,0,1,11.27,11q4.06,7.42,4.07,18.76v44.34h-14V387.61q0-11.19-5.45-16.87t-15.34-5.67a27.41,27.41,0,0,0-12.94,2.91,19.9,19.9,0,0,0-8.5,8.58q-3,5.67-3,14.1v39.69h-14V322.48h14v51.61l-2.76-5.53a26.71,26.71,0,0,1,11.63-11.77A38.15,38.15,0,0,1,1742.22,352.57Z" transform="translate(-78.09)"/><path d="M1841.08,431.22a41.36,41.36,0,0,1-20.57-5.08,37.64,37.64,0,0,1-14.33-14,39.51,39.51,0,0,1-5.23-20.29,39,39,0,0,1,5.23-20.28,38.05,38.05,0,0,1,14.25-13.88,41.29,41.29,0,0,1,20.65-5.09,41.8,41.8,0,0,1,20.57,5,36.64,36.64,0,0,1,14.25,13.88,42.73,42.73,0,0,1,0,40.71,37.26,37.26,0,0,1-14.25,14A41.41,41.41,0,0,1,1841.08,431.22Zm0-12.21a26.46,26.46,0,0,0,13.3-3.34,23.55,23.55,0,0,0,9.23-9.53,29.58,29.58,0,0,0,3.35-14.32,29.12,29.12,0,0,0-3.35-14.32,23.83,23.83,0,0,0-9.23-9.37,26.47,26.47,0,0,0-13.3-3.35,26,26,0,0,0-13.23,3.35,25.07,25.07,0,0,0-9.31,9.37,28.21,28.21,0,0,0-3.49,14.32,28.66,28.66,0,0,0,3.49,14.32,24.73,24.73,0,0,0,9.31,9.53A26,26,0,0,0,1841.08,419Z" transform="translate(-78.09)"/><path d="M1908.39,430.35V353.3h13.38v20.93l-1.31-5.23a23.61,23.61,0,0,1,10.76-12.21q7.54-4.21,18.6-4.22v13.52a11,11,0,0,0-1.67-.14h-1.52q-11.2,0-17.74,6.68T1922.35,392v38.38Z" transform="translate(-78.09)"/><path d="M1991.84,431.22a36.38,36.38,0,0,1-15-2.9,23.14,23.14,0,0,1-10-8.07,20.45,20.45,0,0,1-3.48-11.71,22,22,0,0,1,3-11.34q3-5.08,9.74-8.14t18.24-3.05h24.43v10h-23.85c-7,0-11.68,1.16-14.1,3.49a11.28,11.28,0,0,0-3.63,8.43,10.85,10.85,0,0,0,4.5,9.09q4.52,3.42,12.51,3.42a26.53,26.53,0,0,0,13.74-3.49,19.86,19.86,0,0,0,8.5-10.18l2.76,9.59a21.73,21.73,0,0,1-9.74,10.84Q2002.46,431.22,1991.84,431.22Zm25.3-.87V414.07l-.73-3.05V383.25q0-8.87-5.16-13.74t-15.48-4.87a40.86,40.86,0,0,0-13.38,2.25,34.39,34.39,0,0,0-11.05,6l-5.81-10.47a42.07,42.07,0,0,1,14.32-7.35,60,60,0,0,1,17.52-2.54q15.84,0,24.42,7.71t8.58,23.55v46.52Z" transform="translate(-78.09)"/><path d="M2143.19,431.22a40,40,0,0,1-20-4.94,36.13,36.13,0,0,1-13.89-13.81,44.27,44.27,0,0,1,0-41.22,36.37,36.37,0,0,1,13.89-13.74,40.12,40.12,0,0,1,20-4.94,35.6,35.6,0,0,1,17.59,4.36A31.86,31.86,0,0,1,2173.35,370q4.72,8.72,4.73,21.8t-4.58,21.81a31.43,31.43,0,0,1-12.43,13.16A35.71,35.71,0,0,1,2143.19,431.22Zm1.16-12.21a26.2,26.2,0,0,0,13.16-3.34,24.1,24.1,0,0,0,9.3-9.53,29.06,29.06,0,0,0,3.42-14.32,28.6,28.6,0,0,0-3.42-14.32,24.41,24.41,0,0,0-9.3-9.37,27.66,27.66,0,0,0-26.39,0,25.07,25.07,0,0,0-9.31,9.37,28.21,28.21,0,0,0-3.48,14.32,28.65,28.65,0,0,0,3.48,14.32,24.73,24.73,0,0,0,9.31,9.53A26,26,0,0,0,2144.35,419Zm26.31,11.34V409.56l.88-17.88-1.46-17.88V322.48h14V430.35Z" transform="translate(-78.09)"/><path d="M2252.81,431.22a44.9,44.9,0,0,1-21.74-5.08,36.75,36.75,0,0,1-14.54-14,39.73,39.73,0,0,1-5.16-20.36,40.56,40.56,0,0,1,5-20.35,36.11,36.11,0,0,1,13.81-13.88,41.89,41.89,0,0,1,39.62-.08,35,35,0,0,1,13.44,13.89,42.89,42.89,0,0,1,4.87,20.86c0,.58,0,1.26-.07,2s-.12,1.5-.22,2.18h-65.57v-10h58.3l-5.67,3.48a25.91,25.91,0,0,0-3.05-13.23,23.33,23.33,0,0,0-8.79-9.08,27.4,27.4,0,0,0-26,0,23,23,0,0,0-8.86,9.16,27.63,27.63,0,0,0-3.2,13.45v2.32a26.45,26.45,0,0,0,3.56,13.74,24.43,24.43,0,0,0,10,9.38,31.21,31.21,0,0,0,14.68,3.34,32.08,32.08,0,0,0,12.43-2.32,27.35,27.35,0,0,0,9.82-7l7.7,9a33.89,33.89,0,0,1-13,9.31A45.36,45.36,0,0,1,2252.81,431.22Z" transform="translate(-78.09)"/><path d="M2384.67,431.22a62.86,62.86,0,0,1-18.25-2.61q-8.64-2.62-13.59-6.4l5.82-11a47.48,47.48,0,0,0,12.21,5.67,48.38,48.38,0,0,0,14.83,2.33q9.73,0,14-2.77a8.68,8.68,0,0,0,4.29-7.7,6.8,6.8,0,0,0-2.62-5.67,17.87,17.87,0,0,0-6.91-3q-4.29-1-9.52-1.82t-10.47-2a41,41,0,0,1-9.59-3.49,18,18,0,0,1-7-6.25q-2.62-4-2.62-10.68a19.73,19.73,0,0,1,3.93-12.21,24.81,24.81,0,0,1,11.12-8.07,46.53,46.53,0,0,1,17.08-2.84,67.4,67.4,0,0,1,15.34,1.82,38.13,38.13,0,0,1,12.72,5.16l-6,11.05a32.8,32.8,0,0,0-10.9-4.8,50.42,50.42,0,0,0-11.34-1.31q-9.16,0-13.67,3t-4.51,7.64a7.23,7.23,0,0,0,2.69,6,19.35,19.35,0,0,0,7,3.27,84.58,84.58,0,0,0,9.52,2q5.23.81,10.47,2a42.43,42.43,0,0,1,9.52,3.41,18.48,18.48,0,0,1,7,6.11q2.7,3.93,2.69,10.47a18.78,18.78,0,0,1-4.07,12.07,26.32,26.32,0,0,1-11.48,7.92A49.75,49.75,0,0,1,2384.67,431.22Z" transform="translate(-78.09)"/><path d="M2477.72,431.22a44.9,44.9,0,0,1-21.74-5.08,36.75,36.75,0,0,1-14.54-14,39.73,39.73,0,0,1-5.16-20.36,40.56,40.56,0,0,1,5-20.35,36.11,36.11,0,0,1,13.81-13.88,41.89,41.89,0,0,1,39.62-.08,35,35,0,0,1,13.44,13.89,42.89,42.89,0,0,1,4.87,20.86c0,.58,0,1.26-.07,2s-.12,1.5-.22,2.18h-65.57v-10h58.3l-5.67,3.48a25.91,25.91,0,0,0-3-13.23,23.36,23.36,0,0,0-8.8-9.08,27.38,27.38,0,0,0-25.95,0,23.07,23.07,0,0,0-8.87,9.16,27.73,27.73,0,0,0-3.19,13.45v2.32a26.45,26.45,0,0,0,3.56,13.74,24.43,24.43,0,0,0,10,9.38,31.21,31.21,0,0,0,14.68,3.34,32.08,32.08,0,0,0,12.43-2.32,27.35,27.35,0,0,0,9.82-7l7.7,9a33.89,33.89,0,0,1-13,9.31A45.36,45.36,0,0,1,2477.72,431.22Z" transform="translate(-78.09)"/><path d="M2607.69,430.35,2574,353.3h14.54l29.95,69.78h-7L2642,353.3h13.67l-33.73,77.05Z" transform="translate(-78.09)"/><path d="M2708.88,431.22a44.9,44.9,0,0,1-21.74-5.08,36.75,36.75,0,0,1-14.54-14,39.73,39.73,0,0,1-5.16-20.36,40.56,40.56,0,0,1,5-20.35,36.11,36.11,0,0,1,13.81-13.88,41.89,41.89,0,0,1,39.62-.08,35,35,0,0,1,13.44,13.89,42.89,42.89,0,0,1,4.87,20.86c0,.58,0,1.26-.07,2s-.12,1.5-.22,2.18h-65.56v-10h58.29l-5.67,3.48a25.91,25.91,0,0,0-3-13.23,23.33,23.33,0,0,0-8.79-9.08,27.4,27.4,0,0,0-26,0,23,23,0,0,0-8.86,9.16,27.63,27.63,0,0,0-3.2,13.45v2.32a26.45,26.45,0,0,0,3.56,13.74,24.43,24.43,0,0,0,10,9.38,31.21,31.21,0,0,0,14.68,3.34,32.08,32.08,0,0,0,12.43-2.32,27.35,27.35,0,0,0,9.82-7l7.7,9a33.89,33.89,0,0,1-13,9.31A45.36,45.36,0,0,1,2708.88,431.22Z" transform="translate(-78.09)"/><path d="M2793.64,431.22a62.86,62.86,0,0,1-18.25-2.61q-8.66-2.62-13.59-6.4l5.81-11a47.8,47.8,0,0,0,12.21,5.67,48.42,48.42,0,0,0,14.83,2.33q9.75,0,14-2.77a8.66,8.66,0,0,0,4.29-7.7,6.77,6.77,0,0,0-2.62-5.67,17.76,17.76,0,0,0-6.9-3q-4.29-1-9.52-1.82t-10.47-2a41.22,41.22,0,0,1-9.6-3.49,18.16,18.16,0,0,1-7-6.25q-2.61-4-2.61-10.68a19.79,19.79,0,0,1,3.92-12.21,24.9,24.9,0,0,1,11.13-8.07,46.49,46.49,0,0,1,17.08-2.84,67.4,67.4,0,0,1,15.34,1.82,38.13,38.13,0,0,1,12.72,5.16l-6,11.05a32.85,32.85,0,0,0-10.91-4.8,50.42,50.42,0,0,0-11.34-1.31q-9.15,0-13.66,3t-4.51,7.64a7.2,7.2,0,0,0,2.69,6,19.27,19.27,0,0,0,7,3.27,84.58,84.58,0,0,0,9.52,2q5.24.81,10.47,2a42.43,42.43,0,0,1,9.52,3.41,18.55,18.55,0,0,1,7,6.11q2.69,3.93,2.69,10.47a18.78,18.78,0,0,1-4.07,12.07,26.36,26.36,0,0,1-11.49,7.92A49.65,49.65,0,0,1,2793.64,431.22Z" transform="translate(-78.09)"/><path d="M2841.32,364.78V353.3h49.14v11.48Zm37.51,66.44q-11.64,0-18-6.25t-6.39-17.88V336.43h14v70.08q0,6.25,3.13,9.59t8.94,3.35a16.4,16.4,0,0,0,10.9-3.64l4.36,10a20.36,20.36,0,0,1-7.63,4.07A32.52,32.52,0,0,1,2878.83,431.22Z" transform="translate(-78.09)"/><path d="M2927.53,338.47a9.28,9.28,0,0,1-6.76-2.62,8.58,8.58,0,0,1-2.69-6.4,8.78,8.78,0,0,1,2.69-6.54,9.32,9.32,0,0,1,6.76-2.61,9.43,9.43,0,0,1,6.76,2.54,8.36,8.36,0,0,1,2.69,6.32,9.07,9.07,0,0,1-9.45,9.31Zm-7,91.88V353.3h14v77.05Z" transform="translate(-78.09)"/><path d="M2969.11,430.35V353.3h13.38v20.93l-1.31-5.23a23.66,23.66,0,0,1,10.76-12.21q7.56-4.21,18.61-4.22v13.52a11.08,11.08,0,0,0-1.68-.14h-1.52q-11.2,0-17.74,6.68T2983.07,392v38.38Z" transform="translate(-78.09)"/><path d="M3038.6,431.22a9.8,9.8,0,0,1-9.88-10,9.37,9.37,0,0,1,2.91-7.12,9.75,9.75,0,0,1,7-2.76,9.37,9.37,0,0,1,6.77,2.76,9.53,9.53,0,0,1,2.83,7.12,9.79,9.79,0,0,1-2.83,7.2A9.24,9.24,0,0,1,3038.6,431.22Zm33.73,0a9.8,9.8,0,0,1-9.88-10,9.37,9.37,0,0,1,2.91-7.12,9.75,9.75,0,0,1,7-2.76,9.35,9.35,0,0,1,6.76,2.76,9.5,9.5,0,0,1,2.84,7.12,9.76,9.76,0,0,1-2.84,7.2A9.22,9.22,0,0,1,3072.33,431.22Zm33.73,0a9.79,9.79,0,0,1-9.88-10,9.36,9.36,0,0,1,2.9-7.12,9.79,9.79,0,0,1,7-2.76,9.35,9.35,0,0,1,6.76,2.76,9.5,9.5,0,0,1,2.84,7.12,9.76,9.76,0,0,1-2.84,7.2A9.22,9.22,0,0,1,3106.06,431.22Z" transform="translate(-78.09)"/></g></g></g></svg>