<svg xmlns="http://www.w3.org/2000/svg" viewBox="0 0 3487.56 359.59"><defs><style>.cls-1{fill:#ececed;}</style></defs><title>4</title><g id="Camada_2" data-name="Camada 2"><g id="Camada_1-2" data-name="Camada 1"><g id="DESKTOP4_cópia" data-name="DESKTOP4 cópia"><rect x="626.06" width="430.9" height="88.35"/><rect x="2.91" y="85.19" width="2058.88" height="88.35"/><rect x="667.61" y="173.9" width="401.48" height="88.35"/><rect x="3217.9" y="173.9" width="172.43" height="88.35"/><rect x="924.51" y="258.65" width="1605.67" height="94.69"/><rect x="2589.64" y="3.3" width="897.92" height="88.35"/><path class="cls-1" d="M49.63,85.6,74.57,30.53h7.79l25,55.07H99.11L76.85,34.94H80L57.74,85.6ZM60.25,71.83l2.13-6.29h31l2.28,6.29Z" transform="translate(-49.63)"/><path class="cls-1" d="M119.88,85.6V30.53h23.21A33.43,33.43,0,0,1,158.62,34a25.53,25.53,0,0,1,10.47,9.68,27.38,27.38,0,0,1,3.73,14.39,27.39,27.39,0,0,1-3.73,14.4,25.5,25.5,0,0,1-10.47,9.67,33.43,33.43,0,0,1-15.53,3.47Zm7.87-6.85h14.87a25.4,25.4,0,0,0,11.84-2.59,18.89,18.89,0,0,0,7.74-7.28A20.91,20.91,0,0,0,165,58.06a20.81,20.81,0,0,0-2.76-10.85A18.93,18.93,0,0,0,154.46,40a25.4,25.4,0,0,0-11.84-2.6H127.75Z" transform="translate(-49.63)"/><path class="cls-1" d="M214,86.22a31.49,31.49,0,0,1-11.68-2.12A27.89,27.89,0,0,1,193,78.16a27.45,27.45,0,0,1-6.14-8.93,27.9,27.9,0,0,1-2.2-11.17,27.94,27.94,0,0,1,2.2-11.17A27.55,27.55,0,0,1,193,38,28.07,28.07,0,0,1,202.32,32a33.49,33.49,0,0,1,23.37,0,27.55,27.55,0,0,1,9.28,5.9,26.78,26.78,0,0,1,6.09,9,28.58,28.58,0,0,1,2.17,11.21,28.46,28.46,0,0,1-2.17,11.25A26.86,26.86,0,0,1,235,78.24a27.7,27.7,0,0,1-9.28,5.9A31.82,31.82,0,0,1,214,86.22Zm0-7a22.38,22.38,0,0,0,8.46-1.57,20.07,20.07,0,0,0,6.76-4.44,20.79,20.79,0,0,0,4.49-6.73,21.71,21.71,0,0,0,1.61-8.42,20.95,20.95,0,0,0-6.1-15.1,19.76,19.76,0,0,0-6.76-4.49,23.77,23.77,0,0,0-17,0A20.25,20.25,0,0,0,198.7,43a20.89,20.89,0,0,0-4.52,6.72,21.25,21.25,0,0,0-1.61,8.38,21.52,21.52,0,0,0,1.61,8.42,20.35,20.35,0,0,0,11.33,11.17A22.52,22.52,0,0,0,214,79.22Z" transform="translate(-49.63)"/><path class="cls-1" d="M259.59,85.6V30.53h21.48a30.23,30.23,0,0,1,12.35,2.28,17.51,17.51,0,0,1,7.86,6.61A18.74,18.74,0,0,1,304,49.72,18.56,18.56,0,0,1,301.28,60a17.56,17.56,0,0,1-7.86,6.57,30.23,30.23,0,0,1-12.35,2.28H263.92l3.54-3.62V85.6ZM267.46,66l-3.54-3.86h16.91q7.55,0,11.45-3.26t3.89-9.17q0-5.89-3.89-9.12t-11.45-3.23H263.92l3.54-3.93Zm29,19.59-14-20h8.42L305,85.6Z" transform="translate(-49.63)"/><path class="cls-1" d="M312.77,85.6,337.7,30.53h7.79l25,55.07h-8.26L340,34.94h3.15L320.87,85.6Zm10.62-13.77,2.12-6.29h31l2.29,6.29Z" transform="translate(-49.63)"/><path class="cls-1" d="M383,85.6V30.53h6.45l24.71,41.61H410.7l24.39-41.61h6.45l.08,55.07h-7.55L434,42.41h1.81l-21.71,36.5h-3.62L388.6,42.41h2V85.6Z" transform="translate(-49.63)"/><path class="cls-1" d="M487.32,86.22a31.49,31.49,0,0,1-11.68-2.12,27.89,27.89,0,0,1-9.32-5.94,27.45,27.45,0,0,1-6.14-8.93,29.46,29.46,0,0,1,0-22.34A27.55,27.55,0,0,1,466.32,38,28.17,28.17,0,0,1,475.6,32,33.49,33.49,0,0,1,499,32a27.45,27.45,0,0,1,9.28,5.9,26.78,26.78,0,0,1,6.09,9,28.58,28.58,0,0,1,2.17,11.21,28.46,28.46,0,0,1-2.17,11.25,26.86,26.86,0,0,1-6.09,8.93,27.6,27.6,0,0,1-9.28,5.9A31.82,31.82,0,0,1,487.32,86.22Zm0-7a22.38,22.38,0,0,0,8.46-1.57,20.21,20.21,0,0,0,6.77-4.44A20.92,20.92,0,0,0,507,66.48a21.71,21.71,0,0,0,1.61-8.42A21,21,0,0,0,502.55,43a19.89,19.89,0,0,0-6.77-4.49,23.77,23.77,0,0,0-17,0A20.25,20.25,0,0,0,472,43a20.89,20.89,0,0,0-4.52,6.72,21.25,21.25,0,0,0-1.61,8.38,21.52,21.52,0,0,0,1.61,8.42,20.35,20.35,0,0,0,11.33,11.17A22.52,22.52,0,0,0,487.32,79.22Z" transform="translate(-49.63)"/><path class="cls-1" d="M548.92,86.22a37.72,37.72,0,0,1-12-1.92,24.6,24.6,0,0,1-9-5l2.91-6.13a25.63,25.63,0,0,0,8,4.56,28.84,28.84,0,0,0,10.15,1.81,23.09,23.09,0,0,0,7.79-1.1,9.29,9.29,0,0,0,4.4-3A7.23,7.23,0,0,0,562.53,71a6,6,0,0,0-1.85-4.56,13.76,13.76,0,0,0-4.8-2.79,52.4,52.4,0,0,0-6.49-1.85q-3.54-.78-7.12-1.85a32,32,0,0,1-6.53-2.71A13.47,13.47,0,0,1,531,52.83a13.07,13.07,0,0,1-1.81-7.2,14.46,14.46,0,0,1,2.24-7.82,15.66,15.66,0,0,1,6.93-5.75,28.52,28.52,0,0,1,11.92-2.16,36.71,36.71,0,0,1,9.51,1.26A26.28,26.28,0,0,1,568,34.78l-2.59,6.29a25.44,25.44,0,0,0-7.47-3.42,29.2,29.2,0,0,0-7.63-1.06,21,21,0,0,0-7.64,1.18,9.26,9.26,0,0,0-4.36,3.14,7.52,7.52,0,0,0-1.38,4.41A6.06,6.06,0,0,0,538.73,50a13.26,13.26,0,0,0,4.8,2.75A62.81,62.81,0,0,0,550,54.56q3.54.82,7.12,1.85a30.09,30.09,0,0,1,6.53,2.68,13.6,13.6,0,0,1,4.76,4.4,12.74,12.74,0,0,1,1.81,7.08A14.09,14.09,0,0,1,568,78.32a15.69,15.69,0,0,1-7,5.74A29.06,29.06,0,0,1,548.92,86.22Z" transform="translate(-49.63)"/><path class="cls-1" d="M603.2,85.6l24.93-55.07h7.79l25,55.07h-8.26L630.41,34.94h3.15L611.3,85.6Zm10.62-13.77,2.12-6.29h31l2.28,6.29Z" transform="translate(-49.63)"/><path class="cls-1" d="M698.93,85.6V30.53h6.45l24.7,41.61h-3.46L751,30.53h6.45l.08,55.07H750l-.07-43.19h1.8L730,78.91h-3.62l-21.86-36.5h2V85.6Z" transform="translate(-49.63)"/><path class="cls-1" d="M778.38,85.6V30.53h7.87V85.6Z" transform="translate(-49.63)"/><path class="cls-1" d="M823.14,86.22a37.66,37.66,0,0,1-12-1.92,24.65,24.65,0,0,1-9.05-5L805,73.17a25.75,25.75,0,0,0,8,4.56,28.88,28.88,0,0,0,10.15,1.81,23,23,0,0,0,7.79-1.1,9.29,9.29,0,0,0,4.4-3A7.17,7.17,0,0,0,836.75,71a6,6,0,0,0-1.85-4.56,13.76,13.76,0,0,0-4.8-2.79,51.91,51.91,0,0,0-6.49-1.85q-3.54-.78-7.12-1.85A32,32,0,0,1,810,57.28a13.38,13.38,0,0,1-4.76-4.45,13,13,0,0,1-1.81-7.2,14.38,14.38,0,0,1,2.24-7.82,15.58,15.58,0,0,1,6.92-5.75,28.52,28.52,0,0,1,11.92-2.16A36.78,36.78,0,0,1,834,31.16a26.49,26.49,0,0,1,8.18,3.62l-2.6,6.29a25.44,25.44,0,0,0-7.47-3.42,29.15,29.15,0,0,0-7.63-1.06,20.9,20.9,0,0,0-7.63,1.18,9.24,9.24,0,0,0-4.37,3.14,7.51,7.51,0,0,0-1.37,4.41A6,6,0,0,0,813,50a13.43,13.43,0,0,0,4.8,2.75,62.81,62.81,0,0,0,6.49,1.85c2.36.55,4.74,1.17,7.12,1.85a29.89,29.89,0,0,1,6.53,2.68,13.51,13.51,0,0,1,4.76,4.4,12.65,12.65,0,0,1,1.81,7.08,14.16,14.16,0,0,1-2.28,7.75,15.75,15.75,0,0,1-7,5.74A29.11,29.11,0,0,1,823.14,86.22Z" transform="translate(-49.63)"/><path class="cls-1" d="M870.42,85.6V37.37H851.54V30.53h45.55v6.84H878.21V85.6Z" transform="translate(-49.63)"/><path class="cls-1" d="M931.78,86.22q-10.86,0-17.07-6.21t-6.22-18.17V30.53h7.87v31q0,9.21,4,13.46t11.45,4.24q7.47,0,11.52-4.24t4-13.46v-31h7.63V61.84q0,12-6.17,18.17T931.78,86.22Z" transform="translate(-49.63)"/><path class="cls-1" d="M975.52,85.6V30.53H997a30.2,30.2,0,0,1,12.35,2.28,17.54,17.54,0,0,1,7.87,6.61,18.82,18.82,0,0,1,2.75,10.3A18.64,18.64,0,0,1,1017.21,60a17.59,17.59,0,0,1-7.87,6.57A30.2,30.2,0,0,1,997,68.84H979.84l3.54-3.62V85.6ZM983.38,66l-3.54-3.86h16.91q7.56,0,11.45-3.26t3.89-9.17q0-5.89-3.89-9.12t-11.45-3.23H979.84l3.54-3.93Zm29,19.59-14-20h8.42l14.15,20Z" transform="translate(-49.63)"/><path class="cls-1" d="M1028.69,85.6l24.94-55.07h7.79l25,55.07h-8.26l-22.26-50.66h3.15L1036.79,85.6Zm10.62-13.77,2.13-6.29h31l2.28,6.29Z" transform="translate(-49.63)"/><path class="cls-1" d="M1124.43,85.6V30.53h23.2A33.44,33.44,0,0,1,1163.17,34a25.56,25.56,0,0,1,10.46,9.68,27.38,27.38,0,0,1,3.74,14.39,27.4,27.4,0,0,1-3.74,14.4,25.54,25.54,0,0,1-10.46,9.67,33.44,33.44,0,0,1-15.54,3.47Zm7.86-6.85h14.87A25.37,25.37,0,0,0,1159,76.16a18.91,18.91,0,0,0,7.75-7.28,21,21,0,0,0,2.75-10.82,20.91,20.91,0,0,0-2.75-10.85A19,19,0,0,0,1159,40a25.38,25.38,0,0,0-11.84-2.6h-14.87Z" transform="translate(-49.63)"/><path class="cls-1" d="M1218.59,86.22a31.46,31.46,0,0,1-11.68-2.12,27.93,27.93,0,0,1-9.33-5.94,27.42,27.42,0,0,1-6.13-8.93,27.9,27.9,0,0,1-2.2-11.17,27.94,27.94,0,0,1,2.2-11.17,27.52,27.52,0,0,1,6.13-8.93,28.22,28.22,0,0,1,9.29-5.94,33.46,33.46,0,0,1,23.36,0,27.35,27.35,0,0,1,9.28,5.9,26.81,26.81,0,0,1,6.1,9,28.75,28.75,0,0,1,2.16,11.21,28.63,28.63,0,0,1-2.16,11.25,26.88,26.88,0,0,1-6.1,8.93,27.51,27.51,0,0,1-9.28,5.9A31.81,31.81,0,0,1,1218.59,86.22Zm0-7a22.29,22.29,0,0,0,8.45-1.57,20.21,20.21,0,0,0,6.77-4.44,20.76,20.76,0,0,0,4.48-6.73,21.53,21.53,0,0,0,1.62-8.42,21.06,21.06,0,0,0-6.1-15.1,19.89,19.89,0,0,0-6.77-4.49,22.49,22.49,0,0,0-8.45-1.57,22.77,22.77,0,0,0-8.54,1.57,20.31,20.31,0,0,0-6.8,4.49,20.89,20.89,0,0,0-4.52,6.72,21.26,21.26,0,0,0-1.62,8.38,21.53,21.53,0,0,0,1.62,8.42,20.4,20.4,0,0,0,4.52,6.73,20.64,20.64,0,0,0,6.8,4.44A22.57,22.57,0,0,0,1218.59,79.22Z" transform="translate(-49.63)"/><path class="cls-1" d="M1281.28,85.6l24.94-55.07H1314l25,55.07h-8.26L1308.5,34.94h3.15L1289.39,85.6Zm10.62-13.77,2.13-6.29h31l2.28,6.29Z" transform="translate(-49.63)"/><path class="cls-1" d="M1351.53,85.6V30.53H1358l36.42,45.23H1391V30.53h7.87V85.6h-6.45L1356,40.36h3.38V85.6Z" transform="translate(-49.63)"/><path class="cls-1" d="M1430.67,85.6V37.37h-18.88V30.53h45.55v6.84h-18.88V85.6Z" transform="translate(-49.63)"/><path class="cls-1" d="M1470.24,85.6V30.53h7.86V85.6Z" transform="translate(-49.63)"/><path class="cls-1" d="M1523.81,86.22a32,32,0,0,1-11.72-2.08,27.25,27.25,0,0,1-15.42-14.83,28.12,28.12,0,0,1-2.2-11.25,28.12,28.12,0,0,1,2.2-11.25,27.14,27.14,0,0,1,6.17-8.92,27.92,27.92,0,0,1,9.32-5.9A32.25,32.25,0,0,1,1524,29.9a32.66,32.66,0,0,1,12,2.12,23.66,23.66,0,0,1,9.21,6.38l-4.88,4.87a21.73,21.73,0,0,0-7.36-4.83,23.56,23.56,0,0,0-8.61-1.54,24.18,24.18,0,0,0-8.77,1.57,20.85,20.85,0,0,0-7,4.41,19.64,19.64,0,0,0-4.57,6.73,22.8,22.8,0,0,0,0,16.83,20.1,20.1,0,0,0,4.57,6.77,20.63,20.63,0,0,0,7,4.44,23.65,23.65,0,0,0,8.73,1.57,26,26,0,0,0,8.46-1.37,20.75,20.75,0,0,0,7.51-4.61l4.48,6a27.84,27.84,0,0,1-9.55,5.23A36.17,36.17,0,0,1,1523.81,86.22Zm13.29-8V57.75h7.55V79.22Z" transform="translate(-49.63)"/><path class="cls-1" d="M1588.86,86.22a31.49,31.49,0,0,1-11.68-2.12,27.89,27.89,0,0,1-9.32-5.94,27.45,27.45,0,0,1-6.14-8.93,27.9,27.9,0,0,1-2.2-11.17,27.94,27.94,0,0,1,2.2-11.17,27.55,27.55,0,0,1,6.14-8.93,28.07,28.07,0,0,1,9.28-5.94,33.46,33.46,0,0,1,23.36,0,27.49,27.49,0,0,1,9.29,5.9,26.78,26.78,0,0,1,6.09,9,28.58,28.58,0,0,1,2.17,11.21,28.46,28.46,0,0,1-2.17,11.25,26.86,26.86,0,0,1-6.09,8.93,27.65,27.65,0,0,1-9.29,5.9A31.73,31.73,0,0,1,1588.86,86.22Zm0-7a22.38,22.38,0,0,0,8.46-1.57,20.17,20.17,0,0,0,6.76-4.44,20.79,20.79,0,0,0,4.49-6.73,21.71,21.71,0,0,0,1.61-8.42,20.95,20.95,0,0,0-6.1-15.1,19.85,19.85,0,0,0-6.76-4.49,23.77,23.77,0,0,0-17,0,20.25,20.25,0,0,0-6.81,4.49,20.89,20.89,0,0,0-4.52,6.72,21.25,21.25,0,0,0-1.61,8.38,21.52,21.52,0,0,0,1.61,8.42,20.35,20.35,0,0,0,11.33,11.17A22.52,22.52,0,0,0,1588.86,79.22Z" transform="translate(-49.63)"/><path class="cls-1" d="M1684.52,86.22a31.44,31.44,0,0,1-11.6-2.08,27.3,27.3,0,0,1-9.21-5.9,27.62,27.62,0,0,1-6.09-8.93,28.12,28.12,0,0,1-2.21-11.25,28.12,28.12,0,0,1,2.21-11.25A27.39,27.39,0,0,1,1673,32a33.19,33.19,0,0,1,23.37.07,24.21,24.21,0,0,1,9.16,6.41l-5.11,5a20.59,20.59,0,0,0-7.08-4.92,22.07,22.07,0,0,0-8.42-1.61,23.36,23.36,0,0,0-8.61,1.57,20.66,20.66,0,0,0-6.89,4.41,20,20,0,0,0-4.52,6.73,23,23,0,0,0,0,16.91,19.81,19.81,0,0,0,4.52,6.72,20.66,20.66,0,0,0,6.89,4.41,23.16,23.16,0,0,0,8.61,1.57,21.88,21.88,0,0,0,8.42-1.61,20,20,0,0,0,7.08-5l5.11,4.95a24.53,24.53,0,0,1-9.16,6.45A31,31,0,0,1,1684.52,86.22Z" transform="translate(-49.63)"/><path class="cls-1" d="M1744.78,86.22a31.55,31.55,0,0,1-11.69-2.12,27.89,27.89,0,0,1-9.32-5.94,27.27,27.27,0,0,1-6.13-8.93,29.33,29.33,0,0,1,0-22.34,27.37,27.37,0,0,1,6.13-8.93,28.17,28.17,0,0,1,9.28-5.94,33.49,33.49,0,0,1,23.37,0,27.45,27.45,0,0,1,9.28,5.9,27,27,0,0,1,6.1,9A28.75,28.75,0,0,1,1774,58.06a28.63,28.63,0,0,1-2.16,11.25,27,27,0,0,1-6.1,8.93,27.6,27.6,0,0,1-9.28,5.9A31.81,31.81,0,0,1,1744.78,86.22Zm0-7a22.29,22.29,0,0,0,8.45-1.57,20.21,20.21,0,0,0,6.77-4.44,20.76,20.76,0,0,0,4.48-6.73,21.52,21.52,0,0,0,1.61-8.42A21,21,0,0,0,1760,43a19.89,19.89,0,0,0-6.77-4.49,22.49,22.49,0,0,0-8.45-1.57,22.77,22.77,0,0,0-8.54,1.57,20.21,20.21,0,0,0-6.8,4.49,21.08,21.08,0,0,0-4.53,6.72,21.43,21.43,0,0,0-1.61,8.38,21.71,21.71,0,0,0,1.61,8.42,20.43,20.43,0,0,0,11.33,11.17A22.57,22.57,0,0,0,1744.78,79.22Z" transform="translate(-49.63)"/><path class="cls-1" d="M1790.32,85.6V30.53h6.45l24.7,41.61H1818l24.39-41.61h6.45l.08,55.07h-7.55l-.08-43.19h1.81l-21.71,36.5h-3.62l-21.87-36.5h2V85.6Z" transform="translate(-49.63)"/><path class="cls-1" d="M1920.12,86.22a31.46,31.46,0,0,1-11.68-2.12,27.79,27.79,0,0,1-9.32-5.94,27.29,27.29,0,0,1-6.14-8.93,27.9,27.9,0,0,1-2.2-11.17,27.94,27.94,0,0,1,2.2-11.17,27.4,27.4,0,0,1,6.14-8.93A28.07,28.07,0,0,1,1908.4,32a33.46,33.46,0,0,1,23.36,0,27.35,27.35,0,0,1,9.28,5.9,26.66,26.66,0,0,1,6.1,9,28.75,28.75,0,0,1,2.16,11.21,28.63,28.63,0,0,1-2.16,11.25,26.74,26.74,0,0,1-6.1,8.93,27.51,27.51,0,0,1-9.28,5.9A31.81,31.81,0,0,1,1920.12,86.22Zm0-7a22.38,22.38,0,0,0,8.46-1.57,20.17,20.17,0,0,0,6.76-4.44,20.76,20.76,0,0,0,4.48-6.73,21.53,21.53,0,0,0,1.62-8.42,21.06,21.06,0,0,0-6.1-15.1,19.85,19.85,0,0,0-6.76-4.49,23.79,23.79,0,0,0-17,0,20.31,20.31,0,0,0-6.8,4.49,20.89,20.89,0,0,0-4.52,6.72,21.26,21.26,0,0,0-1.62,8.38,21.53,21.53,0,0,0,1.62,8.42,20.4,20.4,0,0,0,4.52,6.73,20.64,20.64,0,0,0,6.8,4.44A22.57,22.57,0,0,0,1920.12,79.22Z" transform="translate(-49.63)"/><path class="cls-1" d="M1991.15,85.6V30.53h6.45L2034,75.76h-3.39V30.53h7.87V85.6h-6.45l-36.42-45.24H1999V85.6Z" transform="translate(-49.63)"/><path class="cls-1" d="M2084.21,86.22a31.49,31.49,0,0,1-11.68-2.12,27.89,27.89,0,0,1-9.32-5.94,27.45,27.45,0,0,1-6.14-8.93,29.46,29.46,0,0,1,0-22.34,27.55,27.55,0,0,1,6.14-8.93,28.17,28.17,0,0,1,9.28-5.94,33.49,33.49,0,0,1,23.37,0,27.45,27.45,0,0,1,9.28,5.9,27,27,0,0,1,6.1,9,28.75,28.75,0,0,1,2.16,11.21,28.63,28.63,0,0,1-2.16,11.25,27,27,0,0,1-6.1,8.93,27.6,27.6,0,0,1-9.28,5.9A31.82,31.82,0,0,1,2084.21,86.22Zm0-7a22.38,22.38,0,0,0,8.46-1.57,20.21,20.21,0,0,0,6.77-4.44,20.92,20.92,0,0,0,4.48-6.73,21.71,21.71,0,0,0,1.61-8.42,21,21,0,0,0-6.09-15.1,19.89,19.89,0,0,0-6.77-4.49,23.77,23.77,0,0,0-17,0,20.25,20.25,0,0,0-6.81,4.49,21,21,0,0,0-4.52,6.72,21.43,21.43,0,0,0-1.61,8.38,21.71,21.71,0,0,0,1.61,8.42,20.35,20.35,0,0,0,11.33,11.17A22.52,22.52,0,0,0,2084.21,79.22Z" transform="translate(-49.63)"/><path class="cls-1" d="M2143.92,85.6l-24.23-55.07h8.5l22.26,50.82h-4.88L2168,30.53h7.87L2151.71,85.6Z" transform="translate(-49.63)"/><path class="cls-1" d="M2211.5,86.22a31.55,31.55,0,0,1-11.69-2.12,27.89,27.89,0,0,1-9.32-5.94,27.27,27.27,0,0,1-6.13-8.93,29.33,29.33,0,0,1,0-22.34,27.37,27.37,0,0,1,6.13-8.93,28.17,28.17,0,0,1,9.28-5.94,33.49,33.49,0,0,1,23.37,0,27.45,27.45,0,0,1,9.28,5.9,27,27,0,0,1,6.1,9,28.75,28.75,0,0,1,2.16,11.21,28.63,28.63,0,0,1-2.16,11.25,27,27,0,0,1-6.1,8.93,27.6,27.6,0,0,1-9.28,5.9A31.81,31.81,0,0,1,2211.5,86.22Zm0-7a22.29,22.29,0,0,0,8.45-1.57,20.21,20.21,0,0,0,6.77-4.44,20.76,20.76,0,0,0,4.48-6.73,21.52,21.52,0,0,0,1.61-8.42,21,21,0,0,0-6.09-15.1,19.89,19.89,0,0,0-6.77-4.49,22.49,22.49,0,0,0-8.45-1.57,22.77,22.77,0,0,0-8.54,1.57,20.21,20.21,0,0,0-6.8,4.49,20.92,20.92,0,0,0-4.53,6.72,21.43,21.43,0,0,0-1.61,8.38,21.71,21.71,0,0,0,1.61,8.42A20.43,20.43,0,0,0,2203,77.65,22.57,22.57,0,0,0,2211.5,79.22Z" transform="translate(-49.63)"/><path class="cls-1" d="M2256.18,86.07a5.31,5.31,0,0,1-5.35-5.43,5.06,5.06,0,0,1,1.57-3.85,5.29,5.29,0,0,1,3.78-1.5,5.08,5.08,0,0,1,3.66,1.5,5.14,5.14,0,0,1,1.53,3.85,5.28,5.28,0,0,1-1.53,3.89A5,5,0,0,1,2256.18,86.07Z" transform="translate(-49.63)"/><path class="cls-1" d="M2319.19,86.22a37.72,37.72,0,0,1-12-1.92,24.73,24.73,0,0,1-9.05-5l2.92-6.13a25.63,25.63,0,0,0,8,4.56,28.84,28.84,0,0,0,10.15,1.81,23.09,23.09,0,0,0,7.79-1.1,9.29,9.29,0,0,0,4.4-3A7.23,7.23,0,0,0,2332.8,71a6,6,0,0,0-1.85-4.56,13.85,13.85,0,0,0-4.8-2.79,52.4,52.4,0,0,0-6.49-1.85q-3.54-.78-7.12-1.85a32,32,0,0,1-6.53-2.71,13.47,13.47,0,0,1-4.76-4.45,13,13,0,0,1-1.81-7.2,14.46,14.46,0,0,1,2.24-7.82,15.66,15.66,0,0,1,6.93-5.75,28.5,28.5,0,0,1,11.91-2.16,36.72,36.72,0,0,1,9.52,1.26,26.28,26.28,0,0,1,8.18,3.62l-2.59,6.29a25.44,25.44,0,0,0-7.47-3.42,29.22,29.22,0,0,0-7.64-1.06,21,21,0,0,0-7.63,1.18,9.26,9.26,0,0,0-4.36,3.14,7.52,7.52,0,0,0-1.38,4.41A6.06,6.06,0,0,0,2309,50a13.26,13.26,0,0,0,4.8,2.75,62.81,62.81,0,0,0,6.49,1.85q3.54.82,7.12,1.85a30.09,30.09,0,0,1,6.53,2.68,13.6,13.6,0,0,1,4.76,4.4,12.74,12.74,0,0,1,1.81,7.08,14.18,14.18,0,0,1-2.29,7.75,15.69,15.69,0,0,1-7,5.74A29.06,29.06,0,0,1,2319.19,86.22Z" transform="translate(-49.63)"/><path class="cls-1" d="M2381.17,86.22a31.49,31.49,0,0,1-11.68-2.12,27.89,27.89,0,0,1-9.32-5.94,27.45,27.45,0,0,1-6.14-8.93,29.46,29.46,0,0,1,0-22.34,27.55,27.55,0,0,1,6.14-8.93,28.17,28.17,0,0,1,9.28-5.94,33.49,33.49,0,0,1,23.37,0,27.45,27.45,0,0,1,9.28,5.9,27,27,0,0,1,6.1,9,28.75,28.75,0,0,1,2.16,11.21,28.63,28.63,0,0,1-2.16,11.25,27,27,0,0,1-6.1,8.93,27.6,27.6,0,0,1-9.28,5.9A31.82,31.82,0,0,1,2381.17,86.22Zm0-7a22.34,22.34,0,0,0,8.46-1.57,20.21,20.21,0,0,0,6.77-4.44,20.92,20.92,0,0,0,4.48-6.73,21.71,21.71,0,0,0,1.61-8.42A21,21,0,0,0,2396.4,43a19.89,19.89,0,0,0-6.77-4.49,23.77,23.77,0,0,0-17,0,20.25,20.25,0,0,0-6.81,4.49,21,21,0,0,0-4.52,6.72,21.43,21.43,0,0,0-1.61,8.38,21.71,21.71,0,0,0,1.61,8.42,20.35,20.35,0,0,0,11.33,11.17A22.52,22.52,0,0,0,2381.17,79.22Z" transform="translate(-49.63)"/><path class="cls-1" d="M2426.72,85.6V30.53h6.45l24.7,41.61h-3.46l24.39-41.61h6.45l.08,55.07h-7.56l-.07-43.19h1.81l-21.72,36.5h-3.61l-21.87-36.5h2V85.6Z" transform="translate(-49.63)"/><path class="cls-1" d="M2531,86.22a31.46,31.46,0,0,1-11.68-2.12,27.89,27.89,0,0,1-9.32-5.94,27.29,27.29,0,0,1-6.14-8.93,27.9,27.9,0,0,1-2.2-11.17,27.94,27.94,0,0,1,2.2-11.17A27.4,27.4,0,0,1,2510,38a28.07,28.07,0,0,1,9.28-5.94,33.46,33.46,0,0,1,23.36,0,27.49,27.49,0,0,1,9.29,5.9,26.78,26.78,0,0,1,6.09,9,28.75,28.75,0,0,1,2.16,11.21,28.63,28.63,0,0,1-2.16,11.25,26.86,26.86,0,0,1-6.09,8.93,27.65,27.65,0,0,1-9.29,5.9A31.73,31.73,0,0,1,2531,86.22Zm0-7a22.38,22.38,0,0,0,8.46-1.57,20.17,20.17,0,0,0,6.76-4.44,20.79,20.79,0,0,0,4.49-6.73,21.71,21.71,0,0,0,1.61-8.42,20.95,20.95,0,0,0-6.1-15.1,19.85,19.85,0,0,0-6.76-4.49,23.77,23.77,0,0,0-17,0,20.25,20.25,0,0,0-6.81,4.49,20.89,20.89,0,0,0-4.52,6.72,21.26,21.26,0,0,0-1.62,8.38,21.53,21.53,0,0,0,1.62,8.42,20.35,20.35,0,0,0,11.33,11.17A22.48,22.48,0,0,0,2531,79.22Z" transform="translate(-49.63)"/><path class="cls-1" d="M2592.62,86.22a37.7,37.7,0,0,1-12-1.92,24.73,24.73,0,0,1-9.05-5l2.91-6.13a25.69,25.69,0,0,0,8,4.56,28.82,28.82,0,0,0,10.14,1.81,23,23,0,0,0,7.79-1.1,9.32,9.32,0,0,0,4.41-3,7.22,7.22,0,0,0,1.41-4.37,6,6,0,0,0-1.84-4.56,13.94,13.94,0,0,0-4.8-2.79,52.4,52.4,0,0,0-6.49-1.85c-2.36-.52-4.74-1.14-7.12-1.85a31.81,31.81,0,0,1-6.53-2.71,13.38,13.38,0,0,1-4.76-4.45,13,13,0,0,1-1.81-7.2,14.46,14.46,0,0,1,2.24-7.82,15.63,15.63,0,0,1,6.92-5.75A28.55,28.55,0,0,1,2594,29.9a36.78,36.78,0,0,1,9.52,1.26,26.39,26.39,0,0,1,8.18,3.62l-2.59,6.29a25.49,25.49,0,0,0-7.48-3.42,29.09,29.09,0,0,0-7.63-1.06,20.94,20.94,0,0,0-7.63,1.18,9.21,9.21,0,0,0-4.36,3.14,7.52,7.52,0,0,0-1.38,4.41,6.06,6.06,0,0,0,1.85,4.64,13.26,13.26,0,0,0,4.8,2.75,62.1,62.1,0,0,0,6.49,1.85q3.54.82,7.12,1.85a29.81,29.81,0,0,1,6.52,2.68,13.43,13.43,0,0,1,4.76,4.4,12.65,12.65,0,0,1,1.81,7.08,14.16,14.16,0,0,1-2.28,7.75,15.75,15.75,0,0,1-7,5.74A29.07,29.07,0,0,1,2592.62,86.22Z" transform="translate(-49.63)"/><path class="cls-1" d="M2646.9,85.6l24.94-55.07h7.79l25,55.07h-8.26l-22.26-50.66h3.15L2655,85.6Zm10.62-13.77,2.13-6.29h31l2.28,6.29Z" transform="translate(-49.63)"/><path class="cls-1" d="M2717.15,85.6V30.53h21.48A30.23,30.23,0,0,1,2751,32.81a17.51,17.51,0,0,1,7.86,6.61,18.74,18.74,0,0,1,2.76,10.3A18.56,18.56,0,0,1,2758.84,60,17.83,17.83,0,0,1,2751,66.6a29.72,29.72,0,0,1-12.35,2.32h-17.15l3.54-3.7V85.6ZM2725,66l-3.54-3.94h16.91q7.55,0,11.45-3.22t3.89-9.13q0-5.89-3.89-9.12t-11.45-3.23h-16.91l3.54-3.93Z" transform="translate(-49.63)"/><path class="cls-1" d="M2766.39,85.6l24.94-55.07h7.79l25,55.07h-8.26l-22.26-50.66h3.15L2774.5,85.6ZM2777,71.83l2.13-6.29h31l2.28,6.29Z" transform="translate(-49.63)"/><path class="cls-1" d="M2836.64,85.6V30.53h7.87V85.6Z" transform="translate(-49.63)"/><path class="cls-1" d="M2858.12,85.6,2881,54.37v6.05l-21.63-29.89h9l17.15,23.52-3.54.08L2899,30.53h8.58L2886.12,60V54.29L2909,85.6h-9l-18.25-25.1h3.46l-18,25.1Z" transform="translate(-49.63)"/><path class="cls-1" d="M2945.51,86.22a31.49,31.49,0,0,1-11.68-2.12,27.89,27.89,0,0,1-9.32-5.94,27.45,27.45,0,0,1-6.14-8.93,29.46,29.46,0,0,1,0-22.34,27.55,27.55,0,0,1,6.14-8.93,28.17,28.17,0,0,1,9.28-5.94,33.49,33.49,0,0,1,23.37,0,27.45,27.45,0,0,1,9.28,5.9,27,27,0,0,1,6.1,9,28.75,28.75,0,0,1,2.16,11.21,28.63,28.63,0,0,1-2.16,11.25,27,27,0,0,1-6.1,8.93,27.6,27.6,0,0,1-9.28,5.9A31.82,31.82,0,0,1,2945.51,86.22Zm0-7a22.38,22.38,0,0,0,8.46-1.57,20.21,20.21,0,0,0,6.77-4.44,20.92,20.92,0,0,0,4.48-6.73,21.71,21.71,0,0,0,1.61-8.42,21,21,0,0,0-6.09-15.1,19.89,19.89,0,0,0-6.77-4.49,23.77,23.77,0,0,0-17,0,20.25,20.25,0,0,0-6.81,4.49,21,21,0,0,0-4.52,6.72,21.43,21.43,0,0,0-1.61,8.38,21.71,21.71,0,0,0,1.61,8.42A20.35,20.35,0,0,0,2937,77.65,22.52,22.52,0,0,0,2945.51,79.22Z" transform="translate(-49.63)"/><path class="cls-1" d="M2991.06,85.6V30.53h6.45l36.42,45.23h-3.38V30.53h7.87V85.6H3032l-36.43-45.24h3.39V85.6Z" transform="translate(-49.63)"/><path class="cls-1" d="M3050.92,85.6l24.94-55.07h7.79l25,55.07h-8.25l-22.27-50.66h3.15L3059,85.6Zm10.62-13.77,2.13-6.29h31l2.28,6.29Z" transform="translate(-49.63)"/><path class="cls-1" d="M3121.17,85.6V30.53h23.21A33.43,33.43,0,0,1,3159.91,34a25.53,25.53,0,0,1,10.47,9.68,27.38,27.38,0,0,1,3.73,14.39,27.39,27.39,0,0,1-3.73,14.4,25.5,25.5,0,0,1-10.47,9.67,33.43,33.43,0,0,1-15.53,3.47Zm7.87-6.85h14.87a25.4,25.4,0,0,0,11.84-2.59,18.83,18.83,0,0,0,7.74-7.28,20.91,20.91,0,0,0,2.76-10.82,20.81,20.81,0,0,0-2.76-10.85,18.87,18.87,0,0,0-7.74-7.24,25.4,25.4,0,0,0-11.84-2.6H3129Z" transform="translate(-49.63)"/><path class="cls-1" d="M3181.35,85.6l24.94-55.07h7.79l25,55.07h-8.26l-22.26-50.66h3.15L3189.45,85.6ZM3192,71.83l2.12-6.29h31l2.28,6.29Z" transform="translate(-49.63)"/><path class="cls-1" d="M3267.65,86.22a37.72,37.72,0,0,1-12-1.92,24.73,24.73,0,0,1-9.05-5l2.91-6.13a25.8,25.8,0,0,0,8,4.56,28.84,28.84,0,0,0,10.15,1.81,23,23,0,0,0,7.78-1.1,9.32,9.32,0,0,0,4.41-3,7.22,7.22,0,0,0,1.41-4.37,6,6,0,0,0-1.84-4.56,13.94,13.94,0,0,0-4.8-2.79,52.4,52.4,0,0,0-6.49-1.85c-2.36-.52-4.74-1.14-7.12-1.85a32,32,0,0,1-6.53-2.71,13.47,13.47,0,0,1-4.76-4.45,13,13,0,0,1-1.81-7.2,14.46,14.46,0,0,1,2.24-7.82,15.61,15.61,0,0,1,6.93-5.75A28.47,28.47,0,0,1,3269,29.9a36.78,36.78,0,0,1,9.52,1.26,26.39,26.39,0,0,1,8.18,3.62l-2.59,6.29a25.38,25.38,0,0,0-7.48-3.42,29.09,29.09,0,0,0-7.63-1.06,21,21,0,0,0-7.63,1.18,9.21,9.21,0,0,0-4.36,3.14,7.52,7.52,0,0,0-1.38,4.41,6.06,6.06,0,0,0,1.85,4.64,13.26,13.26,0,0,0,4.8,2.75,62.1,62.1,0,0,0,6.49,1.85q3.54.82,7.12,1.85a30.09,30.09,0,0,1,6.53,2.68,13.48,13.48,0,0,1,4.75,4.4,12.65,12.65,0,0,1,1.81,7.08,14.16,14.16,0,0,1-2.28,7.75,15.75,15.75,0,0,1-7,5.74A29.06,29.06,0,0,1,3267.65,86.22Z" transform="translate(-49.63)"/><path class="cls-1" d="M3330.26,85.6V30.53h21.48a30.23,30.23,0,0,1,12.35,2.28,17.46,17.46,0,0,1,7.86,6.61,18.74,18.74,0,0,1,2.76,10.3A18.56,18.56,0,0,1,3372,60a17.78,17.78,0,0,1-7.86,6.61,29.72,29.72,0,0,1-12.35,2.32h-17.15l3.54-3.7V85.6ZM3338.13,66l-3.54-3.94h16.91q7.56,0,11.45-3.22t3.89-9.13q0-5.89-3.89-9.12t-11.45-3.23h-16.91l3.54-3.93Z" transform="translate(-49.63)"/><path class="cls-1" d="M3416.24,86.22a31.49,31.49,0,0,1-11.68-2.12,27.89,27.89,0,0,1-9.32-5.94,27.45,27.45,0,0,1-6.14-8.93,27.9,27.9,0,0,1-2.2-11.17,27.94,27.94,0,0,1,2.2-11.17,27.55,27.55,0,0,1,6.14-8.93,28.07,28.07,0,0,1,9.28-5.94,33.46,33.46,0,0,1,23.36,0,27.49,27.49,0,0,1,9.29,5.9,26.78,26.78,0,0,1,6.09,9,28.58,28.58,0,0,1,2.17,11.21,28.46,28.46,0,0,1-2.17,11.25,26.86,26.86,0,0,1-6.09,8.93,27.65,27.65,0,0,1-9.29,5.9A31.73,31.73,0,0,1,3416.24,86.22Zm0-7a22.38,22.38,0,0,0,8.46-1.57,20.17,20.17,0,0,0,6.76-4.44,20.79,20.79,0,0,0,4.49-6.73,21.71,21.71,0,0,0,1.61-8.42,20.95,20.95,0,0,0-6.1-15.1,19.85,19.85,0,0,0-6.76-4.49,23.77,23.77,0,0,0-17,0A20.25,20.25,0,0,0,3400.9,43a20.89,20.89,0,0,0-4.52,6.72,21.25,21.25,0,0,0-1.61,8.38,21.52,21.52,0,0,0,1.61,8.42,20.35,20.35,0,0,0,11.33,11.17A22.52,22.52,0,0,0,3416.24,79.22Z" transform="translate(-49.63)"/><path class="cls-1" d="M3461.79,85.6V30.53h21.47a30.16,30.16,0,0,1,12.35,2.28,17.54,17.54,0,0,1,7.87,6.61,18.73,18.73,0,0,1,2.75,10.3A18.56,18.56,0,0,1,3503.48,60a17.59,17.59,0,0,1-7.87,6.57,30.16,30.16,0,0,1-12.35,2.28h-17.14l3.54-3.62V85.6ZM3469.66,66l-3.54-3.86H3483q7.54,0,11.44-3.26t3.9-9.17q0-5.89-3.9-9.12T3483,37.37h-16.91l3.54-3.93ZM3498.6,85.6l-14-20H3493l14.16,20Z" transform="translate(-49.63)"/><path class="cls-1" d="M98.68,173.1,74.45,118H83l22.26,50.82h-4.88L122.75,118h7.87L106.47,173.1Z" transform="translate(-49.63)"/><path class="cls-1" d="M142,173.1V118h7.86V173.1Z" transform="translate(-49.63)"/><path class="cls-1" d="M162.32,173.1,187.26,118H195l25,55.07H211.8l-22.26-50.66h3.14L170.42,173.1Zm10.62-13.77,2.12-6.29h31l2.28,6.29Z" transform="translate(-49.63)"/><path class="cls-1" d="M256.64,173.73a32,32,0,0,1-11.72-2.09,27.36,27.36,0,0,1-15.42-14.82,29.86,29.86,0,0,1,0-22.5,27.1,27.1,0,0,1,6.18-8.93,27.88,27.88,0,0,1,9.32-5.9,34.47,34.47,0,0,1,23.75,0A23.64,23.64,0,0,1,278,125.9l-4.88,4.88a21.72,21.72,0,0,0-7.35-4.84,25.16,25.16,0,0,0-17.39,0,21.08,21.08,0,0,0-7,4.4,19.48,19.48,0,0,0-4.56,6.73,21.83,21.83,0,0,0-1.62,8.46,21.53,21.53,0,0,0,1.62,8.37,19.83,19.83,0,0,0,4.56,6.77,20.67,20.67,0,0,0,7,4.44,23.72,23.72,0,0,0,8.73,1.58,26,26,0,0,0,8.46-1.38,20.86,20.86,0,0,0,7.51-4.6l4.49,6a28,28,0,0,1-9.56,5.23A36.46,36.46,0,0,1,256.64,173.73Zm13.29-8V145.25h7.56v21.48Z" transform="translate(-49.63)"/><path class="cls-1" d="M304.7,166.26h32.1v6.84h-40V118H335.7v6.85h-31Zm-.7-24.47h28.31v6.69H304Z" transform="translate(-49.63)"/><path class="cls-1" d="M353.87,173.1V118h6.45l36.42,45.24h-3.38V118h7.87V173.1h-6.46l-36.42-45.23h3.39V173.1Z" transform="translate(-49.63)"/><path class="cls-1" d="M438.12,173.73a37.45,37.45,0,0,1-12-1.93,24.59,24.59,0,0,1-9-5l2.91-6.14a25.25,25.25,0,0,0,8,4.56A28.84,28.84,0,0,0,438.12,167a22.84,22.84,0,0,0,7.79-1.1,9.15,9.15,0,0,0,4.4-3,7.14,7.14,0,0,0,1.42-4.36,6,6,0,0,0-1.85-4.57,13.76,13.76,0,0,0-4.8-2.79,54.2,54.2,0,0,0-6.49-1.85q-3.54-.78-7.12-1.85a31.49,31.49,0,0,1-6.53-2.71,13.43,13.43,0,0,1-4.76-4.44,13.09,13.09,0,0,1-1.81-7.2,14.45,14.45,0,0,1,2.25-7.83,15.5,15.5,0,0,1,6.92-5.74,28.51,28.51,0,0,1,11.92-2.17,37.14,37.14,0,0,1,9.51,1.26,26.68,26.68,0,0,1,8.19,3.62l-2.6,6.3a25.21,25.21,0,0,0-7.47-3.43,29.63,29.63,0,0,0-7.63-1.06,20.9,20.9,0,0,0-7.63,1.18,9.32,9.32,0,0,0-4.37,3.15,7.48,7.48,0,0,0-1.38,4.4,6.06,6.06,0,0,0,1.85,4.64,13.13,13.13,0,0,0,4.8,2.76,65.4,65.4,0,0,0,6.49,1.85q3.54.83,7.12,1.84a30.91,30.91,0,0,1,6.53,2.68,13.51,13.51,0,0,1,4.76,4.4,12.74,12.74,0,0,1,1.81,7.08,14.14,14.14,0,0,1-2.28,7.75,15.88,15.88,0,0,1-7,5.75A29.14,29.14,0,0,1,438.12,173.73Z" transform="translate(-49.63)"/><path class="cls-1" d="M472.73,184.74l3.93-15.89,1,4.56a5.42,5.42,0,0,1-3.82-1.41,5,5,0,0,1-1.53-3.86,5.18,5.18,0,0,1,5.27-5.35,4.79,4.79,0,0,1,3.69,1.54,5.37,5.37,0,0,1,1.42,3.81,9.7,9.7,0,0,1-.12,1.54,16.73,16.73,0,0,1-.39,1.73c-.19.65-.46,1.45-.83,2.4l-3.69,10.93Z" transform="translate(-49.63)"/><path class="cls-1" d="M524.49,173.1V118H546a30.06,30.06,0,0,1,12.35,2.29,17.49,17.49,0,0,1,7.86,6.6,18.77,18.77,0,0,1,2.76,10.31,18.53,18.53,0,0,1-2.76,10.26,17.77,17.77,0,0,1-7.86,6.61A29.72,29.72,0,0,1,546,156.42H528.82l3.54-3.7V173.1Zm7.87-19.59-3.54-3.93h16.91q7.54,0,11.45-3.23t3.89-9.12q0-5.91-3.89-9.13t-11.45-3.22H528.82l3.54-3.94Z" transform="translate(-49.63)"/><path class="cls-1" d="M592.69,166.26h32.1v6.84h-40V118h38.86v6.85h-31ZM592,141.79H620.3v6.69H592Z" transform="translate(-49.63)"/><path class="cls-1" d="M657.91,173.73a37.45,37.45,0,0,1-12-1.93,24.72,24.72,0,0,1-9-5l2.91-6.14a25.41,25.41,0,0,0,8,4.56A28.84,28.84,0,0,0,657.91,167a22.78,22.78,0,0,0,7.78-1.1,9.18,9.18,0,0,0,4.41-3,7.19,7.19,0,0,0,1.41-4.36,6,6,0,0,0-1.84-4.57,13.94,13.94,0,0,0-4.8-2.79,54.2,54.2,0,0,0-6.49-1.85c-2.36-.52-4.74-1.14-7.12-1.85a31.49,31.49,0,0,1-6.53-2.71,13.35,13.35,0,0,1-4.76-4.44,13,13,0,0,1-1.81-7.2,14.52,14.52,0,0,1,2.24-7.83,15.53,15.53,0,0,1,6.93-5.74,28.46,28.46,0,0,1,11.91-2.17,37.16,37.16,0,0,1,9.52,1.26,26.62,26.62,0,0,1,8.18,3.62l-2.59,6.3a25.15,25.15,0,0,0-7.48-3.43,29.51,29.51,0,0,0-7.63-1.06,21,21,0,0,0-7.63,1.18,9.29,9.29,0,0,0-4.36,3.15,7.48,7.48,0,0,0-1.38,4.4,6.06,6.06,0,0,0,1.85,4.64,13.13,13.13,0,0,0,4.8,2.76,64.64,64.64,0,0,0,6.49,1.85q3.54.83,7.12,1.84a31.13,31.13,0,0,1,6.53,2.68,13.48,13.48,0,0,1,4.75,4.4,12.65,12.65,0,0,1,1.81,7.08,14.14,14.14,0,0,1-2.28,7.75,15.83,15.83,0,0,1-7,5.75A29.06,29.06,0,0,1,657.91,173.73Z" transform="translate(-49.63)"/><path class="cls-1" d="M711.08,173.73a37.39,37.39,0,0,1-12-1.93,24.64,24.64,0,0,1-9-5l2.91-6.14a25.36,25.36,0,0,0,8,4.56A28.92,28.92,0,0,0,711.08,167a22.8,22.8,0,0,0,7.79-1.1,9.23,9.23,0,0,0,4.41-3,7.19,7.19,0,0,0,1.41-4.36,6,6,0,0,0-1.85-4.57,13.76,13.76,0,0,0-4.8-2.79,53.67,53.67,0,0,0-6.49-1.85q-3.54-.78-7.11-1.85a31.27,31.27,0,0,1-6.53-2.71,13.27,13.27,0,0,1-4.76-4.44,13,13,0,0,1-1.81-7.2,14.44,14.44,0,0,1,2.24-7.83,15.5,15.5,0,0,1,6.92-5.74,28.51,28.51,0,0,1,11.92-2.17,37.22,37.22,0,0,1,9.52,1.26,26.73,26.73,0,0,1,8.18,3.62l-2.6,6.3a25.21,25.21,0,0,0-7.47-3.43,29.57,29.57,0,0,0-7.63-1.06,20.9,20.9,0,0,0-7.63,1.18,9.38,9.38,0,0,0-4.37,3.15,7.55,7.55,0,0,0-1.37,4.4,6,6,0,0,0,1.85,4.64,13.16,13.16,0,0,0,4.79,2.76,65.4,65.4,0,0,0,6.49,1.85c2.36.55,4.74,1.16,7.12,1.84a30.69,30.69,0,0,1,6.53,2.68,13.51,13.51,0,0,1,4.76,4.4,12.65,12.65,0,0,1,1.81,7.08,14.14,14.14,0,0,1-2.28,7.75,15.83,15.83,0,0,1-7,5.75A29.07,29.07,0,0,1,711.08,173.73Z" transform="translate(-49.63)"/><path class="cls-1" d="M773.07,173.73a31.46,31.46,0,0,1-11.68-2.13,27.86,27.86,0,0,1-9.32-5.93,27.4,27.4,0,0,1-6.14-8.93,29.46,29.46,0,0,1,0-22.34,27.29,27.29,0,0,1,6.14-8.93,27.76,27.76,0,0,1,9.28-5.94,31.37,31.37,0,0,1,11.72-2.13,31.77,31.77,0,0,1,11.64,2.09,27.51,27.51,0,0,1,9.28,5.9,26.6,26.6,0,0,1,6.1,9,30.27,30.27,0,0,1,0,22.46,26.7,26.7,0,0,1-6.1,8.92,27.2,27.2,0,0,1-9.28,5.9A31.77,31.77,0,0,1,773.07,173.73Zm0-7a22.38,22.38,0,0,0,8.46-1.58,20,20,0,0,0,6.76-4.44,20.68,20.68,0,0,0,4.49-6.73,21.65,21.65,0,0,0,1.61-8.41,21,21,0,0,0-6.1-15.11,19.83,19.83,0,0,0-6.76-4.48,23.79,23.79,0,0,0-17,0,20.29,20.29,0,0,0-6.8,4.48,20.93,20.93,0,0,0-4.52,6.73,21.22,21.22,0,0,0-1.62,8.38,21.48,21.48,0,0,0,1.62,8.41,20.37,20.37,0,0,0,11.32,11.17A22.58,22.58,0,0,0,773.07,166.73Z" transform="translate(-49.63)"/><path class="cls-1" d="M809.49,173.1,834.43,118h7.79l25,55.07H859l-22.26-50.66h3.15L817.59,173.1Zm10.62-13.77,2.13-6.29h31l2.28,6.29Z" transform="translate(-49.63)"/><path class="cls-1" d="M895.79,173.73a37.45,37.45,0,0,1-12-1.93,24.72,24.72,0,0,1-9-5l2.92-6.14a25.25,25.25,0,0,0,8,4.56A28.84,28.84,0,0,0,895.79,167a22.74,22.74,0,0,0,7.78-1.1,9.13,9.13,0,0,0,4.41-3,7.2,7.2,0,0,0,1.42-4.36,6,6,0,0,0-1.85-4.57,13.85,13.85,0,0,0-4.8-2.79,54.2,54.2,0,0,0-6.49-1.85q-3.54-.78-7.12-1.85a31.49,31.49,0,0,1-6.53-2.71,13.35,13.35,0,0,1-4.76-4.44,13,13,0,0,1-1.81-7.2,14.52,14.52,0,0,1,2.24-7.83,15.58,15.58,0,0,1,6.93-5.74,28.49,28.49,0,0,1,11.91-2.17,37.16,37.16,0,0,1,9.52,1.26,26.52,26.52,0,0,1,8.18,3.62l-2.59,6.3a25.15,25.15,0,0,0-7.48-3.43,29.51,29.51,0,0,0-7.63-1.06,21,21,0,0,0-7.63,1.18,9.29,9.29,0,0,0-4.36,3.15,7.48,7.48,0,0,0-1.38,4.4,6.06,6.06,0,0,0,1.85,4.64,13.13,13.13,0,0,0,4.8,2.76,65.4,65.4,0,0,0,6.49,1.85q3.54.83,7.12,1.84a31.13,31.13,0,0,1,6.53,2.68,13.6,13.6,0,0,1,4.76,4.4,12.74,12.74,0,0,1,1.81,7.08,14.15,14.15,0,0,1-2.29,7.75,15.77,15.77,0,0,1-7,5.75A29.06,29.06,0,0,1,895.79,173.73Z" transform="translate(-49.63)"/><path class="cls-1" d="M966.27,166.26h32.09v6.84h-40V118h38.86v6.85h-31Zm-.71-24.47h28.32v6.69H965.56Z" transform="translate(-49.63)"/><path class="cls-1" d="M1065.54,173.73a31.48,31.48,0,0,1-11.6-2.09,26.86,26.86,0,0,1-9.2-5.9,27.6,27.6,0,0,1-6.1-8.92,29.86,29.86,0,0,1,0-22.5,27.29,27.29,0,0,1,6.14-8.93,27.63,27.63,0,0,1,9.24-5.9,33.09,33.09,0,0,1,23.36.08,24.06,24.06,0,0,1,9.17,6.41l-5.12,5a20.24,20.24,0,0,0-7.08-4.91,21.83,21.83,0,0,0-8.41-1.61,23.18,23.18,0,0,0-8.62,1.57,20.85,20.85,0,0,0-6.88,4.4,19.8,19.8,0,0,0-4.52,6.73,23,23,0,0,0,0,16.91,19.8,19.8,0,0,0,4.52,6.73,20.54,20.54,0,0,0,6.88,4.4,23.18,23.18,0,0,0,8.62,1.58,22,22,0,0,0,8.41-1.61,19.87,19.87,0,0,0,7.08-5l5.12,5a24.49,24.49,0,0,1-9.17,6.45A31.16,31.16,0,0,1,1065.54,173.73Z" transform="translate(-49.63)"/><path class="cls-1" d="M1124.94,173.73q-10.86,0-17.07-6.22t-6.22-18.17V118h7.87v31q0,9.19,4,13.45t11.45,4.25q7.47,0,11.52-4.25t4-13.45V118h7.63v31.31q0,12-6.17,18.17T1124.94,173.73Z" transform="translate(-49.63)"/><path class="cls-1" d="M1168.67,173.1V118h7.87v48.23h29.81v6.84Z" transform="translate(-49.63)"/><path class="cls-1" d="M1225.55,173.1V124.88h-18.88V118h45.55v6.85h-18.88V173.1Z" transform="translate(-49.63)"/><path class="cls-1" d="M1286.91,173.73q-10.86,0-17.07-6.22t-6.22-18.17V118h7.87v31q0,9.19,4,13.45t11.45,4.25q7.47,0,11.52-4.25t4-13.45V118h7.63v31.31q0,12-6.17,18.17T1286.91,173.73Z" transform="translate(-49.63)"/><path class="cls-1" d="M1330.64,173.1V118h21.48a30,30,0,0,1,12.35,2.29,17.52,17.52,0,0,1,7.87,6.6,18.85,18.85,0,0,1,2.75,10.31,18.61,18.61,0,0,1-2.75,10.26,17.59,17.59,0,0,1-7.87,6.57,30.2,30.2,0,0,1-12.35,2.28H1335l3.54-3.62V173.1Zm7.87-19.59-3.54-3.85h16.91q7.56,0,11.45-3.27t3.89-9.16q0-5.91-3.89-9.13t-11.45-3.22H1335l3.54-3.94Zm29,19.59-14-20h8.41l14.16,20Z" transform="translate(-49.63)"/><path class="cls-1" d="M1383.82,173.1,1408.76,118h7.79l25,55.07h-8.26L1411,122.44h3.15l-22.27,50.66Zm10.62-13.77,2.13-6.29h31l2.28,6.29Z" transform="translate(-49.63)"/><path class="cls-1" d="M1470.12,173.73a37.45,37.45,0,0,1-12-1.93,24.59,24.59,0,0,1-9-5l2.91-6.14a25.25,25.25,0,0,0,8,4.56,28.84,28.84,0,0,0,10.15,1.81,22.84,22.84,0,0,0,7.79-1.1,9.15,9.15,0,0,0,4.4-3,7.2,7.2,0,0,0,1.42-4.36,6,6,0,0,0-1.85-4.57,13.85,13.85,0,0,0-4.8-2.79,54.2,54.2,0,0,0-6.49-1.85q-3.54-.78-7.12-1.85a31.49,31.49,0,0,1-6.53-2.71,13.35,13.35,0,0,1-4.76-4.44,13.09,13.09,0,0,1-1.81-7.2,14.52,14.52,0,0,1,2.24-7.83,15.58,15.58,0,0,1,6.93-5.74,28.51,28.51,0,0,1,11.92-2.17,37.14,37.14,0,0,1,9.51,1.26,26.52,26.52,0,0,1,8.18,3.62l-2.59,6.3a25.21,25.21,0,0,0-7.47-3.43,29.63,29.63,0,0,0-7.63-1.06,21,21,0,0,0-7.64,1.18,9.34,9.34,0,0,0-4.36,3.15,7.48,7.48,0,0,0-1.38,4.4,6.06,6.06,0,0,0,1.85,4.64,13.13,13.13,0,0,0,4.8,2.76,65.4,65.4,0,0,0,6.49,1.85q3.54.83,7.12,1.84a31.13,31.13,0,0,1,6.53,2.68,13.6,13.6,0,0,1,4.76,4.4,12.74,12.74,0,0,1,1.81,7.08,14.15,14.15,0,0,1-2.29,7.75,15.77,15.77,0,0,1-7,5.75A29.06,29.06,0,0,1,1470.12,173.73Z" transform="translate(-49.63)"/><path class="cls-1" d="M1532.73,173.1V118h23.21a33.62,33.62,0,0,1,15.54,3.46,25.63,25.63,0,0,1,10.46,9.68,29.57,29.57,0,0,1,0,28.79,25.56,25.56,0,0,1-10.46,9.68,33.5,33.5,0,0,1-15.54,3.46Zm7.87-6.84h14.87a25.38,25.38,0,0,0,11.84-2.6,18.91,18.91,0,0,0,7.75-7.28,22.72,22.72,0,0,0,0-21.67,19,19,0,0,0-7.75-7.24,25.37,25.37,0,0,0-11.84-2.59H1540.6Z" transform="translate(-49.63)"/><path class="cls-1" d="M1602,173.1V118h7.86V173.1Z" transform="translate(-49.63)"/><path class="cls-1" d="M1638.62,173.1h-7.87V118h38.86v6.85h-31Zm-.79-29h28.4v6.77h-28.4Z" transform="translate(-49.63)"/><path class="cls-1" d="M1692.89,166.26H1725v6.84h-40V118h38.86v6.85h-31Zm-.7-24.47h28.32v6.69h-28.32Z" transform="translate(-49.63)"/><path class="cls-1" d="M1742.06,173.1V118h21.48a30.06,30.06,0,0,1,12.35,2.29,17.49,17.49,0,0,1,7.86,6.6,18.77,18.77,0,0,1,2.76,10.31,18.53,18.53,0,0,1-2.76,10.26,17.56,17.56,0,0,1-7.86,6.57,30.23,30.23,0,0,1-12.35,2.28h-17.15l3.54-3.62V173.1Zm7.87-19.59-3.54-3.85h16.91q7.54,0,11.45-3.27t3.89-9.16q0-5.91-3.89-9.13t-11.45-3.22h-16.91l3.54-3.94Zm29,19.59-14-20h8.42l14.16,20Z" transform="translate(-49.63)"/><path class="cls-1" d="M1811.44,166.26h32.1v6.84h-40V118h38.86v6.85h-31Zm-.71-24.47h28.32v6.69h-28.32Z" transform="translate(-49.63)"/><path class="cls-1" d="M1860.61,173.1V118h6.45l36.42,45.24h-3.38V118H1908V173.1h-6.45l-36.42-45.23h3.39V173.1Z" transform="translate(-49.63)"/><path class="cls-1" d="M1939.75,173.1V124.88h-18.88V118h45.54v6.85h-18.88V173.1Z" transform="translate(-49.63)"/><path class="cls-1" d="M1987.18,166.26h32.09v6.84h-40V118h38.86v6.85h-31Zm-.71-24.47h28.32v6.69h-28.32Z" transform="translate(-49.63)"/><path class="cls-1" d="M2052.39,173.73a37.39,37.39,0,0,1-12-1.93,24.64,24.64,0,0,1-9-5l2.91-6.14a25.3,25.3,0,0,0,8,4.56,28.82,28.82,0,0,0,10.14,1.81,22.8,22.8,0,0,0,7.79-1.1,9.23,9.23,0,0,0,4.41-3,7.19,7.19,0,0,0,1.41-4.36,6,6,0,0,0-1.85-4.57,13.76,13.76,0,0,0-4.8-2.79,53.15,53.15,0,0,0-6.49-1.85q-3.54-.78-7.11-1.85a31.27,31.27,0,0,1-6.53-2.71,13.27,13.27,0,0,1-4.76-4.44,13,13,0,0,1-1.81-7.2,14.52,14.52,0,0,1,2.24-7.83,15.5,15.5,0,0,1,6.92-5.74,28.51,28.51,0,0,1,11.92-2.17,37.22,37.22,0,0,1,9.52,1.26,26.62,26.62,0,0,1,8.18,3.62l-2.6,6.3a25.21,25.21,0,0,0-7.47-3.43,29.57,29.57,0,0,0-7.63-1.06,20.94,20.94,0,0,0-7.63,1.18,9.38,9.38,0,0,0-4.37,3.15,7.55,7.55,0,0,0-1.37,4.4,6,6,0,0,0,1.85,4.64,13.16,13.16,0,0,0,4.79,2.76,65.4,65.4,0,0,0,6.49,1.85c2.36.55,4.74,1.16,7.12,1.84a30.69,30.69,0,0,1,6.53,2.68,13.51,13.51,0,0,1,4.76,4.4,12.65,12.65,0,0,1,1.81,7.08,14.14,14.14,0,0,1-2.28,7.75,15.83,15.83,0,0,1-7,5.75A29.07,29.07,0,0,1,2052.39,173.73Z" transform="translate(-49.63)"/><path class="cls-1" d="M2091.8,173.57a5.31,5.31,0,0,1-5.35-5.43,5.08,5.08,0,0,1,1.58-3.85,5.25,5.25,0,0,1,3.77-1.5,5,5,0,0,1,3.66,1.5,5.15,5.15,0,0,1,1.53,3.85,5.28,5.28,0,0,1-1.53,3.9A5,5,0,0,1,2091.8,173.57Z" transform="translate(-49.63)"/><path class="cls-1" d="M2154.81,173.73a37.39,37.39,0,0,1-12-1.93,24.64,24.64,0,0,1-9.05-5l2.91-6.14a25.36,25.36,0,0,0,8,4.56,28.88,28.88,0,0,0,10.15,1.81,22.8,22.8,0,0,0,7.79-1.1,9.15,9.15,0,0,0,4.4-3,7.14,7.14,0,0,0,1.42-4.36,6,6,0,0,0-1.85-4.57,13.76,13.76,0,0,0-4.8-2.79,53.67,53.67,0,0,0-6.49-1.85q-3.54-.78-7.12-1.85a31.4,31.4,0,0,1-6.52-2.71,13.27,13.27,0,0,1-4.76-4.44,13,13,0,0,1-1.81-7.2,14.44,14.44,0,0,1,2.24-7.83,15.5,15.5,0,0,1,6.92-5.74,28.51,28.51,0,0,1,11.92-2.17,37.22,37.22,0,0,1,9.52,1.26,26.73,26.73,0,0,1,8.18,3.62l-2.6,6.3a25.21,25.21,0,0,0-7.47-3.43,29.57,29.57,0,0,0-7.63-1.06,20.9,20.9,0,0,0-7.63,1.18,9.32,9.32,0,0,0-4.37,3.15,7.48,7.48,0,0,0-1.37,4.4,6,6,0,0,0,1.84,4.64,13.3,13.3,0,0,0,4.8,2.76,65.4,65.4,0,0,0,6.49,1.85c2.36.55,4.74,1.16,7.12,1.84a30.69,30.69,0,0,1,6.53,2.68,13.51,13.51,0,0,1,4.76,4.4,12.65,12.65,0,0,1,1.81,7.08,14.14,14.14,0,0,1-2.28,7.75,15.83,15.83,0,0,1-7,5.75A29.11,29.11,0,0,1,2154.81,173.73Z" transform="translate(-49.63)"/><path class="cls-1" d="M2216.8,173.73a31.46,31.46,0,0,1-11.68-2.13,27.77,27.77,0,0,1-9.32-5.93,27.4,27.4,0,0,1-6.14-8.93,29.46,29.46,0,0,1,0-22.34,27.29,27.29,0,0,1,6.14-8.93,27.76,27.76,0,0,1,9.28-5.94,31.37,31.37,0,0,1,11.72-2.13,31.81,31.81,0,0,1,11.64,2.09,27.51,27.51,0,0,1,9.28,5.9,26.6,26.6,0,0,1,6.1,9,30.27,30.27,0,0,1,0,22.46,26.7,26.7,0,0,1-6.1,8.92,27.2,27.2,0,0,1-9.28,5.9A31.81,31.81,0,0,1,2216.8,173.73Zm0-7a22.38,22.38,0,0,0,8.46-1.58,20,20,0,0,0,6.76-4.44,20.66,20.66,0,0,0,4.48-6.73,21.48,21.48,0,0,0,1.62-8.41,21.1,21.1,0,0,0-6.1-15.11,19.83,19.83,0,0,0-6.76-4.48,23.79,23.79,0,0,0-17,0,20.29,20.29,0,0,0-6.8,4.48,20.93,20.93,0,0,0-4.52,6.73,21.22,21.22,0,0,0-1.62,8.38,21.48,21.48,0,0,0,1.62,8.41,20.37,20.37,0,0,0,11.32,11.17A22.58,22.58,0,0,0,2216.8,166.73Z" transform="translate(-49.63)"/><path class="cls-1" d="M2262.35,173.1V118h6.45l24.7,41.62H2290L2314.42,118h6.45l.08,55.07h-7.55l-.08-43.19h1.81l-21.71,36.5h-3.62l-21.87-36.5h2V173.1Z" transform="translate(-49.63)"/><path class="cls-1" d="M2366.65,173.73A31.5,31.5,0,0,1,2355,171.6a27.86,27.86,0,0,1-9.32-5.93,27.37,27.37,0,0,1-6.13-8.93,29.33,29.33,0,0,1,0-22.34,27.27,27.27,0,0,1,6.13-8.93,27.86,27.86,0,0,1,9.28-5.94,31.45,31.45,0,0,1,11.72-2.13,31.82,31.82,0,0,1,11.65,2.09,27.6,27.6,0,0,1,9.28,5.9,26.89,26.89,0,0,1,6.1,9,30.27,30.27,0,0,1,0,22.46,27,27,0,0,1-6.1,8.92,27.3,27.3,0,0,1-9.28,5.9A31.82,31.82,0,0,1,2366.65,173.73Zm0-7a22.31,22.31,0,0,0,8.46-1.58,20.06,20.06,0,0,0,6.77-4.44,20.82,20.82,0,0,0,4.48-6.73,21.65,21.65,0,0,0,1.61-8.41,21,21,0,0,0-6.09-15.11,19.87,19.87,0,0,0-6.77-4.48,22.31,22.31,0,0,0-8.46-1.57,22.56,22.56,0,0,0-8.53,1.57,20.23,20.23,0,0,0-6.81,4.48,21.09,21.09,0,0,0-4.52,6.73,21.4,21.4,0,0,0-1.61,8.38,21.65,21.65,0,0,0,1.61,8.41,20.35,20.35,0,0,0,11.33,11.17A22.56,22.56,0,0,0,2366.65,166.73Z" transform="translate(-49.63)"/><path class="cls-1" d="M2428.25,173.73a37.45,37.45,0,0,1-12-1.93,24.59,24.59,0,0,1-9-5l2.91-6.14a25.25,25.25,0,0,0,8,4.56,28.88,28.88,0,0,0,10.15,1.81,22.84,22.84,0,0,0,7.79-1.1,9.15,9.15,0,0,0,4.4-3,7.14,7.14,0,0,0,1.42-4.36A6,6,0,0,0,2440,154a13.76,13.76,0,0,0-4.8-2.79,54.2,54.2,0,0,0-6.49-1.85q-3.54-.78-7.12-1.85a31.72,31.72,0,0,1-6.53-2.71,13.43,13.43,0,0,1-4.76-4.44,13.09,13.09,0,0,1-1.81-7.2,14.45,14.45,0,0,1,2.25-7.83,15.5,15.5,0,0,1,6.92-5.74,28.51,28.51,0,0,1,11.92-2.17,37.22,37.22,0,0,1,9.52,1.26,26.73,26.73,0,0,1,8.18,3.62l-2.6,6.3a25.21,25.21,0,0,0-7.47-3.43,29.63,29.63,0,0,0-7.63-1.06,20.9,20.9,0,0,0-7.63,1.18,9.32,9.32,0,0,0-4.37,3.15,7.48,7.48,0,0,0-1.38,4.4,6.06,6.06,0,0,0,1.85,4.64,13.13,13.13,0,0,0,4.8,2.76,65.4,65.4,0,0,0,6.49,1.85q3.54.83,7.12,1.84a30.91,30.91,0,0,1,6.53,2.68,13.51,13.51,0,0,1,4.76,4.4,12.74,12.74,0,0,1,1.81,7.08,14.14,14.14,0,0,1-2.28,7.75,15.88,15.88,0,0,1-7,5.75A29.14,29.14,0,0,1,2428.25,173.73Z" transform="translate(-49.63)"/><path class="cls-1" d="M2490.87,173.1V118h7.86v48.23h29.82v6.84Z" transform="translate(-49.63)"/><path class="cls-1" d="M2565.76,173.73a31.55,31.55,0,0,1-11.69-2.13,27.86,27.86,0,0,1-9.32-5.93,27.37,27.37,0,0,1-6.13-8.93,29.33,29.33,0,0,1,0-22.34,27.27,27.27,0,0,1,6.13-8.93,27.86,27.86,0,0,1,9.28-5.94,31.46,31.46,0,0,1,11.73-2.13,31.81,31.81,0,0,1,11.64,2.09,27.6,27.6,0,0,1,9.28,5.9,26.89,26.89,0,0,1,6.1,9,30.27,30.27,0,0,1,0,22.46,27,27,0,0,1-6.1,8.92,27.3,27.3,0,0,1-9.28,5.9A31.81,31.81,0,0,1,2565.76,173.73Zm0-7a22.29,22.29,0,0,0,8.45-1.58,20.06,20.06,0,0,0,6.77-4.44,20.66,20.66,0,0,0,4.48-6.73,21.47,21.47,0,0,0,1.61-8.41,21,21,0,0,0-6.09-15.11,19.87,19.87,0,0,0-6.77-4.48,22.29,22.29,0,0,0-8.45-1.57,22.57,22.57,0,0,0-8.54,1.57,20.19,20.19,0,0,0-6.8,4.48,21.12,21.12,0,0,0-4.53,6.73,21.4,21.4,0,0,0-1.61,8.38,21.65,21.65,0,0,0,1.61,8.41,20.43,20.43,0,0,0,11.33,11.17A22.58,22.58,0,0,0,2565.76,166.73Z" transform="translate(-49.63)"/><path class="cls-1" d="M2634.12,173.73q-10.86,0-17.08-6.22t-6.21-18.17V118h7.87v31q0,9.19,4.05,13.45t11.44,4.25q7.48,0,11.53-4.25t4.05-13.45V118h7.63v31.31q0,12-6.17,18.17T2634.12,173.73Z" transform="translate(-49.63)"/><path class="cls-1" d="M2702.47,173.73a31.48,31.48,0,0,1-11.6-2.09,26.86,26.86,0,0,1-9.2-5.9,27.6,27.6,0,0,1-6.1-8.92,29.86,29.86,0,0,1,0-22.5,27.29,27.29,0,0,1,6.14-8.93,27.63,27.63,0,0,1,9.24-5.9,33.09,33.09,0,0,1,23.36.08,24.14,24.14,0,0,1,9.17,6.41l-5.12,5a20.24,20.24,0,0,0-7.08-4.91,21.83,21.83,0,0,0-8.41-1.61,23.18,23.18,0,0,0-8.62,1.57,20.75,20.75,0,0,0-6.88,4.4,19.8,19.8,0,0,0-4.52,6.73,22.87,22.87,0,0,0,0,16.91,19.8,19.8,0,0,0,4.52,6.73,20.44,20.44,0,0,0,6.88,4.4,23.18,23.18,0,0,0,8.62,1.58,22,22,0,0,0,8.41-1.61,19.87,19.87,0,0,0,7.08-5l5.12,5a24.57,24.57,0,0,1-9.17,6.45A31.16,31.16,0,0,1,2702.47,173.73Z" transform="translate(-49.63)"/><path class="cls-1" d="M2729.38,173.1,2754.31,118h7.79l25,55.07h-8.26l-22.26-50.66h3.14l-22.26,50.66ZM2740,159.33l2.12-6.29h31l2.28,6.29Z" transform="translate(-49.63)"/><path class="cls-1" d="M2815.67,173.73a37.39,37.39,0,0,1-12-1.93,24.64,24.64,0,0,1-9-5l2.91-6.14a25.36,25.36,0,0,0,8,4.56,28.92,28.92,0,0,0,10.15,1.81,22.8,22.8,0,0,0,7.79-1.1,9.23,9.23,0,0,0,4.41-3,7.19,7.19,0,0,0,1.41-4.36,6,6,0,0,0-1.85-4.57,13.76,13.76,0,0,0-4.8-2.79,53.67,53.67,0,0,0-6.49-1.85q-3.54-.78-7.11-1.85a31.27,31.27,0,0,1-6.53-2.71,13.27,13.27,0,0,1-4.76-4.44,13,13,0,0,1-1.81-7.2,14.52,14.52,0,0,1,2.24-7.83,15.5,15.5,0,0,1,6.92-5.74A28.51,28.51,0,0,1,2817,117.4a37.22,37.22,0,0,1,9.52,1.26,26.62,26.62,0,0,1,8.18,3.62l-2.6,6.3a25.21,25.21,0,0,0-7.47-3.43,29.57,29.57,0,0,0-7.63-1.06,20.9,20.9,0,0,0-7.63,1.18,9.38,9.38,0,0,0-4.37,3.15,7.55,7.55,0,0,0-1.37,4.4,6,6,0,0,0,1.85,4.64,13.16,13.16,0,0,0,4.79,2.76,65.4,65.4,0,0,0,6.49,1.85c2.36.55,4.74,1.16,7.12,1.84a30.69,30.69,0,0,1,6.53,2.68,13.51,13.51,0,0,1,4.76,4.4,12.65,12.65,0,0,1,1.81,7.08,14.14,14.14,0,0,1-2.28,7.75,15.83,15.83,0,0,1-7,5.75A29.07,29.07,0,0,1,2815.67,173.73Z" transform="translate(-49.63)"/><path class="cls-1" d="M2878.29,173.1V118h21.47a30.08,30.08,0,0,1,12.36,2.29,17.49,17.49,0,0,1,7.86,6.6,18.77,18.77,0,0,1,2.75,10.31,18.53,18.53,0,0,1-2.75,10.26,17.77,17.77,0,0,1-7.86,6.61,29.74,29.74,0,0,1-12.36,2.32h-17.14l3.54-3.7V173.1Zm7.87-19.59-3.54-3.93h16.91q7.54,0,11.44-3.23t3.9-9.12q0-5.91-3.9-9.13t-11.44-3.22h-16.91l3.54-3.94Z" transform="translate(-49.63)"/><path class="cls-1" d="M2946.49,166.26h32.1v6.84h-40V118h38.87v6.85h-31Zm-.71-24.47h28.32v6.69h-28.32Z" transform="translate(-49.63)"/><path class="cls-1" d="M2995.66,173.1V118h7.86v48.23h29.82v6.84Z" transform="translate(-49.63)"/><path class="cls-1" d="M3070.55,173.73a31.55,31.55,0,0,1-11.69-2.13,27.86,27.86,0,0,1-9.32-5.93,27.37,27.37,0,0,1-6.13-8.93,29.33,29.33,0,0,1,0-22.34,27.27,27.27,0,0,1,6.13-8.93,27.8,27.8,0,0,1,9.29-5.94,31.37,31.37,0,0,1,11.72-2.13,31.81,31.81,0,0,1,11.64,2.09,27.6,27.6,0,0,1,9.28,5.9,26.89,26.89,0,0,1,6.1,9,30.27,30.27,0,0,1,0,22.46,27,27,0,0,1-6.1,8.92,27.3,27.3,0,0,1-9.28,5.9A31.81,31.81,0,0,1,3070.55,173.73Zm0-7a22.29,22.29,0,0,0,8.45-1.58,20.06,20.06,0,0,0,6.77-4.44,20.66,20.66,0,0,0,4.48-6.73,21.47,21.47,0,0,0,1.61-8.41,21,21,0,0,0-6.09-15.11A19.87,19.87,0,0,0,3079,126a22.29,22.29,0,0,0-8.45-1.57A22.57,22.57,0,0,0,3062,126a20.19,20.19,0,0,0-6.8,4.48,21.12,21.12,0,0,0-4.53,6.73,21.4,21.4,0,0,0-1.61,8.38,21.65,21.65,0,0,0,1.61,8.41A20.43,20.43,0,0,0,3062,165.15,22.58,22.58,0,0,0,3070.55,166.73Z" transform="translate(-49.63)"/><path class="cls-1" d="M3132.14,173.73a37.34,37.34,0,0,1-12-1.93,24.64,24.64,0,0,1-9.05-5l2.91-6.14a25.36,25.36,0,0,0,8,4.56,28.88,28.88,0,0,0,10.15,1.81,22.84,22.84,0,0,0,7.79-1.1,9.15,9.15,0,0,0,4.4-3,7.14,7.14,0,0,0,1.42-4.36,6,6,0,0,0-1.85-4.57,13.76,13.76,0,0,0-4.8-2.79,53.67,53.67,0,0,0-6.49-1.85q-3.54-.78-7.12-1.85a31.72,31.72,0,0,1-6.53-2.71,13.32,13.32,0,0,1-4.75-4.44,13,13,0,0,1-1.81-7.2,14.44,14.44,0,0,1,2.24-7.83,15.5,15.5,0,0,1,6.92-5.74,28.51,28.51,0,0,1,11.92-2.17,37.22,37.22,0,0,1,9.52,1.26,26.73,26.73,0,0,1,8.18,3.62l-2.6,6.3a25.21,25.21,0,0,0-7.47-3.43,29.57,29.57,0,0,0-7.63-1.06,20.9,20.9,0,0,0-7.63,1.18,9.32,9.32,0,0,0-4.37,3.15,7.48,7.48,0,0,0-1.37,4.4,6,6,0,0,0,1.84,4.64,13.3,13.3,0,0,0,4.8,2.76,65.4,65.4,0,0,0,6.49,1.85q3.54.83,7.12,1.84a30.91,30.91,0,0,1,6.53,2.68,13.51,13.51,0,0,1,4.76,4.4,12.65,12.65,0,0,1,1.81,7.08,14.14,14.14,0,0,1-2.28,7.75,15.83,15.83,0,0,1-7,5.75A29.11,29.11,0,0,1,3132.14,173.73Z" transform="translate(-49.63)"/><path class="cls-1" d="M3194.76,173.1V118h7.86v48.23h29.82v6.84Z" transform="translate(-49.63)"/><path class="cls-1" d="M3269.65,173.73A31.46,31.46,0,0,1,3258,171.6a27.91,27.91,0,0,1-9.33-5.93,27.52,27.52,0,0,1-6.13-8.93,29.46,29.46,0,0,1,0-22.34,27.42,27.42,0,0,1,6.13-8.93,27.9,27.9,0,0,1,9.29-5.94,31.37,31.37,0,0,1,11.72-2.13,31.81,31.81,0,0,1,11.64,2.09,27.51,27.51,0,0,1,9.28,5.9,26.75,26.75,0,0,1,6.1,9,30.27,30.27,0,0,1,0,22.46,26.84,26.84,0,0,1-6.1,8.92,27.2,27.2,0,0,1-9.28,5.9A31.81,31.81,0,0,1,3269.65,173.73Zm0-7a22.29,22.29,0,0,0,8.45-1.58,20.06,20.06,0,0,0,6.77-4.44,20.66,20.66,0,0,0,4.48-6.73,21.48,21.48,0,0,0,1.62-8.41,21.1,21.1,0,0,0-6.1-15.11,19.87,19.87,0,0,0-6.77-4.48,22.29,22.29,0,0,0-8.45-1.57,22.57,22.57,0,0,0-8.54,1.57,20.29,20.29,0,0,0-6.8,4.48,21.12,21.12,0,0,0-4.53,6.73,21.4,21.4,0,0,0-1.61,8.38,21.65,21.65,0,0,0,1.61,8.41,20.43,20.43,0,0,0,11.33,11.17A22.58,22.58,0,0,0,3269.65,166.73Z" transform="translate(-49.63)"/><path class="cls-1" d="M3340.05,173.73a31.5,31.5,0,0,1-11.68-2.13,27.86,27.86,0,0,1-9.32-5.93,27.55,27.55,0,0,1-6.14-8.93,29.46,29.46,0,0,1,0-22.34,27.45,27.45,0,0,1,6.14-8.93,27.76,27.76,0,0,1,9.28-5.94,31.41,31.41,0,0,1,11.72-2.13,31.73,31.73,0,0,1,11.64,2.09,27.65,27.65,0,0,1,9.29,5.9,26.72,26.72,0,0,1,6.09,9,30.14,30.14,0,0,1,0,22.46,26.82,26.82,0,0,1-6.09,8.92,27.34,27.34,0,0,1-9.29,5.9A31.73,31.73,0,0,1,3340.05,173.73Zm0-7a22.38,22.38,0,0,0,8.46-1.58,20,20,0,0,0,6.76-4.44,20.68,20.68,0,0,0,4.49-6.73,21.65,21.65,0,0,0,1.61-8.41,21,21,0,0,0-6.1-15.11,19.83,19.83,0,0,0-6.76-4.48,23.77,23.77,0,0,0-17,0,20.23,20.23,0,0,0-6.81,4.48,20.93,20.93,0,0,0-4.52,6.73,21.22,21.22,0,0,0-1.61,8.38,21.47,21.47,0,0,0,1.61,8.41,20.35,20.35,0,0,0,11.33,11.17A22.52,22.52,0,0,0,3340.05,166.73Z" transform="translate(-49.63)"/><path class="cls-1" d="M3385.6,173.1V118h7.87V173.1Zm6.92-13.29-.39-9.6L3423.36,118h9l-24.15,25.49-4.41,4.88Zm32.1,13.29L3402,146.83l5.27-5.83,26.51,32.1Z" transform="translate(-49.63)"/><path class="cls-1" d="M3461.35,173.73a37.39,37.39,0,0,1-12-1.93,24.64,24.64,0,0,1-9.05-5l2.91-6.14a25.3,25.3,0,0,0,8,4.56,28.82,28.82,0,0,0,10.14,1.81,22.8,22.8,0,0,0,7.79-1.1,9.23,9.23,0,0,0,4.41-3,7.19,7.19,0,0,0,1.41-4.36,6,6,0,0,0-1.85-4.57,13.8,13.8,0,0,0-4.79-2.79,54.2,54.2,0,0,0-6.49-1.85c-2.36-.52-4.74-1.14-7.12-1.85a31.27,31.27,0,0,1-6.53-2.71,13.27,13.27,0,0,1-4.76-4.44,13,13,0,0,1-1.81-7.2,14.52,14.52,0,0,1,2.24-7.83,15.55,15.55,0,0,1,6.92-5.74,28.54,28.54,0,0,1,11.92-2.17,37.22,37.22,0,0,1,9.52,1.26,26.62,26.62,0,0,1,8.18,3.62l-2.6,6.3a25.21,25.21,0,0,0-7.47-3.43,29.51,29.51,0,0,0-7.63-1.06,20.94,20.94,0,0,0-7.63,1.18,9.38,9.38,0,0,0-4.37,3.15,7.55,7.55,0,0,0-1.37,4.4,6,6,0,0,0,1.85,4.64,13.16,13.16,0,0,0,4.79,2.76,65.4,65.4,0,0,0,6.49,1.85c2.36.55,4.74,1.16,7.12,1.84a30.69,30.69,0,0,1,6.53,2.68,13.43,13.43,0,0,1,4.76,4.4,12.65,12.65,0,0,1,1.81,7.08,14.14,14.14,0,0,1-2.28,7.75,15.83,15.83,0,0,1-7,5.75A29.07,29.07,0,0,1,3461.35,173.73Z" transform="translate(-49.63)"/><path class="cls-1" d="M154.18,260.6V205.54h23.21A33.43,33.43,0,0,1,192.92,209a25.57,25.57,0,0,1,10.47,9.67,29.66,29.66,0,0,1,0,28.8,25.57,25.57,0,0,1-10.47,9.67,33.43,33.43,0,0,1-15.53,3.46Zm7.87-6.84h14.87a25.4,25.4,0,0,0,11.84-2.6,18.8,18.8,0,0,0,7.74-7.27,22.67,22.67,0,0,0,0-21.68,18.91,18.91,0,0,0-7.74-7.23,25.4,25.4,0,0,0-11.84-2.6H162.05Z" transform="translate(-49.63)"/><path class="cls-1" d="M214.36,260.6l24.94-55.06h7.79l25,55.06h-8.26l-22.26-50.66h3.15L222.46,260.6ZM225,246.84l2.12-6.3h31l2.28,6.3Z" transform="translate(-49.63)"/><path class="cls-1" d="M300.66,261.23a37.72,37.72,0,0,1-12-1.92,24.73,24.73,0,0,1-9.05-5l2.91-6.14a25.62,25.62,0,0,0,8,4.57,29.07,29.07,0,0,0,10.15,1.81,22.75,22.75,0,0,0,7.78-1.11,9.24,9.24,0,0,0,4.41-3,7.22,7.22,0,0,0,1.41-4.37,6,6,0,0,0-1.84-4.56,13.63,13.63,0,0,0-4.8-2.79,52.4,52.4,0,0,0-6.49-1.85c-2.36-.53-4.74-1.14-7.12-1.85a31.51,31.51,0,0,1-6.53-2.72,13.35,13.35,0,0,1-4.76-4.44,13,13,0,0,1-1.81-7.2,14.52,14.52,0,0,1,2.24-7.83,15.59,15.59,0,0,1,6.93-5.74A28.47,28.47,0,0,1,302,204.91a36.72,36.72,0,0,1,9.52,1.26,26.39,26.39,0,0,1,8.18,3.62l-2.59,6.29a25.38,25.38,0,0,0-7.48-3.42A29.09,29.09,0,0,0,302,211.6a21.21,21.21,0,0,0-7.63,1.17,9.29,9.29,0,0,0-4.36,3.15,7.49,7.49,0,0,0-1.38,4.41,6.06,6.06,0,0,0,1.85,4.64,13.26,13.26,0,0,0,4.8,2.75,64.64,64.64,0,0,0,6.49,1.85q3.54.83,7.12,1.85a30.59,30.59,0,0,1,6.53,2.67,13.42,13.42,0,0,1,4.75,4.41,12.61,12.61,0,0,1,1.81,7.08,14.16,14.16,0,0,1-2.28,7.75,15.81,15.81,0,0,1-7,5.74A29.06,29.06,0,0,1,300.66,261.23Z" transform="translate(-49.63)"/><path class="cls-1" d="M363.27,260.6V205.54h6.45l36.42,45.23h-3.38V205.54h7.87V260.6h-6.45l-36.42-45.23h3.38V260.6Z" transform="translate(-49.63)"/><path class="cls-1" d="M456.33,261.23a31.7,31.7,0,0,1-11.68-2.12,28,28,0,0,1-9.32-5.94,27.45,27.45,0,0,1-6.14-8.93,29.46,29.46,0,0,1,0-22.34,27.55,27.55,0,0,1,6.14-8.93,28.07,28.07,0,0,1,9.28-5.94A33.56,33.56,0,0,1,468,207a27.7,27.7,0,0,1,9.28,5.9,26.92,26.92,0,0,1,6.09,9,30.14,30.14,0,0,1,0,22.46,27,27,0,0,1-6.09,8.93,27.7,27.7,0,0,1-9.28,5.9A31.82,31.82,0,0,1,456.33,261.23Zm0-7a22.38,22.38,0,0,0,8.46-1.57,20,20,0,0,0,6.76-4.45,20.64,20.64,0,0,0,4.49-6.72,21.71,21.71,0,0,0,1.61-8.42,20.95,20.95,0,0,0-6.1-15.1,19.85,19.85,0,0,0-6.76-4.49,23.77,23.77,0,0,0-17,0A20.25,20.25,0,0,0,441,218a20.89,20.89,0,0,0-4.52,6.72,21.25,21.25,0,0,0-1.61,8.38,21.52,21.52,0,0,0,1.61,8.42,20.43,20.43,0,0,0,11.33,11.17A22.52,22.52,0,0,0,456.33,254.23Z" transform="translate(-49.63)"/><path class="cls-1" d="M517.93,261.23a37.72,37.72,0,0,1-12-1.92,24.73,24.73,0,0,1-9.05-5l2.92-6.14a25.45,25.45,0,0,0,8,4.57,29.07,29.07,0,0,0,10.15,1.81,22.81,22.81,0,0,0,7.79-1.11,9.21,9.21,0,0,0,4.4-3,7.23,7.23,0,0,0,1.42-4.37,6,6,0,0,0-1.85-4.56,13.54,13.54,0,0,0-4.8-2.79,52.4,52.4,0,0,0-6.49-1.85c-2.36-.53-4.73-1.14-7.12-1.85a31.51,31.51,0,0,1-6.53-2.72,13.35,13.35,0,0,1-4.76-4.44,13,13,0,0,1-1.81-7.2,14.52,14.52,0,0,1,2.24-7.83,15.65,15.65,0,0,1,6.93-5.74,28.5,28.5,0,0,1,11.91-2.16,36.72,36.72,0,0,1,9.52,1.26,26.28,26.28,0,0,1,8.18,3.62l-2.59,6.29a25.38,25.38,0,0,0-7.48-3.42,29.09,29.09,0,0,0-7.63-1.06,21.21,21.21,0,0,0-7.63,1.17,9.29,9.29,0,0,0-4.36,3.15,7.49,7.49,0,0,0-1.38,4.41,6.06,6.06,0,0,0,1.85,4.64,13.26,13.26,0,0,0,4.8,2.75,65.4,65.4,0,0,0,6.49,1.85q3.54.83,7.12,1.85a30.59,30.59,0,0,1,6.53,2.67,13.53,13.53,0,0,1,4.76,4.41,12.69,12.69,0,0,1,1.81,7.08,14.18,14.18,0,0,1-2.29,7.75,15.76,15.76,0,0,1-7,5.74A29.06,29.06,0,0,1,517.93,261.23Z" transform="translate(-49.63)"/><path class="cls-1" d="M571.1,261.23a37.7,37.7,0,0,1-12-1.92,24.65,24.65,0,0,1-9.05-5l2.91-6.14a25.51,25.51,0,0,0,8,4.57,29.05,29.05,0,0,0,10.14,1.81,22.77,22.77,0,0,0,7.79-1.11,9.29,9.29,0,0,0,4.41-3,7.22,7.22,0,0,0,1.41-4.37,5.92,5.92,0,0,0-1.85-4.56,13.5,13.5,0,0,0-4.79-2.79,52.4,52.4,0,0,0-6.49-1.85c-2.36-.53-4.74-1.14-7.12-1.85a31.28,31.28,0,0,1-6.53-2.72,13.27,13.27,0,0,1-4.76-4.44,13,13,0,0,1-1.81-7.2,14.52,14.52,0,0,1,2.24-7.83,15.62,15.62,0,0,1,6.92-5.74,28.55,28.55,0,0,1,11.92-2.16,36.78,36.78,0,0,1,9.52,1.26,26.39,26.39,0,0,1,8.18,3.62l-2.6,6.29a25.44,25.44,0,0,0-7.47-3.42,29.09,29.09,0,0,0-7.63-1.06,21.17,21.17,0,0,0-7.63,1.17,9.38,9.38,0,0,0-4.37,3.15,7.55,7.55,0,0,0-1.37,4.41,6,6,0,0,0,1.85,4.64,13.26,13.26,0,0,0,4.8,2.75,64.64,64.64,0,0,0,6.49,1.85q3.54.83,7.11,1.85a30.17,30.17,0,0,1,6.53,2.67,13.36,13.36,0,0,1,4.76,4.41,12.61,12.61,0,0,1,1.81,7.08,14.16,14.16,0,0,1-2.28,7.75,15.81,15.81,0,0,1-7,5.74A29.07,29.07,0,0,1,571.1,261.23Z" transform="translate(-49.63)"/><path class="cls-1" d="M599.89,260.6l24.94-55.06h7.79l25,55.06h-8.26l-22.26-50.66h3.15L608,260.6Zm10.62-13.76,2.13-6.3h31l2.28,6.3Z" transform="translate(-49.63)"/><path class="cls-1" d="M686.19,261.23a37.72,37.72,0,0,1-12-1.92,24.6,24.6,0,0,1-9-5l2.91-6.14a25.45,25.45,0,0,0,8,4.57,29.11,29.11,0,0,0,10.15,1.81,22.81,22.81,0,0,0,7.79-1.11,9.21,9.21,0,0,0,4.4-3,7.17,7.17,0,0,0,1.42-4.37,6,6,0,0,0-1.85-4.56,13.46,13.46,0,0,0-4.8-2.79,52.4,52.4,0,0,0-6.49-1.85c-2.36-.53-4.73-1.14-7.12-1.85a31.74,31.74,0,0,1-6.53-2.72,13.43,13.43,0,0,1-4.76-4.44,13.07,13.07,0,0,1-1.81-7.2,14.45,14.45,0,0,1,2.25-7.83,15.56,15.56,0,0,1,6.92-5.74,28.52,28.52,0,0,1,11.92-2.16,36.78,36.78,0,0,1,9.52,1.26,26.49,26.49,0,0,1,8.18,3.62l-2.6,6.29a25.44,25.44,0,0,0-7.47-3.42,29.2,29.2,0,0,0-7.63-1.06,21.13,21.13,0,0,0-7.63,1.17,9.32,9.32,0,0,0-4.37,3.15,7.49,7.49,0,0,0-1.38,4.41A6.06,6.06,0,0,0,676,225a13.26,13.26,0,0,0,4.8,2.75,65.4,65.4,0,0,0,6.49,1.85q3.54.83,7.12,1.85a30.37,30.37,0,0,1,6.53,2.67,13.45,13.45,0,0,1,4.76,4.41,12.69,12.69,0,0,1,1.81,7.08,14.16,14.16,0,0,1-2.28,7.75,15.87,15.87,0,0,1-7,5.74A29.14,29.14,0,0,1,686.19,261.23Z" transform="translate(-49.63)"/><path class="cls-1" d="M773.43,261.23a31.49,31.49,0,0,1-11.61-2.08,27.36,27.36,0,0,1-9.2-5.9,27.91,27.91,0,0,1-6.1-8.93,29.86,29.86,0,0,1,0-22.5A27.42,27.42,0,0,1,761.9,207a33.27,33.27,0,0,1,23.37.08,24.1,24.1,0,0,1,9.16,6.41l-5.11,5a20.59,20.59,0,0,0-7.08-4.92,22.07,22.07,0,0,0-8.42-1.61,23.16,23.16,0,0,0-8.61,1.57,20.66,20.66,0,0,0-6.89,4.41,20,20,0,0,0-4.52,6.72,23,23,0,0,0,0,16.92,19.9,19.9,0,0,0,4.52,6.72,20.66,20.66,0,0,0,6.89,4.41,23.16,23.16,0,0,0,8.61,1.57,22.07,22.07,0,0,0,8.42-1.61,20,20,0,0,0,7.08-5l5.11,5a24.53,24.53,0,0,1-9.16,6.45A31,31,0,0,1,773.43,261.23Z" transform="translate(-49.63)"/><path class="cls-1" d="M817.87,253.76H850v6.84H810V205.54h38.86v6.84h-31Zm-.7-24.47h28.31V236H817.17Z" transform="translate(-49.63)"/><path class="cls-1" d="M867,260.6V205.54h7.87v48.22h29.81v6.84Z" transform="translate(-49.63)"/><path class="cls-1" d="M926,253.76h32.09v6.84h-40V205.54H957v6.84H926Zm-.71-24.47h28.32V236H925.25Z" transform="translate(-49.63)"/><path class="cls-1" d="M975.12,260.6V205.54h24.71q9.51,0,14.63,3.81a12.31,12.31,0,0,1,5.11,10.43,13.49,13.49,0,0,1-2,7.55,13.25,13.25,0,0,1-5.38,4.72,16.5,16.5,0,0,1-7.32,1.65l1.42-2.36a19.88,19.88,0,0,1,8.33,1.65,13.49,13.49,0,0,1,5.75,4.84,14,14,0,0,1,2.12,7.91,12.81,12.81,0,0,1-5.31,11q-5.31,3.9-15.77,3.89Zm7.87-6.37h18.09q6.54,0,10-2.2t3.47-6.92c0-3.2-1.16-5.54-3.47-7s-5.63-2.21-10-2.21h-18.8v-6.37h16.84c4,0,7.08-.73,9.28-2.2a8.27,8.27,0,0,0,0-13.22c-2.2-1.47-5.3-2.2-9.28-2.2H983Z" transform="translate(-49.63)"/><path class="cls-1" d="M1055.05,261.23a37.72,37.72,0,0,1-12-1.92,24.73,24.73,0,0,1-9-5l2.92-6.14a25.45,25.45,0,0,0,8,4.57,29.07,29.07,0,0,0,10.15,1.81,22.71,22.71,0,0,0,7.78-1.11,9.19,9.19,0,0,0,4.41-3,7.23,7.23,0,0,0,1.42-4.37,6,6,0,0,0-1.85-4.56,13.54,13.54,0,0,0-4.8-2.79,52.4,52.4,0,0,0-6.49-1.85c-2.36-.53-4.73-1.14-7.12-1.85a31.51,31.51,0,0,1-6.53-2.72,13.35,13.35,0,0,1-4.76-4.44,13,13,0,0,1-1.81-7.2,14.52,14.52,0,0,1,2.24-7.83,15.65,15.65,0,0,1,6.93-5.74,28.5,28.5,0,0,1,11.91-2.16,36.72,36.72,0,0,1,9.52,1.26,26.28,26.28,0,0,1,8.18,3.62l-2.59,6.29a25.44,25.44,0,0,0-7.47-3.42,29.22,29.22,0,0,0-7.64-1.06,21.21,21.21,0,0,0-7.63,1.17,9.34,9.34,0,0,0-4.36,3.15,7.49,7.49,0,0,0-1.38,4.41,6.06,6.06,0,0,0,1.85,4.64,13.26,13.26,0,0,0,4.8,2.75,65.4,65.4,0,0,0,6.49,1.85q3.54.83,7.12,1.85a30.59,30.59,0,0,1,6.53,2.67,13.53,13.53,0,0,1,4.76,4.41,12.69,12.69,0,0,1,1.81,7.08,14.18,14.18,0,0,1-2.29,7.75,15.76,15.76,0,0,1-7,5.74A29.06,29.06,0,0,1,1055.05,261.23Z" transform="translate(-49.63)"/><path class="cls-1" d="M1089.66,272.25l3.93-15.89,1,4.56a5.37,5.37,0,0,1-3.81-1.42,5,5,0,0,1-1.54-3.85,5.18,5.18,0,0,1,5.28-5.35,4.78,4.78,0,0,1,3.69,1.53,5.4,5.4,0,0,1,1.42,3.82,9.67,9.67,0,0,1-.12,1.53,16.17,16.17,0,0,1-.39,1.73c-.19.66-.46,1.46-.83,2.4l-3.7,10.94Z" transform="translate(-49.63)"/><path class="cls-1" d="M1141.42,260.6V205.54h6.45l24.7,41.61h-3.46l24.39-41.61H1200l.07,55.06h-7.55l-.08-43.18h1.81l-21.71,36.5h-3.62L1147,217.42h2V260.6Z" transform="translate(-49.63)"/><path class="cls-1" d="M1212.53,260.6l24.94-55.06h7.79l25,55.06H1262l-22.26-50.66h3.15l-22.27,50.66Zm10.62-13.76,2.12-6.3h31l2.28,6.3Z" transform="translate(-49.63)"/><path class="cls-1" d="M1298.83,261.23a37.72,37.72,0,0,1-12-1.92,24.73,24.73,0,0,1-9-5l2.91-6.14a25.62,25.62,0,0,0,8,4.57,29.07,29.07,0,0,0,10.15,1.81,22.75,22.75,0,0,0,7.78-1.11,9.19,9.19,0,0,0,4.41-3,7.22,7.22,0,0,0,1.41-4.37,6,6,0,0,0-1.84-4.56,13.63,13.63,0,0,0-4.8-2.79,52.4,52.4,0,0,0-6.49-1.85c-2.36-.53-4.74-1.14-7.12-1.85a31.51,31.51,0,0,1-6.53-2.72,13.35,13.35,0,0,1-4.76-4.44,13,13,0,0,1-1.81-7.2,14.52,14.52,0,0,1,2.24-7.83,15.59,15.59,0,0,1,6.93-5.74,28.5,28.5,0,0,1,11.91-2.16,36.72,36.72,0,0,1,9.52,1.26,26.39,26.39,0,0,1,8.18,3.62l-2.59,6.29a25.38,25.38,0,0,0-7.48-3.42,29.09,29.09,0,0,0-7.63-1.06,21.21,21.21,0,0,0-7.63,1.17,9.29,9.29,0,0,0-4.36,3.15,7.49,7.49,0,0,0-1.38,4.41,6.06,6.06,0,0,0,1.85,4.64,13.26,13.26,0,0,0,4.8,2.75,64.64,64.64,0,0,0,6.49,1.85q3.54.83,7.12,1.85a30.59,30.59,0,0,1,6.53,2.67,13.42,13.42,0,0,1,4.75,4.41,12.61,12.61,0,0,1,1.81,7.08,14.16,14.16,0,0,1-2.28,7.75,15.76,15.76,0,0,1-7,5.74A29.06,29.06,0,0,1,1298.83,261.23Z" transform="translate(-49.63)"/><path class="cls-1" d="M1377.49,261.23a37.72,37.72,0,0,1-12-1.92,24.6,24.6,0,0,1-9-5l2.91-6.14a25.45,25.45,0,0,0,8,4.57,29.11,29.11,0,0,0,10.15,1.81,22.81,22.81,0,0,0,7.79-1.11,9.21,9.21,0,0,0,4.4-3,7.17,7.17,0,0,0,1.42-4.37,6,6,0,0,0-1.85-4.56,13.46,13.46,0,0,0-4.8-2.79,52.4,52.4,0,0,0-6.49-1.85c-2.36-.53-4.73-1.14-7.12-1.85a31.74,31.74,0,0,1-6.53-2.72,13.43,13.43,0,0,1-4.76-4.44,13.07,13.07,0,0,1-1.81-7.2,14.45,14.45,0,0,1,2.25-7.83,15.56,15.56,0,0,1,6.92-5.74,28.52,28.52,0,0,1,11.92-2.16,36.78,36.78,0,0,1,9.52,1.26,26.49,26.49,0,0,1,8.18,3.62l-2.6,6.29a25.44,25.44,0,0,0-7.47-3.42,29.2,29.2,0,0,0-7.63-1.06,21.13,21.13,0,0,0-7.63,1.17,9.32,9.32,0,0,0-4.37,3.15,7.49,7.49,0,0,0-1.38,4.41,6.06,6.06,0,0,0,1.85,4.64,13.26,13.26,0,0,0,4.8,2.75,65.4,65.4,0,0,0,6.49,1.85q3.54.83,7.12,1.85a30.37,30.37,0,0,1,6.53,2.67,13.45,13.45,0,0,1,4.76,4.41,12.69,12.69,0,0,1,1.81,7.08,14.16,14.16,0,0,1-2.28,7.75,15.87,15.87,0,0,1-7,5.74A29.14,29.14,0,0,1,1377.49,261.23Z" transform="translate(-49.63)"/><path class="cls-1" d="M1406.28,260.6l24.94-55.06H1439l25,55.06h-8.26l-22.26-50.66h3.14l-22.26,50.66Zm10.62-13.76,2.12-6.3h31l2.28,6.3Z" transform="translate(-49.63)"/><path class="cls-1" d="M1476.53,260.6V205.54h24.7q9.51,0,14.63,3.81a12.31,12.31,0,0,1,5.11,10.43,13.49,13.49,0,0,1-2,7.55,13.34,13.34,0,0,1-5.39,4.72,16.47,16.47,0,0,1-7.32,1.65l1.42-2.36A19.93,19.93,0,0,1,1516,233a13.52,13.52,0,0,1,5.74,4.84,13.91,13.91,0,0,1,2.12,7.91,12.81,12.81,0,0,1-5.31,11q-5.31,3.9-15.77,3.89Zm7.86-6.37h18.1q6.52,0,10-2.2t3.46-6.92c0-3.2-1.15-5.54-3.46-7s-5.64-2.21-10-2.21h-18.8v-6.37h16.83q6,0,9.28-2.2a8.26,8.26,0,0,0,0-13.22q-3.3-2.21-9.28-2.2h-16.13Z" transform="translate(-49.63)"/><path class="cls-1" d="M1548.27,253.76h32.1v6.84h-40V205.54h38.86v6.84h-31Zm-.71-24.47h28.32V236h-28.32Z" transform="translate(-49.63)"/><path class="cls-1" d="M1597.44,260.6V205.54h6.45l24.7,41.61h-3.46l24.38-41.61H1656l.08,55.06h-7.55l-.08-43.18h1.81l-21.71,36.5h-3.62L1603,217.42h2V260.6Z" transform="translate(-49.63)"/><path class="cls-1" d="M1701.74,261.23a31.7,31.7,0,0,1-11.68-2.12,28,28,0,0,1-9.32-5.94,27.45,27.45,0,0,1-6.14-8.93,29.46,29.46,0,0,1,0-22.34,27.55,27.55,0,0,1,6.14-8.93A28.17,28.17,0,0,1,1690,207a33.56,33.56,0,0,1,23.37,0,27.6,27.6,0,0,1,9.28,5.9,27.1,27.1,0,0,1,6.1,9,30.27,30.27,0,0,1,0,22.46,27.14,27.14,0,0,1-6.1,8.93,27.6,27.6,0,0,1-9.28,5.9A31.82,31.82,0,0,1,1701.74,261.23Zm0-7a22.34,22.34,0,0,0,8.46-1.57,20.09,20.09,0,0,0,6.77-4.45,20.77,20.77,0,0,0,4.48-6.72,21.71,21.71,0,0,0,1.61-8.42A21,21,0,0,0,1717,218a19.89,19.89,0,0,0-6.77-4.49,23.77,23.77,0,0,0-17,0,20.25,20.25,0,0,0-6.81,4.49,21,21,0,0,0-4.52,6.72,21.43,21.43,0,0,0-1.61,8.38,21.71,21.71,0,0,0,1.61,8.42,20.43,20.43,0,0,0,11.33,11.17A22.56,22.56,0,0,0,1701.74,254.23Z" transform="translate(-49.63)"/><path class="cls-1" d="M1763.34,261.23a37.72,37.72,0,0,1-12-1.92,24.6,24.6,0,0,1-9-5l2.91-6.14a25.45,25.45,0,0,0,8,4.57,29.07,29.07,0,0,0,10.15,1.81,22.81,22.81,0,0,0,7.79-1.11,9.21,9.21,0,0,0,4.4-3,7.17,7.17,0,0,0,1.42-4.37,6,6,0,0,0-1.85-4.56,13.46,13.46,0,0,0-4.8-2.79,52.4,52.4,0,0,0-6.49-1.85c-2.36-.53-4.73-1.14-7.12-1.85a31.51,31.51,0,0,1-6.53-2.72,13.43,13.43,0,0,1-4.76-4.44,13.07,13.07,0,0,1-1.81-7.2,14.45,14.45,0,0,1,2.25-7.83,15.56,15.56,0,0,1,6.92-5.74,28.52,28.52,0,0,1,11.92-2.16,36.71,36.71,0,0,1,9.51,1.26,26.45,26.45,0,0,1,8.19,3.62l-2.6,6.29a25.44,25.44,0,0,0-7.47-3.42,29.2,29.2,0,0,0-7.63-1.06,21.13,21.13,0,0,0-7.63,1.17,9.32,9.32,0,0,0-4.37,3.15,7.49,7.49,0,0,0-1.38,4.41,6.06,6.06,0,0,0,1.85,4.64,13.26,13.26,0,0,0,4.8,2.75,65.4,65.4,0,0,0,6.49,1.85q3.54.83,7.12,1.85a30.37,30.37,0,0,1,6.53,2.67,13.45,13.45,0,0,1,4.76,4.41,12.69,12.69,0,0,1,1.81,7.08,14.16,14.16,0,0,1-2.28,7.75,15.87,15.87,0,0,1-7,5.74A29.14,29.14,0,0,1,1763.34,261.23Z" transform="translate(-49.63)"/><path class="cls-1" d="M1850.81,261.23a31.7,31.7,0,0,1-11.68-2.12,28,28,0,0,1-9.32-5.94,27.45,27.45,0,0,1-6.14-8.93,29.46,29.46,0,0,1,0-22.34,27.55,27.55,0,0,1,6.14-8.93,28.17,28.17,0,0,1,9.28-5.94,33.56,33.56,0,0,1,23.37,0,27.6,27.6,0,0,1,9.28,5.9,26.92,26.92,0,0,1,6.09,9,30.14,30.14,0,0,1,0,22.46,27,27,0,0,1-6.09,8.93,27.6,27.6,0,0,1-9.28,5.9A31.82,31.82,0,0,1,1850.81,261.23Zm0-7a22.38,22.38,0,0,0,8.46-1.57,19.75,19.75,0,0,0,6.77-4.49,21.18,21.18,0,0,0,6.09-15.1,21.71,21.71,0,0,0-1.61-8.42,20.77,20.77,0,0,0-4.48-6.72,20.09,20.09,0,0,0-6.77-4.45,23.77,23.77,0,0,0-17,0A20.43,20.43,0,0,0,1831,224.65a21.52,21.52,0,0,0-1.61,8.42,21.3,21.3,0,0,0,1.61,8.34,20.74,20.74,0,0,0,4.52,6.76,20.11,20.11,0,0,0,6.81,4.49A22.52,22.52,0,0,0,1850.81,254.23Zm18,17.86a20.62,20.62,0,0,1-5.27-.67,20.86,20.86,0,0,1-5-2.12,33.51,33.51,0,0,1-5.19-3.78,79.79,79.79,0,0,1-5.82-5.7l8.42-2.21a35.67,35.67,0,0,0,4.52,4.76,15.13,15.13,0,0,0,4.29,2.68,11.61,11.61,0,0,0,4.24.82,12.89,12.89,0,0,0,10-4.72l3.69,4.49A17.14,17.14,0,0,1,1868.83,272.09Z" transform="translate(-49.63)"/><path class="cls-1" d="M1919.17,261.23q-10.85,0-17.07-6.21t-6.21-18.17V205.54h7.86v31q0,9.21,4.06,13.45t11.44,4.25q7.47,0,11.53-4.25t4-13.45v-31h7.63v31.31q0,12-6.18,18.17T1919.17,261.23Z" transform="translate(-49.63)"/><path class="cls-1" d="M1970.78,253.76h32.09v6.84h-40V205.54h38.86v6.84h-31Zm-.71-24.47h28.32V236h-28.32Z" transform="translate(-49.63)"/><path class="cls-1" d="M2045.43,260.6V205.54h6.45l36.42,45.23h-3.38V205.54h7.87V260.6h-6.45l-36.43-45.23h3.39V260.6Z" transform="translate(-49.63)"/><path class="cls-1" d="M2105.29,260.6l24.94-55.06H2138l25,55.06h-8.26l-22.26-50.66h3.15L2113.4,260.6Zm10.62-13.76,2.13-6.3h31l2.28,6.3Zm23.76-46a6.84,6.84,0,0,1-3.34-.79,13.43,13.43,0,0,1-2.64-1.85,28.15,28.15,0,0,0-2.28-1.85,3.79,3.79,0,0,0-2.2-.78,3.43,3.43,0,0,0-2.8,1.3,6.17,6.17,0,0,0-1.21,3.57H2121a11.72,11.72,0,0,1,2.2-7,6.64,6.64,0,0,1,5.51-2.59,6.87,6.87,0,0,1,3.38.82,13.88,13.88,0,0,1,2.67,1.89c.79.71,1.54,1.33,2.25,1.85a3.6,3.6,0,0,0,5-.47,5.39,5.39,0,0,0,1.18-3.46h4.25a10.84,10.84,0,0,1-2.16,6.76A6.76,6.76,0,0,1,2139.67,200.82Z" transform="translate(-49.63)"/><path class="cls-1" d="M2199.61,261.23a31.7,31.7,0,0,1-11.68-2.12,28,28,0,0,1-9.32-5.94,27.45,27.45,0,0,1-6.14-8.93,29.46,29.46,0,0,1,0-22.34,27.55,27.55,0,0,1,6.14-8.93,28.17,28.17,0,0,1,9.28-5.94,33.56,33.56,0,0,1,23.37,0,27.7,27.7,0,0,1,9.28,5.9,26.92,26.92,0,0,1,6.09,9,30.14,30.14,0,0,1,0,22.46,27,27,0,0,1-6.09,8.93,27.7,27.7,0,0,1-9.28,5.9A31.82,31.82,0,0,1,2199.61,261.23Zm0-7a22.38,22.38,0,0,0,8.46-1.57,20,20,0,0,0,6.76-4.45,20.64,20.64,0,0,0,4.49-6.72,21.71,21.71,0,0,0,1.61-8.42,20.95,20.95,0,0,0-6.1-15.1,19.76,19.76,0,0,0-6.76-4.49,23.77,23.77,0,0,0-17,0,20.25,20.25,0,0,0-6.81,4.49,20.89,20.89,0,0,0-4.52,6.72,21.25,21.25,0,0,0-1.61,8.38,21.52,21.52,0,0,0,1.61,8.42,20.43,20.43,0,0,0,11.33,11.17A22.52,22.52,0,0,0,2199.61,254.23Z" transform="translate(-49.63)"/><path class="cls-1" d="M2262.31,260.6l24.94-55.06H2295l25,55.06h-8.26l-22.26-50.66h3.14l-22.26,50.66Zm10.62-13.76,2.12-6.3h31l2.28,6.3Z" transform="translate(-49.63)"/><path class="cls-1" d="M2332.56,260.6V205.54h23.2A33.44,33.44,0,0,1,2371.3,209a25.6,25.6,0,0,1,10.46,9.67,29.59,29.59,0,0,1,0,28.8,25.6,25.6,0,0,1-10.46,9.67,33.44,33.44,0,0,1-15.54,3.46Zm7.86-6.84h14.87a25.38,25.38,0,0,0,11.84-2.6,18.89,18.89,0,0,0,7.75-7.27,22.74,22.74,0,0,0,0-21.68,19,19,0,0,0-7.75-7.23,25.38,25.38,0,0,0-11.84-2.6h-14.87Z" transform="translate(-49.63)"/><path class="cls-1" d="M2401.86,260.6V205.54h7.87V260.6Z" transform="translate(-49.63)"/><path class="cls-1" d="M2422.23,260.6l24.94-55.06H2455l25,55.06h-8.26l-22.26-50.66h3.15l-22.26,50.66Zm10.62-13.76,2.13-6.3h31l2.28,6.3Z" transform="translate(-49.63)"/><path class="cls-1" d="M2492.48,260.6V205.54h6.45l36.42,45.23H2532V205.54h7.87V260.6h-6.45L2497,215.37h3.38V260.6Z" transform="translate(-49.63)"/><path class="cls-1" d="M2571.62,260.6V212.38h-18.88v-6.84h45.55v6.84h-18.88V260.6Z" transform="translate(-49.63)"/><path class="cls-1" d="M2600.1,260.6,2625,205.54h7.79l25,55.06h-8.26l-22.27-50.66h3.15L2608.2,260.6Zm10.62-13.76,2.12-6.3h31l2.28,6.3Z" transform="translate(-49.63)"/><path class="cls-1" d="M2711.72,260.6l-24.23-55.06h8.5l22.26,50.82h-4.88l22.42-50.82h7.87l-24.15,55.06Z" transform="translate(-49.63)"/><path class="cls-1" d="M2762.85,253.76H2795v6.84h-40V205.54h38.86v6.84h-31Zm-.71-24.47h28.32V236h-28.32Z" transform="translate(-49.63)"/><path class="cls-1" d="M2828.07,261.23a37.72,37.72,0,0,1-12-1.92,24.73,24.73,0,0,1-9.05-5l2.91-6.14a25.62,25.62,0,0,0,8,4.57,29.07,29.07,0,0,0,10.15,1.81,22.75,22.75,0,0,0,7.78-1.11,9.24,9.24,0,0,0,4.41-3,7.22,7.22,0,0,0,1.41-4.37,6,6,0,0,0-1.84-4.56,13.63,13.63,0,0,0-4.8-2.79,52.4,52.4,0,0,0-6.49-1.85c-2.36-.53-4.74-1.14-7.12-1.85a31.51,31.51,0,0,1-6.53-2.72,13.35,13.35,0,0,1-4.76-4.44,13,13,0,0,1-1.81-7.2,14.52,14.52,0,0,1,2.24-7.83,15.59,15.59,0,0,1,6.93-5.74,28.47,28.47,0,0,1,11.91-2.16,36.78,36.78,0,0,1,9.52,1.26,26.39,26.39,0,0,1,8.18,3.62l-2.59,6.29a25.38,25.38,0,0,0-7.48-3.42,29.09,29.09,0,0,0-7.63-1.06,21.21,21.21,0,0,0-7.63,1.17,9.29,9.29,0,0,0-4.36,3.15,7.49,7.49,0,0,0-1.38,4.41,6.06,6.06,0,0,0,1.85,4.64,13.26,13.26,0,0,0,4.8,2.75,64.64,64.64,0,0,0,6.49,1.85q3.54.83,7.12,1.85a30.59,30.59,0,0,1,6.53,2.67,13.42,13.42,0,0,1,4.75,4.41,12.61,12.61,0,0,1,1.81,7.08,14.16,14.16,0,0,1-2.28,7.75,15.81,15.81,0,0,1-7,5.74A29.06,29.06,0,0,1,2828.07,261.23Z" transform="translate(-49.63)"/><path class="cls-1" d="M2875.34,260.6V212.38h-18.88v-6.84H2902v6.84h-18.88V260.6Z" transform="translate(-49.63)"/><path class="cls-1" d="M2914.91,260.6V205.54h7.87V260.6Z" transform="translate(-49.63)"/><path class="cls-1" d="M2943.62,260.6V205.54h21.48a30.23,30.23,0,0,1,12.35,2.28,17.48,17.48,0,0,1,7.87,6.61,20.61,20.61,0,0,1,0,20.57,17.59,17.59,0,0,1-7.87,6.57,30.23,30.23,0,0,1-12.35,2.28H2948l3.54-3.62V260.6Zm7.87-19.58-3.54-3.86h16.91q7.56,0,11.45-3.26t3.89-9.17q0-5.89-3.89-9.12t-11.45-3.23H2948l3.54-3.93Zm29,19.58-14-20h8.41l14.16,20Z" transform="translate(-49.63)"/><path class="cls-1" d="M3022.29,260.6l24.94-55.06H3055l25,55.06h-8.26l-22.26-50.66h3.14l-22.26,50.66Zm10.62-13.76,2.12-6.3h31l2.28,6.3Z" transform="translate(-49.63)"/><path class="cls-1" d="M3092.54,260.6V205.54h7.86v48.22h29.82v6.84Z" transform="translate(-49.63)"/><path class="cls-1" d="M3167.43,261.23a32.06,32.06,0,0,1-11.73-2.08,27.27,27.27,0,0,1-15.41-14.83,29.74,29.74,0,0,1,0-22.5,27,27,0,0,1,6.17-8.93,28.08,28.08,0,0,1,9.32-5.9,32.25,32.25,0,0,1,11.8-2.08,32.66,32.66,0,0,1,12,2.12,23.64,23.64,0,0,1,9.2,6.37l-4.87,4.88a21.91,21.91,0,0,0-7.36-4.84,25.14,25.14,0,0,0-17.38,0,20.75,20.75,0,0,0-7,4.41,19.7,19.7,0,0,0-4.57,6.72,22,22,0,0,0-1.61,8.46,21.79,21.79,0,0,0,1.61,8.38,20.06,20.06,0,0,0,4.57,6.76,20.5,20.5,0,0,0,7,4.45,23.65,23.65,0,0,0,8.73,1.57,26.09,26.09,0,0,0,8.46-1.38,20.72,20.72,0,0,0,7.51-4.6l4.48,6a27.88,27.88,0,0,1-9.56,5.23A36.35,36.35,0,0,1,3167.43,261.23Zm13.29-8V232.76h7.55v21.47Z" transform="translate(-49.63)"/><path class="cls-1" d="M3232.48,261.23a31.66,31.66,0,0,1-11.68-2.12,28,28,0,0,1-9.32-5.94,27.29,27.29,0,0,1-6.14-8.93,29.46,29.46,0,0,1,0-22.34,27.4,27.4,0,0,1,6.14-8.93,28.07,28.07,0,0,1,9.28-5.94,33.53,33.53,0,0,1,23.36,0,27.65,27.65,0,0,1,9.29,5.9,26.92,26.92,0,0,1,6.09,9,30.14,30.14,0,0,1,0,22.46,27,27,0,0,1-6.09,8.93,27.65,27.65,0,0,1-9.29,5.9A31.73,31.73,0,0,1,3232.48,261.23Zm0-7a22.38,22.38,0,0,0,8.46-1.57,20,20,0,0,0,6.76-4.45,20.64,20.64,0,0,0,4.49-6.72,21.71,21.71,0,0,0,1.61-8.42,20.95,20.95,0,0,0-6.1-15.1,19.85,19.85,0,0,0-6.76-4.49,23.77,23.77,0,0,0-17,0,20.25,20.25,0,0,0-6.81,4.49,20.89,20.89,0,0,0-4.52,6.72,21.25,21.25,0,0,0-1.61,8.38,21.52,21.52,0,0,0,1.61,8.42A20.43,20.43,0,0,0,3224,252.66,22.52,22.52,0,0,0,3232.48,254.23Z" transform="translate(-49.63)"/><path class="cls-1" d="M3319.56,261.23a37.66,37.66,0,0,1-12-1.92,24.65,24.65,0,0,1-9.05-5l2.91-6.14a25.56,25.56,0,0,0,8,4.57,29.15,29.15,0,0,0,10.15,1.81,22.77,22.77,0,0,0,7.79-1.11,9.29,9.29,0,0,0,4.41-3,7.22,7.22,0,0,0,1.41-4.37,5.92,5.92,0,0,0-1.85-4.56,13.46,13.46,0,0,0-4.8-2.79,51.91,51.91,0,0,0-6.49-1.85c-2.36-.53-4.73-1.14-7.11-1.85a31.28,31.28,0,0,1-6.53-2.72,13.27,13.27,0,0,1-4.76-4.44,13,13,0,0,1-1.81-7.2,14.52,14.52,0,0,1,2.24-7.83,15.56,15.56,0,0,1,6.92-5.74,28.52,28.52,0,0,1,11.92-2.16,36.78,36.78,0,0,1,9.52,1.26,26.39,26.39,0,0,1,8.18,3.62l-2.6,6.29a25.44,25.44,0,0,0-7.47-3.42,29.15,29.15,0,0,0-7.63-1.06,21.17,21.17,0,0,0-7.63,1.17,9.38,9.38,0,0,0-4.37,3.15,7.55,7.55,0,0,0-1.37,4.41,6,6,0,0,0,1.85,4.64,13.29,13.29,0,0,0,4.79,2.75,65.4,65.4,0,0,0,6.49,1.85c2.36.55,4.74,1.17,7.12,1.85a30.17,30.17,0,0,1,6.53,2.67,13.45,13.45,0,0,1,4.76,4.41,12.61,12.61,0,0,1,1.81,7.08,14.16,14.16,0,0,1-2.28,7.75,15.81,15.81,0,0,1-7,5.74A29.07,29.07,0,0,1,3319.56,261.23Z" transform="translate(-49.63)"/><path class="cls-1" d="M3381.55,261.23a31.66,31.66,0,0,1-11.68-2.12,28,28,0,0,1-9.32-5.94,27.29,27.29,0,0,1-6.14-8.93,29.46,29.46,0,0,1,0-22.34,27.4,27.4,0,0,1,6.14-8.93,28.07,28.07,0,0,1,9.28-5.94,33.53,33.53,0,0,1,23.36,0,27.65,27.65,0,0,1,9.29,5.9,26.92,26.92,0,0,1,6.09,9,30.27,30.27,0,0,1,0,22.46,27,27,0,0,1-6.09,8.93,27.65,27.65,0,0,1-9.29,5.9A31.73,31.73,0,0,1,3381.55,261.23Zm0-7a22.38,22.38,0,0,0,8.46-1.57,20,20,0,0,0,6.76-4.45,20.64,20.64,0,0,0,4.49-6.72,21.71,21.71,0,0,0,1.61-8.42,20.95,20.95,0,0,0-6.1-15.1,19.85,19.85,0,0,0-6.76-4.49,23.77,23.77,0,0,0-17,0,20.25,20.25,0,0,0-6.81,4.49,20.89,20.89,0,0,0-4.52,6.72,21.26,21.26,0,0,0-1.62,8.38,21.53,21.53,0,0,0,1.62,8.42A20.43,20.43,0,0,0,3373,252.66,22.52,22.52,0,0,0,3381.55,254.23Zm-5.9-53.18,10.7-10.22h9.6l-13.22,10.22Z" transform="translate(-49.63)"/><path class="cls-1" d="M1002.62,348.11V293h21.47a30.2,30.2,0,0,1,12.35,2.28,17.54,17.54,0,0,1,7.87,6.61,18.85,18.85,0,0,1,2.75,10.31,18.63,18.63,0,0,1-2.75,10.26,17.86,17.86,0,0,1-7.87,6.61,29.69,29.69,0,0,1-12.35,2.32h-17.15l3.54-3.7v20.38Zm7.86-19.59-3.54-3.93h16.92q7.55,0,11.44-3.23t3.9-9.12q0-5.91-3.9-9.13t-11.44-3.22h-16.92l3.54-3.94Z" transform="translate(-49.63)"/><path class="cls-1" d="M1088.6,348.74a31.55,31.55,0,0,1-11.69-2.13,27.83,27.83,0,0,1-9.32-5.94,27.42,27.42,0,0,1-6.13-8.93,29.33,29.33,0,0,1,0-22.34,27.48,27.48,0,0,1,6.13-8.92,27.9,27.9,0,0,1,9.29-5.94,31.37,31.37,0,0,1,11.72-2.13,31.81,31.81,0,0,1,11.64,2.09,27.35,27.35,0,0,1,9.28,5.9,26.81,26.81,0,0,1,6.1,9,30.27,30.27,0,0,1,0,22.46,26.88,26.88,0,0,1-6.1,8.93,27.35,27.35,0,0,1-9.28,5.9A31.81,31.81,0,0,1,1088.6,348.74Zm0-7a22.29,22.29,0,0,0,8.45-1.58,20.21,20.21,0,0,0,6.77-4.44,20.76,20.76,0,0,0,4.48-6.73,21.49,21.49,0,0,0,1.62-8.42,21.1,21.1,0,0,0-6.1-15.1,19.87,19.87,0,0,0-6.77-4.48,22.29,22.29,0,0,0-8.45-1.58,22.58,22.58,0,0,0-8.54,1.58,20.29,20.29,0,0,0-6.8,4.48,21,21,0,0,0-4.53,6.73,21.35,21.35,0,0,0-1.61,8.37,21.67,21.67,0,0,0,1.61,8.42,20.43,20.43,0,0,0,11.33,11.17A22.58,22.58,0,0,0,1088.6,341.74Z" transform="translate(-49.63)"/><path class="cls-1" d="M1134.14,348.11V293h21.48a30.23,30.23,0,0,1,12.35,2.28,17.54,17.54,0,0,1,7.87,6.61,18.85,18.85,0,0,1,2.75,10.31,18.63,18.63,0,0,1-2.75,10.26,17.59,17.59,0,0,1-7.87,6.57,30.23,30.23,0,0,1-12.35,2.28h-17.15l3.54-3.62v20.38Zm7.87-19.59-3.54-3.86h16.91q7.56,0,11.45-3.26t3.89-9.16q0-5.91-3.89-9.13t-11.45-3.22h-16.91L1142,296Zm29,19.59-14-20h8.41l14.16,20Z" transform="translate(-49.63)"/><path class="cls-1" d="M1220.52,348.74a31.46,31.46,0,0,1-11.68-2.13,27.78,27.78,0,0,1-9.33-5.94,27.42,27.42,0,0,1-6.13-8.93,29.46,29.46,0,0,1,0-22.34,27.48,27.48,0,0,1,6.13-8.92,27.9,27.9,0,0,1,9.29-5.94,31.37,31.37,0,0,1,11.72-2.13,31.81,31.81,0,0,1,11.64,2.09,27.35,27.35,0,0,1,9.28,5.9,26.81,26.81,0,0,1,6.1,9,30.27,30.27,0,0,1,0,22.46,26.88,26.88,0,0,1-6.1,8.93,27.35,27.35,0,0,1-9.28,5.9A31.81,31.81,0,0,1,1220.52,348.74Zm0-7a22.29,22.29,0,0,0,8.45-1.58,19.87,19.87,0,0,0,6.77-4.48,21.29,21.29,0,0,0,6.1-15.11,21.48,21.48,0,0,0-1.62-8.41,20.76,20.76,0,0,0-4.48-6.73A20.21,20.21,0,0,0,1229,301a22.29,22.29,0,0,0-8.45-1.58A22.58,22.58,0,0,0,1212,301a20.43,20.43,0,0,0-11.33,11.17,22.59,22.59,0,0,0,0,16.75,21,21,0,0,0,4.53,6.77,20.29,20.29,0,0,0,6.8,4.48A22.58,22.58,0,0,0,1220.52,341.74Zm18,17.85a19.83,19.83,0,0,1-10.3-2.79A33.51,33.51,0,0,1,1223,353a74.06,74.06,0,0,1-5.83-5.7l8.42-2.2a36.94,36.94,0,0,0,4.52,4.76,15.36,15.36,0,0,0,4.29,2.67,11.68,11.68,0,0,0,4.25.83,12.91,12.91,0,0,0,10-4.72l3.7,4.48A17.16,17.16,0,0,1,1238.53,359.59Z" transform="translate(-49.63)"/><path class="cls-1" d="M1288.88,348.74q-10.86,0-17.07-6.22t-6.22-18.17V293h7.87v31q0,9.19,4,13.45t11.45,4.25q7.47,0,11.52-4.25t4-13.45V293h7.63v31.31q0,12-6.17,18.17T1288.88,348.74Z" transform="translate(-49.63)"/><path class="cls-1" d="M1340.48,341.26h32.1v6.85h-40V293h38.87v6.85h-31Zm-.71-24.46h28.32v6.69h-28.32Z" transform="translate(-49.63)"/><path class="cls-1" d="M1412.3,314.28l-.47-21.24h6.61l-.55,21.24Zm14.24,0-.47-21.24h6.61l-.55,21.24Z" transform="translate(-49.63)"/><path class="cls-1" d="M1438.5,348.11,1463.43,293h7.79l25,55.07H1488l-22.26-50.66h3.14l-22.26,50.66Zm10.62-13.77,2.12-6.29h31l2.29,6.29Z" transform="translate(-49.63)"/><path class="cls-1" d="M1508.74,348.11V293h7.87v48.22h29.82v6.85Z" transform="translate(-49.63)"/><path class="cls-1" d="M1583.63,348.74a32,32,0,0,1-11.72-2.09,27.33,27.33,0,0,1-15.42-14.83,29.84,29.84,0,0,1,0-22.49,27.1,27.1,0,0,1,6.18-8.93,27.82,27.82,0,0,1,9.32-5.9,34.5,34.5,0,0,1,23.76,0,23.61,23.61,0,0,1,9.2,6.37l-4.87,4.88a21.61,21.61,0,0,0-7.36-4.84,23.56,23.56,0,0,0-8.61-1.54,24.07,24.07,0,0,0-8.78,1.58,20.92,20.92,0,0,0-7,4.4,19.76,19.76,0,0,0-4.56,6.73,22.8,22.8,0,0,0,0,16.83,20.22,20.22,0,0,0,4.56,6.77,20.77,20.77,0,0,0,7,4.44,23.65,23.65,0,0,0,8.73,1.58,26,26,0,0,0,8.45-1.38,20.9,20.9,0,0,0,7.52-4.6l4.48,6a28.05,28.05,0,0,1-9.56,5.23A36.41,36.41,0,0,1,1583.63,348.74Zm13.3-8V320.26h7.55v21.48Z" transform="translate(-49.63)"/><path class="cls-1" d="M1646.64,348.74q-10.85,0-17.07-6.22t-6.21-18.17V293h7.87v31q0,9.19,4,13.45t11.44,4.25q7.47,0,11.53-4.25t4-13.45V293h7.63v31.31q0,12-6.18,18.17T1646.64,348.74Z" transform="translate(-49.63)"/><path class="cls-1" d="M1698.25,341.26h32.09v6.85h-40V293h38.86v6.85h-31Zm-.71-24.46h28.32v6.69h-28.32Zm6.45-28.24,10.7-10.23h9.6l-13.22,10.23Z" transform="translate(-49.63)"/><path class="cls-1" d="M1747.41,348.11V293h6.45l24.7,41.62h-3.46L1799.49,293h6.45l.08,55.07h-7.55l-.08-43.19h1.81l-21.71,36.5h-3.62L1753,304.92h2v43.19Z" transform="translate(-49.63)"/><path class="cls-1" d="M1824,314.28l-.47-21.24h6.61l-.55,21.24Zm14.24,0L1837.8,293h6.61l-.55,21.24Z" transform="translate(-49.63)"/><path class="cls-1" d="M1895.3,341.26h32.1v6.85h-40V293h38.87v6.85h-31Zm-.71-24.46h28.32v6.69h-28.32Z" transform="translate(-49.63)"/><path class="cls-1" d="M1960.51,348.74a37.43,37.43,0,0,1-12-1.93,24.65,24.65,0,0,1-9-5l2.91-6.13a25.49,25.49,0,0,0,8,4.56,28.82,28.82,0,0,0,10.14,1.81,23,23,0,0,0,7.79-1.1,9.23,9.23,0,0,0,4.41-3,7.2,7.2,0,0,0,1.41-4.37,6,6,0,0,0-1.85-4.56,13.8,13.8,0,0,0-4.79-2.79,54.2,54.2,0,0,0-6.49-1.85c-2.36-.52-4.74-1.14-7.12-1.85a31.81,31.81,0,0,1-6.53-2.71,13.21,13.21,0,0,1-4.76-4.45,13,13,0,0,1-1.81-7.19,14.5,14.5,0,0,1,2.24-7.83,15.55,15.55,0,0,1,6.92-5.74,28.38,28.38,0,0,1,11.92-2.17,36.78,36.78,0,0,1,9.52,1.26,26.62,26.62,0,0,1,8.18,3.62l-2.59,6.29a25.49,25.49,0,0,0-7.48-3.42,29.09,29.09,0,0,0-7.63-1.06,20.94,20.94,0,0,0-7.63,1.18,9.29,9.29,0,0,0-4.36,3.15,7.48,7.48,0,0,0-1.38,4.4,6,6,0,0,0,1.85,4.64,13.27,13.27,0,0,0,4.8,2.76,64.72,64.72,0,0,0,6.49,1.84q3.54.82,7.11,1.85a30.18,30.18,0,0,1,6.53,2.68A13.43,13.43,0,0,1,1980,326a12.65,12.65,0,0,1,1.81,7.08,14.14,14.14,0,0,1-2.28,7.75,15.75,15.75,0,0,1-7,5.74A28.9,28.9,0,0,1,1960.51,348.74Z" transform="translate(-49.63)"/><path class="cls-1" d="M2007.79,348.11V299.89h-18.88V293h45.55v6.85h-18.88v48.22Z" transform="translate(-49.63)"/><path class="cls-1" d="M2036.27,348.11,2061.21,293H2069l25,55.07h-8.26l-22.26-50.66h3.14l-22.26,50.66Zm10.62-13.77,2.12-6.29h31l2.28,6.29Zm12.35-45.78,10.7-10.23h9.59l-13.21,10.23Z" transform="translate(-49.63)"/><path class="cls-1" d="M2154.82,348.74q-10.86,0-17.07-6.22t-6.22-18.17V293h7.87v31q0,9.19,4,13.45t11.45,4.25q7.47,0,11.52-4.25t4-13.45V293h7.63v31.31q0,12-6.17,18.17T2154.82,348.74Z" transform="translate(-49.63)"/><path class="cls-1" d="M2214.6,348.74a37.39,37.39,0,0,1-12-1.93,24.65,24.65,0,0,1-9.05-5l2.91-6.13a25.55,25.55,0,0,0,8,4.56,28.88,28.88,0,0,0,10.15,1.81,23,23,0,0,0,7.79-1.1,9.15,9.15,0,0,0,4.4-3,7.15,7.15,0,0,0,1.42-4.37,6,6,0,0,0-1.85-4.56,13.76,13.76,0,0,0-4.8-2.79,53.67,53.67,0,0,0-6.49-1.85q-3.54-.78-7.12-1.85a32,32,0,0,1-6.52-2.71,13.21,13.21,0,0,1-4.76-4.45,13,13,0,0,1-1.81-7.19,14.41,14.41,0,0,1,2.24-7.83,15.5,15.5,0,0,1,6.92-5.74,28.35,28.35,0,0,1,11.92-2.17,36.78,36.78,0,0,1,9.52,1.26,26.73,26.73,0,0,1,8.18,3.62l-2.6,6.29a25.44,25.44,0,0,0-7.47-3.42,29.15,29.15,0,0,0-7.63-1.06,20.9,20.9,0,0,0-7.63,1.18,9.32,9.32,0,0,0-4.37,3.15,7.48,7.48,0,0,0-1.37,4.4,6,6,0,0,0,1.84,4.64,13.44,13.44,0,0,0,4.8,2.76,65.49,65.49,0,0,0,6.49,1.84q3.54.82,7.12,1.85a30.39,30.39,0,0,1,6.53,2.68,13.51,13.51,0,0,1,4.76,4.4,12.65,12.65,0,0,1,1.81,7.08,14.14,14.14,0,0,1-2.28,7.75,15.75,15.75,0,0,1-7,5.74A28.94,28.94,0,0,1,2214.6,348.74Z" transform="translate(-49.63)"/><path class="cls-1" d="M2243.39,348.11,2268.33,293h7.79l25,55.07h-8.26l-22.26-50.66h3.15l-22.27,50.66ZM2254,334.34l2.13-6.29h31l2.28,6.29Z" transform="translate(-49.63)"/><path class="cls-1" d="M2313.64,348.11V293h6.45l36.42,45.23h-3.38V293H2361v55.07h-6.46l-36.42-45.24h3.39v45.24Z" transform="translate(-49.63)"/><path class="cls-1" d="M2381.84,348.11V293h23.21a33.55,33.55,0,0,1,15.53,3.46,25.59,25.59,0,0,1,10.47,9.68,29.64,29.64,0,0,1,0,28.79,25.59,25.59,0,0,1-10.47,9.68,33.55,33.55,0,0,1-15.53,3.46Zm7.87-6.85h14.87a25.33,25.33,0,0,0,11.83-2.59,18.79,18.79,0,0,0,7.75-7.28,22.65,22.65,0,0,0,0-21.67,18.83,18.83,0,0,0-7.75-7.24,25.33,25.33,0,0,0-11.83-2.59h-14.87Z" transform="translate(-49.63)"/><path class="cls-1" d="M2476,348.74a31.5,31.5,0,0,1-11.68-2.13,27.73,27.73,0,0,1-9.32-5.94,27.45,27.45,0,0,1-6.14-8.93,29.46,29.46,0,0,1,0-22.34,27.51,27.51,0,0,1,6.14-8.92,27.86,27.86,0,0,1,9.28-5.94,31.45,31.45,0,0,1,11.72-2.13,31.82,31.82,0,0,1,11.65,2.09,27.45,27.45,0,0,1,9.28,5.9,26.78,26.78,0,0,1,6.09,9,30.14,30.14,0,0,1,0,22.46,26.86,26.86,0,0,1-6.09,8.93,27.45,27.45,0,0,1-9.28,5.9A31.82,31.82,0,0,1,2476,348.74Zm0-7a22.38,22.38,0,0,0,8.46-1.58,20.21,20.21,0,0,0,6.77-4.44,20.92,20.92,0,0,0,4.48-6.73,21.67,21.67,0,0,0,1.61-8.42,21,21,0,0,0-6.09-15.1,19.87,19.87,0,0,0-6.77-4.48,23.63,23.63,0,0,0-17,0,20.23,20.23,0,0,0-6.81,4.48,20.82,20.82,0,0,0-4.52,6.73,21.17,21.17,0,0,0-1.61,8.37,21.49,21.49,0,0,0,1.61,8.42,20.35,20.35,0,0,0,11.33,11.17A22.52,22.52,0,0,0,2476,341.74Z" transform="translate(-49.63)"/><path class="cls-1" d="M2520.69,348.58a5.3,5.3,0,0,1-5.35-5.43,5.06,5.06,0,0,1,1.57-3.85,5.29,5.29,0,0,1,3.78-1.5,5,5,0,0,1,3.65,1.5,5.11,5.11,0,0,1,1.54,3.85,5.28,5.28,0,0,1-1.54,3.9A5,5,0,0,1,2520.69,348.58Zm18.25,0a5.3,5.3,0,0,1-5.35-5.43,5.06,5.06,0,0,1,1.57-3.85,5.29,5.29,0,0,1,3.78-1.5,5,5,0,0,1,3.65,1.5,5.11,5.11,0,0,1,1.54,3.85,5.28,5.28,0,0,1-1.54,3.9A5,5,0,0,1,2538.94,348.58Zm18.25,0a5.3,5.3,0,0,1-5.35-5.43,5.06,5.06,0,0,1,1.57-3.85,5.29,5.29,0,0,1,3.78-1.5,5,5,0,0,1,3.65,1.5,5.11,5.11,0,0,1,1.54,3.85,5.28,5.28,0,0,1-1.54,3.9A5,5,0,0,1,2557.19,348.58Z" transform="translate(-49.63)"/></g></g></g></svg>