<svg xmlns="http://www.w3.org/2000/svg" viewBox="0 0 722.23 773.29"><defs><style>.cls-1{fill:#fff;}.cls-2{fill:#b33176;}</style></defs><title>5</title><g id="Camada_2" data-name="Camada 2"><g id="Camada_1-2" data-name="Camada 1"><g id="MOBILE5"><rect class="cls-1" width="722.23" height="773.29"/><rect class="cls-2" x="184.1" y="325.72" width="473.11" height="66.89"/><rect class="cls-2" x="183.63" y="325.58" width="417.67" height="131.25"/><rect class="cls-2" x="441.98" y="577.64" width="209.74" height="61.45"/><rect class="cls-2" x="240.03" y="638.72" width="411.68" height="61.45"/><path class="cls-2" d="M145.71,193l-.14-36.43,5.57,0,23,28h-2.76l-.11-28.1,6.66,0,.14,36.42-5.56,0-22.9-28h2.75l.11,28.1Z"/><path class="cls-2" d="M207.79,193.29a21.35,21.35,0,0,1-7.83-1.38,18.51,18.51,0,0,1-6.29-3.93,18,18,0,0,1-4.13-5.94,19.69,19.69,0,0,1-.06-14.88,17.53,17.53,0,0,1,4.09-5.95,18.86,18.86,0,0,1,6.23-4,21.25,21.25,0,0,1,7.85-1.44,21.62,21.62,0,0,1,7.81,1.35,18.19,18.19,0,0,1,6.23,3.88A17.78,17.78,0,0,1,225.8,167a19,19,0,0,1,1.49,7.49,18.81,18.81,0,0,1-1.43,7.47,18,18,0,0,1-10.27,9.93A21.54,21.54,0,0,1,207.79,193.29Zm0-5.93a13.46,13.46,0,0,0,5.07-1,12,12,0,0,0,4-2.67,12.3,12.3,0,0,0,2.67-4.07,13.45,13.45,0,0,0,.94-5.15,13.61,13.61,0,0,0-1-5.15,11.68,11.68,0,0,0-2.69-4.05,12.32,12.32,0,0,0-4.07-2.64,13.54,13.54,0,0,0-5.08-.92,13.88,13.88,0,0,0-5.12,1,11.6,11.6,0,0,0-4.07,2.7,12.8,12.8,0,0,0-3.66,9.2,12.84,12.84,0,0,0,3.73,9.17,11.82,11.82,0,0,0,4.09,2.66A13.92,13.92,0,0,0,207.77,187.36Z"/><path class="cls-2" d="M261.39,192.56l-6.76,0-.14-36.43,26.59-.1,0,5.72-19.83.08Zm-.6-19.61,18.11-.08,0,5.62-18.11.08Z"/><path class="cls-2" d="M290.64,192.45,290.5,156l6.76,0,.14,36.42Z"/><path class="cls-2" d="M310.1,192.37,310,156l5.57,0,16,26.53-2.91,0,15.56-26.66,5.57,0,.24,36.43-6.5,0-.1-26.38h1.3l-13.13,22.32h-3.07L314.89,166h1.56l.1,26.38Z"/><path class="cls-2" d="M360.35,200.09l2.92-11.62,1,3.9a4.39,4.39,0,0,1-3.1-1.1,4,4,0,0,1-1.23-3.1,4.05,4.05,0,0,1,1.21-3.1,4.2,4.2,0,0,1,3-1.18,4.06,4.06,0,0,1,3,1.19,4.18,4.18,0,0,1,1.19,3.06,7.92,7.92,0,0,1-.1,1.17,10.16,10.16,0,0,1-.36,1.38q-.26.8-.72,2l-2.68,7.4Z"/><path class="cls-2" d="M390.29,192.06l16.25-36.49,6.66,0,16.59,36.36-7.13,0-14.18-32.78h2.71l-14,32.89Zm7.51-8.45,1.86-5.32,19.61-.08,1.85,5.3Z"/><path class="cls-2" d="M471.52,192.27a21.54,21.54,0,0,1-7.83-1.35,18.61,18.61,0,0,1-6.24-3.9,18.12,18.12,0,0,1-4.13-5.92,20,20,0,0,1-.06-15,17.72,17.72,0,0,1,4.12-6,18.91,18.91,0,0,1,6.22-3.95,23.54,23.54,0,0,1,16.24.07,16.36,16.36,0,0,1,6.29,4.4l-4.25,4.18a14.07,14.07,0,0,0-4.62-3.13,14.32,14.32,0,0,0-5.44-1,14.73,14.73,0,0,0-5.33,1,12.27,12.27,0,0,0-4.18,2.67,12.13,12.13,0,0,0-2.74,4.07,12.93,12.93,0,0,0-1,5.16,13.14,13.14,0,0,0,1,5.12,12.05,12.05,0,0,0,2.77,4.07,12.45,12.45,0,0,0,4.17,2.64,14.39,14.39,0,0,0,5.32.92,16.16,16.16,0,0,0,5.22-.88,14.26,14.26,0,0,0,4.81-2.91l3.81,5a19.29,19.29,0,0,1-6.54,3.49A25.52,25.52,0,0,1,471.52,192.27Zm7.84-5.55-.05-13.58,6.35,0,0,14.46Z"/><path class="cls-2" d="M504.28,185.9l20.56-.08,0,5.72-27.32.11-.14-36.43,26.59-.1,0,5.72-19.83.08Zm-.58-15.56,18.11-.07,0,5.57-18.11.07Z"/><path class="cls-2" d="M535.27,191.5l-.14-36.42,5.57,0,22.95,28h-2.76l-.11-28.1,6.67,0,.14,36.43-5.57,0-22.9-28h2.75l.11,28.1Z"/><path class="cls-2" d="M587.67,191.3l-.11-30.7-12.08.05,0-5.73,30.91-.12,0,5.73-12.07,0,.12,30.71Z"/><path class="cls-2" d="M621.22,185.45l20.55-.08,0,5.72-27.32.11-.14-36.43,26.6-.1,0,5.72-19.83.08Zm-.58-15.56,18.11-.07,0,5.57-18.11.07Z"/><path class="cls-2" d="M139.81,255.47,139.67,219l5.57,0,16,26.53h-2.91l15.56-26.65,5.57,0,.24,36.43-6.5,0-.1-26.38h1.3l-13.14,22.33h-3.07L144.6,229.07h1.56l.1,26.39Z"/><path class="cls-2" d="M199.11,249.52l20.56-.08,0,5.72-27.32.11-.14-36.43,26.59-.1,0,5.72-19.83.08ZM198.53,234l18.11-.07,0,5.57-18.11.07Z"/><path class="cls-2" d="M230.1,255.12,230,218.7l6.76,0,.14,36.43Z"/><path class="cls-2" d="M266.63,255.5a21.65,21.65,0,0,1-7.84-1.37,18.78,18.78,0,0,1-6.28-3.93,18,18,0,0,1-4.14-5.95,18.6,18.6,0,0,1-1.48-7.41,18.87,18.87,0,0,1,1.42-7.47,17.82,17.82,0,0,1,4.09-6,19,19,0,0,1,6.23-3.95,21.29,21.29,0,0,1,7.85-1.44,21.58,21.58,0,0,1,7.81,1.35,18.48,18.48,0,0,1,6.24,3.88,17.88,17.88,0,0,1,4.11,5.94,19,19,0,0,1,1.48,7.49,18.71,18.71,0,0,1-1.43,7.48,18.05,18.05,0,0,1-10.26,9.92A21.54,21.54,0,0,1,266.63,255.5Zm0-5.93a13.54,13.54,0,0,0,5.07-1,12,12,0,0,0,4-2.67,12.12,12.12,0,0,0,2.66-4.07,13.45,13.45,0,0,0,.95-5.15,13.81,13.81,0,0,0-1-5.15,11.7,11.7,0,0,0-2.7-4,12.22,12.22,0,0,0-4.07-2.64,13.26,13.26,0,0,0-5.07-.91,13.73,13.73,0,0,0-5.13.95,11.69,11.69,0,0,0-4.07,2.7,13.18,13.18,0,0,0,.07,18.37,11.63,11.63,0,0,0,4.1,2.66A13.71,13.71,0,0,0,266.61,249.57Z"/><path class="cls-2" d="M330.53,255.26a21.44,21.44,0,0,1-7.84-1.38,18.78,18.78,0,0,1-6.28-3.93,17.87,17.87,0,0,1-4.14-5.94,19.7,19.7,0,0,1,0-14.86,17.93,17.93,0,0,1,4.09-6,18.68,18.68,0,0,1,6.23-4,22.75,22.75,0,0,1,15.66-.08A18.06,18.06,0,0,1,348.54,229a19.84,19.84,0,0,1,.06,14.94,18.09,18.09,0,0,1-10.27,9.93A22,22,0,0,1,330.53,255.26Zm0-5.94a13.27,13.27,0,0,0,5.07-.95,12.08,12.08,0,0,0,6.71-6.79,14.39,14.39,0,0,0,0-10.23,12.21,12.21,0,0,0-2.69-4,12,12,0,0,0-4.07-2.66,13.35,13.35,0,0,0-5.08-.92,13.84,13.84,0,0,0-5.12,1,11.62,11.62,0,0,0-4.08,2.69,13.39,13.39,0,0,0-2.65,14.3,13,13,0,0,0,2.72,4.07,11.74,11.74,0,0,0,4.1,2.67A13.91,13.91,0,0,0,330.51,249.32Zm12,13.38a14.28,14.28,0,0,1-3.75-.45,15.51,15.51,0,0,1-3.54-1.44,21.49,21.49,0,0,1-3.66-2.64c-1.25-1.11-2.63-2.46-4.12-4.05l7.17-1.85a20.07,20.07,0,0,0,2.8,3.06A9.66,9.66,0,0,0,340,257a6.84,6.84,0,0,0,2.53.51,8.22,8.22,0,0,0,6.29-3l3.08,3.78A11.57,11.57,0,0,1,342.48,262.7Z"/><path class="cls-2" d="M375.75,255.08q-7.44,0-11.69-4.17t-4.29-12.21l-.08-20.51,6.76,0,.08,20.29c0,3.75.83,6.47,2.45,8.16a9,9,0,0,0,6.86,2.53,8.88,8.88,0,0,0,6.8-2.58Q385,244,385,238.39l-.07-20.29,6.66,0,.08,20.51q0,8-4.2,12.24T375.75,255.08Z"/><path class="cls-2" d="M410.8,248.7l20.56-.08,0,5.73-27.32.1L403.92,218l26.59-.1,0,5.73-19.82.07Zm-.58-15.56,18.11-.07,0,5.57-18.11.07Z"/><path class="cls-2" d="M464.64,254.74a15.1,15.1,0,0,1-6.38-1.33,12,12,0,0,1-4.83-3.94l3.83-4.59a11,11,0,0,0,3.32,3.11,7.71,7.71,0,0,0,4,1q5.63,0,5.6-6.73l-.08-18.79-12.95,0,0-5.72,19.67-.08.1,24.15c0,4.3-1,7.51-3.09,9.64S468.66,254.72,464.64,254.74Z"/><path class="cls-2" d="M504.91,254.58q-7.44,0-11.69-4.17t-4.29-12.21l-.08-20.5,6.76,0,.08,20.29c0,3.75.83,6.47,2.45,8.17a9,9,0,0,0,6.86,2.52,8.88,8.88,0,0,0,6.8-2.58q2.38-2.55,2.36-8.18l-.07-20.29,6.66,0,.08,20.51q0,8-4.2,12.24T504.91,254.58Z"/><path class="cls-2" d="M533.22,254l-.14-36.43,5.57,0,23,28h-2.76l-.1-28.1,6.66,0,.14,36.43-5.57,0-22.9-28h2.76l.1,28.1Z"/><path class="cls-2" d="M585.62,253.75l-.11-30.7-12.08,0,0-5.72,30.91-.12,0,5.72-12.07.05.12,30.7Z"/><path class="cls-2" d="M605.45,253.67l16.25-36.49,6.66,0L645,253.52l-7.13,0-14.18-32.78h2.71l-14,32.89Zm7.51-8.46,1.86-5.31,19.62-.08,1.84,5.3Z"/><path class="cls-2" d="M253.39,317.47l-.12-30.7-12.07.05,0-5.73,30.92-.12,0,5.73-12.08,0,.12,30.71Z"/><path class="cls-2" d="M296.74,317.83a21.44,21.44,0,0,1-7.84-1.38,18.78,18.78,0,0,1-6.28-3.93,17.87,17.87,0,0,1-4.14-5.94,19.81,19.81,0,0,1-.06-14.88,17.82,17.82,0,0,1,4.09-5.95,19.16,19.16,0,0,1,6.23-4,22.78,22.78,0,0,1,15.67-.08,18.38,18.38,0,0,1,6.23,3.88,17.68,17.68,0,0,1,4.11,5.94,20,20,0,0,1,.06,15,18.17,18.17,0,0,1-10.27,9.93A21.54,21.54,0,0,1,296.74,317.83Zm0-5.94a13.27,13.27,0,0,0,5.07-.95,12,12,0,0,0,4-2.67,12.22,12.22,0,0,0,2.66-4.07,13.5,13.5,0,0,0,.95-5.16,13.84,13.84,0,0,0-1-5.15,11.76,11.76,0,0,0-2.7-4,12.28,12.28,0,0,0-4.06-2.64,13.35,13.35,0,0,0-5.08-.92,13.84,13.84,0,0,0-5.12,1,11.75,11.75,0,0,0-4.08,2.69,13.39,13.39,0,0,0-2.65,14.3,12.69,12.69,0,0,0,2.72,4.07,11.74,11.74,0,0,0,4.1,2.67A13.91,13.91,0,0,0,296.72,311.89Z"/><path class="cls-2" d="M326.35,317.19l-.14-36.43,16-.06a22.7,22.7,0,0,1,10.34,2.23,16.83,16.83,0,0,1,7,6.34,19.62,19.62,0,0,1,.07,19.15,16.89,16.89,0,0,1-7,6.41,22.67,22.67,0,0,1-10.33,2.3Zm6.74-5.75,8.8,0a15.11,15.11,0,0,0,7.09-1.59,11.63,11.63,0,0,0,4.67-4.39,12.57,12.57,0,0,0,1.66-6.62,12.27,12.27,0,0,0-1.71-6.55,11.84,11.84,0,0,0-4.7-4.3,15.22,15.22,0,0,0-7.11-1.53l-8.8,0Z"/><path class="cls-2" d="M366.52,317l16.25-36.49,6.66,0L406,316.88l-7.13,0-14.18-32.78h2.71l-14,32.89Zm7.51-8.46,1.86-5.32,19.62-.07,1.84,5.3Z"/><path class="cls-2" d="M424.81,317.33a26.79,26.79,0,0,1-8.15-1.19,18.6,18.6,0,0,1-6.23-3.12l2.32-5.27a18.82,18.82,0,0,0,5.42,2.84,19.51,19.51,0,0,0,6.62,1.12,14.25,14.25,0,0,0,4.62-.64,5.54,5.54,0,0,0,2.6-1.7,3.8,3.8,0,0,0,.82-2.43,3.31,3.31,0,0,0-1.2-2.67,8.84,8.84,0,0,0-3.11-1.6c-1.26-.4-2.67-.75-4.22-1.08s-3.09-.72-4.63-1.2a21,21,0,0,1-4.25-1.83,8.88,8.88,0,0,1-3.11-3,9,9,0,0,1-1.19-4.79,9.86,9.86,0,0,1,1.57-5.44,11,11,0,0,1,4.82-4,20,20,0,0,1,8.25-1.51,25.67,25.67,0,0,1,6.5.81,18.44,18.44,0,0,1,5.63,2.37l-2.11,5.26a20.08,20.08,0,0,0-5.06-2.14,19,19,0,0,0-5-.68,13.08,13.08,0,0,0-4.53.69,5.51,5.51,0,0,0-2.57,1.81,4.19,4.19,0,0,0-.8,2.47,3.37,3.37,0,0,0,1.19,2.68,8.14,8.14,0,0,0,3.07,1.57c1.27.38,2.68.74,4.25,1.08s3.1.74,4.63,1.21a20.09,20.09,0,0,1,4.23,1.8,9,9,0,0,1,3.1,2.95,8.57,8.57,0,0,1,1.19,4.71,9.76,9.76,0,0,1-1.56,5.39,11,11,0,0,1-4.85,4A20.23,20.23,0,0,1,424.81,317.33Z"/><path class="cls-2" d="M473.07,310.9l20.56-.08,0,5.73-27.32.1-.14-36.43,26.59-.1,0,5.73-19.83.07Zm-.58-15.56,18.11-.07,0,5.57-18.11.07Z"/><path class="cls-2" d="M515.35,317a26.73,26.73,0,0,1-8.14-1.19,18.42,18.42,0,0,1-6.23-3.12l2.32-5.27a18.69,18.69,0,0,0,5.42,2.84,19.46,19.46,0,0,0,6.61,1.12,14.32,14.32,0,0,0,4.63-.64,5.54,5.54,0,0,0,2.6-1.7,3.86,3.86,0,0,0,.82-2.43,3.33,3.33,0,0,0-1.21-2.67,8.79,8.79,0,0,0-3.1-1.6c-1.27-.4-2.67-.75-4.22-1.08s-3.09-.72-4.63-1.2a20.71,20.71,0,0,1-4.25-1.83,8.8,8.8,0,0,1-3.11-3,8.9,8.9,0,0,1-1.19-4.79,9.78,9.78,0,0,1,1.57-5.44,10.9,10.9,0,0,1,4.82-4,19.81,19.81,0,0,1,8.24-1.52,25.69,25.69,0,0,1,6.51.81,18.8,18.8,0,0,1,5.63,2.37L526.33,288a20.61,20.61,0,0,0-5.06-2.14,19.06,19.06,0,0,0-5-.68,12.77,12.77,0,0,0-4.52.7,5.38,5.38,0,0,0-2.57,1.8,4.13,4.13,0,0,0-.8,2.48,3.38,3.38,0,0,0,1.18,2.67,8.43,8.43,0,0,0,3.08,1.58c1.27.37,2.68.73,4.24,1.07s3.11.74,4.64,1.21a19.79,19.79,0,0,1,4.22,1.8,8.83,8.83,0,0,1,3.11,3,8.6,8.6,0,0,1,1.19,4.7,9.69,9.69,0,0,1-1.57,5.39,10.84,10.84,0,0,1-4.85,4A20.17,20.17,0,0,1,515.35,317Z"/><path class="cls-2" d="M551,316.84a26.49,26.49,0,0,1-8.15-1.19,18.33,18.33,0,0,1-6.23-3.12l2.32-5.27a18.82,18.82,0,0,0,5.42,2.84,19.51,19.51,0,0,0,6.62,1.12,14.09,14.09,0,0,0,4.63-.64,5.56,5.56,0,0,0,2.59-1.7,3.86,3.86,0,0,0,.83-2.42,3.38,3.38,0,0,0-1.21-2.68,9,9,0,0,0-3.1-1.6c-1.27-.39-2.68-.75-4.22-1.08s-3.09-.72-4.64-1.2a21,21,0,0,1-4.25-1.83,8.31,8.31,0,0,1-4.3-7.76,10,10,0,0,1,1.57-5.45,10.87,10.87,0,0,1,4.83-4,20,20,0,0,1,8.24-1.52,25.8,25.8,0,0,1,6.51.81,19.06,19.06,0,0,1,5.63,2.37l-2.12,5.27a19.81,19.81,0,0,0-5-2.14,19.14,19.14,0,0,0-5-.69,12.83,12.83,0,0,0-4.53.7,5.48,5.48,0,0,0-2.57,1.8A4.14,4.14,0,0,0,544,290a3.35,3.35,0,0,0,1.18,2.67,8.23,8.23,0,0,0,3.07,1.58c1.27.38,2.69.73,4.25,1.07s3.11.75,4.64,1.21a19.74,19.74,0,0,1,4.22,1.81,9,9,0,0,1,3.11,2.95,8.64,8.64,0,0,1,1.18,4.7,9.79,9.79,0,0,1-1.56,5.4,10.94,10.94,0,0,1-4.85,4A20,20,0,0,1,551,316.84Z"/><path class="cls-2" d="M570.1,316.25l16.25-36.49,6.66,0L609.6,316.1l-7.13,0-14.18-32.79H591l-14,32.89Zm7.51-8.46,1.85-5.31,19.62-.08,1.84,5.3Z"/><path class="cls-2" d="M628.38,316.55a26.84,26.84,0,0,1-8.15-1.2,18.43,18.43,0,0,1-6.23-3.12l2.33-5.27a19,19,0,0,0,5.42,2.85,20,20,0,0,0,6.61,1.12,14.29,14.29,0,0,0,4.63-.65,5.52,5.52,0,0,0,2.6-1.7,3.85,3.85,0,0,0,.82-2.42,3.35,3.35,0,0,0-1.21-2.68,9,9,0,0,0-3.1-1.6c-1.27-.39-2.67-.75-4.22-1.07s-3.09-.73-4.64-1.21a20.86,20.86,0,0,1-4.24-1.83,8.71,8.71,0,0,1-3.11-3A8.89,8.89,0,0,1,614.7,290a9.79,9.79,0,0,1,1.57-5.45,10.91,10.91,0,0,1,4.82-4,20,20,0,0,1,8.24-1.52,26.63,26.63,0,0,1,6.51.81,19.06,19.06,0,0,1,5.63,2.37l-2.11,5.27a19.87,19.87,0,0,0-5.06-2.14,19.52,19.52,0,0,0-5-.69,12.73,12.73,0,0,0-4.52.7,5.45,5.45,0,0,0-2.57,1.8,4.15,4.15,0,0,0-.8,2.48,3.38,3.38,0,0,0,1.18,2.67,8.28,8.28,0,0,0,3.08,1.58c1.27.38,2.68.74,4.24,1.08s3.11.74,4.64,1.2a19.81,19.81,0,0,1,4.22,1.81,8.8,8.8,0,0,1,3.11,2.95,8.64,8.64,0,0,1,1.19,4.7,9.78,9.78,0,0,1-1.57,5.4,10.94,10.94,0,0,1-4.85,4A20.19,20.19,0,0,1,628.38,316.55Z"/><path class="cls-1" d="M199.72,380.12l-.14-36.43,6.76,0,.14,36.43Z"/><path class="cls-1" d="M219.18,380.05,219,343.62l5.57,0,22.95,28H244.8l-.1-28.1,6.66,0,.14,36.43-5.57,0-22.9-28h2.76l.1,28.1Z"/><path class="cls-1" d="M271,379.85l-6.77,0-.14-36.42,26.6-.11,0,5.73-19.83.07Zm-.6-19.62,18.11-.07,0,5.62-18.11.07Z"/><path class="cls-1" d="M300.21,379.73l-.15-36.42,6.77,0L307,374l19.05-.07,0,5.72Z"/><path class="cls-1" d="M349.33,380.06q-7.44,0-11.7-4.17c-2.83-2.79-4.26-6.87-4.28-12.21l-.08-20.5,6.76,0,.08,20.3q0,5.61,2.45,8.16a9,9,0,0,0,6.85,2.52,8.92,8.92,0,0,0,6.81-2.57q2.38-2.56,2.36-8.19l-.07-20.29,6.66,0,.08,20.51q0,8-4.2,12.24T349.33,380.06Z"/><path class="cls-1" d="M384.38,373.68l20.56-.08,0,5.73-27.32.1L377.5,343l26.59-.11,0,5.73-19.82.08ZM380.92,340l7-7.16,5.83,0,7.05,7.1-5.31,0-7.15-6,5,0-7.11,6Zm2.88,18.1,18.11-.07,0,5.56-18.11.08Z"/><path class="cls-1" d="M415.37,379.29l-.14-36.43,5.57,0,22.95,28H441l-.11-28.1,6.66,0,.15,36.42-5.57,0-22.91-28H422l.11,28.1Z"/><path class="cls-1" d="M477.25,379.57a21.16,21.16,0,0,1-7.76-1.35,18.14,18.14,0,0,1-10.29-9.82,20,20,0,0,1-.06-15,17.93,17.93,0,0,1,4.09-6,18.69,18.69,0,0,1,6.17-3.95,22.46,22.46,0,0,1,15.93.1,16.16,16.16,0,0,1,6.26,4.52l-4.35,4.13a14,14,0,0,0-4.49-3.18,13.25,13.25,0,0,0-5.26-1.05,14.19,14.19,0,0,0-5.23,1,12.12,12.12,0,0,0-4.1,2.67,12.53,12.53,0,0,0-2.72,4.07,14,14,0,0,0,0,10.3,12.42,12.42,0,0,0,2.75,4.05,12.23,12.23,0,0,0,4.12,2.64,14.24,14.24,0,0,0,5.24.92,13,13,0,0,0,5.25-1.09,13.51,13.51,0,0,0,4.46-3.27l4.39,4.09a16.41,16.41,0,0,1-6.23,4.61A20.9,20.9,0,0,1,477.25,379.57Z"/><path class="cls-1" d="M501.08,379l-.14-36.43,6.76,0,.14,36.43Z"/><path class="cls-1" d="M515.39,378.9l16.25-36.49,6.66,0,16.58,36.36-7.12,0L533.58,346h2.7l-14,32.89Zm7.51-8.46,1.85-5.31,19.62-.08,1.84,5.3Z"/><path class="cls-1" d="M573.67,379.2a27.15,27.15,0,0,1-8.15-1.19,18.61,18.61,0,0,1-6.23-3.13l2.32-5.26a19.14,19.14,0,0,0,5.43,2.84,19.7,19.7,0,0,0,6.61,1.12,14.32,14.32,0,0,0,4.63-.64,5.61,5.61,0,0,0,2.6-1.71,3.85,3.85,0,0,0,.82-2.42,3.35,3.35,0,0,0-1.21-2.67,8.63,8.63,0,0,0-3.1-1.6c-1.27-.4-2.68-.76-4.22-1.08s-3.09-.73-4.64-1.21a20.86,20.86,0,0,1-4.24-1.83,8.71,8.71,0,0,1-3.11-3,8.86,8.86,0,0,1-1.19-4.78,9.88,9.88,0,0,1,1.56-5.45,11,11,0,0,1,4.83-4,19.82,19.82,0,0,1,8.24-1.51,26.14,26.14,0,0,1,6.51.8,18.81,18.81,0,0,1,5.63,2.38l-2.11,5.26a19.87,19.87,0,0,0-5.06-2.14,19.06,19.06,0,0,0-5-.68,12.75,12.75,0,0,0-4.52.69,5.52,5.52,0,0,0-2.57,1.8,4.15,4.15,0,0,0-.8,2.48,3.39,3.39,0,0,0,1.18,2.68,8.19,8.19,0,0,0,3.08,1.57c1.26.38,2.68.74,4.24,1.08s3.11.74,4.64,1.2a20.56,20.56,0,0,1,4.22,1.81,8.89,8.89,0,0,1,3.11,2.95,8.74,8.74,0,0,1,1.19,4.71,9.77,9.77,0,0,1-1.57,5.39,10.88,10.88,0,0,1-4.85,4A20,20,0,0,1,573.67,379.2Z"/><path class="cls-1" d="M621.94,372.77l20.56-.08,0,5.72-27.32.11-.14-36.43,26.59-.1,0,5.72-19.83.08Zm-.58-15.56,18.11-.07,0,5.57-18.11.07Z"/><path class="cls-1" d="M196.42,442.58l-.14-36.43,6.77,0,.14,36.43Z"/><path class="cls-1" d="M215.88,442.5l-.14-36.43,5.57,0,23,28h-2.76L241.4,406l6.66,0,.14,36.42-5.57,0-22.9-28h2.76l.11,28.1Z"/><path class="cls-1" d="M272.19,442.8a26.84,26.84,0,0,1-8.15-1.19,18.61,18.61,0,0,1-6.23-3.12l2.32-5.27a18.88,18.88,0,0,0,5.43,2.84,19.41,19.41,0,0,0,6.61,1.12,14.32,14.32,0,0,0,4.63-.64,5.6,5.6,0,0,0,2.6-1.7,3.86,3.86,0,0,0,.82-2.43,3.36,3.36,0,0,0-1.21-2.67,8.79,8.79,0,0,0-3.1-1.6c-1.27-.4-2.68-.75-4.22-1.08s-3.09-.72-4.64-1.2A21.19,21.19,0,0,1,262.8,424a8.33,8.33,0,0,1-4.29-7.77,9.85,9.85,0,0,1,1.56-5.44,11,11,0,0,1,4.83-4,20,20,0,0,1,8.24-1.51,25.69,25.69,0,0,1,6.51.81,18.55,18.55,0,0,1,5.63,2.37l-2.11,5.26a20.39,20.39,0,0,0-5.06-2.14,19.06,19.06,0,0,0-5-.68,13.08,13.08,0,0,0-4.53.69,5.48,5.48,0,0,0-2.56,1.81,4.12,4.12,0,0,0-.8,2.47,3.36,3.36,0,0,0,1.18,2.68,8.19,8.19,0,0,0,3.08,1.57c1.26.38,2.68.74,4.24,1.08s3.11.74,4.64,1.21a20,20,0,0,1,4.22,1.8,8.91,8.91,0,0,1,3.11,3,8.71,8.71,0,0,1,1.19,4.7,9.74,9.74,0,0,1-1.57,5.39,10.89,10.89,0,0,1-4.85,4A20,20,0,0,1,272.19,442.8Z"/><path class="cls-1" d="M296.49,442.19l-.14-36.43,15-.06a20.36,20.36,0,0,1,8.31,1.51,11.9,11.9,0,0,1,5.35,4.42,12.68,12.68,0,0,1,1.9,7,12.4,12.4,0,0,1-1.85,6.9,12.25,12.25,0,0,1-5.32,4.5,19.67,19.67,0,0,1-8.29,1.62l-11.19,0,2.95-3.13.06,13.63Zm6.72-12.93-3-3.32,10.87,0c3,0,5.23-.66,6.74-1.93a7.42,7.42,0,0,0,0-10.67q-2.27-1.89-6.74-1.87l-10.88,0,3-3.34Z"/><path class="cls-1" d="M336.61,442l-.14-36.42,6.77,0,.14,36.43Z"/><path class="cls-1" d="M356.08,442l-.14-36.43,15-.06a20.33,20.33,0,0,1,8.31,1.51,11.9,11.9,0,0,1,5.35,4.42,12.59,12.59,0,0,1,1.9,7,11.66,11.66,0,0,1-7.16,11.32,20.08,20.08,0,0,1-8.3,1.59l-11.19.05,3-3,0,13.63ZM362.79,429l-3-3.27,10.88,0c3,0,5.23-.66,6.73-2a7.46,7.46,0,0,0,0-10.7q-2.26-1.89-6.75-1.87l-10.87,0,2.95-3.34Zm17.12,12.84-9.26-13.19,7.23,0,9.32,13.18Z"/><path class="cls-1" d="M391.83,441.82l16.25-36.49,6.66,0,16.59,36.37-7.13,0L410,408.91h2.7l-14,32.89Zm7.51-8.46,1.85-5.31,19.62-.08,1.84,5.3Z"/><path class="cls-1" d="M455.16,442.1a21.2,21.2,0,0,1-7.76-1.35,18.28,18.28,0,0,1-10.29-9.83,20.07,20.07,0,0,1-.06-15,18.23,18.23,0,0,1,4.09-5.95,18.57,18.57,0,0,1,6.18-3.95,22.5,22.5,0,0,1,15.92.09,16.32,16.32,0,0,1,6.27,4.53l-4.36,4.13a13.6,13.6,0,0,0-4.49-3.18,12.84,12.84,0,0,0-5.26-1.05,14.14,14.14,0,0,0-5.22,1,12,12,0,0,0-4.1,2.67,12.23,12.23,0,0,0-2.72,4.06,13.92,13.92,0,0,0,0,10.31,12.27,12.27,0,0,0,2.75,4.05,12.14,12.14,0,0,0,4.12,2.64,14.19,14.19,0,0,0,5.23.91,12.94,12.94,0,0,0,5.25-1.08,13.54,13.54,0,0,0,4.47-3.27l4.38,4.09a16.35,16.35,0,0,1-6.22,4.6A21.1,21.1,0,0,1,455.16,442.1Zm-2.4,11.3a12.4,12.4,0,0,1-2.6-.25,8,8,0,0,1-2.14-.77l1.13-3.08a9.44,9.44,0,0,0,1.72.62,7.46,7.46,0,0,0,1.82.2,3.45,3.45,0,0,0,2.16-.53,1.61,1.61,0,0,0,.65-1.3,1.51,1.51,0,0,0-.68-1.3,3.89,3.89,0,0,0-2.14-.46h-1.61l1.38-5.37h3.49l-.67,3a5.24,5.24,0,0,1,3.42,1.48,4.3,4.3,0,0,1-.78,6.48A9.11,9.11,0,0,1,452.76,453.4Z"/><path class="cls-1" d="M495.28,441.94a21.56,21.56,0,0,1-7.83-1.37,18.82,18.82,0,0,1-6.29-3.93,17.84,17.84,0,0,1-4.13-5.95,18.5,18.5,0,0,1-1.49-7.41,18.87,18.87,0,0,1,1.43-7.47,17.53,17.53,0,0,1,4.09-5.95,18.86,18.86,0,0,1,6.23-3.95,21.25,21.25,0,0,1,7.85-1.44,21.62,21.62,0,0,1,7.81,1.35,18.44,18.44,0,0,1,6.23,3.88,17.88,17.88,0,0,1,4.11,5.94,19.92,19.92,0,0,1,.06,15,18,18,0,0,1-10.27,9.92A21.54,21.54,0,0,1,495.28,441.94Zm0-5.93a13.46,13.46,0,0,0,5.07-1,12,12,0,0,0,4-2.67,12.3,12.3,0,0,0,2.67-4.07,13.45,13.45,0,0,0,.94-5.15,13.81,13.81,0,0,0-1-5.15,11.82,11.82,0,0,0-2.69-4.05,12.42,12.42,0,0,0-4.07-2.64,13.34,13.34,0,0,0-5.08-.91,13.64,13.64,0,0,0-5.12.95,11.64,11.64,0,0,0-4.08,2.7,13.15,13.15,0,0,0,.08,18.37,11.59,11.59,0,0,0,4.09,2.66A13.71,13.71,0,0,0,495.26,436Zm3.62-33.95a4.62,4.62,0,0,1-2.3-.53,11.82,11.82,0,0,1-1.8-1.22c-.54-.45-1-.84-1.54-1.19a2.52,2.52,0,0,0-1.45-.52,2.22,2.22,0,0,0-1.77.84,4,4,0,0,0-.77,2.3h-3.49a8.24,8.24,0,0,1,1.59-5.05,4.93,4.93,0,0,1,4-1.89,5.38,5.38,0,0,1,2.32.48,8.6,8.6,0,0,1,1.83,1.19,16.5,16.5,0,0,0,1.51,1.19,2.47,2.47,0,0,0,1.43.49,2.32,2.32,0,0,0,1.8-.78,3.41,3.41,0,0,0,.74-2.19l3.49,0a7.9,7.9,0,0,1-1.57,5A4.91,4.91,0,0,1,498.88,402.06Z"/><path class="cls-1" d="M531.63,435.56l20.56-.08,0,5.72-27.32.11-.14-36.43,26.59-.1,0,5.72-19.82.08ZM531.05,420l18.11-.07,0,5.57-18.11.07Z"/><path class="cls-1" d="M573.91,441.64a27,27,0,0,1-8.14-1.19,18.58,18.58,0,0,1-6.24-3.13l2.33-5.26a18.94,18.94,0,0,0,5.42,2.84,19.7,19.7,0,0,0,6.61,1.12,14,14,0,0,0,4.63-.65,5.52,5.52,0,0,0,2.6-1.7,3.85,3.85,0,0,0,.82-2.42,3.32,3.32,0,0,0-1.21-2.67,8.8,8.8,0,0,0-3.1-1.61c-1.27-.39-2.67-.75-4.22-1.07s-3.09-.73-4.64-1.21a20.86,20.86,0,0,1-4.24-1.83,8.71,8.71,0,0,1-3.11-3,8.86,8.86,0,0,1-1.19-4.78,9.81,9.81,0,0,1,1.57-5.45,11,11,0,0,1,4.82-4,20,20,0,0,1,8.24-1.52,26.63,26.63,0,0,1,6.51.81,19.06,19.06,0,0,1,5.63,2.37l-2.11,5.27a19.87,19.87,0,0,0-5.06-2.14,19.06,19.06,0,0,0-5-.68,12.75,12.75,0,0,0-4.52.69,5.52,5.52,0,0,0-2.57,1.8,4.15,4.15,0,0,0-.8,2.48,3.42,3.42,0,0,0,1.18,2.68A8.42,8.42,0,0,0,571.2,419c1.27.38,2.68.74,4.24,1.08s3.11.74,4.64,1.2a19.81,19.81,0,0,1,4.22,1.81,8.8,8.8,0,0,1,3.11,2.95,8.66,8.66,0,0,1,1.19,4.71,9.77,9.77,0,0,1-1.57,5.39,10.88,10.88,0,0,1-4.85,4A20.16,20.16,0,0,1,573.91,441.64Z"/><path class="cls-2" d="M622.18,435.21l20.56-.08,0,5.72-27.32.11-.14-36.43,26.59-.1,0,5.72-19.83.08Zm-.58-15.56,18.11-.07,0,5.57-18.11.07Z"/><path class="cls-2" d="M91.13,505.42,91,474.72l-12.07,0,0-5.72,30.92-.12,0,5.73-12.08,0,.12,30.7Z"/><path class="cls-2" d="M117.93,505.32l-.14-36.43,15-.06a20.33,20.33,0,0,1,8.31,1.51,11.85,11.85,0,0,1,5.35,4.42,12.59,12.59,0,0,1,1.9,7,11.62,11.62,0,0,1-7.16,11.32,20,20,0,0,1-8.3,1.59l-11.18.05,3-3,0,13.63Zm6.71-12.93-3-3.27,10.88,0c3,0,5.23-.67,6.73-2a7.43,7.43,0,0,0,0-10.69q-2.26-1.89-6.75-1.87l-10.87,0,3-3.34Zm17.12,12.84L132.5,492l7.23,0,9.32,13.18Z"/><path class="cls-2" d="M153.68,505.18l16.25-36.49,6.66,0L193.18,505l-7.13,0-14.18-32.78h2.71l-14,32.89Zm7.51-8.46,1.85-5.31,19.62-.08,1.85,5.3Z"/><path class="cls-2" d="M200.67,505l-.14-36.43,5.57,0,23,28h-2.76l-.11-28.1,6.67,0,.14,36.42-5.57,0-22.9-28h2.75l.11,28.1Z"/><path class="cls-2" d="M257,505.3a27.1,27.1,0,0,1-8.15-1.19A18.7,18.7,0,0,1,242.6,501l2.32-5.27a18.82,18.82,0,0,0,5.42,2.84,19.51,19.51,0,0,0,6.62,1.12,14.36,14.36,0,0,0,4.63-.64,5.56,5.56,0,0,0,2.59-1.7,3.82,3.82,0,0,0,.82-2.43,3.31,3.31,0,0,0-1.2-2.67,8.84,8.84,0,0,0-3.11-1.6c-1.26-.4-2.67-.75-4.21-1.08s-3.1-.72-4.64-1.2a21,21,0,0,1-4.25-1.83,8.34,8.34,0,0,1-4.3-7.77,9.92,9.92,0,0,1,1.57-5.44,11,11,0,0,1,4.82-4,20.07,20.07,0,0,1,8.25-1.51,25.67,25.67,0,0,1,6.5.81,18.44,18.44,0,0,1,5.63,2.37L268,476.27a20.08,20.08,0,0,0-5.06-2.14,19,19,0,0,0-5-.68,13.08,13.08,0,0,0-4.53.69A5.51,5.51,0,0,0,250.8,476a4.11,4.11,0,0,0-.79,2.47,3.34,3.34,0,0,0,1.18,2.68,8.22,8.22,0,0,0,3.07,1.57c1.27.38,2.69.74,4.25,1.08s3.11.74,4.63,1.21a20.09,20.09,0,0,1,4.23,1.8,8.88,8.88,0,0,1,3.1,3,8.51,8.51,0,0,1,1.19,4.7,9.76,9.76,0,0,1-1.56,5.39,11,11,0,0,1-4.85,4A20.23,20.23,0,0,1,257,505.3Z"/><path class="cls-2" d="M288,504.66l-6.76,0-.14-36.43,26.59-.1,0,5.72-19.82.08ZM287.45,485l18.11-.07,0,5.62-18.11.07Z"/><path class="cls-2" d="M333.94,505a21.35,21.35,0,0,1-7.83-1.37,18.82,18.82,0,0,1-6.29-3.93,18.09,18.09,0,0,1-4.13-5.94,18.68,18.68,0,0,1-1.49-7.41,18.89,18.89,0,0,1,1.43-7.48,17.88,17.88,0,0,1,4.09-5.95A19.19,19.19,0,0,1,326,469a21.24,21.24,0,0,1,7.85-1.43,21.83,21.83,0,0,1,7.81,1.34,18.64,18.64,0,0,1,6.24,3.88,17.94,17.94,0,0,1,4.1,5.95,19.89,19.89,0,0,1,.06,15,18.05,18.05,0,0,1-10.26,9.92A21.64,21.64,0,0,1,333.94,505Zm0-5.93a13.66,13.66,0,0,0,5.07-.95,12.08,12.08,0,0,0,6.69-6.74,13.54,13.54,0,0,0,.94-5.16,13.84,13.84,0,0,0-.95-5.15A11.84,11.84,0,0,0,343,477a12.14,12.14,0,0,0-4.07-2.63,13.35,13.35,0,0,0-5.08-.92,13.87,13.87,0,0,0-5.12.95,11.6,11.6,0,0,0-4.07,2.7,13,13,0,0,0-2.69,4.07,13.71,13.71,0,0,0,0,10.23,12.92,12.92,0,0,0,2.72,4.07,11.54,11.54,0,0,0,4.09,2.66A13.71,13.71,0,0,0,333.92,499.07Z"/><path class="cls-2" d="M363.55,504.37l-.14-36.43,15-.06a20.36,20.36,0,0,1,8.31,1.51,11.86,11.86,0,0,1,5.35,4.43,12.64,12.64,0,0,1,1.9,7,12.29,12.29,0,0,1-1.85,6.88,12.13,12.13,0,0,1-5.32,4.44,20.15,20.15,0,0,1-8.29,1.6l-11.19,0,2.95-3,.06,13.63Zm6.72-12.93-3-3.27,10.87,0c3,0,5.23-.66,6.74-1.95a7.46,7.46,0,0,0,0-10.7q-2.28-1.89-6.75-1.87l-10.88,0,3-3.34Zm17.12,12.84-9.27-13.18,7.24,0,9.31,13.18Z"/><path class="cls-2" d="M404.45,504.21l-.14-36.43,5.57,0,16,26.53H423l15.56-26.65,5.56,0,.25,36.43-6.51,0-.1-26.38h1.3L425.93,500h-3.07l-13.62-22.22h1.57l.1,26.39Z"/><path class="cls-2" d="M451.86,504l16.25-36.49,6.66,0,16.59,36.37-7.13,0-14.18-32.78h2.71l-14,32.89Zm7.52-8.46,1.85-5.32,19.62-.07,1.84,5.3Z"/><path class="cls-2" d="M516.08,503.78l-.14-36.43,6.76,0,.14,36.42Z"/><path class="cls-2" d="M546.83,504.18a27,27,0,0,1-8.14-1.19,18.57,18.57,0,0,1-6.24-3.12l2.33-5.27a18.69,18.69,0,0,0,5.42,2.84,19.46,19.46,0,0,0,6.61,1.12,14.32,14.32,0,0,0,4.63-.64,5.6,5.6,0,0,0,2.6-1.7,3.85,3.85,0,0,0,.82-2.42,3.34,3.34,0,0,0-1.21-2.68,8.79,8.79,0,0,0-3.1-1.6c-1.27-.39-2.67-.75-4.22-1.08s-3.09-.72-4.64-1.2a20.86,20.86,0,0,1-4.24-1.83,8.32,8.32,0,0,1-4.3-7.77,9.75,9.75,0,0,1,1.57-5.44,10.9,10.9,0,0,1,4.82-4,19.81,19.81,0,0,1,8.24-1.52,25.69,25.69,0,0,1,6.51.81,18.55,18.55,0,0,1,5.63,2.37l-2.11,5.26a20.61,20.61,0,0,0-5.06-2.14,19.06,19.06,0,0,0-5-.68,13,13,0,0,0-4.52.69,5.46,5.46,0,0,0-2.57,1.81,4.13,4.13,0,0,0-.8,2.48A3.38,3.38,0,0,0,541,480a8.43,8.43,0,0,0,3.08,1.58c1.27.37,2.68.73,4.24,1.07s3.11.74,4.64,1.21a19.79,19.79,0,0,1,4.22,1.8,8.91,8.91,0,0,1,3.11,3,8.62,8.62,0,0,1,1.19,4.7,9.77,9.77,0,0,1-1.57,5.39,10.89,10.89,0,0,1-4.85,4A20.17,20.17,0,0,1,546.83,504.18Z"/><path class="cls-2" d="M582.43,504a26.49,26.49,0,0,1-8.15-1.19,18.33,18.33,0,0,1-6.23-3.12l2.32-5.27a18.82,18.82,0,0,0,5.42,2.84,19.51,19.51,0,0,0,6.62,1.12,14.09,14.09,0,0,0,4.63-.64,5.56,5.56,0,0,0,2.59-1.7,3.86,3.86,0,0,0,.83-2.42,3.38,3.38,0,0,0-1.21-2.68,9,9,0,0,0-3.1-1.6c-1.27-.39-2.68-.75-4.22-1.08s-3.1-.72-4.64-1.2a21,21,0,0,1-4.25-1.83,8.79,8.79,0,0,1-3.11-3,9,9,0,0,1-1.19-4.79,9.94,9.94,0,0,1,1.57-5.44,10.9,10.9,0,0,1,4.82-4,20.06,20.06,0,0,1,8.25-1.52,25.8,25.8,0,0,1,6.51.81,19,19,0,0,1,5.62,2.37L593.4,475a19.81,19.81,0,0,0-5-2.14,19.14,19.14,0,0,0-5-.69,12.83,12.83,0,0,0-4.53.7,5.5,5.5,0,0,0-2.57,1.8,4.14,4.14,0,0,0-.79,2.48,3.32,3.32,0,0,0,1.18,2.67,8.23,8.23,0,0,0,3.07,1.58c1.27.38,2.69.74,4.25,1.07s3.11.75,4.64,1.21a20.23,20.23,0,0,1,4.22,1.8,9.09,9.09,0,0,1,3.11,3,8.64,8.64,0,0,1,1.18,4.7,9.79,9.79,0,0,1-1.56,5.4,10.94,10.94,0,0,1-4.85,4A20,20,0,0,1,582.43,504Z"/><path class="cls-2" d="M623.8,503.88a21.23,21.23,0,0,1-7.84-1.37,18.78,18.78,0,0,1-6.28-3.93,17.87,17.87,0,0,1-4.14-5.94,18.67,18.67,0,0,1-1.48-7.41,18.89,18.89,0,0,1,1.42-7.48,17.88,17.88,0,0,1,4.09-5.94,19.16,19.16,0,0,1,6.23-4,22.78,22.78,0,0,1,15.67-.08,18.38,18.38,0,0,1,6.23,3.88,17.68,17.68,0,0,1,4.11,5.94,20,20,0,0,1,.06,15,18.17,18.17,0,0,1-10.27,9.93A21.75,21.75,0,0,1,623.8,503.88Zm0-5.93a13.27,13.27,0,0,0,5.07-.95,12,12,0,0,0,4-2.67,12.22,12.22,0,0,0,2.66-4.07,13.5,13.5,0,0,0,1-5.16,13.84,13.84,0,0,0-1-5.15,11.87,11.87,0,0,0-2.69-4,12.11,12.11,0,0,0-4.07-2.64,13.35,13.35,0,0,0-5.08-.92,13.84,13.84,0,0,0-5.12,1,11.75,11.75,0,0,0-4.08,2.69,13.39,13.39,0,0,0-2.65,14.3,12.8,12.8,0,0,0,2.72,4.07,11.74,11.74,0,0,0,4.1,2.67A13.91,13.91,0,0,0,623.78,498Z"/><path class="cls-2" d="M359.68,566.83l-.14-36.43,5.57,0,22.95,28h-2.75l-.11-28.1,6.66,0L392,566.7l-5.57,0-22.9-28h2.76l.11,28.1Z"/><path class="cls-2" d="M421.77,567.11a21.4,21.4,0,0,1-7.84-1.38,18.82,18.82,0,0,1-6.29-3.93,18,18,0,0,1-4.13-5.94,18.68,18.68,0,0,1-1.49-7.41,18.89,18.89,0,0,1,1.43-7.48,17.74,17.74,0,0,1,4.09-5.94,19.05,19.05,0,0,1,6.23-4,22.75,22.75,0,0,1,15.66-.08,18.33,18.33,0,0,1,6.24,3.88,17.68,17.68,0,0,1,4.11,5.94,19,19,0,0,1,1.48,7.49,18.7,18.7,0,0,1-1.43,7.47,18.11,18.11,0,0,1-10.26,9.93A21.76,21.76,0,0,1,421.77,567.11Zm0-5.94a13.27,13.27,0,0,0,5.07-.95,11.93,11.93,0,0,0,4-2.67,12.22,12.22,0,0,0,2.66-4.07,13.31,13.31,0,0,0,.94-5.16,13.64,13.64,0,0,0-.95-5.15,11.76,11.76,0,0,0-2.7-4,12.07,12.07,0,0,0-4.07-2.64,13.29,13.29,0,0,0-5.07-.92,13.93,13.93,0,0,0-5.13,1,11.81,11.81,0,0,0-4.07,2.69,13.06,13.06,0,0,0-2.69,4.07,12.78,12.78,0,0,0-1,5.13,13,13,0,0,0,1,5.1,12.69,12.69,0,0,0,2.72,4.07,11.7,11.7,0,0,0,4.09,2.67A14,14,0,0,0,421.74,561.17Z"/><path class="cls-2" d="M462.67,567a27.1,27.1,0,0,1-8.15-1.19,18.52,18.52,0,0,1-6.23-3.13l2.32-5.26a19.07,19.07,0,0,0,5.42,2.84,19.76,19.76,0,0,0,6.62,1.12,14.32,14.32,0,0,0,4.63-.64,5.57,5.57,0,0,0,2.59-1.71,3.86,3.86,0,0,0,.83-2.42,3.35,3.35,0,0,0-1.21-2.67,8.89,8.89,0,0,0-3.1-1.61c-1.27-.39-2.68-.75-4.22-1.07s-3.09-.73-4.64-1.21a21,21,0,0,1-4.25-1.83,8.28,8.28,0,0,1-4.29-7.76,9.88,9.88,0,0,1,1.56-5.45,10.94,10.94,0,0,1,4.83-4,19.82,19.82,0,0,1,8.24-1.51,26.25,26.25,0,0,1,6.51.8,18.81,18.81,0,0,1,5.63,2.38l-2.12,5.26a19.81,19.81,0,0,0-5.05-2.14,19.12,19.12,0,0,0-5-.68,12.62,12.62,0,0,0-4.53.69,5.5,5.5,0,0,0-2.57,1.8,4.14,4.14,0,0,0-.79,2.48,3.36,3.36,0,0,0,1.18,2.68,8.37,8.37,0,0,0,3.07,1.57c1.27.38,2.69.74,4.25,1.08s3.11.74,4.64,1.2a20.26,20.26,0,0,1,4.22,1.81,9,9,0,0,1,3.11,3,8.74,8.74,0,0,1,1.19,4.71,9.85,9.85,0,0,1-1.57,5.39,10.88,10.88,0,0,1-4.85,4A20,20,0,0,1,462.67,567Z"/><path class="cls-2" d="M504.19,566.27l-.14-36.43,5.57,0,16,26.53h-2.92l15.57-26.65,5.56,0,.25,36.42-6.51,0-.1-26.39h1.3l-13.13,22.32H522.6L509,539.87h1.56l.11,26.38Z"/><path class="cls-2" d="M551.6,566.08l16.25-36.49,6.66,0,16.59,36.36L584,566l-14.18-32.78h2.71l-14,32.89Zm7.51-8.46,1.86-5.31,19.62-.08,1.84,5.31Z"/><path class="cls-2" d="M598.59,565.9l-.14-36.42,6.77,0,.14,36.43Z"/><path class="cls-2" d="M629.35,566.3a26.49,26.49,0,0,1-8.15-1.19A18.33,18.33,0,0,1,615,562l2.32-5.27a18.82,18.82,0,0,0,5.42,2.84,19.51,19.51,0,0,0,6.62,1.12A14.09,14.09,0,0,0,634,560a5.56,5.56,0,0,0,2.59-1.7,3.86,3.86,0,0,0,.83-2.42,3.38,3.38,0,0,0-1.21-2.68,9,9,0,0,0-3.1-1.6c-1.27-.39-2.68-.75-4.22-1.08s-3.1-.72-4.64-1.2a21,21,0,0,1-4.25-1.83,8.88,8.88,0,0,1-3.11-3,9,9,0,0,1-1.19-4.79,9.94,9.94,0,0,1,1.57-5.44,10.9,10.9,0,0,1,4.82-4,19.89,19.89,0,0,1,8.25-1.52,25.8,25.8,0,0,1,6.51.81,19,19,0,0,1,5.62,2.37l-2.11,5.27a20.2,20.2,0,0,0-5.05-2.15,19.55,19.55,0,0,0-5-.68,12.83,12.83,0,0,0-4.53.7,5.43,5.43,0,0,0-2.57,1.8,4.12,4.12,0,0,0-.79,2.48,3.32,3.32,0,0,0,1.18,2.67,8.23,8.23,0,0,0,3.07,1.58c1.27.38,2.69.73,4.25,1.07s3.11.75,4.64,1.21a20.23,20.23,0,0,1,4.22,1.8,9.09,9.09,0,0,1,3.11,3,8.64,8.64,0,0,1,1.18,4.7,9.79,9.79,0,0,1-1.56,5.4,10.94,10.94,0,0,1-4.85,4A20,20,0,0,1,629.35,566.3Z"/><path class="cls-2" d="M64.13,630.41,64,594l16-.06a22.62,22.62,0,0,1,10.34,2.22,16.82,16.82,0,0,1,7,6.35,19.59,19.59,0,0,1,.08,19.15,16.83,16.83,0,0,1-7,6.4,22.63,22.63,0,0,1-10.32,2.3Zm6.75-5.75,8.79,0a15.15,15.15,0,0,0,7.1-1.59,11.63,11.63,0,0,0,4.67-4.39A12.54,12.54,0,0,0,93.1,612a12.25,12.25,0,0,0-1.72-6.55,11.64,11.64,0,0,0-4.7-4.3,15.1,15.1,0,0,0-7.11-1.54l-8.79,0Z"/><path class="cls-2" d="M110,630.23l-.14-36.43,6.76,0,.14,36.42Z"/><path class="cls-2" d="M136.21,630.13l-6.77,0-.14-36.42,26.59-.11,0,5.73-19.83.07Zm-.6-19.62,18.11-.07,0,5.62-18.11.07Z"/><path class="cls-2" d="M172.19,624.26l20.56-.07,0,5.72-27.32.11-.14-36.43,26.59-.1,0,5.72-19.83.08Zm-.58-15.55,18.11-.07,0,5.57-18.11.07Z"/><path class="cls-2" d="M203.18,629.87,203,593.44l15-.06a20.31,20.31,0,0,1,8.3,1.51,11.88,11.88,0,0,1,5.36,4.43,12.64,12.64,0,0,1,1.9,7,11.65,11.65,0,0,1-7.17,11.32,20.19,20.19,0,0,1-8.29,1.6l-11.19,0,2.95-3,.06,13.63Zm6.72-12.93-3-3.27,10.87,0q4.49,0,6.73-2a7.44,7.44,0,0,0,0-10.7q-2.26-1.89-6.74-1.87l-10.88,0,2.95-3.34ZM227,629.78l-9.27-13.18,7.24,0,9.31,13.18Z"/><path class="cls-2" d="M250.83,624l20.55-.08,0,5.73-27.32.1-.14-36.43,26.6-.1,0,5.73-19.83.07Zm-.58-15.56,18.11-.07,0,5.57-18.11.07Z"/><path class="cls-2" d="M281.81,629.57l-.14-36.43,5.57,0,22.95,28h-2.75l-.11-28.1,6.66,0,.14,36.43-5.57,0-22.9-28h2.76l.11,28.1Z"/><path class="cls-2" d="M334.22,629.36l-.12-30.7-12.08.05,0-5.73,30.91-.12,0,5.73-12.08,0,.12,30.71Z"/><path class="cls-2" d="M367.76,623.51l20.55-.08,0,5.73-27.32.1-.15-36.43,26.6-.1,0,5.72-19.83.08ZM367.18,608l18.11-.07,0,5.57-18.11.07Z"/><path class="cls-2" d="M410,629.59a27.1,27.1,0,0,1-8.15-1.19,18.7,18.7,0,0,1-6.23-3.12L398,620a18.82,18.82,0,0,0,5.42,2.84A19.51,19.51,0,0,0,410,624a14.36,14.36,0,0,0,4.63-.64,5.56,5.56,0,0,0,2.59-1.7,3.82,3.82,0,0,0,.82-2.43,3.31,3.31,0,0,0-1.2-2.67,8.84,8.84,0,0,0-3.11-1.6c-1.26-.4-2.67-.75-4.21-1.08s-3.1-.72-4.64-1.2a21,21,0,0,1-4.25-1.83,8.34,8.34,0,0,1-4.3-7.77,9.92,9.92,0,0,1,1.57-5.44,11,11,0,0,1,4.82-4,20.07,20.07,0,0,1,8.25-1.51,25.67,25.67,0,0,1,6.5.81,18.44,18.44,0,0,1,5.63,2.37L421,600.56a20.17,20.17,0,0,0-5.05-2.14,19.12,19.12,0,0,0-5-.68,13.08,13.08,0,0,0-4.53.69,5.51,5.51,0,0,0-2.57,1.81,4.11,4.11,0,0,0-.79,2.47,3.34,3.34,0,0,0,1.18,2.68,8.14,8.14,0,0,0,3.07,1.57c1.27.38,2.69.74,4.25,1.08s3.11.74,4.63,1.21a20.09,20.09,0,0,1,4.23,1.8,9,9,0,0,1,3.1,3,8.57,8.57,0,0,1,1.19,4.71,9.76,9.76,0,0,1-1.56,5.39,11,11,0,0,1-4.85,4A20.2,20.2,0,0,1,410,629.59Z"/><path class="cls-1" d="M451.56,628.91l-.14-36.43,6.77,0,.12,30.7,19-.07,0,5.72Z"/><path class="cls-1" d="M502,629.24a21.44,21.44,0,0,1-7.84-1.38,18.78,18.78,0,0,1-6.28-3.93,17.87,17.87,0,0,1-4.14-5.94,19.75,19.75,0,0,1-.05-14.88,17.53,17.53,0,0,1,4.09-6,19,19,0,0,1,6.23-4,22.75,22.75,0,0,1,15.66-.08,18.28,18.28,0,0,1,6.23,3.88,17.68,17.68,0,0,1,4.11,5.94,19.89,19.89,0,0,1,.06,15,18.09,18.09,0,0,1-10.27,9.93A21.54,21.54,0,0,1,502,629.24Zm0-5.94a13.27,13.27,0,0,0,5.07-.95,12,12,0,0,0,4-2.67,12.4,12.4,0,0,0,2.67-4.07,13.5,13.5,0,0,0,.94-5.16,13.84,13.84,0,0,0-1-5.15,11.87,11.87,0,0,0-2.69-4,12.42,12.42,0,0,0-4.07-2.64,13.35,13.35,0,0,0-5.08-.92,13.84,13.84,0,0,0-5.12,1,11.75,11.75,0,0,0-4.08,2.69,13.39,13.39,0,0,0-2.65,14.3,12.86,12.86,0,0,0,2.72,4.07,11.74,11.74,0,0,0,4.1,2.67A13.71,13.71,0,0,0,502,623.3Z"/><path class="cls-1" d="M548.67,629.06a21.44,21.44,0,0,1-7.84-1.38,18.78,18.78,0,0,1-6.28-3.93,17.87,17.87,0,0,1-4.14-5.94,19.77,19.77,0,0,1,0-14.89,17.71,17.71,0,0,1,4.08-5.94,19.16,19.16,0,0,1,6.23-4,22.78,22.78,0,0,1,15.67-.08,18.38,18.38,0,0,1,6.23,3.88,17.68,17.68,0,0,1,4.11,5.94,19.14,19.14,0,0,1,1.49,7.49,18.87,18.87,0,0,1-1.43,7.47,18.09,18.09,0,0,1-10.27,9.93A21.54,21.54,0,0,1,548.67,629.06Zm0-5.94a13.27,13.27,0,0,0,5.07-1,12,12,0,0,0,4-2.67,12.4,12.4,0,0,0,2.67-4.07,13.66,13.66,0,0,0,.94-5.16,13.84,13.84,0,0,0-1-5.15,11.87,11.87,0,0,0-2.69-4,12.42,12.42,0,0,0-4.07-2.64,13.35,13.35,0,0,0-5.08-.92,13.84,13.84,0,0,0-5.12,1,11.75,11.75,0,0,0-4.08,2.69,13.39,13.39,0,0,0-2.65,14.3,12.86,12.86,0,0,0,2.72,4.07,11.74,11.74,0,0,0,4.1,2.67A13.71,13.71,0,0,0,548.65,623.12Z"/><path class="cls-1" d="M578.28,628.42,578.14,592l6.76,0L585,628.4Zm6-8.61-.34-8,19-19.9,7.65,0L594.7,608.79,591,612.92Zm19.44,8.51-14.06-16.54,4.51-5,17.52,21.47Z"/><path class="cls-1" d="M629.59,628.74a26.84,26.84,0,0,1-8.15-1.19,18.33,18.33,0,0,1-6.23-3.12l2.32-5.27A18.88,18.88,0,0,0,623,622a19.41,19.41,0,0,0,6.61,1.12,14.05,14.05,0,0,0,4.63-.64,5.51,5.51,0,0,0,2.59-1.7,3.8,3.8,0,0,0,.83-2.42,3.38,3.38,0,0,0-1.21-2.68,8.79,8.79,0,0,0-3.1-1.6c-1.27-.39-2.68-.75-4.22-1.08s-3.09-.72-4.64-1.2A21.19,21.19,0,0,1,620.2,610a8.33,8.33,0,0,1-4.29-7.77,9.85,9.85,0,0,1,1.56-5.44,10.87,10.87,0,0,1,4.83-4,20,20,0,0,1,8.24-1.52,25.69,25.69,0,0,1,6.51.81,19.06,19.06,0,0,1,5.63,2.37l-2.12,5.26a20.38,20.38,0,0,0-5-2.14,19.49,19.49,0,0,0-5-.68,12.83,12.83,0,0,0-4.53.7,5.4,5.4,0,0,0-2.56,1.8,4.13,4.13,0,0,0-.8,2.48,3.35,3.35,0,0,0,1.18,2.67,8.2,8.2,0,0,0,3.08,1.58c1.26.37,2.68.73,4.24,1.07s3.11.75,4.64,1.21a20,20,0,0,1,4.22,1.8,9,9,0,0,1,3.11,3,8.71,8.71,0,0,1,1.19,4.7,9.74,9.74,0,0,1-1.57,5.39,10.89,10.89,0,0,1-4.85,4A20,20,0,0,1,629.59,628.74Z"/><path class="cls-1" d="M255.31,692.11l16.25-36.49,6.66,0L294.8,692l-7.13,0L273.5,659.2h2.7l-14,32.89Zm7.51-8.46,1.85-5.32,19.62-.07,1.84,5.3Z"/><path class="cls-1" d="M317.13,692.39q-7.44,0-11.7-4.17T301.14,676l-.08-20.51,6.77,0,.08,20.29q0,5.63,2.45,8.16a10.41,10.41,0,0,0,13.66,0q2.39-2.55,2.36-8.18l-.08-20.29,6.66,0,.08,20.5q0,8-4.19,12.25T317.13,692.39Z"/><path class="cls-1" d="M352.15,691.73,352,661l-12.07.05,0-5.73,30.91-.12,0,5.73-12.07,0,.12,30.7Z"/><path class="cls-1" d="M385.69,685.88l20.56-.08,0,5.73-27.32.1-.14-36.43,26.59-.1,0,5.73-19.82.07Zm-3.46-33.66,7-7.15,5.83,0,7.05,7.11-5.31,0-7.15-6,5,0-7.11,6Zm2.88,18.1,18.11-.07,0,5.57-18.11.07Z"/><path class="cls-1" d="M416.68,691.49l-.14-36.43,5.57,0,22.95,28H442.3l-.11-28.1,6.67,0,.14,36.43-5.57,0-22.9-28h2.75l.11,28.1Z"/><path class="cls-1" d="M469.08,691.28l-.12-30.7-12.07,0,0-5.73,30.91-.12,0,5.73-12.07,0,.12,30.71Z"/><path class="cls-1" d="M495.88,691.18l-.14-36.43,6.77,0,.14,36.42Z"/><path class="cls-1" d="M532.21,691.56a21.2,21.2,0,0,1-7.76-1.35,18.22,18.22,0,0,1-10.29-9.82,20,20,0,0,1-.06-15,18.08,18.08,0,0,1,4.09-5.95,18.63,18.63,0,0,1,6.18-4,22.43,22.43,0,0,1,15.92.1,16.09,16.09,0,0,1,6.26,4.52l-4.35,4.13a13.85,13.85,0,0,0-4.49-3.18,13.21,13.21,0,0,0-5.26-1.05,14.19,14.19,0,0,0-5.23,1,12.22,12.22,0,0,0-4.1,2.67,12.35,12.35,0,0,0-2.71,4.07,12.91,12.91,0,0,0-1,5.15,13.07,13.07,0,0,0,1,5.15,12.39,12.39,0,0,0,2.74,4.05,12.18,12.18,0,0,0,4.13,2.64,14.19,14.19,0,0,0,5.23.92,13,13,0,0,0,5.25-1.09,13.4,13.4,0,0,0,4.46-3.27l4.39,4.09a16.41,16.41,0,0,1-6.23,4.61A20.87,20.87,0,0,1,532.21,691.56Z"/><path class="cls-1" d="M572.33,691.4a21.23,21.23,0,0,1-7.84-1.37,18.78,18.78,0,0,1-6.28-3.93,17.87,17.87,0,0,1-4.14-5.94,19.77,19.77,0,0,1-.05-14.89,17.71,17.71,0,0,1,4.08-5.94,19.16,19.16,0,0,1,6.23-4,22.78,22.78,0,0,1,15.67-.08,18.51,18.51,0,0,1,6.23,3.87,17.82,17.82,0,0,1,4.11,6,19,19,0,0,1,1.48,7.49,18.7,18.7,0,0,1-1.42,7.47A18.17,18.17,0,0,1,580.13,690,21.75,21.75,0,0,1,572.33,691.4Zm0-5.93a13.27,13.27,0,0,0,5.07-1,12,12,0,0,0,4-2.67,12.22,12.22,0,0,0,2.66-4.07,13.54,13.54,0,0,0,1-5.16,13.84,13.84,0,0,0-1-5.15,11.8,11.8,0,0,0-2.7-4.05,12.1,12.1,0,0,0-4.06-2.63,13.35,13.35,0,0,0-5.08-.92,13.84,13.84,0,0,0-5.12,1,11.75,11.75,0,0,0-4.08,2.69,13.39,13.39,0,0,0-2.65,14.3,12.8,12.8,0,0,0,2.72,4.07,11.74,11.74,0,0,0,4.1,2.67A13.91,13.91,0,0,0,572.31,685.47Z"/><path class="cls-1" d="M613.23,691.25a27.15,27.15,0,0,1-8.15-1.19,18.61,18.61,0,0,1-6.23-3.13l2.32-5.26a19.14,19.14,0,0,0,5.43,2.84,19.7,19.7,0,0,0,6.61,1.12,14.32,14.32,0,0,0,4.63-.64,5.61,5.61,0,0,0,2.6-1.71,3.85,3.85,0,0,0,.82-2.42,3.35,3.35,0,0,0-1.21-2.67,8.8,8.8,0,0,0-3.1-1.61c-1.27-.39-2.68-.75-4.22-1.07s-3.09-.73-4.64-1.21a20.86,20.86,0,0,1-4.24-1.83,8.71,8.71,0,0,1-3.11-3,8.89,8.89,0,0,1-1.19-4.78,9.86,9.86,0,0,1,1.56-5.45,11,11,0,0,1,4.83-4,20,20,0,0,1,8.24-1.52,26.63,26.63,0,0,1,6.51.81,19.06,19.06,0,0,1,5.63,2.37l-2.11,5.27a19.87,19.87,0,0,0-5.06-2.14,19.06,19.06,0,0,0-5-.68,12.53,12.53,0,0,0-4.52.69,5.45,5.45,0,0,0-2.57,1.8,4.15,4.15,0,0,0-.8,2.48,3.35,3.35,0,0,0,1.18,2.67,8.2,8.2,0,0,0,3.08,1.58c1.26.38,2.68.74,4.24,1.08s3.11.74,4.64,1.2a20,20,0,0,1,4.22,1.81,8.89,8.89,0,0,1,3.11,2.95,8.74,8.74,0,0,1,1.19,4.71,9.77,9.77,0,0,1-1.57,5.39,10.88,10.88,0,0,1-4.85,4A20.19,20.19,0,0,1,613.23,691.25Z"/><path class="cls-1" d="M640.08,691a4.22,4.22,0,0,1-4.33-4.36,4,4,0,0,1,1.24-3.1,4.29,4.29,0,0,1,3.06-1.18,4.14,4.14,0,0,1,3,1.16,4,4,0,0,1,1.26,3.09,4.19,4.19,0,0,1-1.23,3.15A4.13,4.13,0,0,1,640.08,691Z"/><g id="E_QUER_SABER" data-name="E QUER SABER"><path d="M95.78,103.25l25.24-.08,0,10.62-38.69.12-.15-48.28L120,65.52l0,10.62-24.34.07Zm-1-19,22.41-.07,0,10.14-22.41.07Z"/><path d="M173.06,114.59a29.74,29.74,0,0,1-10.66-1.83,25,25,0,0,1-8.54-5.25,24.67,24.67,0,0,1-5.64-8,25.43,25.43,0,0,1-.06-20,24.71,24.71,0,0,1,14.09-13.29,31.48,31.48,0,0,1,21.35-.07,25.78,25.78,0,0,1,8.53,5.22,23.79,23.79,0,0,1,5.65,7.91,26.28,26.28,0,0,1,.06,20.11,23.8,23.8,0,0,1-5.59,8,25.81,25.81,0,0,1-8.51,5.27A29.81,29.81,0,0,1,173.06,114.59Zm0-11.31a13.41,13.41,0,0,0,5.14-1,11.85,11.85,0,0,0,4.13-2.81A13.08,13.08,0,0,0,185,95.11a16.41,16.41,0,0,0,0-11.31,13.16,13.16,0,0,0-2.77-4.37,11.71,11.71,0,0,0-4.15-2.78,14.17,14.17,0,0,0-10.28,0,12.27,12.27,0,0,0-4.16,2.8,12.46,12.46,0,0,0-2.74,4.39,17.05,17.05,0,0,0,0,11.31,12.41,12.41,0,0,0,2.77,4.37,12.24,12.24,0,0,0,4.18,2.78A13.46,13.46,0,0,0,173,103.28Zm15.87,22a24.7,24.7,0,0,1-5.83-.63,20.67,20.67,0,0,1-5.29-2.09,31.71,31.71,0,0,1-5.35-3.92q-2.8-2.46-6.26-6.11l14.26-3.63a33.72,33.72,0,0,0,3.12,4,8.38,8.38,0,0,0,2.73,2.06,7.1,7.1,0,0,0,2.86.58,10,10,0,0,0,7.3-3.47l6,7.15Q197.44,125.21,188.89,125.23Z"/><path d="M229.34,114.42q-10.69,0-16.68-5.81t-6-16.54l-.09-26.82,13.66,0,.08,26.42c0,4.09.83,7,2.44,8.82a9.63,9.63,0,0,0,13.35,0q2.37-2.7,2.35-8.84l-.09-26.41,13.52,0L252,91.93q0,10.69-6,16.57T229.34,114.42Z"/><path d="M274.75,102.69l25.24-.08,0,10.62-38.69.12-.15-48.27L299,65l0,10.62-24.35.07Zm-1-19,22.42-.07,0,10.14-22.41.07Z"/><path d="M307.68,113.21l-.15-48.28,22-.07A28.07,28.07,0,0,1,341,67a16.4,16.4,0,0,1,7.44,6.15A17.17,17.17,0,0,1,351,82.59a17,17,0,0,1-2.55,9.53,16.54,16.54,0,0,1-7.4,6,28.31,28.31,0,0,1-11.44,2.14l-14.48,0,6.12-5.82.05,18.63Zm13.6-17.08-6.16-6.32,13.66,0c2.85,0,5-.63,6.41-1.88a7.36,7.36,0,0,0,0-10.38c-1.42-1.26-3.56-1.88-6.42-1.88l-13.65,0,6.12-6.3Zm16.19,17L325.42,95.57l14.55,0,12.12,17.55Z"/><path d="M395.68,113.9a43.81,43.81,0,0,1-11.49-1.45,29.76,29.76,0,0,1-8.87-3.73l4.45-10.15a31.74,31.74,0,0,0,7.5,3.39,27.68,27.68,0,0,0,8.45,1.32,17.23,17.23,0,0,0,4.58-.5,5.13,5.13,0,0,0,2.48-1.38,3.14,3.14,0,0,0,.79-2.15A2.85,2.85,0,0,0,402,96.74a14.83,14.83,0,0,0-4-1.57q-2.44-.65-5.31-1.23a52,52,0,0,1-5.84-1.53,22.21,22.21,0,0,1-5.38-2.54,12.06,12.06,0,0,1-3.91-4.12,12.49,12.49,0,0,1-1.5-6.41,13.71,13.71,0,0,1,2.32-7.8,16.21,16.21,0,0,1,7.08-5.68,29,29,0,0,1,11.86-2.17,40.67,40.67,0,0,1,9.35,1,27.36,27.36,0,0,1,8.11,3.18L410.74,78a29.9,29.9,0,0,0-6.83-2.81,25.42,25.42,0,0,0-6.56-.87,13.83,13.83,0,0,0-4.55.63,5.42,5.42,0,0,0-2.48,1.6,3.3,3.3,0,0,0-.75,2.07,2.9,2.9,0,0,0,1.53,2.58,13.45,13.45,0,0,0,3.93,1.5c1.61.39,3.4.79,5.35,1.19a57.56,57.56,0,0,1,5.83,1.54,23.38,23.38,0,0,1,5.36,2.46,12.36,12.36,0,0,1,4,4.06,12.15,12.15,0,0,1,1.53,6.31,13.62,13.62,0,0,1-2.35,7.76,16.34,16.34,0,0,1-7.12,5.71A29,29,0,0,1,395.68,113.9Z"/><path d="M417.54,112.87,438.7,64.52l13.45,0,21.53,48.21-14.21,0L442.65,71.2l5.38,0-16.56,41.64Zm11.63-9.49,3.48-10,23.59-.07,3.55,10Z"/><path d="M477.61,112.68l-.15-48.28L502,64.33q9.58,0,14.29,3.47A10.88,10.88,0,0,1,521,76.89a11.34,11.34,0,0,1-1.91,6.56,12.72,12.72,0,0,1-5.51,4.43,20.71,20.71,0,0,1-8.41,1.61l1.3-3.31a23.39,23.39,0,0,1,8.87,1.52,13.11,13.11,0,0,1,5.95,4.5,12,12,0,0,1,2.12,7.1,11.18,11.18,0,0,1-5,9.74q-5.05,3.52-14.85,3.56Zm13.42-9.9,11.45,0a9.69,9.69,0,0,0,5.37-1.22,4.7,4.7,0,0,0,0-7.38A9.69,9.69,0,0,0,502.45,93L490,93l0-9.45,10.35,0a9.25,9.25,0,0,0,5.17-1.18,4.42,4.42,0,0,0,0-7,9.45,9.45,0,0,0-5.18-1.12l-9.38,0Z"/><path d="M544.06,101.85l25.24-.08,0,10.62-38.69.13-.15-48.28,37.79-.12,0,10.62L544,74.82Zm-1-19,22.41-.07,0,10.14L543.07,93Z"/><path d="M577,112.37l-.15-48.28,22-.06a28,28,0,0,1,11.46,2.1,16.37,16.37,0,0,1,7.43,6.15,17.26,17.26,0,0,1,2.62,9.47,16.93,16.93,0,0,1-2.56,9.53,16.48,16.48,0,0,1-7.4,6A28.27,28.27,0,0,1,599,99.47l-14.48,0,6.12-5.81.06,18.62Zm13.6-17.08L584.44,89l13.65,0q4.27,0,6.41-1.89a7.37,7.37,0,0,0,0-10.38q-2.15-1.89-6.42-1.87l-13.66,0,6.12-6.29Zm16.2,17L594.73,94.73l14.55,0,12.13,17.55Z"/><path d="M637.35,94.6a10.4,10.4,0,0,1,.71-4,13.93,13.93,0,0,1,1.82-3.14,20.94,20.94,0,0,1,2.37-2.59l2.38-2.22a11.77,11.77,0,0,0,1.82-2.18,4.29,4.29,0,0,0,.71-2.38,3.74,3.74,0,0,0-1.7-3.2,7.34,7.34,0,0,0-4.38-1.19,9.75,9.75,0,0,0-5,1.32,10.29,10.29,0,0,0-3.61,3.6L622.18,73.2A20.32,20.32,0,0,1,630,65.76q5-2.82,12.75-2.84a27.3,27.3,0,0,1,9.38,1.46,14.3,14.3,0,0,1,6.43,4.36,10.91,10.91,0,0,1,2.37,7.09,12.52,12.52,0,0,1-.78,4.7A11.59,11.59,0,0,1,658,84.05a38.12,38.12,0,0,1-2.71,2.8c-.92.85-1.82,1.67-2.72,2.46a11.46,11.46,0,0,0-2.13,2.42,5.13,5.13,0,0,0-.78,2.83Zm6.2,18.19a7.71,7.71,0,0,1-5.63-2.13,6.93,6.93,0,0,1-2.19-5.09,6.63,6.63,0,0,1,2.16-5.08,7.89,7.89,0,0,1,5.61-2,8,8,0,0,1,5.7,2,6.68,6.68,0,0,1,2.19,5.06,7,7,0,0,1-2.16,5.11A7.77,7.77,0,0,1,643.55,112.79Z"/></g></g></g></g></svg>