<svg xmlns="http://www.w3.org/2000/svg" viewBox="0 0 1138.31 1080.88"><defs><style>.cls-1{fill:#ececed;}</style></defs><title>6</title><g id="Camada_2" data-name="Camada 2"><g id="Camada_1-2" data-name="Camada 1"><g id="nosso_estilo_" data-name="nosso estilo?"><rect class="cls-1" y="492.7" width="1133.4" height="228.78"/><path class="cls-1" d="M94.48,384h-7.6v-53.2h7.6Zm31.23-23.71h-32v-6.61h32ZM125,330.75h7.6V384H125Z" transform="translate(0 -18.26)"/><path class="cls-1" d="M173.44,384.56a30.44,30.44,0,0,1-11.28-2.05,27,27,0,0,1-9-5.74,26.5,26.5,0,0,1-5.93-8.62,28.42,28.42,0,0,1,0-21.59,26.5,26.5,0,0,1,5.93-8.62,27,27,0,0,1,9-5.74,30.35,30.35,0,0,1,11.32-2.05,30.77,30.77,0,0,1,11.25,2,26.53,26.53,0,0,1,9,5.7,26.15,26.15,0,0,1,5.89,8.66,29.21,29.21,0,0,1,0,21.7,26.13,26.13,0,0,1-5.89,8.63,26.53,26.53,0,0,1-9,5.7A30.77,30.77,0,0,1,173.44,384.56Zm0-6.76a21.67,21.67,0,0,0,8.17-1.52,19.38,19.38,0,0,0,6.54-4.3,20,20,0,0,0,4.33-6.49,20.9,20.9,0,0,0,1.56-8.14,20.34,20.34,0,0,0-5.89-14.59,19.16,19.16,0,0,0-6.54-4.33,22.91,22.91,0,0,0-16.41,0,19.62,19.62,0,0,0-6.58,4.33,20.15,20.15,0,0,0-5.93,14.59,20.9,20.9,0,0,0,1.56,8.14,19.77,19.77,0,0,0,10.95,10.79A21.81,21.81,0,0,0,173.44,377.8Z" transform="translate(0 -18.26)"/><path class="cls-1" d="M219.8,384.56a20.11,20.11,0,0,1-8.81-2,17,17,0,0,1-6.69-5.7l4.41-5.17a16.55,16.55,0,0,0,5,4.67A11.84,11.84,0,0,0,219.8,378q9.12,0,9.12-10.8V337.37H209.69v-6.62h26.76v36.1q0,8.89-4.22,13.3T219.8,384.56Z" transform="translate(0 -18.26)"/><path class="cls-1" d="M260.39,377.34h31V384h-38.6v-53.2h37.54v6.62H260.39Zm-.69-23.63h27.36v6.46H259.7Z" transform="translate(0 -18.26)"/><path class="cls-1" d="M349.84,384.56a31,31,0,0,1-11.33-2,26.4,26.4,0,0,1-14.89-14.33,28.78,28.78,0,0,1,0-21.73,26.17,26.17,0,0,1,6-8.63,26.9,26.9,0,0,1,9-5.7,33.45,33.45,0,0,1,23,0,22.87,22.87,0,0,1,8.89,6.15l-4.71,4.72a21.06,21.06,0,0,0-7.1-4.68,22.91,22.91,0,0,0-8.33-1.48,23.26,23.26,0,0,0-8.47,1.52,20,20,0,0,0-6.76,4.26,18.83,18.83,0,0,0-4.41,6.49,22,22,0,0,0,0,16.27,19.18,19.18,0,0,0,4.41,6.53,19.85,19.85,0,0,0,6.72,4.3,23,23,0,0,0,8.44,1.52,25.16,25.16,0,0,0,8.17-1.33,20.22,20.22,0,0,0,7.26-4.45L370,377.8a27.06,27.06,0,0,1-9.24,5.05A35.14,35.14,0,0,1,349.84,384.56Zm12.84-7.75V357.05H370V377.8Z" transform="translate(0 -18.26)"/><path class="cls-1" d="M385.33,384v-53.2h20.75A29.18,29.18,0,0,1,418,333a17,17,0,0,1,7.6,6.38,18.2,18.2,0,0,1,2.66,10,18,18,0,0,1-2.66,9.92,17,17,0,0,1-7.6,6.34,29.18,29.18,0,0,1-11.93,2.21H389.51l3.42-3.5V384Zm7.6-18.92-3.42-3.72h16.34q7.29,0,11.06-3.16a10.93,10.93,0,0,0,3.76-8.85q0-5.7-3.76-8.82t-11.06-3.11H389.51l3.42-3.8Zm28,18.92-13.53-19.3h8.13L429.18,384Z" transform="translate(0 -18.26)"/><path class="cls-1" d="M463.45,384.56q-10.49,0-16.49-6T441,361V330.75h7.6V360.7q0,8.9,3.91,13t11.06,4.11c4.81,0,8.53-1.37,11.13-4.11s3.92-7.06,3.92-13V330.75H486V361q0,11.55-6,17.56T463.45,384.56Z" transform="translate(0 -18.26)"/><path class="cls-1" d="M502.37,384v-53.2h6.23l35.19,43.7h-3.27v-43.7h7.6V384h-6.23l-35.19-43.7H510V384Z" transform="translate(0 -18.26)"/><path class="cls-1" d="M588.93,384.56a31,31,0,0,1-11.32-2,26.38,26.38,0,0,1-14.9-14.33,28.78,28.78,0,0,1,0-21.73,26.2,26.2,0,0,1,6-8.63,26.86,26.86,0,0,1,9-5.7,33.45,33.45,0,0,1,23,0,23,23,0,0,1,8.9,6.15l-4.72,4.72a21,21,0,0,0-7.1-4.68,22.89,22.89,0,0,0-8.32-1.48,23.31,23.31,0,0,0-8.48,1.52,20,20,0,0,0-6.76,4.26,19,19,0,0,0-4.41,6.49,22,22,0,0,0,0,16.27,19.33,19.33,0,0,0,4.41,6.53,20,20,0,0,0,6.72,4.3,23,23,0,0,0,8.44,1.52,25.12,25.12,0,0,0,8.17-1.33,20.14,20.14,0,0,0,7.26-4.45l4.33,5.78a26.92,26.92,0,0,1-9.23,5.05A35.25,35.25,0,0,1,588.93,384.56Zm12.84-7.75V357.05h7.3V377.8Z" transform="translate(0 -18.26)"/><path class="cls-1" d="M632,377.34h31V384H624.42v-53.2H662v6.62H632Zm-.68-23.63H658.7v6.46H631.34Z" transform="translate(0 -18.26)"/><path class="cls-1" d="M673,395.2l3.8-15.35,1,4.41a5.23,5.23,0,0,1-3.68-1.37,4.8,4.8,0,0,1-1.48-3.72A5,5,0,0,1,677.7,374a4.62,4.62,0,0,1,3.57,1.48,5.25,5.25,0,0,1,1.37,3.69,9,9,0,0,1-.12,1.48,13.16,13.16,0,0,1-.38,1.67c-.17.63-.44,1.41-.79,2.32l-3.58,10.56Z" transform="translate(0 -18.26)"/><path class="cls-1" d="M708.25,384l24.09-53.2h7.52L764,384h-8L734.54,335h3L716.08,384Zm10.26-13.3,2-6.08H750.5l2.21,6.08Z" transform="translate(0 -18.26)"/><path class="cls-1" d="M772.77,384v-53.2H779L802.87,371h-3.35l23.56-40.21h6.24l.07,53.2H822.1L822,342.23h1.75l-21,35.26H799.3l-21.13-35.26h1.9V384Z" transform="translate(0 -18.26)"/><path class="cls-1" d="M838.13,384l24.09-53.2h7.53L893.91,384h-8L864.43,335h3L846,384Zm10.26-13.3,2.05-6.08h29.95l2.2,6.08Z" transform="translate(0 -18.26)"/><path class="cls-1" d="M902.66,384v-53.2h6.23l35.19,43.7h-3.27v-43.7h7.6V384h-6.24L907,340.25h3.26V384Z" transform="translate(0 -18.26)"/><path class="cls-1" d="M972.8,384h-7.6v-53.2h7.6ZM1004,360.24H972v-6.61h32Zm-.69-29.49h7.6V384h-7.6Z" transform="translate(0 -18.26)"/><path class="cls-1" d="M1019.69,384l24.1-53.2h7.52l24.17,53.2h-8L1046,335h3L1027.52,384Zm10.26-13.3,2.06-6.08H1062l2.2,6.08Zm23-44.46a6.62,6.62,0,0,1-3.23-.76,12.91,12.91,0,0,1-2.55-1.78,24.79,24.79,0,0,0-2.2-1.79,3.7,3.7,0,0,0-2.13-.76,3.3,3.3,0,0,0-2.7,1.26,6,6,0,0,0-1.18,3.45h-4.1a11.29,11.29,0,0,1,2.13-6.76,6.42,6.42,0,0,1,5.32-2.51,6.64,6.64,0,0,1,3.26.8,13.76,13.76,0,0,1,2.59,1.82c.76.69,1.48,1.28,2.16,1.79a3.49,3.49,0,0,0,4.83-.46,5.18,5.18,0,0,0,1.14-3.34h4.1a10.42,10.42,0,0,1-2.09,6.54A6.5,6.5,0,0,1,1052.91,326.19Z" transform="translate(0 -18.26)"/><path class="cls-1" d="M24.1,475.15V422h7.6v53.2Z" transform="translate(0 -18.26)"/><path class="cls-1" d="M48.5,475.15V422h6.23l35.19,43.7H86.65V422h7.6v53.2H88l-35.19-43.7H56.1v43.7Z" transform="translate(0 -18.26)"/><path class="cls-1" d="M111.05,475.15V422h22.42a32.38,32.38,0,0,1,15,3.35,24.61,24.61,0,0,1,10.1,9.35,28.58,28.58,0,0,1,0,27.81,24.68,24.68,0,0,1-10.1,9.35,32.38,32.38,0,0,1-15,3.34Zm7.6-6.61H133A24.41,24.41,0,0,0,144.45,466a18.14,18.14,0,0,0,7.48-7,21.92,21.92,0,0,0,0-20.93,18.33,18.33,0,0,0-7.48-7,24.53,24.53,0,0,0-11.44-2.5H118.65Z" transform="translate(0 -18.26)"/><path class="cls-1" d="M174.66,475.15V422h7.6v53.2Z" transform="translate(0 -18.26)"/><path class="cls-1" d="M206.65,468.54h31v6.61H199.05V422H236.6v6.62H206.65ZM206,444.91h27.36v6.46H206Z" transform="translate(0 -18.26)"/><path class="cls-1" d="M279.69,468.54h31v6.61H272.09V422h37.54v6.62H279.69ZM279,444.91h27.36v6.46H279Z" transform="translate(0 -18.26)"/><path class="cls-1" d="M360.63,475.76A36.37,36.37,0,0,1,349,473.9a23.75,23.75,0,0,1-8.74-4.83l2.81-5.92a24.62,24.62,0,0,0,7.76,4.4,27.81,27.81,0,0,0,9.8,1.75,22.11,22.11,0,0,0,7.52-1.06,8.92,8.92,0,0,0,4.26-2.93,7,7,0,0,0,1.37-4.22,5.74,5.74,0,0,0-1.79-4.4,13.08,13.08,0,0,0-4.63-2.7,51.07,51.07,0,0,0-6.27-1.79c-2.28-.5-4.58-1.1-6.88-1.78a30.71,30.71,0,0,1-6.31-2.63,12.89,12.89,0,0,1-4.6-4.29,12.64,12.64,0,0,1-1.75-7,14,14,0,0,1,2.17-7.56,15,15,0,0,1,6.69-5.54,27.38,27.38,0,0,1,11.51-2.09,35.6,35.6,0,0,1,9.2,1.21,25.61,25.61,0,0,1,7.9,3.5l-2.51,6.08a24.53,24.53,0,0,0-7.22-3.31,28.36,28.36,0,0,0-7.37-1,20.26,20.26,0,0,0-7.37,1.14,9,9,0,0,0-4.22,3,7.19,7.19,0,0,0-1.33,4.25,5.87,5.87,0,0,0,1.79,4.49,12.88,12.88,0,0,0,4.63,2.66,64.54,64.54,0,0,0,6.27,1.78c2.28.53,4.58,1.13,6.88,1.79a29.56,29.56,0,0,1,6.31,2.58,13.07,13.07,0,0,1,4.6,4.26,12.26,12.26,0,0,1,1.75,6.84,13.65,13.65,0,0,1-2.21,7.48,15.23,15.23,0,0,1-6.8,5.55A28,28,0,0,1,360.63,475.76Z" transform="translate(0 -18.26)"/><path class="cls-1" d="M400.76,468.54h31v6.61h-38.6V422H430.7v6.62H400.76Zm-.69-23.63h27.36v6.46H400.07Z" transform="translate(0 -18.26)"/><path class="cls-1" d="M444.91,475.15V422h6.23L475,462.16h-3.35L495.22,422h6.24l.07,53.2h-7.29l-.08-41.72h1.75l-21,35.26h-3.49l-21.13-35.26h1.9v41.72Z" transform="translate(0 -18.26)"/><path class="cls-1" d="M510.27,475.15,534.36,422h7.53l24.17,53.2h-8l-21.51-48.94h3L518.1,475.15Zm10.26-13.3,2.05-6.08h29.95l2.2,6.08Z" transform="translate(0 -18.26)"/><path class="cls-1" d="M574.79,475.15V422H581l35.19,43.7H613V422h7.6v53.2h-6.23l-35.19-43.7h3.27v43.7Z" transform="translate(0 -18.26)"/><path class="cls-1" d="M629.29,475.15,653.38,422h7.52l24.17,53.2h-8l-21.51-48.94h3l-21.5,48.94Zm10.26-13.3,2.05-6.08h29.94l2.21,6.08Z" transform="translate(0 -18.26)"/><path class="cls-1" d="M739.11,475.76a30.46,30.46,0,0,1-11.29-2.05,27.07,27.07,0,0,1-9-5.74,26.43,26.43,0,0,1-5.92-8.62,28.42,28.42,0,0,1,0-21.59,26.32,26.32,0,0,1,5.92-8.62,27.2,27.2,0,0,1,9-5.74,30.41,30.41,0,0,1,11.33-2,30.72,30.72,0,0,1,11.24,2,26.44,26.44,0,0,1,9,5.7,25.85,25.85,0,0,1,5.89,8.66,29.21,29.21,0,0,1,0,21.7,25.83,25.83,0,0,1-5.89,8.63,26.44,26.44,0,0,1-9,5.7A30.72,30.72,0,0,1,739.11,475.76Zm0-6.76a21.71,21.71,0,0,0,8.17-1.52,19.37,19.37,0,0,0,6.53-4.33,20.39,20.39,0,0,0,4.33-6.54,21.78,21.78,0,0,0,0-16.19,19.9,19.9,0,0,0-4.33-6.5,19.41,19.41,0,0,0-6.53-4.29,22.93,22.93,0,0,0-16.42,0,19.71,19.71,0,0,0-10.94,10.79,21.78,21.78,0,0,0,0,16.19,20,20,0,0,0,4.37,6.54,19.63,19.63,0,0,0,6.57,4.33A21.9,21.9,0,0,0,739.11,469Zm17.4,17.25a19.25,19.25,0,0,1-10-2.7,32.52,32.52,0,0,1-5-3.65,74.58,74.58,0,0,1-5.63-5.51l8.14-2.12a35,35,0,0,0,4.37,4.59,14.54,14.54,0,0,0,4.14,2.59,11.28,11.28,0,0,0,4.1.8,12.44,12.44,0,0,0,9.65-4.56l3.58,4.33A16.6,16.6,0,0,1,756.51,486.25Z" transform="translate(0 -18.26)"/><path class="cls-1" d="M801.81,475.76q-10.5,0-16.5-6t-6-17.56V422h7.6V451.9q0,8.89,3.91,13T801.88,469q7.23,0,11.14-4.11t3.91-13V422h7.37V452.2q0,11.55-6,17.56T801.81,475.76Z" transform="translate(0 -18.26)"/><path class="cls-1" d="M848.32,468.54h31v6.61H840.72V422h37.54v6.62H848.32Zm-.69-23.63H875v6.46H847.63Z" transform="translate(0 -18.26)"/><path class="cls-1" d="M929.1,475.15,905.7,422h8.2l21.51,49.1H930.7L952.36,422H960l-23.33,53.2Z" transform="translate(0 -18.26)"/><path class="cls-1" d="M975.16,468.54h31v6.61H967.56V422h37.54v6.62H975.16Zm-.68-23.63h27.36v6.46H974.48Z" transform="translate(0 -18.26)"/><path class="cls-1" d="M1019.32,475.15V422h6.23l23.86,40.21h-3.34L1069.63,422h6.23l.08,53.2h-7.3l-.08-41.72h1.75l-21,35.26h-3.5l-21.13-35.26h1.9v41.72Z" transform="translate(0 -18.26)"/><path class="cls-1" d="M1093.41,475.61a5.12,5.12,0,0,1-5.16-5.24,4.89,4.89,0,0,1,1.52-3.73,5.11,5.11,0,0,1,3.64-1.44,4.91,4.91,0,0,1,3.54,1.44,5,5,0,0,1,1.48,3.73,5.09,5.09,0,0,1-1.48,3.76A4.83,4.83,0,0,1,1093.41,475.61Z" transform="translate(0 -18.26)"/><path class="cls-1" d="M1111.5,475.61a5.12,5.12,0,0,1-5.17-5.24,4.93,4.93,0,0,1,1.52-3.73,5.13,5.13,0,0,1,3.65-1.44,4.91,4.91,0,0,1,3.54,1.44,5,5,0,0,1,1.48,3.73,5.13,5.13,0,0,1-1.48,3.76A4.83,4.83,0,0,1,1111.5,475.61Z" transform="translate(0 -18.26)"/><path class="cls-1" d="M1129.59,475.61a5.12,5.12,0,0,1-5.17-5.24,4.93,4.93,0,0,1,1.52-3.73,5.11,5.11,0,0,1,3.65-1.44,4.87,4.87,0,0,1,3.53,1.44,5,5,0,0,1,1.49,3.73,5.09,5.09,0,0,1-1.49,3.76A4.79,4.79,0,0,1,1129.59,475.61Z" transform="translate(0 -18.26)"/><path class="cls-1" d="M23.88,830.64v-52.1H30l34.46,42.8h-3.2v-42.8h7.44v52.1h-6.1L28.12,787.85h3.2v42.79Z" transform="translate(0 -18.26)"/><path class="cls-1" d="M108.65,831.23a29.91,29.91,0,0,1-11.06-2,26.55,26.55,0,0,1-8.81-5.61A25.93,25.93,0,0,1,83,815.16,27.9,27.9,0,0,1,83,794a25.78,25.78,0,0,1,5.81-8.44A26.38,26.38,0,0,1,97.56,780a29.77,29.77,0,0,1,11.09-2,30.17,30.17,0,0,1,11,2,26.23,26.23,0,0,1,8.78,5.58,25.53,25.53,0,0,1,5.77,8.49,28.53,28.53,0,0,1,0,21.24,25.56,25.56,0,0,1-5.77,8.45,25.92,25.92,0,0,1-8.78,5.58A30,30,0,0,1,108.65,831.23Zm0-6.62a21.05,21.05,0,0,0,8-1.49,19.13,19.13,0,0,0,6.4-4.2,19.58,19.58,0,0,0,4.24-6.37,20.53,20.53,0,0,0,1.52-8,19.89,19.89,0,0,0-5.76-14.29,18.94,18.94,0,0,0-6.4-4.24,22.44,22.44,0,0,0-16.08,0,19.3,19.3,0,0,0-6.44,4.24,20,20,0,0,0-4.28,6.37,20.22,20.22,0,0,0-1.52,7.92,20.53,20.53,0,0,0,1.52,8,19.27,19.27,0,0,0,10.72,10.57A21.24,21.24,0,0,0,108.65,824.61Z" transform="translate(0 -18.26)"/><path class="cls-1" d="M163.64,831.23a35.48,35.48,0,0,1-11.39-1.82,23.25,23.25,0,0,1-8.55-4.72l2.75-5.81A24,24,0,0,0,154,823.2a27.44,27.44,0,0,0,9.6,1.71,21.84,21.84,0,0,0,7.37-1,8.82,8.82,0,0,0,4.17-2.87,6.8,6.8,0,0,0,1.34-4.13,5.67,5.67,0,0,0-1.75-4.32,13,13,0,0,0-4.54-2.64,51.27,51.27,0,0,0-6.14-1.75c-2.24-.49-4.48-1.08-6.74-1.74a30.14,30.14,0,0,1-6.17-2.57,12.66,12.66,0,0,1-4.51-4.21,12.32,12.32,0,0,1-1.71-6.81,13.7,13.7,0,0,1,2.12-7.4,14.73,14.73,0,0,1,6.55-5.43,26.86,26.86,0,0,1,11.28-2,35,35,0,0,1,9,1.19,25.15,25.15,0,0,1,7.74,3.42l-2.46,6a23.77,23.77,0,0,0-7.07-3.24,27.57,27.57,0,0,0-7.21-1,20,20,0,0,0-7.22,1.11,8.78,8.78,0,0,0-4.13,3,7.1,7.1,0,0,0-1.31,4.17,5.75,5.75,0,0,0,1.75,4.39,12.54,12.54,0,0,0,4.54,2.6,60,60,0,0,0,6.14,1.75c2.24.52,4.48,1.1,6.74,1.75a28.49,28.49,0,0,1,6.17,2.53,12.65,12.65,0,0,1,4.51,4.17,12,12,0,0,1,1.71,6.69,13.35,13.35,0,0,1-2.16,7.33,15,15,0,0,1-6.66,5.44A27.57,27.57,0,0,1,163.64,831.23Z" transform="translate(0 -18.26)"/><path class="cls-1" d="M210.67,831.23a35.37,35.37,0,0,1-11.38-1.82,23.3,23.3,0,0,1-8.56-4.72l2.75-5.81a24.21,24.21,0,0,0,7.59,4.32,27.44,27.44,0,0,0,9.6,1.71,21.8,21.8,0,0,0,7.37-1,8.72,8.72,0,0,0,4.17-2.87,6.8,6.8,0,0,0,1.34-4.13,5.67,5.67,0,0,0-1.75-4.32,13,13,0,0,0-4.54-2.64,51.27,51.27,0,0,0-6.14-1.75c-2.23-.49-4.48-1.08-6.73-1.74a30.23,30.23,0,0,1-6.18-2.57,12.63,12.63,0,0,1-4.5-4.21,12.24,12.24,0,0,1-1.72-6.81,13.63,13.63,0,0,1,2.13-7.4,14.64,14.64,0,0,1,6.54-5.43,26.89,26.89,0,0,1,11.28-2,34.93,34.93,0,0,1,9,1.19,25.15,25.15,0,0,1,7.74,3.42l-2.45,6a24,24,0,0,0-7.07-3.24,27.64,27.64,0,0,0-7.22-1,20,20,0,0,0-7.22,1.11,8.83,8.83,0,0,0-4.13,3,7.09,7.09,0,0,0-1.3,4.17,5.72,5.72,0,0,0,1.75,4.39,12.46,12.46,0,0,0,4.54,2.6,59.24,59.24,0,0,0,6.14,1.75q3.34.78,6.73,1.75a28.57,28.57,0,0,1,6.18,2.53,12.7,12.7,0,0,1,4.5,4.17,12,12,0,0,1,1.71,6.69,13.35,13.35,0,0,1-2.16,7.33,15,15,0,0,1-6.66,5.44A27.54,27.54,0,0,1,210.67,831.23Z" transform="translate(0 -18.26)"/><path class="cls-1" d="M266,831.23a29.86,29.86,0,0,1-11.05-2,26.49,26.49,0,0,1-8.82-5.61,25.9,25.9,0,0,1-5.8-8.45,27.77,27.77,0,0,1,0-21.14,25.75,25.75,0,0,1,5.8-8.44A26.49,26.49,0,0,1,255,780,29.8,29.8,0,0,1,266,778a30.23,30.23,0,0,1,11,2,26.23,26.23,0,0,1,8.78,5.58A25.35,25.35,0,0,1,291.6,794a28.53,28.53,0,0,1,0,21.24,25.39,25.39,0,0,1-5.76,8.45,25.92,25.92,0,0,1-8.78,5.58A30,30,0,0,1,266,831.23Zm0-6.62a21,21,0,0,0,8-1.49,18.94,18.94,0,0,0,6.4-4.2,19.42,19.42,0,0,0,4.24-6.37,20.35,20.35,0,0,0,1.53-8,20,20,0,0,0-5.77-14.29,18.74,18.74,0,0,0-6.4-4.24,22.41,22.41,0,0,0-16.07,0,19.1,19.1,0,0,0-6.44,4.24,19.77,19.77,0,0,0-5.81,14.29,20.35,20.35,0,0,0,1.53,8A19.27,19.27,0,0,0,258,823.12,21.16,21.16,0,0,0,266,824.61Z" transform="translate(0 -18.26)"/><path class="cls-1" d="M334.13,824.16H364.5v6.48H326.69v-52.1h36.77V785H334.13ZM333.46,801h26.8v6.33h-26.8Z" transform="translate(0 -18.26)"/><path class="cls-1" d="M392.55,831.23a35.37,35.37,0,0,1-11.38-1.82,23.3,23.3,0,0,1-8.56-4.72l2.75-5.81A24.21,24.21,0,0,0,383,823.2a27.44,27.44,0,0,0,9.6,1.71,21.8,21.8,0,0,0,7.37-1,8.72,8.72,0,0,0,4.17-2.87,6.8,6.8,0,0,0,1.34-4.13,5.67,5.67,0,0,0-1.75-4.32,13,13,0,0,0-4.54-2.64,51.27,51.27,0,0,0-6.14-1.75c-2.23-.49-4.48-1.08-6.74-1.74a30.37,30.37,0,0,1-6.17-2.57,12.63,12.63,0,0,1-4.5-4.21,12.24,12.24,0,0,1-1.72-6.81,13.63,13.63,0,0,1,2.13-7.4,14.64,14.64,0,0,1,6.54-5.43,26.89,26.89,0,0,1,11.28-2,34.93,34.93,0,0,1,9,1.19,25.15,25.15,0,0,1,7.74,3.42l-2.45,6a24,24,0,0,0-7.07-3.24,27.64,27.64,0,0,0-7.22-1,20,20,0,0,0-7.22,1.11,8.83,8.83,0,0,0-4.13,3,7.09,7.09,0,0,0-1.3,4.17,5.72,5.72,0,0,0,1.75,4.39,12.46,12.46,0,0,0,4.54,2.6,59.24,59.24,0,0,0,6.14,1.75q3.34.78,6.73,1.75a28.57,28.57,0,0,1,6.18,2.53,12.7,12.7,0,0,1,4.5,4.17,12,12,0,0,1,1.71,6.69,13.35,13.35,0,0,1-2.16,7.33,15,15,0,0,1-6.66,5.44A27.54,27.54,0,0,1,392.55,831.23Z" transform="translate(0 -18.26)"/><path class="cls-1" d="M434,830.64V785H416.14v-6.48h43.09V785H441.37v45.62Z" transform="translate(0 -18.26)"/><path class="cls-1" d="M468.16,830.64v-52.1h7.44v52.1Z" transform="translate(0 -18.26)"/><path class="cls-1" d="M492.05,830.64v-52.1h7.44v45.62H527.7v6.48Z" transform="translate(0 -18.26)"/><path class="cls-1" d="M559.63,831.23a29.91,29.91,0,0,1-11.06-2,26.55,26.55,0,0,1-8.81-5.61,25.93,25.93,0,0,1-5.81-8.45A27.9,27.9,0,0,1,534,794a25.78,25.78,0,0,1,5.81-8.44,26.38,26.38,0,0,1,8.78-5.62,29.77,29.77,0,0,1,11.09-2,30.21,30.21,0,0,1,11,2,26.23,26.23,0,0,1,8.78,5.58,25.53,25.53,0,0,1,5.77,8.49,28.53,28.53,0,0,1,0,21.24,25.56,25.56,0,0,1-5.77,8.45,25.92,25.92,0,0,1-8.78,5.58A30,30,0,0,1,559.63,831.23Zm0-6.62a21.05,21.05,0,0,0,8-1.49,19.13,19.13,0,0,0,6.4-4.2,19.58,19.58,0,0,0,4.24-6.37,20.53,20.53,0,0,0,1.52-8A19.89,19.89,0,0,0,574,790.3a18.94,18.94,0,0,0-6.4-4.24,22.44,22.44,0,0,0-16.08,0,19.3,19.3,0,0,0-6.44,4.24,20,20,0,0,0-4.28,6.37,20.22,20.22,0,0,0-1.52,7.92,20.53,20.53,0,0,0,1.52,8,19.27,19.27,0,0,0,10.72,10.57A21.24,21.24,0,0,0,559.63,824.61Z" transform="translate(0 -18.26)"/><path class="cls-1" d="M630.62,830.64V785H612.76v-6.48h43.09V785H638v45.62Z" transform="translate(0 -18.26)"/><path class="cls-1" d="M672.22,824.16h30.36v6.48h-37.8v-52.1h36.76V785H672.22ZM671.55,801h26.79v6.33H671.55Z" transform="translate(0 -18.26)"/><path class="cls-1" d="M715.46,830.64v-52.1h6.1l23.37,39.37h-3.27l23.07-39.37h6.1l.07,52.1h-7.14l-.08-40.86h1.72l-20.54,34.53h-3.43l-20.69-34.53h1.86v40.86Z" transform="translate(0 -18.26)"/><path class="cls-1" d="M808.18,830.64v-52.1h6.11l23.36,39.37h-3.27l23.07-39.37h6.1l.08,52.1h-7.15l-.07-40.86h1.71l-20.54,34.53h-3.42l-20.69-34.53h1.86v40.86Z" transform="translate(0 -18.26)"/><path class="cls-1" d="M901.65,831.23q-10.26,0-16.14-5.88t-5.88-17.19V778.54h7.44v29.33q0,8.7,3.83,12.72t10.83,4q7.07,0,10.9-4t3.83-12.72V778.54h7.22v29.62q0,11.33-5.84,17.19T901.65,831.23Z" transform="translate(0 -18.26)"/><path class="cls-1" d="M939.76,830.64v-52.1h7.44v52.1Z" transform="translate(0 -18.26)"/><path class="cls-1" d="M974,830.64V785H956.13v-6.48h43.09V785H981.36v45.62Z" transform="translate(0 -18.26)"/><path class="cls-1" d="M1030.92,831.23a29.86,29.86,0,0,1-11.05-2,26.49,26.49,0,0,1-8.82-5.61,25.9,25.9,0,0,1-5.8-8.45,27.77,27.77,0,0,1,0-21.14,25.75,25.75,0,0,1,5.8-8.44,26.49,26.49,0,0,1,8.78-5.62,29.77,29.77,0,0,1,11.09-2,30.13,30.13,0,0,1,11,2,26.27,26.27,0,0,1,8.79,5.58,25.35,25.35,0,0,1,5.76,8.49,28.53,28.53,0,0,1,0,21.24,25.39,25.39,0,0,1-5.76,8.45,26,26,0,0,1-8.79,5.58A29.93,29.93,0,0,1,1030.92,831.23Zm0-6.62a21,21,0,0,0,8-1.49,18.94,18.94,0,0,0,6.4-4.2,19.58,19.58,0,0,0,4.24-6.37,20.35,20.35,0,0,0,1.53-8,20,20,0,0,0-5.77-14.29,18.74,18.74,0,0,0-6.4-4.24,22.41,22.41,0,0,0-16.07,0,19.1,19.1,0,0,0-6.44,4.24,19.77,19.77,0,0,0-5.81,14.29,20.35,20.35,0,0,0,1.53,8,19.27,19.27,0,0,0,10.72,10.57A21.16,21.16,0,0,0,1030.92,824.61Z" transform="translate(0 -18.26)"/><path class="cls-1" d="M1083.68,830.64l23.59-52.1h7.37l23.67,52.1h-7.82l-21.06-47.93h3l-21.06,47.93Zm10-13,2-6h29.32l2.16,6Z" transform="translate(0 -18.26)"/><path class="cls-1" d="M43.42,919.94,20.5,867.85h8l21.06,48.07H45l21.21-48.07h7.44L50.78,919.94Z" transform="translate(0 -18.26)"/><path class="cls-1" d="M88.51,913.47h30.37v6.47H81.07V867.85h36.77v6.47H88.51Zm-.66-23.15h26.79v6.33H87.85Z" transform="translate(0 -18.26)"/><path class="cls-1" d="M131.75,919.94V867.85h20.32A28.52,28.52,0,0,1,163.75,870a16.48,16.48,0,0,1,7.44,6.25A17.75,17.75,0,0,1,173.8,886a17.55,17.55,0,0,1-2.61,9.71,16.58,16.58,0,0,1-7.44,6.21,28.52,28.52,0,0,1-11.68,2.16H135.85l3.34-3.42v19.27Zm7.44-18.53-3.34-3.64h16q7.14,0,10.82-3.09a10.69,10.69,0,0,0,3.69-8.67q0-5.58-3.69-8.64t-10.82-3h-16l3.34-3.72Zm27.39,18.53L153.33,901h8l13.39,18.9Z" transform="translate(0 -18.26)"/><path class="cls-1" d="M230.8,920.54a29.84,29.84,0,0,1-11-2,25.8,25.8,0,0,1-8.71-5.59,26.14,26.14,0,0,1-5.77-8.44,28.28,28.28,0,0,1,0-21.29,26,26,0,0,1,14.55-14,31.31,31.31,0,0,1,22.1.07,22.83,22.83,0,0,1,8.67,6.07l-4.83,4.68a19.48,19.48,0,0,0-6.7-4.65,20.93,20.93,0,0,0-8-1.52,21.75,21.75,0,0,0-8.15,1.49,19.62,19.62,0,0,0-6.52,4.16,18.79,18.79,0,0,0-4.27,6.37,21.68,21.68,0,0,0,0,16,18.85,18.85,0,0,0,4.27,6.36,19.8,19.8,0,0,0,6.52,4.17,22,22,0,0,0,8.15,1.48,20.74,20.74,0,0,0,8-1.52,18.94,18.94,0,0,0,6.7-4.73l4.83,4.69a23,23,0,0,1-8.67,6.1A29.31,29.31,0,0,1,230.8,920.54Z" transform="translate(0 -18.26)"/><path class="cls-1" d="M284.53,920.54a29.86,29.86,0,0,1-11-2,26.36,26.36,0,0,1-8.82-5.62,26,26,0,0,1-5.8-8.45,27.87,27.87,0,0,1,0-21.13,26,26,0,0,1,5.8-8.45,26.59,26.59,0,0,1,8.79-5.62,31.6,31.6,0,0,1,22.1,0,25.92,25.92,0,0,1,8.78,5.58,25.38,25.38,0,0,1,5.77,8.48,28.69,28.69,0,0,1,0,21.25,25.52,25.52,0,0,1-5.77,8.44,26.1,26.1,0,0,1-8.78,5.59A30.23,30.23,0,0,1,284.53,920.54Zm0-6.63a21.17,21.17,0,0,0,8-1.48,19.11,19.11,0,0,0,6.4-4.21,19.67,19.67,0,0,0,4.25-6.36,20.56,20.56,0,0,0,1.52-8,19.8,19.8,0,0,0-5.77-14.29,18.6,18.6,0,0,0-6.4-4.24,21,21,0,0,0-8-1.49,21.23,21.23,0,0,0-8.07,1.49,19.05,19.05,0,0,0-6.44,4.24,19.86,19.86,0,0,0-4.28,6.36,20.3,20.3,0,0,0-1.52,7.93,20.56,20.56,0,0,0,1.52,8,19.35,19.35,0,0,0,10.72,10.57A21.42,21.42,0,0,0,284.53,913.91Z" transform="translate(0 -18.26)"/><path class="cls-1" d="M324.35,919.94V867.85h6.1l23.37,39.37h-3.28l23.07-39.37h6.11l.07,52.09h-7.14l-.08-40.85h1.71l-20.54,34.53h-3.42l-20.69-34.53h1.86v40.85Z" transform="translate(0 -18.26)"/><path class="cls-1" d="M440.59,920.54a29.86,29.86,0,0,1-11-2,26.36,26.36,0,0,1-8.82-5.62,25.8,25.8,0,0,1-5.8-8.45,27.75,27.75,0,0,1,0-21.13,25.8,25.8,0,0,1,5.8-8.45,26.64,26.64,0,0,1,8.78-5.62,31.6,31.6,0,0,1,22.1,0,26,26,0,0,1,8.79,5.58,25.21,25.21,0,0,1,5.76,8.48,28.56,28.56,0,0,1,0,21.25,25.35,25.35,0,0,1-5.76,8.44,26.14,26.14,0,0,1-8.79,5.59A30.13,30.13,0,0,1,440.59,920.54Zm0-6.63a21.2,21.2,0,0,0,8-1.48,19.11,19.11,0,0,0,6.4-4.21,19.48,19.48,0,0,0,4.24-6.36,20.38,20.38,0,0,0,1.53-8,20.13,20.13,0,0,0-1.53-7.93,19.91,19.91,0,0,0-4.24-6.36,18.6,18.6,0,0,0-6.4-4.24,22.41,22.41,0,0,0-16.07,0,19,19,0,0,0-6.44,4.24A19.7,19.7,0,0,0,421.8,886a20.13,20.13,0,0,0-1.53,7.93,20.38,20.38,0,0,0,1.53,8,19.28,19.28,0,0,0,4.28,6.36,19.48,19.48,0,0,0,6.44,4.21A21.35,21.35,0,0,0,440.59,913.91Z" transform="translate(0 -18.26)"/><path class="cls-1" d="M501.24,919.94V867.85h6.1l23.37,39.37h-3.27l23.07-39.37h6.1l.07,52.09h-7.14l-.07-40.85h1.71l-20.54,34.53h-3.43l-20.68-34.53h1.86v40.85Z" transform="translate(0 -18.26)"/><path class="cls-1" d="M596.65,920.54a29.82,29.82,0,0,1-11-2,26.36,26.36,0,0,1-8.82-5.62,26,26,0,0,1-5.81-8.45,27.87,27.87,0,0,1,0-21.13,26,26,0,0,1,5.81-8.45,26.54,26.54,0,0,1,8.78-5.62,31.6,31.6,0,0,1,22.1,0,25.83,25.83,0,0,1,8.78,5.58,25.24,25.24,0,0,1,5.77,8.48,28.56,28.56,0,0,1,0,21.25,25.37,25.37,0,0,1-5.77,8.44,26,26,0,0,1-8.78,5.59A30.13,30.13,0,0,1,596.65,920.54Zm0-6.63a21.24,21.24,0,0,0,8-1.48,19.21,19.21,0,0,0,6.4-4.21,19.64,19.64,0,0,0,4.24-6.36,20.38,20.38,0,0,0,1.52-8,19.85,19.85,0,0,0-5.76-14.29,18.7,18.7,0,0,0-6.4-4.24,22.44,22.44,0,0,0-16.08,0,19,19,0,0,0-6.43,4.24,19.54,19.54,0,0,0-4.28,6.36,20.13,20.13,0,0,0-1.53,7.93,20.38,20.38,0,0,0,1.53,8,19.13,19.13,0,0,0,4.28,6.36,19.54,19.54,0,0,0,6.43,4.21A21.43,21.43,0,0,0,596.65,913.91Z" transform="translate(0 -18.26)"/><path class="cls-1" d="M660,920.54a29.82,29.82,0,0,1-11.05-2,26.36,26.36,0,0,1-8.82-5.62,26,26,0,0,1-5.81-8.45,27.87,27.87,0,0,1,0-21.13,26,26,0,0,1,5.81-8.45,26.64,26.64,0,0,1,8.78-5.62,31.6,31.6,0,0,1,22.1,0,25.83,25.83,0,0,1,8.78,5.58,25.24,25.24,0,0,1,5.77,8.48,28.56,28.56,0,0,1,0,21.25,25.37,25.37,0,0,1-5.77,8.44,26,26,0,0,1-8.78,5.59A30.13,30.13,0,0,1,660,920.54Zm0-6.63a21.24,21.24,0,0,0,8-1.48,19.21,19.21,0,0,0,6.4-4.21,19.64,19.64,0,0,0,4.24-6.36,20.38,20.38,0,0,0,1.53-8,19.91,19.91,0,0,0-5.77-14.29,18.7,18.7,0,0,0-6.4-4.24,22.44,22.44,0,0,0-16.08,0,19,19,0,0,0-6.43,4.24,19.54,19.54,0,0,0-4.28,6.36,20.13,20.13,0,0,0-1.53,7.93,20.38,20.38,0,0,0,1.53,8,19.13,19.13,0,0,0,4.28,6.36,19.54,19.54,0,0,0,6.43,4.21A21.43,21.43,0,0,0,660,913.91Z" transform="translate(0 -18.26)"/><path class="cls-1" d="M699.79,919.94V867.85h22a31.7,31.7,0,0,1,14.69,3.27,24.16,24.16,0,0,1,9.9,9.16,28,28,0,0,1,0,27.23,24.1,24.1,0,0,1-9.9,9.16,31.7,31.7,0,0,1-14.69,3.27Zm7.44-6.47H721.3A23.94,23.94,0,0,0,732.5,911a17.84,17.84,0,0,0,7.33-6.88,21.43,21.43,0,0,0,0-20.5,18,18,0,0,0-7.33-6.85,23.94,23.94,0,0,0-11.2-2.46H707.23Z" transform="translate(0 -18.26)"/><path class="cls-1" d="M782.92,919.94V867.85h22a31.71,31.71,0,0,1,14.7,3.27,24.29,24.29,0,0,1,9.9,9.16,28,28,0,0,1,0,27.23,24.22,24.22,0,0,1-9.9,9.16,31.71,31.71,0,0,1-14.7,3.27Zm7.44-6.47h14.07a24,24,0,0,0,11.2-2.46,17.84,17.84,0,0,0,7.33-6.88,21.5,21.5,0,0,0,0-20.5,18,18,0,0,0-7.33-6.85,24,24,0,0,0-11.2-2.46H790.36Z" transform="translate(0 -18.26)"/><path class="cls-1" d="M868.72,920.54a29.86,29.86,0,0,1-11.05-2,26.36,26.36,0,0,1-8.82-5.62,26,26,0,0,1-5.8-8.45,27.75,27.75,0,0,1,0-21.13,26,26,0,0,1,5.8-8.45,26.64,26.64,0,0,1,8.78-5.62,31.63,31.63,0,0,1,22.11,0,25.92,25.92,0,0,1,8.78,5.58,25.38,25.38,0,0,1,5.77,8.48,28.69,28.69,0,0,1,0,21.25,25.52,25.52,0,0,1-5.77,8.44,26.1,26.1,0,0,1-8.78,5.59A30.23,30.23,0,0,1,868.72,920.54Zm0-6.63a21.17,21.17,0,0,0,8-1.48,19.11,19.11,0,0,0,6.4-4.21,19.67,19.67,0,0,0,4.25-6.36,20.56,20.56,0,0,0,1.52-8,19.8,19.8,0,0,0-5.77-14.29,18.6,18.6,0,0,0-6.4-4.24,22.41,22.41,0,0,0-16.07,0,19.05,19.05,0,0,0-6.44,4.24,19.7,19.7,0,0,0-4.28,6.36,20.13,20.13,0,0,0-1.52,7.93,20.38,20.38,0,0,0,1.52,8,19.28,19.28,0,0,0,4.28,6.36,19.59,19.59,0,0,0,6.44,4.21A21.35,21.35,0,0,0,868.72,913.91Z" transform="translate(0 -18.26)"/><path class="cls-1" d="M929.38,919.94V867.85h22a31.71,31.71,0,0,1,14.7,3.27,24.2,24.2,0,0,1,9.89,9.16,28,28,0,0,1,0,27.23,24.13,24.13,0,0,1-9.89,9.16,31.71,31.71,0,0,1-14.7,3.27Zm7.44-6.47h14.06a23.94,23.94,0,0,0,11.2-2.46,17.78,17.78,0,0,0,7.33-6.88,21.43,21.43,0,0,0,0-20.5,17.9,17.9,0,0,0-7.33-6.85,23.94,23.94,0,0,0-11.2-2.46H936.82Z" transform="translate(0 -18.26)"/><path class="cls-1" d="M991.66,919.94V867.85h7.45v52.09Z" transform="translate(0 -18.26)"/><path class="cls-1" d="M1007.66,919.94l23.59-52.09h7.37l23.67,52.09h-7.82L1033.41,872h3l-21.06,47.92Zm10.05-13,2-5.95H1049l2.16,5.95Z" transform="translate(0 -18.26)"/><path class="cls-1" d="M1099.12,913.47h30.37v6.47h-37.81V867.85h36.77v6.47h-29.33Zm-.67-23.15h26.8v6.33h-26.8Z" transform="translate(0 -18.26)"/><path class="cls-1" d="M69.05,1009.84a29.84,29.84,0,0,1-11-2,25.62,25.62,0,0,1-8.71-5.58,26.18,26.18,0,0,1-5.77-8.45,28.25,28.25,0,0,1,0-21.28,25.94,25.94,0,0,1,14.55-14,31.45,31.45,0,0,1,22.1.07,22.83,22.83,0,0,1,8.67,6.07l-4.83,4.69a19.22,19.22,0,0,0-6.7-4.65,20.74,20.74,0,0,0-8-1.53,22,22,0,0,0-8.15,1.49,19.34,19.34,0,0,0-6.51,4.17,18.54,18.54,0,0,0-4.28,6.36,21.68,21.68,0,0,0,0,16,18.54,18.54,0,0,0,4.28,6.36,19.34,19.34,0,0,0,6.51,4.17,22,22,0,0,0,8.15,1.49,20.74,20.74,0,0,0,8-1.53,18.91,18.91,0,0,0,6.7-4.72l4.83,4.69a23.23,23.23,0,0,1-8.67,6.1A29.27,29.27,0,0,1,69.05,1009.84Z" transform="translate(0 -18.26)"/><path class="cls-1" d="M122.78,1009.84a29.86,29.86,0,0,1-11-2,26.36,26.36,0,0,1-8.82-5.62,25.91,25.91,0,0,1-5.8-8.44,27.9,27.9,0,0,1,0-21.14,26.06,26.06,0,0,1,5.8-8.45,26.56,26.56,0,0,1,8.79-5.61,31.67,31.67,0,0,1,22.1,0,26.08,26.08,0,0,1,8.78,5.58,25.59,25.59,0,0,1,5.77,8.48,28.69,28.69,0,0,1,0,21.25,25.56,25.56,0,0,1-5.77,8.45,25.92,25.92,0,0,1-8.78,5.58A30.23,30.23,0,0,1,122.78,1009.84Zm0-6.62a21.17,21.17,0,0,0,8-1.49,18.94,18.94,0,0,0,6.4-4.2,19.66,19.66,0,0,0,4.25-6.37,20.53,20.53,0,0,0,1.52-8,19.8,19.8,0,0,0-5.77-14.29,18.74,18.74,0,0,0-6.4-4.24,21.17,21.17,0,0,0-8-1.49,21.42,21.42,0,0,0-8.07,1.49,19.2,19.2,0,0,0-6.44,4.24,20.08,20.08,0,0,0-4.28,6.36,20.3,20.3,0,0,0-1.52,7.93,20.53,20.53,0,0,0,1.52,8,19.27,19.27,0,0,0,10.72,10.57A21.42,21.42,0,0,0,122.78,1003.22Z" transform="translate(0 -18.26)"/><path class="cls-1" d="M162.6,1009.25v-52.1h6.1l23.37,39.37h-3.28l23.07-39.37H218l.07,52.1H210.9l-.08-40.86h1.71L192,1002.92h-3.42l-20.69-34.53h1.86v40.86Z" transform="translate(0 -18.26)"/><path class="cls-1" d="M278.84,1009.84a29.86,29.86,0,0,1-11-2,26.36,26.36,0,0,1-8.82-5.62,25.75,25.75,0,0,1-5.8-8.44,27.77,27.77,0,0,1,0-21.14,25.9,25.9,0,0,1,5.8-8.45,26.62,26.62,0,0,1,8.78-5.61,31.67,31.67,0,0,1,22.1,0,26,26,0,0,1,8.79,5.58,25.41,25.41,0,0,1,5.76,8.48,28.56,28.56,0,0,1,0,21.25,25.39,25.39,0,0,1-5.76,8.45,25.87,25.87,0,0,1-8.79,5.58A30.13,30.13,0,0,1,278.84,1009.84Zm0-6.62a21.17,21.17,0,0,0,8-1.49,18.94,18.94,0,0,0,6.4-4.2,19.63,19.63,0,0,0,4.24-6.37,20.35,20.35,0,0,0,1.53-8,19.91,19.91,0,0,0-5.77-14.29,18.74,18.74,0,0,0-6.4-4.24,22.41,22.41,0,0,0-16.07,0,19.1,19.1,0,0,0-6.44,4.24,19.91,19.91,0,0,0-4.28,6.36,20.13,20.13,0,0,0-1.53,7.93,20.35,20.35,0,0,0,1.53,8,19.27,19.27,0,0,0,10.72,10.57A21.35,21.35,0,0,0,278.84,1003.22Z" transform="translate(0 -18.26)"/><path class="cls-1" d="M363,1009.84a29.86,29.86,0,0,1-11.05-2,26.36,26.36,0,0,1-8.82-5.62,25.94,25.94,0,0,1-5.81-8.44,27.9,27.9,0,0,1,0-21.14,26.08,26.08,0,0,1,5.81-8.45,26.62,26.62,0,0,1,8.78-5.61,31.67,31.67,0,0,1,22.1,0,26,26,0,0,1,8.78,5.58,25.44,25.44,0,0,1,5.77,8.48,28.56,28.56,0,0,1,0,21.25,25.41,25.41,0,0,1-5.77,8.45,25.83,25.83,0,0,1-8.78,5.58A30.13,30.13,0,0,1,363,1009.84Zm0-6.62a21.21,21.21,0,0,0,8-1.49,18.84,18.84,0,0,0,6.4-4.24,20.09,20.09,0,0,0,5.77-14.29,20.35,20.35,0,0,0-1.53-8,19.79,19.79,0,0,0-4.24-6.37,19,19,0,0,0-6.4-4.2,21.21,21.21,0,0,0-8-1.49,21.44,21.44,0,0,0-8.08,1.49,19.29,19.29,0,0,0-10.71,10.57,21.29,21.29,0,0,0,0,15.85,19.6,19.6,0,0,0,4.28,6.4,19.16,19.16,0,0,0,6.43,4.24A21.44,21.44,0,0,0,363,1003.22Zm17,16.89a18.67,18.67,0,0,1-9.75-2.64,32.5,32.5,0,0,1-4.91-3.57,75.62,75.62,0,0,1-5.51-5.4l8-2.08a34.19,34.19,0,0,0,4.28,4.5,14.12,14.12,0,0,0,4.05,2.53,11,11,0,0,0,4,.78,12.21,12.21,0,0,0,9.45-4.46l3.5,4.24A16.23,16.23,0,0,1,380.05,1020.11Z" transform="translate(0 -18.26)"/><path class="cls-1" d="M424.41,1009.84q-10.28,0-16.15-5.88t-5.88-17.19V957.15h7.44v29.32q0,8.71,3.83,12.73t10.83,4q7.06,0,10.9-4t3.83-12.73V957.15h7.22v29.62q0,11.31-5.84,17.19T424.41,1009.84Z" transform="translate(0 -18.26)"/><path class="cls-1" d="M470,1002.77h30.36v6.48h-37.8v-52.1h36.76v6.48H470Zm-.67-23.14h26.79V986H469.28Z" transform="translate(0 -18.26)"/><path class="cls-1" d="M526.13,1009.25l23.6-52.1h7.36l23.67,52.1h-7.82l-21.06-47.93h3l-21.06,47.93Zm10-13,2-6h29.32l2.16,6Z" transform="translate(0 -18.26)"/><path class="cls-1" d="M633.67,1009.84a30.37,30.37,0,0,1-11.09-2,25.79,25.79,0,0,1-14.58-14,28.13,28.13,0,0,1,0-21.28,25.46,25.46,0,0,1,5.84-8.45,26.35,26.35,0,0,1,8.82-5.58,30.35,30.35,0,0,1,11.16-2,30.75,30.75,0,0,1,11.31,2,22.49,22.49,0,0,1,8.71,6l-4.62,4.62a20.63,20.63,0,0,0-7-4.58,22.43,22.43,0,0,0-8.15-1.45,22.75,22.75,0,0,0-8.3,1.49,19.63,19.63,0,0,0-6.62,4.17,18.36,18.36,0,0,0-4.32,6.36,21.5,21.5,0,0,0,0,15.93,19,19,0,0,0,4.32,6.4,19.51,19.51,0,0,0,6.58,4.2,22.5,22.5,0,0,0,8.26,1.49,24.89,24.89,0,0,0,8-1.3,19.6,19.6,0,0,0,7.11-4.36l4.24,5.66a26.52,26.52,0,0,1-9,4.95A34.66,34.66,0,0,1,633.67,1009.84Zm12.58-7.59V982.9h7.14v20.32Z" transform="translate(0 -18.26)"/><path class="cls-1" d="M675.87,1002.77h30.36v6.48H668.42v-52.1h36.77v6.48H675.87Zm-.67-23.14H702V986H675.2Z" transform="translate(0 -18.26)"/><path class="cls-1" d="M719.1,1009.25v-52.1h6.11l34.45,42.79h-3.2V957.15h7.44v52.1h-6.1l-34.45-42.79h3.2v42.79Z" transform="translate(0 -18.26)"/><path class="cls-1" d="M790.7,1009.25V963.63H772.83v-6.48h43.09v6.48H798.06v45.62Z" transform="translate(0 -18.26)"/><path class="cls-1" d="M832.29,1002.77h30.37v6.48H824.85v-52.1h36.77v6.48H832.29Zm-.67-23.14h26.8V986h-26.8Z" transform="translate(0 -18.26)"/><path class="cls-1" d="M919.89,1009.84a29.82,29.82,0,0,1-11-2,26.36,26.36,0,0,1-8.82-5.62,25.94,25.94,0,0,1-5.81-8.44,27.9,27.9,0,0,1,0-21.14,26.08,26.08,0,0,1,5.81-8.45,26.52,26.52,0,0,1,8.78-5.61,31.67,31.67,0,0,1,22.1,0,26.08,26.08,0,0,1,8.78,5.58,25.59,25.59,0,0,1,5.77,8.48,28.56,28.56,0,0,1,0,21.25,25.56,25.56,0,0,1-5.77,8.45,25.92,25.92,0,0,1-8.78,5.58A30.13,30.13,0,0,1,919.89,1009.84Zm0-6.62a21.24,21.24,0,0,0,8-1.49,18.84,18.84,0,0,0,6.4-4.24,20,20,0,0,0,5.76-14.29,20.34,20.34,0,0,0-1.52-8,19.79,19.79,0,0,0-4.24-6.37,19,19,0,0,0-6.4-4.2,22.44,22.44,0,0,0-16.08,0,19.21,19.21,0,0,0-10.71,10.57,21.29,21.29,0,0,0,0,15.85,19.73,19.73,0,0,0,4.27,6.4,19.3,19.3,0,0,0,6.44,4.24A21.44,21.44,0,0,0,919.89,1003.22Zm17,16.89a18.67,18.67,0,0,1-9.75-2.64,32,32,0,0,1-4.91-3.57,73.66,73.66,0,0,1-5.51-5.4l8-2.08a35.55,35.55,0,0,0,4.28,4.5,14.29,14.29,0,0,0,4.06,2.53,11,11,0,0,0,4,.78,12.21,12.21,0,0,0,9.45-4.46L950,1014A16.23,16.23,0,0,1,936.93,1020.11Z" transform="translate(0 -18.26)"/><path class="cls-1" d="M981.28,1009.84q-10.26,0-16.15-5.88t-5.88-17.19V957.15h7.45v29.32q0,8.71,3.83,12.73t10.83,4q7.07,0,10.9-4t3.83-12.73V957.15h7.22v29.62q0,11.31-5.84,17.19T981.28,1009.84Z" transform="translate(0 -18.26)"/><path class="cls-1" d="M1026.83,1002.77h30.36v6.48h-37.8v-52.1h36.76v6.48h-29.32Zm-.67-23.14H1053V986h-26.79Z" transform="translate(0 -18.26)"/><path class="cls-1" d="M1070.07,1009.25v-52.1h20.31a28.57,28.57,0,0,1,11.69,2.16,16.58,16.58,0,0,1,7.44,6.25,17.83,17.83,0,0,1,2.6,9.75,17.62,17.62,0,0,1-2.6,9.71,16.65,16.65,0,0,1-7.44,6.22,28.58,28.58,0,0,1-11.69,2.15h-16.22l3.35-3.42v19.28Zm7.44-18.53-3.35-3.65h16q7.14,0,10.83-3.09a10.71,10.71,0,0,0,3.68-8.67q0-5.58-3.68-8.63t-10.83-3h-16l3.35-3.72Zm27.38,18.53-13.24-18.91h8l13.4,18.91Z" transform="translate(0 -18.26)"/><path class="cls-1" d="M372.28,1099.15q-10.27,0-16.15-5.88t-5.88-17.19v-29.62h7.44v29.32q0,8.7,3.83,12.72t10.83,4q7.06,0,10.9-4t3.83-12.72v-29.32h7.22v29.62q0,11.31-5.84,17.19T372.28,1099.15Z" transform="translate(0 -18.26)"/><path class="cls-1" d="M425.56,1099.15a35.44,35.44,0,0,1-11.39-1.83,23.39,23.39,0,0,1-8.56-4.72l2.76-5.81a24,24,0,0,0,7.59,4.32,27.36,27.36,0,0,0,9.6,1.71,21.88,21.88,0,0,0,7.37-1,8.74,8.74,0,0,0,4.16-2.87,6.74,6.74,0,0,0,1.34-4.13,5.62,5.62,0,0,0-1.75-4.31,12.88,12.88,0,0,0-4.54-2.65,49.35,49.35,0,0,0-6.13-1.74c-2.24-.5-4.48-1.08-6.74-1.75a30.23,30.23,0,0,1-6.18-2.57,12.54,12.54,0,0,1-4.5-4.21,12.32,12.32,0,0,1-1.71-6.81,13.73,13.73,0,0,1,2.12-7.4,14.67,14.67,0,0,1,6.55-5.43,26.84,26.84,0,0,1,11.27-2.05,35,35,0,0,1,9,1.19,25.49,25.49,0,0,1,7.74,3.42l-2.46,6a23.89,23.89,0,0,0-7.07-3.24,27.59,27.59,0,0,0-7.22-1,20,20,0,0,0-7.22,1.11,8.88,8.88,0,0,0-4.13,3,7.16,7.16,0,0,0-1.3,4.17,5.72,5.72,0,0,0,1.75,4.39,12.54,12.54,0,0,0,4.54,2.6,60,60,0,0,0,6.14,1.75c2.23.52,4.48,1.11,6.74,1.75a29.21,29.21,0,0,1,6.17,2.53,12.7,12.7,0,0,1,4.5,4.17,11.92,11.92,0,0,1,1.72,6.7,13.38,13.38,0,0,1-2.16,7.33,15,15,0,0,1-6.66,5.43A27.56,27.56,0,0,1,425.56,1099.15Z" transform="translate(0 -18.26)"/><path class="cls-1" d="M449.52,1098.55l23.59-52.09h7.37l23.66,52.09h-7.81l-21.06-47.93h3l-21.06,47.93Zm10.05-13,2-6H490.9l2.16,6Z" transform="translate(0 -18.26)"/><path class="cls-1" d="M512.7,1098.55v-52.09H533a28.7,28.7,0,0,1,11.68,2.15,16.49,16.49,0,0,1,7.44,6.26,19.44,19.44,0,0,1,0,19.46,16.58,16.58,0,0,1-7.44,6.21A28.52,28.52,0,0,1,533,1082.7H516.8l3.34-3.42v19.27Zm7.44-18.53-3.34-3.65h16q7.14,0,10.82-3.09c2.46-2,3.69-5,3.69-8.67s-1.23-6.59-3.69-8.63-6.06-3-10.82-3h-16l3.34-3.72Zm27.39,18.53-13.25-18.9h8l13.39,18.9Z" transform="translate(0 -18.26)"/><path class="cls-1" d="M595.9,1098.55h-7.44v-52.09h7.44Zm30.59-23.22H595.16v-6.47h31.33Zm-.67-28.87h7.44v52.09h-7.44Z" transform="translate(0 -18.26)"/><path class="cls-1" d="M673.23,1099.15a29.91,29.91,0,0,1-11.06-2,26.47,26.47,0,0,1-8.81-5.62,25.82,25.82,0,0,1-5.81-8.45,27.87,27.87,0,0,1,0-21.13,25.82,25.82,0,0,1,5.81-8.45,26.28,26.28,0,0,1,8.78-5.62,29.77,29.77,0,0,1,11.09-2,30.17,30.17,0,0,1,11,2,26.23,26.23,0,0,1,8.78,5.58,25.53,25.53,0,0,1,5.77,8.49,28.66,28.66,0,0,1,0,21.24,25.46,25.46,0,0,1-5.77,8.45,25.92,25.92,0,0,1-8.78,5.58A30,30,0,0,1,673.23,1099.15Zm0-6.63a21.05,21.05,0,0,0,8-1.49,19,19,0,0,0,6.39-4.2,19.51,19.51,0,0,0,4.25-6.36,20.58,20.58,0,0,0,1.52-8,19.85,19.85,0,0,0-5.77-14.29,19,19,0,0,0-6.39-4.24,22.44,22.44,0,0,0-16.08,0,19.46,19.46,0,0,0-6.44,4.24,20,20,0,0,0-4.28,6.37,20.25,20.25,0,0,0-1.52,7.92,20.58,20.58,0,0,0,1.52,8A19.3,19.3,0,0,0,665.15,1091,21.24,21.24,0,0,0,673.23,1092.52Z" transform="translate(0 -18.26)"/><path class="cls-1" d="M718.62,1099.15a19.62,19.62,0,0,1-8.63-1.94,16.63,16.63,0,0,1-6.55-5.58l4.32-5.06a16.29,16.29,0,0,0,4.87,4.58,11.65,11.65,0,0,0,6,1.6q8.94,0,8.93-10.57v-29.25H708.72v-6.47h26.2v35.35q0,8.7-4.13,13T718.62,1099.15Z" transform="translate(0 -18.26)"/><path class="cls-1" d="M758.36,1092.08h30.36v6.47h-37.8v-52.09h36.76v6.47H758.36Zm-.67-23.15h26.79v6.33H757.69Z" transform="translate(0 -18.26)"/><path class="cls-1" d="M803,1099a5,5,0,0,1-5.06-5.14,4.83,4.83,0,0,1,1.49-3.65,5,5,0,0,1,3.57-1.41,4.8,4.8,0,0,1,3.46,1.41,4.87,4.87,0,0,1,1.45,3.65,5,5,0,0,1-1.45,3.68A4.73,4.73,0,0,1,803,1099Z" transform="translate(0 -18.26)"/><path class="cls-1" d="M305.64,114.14v-94h21.89l51.7,62.57H368.89V20.14h26.05v94H373.05L321.22,51.56h10.34v62.58Z" transform="translate(0 -18.26)"/><path class="cls-1" d="M479.4,116a58.2,58.2,0,0,1-20.75-3.63,48.08,48.08,0,0,1-27.53-25.85,47.63,47.63,0,0,1-4-19.54,46.84,46.84,0,0,1,4-19.33,48.41,48.41,0,0,1,27.46-25.78,61.49,61.49,0,0,1,41.63,0,49.37,49.37,0,0,1,16.52,10.2,48,48,0,0,1,10.94,15.44,47.2,47.2,0,0,1,4,19.47,48.82,48.82,0,0,1-3.89,19.68,46.43,46.43,0,0,1-11,15.51,50.11,50.11,0,0,1-16.58,10.2A58,58,0,0,1,479.4,116Zm0-22a26.4,26.4,0,0,0,10-1.88,23.21,23.21,0,0,0,8.06-5.44,25.79,25.79,0,0,0,5.37-8.46,29.77,29.77,0,0,0,1.95-11.08,29.77,29.77,0,0,0-1.95-11.08,25.79,25.79,0,0,0-5.37-8.46,23.21,23.21,0,0,0-8.06-5.44,27.56,27.56,0,0,0-20,0,24,24,0,0,0-8.12,5.44,24.26,24.26,0,0,0-5.37,8.46A30.62,30.62,0,0,0,454,67.14a30.62,30.62,0,0,0,1.88,11.08,24.26,24.26,0,0,0,5.37,8.46,24,24,0,0,0,8.12,5.44A26.45,26.45,0,0,0,479.4,94Z" transform="translate(0 -18.26)"/><path class="cls-1" d="M596.89,116a85.5,85.5,0,0,1-22.36-2.89q-10.66-2.88-17.25-7.32L566,86.07a61.29,61.29,0,0,0,14.57,6.65A54.33,54.33,0,0,0,597,95.34,33.66,33.66,0,0,0,606,94.4a9.93,9.93,0,0,0,4.83-2.69,6.05,6.05,0,0,0,1.54-4.16,5.52,5.52,0,0,0-3-4.9,29.32,29.32,0,0,0-7.72-3.09q-4.77-1.28-10.34-2.42a102.29,102.29,0,0,1-11.35-3,43.21,43.21,0,0,1-10.47-5,23.8,23.8,0,0,1-7.59-8.05A24.61,24.61,0,0,1,559,48.61a26.83,26.83,0,0,1,4.57-15.18q4.56-6.84,13.83-11t23.1-4.16a80.3,80.3,0,0,1,18.19,2.08,53.61,53.61,0,0,1,15.78,6.25l-8.06,19.6a57.28,57.28,0,0,0-13.29-5.5,49.44,49.44,0,0,0-12.76-1.75,26.63,26.63,0,0,0-8.86,1.21,10.36,10.36,0,0,0-4.83,3.09,6.36,6.36,0,0,0-1.48,4,5.63,5.63,0,0,0,2.95,5,26.4,26.4,0,0,0,7.66,3q4.7,1.16,10.4,2.36a112.48,112.48,0,0,1,11.35,3A45,45,0,0,1,628,65.46a23.87,23.87,0,0,1,7.72,7.92,23.47,23.47,0,0,1,2.95,12.29A26.59,26.59,0,0,1,634,100.78q-4.63,6.91-13.9,11.07T596.89,116Z" transform="translate(0 -18.26)"/><path class="cls-1" d="M702,116a85.5,85.5,0,0,1-22.36-2.89q-10.67-2.88-17.25-7.32l8.73-19.74a61.29,61.29,0,0,0,14.57,6.65,54.28,54.28,0,0,0,16.45,2.62,33.66,33.66,0,0,0,8.93-.94,9.93,9.93,0,0,0,4.83-2.69,6.05,6.05,0,0,0,1.54-4.16,5.52,5.52,0,0,0-3-4.9,29.32,29.32,0,0,0-7.72-3.09q-4.77-1.28-10.34-2.42a102.29,102.29,0,0,1-11.35-3,43.21,43.21,0,0,1-10.47-5,23.8,23.8,0,0,1-7.59-8.05,24.61,24.61,0,0,1-2.89-12.49,26.83,26.83,0,0,1,4.57-15.18q4.56-6.84,13.83-11t23.1-4.16a80.3,80.3,0,0,1,18.19,2.08,53.61,53.61,0,0,1,15.78,6.25l-8.06,19.6a57.46,57.46,0,0,0-13.29-5.5,49.44,49.44,0,0,0-12.76-1.75,26.63,26.63,0,0,0-8.86,1.21,10.36,10.36,0,0,0-4.83,3.09,6.36,6.36,0,0,0-1.48,4,5.63,5.63,0,0,0,2.95,5,26.4,26.4,0,0,0,7.66,3q4.69,1.16,10.4,2.36a112.48,112.48,0,0,1,11.35,3,45,45,0,0,1,10.41,4.83,23.87,23.87,0,0,1,7.72,7.92,23.47,23.47,0,0,1,2.95,12.29,26.59,26.59,0,0,1-4.63,15.11q-4.63,6.91-13.9,11.07T702,116Z" transform="translate(0 -18.26)"/><path class="cls-1" d="M821.54,116a58.2,58.2,0,0,1-20.75-3.63,48.08,48.08,0,0,1-27.53-25.85,47.63,47.63,0,0,1-4-19.54,46.84,46.84,0,0,1,4-19.33,48.39,48.39,0,0,1,27.47-25.78,61.46,61.46,0,0,1,41.62,0,49.37,49.37,0,0,1,16.52,10.2,48,48,0,0,1,10.94,15.44,47.2,47.2,0,0,1,4,19.47,48.82,48.82,0,0,1-3.89,19.68,46.55,46.55,0,0,1-10.94,15.51,50.26,50.26,0,0,1-16.59,10.2A58,58,0,0,1,821.54,116Zm0-22a26.4,26.4,0,0,0,10-1.88,23.21,23.21,0,0,0,8.06-5.44A25.79,25.79,0,0,0,845,78.22a29.77,29.77,0,0,0,1.95-11.08A29.77,29.77,0,0,0,845,56.06a25.79,25.79,0,0,0-5.37-8.46,23.21,23.21,0,0,0-8.06-5.44,27.54,27.54,0,0,0-20,0,24,24,0,0,0-8.13,5.44A24.26,24.26,0,0,0,798,56.06a30.83,30.83,0,0,0-1.88,11.08A30.83,30.83,0,0,0,798,78.22a24.26,24.26,0,0,0,5.37,8.46,24,24,0,0,0,8.13,5.44A26.37,26.37,0,0,0,821.54,94Z" transform="translate(0 -18.26)"/><path class="cls-1" d="M326.52,220h49.15v20.68H300.34v-94h73.58v20.68h-47.4ZM324.64,183h43.64v19.74H324.64Z" transform="translate(0 -18.26)"/><path class="cls-1" d="M426.16,242.53a85.08,85.08,0,0,1-22.36-2.89q-10.68-2.88-17.26-7.31l8.73-19.74a61.64,61.64,0,0,0,14.57,6.64,54.07,54.07,0,0,0,16.45,2.62,33.6,33.6,0,0,0,8.93-.94,9.92,9.92,0,0,0,4.83-2.68,6.11,6.11,0,0,0,1.55-4.17,5.53,5.53,0,0,0-3-4.9,29.32,29.32,0,0,0-7.72-3.09q-4.77-1.27-10.34-2.41a102.82,102.82,0,0,1-11.34-3,43.44,43.44,0,0,1-10.48-5,23.81,23.81,0,0,1-7.58-8.06q-2.9-5-2.89-12.49A26.77,26.77,0,0,1,392.85,160q4.57-6.85,13.84-11t23.09-4.17a79.83,79.83,0,0,1,18.2,2.09,53.7,53.7,0,0,1,15.77,6.24l-8.05,19.61a57.14,57.14,0,0,0-13.3-5.51,49.8,49.8,0,0,0-12.75-1.75,26.85,26.85,0,0,0-8.86,1.21,10.56,10.56,0,0,0-4.84,3.09,6.46,6.46,0,0,0-1.48,4,5.62,5.62,0,0,0,3,5,26.73,26.73,0,0,0,7.65,3q4.69,1.14,10.41,2.35a113.19,113.19,0,0,1,11.35,3,45.37,45.37,0,0,1,10.4,4.83A23.8,23.8,0,0,1,465,199.9a23.44,23.44,0,0,1,3,12.28,26.6,26.6,0,0,1-4.64,15.11q-4.62,6.92-13.89,11.08T426.16,242.53Z" transform="translate(0 -18.26)"/><path class="cls-1" d="M501.35,240.65V167.74H472.48V146.65h84.2v21.09H527.94v72.91Z" transform="translate(0 -18.26)"/><path class="cls-1" d="M569.43,240.65v-94H596v94Z" transform="translate(0 -18.26)"/><path class="cls-1" d="M617.64,240.65v-94h26.58v72.92h44.72v21.08Z" transform="translate(0 -18.26)"/><path class="cls-1" d="M748,242.53a58.11,58.11,0,0,1-20.74-3.63,48,48,0,0,1-27.53-25.84,47.69,47.69,0,0,1-4-19.54,46.89,46.89,0,0,1,4-19.34,48.33,48.33,0,0,1,27.46-25.78,61.46,61.46,0,0,1,41.62,0,49.3,49.3,0,0,1,16.52,10.21,47.93,47.93,0,0,1,10.95,15.44,47.36,47.36,0,0,1,4,19.47,48.61,48.61,0,0,1-3.9,19.67,46.26,46.26,0,0,1-10.94,15.51,49.93,49.93,0,0,1-16.59,10.2A58,58,0,0,1,748,242.53Zm0-22a26.45,26.45,0,0,0,10-1.88,23.13,23.13,0,0,0,8.05-5.44,25.47,25.47,0,0,0,5.37-8.46,32.45,32.45,0,0,0,0-22.16,25.53,25.53,0,0,0-5.37-8.45,23,23,0,0,0-8.05-5.44,27.56,27.56,0,0,0-20,0,23.68,23.68,0,0,0-8.13,5.44,24.61,24.61,0,0,0-5.37,8.45,33.59,33.59,0,0,0,0,22.16,24.56,24.56,0,0,0,5.37,8.46,23.82,23.82,0,0,0,8.13,5.44A26.4,26.4,0,0,0,748,220.51Z" transform="translate(0 -18.26)"/><path class="cls-1" d="M832,206.41a20,20,0,0,1,1.41-7.79,26.76,26.76,0,0,1,3.55-6.11,41.23,41.23,0,0,1,4.64-5c1.65-1.53,3.2-3,4.63-4.3a22,22,0,0,0,3.56-4.23,8.5,8.5,0,0,0,1.41-4.63,7.33,7.33,0,0,0-3.29-6.25,14.41,14.41,0,0,0-8.53-2.35,18.9,18.9,0,0,0-9.73,2.55,19.91,19.91,0,0,0-7.05,7l-20-10.61a39.68,39.68,0,0,1,15.17-14.44q9.81-5.43,24.84-5.44a53.36,53.36,0,0,1,18.27,2.89,27.93,27.93,0,0,1,12.48,8.53A21.24,21.24,0,0,1,877.87,170a24.9,24.9,0,0,1-1.54,9.13,23.12,23.12,0,0,1-4.17,6.85q-2.61,3-5.3,5.44t-5.31,4.76a22.52,22.52,0,0,0-4.16,4.7,10,10,0,0,0-1.54,5.51Zm11.95,35.45A15,15,0,0,1,833,237.7a13.47,13.47,0,0,1-4.23-9.94,13,13,0,0,1,4.23-9.87,15.38,15.38,0,0,1,10.95-4c4.56,0,8.26,1.32,11.07,4a13,13,0,0,1,4.23,9.87A13.47,13.47,0,0,1,855,237.7,15.11,15.11,0,0,1,843.9,241.86Z" transform="translate(0 -18.26)"/><path d="M71.53,679.41,37.15,584.07H63.2l28.53,82H79.15l29.77-82h23.57l28.71,82h-12l29.24-82h24.46l-34.56,95.34H141.71l-25.52-70.35h8L98.29,679.41Z" transform="translate(0 -18.26)"/><path d="M275.68,582.66A44.43,44.43,0,0,1,296,587.17,32.84,32.84,0,0,1,310.06,601q5.13,9.3,5.14,23.83v54.58H287.55V629.08q0-11.51-5.05-17t-14.26-5.49a24.41,24.41,0,0,0-11.79,2.83,19.91,19.91,0,0,0-8.15,8.33q-2.93,5.5-2.92,14.53v47.14H217.73V547.92h27.65v62.56l-6.21-8a35.36,35.36,0,0,1,14.71-14.71A45.43,45.43,0,0,1,275.68,582.66Z" transform="translate(0 -18.26)"/><path d="M388,680.83a55.55,55.55,0,0,1-26.85-6.38,49.57,49.57,0,0,1-18.52-68.14A47.23,47.23,0,0,1,361.18,589,56.08,56.08,0,0,1,388,582.66q15.24,0,27.11,6.29a47.08,47.08,0,0,1,18.61,17.36,48,48,0,0,1,6.74,25.43,46.76,46.76,0,0,1-25.35,42.71A56.39,56.39,0,0,1,388,680.83Zm0-22.68a24.62,24.62,0,0,0,12.49-3.1,22.75,22.75,0,0,0,8.69-9.13,29.26,29.26,0,0,0,3.28-14.18,28.6,28.6,0,0,0-3.28-14.17,23,23,0,0,0-8.69-9,24.24,24.24,0,0,0-12.31-3.1,24.77,24.77,0,0,0-12.41,3.1,22.82,22.82,0,0,0-8.77,9,28.5,28.5,0,0,0-3.28,14.17A29.15,29.15,0,0,0,367,645.92a22.6,22.6,0,0,0,8.77,9.13A24.41,24.41,0,0,0,388,658.15Z" transform="translate(0 -18.26)"/><path d="M559,680.83q-15.42,0-27.38-6.29a49.17,49.17,0,0,1-18.79-68.14A48.55,48.55,0,0,1,531.66,589q12-6.37,27.38-6.37,15.06,0,26.32,6.29a36.51,36.51,0,0,1,16.21,17.81L580.3,618.45a25.58,25.58,0,0,0-9.39-9.83,24.06,24.06,0,0,0-12-3.1,25.74,25.74,0,0,0-12.58,3.1,23,23,0,0,0-9,9,28,28,0,0,0-3.37,14.17A28.53,28.53,0,0,0,537.24,646a22.91,22.91,0,0,0,9,9,25.74,25.74,0,0,0,12.58,3.1,24.06,24.06,0,0,0,12-3.1,25.42,25.42,0,0,0,9.39-10l21.27,11.7a37.09,37.09,0,0,1-16.21,17.72Q574.1,680.83,559,680.83Z" transform="translate(0 -18.26)"/><path d="M649.06,680.83q-11,0-19-3.81a29.67,29.67,0,0,1-12.32-10.37,26.07,26.07,0,0,1-4.34-14.7,26.69,26.69,0,0,1,4.17-14.8q4.15-6.46,13.2-10t23.74-3.55h25.17v15.95H657.39q-9.75,0-13.38,3.19a10.18,10.18,0,0,0-3.63,8,9.94,9.94,0,0,0,4.16,8.41q4.17,3.11,11.26,3.1A25.08,25.08,0,0,0,668.47,659a17.36,17.36,0,0,0,7.88-9.74l4.26,12.93a25.18,25.18,0,0,1-11,13.74Q661.64,680.84,649.06,680.83Zm29.06-1.42v-18.6l-1.77-4.08V623.41q0-8.85-5.4-13.82t-16.57-5a48.28,48.28,0,0,0-15,2.39,42.11,42.11,0,0,0-12.67,6.47L617,594.17a56,56,0,0,1,18.78-8.59,86.41,86.41,0,0,1,22.33-2.92q21.79,0,33.85,10.27T704,625v54.4Z" transform="translate(0 -18.26)"/><path d="M730.93,679.41V584.07h26.41v27.12l-3.73-8a30.71,30.71,0,0,1,13.65-15.33q9.39-5.22,22.86-5.22v25.69c-1.06-.23-2.1-.41-3.1-.53a24.76,24.76,0,0,0-2.93-.18q-11.69,0-18.6,6.56t-6.91,20.2v45Z" transform="translate(0 -18.26)"/><path d="M855,680.83q-16.31,0-28.53-6.38a47.17,47.17,0,0,1-19-17.45,47.65,47.65,0,0,1-6.74-25.26,49.63,49.63,0,0,1,6.47-25.34A45.53,45.53,0,0,1,825.3,589a53.9,53.9,0,0,1,26.14-6.29,52.71,52.71,0,0,1,25.25,6,45.3,45.3,0,0,1,17.81,17q6.56,11,6.56,26.41,0,1.59-.18,3.63c-.12,1.36-.24,2.63-.35,3.81H823.08V623.41H886l-10.81,4.79a25.21,25.21,0,0,0-2.83-12.94,22.05,22.05,0,0,0-8.33-8.59,24.13,24.13,0,0,0-12.4-3.1,24.64,24.64,0,0,0-12.5,3.1,21.71,21.71,0,0,0-8.42,8.68,27.37,27.37,0,0,0-3,13.2v4.26a26.1,26.1,0,0,0,3.55,13.82,23.39,23.39,0,0,0,9.74,9,33,33,0,0,0,14.89,3.1,35.45,35.45,0,0,0,13.2-2.3,32.68,32.68,0,0,0,10.55-6.92l14.7,15.95a42.63,42.63,0,0,1-16.48,11.43A61,61,0,0,1,855,680.83Z" transform="translate(0 -18.26)"/><path d="M953.51,680.83a91.91,91.91,0,0,1-23.39-2.92Q919,675,912.22,670.55l9-19.67a69.45,69.45,0,0,0,15.68,6.47,63.87,63.87,0,0,0,17.64,2.57q9.55,0,13.55-2.3c2.66-1.54,4-3.66,4-6.38a5.43,5.43,0,0,0-3.1-5,26.89,26.89,0,0,0-8.15-2.57q-5.05-.89-11.26-1.78a109.05,109.05,0,0,1-12.31-2.48A47.55,47.55,0,0,1,926,634.84a22.15,22.15,0,0,1-8.33-8.06q-3.11-5.13-3.1-13.29a25.83,25.83,0,0,1,5.31-16q5.32-7,15.07-10.9t23.56-3.89a91.82,91.82,0,0,1,19.94,2.21A61.81,61.81,0,0,1,995.33,591l-9.39,19.67a49.38,49.38,0,0,0-13.73-5.49,60.47,60.47,0,0,0-13.38-1.59q-9.57,0-13.82,2.48t-4.26,6.38a5.92,5.92,0,0,0,3.19,5.4,25,25,0,0,0,8.33,2.75q5.15.88,11.34,1.77a107.23,107.23,0,0,1,12.23,2.48,47.89,47.89,0,0,1,11.25,4.52,22.29,22.29,0,0,1,8.33,8.06q3.11,5.15,3.1,13.3a24.58,24.58,0,0,1-5.31,15.5q-5.33,6.82-15.33,10.72T953.51,680.83Z" transform="translate(0 -18.26)"/><path d="M1040.7,636.17a26.69,26.69,0,0,1,2-10.72,35.86,35.86,0,0,1,5.14-8.5,61.33,61.33,0,0,1,6.64-7q3.54-3.19,6.65-6.12a33,33,0,0,0,5.14-6.11,13.29,13.29,0,0,0,2-7.27,12.07,12.07,0,0,0-5.23-10.1q-5.23-3.9-13.74-3.9a31.61,31.61,0,0,0-15.15,3.46,30,30,0,0,0-10.72,9.66L1002.07,577a50.88,50.88,0,0,1,19.76-17.36q12.5-6.39,30.39-6.38a66.65,66.65,0,0,1,23.57,3.81,35.2,35.2,0,0,1,15.77,11.07q5.67,7.27,5.67,17.72a33,33,0,0,1-2.13,12.5,32.48,32.48,0,0,1-5.49,9.12,74.7,74.7,0,0,1-7.18,7.27q-3.81,3.38-7.17,6.56a31.81,31.81,0,0,0-5.5,6.73,15.62,15.62,0,0,0-2.12,8.15Zm13.47,44.66a16.32,16.32,0,0,1-12.05-4.78,15.51,15.51,0,0,1-4.79-11.35,14.85,14.85,0,0,1,4.79-11.25,16.86,16.86,0,0,1,12.05-4.52q7.62,0,12.31,4.52a15,15,0,0,1,4.7,11.25,15.66,15.66,0,0,1-4.7,11.35Q1061.78,680.84,1054.17,680.83Z" transform="translate(0 -18.26)"/></g></g></g></svg>