<svg xmlns="http://www.w3.org/2000/svg" viewBox="0 0 1044.64 916.55"><defs><style>.cls-1{fill:#fff;}</style></defs><title>2</title><g id="Camada_2" data-name="Camada 2"><g id="Camada_1-2" data-name="Camada 1"><g id="MOBILE2"><polygon class="cls-1" points="1044.64 413.62 804.19 413.62 804.19 541.68 0 541.68 0 655.05 145.25 655.05 145.25 782.59 538.55 780.75 538.49 916.55 1044.64 916.55 1044.64 789.41 1044.64 782.32 1044.64 413.62"/><path class="cls-1" d="M211.29,394c0-23.17,12.75-37.23,30.91-37.23s30.92,14.1,30.92,37.23S260.37,431.7,242.2,431.7,211.29,417.12,211.29,394Zm52.32,0c0-18-8.49-29.14-21.41-29.14S220.79,375.93,220.79,394s8.5,29.66,21.41,29.66S263.61,412,263.61,394Z" transform="translate(-33.04 -46.41)"/><path class="cls-1" d="M306.51,394c0-23.17,12.75-37.23,30.92-37.23s30.91,14.1,30.91,37.23-12.75,37.75-30.91,37.75S306.51,417.12,306.51,394Zm52.33,0c0-18-8.5-29.14-21.41-29.14S316,375.93,316,394c0,18.42,8.49,30.12,21.41,30.12S358.84,412.37,358.84,394Zm-26.41,36.18,9.56-.73c2.93,7.65,10,11.44,18.55,11.44a26.52,26.52,0,0,0,7.59-1l1.78,7.12a30.43,30.43,0,0,1-10.33,1.67C345.7,448.59,336.33,440.67,332.43,430.13Z" transform="translate(-33.04 -46.41)"/><path class="cls-1" d="M383.59,400.51V358h9.21v42.72c0,17.38,7.34,22.85,16.79,22.85s17.15-5.47,17.15-22.85V358h8.82v42.47c0,23.21-11.21,31.19-26,31.19S383.59,423.72,383.59,400.51Z" transform="translate(-33.04 -46.41)"/><path class="cls-1" d="M455,358h41.7v7.79H464.19V388.5h27.4v7.79h-27.4v26.3h33.59v7.79H455Z" transform="translate(-33.04 -46.41)"/><path class="cls-1" d="M529.86,421l5.51-6.32c5.21,5.4,12.44,9,20,9,9.49,0,15.12-4.73,15.12-11.76,0-7.39-5.24-9.74-12.07-12.72L548,394.54c-6.74-2.88-14.64-8-14.64-18.62,0-11.05,9.62-19.2,22.77-19.2a29.88,29.88,0,0,1,21.3,9l-4.89,5.91a23.13,23.13,0,0,0-16.41-6.78c-8.12,0-13.49,4.09-13.49,10.56,0,7,6.31,9.58,12,12l10.3,4.46c8.38,3.6,14.91,8.59,14.91,19.34,0,11.43-9.45,20.56-24.65,20.56A34.68,34.68,0,0,1,529.86,421Z" transform="translate(-33.04 -46.41)"/><path class="cls-1" d="M608.84,358h10.39l24.47,72.34H634L621.33,390c-2.6-8.09-4.92-16-7.24-24.38h-.44c-2.24,8.39-4.56,16.29-7.16,24.38l-12.75,40.4h-9.37Zm-11.61,43h33.31v7.34H597.23Z" transform="translate(-33.04 -46.41)"/><path class="cls-1" d="M653.48,358H675c14.71,0,24.89,5,24.89,17.72,0,7.14-3.81,13.5-10.57,15.7v.45c8.64,1.7,14.71,7.41,14.71,17.31,0,14.21-11.25,21.16-27.38,21.16H653.48Zm19.92,30.78c12.3,0,17.39-4.54,17.39-11.87,0-8.45-5.79-11.61-17-11.61H662.69v23.48Zm1.88,34.25c12.37,0,19.66-4.45,19.66-14.2,0-8.91-7-13-19.66-13H662.69v27.19Z" transform="translate(-33.04 -46.41)"/><path class="cls-1" d="M718.29,358H760v7.79H727.49V388.5H754.9v7.79H727.49v26.3h33.59v7.79H718.29Z" transform="translate(-33.04 -46.41)"/><path class="cls-1" d="M776.37,358h11.09l13.86,38.65c1.74,4.94,3.4,10.05,5.14,15.07h.45c1.74-5,3.26-10.13,5-15.07L825.61,358h11.08v72.34h-8.55V390.55c0-6.3.71-15,1.17-21.39h-.44l-5.74,16.49L809.5,423.07h-6.1l-13.69-37.42L784,369.16h-.44c.46,6.4,1.17,15.09,1.17,21.39v39.83h-8.34Z" transform="translate(-33.04 -46.41)"/><path class="cls-1" d="M852.3,394c0-23.17,12.75-37.23,30.92-37.23s30.91,14.1,30.91,37.23-12.75,37.75-30.91,37.75S852.3,417.12,852.3,394Zm52.33,0c0-18-8.5-29.14-21.41-29.14S861.81,375.93,861.81,394s8.49,29.66,21.41,29.66S904.63,412,904.63,394Z" transform="translate(-33.04 -46.41)"/><path class="cls-1" d="M924.44,421l5.51-6.32c5.2,5.4,12.43,9,19.95,9,9.49,0,15.12-4.73,15.12-11.76,0-7.39-5.24-9.74-12.06-12.72l-10.39-4.59c-6.74-2.88-14.65-8-14.65-18.62,0-11.05,9.63-19.2,22.77-19.2a29.87,29.87,0,0,1,21.3,9l-4.88,5.91a23.15,23.15,0,0,0-16.42-6.78c-8.11,0-13.49,4.09-13.49,10.56,0,7,6.31,9.58,12,12l10.31,4.46c8.37,3.6,14.9,8.59,14.9,19.34,0,11.43-9.44,20.56-24.65,20.56A34.66,34.66,0,0,1,924.44,421Z" transform="translate(-33.04 -46.41)"/><path class="cls-1" d="M1010.58,358h41.69v7.79h-32.48V388.5h27.4v7.79h-27.4v26.3h33.59v7.79h-42.8Zm15.54-9.06,15.6-14.2,5.18,6.14-16.73,12.66Z" transform="translate(-33.04 -46.41)"/><path class="cls-1" d="M38.91,518.86c0-23.17,12.75-37.23,30.92-37.23s30.91,14.1,30.91,37.23S88,556.61,69.83,556.61,38.91,542,38.91,518.86Zm52.33,0c0-18-8.5-29.14-21.41-29.14s-21.41,11.12-21.41,29.14c0,18.43,8.49,30.12,21.41,30.12S91.24,537.29,91.24,518.86ZM64.83,555.05l9.56-.73c2.93,7.64,10,11.44,18.54,11.44a26.14,26.14,0,0,0,7.6-1l1.78,7.12A30.48,30.48,0,0,1,92,573.5C78.1,573.5,68.73,565.58,64.83,555.05Z" transform="translate(-33.04 -46.41)"/><path class="cls-1" d="M116,525.42V483h9.21v42.72c0,17.38,7.34,22.85,16.79,22.85s17.15-5.47,17.15-22.85V483H168v42.47c0,23.21-11.21,31.19-26,31.19S116,548.63,116,525.42Z" transform="translate(-33.04 -46.41)"/><path class="cls-1" d="M187.38,483h41.69v7.79H196.59v22.67H224v7.79h-27.4v26.3h33.59v7.79h-42.8Z" transform="translate(-33.04 -46.41)"/><path class="cls-1" d="M267.51,483H277l26.18,45.48,7.81,15h.44c-.46-7.3-1.17-15.46-1.17-23V483H319v72.34h-9.5l-26.18-45.52-7.81-14.93h-.44c.46,7.32,1.17,15,1.17,22.59v37.86h-8.74Z" transform="translate(-33.04 -46.41)"/><path class="cls-1" d="M353.69,483h10.39l24.47,72.34H378.8l-12.62-40.4c-2.6-8.09-4.92-16-7.24-24.38h-.44c-2.24,8.39-4.56,16.29-7.16,24.38l-12.75,40.4h-9.37Zm-3-13.6c-2.8,0-4.89,2.56-5.33,7.28l-6.14-.46c.38-8.44,4.65-13.55,11.23-13.55,8.27,0,11.13,7.82,16.3,7.82,2.81,0,4.76-2.56,5.34-7.28l6.13.47c-.38,8.43-4.64,13.54-11.23,13.54C358.72,477.17,355.87,469.35,350.69,469.35Zm-8.6,56.56h33.3v7.34h-33.3Z" transform="translate(-33.04 -46.41)"/><path class="cls-1" d="M393.47,518.86c0-23.17,12.75-37.23,30.92-37.23s30.91,14.1,30.91,37.23-12.74,37.75-30.91,37.75S393.47,542,393.47,518.86Zm52.33,0c0-18-8.5-29.14-21.41-29.14S403,500.84,403,518.86s8.49,29.66,21.41,29.66S445.8,536.88,445.8,518.86Z" transform="translate(-33.04 -46.41)"/><path class="cls-1" d="M487.65,545.87l5.51-6.31c5.21,5.4,12.44,9,20,9,9.49,0,15.12-4.73,15.12-11.76,0-7.38-5.24-9.74-12.07-12.72l-10.39-4.59c-6.74-2.87-14.65-8-14.65-18.62,0-11.05,9.63-19.2,22.78-19.2a29.84,29.84,0,0,1,21.29,9l-4.88,5.92a23.1,23.1,0,0,0-16.41-6.79c-8.12,0-13.49,4.09-13.49,10.56,0,7,6.31,9.58,12,12l10.31,4.47c8.37,3.59,14.91,8.58,14.91,19.34,0,11.42-9.45,20.55-24.66,20.55A34.67,34.67,0,0,1,487.65,545.87Z" transform="translate(-33.04 -46.41)"/><path class="cls-1" d="M547.55,518.86c0-23.17,12.75-37.23,30.92-37.23s30.92,14.1,30.92,37.23-12.75,37.75-30.92,37.75S547.55,542,547.55,518.86Zm52.33,0c0-18-8.5-29.14-21.41-29.14s-21.41,11.12-21.41,29.14,8.49,29.66,21.41,29.66S599.88,536.88,599.88,518.86Z" transform="translate(-33.04 -46.41)"/><path class="cls-1" d="M624.94,483H636l13.87,38.65c1.74,4.95,3.4,10,5.14,15.08h.44c1.74-5,3.26-10.13,5-15.08L674.17,483h11.09v72.34H676.7V515.46c0-6.3.71-15,1.17-21.39h-.44l-5.74,16.5L658.07,548H652l-13.7-37.41-5.73-16.5h-.44c.47,6.4,1.17,15.09,1.17,21.39v39.83h-8.33Z" transform="translate(-33.04 -46.41)"/><path class="cls-1" d="M700.86,518.86c0-23.17,12.75-37.23,30.92-37.23s30.92,14.1,30.92,37.23S750,556.61,731.78,556.61,700.86,542,700.86,518.86Zm52.33,0c0-18-8.5-29.14-21.41-29.14s-21.41,11.12-21.41,29.14,8.49,29.66,21.41,29.66S753.19,536.88,753.19,518.86Z" transform="translate(-33.04 -46.41)"/><path class="cls-1" d="M773,545.87l5.51-6.31c5.21,5.4,12.44,9,20,9,9.49,0,15.12-4.73,15.12-11.76,0-7.38-5.24-9.74-12.07-12.72l-10.39-4.59c-6.74-2.87-14.65-8-14.65-18.62,0-11.05,9.63-19.2,22.77-19.2a29.85,29.85,0,0,1,21.3,9l-4.88,5.92a23.1,23.1,0,0,0-16.42-6.79c-8.11,0-13.48,4.09-13.48,10.56,0,7,6.31,9.58,12,12l10.31,4.47c8.37,3.59,14.9,8.58,14.9,19.34,0,11.42-9.44,20.55-24.65,20.55A34.66,34.66,0,0,1,773,545.87Z" transform="translate(-33.04 -46.41)"/><path d="M859.14,483h9.51l26.18,45.48,7.81,15h.44c-.46-7.3-1.17-15.46-1.17-23V483h8.74v72.34h-9.51L875,509.77l-7.8-14.93h-.45c.47,7.32,1.18,15,1.18,22.59v37.86h-8.75Z" transform="translate(-33.04 -46.41)"/><path d="M930.45,483h41.7v7.79H939.66v22.67h27.4v7.79h-27.4v26.3h33.59v7.79h-42.8Z" transform="translate(-33.04 -46.41)"/><path d="M988.54,483h11.08l13.87,38.65c1.74,4.95,3.4,10,5.14,15.08h.44c1.74-5,3.26-10.13,5-15.08l13.7-38.65h11.09v72.34h-8.56V515.46c0-6.3.71-15,1.17-21.39H1041l-5.74,16.5L1021.67,548h-6.1l-13.7-37.41-5.73-16.5h-.44c.47,6.4,1.17,15.09,1.17,21.39v39.83h-8.33Z" transform="translate(-33.04 -46.41)"/><path d="M64.74,650.33V607.87H74v42.71c0,17.39,7.34,22.85,16.79,22.85s17.15-5.46,17.15-22.85V607.87h8.82v42.46c0,23.21-11.21,31.19-26,31.19S64.74,673.54,64.74,650.33Z" transform="translate(-33.04 -46.41)"/><path d="M136.13,607.87h11.09l13.86,38.65c1.74,4.94,3.4,10,5.14,15.07h.45c1.74-5,3.26-10.13,5-15.07l13.7-38.65h11.08V680.2H187.9V640.37c0-6.3.71-15,1.17-21.39h-.44l-5.74,16.5L169.26,672.9h-6.1l-13.69-37.42L143.74,619h-.44c.46,6.4,1.17,15.09,1.17,21.39V680.2h-8.34Z" transform="translate(-33.04 -46.41)"/><path d="M231.13,607.87h10.39L266,680.2h-9.75l-12.61-40.4c-2.6-8.09-4.92-16-7.24-24.37h-.45c-2.23,8.38-4.56,16.28-7.15,24.37L216,680.2h-9.37Zm-11.6,43h33.31v7.35H219.53Z" transform="translate(-33.04 -46.41)"/><path d="M298.26,607.87h11.08l13.87,38.65c1.74,4.94,3.4,10,5.14,15.07h.44c1.74-5,3.26-10.13,5-15.07l13.71-38.65h11.08V680.2H350V640.37c0-6.3.7-15,1.17-21.39h-.44L345,635.48,331.39,672.9h-6.1L311.6,635.48,305.87,619h-.45c.47,6.4,1.18,15.09,1.18,21.39V680.2h-8.34Z" transform="translate(-33.04 -46.41)"/><path d="M393.26,607.87h10.39l24.47,72.33h-9.75l-12.62-40.4c-2.6-8.09-4.92-16-7.24-24.37h-.44c-2.24,8.38-4.56,16.28-7.16,24.37l-12.75,40.4h-9.37Zm-11.6,43H415v7.35h-33.3Z" transform="translate(-33.04 -46.41)"/><path d="M437.9,607.87h22.66c14.73,0,25.31,5.29,25.31,20.35,0,14.45-10.58,21.41-25.31,21.41H447.11V680.2H437.9Zm21.33,34.29c11.26,0,17.46-4.56,17.46-13.94s-6.2-12.89-17.46-12.89H447.11v26.83Zm-.49,5,7.22-4.77L488,680.2H477.59Z" transform="translate(-33.04 -46.41)"/><path d="M496.41,644.1c0-23.33,13.75-37.56,32.1-37.56a27,27,0,0,1,19.9,8.92l-5,6c-3.81-4.06-8.59-6.82-14.69-6.82-13.67,0-22.76,11.19-22.76,29.21,0,18.19,8.68,29.58,22.4,29.58,6.9,0,12.14-3,16.76-8.12l5,5.77c-5.72,6.64-12.8,10.44-22.2,10.44C509.92,681.52,496.41,667.59,496.41,644.1Z" transform="translate(-33.04 -46.41)"/><path d="M578.42,607.87h10.39l24.47,72.33h-9.75l-12.62-40.4c-2.59-8.09-4.92-16-7.24-24.37h-.44c-2.24,8.38-4.56,16.28-7.16,24.37l-12.75,40.4H554Zm-11.6,43h33.3v7.35h-33.3Z" transform="translate(-33.04 -46.41)"/><path d="M645.55,607.87h9.2V680.2h-9.2Z" transform="translate(-33.04 -46.41)"/><path d="M674.53,607.87H684l26.18,45.47,7.81,15h.44c-.46-7.3-1.17-15.45-1.17-23V607.87H726V680.2h-9.51l-26.18-45.51-7.8-14.94h-.45c.47,7.32,1.18,15,1.18,22.6V680.2h-8.75Z" transform="translate(-33.04 -46.41)"/><path d="M745.84,607.87h41.72v7.79H755.05v24.39h27.57v7.79H755.05V680.2h-9.21Z" transform="translate(-33.04 -46.41)"/><path d="M811.09,607.87h10.38l24.47,72.33h-9.75l-12.61-40.4c-2.6-8.09-4.92-16-7.24-24.37h-.44c-2.24,8.38-4.56,16.28-7.16,24.37L796,680.2h-9.37Zm-11.61,43h33.31v7.35H799.48Z" transform="translate(-33.04 -46.41)"/><path d="M855.73,607.87h9.51l26.18,45.47,7.8,15h.44c-.46-7.3-1.17-15.45-1.17-23V607.87h8.75V680.2h-9.51l-26.18-45.51-7.81-14.94h-.44c.46,7.32,1.17,15,1.17,22.6V680.2h-8.74Z" transform="translate(-33.04 -46.41)"/><path d="M942.1,615.66H920.22v-7.79h53v7.79H951.3V680.2h-9.2Z" transform="translate(-33.04 -46.41)"/><path d="M986.12,607.87h9.2V680.2h-9.2Z" transform="translate(-33.04 -46.41)"/><path d="M1015.1,607.87h9.21v64.54h31.57v7.79H1015.1Z" transform="translate(-33.04 -46.41)"/><path d="M215.7,732.78h9.51l26.18,45.47,7.81,15h.44c-.47-7.3-1.17-15.45-1.17-23V732.78h8.74v72.33H257.7L231.52,759.6l-7.81-14.94h-.44c.47,7.32,1.17,15,1.17,22.6v37.85H215.7Z" transform="translate(-33.04 -46.41)"/><path d="M287,732.78H328.7v7.79H296.22v22.66h27.4V771h-27.4v26.29h33.59v7.79H287Z" transform="translate(-33.04 -46.41)"/><path d="M345.1,732.78h11.08l13.87,38.65c1.74,4.94,3.4,10.05,5.14,15.07h.44c1.74-5,3.26-10.13,5-15.07l13.7-38.65h11.09v72.33h-8.56V765.29c0-6.3.71-15,1.17-21.39h-.44l-5.74,16.49-13.63,37.42h-6.1l-13.69-37.42L352.7,743.9h-.44c.46,6.39,1.17,15.09,1.17,21.39v39.82H345.1Z" transform="translate(-33.04 -46.41)"/><path d="M462.32,740.57H440.44v-7.79h53v7.79H471.53v64.54h-9.21Z" transform="translate(-33.04 -46.41)"/><path d="M499.5,768.69c0-23.17,12.75-37.23,30.91-37.23s30.92,14.1,30.92,37.23-12.75,37.75-30.92,37.75S499.5,791.85,499.5,768.69Zm52.32,0c0-18-8.49-29.14-21.41-29.14S509,750.67,509,768.69s8.5,29.65,21.41,29.65S551.82,786.71,551.82,768.69Z" transform="translate(-33.04 -46.41)"/><path d="M589.29,740.57H567.41v-7.79h53v7.79H598.5v64.54h-9.21Z" transform="translate(-33.04 -46.41)"/><path d="M643.78,732.78h10.38l24.47,72.33h-9.75l-12.61-40.4c-2.6-8.08-4.92-16-7.24-24.37h-.44c-2.24,8.39-4.56,16.29-7.16,24.37l-12.75,40.4h-9.37Zm-11.61,43h33.31v7.35H632.17Z" transform="translate(-33.04 -46.41)"/><path d="M688.42,732.78h9.2v64.54H729.2v7.79H688.42Z" transform="translate(-33.04 -46.41)"/><path d="M742,732.78h11.09l13.87,38.65c1.74,4.94,3.39,10.05,5.14,15.07h.44c1.74-5,3.26-10.13,5-15.07l13.7-38.65h11.09v72.33h-8.56V765.29c0-6.3.71-15,1.17-21.39h-.44l-5.74,16.49-13.63,37.42H769l-13.69-37.42-5.73-16.49h-.44c.46,6.39,1.17,15.09,1.17,21.39v39.82H742Z" transform="translate(-33.04 -46.41)"/><path d="M822.11,732.78H863.8v7.79H831.32v22.66h27.4V771h-27.4v26.29h33.59v7.79h-42.8Z" transform="translate(-33.04 -46.41)"/><path d="M880.2,732.78h9.5l26.18,45.47,7.81,15h.44c-.46-7.3-1.17-15.45-1.17-23V732.78h8.74v72.33h-9.5L896,759.6l-7.8-14.94h-.44c.46,7.32,1.17,15,1.17,22.6v37.85H880.2Z" transform="translate(-33.04 -46.41)"/><path d="M966.56,740.57H944.68v-7.79h53v7.79H975.77v64.54h-9.21Z" transform="translate(-33.04 -46.41)"/><path d="M1010.58,732.78h41.69v7.79h-32.48v22.66h27.4V771h-27.4v26.29h33.59v7.79h-42.8Z" transform="translate(-33.04 -46.41)"/><path d="M625.7,857.69h10.39L660.56,930h-9.75l-12.62-40.4c-2.6-8.09-4.92-16-7.24-24.38h-.44c-2.24,8.39-4.56,16.29-7.16,24.38L610.6,930h-9.37Zm-11.6,43h33.3V908H614.1Z" transform="translate(-33.04 -46.41)"/><path d="M670.34,857.69h18.1c22.24,0,34.16,12.93,34.16,35.91S710.68,930,688.85,930H670.34Zm17.42,64.79c16.9,0,25.34-10.6,25.34-28.88s-8.44-28.36-25.34-28.36h-8.21v57.24Z" transform="translate(-33.04 -46.41)"/><path d="M737.82,900.16V857.69H747v42.72c0,17.38,7.35,22.85,16.79,22.85S781,917.79,781,900.41V857.69h8.82v42.47c0,23.21-11.2,31.19-26,31.19S737.82,923.37,737.82,900.16Z" transform="translate(-33.04 -46.41)"/><path d="M809.21,857.69h9.21v64.55H850V930H809.21Z" transform="translate(-33.04 -46.41)"/><path d="M864.61,865.48H842.73v-7.79h53v7.79H873.82V930h-9.21Z" transform="translate(-33.04 -46.41)"/><path d="M919.1,857.69h10.38L954,930H944.2l-12.61-40.4c-2.6-8.09-4.92-16-7.24-24.38h-.44c-2.24,8.39-4.56,16.29-7.16,24.38L904,930h-9.36Zm-11.61,43H940.8V908H907.49Z" transform="translate(-33.04 -46.41)"/><path d="M964.66,924.48c0-4.16,3-7,6.56-7s6.56,2.84,6.56,7a6.57,6.57,0,1,1-13.12,0Zm36.92,0c0-4.16,3-7,6.57-7s6.56,2.84,6.56,7a6.57,6.57,0,1,1-13.13,0Zm36.93,0c0-4.16,3-7,6.56-7s6.57,2.84,6.57,7a6.57,6.57,0,1,1-13.13,0Z" transform="translate(-33.04 -46.41)"/><path class="cls-1" d="M205.69,130.94a40.39,40.39,0,0,1-18.32-4A28,28,0,0,1,175,114.76q-4.42-8.24-4.42-20.75V47.61h23.8V90.35q0,10.38,4.34,15.18T211,110.34a19.33,19.33,0,0,0,9.77-2.44,17.34,17.34,0,0,0,6.79-7.33,26.42,26.42,0,0,0,2.52-12.2V47.62h23.66v82.11H231.17V107l4.12,6.72a29.11,29.11,0,0,1-12.21,12.89A35.59,35.59,0,0,1,205.69,130.94Z" transform="translate(-33.04 -46.41)"/><path class="cls-1" d="M381,46.42a37.2,37.2,0,0,1,17.32,3.89,27.52,27.52,0,0,1,11.83,11.9q4.26,8,4.27,20.53v47h-23.8V86.4q0-9.91-4-14.65T375.24,67a18.71,18.71,0,0,0-9.46,2.36,15.57,15.57,0,0,0-6.34,7q-2.2,4.66-2.21,12.13v41.21h-23.8V86.39q0-9.92-4-14.65T317.71,67a18.31,18.31,0,0,0-9.31,2.37,15.86,15.86,0,0,0-6.41,7q-2.3,4.67-2.29,12.14v41.2H275.88V47.63h22.74V69.91l-4.27-6.41a28.39,28.39,0,0,1,12.05-12.74,36.55,36.55,0,0,1,17.86-4.35,34.86,34.86,0,0,1,19.84,5.72q8.55,5.73,11.29,17.48L347,67.32a33.49,33.49,0,0,1,13.12-15.18A38,38,0,0,1,381,46.42Z" transform="translate(-33.04 -46.41)"/><path class="cls-1" d="M461.3,131A37.67,37.67,0,0,1,445,127.69a25.65,25.65,0,0,1-10.6-8.93,22.4,22.4,0,0,1-3.74-12.67,23,23,0,0,1,3.59-12.74q3.58-5.56,11.37-8.62t20.45-3h21.67V95.41H468.48q-8.4,0-11.52,2.75a8.74,8.74,0,0,0-3.13,6.86,8.54,8.54,0,0,0,3.58,7.25Q461,115,467.1,115A21.59,21.59,0,0,0,478,112.2a15,15,0,0,0,6.8-8.39L488.47,115A21.57,21.57,0,0,1,479,126.77Q472.15,131,461.3,131Zm25-1.22v-16l-1.52-3.51V81.53q0-7.64-4.65-11.91t-14.27-4.27A41.24,41.24,0,0,0,453,67.41,36,36,0,0,0,442.08,73l-8.39-16.64a48.44,48.44,0,0,1,16.18-7.4,73.86,73.86,0,0,1,19.22-2.51q18.78,0,29.15,8.85T508.62,82.9v46.85Z" transform="translate(-33.04 -46.41)"/><path class="cls-1" d="M678.47,46.45a37.35,37.35,0,0,1,17.32,3.89,27.55,27.55,0,0,1,11.83,11.91q4.26,8,4.27,20.52v47H688.07V86.43q0-9.92-4-14.65t-11.37-4.73a18.75,18.75,0,0,0-9.47,2.36,15.6,15.6,0,0,0-6.33,7q-2.21,4.66-2.21,12.14v41.2h-23.8V86.43q0-9.93-4-14.65T615.13,67a18.28,18.28,0,0,0-9.3,2.37,16,16,0,0,0-6.42,7q-2.28,4.65-2.29,12.13v41.2H573.31V47.66h22.74V69.94l-4.27-6.41a28.39,28.39,0,0,1,12.05-12.74,36.52,36.52,0,0,1,17.86-4.35,34.79,34.79,0,0,1,19.84,5.73q8.54,5.71,11.29,17.47l-8.4-2.29a33.57,33.57,0,0,1,13.13-15.18A38.08,38.08,0,0,1,678.47,46.45Z" transform="translate(-33.04 -46.41)"/><path class="cls-1" d="M758.73,131a37.52,37.52,0,0,1-16.33-3.28,25.52,25.52,0,0,1-10.6-8.93,22.38,22.38,0,0,1-3.74-12.67,23,23,0,0,1,3.59-12.74q3.58-5.56,11.37-8.62t20.45-3.05h21.67V95.45H765.91q-8.4,0-11.52,2.74a8.75,8.75,0,0,0-3.13,6.87,8.56,8.56,0,0,0,3.58,7.25q3.58,2.67,9.69,2.67a21.59,21.59,0,0,0,10.91-2.75,15,15,0,0,0,6.8-8.39L785.9,115a21.67,21.67,0,0,1-9.47,11.83Q769.56,131,758.73,131Zm25-1.22v-16l-1.53-3.51V81.56q0-7.64-4.66-11.9t-14.26-4.28a41.54,41.54,0,0,0-12.9,2.06A36,36,0,0,0,739.51,73l-8.39-16.64A48.38,48.38,0,0,1,747.29,49a74.86,74.86,0,0,1,19.23-2.51q18.78,0,29.15,8.85T806,82.94v46.85Z" transform="translate(-33.04 -46.41)"/><path class="cls-1" d="M827.55,129.79V47.69H850.3V71l-3.2-6.87A26.32,26.32,0,0,1,858.85,51q8.08-4.5,19.69-4.5V68.6a26.68,26.68,0,0,0-2.67-.46,21.81,21.81,0,0,0-2.52-.15q-10.07,0-16,5.64t-6,17.4v38.76Z" transform="translate(-33.04 -46.41)"/><path class="cls-1" d="M931.63,131a49.87,49.87,0,0,1-23.57-5.42,40.46,40.46,0,0,1-22-36.86,40.48,40.48,0,0,1,5.88-21.82,41.64,41.64,0,0,1,16.18-15,49.31,49.31,0,0,1,23.57-5.49q13,0,22.67,5.42a31.48,31.48,0,0,1,14,15.33L950,77.3a22.21,22.21,0,0,0-8.08-8.47,20.89,20.89,0,0,0-10.38-2.67,22.24,22.24,0,0,0-10.84,2.67,19.88,19.88,0,0,0-7.78,7.71A24.09,24.09,0,0,0,910,88.75a24.44,24.44,0,0,0,2.9,12.28,19.6,19.6,0,0,0,7.78,7.78,22.1,22.1,0,0,0,10.83,2.68,20.74,20.74,0,0,0,10.38-2.67A21.94,21.94,0,0,0,950,100.2l18.31,10.07a31.94,31.94,0,0,1-14,15.26Q944.6,131,931.63,131Z" transform="translate(-33.04 -46.41)"/><path class="cls-1" d="M1007.48,131a37.67,37.67,0,0,1-16.33-3.28,25.69,25.69,0,0,1-10.61-8.93,22.47,22.47,0,0,1-3.73-12.67,23,23,0,0,1,3.58-12.74q3.6-5.56,11.37-8.62t20.46-3.05h21.67V95.47h-19.22q-8.4,0-11.53,2.75a8.77,8.77,0,0,0-3.13,6.86,8.55,8.55,0,0,0,3.59,7.25q3.58,2.69,9.69,2.68a21.59,21.59,0,0,0,10.91-2.75,15,15,0,0,0,6.79-8.39l3.66,11.14a21.55,21.55,0,0,1-9.46,11.82Q1018.31,131,1007.48,131Zm25-1.22v-16l-1.53-3.51V81.59q0-7.64-4.66-11.91t-14.27-4.27a41.23,41.23,0,0,0-12.89,2.06A36,36,0,0,0,988.26,73L979.87,56.4A48.38,48.38,0,0,1,996,49a74,74,0,0,1,19.23-2.51q18.78,0,29.15,8.85T1054.79,83v46.85Z" transform="translate(-33.04 -46.41)"/><path class="cls-1" d="M497.3,298.63a48.33,48.33,0,0,1-10.69-1.14,26.24,26.24,0,0,1-8.54-3.44l6.41-17.24a17.08,17.08,0,0,0,10.07,2.9,8.92,8.92,0,0,0,7.1-2.9q2.52-2.9,2.52-9.16V185.71H528V267.5q0,14.36-8,22.74T497.3,298.63Zm18.78-124.37q-6.72,0-10.83-3.82a12.92,12.92,0,0,1,0-18.92q4.11-3.81,10.83-3.81a16,16,0,0,1,10.76,3.58,11.6,11.6,0,0,1,4.2,9.24,13,13,0,0,1-4.12,9.84Q522.79,174.26,516.08,174.26Z" transform="translate(-33.04 -46.41)"/><path class="cls-1" d="M589,269a47.79,47.79,0,0,1-23.12-5.5,41.67,41.67,0,0,1,0-73.63A48.38,48.38,0,0,1,589,184.49a49.11,49.11,0,0,1,23.35,5.42,40.65,40.65,0,0,1,16,15,41.37,41.37,0,0,1,5.79,21.9,40.85,40.85,0,0,1-5.8,21.82,41.42,41.42,0,0,1-16,15A48.62,48.62,0,0,1,589,269Zm0-19.54a21.16,21.16,0,0,0,10.76-2.67,19.56,19.56,0,0,0,7.48-7.85,25.2,25.2,0,0,0,2.82-12.21,24.66,24.66,0,0,0-2.82-12.21,19.9,19.9,0,0,0-7.48-7.71,20.92,20.92,0,0,0-10.6-2.67,21.39,21.39,0,0,0-10.69,2.67,19.66,19.66,0,0,0-7.55,7.71,24.49,24.49,0,0,0-2.83,12.2A25.2,25.2,0,0,0,570.93,239a19.44,19.44,0,0,0,7.56,7.86A21,21,0,0,0,589,249.5Z" transform="translate(-33.04 -46.41)"/><path class="cls-1" d="M670.2,267.83l-34.48-82.11h24.42l28.68,70.66H676.61l29.92-70.65h22.74l-34.65,82.1Z" transform="translate(-33.04 -46.41)"/><path class="cls-1" d="M777.49,269.06q-14.06,0-24.58-5.5a40.59,40.59,0,0,1-16.32-15,41,41,0,0,1-5.8-21.75A42.75,42.75,0,0,1,736.36,205a39.24,39.24,0,0,1,15.57-15,46.49,46.49,0,0,1,22.51-5.42,45.44,45.44,0,0,1,21.75,5.19,39,39,0,0,1,15.33,14.66q5.65,9.46,5.65,22.74c0,.91-.06,2-.16,3.12s-.2,2.27-.3,3.29H750V219.61H804.2l-9.31,4.12a21.8,21.8,0,0,0-2.44-11.14,19,19,0,0,0-7.18-7.41,20.8,20.8,0,0,0-10.68-2.67,21.26,21.26,0,0,0-10.76,2.67,18.65,18.65,0,0,0-7.25,7.48A23.57,23.57,0,0,0,754,224v3.66a22.44,22.44,0,0,0,3,11.9,20.1,20.1,0,0,0,8.39,7.71A28.38,28.38,0,0,0,778.25,250a30.51,30.51,0,0,0,11.37-2,28,28,0,0,0,9.08-5.95l12.66,13.74a36.87,36.87,0,0,1-14.19,9.84A52.49,52.49,0,0,1,777.49,269.06Z" transform="translate(-33.04 -46.41)"/><path class="cls-1" d="M938.19,184.53a37.35,37.35,0,0,1,17.32,3.89,27.58,27.58,0,0,1,11.82,11.91q4.27,8,4.28,20.53v47H947.79V224.52q0-9.93-4-14.65t-11.37-4.74a18.68,18.68,0,0,0-9.47,2.37,15.55,15.55,0,0,0-6.33,7q-2.21,4.65-2.21,12.13v41.2h-23.8V224.51q0-9.91-4-14.65t-11.68-4.73a18.43,18.43,0,0,0-9.31,2.36,16,16,0,0,0-6.4,7q-2.29,4.65-2.3,12.13v41.21H833v-82.1h22.74V208l-4.27-6.41a28.39,28.39,0,0,1,12-12.74,36.41,36.41,0,0,1,17.86-4.34,34.78,34.78,0,0,1,19.84,5.72q8.54,5.73,11.29,17.48l-8.39-2.29a33.56,33.56,0,0,1,13.12-15.19A38.17,38.17,0,0,1,938.19,184.53Z" transform="translate(-33.04 -46.41)"/><path class="cls-1" d="M1008.54,230.63a23,23,0,0,1,1.75-9.24,31.4,31.4,0,0,1,4.43-7.32,53.73,53.73,0,0,1,5.72-6c2-1.83,3.94-3.58,5.73-5.26a28.44,28.44,0,0,0,4.42-5.27,11.35,11.35,0,0,0,1.76-6.25,10.39,10.39,0,0,0-4.5-8.7q-4.5-3.36-11.83-3.36a27.32,27.32,0,0,0-13,3,25.9,25.9,0,0,0-9.23,8.32l-18.47-10.84a43.89,43.89,0,0,1,17-15q10.76-5.49,26.17-5.49a57.35,57.35,0,0,1,20.3,3.28,30.33,30.33,0,0,1,13.58,9.54,24,24,0,0,1,4.88,15.26,28.53,28.53,0,0,1-1.83,10.76,28.22,28.22,0,0,1-4.73,7.86,67.67,67.67,0,0,1-6.18,6.26q-3.29,2.9-6.18,5.64a27.39,27.39,0,0,0-4.73,5.8,13.32,13.32,0,0,0-1.84,7Zm11.59,38.45a14.07,14.07,0,0,1-10.38-4.12,13.35,13.35,0,0,1-4.12-9.76,12.77,12.77,0,0,1,4.13-9.69,14.46,14.46,0,0,1,10.37-3.89,14.64,14.64,0,0,1,10.61,3.89,12.9,12.9,0,0,1,4,9.69,13.51,13.51,0,0,1-4,9.77A14.2,14.2,0,0,1,1020.13,269.08Z" transform="translate(-33.04 -46.41)"/></g></g></g></svg>