<svg xmlns="http://www.w3.org/2000/svg" viewBox="0 0 1076.18 865.87"><defs><style>.cls-1{fill:#211915;}.cls-2{fill:#ececed;}</style></defs><title>4</title><g id="Camada_2" data-name="Camada 2"><g id="Camada_1-2" data-name="Camada 1"><g id="MOBILE4"><rect class="cls-1" x="559.03" width="386.33" height="79.21"/><rect class="cls-1" x="206.31" y="237.26" width="869.55" height="79.21"/><rect class="cls-1" x="42.73" y="315.63" width="991.81" height="79.21"/><rect class="cls-1" x="404.35" y="709.18" width="527.14" height="79.21"/><rect class="cls-1" y="786.67" width="1071.02" height="79.21"/><rect class="cls-1" x="51.34" y="549.81" width="359.88" height="79.21"/><path class="cls-2" d="M4.9,66,27.26,16.62h7L56.67,66h-7.4l-20-45.42h2.82L12.17,66Zm9.53-12.34L16.33,48H44.12l2,5.64Z" transform="translate(-2.93)"/><path class="cls-2" d="M67.89,66V16.62h20.8a30,30,0,0,1,13.93,3.11A22.93,22.93,0,0,1,112,28.4a24.62,24.62,0,0,1,3.35,12.91A24.62,24.62,0,0,1,112,54.22a22.93,22.93,0,0,1-9.38,8.67A30,30,0,0,1,88.69,66Zm7-6.13H88.27a22.72,22.72,0,0,0,10.61-2.33,17,17,0,0,0,7-6.52,18.74,18.74,0,0,0,2.47-9.7,18.67,18.67,0,0,0-2.47-9.73,17,17,0,0,0-7-6.49,22.72,22.72,0,0,0-10.61-2.33H74.94Z" transform="translate(-2.93)"/><path class="cls-2" d="M152.31,66.56a28.34,28.34,0,0,1-10.48-1.91,25,25,0,0,1-8.35-5.32,24.32,24.32,0,0,1-5.5-8,24.94,24.94,0,0,1-2-10,25,25,0,0,1,2-10,24.38,24.38,0,0,1,5.5-8A25.1,25.1,0,0,1,141.8,18a30,30,0,0,1,20.95,0,24.79,24.79,0,0,1,8.32,5.29,24,24,0,0,1,5.46,8,25.58,25.58,0,0,1,1.94,10.05,25.53,25.53,0,0,1-1.94,10.09,24.12,24.12,0,0,1-5.46,8,24.79,24.79,0,0,1-8.32,5.29A28.45,28.45,0,0,1,152.31,66.56Zm0-6.28a20.08,20.08,0,0,0,7.58-1.41,18,18,0,0,0,6.06-4,18.53,18.53,0,0,0,4-6,19.28,19.28,0,0,0,1.45-7.55A18.87,18.87,0,0,0,166,27.77a17.65,17.65,0,0,0-6.06-4,21.27,21.27,0,0,0-15.23,0,18.15,18.15,0,0,0-6.11,4,18.72,18.72,0,0,0-4.05,6,19,19,0,0,0-1.45,7.51,19.28,19.28,0,0,0,1.45,7.55,18.3,18.3,0,0,0,4.05,6,18.51,18.51,0,0,0,6.11,4A20.19,20.19,0,0,0,152.31,60.28Z" transform="translate(-2.93)"/><path class="cls-2" d="M193.14,66V16.62H212.4a27.15,27.15,0,0,1,11.07,2.05,15.63,15.63,0,0,1,7.05,5.92A16.83,16.83,0,0,1,233,33.83,16.63,16.63,0,0,1,230.52,43a15.76,15.76,0,0,1-7.05,5.89,27.15,27.15,0,0,1-11.07,2H197l3.18-3.24V66Zm7.06-17.56L197,45h15.17q6.76,0,10.26-2.93a10.15,10.15,0,0,0,3.49-8.22,10.06,10.06,0,0,0-3.49-8.18q-3.49-2.89-10.26-2.89H197l3.18-3.53Zm26,17.56L213.6,48.08h7.54L233.84,66Z" transform="translate(-2.93)"/><path class="cls-2" d="M240.82,66l22.36-49.37h7L292.59,66h-7.41l-20-45.42H268L248.08,66Zm9.52-12.34,1.9-5.64H280l2.05,5.64Z" transform="translate(-2.93)"/><path class="cls-2" d="M303.8,66V16.62h5.78l22.15,37.31h-3.1l21.86-37.31h5.78L356.34,66h-6.77l-.07-38.72h1.62L331.66,60h-3.25l-19.6-32.73h1.76V66Z" transform="translate(-2.93)"/><path class="cls-2" d="M397.32,66.56a28.28,28.28,0,0,1-10.47-1.91,25.05,25.05,0,0,1-8.36-5.32,24.47,24.47,0,0,1-5.5-8,24.94,24.94,0,0,1-2-10,25,25,0,0,1,2-10,24.54,24.54,0,0,1,5.5-8A25.1,25.1,0,0,1,386.81,18a30,30,0,0,1,20.95,0,24.69,24.69,0,0,1,8.32,5.29,24.16,24.16,0,0,1,5.47,8,25.76,25.76,0,0,1,1.94,10.05,25.71,25.71,0,0,1-1.94,10.09,24.3,24.3,0,0,1-5.47,8,24.69,24.69,0,0,1-8.32,5.29A28.45,28.45,0,0,1,397.32,66.56Zm0-6.28a20,20,0,0,0,7.58-1.41,18.13,18.13,0,0,0,6.07-4,18.85,18.85,0,0,0,4-6,19.46,19.46,0,0,0,1.44-7.55A18.81,18.81,0,0,0,411,27.77a17.79,17.79,0,0,0-6.07-4,20,20,0,0,0-7.58-1.41,20.26,20.26,0,0,0-7.65,1.41,18.11,18.11,0,0,0-6.1,4,18.75,18.75,0,0,0-4.06,6,19.15,19.15,0,0,0-1.44,7.51,19.46,19.46,0,0,0,1.44,7.55,18.31,18.31,0,0,0,10.16,10A20.26,20.26,0,0,0,397.32,60.28Z" transform="translate(-2.93)"/><path class="cls-2" d="M452.54,66.56a33.73,33.73,0,0,1-10.79-1.73,22,22,0,0,1-8.11-4.48l2.61-5.5a22.76,22.76,0,0,0,7.2,4.09,25.92,25.92,0,0,0,9.09,1.62,20.85,20.85,0,0,0,7-1,8.28,8.28,0,0,0,3.94-2.72A6.42,6.42,0,0,0,464.74,53a5.33,5.33,0,0,0-1.65-4.09,12.32,12.32,0,0,0-4.31-2.51A50.61,50.61,0,0,0,453,44.69c-2.12-.46-4.25-1-6.39-1.65a28.61,28.61,0,0,1-5.85-2.44,11.91,11.91,0,0,1-4.27-4,11.68,11.68,0,0,1-1.62-6.45,13,13,0,0,1,2-7A13.94,13.94,0,0,1,443.06,18a25.56,25.56,0,0,1,10.68-1.94,33.18,33.18,0,0,1,8.54,1.13,23.74,23.74,0,0,1,7.33,3.24l-2.33,5.65a22.28,22.28,0,0,0-6.7-3.07,26,26,0,0,0-6.84-1,19,19,0,0,0-6.84,1.05A8.36,8.36,0,0,0,443,25.93a6.71,6.71,0,0,0-1.24,3.95A5.4,5.4,0,0,0,443.41,34a11.78,11.78,0,0,0,4.3,2.47,54.53,54.53,0,0,0,5.82,1.66c2.12.49,4.24,1,6.38,1.66a27.25,27.25,0,0,1,5.86,2.4,12,12,0,0,1,4.26,4,11.26,11.26,0,0,1,1.63,6.34,12.71,12.71,0,0,1-2.05,6.95,14.13,14.13,0,0,1-6.31,5.15A26.11,26.11,0,0,1,452.54,66.56Z" transform="translate(-2.93)"/><path class="cls-2" d="M501.21,66l22.35-49.37h7L553,66h-7.4l-20-45.42h2.82L508.47,66Zm9.52-12.34,1.9-5.64h27.79l2.05,5.64Z" transform="translate(-2.93)"/><path class="cls-2" d="M587,66V16.62h5.78L615,53.93h-3.11l21.87-37.31h5.78L639.58,66h-6.77l-.07-38.72h1.62L614.9,60h-3.25l-19.6-32.73h1.76V66Z" transform="translate(-2.93)"/><path class="cls-2" d="M658.27,66V16.62h7.05V66Z" transform="translate(-2.93)"/><path class="cls-2" d="M698.4,66.56a33.73,33.73,0,0,1-10.79-1.73,22,22,0,0,1-8.11-4.48l2.61-5.5a22.82,22.82,0,0,0,7.19,4.09,26,26,0,0,0,9.1,1.62,20.75,20.75,0,0,0,7-1,8.26,8.26,0,0,0,4-2.72A6.42,6.42,0,0,0,710.6,53a5.31,5.31,0,0,0-1.66-4.09,12.18,12.18,0,0,0-4.3-2.51,50.22,50.22,0,0,0-5.82-1.66c-2.11-.46-4.24-1-6.38-1.65a28.61,28.61,0,0,1-5.85-2.44,11.83,11.83,0,0,1-4.27-4,11.68,11.68,0,0,1-1.62-6.45,13,13,0,0,1,2-7A13.94,13.94,0,0,1,688.92,18a25.52,25.52,0,0,1,10.68-1.94,33,33,0,0,1,8.53,1.13,23.7,23.7,0,0,1,7.34,3.24l-2.33,5.65a22.28,22.28,0,0,0-6.7-3.07,26,26,0,0,0-6.84-1,19,19,0,0,0-6.84,1.05,8.45,8.45,0,0,0-3.92,2.82,6.77,6.77,0,0,0-1.23,3.95A5.4,5.4,0,0,0,689.27,34a11.78,11.78,0,0,0,4.3,2.47,54.53,54.53,0,0,0,5.82,1.66c2.11.49,4.24,1,6.38,1.66a27.25,27.25,0,0,1,5.86,2.4,12,12,0,0,1,4.26,4,11.34,11.34,0,0,1,1.62,6.34,12.7,12.7,0,0,1-2,6.95,14.18,14.18,0,0,1-6.31,5.15A26.11,26.11,0,0,1,698.4,66.56Z" transform="translate(-2.93)"/><path class="cls-2" d="M740.79,66V22.76H723.86V16.62H764.7v6.14H747.77V66Z" transform="translate(-2.93)"/><path class="cls-2" d="M795.8,66.56q-9.74,0-15.31-5.57t-5.57-16.3V16.62H782V44.41q0,8.25,3.63,12.06t10.26,3.81q6.71,0,10.33-3.81t3.63-12.06V16.62h6.85V44.69q0,10.73-5.54,16.3T795.8,66.56Z" transform="translate(-2.93)"/><path class="cls-2" d="M835,66V16.62h19.26a27.15,27.15,0,0,1,11.07,2.05,15.68,15.68,0,0,1,7,5.92,16.83,16.83,0,0,1,2.47,9.24A16.63,16.63,0,0,1,872.39,43a15.81,15.81,0,0,1-7,5.89,27.15,27.15,0,0,1-11.07,2H838.89l3.17-3.24V66Zm7-17.56L838.89,45h15.16q6.78,0,10.27-2.93a10.15,10.15,0,0,0,3.49-8.22,10.06,10.06,0,0,0-3.49-8.18q-3.5-2.89-10.27-2.89H838.89l3.17-3.53ZM868,66,855.47,48.08H863L875.71,66Z" transform="translate(-2.93)"/><path class="cls-2" d="M882.69,66l22.36-49.37h7L934.46,66h-7.41l-20-45.42h2.82L890,66Zm9.52-12.34,1.9-5.64H921.9L924,53.65Z" transform="translate(-2.93)"/><path class="cls-2" d="M968.52,66V16.62h20.81a30,30,0,0,1,13.93,3.11,23,23,0,0,1,9.38,8.67A24.62,24.62,0,0,1,1016,41.31a24.62,24.62,0,0,1-3.35,12.91,23,23,0,0,1-9.38,8.67A30,30,0,0,1,989.33,66Zm7.05-6.13H988.9a22.79,22.79,0,0,0,10.62-2.33,17,17,0,0,0,7-6.52,18.83,18.83,0,0,0,2.46-9.7,18.76,18.76,0,0,0-2.46-9.73,17,17,0,0,0-7-6.49,22.79,22.79,0,0,0-10.62-2.33H975.57Z" transform="translate(-2.93)"/><path class="cls-2" d="M1052.94,66.56a28.28,28.28,0,0,1-10.47-1.91,25.05,25.05,0,0,1-8.36-5.32,24.63,24.63,0,0,1-5.5-8,24.94,24.94,0,0,1-2-10,25,25,0,0,1,2-10,24.69,24.69,0,0,1,5.5-8,25.21,25.21,0,0,1,8.32-5.33,30,30,0,0,1,21,0,24.69,24.69,0,0,1,8.32,5.29,24,24,0,0,1,5.47,8,25.76,25.76,0,0,1,1.94,10.05,25.71,25.71,0,0,1-1.94,10.09,24.15,24.15,0,0,1-5.47,8,24.69,24.69,0,0,1-8.32,5.29A28.45,28.45,0,0,1,1052.94,66.56Zm0-6.28a20,20,0,0,0,7.58-1.41,18.13,18.13,0,0,0,6.07-4,18.53,18.53,0,0,0,4-6,19.46,19.46,0,0,0,1.45-7.55,19.15,19.15,0,0,0-1.45-7.51,19,19,0,0,0-4-6,17.79,17.79,0,0,0-6.07-4,20,20,0,0,0-7.58-1.41,20.26,20.26,0,0,0-7.65,1.41,18.11,18.11,0,0,0-6.1,4,18.91,18.91,0,0,0-4.06,6,19.15,19.15,0,0,0-1.44,7.51,19.46,19.46,0,0,0,1.44,7.55,18.31,18.31,0,0,0,10.16,10A20.26,20.26,0,0,0,1052.94,60.28Z" transform="translate(-2.93)"/><path class="cls-2" d="M102.69,144.45l22.36-49.37h7l22.43,49.37h-7.41L127.09,99h2.82l-20,45.42Zm9.52-12.35,1.9-5.64H141.9l2,5.64Z" transform="translate(-2.93)"/><path class="cls-2" d="M165.67,144.45V95.08h5.78l32.66,40.55h-3V95.08h7v49.37h-5.78l-32.66-40.56h3v40.56Z" transform="translate(-2.93)"/><path class="cls-2" d="M236.62,144.45V101.21H219.7V95.08h40.83v6.13H243.6v43.24Z" transform="translate(-2.93)"/><path class="cls-2" d="M272.1,144.45V95.08h7v49.37Z" transform="translate(-2.93)"/><path class="cls-2" d="M320.13,145a28.59,28.59,0,0,1-10.51-1.87,24.55,24.55,0,0,1-13.83-13.29,26.8,26.8,0,0,1,0-20.17,24.43,24.43,0,0,1,5.54-8,25.07,25.07,0,0,1,8.36-5.29,31,31,0,0,1,21.3,0,21.25,21.25,0,0,1,8.25,5.71l-4.37,4.37a19.45,19.45,0,0,0-6.6-4.33,21.18,21.18,0,0,0-7.72-1.38,21.52,21.52,0,0,0-7.86,1.41,18.68,18.68,0,0,0-6.28,4,17.52,17.52,0,0,0-4.09,6,19.54,19.54,0,0,0-1.45,7.58,19.29,19.29,0,0,0,1.45,7.51,18,18,0,0,0,4.09,6.07,18.41,18.41,0,0,0,6.24,4,21.28,21.28,0,0,0,7.83,1.41,23.47,23.47,0,0,0,7.58-1.23,18.64,18.64,0,0,0,6.74-4.13l4,5.36a25,25,0,0,1-8.57,4.69A32.6,32.6,0,0,1,320.13,145Zm11.92-7.19V119.48h6.77v19.25Z" transform="translate(-2.93)"/><path class="cls-2" d="M378.45,145a28.28,28.28,0,0,1-10.47-1.9,25.08,25.08,0,0,1-8.36-5.33,24.69,24.69,0,0,1-5.5-8,26.32,26.32,0,0,1,0-20,24.63,24.63,0,0,1,5.5-8,25.18,25.18,0,0,1,8.32-5.32,28.23,28.23,0,0,1,10.51-1.91,28.65,28.65,0,0,1,10.44,1.87,24.69,24.69,0,0,1,8.32,5.29,24.16,24.16,0,0,1,5.47,8,27.11,27.11,0,0,1,0,20.14,24.32,24.32,0,0,1-13.79,13.29A28.45,28.45,0,0,1,378.45,145Zm0-6.28a20,20,0,0,0,7.58-1.41,18,18,0,0,0,6.07-4,18.69,18.69,0,0,0,4-6,19.42,19.42,0,0,0,1.45-7.55,18.87,18.87,0,0,0-5.47-13.54,17.79,17.79,0,0,0-6.07-4,20,20,0,0,0-7.58-1.41,20.26,20.26,0,0,0-7.65,1.41,18.11,18.11,0,0,0-6.1,4,18.91,18.91,0,0,0-4.06,6,19.18,19.18,0,0,0-1.44,7.51,19.42,19.42,0,0,0,1.44,7.55,18.31,18.31,0,0,0,10.16,10A20.26,20.26,0,0,0,378.45,138.73Z" transform="translate(-2.93)"/><path class="cls-2" d="M464.21,145a28.12,28.12,0,0,1-10.4-1.87,24.34,24.34,0,0,1-8.25-5.29,24.92,24.92,0,0,1-5.47-8,26.8,26.8,0,0,1,0-20.17,24.53,24.53,0,0,1,13.79-13.3,29.75,29.75,0,0,1,20.95.07A21.6,21.6,0,0,1,483,102.2l-4.58,4.44a18.32,18.32,0,0,0-6.35-4.4,19.55,19.55,0,0,0-7.54-1.45,20.83,20.83,0,0,0-7.73,1.41,18.6,18.6,0,0,0-6.17,4,17.7,17.7,0,0,0-4.05,6,20.54,20.54,0,0,0,0,15.16,17.7,17.7,0,0,0,4.05,6,18.44,18.44,0,0,0,6.17,3.95,20.83,20.83,0,0,0,7.73,1.41,19.73,19.73,0,0,0,7.54-1.44,17.91,17.91,0,0,0,6.35-4.48l4.58,4.44a21.91,21.91,0,0,1-8.21,5.79A27.93,27.93,0,0,1,464.21,145Z" transform="translate(-2.93)"/><path class="cls-2" d="M518.24,145a28.3,28.3,0,0,1-10.48-1.9,25,25,0,0,1-8.35-5.33,24.38,24.38,0,0,1-5.5-8,26.32,26.32,0,0,1,0-20,24.32,24.32,0,0,1,5.5-8,25.08,25.08,0,0,1,8.32-5.32,28.23,28.23,0,0,1,10.51-1.91,28.65,28.65,0,0,1,10.44,1.87,24.79,24.79,0,0,1,8.32,5.29,24,24,0,0,1,5.46,8,27.11,27.11,0,0,1,0,20.14,24.12,24.12,0,0,1-5.46,8,24.64,24.64,0,0,1-8.32,5.29A28.45,28.45,0,0,1,518.24,145Zm0-6.28a20.08,20.08,0,0,0,7.58-1.41,17.84,17.84,0,0,0,6.06-4,18.53,18.53,0,0,0,4-6,19.24,19.24,0,0,0,1.45-7.55,18.87,18.87,0,0,0-5.47-13.54,17.65,17.65,0,0,0-6.06-4,21.29,21.29,0,0,0-15.24,0,18.21,18.21,0,0,0-6.1,4,18.72,18.72,0,0,0-4.05,6,19,19,0,0,0-1.45,7.51,19.24,19.24,0,0,0,1.45,7.55,18.25,18.25,0,0,0,10.15,10A20.28,20.28,0,0,0,518.24,138.73Z" transform="translate(-2.93)"/><path class="cls-2" d="M559.07,144.45V95.08h5.79L587,132.39h-3.1l21.86-37.31h5.79l.07,49.37h-6.77l-.08-38.72h1.63l-19.47,32.72h-3.24l-19.61-32.72h1.76v38.72Z" transform="translate(-2.93)"/><path class="cls-2" d="M675.44,145a28.28,28.28,0,0,1-10.47-1.9,25.08,25.08,0,0,1-8.36-5.33,24.69,24.69,0,0,1-5.5-8,26.44,26.44,0,0,1,0-20,24.63,24.63,0,0,1,5.5-8,25.18,25.18,0,0,1,8.32-5.32,28.27,28.27,0,0,1,10.51-1.91,28.65,28.65,0,0,1,10.44,1.87,24.69,24.69,0,0,1,8.32,5.29,24,24,0,0,1,5.47,8,27.11,27.11,0,0,1,0,20.14,24.15,24.15,0,0,1-5.47,8,24.54,24.54,0,0,1-8.32,5.29A28.45,28.45,0,0,1,675.44,145Zm0-6.28a20.1,20.1,0,0,0,7.59-1.41,18,18,0,0,0,6.06-4,18.53,18.53,0,0,0,4-6,19.42,19.42,0,0,0,1.45-7.55,19.19,19.19,0,0,0-1.45-7.51,19,19,0,0,0-4-6,17.84,17.84,0,0,0-6.06-4,21.29,21.29,0,0,0-15.24,0,18.11,18.11,0,0,0-6.1,4,18.72,18.72,0,0,0-4.05,6,19,19,0,0,0-1.45,7.51,19.24,19.24,0,0,0,1.45,7.55,18.25,18.25,0,0,0,10.15,10A20.26,20.26,0,0,0,675.44,138.73Z" transform="translate(-2.93)"/><path class="cls-2" d="M739.13,144.45V95.08h5.78l32.66,40.55h-3V95.08h7.06v49.37H775.8l-32.65-40.56h3v40.56Z" transform="translate(-2.93)"/><path class="cls-2" d="M822.56,145a28.28,28.28,0,0,1-10.47-1.9,25.08,25.08,0,0,1-8.36-5.33,24.69,24.69,0,0,1-5.5-8,26.44,26.44,0,0,1,0-20,24.63,24.63,0,0,1,5.5-8,25.18,25.18,0,0,1,8.32-5.32,28.27,28.27,0,0,1,10.51-1.91A28.65,28.65,0,0,1,833,96.38a24.69,24.69,0,0,1,8.32,5.29,23.87,23.87,0,0,1,5.47,8,27.11,27.11,0,0,1,0,20.14,24,24,0,0,1-5.47,8,24.54,24.54,0,0,1-8.32,5.29A28.45,28.45,0,0,1,822.56,145Zm0-6.28a20.1,20.1,0,0,0,7.59-1.41,18,18,0,0,0,6.06-4,18.53,18.53,0,0,0,4-6,19.42,19.42,0,0,0,1.45-7.55,19.19,19.19,0,0,0-1.45-7.51,19,19,0,0,0-4-6,17.84,17.84,0,0,0-6.06-4,21.29,21.29,0,0,0-15.24,0,18.11,18.11,0,0,0-6.1,4,18.72,18.72,0,0,0-4,6,19,19,0,0,0-1.45,7.51,19.24,19.24,0,0,0,1.45,7.55,18.25,18.25,0,0,0,10.15,10A20.26,20.26,0,0,0,822.56,138.73Z" transform="translate(-2.93)"/><path class="cls-2" d="M876.1,144.45,854.37,95.08H862l20,45.56h-4.37l20.1-45.56h7.05l-21.65,49.37Z" transform="translate(-2.93)"/><path class="cls-2" d="M936.68,145a28.28,28.28,0,0,1-10.47-1.9,25,25,0,0,1-8.36-5.33,24.54,24.54,0,0,1-5.5-8,26.32,26.32,0,0,1,0-20,24.47,24.47,0,0,1,5.5-8,25.08,25.08,0,0,1,8.32-5.32,28.23,28.23,0,0,1,10.51-1.91,28.65,28.65,0,0,1,10.44,1.87,24.79,24.79,0,0,1,8.32,5.29,24.16,24.16,0,0,1,5.47,8,27.11,27.11,0,0,1,0,20.14,24.3,24.3,0,0,1-5.47,8,24.64,24.64,0,0,1-8.32,5.29A28.45,28.45,0,0,1,936.68,145Zm0-6.28a20,20,0,0,0,7.58-1.41,18,18,0,0,0,6.07-4,18.85,18.85,0,0,0,4-6,19.42,19.42,0,0,0,1.44-7.55,18.81,18.81,0,0,0-5.46-13.54,17.79,17.79,0,0,0-6.07-4,21.27,21.27,0,0,0-15.23,0,18.11,18.11,0,0,0-6.1,4,18.75,18.75,0,0,0-4.06,6,19.18,19.18,0,0,0-1.44,7.51,19.42,19.42,0,0,0,1.44,7.55,18.31,18.31,0,0,0,10.16,10A20.19,20.19,0,0,0,936.68,138.73Z" transform="translate(-2.93)"/><path class="cls-2" d="M976.74,144.87a4.76,4.76,0,0,1-4.8-4.87,4.54,4.54,0,0,1,1.41-3.45,4.72,4.72,0,0,1,3.39-1.34,4.52,4.52,0,0,1,3.28,1.34,4.62,4.62,0,0,1,1.37,3.45,4.74,4.74,0,0,1-1.37,3.49A4.47,4.47,0,0,1,976.74,144.87Z" transform="translate(-2.93)"/><path class="cls-2" d="M118.45,223.46a33.77,33.77,0,0,1-10.79-1.72,22.34,22.34,0,0,1-8.11-4.48l2.61-5.5a23,23,0,0,0,7.2,4.09,25.92,25.92,0,0,0,9.09,1.62,20.57,20.57,0,0,0,7-1,8.35,8.35,0,0,0,3.95-2.71,6.52,6.52,0,0,0,1.27-3.92,5.37,5.37,0,0,0-1.66-4.09,12.35,12.35,0,0,0-4.3-2.5,47.55,47.55,0,0,0-5.82-1.66q-3.18-.71-6.39-1.66a28,28,0,0,1-5.85-2.43,12,12,0,0,1-4.27-4,11.64,11.64,0,0,1-1.62-6.45,13,13,0,0,1,2-7A14,14,0,0,1,109,174.9,25.57,25.57,0,0,1,119.65,173a33.11,33.11,0,0,1,8.54,1.12,24,24,0,0,1,7.33,3.25L133.19,183a22.66,22.66,0,0,0-6.7-3.07,26.38,26.38,0,0,0-6.84-.95,18.75,18.75,0,0,0-6.84,1.06,8.23,8.23,0,0,0-3.91,2.82,6.69,6.69,0,0,0-1.24,3.95,5.44,5.44,0,0,0,1.66,4.16,12,12,0,0,0,4.3,2.47q2.66.92,5.82,1.66c2.12.49,4.24,1,6.38,1.65a27.77,27.77,0,0,1,5.86,2.4,12.27,12.27,0,0,1,4.27,4,11.38,11.38,0,0,1,1.62,6.35,12.65,12.65,0,0,1-2,6.95,14.11,14.11,0,0,1-6.31,5.14A26,26,0,0,1,118.45,223.46Z" transform="translate(-2.93)"/><path class="cls-2" d="M174,223.46a28.28,28.28,0,0,1-10.47-1.9,24.82,24.82,0,0,1-8.36-5.33,24.43,24.43,0,0,1-5.5-8,26.32,26.32,0,0,1,0-20,24.58,24.58,0,0,1,5.5-8,25.08,25.08,0,0,1,8.32-5.32A28.23,28.23,0,0,1,174,173a28.65,28.65,0,0,1,10.44,1.86,24.79,24.79,0,0,1,8.32,5.29,24.36,24.36,0,0,1,5.47,8,27.11,27.11,0,0,1,0,20.14,24.34,24.34,0,0,1-5.47,8,24.61,24.61,0,0,1-8.32,5.28A28.45,28.45,0,0,1,174,223.46Zm0-6.27a20,20,0,0,0,7.58-1.41,18,18,0,0,0,6.07-4,18.63,18.63,0,0,0,4-6,19.42,19.42,0,0,0,1.44-7.55,18.81,18.81,0,0,0-5.46-13.54,17.79,17.79,0,0,0-6.07-4,21.27,21.27,0,0,0-15.23,0,18,18,0,0,0-6.1,4,18.75,18.75,0,0,0-4.06,6,19.19,19.19,0,0,0-1.45,7.51,19.42,19.42,0,0,0,1.45,7.55,18.37,18.37,0,0,0,10.16,10A20.19,20.19,0,0,0,174,217.19Z" transform="translate(-2.93)"/><path class="cls-2" d="M214.86,222.9V173.53h5.79l22.14,37.31h-3.1l21.86-37.31h5.79l.07,49.37h-6.77l-.07-38.72h1.62L242.72,216.9h-3.24l-19.61-32.72h1.77V222.9Z" transform="translate(-2.93)"/><path class="cls-2" d="M308.38,223.46a28.28,28.28,0,0,1-10.47-1.9,24.92,24.92,0,0,1-8.36-5.33,24.58,24.58,0,0,1-5.5-8,26.44,26.44,0,0,1,0-20,24.73,24.73,0,0,1,5.5-8,25.12,25.12,0,0,1,8.33-5.32,28.18,28.18,0,0,1,10.5-1.9,28.61,28.61,0,0,1,10.44,1.86,24.69,24.69,0,0,1,8.32,5.29,24.21,24.21,0,0,1,5.47,8,27.11,27.11,0,0,1,0,20.14,24.19,24.19,0,0,1-5.47,8,24.52,24.52,0,0,1-8.32,5.28A28.41,28.41,0,0,1,308.38,223.46Zm0-6.27a20.1,20.1,0,0,0,7.59-1.41,18.06,18.06,0,0,0,6.06-4,18.32,18.32,0,0,0,4-6,19.42,19.42,0,0,0,1.45-7.55,19.19,19.19,0,0,0-1.45-7.51,19,19,0,0,0-4-6,17.84,17.84,0,0,0-6.06-4,21.29,21.29,0,0,0-15.24,0,18.11,18.11,0,0,0-6.1,4,18.72,18.72,0,0,0-4.05,6,19,19,0,0,0-1.45,7.51,19.24,19.24,0,0,0,1.45,7.55,18.09,18.09,0,0,0,4.05,6,18.33,18.33,0,0,0,6.1,4A20.26,20.26,0,0,0,308.38,217.19Z" transform="translate(-2.93)"/><path class="cls-2" d="M363.61,223.46a33.68,33.68,0,0,1-10.79-1.72,22.17,22.17,0,0,1-8.11-4.48l2.6-5.5a23.07,23.07,0,0,0,7.2,4.09,26,26,0,0,0,9.1,1.62,20.55,20.55,0,0,0,7-1,8.3,8.3,0,0,0,4-2.71,6.45,6.45,0,0,0,1.27-3.92,5.34,5.34,0,0,0-1.66-4.09,12.26,12.26,0,0,0-4.3-2.5A46.55,46.55,0,0,0,364,201.6c-2.12-.47-4.24-1-6.38-1.66a28.36,28.36,0,0,1-5.86-2.43,12,12,0,0,1-4.26-4,11.55,11.55,0,0,1-1.63-6.45,13,13,0,0,1,2-7,14,14,0,0,1,6.21-5.15A25.61,25.61,0,0,1,364.81,173a33.09,33.09,0,0,1,8.53,1.12,23.88,23.88,0,0,1,7.33,3.25L378.35,183a22.9,22.9,0,0,0-6.7-3.07,26.38,26.38,0,0,0-6.84-.95A18.77,18.77,0,0,0,358,180a8.28,8.28,0,0,0-3.91,2.82,6.75,6.75,0,0,0-1.23,3.95,5.43,5.43,0,0,0,1.65,4.16,12,12,0,0,0,4.31,2.47,60.23,60.23,0,0,0,5.81,1.66q3.18.73,6.39,1.65a27.47,27.47,0,0,1,5.85,2.4,12.19,12.19,0,0,1,4.27,4,11.38,11.38,0,0,1,1.62,6.35,12.65,12.65,0,0,1-2.05,6.95,14.06,14.06,0,0,1-6.31,5.14A25.9,25.9,0,0,1,363.61,223.46Z" transform="translate(-2.93)"/><path class="cls-2" d="M412.27,222.9l22.36-49.37h7L464,222.9h-7.41l-20-45.42h2.82l-20,45.42Zm9.52-12.34,1.91-5.65h27.78l2,5.65Z" transform="translate(-2.93)"/><path class="cls-2" d="M475.25,222.9V173.53h19.26a27,27,0,0,1,11.07,2.05,15.62,15.62,0,0,1,7.05,5.92,16.83,16.83,0,0,1,2.47,9.24,16.62,16.62,0,0,1-2.47,9.2,16,16,0,0,1-7.05,5.93A26.8,26.8,0,0,1,494.51,208H479.13l3.17-3.32V222.9Zm7.05-17.56-3.17-3.53h15.16q6.78,0,10.27-2.89a11.33,11.33,0,0,0,0-16.36q-3.49-2.9-10.27-2.89H479.13l3.17-3.53Z" transform="translate(-2.93)"/><path class="cls-2" d="M519.4,222.9l22.36-49.37h7l22.43,49.37h-7.41l-20-45.42h2.82l-20,45.42Zm9.52-12.34,1.91-5.65h27.79l2,5.65Z" transform="translate(-2.93)"/><path class="cls-2" d="M582.38,222.9V173.53h7.06V222.9Z" transform="translate(-2.93)"/><path class="cls-2" d="M601.64,222.9l20.52-28v5.43l-19.4-26.8h8l15.37,21.09-3.17.07,15.3-21.16H646l-19.26,26.38v-5.08l20.53,28.07h-8.11L622.8,200.4h3.1l-16.15,22.5Z" transform="translate(-2.93)"/><path class="cls-2" d="M680,223.46a28.28,28.28,0,0,1-10.47-1.9,24.92,24.92,0,0,1-8.36-5.33,24.58,24.58,0,0,1-5.5-8,26.44,26.44,0,0,1,0-20,24.73,24.73,0,0,1,5.5-8,25.12,25.12,0,0,1,8.33-5.32A28.18,28.18,0,0,1,680,173a28.61,28.61,0,0,1,10.44,1.86,24.84,24.84,0,0,1,8.33,5.29,24.19,24.19,0,0,1,5.46,8,27.11,27.11,0,0,1,0,20.14,24.16,24.16,0,0,1-5.46,8,24.66,24.66,0,0,1-8.33,5.28A28.41,28.41,0,0,1,680,223.46Zm0-6.27a20.1,20.1,0,0,0,7.59-1.41,18,18,0,0,0,6.06-4,18.32,18.32,0,0,0,4-6,19.24,19.24,0,0,0,1.45-7.55,18.87,18.87,0,0,0-5.47-13.54,17.75,17.75,0,0,0-6.06-4,21.29,21.29,0,0,0-15.24,0,18.11,18.11,0,0,0-6.1,4,18.72,18.72,0,0,0-4,6,19,19,0,0,0-1.45,7.51,19.24,19.24,0,0,0,1.45,7.55,18.09,18.09,0,0,0,4,6,18.33,18.33,0,0,0,6.1,4A20.26,20.26,0,0,0,680,217.19Z" transform="translate(-2.93)"/><path class="cls-2" d="M720.83,222.9V173.53h5.78l32.66,40.55h-3V173.53h7.06V222.9H757.5l-32.65-40.55h3V222.9Z" transform="translate(-2.93)"/><path class="cls-2" d="M774.5,222.9l22.36-49.37h7l22.43,49.37h-7.41l-20-45.42h2.82l-20,45.42ZM784,210.56l1.91-5.65h27.79l2,5.65Z" transform="translate(-2.93)"/><path class="cls-2" d="M837.48,222.9V173.53h20.81a30,30,0,0,1,13.93,3.1,23,23,0,0,1,9.38,8.68,26.53,26.53,0,0,1,0,25.81,23,23,0,0,1-9.38,8.68,30,30,0,0,1-13.93,3.1Zm7-6.14h13.33a22.76,22.76,0,0,0,10.62-2.32,17,17,0,0,0,6.95-6.53,20.41,20.41,0,0,0,0-19.43,17.09,17.09,0,0,0-6.95-6.49,22.76,22.76,0,0,0-10.62-2.32H844.53Z" transform="translate(-2.93)"/><path class="cls-2" d="M891.44,222.9l22.35-49.37h7L943.2,222.9h-7.4l-20-45.42h2.82l-20,45.42ZM901,210.56l1.9-5.65h27.79l2,5.65Z" transform="translate(-2.93)"/><path class="cls-2" d="M968.8,223.46A33.73,33.73,0,0,1,958,221.74a22.34,22.34,0,0,1-8.11-4.48l2.61-5.5a23,23,0,0,0,7.2,4.09,25.92,25.92,0,0,0,9.09,1.62,20.57,20.57,0,0,0,7-1,8.35,8.35,0,0,0,4-2.71,6.52,6.52,0,0,0,1.27-3.92,5.37,5.37,0,0,0-1.66-4.09,12.35,12.35,0,0,0-4.3-2.5,47.55,47.55,0,0,0-5.82-1.66q-3.18-.71-6.38-1.66a27.91,27.91,0,0,1-5.86-2.43,12,12,0,0,1-4.27-4,11.64,11.64,0,0,1-1.62-6.45,13,13,0,0,1,2-7,14,14,0,0,1,6.21-5.15A25.6,25.6,0,0,1,970,173a33.11,33.11,0,0,1,8.54,1.12,24,24,0,0,1,7.33,3.25L983.54,183a22.78,22.78,0,0,0-6.7-3.07A26.38,26.38,0,0,0,970,179a18.75,18.75,0,0,0-6.84,1.06,8.23,8.23,0,0,0-3.91,2.82,6.69,6.69,0,0,0-1.24,3.95,5.44,5.44,0,0,0,1.66,4.16,11.92,11.92,0,0,0,4.3,2.47q2.65.92,5.82,1.66c2.12.49,4.24,1,6.38,1.65a27.77,27.77,0,0,1,5.86,2.4,12.27,12.27,0,0,1,4.27,4,11.38,11.38,0,0,1,1.62,6.35,12.65,12.65,0,0,1-2,6.95,14.11,14.11,0,0,1-6.31,5.14A26,26,0,0,1,968.8,223.46Z" transform="translate(-2.93)"/><path class="cls-2" d="M37,301.35V252H56.28A27,27,0,0,1,67.36,254a15.73,15.73,0,0,1,7,5.92,16.83,16.83,0,0,1,2.47,9.24,16.65,16.65,0,0,1-2.47,9.21,16.05,16.05,0,0,1-7,5.92,26.66,26.66,0,0,1-11.08,2.08H40.91l3.17-3.31v18.26Zm7-17.56-3.17-3.53H56.07q6.78,0,10.27-2.89a11.33,11.33,0,0,0,0-16.36q-3.49-2.89-10.27-2.89H40.91l3.17-3.53Z" transform="translate(-2.93)"/><path class="cls-2" d="M114.12,301.92A28.3,28.3,0,0,1,103.64,300a25,25,0,0,1-8.35-5.32,24.5,24.5,0,0,1-5.51-8,26.44,26.44,0,0,1,0-20,24.56,24.56,0,0,1,5.51-8,25.1,25.1,0,0,1,8.32-5.33,30,30,0,0,1,20.94,0,24.58,24.58,0,0,1,8.33,5.29,24,24,0,0,1,5.46,8,27.08,27.08,0,0,1,0,20.13,24.06,24.06,0,0,1-5.46,8,24.74,24.74,0,0,1-8.33,5.29A28.56,28.56,0,0,1,114.12,301.92Zm0-6.28a20.08,20.08,0,0,0,7.58-1.41,17.87,17.87,0,0,0,6.06-4,18.32,18.32,0,0,0,4-6,19.23,19.23,0,0,0,1.45-7.54,18.87,18.87,0,0,0-5.47-13.54,17.65,17.65,0,0,0-6.06-4,21.29,21.29,0,0,0-15.24,0,18.21,18.21,0,0,0-6.1,4,18.72,18.72,0,0,0-4,6,19,19,0,0,0-1.45,7.51,19.23,19.23,0,0,0,1.45,7.54,18.09,18.09,0,0,0,4,6,18.43,18.43,0,0,0,6.1,4A20.28,20.28,0,0,0,114.12,295.64Z" transform="translate(-2.93)"/><path class="cls-2" d="M155,301.35V252h19.26A27,27,0,0,1,185.28,254a15.63,15.63,0,0,1,7.05,5.92,16.83,16.83,0,0,1,2.47,9.24,16.65,16.65,0,0,1-2.47,9.21,15.68,15.68,0,0,1-7.05,5.88,27,27,0,0,1-11.07,2.05H158.83l3.18-3.24v18.26ZM162,283.79l-3.18-3.46H174q6.76,0,10.26-2.92a11.38,11.38,0,0,0,0-16.4q-3.49-2.89-10.26-2.89H158.83l3.18-3.53Zm26,17.56-12.55-17.91H183l12.7,17.91Z" transform="translate(-2.93)"/><path class="cls-2" d="M247.2,301.35,225.48,252h7.62l20,45.56h-4.38L268.78,252h7.06l-21.66,49.37Z" transform="translate(-2.93)"/><path class="cls-2" d="M286,301.35V252H293v49.37Z" transform="translate(-2.93)"/><path class="cls-2" d="M304.26,301.35,326.62,252h7L356,301.35h-7.41l-20-45.42h2.82l-20,45.42ZM313.78,289l1.9-5.64h27.79l2,5.64Z" transform="translate(-2.93)"/><path class="cls-2" d="M388.82,301.92a28.84,28.84,0,0,1-10.51-1.87,24.47,24.47,0,0,1-13.82-13.3,26.8,26.8,0,0,1,0-20.17,24.34,24.34,0,0,1,5.54-8,25,25,0,0,1,8.35-5.29,31,31,0,0,1,21.3,0,21.23,21.23,0,0,1,8.26,5.72l-4.38,4.37a19.44,19.44,0,0,0-6.59-4.34,21.21,21.21,0,0,0-7.72-1.37,21.54,21.54,0,0,0-7.87,1.41,18.73,18.73,0,0,0-6.28,3.95,17.66,17.66,0,0,0-4.09,6,20.49,20.49,0,0,0,0,15.09,18,18,0,0,0,4.09,6.06,18.58,18.58,0,0,0,6.25,4,21.21,21.21,0,0,0,7.83,1.41,23.26,23.26,0,0,0,7.58-1.24,18.58,18.58,0,0,0,6.73-4.12l4,5.36a25,25,0,0,1-8.57,4.69A32.6,32.6,0,0,1,388.82,301.92Zm11.92-7.2V276.39h6.77v19.25Z" transform="translate(-2.93)"/><path class="cls-2" d="M431.91,295.22h28.78v6.13H424.86V252H459.7v6.14H431.91Zm-.63-21.94h25.39v6H431.28Z" transform="translate(-2.93)"/><path class="cls-2" d="M476,301.35V252h5.79l32.65,40.56h-3V252h7.05v49.37h-5.78L480,260.8h3v40.55Z" transform="translate(-2.93)"/><path class="cls-2" d="M551.53,301.92a33.73,33.73,0,0,1-10.79-1.73,22.11,22.11,0,0,1-8.11-4.48l2.61-5.5a22.82,22.82,0,0,0,7.19,4.09,26,26,0,0,0,9.1,1.62,20.51,20.51,0,0,0,7-1,8.18,8.18,0,0,0,4-2.71,6.43,6.43,0,0,0,1.27-3.92,5.34,5.34,0,0,0-1.66-4.09,12.17,12.17,0,0,0-4.3-2.5,48.31,48.31,0,0,0-5.82-1.66q-3.16-.71-6.38-1.65a28.61,28.61,0,0,1-5.85-2.44,11.92,11.92,0,0,1-4.27-4,11.7,11.7,0,0,1-1.62-6.46,12.94,12.94,0,0,1,2-7,14,14,0,0,1,6.2-5.15,25.45,25.45,0,0,1,10.69-1.94,32.62,32.62,0,0,1,8.53,1.13,23.8,23.8,0,0,1,7.34,3.24l-2.33,5.64a22.61,22.61,0,0,0-6.7-3.06,26,26,0,0,0-6.84-1,18.93,18.93,0,0,0-6.84,1.06,8.45,8.45,0,0,0-3.92,2.82,6.75,6.75,0,0,0-1.23,3.95,5.4,5.4,0,0,0,1.66,4.16,11.78,11.78,0,0,0,4.3,2.47,57,57,0,0,0,5.82,1.66c2.11.49,4.24,1.05,6.38,1.66a27.45,27.45,0,0,1,5.85,2.39,12.1,12.1,0,0,1,4.27,3.95,11.4,11.4,0,0,1,1.62,6.35,12.72,12.72,0,0,1-2,6.95,14.25,14.25,0,0,1-6.31,5.15A26.11,26.11,0,0,1,551.53,301.92Z" transform="translate(-2.93)"/><path class="cls-2" d="M582.56,311.79l3.53-14.25.91,4.09a4.85,4.85,0,0,1-3.42-1.27,4.47,4.47,0,0,1-1.37-3.45,4.63,4.63,0,0,1,4.72-4.8,4.3,4.3,0,0,1,3.32,1.38,4.87,4.87,0,0,1,1.27,3.42,8.74,8.74,0,0,1-.11,1.37,14.83,14.83,0,0,1-.35,1.56c-.17.58-.41,1.3-.74,2.15l-3.32,9.8Z" transform="translate(-2.93)"/><path class="cls-2" d="M629,301.35V252h19.25A26.92,26.92,0,0,1,659.29,254a15.71,15.71,0,0,1,7.06,5.92,16.91,16.91,0,0,1,2.47,9.24,16.74,16.74,0,0,1-2.47,9.21,16,16,0,0,1-7.06,5.92,26.58,26.58,0,0,1-11.07,2.08H632.85l3.17-3.31v18.26Zm7-17.56-3.17-3.53H648q6.76,0,10.26-2.89a11.33,11.33,0,0,0,0-16.36q-3.49-2.89-10.26-2.89H632.85l3.17-3.53Z" transform="translate(-2.93)"/><path class="cls-2" d="M690.11,295.22h28.78v6.13H683.06V252H717.9v6.14H690.11Zm-.63-21.94h25.39v6H689.48Z" transform="translate(-2.93)"/><path class="cls-2" d="M748.58,301.92a33.73,33.73,0,0,1-10.79-1.73,22.11,22.11,0,0,1-8.11-4.48l2.61-5.5a22.82,22.82,0,0,0,7.19,4.09,26,26,0,0,0,9.1,1.62,20.47,20.47,0,0,0,7-1,8.18,8.18,0,0,0,4-2.71,6.43,6.43,0,0,0,1.27-3.92,5.36,5.36,0,0,0-1.65-4.09,12.31,12.31,0,0,0-4.31-2.5,48.67,48.67,0,0,0-5.81-1.66q-3.18-.71-6.39-1.65a28.61,28.61,0,0,1-5.85-2.44,12,12,0,0,1-4.27-4,11.7,11.7,0,0,1-1.62-6.46,12.94,12.94,0,0,1,2-7,13.94,13.94,0,0,1,6.21-5.15,25.37,25.37,0,0,1,10.68-1.94,32.62,32.62,0,0,1,8.53,1.13,23.7,23.7,0,0,1,7.34,3.24l-2.33,5.64a22.5,22.5,0,0,0-6.7-3.06,26,26,0,0,0-6.84-1,19,19,0,0,0-6.84,1.06,8.45,8.45,0,0,0-3.92,2.82,6.75,6.75,0,0,0-1.23,3.95,5.4,5.4,0,0,0,1.66,4.16,11.78,11.78,0,0,0,4.3,2.47,57,57,0,0,0,5.82,1.66c2.11.49,4.24,1.05,6.38,1.66a27.75,27.75,0,0,1,5.86,2.39,12.16,12.16,0,0,1,4.26,3.95,11.4,11.4,0,0,1,1.62,6.35,12.72,12.72,0,0,1-2,6.95,14.19,14.19,0,0,1-6.31,5.15A26.11,26.11,0,0,1,748.58,301.92Z" transform="translate(-2.93)"/><path class="cls-2" d="M796.26,301.92a33.73,33.73,0,0,1-10.79-1.73,22,22,0,0,1-8.11-4.48l2.61-5.5a22.71,22.71,0,0,0,7.19,4.09,26,26,0,0,0,9.1,1.62,20.55,20.55,0,0,0,7-1,8.23,8.23,0,0,0,4-2.71,6.43,6.43,0,0,0,1.27-3.92,5.34,5.34,0,0,0-1.66-4.09,12.26,12.26,0,0,0-4.3-2.5,48.31,48.31,0,0,0-5.82-1.66c-2.12-.47-4.24-1-6.38-1.65a28.93,28.93,0,0,1-5.86-2.44,12,12,0,0,1-4.26-4,11.7,11.7,0,0,1-1.63-6.46,12.94,12.94,0,0,1,2-7,13.94,13.94,0,0,1,6.21-5.15,25.45,25.45,0,0,1,10.69-1.94,32.67,32.67,0,0,1,8.53,1.13,23.8,23.8,0,0,1,7.34,3.24L811,261.43a22.61,22.61,0,0,0-6.7-3.06,26,26,0,0,0-6.84-1,18.89,18.89,0,0,0-6.84,1.06,8.39,8.39,0,0,0-3.92,2.82,6.75,6.75,0,0,0-1.23,3.95,5.43,5.43,0,0,0,1.65,4.16,11.83,11.83,0,0,0,4.31,2.47,57.49,57.49,0,0,0,5.81,1.66c2.12.49,4.25,1.05,6.39,1.66a27.45,27.45,0,0,1,5.85,2.39,12.19,12.19,0,0,1,4.27,3.95,11.4,11.4,0,0,1,1.62,6.35,12.72,12.72,0,0,1-2,6.95A14.22,14.22,0,0,1,807,300,26.06,26.06,0,0,1,796.26,301.92Z" transform="translate(-2.93)"/><path class="cls-2" d="M851.83,301.92A28.28,28.28,0,0,1,841.36,300a25.05,25.05,0,0,1-8.36-5.32,24.63,24.63,0,0,1-5.5-8,26.44,26.44,0,0,1,0-20,24.69,24.69,0,0,1,5.5-8,25.21,25.21,0,0,1,8.32-5.33,30,30,0,0,1,20.95,0,24.54,24.54,0,0,1,8.32,5.29,24.16,24.16,0,0,1,5.47,8,27.08,27.08,0,0,1,0,20.13,24.24,24.24,0,0,1-5.47,8,24.69,24.69,0,0,1-8.32,5.29A28.65,28.65,0,0,1,851.83,301.92Zm0-6.28a20,20,0,0,0,7.58-1.41,18,18,0,0,0,6.07-4,18.32,18.32,0,0,0,4-6,19.41,19.41,0,0,0,1.45-7.54,19.15,19.15,0,0,0-1.45-7.51,19,19,0,0,0-4-6,17.79,17.79,0,0,0-6.07-4,20,20,0,0,0-7.58-1.41,20.26,20.26,0,0,0-7.65,1.41,18.11,18.11,0,0,0-6.1,4,18.91,18.91,0,0,0-4.06,6,19.15,19.15,0,0,0-1.44,7.51,19.41,19.41,0,0,0,1.44,7.54,18.37,18.37,0,0,0,10.16,10A20.26,20.26,0,0,0,851.83,295.64Z" transform="translate(-2.93)"/><path class="cls-2" d="M884.49,301.35,906.85,252h7l22.43,49.37h-7.41l-20-45.42h2.82l-20,45.42ZM894,289l1.9-5.64H923.7l2,5.64Z" transform="translate(-2.93)"/><path class="cls-2" d="M961.86,301.92a33.79,33.79,0,0,1-10.8-1.73,22.19,22.19,0,0,1-8.11-4.48l2.61-5.5a22.76,22.76,0,0,0,7.2,4.09,26,26,0,0,0,9.1,1.62,20.55,20.55,0,0,0,7-1,8.28,8.28,0,0,0,3.95-2.71,6.49,6.49,0,0,0,1.27-3.92,5.37,5.37,0,0,0-1.66-4.09,12.35,12.35,0,0,0-4.3-2.5,49.39,49.39,0,0,0-5.82-1.66c-2.12-.47-4.24-1-6.38-1.65A28.93,28.93,0,0,1,950,276a12,12,0,0,1-4.26-4,11.61,11.61,0,0,1-1.63-6.46,12.94,12.94,0,0,1,2-7,13.94,13.94,0,0,1,6.21-5.15,25.43,25.43,0,0,1,10.68-1.94,32.69,32.69,0,0,1,8.54,1.13,23.74,23.74,0,0,1,7.33,3.24l-2.32,5.64a22.61,22.61,0,0,0-6.7-3.06,26.11,26.11,0,0,0-6.85-1,19,19,0,0,0-6.84,1.06,8.41,8.41,0,0,0-3.91,2.82,6.76,6.76,0,0,0-1.24,3.95,5.44,5.44,0,0,0,1.66,4.16,11.87,11.87,0,0,0,4.3,2.47,58.48,58.48,0,0,0,5.82,1.66c2.12.49,4.25,1.05,6.39,1.66a27.45,27.45,0,0,1,5.85,2.39,12.27,12.27,0,0,1,4.27,3.95,11.4,11.4,0,0,1,1.62,6.35,12.65,12.65,0,0,1-2.05,6.95,14.14,14.14,0,0,1-6.31,5.15A26.06,26.06,0,0,1,961.86,301.92Z" transform="translate(-2.93)"/><path class="cls-2" d="M1025.05,295.22h28.77v6.13H1018V252h34.85v6.14h-27.79Zm-.64-21.94h25.39v6h-25.39Z" transform="translate(-2.93)"/><path class="cls-2" d="M94.44,380.37A28.12,28.12,0,0,1,84,378.5a24.43,24.43,0,0,1-8.26-5.29,24.89,24.89,0,0,1-5.46-8,26.7,26.7,0,0,1,0-20.18,24.56,24.56,0,0,1,13.79-13.29,29.73,29.73,0,0,1,20.94.07,21.6,21.6,0,0,1,8.22,5.75L108.69,342a18.58,18.58,0,0,0-6.35-4.41,19.78,19.78,0,0,0-7.55-1.44,20.78,20.78,0,0,0-7.72,1.41,18.5,18.5,0,0,0-6.17,3.95,17.87,17.87,0,0,0-4.06,6,20.67,20.67,0,0,0,0,15.16,17.87,17.87,0,0,0,4.06,6,18.5,18.5,0,0,0,6.17,3.95,20.78,20.78,0,0,0,7.72,1.41,19.78,19.78,0,0,0,7.55-1.44,18.13,18.13,0,0,0,6.35-4.48l4.58,4.44a21.89,21.89,0,0,1-8.22,5.78A27.72,27.72,0,0,1,94.44,380.37Z" transform="translate(-2.93)"/><path class="cls-2" d="M147.69,380.37q-9.74,0-15.31-5.57t-5.57-16.29V330.44h7.05v27.78q0,8.25,3.64,12.06t10.26,3.81q6.69,0,10.33-3.81t3.63-12.06V330.44h6.84v28.07q0,10.71-5.53,16.29T147.69,380.37Z" transform="translate(-2.93)"/><path class="cls-2" d="M186.9,379.8V330.44h7v43.23h26.73v6.13Z" transform="translate(-2.93)"/><path class="cls-2" d="M237.89,379.8V336.57H221v-6.13H261.8v6.13H244.87V379.8Z" transform="translate(-2.93)"/><path class="cls-2" d="M292.9,380.37q-9.72,0-15.3-5.57T272,358.51V330.44h7.05v27.78q0,8.25,3.63,12.06T293,374.09q6.69,0,10.33-3.81t3.63-12.06V330.44h6.84v28.07q0,10.71-5.54,16.29T292.9,380.37Z" transform="translate(-2.93)"/><path class="cls-2" d="M332.12,379.8V330.44h19.25a27.09,27.09,0,0,1,11.07,2,15.71,15.71,0,0,1,7.06,5.92,16.91,16.91,0,0,1,2.47,9.24,16.71,16.71,0,0,1-2.47,9.21,15.84,15.84,0,0,1-7.06,5.89,27.09,27.09,0,0,1-11.07,2H336l3.17-3.24V379.8Zm7.05-17.56L336,358.79h15.16q6.76,0,10.26-2.93a11.38,11.38,0,0,0,0-16.4q-3.5-2.88-10.26-2.89H336l3.17-3.53Zm25.95,17.56-12.55-17.91h7.55l12.69,17.91Z" transform="translate(-2.93)"/><path class="cls-2" d="M379.79,379.8l22.36-49.36h7l22.43,49.36h-7.4l-20-45.42H407l-20,45.42Zm9.53-12.34,1.9-5.64H419l2,5.64Z" transform="translate(-2.93)"/><path class="cls-2" d="M457.16,380.37a33.73,33.73,0,0,1-10.79-1.73,22,22,0,0,1-8.11-4.48l2.61-5.5a22.76,22.76,0,0,0,7.2,4.09,25.92,25.92,0,0,0,9.09,1.62,20.6,20.6,0,0,0,7-1,8.36,8.36,0,0,0,4-2.72,6.48,6.48,0,0,0,1.26-3.91,5.33,5.33,0,0,0-1.65-4.09,12.37,12.37,0,0,0-4.3-2.51,49.44,49.44,0,0,0-5.82-1.65c-2.12-.47-4.25-1-6.39-1.66a28.61,28.61,0,0,1-5.85-2.44,11.91,11.91,0,0,1-4.27-4,11.68,11.68,0,0,1-1.62-6.45,13,13,0,0,1,2-7,13.94,13.94,0,0,1,6.21-5.15,25.56,25.56,0,0,1,10.68-1.94A33.18,33.18,0,0,1,466.9,331a23.74,23.74,0,0,1,7.33,3.24l-2.33,5.65a22.53,22.53,0,0,0-6.7-3.07,26,26,0,0,0-6.84-.95,19,19,0,0,0-6.84,1.05,8.36,8.36,0,0,0-3.91,2.82,6.71,6.71,0,0,0-1.24,3.95,5.44,5.44,0,0,0,1.66,4.17,11.91,11.91,0,0,0,4.3,2.46,55.21,55.21,0,0,0,5.82,1.66c2.12.5,4.24,1,6.38,1.66a27.25,27.25,0,0,1,5.86,2.4,12,12,0,0,1,4.26,3.95,11.26,11.26,0,0,1,1.63,6.34,12.71,12.71,0,0,1-2,6.95,14.13,14.13,0,0,1-6.31,5.15A26.11,26.11,0,0,1,457.16,380.37Z" transform="translate(-2.93)"/><path class="cls-2" d="M513.3,379.8V330.44h20.81a30,30,0,0,1,13.93,3.1,23,23,0,0,1,9.38,8.67,26.55,26.55,0,0,1,0,25.82A23,23,0,0,1,548,376.7a30,30,0,0,1-13.93,3.1Zm7.06-6.13h13.32a22.76,22.76,0,0,0,10.62-2.33,17,17,0,0,0,7-6.52,20.34,20.34,0,0,0,0-19.43,17,17,0,0,0-7-6.49,22.76,22.76,0,0,0-10.62-2.33H520.36Z" transform="translate(-2.93)"/><path class="cls-2" d="M575.44,379.8V330.44h7V379.8Z" transform="translate(-2.93)"/><path class="cls-2" d="M608.23,379.8h-7.05V330.44H636v6.13H608.23Zm-.7-26H633v6.07H607.53Z" transform="translate(-2.93)"/><path class="cls-2" d="M656.9,373.67h28.77v6.13H649.84V330.44h34.84v6.13H656.9Zm-.64-21.94h25.39v6H656.26Z" transform="translate(-2.93)"/><path class="cls-2" d="M701,379.8V330.44h19.25a27.09,27.09,0,0,1,11.07,2,15.71,15.71,0,0,1,7.06,5.92,16.91,16.91,0,0,1,2.47,9.24,16.71,16.71,0,0,1-2.47,9.21,15.84,15.84,0,0,1-7.06,5.89,27.09,27.09,0,0,1-11.07,2H704.86l3.17-3.24V379.8Zm7-17.56-3.17-3.45H720q6.76,0,10.26-2.93a11.38,11.38,0,0,0,0-16.4q-3.49-2.88-10.26-2.89H704.86L708,333Zm26,17.56-12.55-17.91H729l12.69,17.91Z" transform="translate(-2.93)"/><path class="cls-2" d="M763.18,373.67H792v6.13H756.13V330.44H791v6.13H763.18Zm-.63-21.94h25.39v6H762.55Z" transform="translate(-2.93)"/><path class="cls-2" d="M807.26,379.8V330.44h5.79L845.7,371h-3V330.44h7.05V379.8h-5.78l-32.66-40.55h3V379.8Z" transform="translate(-2.93)"/><path class="cls-2" d="M878.21,379.8V336.57H861.29v-6.13h40.83v6.13H885.2V379.8Z" transform="translate(-2.93)"/><path class="cls-2" d="M920.74,373.67h28.78v6.13H913.69V330.44h34.84v6.13H920.74Zm-.63-21.94H945.5v6H920.11Z" transform="translate(-2.93)"/><path class="cls-2" d="M979.21,380.37a33.73,33.73,0,0,1-10.79-1.73,22,22,0,0,1-8.11-4.48l2.61-5.5a22.82,22.82,0,0,0,7.19,4.09,26,26,0,0,0,9.1,1.62,20.53,20.53,0,0,0,7-1,8.26,8.26,0,0,0,3.95-2.72,6.42,6.42,0,0,0,1.27-3.91,5.31,5.31,0,0,0-1.66-4.09,12.28,12.28,0,0,0-4.3-2.51,48.36,48.36,0,0,0-5.82-1.65c-2.11-.47-4.24-1-6.38-1.66a28.61,28.61,0,0,1-5.85-2.44,11.83,11.83,0,0,1-4.27-4,11.68,11.68,0,0,1-1.62-6.45,13,13,0,0,1,2-7,14,14,0,0,1,6.2-5.15,25.6,25.6,0,0,1,10.69-1.94,33,33,0,0,1,8.53,1.13,23.8,23.8,0,0,1,7.34,3.24L994,339.89a22.64,22.64,0,0,0-6.7-3.07,26,26,0,0,0-6.84-.95,18.91,18.91,0,0,0-6.84,1.05,8.39,8.39,0,0,0-3.92,2.82,6.77,6.77,0,0,0-1.23,3.95,5.44,5.44,0,0,0,1.66,4.17,11.91,11.91,0,0,0,4.3,2.46A54.53,54.53,0,0,0,980.2,352q3.16.75,6.38,1.66a27,27,0,0,1,5.85,2.4A11.92,11.92,0,0,1,996.7,360a11.34,11.34,0,0,1,1.62,6.34,12.7,12.7,0,0,1-2,6.95,14.18,14.18,0,0,1-6.31,5.15A26.15,26.15,0,0,1,979.21,380.37Z" transform="translate(-2.93)"/><path class="cls-2" d="M1014.54,380.23a4.76,4.76,0,0,1-4.79-4.87,4.54,4.54,0,0,1,1.41-3.45,4.69,4.69,0,0,1,3.38-1.34,4.52,4.52,0,0,1,3.28,1.34,4.59,4.59,0,0,1,1.38,3.45,4.71,4.71,0,0,1-1.38,3.49A4.47,4.47,0,0,1,1014.54,380.23Z" transform="translate(-2.93)"/><path class="cls-2" d="M105.51,458.82a33.46,33.46,0,0,1-10.79-1.73,22.18,22.18,0,0,1-8.11-4.47l2.61-5.51a22.82,22.82,0,0,0,7.19,4.09,25.79,25.79,0,0,0,9.1,1.63,20.47,20.47,0,0,0,7-1,8.2,8.2,0,0,0,4-2.72,6.4,6.4,0,0,0,1.27-3.91,5.35,5.35,0,0,0-1.65-4.09,12.31,12.31,0,0,0-4.31-2.5,46.87,46.87,0,0,0-5.81-1.66q-3.18-.7-6.39-1.66a28.59,28.59,0,0,1-5.85-2.43,12,12,0,0,1-4.27-4,11.68,11.68,0,0,1-1.62-6.45,13,13,0,0,1,2-7A14,14,0,0,1,96,410.26a25.52,25.52,0,0,1,10.68-1.94,33,33,0,0,1,8.53,1.13,23.71,23.71,0,0,1,7.34,3.25l-2.33,5.64a22.78,22.78,0,0,0-6.7-3.07,26.38,26.38,0,0,0-6.84-.95,18.75,18.75,0,0,0-6.84,1.06A8.23,8.23,0,0,0,96,418.2a6.67,6.67,0,0,0-1.24,3.95,5.42,5.42,0,0,0,1.66,4.16,11.92,11.92,0,0,0,4.3,2.47,57.05,57.05,0,0,0,5.82,1.65c2.12.5,4.24,1.05,6.38,1.66a27.25,27.25,0,0,1,5.86,2.4,12.07,12.07,0,0,1,4.26,3.95,11.38,11.38,0,0,1,1.63,6.35,12.7,12.7,0,0,1-2,6.94,14.13,14.13,0,0,1-6.31,5.15A26,26,0,0,1,105.51,458.82Z" transform="translate(-2.93)"/><path class="cls-2" d="M161.09,458.82a28.3,28.3,0,0,1-10.48-1.9,25,25,0,0,1-8.35-5.33,24.38,24.38,0,0,1-5.5-8,26.32,26.32,0,0,1,0-20,24.32,24.32,0,0,1,5.5-8,25.08,25.08,0,0,1,8.32-5.32,28.23,28.23,0,0,1,10.51-1.91,28.65,28.65,0,0,1,10.44,1.87,24.79,24.79,0,0,1,8.32,5.29,24,24,0,0,1,5.46,8,27.11,27.11,0,0,1,0,20.14,24.12,24.12,0,0,1-5.46,8,24.64,24.64,0,0,1-8.32,5.29A28.45,28.45,0,0,1,161.09,458.82Zm0-6.28a19.89,19.89,0,0,0,7.58-1.41,17.84,17.84,0,0,0,6.06-4,18.53,18.53,0,0,0,4-6,19.24,19.24,0,0,0,1.45-7.55A18.87,18.87,0,0,0,174.73,420a17.65,17.65,0,0,0-6.06-4,21.29,21.29,0,0,0-15.24,0,18.21,18.21,0,0,0-6.1,4,18.72,18.72,0,0,0-4.05,6,19,19,0,0,0-1.45,7.51,19.24,19.24,0,0,0,1.45,7.55,18.25,18.25,0,0,0,10.15,10A20.08,20.08,0,0,0,161.09,452.54Z" transform="translate(-2.93)"/><path class="cls-2" d="M201.92,458.26V408.89h5.79l22.14,37.31h-3.1l21.86-37.31h5.79l.07,49.37H247.7l-.07-38.72h1.62l-19.47,32.72h-3.24l-19.61-32.72h1.76v38.72Z" transform="translate(-2.93)"/><path class="cls-2" d="M295.44,458.82a28.28,28.28,0,0,1-10.47-1.9,25.08,25.08,0,0,1-8.36-5.33,24.69,24.69,0,0,1-5.5-8,26.44,26.44,0,0,1,0-20,24.63,24.63,0,0,1,5.5-8,25.18,25.18,0,0,1,8.32-5.32,28.23,28.23,0,0,1,10.51-1.91,28.65,28.65,0,0,1,10.44,1.87,24.69,24.69,0,0,1,8.32,5.29,24.16,24.16,0,0,1,5.47,8,27.11,27.11,0,0,1,0,20.14A24.32,24.32,0,0,1,305.88,457,28.45,28.45,0,0,1,295.44,458.82Zm0-6.28a19.82,19.82,0,0,0,7.58-1.41,18,18,0,0,0,6.07-4,18.69,18.69,0,0,0,4-6,19.42,19.42,0,0,0,1.45-7.55A18.87,18.87,0,0,0,309.09,420a17.79,17.79,0,0,0-6.07-4,20,20,0,0,0-7.58-1.41,20.26,20.26,0,0,0-7.65,1.41,18.11,18.11,0,0,0-6.1,4,18.91,18.91,0,0,0-4.06,6,19.18,19.18,0,0,0-1.44,7.51,19.42,19.42,0,0,0,1.44,7.55,18.31,18.31,0,0,0,10.16,10A20.07,20.07,0,0,0,295.44,452.54Z" transform="translate(-2.93)"/><path class="cls-2" d="M350.66,458.82a33.5,33.5,0,0,1-10.79-1.73,22.18,22.18,0,0,1-8.11-4.47l2.61-5.51a22.76,22.76,0,0,0,7.2,4.09,25.7,25.7,0,0,0,9.09,1.63,20.57,20.57,0,0,0,7-1,8.29,8.29,0,0,0,4-2.72,6.46,6.46,0,0,0,1.27-3.91,5.36,5.36,0,0,0-1.66-4.09,12.35,12.35,0,0,0-4.3-2.5,47.55,47.55,0,0,0-5.82-1.66q-3.18-.7-6.38-1.66a28.92,28.92,0,0,1-5.86-2.43,12.11,12.11,0,0,1-4.27-4,11.68,11.68,0,0,1-1.62-6.45,13,13,0,0,1,2-7,14,14,0,0,1,6.21-5.15,25.59,25.59,0,0,1,10.68-1.94,33.12,33.12,0,0,1,8.54,1.13,23.75,23.75,0,0,1,7.33,3.25l-2.32,5.64a22.9,22.9,0,0,0-6.7-3.07,26.51,26.51,0,0,0-6.85-.95,18.75,18.75,0,0,0-6.84,1.06,8.28,8.28,0,0,0-3.91,2.82,6.74,6.74,0,0,0-1.24,3.95,5.45,5.45,0,0,0,1.66,4.16,12,12,0,0,0,4.3,2.47,58.55,58.55,0,0,0,5.82,1.65q3.18.75,6.39,1.66a27.17,27.17,0,0,1,5.85,2.4,12.18,12.18,0,0,1,4.27,3.95,11.38,11.38,0,0,1,1.62,6.35,12.62,12.62,0,0,1-2,6.94,14.13,14.13,0,0,1-6.31,5.15A25.92,25.92,0,0,1,350.66,458.82Z" transform="translate(-2.93)"/><path class="cls-2" d="M406.8,458.26V408.89h7.06v43.23h26.73v6.14Z" transform="translate(-2.93)"/><path class="cls-2" d="M474,458.82a28.3,28.3,0,0,1-10.48-1.9,25,25,0,0,1-8.35-5.33,24.38,24.38,0,0,1-5.5-8,26.32,26.32,0,0,1,0-20,24.32,24.32,0,0,1,5.5-8,25.08,25.08,0,0,1,8.32-5.32A28.23,28.23,0,0,1,474,408.32a28.65,28.65,0,0,1,10.44,1.87,24.79,24.79,0,0,1,8.32,5.29,24,24,0,0,1,5.46,8,27.11,27.11,0,0,1,0,20.14,24.12,24.12,0,0,1-5.46,8,24.64,24.64,0,0,1-8.32,5.29A28.45,28.45,0,0,1,474,458.82Zm0-6.28a19.89,19.89,0,0,0,7.58-1.41,17.84,17.84,0,0,0,6.06-4,18.53,18.53,0,0,0,4-6,19.24,19.24,0,0,0,1.45-7.55A18.87,18.87,0,0,0,487.59,420a17.65,17.65,0,0,0-6.06-4,21.29,21.29,0,0,0-15.24,0,18.21,18.21,0,0,0-6.1,4,18.72,18.72,0,0,0-4.05,6,19,19,0,0,0-1.45,7.51,19.24,19.24,0,0,0,1.45,7.55,18.25,18.25,0,0,0,10.15,10A20.08,20.08,0,0,0,474,452.54Z" transform="translate(-2.93)"/><path class="cls-2" d="M535.24,458.82q-9.74,0-15.31-5.57T514.36,437V408.89h7v27.79q0,8.25,3.63,12.06t10.27,3.8q6.69,0,10.33-3.8t3.63-12.06V408.89h6.84V437q0,10.73-5.53,16.29T535.24,458.82Z" transform="translate(-2.93)"/><path class="cls-2" d="M596.52,458.82a28.16,28.16,0,0,1-10.4-1.87,24.34,24.34,0,0,1-8.25-5.29,24.92,24.92,0,0,1-5.47-8,26.8,26.8,0,0,1,0-20.17,24.63,24.63,0,0,1,5.5-8,25,25,0,0,1,8.29-5.29,29.75,29.75,0,0,1,20.95.07,21.6,21.6,0,0,1,8.21,5.75l-4.58,4.44a18.32,18.32,0,0,0-6.35-4.4,19.55,19.55,0,0,0-7.54-1.45,20.83,20.83,0,0,0-7.73,1.41A18.6,18.6,0,0,0,583,420a17.7,17.7,0,0,0-4.05,6,20.54,20.54,0,0,0,0,15.16,17.7,17.7,0,0,0,4.05,6,18.44,18.44,0,0,0,6.17,3.95,20.63,20.63,0,0,0,7.73,1.41,19.73,19.73,0,0,0,7.54-1.44,17.91,17.91,0,0,0,6.35-4.48l4.58,4.44a21.91,21.91,0,0,1-8.21,5.79A27.93,27.93,0,0,1,596.52,458.82Z" transform="translate(-2.93)"/><path class="cls-2" d="M620.64,458.26,643,408.89h7l22.43,49.37H665l-20-45.42h2.82l-20,45.42Zm9.53-12.34,1.9-5.65h27.79l2,5.65Z" transform="translate(-2.93)"/><path class="cls-2" d="M698,458.82a33.46,33.46,0,0,1-10.79-1.73,22.18,22.18,0,0,1-8.11-4.47l2.61-5.51a22.76,22.76,0,0,0,7.2,4.09,25.7,25.7,0,0,0,9.09,1.63,20.57,20.57,0,0,0,7-1,8.29,8.29,0,0,0,4-2.72,6.46,6.46,0,0,0,1.27-3.91,5.36,5.36,0,0,0-1.66-4.09,12.35,12.35,0,0,0-4.3-2.5,47.55,47.55,0,0,0-5.82-1.66q-3.18-.7-6.39-1.66a28.59,28.59,0,0,1-5.85-2.43,12,12,0,0,1-4.27-4,11.68,11.68,0,0,1-1.62-6.45,13,13,0,0,1,2-7,14,14,0,0,1,6.21-5.15,25.59,25.59,0,0,1,10.68-1.94,33.12,33.12,0,0,1,8.54,1.13,23.75,23.75,0,0,1,7.33,3.25l-2.33,5.64a22.78,22.78,0,0,0-6.7-3.07,26.38,26.38,0,0,0-6.84-.95,18.75,18.75,0,0,0-6.84,1.06,8.23,8.23,0,0,0-3.91,2.82,6.67,6.67,0,0,0-1.24,3.95,5.45,5.45,0,0,0,1.66,4.16,11.92,11.92,0,0,0,4.3,2.47,58.55,58.55,0,0,0,5.82,1.65c2.12.5,4.24,1.05,6.38,1.66a27.25,27.25,0,0,1,5.86,2.4,12.18,12.18,0,0,1,4.27,3.95,11.38,11.38,0,0,1,1.62,6.35,12.62,12.62,0,0,1-2,6.94,14.13,14.13,0,0,1-6.31,5.15A26,26,0,0,1,698,458.82Z" transform="translate(-2.93)"/><path class="cls-2" d="M754.15,458.26V408.89h19.26a27.15,27.15,0,0,1,11.07,2,15.65,15.65,0,0,1,7,5.93,18.44,18.44,0,0,1,0,18.44,15.88,15.88,0,0,1-7,5.92,26.64,26.64,0,0,1-11.07,2.09H758l3.18-3.32v18.27Zm7.06-17.56L758,437.17H773.2q6.76,0,10.26-2.89a11.33,11.33,0,0,0,0-16.36Q780,415,773.2,415H758l3.18-3.52Z" transform="translate(-2.93)"/><path class="cls-2" d="M815.3,452.12h28.77v6.14H808.25V408.89h34.84V415H815.3Zm-.64-21.93h25.39v6H814.66Z" transform="translate(-2.93)"/><path class="cls-2" d="M859.38,458.26V408.89h7v43.23h26.73v6.14Z" transform="translate(-2.93)"/><path class="cls-2" d="M926.52,458.82a28.28,28.28,0,0,1-10.47-1.9,25.08,25.08,0,0,1-8.36-5.33,24.69,24.69,0,0,1-5.5-8,26.44,26.44,0,0,1,0-20,24.63,24.63,0,0,1,5.5-8,25.18,25.18,0,0,1,8.32-5.32,28.23,28.23,0,0,1,10.51-1.91A28.65,28.65,0,0,1,937,410.19a24.69,24.69,0,0,1,8.32,5.29,24,24,0,0,1,5.47,8,27.11,27.11,0,0,1,0,20.14,24.15,24.15,0,0,1-5.47,8A24.54,24.54,0,0,1,937,457,28.45,28.45,0,0,1,926.52,458.82Zm0-6.28a19.82,19.82,0,0,0,7.58-1.41,18,18,0,0,0,6.07-4,18.53,18.53,0,0,0,4-6,19.42,19.42,0,0,0,1.45-7.55,19.19,19.19,0,0,0-1.45-7.51,19,19,0,0,0-4-6,17.79,17.79,0,0,0-6.07-4,20,20,0,0,0-7.58-1.41,20.26,20.26,0,0,0-7.65,1.41,18.11,18.11,0,0,0-6.1,4,18.91,18.91,0,0,0-4.06,6,19.18,19.18,0,0,0-1.44,7.51,19.42,19.42,0,0,0,1.44,7.55,18.31,18.31,0,0,0,10.16,10A20.07,20.07,0,0,0,926.52,452.54Z" transform="translate(-2.93)"/><path class="cls-2" d="M981.75,458.82a33.52,33.52,0,0,1-10.8-1.73,22.18,22.18,0,0,1-8.11-4.47l2.61-5.51a22.76,22.76,0,0,0,7.2,4.09,25.75,25.75,0,0,0,9.1,1.63,20.55,20.55,0,0,0,7-1,8.29,8.29,0,0,0,3.95-2.72,6.46,6.46,0,0,0,1.27-3.91,5.36,5.36,0,0,0-1.66-4.09,12.35,12.35,0,0,0-4.3-2.5,47.55,47.55,0,0,0-5.82-1.66c-2.12-.47-4.24-1-6.38-1.66a28.92,28.92,0,0,1-5.86-2.43,12,12,0,0,1-4.26-4,11.6,11.6,0,0,1-1.63-6.45,13,13,0,0,1,2-7,14,14,0,0,1,6.21-5.15,25.59,25.59,0,0,1,10.68-1.94,33.12,33.12,0,0,1,8.54,1.13,23.75,23.75,0,0,1,7.33,3.25l-2.32,5.64a22.9,22.9,0,0,0-6.7-3.07,26.51,26.51,0,0,0-6.85-.95,18.75,18.75,0,0,0-6.84,1.06,8.28,8.28,0,0,0-3.91,2.82,6.74,6.74,0,0,0-1.24,3.95,5.45,5.45,0,0,0,1.66,4.16,12,12,0,0,0,4.3,2.47,58.55,58.55,0,0,0,5.82,1.65q3.18.75,6.39,1.66a27,27,0,0,1,5.85,2.4,12.18,12.18,0,0,1,4.27,3.95,11.38,11.38,0,0,1,1.62,6.35,12.62,12.62,0,0,1-2.05,6.94,14.07,14.07,0,0,1-6.31,5.15A25.9,25.9,0,0,1,981.75,458.82Z" transform="translate(-2.93)"/><path class="cls-2" d="M150.37,536.71V487.34h7v43.23h26.73v6.14Z" transform="translate(-2.93)"/><path class="cls-2" d="M217.51,537.27a28.28,28.28,0,0,1-10.47-1.9,25.05,25.05,0,0,1-8.36-5.32,24.47,24.47,0,0,1-5.5-8,26.32,26.32,0,0,1,0-20,24.43,24.43,0,0,1,5.5-8,25.1,25.1,0,0,1,8.32-5.33,30,30,0,0,1,20.95,0,24.54,24.54,0,0,1,8.32,5.29,24.16,24.16,0,0,1,5.47,8,27.08,27.08,0,0,1,0,20.13,24.24,24.24,0,0,1-5.47,8,24.69,24.69,0,0,1-8.32,5.29A28.65,28.65,0,0,1,217.51,537.27Zm0-6.27a20,20,0,0,0,7.58-1.41,18,18,0,0,0,6.07-4,18.63,18.63,0,0,0,4-6,19.35,19.35,0,0,0-4-21.09,18.08,18.08,0,0,0-6.07-4,20,20,0,0,0-7.58-1.41,20.26,20.26,0,0,0-7.65,1.41,18.41,18.41,0,0,0-6.1,4,18.91,18.91,0,0,0-4.06,6,20.41,20.41,0,0,0,0,15.06,18.37,18.37,0,0,0,10.16,10A20.26,20.26,0,0,0,217.51,531Z" transform="translate(-2.93)"/><path class="cls-2" d="M280.63,537.27a28.28,28.28,0,0,1-10.47-1.9,25.05,25.05,0,0,1-8.36-5.32,24.63,24.63,0,0,1-5.5-8,26.44,26.44,0,0,1,0-20,24.58,24.58,0,0,1,5.5-8,25.21,25.21,0,0,1,8.32-5.33,30,30,0,0,1,20.95,0,24.54,24.54,0,0,1,8.32,5.29,24,24,0,0,1,5.47,8,27.08,27.08,0,0,1,0,20.13,24.09,24.09,0,0,1-5.47,8,24.69,24.69,0,0,1-8.32,5.29A28.65,28.65,0,0,1,280.63,537.27Zm0-6.27a20,20,0,0,0,7.58-1.41,18,18,0,0,0,6.07-4,18.32,18.32,0,0,0,4-6,20.28,20.28,0,0,0,0-15.06,19,19,0,0,0-4-6,18.08,18.08,0,0,0-6.07-4,20,20,0,0,0-7.58-1.41,20.26,20.26,0,0,0-7.65,1.41,18.41,18.41,0,0,0-6.1,4,18.91,18.91,0,0,0-4.06,6,20.41,20.41,0,0,0,0,15.06,18.37,18.37,0,0,0,10.16,10A20.26,20.26,0,0,0,280.63,531Z" transform="translate(-2.93)"/><path class="cls-2" d="M321.47,536.71V487.34h7v49.37Zm6.2-11.92-.35-8.6,28-28.85h8l-21.65,22.85-3.95,4.37Zm28.78,11.92-20.24-23.56,4.72-5.21,23.77,28.77Z" transform="translate(-2.93)"/><path class="cls-2" d="M389.39,537.27a33.68,33.68,0,0,1-10.79-1.72,22,22,0,0,1-8.11-4.48l2.6-5.5a23,23,0,0,0,7.2,4.09,26,26,0,0,0,9.1,1.62,20.55,20.55,0,0,0,7-1,8.3,8.3,0,0,0,3.95-2.71,6.49,6.49,0,0,0,1.27-3.92,5.37,5.37,0,0,0-1.66-4.09,12.26,12.26,0,0,0-4.3-2.5,46.55,46.55,0,0,0-5.82-1.66c-2.12-.47-4.24-1-6.38-1.66a28.36,28.36,0,0,1-5.86-2.43,12.06,12.06,0,0,1-4.26-4,11.61,11.61,0,0,1-1.63-6.46,13,13,0,0,1,2-7,14,14,0,0,1,6.21-5.14,25.45,25.45,0,0,1,10.69-1.94,33.09,33.09,0,0,1,8.53,1.12,23.88,23.88,0,0,1,7.33,3.25l-2.32,5.64a22.9,22.9,0,0,0-6.7-3.07,26.38,26.38,0,0,0-6.84-1,18.77,18.77,0,0,0-6.85,1.06,8.35,8.35,0,0,0-3.91,2.82,6.75,6.75,0,0,0-1.23,4,5.43,5.43,0,0,0,1.65,4.16,11.83,11.83,0,0,0,4.31,2.47,60.23,60.23,0,0,0,5.81,1.66q3.18.74,6.39,1.65a28,28,0,0,1,5.85,2.4,12.19,12.19,0,0,1,4.27,3.95,11.38,11.38,0,0,1,1.62,6.35,12.65,12.65,0,0,1-2.05,7,14.06,14.06,0,0,1-6.31,5.14A25.9,25.9,0,0,1,389.39,537.27Z" transform="translate(-2.93)"/><path class="cls-2" d="M445.53,536.71V487.34h20.8a30.12,30.12,0,0,1,13.93,3.1,23,23,0,0,1,9.38,8.68,26.53,26.53,0,0,1,0,25.81,22.89,22.89,0,0,1-9.38,8.68,30,30,0,0,1-13.93,3.1Zm7.05-6.14h13.33a22.72,22.72,0,0,0,10.61-2.32,16.92,16.92,0,0,0,7-6.53,20.34,20.34,0,0,0,0-19.43,17.09,17.09,0,0,0-7-6.49,22.72,22.72,0,0,0-10.61-2.32H452.58Z" transform="translate(-2.93)"/><path class="cls-2" d="M499.48,536.71l22.36-49.37h7l22.43,49.37h-7.41l-20-45.42h2.82l-20,45.42ZM509,524.37l1.9-5.64h27.79l2,5.64Z" transform="translate(-2.93)"/><path class="cls-2" d="M576.85,537.27a33.73,33.73,0,0,1-10.79-1.72,22.11,22.11,0,0,1-8.11-4.48l2.61-5.5a23,23,0,0,0,7.19,4.09,26,26,0,0,0,9.1,1.62,20.51,20.51,0,0,0,7-1,8.3,8.3,0,0,0,3.95-2.71,6.43,6.43,0,0,0,1.27-3.92,5.34,5.34,0,0,0-1.66-4.09,12.26,12.26,0,0,0-4.3-2.5,46.55,46.55,0,0,0-5.82-1.66q-3.16-.7-6.38-1.66a28,28,0,0,1-5.85-2.43,12,12,0,0,1-4.27-4,11.7,11.7,0,0,1-1.62-6.46,13,13,0,0,1,2-7,14,14,0,0,1,6.2-5.14,25.45,25.45,0,0,1,10.69-1.94,33,33,0,0,1,8.53,1.12,24.05,24.05,0,0,1,7.34,3.25l-2.33,5.64a22.9,22.9,0,0,0-6.7-3.07,26.38,26.38,0,0,0-6.84-1,18.68,18.68,0,0,0-6.84,1.06,8.33,8.33,0,0,0-3.92,2.82,6.75,6.75,0,0,0-1.23,4,5.4,5.4,0,0,0,1.66,4.16,11.78,11.78,0,0,0,4.3,2.47,59.64,59.64,0,0,0,5.82,1.66q3.17.74,6.38,1.65a28,28,0,0,1,5.85,2.4,12.1,12.1,0,0,1,4.27,3.95,11.38,11.38,0,0,1,1.62,6.35,12.72,12.72,0,0,1-2,7,14.14,14.14,0,0,1-6.32,5.14A25.9,25.9,0,0,1,576.85,537.27Z" transform="translate(-2.93)"/><path class="cls-2" d="M633,536.71V487.34h5.78l32.66,40.55h-3V487.34h7.06v49.37h-5.79L637,496.16h3v40.55Z" transform="translate(-2.93)"/><path class="cls-2" d="M716.42,537.27a28.28,28.28,0,0,1-10.47-1.9,25.05,25.05,0,0,1-8.36-5.32,24.63,24.63,0,0,1-5.5-8,26.44,26.44,0,0,1,0-20,24.58,24.58,0,0,1,5.5-8,25.21,25.21,0,0,1,8.32-5.33,30,30,0,0,1,21,0,24.54,24.54,0,0,1,8.32,5.29,24,24,0,0,1,5.47,8,27.08,27.08,0,0,1,0,20.13,24.09,24.09,0,0,1-5.47,8,24.69,24.69,0,0,1-8.32,5.29A28.65,28.65,0,0,1,716.42,537.27Zm0-6.27a20.1,20.1,0,0,0,7.59-1.41,18.06,18.06,0,0,0,6.06-4,18.32,18.32,0,0,0,4-6,20.28,20.28,0,0,0,0-15.06,19,19,0,0,0-4-6,18.14,18.14,0,0,0-6.06-4,21.29,21.29,0,0,0-15.24,0,18.41,18.41,0,0,0-6.1,4,18.91,18.91,0,0,0-4.06,6,20.41,20.41,0,0,0,0,15.06,18.37,18.37,0,0,0,10.16,10A20.26,20.26,0,0,0,716.42,531Z" transform="translate(-2.93)"/><path class="cls-2" d="M771.65,537.27a33.79,33.79,0,0,1-10.8-1.72,22.19,22.19,0,0,1-8.11-4.48l2.61-5.5a23,23,0,0,0,7.2,4.09,26,26,0,0,0,9.1,1.62,20.55,20.55,0,0,0,7-1,8.35,8.35,0,0,0,4-2.71,6.49,6.49,0,0,0,1.27-3.92,5.37,5.37,0,0,0-1.66-4.09,12.35,12.35,0,0,0-4.3-2.5,47.55,47.55,0,0,0-5.82-1.66c-2.12-.47-4.24-1-6.38-1.66a28.36,28.36,0,0,1-5.86-2.43,12.06,12.06,0,0,1-4.26-4,11.61,11.61,0,0,1-1.63-6.46,13,13,0,0,1,2-7,14,14,0,0,1,6.21-5.14,25.45,25.45,0,0,1,10.69-1.94,33.09,33.09,0,0,1,8.53,1.12,24,24,0,0,1,7.33,3.25l-2.32,5.64a22.9,22.9,0,0,0-6.7-3.07,26.5,26.5,0,0,0-6.84-1,18.77,18.77,0,0,0-6.85,1.06,8.35,8.35,0,0,0-3.91,2.82,6.76,6.76,0,0,0-1.24,4,5.44,5.44,0,0,0,1.66,4.16,11.87,11.87,0,0,0,4.3,2.47q2.66.91,5.82,1.66t6.39,1.65a28,28,0,0,1,5.85,2.4,12.27,12.27,0,0,1,4.27,3.95,11.38,11.38,0,0,1,1.62,6.35,12.65,12.65,0,0,1-2,7,14.06,14.06,0,0,1-6.31,5.14A25.9,25.9,0,0,1,771.65,537.27Z" transform="translate(-2.93)"/><path class="cls-2" d="M819.32,537.27a33.73,33.73,0,0,1-10.79-1.72,22.11,22.11,0,0,1-8.11-4.48l2.61-5.5a23,23,0,0,0,7.19,4.09,26,26,0,0,0,9.1,1.62,20.47,20.47,0,0,0,7-1,8.25,8.25,0,0,0,4-2.71,6.43,6.43,0,0,0,1.27-3.92,5.36,5.36,0,0,0-1.65-4.09,12.31,12.31,0,0,0-4.31-2.5,46.87,46.87,0,0,0-5.81-1.66q-3.18-.7-6.39-1.66a28,28,0,0,1-5.85-2.43,12.09,12.09,0,0,1-4.27-4,11.7,11.7,0,0,1-1.62-6.46,13,13,0,0,1,2-7,14,14,0,0,1,6.21-5.14,25.37,25.37,0,0,1,10.68-1.94,33,33,0,0,1,8.53,1.12,23.94,23.94,0,0,1,7.34,3.25l-2.33,5.64a22.78,22.78,0,0,0-6.7-3.07,26.38,26.38,0,0,0-6.84-1,18.75,18.75,0,0,0-6.84,1.06,8.38,8.38,0,0,0-3.92,2.82,6.75,6.75,0,0,0-1.23,4,5.4,5.4,0,0,0,1.66,4.16,11.78,11.78,0,0,0,4.3,2.47,59.64,59.64,0,0,0,5.82,1.66c2.12.49,4.24,1,6.38,1.65a28.31,28.31,0,0,1,5.86,2.4,12.16,12.16,0,0,1,4.26,3.95,11.38,11.38,0,0,1,1.62,6.35,12.72,12.72,0,0,1-2,7,14.11,14.11,0,0,1-6.31,5.14A26,26,0,0,1,819.32,537.27Z" transform="translate(-2.93)"/><path class="cls-2" d="M845.13,536.71l22.36-49.37h7l22.43,49.37h-7.4l-20-45.42h2.82l-20,45.42Zm9.53-12.34,1.9-5.64h27.79l2,5.64Z" transform="translate(-2.93)"/><path class="cls-2" d="M922.5,537.27a33.73,33.73,0,0,1-10.79-1.72,22.19,22.19,0,0,1-8.11-4.48l2.61-5.5a23,23,0,0,0,7.19,4.09,26,26,0,0,0,9.1,1.62,20.47,20.47,0,0,0,7-1,8.25,8.25,0,0,0,3.95-2.71,6.43,6.43,0,0,0,1.27-3.92,5.36,5.36,0,0,0-1.65-4.09,12.31,12.31,0,0,0-4.31-2.5,46.87,46.87,0,0,0-5.81-1.66q-3.18-.7-6.39-1.66a28,28,0,0,1-5.85-2.43,12.09,12.09,0,0,1-4.27-4,11.7,11.7,0,0,1-1.62-6.46,13,13,0,0,1,2-7,14,14,0,0,1,6.21-5.14,25.4,25.4,0,0,1,10.68-1.94,33.16,33.16,0,0,1,8.54,1.12,24,24,0,0,1,7.33,3.25l-2.33,5.64a22.78,22.78,0,0,0-6.7-3.07,26.38,26.38,0,0,0-6.84-1,18.75,18.75,0,0,0-6.84,1.06,8.29,8.29,0,0,0-3.91,2.82,6.69,6.69,0,0,0-1.24,4,5.4,5.4,0,0,0,1.66,4.16,11.78,11.78,0,0,0,4.3,2.47,59.64,59.64,0,0,0,5.82,1.66c2.12.49,4.24,1,6.38,1.65a28.31,28.31,0,0,1,5.86,2.4,12.16,12.16,0,0,1,4.26,3.95,11.38,11.38,0,0,1,1.63,6.35,12.73,12.73,0,0,1-2,7,14.11,14.11,0,0,1-6.31,5.14A26,26,0,0,1,922.5,537.27Z" transform="translate(-2.93)"/><path class="cls-2" d="M103.72,615.73a28.38,28.38,0,0,1-10.41-1.87,24.49,24.49,0,0,1-8.25-5.29,24.85,24.85,0,0,1-5.47-8,26.8,26.8,0,0,1,0-20.17A24.64,24.64,0,0,1,93.38,567.1a29.75,29.75,0,0,1,21,.07,21.6,21.6,0,0,1,8.22,5.75L118,577.36a18.35,18.35,0,0,0-6.35-4.41,19.73,19.73,0,0,0-7.54-1.44,20.83,20.83,0,0,0-7.73,1.41,18.44,18.44,0,0,0-6.17,4,17.7,17.7,0,0,0-4,6,20.54,20.54,0,0,0,0,15.16,17.7,17.7,0,0,0,4,6A18.6,18.6,0,0,0,96.34,608a20.83,20.83,0,0,0,7.73,1.41,19.55,19.55,0,0,0,7.54-1.45,17.88,17.88,0,0,0,6.35-4.47l4.59,4.44a21.89,21.89,0,0,1-8.22,5.78A27.72,27.72,0,0,1,103.72,615.73Z" transform="translate(-2.93)"/><path class="cls-2" d="M143.56,609h28.78v6.13H136.51V565.79h34.84v6.14H143.56Zm-.63-21.94h25.39v6H142.93Z" transform="translate(-2.93)"/><path class="cls-2" d="M187.64,615.16V565.79h7.06V609h26.73v6.13Z" transform="translate(-2.93)"/><path class="cls-2" d="M240.47,609h28.77v6.13H233.42V565.79h34.84v6.14H240.47Zm-.64-21.94h25.39v6H239.83Z" transform="translate(-2.93)"/><path class="cls-2" d="M284.55,615.16V565.79h22.14q8.54,0,13.12,3.42a11,11,0,0,1,4.59,9.35,12.09,12.09,0,0,1-1.8,6.77,11.94,11.94,0,0,1-4.83,4.23,14.74,14.74,0,0,1-6.56,1.48l1.27-2.11a17.75,17.75,0,0,1,7.47,1.48,12,12,0,0,1,5.15,4.33,12.52,12.52,0,0,1,1.91,7.09,11.51,11.51,0,0,1-4.76,9.84q-4.77,3.5-14.15,3.49Zm7.05-5.71h16.22q5.85,0,9-2a6.83,6.83,0,0,0,3.1-6.21q0-4.31-3.1-6.28t-9-2H291V587.3h15.09c3.57,0,6.35-.65,8.32-2a7.41,7.41,0,0,0,0-11.85c-2-1.32-4.75-2-8.32-2H291.6Z" transform="translate(-2.93)"/><path class="cls-2" d="M356.2,615.73A33.78,33.78,0,0,1,345.41,614a22.19,22.19,0,0,1-8.11-4.48l2.61-5.5a22.76,22.76,0,0,0,7.2,4.09,25.92,25.92,0,0,0,9.09,1.62,20.57,20.57,0,0,0,7-1,8.28,8.28,0,0,0,3.95-2.71,6.49,6.49,0,0,0,1.27-3.92,5.37,5.37,0,0,0-1.66-4.09,12.51,12.51,0,0,0-4.3-2.5,49.39,49.39,0,0,0-5.82-1.66q-3.18-.71-6.39-1.65a28.61,28.61,0,0,1-5.85-2.44,11.91,11.91,0,0,1-4.27-4,11.7,11.7,0,0,1-1.62-6.46,13,13,0,0,1,2-7,13.94,13.94,0,0,1,6.21-5.15,25.56,25.56,0,0,1,10.68-1.94,33.12,33.12,0,0,1,8.54,1.13,23.74,23.74,0,0,1,7.33,3.24l-2.33,5.64a22.38,22.38,0,0,0-6.7-3.06,26,26,0,0,0-6.84-1,19,19,0,0,0-6.84,1.06,8.36,8.36,0,0,0-3.91,2.82,6.71,6.71,0,0,0-1.24,3.95,5.44,5.44,0,0,0,1.66,4.16,11.87,11.87,0,0,0,4.3,2.47,58.48,58.48,0,0,0,5.82,1.66c2.12.49,4.24,1,6.38,1.66a27.75,27.75,0,0,1,5.86,2.39,12.27,12.27,0,0,1,4.27,4,11.4,11.4,0,0,1,1.62,6.35,12.65,12.65,0,0,1-2.05,6.95,14.19,14.19,0,0,1-6.31,5.15A26.11,26.11,0,0,1,356.2,615.73Z" transform="translate(-2.93)"/><path class="cls-2" d="M387.23,625.6l3.53-14.25.92,4.09a4.85,4.85,0,0,1-3.42-1.26,4.48,4.48,0,0,1-1.38-3.46,4.65,4.65,0,0,1,4.73-4.8,4.28,4.28,0,0,1,3.31,1.38,4.85,4.85,0,0,1,1.27,3.42,8.75,8.75,0,0,1-.1,1.37,12.89,12.89,0,0,1-.36,1.56c-.16.58-.41,1.3-.74,2.15l-3.31,9.8Z" transform="translate(-2.93)"/><path class="cls-2" d="M433.64,615.16V565.79h5.78l22.15,37.31h-3.1l21.86-37.31h5.78l.07,49.37h-6.77l-.07-38.72H481L461.5,609.17h-3.24l-19.61-32.73h1.76v38.72Z" transform="translate(-2.93)"/><path class="cls-2" d="M497.4,615.16l22.36-49.37h7l22.43,49.37h-7.41l-20-45.42h2.82l-20,45.42Zm9.52-12.34,1.9-5.64h27.79l2,5.64Z" transform="translate(-2.93)"/><path class="cls-2" d="M574.77,615.73A33.73,33.73,0,0,1,564,614a22,22,0,0,1-8.11-4.48l2.6-5.5a22.76,22.76,0,0,0,7.2,4.09,26,26,0,0,0,9.1,1.62,20.55,20.55,0,0,0,7-1,8.23,8.23,0,0,0,4-2.71,6.43,6.43,0,0,0,1.27-3.92,5.34,5.34,0,0,0-1.66-4.09,12.42,12.42,0,0,0-4.3-2.5,48.31,48.31,0,0,0-5.82-1.66c-2.12-.47-4.24-1-6.38-1.65a28.93,28.93,0,0,1-5.86-2.44,11.88,11.88,0,0,1-4.26-4,11.61,11.61,0,0,1-1.63-6.46,13,13,0,0,1,2-7,13.94,13.94,0,0,1,6.21-5.15A25.6,25.6,0,0,1,576,565.23a33.1,33.1,0,0,1,8.53,1.13,23.91,23.91,0,0,1,7.34,3.24l-2.33,5.64a22.61,22.61,0,0,0-6.7-3.06,26,26,0,0,0-6.84-1,18.89,18.89,0,0,0-6.84,1.06,8.39,8.39,0,0,0-3.92,2.82,6.77,6.77,0,0,0-1.23,3.95,5.43,5.43,0,0,0,1.65,4.16,11.83,11.83,0,0,0,4.31,2.47,57.49,57.49,0,0,0,5.81,1.66c2.12.49,4.25,1,6.39,1.66a27.45,27.45,0,0,1,5.85,2.39,12.19,12.19,0,0,1,4.27,4,11.4,11.4,0,0,1,1.62,6.35,12.72,12.72,0,0,1-2,6.95,14.22,14.22,0,0,1-6.32,5.15A26.06,26.06,0,0,1,574.77,615.73Z" transform="translate(-2.93)"/><path class="cls-2" d="M645.3,615.73A33.79,33.79,0,0,1,634.5,614a22.19,22.19,0,0,1-8.11-4.48L629,604a22.76,22.76,0,0,0,7.2,4.09,25.93,25.93,0,0,0,9.1,1.62,20.55,20.55,0,0,0,7-1,8.28,8.28,0,0,0,4-2.71,6.49,6.49,0,0,0,1.27-3.92,5.37,5.37,0,0,0-1.66-4.09,12.51,12.51,0,0,0-4.3-2.5,49.39,49.39,0,0,0-5.82-1.66q-3.18-.71-6.38-1.65a28.93,28.93,0,0,1-5.86-2.44,11.88,11.88,0,0,1-4.26-4,11.61,11.61,0,0,1-1.63-6.46,13,13,0,0,1,2-7,13.94,13.94,0,0,1,6.21-5.15,25.59,25.59,0,0,1,10.68-1.94,33.12,33.12,0,0,1,8.54,1.13,23.74,23.74,0,0,1,7.33,3.24L660,575.24a22.61,22.61,0,0,0-6.7-3.06,26.11,26.11,0,0,0-6.85-1,19,19,0,0,0-6.84,1.06,8.41,8.41,0,0,0-3.91,2.82,6.78,6.78,0,0,0-1.24,3.95,5.44,5.44,0,0,0,1.66,4.16,11.87,11.87,0,0,0,4.3,2.47,58.48,58.48,0,0,0,5.82,1.66c2.12.49,4.25,1,6.39,1.66a27.67,27.67,0,0,1,5.85,2.39,12.27,12.27,0,0,1,4.27,4,11.4,11.4,0,0,1,1.62,6.35,12.65,12.65,0,0,1-2,6.95,14.19,14.19,0,0,1-6.31,5.15A26.06,26.06,0,0,1,645.3,615.73Z" transform="translate(-2.93)"/><path class="cls-2" d="M671.11,615.16l22.36-49.37h7l22.43,49.37h-7.41l-20-45.42h2.82l-20,45.42Zm9.52-12.34,1.9-5.64h27.79l2,5.64Z" transform="translate(-2.93)"/><path class="cls-2" d="M734.09,615.16V565.79h22.14q8.53,0,13.12,3.42a11,11,0,0,1,4.59,9.35,12.09,12.09,0,0,1-1.8,6.77,11.94,11.94,0,0,1-4.83,4.23,14.74,14.74,0,0,1-6.56,1.48l1.27-2.11a17.75,17.75,0,0,1,7.47,1.48,12,12,0,0,1,5.15,4.33,12.52,12.52,0,0,1,1.91,7.09,11.51,11.51,0,0,1-4.76,9.84q-4.77,3.5-14.15,3.49Zm7-5.71h16.22q5.85,0,9-2a6.83,6.83,0,0,0,3.1-6.21q0-4.31-3.1-6.28t-9-2H740.51V587.3H755.6c3.57,0,6.35-.65,8.32-2a7.41,7.41,0,0,0,0-11.85c-2-1.32-4.75-2-8.32-2H741.14Z" transform="translate(-2.93)"/><path class="cls-2" d="M798.41,609h28.77v6.13H791.36V565.79H826.2v6.14H798.41Zm-.64-21.94h25.39v6H797.77Z" transform="translate(-2.93)"/><path class="cls-2" d="M842.49,615.16V565.79h5.78l22.15,37.31h-3.11l21.87-37.31H895l.07,49.37h-6.77l-.07-38.72h1.62l-19.46,32.73H867.1l-19.6-32.73h1.76v38.72Z" transform="translate(-2.93)"/><path class="cls-2" d="M936,615.73a28.38,28.38,0,0,1-10.48-1.91,25,25,0,0,1-8.35-5.32,24.47,24.47,0,0,1-5.5-8,26.32,26.32,0,0,1,0-20,24.54,24.54,0,0,1,5.5-8,25.1,25.1,0,0,1,8.32-5.33,30,30,0,0,1,21,0,24.64,24.64,0,0,1,8.32,5.29,24,24,0,0,1,5.46,8,27.08,27.08,0,0,1,0,20.13,24.06,24.06,0,0,1-5.46,8,24.79,24.79,0,0,1-8.32,5.29A28.65,28.65,0,0,1,936,615.73Zm0-6.28a20.08,20.08,0,0,0,7.58-1.41,18,18,0,0,0,6.07-4,18.63,18.63,0,0,0,4-6,19.37,19.37,0,0,0,1.44-7.54,18.81,18.81,0,0,0-5.46-13.54,17.79,17.79,0,0,0-6.07-4,21.27,21.27,0,0,0-15.23,0,18,18,0,0,0-6.1,4,18.59,18.59,0,0,0-4.06,6,19.15,19.15,0,0,0-1.45,7.51A19.37,19.37,0,0,0,918.2,598a18,18,0,0,0,4.06,6,18.23,18.23,0,0,0,6.1,4A20.19,20.19,0,0,0,936,609.45Z" transform="translate(-2.93)"/><path class="cls-2" d="M991.23,615.73A33.73,33.73,0,0,1,980.44,614a22.11,22.11,0,0,1-8.11-4.48l2.61-5.5a22.82,22.82,0,0,0,7.19,4.09,26,26,0,0,0,9.1,1.62,20.47,20.47,0,0,0,7-1,8.18,8.18,0,0,0,3.95-2.71,6.43,6.43,0,0,0,1.27-3.92,5.36,5.36,0,0,0-1.65-4.09,12.47,12.47,0,0,0-4.31-2.5,48.67,48.67,0,0,0-5.81-1.66q-3.18-.71-6.39-1.65a28.61,28.61,0,0,1-5.85-2.44,11.91,11.91,0,0,1-4.27-4,11.7,11.7,0,0,1-1.62-6.46,13,13,0,0,1,2-7,13.94,13.94,0,0,1,6.21-5.15,25.52,25.52,0,0,1,10.68-1.94,33.18,33.18,0,0,1,8.54,1.13,23.74,23.74,0,0,1,7.33,3.24l-2.33,5.64a22.5,22.5,0,0,0-6.7-3.06,26,26,0,0,0-6.84-1,19,19,0,0,0-6.84,1.06,8.36,8.36,0,0,0-3.91,2.82,6.71,6.71,0,0,0-1.24,3.95,5.4,5.4,0,0,0,1.66,4.16,11.78,11.78,0,0,0,4.3,2.47,57,57,0,0,0,5.82,1.66c2.12.49,4.24,1,6.38,1.66a27.75,27.75,0,0,1,5.86,2.39,12.16,12.16,0,0,1,4.26,4,11.4,11.4,0,0,1,1.63,6.35,12.73,12.73,0,0,1-2.05,6.95,14.19,14.19,0,0,1-6.31,5.15A26.11,26.11,0,0,1,991.23,615.73Z" transform="translate(-2.93)"/><path class="cls-2" d="M46.76,694.18a28.28,28.28,0,0,1-10.47-1.9A25.08,25.08,0,0,1,27.93,687a24.54,24.54,0,0,1-5.5-8,26.32,26.32,0,0,1,0-20,24.47,24.47,0,0,1,5.5-8,25.08,25.08,0,0,1,8.32-5.32,28.23,28.23,0,0,1,10.51-1.91,28.65,28.65,0,0,1,10.44,1.87,24.69,24.69,0,0,1,8.32,5.29,24.16,24.16,0,0,1,5.47,8A27.11,27.11,0,0,1,71,679,24.32,24.32,0,0,1,57.2,692.31,28.45,28.45,0,0,1,46.76,694.18Zm0-6.28a20,20,0,0,0,7.58-1.41,17.79,17.79,0,0,0,6.07-4,18.95,18.95,0,0,0,5.46-13.54,19.46,19.46,0,0,0-1.44-7.55,18.85,18.85,0,0,0-4-6,18.13,18.13,0,0,0-6.07-4A20,20,0,0,0,46.76,650a20.26,20.26,0,0,0-7.65,1.41,18.31,18.31,0,0,0-10.16,10,20.33,20.33,0,0,0,0,15A18.82,18.82,0,0,0,33,682.47a18.11,18.11,0,0,0,6.1,4A20.26,20.26,0,0,0,46.76,687.9Zm16.15,16a18.28,18.28,0,0,1-4.72-.6,18.56,18.56,0,0,1-4.52-1.9A30.54,30.54,0,0,1,49,698a67.77,67.77,0,0,1-5.22-5.11l7.55-2a32.44,32.44,0,0,0,4,4.26,13.46,13.46,0,0,0,3.84,2.4,10.53,10.53,0,0,0,3.81.74,11.56,11.56,0,0,0,9-4.23l3.32,4A15.41,15.41,0,0,1,62.91,703.91Z" transform="translate(-2.93)"/><path class="cls-2" d="M108.05,694.18q-9.73,0-15.3-5.57t-5.58-16.29V644.25h7.06V672q0,8.26,3.63,12.06t10.26,3.81q6.7,0,10.33-3.81T122.08,672V644.25h6.85v28.07q0,10.71-5.54,16.29T108.05,694.18Z" transform="translate(-2.93)"/><path class="cls-2" d="M154.32,687.48h28.77v6.14H147.26V644.25H182.1v6.13H154.32Zm-.64-21.93h25.39v6H153.68Z" transform="translate(-2.93)"/><path class="cls-2" d="M221.25,693.62V644.25H227l32.65,40.55h-3V644.25h7.05v49.37h-5.78l-32.65-40.56h3v40.56Z" transform="translate(-2.93)"/><path class="cls-2" d="M274.92,693.62l22.36-49.37h7l22.43,49.37h-7.41l-20-45.42h2.82l-20,45.42Zm9.52-12.35,1.9-5.64h27.79l2.05,5.64ZM305.74,640a6.21,6.21,0,0,1-3-.7,11.76,11.76,0,0,1-2.36-1.66,25,25,0,0,0-2.05-1.66,3.36,3.36,0,0,0-2-.7,3.1,3.1,0,0,0-2.51,1.16,5.58,5.58,0,0,0-1.09,3.21H289a10.53,10.53,0,0,1,2-6.28,5.94,5.94,0,0,1,4.93-2.32,6.14,6.14,0,0,1,3,.74,13.21,13.21,0,0,1,2.4,1.69c.7.64,1.37,1.19,2,1.66a3.26,3.26,0,0,0,1.94.7,3.19,3.19,0,0,0,2.54-1.13,4.81,4.81,0,0,0,1.06-3.1h3.81a9.7,9.7,0,0,1-1.94,6.07A6.05,6.05,0,0,1,305.74,640Z" transform="translate(-2.93)"/><path class="cls-2" d="M359.48,694.18a28.28,28.28,0,0,1-10.47-1.9,25.08,25.08,0,0,1-8.36-5.33,24.54,24.54,0,0,1-5.5-8,26.32,26.32,0,0,1,0-20,24.47,24.47,0,0,1,5.5-8,25.08,25.08,0,0,1,8.32-5.32,28.23,28.23,0,0,1,10.51-1.91,28.65,28.65,0,0,1,10.44,1.87,24.69,24.69,0,0,1,8.32,5.29,24.16,24.16,0,0,1,5.47,8,27.11,27.11,0,0,1,0,20.14,24.32,24.32,0,0,1-13.79,13.29A28.45,28.45,0,0,1,359.48,694.18Zm0-6.28a20,20,0,0,0,7.58-1.41,18.13,18.13,0,0,0,6.07-4,18.85,18.85,0,0,0,4-6,19.46,19.46,0,0,0,1.44-7.55,18.81,18.81,0,0,0-5.46-13.54,17.79,17.79,0,0,0-6.07-4,20,20,0,0,0-7.58-1.41,20.26,20.26,0,0,0-7.65,1.41,18.11,18.11,0,0,0-6.1,4,18.91,18.91,0,0,0-4.06,6,19.15,19.15,0,0,0-1.44,7.51,19.46,19.46,0,0,0,1.44,7.55,18.31,18.31,0,0,0,10.16,10A20.26,20.26,0,0,0,359.48,687.9Z" transform="translate(-2.93)"/><path class="cls-2" d="M415.69,693.62l22.36-49.37h7l22.43,49.37h-7.41l-20-45.42h2.82l-20,45.42Zm9.52-12.35,1.91-5.64H454.9l2.05,5.64Z" transform="translate(-2.93)"/><path class="cls-2" d="M478.67,693.62V644.25h20.81a30,30,0,0,1,13.93,3.1,23,23,0,0,1,9.38,8.67,26.55,26.55,0,0,1,0,25.82,23,23,0,0,1-9.38,8.67,30,30,0,0,1-13.93,3.11Zm7.06-6.14h13.33a22.75,22.75,0,0,0,10.61-2.33,16.9,16.9,0,0,0,6.95-6.52,20.34,20.34,0,0,0,0-19.43,17,17,0,0,0-6.95-6.49,22.75,22.75,0,0,0-10.61-2.33H485.73Z" transform="translate(-2.93)"/><path class="cls-2" d="M540.81,693.62V644.25h7.05v49.37Z" transform="translate(-2.93)"/><path class="cls-2" d="M559.07,693.62l22.36-49.37h7l22.43,49.37h-7.4l-20-45.42h2.82l-20,45.42Zm9.53-12.35,1.9-5.64h27.79l2,5.64Z" transform="translate(-2.93)"/><path class="cls-2" d="M622.06,693.62V644.25h5.78l32.65,40.55h-3V644.25h7v49.37h-5.78l-32.65-40.56h3v40.56Z" transform="translate(-2.93)"/><path class="cls-2" d="M693,693.62V650.38H676.08v-6.13h40.84v6.13H700v43.24Z" transform="translate(-2.93)"/><path class="cls-2" d="M718.54,693.62l22.36-49.37h7l22.43,49.37H762.9l-20-45.42h2.82l-20,45.42Zm9.52-12.35,1.9-5.64h27.79l2,5.64Z" transform="translate(-2.93)"/><path class="cls-2" d="M818.62,693.62l-21.73-49.37h7.62l20,45.56H820.1l20.1-45.56h7L825.6,693.62Z" transform="translate(-2.93)"/><path class="cls-2" d="M864.46,687.48h28.77v6.14H857.41V644.25h34.84v6.13H864.46Zm-.64-21.93h25.4v6h-25.4Z" transform="translate(-2.93)"/><path class="cls-2" d="M922.93,694.18a33.73,33.73,0,0,1-10.79-1.73A21.88,21.88,0,0,1,904,688l2.61-5.5a22.71,22.71,0,0,0,7.19,4.09,25.79,25.79,0,0,0,9.1,1.63,20.51,20.51,0,0,0,7-1,8.25,8.25,0,0,0,4-2.72,6.4,6.4,0,0,0,1.27-3.91,5.32,5.32,0,0,0-1.66-4.09,12.28,12.28,0,0,0-4.3-2.51,48.36,48.36,0,0,0-5.82-1.65c-2.11-.47-4.24-1-6.38-1.66a29.5,29.5,0,0,1-5.86-2.43,12,12,0,0,1-4.26-4,11.68,11.68,0,0,1-1.62-6.45,13,13,0,0,1,2-7,14,14,0,0,1,6.2-5.15,25.6,25.6,0,0,1,10.69-1.94,33.1,33.1,0,0,1,8.53,1.13,23.8,23.8,0,0,1,7.34,3.24l-2.33,5.65a22.64,22.64,0,0,0-6.7-3.07,26,26,0,0,0-6.84-1,18.91,18.91,0,0,0-6.84,1.05,8.34,8.34,0,0,0-3.92,2.83,6.73,6.73,0,0,0-1.23,4,5.42,5.42,0,0,0,1.66,4.16,11.83,11.83,0,0,0,4.3,2.46,54.53,54.53,0,0,0,5.82,1.66q3.17.75,6.38,1.66a27,27,0,0,1,5.85,2.4,11.92,11.92,0,0,1,4.27,3.95,11.35,11.35,0,0,1,1.62,6.35,12.69,12.69,0,0,1-2,6.94,14.16,14.16,0,0,1-6.32,5.15A26.06,26.06,0,0,1,922.93,694.18Z" transform="translate(-2.93)"/><path class="cls-2" d="M965.31,693.62V650.38H948.39v-6.13h40.83v6.13H972.3v43.24Z" transform="translate(-2.93)"/><path class="cls-2" d="M1000.79,693.62V644.25h7.05v49.37Z" transform="translate(-2.93)"/><path class="cls-2" d="M1026.53,693.62V644.25h19.26a27.15,27.15,0,0,1,11.07,2,15.75,15.75,0,0,1,7.05,5.93,18.44,18.44,0,0,1,0,18.44,15.87,15.87,0,0,1-7.05,5.89,27.15,27.15,0,0,1-11.07,2h-15.38l3.17-3.24v18.27Zm7-17.57-3.17-3.45h15.16q6.78,0,10.27-2.93a11.38,11.38,0,0,0,0-16.4q-3.49-2.88-10.27-2.89h-15.16l3.17-3.52Zm26,17.57L1047,675.7h7.55l12.7,17.92Z" transform="translate(-2.93)"/><path class="cls-2" d="M183,772.07l22.36-49.37h7l22.43,49.37h-7.41l-20-45.42h2.83l-20,45.42Zm9.52-12.34,1.91-5.65h27.79l2,5.65Z" transform="translate(-2.93)"/><path class="cls-2" d="M245.93,772.07V722.7H253v43.23h26.73v6.14Z" transform="translate(-2.93)"/><path class="cls-2" d="M313.08,772.63a28.59,28.59,0,0,1-10.51-1.87,24.55,24.55,0,0,1-13.83-13.29,26.8,26.8,0,0,1,0-20.17,24.43,24.43,0,0,1,5.54-8,25.07,25.07,0,0,1,8.36-5.29,31,31,0,0,1,21.3,0,21.25,21.25,0,0,1,8.25,5.71l-4.37,4.37a19.45,19.45,0,0,0-6.6-4.33,21.18,21.18,0,0,0-7.72-1.38,21.52,21.52,0,0,0-7.86,1.41,18.68,18.68,0,0,0-6.28,3.95,17.52,17.52,0,0,0-4.09,6,19.54,19.54,0,0,0-1.45,7.58,19.29,19.29,0,0,0,1.45,7.51,18,18,0,0,0,4.09,6.07,18.41,18.41,0,0,0,6.24,4,21.08,21.08,0,0,0,7.83,1.42,23.48,23.48,0,0,0,7.58-1.24,18.64,18.64,0,0,0,6.74-4.13l4,5.37a25.36,25.36,0,0,1-8.57,4.69A32.89,32.89,0,0,1,313.08,772.63ZM325,765.44V747.1h6.77v19.26Z" transform="translate(-2.93)"/><path class="cls-2" d="M371.4,772.63a28.28,28.28,0,0,1-10.47-1.9,25.08,25.08,0,0,1-8.36-5.33,24.69,24.69,0,0,1-5.5-8,26.44,26.44,0,0,1,0-20,24.63,24.63,0,0,1,5.5-8,25.18,25.18,0,0,1,8.32-5.32,28.23,28.23,0,0,1,10.51-1.91A28.65,28.65,0,0,1,381.84,724a24.69,24.69,0,0,1,8.32,5.29,24.16,24.16,0,0,1,5.47,8,27.11,27.11,0,0,1,0,20.14,24.2,24.2,0,0,1-5.47,8,24.54,24.54,0,0,1-8.32,5.29A28.45,28.45,0,0,1,371.4,772.63Zm0-6.27a19.82,19.82,0,0,0,7.58-1.42,18,18,0,0,0,6.07-4,18.69,18.69,0,0,0,4-6,19.42,19.42,0,0,0,1.45-7.55,18.87,18.87,0,0,0-5.47-13.54,17.79,17.79,0,0,0-6.07-4,20,20,0,0,0-7.58-1.41,20.26,20.26,0,0,0-7.65,1.41,18.11,18.11,0,0,0-6.1,4,18.91,18.91,0,0,0-4.06,6,19.18,19.18,0,0,0-1.44,7.51,19.42,19.42,0,0,0,1.44,7.55,18.31,18.31,0,0,0,10.16,10A20.07,20.07,0,0,0,371.4,766.36Z" transform="translate(-2.93)"/><path class="cls-2" d="M449.48,772.63a33.52,33.52,0,0,1-10.8-1.73,22.18,22.18,0,0,1-8.11-4.47l2.61-5.51a23,23,0,0,0,7.2,4.1,25.93,25.93,0,0,0,9.1,1.62,20.55,20.55,0,0,0,7-1,8.29,8.29,0,0,0,4-2.72,6.46,6.46,0,0,0,1.27-3.91,5.36,5.36,0,0,0-1.66-4.09,12.35,12.35,0,0,0-4.3-2.5,47.55,47.55,0,0,0-5.82-1.66c-2.12-.47-4.24-1-6.38-1.66a28.36,28.36,0,0,1-5.86-2.43,12,12,0,0,1-4.26-4,11.6,11.6,0,0,1-1.63-6.45,13,13,0,0,1,2-7,14,14,0,0,1,6.21-5.15,25.59,25.59,0,0,1,10.68-1.94,33.12,33.12,0,0,1,8.54,1.13,24,24,0,0,1,7.33,3.25l-2.32,5.64a22.9,22.9,0,0,0-6.7-3.07,26.51,26.51,0,0,0-6.85-1,18.75,18.75,0,0,0-6.84,1.06,8.28,8.28,0,0,0-3.91,2.82,6.74,6.74,0,0,0-1.24,4,5.45,5.45,0,0,0,1.66,4.16,12,12,0,0,0,4.3,2.47,58.55,58.55,0,0,0,5.82,1.65q3.18.75,6.39,1.66a27.17,27.17,0,0,1,5.85,2.4,12.18,12.18,0,0,1,4.27,4,11.38,11.38,0,0,1,1.62,6.35,12.62,12.62,0,0,1-2,6.94,14.07,14.07,0,0,1-6.31,5.15A25.9,25.9,0,0,1,449.48,772.63Z" transform="translate(-2.93)"/><path class="cls-2" d="M505.05,772.63a28.28,28.28,0,0,1-10.47-1.9,25.08,25.08,0,0,1-8.36-5.33,24.54,24.54,0,0,1-5.5-8,26.32,26.32,0,0,1,0-20,24.47,24.47,0,0,1,5.5-8,25.08,25.08,0,0,1,8.32-5.32,28.23,28.23,0,0,1,10.51-1.91A28.65,28.65,0,0,1,515.49,724a24.69,24.69,0,0,1,8.32,5.29,24.16,24.16,0,0,1,5.47,8,27.11,27.11,0,0,1,0,20.14,24.2,24.2,0,0,1-5.47,8,24.54,24.54,0,0,1-8.32,5.29A28.45,28.45,0,0,1,505.05,772.63Zm0-6.27a19.82,19.82,0,0,0,7.58-1.42,18,18,0,0,0,6.07-4,18.85,18.85,0,0,0,4-6,19.42,19.42,0,0,0,1.44-7.55,18.81,18.81,0,0,0-5.46-13.54,17.79,17.79,0,0,0-6.07-4,20,20,0,0,0-7.58-1.41,20.26,20.26,0,0,0-7.65,1.41,18.11,18.11,0,0,0-6.1,4,18.91,18.91,0,0,0-4.06,6,19.18,19.18,0,0,0-1.44,7.51,19.42,19.42,0,0,0,1.44,7.55,18.31,18.31,0,0,0,10.16,10A20.07,20.07,0,0,0,505.05,766.36Zm-5.29-47.68,9.59-9.17H518l-11.85,9.17Z" transform="translate(-2.93)"/><path class="cls-2" d="M568.74,772.07V722.7H588a27.09,27.09,0,0,1,11.07,2,15.73,15.73,0,0,1,7.06,5.93,18.44,18.44,0,0,1,0,18.44,16,16,0,0,1-7.06,5.93A26.74,26.74,0,0,1,588,757.12H572.62l3.17-3.32v18.27Zm7-17.56L572.62,751h15.16c4.51,0,7.94-1,10.26-2.89a11.33,11.33,0,0,0,0-16.36c-2.32-1.93-5.75-2.9-10.26-2.9H572.62l3.17-3.52Z" transform="translate(-2.93)"/><path class="cls-2" d="M645.82,772.63a28.28,28.28,0,0,1-10.47-1.9A25.08,25.08,0,0,1,627,765.4a24.69,24.69,0,0,1-5.5-8,26.44,26.44,0,0,1,0-20,24.63,24.63,0,0,1,5.5-8,25.18,25.18,0,0,1,8.32-5.32,28.23,28.23,0,0,1,10.51-1.91A28.65,28.65,0,0,1,656.26,724a24.69,24.69,0,0,1,8.32,5.29,24,24,0,0,1,5.47,8,27.11,27.11,0,0,1,0,20.14,24,24,0,0,1-5.47,8,24.54,24.54,0,0,1-8.32,5.29A28.45,28.45,0,0,1,645.82,772.63Zm0-6.27a19.91,19.91,0,0,0,7.59-1.42,18,18,0,0,0,6.06-4,18.53,18.53,0,0,0,4-6,19.42,19.42,0,0,0,1.45-7.55,19.19,19.19,0,0,0-1.45-7.51,19,19,0,0,0-4-6,17.84,17.84,0,0,0-6.06-4,21.29,21.29,0,0,0-15.24,0,18.11,18.11,0,0,0-6.1,4,18.91,18.91,0,0,0-4.06,6,19.18,19.18,0,0,0-1.44,7.51,19.42,19.42,0,0,0,1.44,7.55,18.31,18.31,0,0,0,10.16,10A20.07,20.07,0,0,0,645.82,766.36Z" transform="translate(-2.93)"/><path class="cls-2" d="M686.66,772.07V722.7h19.25a27.17,27.17,0,0,1,11.08,2,15.75,15.75,0,0,1,7,5.93,18.44,18.44,0,0,1,0,18.44,15.8,15.8,0,0,1-7,5.89,27.16,27.16,0,0,1-11.08,2H690.54l3.17-3.25v18.27Zm7.05-17.56-3.17-3.46H705.7q6.78,0,10.26-2.93a10.12,10.12,0,0,0,3.49-8.21,10,10,0,0,0-3.49-8.18q-3.48-2.9-10.26-2.9H690.54l3.17-3.52Zm26,17.56-12.56-17.92h7.55l12.69,17.92Z" transform="translate(-2.93)"/><path class="cls-2" d="M764.1,772.63a28.28,28.28,0,0,1-10.47-1.9,25,25,0,0,1-8.36-5.33,24.54,24.54,0,0,1-5.5-8,26.32,26.32,0,0,1,0-20,24.47,24.47,0,0,1,5.5-8,25.08,25.08,0,0,1,8.32-5.32,28.23,28.23,0,0,1,10.51-1.91A28.65,28.65,0,0,1,774.54,724a24.79,24.79,0,0,1,8.32,5.29,24.16,24.16,0,0,1,5.47,8,27.24,27.24,0,0,1,0,20.14,24.2,24.2,0,0,1-5.47,8,24.64,24.64,0,0,1-8.32,5.29A28.45,28.45,0,0,1,764.1,772.63Zm0-6.27a19.86,19.86,0,0,0,7.58-1.42,17.79,17.79,0,0,0,6.07-4,18.95,18.95,0,0,0,5.46-13.54,19.41,19.41,0,0,0-1.44-7.54,18.63,18.63,0,0,0-4-6,18,18,0,0,0-6.07-4,21.27,21.27,0,0,0-15.23,0,18.33,18.33,0,0,0-6.1,4,18.12,18.12,0,0,0-4.06,6,20.3,20.3,0,0,0,0,15,18.55,18.55,0,0,0,4.06,6.06,18.11,18.11,0,0,0,6.1,4A20,20,0,0,0,764.1,766.36Zm16.15,16a18.8,18.8,0,0,1-4.73-.59,18.54,18.54,0,0,1-4.51-1.91,30.63,30.63,0,0,1-4.65-3.38,70,70,0,0,1-5.22-5.12l7.54-2a31.81,31.81,0,0,0,4.06,4.26,13.32,13.32,0,0,0,3.84,2.4,10.32,10.32,0,0,0,3.81.74,11.57,11.57,0,0,0,9-4.23l3.31,4A15.34,15.34,0,0,1,780.25,782.36Z" transform="translate(-2.93)"/><path class="cls-2" d="M825.39,772.63q-9.74,0-15.31-5.57t-5.57-16.29V722.7h7v27.79q0,8.25,3.64,12.06t10.26,3.81q6.69,0,10.33-3.81t3.63-12.06V722.7h6.84v28.07q0,10.72-5.53,16.29T825.39,772.63Z" transform="translate(-2.93)"/><path class="cls-2" d="M871.65,765.93h28.78v6.14H864.6V722.7h34.84v6.13H871.65ZM871,744h25.39v6H871Z" transform="translate(-2.93)"/><path class="cls-2" d="M29,820.19l-.42-19h5.92l-.49,19Zm12.77,0-.42-19h5.92l-.49,19Z" transform="translate(-2.93)"/><path class="cls-2" d="M52.44,850.52,74.8,801.15h7l22.43,49.37H96.8l-20-45.42h2.82l-20,45.42ZM62,838.18l1.9-5.64H91.65l2,5.64Z" transform="translate(-2.93)"/><path class="cls-2" d="M115.42,850.52V801.15h7v43.24H149.2v6.13Z" transform="translate(-2.93)"/><path class="cls-2" d="M182.56,851.09a28.88,28.88,0,0,1-10.51-1.87,24.47,24.47,0,0,1-13.82-13.3,26.8,26.8,0,0,1,0-20.17,24.24,24.24,0,0,1,5.54-8,24.91,24.91,0,0,1,8.36-5.29,28.76,28.76,0,0,1,10.57-1.87,29.22,29.22,0,0,1,10.73,1.9,21.35,21.35,0,0,1,8.25,5.71l-4.38,4.38a19.44,19.44,0,0,0-6.59-4.34,21.22,21.22,0,0,0-7.72-1.38,21.58,21.58,0,0,0-7.87,1.41,18.9,18.9,0,0,0-6.27,4,17.57,17.57,0,0,0-4.09,6,19.55,19.55,0,0,0-1.45,7.59,19.33,19.33,0,0,0,1.45,7.51,17.69,17.69,0,0,0,4.09,6.06,18.44,18.44,0,0,0,6.24,4,21.28,21.28,0,0,0,7.83,1.41,23.21,23.21,0,0,0,7.58-1.24,18.58,18.58,0,0,0,6.73-4.12l4,5.36a25,25,0,0,1-8.57,4.69A32.55,32.55,0,0,1,182.56,851.09Zm11.92-7.2V825.55h6.77v19.26Z" transform="translate(-2.93)"/><path class="cls-2" d="M239.06,851.09q-9.74,0-15.31-5.58t-5.57-16.29V801.15h7v27.79q0,8.25,3.63,12.06t10.27,3.81q6.69,0,10.33-3.81t3.63-12.06V801.15h6.84v28.07q0,10.72-5.53,16.29T239.06,851.09Z" transform="translate(-2.93)"/><path class="cls-2" d="M285.32,844.39H314.1v6.13H278.27V801.15h34.84v6.14H285.32Zm-.63-21.94h25.39v6H284.69Zm5.78-25.32,9.59-9.17h8.61l-11.85,9.17Z" transform="translate(-2.93)"/><path class="cls-2" d="M329.4,850.52V801.15h5.78l22.15,37.31h-3.1l21.86-37.31h5.78l.07,49.37h-6.77l-.07-38.72h1.63l-19.47,32.73H354L334.41,811.8h1.76v38.72Z" transform="translate(-2.93)"/><path class="cls-2" d="M398.09,820.19l-.42-19h5.93l-.5,19Zm12.77,0-.42-19h5.92l-.49,19Z" transform="translate(-2.93)"/><path class="cls-2" d="M462,844.39h28.78v6.13H454.94V801.15h34.84v6.14H462Zm-.63-21.94h25.39v6H461.36Z" transform="translate(-2.93)"/><path class="cls-2" d="M520.46,851.09a33.73,33.73,0,0,1-10.79-1.73,22.11,22.11,0,0,1-8.11-4.48l2.61-5.5a23,23,0,0,0,7.19,4.09,26,26,0,0,0,9.1,1.62,20.47,20.47,0,0,0,7-1,8.25,8.25,0,0,0,3.95-2.71,6.43,6.43,0,0,0,1.27-3.92,5.34,5.34,0,0,0-1.66-4.09,12.17,12.17,0,0,0-4.3-2.5,46.55,46.55,0,0,0-5.82-1.66q-3.17-.71-6.38-1.66a28,28,0,0,1-5.85-2.43,11.92,11.92,0,0,1-4.27-4,11.7,11.7,0,0,1-1.62-6.46,12.91,12.91,0,0,1,2-7,14,14,0,0,1,6.2-5.15,25.45,25.45,0,0,1,10.69-1.94,32.62,32.62,0,0,1,8.53,1.13,23.8,23.8,0,0,1,7.34,3.24l-2.33,5.64a22.9,22.9,0,0,0-6.7-3.07,26.38,26.38,0,0,0-6.84-.95,18.89,18.89,0,0,0-6.84,1.06,8.45,8.45,0,0,0-3.92,2.82,6.75,6.75,0,0,0-1.23,3.95,5.4,5.4,0,0,0,1.66,4.16,11.78,11.78,0,0,0,4.3,2.47,59.64,59.64,0,0,0,5.82,1.66q3.16.74,6.38,1.66a27.45,27.45,0,0,1,5.85,2.39,12.1,12.1,0,0,1,4.27,4,11.38,11.38,0,0,1,1.62,6.35,12.72,12.72,0,0,1-2,7,14.25,14.25,0,0,1-6.31,5.15A26.11,26.11,0,0,1,520.46,851.09Z" transform="translate(-2.93)"/><path class="cls-2" d="M562.85,850.52V807.29H545.92v-6.14h40.84v6.14H569.83v43.23Z" transform="translate(-2.93)"/><path class="cls-2" d="M588.38,850.52l22.36-49.37h7l22.43,49.37h-7.41l-20-45.42h2.82l-20,45.42Zm9.52-12.34,1.9-5.64h27.79l2,5.64Zm11.07-41,9.59-9.17h8.61l-11.85,9.17Z" transform="translate(-2.93)"/><path class="cls-2" d="M694.66,851.09q-9.74,0-15.3-5.58t-5.57-16.29V801.15h7.05v27.79q0,8.25,3.63,12.06t10.26,3.81q6.71,0,10.34-3.81t3.63-12.06V801.15h6.84v28.07q0,10.72-5.54,16.29T694.66,851.09Z" transform="translate(-2.93)"/><path class="cls-2" d="M748.26,851.09a33.73,33.73,0,0,1-10.79-1.73,22.19,22.19,0,0,1-8.11-4.48l2.61-5.5a23,23,0,0,0,7.2,4.09,25.92,25.92,0,0,0,9.09,1.62,20.57,20.57,0,0,0,7-1,8.27,8.27,0,0,0,3.94-2.71,6.43,6.43,0,0,0,1.27-3.92,5.36,5.36,0,0,0-1.65-4.09,12.35,12.35,0,0,0-4.3-2.5,47.55,47.55,0,0,0-5.82-1.66q-3.18-.71-6.39-1.66a28,28,0,0,1-5.85-2.43,12,12,0,0,1-4.27-4,11.7,11.7,0,0,1-1.62-6.46,12.91,12.91,0,0,1,2-7,13.94,13.94,0,0,1,6.21-5.15,25.4,25.4,0,0,1,10.68-1.94,32.69,32.69,0,0,1,8.54,1.13,23.74,23.74,0,0,1,7.33,3.24L763,810.6a22.78,22.78,0,0,0-6.7-3.07,26.38,26.38,0,0,0-6.84-.95,19,19,0,0,0-6.84,1.06,8.36,8.36,0,0,0-3.91,2.82,6.69,6.69,0,0,0-1.24,3.95,5.4,5.4,0,0,0,1.66,4.16,11.78,11.78,0,0,0,4.3,2.47q2.66.91,5.82,1.66c2.12.49,4.24,1,6.38,1.66a27.75,27.75,0,0,1,5.86,2.39,12.16,12.16,0,0,1,4.26,4,11.3,11.3,0,0,1,1.63,6.35,12.73,12.73,0,0,1-2,7,14.19,14.19,0,0,1-6.31,5.15A26.11,26.11,0,0,1,748.26,851.09Z" transform="translate(-2.93)"/><path class="cls-2" d="M774.08,850.52l22.35-49.37h7l22.42,49.37h-7.4l-20-45.42h2.82l-20,45.42Zm9.52-12.34,1.9-5.64h27.79l2,5.64Z" transform="translate(-2.93)"/><path class="cls-2" d="M837.06,850.52V801.15h5.78l32.65,40.55h-3V801.15h7v49.37h-5.78L841.08,810h3v40.55Z" transform="translate(-2.93)"/><path class="cls-2" d="M898.2,850.52V801.15H919a30.12,30.12,0,0,1,13.93,3.1,23,23,0,0,1,9.38,8.68,26.53,26.53,0,0,1,0,25.81,22.89,22.89,0,0,1-9.38,8.68,30,30,0,0,1-13.93,3.1Zm7.06-6.13h13.33a22.72,22.72,0,0,0,10.61-2.33,16.92,16.92,0,0,0,6.95-6.53,20.34,20.34,0,0,0,0-19.43,17.09,17.09,0,0,0-6.95-6.49,22.72,22.72,0,0,0-10.61-2.32H905.26Z" transform="translate(-2.93)"/><path class="cls-2" d="M982.63,851.09a28.3,28.3,0,0,1-10.48-1.91,25,25,0,0,1-8.35-5.32,24.5,24.5,0,0,1-5.51-8,26.44,26.44,0,0,1,0-20,24.56,24.56,0,0,1,5.51-8,25.1,25.1,0,0,1,8.32-5.33,30,30,0,0,1,20.94,0,24.58,24.58,0,0,1,8.33,5.29,24,24,0,0,1,5.46,8,27.08,27.08,0,0,1,0,20.13,24.06,24.06,0,0,1-5.46,8,24.74,24.74,0,0,1-8.33,5.29A28.56,28.56,0,0,1,982.63,851.09Zm0-6.28a20.08,20.08,0,0,0,7.58-1.41,17.87,17.87,0,0,0,6.06-4,18.32,18.32,0,0,0,4-6,20.28,20.28,0,0,0,0-15.06,19,19,0,0,0-4-6,17.94,17.94,0,0,0-6.06-4,21.29,21.29,0,0,0-15.24,0,18.51,18.51,0,0,0-6.1,4,18.72,18.72,0,0,0-4,6,20.28,20.28,0,0,0,0,15.06,18.09,18.09,0,0,0,4,6,18.43,18.43,0,0,0,6.1,4A20.28,20.28,0,0,0,982.63,844.81Z" transform="translate(-2.93)"/><path class="cls-2" d="M1022.69,850.94a4.75,4.75,0,0,1-4.8-4.86,4.57,4.57,0,0,1,1.41-3.46,4.76,4.76,0,0,1,3.39-1.34,4.56,4.56,0,0,1,3.28,1.34,4.66,4.66,0,0,1,1.37,3.46,4.76,4.76,0,0,1-1.37,3.49A4.47,4.47,0,0,1,1022.69,850.94Zm16.36,0a4.75,4.75,0,0,1-4.8-4.86,4.57,4.57,0,0,1,1.41-3.46,4.76,4.76,0,0,1,3.39-1.34,4.56,4.56,0,0,1,3.28,1.34,4.62,4.62,0,0,1,1.37,3.46,4.72,4.72,0,0,1-1.37,3.49A4.47,4.47,0,0,1,1039.05,850.94Zm16.36,0a4.75,4.75,0,0,1-4.79-4.86,4.54,4.54,0,0,1,1.41-3.46,4.74,4.74,0,0,1,3.38-1.34,4.56,4.56,0,0,1,3.28,1.34,4.63,4.63,0,0,1,1.38,3.46,4.72,4.72,0,0,1-1.38,3.49A4.47,4.47,0,0,1,1055.41,850.94Z" transform="translate(-2.93)"/></g></g></g></svg>