<svg xmlns="http://www.w3.org/2000/svg" viewBox="0 0 622.29 349.71"><defs><style>.cls-1{fill:#fff;}</style></defs><title>3</title><g id="Camada_2" data-name="Camada 2"><g id="Camada_1-2" data-name="Camada 1"><g id="MOBILE3"><rect width="622.29" height="349.71"/><path class="cls-1" d="M53,154.25v-97H75.61L129,121.83H118.29V57.27h26.87v97H122.58L69.1,89.69H79.77v64.56Z"/><path class="cls-1" d="M218.18,156.19a60,60,0,0,1-21.41-3.74,49.59,49.59,0,0,1-28.4-26.67,49.22,49.22,0,0,1-4.09-20.16,48.43,48.43,0,0,1,4.09-20,49.92,49.92,0,0,1,28.33-26.6,63.55,63.55,0,0,1,43,0,51.12,51.12,0,0,1,17,10.53A49.53,49.53,0,0,1,268,85.53a48.79,48.79,0,0,1,4.09,20.09,50.21,50.21,0,0,1-4,20.3,47.73,47.73,0,0,1-11.29,16,51.67,51.67,0,0,1-17.11,10.53A59.84,59.84,0,0,1,218.18,156.19Zm0-22.72a27,27,0,0,0,10.32-1.94,23.68,23.68,0,0,0,8.31-5.61,26.59,26.59,0,0,0,5.55-8.73,33.5,33.5,0,0,0,0-22.86,26.59,26.59,0,0,0-5.55-8.73A24,24,0,0,0,228.5,80a28.42,28.42,0,0,0-20.64,0,24.7,24.7,0,0,0-8.38,5.61,25.2,25.2,0,0,0-5.55,8.73,34.64,34.64,0,0,0,0,22.86,25.2,25.2,0,0,0,5.55,8.73,24.42,24.42,0,0,0,8.38,5.61A27,27,0,0,0,218.18,133.47Z"/><path class="cls-1" d="M325.28,156.19a87.79,87.79,0,0,1-23.07-3q-11-3-17.8-7.55l9-20.36a63.41,63.41,0,0,0,15,6.85,55.66,55.66,0,0,0,17,2.71,35.12,35.12,0,0,0,9.21-1,10.35,10.35,0,0,0,5-2.77,6.29,6.29,0,0,0,1.59-4.3,5.72,5.72,0,0,0-3-5.06,30.74,30.74,0,0,0-8-3.18q-4.92-1.32-10.67-2.5A106.54,106.54,0,0,1,307.82,113,44.91,44.91,0,0,1,297,107.84a24.65,24.65,0,0,1-7.83-8.31q-3-5.13-3-12.89A27.62,27.62,0,0,1,290.92,71q4.71-7.08,14.27-11.37T329,55.33a82.5,82.5,0,0,1,18.77,2.15,55.34,55.34,0,0,1,16.28,6.44l-8.31,20.23A59,59,0,0,0,342,78.47a51.28,51.28,0,0,0-13.16-1.8,27.58,27.58,0,0,0-9.14,1.24,10.83,10.83,0,0,0-5,3.19,6.59,6.59,0,0,0-1.53,4.16,5.82,5.82,0,0,0,3,5.19,27.31,27.31,0,0,0,7.9,3q4.84,1.19,10.74,2.42A120.32,120.32,0,0,1,346.61,99a46.67,46.67,0,0,1,10.74,5,24.62,24.62,0,0,1,8,8.17,24.25,24.25,0,0,1,3.05,12.68,27.49,27.49,0,0,1-4.78,15.59q-4.79,7.14-14.34,11.43T325.28,156.19Z"/><path class="cls-1" d="M419.63,156.19a87.79,87.79,0,0,1-23.07-3q-11-3-17.8-7.55l9-20.36a63.41,63.41,0,0,0,15,6.85,55.66,55.66,0,0,0,17,2.71,35.12,35.12,0,0,0,9.21-1,10.35,10.35,0,0,0,5-2.77,6.29,6.29,0,0,0,1.59-4.3,5.72,5.72,0,0,0-3.05-5.06,30.74,30.74,0,0,0-8-3.18q-4.92-1.32-10.67-2.5A106.54,106.54,0,0,1,402.17,113a45.09,45.09,0,0,1-10.81-5.13,24.65,24.65,0,0,1-7.83-8.31q-3-5.13-3-12.89A27.62,27.62,0,0,1,385.27,71q4.71-7.08,14.27-11.37t23.83-4.29a82.5,82.5,0,0,1,18.77,2.15,55.34,55.34,0,0,1,16.28,6.44l-8.31,20.23a59,59,0,0,0-13.72-5.68,51.22,51.22,0,0,0-13.16-1.8,27.69,27.69,0,0,0-9.15,1.24,10.85,10.85,0,0,0-5,3.19,6.59,6.59,0,0,0-1.53,4.16,5.82,5.82,0,0,0,3.05,5.19,27.31,27.31,0,0,0,7.9,3q4.85,1.19,10.74,2.42A120.32,120.32,0,0,1,441,99a46.67,46.67,0,0,1,10.74,5,24.62,24.62,0,0,1,8,8.17,24.25,24.25,0,0,1,3.05,12.68,27.49,27.49,0,0,1-4.78,15.59q-4.79,7.14-14.34,11.43T419.63,156.19Z"/><path class="cls-1" d="M468.26,154.25l42.81-97h27l42.95,97H552.49L519,70.71h10.81l-33.53,83.54Zm23.41-19,7.07-20.09h47.38l7.07,20.09Z"/><path class="cls-1" d="M47.9,279.34v-97H75.34v97Z"/><path class="cls-1" d="M94.87,279.34v-97h22.58l53.35,64.56H160.13V182.36H187v97H164.42l-53.48-64.56h10.67v64.56Z"/><path class="cls-1" d="M240.49,281.28a87.79,87.79,0,0,1-23.07-3q-11-3-17.81-7.55l9-20.36a63.41,63.41,0,0,0,15,6.85,56,56,0,0,0,17,2.71,35.2,35.2,0,0,0,9.22-1,10.2,10.2,0,0,0,5-2.78,6.21,6.21,0,0,0,1.6-4.29,5.72,5.72,0,0,0-3.05-5.06,30.33,30.33,0,0,0-8-3.18q-4.92-1.32-10.66-2.5A104.44,104.44,0,0,1,223,238.05a44.88,44.88,0,0,1-10.81-5.12,24.74,24.74,0,0,1-7.83-8.31q-3-5.13-3-12.89a27.56,27.56,0,0,1,4.72-15.66q4.69-7.06,14.27-11.36t23.83-4.29A82.5,82.5,0,0,1,263,182.57,55.34,55.34,0,0,1,279.28,189L271,209.24a59.16,59.16,0,0,0-13.72-5.68,51.34,51.34,0,0,0-13.16-1.8,27.69,27.69,0,0,0-9.15,1.24,10.8,10.8,0,0,0-5,3.19,6.59,6.59,0,0,0-1.53,4.16,5.82,5.82,0,0,0,3,5.19,27.6,27.6,0,0,0,7.9,3.05q4.85,1.17,10.73,2.42a117,117,0,0,1,11.71,3.12,46.67,46.67,0,0,1,10.74,5,24.62,24.62,0,0,1,8,8.17q3,5.07,3,12.68a27.44,27.44,0,0,1-4.78,15.59Q274,272.69,264.45,277T240.49,281.28Z"/><path class="cls-1" d="M296.18,279.34v-97h44.2q13.29,0,23,4.29a33.09,33.09,0,0,1,14.89,12.4,34.59,34.59,0,0,1,5.2,19q0,11.24-5.2,19.19a33.73,33.73,0,0,1-14.89,12.33q-9.7,4.37-23,4.37h-29.1l12.33-12.06v37.41Zm27.43-34.22-12.33-12.88h27.43q8.6,0,12.89-3.68t4.29-10.46a13.1,13.1,0,0,0-4.29-10.32Q347.31,204,338.71,204H311.28l12.33-12.61Z"/><path class="cls-1" d="M447.06,281.28a60.22,60.22,0,0,1-21.41-3.74,49.59,49.59,0,0,1-28.4-26.67,49.22,49.22,0,0,1-4.09-20.16,48.43,48.43,0,0,1,4.09-20,49.92,49.92,0,0,1,28.33-26.6,63.52,63.52,0,0,1,42.95,0,50.9,50.9,0,0,1,17.05,10.53,49.53,49.53,0,0,1,11.29,15.93A48.78,48.78,0,0,1,501,230.71a50.38,50.38,0,0,1-4,20.3,47.87,47.87,0,0,1-11.29,16,51.62,51.62,0,0,1-17.12,10.53A60,60,0,0,1,447.06,281.28Zm0-22.72a27.27,27.27,0,0,0,10.32-1.94,23.68,23.68,0,0,0,8.31-5.61,26.59,26.59,0,0,0,5.55-8.73,33.66,33.66,0,0,0,0-22.86,26.59,26.59,0,0,0-5.55-8.73,23.68,23.68,0,0,0-8.31-5.61,28.42,28.42,0,0,0-20.64,0,24.42,24.42,0,0,0-8.38,5.61,25.2,25.2,0,0,0-5.55,8.73,34.64,34.64,0,0,0,0,22.86,25.2,25.2,0,0,0,5.55,8.73,24.42,24.42,0,0,0,8.38,5.61A27.2,27.2,0,0,0,447.06,258.56Z"/><path class="cls-1" d="M530.88,244a20.77,20.77,0,0,1,1.45-8,27.6,27.6,0,0,1,3.68-6.31,42.26,42.26,0,0,1,4.78-5.19c1.7-1.57,3.3-3,4.78-4.44a23,23,0,0,0,3.67-4.36,8.76,8.76,0,0,0,1.45-4.78,7.53,7.53,0,0,0-3.39-6.44,14.79,14.79,0,0,0-8.8-2.43,19.54,19.54,0,0,0-10,2.63,20.52,20.52,0,0,0-7.28,7.21l-20.64-11A40.9,40.9,0,0,1,516.19,186q10.13-5.61,25.63-5.61a54.8,54.8,0,0,1,18.85,3,28.74,28.74,0,0,1,12.88,8.8,21.92,21.92,0,0,1,4.71,14.27,25.53,25.53,0,0,1-1.59,9.42,23.63,23.63,0,0,1-4.29,7.06,77,77,0,0,1-5.48,5.61q-2.77,2.56-5.47,4.92a22.83,22.83,0,0,0-4.29,4.85,10.27,10.27,0,0,0-1.6,5.68Zm12.33,36.58a15.38,15.38,0,0,1-11.29-4.3A13.88,13.88,0,0,1,527.55,266a13.37,13.37,0,0,1,4.37-10.18,15.83,15.83,0,0,1,11.29-4.09q7.06,0,11.43,4.09A13.37,13.37,0,0,1,559,266a13.88,13.88,0,0,1-4.37,10.25Q550.28,280.6,543.21,280.59Z"/></g></g></g></svg>