<svg xmlns="http://www.w3.org/2000/svg" viewBox="0 0 1334.71 335.73"><defs><style>.cls-1{fill:#fff;}</style></defs><title>1</title><g id="Camada_2" data-name="Camada 2"><g id="Camada_1-2" data-name="Camada 1"><g id="MOBILE1"><rect y="147.26" width="1334.71" height="188.47"/><rect width="842.27" height="188.47"/><path class="cls-1" d="M74.84,142.6l-26-73.14H68.52l21.61,63H80.61l22.53-62.95H121l21.75,62.94H133.6l22.13-62.95h18.51l-26.15,73.15H128l-19.33-54h6l-19.58,54Z"/><path class="cls-1" d="M217.86,143.66q-12.35,0-21.6-4.89a35.87,35.87,0,0,1-14.36-13.39A36.89,36.89,0,0,1,176.8,106a38.51,38.51,0,0,1,4.89-19.44,34.74,34.74,0,0,1,13.69-13.4,40.35,40.35,0,0,1,19.78-4.83A39.44,39.44,0,0,1,234.28,73,34.46,34.46,0,0,1,247.77,86q5,8.43,5,20.26c0,.81-.05,1.74-.14,2.79s-.18,2-.27,2.92H193.7V99.62h47.63l-8.18,3.67A19.53,19.53,0,0,0,231,93.36a16.77,16.77,0,0,0-6.31-6.6,18.05,18.05,0,0,0-9.39-2.37,18.44,18.44,0,0,0-9.46,2.38,16.42,16.42,0,0,0-6.37,6.66,21.24,21.24,0,0,0-2.28,10.13v3.26a20.28,20.28,0,0,0,2.69,10.61,17.76,17.76,0,0,0,7.38,6.86,24.61,24.61,0,0,0,11.27,2.38,26.38,26.38,0,0,0,10-1.77,24.67,24.67,0,0,0,8-5.3l11.14,12.23a32.46,32.46,0,0,1-12.47,8.77A45.63,45.63,0,0,1,217.86,143.66Z"/><path class="cls-1" d="M326.94,143.64a32.48,32.48,0,0,1-14.36-2.92,22.43,22.43,0,0,1-9.33-7.95A20.17,20.17,0,0,1,300,121.49a20.68,20.68,0,0,1,3.16-11.36q3.15-4.95,10-7.68t18-2.72h19.05V112h-16.9q-7.38,0-10.13,2.45a7.86,7.86,0,0,0-2.75,6.12,7.66,7.66,0,0,0,3.15,6.46q3.15,2.39,8.52,2.38a18.77,18.77,0,0,0,9.59-2.45,13.32,13.32,0,0,0,6-7.48l3.22,9.92a19.18,19.18,0,0,1-8.31,10.54Q336.46,143.65,326.94,143.64Zm22-1.09V128.28l-1.35-3.13V99.59q0-6.8-4.09-10.6T331,85.18A35.81,35.81,0,0,0,319.61,87,31.6,31.6,0,0,0,310,92l-7.38-14.82a42.06,42.06,0,0,1,14.22-6.59,64.42,64.42,0,0,1,16.9-2.25q16.51,0,25.63,7.88t9.13,24.61v41.74Z"/><path class="cls-1" d="M387.44,142.55V69.4h20V90.2l-2.81-6.12a23.32,23.32,0,0,1,10.32-11.76q7.11-4,17.31-4V88a23,23,0,0,0-2.34-.41,18.85,18.85,0,0,0-2.22-.13q-8.85,0-14.08,5T408.37,108v34.53Z"/><path class="cls-1" d="M479.88,143.62a45.61,45.61,0,0,1-21.6-4.89,35.94,35.94,0,0,1-14.36-13.39,36.9,36.9,0,0,1-5.1-19.38,38.41,38.41,0,0,1,4.9-19.44A34.62,34.62,0,0,1,457.4,73.13a40.39,40.39,0,0,1,19.79-4.83,39.47,39.47,0,0,1,19.12,4.62,34.43,34.43,0,0,1,13.48,13q5,8.43,5,20.25c0,.82,0,1.75-.13,2.79s-.18,2-.27,2.92H455.73V99.57h47.63l-8.19,3.68A19.57,19.57,0,0,0,493,93.31a16.79,16.79,0,0,0-6.3-6.59,18.11,18.11,0,0,0-9.39-2.38,18.51,18.51,0,0,0-9.46,2.38,16.48,16.48,0,0,0-6.37,6.66,21.18,21.18,0,0,0-2.28,10.13v3.27a20.24,20.24,0,0,0,2.68,10.6,17.85,17.85,0,0,0,7.38,6.87,24.77,24.77,0,0,0,11.27,2.37,26.43,26.43,0,0,0,10-1.77,24.56,24.56,0,0,0,8-5.3l11.14,12.24a32.52,32.52,0,0,1-12.48,8.77A45.63,45.63,0,0,1,479.88,143.62Z"/><path class="cls-1" d="M610.55,68.27a33.27,33.27,0,0,1,15.36,3.47,25,25,0,0,1,10.67,10.6q3.88,7.14,3.89,18.29V142.5H619.55V103.89q0-8.83-3.82-13t-10.8-4.21A18.25,18.25,0,0,0,596,88.81a15.17,15.17,0,0,0-6.17,6.39q-2.21,4.22-2.21,11.15v36.16H566.69V69.37h20V89.62l-3.76-6.11a26.89,26.89,0,0,1,11.14-11.29A34.06,34.06,0,0,1,610.55,68.27Z"/><path class="cls-1" d="M694.15,143.58a41.59,41.59,0,0,1-20.33-4.89,36.44,36.44,0,0,1-14-13.39,36.89,36.89,0,0,1-5.1-19.37,37.16,37.16,0,0,1,5.1-19.51,36,36,0,0,1,14-13.33,42,42,0,0,1,20.32-4.83,42.8,42.8,0,0,1,20.53,4.82,35.89,35.89,0,0,1,14.09,13.33,37.13,37.13,0,0,1,5.1,19.5,36.91,36.91,0,0,1-5.09,19.45,36.52,36.52,0,0,1-14.09,13.32A42.12,42.12,0,0,1,694.15,143.58Zm0-17.4a18.44,18.44,0,0,0,9.46-2.38,17.33,17.33,0,0,0,6.57-7,22.64,22.64,0,0,0,2.48-10.88A22.23,22.23,0,0,0,710.17,95a17.55,17.55,0,0,0-6.58-6.86,18.15,18.15,0,0,0-9.32-2.38,18.62,18.62,0,0,0-9.39,2.38,17.37,17.37,0,0,0-6.64,6.87,22.11,22.11,0,0,0-2.48,10.87,22.61,22.61,0,0,0,2.48,10.88,17.22,17.22,0,0,0,6.64,7A18.3,18.3,0,0,0,694.14,126.18Z"/><path class="cls-1" d="M739.21,87.29V71h50V87.28Zm38.12,56.28q-12.75,0-19.86-6.59t-7.11-19.65l0-64.17h21.07v63.76c0,3.08.78,5.49,2.35,7.21a8.18,8.18,0,0,0,6.37,2.58,13.58,13.58,0,0,0,8.59-2.72l5.5,15a21.21,21.21,0,0,1-7.58,3.47A37.3,37.3,0,0,1,777.33,143.57Z"/><path class="cls-1" d="M58.36,307.68V208.16h20v15l-.4,21.76,1.35,21.61v41.2Zm42.53-25.29a30.31,30.31,0,0,1-15.83-4.08,27,27,0,0,1-10.67-12.44q-3.83-8.36-3.83-21.14t3.62-21.21a25.89,25.89,0,0,1,10.53-12.37,31.23,31.23,0,0,1,16.17-4.08,36.31,36.31,0,0,1,18.45,4.68,34.4,34.4,0,0,1,12.88,13.12A39.86,39.86,0,0,1,137,244.72q0,11.57-4.76,19.92a34.42,34.42,0,0,1-12.88,13.05A36.17,36.17,0,0,1,100.89,282.39ZM97.4,265a17.42,17.42,0,0,0,15.9-9.46,24.89,24.89,0,0,0,0-21.68,17.55,17.55,0,0,0-6.57-6.87,18.28,18.28,0,0,0-9.33-2.37A18.52,18.52,0,0,0,88,227a17.41,17.41,0,0,0-6.64,6.86,24.91,24.91,0,0,0,0,21.69,17.66,17.66,0,0,0,6.64,7A18.17,18.17,0,0,0,97.4,265Z"/><path class="cls-1" d="M150.93,281.29V208.15h20v20.8l-2.82-6.11a23.36,23.36,0,0,1,10.33-11.77q7.09-4,17.3-4v19.71a22.92,22.92,0,0,0-2.34-.4,18.9,18.9,0,0,0-2.22-.14q-8.85,0-14.08,5t-5.23,15.51v34.53Z"/><path class="cls-1" d="M218.67,197.94a13.33,13.33,0,0,1-9.52-3.4,11.61,11.61,0,0,1,0-16.86,13.4,13.4,0,0,1,9.53-3.4,14,14,0,0,1,9.46,3.19,10.4,10.4,0,0,1,3.69,8.23,11.64,11.64,0,0,1-3.62,8.77A13.22,13.22,0,0,1,218.67,197.94Zm-10.45,83.34V208.14h20.93v73.15Z"/><path class="cls-1" d="M292.46,207a33.28,33.28,0,0,1,15.37,3.47,25,25,0,0,1,10.67,10.6q3.88,7.14,3.89,18.29v41.87H301.47V242.65q0-8.84-3.83-13.05t-10.8-4.21a18.21,18.21,0,0,0-8.92,2.18,15.11,15.11,0,0,0-6.17,6.39q-2.21,4.22-2.21,11.15v36.16H248.61l0-73.15h20v20.25l-3.76-6.11A26.87,26.87,0,0,1,276,211,34.06,34.06,0,0,1,292.46,207Z"/><path class="cls-1" d="M376.73,282.34A43.38,43.38,0,0,1,356,277.52a36.11,36.11,0,0,1-14.22-13.39A37.06,37.06,0,0,1,356,211.92a42.84,42.84,0,0,1,20.73-4.9,39.81,39.81,0,0,1,19.92,4.82,27.86,27.86,0,0,1,12.28,13.67l-16.1,9a19.48,19.48,0,0,0-7.11-7.54,18,18,0,0,0-9.12-2.38,19.28,19.28,0,0,0-9.53,2.38,17.65,17.65,0,0,0-6.84,6.87,21.56,21.56,0,0,0-2.54,10.87,22,22,0,0,0,2.55,10.95,17.35,17.35,0,0,0,6.84,6.93,19.28,19.28,0,0,0,9.53,2.38,18,18,0,0,0,9.12-2.38,19.41,19.41,0,0,0,7.11-7.69l16.1,9a28.32,28.32,0,0,1-12.27,13.59A39.26,39.26,0,0,1,376.73,282.34Z"/><path class="cls-1" d="M456,282.33q-12.36,0-21.61-4.89a35.84,35.84,0,0,1-14.35-13.39A36.84,36.84,0,0,1,415,244.67a38.41,38.41,0,0,1,4.9-19.44,34.62,34.62,0,0,1,13.68-13.39A40.39,40.39,0,0,1,453.33,207a39.47,39.47,0,0,1,19.12,4.62,34.43,34.43,0,0,1,13.48,13.05q5,8.43,5,20.25c0,.82,0,1.75-.13,2.79s-.18,2-.27,2.92H431.87V238.28H479.5L471.31,242a19.47,19.47,0,0,0-2.15-9.93,16.72,16.72,0,0,0-6.3-6.59,18.11,18.11,0,0,0-9.39-2.38,18.51,18.51,0,0,0-9.46,2.38,16.55,16.55,0,0,0-6.37,6.66,21.18,21.18,0,0,0-2.28,10.13v3.27a20.24,20.24,0,0,0,2.68,10.6,17.85,17.85,0,0,0,7.38,6.87,24.77,24.77,0,0,0,11.27,2.37,26.43,26.43,0,0,0,10-1.77,24.46,24.46,0,0,0,8-5.3l11.14,12.23a32.44,32.44,0,0,1-12.48,8.78A45.61,45.61,0,0,1,456,282.33Z"/><path class="cls-1" d="M529.15,282.32a69.06,69.06,0,0,1-17.72-2.24,46,46,0,0,1-13.55-5.64l6.84-15.1a51.81,51.81,0,0,0,11.88,5,47.34,47.34,0,0,0,13.35,2q7.24,0,10.26-1.77a5.44,5.44,0,0,0,3-4.89,4.2,4.2,0,0,0-2.35-3.88,20.54,20.54,0,0,0-6.17-2q-3.83-.67-8.52-1.36a81.62,81.62,0,0,1-9.33-1.9,35.85,35.85,0,0,1-8.58-3.46,17,17,0,0,1-6.31-6.19,19.66,19.66,0,0,1-2.35-10.19,20,20,0,0,1,4-12.31A26.11,26.11,0,0,1,515,210a47.4,47.4,0,0,1,17.85-3,68.93,68.93,0,0,1,15.09,1.7,46.17,46.17,0,0,1,12.82,4.69l-7.11,15.09a36.92,36.92,0,0,0-10.4-4.21A44.83,44.83,0,0,0,533.16,223q-7.24,0-10.46,1.9t-3.22,4.9a4.54,4.54,0,0,0,2.41,4.14,18.73,18.73,0,0,0,6.31,2.11c2.59.45,5.45.91,8.58,1.36a78.34,78.34,0,0,1,9.26,1.9,35.86,35.86,0,0,1,8.52,3.47,16.93,16.93,0,0,1,6.31,6.18,19.79,19.79,0,0,1,2.35,10.2,19,19,0,0,1-4,11.89,26.49,26.49,0,0,1-11.61,8.23Q540,282.31,529.15,282.32Z"/><path class="cls-1" d="M600.39,282.3a68.49,68.49,0,0,1-17.71-2.24,45.42,45.42,0,0,1-13.56-5.64L576,259.33a52.26,52.26,0,0,0,11.88,5,47.4,47.4,0,0,0,13.35,2q7.24,0,10.26-1.77a5.45,5.45,0,0,0,3-4.89,4.17,4.17,0,0,0-2.35-3.88,20.44,20.44,0,0,0-6.17-2q-3.83-.67-8.52-1.36a81,81,0,0,1-9.32-1.9,35.76,35.76,0,0,1-8.59-3.46,17,17,0,0,1-6.31-6.19,19.7,19.7,0,0,1-2.35-10.2,20,20,0,0,1,4-12.3A26.08,26.08,0,0,1,586.29,210a47.31,47.31,0,0,1,17.84-3,68.93,68.93,0,0,1,15.09,1.7A45.86,45.86,0,0,1,632,213.37l-7.11,15.09a36.92,36.92,0,0,0-10.4-4.21A44.8,44.8,0,0,0,604.4,223q-7.24,0-10.46,1.91t-3.22,4.89a4.54,4.54,0,0,0,2.41,4.15,18.73,18.73,0,0,0,6.31,2.11q3.88.67,8.59,1.36a78.18,78.18,0,0,1,9.25,1.9,36.26,36.26,0,0,1,8.52,3.46,17,17,0,0,1,6.31,6.19,19.68,19.68,0,0,1,2.35,10.19,19,19,0,0,1-4,11.9,26.43,26.43,0,0,1-11.61,8.23Q611.25,282.3,600.39,282.3Z"/><path class="cls-1" d="M707.58,282.29a32.6,32.6,0,0,1-14.35-2.93,22.43,22.43,0,0,1-9.33-7.95,20.17,20.17,0,0,1-3.29-11.28,20.72,20.72,0,0,1,3.15-11.35q3.15-5,10-7.69t18-2.72h19.06V250.6H713.88q-7.38,0-10.13,2.44a7.89,7.89,0,0,0-2.75,6.12,7.67,7.67,0,0,0,3.16,6.46q3.15,2.39,8.52,2.38a18.82,18.82,0,0,0,9.59-2.45,13.28,13.28,0,0,0,6-7.48l3.22,9.93a19.2,19.2,0,0,1-8.31,10.53Q717.11,282.29,707.58,282.29Zm22-1.1V266.92l-1.34-3.13V238.23q0-6.79-4.1-10.6t-12.54-3.81a36.09,36.09,0,0,0-11.34,1.84,31.6,31.6,0,0,0-9.59,5l-7.38-14.81a42.07,42.07,0,0,1,14.22-6.6,64.42,64.42,0,0,1,16.9-2.25q16.5,0,25.63,7.88t9.13,24.61v41.74Z"/><path class="cls-1" d="M812,207a33.14,33.14,0,0,1,15.36,3.46A25,25,0,0,1,838,221q3.88,7.14,3.89,18.29v41.87H821V242.57q0-8.85-3.82-13.06t-10.8-4.21a18.19,18.19,0,0,0-8.92,2.18,15.14,15.14,0,0,0-6.18,6.39Q789,238.09,789,245v36.16H768.09V208h20V228.3l-3.76-6.12a27,27,0,0,1,11.14-11.29A33.94,33.94,0,0,1,812,207Z"/><path class="cls-1" d="M868.58,308.63a36,36,0,0,1-11-1.76,25.9,25.9,0,0,1-9.12-4.89l7.64-15.23a16.66,16.66,0,0,0,5.57,3.53A17.4,17.4,0,0,0,868,291.5a10.63,10.63,0,0,0,6.91-2.11c1.75-1.4,3.33-3.73,4.77-7l3.75-9,1.61-2.31,26-63.09h20L898.5,285.65q-3.5,9-8,13.94a25.55,25.55,0,0,1-9.93,7A33.9,33.9,0,0,1,868.58,308.63ZM880.92,284l-32.08-76h21.47l25.1,61.32Z"/><path class="cls-1" d="M1032.11,206.91a32.44,32.44,0,0,1,15.23,3.46,24.36,24.36,0,0,1,10.4,10.61q3.77,7.13,3.76,18.28v41.88h-20.93V242.53q0-8.84-3.55-13.05t-10-4.22a16.31,16.31,0,0,0-8.32,2.11,13.82,13.82,0,0,0-5.57,6.26,25.72,25.72,0,0,0-1.94,10.81v36.71H990.27V242.54q0-8.83-3.56-13t-10.26-4.22a16.06,16.06,0,0,0-8.19,2.11,14.17,14.17,0,0,0-5.63,6.26,24.89,24.89,0,0,0-2,10.81v36.7H939.69l0-73.15h20v19.85l-3.76-5.71a25.18,25.18,0,0,1,10.6-11.36,31.79,31.79,0,0,1,15.69-3.87A30.33,30.33,0,0,1,999.65,212q7.51,5.1,9.93,15.57l-7.38-2A29.8,29.8,0,0,1,1013.73,212,33.21,33.21,0,0,1,1032.11,206.91Z"/><path class="cls-1" d="M1115.17,282.22a41.48,41.48,0,0,1-20.32-4.9,36.48,36.48,0,0,1-14-13.38,39.62,39.62,0,0,1,0-38.89,36,36,0,0,1,14-13.33,42.2,42.2,0,0,1,20.32-4.83,42.69,42.69,0,0,1,20.53,4.83A35.87,35.87,0,0,1,1149.78,225a39.77,39.77,0,0,1,0,39,36.61,36.61,0,0,1-14.09,13.33A42.36,42.36,0,0,1,1115.17,282.22Zm0-17.41a18.44,18.44,0,0,0,9.46-2.38,17.26,17.26,0,0,0,6.57-7,22.61,22.61,0,0,0,2.48-10.88,22.19,22.19,0,0,0-2.48-10.87,17.58,17.58,0,0,0-6.58-6.87,18.25,18.25,0,0,0-9.32-2.38,18.62,18.62,0,0,0-9.39,2.38,17.37,17.37,0,0,0-6.64,6.87,22.12,22.12,0,0,0-2.48,10.88,22.57,22.57,0,0,0,2.48,10.87,17.25,17.25,0,0,0,6.64,7A18.39,18.39,0,0,0,1115.17,264.81Z"/><path class="cls-1" d="M1168.84,281.12V208h20v20.8l-2.82-6.12a23.47,23.47,0,0,1,10.33-11.76q7.11-4,17.31-4v19.71c-.8-.18-1.59-.31-2.35-.41a21.09,21.09,0,0,0-2.21-.13q-8.85,0-14.09,5t-5.22,15.5v34.54Z"/><path class="cls-1" d="M1261.28,282.19q-12.35,0-21.6-4.89a35.87,35.87,0,0,1-14.36-13.39,36.89,36.89,0,0,1-5.1-19.37,38.47,38.47,0,0,1,4.9-19.45,34.62,34.62,0,0,1,13.68-13.39,40.36,40.36,0,0,1,19.79-4.83,39.5,39.5,0,0,1,19.12,4.62,34.43,34.43,0,0,1,13.48,13q5,8.43,5,20.26c0,.81-.05,1.74-.13,2.78s-.18,2-.27,2.93h-58.63V238.14h47.62l-8.18,3.67a19.57,19.57,0,0,0-2.15-9.93,16.86,16.86,0,0,0-6.3-6.59,18.2,18.2,0,0,0-9.39-2.38,18.51,18.51,0,0,0-9.46,2.38,16.53,16.53,0,0,0-6.38,6.67,21.24,21.24,0,0,0-2.28,10.13v3.26a20.34,20.34,0,0,0,2.69,10.6,17.85,17.85,0,0,0,7.38,6.87A24.77,24.77,0,0,0,1262,265.2a26.43,26.43,0,0,0,10-1.77,24.76,24.76,0,0,0,8-5.31l11.14,12.24a32.42,32.42,0,0,1-12.48,8.77A45.63,45.63,0,0,1,1261.28,282.19Z"/></g></g></g></svg>