<svg xmlns="http://www.w3.org/2000/svg" viewBox="0 0 1447.92 419.81"><defs><style>.cls-1{fill:none;stroke-width:4px;}.cls-1,.cls-3{stroke:#fff;stroke-miterlimit:10;}.cls-2{fill:#211915;}.cls-3{fill:#fff;stroke-width:5px;}</style></defs><title>1</title><g id="Camada_2" data-name="Camada 2"><g id="Camada_1-2" data-name="Camada 1"><g id="B1"><path class="cls-1" d="M38.41,170.86A76.13,76.13,0,0,1,19,170,49.92,49.92,0,0,1,3.82,165L10,148.3a57.52,57.52,0,0,0,13.3,4.32,52.76,52.76,0,0,0,14.66,1q7.86-.6,11-2.75a5.82,5.82,0,0,0,2.87-5.5,4.47,4.47,0,0,0-2.87-3.95,22.58,22.58,0,0,0-6.86-1.6q-4.21-.41-9.36-.73a91.86,91.86,0,0,1-10.28-1.26,39.28,39.28,0,0,1-9.61-3,18.38,18.38,0,0,1-7.36-6.09q-2.88-4-3.4-10.73a21.35,21.35,0,0,1,3.35-13.52A28.41,28.41,0,0,1,17.1,94.56q7.77-3.81,19.12-4.7a75.91,75.91,0,0,1,16.53.55,50.8,50.8,0,0,1,14.3,3.94l-6.47,16.77A40.25,40.25,0,0,0,49,107.48a49.54,49.54,0,0,0-11.1-.46q-7.86.62-11.2,2.92t-3.09,5.51a4.86,4.86,0,0,0,3,4.24,20.48,20.48,0,0,0,7,1.73q4.28.4,9.43.73a89.24,89.24,0,0,1,10.21,1.26,40,40,0,0,1,9.53,3,18.38,18.38,0,0,1,7.36,6.09q2.88,4,3.4,10.73a20.24,20.24,0,0,1-3.38,13.08q-3.93,6-11.92,9.79T38.41,170.86Z"></path><path class="cls-1" d="M132.17,142.48a14.86,14.86,0,0,1-9.09,3.64,9,9,0,0,1-7.14-2.23q-2.76-2.56-3.14-7.52l-2.47-31.75,19.37-1.5-1.35-17.48L109,87.14,107.5,68.06,84.63,69.84l1.48,19.08L74,89.85l1.36,17.48,12.09-.94L90,138.58q1.08,14,9.35,20.44t22.1,5.39a41,41,0,0,0,10-2,23.48,23.48,0,0,0,7.94-4.35Z"></path><path class="cls-1" d="M222,155.44l-3.47-44.71q-1.38-17.91-11.94-25.59t-28.48-6.29a71.1,71.1,0,0,0-18.16,3.83A46.22,46.22,0,0,0,145,90.94l9.24,15.25a34.46,34.46,0,0,1,10-6.12,39.38,39.38,0,0,1,12.16-2.92q9.17-.72,13.93,3t5.32,11v.15l-17.91,1.39q-12.09.93-19.29,4.43t-10.21,9.07a22,22,0,0,0-2.48,12.42,21.45,21.45,0,0,0,4.51,11.81,24.45,24.45,0,0,0,10.78,7.74,35.9,35.9,0,0,0,15.83,1.92q10.34-.81,16.58-5.32a20.6,20.6,0,0,0,6.45-7.48l.76,9.78ZM191.46,141a20.68,20.68,0,0,1-10.21,3.43q-5.82.45-9.44-1.83a8.19,8.19,0,0,1-4-6.66,8.37,8.37,0,0,1,2.48-6.78q2.78-2.85,10.79-3.48l15.58-1.2.62,8h0A14.32,14.32,0,0,1,191.46,141Z"></path><path class="cls-1" d="M285.38,130.59a14.92,14.92,0,0,1-9.1,3.64,9,9,0,0,1-7.13-2.23q-2.76-2.56-3.15-7.52l-2.46-31.75,19.37-1.5-1.36-17.48-19.37,1.5L260.7,56.17,237.84,58,239.32,77,227.23,78l1.36,17.47,12.09-.94,2.49,32.19q1.1,14,9.35,20.45t22.11,5.39a41.45,41.45,0,0,0,10-2,23.12,23.12,0,0,0,7.94-4.35Z"></path><path class="cls-1" d="M384.78,142.81,378.7,64.45,356.13,66.2l3,38.89a25.39,25.39,0,0,1-1.5,11.84,16.5,16.5,0,0,1-5.94,7.49,18.43,18.43,0,0,1-9.14,3q-7.57.6-12.08-3.67t-5.27-14.17l-3.17-40.78-22.72,1.76,3.44,44.28q.93,11.94,5.76,19.47a26.81,26.81,0,0,0,12.7,10.74A38.74,38.74,0,0,0,339,147.53a34.12,34.12,0,0,0,16.28-5.44,27.19,27.19,0,0,0,7.23-6.91l.72,9.3Z"></path><path class="cls-1" d="M432.35,140.29a75.67,75.67,0,0,1-19.41-.92,49.93,49.93,0,0,1-15.18-4.9l6.17-16.74a57.45,57.45,0,0,0,13.31,4.32,52.69,52.69,0,0,0,14.65,1q7.86-.6,11-2.76a5.8,5.8,0,0,0,2.87-5.49,4.46,4.46,0,0,0-2.87-4,22.5,22.5,0,0,0-6.86-1.6c-2.8-.27-5.92-.51-9.36-.74a91.83,91.83,0,0,1-10.28-1.25,39.28,39.28,0,0,1-9.61-3,18.38,18.38,0,0,1-7.36-6.09q-2.88-4-3.39-10.73a21.27,21.27,0,0,1,3.34-13.52A28.45,28.45,0,0,1,411.05,64c5.17-2.54,11.54-4.12,19.12-4.7a75.84,75.84,0,0,1,16.52.55A50.8,50.8,0,0,1,461,63.78l-6.46,16.77a40.4,40.4,0,0,0-11.64-3.64,49.54,49.54,0,0,0-11.1-.46q-7.86.61-11.2,2.92t-3.09,5.51a4.86,4.86,0,0,0,3,4.24,20.48,20.48,0,0,0,7,1.73q4.27.41,9.43.73a87.06,87.06,0,0,1,10.21,1.26,39.89,39.89,0,0,1,9.54,3,18.35,18.35,0,0,1,7.35,6.09q2.88,4,3.4,10.73A20.24,20.24,0,0,1,464,125.74q-3.93,5.94-11.91,9.79T432.35,140.29Z"></path><path class="cls-1" d="M603.38,125.84,597.3,47.49l-22.57,1.75,3,38.89a25.09,25.09,0,0,1-1.5,11.83,16.58,16.58,0,0,1-5.93,7.5,18.56,18.56,0,0,1-9.14,3.05q-7.57.58-12.08-3.68t-5.28-14.17l-3.16-40.77-22.72,1.76,3.43,44.27q.93,11.94,5.76,19.48a27,27,0,0,0,12.7,10.74,38.8,38.8,0,0,0,17.78,2.43,34.15,34.15,0,0,0,16.28-5.44,27.18,27.18,0,0,0,7.22-6.92l.73,9.3Z"></path><path class="cls-1" d="M706.8,78.4q-.94-12.23-6.82-20.86a37.26,37.26,0,0,0-15.07-13,39.88,39.88,0,0,0-20.42-3.47,34.36,34.36,0,0,0-17.21,5.73,26.13,26.13,0,0,0-6.46,6.43l-.7-9.09-21.7,1.68,8.27,106.61,22.72-1.77-2.84-36.6a26.49,26.49,0,0,0,6.66,4.66,33.39,33.39,0,0,0,17.52,3,39.9,39.9,0,0,0,19.64-6.58,37.41,37.41,0,0,0,12.9-15.07Q707.76,90.78,706.8,78.4ZM682,92a19.41,19.41,0,0,1-6.55,8,19.64,19.64,0,0,1-9.92,3.41,20.08,20.08,0,0,1-10.4-1.83,19.33,19.33,0,0,1-7.79-6.94,23.73,23.73,0,0,1-3.59-11.37,23.47,23.47,0,0,1,1.79-11.86,18.85,18.85,0,0,1,6.64-7.92,20.49,20.49,0,0,1,10-3.34A20.05,20.05,0,0,1,672.48,62a18.94,18.94,0,0,1,7.71,6.8,23.66,23.66,0,0,1,3.6,11.44A23.56,23.56,0,0,1,682,92Z"></path><path class="cls-1" d="M804.79,110.21,796.41,2.15,773.69,3.91l2.94,37.91a26.33,26.33,0,0,0-6.5-4.52,33.57,33.57,0,0,0-17.67-3,39.91,39.91,0,0,0-19.57,6.57A36.5,36.5,0,0,0,720,56q-4.39,9.42-3.44,21.66t6.74,20.86a36.48,36.48,0,0,0,15.07,13A40,40,0,0,0,758.72,115q10.34-.81,17.36-5.67a25,25,0,0,0,6.32-6.36l.69,9ZM777.68,84.62a18.51,18.51,0,0,1-6.63,8.06,21.46,21.46,0,0,1-20.24,1.58,18.58,18.58,0,0,1-7.79-7,24,24,0,0,1-3.6-11.44A23.6,23.6,0,0,1,741.21,64a18.82,18.82,0,0,1,6.64-7.91,21.42,21.42,0,0,1,20.24-1.57,18.79,18.79,0,0,1,7.78,6.79,23.49,23.49,0,0,1,3.6,11.44A24,24,0,0,1,777.68,84.62Z"></path><path class="cls-1" d="M895.09,103.2l-3.47-44.71q-1.39-17.91-12-25.59t-28.48-6.29A71.62,71.62,0,0,0,833,30.44a46.22,46.22,0,0,0-14.89,8.26L827.38,54a34.83,34.83,0,0,1,10-6.13,39.67,39.67,0,0,1,12.16-2.92q9.16-.7,13.93,3t5.32,11l0,.14-17.92,1.39q-12.09.95-19.29,4.43T821.39,74a22,22,0,0,0-2.48,12.43,21.51,21.51,0,0,0,4.51,11.81A24.49,24.49,0,0,0,834.2,106,35.9,35.9,0,0,0,850,107.87q10.34-.8,16.58-5.31a20.68,20.68,0,0,0,6.45-7.48l.76,9.77Zm-30.5-14.48a20.65,20.65,0,0,1-10.21,3.43q-5.83.45-9.45-1.83a8.21,8.21,0,0,1-4-6.65,8.4,8.4,0,0,1,2.48-6.79q2.77-2.85,10.79-3.47l15.58-1.21.63,8h0A14.32,14.32,0,0,1,864.59,88.72Z"></path><path class="cls-1" d="M958.5,78.36A14.82,14.82,0,0,1,949.41,82a8.94,8.94,0,0,1-7.14-2.23q-2.76-2.57-3.14-7.52l-2.47-31.75L956,39l-1.35-17.48L935.31,23,933.83,3.94,911,5.71l1.48,19.08-12.09.94,1.36,17.48,12.09-.94,2.5,32.18q1.08,14,9.35,20.45t22.1,5.39a41.44,41.44,0,0,0,10-2,23.31,23.31,0,0,0,7.94-4.36Z"></path><path class="cls-1" d="M1050.23,52.05q-1-12.67-7.08-21.29a37.28,37.28,0,0,0-15.72-12.84,43.35,43.35,0,0,0-21.13-3.34,44.47,44.47,0,0,0-21.08,6.84,37.47,37.47,0,0,0-13.75,15.49,40.92,40.92,0,0,0-3.7,21.24,39.38,39.38,0,0,0,7.15,20.33,38.82,38.82,0,0,0,16.69,13.13q10.47,4.47,23.86,3.42A50.18,50.18,0,0,0,1034,90.3a35.44,35.44,0,0,0,12.82-10.44l-13.11-12.17a26.87,26.87,0,0,1-8.22,6.35,29,29,0,0,1-10.71,2.73,27.11,27.11,0,0,1-12.43-1.6,19.25,19.25,0,0,1-8.58-6.73A19.61,19.61,0,0,1,991,62.8l59.25-4.6c0-1,0-2,0-3.16S1050.29,52.92,1050.23,52.05ZM997.71,35.1a20.25,20.25,0,0,1,10.07-3.35,20,20,0,0,1,10.39,1.76,18.17,18.17,0,0,1,7.39,6.53,19.1,19.1,0,0,1,2.64,6.54l-38.5,3a20.32,20.32,0,0,1,1.64-6.79A17.75,17.75,0,0,1,997.71,35.1Z"></path><path class="cls-1" d="M1073,38a13.87,13.87,0,0,1-10.29-3.23,13.49,13.49,0,0,1-4.94-9.8,13.64,13.64,0,0,1,3.35-10.66,14.76,14.76,0,0,1,20-1.56,13.81,13.81,0,0,1,4.88,10,13.67,13.67,0,0,1-3.3,10.44A13.81,13.81,0,0,1,1073,38Zm4,52.28A13.82,13.82,0,0,1,1066.79,87a13.49,13.49,0,0,1-4.94-9.8,13.61,13.61,0,0,1,3.35-10.66,14.74,14.74,0,0,1,20-1.55,13.75,13.75,0,0,1,4.88,10,13.62,13.62,0,0,1-3.29,10.44A13.83,13.83,0,0,1,1077.07,90.25Z"></path><path class="cls-2" d="M486.16,312.29,475.52,168.6,509,166.12l86.11,89.8-15.81,1.17-7.08-95.65L612,158.49l10.64,143.69-33.46,2.47-86.31-89.78,15.8-1.17,7.09,95.65Z"></path><path class="cls-2" d="M724.07,297.56a89.35,89.35,0,0,1-32.13-3.2,73.63,73.63,0,0,1-45-36.39,73,73,0,0,1-8.27-29.42,71.78,71.78,0,0,1,3.87-30A74.2,74.2,0,0,1,681.59,156a94.33,94.33,0,0,1,63.64-4.71A75.86,75.86,0,0,1,771.63,165a73.31,73.31,0,0,1,18.48,22.37,72.51,72.51,0,0,1,8.26,29.31,74.69,74.69,0,0,1-3.73,30.51,71.13,71.13,0,0,1-15,25,77,77,0,0,1-24.2,17.48A89.31,89.31,0,0,1,724.07,297.56Zm-2.5-33.67a40.36,40.36,0,0,0,15.08-4,35.41,35.41,0,0,0,11.7-9.23,39.5,39.5,0,0,0,7.26-13.54,49.83,49.83,0,0,0-2.51-33.87,39.66,39.66,0,0,0-9.17-12.32,35.48,35.48,0,0,0-12.93-7.4,42.3,42.3,0,0,0-30.59,2.26,36.65,36.65,0,0,0-11.8,9.24,37.26,37.26,0,0,0-7.25,13.54,51.43,51.43,0,0,0,2.51,33.86A37.19,37.19,0,0,0,693,254.76a36.37,36.37,0,0,0,13,7.39A40.2,40.2,0,0,0,721.57,263.89Z"></path><path class="cls-2" d="M853.58,285.07l-8.26-111.45-44.13,3.27-2.38-32.23,128.7-9.53,2.38,32.22L886,170.61l8.25,111.45Z"></path><path class="cls-3" d="M36.24,304.07,7.53,237.22l18.67-1.11,24,57.58-9,.54L59,234.16l16.89-1,24.08,57.57-8.64.52,17.45-60.05,17.53-1L105.57,300l-19,1.13L65.24,251.75l5.71-.34L55.41,302.93Z"></path><path class="cls-3" d="M171.67,297A43.72,43.72,0,0,1,151,293.67,33.84,33.84,0,0,1,136.62,282a34.2,34.2,0,0,1-5.9-17.81,35.58,35.58,0,0,1,3.55-18.44,32.64,32.64,0,0,1,12.21-13.28,38.73,38.73,0,0,1,18.46-5.62,37.74,37.74,0,0,1,18.35,3.24,32.47,32.47,0,0,1,13.49,11.43q5.17,7.59,5.83,18.64.06,1.14,0,2.61c0,1-.06,1.9-.1,2.75l-55.49,3.3-.69-11.56,45.08-2.68-7.54,3.89a18.19,18.19,0,0,0-2.58-9.15,15.8,15.8,0,0,0-6.34-5.8,17.38,17.38,0,0,0-9-1.7,17.81,17.81,0,0,0-8.82,2.76,15.54,15.54,0,0,0-5.66,6.58,19.64,19.64,0,0,0-1.6,9.59l.18,3a18.78,18.78,0,0,0,3.13,9.75,16.73,16.73,0,0,0,7.37,6,23.69,23.69,0,0,0,10.8,1.59,25.46,25.46,0,0,0,9.36-2.22,23.17,23.17,0,0,0,7.26-5.4l11.22,10.8a30.79,30.79,0,0,1-11.32,8.9A44,44,0,0,1,171.67,297Z"></path><path class="cls-3" d="M274.91,290.88A31.39,31.39,0,0,1,261.16,289a21.28,21.28,0,0,1-9.27-6.9,18.77,18.77,0,0,1-3.74-10.36,19.21,19.21,0,0,1,2.36-10.78q2.7-4.82,9-7.74t16.87-3.55l18-1.08.68,11.43-16,1c-4.66.27-7.81,1.23-9.45,2.85a7.32,7.32,0,0,0-2.27,5.87,7.15,7.15,0,0,0,3.35,5.86,13.24,13.24,0,0,0,8.19,1.74,18,18,0,0,0,8.95-2.83,12.49,12.49,0,0,0,5.23-7.32l3.6,9.09a18,18,0,0,1-7.29,10.31Q283.92,290.35,274.91,290.88Zm20.77-2.26-.8-13.33-1.44-2.85L292,248.57q-.37-6.34-4.47-9.67t-12.08-2.85a34.38,34.38,0,0,0-10.63,2.35,29.92,29.92,0,0,0-8.8,5.18l-7.81-13.43a40.24,40.24,0,0,1,13.09-7,62,62,0,0,1,15.88-3.05q15.62-.93,24.69,5.92t10,22.47l2.32,39Z"></path><path class="cls-3" d="M332.12,286.45l-4.07-68.32L347,217l1.15,19.43-3-5.55a22,22,0,0,1,9.12-11.57q6.51-4.14,16.16-4.72l1.1,18.41c-.78-.12-1.53-.2-2.25-.25a18.38,18.38,0,0,0-2.1,0q-8.39.51-13.06,5.5T350,253l1.92,32.25Z"></path><path class="cls-3" d="M419.68,282.26A43.74,43.74,0,0,1,399,278.9a33.78,33.78,0,0,1-14.33-11.7,34.13,34.13,0,0,1-5.9-17.8A35.58,35.58,0,0,1,382.28,231a32.64,32.64,0,0,1,12.21-13.28A38.73,38.73,0,0,1,413,212.06a37.72,37.72,0,0,1,18.35,3.24,32.47,32.47,0,0,1,13.49,11.43q5.18,7.59,5.83,18.64.06,1.14,0,2.61c0,1-.06,1.9-.09,2.75l-55.5,3.3-.69-11.56,45.08-2.68-7.54,3.89a18.19,18.19,0,0,0-2.58-9.15,15.8,15.8,0,0,0-6.34-5.8,17.36,17.36,0,0,0-9-1.7,17.81,17.81,0,0,0-8.82,2.76,15.54,15.54,0,0,0-5.66,6.58,19.75,19.75,0,0,0-1.6,9.59l.18,3a18.78,18.78,0,0,0,3.13,9.75,16.73,16.73,0,0,0,7.37,6,23.69,23.69,0,0,0,10.8,1.59,25.36,25.36,0,0,0,9.36-2.22,23.17,23.17,0,0,0,7.26-5.4l11.23,10.8a30.78,30.78,0,0,1-11.33,8.89A43.76,43.76,0,0,1,419.68,282.26Z"></path><path class="cls-3" d="M28.7,417.16l-5.3-88.89L61.88,326q11.94-.72,20.81,2.65a30.22,30.22,0,0,1,14,10.31A30.89,30.89,0,0,1,86.06,385.2q-8.41,4.46-20.34,5.16L38.54,392l8.85-9.83,2,33.78Zm18.82-32.72-10-9.22,26-1.55q9.39-.56,14-4.91T81.7,357q-.44-7.37-5.5-11.08t-14.46-3.15l-26,1.55L44.52,334Z"></path><path class="cls-3" d="M120.39,411.7l-5.3-88.89,38.48-2.29q11.94-.72,20.8,2.65a30.25,30.25,0,0,1,14,10.31,33.83,33.83,0,0,1,2,34.36,29.54,29.54,0,0,1-12.69,11.71q-8.41,4.26-20.35,5l-27.17,1.62,8.86-9.45,2,33.78ZM139.21,379l-10-9.22,26-1.55q9.41-.56,14-4.91t4.15-11.72q-.44-7.36-5.5-11.08t-14.46-3.15l-26,1.55,8.82-10.34ZM177,408.33l-24.27-30.92,22.1-1.32L199.12,407Z"></path><path class="cls-3" d="M213.72,406.15l-5.29-88.9,20.7-1.23,5.29,88.89Z"></path><path class="cls-3" d="M255.37,403.66l-5.29-88.89,17-1,56.26,60.88-8.26.49-3.81-64,20.32-1.21,5.29,88.89-17,1-56.26-60.88,8.25-.49,3.81,64Z"></path><path class="cls-3" d="M400.62,396.54a53.37,53.37,0,0,1-19.32-2.22,44.52,44.52,0,0,1-26.84-22.68,48.8,48.8,0,0,1-2.19-36.83,44.2,44.2,0,0,1,9.29-15.21,45.45,45.45,0,0,1,14.8-10.5,56.57,56.57,0,0,1,40.1-1.75,40.65,40.65,0,0,1,16.44,10.81l-12.6,13a30.3,30.3,0,0,0-10.57-7.27,28.47,28.47,0,0,0-12.41-1.94A30.36,30.36,0,0,0,386,324.71a26.46,26.46,0,0,0-14,15.81,32.9,32.9,0,0,0,1.38,23.11,26.37,26.37,0,0,0,15.81,14,30.3,30.3,0,0,0,11.55,1.42,27.88,27.88,0,0,0,12.09-3.46,31.1,31.1,0,0,0,9.63-8.54l14.06,11.4a41.26,41.26,0,0,1-15.05,12.74A52.48,52.48,0,0,1,400.62,396.54Z"></path><path class="cls-3" d="M470.53,374.28l48.38-2.88,1,16.51L451.07,392l-5.3-88.89,67.18-4,1,16.5-46.73,2.79Zm-3.71-36.61,42.79-2.54,1,16.12-42.79,2.55Z"></path><path class="cls-3" d="M565.7,386.71A73.26,73.26,0,0,1,545,385.08q-10-2.28-16.25-6.49l6.06-15.91a49.05,49.05,0,0,0,13.86,5.87,50.36,50.36,0,0,0,16,1.65,31.49,31.49,0,0,0,9.76-1.85,12.31,12.31,0,0,0,5.33-3.7,7.28,7.28,0,0,0,1.48-5,6.71,6.71,0,0,0-3.13-5.49,22.92,22.92,0,0,0-7.63-3q-4.71-1.06-10.25-1.94c-3.69-.59-7.4-1.34-11.16-2.27a44.32,44.32,0,0,1-10.43-4,21.74,21.74,0,0,1-7.81-7.06,22.69,22.69,0,0,1-3.42-11.46,25.11,25.11,0,0,1,3.23-14.14q3.69-6.54,11.79-10.77t20.67-5a68.3,68.3,0,0,1,16.69,1,49,49,0,0,1,14.63,5l-5.55,15.88a51.81,51.81,0,0,0-12.62-4.41,47,47,0,0,0-12.3-1,29.54,29.54,0,0,0-9.7,1.92,11.34,11.34,0,0,0-5.18,3.94,8.29,8.29,0,0,0-1.41,5.18,6.9,6.9,0,0,0,3.13,5.55,20.65,20.65,0,0,0,7.57,2.93q4.65.93,10.3,1.8a113.58,113.58,0,0,1,11.23,2.33,49.38,49.38,0,0,1,10.3,3.91,21.79,21.79,0,0,1,7.87,6.92,21.55,21.55,0,0,1,3.54,11.33,24.35,24.35,0,0,1-3.31,14q-3.76,6.47-11.91,10.77T565.7,386.71Z"></path><path class="cls-3" d="M646.72,381.89A73.23,73.23,0,0,1,626,380.25q-10-2.26-16.25-6.49l6.06-15.9a48.8,48.8,0,0,0,13.86,5.86,50.37,50.37,0,0,0,16,1.66,31.23,31.23,0,0,0,9.76-1.86,12.21,12.21,0,0,0,5.33-3.69,7.35,7.35,0,0,0,1.48-5,6.68,6.68,0,0,0-3.13-5.48,22.92,22.92,0,0,0-7.63-3q-4.72-1-10.25-1.94t-11.16-2.26a44.61,44.61,0,0,1-10.43-4,21.54,21.54,0,0,1-7.81-7.05,22.5,22.5,0,0,1-3.42-11.46,25.06,25.06,0,0,1,3.23-14.15q3.69-6.52,11.79-10.77t20.66-5a68.86,68.86,0,0,1,16.7,1.05,49,49,0,0,1,14.63,5l-5.55,15.88a51.88,51.88,0,0,0-12.63-4.41,46.93,46.93,0,0,0-12.29-1,29.57,29.57,0,0,0-9.7,1.91,11.41,11.41,0,0,0-5.18,3.94,8.34,8.34,0,0,0-1.41,5.19,6.84,6.84,0,0,0,3.13,5.54,20.48,20.48,0,0,0,7.57,2.93q4.64.94,10.3,1.81A111.35,111.35,0,0,1,661,329.94a49.38,49.38,0,0,1,10.3,3.91,20.7,20.7,0,0,1,11.41,18.24,24.41,24.41,0,0,1-3.31,14q-3.76,6.48-11.91,10.78T646.72,381.89Z"></path><path class="cls-3" d="M722.57,375.84l34.2-91.25,20.32-1.21,45.16,86.52-21.58,1.29-37.31-76.54,8.25-.49-28,80.43Zm18.8-20.24,4.28-15.93,46-2.73,6.26,15.3Z"></path><path class="cls-3" d="M831.52,369.35l-5.29-88.89,17-1,56.26,60.88-8.26.5-3.81-64,20.32-1.21,5.29,88.9-17,1-56.25-60.88,8.25-.49,3.81,64Z"></path><path class="cls-3" d="M956.23,361.92l-2.16-36.31,5.44,12.16-43.12-62.68,22-1.31,32.94,48-12.58.74L985.86,271l20.06-1.19L970.81,337.1l4-12.73,2.17,36.32Z"></path><path class="cls-3" d="M1019.09,358.18l-5.29-88.89,17-1,41.58,60.48-9,.54,33.34-64.94,17.14-1,5.3,88.89L1100,353.36l-3.78-59.29,3.81-.22-27,51.56-9.14.55-33.32-48,4.19-.25,3.53,59.31Z"></path><path class="cls-3" d="M1183.51,349.92a53.41,53.41,0,0,1-19.51-2.28,46.89,46.89,0,0,1-16.07-8.73,43.55,43.55,0,0,1-11.09-14,48.23,48.23,0,0,1-2.18-36.64,43.87,43.87,0,0,1,9.35-15.15,47.33,47.33,0,0,1,14.86-10.57A53.08,53.08,0,0,1,1178,258a54.11,54.11,0,0,1,19.57,2.21,46.32,46.32,0,0,1,16,8.67,43.82,43.82,0,0,1,11.09,14,48.67,48.67,0,0,1,2.19,36.77,43.63,43.63,0,0,1-9.35,15.27,46.38,46.38,0,0,1-14.86,10.51A54.15,54.15,0,0,1,1183.51,349.92Zm-1-17.4a28.24,28.24,0,0,0,10.86-2.75,26.73,26.73,0,0,0,8.47-6.49,27.73,27.73,0,0,0,5.37-9.37,32.64,32.64,0,0,0-1.37-23,27.65,27.65,0,0,0-6.44-8.66,26.69,26.69,0,0,0-9.19-5.44,28.13,28.13,0,0,0-11.1-1.44,28.55,28.55,0,0,0-10.93,2.75,25.91,25.91,0,0,0-8.47,6.49,28.05,28.05,0,0,0-5.3,9.37,32.62,32.62,0,0,0,1.37,23,28,28,0,0,0,6.37,8.67,25.74,25.74,0,0,0,9.19,5.44A28.55,28.55,0,0,0,1182.47,332.52Z"></path><path class="cls-3" d="M1247.54,344.58l-5.29-88.9,38.48-2.29q11.93-.7,20.8,2.65a30.2,30.2,0,0,1,14,10.32,33.78,33.78,0,0,1,2,34.35,29.52,29.52,0,0,1-12.68,11.71q-8.42,4.26-20.35,5L1257.36,319l8.87-9.45,2,33.78Zm18.83-32.73-10-9.22,26-1.55q9.4-.56,14-4.91t4.15-11.72q-.43-7.36-5.5-11.08t-14.47-3.15l-26,1.55,8.82-10.34Zm37.81,29.35-24.27-30.92L1302,309l24.27,30.93Z"></path><path class="cls-3" d="M1360.34,321.29l48.39-2.88,1,16.51-68.83,4.1-5.29-88.9,67.17-4,1,16.51L1357,265.41Zm-3.71-36.61,42.8-2.55,1,16.13-42.8,2.55Z"></path><path class="cls-3" d="M1424.12,303l-7.26-57.68,23.49-1.4-.49,58.15Zm9.9,31.53a12.15,12.15,0,0,1-9-2.9,11,11,0,0,1-4-7.92,10.58,10.58,0,0,1,3-8.28,12.52,12.52,0,0,1,8.63-3.76,12.06,12.06,0,0,1,8.89,2.72,10.74,10.74,0,0,1,3.85,7.86,11.2,11.2,0,0,1-2.88,8.33A11.68,11.68,0,0,1,1434,334.49Z"></path></g></g></g></svg>