<svg xmlns="http://www.w3.org/2000/svg" viewBox="0 0 1150.93 317.13"><defs><style>.cls-1{fill:none;stroke-width:4px;}.cls-1,.cls-2{stroke:#fff;stroke-miterlimit:10;}.cls-2{fill:#fff;stroke-width:5px;}</style></defs><title>1</title><g id="Camada_2" data-name="Camada 2"><g id="Camada_1-2" data-name="Camada 1"><g id="B1"><path class="cls-1" d="M32.23,118.35a60.19,60.19,0,0,1-15.46-1.19,39.65,39.65,0,0,1-12-4.28l5.32-13.2a45.56,45.56,0,0,0,10.51,3.76,41.86,41.86,0,0,0,11.66,1.14c4.19-.19,7.14-.84,8.84-1.93a4.68,4.68,0,0,0,2.42-4.32,3.57,3.57,0,0,0-2.2-3.22,17.73,17.73,0,0,0-5.43-1.43c-2.23-.29-4.72-.56-7.45-.82a71,71,0,0,1-8.17-1.25A31.5,31.5,0,0,1,12.7,89,14.57,14.57,0,0,1,7,84a16.72,16.72,0,0,1-2.45-8.64,17,17,0,0,1,3-10.7A22.71,22.71,0,0,1,17.08,57,42,42,0,0,1,32.44,53.7a61.09,61.09,0,0,1,13.17.84A40.53,40.53,0,0,1,56.92,58L51.36,71.24a32.53,32.53,0,0,0-9.19-3.18,40,40,0,0,0-8.84-.63c-4.2.2-7.2.88-9,2.06s-2.67,2.61-2.59,4.32A3.88,3.88,0,0,0,24,77.26a16.37,16.37,0,0,0,5.56,1.55q3.4.42,7.5.81a70.85,70.85,0,0,1,8.11,1.25,32.19,32.19,0,0,1,7.54,2.62,14.63,14.63,0,0,1,5.72,5,16.82,16.82,0,0,1,2.45,8.64,16.19,16.19,0,0,1-3,10.35A23,23,0,0,1,48.12,115,44.27,44.27,0,0,1,32.23,118.35Z" transform="translate(-2.29)"></path><path class="cls-1" d="M107.7,98a11.89,11.89,0,0,1-7.34,2.68,7.17,7.17,0,0,1-5.64-2,8.8,8.8,0,0,1-2.33-6.08l-1.2-25.38,15.49-.73-.66-14-15.49.73L89.81,38l-18.28.86.72,15.25-9.66.46.66,14,9.66-.45,1.22,25.73q.53,11.17,7,16.53t17.5,4.83a32.84,32.84,0,0,0,8-1.37,18.64,18.64,0,0,0,6.43-3.28Z" transform="translate(-2.29)"></path><path class="cls-1" d="M179,110.49l-1.69-35.74q-.67-14.32-8.91-20.7t-22.56-5.71A57,57,0,0,0,131.26,51a36.9,36.9,0,0,0-12.07,6.23l7,12.39a27.45,27.45,0,0,1,8.12-4.65,31.43,31.43,0,0,1,9.77-2q7.33-.34,11,2.74t4,8.92v.11l-14.32.68q-9.66.45-15.49,3.06a16.52,16.52,0,0,0-10.64,16.84,17.13,17.13,0,0,0,3.31,9.53,19.54,19.54,0,0,0,8.41,6.43A28.75,28.75,0,0,0,143,113.12c5.51-.26,10-1.53,13.35-3.84a16.42,16.42,0,0,0,5.33-5.81l.37,7.82ZM155,98.2a16.55,16.55,0,0,1-8.22,2.49A12,12,0,0,1,139.31,99a6.53,6.53,0,0,1-3-5.4,6.67,6.67,0,0,1,2.14-5.35q2.28-2.2,8.69-2.51l12.46-.59.3,6.4h0A11.43,11.43,0,0,1,155,98.2Z" transform="translate(-2.29)"></path><path class="cls-1" d="M230.17,92.2a11.84,11.84,0,0,1-7.34,2.68,7.14,7.14,0,0,1-5.63-1.95,8.73,8.73,0,0,1-2.33-6.07l-1.2-25.38,15.48-.73-.66-14L213,47.51l-.72-15.26L194,33.12l.72,15.25-9.66.46.66,14,9.66-.46,1.22,25.73q.52,11.18,7,16.53t17.5,4.83a32.84,32.84,0,0,0,8-1.37,18.52,18.52,0,0,0,6.44-3.28Z" transform="translate(-2.29)"></path><path class="cls-1" d="M309.16,104.34l-3-62.64-18.05.86,1.47,31.08a20.11,20.11,0,0,1-1.48,9.41,13.14,13.14,0,0,1-4.92,5.83,14.74,14.74,0,0,1-7.36,2.21q-6.06.28-9.54-3.22t-3.87-11.43l-1.54-32.6-18.16.86,1.67,35.39q.45,9.55,4.12,15.68a21.51,21.51,0,0,0,9.87,8.87A30.87,30.87,0,0,0,272.53,107a27.19,27.19,0,0,0,13.12-3.94,21.79,21.79,0,0,0,5.93-5.34l.35,7.43Z" transform="translate(-2.29)"></path><path class="cls-1" d="M347.16,103.48a60.6,60.6,0,0,1-15.46-1.2,40,40,0,0,1-12-4.27L325,84.8a45.64,45.64,0,0,0,10.5,3.77,41.89,41.89,0,0,0,11.67,1.14c4.19-.2,7.13-.84,8.83-1.94a4.64,4.64,0,0,0,2.42-4.31,3.56,3.56,0,0,0-2.19-3.22,17.78,17.78,0,0,0-5.44-1.44q-3.34-.42-7.44-.81a73.28,73.28,0,0,1-8.17-1.25,31.36,31.36,0,0,1-7.59-2.62,14.59,14.59,0,0,1-5.73-5,16.75,16.75,0,0,1-2.45-8.63,17,17,0,0,1,3-10.7A22.57,22.57,0,0,1,332,42.12a41.59,41.59,0,0,1,15.36-3.29,60.49,60.49,0,0,1,13.17.83,40.68,40.68,0,0,1,11.3,3.49l-5.56,13.22a32.45,32.45,0,0,0-9.19-3.19,39.94,39.94,0,0,0-8.84-.63q-6.28.3-9,2.06t-2.6,4.32a3.91,3.91,0,0,0,2.26,3.46,16.45,16.45,0,0,0,5.56,1.54q3.4.43,7.51.82A69,69,0,0,1,360.09,66a31.64,31.64,0,0,1,7.53,2.61,14.72,14.72,0,0,1,5.72,5,16.63,16.63,0,0,1,2.45,8.64,16.13,16.13,0,0,1-3,10.35,22.9,22.9,0,0,1-9.74,7.52A44.41,44.41,0,0,1,347.16,103.48Z" transform="translate(-2.29)"></path><path class="cls-1" d="M483.91,96.09l-3-62.64-18,.85,1.46,31.09a20.07,20.07,0,0,1-1.48,9.4A13.13,13.13,0,0,1,458,80.62a14.72,14.72,0,0,1-7.37,2.22c-4,.19-7.22-.88-9.54-3.23s-3.62-6.14-3.87-11.42l-1.54-32.6-18.16.86,1.67,35.39q.45,9.54,4.13,15.67a21.31,21.31,0,0,0,9.87,8.87,30.81,30.81,0,0,0,14.11,2.37,27.2,27.2,0,0,0,13.12-4,21.63,21.63,0,0,0,5.93-5.34l.35,7.44Z" transform="translate(-2.29)"></path><path class="cls-1" d="M567.54,60.75a33.77,33.77,0,0,0-4.94-16.81,29.59,29.59,0,0,0-11.71-10.7A31.65,31.65,0,0,0,534.69,30a27.45,27.45,0,0,0-13.86,4.15,20.73,20.73,0,0,0-5.31,5l-.34-7.27-17.35.82,4,85.22L520,117l-1.38-29.27a21.06,21.06,0,0,0,5.2,3.88,26.68,26.68,0,0,0,13.9,2.85,31.85,31.85,0,0,0,15.82-4.78A29.76,29.76,0,0,0,564.21,78,33.6,33.6,0,0,0,567.54,60.75ZM547.42,71A15.46,15.46,0,0,1,542,77.24a15.67,15.67,0,0,1-8,2.48A16,16,0,0,1,525.76,78a15.29,15.29,0,0,1-6-5.73,18.86,18.86,0,0,1-2.6-9.15,18.79,18.79,0,0,1,1.72-9.42,15,15,0,0,1,5.48-6.15,16.3,16.3,0,0,1,8.06-2.42,16.06,16.06,0,0,1,8.18,1.65,15.18,15.18,0,0,1,6,5.61,18.89,18.89,0,0,1,2.59,9.22A18.74,18.74,0,0,1,547.42,71Z" transform="translate(-2.29)"></path><path class="cls-1" d="M644.92,88.48,640.84,2.09,622.68,3l1.43,30.31A21,21,0,0,0,619,29.49a26.86,26.86,0,0,0-14-2.83,31.69,31.69,0,0,0-15.76,4.77,29.06,29.06,0,0,0-10.64,11.76,34,34,0,0,0-3.27,17.19,34,34,0,0,0,4.87,16.8,29.08,29.08,0,0,0,11.71,10.71,31.78,31.78,0,0,0,16.14,3.26,27.54,27.54,0,0,0,14-4.1,20,20,0,0,0,5.2-4.91l.34,7.16Zm-21-21.06a14.88,14.88,0,0,1-5.48,6.27,16.33,16.33,0,0,1-8.06,2.42,16,16,0,0,1-8.13-1.66,14.79,14.79,0,0,1-6-5.72,19.23,19.23,0,0,1-2.6-9.21,18.79,18.79,0,0,1,1.72-9.42A15,15,0,0,1,600.81,44a16.11,16.11,0,0,1,7.94-2.42A16.39,16.39,0,0,1,617,43.18a15.11,15.11,0,0,1,6,5.61A18.85,18.85,0,0,1,625.63,58,19.24,19.24,0,0,1,623.92,67.42Z" transform="translate(-2.29)"></path><path class="cls-1" d="M717.1,85.07l-1.68-35.74q-.67-14.32-8.92-20.7T684,22.93a56.55,56.55,0,0,0-14.58,2.61,37.15,37.15,0,0,0-12.08,6.23l7,12.39a27.67,27.67,0,0,1,8.12-4.65,32,32,0,0,1,9.76-2q7.34-.34,11,2.74t4,8.92v.11l-14.32.68q-9.66.45-15.49,3.07a16.5,16.5,0,0,0-10.64,16.83,17.1,17.1,0,0,0,3.31,9.53,19.41,19.41,0,0,0,8.41,6.43,28.84,28.84,0,0,0,12.58,1.92q8.27-.39,13.35-3.84a16.6,16.6,0,0,0,5.33-5.81l.37,7.81Zm-24-12.29a16.36,16.36,0,0,1-8.23,2.49,12.06,12.06,0,0,1-7.49-1.69,6.55,6.55,0,0,1-3-5.4,6.67,6.67,0,0,1,2.14-5.35q2.28-2.2,8.69-2.51l12.46-.59.3,6.41h0A11.45,11.45,0,0,1,693.13,72.78Z" transform="translate(-2.29)"></path><path class="cls-1" d="M768.28,66.78a11.79,11.79,0,0,1-7.34,2.68,7.14,7.14,0,0,1-5.63-1.95A8.73,8.73,0,0,1,753,61.44l-1.2-25.38,15.48-.73-.66-14-15.48.73L750.4,6.84l-18.28.86L732.84,23l-9.66.46.66,14,9.66-.46,1.21,25.73q.54,11.17,7,16.53T759.18,84a32.85,32.85,0,0,0,8-1.38,18.52,18.52,0,0,0,6.44-3.28Z" transform="translate(-2.29)"></path><path class="cls-1" d="M842.07,48q-.48-10.12-5.12-17.14a29.81,29.81,0,0,0-12.23-10.63,34.72,34.72,0,0,0-16.78-3.17A35.52,35.52,0,0,0,791,22a30,30,0,0,0-11.33,12,32.61,32.61,0,0,0-3.47,16.85,31.37,31.37,0,0,0,5.21,16.38,31,31,0,0,0,13,10.88,44.19,44.19,0,0,0,33.84,0,28.26,28.26,0,0,0,10.47-8l-10.16-10A21.46,21.46,0,0,1,821.81,65a23.49,23.49,0,0,1-8.6,1.92,21.68,21.68,0,0,1-9.88-1.58,15.4,15.4,0,0,1-6.68-5.57,15.82,15.82,0,0,1-2.07-4.57L842,52.92q.06-1.17.12-2.52C842.1,49.51,842.11,48.71,842.07,48ZM800.59,33.23a16.28,16.28,0,0,1,8.11-2.43A16,16,0,0,1,817,32.45a14.57,14.57,0,0,1,5.74,5.39,15.38,15.38,0,0,1,1.95,5.28l-30.78,1.45a16.09,16.09,0,0,1,1.47-5.38A14.33,14.33,0,0,1,800.59,33.23Z" transform="translate(-2.29)"></path><path class="cls-1" d="M860.59,37.34a11.12,11.12,0,0,1-8.13-2.83,10.76,10.76,0,0,1-3.7-7.93,10.86,10.86,0,0,1,2.93-8.43,11.77,11.77,0,0,1,16-.75,11,11,0,0,1,3.65,8.11,10.88,10.88,0,0,1-2.88,8.24A11,11,0,0,1,860.59,37.34Zm2,41.79a11.06,11.06,0,0,1-8.12-2.82,10.8,10.8,0,0,1-3.71-7.94A10.89,10.89,0,0,1,853.66,60a11.78,11.78,0,0,1,16-.76,11,11,0,0,1,3.65,8.12,10.84,10.84,0,0,1-2.88,8.24A11,11,0,0,1,862.56,79.13Z" transform="translate(-2.29)"></path><path d="M385.93,242l-5-114.85,26.74-1.17,66.52,73.69-12.64.56-3.34-76.46L490,122.34l5,114.85-26.74,1.17-66.68-73.69,12.64-.56,3.34,76.46Z" transform="translate(-2.29)"></path><path d="M576,236a71.15,71.15,0,0,1-25.54-3.32,58.76,58.76,0,0,1-35-30.12,58,58,0,0,1-5.88-23.66,57.21,57.21,0,0,1,3.8-23.84,59.2,59.2,0,0,1,32.18-33,75.2,75.2,0,0,1,50.86-2.23,60.55,60.55,0,0,1,20.73,11.59,58.5,58.5,0,0,1,14.19,18.28,57.47,57.47,0,0,1,5.88,23.58,59.51,59.51,0,0,1-3.7,24.25A56.69,56.69,0,0,1,621,217.05a61.39,61.39,0,0,1-19.71,13.36A71.09,71.09,0,0,1,576,236ZM574.85,209A32.07,32.07,0,0,0,587,206.21a28.17,28.17,0,0,0,9.56-7.08,31.43,31.43,0,0,0,6.11-10.62,39.71,39.71,0,0,0-1.18-27.07,31.69,31.69,0,0,0-7-10.05,28.05,28.05,0,0,0-10.13-6.21,33.67,33.67,0,0,0-24.45,1.06,29.21,29.21,0,0,0-9.64,7.08A30.07,30.07,0,0,0,544.11,164,41.1,41.1,0,0,0,545.3,191a29.86,29.86,0,0,0,7,10,29.23,29.23,0,0,0,10.22,6.21A32.18,32.18,0,0,0,574.85,209Z" transform="translate(-2.29)"></path><path d="M679.62,229.12,675.73,140l-35.28,1.54-1.12-25.76,102.87-4.5,1.13,25.76-35.12,1.54,3.9,89.09Z" transform="translate(-2.29)"></path><path class="cls-2" d="M27.28,224.55,6,170.54l14.91-.44,17.71,46.5-7.2.21,15.67-47.48,13.5-.39,17.81,46.5-6.9.2,15.36-47.47,14-.41L82.68,222.93l-15.22.44L51.67,183.52l4.56-.13L42.6,224.1Z" transform="translate(-2.29)"></path><path class="cls-2" d="M135.46,222.2A34.86,34.86,0,0,1,119,219a27,27,0,0,1-11.15-9.68A27.31,27.31,0,0,1,103.59,195a28.45,28.45,0,0,1,3.28-14.62,26.14,26.14,0,0,1,10.06-10.3,31,31,0,0,1,14.86-4,30.31,30.31,0,0,1,14.56,3,26,26,0,0,1,10.48,9.44,29.16,29.16,0,0,1,4.2,15c0,.61,0,1.31,0,2.09s-.1,1.51-.14,2.18l-44.34,1.3-.27-9.23,36-1.06-6.11,2.92a14.53,14.53,0,0,0-1.84-7.36,12.62,12.62,0,0,0-4.92-4.78,14,14,0,0,0-7.15-1.57,14.16,14.16,0,0,0-7.1,2,12.42,12.42,0,0,0-4.68,5.11,15.86,15.86,0,0,0-1.5,7.61l.07,2.44a15,15,0,0,0,2.26,7.85,13.4,13.4,0,0,0,5.73,5,18.77,18.77,0,0,0,8.58,1.53,20.24,20.24,0,0,0,7.52-1.54,18.48,18.48,0,0,0,5.92-4.14l8.69,8.89a24.53,24.53,0,0,1-9.25,6.82A35.06,35.06,0,0,1,135.46,222.2Z" transform="translate(-2.29)"></path><path class="cls-2" d="M218,219.78A25,25,0,0,1,207,217.92a17,17,0,0,1-7.23-5.73,14.91,14.91,0,0,1-2.73-8.35,14.38,14.38,0,0,1,9.53-14.49q5.11-2.19,13.54-2.43l14.4-.42.27,9.13L222,196c-3.72.11-6.26.8-7.61,2.05a5.85,5.85,0,0,0-1.95,4.63,5.71,5.71,0,0,0,2.53,4.75,10.52,10.52,0,0,0,6.49,1.59,14.41,14.41,0,0,0,7.21-2,10,10,0,0,0,4.35-5.71l2.65,7.33a14.36,14.36,0,0,1-6.06,8.05Q225.16,219.58,218,219.78Zm16.62-1.29-.32-10.66-1.08-2.3-.56-19.08a10.16,10.16,0,0,0-3.32-7.82q-3.18-2.74-9.57-2.56a27.31,27.31,0,0,0-8.54,1.62A23.94,23.94,0,0,0,204,181.6l-5.91-10.89a32.07,32.07,0,0,1,10.62-5.24,49.56,49.56,0,0,1,12.73-2.05q12.48-.36,19.55,5.32t7.44,18.16l.91,31.15Z" transform="translate(-2.29)"></path><path class="cls-2" d="M263.69,217.63l-1.6-54.58,15.12-.45.45,15.53-2.26-4.51a17.56,17.56,0,0,1,7.55-9,26.57,26.57,0,0,1,13-3.38l.43,14.72a16.62,16.62,0,0,0-1.78-.26,13.7,13.7,0,0,0-1.68,0q-6.69.19-10.54,4.07t-3.62,11.68l.75,25.77Z" transform="translate(-2.29)"></path><path class="cls-2" d="M333.62,216.4a35,35,0,0,1-16.44-3.17,26.63,26.63,0,0,1-15.43-24A28.32,28.32,0,0,1,305,174.59a26,26,0,0,1,10.06-10.3,30.85,30.85,0,0,1,14.86-4,30.08,30.08,0,0,1,14.56,3A25.93,25.93,0,0,1,355,172.72a29,29,0,0,1,4.19,15c0,.61,0,1.3,0,2.08s-.09,1.51-.14,2.19l-44.34,1.29-.27-9.23,36-1.05-6.1,2.92a14.38,14.38,0,0,0-1.85-7.36,12.53,12.53,0,0,0-4.91-4.78,13.77,13.77,0,0,0-7.15-1.57,14.13,14.13,0,0,0-7.1,2,12.45,12.45,0,0,0-4.68,5.12,15.6,15.6,0,0,0-1.5,7.61l.07,2.43a15,15,0,0,0,2.26,7.86,13.47,13.47,0,0,0,5.73,5,18.91,18.91,0,0,0,8.58,1.52,20.09,20.09,0,0,0,7.52-1.54A18.71,18.71,0,0,0,347.2,198l8.69,8.88a24.63,24.63,0,0,1-9.25,6.83A34.86,34.86,0,0,1,333.62,216.4Z" transform="translate(-2.29)"></path><path class="cls-2" d="M18.54,314.56l-2.08-71,30.74-.9a39.87,39.87,0,0,1,16.53,2.61,24,24,0,0,1,10.91,8.57,24.63,24.63,0,0,1-9.59,36.63,39.45,39.45,0,0,1-16.34,3.63L27,294.71l7.3-7.62.79,27Zm15.8-25.65-7.74-7.59,20.8-.61q7.51-.21,11.27-3.58t3.59-9.24q-.16-5.88-4.12-9t-11.46-2.86l-20.8.6,7.28-8Z" transform="translate(-2.29)"></path><path class="cls-2" d="M91.79,312.42l-2.07-71,30.74-.9A40,40,0,0,1,137,243.11a24.05,24.05,0,0,1,10.91,8.56,26.94,26.94,0,0,1,.8,27.45,23.52,23.52,0,0,1-10.39,9A41.1,41.1,0,0,1,122,291.63l-21.72.64,7.3-7.33.79,27Zm15.81-25.65-7.74-7.59,20.8-.61q7.5-.22,11.27-3.58t3.59-9.24q-.18-5.89-4.12-9t-11.46-2.87l-20.8.61,7.28-8Zm29.45,24.32-18.61-25.25,17.65-.51,18.61,25.25Z" transform="translate(-2.29)"></path><path class="cls-2" d="M166.37,310.24l-2.08-71,16.54-.48,2.08,71Z" transform="translate(-2.29)"></path><path class="cls-2" d="M199.65,309.26l-2.08-71,13.6-.4,43.4,49.91-6.6.2-1.49-51.14,16.23-.48,2.08,71-13.6.4-43.4-49.92,6.6-.19,1.49,51.14Z" transform="translate(-2.29)"></path><path class="cls-2" d="M315.66,307.09a42.63,42.63,0,0,1-15.35-2.24,35.54,35.54,0,0,1-20.86-18.74,38.9,38.9,0,0,1-.86-29.42,35.24,35.24,0,0,1,7.77-11.91,36.58,36.58,0,0,1,12.06-8,45.18,45.18,0,0,1,32-.43,32.46,32.46,0,0,1,12.86,9L332.93,255.4a24.16,24.16,0,0,0-8.25-6.05,22.6,22.6,0,0,0-9.85-1.85,24.46,24.46,0,0,0-9.09,1.94,21.14,21.14,0,0,0-11.57,12.27,26.38,26.38,0,0,0,.54,18.47A21.06,21.06,0,0,0,307,291.75a24.12,24.12,0,0,0,9.18,1.41,22.09,22.09,0,0,0,9.73-2.47,24.73,24.73,0,0,0,7.88-6.57l10.94,9.43a32.88,32.88,0,0,1-12.31,9.8A42,42,0,0,1,315.66,307.09Z" transform="translate(-2.29)"></path><path class="cls-2" d="M372,291l38.66-1.13.38,13.19-55,1.61-2.08-71,53.68-1.57.38,13.19-37.33,1.09Zm-2.07-29.28,34.19-1,.38,12.89-34.2,1Z" transform="translate(-2.29)"></path><path class="cls-2" d="M447.56,303.23a58.34,58.34,0,0,1-16.46-1.8,38.3,38.3,0,0,1-12.8-5.57l5.22-12.54a38.58,38.58,0,0,0,10.91,5A39.84,39.84,0,0,0,447.17,290,25,25,0,0,0,455,288.8a9.86,9.86,0,0,0,4.34-2.82,5.91,5.91,0,0,0,1.31-4,5.38,5.38,0,0,0-2.37-4.45,18.45,18.45,0,0,0-6-2.57c-2.5-.63-5.2-1.23-8.13-1.79s-5.88-1.25-8.85-2.08a35.13,35.13,0,0,1-8.22-3.41,17.24,17.24,0,0,1-6.06-5.82,18,18,0,0,1-2.45-9.22,20,20,0,0,1,2.92-11.2,22.31,22.31,0,0,1,9.66-8.31q6.56-3.18,16.6-3.48A55.05,55.05,0,0,1,461,230.94a39.29,39.29,0,0,1,11.55,4.33l-4.81,12.53a42,42,0,0,0-10-3.82A37.58,37.58,0,0,0,448,242.9a23.36,23.36,0,0,0-7.79,1.29,9,9,0,0,0-4.22,3,6.54,6.54,0,0,0-1.25,4.1,5.48,5.48,0,0,0,2.36,4.5,16.48,16.48,0,0,0,6,2.51c2.46.58,5.18,1.14,8.18,1.69s6,1.27,8.9,2.13a39.58,39.58,0,0,1,8.12,3.37,17.36,17.36,0,0,1,6.1,5.71,17.17,17.17,0,0,1,2.56,9.12,19.47,19.47,0,0,1-3,11.05,23,23,0,0,1-9.76,8.31Q457.6,302.94,447.56,303.23Z" transform="translate(-2.29)"></path><path class="cls-2" d="M512.29,301.34a58.75,58.75,0,0,1-16.46-1.81A38.1,38.1,0,0,1,483,294l5.22-12.54a38.71,38.71,0,0,0,10.91,5,40.41,40.41,0,0,0,12.74,1.71,25.11,25.11,0,0,0,7.84-1.25,9.73,9.73,0,0,0,4.33-2.81,5.91,5.91,0,0,0,1.31-3.95,5.36,5.36,0,0,0-2.37-4.45,18.15,18.15,0,0,0-6-2.57c-2.49-.64-5.2-1.23-8.13-1.79s-5.87-1.25-8.84-2.08a35.64,35.64,0,0,1-8.23-3.41,17.24,17.24,0,0,1-6.06-5.82,18.11,18.11,0,0,1-2.45-9.22,20,20,0,0,1,2.92-11.2,22.25,22.25,0,0,1,9.66-8.31q6.56-3.18,16.6-3.48a54.55,54.55,0,0,1,13.29,1.24,39.08,39.08,0,0,1,11.55,4.33l-4.81,12.53a41.24,41.24,0,0,0-10-3.82,37.18,37.18,0,0,0-9.78-1.09,23.53,23.53,0,0,0-7.78,1.3,9,9,0,0,0-4.23,3,6.53,6.53,0,0,0-1.25,4.09,5.46,5.46,0,0,0,2.36,4.5,16.29,16.29,0,0,0,6,2.52c2.45.57,5.17,1.14,8.17,1.69a91.37,91.37,0,0,1,8.9,2.13,39.56,39.56,0,0,1,8.12,3.36,16.55,16.55,0,0,1,8.66,14.83,19.51,19.51,0,0,1-3,11.06,22.94,22.94,0,0,1-9.76,8.3Q522.34,301,512.29,301.34Z" transform="translate(-2.29)"></path><path class="cls-2" d="M572.93,298.35l29.47-72,16.24-.48L652.57,296l-17.24.5-27.91-61.94,6.59-.19-24.24,63.46Zm15.48-15.69,3.8-12.6L628.94,269l4.62,12.36Z" transform="translate(-2.29)"></path><path class="cls-2" d="M660,295.8l-2.08-71,13.6-.39,43.4,49.91-6.6.19-1.49-51.14,16.23-.47,2.08,71-13.6.4-43.4-49.91,6.6-.19,1.49,51.14Z" transform="translate(-2.29)"></path><path class="cls-2" d="M759.62,292.89l-.85-29,4,9.83-32.87-51,17.56-.52,25.1,39.08-10,.29L785.44,221l16-.46-29.63,52.86,3.47-10.06.85,29Z" transform="translate(-2.29)"></path><path class="cls-2" d="M809.84,291.42l-2.07-71,13.59-.4,31.7,49.24-7.2.21,28.16-51,13.7-.4,2.08,71-15.33.45-1.58-47.38,3-.09-22.78,40.47-7.31.22-25.41-39.07,3.35-.1L825.16,291Z" transform="translate(-2.29)"></path><path class="cls-2" d="M941.17,288.79a42.5,42.5,0,0,1-15.5-2.28,37.68,37.68,0,0,1-12.61-7.35,35,35,0,0,1-8.51-11.43,38.59,38.59,0,0,1-.85-29.28,35.1,35.1,0,0,1,7.83-11.85,37.52,37.52,0,0,1,12.1-8.07,42.41,42.41,0,0,1,15.39-3.2,43.27,43.27,0,0,1,15.55,2.24,37.13,37.13,0,0,1,12.56,7.3,34.74,34.74,0,0,1,8.5,11.43,38.66,38.66,0,0,1,.86,29.37,34.51,34.51,0,0,1-7.82,12,37,37,0,0,1-12.1,8A43.08,43.08,0,0,1,941.17,288.79Zm-.41-13.9a22.41,22.41,0,0,0,8.73-1.93,21.18,21.18,0,0,0,6.91-5,21.89,21.89,0,0,0,4.51-7.34,26,26,0,0,0-.53-18.37,22.12,22.12,0,0,0-4.93-7.07,21.4,21.4,0,0,0-7.2-4.56,22.53,22.53,0,0,0-8.82-1.42,23,23,0,0,0-8.78,1.94,20.57,20.57,0,0,0-6.91,5,22.43,22.43,0,0,0-4.46,7.34,26.11,26.11,0,0,0,.54,18.37,22.25,22.25,0,0,0,4.88,7.06,20.57,20.57,0,0,0,7.19,4.57A22.9,22.9,0,0,0,940.76,274.89Z" transform="translate(-2.29)"></path><path class="cls-2" d="M992.37,286.08l-2.07-71,30.74-.9a40,40,0,0,1,16.53,2.62,24.11,24.11,0,0,1,10.91,8.56,26.94,26.94,0,0,1,.8,27.45,23.52,23.52,0,0,1-10.39,9,41.1,41.1,0,0,1-16.35,3.47l-21.72.64,7.3-7.33.79,27Zm15.81-25.65-7.74-7.59,20.8-.61q7.52-.22,11.27-3.58t3.59-9.24q-.18-5.9-4.12-9t-11.46-2.87l-20.8.61,7.28-8Zm29.45,24.32L1019,259.5l17.65-.51,18.61,25.25Z" transform="translate(-2.29)"></path><path class="cls-2" d="M1082.9,270.23l38.66-1.13.38,13.19-55,1.61-2.08-71,53.67-1.57.39,13.19-37.34,1.09Zm-2.08-29.29,34.2-1,.37,12.89-34.19,1Z" transform="translate(-2.29)"></path><path class="cls-2" d="M1134.2,257.15,1129.81,211l18.77-.55-1.79,46.36Zm7.14,25.38a9.64,9.64,0,0,1-7.13-2.53,8.8,8.8,0,0,1-3-6.41,8.46,8.46,0,0,1,2.6-6.53,10,10,0,0,1,7-2.79,9.62,9.62,0,0,1,7,2.38,8.56,8.56,0,0,1,2.88,6.37,8.93,8.93,0,0,1-2.5,6.57A9.3,9.3,0,0,1,1141.34,282.53Z" transform="translate(-2.29)"></path></g></g></g></svg>