<svg xmlns="http://www.w3.org/2000/svg" viewBox="0 0 2357.06 631.58"><defs><style>.cls-1{fill:#fff;stroke-width:5px;}.cls-1,.cls-2{stroke:#fff;stroke-miterlimit:10;}.cls-2{fill:none;stroke-width:6px;}</style></defs><title>1</title><g id="Camada_2" data-name="Camada 2"><g id="Camada_1-2" data-name="Camada 1"><path class="cls-1" d="M63.39,445.07,16.72,336.37l30.35-1.81L86,428.18l-14.65.87,29-97.66,27.46-1.64,39.14,93.61-14,.84,28.38-97.63,28.49-1.7L176.12,438.35l-31,1.85L110.54,360l9.29-.56L94.57,443.21Z"></path><path class="cls-1" d="M283.59,433.61q-19,1.13-33.69-5.45a55.05,55.05,0,0,1-23.3-19q-8.62-12.43-9.6-29a57.84,57.84,0,0,1,5.78-30,53,53,0,0,1,19.85-21.6,63,63,0,0,1,30-9.14,61.46,61.46,0,0,1,29.85,5.27,52.92,52.92,0,0,1,21.93,18.58q8.4,12.36,9.47,30.31c.07,1.24.08,2.66,0,4.25s-.09,3.08-.14,4.46l-90.23,5.38-1.12-18.79,73.3-4.37-12.27,6.33a29.52,29.52,0,0,0-4.2-14.88,25.7,25.7,0,0,0-10.3-9.44,28.21,28.21,0,0,0-14.67-2.75A28.82,28.82,0,0,0,260,348.3a25.26,25.26,0,0,0-9.2,10.7,31.94,31.94,0,0,0-2.6,15.59l.3,5a30.5,30.5,0,0,0,5.09,15.86,27.24,27.24,0,0,0,12,9.75q7.44,3.18,17.56,2.58a41,41,0,0,0,15.22-3.6,38,38,0,0,0,11.81-8.78l18.24,17.56A50.11,50.11,0,0,1,310,427.38Q298.66,432.71,283.59,433.61Z"></path><path class="cls-1" d="M451.45,423.61q-12.81.76-22.36-3.12A34.65,34.65,0,0,1,414,409.27a30.41,30.41,0,0,1-6.08-16.84,31.22,31.22,0,0,1,3.83-17.53q4.39-7.83,14.68-12.58t27.42-5.78l29.32-1.75,1.11,18.59-26,1.55q-11.37.68-15.37,4.64a11.87,11.87,0,0,0-3.68,9.54,11.58,11.58,0,0,0,5.44,9.52q5.06,3.33,13.32,2.84a29.27,29.27,0,0,0,14.54-4.6,20.3,20.3,0,0,0,8.51-11.9l5.86,14.77a29.26,29.26,0,0,1-11.85,16.77Q466.1,422.74,451.45,423.61Zm33.76-3.67-1.29-21.67-2.35-4.63-2.31-38.82q-.61-10.32-7.26-15.73t-19.65-4.63a56,56,0,0,0-17.28,3.83,49,49,0,0,0-14.31,8.41l-12.7-21.83a65.6,65.6,0,0,1,21.29-11.31,100.68,100.68,0,0,1,25.81-5q25.41-1.52,40.15,9.63t16.27,36.53l3.77,63.39Z"></path><path class="cls-1" d="M544.47,416.42l-6.62-111.09,30.76-1.83,1.89,31.59-4.89-9a35.77,35.77,0,0,1,14.83-18.81q10.57-6.74,26.27-7.68l1.79,29.94c-1.26-.2-2.48-.33-3.65-.4a27.87,27.87,0,0,0-3.42,0q-13.63.81-21.23,8.93t-6.65,24l3.12,52.45Z"></path><path class="cls-1" d="M686.83,409.59q-19,1.14-33.69-5.45a54.23,54.23,0,0,1-32.9-48,57.84,57.84,0,0,1,5.78-30,53,53,0,0,1,19.85-21.59,63,63,0,0,1,30-9.14,61.51,61.51,0,0,1,29.84,5.26,52.91,52.91,0,0,1,21.94,18.59q8.39,12.35,9.47,30.31c.07,1.24.08,2.65,0,4.24s-.09,3.08-.15,4.47L646.8,363.7l-1.12-18.79L719,340.55l-12.26,6.32a29.52,29.52,0,0,0-4.2-14.88,25.74,25.74,0,0,0-10.3-9.43,28.21,28.21,0,0,0-14.67-2.75,28.66,28.66,0,0,0-14.34,4.48A25.29,25.29,0,0,0,654,335a32,32,0,0,0-2.59,15.59l.3,4.95a30.52,30.52,0,0,0,5.08,15.86,27.41,27.41,0,0,0,12,9.76q7.44,3.18,17.56,2.57a41,41,0,0,0,15.22-3.6,37.88,37.88,0,0,0,11.81-8.78l18.24,17.56a49.85,49.85,0,0,1-18.41,14.46Q701.9,408.7,686.83,409.59Z"></path><path class="cls-1" d="M51.13,628.94l-8.6-144.53,62.56-3.73q19.39-1.15,33.82,4.31a49.13,49.13,0,0,1,22.76,16.77q8.33,11.31,9.3,27.42,1,16.32-6,28.43T144.39,577q-13.66,7.23-33.07,8.39L67.14,588l14.38-16,3.27,54.92Zm30.61-53.21-16.23-15,42.33-2.52q15.27-.91,22.73-8t6.74-19.05q-.72-12-8.95-18t-23.51-5.12l-42.33,2.52,14.34-16.81Z"></path><path class="cls-1" d="M200.21,620.06,191.6,475.53l62.56-3.73q19.41-1.16,33.82,4.31a49.08,49.08,0,0,1,22.76,16.77q8.34,11.33,9.3,27.42,1,16.32-6,28.43a48,48,0,0,1-20.63,19q-13.68,6.93-33.08,8.08l-44.19,2.64,14.42-15.37,3.27,54.92Zm30.6-53.21-16.22-15,42.32-2.52q15.29-.92,22.73-8t6.74-19.05q-.7-12-8.94-18t-23.51-5.12l-42.33,2.52,14.33-16.81Zm61.48,47.72-39.46-50.28,35.93-2.13,39.46,50.28Z"></path><path class="cls-1" d="M352,611l-8.61-144.53,33.66-2L385.62,609Z"></path><path class="cls-1" d="M419.68,607l-8.61-144.53,27.67-1.65,91.47,99-13.42.8-6.2-104.06,33-2,8.61,144.53-27.67,1.65-91.47-99,13.42-.8L452.72,605Z"></path><path class="cls-1" d="M655.83,595.41a86.69,86.69,0,0,1-31.4-3.62,72.33,72.33,0,0,1-43.64-36.87A79.24,79.24,0,0,1,577.22,495a71.85,71.85,0,0,1,15.11-24.73,74.11,74.11,0,0,1,24-17.07,91.84,91.84,0,0,1,65.21-2.85A66.27,66.27,0,0,1,708.33,468l-20.5,21.11a49.35,49.35,0,0,0-17.18-11.82,46.07,46.07,0,0,0-20.18-3.15,49.46,49.46,0,0,0-18.38,4.51,43,43,0,0,0-22.82,25.71,53.57,53.57,0,0,0,2.24,37.58,42.93,42.93,0,0,0,25.7,22.81A49.17,49.17,0,0,0,656,567a45.23,45.23,0,0,0,19.66-5.62,50.58,50.58,0,0,0,15.65-13.88L714.17,566a67.11,67.11,0,0,1-24.46,20.73Q674.82,594.28,655.83,595.41Z"></path><path class="cls-1" d="M769.5,559.22l78.66-4.69,1.6,26.84L737.85,588l-8.61-144.53L838.47,437l1.6,26.85-76,4.52Zm-6-59.52,69.58-4.15,1.56,26.22L765,525.92Z"></path><path class="cls-1" d="M924.24,579.43a119.62,119.62,0,0,1-33.63-2.66q-16.27-3.71-26.42-10.55L874,540.35a79.11,79.11,0,0,0,22.54,9.54,81.88,81.88,0,0,0,26.06,2.69q9.9-.58,15.88-3t8.65-6a11.94,11.94,0,0,0,2.42-8.12,10.93,10.93,0,0,0-5.09-8.92,37.16,37.16,0,0,0-12.41-4.85q-7.67-1.73-16.66-3.16t-18.14-3.68a71.77,71.77,0,0,1-17-6.45,35.07,35.07,0,0,1-12.71-11.47q-4.89-7.28-5.56-18.63a40.86,40.86,0,0,1,5.26-23q6-10.62,19.16-17.51t33.6-8.11a110.92,110.92,0,0,1,27.14,1.7,79.81,79.81,0,0,1,23.8,8.11l-9,25.82a84.46,84.46,0,0,0-20.53-7.17,76,76,0,0,0-20-1.61q-9.9.58-15.76,3.12t-8.43,6.4a13.48,13.48,0,0,0-2.29,8.43,11.18,11.18,0,0,0,5.09,9,33.39,33.39,0,0,0,12.3,4.76q7.56,1.51,16.75,2.94A179.27,179.27,0,0,1,947.39,495a79.53,79.53,0,0,1,16.74,6.36,35.27,35.27,0,0,1,12.8,11.25q5.09,7.26,5.75,18.41a39.52,39.52,0,0,1-5.38,22.7q-6.1,10.52-19.36,17.52T924.24,579.43Z"></path><path class="cls-1" d="M1056,571.58a119.21,119.21,0,0,1-33.62-2.66q-16.27-3.69-26.42-10.55l9.85-25.86A79.44,79.44,0,0,0,1028.3,542a81.61,81.61,0,0,0,26.06,2.7q9.92-.59,15.88-3t8.66-6a11.93,11.93,0,0,0,2.42-8.12,10.91,10.91,0,0,0-5.09-8.91,37.55,37.55,0,0,0-12.41-4.86q-7.68-1.73-16.66-3.15T1029,507a71.93,71.93,0,0,1-17-6.45,34.93,34.93,0,0,1-12.7-11.46q-4.89-7.27-5.56-18.63a40.76,40.76,0,0,1,5.26-23q6-10.62,19.16-17.51t33.6-8.12a112,112,0,0,1,27.14,1.7,80.21,80.21,0,0,1,23.79,8.11l-9,25.82a84.39,84.39,0,0,0-20.52-7.17,76,76,0,0,0-20-1.6q-9.92.58-15.77,3.11t-8.42,6.41a13.48,13.48,0,0,0-2.3,8.42,11.18,11.18,0,0,0,5.1,9,33.32,33.32,0,0,0,12.3,4.76q7.55,1.53,16.75,2.94a184.66,184.66,0,0,1,18.25,3.78,80.73,80.73,0,0,1,16.75,6.36,35.36,35.36,0,0,1,12.79,11.26q5.1,7.26,5.76,18.41a39.58,39.58,0,0,1-5.38,22.69q-6.1,10.53-19.37,17.53T1056,571.58Z"></path><path class="cls-1" d="M1179.28,561.75l55.61-148.36,33-2,73.44,140.67-35.1,2.09L1245.6,429.75,1259,429l-45.46,130.76Zm30.57-32.9,7-25.9,74.74-4.45,10.18,24.88Z"></path><path class="cls-1" d="M1356.43,551.2l-8.6-144.53,27.66-1.65L1467,504l-13.42.8-6.2-104.06,33-2L1489,543.31,1461.32,545l-91.47-99,13.42-.8,6.2,104.06Z"></path><path class="cls-1" d="M1559.19,539.12l-3.52-59.05,8.85,19.78-70.1-101.91,35.72-2.13,53.55,78-20.44,1.21,44.11-83.85,32.62-1.94-57.09,109.49,6.44-20.69,3.51,59.05Z"></path><path class="cls-1" d="M1661.39,533l-8.6-144.53,27.66-1.65,67.61,98.33-14.66.88,54.21-105.59,27.88-1.66,8.6,144.53-31.17,1.85-6.16-96.39,6.2-.37-43.91,83.84-14.87.88-54.16-78,6.81-.4,5.74,96.42Z"></path><path class="cls-1" d="M1928.71,519.6a86.49,86.49,0,0,1-31.71-3.7,76.44,76.44,0,0,1-26.13-14.19,71,71,0,0,1-18-22.76,78.41,78.41,0,0,1-3.55-59.57,71.61,71.61,0,0,1,15.21-24.63,76.68,76.68,0,0,1,24.16-17.18,86.23,86.23,0,0,1,31.15-7.45,88,88,0,0,1,31.81,3.59,75.37,75.37,0,0,1,26,14.1,71,71,0,0,1,18,22.75,79,79,0,0,1,3.56,59.78,70.42,70.42,0,0,1-15.2,24.83,75.3,75.3,0,0,1-24.15,17.09A88.07,88.07,0,0,1,1928.71,519.6ZM1927,491.32a46.19,46.19,0,0,0,17.66-4.47,43.62,43.62,0,0,0,13.77-10.56,44.91,44.91,0,0,0,8.73-15.23,53.09,53.09,0,0,0-2.23-37.38,44.72,44.72,0,0,0-10.47-14.08,43.58,43.58,0,0,0-14.93-8.85,46,46,0,0,0-18.06-2.35,46.7,46.7,0,0,0-17.76,4.48A42.15,42.15,0,0,0,1890,413.44a45.69,45.69,0,0,0-8.62,15.22,53.09,53.09,0,0,0,2.23,37.38,45.4,45.4,0,0,0,10.37,14.09,41.89,41.89,0,0,0,14.92,8.85A46.91,46.91,0,0,0,1927,491.32Z"></path><path class="cls-1" d="M2032.83,510.92l-8.6-144.53,62.56-3.73q19.41-1.16,33.82,4.3t22.76,16.78q8.34,11.31,9.3,27.42,1,16.3-6,28.43t-20.62,19.05q-13.68,6.93-33.08,8.08l-44.19,2.63L2063.22,454l3.27,54.92Zm30.61-53.21-16.23-15,42.33-2.52q15.28-.92,22.73-8t6.74-19q-.71-12-8.94-18T2086.55,390l-42.32,2.52,14.33-16.81Zm61.48,47.72-39.46-50.28,35.93-2.14,39.46,50.28Z"></path><path class="cls-1" d="M2216.23,473.06l78.67-4.69,1.6,26.84-111.91,6.67L2176,357.35l109.22-6.51,1.6,26.84-76,4.53Zm-6-59.53,69.58-4.14,1.56,26.22-69.58,4.15Z"></path><path class="cls-1" d="M2319.92,443.26l-11.8-93.78,38.2-2.28-.79,94.54ZM2336,494.52a19.69,19.69,0,0,1-14.68-4.72,17.94,17.94,0,0,1-6.47-12.88,17.18,17.18,0,0,1,4.9-13.45,20.38,20.38,0,0,1,14-6.12q8.67-.51,14.45,4.43a17.49,17.49,0,0,1,6.26,12.78,18.26,18.26,0,0,1-4.69,13.54Q2344.69,494,2336,494.52Z"></path><path class="cls-2" d="M49.23,205.55a98.47,98.47,0,0,1-25.31-1.64q-12.17-2.43-19.69-6.75l8.45-21.7a75.1,75.1,0,0,0,17.26,5.94A68.41,68.41,0,0,0,49,183q10.27-.61,14.41-3.34c2.75-1.82,4-4.19,3.87-7.11a5.83,5.83,0,0,0-3.65-5.22,29.24,29.24,0,0,0-8.92-2.24q-5.47-.63-12.2-1.18a119.27,119.27,0,0,1-13.38-1.88,51.32,51.32,0,0,1-12.47-4.13,23.9,23.9,0,0,1-9.46-8.12q-3.66-5.33-4.18-14.08a27.71,27.71,0,0,1,4.68-17.56Q13,110.31,23.22,105.5t25.06-5.69a98.5,98.5,0,0,1,21.55,1.1,66.5,66.5,0,0,1,18.57,5.48l-8.83,21.73a52.91,52.91,0,0,0-15.1-5A64.54,64.54,0,0,0,50,122.24q-10.28.62-14.69,3.55c-2.94,2-4.32,4.33-4.16,7.12a6.37,6.37,0,0,0,3.78,5.6,26.68,26.68,0,0,0,9.12,2.42q5.56.63,12.29,1.18A113.65,113.65,0,0,1,69.63,144,51.57,51.57,0,0,1,82,148.12a23.92,23.92,0,0,1,9.46,8.13q3.66,5.33,4.18,14.07a26.46,26.46,0,0,1-4.71,17Q85.65,195,75.15,199.81T49.23,205.55Z"></path><path class="cls-2" d="M172.25,170.73a19.45,19.45,0,0,1-11.95,4.53,11.69,11.69,0,0,1-9.26-3.08q-3.54-3.42-3.93-9.89l-2.47-41.48L170,119.3l-1.36-22.84L143.28,98,141.8,73l-29.88,1.78,1.48,24.93-15.79.94L99,123.53l15.79-.94,2.51,42q1.08,18.27,11.72,26.9t28.72,7.55a53.74,53.74,0,0,0,13.13-2.4,30.59,30.59,0,0,0,10.46-5.49Z"></path><path class="cls-2" d="M289.12,189.74l-3.48-58.42q-1.39-23.41-15-33.68t-37-8.87a92.49,92.49,0,0,0-23.79,4.57,60.42,60.42,0,0,0-19.62,10.43l11.7,20.12a45.1,45.1,0,0,1,13.19-7.76,51.78,51.78,0,0,1,15.93-3.53q12-.7,18.11,4.27t6.69,14.5v.19L232.45,133q-15.8.93-25.27,5.32t-13.54,11.6A28.77,28.77,0,0,0,190.11,166a28,28,0,0,0,5.61,15.51,31.89,31.89,0,0,0,13.89,10.35q8.8,3.58,20.6,2.88,13.51-.81,21.77-6.55a27.09,27.09,0,0,0,8.59-9.61l.76,12.78Zm-39.46-19.61a27,27,0,0,1-13.4,4.23q-7.62.46-12.29-2.61a10.7,10.7,0,0,1-5-8.77,11,11,0,0,1,3.39-8.8q3.71-3.65,14.17-4.28l20.36-1.21.62,10.47h0A18.73,18.73,0,0,1,249.66,170.13Z"></path><path class="cls-2" d="M372.45,158.8a19.4,19.4,0,0,1-11.95,4.54,11.72,11.72,0,0,1-9.25-3.08q-3.56-3.42-3.93-9.89l-2.48-41.49,25.31-1.5L368.8,84.54l-25.32,1.51L342,61.11l-29.88,1.78,1.49,24.93-15.8,1,1.36,22.83,15.8-.94,2.5,42.06q1.09,18.27,11.72,26.9t28.72,7.55a53.65,53.65,0,0,0,13.13-2.4,30.34,30.34,0,0,0,10.46-5.5Z"></path><path class="cls-2" d="M501.88,177.07,495.79,74.68l-29.5,1.76,3,50.81q.56,9.13-2.23,15.41a21.55,21.55,0,0,1-7.92,9.64,24.1,24.1,0,0,1-12,3.77q-9.9.6-15.68-5.08t-6.55-18.61l-3.18-53.29-29.68,1.77,3.44,57.85q.93,15.61,7.06,25.56a35.08,35.08,0,0,0,16.32,14.3A50.41,50.41,0,0,0,442,182.16a44.48,44.48,0,0,0,21.37-6.71,35.26,35.26,0,0,0,9.59-8.86l.73,12.16Z"></path><path class="cls-2" d="M564,174.9a98.81,98.81,0,0,1-25.3-1.65q-12.18-2.42-19.7-6.75l8.45-21.7a75.1,75.1,0,0,0,17.26,5.94,68.41,68.41,0,0,0,19.1,1.63q10.27-.6,14.41-3.34c2.76-1.82,4-4.18,3.87-7.1a5.84,5.84,0,0,0-3.65-5.23,29.16,29.16,0,0,0-8.92-2.24q-5.47-.63-12.2-1.18A119.27,119.27,0,0,1,544,131.4a50.89,50.89,0,0,1-12.47-4.13,23.9,23.9,0,0,1-9.46-8.12q-3.66-5.33-4.18-14.08a27.71,27.71,0,0,1,4.68-17.56q5.26-7.86,15.48-12.67t25.06-5.69a99.13,99.13,0,0,1,21.55,1.1,66,66,0,0,1,18.57,5.49l-8.83,21.72a52.91,52.91,0,0,0-15.1-5,65.13,65.13,0,0,0-14.47-.86q-10.28.61-14.68,3.55t-4.16,7.12a6.34,6.34,0,0,0,3.77,5.6,26.68,26.68,0,0,0,9.12,2.42q5.56.63,12.29,1.18a115.81,115.81,0,0,1,13.29,1.88,52,52,0,0,1,12.37,4.13,24,24,0,0,1,9.46,8.13q3.66,5.32,4.19,14.08a26.46,26.46,0,0,1-4.72,17q-5.28,7.67-15.78,12.49T564,174.9Z"></path><path class="cls-2" d="M787.53,160.06,781.44,57.67l-29.5,1.76,3,50.81q.56,9.14-2.23,15.41a21.55,21.55,0,0,1-7.92,9.64,24.2,24.2,0,0,1-12,3.77q-9.9.6-15.68-5.08t-6.55-18.61l-3.17-53.29-29.69,1.77,3.44,57.85q.93,15.62,7.06,25.56a35.08,35.08,0,0,0,16.32,14.3,50.54,50.54,0,0,0,23.14,3.59,44.59,44.59,0,0,0,21.37-6.71,35.42,35.42,0,0,0,9.59-8.86l.73,12.16Z"></path><path class="cls-2" d="M923.6,100.58q-.95-16-8.41-27.38a48.47,48.47,0,0,0-19.36-17.28,52,52,0,0,0-26.56-5q-13.14.78-22.6,7.08a33.88,33.88,0,0,0-8.58,8.23l-.7-11.88L809,56l8.3,139.3L847,193.57l-2.84-47.84a34.34,34.34,0,0,0,8.58,6.24,43.51,43.51,0,0,0,22.8,4.37,52,52,0,0,0,25.77-8.12,48.61,48.61,0,0,0,17.18-19.36Q924.56,116.76,923.6,100.58Zm-32.69,17.13a25.35,25.35,0,0,1-8.74,10.36,25.67,25.67,0,0,1-13,4.21,26.14,26.14,0,0,1-13.53-2.63,25.08,25.08,0,0,1-10-9.24,30.82,30.82,0,0,1-4.42-14.92,30.71,30.71,0,0,1,2.61-15.44,24.66,24.66,0,0,1,8.85-10.17,26.64,26.64,0,0,1,13.12-4.12,26.12,26.12,0,0,1,13.43,2.54,24.72,24.72,0,0,1,9.89,9.06,30.63,30.63,0,0,1,4.43,15A30.9,30.9,0,0,1,890.91,117.71Z"></path><path class="cls-2" d="M1050.73,144.38,1042.32,3.17l-29.69,1.77,3,49.54a34.2,34.2,0,0,0-8.38-6q-10.05-5.13-23-4.36a52.06,52.06,0,0,0-25.68,8.12,47.59,47.59,0,0,0-17.18,19.45q-6,12.19-5,28.18t8.31,27.39A47.66,47.66,0,0,0,964,144.49a52.2,52.2,0,0,0,26.46,5q13.51-.81,22.79-7a32.63,32.63,0,0,0,8.39-8.15l.7,11.71Zm-34.78-34a24.26,24.26,0,0,1-8.84,10.36,28,28,0,0,1-26.45,1.58,24.34,24.34,0,0,1-10-9.24,31.42,31.42,0,0,1-4.42-15,30.65,30.65,0,0,1,2.61-15.43,24.63,24.63,0,0,1,8.85-10.18,26.35,26.35,0,0,1,12.93-4.11,26.77,26.77,0,0,1,13.52,2.54,24.5,24.5,0,0,1,10,9,30.66,30.66,0,0,1,4.43,15A31.42,31.42,0,0,1,1016,110.36Z"></path><path class="cls-2" d="M1168.72,137.36l-3.48-58.43q-1.4-23.4-15-33.67t-37-8.88A93.35,93.35,0,0,0,1089.45,41a60.37,60.37,0,0,0-19.63,10.43l11.71,20.12a45.08,45.08,0,0,1,13.19-7.75,51.49,51.49,0,0,1,15.93-3.53q12-.72,18.11,4.27t6.69,14.5v.19l-23.41,1.39q-15.79.95-25.27,5.33t-13.54,11.59a28.79,28.79,0,0,0-3.53,16.16,28,28,0,0,0,5.61,15.52,31.79,31.79,0,0,0,13.89,10.34q8.8,3.59,20.6,2.88,13.51-.79,21.77-6.55a27,27,0,0,0,8.59-9.61l.76,12.78Zm-39.46-19.62a27,27,0,0,1-13.41,4.24q-7.61.45-12.28-2.61a10.71,10.71,0,0,1-5-8.78,11,11,0,0,1,3.39-8.79q3.69-3.66,14.17-4.28l20.36-1.21.62,10.46h0A18.7,18.7,0,0,1,1129.26,117.74Z"></path><path class="cls-2" d="M1252.05,106.42a19.4,19.4,0,0,1-12,4.53,11.7,11.7,0,0,1-9.26-3.08q-3.54-3.41-3.93-9.88l-2.47-41.49L1249.75,55l-1.36-22.84-25.31,1.51L1221.6,8.73l-29.88,1.78,1.48,24.93-15.79.94,1.36,22.84,15.79-.94,2.51,42.06q1.08,18.27,11.72,26.9t28.72,7.55a53.66,53.66,0,0,0,13.13-2.41,30.59,30.59,0,0,0,10.46-5.49Z"></path><path class="cls-2" d="M1372.36,74.24q-1-16.56-8.73-27.94a48.62,48.62,0,0,0-20.21-17.13,56.74,56.74,0,0,0-27.5-4.86,58,58,0,0,0-27.67,8.43,49,49,0,0,0-18.3,19.9,53.38,53.38,0,0,0-5.32,27.63A50,50,0,0,0,1295,124.49q13.54,6.08,31,5a65.58,65.58,0,0,0,24.3-5.75,46,46,0,0,0,17-13.33l-16.81-16.18a35.07,35.07,0,0,1-10.88,8.09,38,38,0,0,1-14,3.32,35.43,35.43,0,0,1-16.19-2.38,25.18,25.18,0,0,1-11-9,25.51,25.51,0,0,1-3.47-7.44l77.43-4.61c0-1.27.1-2.64.14-4.11S1372.43,75.38,1372.36,74.24Zm-68.13-23.35a26.47,26.47,0,0,1,13.21-4.13A25.94,25.94,0,0,1,1331,49.29a23.74,23.74,0,0,1,9.5,8.7,25,25,0,0,1,3.29,8.59l-50.32,3a26.84,26.84,0,0,1,2.31-8.83A23.32,23.32,0,0,1,1304.23,50.89Z"></path><path class="cls-2" d="M1402.43,56.4a18.1,18.1,0,0,1-13.34-4.46,17.61,17.61,0,0,1-6.22-12.9q-.49-8.37,4.62-13.83a19.25,19.25,0,0,1,26.17-1.56q5.63,4.82,6.13,13.19a17.77,17.77,0,0,1-4.54,13.55A18,18,0,0,1,1402.43,56.4Zm4.07,68.32a18.13,18.13,0,0,1-13.35-4.45,17.68,17.68,0,0,1-6.21-12.91q-.5-8.37,4.62-13.83A19.25,19.25,0,0,1,1417.73,92q5.63,4.82,6.13,13.19a17.81,17.81,0,0,1-4.54,13.55A18,18,0,0,1,1406.5,124.72Z"></path><path d="M794.92,458.42l-17.3-233.61,54.4-4,140,146-25.69,1.9L934.81,213.16l64.74-4.79L1016.85,442l-54.4,4L822.12,300l25.69-1.9,11.52,155.52Z"></path><path d="M1181.73,434.47a145.08,145.08,0,0,1-52.23-5.19,119.74,119.74,0,0,1-73.17-59.18,118.68,118.68,0,0,1-13.44-47.83,116.57,116.57,0,0,1,6.28-48.78,120.59,120.59,0,0,1,63.5-69.14q23-10.75,51.06-12.84t52.4,5.18A123.21,123.21,0,0,1,1259.06,219a119.25,119.25,0,0,1,30,36.37q11.48,21.3,13.43,47.66,2,26.7-6.06,49.61a115.34,115.34,0,0,1-24.34,40.56,125,125,0,0,1-39.34,28.42Q1209.75,432.39,1181.73,434.47Zm-4.06-54.73a65.55,65.55,0,0,0,24.52-6.52,57.38,57.38,0,0,0,19-15,64.19,64.19,0,0,0,11.8-22,81,81,0,0,0-4.08-55.07,64.19,64.19,0,0,0-14.91-20,57.78,57.78,0,0,0-21-12,68.65,68.65,0,0,0-49.73,3.69,59.39,59.39,0,0,0-19.19,15,60.67,60.67,0,0,0-11.79,22,83.74,83.74,0,0,0,4.08,55.07,60.75,60.75,0,0,0,14.9,20,59.46,59.46,0,0,0,21.2,12A65.71,65.71,0,0,0,1177.67,379.74Z"></path><path d="M1392.3,414.17,1378.88,233l-71.75,5.31-3.88-52.39,209.25-15.5,3.88,52.39L1445,228.06l13.42,181.22Z"></path></g></g></svg>