<svg xmlns="http://www.w3.org/2000/svg" viewBox="0 0 1070.39 515.79"><defs><style>.cls-1{fill:#211915;}.cls-2{fill:#fff;}</style></defs><title>10</title><g id="Camada_2" data-name="Camada 2"><g id="Camada_1-2" data-name="Camada 1"><g id="pra_gnt" data-name="pra gnt"><rect class="cls-1" x="671.23" width="321.12" height="133.5"></rect><rect class="cls-1" x="67.35" y="148.87" width="1003.04" height="133.5"></rect><rect class="cls-1" y="297.6" width="926.87" height="133.5"></rect><path class="cls-1" d="M175.2,115.65V54.1h24A33.75,33.75,0,0,1,213,56.65,19.63,19.63,0,0,1,221.8,64a21,21,0,0,1,3.08,11.52A20.78,20.78,0,0,1,221.8,87,19.88,19.88,0,0,1,213,94.42,33.24,33.24,0,0,1,199.2,97H180l4-4.13v22.77ZM184,93.76l-4-4.4h18.9q8.44,0,12.79-3.6t4.36-10.2q0-6.6-4.36-10.2t-12.79-3.61H180l4-4.39Z" transform="translate(-13.83)"></path><path class="cls-1" d="M240.62,115.65V69.05h8.09V81.71l-.79-3.16a14.28,14.28,0,0,1,6.5-7.39,22.84,22.84,0,0,1,11.26-2.55v8.18a6,6,0,0,0-1-.09h-.93q-6.76,0-10.72,4t-4,11.69v23.21Z" transform="translate(-13.83)"></path><path class="cls-1" d="M291.09,116.18a21.89,21.89,0,0,1-9.1-1.76,13.9,13.9,0,0,1-6-4.88,12.39,12.39,0,0,1-2.11-7.07,13.34,13.34,0,0,1,1.81-6.86,12.46,12.46,0,0,1,5.89-4.93q4.08-1.84,11-1.84h14.78V94.9H292.94c-4.23,0-7.07.71-8.53,2.11a6.81,6.81,0,0,0-2.2,5.1,6.57,6.57,0,0,0,2.72,5.5q2.73,2.07,7.57,2.07a16,16,0,0,0,8.3-2.11,12,12,0,0,0,5.15-6.16l1.67,5.8a13.14,13.14,0,0,1-5.89,6.55A21.1,21.1,0,0,1,291.09,116.18Zm15.3-.53v-9.84L306,104V87.17q0-5.37-3.12-8.31t-9.37-3a24.94,24.94,0,0,0-8.09,1.36,21,21,0,0,0-6.68,3.65l-3.52-6.33a25.69,25.69,0,0,1,8.66-4.44,36.43,36.43,0,0,1,10.6-1.54q9.58,0,14.77,4.66t5.19,14.25v28.13Z" transform="translate(-13.83)"></path><path class="cls-1" d="M382.71,113.72a25.11,25.11,0,0,1-12.09-2.86,21.69,21.69,0,0,1-8.44-8,22.08,22.08,0,0,1-3.12-11.78,22,22,0,0,1,3.12-11.82,21.54,21.54,0,0,1,8.44-7.87,25.43,25.43,0,0,1,12.09-2.82A24.39,24.39,0,0,1,393.61,71a18.39,18.39,0,0,1,7.87,7.43q3,5,2.95,12.66t-2.95,12.58a19,19,0,0,1-7.87,7.51A23.54,23.54,0,0,1,382.71,113.72Zm1.06,19.52a43.29,43.29,0,0,1-12.45-1.8,25.68,25.68,0,0,1-9.8-5.15l4-6.5a24.14,24.14,0,0,0,8,4.44,30.5,30.5,0,0,0,9.93,1.63q8.26,0,12.14-3.87t3.86-11.79v-9.84l.88-9.24-.44-9.32V69.05h8v40.27q0,12.32-6.16,18.12T383.77,133.24Zm-.09-26.91a17.19,17.19,0,0,0,8.26-1.93A14.42,14.42,0,0,0,397.61,99a16.17,16.17,0,0,0,0-15.83,14,14,0,0,0-5.67-5.32A17.53,17.53,0,0,0,383.68,76a17.79,17.79,0,0,0-8.31,1.89,14.06,14.06,0,0,0-5.72,5.32,16.24,16.24,0,0,0,0,15.83,14.42,14.42,0,0,0,5.72,5.36A17.45,17.45,0,0,0,383.68,106.33Z" transform="translate(-13.83)"></path><path class="cls-1" d="M449.62,116.18a27.13,27.13,0,0,1-13.14-3.07,22.24,22.24,0,0,1-8.8-8.45,24,24,0,0,1-3.12-12.31,24.51,24.51,0,0,1,3-12.31A21.85,21.85,0,0,1,436,71.65a25.31,25.31,0,0,1,24-.05A21.14,21.14,0,0,1,468,80,25.92,25.92,0,0,1,471,92.62c0,.35,0,.76,0,1.23s-.08.91-.14,1.32H431.16V89.1h35.26L463,91.21a15.64,15.64,0,0,0-1.85-8,14.07,14.07,0,0,0-5.32-5.5,16.53,16.53,0,0,0-15.69,0,14,14,0,0,0-5.37,5.54,16.8,16.8,0,0,0-1.93,8.14v1.4A16.08,16.08,0,0,0,435,101.1a14.73,14.73,0,0,0,6,5.67,18.87,18.87,0,0,0,8.88,2,19.33,19.33,0,0,0,7.51-1.41,16.43,16.43,0,0,0,5.94-4.22l4.66,5.45a20.41,20.41,0,0,1-7.87,5.63A27.41,27.41,0,0,1,449.62,116.18Z" transform="translate(-13.83)"></path><path class="cls-1" d="M512.4,68.61a22.12,22.12,0,0,1,10.07,2.2,15.86,15.86,0,0,1,6.82,6.68,23.41,23.41,0,0,1,2.46,11.35v26.81h-8.44V89.8q0-6.76-3.3-10.2t-9.28-3.43a16.55,16.55,0,0,0-7.82,1.76,12.06,12.06,0,0,0-5.15,5.19,18.22,18.22,0,0,0-1.8,8.53v24h-8.44V69.05h8.09V81.63l-1.32-3.35a16.19,16.19,0,0,1,7-7.12A23,23,0,0,1,512.4,68.61Z" transform="translate(-13.83)"></path><path class="cls-1" d="M545.55,76v-7h29.72v7Zm22.69,40.18q-7,0-10.9-3.78t-3.87-10.81V58.85h8.44v42.38A8.19,8.19,0,0,0,563.8,107a7,7,0,0,0,5.41,2,9.92,9.92,0,0,0,6.59-2.2l2.64,6.07a12.36,12.36,0,0,1-4.62,2.46A19.55,19.55,0,0,1,568.24,116.18Z" transform="translate(-13.83)"></path><path class="cls-1" d="M612.64,116.18a27.13,27.13,0,0,1-13.14-3.07,22.22,22.22,0,0,1-8.79-8.45,23.93,23.93,0,0,1-3.13-12.31,24.61,24.61,0,0,1,3-12.31A21.85,21.85,0,0,1,599,71.65a25.31,25.31,0,0,1,24-.05,21.23,21.23,0,0,1,8.14,8.4A26,26,0,0,1,634,92.62c0,.35,0,.76,0,1.23s-.08.91-.14,1.32H594.18V89.1h35.26L626,91.21a15.64,15.64,0,0,0-1.85-8,14.07,14.07,0,0,0-5.32-5.5,16.53,16.53,0,0,0-15.69,0,14,14,0,0,0-5.37,5.54,16.8,16.8,0,0,0-1.93,8.14v1.4A16.08,16.08,0,0,0,598,101.1a14.73,14.73,0,0,0,6,5.67,18.87,18.87,0,0,0,8.88,2,19.41,19.41,0,0,0,7.52-1.41,16.48,16.48,0,0,0,5.93-4.22l4.66,5.45a20.41,20.41,0,0,1-7.87,5.63A27.37,27.37,0,0,1,612.64,116.18Z" transform="translate(-13.83)"></path><path class="cls-1" d="M647.2,128.67l4.4-17.76,1.14,5.1a6.06,6.06,0,0,1-4.27-1.59,5.57,5.57,0,0,1-1.71-4.3,5.78,5.78,0,0,1,5.89-6,5.36,5.36,0,0,1,4.13,1.71,6,6,0,0,1,1.59,4.27,10.76,10.76,0,0,1-.14,1.71,16.19,16.19,0,0,1-.43,1.93c-.21.74-.52,1.63-.93,2.69l-4.13,12.22Z" transform="translate(-13.83)"></path><path class="cls-2" d="M741.65,50.1a30.74,30.74,0,0,1,14,3.06,22,22,0,0,1,9.5,9.31q3.44,6.25,3.43,15.81v37.37H756.85v-36q0-9.43-4.6-14.22t-12.92-4.78a23,23,0,0,0-10.91,2.46,16.69,16.69,0,0,0-7.17,7.23,25.23,25.23,0,0,0-2.51,11.88v33.45H707V50.71h11.27V68.23l-1.84-4.65a22.54,22.54,0,0,1,9.8-9.93A32.14,32.14,0,0,1,741.65,50.1Z" transform="translate(-13.83)"></path><path class="cls-2" d="M816.16,116.39a30.79,30.79,0,0,1-12.69-2.45,19.44,19.44,0,0,1-8.39-6.8,17.22,17.22,0,0,1-2.94-9.87,18.58,18.58,0,0,1,2.51-9.55,17.4,17.4,0,0,1,8.21-6.87q5.7-2.56,15.38-2.57h20.59v8.46h-20.1q-8.82,0-11.89,2.94a9.49,9.49,0,0,0-3.06,7.1,9.14,9.14,0,0,0,3.8,7.66q3.79,2.88,10.54,2.88a22.3,22.3,0,0,0,11.58-2.94,16.72,16.72,0,0,0,7.17-8.58l2.32,8.09A18.26,18.26,0,0,1,831,113Q825.1,116.4,816.16,116.39Zm21.32-.74V101.93l-.61-2.57V76c0-5-1.46-8.84-4.35-11.58s-7.25-4.1-13-4.1a34.3,34.3,0,0,0-11.28,1.9,29,29,0,0,0-9.31,5.08L794,58.43a35.41,35.41,0,0,1,12.07-6.19,50.38,50.38,0,0,1,14.76-2.14q13.37,0,20.59,6.49t7.23,19.85v39.21Zm-7.23-74.74A10.75,10.75,0,0,1,825,39.68a21.21,21.21,0,0,1-4.1-2.88,41.73,41.73,0,0,0-3.56-2.88A5.93,5.93,0,0,0,814,32.69a5.34,5.34,0,0,0-4.35,2,9.64,9.64,0,0,0-1.9,5.57h-6.62q.25-6.85,3.44-10.9a10.33,10.33,0,0,1,8.57-4.05,10.69,10.69,0,0,1,5.27,1.29,22.87,22.87,0,0,1,4.17,2.94c1.22,1.1,2.39,2.06,3.49,2.88a5.62,5.62,0,0,0,7.78-.73,8.37,8.37,0,0,0,1.84-5.4h6.62a16.86,16.86,0,0,1-3.37,10.54A10.53,10.53,0,0,1,830.25,40.91Z" transform="translate(-13.83)"></path><path class="cls-2" d="M905,116.39a34.84,34.84,0,0,1-17.34-4.29,31.65,31.65,0,0,1-12.07-11.82,33.25,33.25,0,0,1-4.41-17.1,32.78,32.78,0,0,1,4.41-17.09,32,32,0,0,1,12-11.7A34.74,34.74,0,0,1,905,50.1a35.39,35.39,0,0,1,17.34,4.22,30.94,30.94,0,0,1,12,11.71,33.46,33.46,0,0,1,4.35,17.15,33.47,33.47,0,0,1-4.35,17.16,31.41,31.41,0,0,1-12,11.76A34.89,34.89,0,0,1,905,116.39Zm0-10.29a22.3,22.3,0,0,0,11.21-2.82,19.87,19.87,0,0,0,7.78-8,24.94,24.94,0,0,0,2.82-12.07A24.5,24.5,0,0,0,924,71.11a20.11,20.11,0,0,0-7.78-7.9A22.3,22.3,0,0,0,905,60.39a21.92,21.92,0,0,0-11.15,2.82,21.18,21.18,0,0,0-7.85,7.9,23.7,23.7,0,0,0-2.94,12.07A24.11,24.11,0,0,0,886,95.25a20.9,20.9,0,0,0,7.85,8A21.92,21.92,0,0,0,905,106.1Z" transform="translate(-13.83)"></path><path class="cls-2" d="M138.15,263.44a37.82,37.82,0,0,1-18.32-4.29,30.91,30.91,0,0,1-12.25-11.76,33.52,33.52,0,0,1-4.35-17.16,34.37,34.37,0,0,1,4.22-17.16,30.53,30.53,0,0,1,11.65-11.7,33.11,33.11,0,0,1,16.72-4.23,32.77,32.77,0,0,1,16.67,4.17A29.54,29.54,0,0,1,163.82,213a36.2,36.2,0,0,1,4.11,17.59q0,.74-.06,1.71c-.05.66-.11,1.27-.19,1.84H112.42V225.7h49.14l-4.78,2.94a21.8,21.8,0,0,0-2.58-11.15,19.57,19.57,0,0,0-7.41-7.66,23,23,0,0,0-21.87,0,19.37,19.37,0,0,0-7.48,7.72,23.34,23.34,0,0,0-2.69,11.33v2a22.36,22.36,0,0,0,3,11.58,20.65,20.65,0,0,0,8.39,7.91,26.33,26.33,0,0,0,12.38,2.81,27,27,0,0,0,10.48-2,22.83,22.83,0,0,0,8.27-5.88l6.49,7.6a28.38,28.38,0,0,1-11,7.84A38.11,38.11,0,0,1,138.15,263.44Z" transform="translate(-13.83)"></path><path class="cls-2" d="M179.69,262.7l27.94-36.27-.12,6-26.59-34.68H194l20.34,26.71h-5l20.34-26.71h12.86l-27,34.92.12-6.25L243.9,262.7H230.55L209.1,234.27l4.78.74L192.8,262.7Z" transform="translate(-13.83)"></path><path class="cls-2" d="M269.39,185.26a7.84,7.84,0,0,1-5.7-2.21,7.23,7.23,0,0,1-2.27-5.39,7.37,7.37,0,0,1,2.27-5.51,7.84,7.84,0,0,1,5.7-2.21,8,8,0,0,1,5.7,2.14,7.06,7.06,0,0,1,2.26,5.33,7.65,7.65,0,0,1-8,7.85Zm-5.88,77.44V197.76h11.76V262.7Z" transform="translate(-13.83)"></path><path class="cls-2" d="M323.06,263.44a52.86,52.86,0,0,1-15.38-2.21,36,36,0,0,1-11.46-5.39l4.91-9.31a40,40,0,0,0,10.29,4.78,41,41,0,0,0,12.5,2q8.2,0,11.82-2.33a7.33,7.33,0,0,0,3.62-6.5,5.7,5.7,0,0,0-2.21-4.77,14.92,14.92,0,0,0-5.82-2.58q-3.61-.85-8-1.53t-8.83-1.72a34.7,34.7,0,0,1-8.08-2.94,15.16,15.16,0,0,1-5.89-5.27q-2.2-3.36-2.2-9a16.68,16.68,0,0,1,3.31-10.3,21,21,0,0,1,9.37-6.8,39.26,39.26,0,0,1,14.4-2.39,56.22,56.22,0,0,1,12.93,1.54A32.07,32.07,0,0,1,349,203l-5,9.31a27.61,27.61,0,0,0-9.19-4,42.05,42.05,0,0,0-9.55-1.11q-7.72,0-11.52,2.51c-2.54,1.68-3.8,3.82-3.8,6.44a6.05,6.05,0,0,0,2.27,5.08A16.23,16.23,0,0,0,318.1,224a69.27,69.27,0,0,0,8,1.65c2.95.45,5.89,1,8.83,1.72a35.32,35.32,0,0,1,8,2.88,15.58,15.58,0,0,1,5.89,5.15q2.26,3.3,2.26,8.82a15.77,15.77,0,0,1-3.43,10.17,22.16,22.16,0,0,1-9.68,6.68A42,42,0,0,1,323.06,263.44Z" transform="translate(-13.83)"></path><path class="cls-2" d="M363.25,207.44v-9.68h41.42v9.68Zm31.62,56q-9.81,0-15.2-5.27t-5.39-15.07V183.54h11.77v59.07c0,3.51.87,6.21,2.63,8.08s4.27,2.82,7.54,2.82a13.89,13.89,0,0,0,9.19-3.06l3.67,8.45a17.09,17.09,0,0,1-6.43,3.44A27.55,27.55,0,0,1,394.87,263.44Z" transform="translate(-13.83)"></path><path class="cls-2" d="M456.75,263.44a37.82,37.82,0,0,1-18.32-4.29,30.84,30.84,0,0,1-12.25-11.76,33.52,33.52,0,0,1-4.35-17.16,34.26,34.26,0,0,1,4.22-17.16,30.57,30.57,0,0,1,11.64-11.7,33.18,33.18,0,0,1,16.73-4.23,32.77,32.77,0,0,1,16.67,4.17A29.54,29.54,0,0,1,482.42,213a36.2,36.2,0,0,1,4.11,17.59q0,.74-.06,1.71c-.05.66-.11,1.27-.19,1.84H431V225.7h49.13l-4.77,2.94a21.8,21.8,0,0,0-2.58-11.15,19.64,19.64,0,0,0-7.41-7.66,23,23,0,0,0-21.87,0,19.37,19.37,0,0,0-7.48,7.72,23.34,23.34,0,0,0-2.7,11.33v2a22.27,22.27,0,0,0,3,11.58,20.65,20.65,0,0,0,8.39,7.91,26.3,26.3,0,0,0,12.38,2.81,26.94,26.94,0,0,0,10.47-2,22.79,22.79,0,0,0,8.28-5.88l6.49,7.6a28.38,28.38,0,0,1-11,7.84A38.11,38.11,0,0,1,456.75,263.44Z" transform="translate(-13.83)"></path><path class="cls-2" d="M577.08,263.44a34.89,34.89,0,0,1-17.34-4.29,31.67,31.67,0,0,1-12.07-11.83,33.19,33.19,0,0,1-4.41-17.09,32.78,32.78,0,0,1,4.41-17.09,32.07,32.07,0,0,1,12-11.71,34.8,34.8,0,0,1,17.4-4.29,35.23,35.23,0,0,1,17.34,4.23,30.91,30.91,0,0,1,12,11.7,36,36,0,0,1,0,34.32,31.34,31.34,0,0,1-12,11.76A34.84,34.84,0,0,1,577.08,263.44Zm0-10.3a22.31,22.31,0,0,0,11.22-2.81,19.93,19.93,0,0,0,7.78-8,24.94,24.94,0,0,0,2.82-12.07,24.5,24.5,0,0,0-2.82-12.07,20.11,20.11,0,0,0-7.78-7.9,22.31,22.31,0,0,0-11.22-2.82,22,22,0,0,0-11.15,2.82,21.09,21.09,0,0,0-7.84,7.9,23.7,23.7,0,0,0-2.94,12.07,24.11,24.11,0,0,0,2.94,12.07,20.88,20.88,0,0,0,7.84,8A22,22,0,0,0,577.08,253.14Z" transform="translate(-13.83)"></path><path class="cls-2" d="M701.83,263.44a36.07,36.07,0,0,1-17.71-4.29,31.55,31.55,0,0,1-12.19-11.76,35.59,35.59,0,0,1,0-34.32,31.12,31.12,0,0,1,12.19-11.7,36.48,36.48,0,0,1,17.71-4.23,34.42,34.42,0,0,1,15.74,3.5A24.76,24.76,0,0,1,728.3,211l-8.95,5.76a20,20,0,0,0-7.78-7.05,22,22,0,0,0-9.86-2.26,22.89,22.89,0,0,0-11.4,2.82,20.92,20.92,0,0,0-8,7.9,23.7,23.7,0,0,0-2.94,12.07,24,24,0,0,0,2.94,12.13,20.83,20.83,0,0,0,8,8,22.88,22.88,0,0,0,11.4,2.81,22,22,0,0,0,9.86-2.26,19.92,19.92,0,0,0,7.78-7l8.95,5.64a25.74,25.74,0,0,1-10.73,10.35A33.48,33.48,0,0,1,701.83,263.44Z" transform="translate(-13.83)"></path><path class="cls-2" d="M778.17,263.44a37.82,37.82,0,0,1-18.32-4.29,30.91,30.91,0,0,1-12.25-11.76,33.52,33.52,0,0,1-4.35-17.16,34.37,34.37,0,0,1,4.22-17.16,30.53,30.53,0,0,1,11.65-11.7,33.11,33.11,0,0,1,16.72-4.23,32.77,32.77,0,0,1,16.67,4.17A29.47,29.47,0,0,1,803.84,213,36.2,36.2,0,0,1,808,230.6q0,.74-.06,1.71c0,.66-.11,1.27-.19,1.84H752.44V225.7h49.14l-4.78,2.94a21.8,21.8,0,0,0-2.58-11.15,19.57,19.57,0,0,0-7.41-7.66,23,23,0,0,0-21.87,0,19.37,19.37,0,0,0-7.48,7.72,23.34,23.34,0,0,0-2.69,11.33v2a22.36,22.36,0,0,0,3,11.58,20.65,20.65,0,0,0,8.39,7.91,26.33,26.33,0,0,0,12.38,2.81,27,27,0,0,0,10.48-2,22.83,22.83,0,0,0,8.27-5.88l6.49,7.6a28.38,28.38,0,0,1-11,7.84A38.11,38.11,0,0,1,778.17,263.44Z" transform="translate(-13.83)"></path><path class="cls-2" d="M831,262.7V197.76h11.27V215.4l-1.1-4.41a20,20,0,0,1,9.06-10.29q6.38-3.55,15.69-3.56v11.4a8.76,8.76,0,0,0-1.41-.12h-1.29q-9.44,0-15,5.63t-5.51,16.3V262.7Z" transform="translate(-13.83)"></path><path class="cls-2" d="M880.49,207.44v-9.68h41.42v9.68Zm31.62,56q-9.81,0-15.2-5.27t-5.39-15.07V183.54h11.76v59.07c0,3.51.88,6.21,2.64,8.08s4.27,2.82,7.53,2.82a13.87,13.87,0,0,0,9.19-3.06l3.68,8.45a17.09,17.09,0,0,1-6.43,3.44A27.6,27.6,0,0,1,912.11,263.44Z" transform="translate(-13.83)"></path><path class="cls-2" d="M972.89,263.44a34.84,34.84,0,0,1-17.34-4.29,31.6,31.6,0,0,1-12.07-11.83,33.1,33.1,0,0,1-4.42-17.09,32.69,32.69,0,0,1,4.42-17.09,32,32,0,0,1,12-11.71,34.81,34.81,0,0,1,17.41-4.29,35.22,35.22,0,0,1,17.33,4.23,30.91,30.91,0,0,1,12,11.7,36,36,0,0,1,0,34.32,31.34,31.34,0,0,1-12,11.76A34.82,34.82,0,0,1,972.89,263.44Zm0-10.3a22.3,22.3,0,0,0,11.21-2.81,19.93,19.93,0,0,0,7.78-8,24.94,24.94,0,0,0,2.82-12.07,24.5,24.5,0,0,0-2.82-12.07,20.11,20.11,0,0,0-7.78-7.9,22.3,22.3,0,0,0-11.21-2.82,22,22,0,0,0-11.16,2.82,21.16,21.16,0,0,0-7.84,7.9A23.7,23.7,0,0,0,951,230.23a24.11,24.11,0,0,0,2.94,12.07,21,21,0,0,0,7.84,8A22,22,0,0,0,972.89,253.14Z" transform="translate(-13.83)"></path><path class="cls-2" d="M69.73,344.19a30.61,30.61,0,0,1,14,3.07,22,22,0,0,1,9.5,9.31q3.42,6.24,3.43,15.81v37.37H84.92v-36q0-9.44-4.59-14.21T67.4,354.73a23.16,23.16,0,0,0-10.91,2.45,16.83,16.83,0,0,0-7.16,7.23,25.3,25.3,0,0,0-2.52,11.89v33.45H35.05V344.8H46.32v17.53l-1.83-4.66a22.52,22.52,0,0,1,9.8-9.92A32.14,32.14,0,0,1,69.73,344.19Z" transform="translate(-13.83)"></path><path class="cls-2" d="M154.16,410.49a37.79,37.79,0,0,1-18.32-4.29,30.8,30.8,0,0,1-12.25-11.77,33.37,33.37,0,0,1-4.36-17.15,34.24,34.24,0,0,1,4.23-17.16,30.57,30.57,0,0,1,11.64-11.7,33.18,33.18,0,0,1,16.73-4.23,32.8,32.8,0,0,1,16.67,4.17,29.54,29.54,0,0,1,11.33,11.7,36.17,36.17,0,0,1,4.11,17.59q0,.74-.06,1.71c0,.66-.11,1.27-.19,1.84H128.43v-8.46h49.13l-4.77,2.94a21.85,21.85,0,0,0-2.58-11.15,19.78,19.78,0,0,0-7.41-7.66,23.14,23.14,0,0,0-21.88,0,19.54,19.54,0,0,0-7.47,7.72,23.35,23.35,0,0,0-2.7,11.34v2a22.27,22.27,0,0,0,3,11.58,20.5,20.5,0,0,0,8.39,7.9,26.31,26.31,0,0,0,12.38,2.82,26.94,26.94,0,0,0,10.47-2,22.75,22.75,0,0,0,8.27-5.88l6.5,7.6a28.49,28.49,0,0,1-11,7.84A38.11,38.11,0,0,1,154.16,410.49Z" transform="translate(-13.83)"></path><path class="cls-2" d="M288.22,344.19a30,30,0,0,1,13.84,3.07,21.67,21.67,0,0,1,9.38,9.31q3.36,6.24,3.37,15.81v37.37H303v-36q0-9.44-4.41-14.21t-12.37-4.78a20.92,20.92,0,0,0-10.3,2.45,16.54,16.54,0,0,0-6.8,7.23,26.51,26.51,0,0,0-2.39,11.89v33.45H255v-36q0-9.44-4.35-14.21t-12.44-4.78a20.63,20.63,0,0,0-10.17,2.45,16.84,16.84,0,0,0-6.86,7.23,25.82,25.82,0,0,0-2.45,11.89v33.45H207V344.8h11.28v17.28l-1.84-4.41a22.15,22.15,0,0,1,9.43-9.92,30,30,0,0,1,14.83-3.56,27.74,27.74,0,0,1,16.05,4.6q6.75,4.59,8.83,13.9l-4.78-2a24.39,24.39,0,0,1,10.29-12A32,32,0,0,1,288.22,344.19Z" transform="translate(-13.83)"></path><path class="cls-2" d="M410.76,410.49a34.84,34.84,0,0,1-17.34-4.29,31.6,31.6,0,0,1-12.07-11.83,33.2,33.2,0,0,1-4.42-17.09,32.82,32.82,0,0,1,4.42-17.1,32,32,0,0,1,12-11.7,34.74,34.74,0,0,1,17.4-4.29,35.28,35.28,0,0,1,17.34,4.23,31,31,0,0,1,12,11.7,36,36,0,0,1,0,34.31,31.34,31.34,0,0,1-12,11.77A34.89,34.89,0,0,1,410.76,410.49Zm0-10.3A22.3,22.3,0,0,0,422,397.37a19.84,19.84,0,0,0,7.78-8,25,25,0,0,0,2.82-12.07,24.5,24.5,0,0,0-2.82-12.07A20.13,20.13,0,0,0,422,357.3a22.41,22.41,0,0,0-11.21-2.82,22.09,22.09,0,0,0-11.16,2.82,21.19,21.19,0,0,0-7.84,7.91,23.7,23.7,0,0,0-2.94,12.07,24.14,24.14,0,0,0,2.94,12.07,20.85,20.85,0,0,0,7.84,8A22,22,0,0,0,410.76,400.19Z" transform="translate(-13.83)"></path><path class="cls-2" d="M536.11,410.49a37.82,37.82,0,0,1-18.32-4.29,30.86,30.86,0,0,1-12.25-11.77,33.46,33.46,0,0,1-4.35-17.15,34.24,34.24,0,0,1,4.23-17.16,30.43,30.43,0,0,1,11.64-11.7,33.11,33.11,0,0,1,16.72-4.23,32.77,32.77,0,0,1,16.67,4.17,29.47,29.47,0,0,1,11.33,11.7,36.17,36.17,0,0,1,4.11,17.59q0,.74-.06,1.71c0,.66-.1,1.27-.18,1.84H510.38v-8.46h49.14l-4.78,2.94a21.94,21.94,0,0,0-2.57-11.15,19.73,19.73,0,0,0-7.42-7.66,23.12,23.12,0,0,0-21.87,0,19.5,19.5,0,0,0-7.48,7.72,23.46,23.46,0,0,0-2.69,11.34v2a22.36,22.36,0,0,0,3,11.58,20.56,20.56,0,0,0,8.39,7.9,26.33,26.33,0,0,0,12.38,2.82,27,27,0,0,0,10.48-2,22.83,22.83,0,0,0,8.27-5.88l6.49,7.6a28.45,28.45,0,0,1-11,7.84A38.2,38.2,0,0,1,536.11,410.49Z" transform="translate(-13.83)"></path><path class="cls-2" d="M588.93,409.75V344.8H600.2v17.65L599.1,358a19.92,19.92,0,0,1,9.07-10.29q6.36-3.56,15.68-3.56v11.4a8.76,8.76,0,0,0-1.41-.12h-1.29q-9.43,0-14.94,5.63t-5.52,16.3v32.35Z" transform="translate(-13.83)"></path><path class="cls-2" d="M645.05,409.75V344.8h11.27v17.65l-1.1-4.41a20,20,0,0,1,9.07-10.29q6.38-3.56,15.68-3.56v11.4a8.73,8.73,0,0,0-1.4-.12h-1.29q-9.43,0-14.95,5.63t-5.52,16.3v32.35Z" transform="translate(-13.83)"></path><path class="cls-2" d="M715.39,410.49A30.63,30.63,0,0,1,702.7,408a19.44,19.44,0,0,1-8.39-6.8,17.16,17.16,0,0,1-2.94-9.86,18.62,18.62,0,0,1,2.51-9.56,17.38,17.38,0,0,1,8.21-6.86q5.7-2.58,15.38-2.57h20.59v8.45H718q-8.82,0-11.89,2.94a9.5,9.5,0,0,0-3.06,7.11,9.14,9.14,0,0,0,3.8,7.66q3.8,2.88,10.54,2.88a22.3,22.3,0,0,0,11.58-2.94,16.72,16.72,0,0,0,7.17-8.58l2.33,8.09a18.35,18.35,0,0,1-8.21,9.13Q724.33,410.48,715.39,410.49Zm21.32-.74V396l-.61-2.58v-23.4q0-7.47-4.35-11.58t-13-4.11a34.61,34.61,0,0,0-11.28,1.9,29,29,0,0,0-9.31,5.09l-4.9-8.83a35.57,35.57,0,0,1,12.07-6.18A50.43,50.43,0,0,1,720,344.19q13.37,0,20.59,6.5t7.23,19.85v39.21Z" transform="translate(-13.83)"></path><path class="cls-2" d="M803.25,410.49a33.77,33.77,0,0,1-16.85-4.17,30.43,30.43,0,0,1-11.7-11.64,37.31,37.31,0,0,1,0-34.74,30.55,30.55,0,0,1,11.7-11.58,33.77,33.77,0,0,1,16.85-4.17,30,30,0,0,1,14.82,3.68,26.71,26.71,0,0,1,10.6,11q4,7.35,4,18.38t-3.86,18.38a26.54,26.54,0,0,1-10.48,11.09A30.13,30.13,0,0,1,803.25,410.49Zm1-10.3a22.07,22.07,0,0,0,11.09-2.82,20.24,20.24,0,0,0,7.84-8A24.54,24.54,0,0,0,826,377.28a24.09,24.09,0,0,0-2.88-12.07,20.55,20.55,0,0,0-7.84-7.91,23.33,23.33,0,0,0-22.24,0,21.14,21.14,0,0,0-7.85,7.91,23.7,23.7,0,0,0-2.94,12.07,24.14,24.14,0,0,0,2.94,12.07,20.81,20.81,0,0,0,7.85,8A21.92,21.92,0,0,0,804.23,400.19Zm22.18,9.56V392.23l.73-15.08-1.22-15.07V318.83h11.76v90.92Z" transform="translate(-13.83)"></path><path class="cls-2" d="M894.54,410.49a34.86,34.86,0,0,1-17.34-4.29,31.6,31.6,0,0,1-12.07-11.83,33.19,33.19,0,0,1-4.41-17.09,32.82,32.82,0,0,1,4.41-17.1,32,32,0,0,1,12-11.7,34.74,34.74,0,0,1,17.4-4.29,35.28,35.28,0,0,1,17.34,4.23,31,31,0,0,1,12,11.7,36,36,0,0,1,0,34.31,31.37,31.37,0,0,1-12,11.77A34.89,34.89,0,0,1,894.54,410.49Zm0-10.3a22.28,22.28,0,0,0,11.21-2.82,19.84,19.84,0,0,0,7.78-8,25,25,0,0,0,2.82-12.07,24.5,24.5,0,0,0-2.82-12.07,20.13,20.13,0,0,0-7.78-7.91,22.38,22.38,0,0,0-11.21-2.82,22,22,0,0,0-11.15,2.82,21.11,21.11,0,0,0-7.84,7.91,23.7,23.7,0,0,0-2.94,12.07,24.14,24.14,0,0,0,2.94,12.07,20.78,20.78,0,0,0,7.84,8A21.92,21.92,0,0,0,894.54,400.19Z" transform="translate(-13.83)"></path><path class="cls-1" d="M1001.5,362.71a22,22,0,0,1,10.07,2.2,15.73,15.73,0,0,1,6.81,6.68,23.39,23.39,0,0,1,2.46,11.34v26.82h-8.44V383.9q0-6.76-3.3-10.2t-9.27-3.43A16.62,16.62,0,0,0,992,372a12,12,0,0,0-5.14,5.19,18.07,18.07,0,0,0-1.81,8.53v24h-8.44v-46.6h8.09v12.57l-1.32-3.34a16.19,16.19,0,0,1,7-7.12A23.06,23.06,0,0,1,1001.5,362.71Z" transform="translate(-13.83)"></path><path class="cls-1" d="M1055,410.28a22.05,22.05,0,0,1-9.1-1.76,14,14,0,0,1-6-4.88,12.39,12.39,0,0,1-2.11-7.08,13.27,13.27,0,0,1,1.81-6.86,12.45,12.45,0,0,1,5.89-4.92q4.08-1.84,11-1.85h14.78V389h-14.42q-6.35,0-8.53,2.11a6.81,6.81,0,0,0-2.2,5.1,6.54,6.54,0,0,0,2.72,5.49q2.73,2.07,7.56,2.07a15.94,15.94,0,0,0,8.31-2.11,12,12,0,0,0,5.15-6.15l1.67,5.8a13.14,13.14,0,0,1-5.89,6.55A21.2,21.2,0,0,1,1055,410.28Zm15.3-.53V399.9l-.44-1.84v-16.8q0-5.36-3.12-8.31t-9.37-2.94a24.67,24.67,0,0,0-8.09,1.36,20.85,20.85,0,0,0-6.68,3.65l-3.52-6.33a25.33,25.33,0,0,1,8.66-4.44,36.09,36.09,0,0,1,10.6-1.54q9.59,0,14.77,4.66t5.19,14.24v28.14Z" transform="translate(-13.83)"></path><path class="cls-1" d="M154,468.22a22.12,22.12,0,0,1,10.07,2.2,15.75,15.75,0,0,1,6.81,6.69,23.36,23.36,0,0,1,2.47,11.34v26.82h-8.45V489.41q0-6.77-3.29-10.19t-9.28-3.43a16.62,16.62,0,0,0-7.83,1.75,12.15,12.15,0,0,0-5.14,5.19,18.22,18.22,0,0,0-1.8,8.53v24h-8.44V450h8.44v31.22l-1.67-3.34a16.24,16.24,0,0,1,7-7.13A23.09,23.09,0,0,1,154,468.22Z" transform="translate(-13.83)"></path><path class="cls-1" d="M213.74,515.79a25,25,0,0,1-12.44-3.07,22.78,22.78,0,0,1-8.66-8.49A23.81,23.81,0,0,1,189.47,492a23.52,23.52,0,0,1,3.17-12.26,22.94,22.94,0,0,1,8.62-8.4,24.94,24.94,0,0,1,12.48-3.08,25.22,25.22,0,0,1,12.44,3,22.14,22.14,0,0,1,8.62,8.39,25.84,25.84,0,0,1,0,24.62,22.5,22.5,0,0,1-8.62,8.45A25,25,0,0,1,213.74,515.79Zm0-7.38a16.12,16.12,0,0,0,8-2,14.33,14.33,0,0,0,5.58-5.76,17.91,17.91,0,0,0,2-8.67,17.6,17.6,0,0,0-2-8.66,14.49,14.49,0,0,0-5.58-5.67,16,16,0,0,0-8-2,15.72,15.72,0,0,0-8,2,15.24,15.24,0,0,0-5.63,5.67A17.09,17.09,0,0,0,198,492a17.4,17.4,0,0,0,2.11,8.67,15.06,15.06,0,0,0,5.63,5.76A15.82,15.82,0,0,0,213.74,508.41Z" transform="translate(-13.83)"></path><path class="cls-1" d="M254.45,515.27V468.66h8.09v12.67l-.79-3.17a14.38,14.38,0,0,1,6.51-7.39,22.82,22.82,0,0,1,11.25-2.55v8.18a6,6,0,0,0-1-.09h-.92q-6.78,0-10.73,4.05t-4,11.69v23.22Z" transform="translate(-13.83)"></path><path class="cls-1" d="M304.92,515.79a21.89,21.89,0,0,1-9.1-1.76,13.88,13.88,0,0,1-6-4.88,12.31,12.31,0,0,1-2.11-7.07,13.34,13.34,0,0,1,1.8-6.86,12.51,12.51,0,0,1,5.89-4.93q4.1-1.85,11-1.84h14.77v6.07H306.77q-6.33,0-8.53,2.11a6.81,6.81,0,0,0-2.2,5.1,6.55,6.55,0,0,0,2.73,5.49q2.73,2.07,7.56,2.07a16,16,0,0,0,8.31-2.11,12,12,0,0,0,5.14-6.16l1.67,5.8a13.11,13.11,0,0,1-5.89,6.56A21.18,21.18,0,0,1,304.92,515.79Zm15.3-.52v-9.85l-.44-1.85V486.78q0-5.37-3.12-8.31t-9.36-3a24.64,24.64,0,0,0-8.09,1.37,20.63,20.63,0,0,0-6.68,3.64L289,474.2a25.59,25.59,0,0,1,8.66-4.44,36.38,36.38,0,0,1,10.6-1.54q9.57,0,14.77,4.66t5.19,14.25v28.14Z" transform="translate(-13.83)"></path><path class="cls-1" d="M396.46,515.79a24.14,24.14,0,0,1-12.09-3,21.81,21.81,0,0,1-8.4-8.35,26.76,26.76,0,0,1,0-24.93,22.05,22.05,0,0,1,8.4-8.31,24.25,24.25,0,0,1,12.09-3,21.55,21.55,0,0,1,10.64,2.64,19.26,19.26,0,0,1,7.6,7.92q2.87,5.27,2.86,13.18t-2.77,13.19a19,19,0,0,1-7.52,8A21.56,21.56,0,0,1,396.46,515.79Zm.7-7.38a15.94,15.94,0,0,0,8-2,14.65,14.65,0,0,0,5.63-5.76,17.7,17.7,0,0,0,2.06-8.67,17.39,17.39,0,0,0-2.06-8.66,14.82,14.82,0,0,0-5.63-5.67,16.77,16.77,0,0,0-16,0,15.17,15.17,0,0,0-5.63,5.67,17.09,17.09,0,0,0-2.11,8.66,17.4,17.4,0,0,0,2.11,8.67,15,15,0,0,0,5.63,5.76A15.82,15.82,0,0,0,397.16,508.41Zm15.92,6.86V502.69l.52-10.81-.88-10.82V450h8.45v65.25Z" transform="translate(-13.83)"></path><path class="cls-1" d="M462.76,515.79a27.15,27.15,0,0,1-13.15-3.07,22.22,22.22,0,0,1-8.79-8.45A24,24,0,0,1,437.7,492a24.61,24.61,0,0,1,3-12.31,21.92,21.92,0,0,1,8.35-8.39,25.31,25.31,0,0,1,24-.05,21.3,21.3,0,0,1,8.14,8.4,26,26,0,0,1,2.94,12.62c0,.35,0,.76,0,1.23s-.08.91-.13,1.32H444.29v-6.07h35.26l-3.43,2.11a15.66,15.66,0,0,0-1.85-8,14.19,14.19,0,0,0-5.31-5.5,16.63,16.63,0,0,0-15.7,0,13.88,13.88,0,0,0-5.36,5.54A16.8,16.8,0,0,0,446,491v1.4a16,16,0,0,0,2.16,8.31,14.73,14.73,0,0,0,6,5.68,19,19,0,0,0,8.88,2,19.41,19.41,0,0,0,7.52-1.41,16.48,16.48,0,0,0,5.93-4.22l4.66,5.45a20.41,20.41,0,0,1-7.87,5.63A27.35,27.35,0,0,1,462.76,515.79Z" transform="translate(-13.83)"></path><path class="cls-1" d="M542.51,515.79a37.78,37.78,0,0,1-11-1.58,25.61,25.61,0,0,1-8.22-3.87l3.52-6.68a28.78,28.78,0,0,0,7.38,3.43,29.19,29.19,0,0,0,9,1.41q5.89,0,8.49-1.68a5.24,5.24,0,0,0,2.59-4.66,4.1,4.1,0,0,0-1.58-3.42,10.84,10.84,0,0,0-4.18-1.85q-2.6-.61-5.76-1.1t-6.33-1.23a25.23,25.23,0,0,1-5.8-2.11,10.94,10.94,0,0,1-4.22-3.78,11.63,11.63,0,0,1-1.58-6.47,12,12,0,0,1,2.37-7.38,15,15,0,0,1,6.73-4.88,28.18,28.18,0,0,1,10.33-1.72,40.73,40.73,0,0,1,9.27,1.1,23.43,23.43,0,0,1,7.7,3.12l-3.61,6.69a19.72,19.72,0,0,0-6.59-2.9,30.3,30.3,0,0,0-6.86-.8c-3.69,0-6.45.61-8.27,1.81a5.37,5.37,0,0,0-2.72,4.61,4.34,4.34,0,0,0,1.63,3.65,11.74,11.74,0,0,0,4.22,2,51,51,0,0,0,5.76,1.19q3.16.48,6.33,1.23A26.25,26.25,0,0,1,556.8,492a11.24,11.24,0,0,1,4.22,3.7,11,11,0,0,1,1.62,6.33,11.34,11.34,0,0,1-2.46,7.3,15.91,15.91,0,0,1-6.95,4.79A30.06,30.06,0,0,1,542.51,515.79Z" transform="translate(-13.83)"></path><path class="cls-1" d="M598.78,515.79a27.13,27.13,0,0,1-13.14-3.07,22.24,22.24,0,0,1-8.8-8.45A24,24,0,0,1,573.72,492a24.51,24.51,0,0,1,3-12.31,21.85,21.85,0,0,1,8.35-8.39,25.31,25.31,0,0,1,24-.05,21.2,21.2,0,0,1,8.13,8.4,25.92,25.92,0,0,1,2.95,12.62c0,.35,0,.76,0,1.23s-.07.91-.13,1.32H580.32v-6.07h35.26l-3.43,2.11a15.76,15.76,0,0,0-1.85-8,14.14,14.14,0,0,0-5.32-5.5,16.63,16.63,0,0,0-15.7,0,14,14,0,0,0-5.36,5.54A16.8,16.8,0,0,0,582,491v1.4a16,16,0,0,0,2.15,8.31,14.79,14.79,0,0,0,6,5.68,19,19,0,0,0,8.89,2,19.33,19.33,0,0,0,7.51-1.41,16.43,16.43,0,0,0,5.94-4.22l4.66,5.45a20.49,20.49,0,0,1-7.87,5.63A27.41,27.41,0,0,1,598.78,515.79Z" transform="translate(-13.83)"></path><path class="cls-1" d="M677.39,515.27,657,468.66h8.79l18.12,42.21h-4.22l18.46-42.21h8.27L686,515.27Z" transform="translate(-13.83)"></path><path class="cls-1" d="M738.59,515.79a27.17,27.17,0,0,1-13.15-3.07,22.22,22.22,0,0,1-8.79-8.45A24,24,0,0,1,713.53,492a24.61,24.61,0,0,1,3-12.31,21.88,21.88,0,0,1,8.36-8.39,25.31,25.31,0,0,1,24-.05,21.34,21.34,0,0,1,8.13,8.4,26,26,0,0,1,3,12.62c0,.35,0,.76-.05,1.23s-.07.91-.13,1.32H720.12v-6.07h35.26L752,490.82a15.66,15.66,0,0,0-1.84-8,14.21,14.21,0,0,0-5.32-5.5,16.63,16.63,0,0,0-15.7,0,14,14,0,0,0-5.36,5.54,16.8,16.8,0,0,0-1.94,8.14v1.4a16,16,0,0,0,2.16,8.31,14.73,14.73,0,0,0,6,5.68,19,19,0,0,0,8.88,2,19.38,19.38,0,0,0,7.52-1.41,16.52,16.52,0,0,0,5.94-4.22l4.66,5.45a20.49,20.49,0,0,1-7.87,5.63A27.41,27.41,0,0,1,738.59,515.79Z" transform="translate(-13.83)"></path><path class="cls-1" d="M789.85,515.79a37.66,37.66,0,0,1-11-1.58,25.78,25.78,0,0,1-8.23-3.87l3.52-6.68a28.86,28.86,0,0,0,7.39,3.43,29.19,29.19,0,0,0,9,1.41q5.88,0,8.48-1.68a5.25,5.25,0,0,0,2.6-4.66,4.08,4.08,0,0,0-1.59-3.42,10.8,10.8,0,0,0-4.17-1.85q-2.6-.61-5.76-1.1t-6.33-1.23a25.31,25.31,0,0,1-5.81-2.11,11,11,0,0,1-4.22-3.78,11.71,11.71,0,0,1-1.58-6.47,12,12,0,0,1,2.37-7.38,15.08,15.08,0,0,1,6.73-4.88,28.18,28.18,0,0,1,10.33-1.72,40.88,40.88,0,0,1,9.28,1.1,23.37,23.37,0,0,1,7.69,3.12l-3.6,6.69a19.68,19.68,0,0,0-6.6-2.9,30.23,30.23,0,0,0-6.86-.8c-3.69,0-6.45.61-8.26,1.81a5.36,5.36,0,0,0-2.73,4.61,4.34,4.34,0,0,0,1.63,3.65,11.74,11.74,0,0,0,4.22,2,51.47,51.47,0,0,0,5.76,1.19q3.16.48,6.33,1.23a26.25,26.25,0,0,1,5.76,2.06,11.16,11.16,0,0,1,4.22,3.7A11,11,0,0,1,810,502a11.35,11.35,0,0,1-2.47,7.3,15.88,15.88,0,0,1-6.94,4.79A30.15,30.15,0,0,1,789.85,515.79Z" transform="translate(-13.83)"></path><path class="cls-1" d="M818.69,475.61v-6.95h29.72v6.95Zm22.69,40.18q-7,0-10.9-3.78t-3.87-10.81V458.46h8.44v42.39a8.18,8.18,0,0,0,1.89,5.8,7,7,0,0,0,5.41,2,9.93,9.93,0,0,0,6.59-2.2l2.64,6.07A12.22,12.22,0,0,1,847,515,19.55,19.55,0,0,1,841.38,515.79Z" transform="translate(-13.83)"></path><path class="cls-1" d="M870.83,459.69a5.62,5.62,0,0,1-4.09-1.58,5.19,5.19,0,0,1-1.62-3.87,5.29,5.29,0,0,1,1.62-3.95,5.63,5.63,0,0,1,4.09-1.59,5.74,5.74,0,0,1,4.09,1.54,5,5,0,0,1,1.63,3.83,5.48,5.48,0,0,1-5.72,5.62Zm-4.22,55.58V468.66h8.44v46.61Z" transform="translate(-13.83)"></path><path class="cls-1" d="M896,515.27V468.66h8.09v12.67l-.79-3.17a14.4,14.4,0,0,1,6.5-7.39A22.84,22.84,0,0,1,921,468.22v8.18a6,6,0,0,0-1-.09h-.92q-6.78,0-10.73,4.05t-4,11.69v23.22Z" transform="translate(-13.83)"></path><path class="cls-1" d="M938,515.79a5.93,5.93,0,0,1-6-6.06,5.65,5.65,0,0,1,1.76-4.31,5.92,5.92,0,0,1,4.22-1.67,5.69,5.69,0,0,1,4.09,1.67,5.75,5.75,0,0,1,1.71,4.31,5.91,5.91,0,0,1-1.71,4.35A5.61,5.61,0,0,1,938,515.79Zm20.4,0a5.93,5.93,0,0,1-6-6.06,5.65,5.65,0,0,1,1.76-4.31,5.92,5.92,0,0,1,4.22-1.67,5.69,5.69,0,0,1,4.09,1.67,5.75,5.75,0,0,1,1.71,4.31,5.91,5.91,0,0,1-1.71,4.35A5.61,5.61,0,0,1,958.41,515.79Zm20.4,0a5.93,5.93,0,0,1-6-6.06,5.65,5.65,0,0,1,1.76-4.31,5.92,5.92,0,0,1,4.22-1.67,5.69,5.69,0,0,1,4.09,1.67,5.75,5.75,0,0,1,1.71,4.31,5.91,5.91,0,0,1-1.71,4.35A5.61,5.61,0,0,1,978.81,515.79Z" transform="translate(-13.83)"></path></g></g></g></svg>