<svg xmlns="http://www.w3.org/2000/svg" viewBox="0 0 1272.86 322.46"><defs><style>.cls-1{fill:#d8d9dd;}.cls-2{fill:#211915;}</style></defs><title>11</title><g id="Camada_2" data-name="Camada 2"><g id="Camada_1-2" data-name="Camada 1"><g id="pra_gnt" data-name="pra gnt"><rect class="cls-1" width="1272.86" height="322.46"></rect><path class="cls-2" d="M139.92,87.37a19.35,19.35,0,0,1-7.13-1.29,17.21,17.21,0,0,1-5.69-3.63A16.62,16.62,0,0,1,123.36,77a18,18,0,0,1,0-13.63,16.72,16.72,0,0,1,3.74-5.45,17,17,0,0,1,5.67-3.62,20.32,20.32,0,0,1,14.25,0,16.66,16.66,0,0,1,5.67,3.59,16.43,16.43,0,0,1,3.72,5.48,18.43,18.43,0,0,1,0,13.7,16.41,16.41,0,0,1-3.72,5.45A16.84,16.84,0,0,1,147,86.1,19.31,19.31,0,0,1,139.92,87.37Zm0-4.27a13.65,13.65,0,0,0,5.16-1,12.3,12.3,0,0,0,4.13-2.71,12.68,12.68,0,0,0,2.73-4.11,13.07,13.07,0,0,0,1-5.13A12.92,12.92,0,0,0,149.21,61a12.2,12.2,0,0,0-4.13-2.73,13.65,13.65,0,0,0-5.16-1,13.8,13.8,0,0,0-5.21,1A12.38,12.38,0,0,0,130.56,61a12.6,12.6,0,0,0-2.76,4.11,12.9,12.9,0,0,0-1,5.11,13.06,13.06,0,0,0,1,5.13,12.3,12.3,0,0,0,2.76,4.11,12.48,12.48,0,0,0,4.15,2.71A13.8,13.8,0,0,0,139.92,83.1Z"></path><path class="cls-2" d="M198.43,87.37a19.35,19.35,0,0,1-7.13-1.29,17.21,17.21,0,0,1-5.69-3.63A16.77,16.77,0,0,1,181.87,77a17,17,0,0,1,9.41-22.7,20.32,20.32,0,0,1,14.25,0,16.66,16.66,0,0,1,5.67,3.59,16.43,16.43,0,0,1,3.72,5.48,18.43,18.43,0,0,1,0,13.7,16.41,16.41,0,0,1-3.72,5.45,16.84,16.84,0,0,1-5.67,3.6A19.31,19.31,0,0,1,198.43,87.37Zm0-4.27a13.62,13.62,0,0,0,5.16-1,12.08,12.08,0,0,0,4.13-2.74,12.78,12.78,0,0,0,2.73-4.12,13.71,13.71,0,0,0,0-10.23,12.48,12.48,0,0,0-2.73-4.1,12.3,12.3,0,0,0-4.13-2.71,13.62,13.62,0,0,0-5.16-1,13.8,13.8,0,0,0-5.21,1,12.46,12.46,0,0,0-6.91,6.81,13.84,13.84,0,0,0,0,10.23,12.86,12.86,0,0,0,2.76,4.12,12.26,12.26,0,0,0,4.15,2.74A13.8,13.8,0,0,0,198.43,83.1Zm11,10.9a12.49,12.49,0,0,1-3.21-.41,12.68,12.68,0,0,1-3.08-1.3A20.56,20.56,0,0,1,200,90a49.14,49.14,0,0,1-3.56-3.48l5.14-1.35a21.85,21.85,0,0,0,2.76,2.91,9.29,9.29,0,0,0,2.62,1.63,7,7,0,0,0,2.59.5,7.84,7.84,0,0,0,6.09-2.88l2.26,2.74A10.48,10.48,0,0,1,209.42,94Z"></path><path class="cls-2" d="M240.14,87.37c-4.41,0-7.89-1.26-10.41-3.79s-3.8-6.22-3.8-11.09V53.39h4.8V72.3q0,5.61,2.48,8.21a9.16,9.16,0,0,0,7,2.59q4.56,0,7-2.59t2.47-8.21V53.39h4.66v19.1q0,7.31-3.77,11.09T240.14,87.37Z"></path><path class="cls-2" d="M271.63,82.81h19.58V87H266.83V53.39h23.71v4.17H271.63Zm-.43-14.93h17.28V72H271.2Z"></path><path class="cls-2" d="M317.18,87V53.39h14.16a20.37,20.37,0,0,1,9.48,2.11,15.65,15.65,0,0,1,6.39,5.9,18.06,18.06,0,0,1,0,17.57,15.52,15.52,0,0,1-6.39,5.9A20.38,20.38,0,0,1,331.34,87Zm4.8-4.18h9.07a15.55,15.55,0,0,0,7.23-1.58A11.59,11.59,0,0,0,343,76.79a13.86,13.86,0,0,0,0-13.23,11.58,11.58,0,0,0-4.73-4.41,15.43,15.43,0,0,0-7.23-1.59H322Z"></path><path class="cls-2" d="M364.27,82.81h19.58V87H359.47V53.39h23.71v4.17H364.27Zm-.43-14.93h17.28V72H363.84Z"></path><path class="cls-2" d="M403.49,87,388.7,53.39h5.19l13.58,31h-3l13.68-31H423L408.24,87Z"></path><path class="cls-2" d="M434.69,82.81h19.58V87H429.89V53.39H453.6v4.17H434.69Zm-.44-14.93h17.28V72H434.25Z"></path><path class="cls-2" d="M485,82.81h19.58V87H480.24V53.39H504v4.17H485Zm-.43-14.93h17.28V72H484.61Z"></path><path class="cls-2" d="M510.24,87l14-19.06v3.7L511,53.39h5.47l10.46,14.35-2.16.05,10.42-14.4h5.23l-13.1,18V67.88l14,19.11h-5.52L524.64,71.68h2.11L515.76,87Z"></path><path class="cls-2" d="M548.49,87V53.39h4.8V87Z"></path><path class="cls-2" d="M575.81,87.37a23.09,23.09,0,0,1-7.35-1.17,15.2,15.2,0,0,1-5.52-3l1.78-3.75a15.69,15.69,0,0,0,4.89,2.79,17.84,17.84,0,0,0,6.2,1.1,14,14,0,0,0,4.75-.67,5.67,5.67,0,0,0,2.69-1.85,4.41,4.41,0,0,0,.86-2.66A3.65,3.65,0,0,0,583,75.32a8.39,8.39,0,0,0-2.93-1.7,32.92,32.92,0,0,0-4-1.13c-1.44-.32-2.88-.7-4.34-1.13a19.31,19.31,0,0,1-4-1.65A8.23,8.23,0,0,1,564.86,67a8,8,0,0,1-1.1-4.4,8.72,8.72,0,0,1,1.37-4.77,9.48,9.48,0,0,1,4.22-3.51A17.37,17.37,0,0,1,576.62,53a22.57,22.57,0,0,1,5.81.77,16.16,16.16,0,0,1,5,2.21l-1.58,3.84a15.39,15.39,0,0,0-4.56-2.09,17.92,17.92,0,0,0-4.66-.65,12.75,12.75,0,0,0-4.65.72,5.68,5.68,0,0,0-2.67,1.92,4.59,4.59,0,0,0-.84,2.69,3.68,3.68,0,0,0,1.13,2.83,7.92,7.92,0,0,0,2.93,1.68,39.56,39.56,0,0,0,4,1.13c1.44.34,2.89.71,4.34,1.13a18.83,18.83,0,0,1,4,1.63,8.23,8.23,0,0,1,2.9,2.69,7.69,7.69,0,0,1,1.1,4.32,8.62,8.62,0,0,1-1.39,4.73,9.69,9.69,0,0,1-4.29,3.5A17.75,17.75,0,0,1,575.81,87.37Z"></path><path class="cls-2" d="M604.65,87V57.56H593.13V53.39h27.8v4.17H609.41V87Z"></path><path class="cls-2" d="M628.8,87V53.39h4.8V87Z"></path><path class="cls-2" d="M646.32,87V53.39h13.1A18.39,18.39,0,0,1,667,54.78a10.68,10.68,0,0,1,4.8,4,11.48,11.48,0,0,1,1.68,6.29,11.32,11.32,0,0,1-1.68,6.26,10.7,10.7,0,0,1-4.8,4,18.39,18.39,0,0,1-7.54,1.39H649l2.16-2.2V87ZM651.12,75,649,72.68h10.32q4.61,0,7-2a6.91,6.91,0,0,0,2.38-5.59,6.84,6.84,0,0,0-2.38-5.57q-2.37-2-7-2H649l2.16-2.4ZM668.78,87l-8.54-12.2h5.13L674,87Z"></path><path class="cls-2" d="M704.21,82.81h19.58V87H699.41V53.39h23.71v4.17H704.21Zm-.44-14.93h17.28V72H703.77Zm3.94-17.23,6.53-6.24h5.85L712,50.65Z"></path><path class="cls-2" d="M764.92,87.37a19.3,19.3,0,0,1-7.12-1.29,17.11,17.11,0,0,1-5.69-3.63A16.62,16.62,0,0,1,748.37,77a17.88,17.88,0,0,1,0-13.63,16.72,16.72,0,0,1,3.74-5.45,17.1,17.1,0,0,1,5.66-3.62,20.35,20.35,0,0,1,14.26,0,16.72,16.72,0,0,1,5.66,3.59,16.43,16.43,0,0,1,3.72,5.48,18.43,18.43,0,0,1,0,13.7,16.41,16.41,0,0,1-3.72,5.45A16.89,16.89,0,0,1,772,86.1,19.37,19.37,0,0,1,764.92,87.37Zm0-4.27a13.7,13.7,0,0,0,5.17-1,12.26,12.26,0,0,0,4.12-2.71A12.71,12.71,0,0,0,777,75.32a13.25,13.25,0,0,0,1-5.13A12.81,12.81,0,0,0,774.21,61a12.16,12.16,0,0,0-4.12-2.73,14.48,14.48,0,0,0-10.37,0A12.29,12.29,0,0,0,755.57,61a12.6,12.6,0,0,0-2.76,4.11,12.9,12.9,0,0,0-1,5.11,13.07,13.07,0,0,0,1,5.13,12.44,12.44,0,0,0,6.91,6.82A13.75,13.75,0,0,0,764.92,83.1Z"></path><path class="cls-2" d="M808.27,87V53.39h13.1a18.39,18.39,0,0,1,7.54,1.39,10.68,10.68,0,0,1,4.8,4,11.48,11.48,0,0,1,1.68,6.29,11.32,11.32,0,0,1-1.68,6.26,10.7,10.7,0,0,1-4.8,4,18.39,18.39,0,0,1-7.54,1.39H810.91l2.16-2.2V87ZM813.07,75l-2.16-2.36h10.32q4.6,0,7-2a6.88,6.88,0,0,0,2.38-5.59,6.81,6.81,0,0,0-2.38-5.57q-2.37-2-7-2H810.91l2.16-2.4ZM830.73,87l-8.54-12.2h5.13L836,87Z"></path><path class="cls-2" d="M850.6,82.81h19.59V87H845.8V53.39h23.72v4.17H850.6Zm-.43-14.93h17.28V72H850.17Z"></path><path class="cls-2" d="M890.4,87.37a23.09,23.09,0,0,1-7.35-1.17,15.2,15.2,0,0,1-5.52-3l1.78-3.75a15.69,15.69,0,0,0,4.89,2.79,17.84,17.84,0,0,0,6.2,1.1,14,14,0,0,0,4.75-.67,5.67,5.67,0,0,0,2.69-1.85,4.41,4.41,0,0,0,.86-2.66,3.65,3.65,0,0,0-1.13-2.79,8.39,8.39,0,0,0-2.93-1.7,32.92,32.92,0,0,0-4-1.13c-1.44-.32-2.88-.7-4.34-1.13a19.31,19.31,0,0,1-4-1.65A8.23,8.23,0,0,1,879.45,67a8,8,0,0,1-1.1-4.4,8.72,8.72,0,0,1,1.37-4.77,9.48,9.48,0,0,1,4.22-3.51A17.37,17.37,0,0,1,891.21,53a22.57,22.57,0,0,1,5.81.77A16.16,16.16,0,0,1,902,56l-1.58,3.84a15.39,15.39,0,0,0-4.56-2.09,17.92,17.92,0,0,0-4.66-.65,12.75,12.75,0,0,0-4.65.72,5.68,5.68,0,0,0-2.67,1.92,4.59,4.59,0,0,0-.84,2.69,3.68,3.68,0,0,0,1.13,2.83,7.92,7.92,0,0,0,2.93,1.68,39.56,39.56,0,0,0,4,1.13c1.44.34,2.89.71,4.34,1.13a18.83,18.83,0,0,1,4,1.63,8.23,8.23,0,0,1,2.9,2.69,7.69,7.69,0,0,1,1.1,4.32A8.62,8.62,0,0,1,902,82.55a9.69,9.69,0,0,1-4.29,3.5A17.75,17.75,0,0,1,890.4,87.37Z"></path><path class="cls-2" d="M913.05,87V53.39h13.11a18.38,18.38,0,0,1,7.53,1.39,10.68,10.68,0,0,1,4.8,4,11.48,11.48,0,0,1,1.68,6.29,11.32,11.32,0,0,1-1.68,6.26,10.89,10.89,0,0,1-4.8,4,18.2,18.2,0,0,1-7.53,1.41H915.69l2.16-2.25V87ZM917.85,75l-2.16-2.4H926q4.61,0,7-2a6.83,6.83,0,0,0,2.37-5.57A6.83,6.83,0,0,0,933,59.53q-2.38-2-7-2H915.69l2.16-2.4Z"></path><path class="cls-2" d="M954.67,82.81h19.58V87H949.87V53.39h23.71v4.17H954.67Zm-.43-14.93h17.28V72H954.24Z"></path><path class="cls-2" d="M984.67,87V53.39h4.8V87Z"></path><path class="cls-2" d="M1008.86,87V57.56H997.34V53.39h27.79v4.17h-11.52V87Z"></path><path class="cls-2" d="M1047.69,87.37a19.39,19.39,0,0,1-7.13-1.29,17.17,17.17,0,0,1-5.68-3.63,16.8,16.8,0,0,1-3.75-5.45,18,18,0,0,1,0-13.63,16.82,16.82,0,0,1,9.41-9.07,20.35,20.35,0,0,1,14.26,0,16.72,16.72,0,0,1,5.66,3.59,16.43,16.43,0,0,1,3.72,5.48,18.43,18.43,0,0,1,0,13.7,16.41,16.41,0,0,1-3.72,5.45,16.89,16.89,0,0,1-5.66,3.6A19.4,19.4,0,0,1,1047.69,87.37Zm0-4.27a13.62,13.62,0,0,0,5.16-1,12.2,12.2,0,0,0,4.13-2.71,12.71,12.71,0,0,0,2.74-4.11,13.25,13.25,0,0,0,1-5.13A12.81,12.81,0,0,0,1057,61a12.11,12.11,0,0,0-4.13-2.73,13.62,13.62,0,0,0-5.16-1,13.8,13.8,0,0,0-5.21,1,12.48,12.48,0,0,0-4.15,2.73,12.93,12.93,0,0,0-2.76,4.11,13.07,13.07,0,0,0-1,5.11,13.25,13.25,0,0,0,1,5.13,12.44,12.44,0,0,0,6.91,6.82A13.8,13.8,0,0,0,1047.69,83.1Z"></path><path class="cls-2" d="M1086,87l15.21-33.6h4.76L1121.18,87h-5l-13.59-30.91h1.93L1090.89,87Zm6.48-8.4,1.29-3.84h18.91l1.4,3.84Zm10.41-27.94-8.06-6.24h5.85l6.53,6.24Z"></path><path class="cls-2" d="M1138.6,87.37a23,23,0,0,1-7.34-1.17,15,15,0,0,1-5.52-3l1.78-3.75a15.69,15.69,0,0,0,4.89,2.79,17.83,17.83,0,0,0,6.19,1.1,14,14,0,0,0,4.76-.67,5.58,5.58,0,0,0,2.68-1.85,4.35,4.35,0,0,0,.87-2.66,3.65,3.65,0,0,0-1.13-2.79,8.39,8.39,0,0,0-2.93-1.7,32.92,32.92,0,0,0-4-1.13c-1.44-.32-2.89-.7-4.34-1.13a19.4,19.4,0,0,1-4-1.65,8.2,8.2,0,0,1-2.9-2.71,7.93,7.93,0,0,1-1.1-4.4,8.79,8.79,0,0,1,1.36-4.77,9.51,9.51,0,0,1,4.23-3.51,17.34,17.34,0,0,1,7.27-1.32,22.57,22.57,0,0,1,5.81.77,16.16,16.16,0,0,1,5,2.21l-1.58,3.84a15.51,15.51,0,0,0-4.56-2.09,18,18,0,0,0-4.66-.65,12.85,12.85,0,0,0-4.66.72,5.69,5.69,0,0,0-2.66,1.92,4.59,4.59,0,0,0-.84,2.69,3.65,3.65,0,0,0,1.13,2.83,7.92,7.92,0,0,0,2.93,1.68,39.56,39.56,0,0,0,4,1.13c1.44.34,2.88.71,4.34,1.13a18.74,18.74,0,0,1,4,1.63,8.27,8.27,0,0,1,2.91,2.69,7.78,7.78,0,0,1,1.1,4.32,8.62,8.62,0,0,1-1.39,4.73,9.66,9.66,0,0,1-4.3,3.5A17.68,17.68,0,0,1,1138.6,87.37Z"></path><path class="cls-2" d="M85.1,144.59V111H89l22.22,27.6H109.2V111H114v33.6h-3.94L87.84,117H89.9v27.6Z"></path><path class="cls-2" d="M141.89,145a19.35,19.35,0,0,1-7.13-1.29,17.21,17.21,0,0,1-5.69-3.63,16.62,16.62,0,0,1-3.74-5.45,17.88,17.88,0,0,1,0-13.63,16.72,16.72,0,0,1,3.74-5.45,17,17,0,0,1,5.67-3.62,20.32,20.32,0,0,1,14.25,0,16.54,16.54,0,0,1,5.67,3.6,16.29,16.29,0,0,1,3.72,5.47,18.43,18.43,0,0,1,0,13.7,16.41,16.41,0,0,1-3.72,5.45,16.84,16.84,0,0,1-5.67,3.6A19.31,19.31,0,0,1,141.89,145Zm0-4.27a13.69,13.69,0,0,0,5.16-1,12.3,12.3,0,0,0,4.13-2.71,12.68,12.68,0,0,0,2.73-4.11,13.07,13.07,0,0,0,1-5.13,12.92,12.92,0,0,0-3.72-9.22,12.2,12.2,0,0,0-4.13-2.73,14.48,14.48,0,0,0-10.37,0,12.38,12.38,0,0,0-4.15,2.73,12.6,12.6,0,0,0-2.76,4.11,12.9,12.9,0,0,0-1,5.11,13.07,13.07,0,0,0,1,5.13,12.3,12.3,0,0,0,2.76,4.11,12.48,12.48,0,0,0,4.15,2.71A13.76,13.76,0,0,0,141.89,140.7Z"></path><path class="cls-2" d="M179.47,145a23,23,0,0,1-7.34-1.17,15,15,0,0,1-5.52-3.05l1.77-3.75a15.74,15.74,0,0,0,4.9,2.79,17.78,17.78,0,0,0,6.19,1.1,13.93,13.93,0,0,0,4.75-.67,5.57,5.57,0,0,0,2.69-1.85,4.35,4.35,0,0,0,.87-2.66,3.67,3.67,0,0,0-1.13-2.79,8.39,8.39,0,0,0-2.93-1.7,32.92,32.92,0,0,0-4-1.13c-1.44-.32-2.89-.69-4.34-1.13a19.4,19.4,0,0,1-4-1.65,8.12,8.12,0,0,1-2.9-2.71,7.93,7.93,0,0,1-1.11-4.4,8.83,8.83,0,0,1,1.37-4.77,9.46,9.46,0,0,1,4.23-3.51,17.34,17.34,0,0,1,7.27-1.32,22.57,22.57,0,0,1,5.81.77,16.16,16.16,0,0,1,5,2.21l-1.59,3.84a15.39,15.39,0,0,0-4.56-2.09,17.9,17.9,0,0,0-4.65-.65,12.85,12.85,0,0,0-4.66.72,5.69,5.69,0,0,0-2.66,1.92,4.59,4.59,0,0,0-.84,2.69,3.65,3.65,0,0,0,1.13,2.83,7.88,7.88,0,0,0,2.92,1.68,37.07,37.07,0,0,0,4,1.13c1.44.34,2.89.71,4.35,1.13a19,19,0,0,1,4,1.63,8.27,8.27,0,0,1,2.91,2.69,7.78,7.78,0,0,1,1.1,4.32,8.62,8.62,0,0,1-1.39,4.73,9.66,9.66,0,0,1-4.3,3.5A17.68,17.68,0,0,1,179.47,145Z"></path><path class="cls-2" d="M211.92,145a23.09,23.09,0,0,1-7.35-1.17,15.2,15.2,0,0,1-5.52-3.05l1.78-3.75a15.63,15.63,0,0,0,4.9,2.79,17.78,17.78,0,0,0,6.19,1.1,14,14,0,0,0,4.75-.67,5.62,5.62,0,0,0,2.69-1.85,4.34,4.34,0,0,0,.86-2.66,3.63,3.63,0,0,0-1.13-2.79,8.34,8.34,0,0,0-2.92-1.7,32.92,32.92,0,0,0-4-1.13c-1.44-.32-2.89-.69-4.35-1.13a19.54,19.54,0,0,1-4-1.65,8.12,8.12,0,0,1-2.9-2.71,7.93,7.93,0,0,1-1.11-4.4,8.83,8.83,0,0,1,1.37-4.77,9.48,9.48,0,0,1,4.22-3.51,17.42,17.42,0,0,1,7.28-1.32,22.49,22.49,0,0,1,5.8.77,16.22,16.22,0,0,1,5,2.21L222,117.42a15.39,15.39,0,0,0-4.56-2.09,17.9,17.9,0,0,0-4.65-.65,12.81,12.81,0,0,0-4.66.72,5.59,5.59,0,0,0-2.66,1.92,4.53,4.53,0,0,0-.85,2.69,3.68,3.68,0,0,0,1.13,2.83,7.92,7.92,0,0,0,2.93,1.68,37.07,37.07,0,0,0,4,1.13c1.44.34,2.89.71,4.35,1.13a19,19,0,0,1,4,1.63,8.15,8.15,0,0,1,2.9,2.69,7.7,7.7,0,0,1,1.11,4.32,8.7,8.7,0,0,1-1.39,4.73,9.72,9.72,0,0,1-4.3,3.5A17.75,17.75,0,0,1,211.92,145Z"></path><path class="cls-2" d="M229.49,144.59,244.7,111h4.75l15.27,33.6h-5l-13.59-30.91H248l-13.58,30.91Zm6.48-8.4,1.29-3.84h18.91l1.4,3.84Z"></path><path class="cls-2" d="M282.14,145a23,23,0,0,1-7.34-1.17,15,15,0,0,1-5.52-3.05l1.77-3.75a15.74,15.74,0,0,0,4.9,2.79,17.78,17.78,0,0,0,6.19,1.1,13.93,13.93,0,0,0,4.75-.67,5.57,5.57,0,0,0,2.69-1.85,4.35,4.35,0,0,0,.87-2.66,3.67,3.67,0,0,0-1.13-2.79,8.39,8.39,0,0,0-2.93-1.7,32.92,32.92,0,0,0-4-1.13c-1.44-.32-2.89-.69-4.34-1.13a19.4,19.4,0,0,1-4-1.65,8.12,8.12,0,0,1-2.9-2.71,7.93,7.93,0,0,1-1.11-4.4,8.83,8.83,0,0,1,1.37-4.77,9.46,9.46,0,0,1,4.23-3.51A17.34,17.34,0,0,1,283,110.6a22.57,22.57,0,0,1,5.81.77,16.16,16.16,0,0,1,5,2.21l-1.59,3.84a15.39,15.39,0,0,0-4.56-2.09,17.9,17.9,0,0,0-4.65-.65,12.85,12.85,0,0,0-4.66.72,5.69,5.69,0,0,0-2.66,1.92,4.59,4.59,0,0,0-.84,2.69,3.65,3.65,0,0,0,1.13,2.83,7.88,7.88,0,0,0,2.92,1.68,37.07,37.07,0,0,0,4,1.13c1.44.34,2.89.71,4.35,1.13a19,19,0,0,1,4,1.63,8.27,8.27,0,0,1,2.91,2.69,7.78,7.78,0,0,1,1.1,4.32,8.62,8.62,0,0,1-1.39,4.73,9.66,9.66,0,0,1-4.3,3.5A17.68,17.68,0,0,1,282.14,145Z"></path><path class="cls-2" d="M320.35,144.59V111h4.8v33.6Z"></path><path class="cls-2" d="M337.87,144.59V111H352a20.43,20.43,0,0,1,9.48,2.11,15.62,15.62,0,0,1,6.38,5.9,18.06,18.06,0,0,1,0,17.57,15.58,15.58,0,0,1-6.38,5.91,20.56,20.56,0,0,1-9.48,2.11Zm4.8-4.18h9.07a15.58,15.58,0,0,0,7.23-1.58,11.56,11.56,0,0,0,4.72-4.44,13.86,13.86,0,0,0,0-13.23,11.56,11.56,0,0,0-4.72-4.41,15.45,15.45,0,0,0-7.23-1.59h-9.07Z"></path><path class="cls-2" d="M385,140.41h19.58v4.18H380.16V111h23.71v4.17H385Zm-.43-14.93h17.28v4.08H384.53Zm3.93-17.23L395,102h5.86l-8.07,6.24Z"></path><path class="cls-2" d="M415,144.59V111h4.8v33.6Z"></path><path class="cls-2" d="M427.39,144.59,442.61,111h4.75l15.26,33.6h-5L444,113.68h1.92l-13.59,30.91Zm6.48-8.4,1.3-3.84h18.91l1.39,3.84Z"></path><path class="cls-2" d="M480.05,145a23.09,23.09,0,0,1-7.35-1.17,15.2,15.2,0,0,1-5.52-3.05L469,137a15.69,15.69,0,0,0,4.89,2.79,17.84,17.84,0,0,0,6.2,1.1,14,14,0,0,0,4.75-.67,5.67,5.67,0,0,0,2.69-1.85,4.41,4.41,0,0,0,.86-2.66,3.67,3.67,0,0,0-1.13-2.79,8.39,8.39,0,0,0-2.93-1.7,32.92,32.92,0,0,0-4-1.13c-1.44-.32-2.88-.69-4.34-1.13a19.31,19.31,0,0,1-4-1.65,8.23,8.23,0,0,1-2.91-2.71,7.93,7.93,0,0,1-1.1-4.4,8.74,8.74,0,0,1,1.37-4.77,9.48,9.48,0,0,1,4.22-3.51,17.37,17.37,0,0,1,7.27-1.32,22.57,22.57,0,0,1,5.81.77,16.16,16.16,0,0,1,5,2.21l-1.58,3.84a15.39,15.39,0,0,0-4.56-2.09,17.92,17.92,0,0,0-4.66-.65,12.75,12.75,0,0,0-4.65.72,5.68,5.68,0,0,0-2.67,1.92,4.59,4.59,0,0,0-.84,2.69,3.68,3.68,0,0,0,1.13,2.83,7.92,7.92,0,0,0,2.93,1.68,37.07,37.07,0,0,0,4,1.13c1.44.34,2.89.71,4.34,1.13a18.83,18.83,0,0,1,4,1.63,8.23,8.23,0,0,1,2.9,2.69,7.69,7.69,0,0,1,1.1,4.32,8.62,8.62,0,0,1-1.39,4.73,9.69,9.69,0,0,1-4.29,3.5A17.75,17.75,0,0,1,480.05,145Z"></path><path class="cls-2" d="M523.05,140.41h19.59v4.18H518.25V111H542v4.17H523.05Zm-.43-14.93H539.9v4.08H522.62Z"></path><path class="cls-2" d="M563.52,144.59,578.73,111h4.76l15.26,33.6h-5l-13.58-30.91h1.92l-13.59,30.91Zm6.48-8.4,1.29-3.84h18.92l1.39,3.84Z"></path><path class="cls-2" d="M616.17,145a23,23,0,0,1-7.34-1.17,15,15,0,0,1-5.52-3.05l1.78-3.75a15.57,15.57,0,0,0,4.89,2.79,17.78,17.78,0,0,0,6.19,1.1,13.93,13.93,0,0,0,4.75-.67,5.57,5.57,0,0,0,2.69-1.85,4.35,4.35,0,0,0,.87-2.66,3.67,3.67,0,0,0-1.13-2.79,8.39,8.39,0,0,0-2.93-1.7,32.92,32.92,0,0,0-4-1.13c-1.44-.32-2.89-.69-4.34-1.13a19.4,19.4,0,0,1-4-1.65,8.12,8.12,0,0,1-2.9-2.71,7.93,7.93,0,0,1-1.1-4.4,8.82,8.82,0,0,1,1.36-4.77,9.46,9.46,0,0,1,4.23-3.51A17.34,17.34,0,0,1,617,110.6a22.57,22.57,0,0,1,5.81.77,16.16,16.16,0,0,1,5,2.21l-1.59,3.84a15.45,15.45,0,0,0-4.55-2.09,18,18,0,0,0-4.66-.65,12.85,12.85,0,0,0-4.66.72,5.69,5.69,0,0,0-2.66,1.92,4.59,4.59,0,0,0-.84,2.69,3.65,3.65,0,0,0,1.13,2.83,8,8,0,0,0,2.92,1.68,37.75,37.75,0,0,0,4,1.13c1.44.34,2.89.71,4.35,1.13a19,19,0,0,1,4,1.63,8.27,8.27,0,0,1,2.91,2.69,7.78,7.78,0,0,1,1.1,4.32,8.62,8.62,0,0,1-1.39,4.73,9.66,9.66,0,0,1-4.3,3.5A17.68,17.68,0,0,1,616.17,145Z"></path><path class="cls-2" d="M654.38,144.59V111h3.94l22.22,27.6h-2.06V111h4.8v33.6h-3.94L657.12,117h2.06v27.6Z"></path><path class="cls-2" d="M711.16,145a19.3,19.3,0,0,1-7.12-1.29,17.11,17.11,0,0,1-5.69-3.63,16.8,16.8,0,0,1-3.75-5.45,18,18,0,0,1,0-13.63,16.9,16.9,0,0,1,3.75-5.45A17.1,17.1,0,0,1,704,111.9a20.35,20.35,0,0,1,14.26,0,16.59,16.59,0,0,1,5.66,3.6,16.29,16.29,0,0,1,3.72,5.47,18.43,18.43,0,0,1,0,13.7,16.41,16.41,0,0,1-3.72,5.45,16.89,16.89,0,0,1-5.66,3.6A19.4,19.4,0,0,1,711.16,145Zm0-4.27a13.62,13.62,0,0,0,5.16-1,12.2,12.2,0,0,0,4.13-2.71,12.71,12.71,0,0,0,2.74-4.11,13.25,13.25,0,0,0,1-5.13,12.81,12.81,0,0,0-3.72-9.22,12.11,12.11,0,0,0-4.13-2.73,14.46,14.46,0,0,0-10.36,0,12.43,12.43,0,0,0-4.16,2.73,12.93,12.93,0,0,0-2.76,4.11,13.07,13.07,0,0,0-1,5.11,13.25,13.25,0,0,0,1,5.13,12.41,12.41,0,0,0,6.92,6.82A13.75,13.75,0,0,0,711.16,140.7Z"></path><path class="cls-2" d="M748.75,145a23.09,23.09,0,0,1-7.35-1.17,15.2,15.2,0,0,1-5.52-3.05l1.78-3.75a15.63,15.63,0,0,0,4.9,2.79,17.74,17.74,0,0,0,6.19,1.1,14,14,0,0,0,4.75-.67,5.62,5.62,0,0,0,2.69-1.85,4.41,4.41,0,0,0,.86-2.66,3.67,3.67,0,0,0-1.13-2.79,8.34,8.34,0,0,0-2.92-1.7,32.92,32.92,0,0,0-4-1.13c-1.44-.32-2.89-.69-4.35-1.13a19.54,19.54,0,0,1-4-1.65,8.23,8.23,0,0,1-2.91-2.71,8,8,0,0,1-1.1-4.4,8.83,8.83,0,0,1,1.37-4.77,9.48,9.48,0,0,1,4.22-3.51,17.4,17.4,0,0,1,7.27-1.32,22.51,22.51,0,0,1,5.81.77,16.05,16.05,0,0,1,5,2.21l-1.58,3.84a15.39,15.39,0,0,0-4.56-2.09,17.92,17.92,0,0,0-4.66-.65,12.75,12.75,0,0,0-4.65.72,5.68,5.68,0,0,0-2.67,1.92,4.59,4.59,0,0,0-.84,2.69,3.68,3.68,0,0,0,1.13,2.83,7.92,7.92,0,0,0,2.93,1.68,37.07,37.07,0,0,0,4,1.13c1.44.34,2.89.71,4.34,1.13a18.83,18.83,0,0,1,4,1.63,8.15,8.15,0,0,1,2.9,2.69,7.7,7.7,0,0,1,1.11,4.32,8.63,8.63,0,0,1-1.4,4.73,9.63,9.63,0,0,1-4.29,3.5A17.75,17.75,0,0,1,748.75,145Z"></path><path class="cls-2" d="M781.2,145a23,23,0,0,1-7.35-1.17,15,15,0,0,1-5.52-3.05l1.78-3.75a15.69,15.69,0,0,0,4.89,2.79,17.84,17.84,0,0,0,6.2,1.1,14,14,0,0,0,4.75-.67,5.67,5.67,0,0,0,2.69-1.85,4.41,4.41,0,0,0,.86-2.66,3.67,3.67,0,0,0-1.13-2.79,8.39,8.39,0,0,0-2.93-1.7,32.92,32.92,0,0,0-4-1.13c-1.44-.32-2.89-.69-4.34-1.13a19.31,19.31,0,0,1-4-1.65,8.23,8.23,0,0,1-2.91-2.71,7.93,7.93,0,0,1-1.1-4.4,8.74,8.74,0,0,1,1.37-4.77,9.48,9.48,0,0,1,4.22-3.51A17.37,17.37,0,0,1,782,110.6a22.57,22.57,0,0,1,5.81.77,16.16,16.16,0,0,1,5,2.21l-1.58,3.84a15.39,15.39,0,0,0-4.56-2.09,18,18,0,0,0-4.66-.65,12.75,12.75,0,0,0-4.65.72,5.68,5.68,0,0,0-2.67,1.92,4.59,4.59,0,0,0-.84,2.69,3.68,3.68,0,0,0,1.13,2.83,7.92,7.92,0,0,0,2.93,1.68,37.07,37.07,0,0,0,4,1.13c1.44.34,2.89.71,4.34,1.13a18.83,18.83,0,0,1,4,1.63,8.23,8.23,0,0,1,2.9,2.69,7.69,7.69,0,0,1,1.1,4.32,8.62,8.62,0,0,1-1.39,4.73,9.69,9.69,0,0,1-4.29,3.5A17.75,17.75,0,0,1,781.2,145Z"></path><path class="cls-2" d="M798.76,144.59,814,111h4.75L834,144.59h-5l-13.58-30.91h1.92l-13.58,30.91Zm6.48-8.4,1.3-3.84h18.91l1.39,3.84Z"></path><path class="cls-2" d="M851.42,145a23,23,0,0,1-7.34-1.17,15.17,15.17,0,0,1-5.53-3.05l1.78-3.75a15.63,15.63,0,0,0,4.9,2.79,17.74,17.74,0,0,0,6.19,1.1,14,14,0,0,0,4.75-.67,5.62,5.62,0,0,0,2.69-1.85,4.41,4.41,0,0,0,.86-2.66,3.63,3.63,0,0,0-1.13-2.79,8.34,8.34,0,0,0-2.92-1.7,32.92,32.92,0,0,0-4-1.13c-1.44-.32-2.89-.69-4.35-1.13a19.54,19.54,0,0,1-4-1.65,8.23,8.23,0,0,1-2.91-2.71,8,8,0,0,1-1.1-4.4,8.83,8.83,0,0,1,1.37-4.77,9.48,9.48,0,0,1,4.22-3.51,17.42,17.42,0,0,1,7.28-1.32,22.49,22.49,0,0,1,5.8.77,16.22,16.22,0,0,1,5,2.21l-1.59,3.84a15.39,15.39,0,0,0-4.56-2.09,17.9,17.9,0,0,0-4.65-.65,12.85,12.85,0,0,0-4.66.72,5.59,5.59,0,0,0-2.66,1.92,4.52,4.52,0,0,0-.84,2.69,3.68,3.68,0,0,0,1.12,2.83,7.92,7.92,0,0,0,2.93,1.68,37.07,37.07,0,0,0,4,1.13c1.44.34,2.89.71,4.34,1.13a18.83,18.83,0,0,1,4,1.63,8.15,8.15,0,0,1,2.9,2.69,7.7,7.7,0,0,1,1.11,4.32,8.7,8.7,0,0,1-1.39,4.73,9.72,9.72,0,0,1-4.3,3.5A17.75,17.75,0,0,1,851.42,145Z"></path><path class="cls-2" d="M899.32,144.59,884.54,111h5.18l13.59,31h-3L914,111h4.8l-14.74,33.6Z"></path><path class="cls-2" d="M940.55,145a19.3,19.3,0,0,1-7.12-1.29,17.11,17.11,0,0,1-5.69-3.63A16.62,16.62,0,0,1,924,134.6,17.88,17.88,0,0,1,924,121a16.72,16.72,0,0,1,3.74-5.45,17.1,17.1,0,0,1,5.66-3.62,20.35,20.35,0,0,1,14.26,0,16.59,16.59,0,0,1,5.66,3.6A16.29,16.29,0,0,1,957,121a18.43,18.43,0,0,1,0,13.7,16.41,16.41,0,0,1-3.72,5.45,16.89,16.89,0,0,1-5.66,3.6A19.4,19.4,0,0,1,940.55,145Zm0-4.27a13.62,13.62,0,0,0,5.16-1,12.2,12.2,0,0,0,4.13-2.71,12.71,12.71,0,0,0,2.74-4.11,13.25,13.25,0,0,0,1-5.13,12.81,12.81,0,0,0-3.72-9.22,12.11,12.11,0,0,0-4.13-2.73,14.46,14.46,0,0,0-10.36,0,12.43,12.43,0,0,0-4.16,2.73,12.93,12.93,0,0,0-2.76,4.11,13.07,13.07,0,0,0-1,5.11,13.25,13.25,0,0,0,1,5.13,12.41,12.41,0,0,0,6.92,6.82A13.75,13.75,0,0,0,940.55,140.7Z"></path><path class="cls-2" d="M968.35,144.59V111h3.93l22.23,27.6h-2.07V111h4.8v33.6h-3.93L971.08,117h2.07v27.6Z"></path><path class="cls-2" d="M1016.63,144.59V115.16h-11.52V111h27.8v4.17h-11.52v29.43Z"></path><path class="cls-2" d="M1034,144.59l15.22-33.6H1054l15.26,33.6h-5l-13.58-30.91h1.92L1039,144.59Zm6.48-8.4,1.3-3.84h18.91l1.39,3.84Z"></path><path class="cls-2" d="M1076.88,144.59V111H1091a20.36,20.36,0,0,1,9.47,2.11,15.65,15.65,0,0,1,6.39,5.9,18.06,18.06,0,0,1,0,17.57,15.61,15.61,0,0,1-6.39,5.91,20.48,20.48,0,0,1-9.47,2.11Zm4.79-4.18h9.08a15.53,15.53,0,0,0,7.22-1.58,11.59,11.59,0,0,0,4.73-4.44,13.86,13.86,0,0,0,0-13.23,11.58,11.58,0,0,0-4.73-4.41,15.41,15.41,0,0,0-7.22-1.59h-9.08Z"></path><path class="cls-2" d="M1124,140.41h19.59v4.18h-24.39V111h23.71v4.17H1124Zm-.43-14.93h17.28v4.08h-17.28Z"></path><path class="cls-2" d="M1163.75,145a23,23,0,0,1-7.34-1.17,15,15,0,0,1-5.52-3.05l1.78-3.75a15.69,15.69,0,0,0,4.89,2.79,17.83,17.83,0,0,0,6.19,1.1,14,14,0,0,0,4.76-.67,5.58,5.58,0,0,0,2.68-1.85,4.35,4.35,0,0,0,.87-2.66,3.67,3.67,0,0,0-1.13-2.79,8.39,8.39,0,0,0-2.93-1.7,32.92,32.92,0,0,0-4-1.13c-1.44-.32-2.89-.69-4.34-1.13a19.4,19.4,0,0,1-4-1.65,8.2,8.2,0,0,1-2.9-2.71,7.93,7.93,0,0,1-1.1-4.4,8.82,8.82,0,0,1,1.36-4.77,9.51,9.51,0,0,1,4.23-3.51,17.37,17.37,0,0,1,7.27-1.32,22.57,22.57,0,0,1,5.81.77,16.16,16.16,0,0,1,5,2.21l-1.58,3.84a15.39,15.39,0,0,0-4.56-2.09,18,18,0,0,0-4.66-.65,12.85,12.85,0,0,0-4.66.72,5.69,5.69,0,0,0-2.66,1.92,4.59,4.59,0,0,0-.84,2.69,3.68,3.68,0,0,0,1.13,2.83,7.92,7.92,0,0,0,2.93,1.68,37.07,37.07,0,0,0,4,1.13c1.44.34,2.88.71,4.34,1.13a18.74,18.74,0,0,1,4,1.63,8.27,8.27,0,0,1,2.91,2.69,7.78,7.78,0,0,1,1.1,4.32,8.62,8.62,0,0,1-1.39,4.73,9.66,9.66,0,0,1-4.3,3.5A17.68,17.68,0,0,1,1163.75,145Z"></path><path class="cls-2" d="M1184.87,151.69l2.4-9.69.63,2.78a3.32,3.32,0,0,1-2.33-.86,3.07,3.07,0,0,1-.94-2.36,3.16,3.16,0,0,1,.94-2.35,3.12,3.12,0,0,1,2.28-.91,2.92,2.92,0,0,1,2.26.94,3.31,3.31,0,0,1,.86,2.32,5.78,5.78,0,0,1-.07.94,10.75,10.75,0,0,1-.24,1.06,14.64,14.64,0,0,1-.51,1.46l-2.25,6.67Z"></path><path class="cls-2" d="M144.77,202.19v-33.6h13.1a18.39,18.39,0,0,1,7.54,1.39,10.68,10.68,0,0,1,4.8,4,11.48,11.48,0,0,1,1.68,6.29,11.32,11.32,0,0,1-1.68,6.26,10.89,10.89,0,0,1-4.8,4,18.22,18.22,0,0,1-7.54,1.41H147.41l2.16-2.25v12.43Zm4.8-11.95-2.16-2.4h10.32q4.61,0,7-2a7.71,7.71,0,0,0,0-11.14q-2.37-2-7-2H147.41l2.16-2.4Z"></path><path class="cls-2" d="M197.23,202.57a19.35,19.35,0,0,1-7.13-1.29,17.21,17.21,0,0,1-5.69-3.63,16.77,16.77,0,0,1-3.74-5.45,17,17,0,0,1,9.41-22.7,20.32,20.32,0,0,1,14.25,0,16.54,16.54,0,0,1,5.67,3.6,16.29,16.29,0,0,1,3.72,5.47,18.43,18.43,0,0,1,0,13.7A16.41,16.41,0,0,1,210,197.7a16.84,16.84,0,0,1-5.67,3.6A19.31,19.31,0,0,1,197.23,202.57Zm0-4.27a13.62,13.62,0,0,0,5.16-1,12.3,12.3,0,0,0,4.13-2.71,12.52,12.52,0,0,0,2.73-4.11,13.07,13.07,0,0,0,1-5.13,12.92,12.92,0,0,0-3.72-9.22,12.2,12.2,0,0,0-4.13-2.73,13.62,13.62,0,0,0-5.16-1,13.8,13.8,0,0,0-5.21,1,12.38,12.38,0,0,0-4.15,2.73,12.72,12.72,0,0,0-3.74,9.22,13.06,13.06,0,0,0,1,5.13,12.44,12.44,0,0,0,6.91,6.82A13.8,13.8,0,0,0,197.23,198.3Z"></path><path class="cls-2" d="M225,202.19v-33.6h13.11a18.38,18.38,0,0,1,7.53,1.39,10.68,10.68,0,0,1,4.8,4,11.48,11.48,0,0,1,1.68,6.29,11.32,11.32,0,0,1-1.68,6.26,10.7,10.7,0,0,1-4.8,4,18.38,18.38,0,0,1-7.53,1.39H227.66l2.16-2.2v12.43Zm4.8-11.95-2.16-2.36H238q4.61,0,7-2a7.75,7.75,0,0,0,0-11.16q-2.39-2-7-2H227.66l2.16-2.4Zm17.67,11.95L238.94,190h5.14l8.64,12.19Z"></path><path class="cls-2" d="M277.73,202.57a19.35,19.35,0,0,1-7.13-1.29,17.21,17.21,0,0,1-5.69-3.63,16.62,16.62,0,0,1-3.74-5.45,17.88,17.88,0,0,1,0-13.63,16.72,16.72,0,0,1,3.74-5.45,17.1,17.1,0,0,1,5.66-3.62,20.35,20.35,0,0,1,14.26,0,16.49,16.49,0,0,1,5.66,3.6,16.29,16.29,0,0,1,3.72,5.47,18.43,18.43,0,0,1,0,13.7,16.41,16.41,0,0,1-3.72,5.45,16.8,16.8,0,0,1-5.66,3.6A19.35,19.35,0,0,1,277.73,202.57Zm0-4.27a13.69,13.69,0,0,0,5.16-1A12,12,0,0,0,287,194.6a12.85,12.85,0,0,0,3.72-9.21,13.11,13.11,0,0,0-1-5.14,12.66,12.66,0,0,0-2.74-4.1,12.16,12.16,0,0,0-4.12-2.71,14.48,14.48,0,0,0-10.37,0,12.38,12.38,0,0,0-4.15,2.71,12.25,12.25,0,0,0-2.76,4.1,13.71,13.71,0,0,0,0,10.23,12.54,12.54,0,0,0,2.76,4.12,12.16,12.16,0,0,0,4.15,2.74A13.76,13.76,0,0,0,277.73,198.3Zm11,10.9a12,12,0,0,1-6.29-1.71,21.1,21.1,0,0,1-3.17-2.3,49.17,49.17,0,0,1-3.55-3.48l5.14-1.35a21.85,21.85,0,0,0,2.76,2.91,9.39,9.39,0,0,0,2.61,1.63,7,7,0,0,0,2.59.5,7.88,7.88,0,0,0,6.1-2.88l2.26,2.74A10.5,10.5,0,0,1,288.72,209.2Z"></path><path class="cls-2" d="M319.44,202.57q-6.63,0-10.42-3.79t-3.79-11.09v-19.1H310V187.5q0,5.61,2.47,8.21a9.2,9.2,0,0,0,7,2.59q4.56,0,7-2.59T329,187.5V168.59h4.66v19.1q0,7.31-3.77,11.09T319.44,202.57Z"></path><path class="cls-2" d="M350.92,198h19.59v4.18H346.13v-33.6h23.71v4.17H350.92Zm-.43-14.93h17.28v4.08H350.49Z"></path><path class="cls-2" d="M406.17,202.19l-14.78-33.6h5.18l13.59,31h-3l13.68-31h4.8l-14.74,33.6Z"></path><path class="cls-2" d="M432.57,202.19v-33.6h4.8v33.6Z"></path><path class="cls-2" d="M459.45,202.19l-14.78-33.6h5.18l13.59,31h-3l13.68-31h4.8l-14.74,33.6Z"></path><path class="cls-2" d="M490.65,198h19.59v4.18H485.85v-33.6h23.72v4.17H490.65Zm-.43-14.93H507.5v4.08H490.22Z"></path><path class="cls-2" d="M520.65,202.19v-33.6h3.94L539.66,194h-2.11l14.88-25.39h3.94l0,33.6h-4.6l0-26.35h1.1l-13.25,22.27h-2.2l-13.35-22.27h1.2v26.35Z"></path><path class="cls-2" d="M584.3,202.57a19.35,19.35,0,0,1-7.13-1.29,17.07,17.07,0,0,1-5.68-3.63,16.64,16.64,0,0,1-3.75-5.45,18,18,0,0,1,0-13.63,16.82,16.82,0,0,1,9.41-9.07,20.32,20.32,0,0,1,14.25,0,16.54,16.54,0,0,1,5.67,3.6,16.29,16.29,0,0,1,3.72,5.47,18.43,18.43,0,0,1,0,13.7,16.41,16.41,0,0,1-3.72,5.45,16.84,16.84,0,0,1-5.67,3.6A19.31,19.31,0,0,1,584.3,202.57Zm0-4.27a13.62,13.62,0,0,0,5.16-1,12.2,12.2,0,0,0,4.13-2.71,12.52,12.52,0,0,0,2.73-4.11,13.07,13.07,0,0,0,1-5.13,12.92,12.92,0,0,0-3.72-9.22,12.11,12.11,0,0,0-4.13-2.73,13.62,13.62,0,0,0-5.16-1,13.8,13.8,0,0,0-5.21,1,12.38,12.38,0,0,0-4.15,2.73,12.72,12.72,0,0,0-3.74,9.22,13.06,13.06,0,0,0,1,5.13,12.44,12.44,0,0,0,6.91,6.82A13.8,13.8,0,0,0,584.3,198.3Z"></path><path class="cls-2" d="M621.88,202.57a23,23,0,0,1-7.34-1.17,15,15,0,0,1-5.52-3.05l1.78-3.75a15.69,15.69,0,0,0,4.89,2.79,17.83,17.83,0,0,0,6.19,1.1,14,14,0,0,0,4.76-.67,5.58,5.58,0,0,0,2.68-1.85,4.35,4.35,0,0,0,.87-2.66,3.67,3.67,0,0,0-1.13-2.79,8.39,8.39,0,0,0-2.93-1.7,32.92,32.92,0,0,0-4-1.13c-1.44-.32-2.89-.69-4.34-1.13a19.4,19.4,0,0,1-4-1.65,8.2,8.2,0,0,1-2.9-2.71,7.93,7.93,0,0,1-1.1-4.4A8.82,8.82,0,0,1,611.2,173a9.51,9.51,0,0,1,4.23-3.51,17.37,17.37,0,0,1,7.27-1.32,22.57,22.57,0,0,1,5.81.77,16.16,16.16,0,0,1,5,2.21L631.92,175a15.39,15.39,0,0,0-4.56-2.09,18,18,0,0,0-4.66-.65A12.85,12.85,0,0,0,618,173a5.69,5.69,0,0,0-2.66,1.92,4.59,4.59,0,0,0-.84,2.69,3.68,3.68,0,0,0,1.13,2.83,7.92,7.92,0,0,0,2.93,1.68,39.56,39.56,0,0,0,4,1.13c1.44.34,2.88.71,4.34,1.13a18.74,18.74,0,0,1,4,1.63,8.27,8.27,0,0,1,2.91,2.69,7.78,7.78,0,0,1,1.1,4.32,8.62,8.62,0,0,1-1.39,4.73,9.66,9.66,0,0,1-4.3,3.5A17.68,17.68,0,0,1,621.88,202.57Z"></path><path class="cls-2" d="M655,202.19l15.21-33.6H675l15.27,33.6h-5l-13.59-30.91h1.92L660,202.19Zm6.47-8.4,1.3-3.84h18.91l1.4,3.84Z"></path><path class="cls-2" d="M708.33,202.19l15.22-33.6h4.75l15.26,33.6h-5l-13.58-30.91h1.92l-13.58,30.91Zm6.48-8.4,1.3-3.84H735l1.39,3.84Z"></path><path class="cls-2" d="M751.2,202.19v-33.6h14.16a20.43,20.43,0,0,1,9.48,2.11,15.69,15.69,0,0,1,6.38,5.9,18.06,18.06,0,0,1,0,17.57,15.64,15.64,0,0,1-6.38,5.91,20.56,20.56,0,0,1-9.48,2.11ZM756,198h9.07a15.53,15.53,0,0,0,7.22-1.58A11.59,11.59,0,0,0,777,192a13.86,13.86,0,0,0,0-13.23,11.58,11.58,0,0,0-4.73-4.41,15.41,15.41,0,0,0-7.22-1.59H756Z"></path><path class="cls-2" d="M808.65,202.57a19.35,19.35,0,0,1-7.13-1.29,17.17,17.17,0,0,1-5.68-3.63,16.64,16.64,0,0,1-3.75-5.45,18,18,0,0,1,0-13.63,16.75,16.75,0,0,1,3.75-5.45,17,17,0,0,1,5.66-3.62,20.35,20.35,0,0,1,14.26,0,16.59,16.59,0,0,1,5.66,3.6,16.29,16.29,0,0,1,3.72,5.47,18.43,18.43,0,0,1,0,13.7,16.41,16.41,0,0,1-3.72,5.45,16.89,16.89,0,0,1-5.66,3.6A19.4,19.4,0,0,1,808.65,202.57Zm0-4.27a13.62,13.62,0,0,0,5.16-1,12.2,12.2,0,0,0,4.13-2.71,12.71,12.71,0,0,0,2.74-4.11,13.25,13.25,0,0,0,1-5.13,12.81,12.81,0,0,0-3.72-9.22,12.11,12.11,0,0,0-4.13-2.73,13.62,13.62,0,0,0-5.16-1,13.8,13.8,0,0,0-5.21,1,12.38,12.38,0,0,0-4.15,2.73,12.93,12.93,0,0,0-2.76,4.11,13.07,13.07,0,0,0-1,5.11,13.25,13.25,0,0,0,1,5.13,12.44,12.44,0,0,0,6.91,6.82A13.8,13.8,0,0,0,808.65,198.3Z"></path><path class="cls-2" d="M836.44,202.19v-33.6h4.8V198h18.19v4.18Z"></path><path class="cls-2" d="M872.39,198H892v4.18H867.59v-33.6h23.72v4.17H872.39ZM872,183.08h17.28v4.08H872Z"></path><path class="cls-2" d="M912.19,202.57a23.09,23.09,0,0,1-7.35-1.17,15.2,15.2,0,0,1-5.52-3.05l1.78-3.75a15.69,15.69,0,0,0,4.89,2.79,17.84,17.84,0,0,0,6.2,1.1,14,14,0,0,0,4.75-.67,5.67,5.67,0,0,0,2.69-1.85,4.41,4.41,0,0,0,.86-2.66,3.67,3.67,0,0,0-1.13-2.79,8.39,8.39,0,0,0-2.93-1.7,32.92,32.92,0,0,0-4-1.13c-1.44-.32-2.88-.69-4.34-1.13a19.31,19.31,0,0,1-4-1.65,8.23,8.23,0,0,1-2.91-2.71,8,8,0,0,1-1.1-4.4,8.74,8.74,0,0,1,1.37-4.77,9.48,9.48,0,0,1,4.22-3.51A17.37,17.37,0,0,1,913,168.2a22.57,22.57,0,0,1,5.81.77,16.16,16.16,0,0,1,5,2.21L922.22,175a15.39,15.39,0,0,0-4.56-2.09,17.92,17.92,0,0,0-4.66-.65,12.75,12.75,0,0,0-4.65.72,5.68,5.68,0,0,0-2.67,1.92,4.59,4.59,0,0,0-.84,2.69,3.68,3.68,0,0,0,1.13,2.83,7.92,7.92,0,0,0,2.93,1.68,39.56,39.56,0,0,0,4,1.13c1.44.34,2.89.71,4.34,1.13a18.83,18.83,0,0,1,4,1.63,8.23,8.23,0,0,1,2.9,2.69,7.69,7.69,0,0,1,1.1,4.32,8.62,8.62,0,0,1-1.39,4.73,9.69,9.69,0,0,1-4.29,3.5A17.75,17.75,0,0,1,912.19,202.57Z"></path><path class="cls-2" d="M949.87,202.57a19.17,19.17,0,0,1-7.08-1.27,16.62,16.62,0,0,1-5.62-3.6,17.75,17.75,0,0,1-3.72-19.18,16.71,16.71,0,0,1,9.38-9,20.2,20.2,0,0,1,14.26,0,14.66,14.66,0,0,1,5.59,3.92l-3.12,3a12.58,12.58,0,0,0-4.32-3,13.31,13.31,0,0,0-5.13-1,14.14,14.14,0,0,0-5.26,1,12.53,12.53,0,0,0-4.2,2.68,12.29,12.29,0,0,0-2.76,4.11,14.07,14.07,0,0,0,0,10.32,12.25,12.25,0,0,0,2.76,4.1,12.56,12.56,0,0,0,4.2,2.69,14.14,14.14,0,0,0,5.26,1,13.5,13.5,0,0,0,5.13-1,12.33,12.33,0,0,0,4.32-3l3.12,3a14.92,14.92,0,0,1-5.59,3.94A19,19,0,0,1,949.87,202.57Z"></path><path class="cls-2" d="M977,198h19.58v4.18H972.19v-33.6H995.9v4.17H977Zm-1.49-32.16,6.38-6.24h4.42l6.38,6.24h-4.17l-6.34-5.28H986l-6.34,5.28Zm1,17.23h17.29v4.08H976.55Z"></path><path class="cls-2" d="M1007,202.19v-33.6h3.93l22.23,27.6h-2.07v-27.6h4.8v33.6H1032l-22.23-27.6h2.07v27.6Z"></path><path class="cls-2" d="M1063.63,202.57a19.17,19.17,0,0,1-7.08-1.27,16.62,16.62,0,0,1-5.62-3.6,17.75,17.75,0,0,1-3.72-19.18,16.71,16.71,0,0,1,9.38-9,20.2,20.2,0,0,1,14.26,0,14.66,14.66,0,0,1,5.59,3.92l-3.12,3a12.58,12.58,0,0,0-4.32-3,13.31,13.31,0,0,0-5.13-1,14.14,14.14,0,0,0-5.26,1,12.53,12.53,0,0,0-4.2,2.68,12.15,12.15,0,0,0-2.76,4.11,14.07,14.07,0,0,0,0,10.32,12.1,12.1,0,0,0,2.76,4.1,12.56,12.56,0,0,0,4.2,2.69,14.14,14.14,0,0,0,5.26,1,13.5,13.5,0,0,0,5.13-1,12.33,12.33,0,0,0,4.32-3l3.12,3a14.92,14.92,0,0,1-5.59,3.94A19,19,0,0,1,1063.63,202.57Z"></path><path class="cls-2" d="M1086,202.19v-33.6h4.8v33.6Z"></path><path class="cls-2" d="M1098.38,202.19l15.21-33.6h4.76l15.26,33.6h-5L1115,171.28h1.92l-13.59,30.91Zm6.48-8.4,1.29-3.84h18.92l1.39,3.84Z"></path><path class="cls-2" d="M262.61,260.17a19.17,19.17,0,0,1-7.08-1.27,16.62,16.62,0,0,1-5.62-3.6,17.29,17.29,0,0,1,0-24.63,16.73,16.73,0,0,1,5.64-3.59,20.2,20.2,0,0,1,14.26,0,14.66,14.66,0,0,1,5.59,3.92l-3.12,3a12.44,12.44,0,0,0-4.32-3,13.31,13.31,0,0,0-5.13-1,14.18,14.18,0,0,0-5.26,1,12.53,12.53,0,0,0-4.2,2.68,12.19,12.19,0,0,0-2.76,4.11,14.07,14.07,0,0,0,0,10.32,12.25,12.25,0,0,0,2.76,4.1,12.56,12.56,0,0,0,4.2,2.69,14.18,14.18,0,0,0,5.26,1,13.32,13.32,0,0,0,5.13-1,12.17,12.17,0,0,0,4.32-3l3.12,3a14.92,14.92,0,0,1-5.59,3.94A19,19,0,0,1,262.61,260.17Z"></path><path class="cls-2" d="M299.37,260.17a19.1,19.1,0,0,1-7.12-1.3,16.75,16.75,0,0,1-9.44-9.07,18,18,0,0,1,0-13.63,16.9,16.9,0,0,1,3.75-5.45,17.1,17.1,0,0,1,5.66-3.62,20.35,20.35,0,0,1,14.26,0,16.72,16.72,0,0,1,5.66,3.59,16.43,16.43,0,0,1,3.72,5.48,18.43,18.43,0,0,1,0,13.7,16.41,16.41,0,0,1-3.72,5.45,16.89,16.89,0,0,1-5.66,3.6A19.4,19.4,0,0,1,299.37,260.17Zm0-4.27a13.62,13.62,0,0,0,5.16-1,12.2,12.2,0,0,0,4.13-2.71,12.71,12.71,0,0,0,2.74-4.11,13.89,13.89,0,0,0,0-10.25,13,13,0,0,0-2.74-4.1,12.11,12.11,0,0,0-4.13-2.73,14.46,14.46,0,0,0-10.36,0,12.43,12.43,0,0,0-4.16,2.73,12.88,12.88,0,0,0-2.76,4.1,13.89,13.89,0,0,0,0,10.25,12.41,12.41,0,0,0,6.92,6.82A13.75,13.75,0,0,0,299.37,255.9Z"></path><path class="cls-2" d="M327.17,259.79v-33.6h3.93l15.07,25.39h-2.11l14.88-25.39h3.94l.05,33.6h-4.61l-.05-26.35h1.1l-13.24,22.27h-2.21l-13.35-22.27h1.2v26.35Z"></path><path class="cls-2" d="M390.81,260.17a19.19,19.19,0,0,1-7.13-1.3,17,17,0,0,1-5.68-3.62,16.8,16.8,0,0,1-3.75-5.45,18,18,0,0,1,0-13.63,16.82,16.82,0,0,1,9.41-9.07,20.35,20.35,0,0,1,14.26,0,16.72,16.72,0,0,1,5.66,3.59,16.43,16.43,0,0,1,3.72,5.48,18.43,18.43,0,0,1,0,13.7,16.41,16.41,0,0,1-3.72,5.45,16.89,16.89,0,0,1-5.66,3.6A19.4,19.4,0,0,1,390.81,260.17Zm0-4.27a13.62,13.62,0,0,0,5.16-1,12.2,12.2,0,0,0,4.13-2.71,12.71,12.71,0,0,0,2.74-4.11,13.89,13.89,0,0,0,0-10.25,13,13,0,0,0-2.74-4.1A12.11,12.11,0,0,0,396,231a13.62,13.62,0,0,0-5.16-1,13.8,13.8,0,0,0-5.21,1,12.48,12.48,0,0,0-4.15,2.73,12.88,12.88,0,0,0-2.76,4.1,13.89,13.89,0,0,0,0,10.25,12.44,12.44,0,0,0,6.91,6.82A13.8,13.8,0,0,0,390.81,255.9Z"></path><path class="cls-2" d="M439,255.61h19.58v4.18H434.16v-33.6h23.71v4.17H439Zm-.43-14.93h17.28v4.08H438.53Z"></path><path class="cls-2" d="M469,259.79v-33.6h4.8v29.42H492v4.18Z"></path><path class="cls-2" d="M495,259.79l15.22-33.6H515l15.26,33.6h-5l-13.58-30.92h1.92L500,259.79Zm6.48-8.4,1.3-3.84h18.91l1.39,3.84Z"></path><path class="cls-2" d="M553.44,259.79v-33.6H567.6a20.43,20.43,0,0,1,9.48,2.11,15.69,15.69,0,0,1,6.38,5.9,18.06,18.06,0,0,1,0,17.57,15.55,15.55,0,0,1-6.38,5.9,20.43,20.43,0,0,1-9.48,2.12Zm4.8-4.18h9.07a15.53,15.53,0,0,0,7.22-1.58,11.59,11.59,0,0,0,4.73-4.44,13.86,13.86,0,0,0,0-13.23,11.58,11.58,0,0,0-4.73-4.41,15.41,15.41,0,0,0-7.22-1.59h-9.07Z"></path><path class="cls-2" d="M600.52,255.61h19.59v4.18H595.72v-33.6h23.72v4.17H600.52Zm-.43-14.93h17.28v4.08H600.09Z"></path><path class="cls-2" d="M639.74,259.79,625,226.19h5.18l13.58,31h-3l13.68-31h4.8l-14.74,33.6Z"></path><path class="cls-2" d="M670.94,255.61h19.58v4.18H666.14v-33.6h23.71v4.17H670.94Zm-.43-14.93h17.28v4.08H670.51Z"></path><path class="cls-2" d="M726.28,260.17a23,23,0,0,1-7.34-1.17,15,15,0,0,1-5.52-3.05l1.78-3.75a15.69,15.69,0,0,0,4.89,2.79,17.83,17.83,0,0,0,6.19,1.1,14,14,0,0,0,4.76-.67,5.58,5.58,0,0,0,2.68-1.85,4.35,4.35,0,0,0,.87-2.66,3.65,3.65,0,0,0-1.13-2.79,8.39,8.39,0,0,0-2.93-1.7,32.92,32.92,0,0,0-4-1.13c-1.44-.32-2.89-.7-4.34-1.13a19.4,19.4,0,0,1-4-1.65,8.23,8.23,0,0,1-2.9-2.72,7.87,7.87,0,0,1-1.1-4.39,8.79,8.79,0,0,1,1.36-4.77,9.51,9.51,0,0,1,4.23-3.51,17.37,17.37,0,0,1,7.27-1.32,22.57,22.57,0,0,1,5.81.77,16.16,16.16,0,0,1,5,2.21l-1.58,3.84a15.39,15.39,0,0,0-4.56-2.09,18,18,0,0,0-4.66-.65,12.85,12.85,0,0,0-4.66.72,5.69,5.69,0,0,0-2.66,1.92,4.59,4.59,0,0,0-.84,2.69,3.68,3.68,0,0,0,1.13,2.83,7.92,7.92,0,0,0,2.93,1.68,39.56,39.56,0,0,0,4,1.13c1.44.34,2.88.71,4.34,1.13a18.74,18.74,0,0,1,4,1.63,8.27,8.27,0,0,1,2.91,2.69,7.78,7.78,0,0,1,1.1,4.32,8.62,8.62,0,0,1-1.39,4.73,9.66,9.66,0,0,1-4.3,3.5A17.68,17.68,0,0,1,726.28,260.17Z"></path><path class="cls-2" d="M753.74,255.61h19.58v4.18H748.94v-33.6h23.71v4.17H753.74Zm-.43-14.93h17.28v4.08H753.31Z"></path><path class="cls-2" d="M783.74,259.79v-33.6h13.1a18.39,18.39,0,0,1,7.54,1.39,10.68,10.68,0,0,1,4.8,4,11.48,11.48,0,0,1,1.68,6.29,11.32,11.32,0,0,1-1.68,6.26,10.7,10.7,0,0,1-4.8,4,18.39,18.39,0,0,1-7.54,1.39H786.38l2.16-2.2v12.43Zm4.8-12-2.16-2.35H796.7q4.6,0,7-2a7.73,7.73,0,0,0,0-11.16q-2.37-2-7-2H786.38l2.16-2.4Zm17.66,12-8.54-12.2h5.14l8.64,12.2Z"></path><path class="cls-2" d="M846.52,259.79l-14.78-33.6h5.18l13.59,31h-3l13.68-31H866l-14.73,33.6Z"></path><path class="cls-2" d="M872.92,259.79v-33.6h4.8v33.6Z"></path><path class="cls-2" d="M899.8,259.79,885,226.19h5.18l13.59,31h-3l13.68-31h4.8l-14.73,33.6Z"></path><path class="cls-2" d="M926.2,259.79v-33.6H931v33.6Z"></path><path class="cls-2" d="M943.72,259.79v-33.6h14.16a20.37,20.37,0,0,1,9.48,2.11,15.65,15.65,0,0,1,6.39,5.9,18.06,18.06,0,0,1,0,17.57,15.52,15.52,0,0,1-6.39,5.9,20.38,20.38,0,0,1-9.48,2.12Zm4.8-4.18h9.08a15.53,15.53,0,0,0,7.22-1.58,11.59,11.59,0,0,0,4.73-4.44,13.86,13.86,0,0,0,0-13.23,11.58,11.58,0,0,0-4.73-4.41,15.41,15.41,0,0,0-7.22-1.59h-9.08Z"></path><path class="cls-2" d="M980.44,259.79l15.22-33.6h4.75l15.26,33.6h-5l-13.58-30.92H999l-13.58,30.92Zm6.48-8.4,1.3-3.84h18.91l1.39,3.84Z"></path><path class="cls-2" d="M1025.32,260.08a3.24,3.24,0,0,1-3.26-3.32,3.1,3.1,0,0,1,1-2.35,3.22,3.22,0,0,1,2.3-.91,3.1,3.1,0,0,1,2.24.91,3.15,3.15,0,0,1,.93,2.35,3.25,3.25,0,0,1-.93,2.38A3.08,3.08,0,0,1,1025.32,260.08Z"></path></g></g></g></svg>