<svg xmlns="http://www.w3.org/2000/svg" viewBox="0 0 3200.18 329.96"><defs><style>.cls-1{fill:#ededee;}</style></defs><title>4</title><g id="Camada_2" data-name="Camada 2"><g id="Camada_1-2" data-name="Camada 1"><g id="DESKTOP4_cópia" data-name="DESKTOP4 cópia"><rect x="574.47" width="395.39" height="81.07"/><rect x="2.67" y="78.17" width="1889.22" height="81.07"/><rect x="612.6" y="159.57" width="368.4" height="81.07"/><rect x="2952.74" y="159.57" width="158.22" height="81.07"/><rect x="848.33" y="237.33" width="1473.36" height="86.88"/><rect x="2376.25" y="3.03" width="823.93" height="81.07"/><path class="cls-1" d="M-1493,1285.84l22.88-50.53h7.14l23,50.53h-7.58l-20.43-46.49h2.89l-20.43,46.49Zm9.74-12.64,2-5.77h28.44l2.09,5.77Z" transform="translate(1493.01 -1207.29)"/><path class="cls-1" d="M-1428.55,1285.84v-50.53h21.29a30.85,30.85,0,0,1,14.26,3.17,23.55,23.55,0,0,1,9.6,8.88,25.2,25.2,0,0,1,3.43,13.21,25.17,25.17,0,0,1-3.43,13.21,23.55,23.55,0,0,1-9.6,8.88,30.73,30.73,0,0,1-14.26,3.18Zm7.21-6.28h13.65a23.26,23.26,0,0,0,10.86-2.39,17.22,17.22,0,0,0,7.11-6.67,19.3,19.3,0,0,0,2.53-9.93,19.2,19.2,0,0,0-2.53-10,17.35,17.35,0,0,0-7.11-6.64,23.26,23.26,0,0,0-10.86-2.38h-13.65Z" transform="translate(1493.01 -1207.29)"/><path class="cls-1" d="M-1342.15,1286.41a28.94,28.94,0,0,1-10.72-2,25.43,25.43,0,0,1-8.55-5.45,25.09,25.09,0,0,1-5.64-8.19,25.75,25.75,0,0,1-2-10.25,25.79,25.79,0,0,1,2-10.25,25.09,25.09,0,0,1,5.64-8.19,25.56,25.56,0,0,1,8.51-5.45,28.89,28.89,0,0,1,10.76-2,29.25,29.25,0,0,1,10.68,1.91,25.32,25.32,0,0,1,8.52,5.42,24.58,24.58,0,0,1,5.59,8.22,26.25,26.25,0,0,1,2,10.29,26.08,26.08,0,0,1-2,10.32,24.8,24.8,0,0,1-5.59,8.2,25.29,25.29,0,0,1-8.52,5.41A29,29,0,0,1-1342.15,1286.41Zm0-6.42a20.38,20.38,0,0,0,7.76-1.45,18.55,18.55,0,0,0,6.21-4.07,19.21,19.21,0,0,0,4.11-6.18,19.71,19.71,0,0,0,1.48-7.72,19.52,19.52,0,0,0-1.48-7.69,19.72,19.72,0,0,0-4.11-6.17,18.21,18.21,0,0,0-6.21-4.11,20.57,20.57,0,0,0-7.76-1.45,20.75,20.75,0,0,0-7.83,1.45,18.47,18.47,0,0,0-6.25,4.11,19.33,19.33,0,0,0-4.15,6.17,19.7,19.7,0,0,0-1.48,7.69,19.89,19.89,0,0,0,1.48,7.72,18.84,18.84,0,0,0,4.15,6.18,18.82,18.82,0,0,0,6.25,4.07A20.55,20.55,0,0,0-1342.15,1280Z" transform="translate(1493.01 -1207.29)"/><path class="cls-1" d="M-1300.36,1285.84v-50.53h19.71a27.82,27.82,0,0,1,11.33,2.09,16.13,16.13,0,0,1,7.22,6.06,17.29,17.29,0,0,1,2.53,9.46,17.08,17.08,0,0,1-2.53,9.42,16.2,16.2,0,0,1-7.22,6,27.82,27.82,0,0,1-11.33,2.09h-15.74l3.25-3.32v18.7Zm7.22-18-3.25-3.54h15.52q6.93,0,10.5-3a10.35,10.35,0,0,0,3.58-8.41q0-5.42-3.58-8.37t-10.5-3h-15.52l3.25-3.61Zm26.56,18-12.85-18.34h7.73l13,18.34Z" transform="translate(1493.01 -1207.29)"/><path class="cls-1" d="M-1251.56,1285.84l22.88-50.53h7.15l23,50.53h-7.58l-20.43-46.49h2.89l-20.43,46.49Zm9.74-12.64,2-5.77h28.44l2.09,5.77Z" transform="translate(1493.01 -1207.29)"/><path class="cls-1" d="M-1187.1,1285.84v-50.53h5.92l22.66,38.18h-3.18l22.38-38.18h5.92l.07,50.53h-6.93l-.07-39.63h1.66l-19.92,33.49h-3.32l-20.07-33.49h1.81v39.63Z" transform="translate(1493.01 -1207.29)"/><path class="cls-1" d="M-1091.39,1286.41a29,29,0,0,1-10.72-2,25.43,25.43,0,0,1-8.55-5.45,24.91,24.91,0,0,1-5.63-8.19,25.58,25.58,0,0,1-2-10.25,25.61,25.61,0,0,1,2-10.25,24.91,24.91,0,0,1,5.63-8.19,25.56,25.56,0,0,1,8.51-5.45,28.92,28.92,0,0,1,10.76-2,29.25,29.25,0,0,1,10.68,1.91,25.32,25.32,0,0,1,8.52,5.42,24.43,24.43,0,0,1,5.59,8.22,26.25,26.25,0,0,1,2,10.29,26.08,26.08,0,0,1-2,10.32,24.65,24.65,0,0,1-5.59,8.2,25.29,25.29,0,0,1-8.52,5.41A29,29,0,0,1-1091.39,1286.41Zm0-6.42a20.38,20.38,0,0,0,7.76-1.45,18.55,18.55,0,0,0,6.21-4.07,19.21,19.21,0,0,0,4.11-6.18,19.71,19.71,0,0,0,1.48-7.72,19.52,19.52,0,0,0-1.48-7.69,19.72,19.72,0,0,0-4.11-6.17,18.21,18.21,0,0,0-6.21-4.11,20.57,20.57,0,0,0-7.76-1.45,20.75,20.75,0,0,0-7.83,1.45,18.57,18.57,0,0,0-6.25,4.11,19.33,19.33,0,0,0-4.15,6.17,19.7,19.7,0,0,0-1.48,7.69,19.89,19.89,0,0,0,1.48,7.72,18.84,18.84,0,0,0,4.15,6.18,18.93,18.93,0,0,0,6.25,4.07A20.55,20.55,0,0,0-1091.39,1280Z" transform="translate(1493.01 -1207.29)"/><path class="cls-1" d="M-1034.87,1286.41a34.52,34.52,0,0,1-11.05-1.77,22.54,22.54,0,0,1-8.3-4.58l2.67-5.63a23.42,23.42,0,0,0,7.37,4.19,26.67,26.67,0,0,0,9.31,1.66,21.2,21.2,0,0,0,7.15-1,8.57,8.57,0,0,0,4-2.78,6.65,6.65,0,0,0,1.3-4,5.49,5.49,0,0,0-1.7-4.19,12.74,12.74,0,0,0-4.4-2.56,48.86,48.86,0,0,0-6-1.69q-3.24-.72-6.53-1.7a29.17,29.17,0,0,1-6-2.49,12.23,12.23,0,0,1-4.37-4.08,11.92,11.92,0,0,1-1.66-6.6,13.31,13.31,0,0,1,2.06-7.19,14.33,14.33,0,0,1,6.35-5.27,26.2,26.2,0,0,1,10.94-2,34.21,34.21,0,0,1,8.73,1.15,24.46,24.46,0,0,1,7.51,3.32l-2.38,5.78a23.46,23.46,0,0,0-6.86-3.14,26.83,26.83,0,0,0-7-1,19.35,19.35,0,0,0-7,1.09,8.44,8.44,0,0,0-4,2.89,6.9,6.9,0,0,0-1.27,4,5.57,5.57,0,0,0,1.7,4.26,12.09,12.09,0,0,0,4.4,2.52,59.75,59.75,0,0,0,6,1.7c2.17.5,4.34,1.07,6.53,1.7a27.53,27.53,0,0,1,6,2.45,12.39,12.39,0,0,1,4.37,4,11.61,11.61,0,0,1,1.66,6.5,13,13,0,0,1-2.09,7.11,14.55,14.55,0,0,1-6.46,5.27A26.74,26.74,0,0,1-1034.87,1286.41Z" transform="translate(1493.01 -1207.29)"/><path class="cls-1" d="M-985.07,1285.84l22.89-50.53H-955l23,50.53h-7.58l-20.43-46.49h2.89l-20.43,46.49Zm9.75-12.64,2-5.77h28.44l2.09,5.77Z" transform="translate(1493.01 -1207.29)"/><path class="cls-1" d="M-897.22,1285.84v-50.53h5.92l22.66,38.18h-3.17l22.38-38.18h5.91l.08,50.53h-6.93l-.08-39.63h1.66l-19.92,33.49H-872l-20.07-33.49h1.81v39.63Z" transform="translate(1493.01 -1207.29)"/><path class="cls-1" d="M-824.32,1285.84v-50.53h7.22v50.53Z" transform="translate(1493.01 -1207.29)"/><path class="cls-1" d="M-783.24,1286.41a34.47,34.47,0,0,1-11-1.77,22.45,22.45,0,0,1-8.3-4.58l2.67-5.63a23.48,23.48,0,0,0,7.36,4.19,26.76,26.76,0,0,0,9.32,1.66,21.13,21.13,0,0,0,7.14-1,8.47,8.47,0,0,0,4-2.78,6.59,6.59,0,0,0,1.3-4,5.48,5.48,0,0,0-1.69-4.19,12.7,12.7,0,0,0-4.41-2.56,48.68,48.68,0,0,0-5.95-1.69c-2.17-.48-4.34-1-6.53-1.7a29.17,29.17,0,0,1-6-2.49,12.15,12.15,0,0,1-4.37-4.08,11.92,11.92,0,0,1-1.66-6.6,13.22,13.22,0,0,1,2.06-7.19,14.28,14.28,0,0,1,6.35-5.27,26.18,26.18,0,0,1,10.93-2,34.22,34.22,0,0,1,8.74,1.15,24.4,24.4,0,0,1,7.5,3.32l-2.38,5.78a23.22,23.22,0,0,0-6.86-3.14,26.78,26.78,0,0,0-7-1,19.29,19.29,0,0,0-7,1.09,8.44,8.44,0,0,0-4,2.89,6.83,6.83,0,0,0-1.27,4,5.57,5.57,0,0,0,1.7,4.26,12.09,12.09,0,0,0,4.4,2.52,59.75,59.75,0,0,0,6,1.7q3.24.75,6.53,1.7a27.53,27.53,0,0,1,6,2.45,12.39,12.39,0,0,1,4.37,4,11.7,11.7,0,0,1,1.66,6.5,13,13,0,0,1-2.1,7.11,14.44,14.44,0,0,1-6.46,5.27A26.69,26.69,0,0,1-783.24,1286.41Z" transform="translate(1493.01 -1207.29)"/><path class="cls-1" d="M-739.86,1285.84v-44.25h-17.33v-6.28h41.8v6.28h-17.33v44.25Z" transform="translate(1493.01 -1207.29)"/><path class="cls-1" d="M-683.56,1286.41q-10,0-15.66-5.7t-5.71-16.67v-28.73h7.22v28.44q0,8.45,3.72,12.34t10.5,3.9q6.86,0,10.58-3.9t3.72-12.34v-28.44h7V1264q0,11-5.67,16.67T-683.56,1286.41Z" transform="translate(1493.01 -1207.29)"/><path class="cls-1" d="M-643.43,1285.84v-50.53h19.71a27.79,27.79,0,0,1,11.33,2.09,16.08,16.08,0,0,1,7.22,6.06,17.29,17.29,0,0,1,2.53,9.46,17.08,17.08,0,0,1-2.53,9.42,16.15,16.15,0,0,1-7.22,6,27.79,27.79,0,0,1-11.33,2.09h-15.74l3.25-3.32v18.7Zm7.22-18-3.25-3.54h15.52q6.93,0,10.51-3a10.38,10.38,0,0,0,3.57-8.41q0-5.42-3.57-8.37t-10.51-3h-15.52l3.25-3.61Zm26.56,18-12.84-18.34h7.72l13,18.34Z" transform="translate(1493.01 -1207.29)"/><path class="cls-1" d="M-594.63,1285.84l22.88-50.53h7.15l23,50.53h-7.58l-20.43-46.49h2.89l-20.43,46.49Zm9.74-12.64,1.95-5.77h28.44l2.1,5.77Z" transform="translate(1493.01 -1207.29)"/><path class="cls-1" d="M-506.79,1285.84v-50.53h21.3a30.78,30.78,0,0,1,14.25,3.17,23.42,23.42,0,0,1,9.6,8.88,25.11,25.11,0,0,1,3.43,13.21,25.08,25.08,0,0,1-3.43,13.21,23.42,23.42,0,0,1-9.6,8.88,30.66,30.66,0,0,1-14.25,3.18Zm7.22-6.28h13.64a23.27,23.27,0,0,0,10.87-2.39,17.34,17.34,0,0,0,7.11-6.67,19.29,19.29,0,0,0,2.52-9.93,19.2,19.2,0,0,0-2.52-10,17.47,17.47,0,0,0-7.11-6.64,23.27,23.27,0,0,0-10.87-2.38h-13.64Z" transform="translate(1493.01 -1207.29)"/><path class="cls-1" d="M-420.38,1286.41a28.94,28.94,0,0,1-10.72-2,25.58,25.58,0,0,1-8.56-5.45,25.22,25.22,0,0,1-5.63-8.19,25.75,25.75,0,0,1-2-10.25,25.79,25.79,0,0,1,2-10.25,25.22,25.22,0,0,1,5.63-8.19,25.7,25.7,0,0,1,8.52-5.45,28.89,28.89,0,0,1,10.76-2,29.25,29.25,0,0,1,10.68,1.91,25.32,25.32,0,0,1,8.52,5.42,24.58,24.58,0,0,1,5.59,8.22,26.43,26.43,0,0,1,2,10.29,26.26,26.26,0,0,1-2,10.32,24.8,24.8,0,0,1-5.59,8.2,25.29,25.29,0,0,1-8.52,5.41A29,29,0,0,1-420.38,1286.41Zm0-6.42a20.41,20.41,0,0,0,7.76-1.45,18.41,18.41,0,0,0,6.2-4.07,19.07,19.07,0,0,0,4.12-6.18,19.89,19.89,0,0,0,1.48-7.72,19.7,19.7,0,0,0-1.48-7.69,19.58,19.58,0,0,0-4.12-6.17,18.07,18.07,0,0,0-6.2-4.11,20.61,20.61,0,0,0-7.76-1.45,20.84,20.84,0,0,0-7.84,1.45,18.53,18.53,0,0,0-6.24,4.11,19.33,19.33,0,0,0-4.15,6.17,19.52,19.52,0,0,0-1.48,7.69,19.71,19.71,0,0,0,1.48,7.72,18.84,18.84,0,0,0,4.15,6.18,18.88,18.88,0,0,0,6.24,4.07A20.64,20.64,0,0,0-420.38,1280Z" transform="translate(1493.01 -1207.29)"/><path class="cls-1" d="M-362.85,1285.84l22.88-50.53h7.14l23,50.53h-7.58l-20.43-46.49H-335l-20.43,46.49Zm9.74-12.64,1.95-5.77h28.44l2.09,5.77Z" transform="translate(1493.01 -1207.29)"/><path class="cls-1" d="M-298.4,1285.84v-50.53h5.92l33.42,41.5h-3.1v-41.5h7.22v50.53h-5.92l-33.42-41.51h3.1v41.51Z" transform="translate(1493.01 -1207.29)"/><path class="cls-1" d="M-225.78,1285.84v-44.25H-243.1v-6.28h41.79v6.28h-17.32v44.25Z" transform="translate(1493.01 -1207.29)"/><path class="cls-1" d="M-189.47,1285.84v-50.53h7.22v50.53Z" transform="translate(1493.01 -1207.29)"/><path class="cls-1" d="M-140.32,1286.41a29.27,29.27,0,0,1-10.75-1.91,25.29,25.29,0,0,1-8.52-5.41,25.21,25.21,0,0,1-5.63-8.2,25.75,25.75,0,0,1-2-10.32,25.78,25.78,0,0,1,2-10.32,24.87,24.87,0,0,1,5.67-8.19,25.65,25.65,0,0,1,8.55-5.42,29.68,29.68,0,0,1,10.83-1.91,29.85,29.85,0,0,1,11,2,21.73,21.73,0,0,1,8.45,5.85l-4.48,4.47a20,20,0,0,0-6.75-4.44,21.7,21.7,0,0,0-7.9-1.41,22.1,22.1,0,0,0-8.05,1.45,19.25,19.25,0,0,0-6.43,4,17.94,17.94,0,0,0-4.18,6.17,20,20,0,0,0-1.48,7.76,19.84,19.84,0,0,0,1.48,7.69,18.39,18.39,0,0,0,4.18,6.21,19.13,19.13,0,0,0,6.39,4.07,21.64,21.64,0,0,0,8,1.45,24,24,0,0,0,7.76-1.26,19.16,19.16,0,0,0,6.9-4.23l4.11,5.49a25.47,25.47,0,0,1-8.77,4.8A33.49,33.49,0,0,1-140.32,1286.41Zm12.2-7.36v-18.77h6.93V1280Z" transform="translate(1493.01 -1207.29)"/><path class="cls-1" d="M-80.62,1286.41a28.94,28.94,0,0,1-10.72-2,25.43,25.43,0,0,1-8.55-5.45,24.91,24.91,0,0,1-5.63-8.19,25.58,25.58,0,0,1-2-10.25,25.62,25.62,0,0,1,2-10.25,24.91,24.91,0,0,1,5.63-8.19,25.56,25.56,0,0,1,8.51-5.45,28.92,28.92,0,0,1,10.76-2,29.25,29.25,0,0,1,10.68,1.91,25.32,25.32,0,0,1,8.52,5.42,24.43,24.43,0,0,1,5.59,8.22,26.25,26.25,0,0,1,2,10.29,26.08,26.08,0,0,1-2,10.32,24.65,24.65,0,0,1-5.59,8.2,25.29,25.29,0,0,1-8.52,5.41A29,29,0,0,1-80.62,1286.41Zm0-6.42a20.38,20.38,0,0,0,7.76-1.45,18.55,18.55,0,0,0,6.21-4.07,19.21,19.21,0,0,0,4.11-6.18,19.71,19.71,0,0,0,1.48-7.72,19.52,19.52,0,0,0-1.48-7.69,19.72,19.72,0,0,0-4.11-6.17,18.21,18.21,0,0,0-6.21-4.11,20.57,20.57,0,0,0-7.76-1.45,20.75,20.75,0,0,0-7.83,1.45,18.47,18.47,0,0,0-6.25,4.11,19.33,19.33,0,0,0-4.15,6.17,19.7,19.7,0,0,0-1.48,7.69,19.89,19.89,0,0,0,1.48,7.72,18.84,18.84,0,0,0,4.15,6.18,18.82,18.82,0,0,0,6.25,4.07A20.55,20.55,0,0,0-80.62,1280Z" transform="translate(1493.01 -1207.29)"/><path class="cls-1" d="M7.15,1286.41a28.72,28.72,0,0,1-10.64-1.91,24.89,24.89,0,0,1-8.45-5.41,25.41,25.41,0,0,1-5.59-8.2,27.25,27.25,0,0,1,0-20.64,24.91,24.91,0,0,1,5.63-8.19,25.24,25.24,0,0,1,8.48-5.42,29,29,0,0,1,10.64-1.91,28.82,28.82,0,0,1,10.8,2,22.23,22.23,0,0,1,8.41,5.89l-4.7,4.55a18.69,18.69,0,0,0-6.49-4.52,20.3,20.3,0,0,0-7.73-1.48,21.3,21.3,0,0,0-7.9,1.45,19,19,0,0,0-6.32,4,18.29,18.29,0,0,0-4.15,6.17,21.08,21.08,0,0,0,0,15.52,18.29,18.29,0,0,0,4.15,6.17,19,19,0,0,0,6.32,4,21.1,21.1,0,0,0,7.9,1.45,20.12,20.12,0,0,0,7.73-1.48,18.38,18.38,0,0,0,6.49-4.59l4.7,4.55a22.52,22.52,0,0,1-8.41,5.92A28.43,28.43,0,0,1,7.15,1286.41Z" transform="translate(1493.01 -1207.29)"/><path class="cls-1" d="M62.44,1286.41a28.88,28.88,0,0,1-10.71-2,25.58,25.58,0,0,1-8.56-5.45,25.06,25.06,0,0,1-5.63-8.19,27,27,0,0,1,0-20.5,25.06,25.06,0,0,1,5.63-8.19,25.7,25.7,0,0,1,8.52-5.45,28.87,28.87,0,0,1,10.75-2,29.34,29.34,0,0,1,10.69,1.91,25.32,25.32,0,0,1,8.52,5.42,24.58,24.58,0,0,1,5.59,8.22,27.81,27.81,0,0,1,0,20.61,24.8,24.8,0,0,1-5.59,8.2,25.29,25.29,0,0,1-8.52,5.41A29.14,29.14,0,0,1,62.44,1286.41Zm0-6.42a20.38,20.38,0,0,0,7.76-1.45,18.45,18.45,0,0,0,6.21-4.07,19.07,19.07,0,0,0,4.12-6.18,20.8,20.8,0,0,0,0-15.41,19.58,19.58,0,0,0-4.12-6.17,18.11,18.11,0,0,0-6.21-4.11,21.68,21.68,0,0,0-15.59,0,18.53,18.53,0,0,0-6.24,4.11,19.17,19.17,0,0,0-4.15,6.17,20.8,20.8,0,0,0,0,15.41,18.68,18.68,0,0,0,4.15,6.18,18.88,18.88,0,0,0,6.24,4.07A20.55,20.55,0,0,0,62.44,1280Z" transform="translate(1493.01 -1207.29)"/><path class="cls-1" d="M104.24,1285.84v-50.53h5.92l22.66,38.18h-3.17L152,1235.31h5.92l.07,50.53h-6.93l-.07-39.63h1.66l-19.92,33.49h-3.32l-20.07-33.49h1.81v39.63Z" transform="translate(1493.01 -1207.29)"/><path class="cls-1" d="M223.34,1286.41a28.94,28.94,0,0,1-10.72-2,25.43,25.43,0,0,1-8.55-5.45,24.91,24.91,0,0,1-5.63-8.19,26.89,26.89,0,0,1,0-20.5,24.91,24.91,0,0,1,5.63-8.19,25.56,25.56,0,0,1,8.51-5.45,28.92,28.92,0,0,1,10.76-2,29.25,29.25,0,0,1,10.68,1.91,25.32,25.32,0,0,1,8.52,5.42,24.43,24.43,0,0,1,5.59,8.22,27.68,27.68,0,0,1,0,20.61,24.65,24.65,0,0,1-5.59,8.2,25.29,25.29,0,0,1-8.52,5.41A29,29,0,0,1,223.34,1286.41Zm0-6.42a20.38,20.38,0,0,0,7.76-1.45,18.55,18.55,0,0,0,6.21-4.07,19.21,19.21,0,0,0,4.11-6.18,19.81,19.81,0,0,0-4.11-21.58,18.21,18.21,0,0,0-6.21-4.11,21.68,21.68,0,0,0-15.59,0,18.47,18.47,0,0,0-6.25,4.11,19.33,19.33,0,0,0-4.15,6.17,20.8,20.8,0,0,0,0,15.41,18.65,18.65,0,0,0,10.4,10.25A20.55,20.55,0,0,0,223.34,1280Z" transform="translate(1493.01 -1207.29)"/><path class="cls-1" d="M288.52,1285.84v-50.53h5.92l33.42,41.5h-3.11v-41.5H332v50.53h-5.92l-33.42-41.51h3.11v41.51Z" transform="translate(1493.01 -1207.29)"/><path class="cls-1" d="M373.91,1286.41a29,29,0,0,1-10.72-2,25.53,25.53,0,0,1-8.55-5.45,24.91,24.91,0,0,1-5.63-8.19,27,27,0,0,1,0-20.5,24.91,24.91,0,0,1,5.63-8.19,25.5,25.5,0,0,1,8.52-5.45,28.83,28.83,0,0,1,10.75-2,29.25,29.25,0,0,1,10.68,1.91,25.12,25.12,0,0,1,8.52,5.42,24.6,24.6,0,0,1,5.6,8.22,27.81,27.81,0,0,1,0,20.61,24.83,24.83,0,0,1-5.6,8.2,25.1,25.1,0,0,1-8.52,5.41A29,29,0,0,1,373.91,1286.41Zm0-6.42a20.38,20.38,0,0,0,7.76-1.45,18.55,18.55,0,0,0,6.21-4.07,19,19,0,0,0,4.11-6.18,19.81,19.81,0,0,0-4.11-21.58,18.21,18.21,0,0,0-6.21-4.11,21.68,21.68,0,0,0-15.59,0,18.53,18.53,0,0,0-6.24,4.11,19.36,19.36,0,0,0-4.16,6.17,20.93,20.93,0,0,0,0,15.41,18.73,18.73,0,0,0,10.4,10.25A20.55,20.55,0,0,0,373.91,1280Z" transform="translate(1493.01 -1207.29)"/><path class="cls-1" d="M428.7,1285.84l-22.23-50.53h7.79l20.43,46.63h-4.48l20.58-46.63H458l-22.16,50.53Z" transform="translate(1493.01 -1207.29)"/><path class="cls-1" d="M490.7,1286.41a29,29,0,0,1-10.72-2,25.63,25.63,0,0,1-8.55-5.45,25.06,25.06,0,0,1-5.63-8.19,27,27,0,0,1,0-20.5,25.06,25.06,0,0,1,5.63-8.19,25.7,25.7,0,0,1,8.52-5.45,28.87,28.87,0,0,1,10.75-2,29.34,29.34,0,0,1,10.69,1.91,25.18,25.18,0,0,1,8.51,5.42,24.6,24.6,0,0,1,5.6,8.22,27.81,27.81,0,0,1,0,20.61,24.83,24.83,0,0,1-5.6,8.2,25.15,25.15,0,0,1-8.51,5.41A29.14,29.14,0,0,1,490.7,1286.41Zm0-6.42a20.38,20.38,0,0,0,7.76-1.45,18.45,18.45,0,0,0,6.21-4.07,19.07,19.07,0,0,0,4.12-6.18,20.8,20.8,0,0,0,0-15.41,19.58,19.58,0,0,0-4.12-6.17,18.11,18.11,0,0,0-6.21-4.11,21.68,21.68,0,0,0-15.59,0,18.53,18.53,0,0,0-6.24,4.11,19.17,19.17,0,0,0-4.15,6.17,20.8,20.8,0,0,0,0,15.41,18.68,18.68,0,0,0,4.15,6.18,18.88,18.88,0,0,0,6.24,4.07A20.55,20.55,0,0,0,490.7,1280Z" transform="translate(1493.01 -1207.29)"/><path class="cls-1" d="M531.7,1286.27a4.87,4.87,0,0,1-4.9-5,4.67,4.67,0,0,1,1.44-3.54,4.87,4.87,0,0,1,3.46-1.37,4.67,4.67,0,0,1,3.36,1.37,4.72,4.72,0,0,1,1.41,3.54,4.84,4.84,0,0,1-1.41,3.57A4.59,4.59,0,0,1,531.7,1286.27Z" transform="translate(1493.01 -1207.29)"/><path class="cls-1" d="M589.52,1286.41a34.41,34.41,0,0,1-11-1.77,22.37,22.37,0,0,1-8.3-4.58l2.67-5.63a23.37,23.37,0,0,0,7.36,4.19,26.71,26.71,0,0,0,9.31,1.66,21.16,21.16,0,0,0,7.15-1,8.52,8.52,0,0,0,4-2.78,6.59,6.59,0,0,0,1.3-4,5.49,5.49,0,0,0-1.7-4.19,12.74,12.74,0,0,0-4.4-2.56,48.35,48.35,0,0,0-6-1.69q-3.24-.72-6.53-1.7a29.4,29.4,0,0,1-6-2.49,12.31,12.31,0,0,1-4.37-4.08,12,12,0,0,1-1.66-6.6,13.31,13.31,0,0,1,2.06-7.19,14.33,14.33,0,0,1,6.35-5.27,26.23,26.23,0,0,1,10.94-2,34.15,34.15,0,0,1,8.73,1.15,24.46,24.46,0,0,1,7.51,3.32l-2.38,5.78a23.34,23.34,0,0,0-6.86-3.14,26.83,26.83,0,0,0-7-1,19.29,19.29,0,0,0-7,1.09,8.48,8.48,0,0,0-4,2.89,6.89,6.89,0,0,0-1.26,4,5.56,5.56,0,0,0,1.69,4.26,12.05,12.05,0,0,0,4.41,2.52,59.52,59.52,0,0,0,5.95,1.7c2.17.5,4.34,1.07,6.53,1.7a27.82,27.82,0,0,1,6,2.45,12.36,12.36,0,0,1,4.36,4,11.61,11.61,0,0,1,1.66,6.5,12.94,12.94,0,0,1-2.09,7.11,14.55,14.55,0,0,1-6.46,5.27A26.71,26.71,0,0,1,589.52,1286.41Z" transform="translate(1493.01 -1207.29)"/><path class="cls-1" d="M646.4,1286.41a29,29,0,0,1-10.72-2,25.53,25.53,0,0,1-8.55-5.45,24.91,24.91,0,0,1-5.63-8.19,27,27,0,0,1,0-20.5,24.91,24.91,0,0,1,5.63-8.19,25.5,25.5,0,0,1,8.52-5.45,28.83,28.83,0,0,1,10.75-2,29.25,29.25,0,0,1,10.68,1.91,25.12,25.12,0,0,1,8.52,5.42,24.6,24.6,0,0,1,5.6,8.22,27.81,27.81,0,0,1,0,20.61,24.83,24.83,0,0,1-5.6,8.2,25.1,25.1,0,0,1-8.52,5.41A29,29,0,0,1,646.4,1286.41Zm0-6.42a20.38,20.38,0,0,0,7.76-1.45,18.55,18.55,0,0,0,6.21-4.07,19,19,0,0,0,4.11-6.18,19.81,19.81,0,0,0-4.11-21.58,18.21,18.21,0,0,0-6.21-4.11,21.68,21.68,0,0,0-15.59,0,18.53,18.53,0,0,0-6.24,4.11,19.2,19.2,0,0,0-4.16,6.17,20.93,20.93,0,0,0,0,15.41,18.73,18.73,0,0,0,10.4,10.25A20.55,20.55,0,0,0,646.4,1280Z" transform="translate(1493.01 -1207.29)"/><path class="cls-1" d="M688.19,1285.84v-50.53h5.92l22.67,38.18H713.6L736,1235.31h5.92l.07,50.53H735l-.07-39.63h1.66l-19.92,33.49h-3.32l-20.07-33.49h1.8v39.63Z" transform="translate(1493.01 -1207.29)"/><path class="cls-1" d="M783.91,1286.41a28.94,28.94,0,0,1-10.72-2,25.43,25.43,0,0,1-8.55-5.45,25.09,25.09,0,0,1-5.64-8.19,27,27,0,0,1,0-20.5,25.09,25.09,0,0,1,5.64-8.19,25.56,25.56,0,0,1,8.51-5.45,28.89,28.89,0,0,1,10.76-2,29.25,29.25,0,0,1,10.68,1.91,25.32,25.32,0,0,1,8.52,5.42,24.58,24.58,0,0,1,5.59,8.22,27.68,27.68,0,0,1,0,20.61,24.8,24.8,0,0,1-5.59,8.2,25.29,25.29,0,0,1-8.52,5.41A29,29,0,0,1,783.91,1286.41Zm0-6.42a20.38,20.38,0,0,0,7.76-1.45,18.55,18.55,0,0,0,6.21-4.07,19.21,19.21,0,0,0,4.11-6.18,19.81,19.81,0,0,0-4.11-21.58,18.21,18.21,0,0,0-6.21-4.11,21.68,21.68,0,0,0-15.59,0,18.47,18.47,0,0,0-6.25,4.11,19.12,19.12,0,0,0-5.63,13.86,19.71,19.71,0,0,0,1.48,7.72,18.65,18.65,0,0,0,10.4,10.25A20.55,20.55,0,0,0,783.91,1280Z" transform="translate(1493.01 -1207.29)"/><path class="cls-1" d="M840.43,1286.41a34.52,34.52,0,0,1-11-1.77,22.45,22.45,0,0,1-8.3-4.58l2.67-5.63a23.42,23.42,0,0,0,7.37,4.19,26.67,26.67,0,0,0,9.31,1.66,21.13,21.13,0,0,0,7.14-1,8.55,8.55,0,0,0,4-2.78,6.65,6.65,0,0,0,1.29-4,5.48,5.48,0,0,0-1.69-4.19,12.74,12.74,0,0,0-4.4-2.56,48.86,48.86,0,0,0-6-1.69c-2.17-.48-4.34-1-6.53-1.7a29.17,29.17,0,0,1-6-2.49,12.23,12.23,0,0,1-4.37-4.08,11.92,11.92,0,0,1-1.66-6.6,13.22,13.22,0,0,1,2.06-7.19,14.28,14.28,0,0,1,6.35-5.27,26.18,26.18,0,0,1,10.93-2,34.22,34.22,0,0,1,8.74,1.15,24.46,24.46,0,0,1,7.51,3.32l-2.39,5.78a23.28,23.28,0,0,0-6.85-3.14,26.85,26.85,0,0,0-7-1,19.29,19.29,0,0,0-7,1.09,8.44,8.44,0,0,0-4,2.89,6.83,6.83,0,0,0-1.27,4,5.57,5.57,0,0,0,1.7,4.26,12.09,12.09,0,0,0,4.4,2.52,59.75,59.75,0,0,0,6,1.7q3.24.75,6.53,1.7a27.53,27.53,0,0,1,6,2.45,12.39,12.39,0,0,1,4.37,4,11.7,11.7,0,0,1,1.66,6.5,13,13,0,0,1-2.09,7.11,14.53,14.53,0,0,1-6.47,5.27A26.69,26.69,0,0,1,840.43,1286.41Z" transform="translate(1493.01 -1207.29)"/><path class="cls-1" d="M890.23,1285.84l22.88-50.53h7.15l23,50.53h-7.57l-20.43-46.49h2.88l-20.42,46.49ZM900,1273.2l1.95-5.77h28.44l2.09,5.77Z" transform="translate(1493.01 -1207.29)"/><path class="cls-1" d="M954.69,1285.84v-50.53H974.4a27.82,27.82,0,0,1,11.33,2.09,16.13,16.13,0,0,1,7.22,6.06,17.29,17.29,0,0,1,2.52,9.46,17.08,17.08,0,0,1-2.52,9.42,16.39,16.39,0,0,1-7.22,6.06,27.31,27.31,0,0,1-11.33,2.13H958.66l3.25-3.39v18.7Zm7.22-18-3.25-3.61h15.52q6.93,0,10.5-3a11.57,11.57,0,0,0,0-16.74q-3.57-3-10.5-3H958.66l3.25-3.61Z" transform="translate(1493.01 -1207.29)"/><path class="cls-1" d="M999.88,1285.84l22.88-50.53h7.15l22.95,50.53h-7.58l-20.43-46.49h2.89l-20.43,46.49Zm9.74-12.64,2-5.77H1040l2.09,5.77Z" transform="translate(1493.01 -1207.29)"/><path class="cls-1" d="M1064.34,1285.84v-50.53h7.21v50.53Z" transform="translate(1493.01 -1207.29)"/><path class="cls-1" d="M1084,1285.84l21-28.66v5.56l-19.85-27.43h8.23l15.73,21.58-3.25.07,15.67-21.65h7.86l-19.7,27v-5.19l21,28.73h-8.3l-16.74-23h3.17l-16.53,23Z" transform="translate(1493.01 -1207.29)"/><path class="cls-1" d="M1164.24,1286.41a28.94,28.94,0,0,1-10.72-2A25.58,25.58,0,0,1,1145,1279a25.22,25.22,0,0,1-5.63-8.19,27,27,0,0,1,0-20.5,25.22,25.22,0,0,1,5.63-8.19,25.7,25.7,0,0,1,8.52-5.45,28.89,28.89,0,0,1,10.76-2,29.25,29.25,0,0,1,10.68,1.91,25.32,25.32,0,0,1,8.52,5.42,24.58,24.58,0,0,1,5.59,8.22,27.68,27.68,0,0,1,0,20.61,24.8,24.8,0,0,1-5.59,8.2,25.29,25.29,0,0,1-8.52,5.41A29,29,0,0,1,1164.24,1286.41Zm0-6.42a20.41,20.41,0,0,0,7.76-1.45,18.41,18.41,0,0,0,6.2-4.07,19.07,19.07,0,0,0,4.12-6.18,20.8,20.8,0,0,0,0-15.41,19.58,19.58,0,0,0-4.12-6.17,18.07,18.07,0,0,0-6.2-4.11,20.61,20.61,0,0,0-7.76-1.45,20.84,20.84,0,0,0-7.84,1.45,18.53,18.53,0,0,0-6.24,4.11,19.12,19.12,0,0,0-5.63,13.86,19.71,19.71,0,0,0,1.48,7.72,18.67,18.67,0,0,0,10.39,10.25A20.64,20.64,0,0,0,1164.24,1280Z" transform="translate(1493.01 -1207.29)"/><path class="cls-1" d="M1206,1285.84v-50.53H1212l33.42,41.5h-3.1v-41.5h7.21v50.53h-5.91l-33.43-41.51h3.11v41.51Z" transform="translate(1493.01 -1207.29)"/><path class="cls-1" d="M1261,1285.84l22.88-50.53H1291l23,50.53h-7.58l-20.42-46.49h2.88l-20.42,46.49Zm9.75-12.64,1.94-5.77h28.44l2.1,5.77Z" transform="translate(1493.01 -1207.29)"/><path class="cls-1" d="M1325.42,1285.84v-50.53h21.29a30.82,30.82,0,0,1,14.26,3.17,23.55,23.55,0,0,1,9.6,8.88,27.15,27.15,0,0,1,0,26.42,23.55,23.55,0,0,1-9.6,8.88,30.7,30.7,0,0,1-14.26,3.18Zm7.22-6.28h13.64a23.2,23.2,0,0,0,10.86-2.39,17.22,17.22,0,0,0,7.11-6.67,20.81,20.81,0,0,0,0-19.89,17.35,17.35,0,0,0-7.11-6.64,23.2,23.2,0,0,0-10.86-2.38h-13.64Z" transform="translate(1493.01 -1207.29)"/><path class="cls-1" d="M1380.64,1285.84l22.88-50.53h7.15l22.95,50.53H1426l-20.42-46.49h2.88l-20.43,46.49Zm9.74-12.64,1.95-5.77h28.44l2.1,5.77Z" transform="translate(1493.01 -1207.29)"/><path class="cls-1" d="M1459.82,1286.41a34.41,34.41,0,0,1-11-1.77,22.45,22.45,0,0,1-8.3-4.58l2.67-5.63a23.37,23.37,0,0,0,7.36,4.19,26.71,26.71,0,0,0,9.31,1.66,21.16,21.16,0,0,0,7.15-1,8.47,8.47,0,0,0,4-2.78,6.59,6.59,0,0,0,1.3-4,5.49,5.49,0,0,0-1.7-4.19,12.65,12.65,0,0,0-4.4-2.56,48.68,48.68,0,0,0-6-1.69q-3.26-.72-6.54-1.7a29.4,29.4,0,0,1-6-2.49,12.2,12.2,0,0,1-4.36-4.08,11.92,11.92,0,0,1-1.66-6.6,13.3,13.3,0,0,1,2-7.19,14.33,14.33,0,0,1,6.35-5.27,26.23,26.23,0,0,1,10.94-2,34.09,34.09,0,0,1,8.73,1.15,24.46,24.46,0,0,1,7.51,3.32l-2.38,5.78a23.34,23.34,0,0,0-6.86-3.14,26.78,26.78,0,0,0-7-1,19.29,19.29,0,0,0-7,1.09,8.48,8.48,0,0,0-4,2.89,6.89,6.89,0,0,0-1.26,4,5.53,5.53,0,0,0,1.7,4.26,12,12,0,0,0,4.4,2.52,59.52,59.52,0,0,0,5.95,1.7q3.26.75,6.54,1.7a27.73,27.73,0,0,1,6,2.45,12.36,12.36,0,0,1,4.36,4,11.61,11.61,0,0,1,1.67,6.5,13,13,0,0,1-2.1,7.11,14.5,14.5,0,0,1-6.46,5.27A26.71,26.71,0,0,1,1459.82,1286.41Z" transform="translate(1493.01 -1207.29)"/><path class="cls-1" d="M1517.28,1285.84v-50.53H1537a27.82,27.82,0,0,1,11.33,2.09,16.13,16.13,0,0,1,7.22,6.06,17.29,17.29,0,0,1,2.52,9.46,17.08,17.08,0,0,1-2.52,9.42,16.39,16.39,0,0,1-7.22,6.06,27.31,27.31,0,0,1-11.33,2.13h-15.74l3.25-3.39v18.7Zm7.22-18-3.25-3.61h15.52q6.93,0,10.5-3a11.57,11.57,0,0,0,0-16.74q-3.57-3-10.5-3h-15.52l3.25-3.61Z" transform="translate(1493.01 -1207.29)"/><path class="cls-1" d="M1596.18,1286.41a28.9,28.9,0,0,1-10.72-2,25.58,25.58,0,0,1-8.56-5.45,25.22,25.22,0,0,1-5.63-8.19,27,27,0,0,1,0-20.5,25.22,25.22,0,0,1,5.63-8.19,25.7,25.7,0,0,1,8.52-5.45,28.89,28.89,0,0,1,10.76-2,29.29,29.29,0,0,1,10.68,1.91,25.32,25.32,0,0,1,8.52,5.42,24.58,24.58,0,0,1,5.59,8.22,27.81,27.81,0,0,1,0,20.61,24.8,24.8,0,0,1-5.59,8.2,25.29,25.29,0,0,1-8.52,5.41A29.08,29.08,0,0,1,1596.18,1286.41Zm0-6.42a20.32,20.32,0,0,0,7.75-1.45,18.35,18.35,0,0,0,6.21-4.07,19.07,19.07,0,0,0,4.12-6.18,20.8,20.8,0,0,0,0-15.41,19.58,19.58,0,0,0-4.12-6.17,18,18,0,0,0-6.21-4.11,20.52,20.52,0,0,0-7.75-1.45,20.84,20.84,0,0,0-7.84,1.45,18.53,18.53,0,0,0-6.24,4.11,19.17,19.17,0,0,0-4.15,6.17,20.8,20.8,0,0,0,0,15.41,18.68,18.68,0,0,0,4.15,6.18,18.88,18.88,0,0,0,6.24,4.07A20.64,20.64,0,0,0,1596.18,1280Z" transform="translate(1493.01 -1207.29)"/><path class="cls-1" d="M1638,1285.84v-50.53h19.7a27.84,27.84,0,0,1,11.34,2.09,16.13,16.13,0,0,1,7.22,6.06,17.29,17.29,0,0,1,2.52,9.46,17.08,17.08,0,0,1-2.52,9.42,16.2,16.2,0,0,1-7.22,6,27.84,27.84,0,0,1-11.34,2.09h-15.73l3.25-3.32v18.7Zm7.22-18-3.25-3.54h15.52q6.93,0,10.5-3a10.38,10.38,0,0,0,3.57-8.41q0-5.42-3.57-8.37t-10.5-3h-15.52l3.25-3.61Zm26.56,18-12.85-18.34h7.73l13,18.34Z" transform="translate(1493.01 -1207.29)"/><path class="cls-1" d="M-1448,1366.13l-22.23-50.53h7.8l20.43,46.63h-4.48l20.57-46.63h7.22l-22.16,50.53Z" transform="translate(1493.01 -1207.29)"/><path class="cls-1" d="M-1408.31,1366.13V1315.6h7.22v50.53Z" transform="translate(1493.01 -1207.29)"/><path class="cls-1" d="M-1389.61,1366.13l22.88-50.53h7.15l22.95,50.53h-7.58l-20.43-46.49h2.89l-20.43,46.49Zm9.74-12.63,1.95-5.78h28.44l2.1,5.78Z" transform="translate(1493.01 -1207.29)"/><path class="cls-1" d="M-1303.06,1366.71a29.29,29.29,0,0,1-10.76-1.92,25.29,25.29,0,0,1-8.52-5.41,25.22,25.22,0,0,1-5.63-8.19,26,26,0,0,1-2-10.33,26,26,0,0,1,2-10.32,24.87,24.87,0,0,1,5.67-8.19,25.62,25.62,0,0,1,8.55-5.41,29.51,29.51,0,0,1,10.83-1.92,29.82,29.82,0,0,1,11,2,21.73,21.73,0,0,1,8.45,5.85l-4.48,4.47a20,20,0,0,0-6.75-4.44,21.91,21.91,0,0,0-7.9-1.4,22.1,22.1,0,0,0-8,1.44,19.1,19.1,0,0,0-6.42,4,18.06,18.06,0,0,0-4.19,6.17,20,20,0,0,0-1.48,7.76,19.81,19.81,0,0,0,1.48,7.69,18.42,18.42,0,0,0,4.19,6.21,18.8,18.8,0,0,0,6.39,4.08,21.77,21.77,0,0,0,8,1.44,24,24,0,0,0,7.76-1.26,19.1,19.1,0,0,0,6.89-4.22l4.12,5.48a25.66,25.66,0,0,1-8.77,4.8A33.55,33.55,0,0,1-1303.06,1366.71Zm12.2-7.37v-18.76h6.93v19.7Z" transform="translate(1493.01 -1207.29)"/><path class="cls-1" d="M-1259,1359.85h29.45v6.28h-36.67V1315.6h35.66v6.28H-1259Zm-.65-22.45h26v6.14h-26Z" transform="translate(1493.01 -1207.29)"/><path class="cls-1" d="M-1213.85,1366.13V1315.6h5.92l33.42,41.51h-3.1V1315.6h7.22v50.53h-5.92l-33.42-41.51h3.1v41.51Z" transform="translate(1493.01 -1207.29)"/><path class="cls-1" d="M-1136.54,1366.71a34.41,34.41,0,0,1-11-1.77,22.52,22.52,0,0,1-8.3-4.59l2.67-5.63a23.37,23.37,0,0,0,7.36,4.19,26.48,26.48,0,0,0,9.31,1.66,21.16,21.16,0,0,0,7.15-1,8.45,8.45,0,0,0,4-2.78,6.57,6.57,0,0,0,1.3-4,5.46,5.46,0,0,0-1.7-4.18,12.59,12.59,0,0,0-4.4-2.56,48.3,48.3,0,0,0-6-1.7q-3.24-.72-6.53-1.7a29.4,29.4,0,0,1-6-2.49,12.31,12.31,0,0,1-4.37-4.08,12,12,0,0,1-1.66-6.6,13.27,13.27,0,0,1,2.06-7.18,14.27,14.27,0,0,1,6.35-5.27,26.22,26.22,0,0,1,10.94-2,33.72,33.72,0,0,1,8.73,1.16,24.22,24.22,0,0,1,7.51,3.32l-2.38,5.77a23.34,23.34,0,0,0-6.86-3.14,26.81,26.81,0,0,0-7-1,19.31,19.31,0,0,0-7,1.08,8.54,8.54,0,0,0-4,2.89,6.89,6.89,0,0,0-1.26,4,5.56,5.56,0,0,0,1.69,4.26,12.21,12.21,0,0,0,4.41,2.53,59.6,59.6,0,0,0,6,1.69c2.17.51,4.34,1.07,6.53,1.7a27.82,27.82,0,0,1,6,2.45,12.29,12.29,0,0,1,4.36,4,11.58,11.58,0,0,1,1.66,6.49,12.94,12.94,0,0,1-2.09,7.11,14.49,14.49,0,0,1-6.46,5.27A26.54,26.54,0,0,1-1136.54,1366.71Z" transform="translate(1493.01 -1207.29)"/><path class="cls-1" d="M-1104.78,1376.81l3.61-14.58.94,4.19a5,5,0,0,1-3.5-1.3,4.59,4.59,0,0,1-1.41-3.54,4.74,4.74,0,0,1,1.41-3.54,4.75,4.75,0,0,1,3.43-1.37,4.41,4.41,0,0,1,3.39,1.41,5,5,0,0,1,1.3,3.5,9.36,9.36,0,0,1-.11,1.41,13.24,13.24,0,0,1-.36,1.59c-.17.6-.42,1.33-.76,2.2l-3.39,10Z" transform="translate(1493.01 -1207.29)"/><path class="cls-1" d="M-1057.28,1366.13V1315.6h19.7a27.75,27.75,0,0,1,11.33,2.09,16,16,0,0,1,7.22,6.07,17.17,17.17,0,0,1,2.53,9.45,17,17,0,0,1-2.53,9.42,16.29,16.29,0,0,1-7.22,6.07,27.24,27.24,0,0,1-11.33,2.13h-15.73l3.24-3.4v18.7Zm7.21-18-3.24-3.6h15.52q6.93,0,10.5-3a10.29,10.29,0,0,0,3.57-8.38q0-5.42-3.57-8.37t-10.5-3h-15.52l3.24-3.61Z" transform="translate(1493.01 -1207.29)"/><path class="cls-1" d="M-994.7,1359.85h29.45v6.28h-36.67V1315.6h35.66v6.28H-994.7Zm-.65-22.45h26v6.14h-26Z" transform="translate(1493.01 -1207.29)"/><path class="cls-1" d="M-934.86,1366.71a34.52,34.52,0,0,1-11-1.77,22.61,22.61,0,0,1-8.3-4.59l2.67-5.63a23.42,23.42,0,0,0,7.37,4.19,26.44,26.44,0,0,0,9.31,1.66,21.13,21.13,0,0,0,7.14-1,8.48,8.48,0,0,0,4.05-2.78,6.63,6.63,0,0,0,1.3-4,5.46,5.46,0,0,0-1.7-4.18,12.59,12.59,0,0,0-4.4-2.56,48.81,48.81,0,0,0-6-1.7q-3.24-.72-6.53-1.7a29.17,29.17,0,0,1-6-2.49,12.23,12.23,0,0,1-4.37-4.08,11.9,11.9,0,0,1-1.66-6.6,13.27,13.27,0,0,1,2.06-7.18,14.27,14.27,0,0,1,6.35-5.27,26.17,26.17,0,0,1,10.93-2,33.8,33.8,0,0,1,8.74,1.16,24.22,24.22,0,0,1,7.51,3.32l-2.39,5.77a23.28,23.28,0,0,0-6.85-3.14,26.83,26.83,0,0,0-7-1,19.31,19.31,0,0,0-7,1.08,8.51,8.51,0,0,0-4,2.89,6.83,6.83,0,0,0-1.27,4,5.57,5.57,0,0,0,1.7,4.26,12.25,12.25,0,0,0,4.4,2.53,59.83,59.83,0,0,0,6,1.69c2.16.51,4.34,1.07,6.53,1.7a27.53,27.53,0,0,1,6,2.45,12.32,12.32,0,0,1,4.37,4,11.58,11.58,0,0,1,1.66,6.49,13,13,0,0,1-2.09,7.11,14.49,14.49,0,0,1-6.46,5.27A26.6,26.6,0,0,1-934.86,1366.71Z" transform="translate(1493.01 -1207.29)"/><path class="cls-1" d="M-886.07,1366.71a34.41,34.41,0,0,1-11-1.77,22.61,22.61,0,0,1-8.3-4.59l2.67-5.63a23.37,23.37,0,0,0,7.36,4.19,26.48,26.48,0,0,0,9.31,1.66,21.16,21.16,0,0,0,7.15-1,8.45,8.45,0,0,0,4-2.78,6.57,6.57,0,0,0,1.3-4,5.46,5.46,0,0,0-1.7-4.18,12.5,12.5,0,0,0-4.4-2.56,48.64,48.64,0,0,0-6-1.7q-3.25-.72-6.54-1.7a29.4,29.4,0,0,1-6-2.49,12.31,12.31,0,0,1-4.37-4.08,12,12,0,0,1-1.66-6.6,13.27,13.27,0,0,1,2.06-7.18,14.27,14.27,0,0,1,6.35-5.27,26.22,26.22,0,0,1,10.94-2,33.72,33.72,0,0,1,8.73,1.16,24.22,24.22,0,0,1,7.51,3.32l-2.38,5.77a23.34,23.34,0,0,0-6.86-3.14,26.81,26.81,0,0,0-7-1,19.31,19.31,0,0,0-7,1.08,8.54,8.54,0,0,0-4,2.89,6.89,6.89,0,0,0-1.26,4,5.56,5.56,0,0,0,1.69,4.26A12.21,12.21,0,0,0-891,1336a59.6,59.6,0,0,0,6,1.69c2.17.51,4.35,1.07,6.54,1.7a27.94,27.94,0,0,1,6,2.45,12.29,12.29,0,0,1,4.36,4,11.58,11.58,0,0,1,1.66,6.49,12.94,12.94,0,0,1-2.09,7.11,14.49,14.49,0,0,1-6.46,5.27A26.54,26.54,0,0,1-886.07,1366.71Z" transform="translate(1493.01 -1207.29)"/><path class="cls-1" d="M-829.19,1366.71a29,29,0,0,1-10.72-2,25.69,25.69,0,0,1-8.55-5.45,25.21,25.21,0,0,1-5.63-8.2,25.55,25.55,0,0,1-2-10.25,25.61,25.61,0,0,1,2-10.25,25.28,25.28,0,0,1,5.63-8.19,25.66,25.66,0,0,1,8.52-5.45,28.83,28.83,0,0,1,10.75-2,29,29,0,0,1,10.68,1.92,25.1,25.1,0,0,1,8.52,5.41,24.64,24.64,0,0,1,5.6,8.23,26.34,26.34,0,0,1,2,10.28,26.31,26.31,0,0,1-2,10.33,24.68,24.68,0,0,1-5.6,8.19,25.1,25.1,0,0,1-8.52,5.41A29,29,0,0,1-829.19,1366.71Zm0-6.43a20.56,20.56,0,0,0,7.76-1.44,18.43,18.43,0,0,0,6.21-4.08,18.84,18.84,0,0,0,4.11-6.17,19.76,19.76,0,0,0,1.48-7.73,19.44,19.44,0,0,0-1.48-7.68,19.27,19.27,0,0,0-4.11-6.17,18.23,18.23,0,0,0-6.21-4.12,20.56,20.56,0,0,0-7.76-1.44,20.74,20.74,0,0,0-7.83,1.44,18.55,18.55,0,0,0-6.24,4.12,19.06,19.06,0,0,0-4.15,6.17,19.44,19.44,0,0,0-1.48,7.68,19.76,19.76,0,0,0,1.48,7.73,18.64,18.64,0,0,0,4.15,6.17,18.75,18.75,0,0,0,6.24,4.08A20.74,20.74,0,0,0-829.19,1360.28Z" transform="translate(1493.01 -1207.29)"/><path class="cls-1" d="M-795.77,1366.13l22.89-50.53h7.14l23,50.53h-7.58l-20.43-46.49h2.89l-20.43,46.49Zm9.75-12.63,1.95-5.78h28.44l2.09,5.78Z" transform="translate(1493.01 -1207.29)"/><path class="cls-1" d="M-716.58,1366.71a34.52,34.52,0,0,1-11-1.77,22.61,22.61,0,0,1-8.3-4.59l2.67-5.63a23.42,23.42,0,0,0,7.37,4.19,26.44,26.44,0,0,0,9.31,1.66,21.13,21.13,0,0,0,7.14-1,8.48,8.48,0,0,0,4.05-2.78,6.62,6.62,0,0,0,1.29-4,5.46,5.46,0,0,0-1.69-4.18,12.59,12.59,0,0,0-4.4-2.56,48.81,48.81,0,0,0-6-1.7c-2.17-.48-4.34-1-6.53-1.7a29.17,29.17,0,0,1-6-2.49,12.23,12.23,0,0,1-4.37-4.08,11.9,11.9,0,0,1-1.66-6.6,13.19,13.19,0,0,1,2.06-7.18,14.21,14.21,0,0,1,6.35-5.27,26.17,26.17,0,0,1,10.93-2,33.8,33.8,0,0,1,8.74,1.16,24.22,24.22,0,0,1,7.51,3.32l-2.39,5.77a23.28,23.28,0,0,0-6.85-3.14,26.83,26.83,0,0,0-7-1,19.31,19.31,0,0,0-7,1.08,8.51,8.51,0,0,0-4,2.89,6.83,6.83,0,0,0-1.27,4,5.57,5.57,0,0,0,1.7,4.26,12.25,12.25,0,0,0,4.4,2.53,59.83,59.83,0,0,0,6,1.69c2.16.51,4.34,1.07,6.53,1.7a27.53,27.53,0,0,1,6,2.45,12.32,12.32,0,0,1,4.37,4,11.66,11.66,0,0,1,1.66,6.49,13,13,0,0,1-2.09,7.11,14.46,14.46,0,0,1-6.47,5.27A26.52,26.52,0,0,1-716.58,1366.71Z" transform="translate(1493.01 -1207.29)"/><path class="cls-1" d="M-651.91,1359.85h29.45v6.28h-36.67V1315.6h35.66v6.28h-28.44Zm-.65-22.45h26v6.14h-26Z" transform="translate(1493.01 -1207.29)"/><path class="cls-1" d="M-560.81,1366.71a28.81,28.81,0,0,1-10.65-1.92,25,25,0,0,1-8.45-5.41,25.42,25.42,0,0,1-5.59-8.19,25.8,25.8,0,0,1-2-10.33,25.78,25.78,0,0,1,2-10.32,25.06,25.06,0,0,1,5.63-8.19,25.32,25.32,0,0,1,8.48-5.41,28.81,28.81,0,0,1,10.65-1.92,28.77,28.77,0,0,1,10.79,2,22,22,0,0,1,8.41,5.88l-4.69,4.55a18.7,18.7,0,0,0-6.5-4.51,20.1,20.1,0,0,0-7.72-1.48,21.35,21.35,0,0,0-7.91,1.44,18.92,18.92,0,0,0-6.31,4,18.24,18.24,0,0,0-4.15,6.17,20,20,0,0,0-1.48,7.76,20,20,0,0,0,1.48,7.76,18.19,18.19,0,0,0,4.15,6.18,18.92,18.92,0,0,0,6.31,4,21.35,21.35,0,0,0,7.91,1.44,20.1,20.1,0,0,0,7.72-1.48,18.26,18.26,0,0,0,6.5-4.58l4.69,4.55a22.42,22.42,0,0,1-8.41,5.91A28.42,28.42,0,0,1-560.81,1366.71Z" transform="translate(1493.01 -1207.29)"/><path class="cls-1" d="M-506.32,1366.71q-10,0-15.66-5.71t-5.7-16.67V1315.6h7.22V1344q0,8.45,3.71,12.34t10.51,3.9q6.86,0,10.57-3.9t3.72-12.34V1315.6h7v28.73q0,11-5.67,16.67T-506.32,1366.71Z" transform="translate(1493.01 -1207.29)"/><path class="cls-1" d="M-466.18,1366.13V1315.6H-459v44.25h27.35v6.28Z" transform="translate(1493.01 -1207.29)"/><path class="cls-1" d="M-414,1366.13v-44.25h-17.33v-6.28h41.8v6.28h-17.33v44.25Z" transform="translate(1493.01 -1207.29)"/><path class="cls-1" d="M-357.69,1366.71q-10,0-15.66-5.71t-5.71-16.67V1315.6h7.22V1344q0,8.45,3.72,12.34t10.5,3.9q6.86,0,10.58-3.9t3.71-12.34V1315.6h7v28.73q0,11-5.67,16.67T-357.69,1366.71Z" transform="translate(1493.01 -1207.29)"/><path class="cls-1" d="M-317.56,1366.13V1315.6h19.71a27.82,27.82,0,0,1,11.33,2.09,16.09,16.09,0,0,1,7.22,6.07,17.26,17.26,0,0,1,2.53,9.45,17.08,17.08,0,0,1-2.53,9.42,16.08,16.08,0,0,1-7.22,6,27.65,27.65,0,0,1-11.33,2.09h-15.74l3.25-3.32v18.7Zm7.22-18-3.25-3.53h15.52q6.93,0,10.5-3a10.34,10.34,0,0,0,3.58-8.41q0-5.42-3.58-8.37t-10.5-3h-15.52l3.25-3.61Zm26.56,18-12.85-18.34h7.73l13,18.34Z" transform="translate(1493.01 -1207.29)"/><path class="cls-1" d="M-268.76,1366.13l22.88-50.53h7.14l23,50.53h-7.58l-20.43-46.49h2.89l-20.43,46.49Zm9.74-12.63,1.95-5.78h28.44l2.09,5.78Z" transform="translate(1493.01 -1207.29)"/><path class="cls-1" d="M-189.58,1366.71a34.41,34.41,0,0,1-11-1.77,22.52,22.52,0,0,1-8.3-4.59l2.67-5.63a23.37,23.37,0,0,0,7.36,4.19,26.48,26.48,0,0,0,9.31,1.66,21.16,21.16,0,0,0,7.15-1,8.45,8.45,0,0,0,4-2.78,6.57,6.57,0,0,0,1.3-4,5.46,5.46,0,0,0-1.7-4.18,12.59,12.59,0,0,0-4.4-2.56,48.81,48.81,0,0,0-6-1.7q-3.24-.72-6.53-1.7a29.4,29.4,0,0,1-6-2.49,12.31,12.31,0,0,1-4.37-4.08,12,12,0,0,1-1.66-6.6,13.27,13.27,0,0,1,2.06-7.18,14.27,14.27,0,0,1,6.35-5.27,26.22,26.22,0,0,1,10.94-2,33.78,33.78,0,0,1,8.73,1.16,24.22,24.22,0,0,1,7.51,3.32l-2.38,5.77a23.34,23.34,0,0,0-6.86-3.14,26.81,26.81,0,0,0-7-1,19.28,19.28,0,0,0-7,1.08,8.54,8.54,0,0,0-4,2.89,6.89,6.89,0,0,0-1.26,4,5.56,5.56,0,0,0,1.69,4.26,12.21,12.21,0,0,0,4.41,2.53,59.6,59.6,0,0,0,6,1.69c2.17.51,4.34,1.07,6.53,1.7a27.82,27.82,0,0,1,6,2.45,12.38,12.38,0,0,1,4.36,4,11.58,11.58,0,0,1,1.66,6.49,13,13,0,0,1-2.09,7.11,14.49,14.49,0,0,1-6.46,5.27A26.54,26.54,0,0,1-189.58,1366.71Z" transform="translate(1493.01 -1207.29)"/><path class="cls-1" d="M-132.12,1366.13V1315.6h21.29a30.73,30.73,0,0,1,14.26,3.18,23.46,23.46,0,0,1,9.6,8.87,25.22,25.22,0,0,1,3.43,13.21A25.17,25.17,0,0,1-87,1354.07a23.41,23.41,0,0,1-9.6,8.88,30.73,30.73,0,0,1-14.26,3.18Zm7.22-6.28h13.64a23.32,23.32,0,0,0,10.86-2.38,17.31,17.31,0,0,0,7.11-6.68,19.15,19.15,0,0,0,2.53-9.93,19.11,19.11,0,0,0-2.53-10,17.35,17.35,0,0,0-7.11-6.64,23.2,23.2,0,0,0-10.86-2.38H-124.9Z" transform="translate(1493.01 -1207.29)"/><path class="cls-1" d="M-68.53,1366.13V1315.6h7.22v50.53Z" transform="translate(1493.01 -1207.29)"/><path class="cls-1" d="M-35,1366.13h-7.22V1315.6H-6.52v6.28H-35Zm-.73-26.64H-9.63v6.21H-35.69Z" transform="translate(1493.01 -1207.29)"/><path class="cls-1" d="M14.84,1359.85H44.29v6.28H7.62V1315.6H43.28v6.28H14.84Zm-.65-22.45h26v6.14h-26Z" transform="translate(1493.01 -1207.29)"/><path class="cls-1" d="M60,1366.13V1315.6H79.66A27.75,27.75,0,0,1,91,1317.69a16,16,0,0,1,7.22,6.07,17.17,17.17,0,0,1,2.53,9.45,17,17,0,0,1-2.53,9.42,16,16,0,0,1-7.22,6,27.59,27.59,0,0,1-11.33,2.09H63.93l3.24-3.32v18.7Zm7.22-18-3.24-3.53H79.44q6.93,0,10.51-3a10.36,10.36,0,0,0,3.57-8.41q0-5.42-3.57-8.37t-10.51-3H63.93l3.24-3.61Zm26.57,18-12.85-18.34h7.72l13,18.34Z" transform="translate(1493.01 -1207.29)"/><path class="cls-1" d="M123.62,1359.85h29.45v6.28H116.4V1315.6h35.66v6.28H123.62ZM123,1337.4h26v6.14H123Z" transform="translate(1493.01 -1207.29)"/><path class="cls-1" d="M168.73,1366.13V1315.6h5.92l33.42,41.51H205V1315.6h7.22v50.53h-5.92l-33.42-41.51H176v41.51Z" transform="translate(1493.01 -1207.29)"/><path class="cls-1" d="M241.35,1366.13v-44.25H224v-6.28h41.79v6.28H248.5v44.25Z" transform="translate(1493.01 -1207.29)"/><path class="cls-1" d="M284.88,1359.85h29.45v6.28H277.66V1315.6h35.66v6.28H284.88Zm-.65-22.45h26v6.14h-26Z" transform="translate(1493.01 -1207.29)"/><path class="cls-1" d="M344.72,1366.71a34.43,34.43,0,0,1-11.05-1.77,22.61,22.61,0,0,1-8.3-4.59l2.67-5.63a23.37,23.37,0,0,0,7.36,4.19,26.53,26.53,0,0,0,9.32,1.66,21.13,21.13,0,0,0,7.14-1,8.4,8.4,0,0,0,4-2.78,6.57,6.57,0,0,0,1.3-4,5.46,5.46,0,0,0-1.69-4.18,12.55,12.55,0,0,0-4.41-2.56,48.64,48.64,0,0,0-6-1.7q-3.25-.72-6.53-1.7a29.49,29.49,0,0,1-6-2.49,12.2,12.2,0,0,1-4.36-4.08,11.9,11.9,0,0,1-1.66-6.6,13.27,13.27,0,0,1,2-7.18A14.3,14.3,0,0,1,335,1317a26.14,26.14,0,0,1,10.93-2,33.8,33.8,0,0,1,8.74,1.16,24.16,24.16,0,0,1,7.5,3.32l-2.38,5.77a23.22,23.22,0,0,0-6.86-3.14,26.75,26.75,0,0,0-7-1,19.31,19.31,0,0,0-7,1.08,8.59,8.59,0,0,0-4,2.89,6.89,6.89,0,0,0-1.26,4,5.57,5.57,0,0,0,1.7,4.26,12.25,12.25,0,0,0,4.4,2.53,59.83,59.83,0,0,0,6,1.69c2.16.51,4.34,1.07,6.53,1.7a27.73,27.73,0,0,1,6,2.45,12.41,12.41,0,0,1,4.37,4,11.66,11.66,0,0,1,1.66,6.49,13,13,0,0,1-2.1,7.11,14.43,14.43,0,0,1-6.46,5.27A26.52,26.52,0,0,1,344.72,1366.71Z" transform="translate(1493.01 -1207.29)"/><path class="cls-1" d="M380.88,1366.56a4.87,4.87,0,0,1-4.91-5,4.69,4.69,0,0,1,1.44-3.54,4.87,4.87,0,0,1,3.47-1.37,4.65,4.65,0,0,1,3.35,1.37,4.74,4.74,0,0,1,1.41,3.54,4.82,4.82,0,0,1-1.41,3.57A4.57,4.57,0,0,1,380.88,1366.56Z" transform="translate(1493.01 -1207.29)"/><path class="cls-1" d="M438.69,1366.71a34.41,34.41,0,0,1-11-1.77,22.61,22.61,0,0,1-8.3-4.59l2.67-5.63a23.37,23.37,0,0,0,7.36,4.19,26.52,26.52,0,0,0,9.31,1.66,21.16,21.16,0,0,0,7.15-1,8.4,8.4,0,0,0,4-2.78,6.57,6.57,0,0,0,1.3-4,5.46,5.46,0,0,0-1.69-4.18,12.64,12.64,0,0,0-4.41-2.56,48.64,48.64,0,0,0-5.95-1.7q-3.25-.72-6.53-1.7a29.26,29.26,0,0,1-6-2.49,12.2,12.2,0,0,1-4.36-4.08,11.9,11.9,0,0,1-1.66-6.6,13.27,13.27,0,0,1,2.05-7.18A14.3,14.3,0,0,1,429,1317a26.14,26.14,0,0,1,10.93-2,33.8,33.8,0,0,1,8.74,1.16,24.27,24.27,0,0,1,7.5,3.32l-2.38,5.77a23.22,23.22,0,0,0-6.86-3.14,26.75,26.75,0,0,0-7-1,19.31,19.31,0,0,0-7,1.08,8.59,8.59,0,0,0-4,2.89,6.89,6.89,0,0,0-1.26,4,5.57,5.57,0,0,0,1.7,4.26,12.25,12.25,0,0,0,4.4,2.53,59.6,59.6,0,0,0,5.95,1.69c2.17.51,4.35,1.07,6.54,1.7a27.73,27.73,0,0,1,6,2.45,12.41,12.41,0,0,1,4.37,4,11.66,11.66,0,0,1,1.66,6.49,13,13,0,0,1-2.1,7.11,14.43,14.43,0,0,1-6.46,5.27A26.54,26.54,0,0,1,438.69,1366.71Z" transform="translate(1493.01 -1207.29)"/><path class="cls-1" d="M495.57,1366.71a29,29,0,0,1-10.72-2,25.79,25.79,0,0,1-8.55-5.45,25.21,25.21,0,0,1-5.63-8.2,27,27,0,0,1,0-20.5,25.28,25.28,0,0,1,5.63-8.19,25.76,25.76,0,0,1,8.52-5.45,30.66,30.66,0,0,1,21.44,0,25.15,25.15,0,0,1,8.51,5.41,24.64,24.64,0,0,1,5.6,8.23,27.81,27.81,0,0,1,0,20.61,24.68,24.68,0,0,1-5.6,8.19,25.15,25.15,0,0,1-8.51,5.41A29.14,29.14,0,0,1,495.57,1366.71Zm0-6.43a20.56,20.56,0,0,0,7.76-1.44,18.43,18.43,0,0,0,6.21-4.08,18.84,18.84,0,0,0,4.11-6.17,19.76,19.76,0,0,0,1.48-7.73,19.3,19.3,0,0,0-5.59-13.85,18.23,18.23,0,0,0-6.21-4.12,21.82,21.82,0,0,0-15.59,0,18.55,18.55,0,0,0-6.24,4.12,19.06,19.06,0,0,0-4.15,6.17,19.44,19.44,0,0,0-1.48,7.68,19.76,19.76,0,0,0,1.48,7.73,18.76,18.76,0,0,0,10.39,10.25A20.74,20.74,0,0,0,495.57,1360.28Z" transform="translate(1493.01 -1207.29)"/><path class="cls-1" d="M537.37,1366.13V1315.6h5.92L566,1353.79h-3.17l22.37-38.19h5.92l.07,50.53h-6.93l-.07-39.63h1.66L565.88,1360h-3.32l-20.07-33.49h1.81v39.63Z" transform="translate(1493.01 -1207.29)"/><path class="cls-1" d="M633.08,1366.71a29,29,0,0,1-10.72-2,25.59,25.59,0,0,1-8.55-5.45,25.06,25.06,0,0,1-5.63-8.2,27,27,0,0,1,0-20.5,25.12,25.12,0,0,1,5.63-8.19,25.66,25.66,0,0,1,8.52-5.45,30.63,30.63,0,0,1,21.43,0,25.19,25.19,0,0,1,8.52,5.41,24.64,24.64,0,0,1,5.6,8.23,27.81,27.81,0,0,1,0,20.61,24.68,24.68,0,0,1-5.6,8.19,25.19,25.19,0,0,1-8.52,5.41A29,29,0,0,1,633.08,1366.71Zm0-6.43a20.56,20.56,0,0,0,7.76-1.44,18.43,18.43,0,0,0,6.21-4.08,19,19,0,0,0,4.11-6.17,19.76,19.76,0,0,0,1.48-7.73,19.3,19.3,0,0,0-5.59-13.85,18.23,18.23,0,0,0-6.21-4.12,21.82,21.82,0,0,0-15.59,0A18.55,18.55,0,0,0,619,1327a19.09,19.09,0,0,0-4.16,6.17,19.62,19.62,0,0,0-1.48,7.68,19.94,19.94,0,0,0,1.48,7.73,18.82,18.82,0,0,0,10.4,10.25A20.74,20.74,0,0,0,633.08,1360.28Z" transform="translate(1493.01 -1207.29)"/><path class="cls-1" d="M689.6,1366.71a34.41,34.41,0,0,1-11-1.77,22.57,22.57,0,0,1-8.31-4.59l2.67-5.63a23.42,23.42,0,0,0,7.37,4.19,26.44,26.44,0,0,0,9.31,1.66,21.09,21.09,0,0,0,7.14-1,8.48,8.48,0,0,0,4-2.78,6.63,6.63,0,0,0,1.3-4,5.46,5.46,0,0,0-1.7-4.18A12.59,12.59,0,0,0,696,1346a48.81,48.81,0,0,0-6-1.7q-3.24-.72-6.53-1.7a29.17,29.17,0,0,1-6-2.49,12.23,12.23,0,0,1-4.37-4.08,11.9,11.9,0,0,1-1.66-6.6,13.27,13.27,0,0,1,2.06-7.18,14.27,14.27,0,0,1,6.35-5.27,26.19,26.19,0,0,1,10.94-2,33.78,33.78,0,0,1,8.73,1.16,24.22,24.22,0,0,1,7.51,3.32l-2.39,5.77a23.28,23.28,0,0,0-6.85-3.14,26.81,26.81,0,0,0-7-1,19.37,19.37,0,0,0-7,1.08,8.51,8.51,0,0,0-4,2.89,6.89,6.89,0,0,0-1.26,4,5.56,5.56,0,0,0,1.69,4.26,12.25,12.25,0,0,0,4.4,2.53,59.83,59.83,0,0,0,6,1.69c2.16.51,4.34,1.07,6.53,1.7a27.53,27.53,0,0,1,6,2.45,12.32,12.32,0,0,1,4.37,4,11.58,11.58,0,0,1,1.66,6.49,13,13,0,0,1-2.09,7.11,14.49,14.49,0,0,1-6.46,5.27A26.57,26.57,0,0,1,689.6,1366.71Z" transform="translate(1493.01 -1207.29)"/><path class="cls-1" d="M747.06,1366.13V1315.6h7.21v44.25h27.36v6.28Z" transform="translate(1493.01 -1207.29)"/><path class="cls-1" d="M815.77,1366.71a28.88,28.88,0,0,1-10.71-2,25.73,25.73,0,0,1-8.56-5.45,25.81,25.81,0,0,1,0-36.89A25.86,25.86,0,0,1,805,1317a30.66,30.66,0,0,1,21.44,0,25.29,25.29,0,0,1,8.52,5.41,24.62,24.62,0,0,1,5.59,8.23,27.81,27.81,0,0,1,0,20.61,24.66,24.66,0,0,1-5.59,8.19,25.29,25.29,0,0,1-8.52,5.41A29.14,29.14,0,0,1,815.77,1366.71Zm0-6.43a20.56,20.56,0,0,0,7.76-1.44,18.33,18.33,0,0,0,6.21-4.08,19,19,0,0,0,4.12-6.17,19.94,19.94,0,0,0,1.48-7.73,19.26,19.26,0,0,0-5.6-13.85,18.14,18.14,0,0,0-6.21-4.12,20.56,20.56,0,0,0-7.76-1.44,20.78,20.78,0,0,0-7.83,1.44,18.55,18.55,0,0,0-6.24,4.12,19.06,19.06,0,0,0-4.15,6.17,19.44,19.44,0,0,0-1.48,7.68,19.76,19.76,0,0,0,1.48,7.73,18.76,18.76,0,0,0,10.39,10.25A20.78,20.78,0,0,0,815.77,1360.28Z" transform="translate(1493.01 -1207.29)"/><path class="cls-1" d="M878.5,1366.71q-10,0-15.66-5.71t-5.7-16.67V1315.6h7.21V1344q0,8.45,3.72,12.34t10.5,3.9q6.85,0,10.58-3.9t3.72-12.34V1315.6h7v28.73q0,11-5.67,16.67T878.5,1366.71Z" transform="translate(1493.01 -1207.29)"/><path class="cls-1" d="M941.23,1366.71a28.81,28.81,0,0,1-10.65-1.92,24.85,24.85,0,0,1-8.44-5.41,25.29,25.29,0,0,1-5.6-8.19,27.4,27.4,0,0,1,0-20.65,25.06,25.06,0,0,1,5.63-8.19,25.32,25.32,0,0,1,8.48-5.41,30.37,30.37,0,0,1,21.44.07,22,22,0,0,1,8.41,5.88l-4.69,4.55a18.7,18.7,0,0,0-6.5-4.51,20.07,20.07,0,0,0-7.72-1.48,21.35,21.35,0,0,0-7.91,1.44,18.92,18.92,0,0,0-6.31,4,18.24,18.24,0,0,0-4.15,6.17,21.08,21.08,0,0,0,0,15.52,18.19,18.19,0,0,0,4.15,6.18,18.92,18.92,0,0,0,6.31,4,21.35,21.35,0,0,0,7.91,1.44,20.07,20.07,0,0,0,7.72-1.48,18.26,18.26,0,0,0,6.5-4.58l4.69,4.55a22.42,22.42,0,0,1-8.41,5.91A28.42,28.42,0,0,1,941.23,1366.71Z" transform="translate(1493.01 -1207.29)"/><path class="cls-1" d="M965.91,1366.13l22.89-50.53h7.14l23,50.53h-7.58l-20.43-46.49h2.89l-20.43,46.49Zm9.75-12.63,2-5.78h28.44l2.09,5.78Z" transform="translate(1493.01 -1207.29)"/><path class="cls-1" d="M1045.1,1366.71a34.52,34.52,0,0,1-11-1.77,22.61,22.61,0,0,1-8.3-4.59l2.67-5.63a23.42,23.42,0,0,0,7.37,4.19,26.44,26.44,0,0,0,9.31,1.66,21.13,21.13,0,0,0,7.14-1,8.48,8.48,0,0,0,4-2.78,6.62,6.62,0,0,0,1.29-4,5.46,5.46,0,0,0-1.69-4.18,12.59,12.59,0,0,0-4.4-2.56,48.81,48.81,0,0,0-6-1.7q-3.24-.72-6.53-1.7a29.17,29.17,0,0,1-6-2.49,12.23,12.23,0,0,1-4.37-4.08,11.9,11.9,0,0,1-1.66-6.6,13.27,13.27,0,0,1,2.06-7.18,14.27,14.27,0,0,1,6.35-5.27,26.17,26.17,0,0,1,10.93-2,33.8,33.8,0,0,1,8.74,1.16,24.22,24.22,0,0,1,7.51,3.32l-2.39,5.77a23.28,23.28,0,0,0-6.85-3.14,26.83,26.83,0,0,0-7-1,19.31,19.31,0,0,0-7,1.08,8.51,8.51,0,0,0-4,2.89,6.83,6.83,0,0,0-1.27,4,5.57,5.57,0,0,0,1.7,4.26,12.25,12.25,0,0,0,4.4,2.53,59.83,59.83,0,0,0,6,1.69c2.16.51,4.34,1.07,6.53,1.7a27.53,27.53,0,0,1,6,2.45,12.32,12.32,0,0,1,4.37,4,11.58,11.58,0,0,1,1.66,6.49,13,13,0,0,1-2.09,7.11,14.49,14.49,0,0,1-6.46,5.27A26.6,26.6,0,0,1,1045.1,1366.71Z" transform="translate(1493.01 -1207.29)"/><path class="cls-1" d="M1102.55,1366.13V1315.6h19.71a27.79,27.79,0,0,1,11.33,2.09,16,16,0,0,1,7.22,6.07,17.26,17.26,0,0,1,2.53,9.45,17.08,17.08,0,0,1-2.53,9.42,16.29,16.29,0,0,1-7.22,6.07,27.27,27.27,0,0,1-11.33,2.13h-15.74l3.25-3.4v18.7Zm7.22-18-3.25-3.6H1122q6.93,0,10.51-3a10.29,10.29,0,0,0,3.57-8.38q0-5.42-3.57-8.37t-10.51-3h-15.52l3.25-3.61Z" transform="translate(1493.01 -1207.29)"/><path class="cls-1" d="M1165.14,1359.85h29.45v6.28h-36.67V1315.6h35.66v6.28h-28.44Zm-.65-22.45h26v6.14h-26Z" transform="translate(1493.01 -1207.29)"/><path class="cls-1" d="M1210.25,1366.13V1315.6h7.22v44.25h27.36v6.28Z" transform="translate(1493.01 -1207.29)"/><path class="cls-1" d="M1279,1366.71a29,29,0,0,1-10.72-2,25.59,25.59,0,0,1-8.55-5.45,25.06,25.06,0,0,1-5.63-8.2,27,27,0,0,1,0-20.5,25.12,25.12,0,0,1,5.63-8.19,25.72,25.72,0,0,1,8.51-5.45,30.66,30.66,0,0,1,21.44,0,25.29,25.29,0,0,1,8.52,5.41,24.47,24.47,0,0,1,5.59,8.23,27.68,27.68,0,0,1,0,20.61,24.51,24.51,0,0,1-5.59,8.19,25.29,25.29,0,0,1-8.52,5.41A29,29,0,0,1,1279,1366.71Zm0-6.43a20.56,20.56,0,0,0,7.76-1.44,18.43,18.43,0,0,0,6.21-4.08,19.16,19.16,0,0,0,4.11-6.17,19.76,19.76,0,0,0,1.48-7.73,19.3,19.3,0,0,0-5.59-13.85,18.23,18.23,0,0,0-6.21-4.12,21.82,21.82,0,0,0-15.59,0,18.6,18.6,0,0,0-6.25,4.12,19.22,19.22,0,0,0-4.15,6.17,19.62,19.62,0,0,0-1.48,7.68,19.94,19.94,0,0,0,1.48,7.73,18.73,18.73,0,0,0,10.4,10.25A20.74,20.74,0,0,0,1279,1360.28Z" transform="translate(1493.01 -1207.29)"/><path class="cls-1" d="M1335.49,1366.71a34.52,34.52,0,0,1-11-1.77,22.61,22.61,0,0,1-8.3-4.59l2.67-5.63a23.42,23.42,0,0,0,7.37,4.19,26.44,26.44,0,0,0,9.31,1.66,21.13,21.13,0,0,0,7.14-1,8.48,8.48,0,0,0,4-2.78,6.63,6.63,0,0,0,1.3-4,5.46,5.46,0,0,0-1.7-4.18,12.59,12.59,0,0,0-4.4-2.56,48.81,48.81,0,0,0-6-1.7q-3.24-.72-6.53-1.7a29.17,29.17,0,0,1-6-2.49,12.23,12.23,0,0,1-4.37-4.08,11.9,11.9,0,0,1-1.66-6.6,13.27,13.27,0,0,1,2.06-7.18,14.27,14.27,0,0,1,6.35-5.27,26.19,26.19,0,0,1,10.94-2,33.78,33.78,0,0,1,8.73,1.16,24.22,24.22,0,0,1,7.51,3.32l-2.39,5.77a23.28,23.28,0,0,0-6.85-3.14,26.81,26.81,0,0,0-7-1,19.37,19.37,0,0,0-7,1.08,8.51,8.51,0,0,0-4,2.89,6.83,6.83,0,0,0-1.27,4,5.57,5.57,0,0,0,1.7,4.26,12.25,12.25,0,0,0,4.4,2.53,59.83,59.83,0,0,0,6,1.69c2.16.51,4.34,1.07,6.53,1.7a27.53,27.53,0,0,1,6,2.45,12.32,12.32,0,0,1,4.37,4,11.58,11.58,0,0,1,1.66,6.49,13,13,0,0,1-2.09,7.11,14.49,14.49,0,0,1-6.46,5.27A26.6,26.6,0,0,1,1335.49,1366.71Z" transform="translate(1493.01 -1207.29)"/><path class="cls-1" d="M1392.94,1366.13V1315.6h7.22v44.25h27.36v6.28Z" transform="translate(1493.01 -1207.29)"/><path class="cls-1" d="M1461.66,1366.71a29,29,0,0,1-10.72-2,25.79,25.79,0,0,1-8.55-5.45,25.21,25.21,0,0,1-5.63-8.2,27,27,0,0,1,0-20.5,25.28,25.28,0,0,1,5.63-8.19,25.86,25.86,0,0,1,8.52-5.45,30.66,30.66,0,0,1,21.44,0,25.15,25.15,0,0,1,8.51,5.41,24.64,24.64,0,0,1,5.6,8.23,27.81,27.81,0,0,1,0,20.61,24.68,24.68,0,0,1-5.6,8.19,25.15,25.15,0,0,1-8.51,5.41A29.14,29.14,0,0,1,1461.66,1366.71Zm0-6.43a20.56,20.56,0,0,0,7.76-1.44,18.33,18.33,0,0,0,6.21-4.08,18.84,18.84,0,0,0,4.11-6.17,19.76,19.76,0,0,0,1.48-7.73,19.3,19.3,0,0,0-5.59-13.85,18.14,18.14,0,0,0-6.21-4.12,21.82,21.82,0,0,0-15.59,0,18.55,18.55,0,0,0-6.24,4.12,19.06,19.06,0,0,0-4.15,6.17,19.44,19.44,0,0,0-1.48,7.68,19.76,19.76,0,0,0,1.48,7.73,18.76,18.76,0,0,0,10.39,10.25A20.74,20.74,0,0,0,1461.66,1360.28Z" transform="translate(1493.01 -1207.29)"/><path class="cls-1" d="M1526.27,1366.71a28.94,28.94,0,0,1-10.72-2,25.73,25.73,0,0,1-8.56-5.45,25.37,25.37,0,0,1-5.63-8.2,27,27,0,0,1,0-20.5,25.43,25.43,0,0,1,5.63-8.19,25.86,25.86,0,0,1,8.52-5.45,30.66,30.66,0,0,1,21.44,0,25.29,25.29,0,0,1,8.52,5.41,24.62,24.62,0,0,1,5.59,8.23,27.68,27.68,0,0,1,0,20.61,24.66,24.66,0,0,1-5.59,8.19,25.29,25.29,0,0,1-8.52,5.41A29,29,0,0,1,1526.27,1366.71Zm0-6.43a20.6,20.6,0,0,0,7.76-1.44,18.29,18.29,0,0,0,6.2-4.08,19,19,0,0,0,4.12-6.17,19.94,19.94,0,0,0,1.48-7.73,19.26,19.26,0,0,0-5.6-13.85,18.1,18.1,0,0,0-6.2-4.12,20.6,20.6,0,0,0-7.76-1.44,20.83,20.83,0,0,0-7.84,1.44,18.55,18.55,0,0,0-6.24,4.12,19.22,19.22,0,0,0-4.15,6.17,19.44,19.44,0,0,0-1.48,7.68,19.76,19.76,0,0,0,1.48,7.73,18.76,18.76,0,0,0,10.39,10.25A20.83,20.83,0,0,0,1526.27,1360.28Z" transform="translate(1493.01 -1207.29)"/><path class="cls-1" d="M1568.06,1366.13V1315.6h7.22v50.53Zm6.35-12.2-.36-8.81,28.66-29.52h8.23L1588.78,1339l-4,4.47Zm29.45,12.2L1583.15,1342l4.83-5.34,24.33,29.45Z" transform="translate(1493.01 -1207.29)"/><path class="cls-1" d="M1637.57,1366.71a34.41,34.41,0,0,1-11-1.77,22.52,22.52,0,0,1-8.3-4.59l2.67-5.63a23.37,23.37,0,0,0,7.36,4.19,26.48,26.48,0,0,0,9.31,1.66,21.16,21.16,0,0,0,7.15-1,8.45,8.45,0,0,0,4-2.78,6.57,6.57,0,0,0,1.3-4,5.46,5.46,0,0,0-1.7-4.18,12.5,12.5,0,0,0-4.4-2.56,48.64,48.64,0,0,0-6-1.7q-3.26-.72-6.54-1.7a29.4,29.4,0,0,1-6-2.49,12.31,12.31,0,0,1-4.37-4.08,12,12,0,0,1-1.66-6.6,13.27,13.27,0,0,1,2.06-7.18,14.27,14.27,0,0,1,6.35-5.27,26.22,26.22,0,0,1,10.94-2,33.72,33.72,0,0,1,8.73,1.16,24.22,24.22,0,0,1,7.51,3.32l-2.38,5.77a23.34,23.34,0,0,0-6.86-3.14,26.81,26.81,0,0,0-7-1,19.31,19.31,0,0,0-7,1.08,8.54,8.54,0,0,0-4,2.89,6.89,6.89,0,0,0-1.26,4,5.56,5.56,0,0,0,1.69,4.26,12.21,12.21,0,0,0,4.41,2.53,59.6,59.6,0,0,0,5.95,1.69c2.17.51,4.35,1.07,6.54,1.7a27.94,27.94,0,0,1,6,2.45,12.29,12.29,0,0,1,4.36,4,11.58,11.58,0,0,1,1.66,6.49,12.94,12.94,0,0,1-2.09,7.11,14.49,14.49,0,0,1-6.46,5.27A26.54,26.54,0,0,1,1637.57,1366.71Z" transform="translate(1493.01 -1207.29)"/><path class="cls-1" d="M-1397.08,1446.42v-50.53h21.29a30.73,30.73,0,0,1,14.26,3.18,23.55,23.55,0,0,1,9.6,8.88,25.17,25.17,0,0,1,3.43,13.21,25.2,25.2,0,0,1-3.43,13.21,23.55,23.55,0,0,1-9.6,8.88,30.85,30.85,0,0,1-14.26,3.17Zm7.22-6.28h13.64a23.2,23.2,0,0,0,10.86-2.38,17.25,17.25,0,0,0,7.11-6.68,19.14,19.14,0,0,0,2.53-9.92,19.11,19.11,0,0,0-2.53-10,17.28,17.28,0,0,0-7.11-6.64,23.2,23.2,0,0,0-10.86-2.39h-13.64Z" transform="translate(1493.01 -1207.29)"/><path class="cls-1" d="M-1341.86,1446.42l22.88-50.53h7.15l22.95,50.53h-7.58l-20.43-46.48h2.89l-20.43,46.48Zm9.74-12.63,1.95-5.77h28.44l2.1,5.77Z" transform="translate(1493.01 -1207.29)"/><path class="cls-1" d="M-1262.68,1447a34.41,34.41,0,0,1-11-1.77,22.74,22.74,0,0,1-8.3-4.58l2.67-5.63a23.35,23.35,0,0,0,7.36,4.18,26.48,26.48,0,0,0,9.31,1.66,20.91,20.91,0,0,0,7.15-1,8.4,8.4,0,0,0,4-2.78,6.54,6.54,0,0,0,1.3-4,5.49,5.49,0,0,0-1.7-4.19,12.5,12.5,0,0,0-4.4-2.56,48.64,48.64,0,0,0-6-1.7q-3.26-.72-6.54-1.69a29.4,29.4,0,0,1-6-2.49,12.2,12.2,0,0,1-4.36-4.08,11.93,11.93,0,0,1-1.67-6.61,13.27,13.27,0,0,1,2.06-7.18,14.33,14.33,0,0,1,6.35-5.27,26.23,26.23,0,0,1,10.94-2,33.71,33.71,0,0,1,8.73,1.15,24.46,24.46,0,0,1,7.51,3.32l-2.38,5.78a23.09,23.09,0,0,0-6.86-3.14,26.83,26.83,0,0,0-7-1,19.31,19.31,0,0,0-7,1.08,8.61,8.61,0,0,0-4,2.89,6.91,6.91,0,0,0-1.26,4,5.5,5.5,0,0,0,1.7,4.26,12.16,12.16,0,0,0,4.4,2.53,59.52,59.52,0,0,0,5.95,1.7c2.17.5,4.35,1.07,6.54,1.69a28.26,28.26,0,0,1,6,2.46,12.27,12.27,0,0,1,4.36,4,11.58,11.58,0,0,1,1.66,6.49,13,13,0,0,1-2.09,7.12,14.47,14.47,0,0,1-6.46,5.26A26.54,26.54,0,0,1-1262.68,1447Z" transform="translate(1493.01 -1207.29)"/><path class="cls-1" d="M-1205.22,1446.42v-50.53h5.92l33.42,41.51h-3.1v-41.51h7.21v50.53h-5.92l-33.42-41.5h3.11v41.5Z" transform="translate(1493.01 -1207.29)"/><path class="cls-1" d="M-1119.83,1447a29,29,0,0,1-10.72-2,25.53,25.53,0,0,1-8.55-5.45,25.06,25.06,0,0,1-5.63-8.19,25.61,25.61,0,0,1-2-10.25,25.58,25.58,0,0,1,2-10.25,25.06,25.06,0,0,1,5.63-8.19,25.35,25.35,0,0,1,8.52-5.45,28.83,28.83,0,0,1,10.75-2,29,29,0,0,1,10.68,1.91,25.25,25.25,0,0,1,8.52,5.41,24.75,24.75,0,0,1,5.6,8.23,26.36,26.36,0,0,1,2,10.29,26.29,26.29,0,0,1-2,10.32,24.68,24.68,0,0,1-5.6,8.19,25.12,25.12,0,0,1-8.52,5.42A29.25,29.25,0,0,1-1119.83,1447Zm0-6.42a20.57,20.57,0,0,0,7.76-1.45,18.43,18.43,0,0,0,6.21-4.08,18.74,18.74,0,0,0,4.11-6.17,19.74,19.74,0,0,0,1.48-7.72,19.52,19.52,0,0,0-1.48-7.69,19.38,19.38,0,0,0-4.11-6.17,18.38,18.38,0,0,0-6.21-4.12,20.56,20.56,0,0,0-7.76-1.44,20.74,20.74,0,0,0-7.83,1.44,18.7,18.7,0,0,0-6.24,4.12,19.17,19.17,0,0,0-4.15,6.17,19.52,19.52,0,0,0-1.48,7.69,19.74,19.74,0,0,0,1.48,7.72,18.54,18.54,0,0,0,4.15,6.17,18.75,18.75,0,0,0,6.24,4.08A20.75,20.75,0,0,0-1119.83,1440.58Z" transform="translate(1493.01 -1207.29)"/><path class="cls-1" d="M-1063.31,1447a34.41,34.41,0,0,1-11-1.77,22.66,22.66,0,0,1-8.3-4.58l2.67-5.63a23.24,23.24,0,0,0,7.36,4.18,26.48,26.48,0,0,0,9.31,1.66,20.91,20.91,0,0,0,7.15-1,8.45,8.45,0,0,0,4-2.78,6.54,6.54,0,0,0,1.3-4,5.49,5.49,0,0,0-1.7-4.19,12.59,12.59,0,0,0-4.4-2.56,48.81,48.81,0,0,0-6-1.7q-3.24-.72-6.53-1.69a29.17,29.17,0,0,1-6-2.49,12.31,12.31,0,0,1-4.37-4.08,12,12,0,0,1-1.66-6.61,13.27,13.27,0,0,1,2.06-7.18,14.33,14.33,0,0,1,6.35-5.27,26.2,26.2,0,0,1,10.94-2,33.77,33.77,0,0,1,8.73,1.15,24.46,24.46,0,0,1,7.51,3.32l-2.38,5.78a23.09,23.09,0,0,0-6.86-3.14,26.83,26.83,0,0,0-7-1,19.28,19.28,0,0,0-7,1.08,8.61,8.61,0,0,0-4,2.89,6.91,6.91,0,0,0-1.26,4,5.53,5.53,0,0,0,1.69,4.26,12.21,12.21,0,0,0,4.41,2.53,59.52,59.52,0,0,0,6,1.7c2.17.5,4.34,1.07,6.53,1.69a28,28,0,0,1,6,2.46,12.3,12.3,0,0,1,4.37,4,11.58,11.58,0,0,1,1.66,6.49,13,13,0,0,1-2.09,7.12,14.47,14.47,0,0,1-6.46,5.26A26.54,26.54,0,0,1-1063.31,1447Z" transform="translate(1493.01 -1207.29)"/><path class="cls-1" d="M-1014.51,1447a34.47,34.47,0,0,1-11-1.77,22.74,22.74,0,0,1-8.3-4.58l2.67-5.63a23.47,23.47,0,0,0,7.36,4.18,26.53,26.53,0,0,0,9.32,1.66,20.88,20.88,0,0,0,7.14-1,8.4,8.4,0,0,0,4-2.78,6.54,6.54,0,0,0,1.3-4,5.48,5.48,0,0,0-1.69-4.19,12.55,12.55,0,0,0-4.41-2.56,48.64,48.64,0,0,0-6-1.7c-2.17-.48-4.34-1-6.53-1.69a29.49,29.49,0,0,1-6-2.49,12.2,12.2,0,0,1-4.36-4.08,11.93,11.93,0,0,1-1.66-6.61,13.27,13.27,0,0,1,2.05-7.18,14.36,14.36,0,0,1,6.36-5.27,26.15,26.15,0,0,1,10.93-2,33.79,33.79,0,0,1,8.74,1.15,24.4,24.4,0,0,1,7.5,3.32l-2.38,5.78a23,23,0,0,0-6.86-3.14,26.78,26.78,0,0,0-7-1,19.31,19.31,0,0,0-7,1.08,8.66,8.66,0,0,0-4,2.89,6.91,6.91,0,0,0-1.26,4,5.54,5.54,0,0,0,1.7,4.26,12.25,12.25,0,0,0,4.4,2.53,59.75,59.75,0,0,0,6,1.7c2.16.5,4.34,1.07,6.53,1.69a28,28,0,0,1,6,2.46,12.38,12.38,0,0,1,4.37,4,11.66,11.66,0,0,1,1.66,6.49,13,13,0,0,1-2.1,7.12,14.42,14.42,0,0,1-6.46,5.26A26.52,26.52,0,0,1-1014.51,1447Z" transform="translate(1493.01 -1207.29)"/><path class="cls-1" d="M-988.1,1446.42l22.89-50.53h7.14l23,50.53h-7.58l-20.43-46.48h2.89l-20.43,46.48Zm9.75-12.63,2-5.77H-948l2.09,5.77Z" transform="translate(1493.01 -1207.29)"/><path class="cls-1" d="M-908.91,1447a34.52,34.52,0,0,1-11.05-1.77,22.74,22.74,0,0,1-8.3-4.58l2.67-5.63a23.41,23.41,0,0,0,7.37,4.18,26.44,26.44,0,0,0,9.31,1.66,20.88,20.88,0,0,0,7.14-1,8.48,8.48,0,0,0,4-2.78,6.6,6.6,0,0,0,1.3-4,5.49,5.49,0,0,0-1.7-4.19,12.59,12.59,0,0,0-4.4-2.56,48.81,48.81,0,0,0-6-1.7q-3.24-.72-6.53-1.69a29.17,29.17,0,0,1-6-2.49,12.23,12.23,0,0,1-4.37-4.08,11.93,11.93,0,0,1-1.66-6.61,13.27,13.27,0,0,1,2.06-7.18,14.33,14.33,0,0,1,6.35-5.27,26.2,26.2,0,0,1,10.94-2,33.77,33.77,0,0,1,8.73,1.15,24.46,24.46,0,0,1,7.51,3.32l-2.39,5.78a23,23,0,0,0-6.85-3.14,26.83,26.83,0,0,0-7-1,19.37,19.37,0,0,0-7,1.08,8.58,8.58,0,0,0-4,2.89,6.85,6.85,0,0,0-1.27,4,5.54,5.54,0,0,0,1.7,4.26,12.25,12.25,0,0,0,4.4,2.53,59.75,59.75,0,0,0,6,1.7c2.16.5,4.34,1.07,6.53,1.69a28,28,0,0,1,6,2.46,12.3,12.3,0,0,1,4.37,4,11.58,11.58,0,0,1,1.66,6.49,13,13,0,0,1-2.09,7.12,14.47,14.47,0,0,1-6.46,5.26A26.6,26.6,0,0,1-908.91,1447Z" transform="translate(1493.01 -1207.29)"/><path class="cls-1" d="M-828.86,1447a29,29,0,0,1-10.65-1.91,24.87,24.87,0,0,1-8.44-5.42,25.29,25.29,0,0,1-5.6-8.19,25.78,25.78,0,0,1-2-10.32,25.71,25.71,0,0,1,2-10.32,25.21,25.21,0,0,1,5.63-8.2,25.47,25.47,0,0,1,8.48-5.41,28.81,28.81,0,0,1,10.65-1.91,28.77,28.77,0,0,1,10.79,2,22.24,22.24,0,0,1,8.41,5.88l-4.69,4.55a18.83,18.83,0,0,0-6.5-4.51,20.07,20.07,0,0,0-7.72-1.48,21.35,21.35,0,0,0-7.91,1.44,18.94,18.94,0,0,0-6.31,4,18.14,18.14,0,0,0-4.15,6.17,20,20,0,0,0-1.48,7.76,20,20,0,0,0,1.48,7.76,18.14,18.14,0,0,0,4.15,6.17,18.92,18.92,0,0,0,6.31,4,21.35,21.35,0,0,0,7.91,1.45,20.25,20.25,0,0,0,7.72-1.48,18.42,18.42,0,0,0,6.5-4.59l4.69,4.55A22.44,22.44,0,0,1-818,1445,28.41,28.41,0,0,1-828.86,1447Z" transform="translate(1493.01 -1207.29)"/><path class="cls-1" d="M-788.08,1440.14h29.45v6.28H-795.3v-50.53h35.66v6.28h-28.44Zm-.65-22.45h26v6.14h-26Z" transform="translate(1493.01 -1207.29)"/><path class="cls-1" d="M-743,1446.42v-50.53h7.21v44.25h27.36v6.28Z" transform="translate(1493.01 -1207.29)"/><path class="cls-1" d="M-688.9,1440.14h29.45v6.28h-36.67v-50.53h35.66v6.28H-688.9Zm-.65-22.45h26v6.14h-26Z" transform="translate(1493.01 -1207.29)"/><path class="cls-1" d="M-643.79,1446.42v-50.53h22.67q8.73,0,13.43,3.5A11.33,11.33,0,0,1-603,1409a12.47,12.47,0,0,1-1.84,6.93,12.16,12.16,0,0,1-4.95,4.33,15.11,15.11,0,0,1-6.71,1.52l1.3-2.17a18.23,18.23,0,0,1,7.65,1.52,12.37,12.37,0,0,1,5.27,4.44,12.75,12.75,0,0,1,1.95,7.25,11.78,11.78,0,0,1-4.87,10.07q-4.87,3.57-14.48,3.57Zm7.22-5.84H-620c4,0,7.05-.68,9.17-2a7,7,0,0,0,3.18-6.35q0-4.4-3.18-6.42c-2.12-1.35-5.17-2-9.17-2h-17.25v-5.85h15.45q5.49,0,8.52-2a6.8,6.8,0,0,0,3-6.06,6.81,6.81,0,0,0-3-6.07c-2-1.34-4.86-2-8.52-2h-14.8Z" transform="translate(1493.01 -1207.29)"/><path class="cls-1" d="M-570.45,1447a34.41,34.41,0,0,1-11-1.77,22.66,22.66,0,0,1-8.3-4.58l2.67-5.63a23.35,23.35,0,0,0,7.36,4.18,26.48,26.48,0,0,0,9.31,1.66,20.91,20.91,0,0,0,7.15-1,8.45,8.45,0,0,0,4-2.78,6.54,6.54,0,0,0,1.3-4,5.49,5.49,0,0,0-1.7-4.19,12.59,12.59,0,0,0-4.4-2.56,48.81,48.81,0,0,0-6-1.7q-3.24-.72-6.53-1.69a29.17,29.17,0,0,1-6-2.49,12.31,12.31,0,0,1-4.37-4.08,12,12,0,0,1-1.66-6.61,13.27,13.27,0,0,1,2.06-7.18,14.33,14.33,0,0,1,6.35-5.27,26.2,26.2,0,0,1,10.94-2,33.77,33.77,0,0,1,8.73,1.15,24.46,24.46,0,0,1,7.51,3.32l-2.38,5.78a23.09,23.09,0,0,0-6.86-3.14,26.83,26.83,0,0,0-7-1,19.28,19.28,0,0,0-7,1.08,8.61,8.61,0,0,0-4,2.89,6.91,6.91,0,0,0-1.26,4,5.53,5.53,0,0,0,1.69,4.26,12.21,12.21,0,0,0,4.41,2.53,59.52,59.52,0,0,0,5.95,1.7c2.17.5,4.34,1.07,6.53,1.69a28.35,28.35,0,0,1,6,2.46,12.35,12.35,0,0,1,4.36,4,11.58,11.58,0,0,1,1.66,6.49,13,13,0,0,1-2.09,7.12,14.47,14.47,0,0,1-6.46,5.26A26.54,26.54,0,0,1-570.45,1447Z" transform="translate(1493.01 -1207.29)"/><path class="cls-1" d="M-538.69,1457.11l3.61-14.59.94,4.19a4.93,4.93,0,0,1-3.5-1.3,4.56,4.56,0,0,1-1.41-3.54,4.7,4.7,0,0,1,1.41-3.53,4.69,4.69,0,0,1,3.43-1.37,4.43,4.43,0,0,1,3.39,1.4,5,5,0,0,1,1.3,3.5,9.16,9.16,0,0,1-.11,1.41,13.24,13.24,0,0,1-.36,1.59c-.17.6-.42,1.34-.76,2.2l-3.39,10Z" transform="translate(1493.01 -1207.29)"/><path class="cls-1" d="M-491.2,1446.42v-50.53h5.92l22.67,38.19h-3.18l22.38-38.19h5.92l.07,50.53h-6.93l-.07-39.63h1.66l-19.92,33.5H-466l-20.07-33.5h1.8v39.63Z" transform="translate(1493.01 -1207.29)"/><path class="cls-1" d="M-425.94,1446.42l22.88-50.53h7.15l23,50.53h-7.58L-401,1399.94h2.89l-20.43,46.48Zm9.74-12.63,1.95-5.77h28.44l2.09,5.77Z" transform="translate(1493.01 -1207.29)"/><path class="cls-1" d="M-346.76,1447a34.41,34.41,0,0,1-11-1.77,22.66,22.66,0,0,1-8.3-4.58l2.67-5.63a23.35,23.35,0,0,0,7.36,4.18,26.48,26.48,0,0,0,9.31,1.66,20.91,20.91,0,0,0,7.15-1,8.45,8.45,0,0,0,4-2.78,6.54,6.54,0,0,0,1.3-4,5.49,5.49,0,0,0-1.7-4.19,12.59,12.59,0,0,0-4.4-2.56,48.64,48.64,0,0,0-5.95-1.7q-3.26-.72-6.54-1.69a29.4,29.4,0,0,1-6-2.49,12.31,12.31,0,0,1-4.37-4.08,12,12,0,0,1-1.66-6.61,13.27,13.27,0,0,1,2.06-7.18,14.33,14.33,0,0,1,6.35-5.27,26.23,26.23,0,0,1,10.94-2,33.71,33.71,0,0,1,8.73,1.15,24.46,24.46,0,0,1,7.51,3.32l-2.38,5.78a23.09,23.09,0,0,0-6.86-3.14,26.83,26.83,0,0,0-7-1,19.31,19.31,0,0,0-7,1.08,8.61,8.61,0,0,0-4,2.89,6.91,6.91,0,0,0-1.26,4,5.53,5.53,0,0,0,1.69,4.26,12.21,12.21,0,0,0,4.41,2.53,59.52,59.52,0,0,0,5.95,1.7c2.17.5,4.34,1.07,6.54,1.69a28.48,28.48,0,0,1,6,2.46,12.27,12.27,0,0,1,4.36,4,11.58,11.58,0,0,1,1.66,6.49,13,13,0,0,1-2.09,7.12,14.47,14.47,0,0,1-6.46,5.26A26.54,26.54,0,0,1-346.76,1447Z" transform="translate(1493.01 -1207.29)"/><path class="cls-1" d="M-274.58,1447a34.41,34.41,0,0,1-11-1.77,22.74,22.74,0,0,1-8.3-4.58l2.67-5.63a23.35,23.35,0,0,0,7.36,4.18,26.48,26.48,0,0,0,9.31,1.66,20.91,20.91,0,0,0,7.15-1,8.4,8.4,0,0,0,4-2.78,6.54,6.54,0,0,0,1.3-4,5.49,5.49,0,0,0-1.7-4.19,12.5,12.5,0,0,0-4.4-2.56,48.64,48.64,0,0,0-5.95-1.7q-3.25-.72-6.54-1.69a29.4,29.4,0,0,1-6-2.49,12.2,12.2,0,0,1-4.36-4.08,11.93,11.93,0,0,1-1.66-6.61,13.27,13.27,0,0,1,2.05-7.18,14.33,14.33,0,0,1,6.35-5.27,26.23,26.23,0,0,1,10.94-2,33.71,33.71,0,0,1,8.73,1.15,24.46,24.46,0,0,1,7.51,3.32l-2.38,5.78a23.09,23.09,0,0,0-6.86-3.14,26.83,26.83,0,0,0-7-1,19.31,19.31,0,0,0-7,1.08,8.61,8.61,0,0,0-4,2.89,6.91,6.91,0,0,0-1.26,4,5.5,5.5,0,0,0,1.7,4.26,12.16,12.16,0,0,0,4.4,2.53,59.52,59.52,0,0,0,5.95,1.7c2.17.5,4.35,1.07,6.54,1.69a28.26,28.26,0,0,1,6,2.46,12.27,12.27,0,0,1,4.36,4,11.58,11.58,0,0,1,1.66,6.49,13,13,0,0,1-2.09,7.12,14.47,14.47,0,0,1-6.46,5.26A26.54,26.54,0,0,1-274.58,1447Z" transform="translate(1493.01 -1207.29)"/><path class="cls-1" d="M-248.16,1446.42l22.88-50.53h7.15l22.95,50.53h-7.58l-20.42-46.48h2.88l-20.42,46.48Zm9.75-12.63,1.95-5.77H-208l2.09,5.77Z" transform="translate(1493.01 -1207.29)"/><path class="cls-1" d="M-183.7,1446.42v-50.53H-161q8.73,0,13.42,3.5a11.3,11.3,0,0,1,4.69,9.57,12.39,12.39,0,0,1-1.84,6.93,12.07,12.07,0,0,1-4.94,4.33,15.12,15.12,0,0,1-6.72,1.52l1.3-2.17a18.31,18.31,0,0,1,7.66,1.52,12.37,12.37,0,0,1,5.27,4.44,12.83,12.83,0,0,1,1.94,7.25,11.75,11.75,0,0,1-4.87,10.07q-4.87,3.57-14.47,3.57Zm7.22-5.84h16.6q6,0,9.17-2a7,7,0,0,0,3.17-6.35q0-4.4-3.17-6.42t-9.17-2h-17.25v-5.85h15.45q5.48,0,8.51-2a6.81,6.81,0,0,0,3-6.06,6.82,6.82,0,0,0-3-6.07c-2-1.34-4.86-2-8.51-2h-14.8Z" transform="translate(1493.01 -1207.29)"/><path class="cls-1" d="M-117.87,1440.14h29.45v6.28h-36.67v-50.53h35.66v6.28h-28.44Zm-.65-22.45h26v6.14h-26Z" transform="translate(1493.01 -1207.29)"/><path class="cls-1" d="M-72.76,1446.42v-50.53h5.92l22.67,38.19h-3.18L-25,1395.89H-19l.07,50.53h-6.93l-.07-39.63h1.66l-19.92,33.5h-3.32l-20.07-33.5h1.8v39.63Z" transform="translate(1493.01 -1207.29)"/><path class="cls-1" d="M23,1447a28.94,28.94,0,0,1-10.72-2,25.58,25.58,0,0,1-8.56-5.45,25.22,25.22,0,0,1-5.63-8.19,27,27,0,0,1,0-20.5,25.22,25.22,0,0,1,5.63-8.19,25.55,25.55,0,0,1,8.52-5.45,28.89,28.89,0,0,1,10.76-2,29,29,0,0,1,10.68,1.91,25.45,25.45,0,0,1,8.52,5.41,24.72,24.72,0,0,1,5.59,8.23,27.68,27.68,0,0,1,0,20.61,24.66,24.66,0,0,1-5.59,8.19,25.32,25.32,0,0,1-8.52,5.42A29.25,29.25,0,0,1,23,1447Zm0-6.42a20.61,20.61,0,0,0,7.76-1.45,18.29,18.29,0,0,0,6.2-4.08,18.92,18.92,0,0,0,4.12-6.17,19.92,19.92,0,0,0,1.48-7.72,19.26,19.26,0,0,0-5.6-13.86,18.24,18.24,0,0,0-6.2-4.12,20.6,20.6,0,0,0-7.76-1.44,20.74,20.74,0,0,0-7.83,1.44,18.65,18.65,0,0,0-6.25,4.12,19.33,19.33,0,0,0-4.15,6.17,19.52,19.52,0,0,0-1.48,7.69,19.74,19.74,0,0,0,1.48,7.72,18.73,18.73,0,0,0,10.4,10.25A20.75,20.75,0,0,0,23,1440.58Z" transform="translate(1493.01 -1207.29)"/><path class="cls-1" d="M79.48,1447a34.52,34.52,0,0,1-11-1.77,22.74,22.74,0,0,1-8.3-4.58L62.8,1435a23.41,23.41,0,0,0,7.37,4.18,26.44,26.44,0,0,0,9.31,1.66,20.88,20.88,0,0,0,7.14-1,8.48,8.48,0,0,0,4-2.78,6.59,6.59,0,0,0,1.29-4,5.48,5.48,0,0,0-1.69-4.19,12.59,12.59,0,0,0-4.4-2.56,48.81,48.81,0,0,0-6-1.7c-2.17-.48-4.34-1-6.53-1.69a29.17,29.17,0,0,1-6-2.49,12.23,12.23,0,0,1-4.37-4.08,11.93,11.93,0,0,1-1.66-6.61,13.19,13.19,0,0,1,2.06-7.18,14.28,14.28,0,0,1,6.35-5.27,26.18,26.18,0,0,1,10.93-2,33.79,33.79,0,0,1,8.74,1.15,24.46,24.46,0,0,1,7.51,3.32l-2.39,5.78a23,23,0,0,0-6.85-3.14,26.85,26.85,0,0,0-7-1,19.31,19.31,0,0,0-7,1.08,8.58,8.58,0,0,0-4,2.89,6.85,6.85,0,0,0-1.27,4,5.54,5.54,0,0,0,1.7,4.26,12.25,12.25,0,0,0,4.4,2.53,59.75,59.75,0,0,0,6,1.7c2.16.5,4.34,1.07,6.53,1.69a28,28,0,0,1,6,2.46,12.3,12.3,0,0,1,4.37,4,11.66,11.66,0,0,1,1.66,6.49,13,13,0,0,1-2.09,7.12,14.45,14.45,0,0,1-6.47,5.26A26.52,26.52,0,0,1,79.48,1447Z" transform="translate(1493.01 -1207.29)"/><path class="cls-1" d="M159.74,1447a29,29,0,0,1-10.72-2,25.63,25.63,0,0,1-8.55-5.45,25.06,25.06,0,0,1-5.63-8.19,27,27,0,0,1,0-20.5,25.06,25.06,0,0,1,5.63-8.19,25.45,25.45,0,0,1,8.52-5.45,28.83,28.83,0,0,1,10.75-2,29.14,29.14,0,0,1,10.69,1.91,25.31,25.31,0,0,1,8.51,5.41,24.75,24.75,0,0,1,5.6,8.23,27.81,27.81,0,0,1,0,20.61,24.68,24.68,0,0,1-5.6,8.19,25.18,25.18,0,0,1-8.51,5.42A29.34,29.34,0,0,1,159.74,1447Zm0-6.42a20.57,20.57,0,0,0,7.76-1.45,18.21,18.21,0,0,0,6.21-4.11,19.23,19.23,0,0,0,4.11-6.21,19.57,19.57,0,0,0,1.48-7.65,19.79,19.79,0,0,0-1.48-7.73,19,19,0,0,0-4.11-6.17,18.73,18.73,0,0,0-6.21-4.08,21.82,21.82,0,0,0-15.59,0,19.07,19.07,0,0,0-6.24,4.08,18.74,18.74,0,0,0-4.15,6.17,19.79,19.79,0,0,0-1.48,7.73,19.57,19.57,0,0,0,1.48,7.65,19,19,0,0,0,4.15,6.21,18.53,18.53,0,0,0,6.24,4.11A20.75,20.75,0,0,0,159.74,1440.58ZM176.27,1457a18.7,18.7,0,0,1-4.83-.61,19,19,0,0,1-4.62-1.95,31.36,31.36,0,0,1-4.77-3.47,71,71,0,0,1-5.34-5.23l7.72-2a34.84,34.84,0,0,0,4.15,4.37,13.87,13.87,0,0,0,3.94,2.45,10.6,10.6,0,0,0,3.9.76,11.84,11.84,0,0,0,9.16-4.33L189,1451A15.75,15.75,0,0,1,176.27,1457Z" transform="translate(1493.01 -1207.29)"/><path class="cls-1" d="M222.47,1447q-10,0-15.66-5.7t-5.71-16.68v-28.73h7.22v28.44q0,8.45,3.72,12.35t10.5,3.9q6.86,0,10.58-3.9t3.71-12.35v-28.44h7v28.73q0,11-5.67,16.68T222.47,1447Z" transform="translate(1493.01 -1207.29)"/><path class="cls-1" d="M269.82,1440.14h29.45v6.28H262.6v-50.53h35.66v6.28H269.82Zm-.65-22.45h26v6.14h-26Z" transform="translate(1493.01 -1207.29)"/><path class="cls-1" d="M338.32,1446.42v-50.53h5.92l33.42,41.51h-3.1v-41.51h7.22v50.53h-5.92l-33.42-41.5h3.1v41.5Z" transform="translate(1493.01 -1207.29)"/><path class="cls-1" d="M393.25,1446.42l22.89-50.53h7.14l23,50.53h-7.58l-20.43-46.48h2.89l-20.43,46.48Zm9.75-12.63L405,1428h28.44l2.09,5.77Zm21.8-42.23a6.36,6.36,0,0,1-3.07-.72,12.35,12.35,0,0,1-2.42-1.7,25.88,25.88,0,0,0-2.09-1.69,3.49,3.49,0,0,0-2-.72,3.14,3.14,0,0,0-2.57,1.19,5.7,5.7,0,0,0-1.12,3.28h-3.89a10.72,10.72,0,0,1,2-6.42,6.08,6.08,0,0,1,5.05-2.38,6.39,6.39,0,0,1,3.11.75,13.47,13.47,0,0,1,2.45,1.74c.72.65,1.41,1.21,2.06,1.69a3.32,3.32,0,0,0,4.58-.43A5,5,0,0,0,428,1383h3.9a10,10,0,0,1-2,6.21A6.21,6.21,0,0,1,424.8,1391.56Z" transform="translate(1493.01 -1207.29)"/><path class="cls-1" d="M479.8,1447a29,29,0,0,1-10.72-2,25.43,25.43,0,0,1-8.55-5.45,24.91,24.91,0,0,1-5.63-8.19,27,27,0,0,1,0-20.5,24.91,24.91,0,0,1,5.63-8.19,25.4,25.4,0,0,1,8.51-5.45,30.74,30.74,0,0,1,21.44,0,25.35,25.35,0,0,1,8.52,5.41,24.75,24.75,0,0,1,5.6,8.23,27.81,27.81,0,0,1,0,20.61,24.68,24.68,0,0,1-5.6,8.19,25.22,25.22,0,0,1-8.52,5.42A29.25,29.25,0,0,1,479.8,1447Zm0-6.42a20.57,20.57,0,0,0,7.76-1.45,18.43,18.43,0,0,0,6.21-4.08,19.05,19.05,0,0,0,4.11-6.17,19.74,19.74,0,0,0,1.48-7.72,19.3,19.3,0,0,0-5.59-13.86,18.38,18.38,0,0,0-6.21-4.12,21.82,21.82,0,0,0-15.59,0,18.75,18.75,0,0,0-6.25,4.12,19.33,19.33,0,0,0-4.15,6.17,19.7,19.7,0,0,0-1.48,7.69,19.92,19.92,0,0,0,1.48,7.72,18.73,18.73,0,0,0,10.4,10.25A20.75,20.75,0,0,0,479.8,1440.58Z" transform="translate(1493.01 -1207.29)"/><path class="cls-1" d="M537.33,1446.42l22.88-50.53h7.15l22.95,50.53h-7.58l-20.43-46.48h2.89l-20.43,46.48Zm9.74-12.63L549,1428h28.44l2.1,5.77Z" transform="translate(1493.01 -1207.29)"/><path class="cls-1" d="M601.79,1446.42v-50.53h21.29a30.73,30.73,0,0,1,14.26,3.18,23.55,23.55,0,0,1,9.6,8.88,27.15,27.15,0,0,1,0,26.42,23.55,23.55,0,0,1-9.6,8.88,30.85,30.85,0,0,1-14.26,3.17Zm7.22-6.28h13.64a23.2,23.2,0,0,0,10.86-2.38,17.25,17.25,0,0,0,7.11-6.68,20.79,20.79,0,0,0,0-19.88,17.28,17.28,0,0,0-7.11-6.64,23.2,23.2,0,0,0-10.86-2.39H609Z" transform="translate(1493.01 -1207.29)"/><path class="cls-1" d="M665.38,1446.42v-50.53h7.22v50.53Z" transform="translate(1493.01 -1207.29)"/><path class="cls-1" d="M684.08,1446.42,707,1395.89h7.14l23,50.53h-7.58l-20.43-46.48h2.89l-20.43,46.48Zm9.74-12.63,1.95-5.77h28.44l2.09,5.77Z" transform="translate(1493.01 -1207.29)"/><path class="cls-1" d="M748.53,1446.42v-50.53h5.92l33.42,41.51h-3.1v-41.51H792v50.53h-5.92l-33.42-41.5h3.1v41.5Z" transform="translate(1493.01 -1207.29)"/><path class="cls-1" d="M821.15,1446.42v-44.25H803.83v-6.28h41.79v6.28H828.3v44.25Z" transform="translate(1493.01 -1207.29)"/><path class="cls-1" d="M847.28,1446.42l22.88-50.53h7.15l23,50.53h-7.58l-20.42-46.48h2.88l-20.42,46.48Zm9.75-12.63L859,1428h28.44l2.1,5.77Z" transform="translate(1493.01 -1207.29)"/><path class="cls-1" d="M949.71,1446.42l-22.24-50.53h7.8l20.43,46.63h-4.48l20.58-46.63H979l-22.16,50.53Z" transform="translate(1493.01 -1207.29)"/><path class="cls-1" d="M996.63,1440.14h29.45v6.28H989.41v-50.53h35.66v6.28H996.63Zm-.65-22.45h26v6.14H996Z" transform="translate(1493.01 -1207.29)"/><path class="cls-1" d="M1056.47,1447a34.43,34.43,0,0,1-11-1.77,22.74,22.74,0,0,1-8.3-4.58l2.67-5.63a23.35,23.35,0,0,0,7.36,4.18,26.53,26.53,0,0,0,9.32,1.66,20.88,20.88,0,0,0,7.14-1,8.4,8.4,0,0,0,4-2.78,6.54,6.54,0,0,0,1.3-4,5.48,5.48,0,0,0-1.69-4.19,12.55,12.55,0,0,0-4.41-2.56,48.64,48.64,0,0,0-5.95-1.7q-3.26-.72-6.53-1.69a29.49,29.49,0,0,1-6-2.49,12.2,12.2,0,0,1-4.36-4.08,11.93,11.93,0,0,1-1.66-6.61,13.27,13.27,0,0,1,2.05-7.18,14.36,14.36,0,0,1,6.36-5.27,26.15,26.15,0,0,1,10.93-2,33.79,33.79,0,0,1,8.74,1.15,24.4,24.4,0,0,1,7.5,3.32l-2.38,5.78a23,23,0,0,0-6.86-3.14,26.78,26.78,0,0,0-7-1,19.31,19.31,0,0,0-7,1.08,8.66,8.66,0,0,0-4,2.89,6.91,6.91,0,0,0-1.26,4,5.54,5.54,0,0,0,1.7,4.26,12.25,12.25,0,0,0,4.4,2.53,59.75,59.75,0,0,0,6,1.7c2.16.5,4.34,1.07,6.53,1.69a28.26,28.26,0,0,1,6,2.46,12.38,12.38,0,0,1,4.37,4,11.66,11.66,0,0,1,1.66,6.49,13,13,0,0,1-2.1,7.12,14.42,14.42,0,0,1-6.46,5.26A26.52,26.52,0,0,1,1056.47,1447Z" transform="translate(1493.01 -1207.29)"/><path class="cls-1" d="M1099.85,1446.42v-44.25h-17.33v-6.28h41.8v6.28H1107v44.25Z" transform="translate(1493.01 -1207.29)"/><path class="cls-1" d="M1136.15,1446.42v-50.53h7.22v50.53Z" transform="translate(1493.01 -1207.29)"/><path class="cls-1" d="M1162.5,1446.42v-50.53h19.71a27.65,27.65,0,0,1,11.33,2.1,16,16,0,0,1,7.22,6.06,18.94,18.94,0,0,1,0,18.88,16.12,16.12,0,0,1-7.22,6,27.65,27.65,0,0,1-11.33,2.1h-15.74l3.25-3.32v18.69Zm7.22-18-3.25-3.54H1182q6.93,0,10.5-3a11.63,11.63,0,0,0,0-16.79q-3.57-3-10.5-3h-15.52l3.25-3.61Zm26.56,18-12.85-18.33h7.73l13,18.33Z" transform="translate(1493.01 -1207.29)"/><path class="cls-1" d="M1234.68,1446.42l22.88-50.53h7.15l23,50.53h-7.57l-20.43-46.48h2.88l-20.42,46.48Zm9.75-12.63,2-5.77h28.44l2.09,5.77Z" transform="translate(1493.01 -1207.29)"/><path class="cls-1" d="M1299.14,1446.42v-50.53h7.22v44.25h27.36v6.28Z" transform="translate(1493.01 -1207.29)"/><path class="cls-1" d="M1367.86,1447a29.53,29.53,0,0,1-10.76-1.91,25.18,25.18,0,0,1-8.51-5.42,24.91,24.91,0,0,1-5.63-8.19,27.37,27.37,0,0,1,0-20.64,24.84,24.84,0,0,1,5.66-8.2,25.72,25.72,0,0,1,8.56-5.41,29.46,29.46,0,0,1,10.82-1.91,29.87,29.87,0,0,1,11,2,21.56,21.56,0,0,1,8.44,5.84l-4.47,4.48a20,20,0,0,0-6.75-4.44,21.75,21.75,0,0,0-7.91-1.41,22.13,22.13,0,0,0-8,1.44,19.22,19.22,0,0,0-6.42,4,18.1,18.1,0,0,0-4.19,6.17,20.9,20.9,0,0,0,0,15.45,18.42,18.42,0,0,0,4.19,6.2,18.8,18.8,0,0,0,6.39,4.08,21.77,21.77,0,0,0,8,1.45,24,24,0,0,0,7.76-1.27,19,19,0,0,0,6.89-4.22l4.12,5.49a25.9,25.9,0,0,1-8.77,4.8A33.54,33.54,0,0,1,1367.86,1447Zm12.2-7.36v-18.77H1387v19.71Z" transform="translate(1493.01 -1207.29)"/><path class="cls-1" d="M1427.55,1447a28.88,28.88,0,0,1-10.71-2,25.58,25.58,0,0,1-8.56-5.45,25.06,25.06,0,0,1-5.63-8.19,27,27,0,0,1,0-20.5,25.06,25.06,0,0,1,5.63-8.19,25.55,25.55,0,0,1,8.52-5.45,30.74,30.74,0,0,1,21.44,0,25.45,25.45,0,0,1,8.52,5.41,24.72,24.72,0,0,1,5.59,8.23,27.81,27.81,0,0,1,0,20.61,24.66,24.66,0,0,1-5.59,8.19,25.32,25.32,0,0,1-8.52,5.42A29.34,29.34,0,0,1,1427.55,1447Zm0-6.42a20.57,20.57,0,0,0,7.76-1.45,18.33,18.33,0,0,0,6.21-4.08,18.92,18.92,0,0,0,4.12-6.17,19.92,19.92,0,0,0,1.48-7.72,19.26,19.26,0,0,0-5.6-13.86,18.28,18.28,0,0,0-6.21-4.12,21.82,21.82,0,0,0-15.59,0,18.7,18.7,0,0,0-6.24,4.12,19.17,19.17,0,0,0-4.15,6.17,19.52,19.52,0,0,0-1.48,7.69,19.74,19.74,0,0,0,1.48,7.72,18.54,18.54,0,0,0,4.15,6.17,18.75,18.75,0,0,0,6.24,4.08A20.75,20.75,0,0,0,1427.55,1440.58Z" transform="translate(1493.01 -1207.29)"/><path class="cls-1" d="M1507.46,1447a34.41,34.41,0,0,1-11-1.77,22.66,22.66,0,0,1-8.3-4.58l2.67-5.63a23.24,23.24,0,0,0,7.36,4.18,26.48,26.48,0,0,0,9.31,1.66,20.91,20.91,0,0,0,7.15-1,8.5,8.5,0,0,0,4-2.78,6.6,6.6,0,0,0,1.3-4,5.49,5.49,0,0,0-1.7-4.19,12.59,12.59,0,0,0-4.4-2.56,48.81,48.81,0,0,0-6-1.7q-3.24-.72-6.53-1.69a29.17,29.17,0,0,1-6-2.49,12.31,12.31,0,0,1-4.37-4.08,12,12,0,0,1-1.66-6.61,13.27,13.27,0,0,1,2.06-7.18,14.33,14.33,0,0,1,6.35-5.27,26.2,26.2,0,0,1,10.94-2,33.77,33.77,0,0,1,8.73,1.15,24.46,24.46,0,0,1,7.51,3.32l-2.38,5.78a23.09,23.09,0,0,0-6.86-3.14,26.83,26.83,0,0,0-7-1,19.28,19.28,0,0,0-7,1.08,8.61,8.61,0,0,0-4,2.89,6.91,6.91,0,0,0-1.26,4,5.53,5.53,0,0,0,1.69,4.26,12.21,12.21,0,0,0,4.41,2.53,59.52,59.52,0,0,0,6,1.7c2.17.5,4.34,1.07,6.53,1.69a28,28,0,0,1,6,2.46,12.3,12.3,0,0,1,4.37,4,11.58,11.58,0,0,1,1.66,6.49,13,13,0,0,1-2.09,7.12,14.47,14.47,0,0,1-6.46,5.26A26.54,26.54,0,0,1,1507.46,1447Z" transform="translate(1493.01 -1207.29)"/><path class="cls-1" d="M1564.34,1447a29,29,0,0,1-10.72-2,25.43,25.43,0,0,1-8.55-5.45,24.91,24.91,0,0,1-5.63-8.19,27,27,0,0,1,0-20.5,24.91,24.91,0,0,1,5.63-8.19,25.4,25.4,0,0,1,8.51-5.45,30.74,30.74,0,0,1,21.44,0,25.45,25.45,0,0,1,8.52,5.41,24.57,24.57,0,0,1,5.59,8.23,27.68,27.68,0,0,1,0,20.61,24.51,24.51,0,0,1-5.59,8.19,25.32,25.32,0,0,1-8.52,5.42A29.25,29.25,0,0,1,1564.34,1447Zm0-6.42a20.57,20.57,0,0,0,7.76-1.45,18.43,18.43,0,0,0,6.21-4.08,19.05,19.05,0,0,0,4.11-6.17,19.74,19.74,0,0,0,1.48-7.72,19.3,19.3,0,0,0-5.59-13.86,18.38,18.38,0,0,0-6.21-4.12,21.82,21.82,0,0,0-15.59,0,18.75,18.75,0,0,0-6.25,4.12,19.33,19.33,0,0,0-4.15,6.17,19.7,19.7,0,0,0-1.48,7.69,19.92,19.92,0,0,0,1.48,7.72,18.73,18.73,0,0,0,10.4,10.25A20.75,20.75,0,0,0,1564.34,1440.58Zm-5.41-48.8,9.81-9.38h8.81l-12.13,9.38Z" transform="translate(1493.01 -1207.29)"/><path class="cls-1" d="M-618.56,1526.72v-50.53h19.71a27.82,27.82,0,0,1,11.33,2.09,16.13,16.13,0,0,1,7.22,6.06,17.29,17.29,0,0,1,2.52,9.46,17.08,17.08,0,0,1-2.52,9.42,16.39,16.39,0,0,1-7.22,6.06,27.31,27.31,0,0,1-11.33,2.13h-15.74l3.25-3.39v18.7Zm7.22-18-3.25-3.61h15.52q6.93,0,10.5-3a10.26,10.26,0,0,0,3.58-8.37,10.26,10.26,0,0,0-3.58-8.37q-3.57-3-10.5-3h-15.52l3.25-3.61Z" transform="translate(1493.01 -1207.29)"/><path class="cls-1" d="M-539.66,1527.29a28.9,28.9,0,0,1-10.72-2,25.58,25.58,0,0,1-8.56-5.45,25.22,25.22,0,0,1-5.63-8.19,25.58,25.58,0,0,1-2-10.25,25.61,25.61,0,0,1,2-10.25,25.22,25.22,0,0,1,5.63-8.19,25.7,25.7,0,0,1,8.52-5.45,28.89,28.89,0,0,1,10.76-2,29.29,29.29,0,0,1,10.68,1.91,25.32,25.32,0,0,1,8.52,5.42,24.52,24.52,0,0,1,5.59,8.23,26.35,26.35,0,0,1,2,10.28,26.26,26.26,0,0,1-2,10.32,24.8,24.8,0,0,1-5.59,8.2,25.29,25.29,0,0,1-8.52,5.41A29.08,29.08,0,0,1-539.66,1527.29Zm0-6.42a20.41,20.41,0,0,0,7.76-1.45,18.41,18.41,0,0,0,6.2-4.07,19.07,19.07,0,0,0,4.12-6.18,19.89,19.89,0,0,0,1.48-7.72,19.7,19.7,0,0,0-1.48-7.69,19.58,19.58,0,0,0-4.12-6.17,18.07,18.07,0,0,0-6.2-4.11,20.61,20.61,0,0,0-7.76-1.45,20.84,20.84,0,0,0-7.84,1.45,18.53,18.53,0,0,0-6.24,4.11,19.17,19.17,0,0,0-4.15,6.17,19.52,19.52,0,0,0-1.48,7.69,19.71,19.71,0,0,0,1.48,7.72,18.68,18.68,0,0,0,4.15,6.18,18.88,18.88,0,0,0,6.24,4.07A20.64,20.64,0,0,0-539.66,1520.87Z" transform="translate(1493.01 -1207.29)"/><path class="cls-1" d="M-497.87,1526.72v-50.53h19.7a27.84,27.84,0,0,1,11.34,2.09,16.19,16.19,0,0,1,7.22,6.06,17.29,17.29,0,0,1,2.52,9.46,17.08,17.08,0,0,1-2.52,9.42,16.26,16.26,0,0,1-7.22,6,27.84,27.84,0,0,1-11.34,2.09H-493.9l3.25-3.32v18.7Zm7.22-18-3.25-3.54h15.52q6.93,0,10.5-3a10.38,10.38,0,0,0,3.57-8.41q0-5.41-3.57-8.37t-10.5-3H-493.9l3.25-3.61Zm26.56,18-12.85-18.34h7.73l13,18.34Z" transform="translate(1493.01 -1207.29)"/><path class="cls-1" d="M-418.62,1527.29a28.88,28.88,0,0,1-10.71-2,25.58,25.58,0,0,1-8.56-5.45,25.06,25.06,0,0,1-5.63-8.19,25.58,25.58,0,0,1-2-10.25,25.61,25.61,0,0,1,2-10.25,25.06,25.06,0,0,1,5.63-8.19,25.7,25.7,0,0,1,8.52-5.45,28.87,28.87,0,0,1,10.75-2,29.34,29.34,0,0,1,10.69,1.91,25.32,25.32,0,0,1,8.52,5.42,24.52,24.52,0,0,1,5.59,8.23,26.34,26.34,0,0,1,2,10.28,26.26,26.26,0,0,1-2,10.32,24.8,24.8,0,0,1-5.59,8.2,25.29,25.29,0,0,1-8.52,5.41A29.14,29.14,0,0,1-418.62,1527.29Zm0-6.42a20.38,20.38,0,0,0,7.76-1.45,18.11,18.11,0,0,0,6.21-4.11,19.42,19.42,0,0,0,4.12-6.21,19.72,19.72,0,0,0,1.48-7.65,19.92,19.92,0,0,0-1.48-7.72,18.92,18.92,0,0,0-4.12-6.17,18.33,18.33,0,0,0-6.21-4.08,20.57,20.57,0,0,0-7.76-1.45,20.75,20.75,0,0,0-7.83,1.45,18.75,18.75,0,0,0-6.24,4.08,18.54,18.54,0,0,0-4.15,6.17,19.74,19.74,0,0,0-1.48,7.72,19.54,19.54,0,0,0,1.48,7.65,19,19,0,0,0,4.15,6.21,18.53,18.53,0,0,0,6.24,4.11A20.55,20.55,0,0,0-418.62,1520.87Zm16.53,16.38a18.7,18.7,0,0,1-4.83-.61,19,19,0,0,1-4.62-2,31.25,31.25,0,0,1-4.77-3.46,73.22,73.22,0,0,1-5.34-5.24l7.73-2a32.83,32.83,0,0,0,4.15,4.37,13.7,13.7,0,0,0,3.93,2.45,10.6,10.6,0,0,0,3.9.76,11.84,11.84,0,0,0,9.17-4.33l3.39,4.12A15.75,15.75,0,0,1-402.09,1537.25Z" transform="translate(1493.01 -1207.29)"/><path class="cls-1" d="M-355.89,1527.29q-10,0-15.66-5.7t-5.71-16.67v-28.73H-370v28.44q0,8.44,3.72,12.34t10.5,3.9q6.85,0,10.58-3.9t3.72-12.34v-28.44h7v28.73q0,11-5.67,16.67T-355.89,1527.29Z" transform="translate(1493.01 -1207.29)"/><path class="cls-1" d="M-308.54,1520.44h29.45v6.28h-36.67v-50.53h35.66v6.28h-28.44Zm-.65-22.45h26v6.13h-26Z" transform="translate(1493.01 -1207.29)"/><path class="cls-1" d="M-242.64,1495.68l-.43-19.49H-237l-.5,19.49Zm13.07,0-.43-19.49h6.06l-.5,19.49Z" transform="translate(1493.01 -1207.29)"/><path class="cls-1" d="M-218.6,1526.72l22.88-50.53h7.15l22.95,50.53h-7.58l-20.42-46.49h2.88l-20.42,46.49Zm9.75-12.64,1.95-5.77h28.44l2.09,5.77Z" transform="translate(1493.01 -1207.29)"/><path class="cls-1" d="M-154.14,1526.72v-50.53h7.22v44.25h27.36v6.28Z" transform="translate(1493.01 -1207.29)"/><path class="cls-1" d="M-85.42,1527.29a29.32,29.32,0,0,1-10.76-1.91,25.15,25.15,0,0,1-8.51-5.41,25.06,25.06,0,0,1-5.63-8.2,25.75,25.75,0,0,1-2-10.32,25.78,25.78,0,0,1,2-10.32,24.7,24.7,0,0,1,5.66-8.19,25.59,25.59,0,0,1,8.56-5.42,29.66,29.66,0,0,1,10.82-1.91,29.87,29.87,0,0,1,11,2,21.69,21.69,0,0,1,8.44,5.85l-4.47,4.47a20,20,0,0,0-6.75-4.44A21.75,21.75,0,0,0-85,1482a22.14,22.14,0,0,0-8.05,1.45,19.2,19.2,0,0,0-6.42,4,18.1,18.1,0,0,0-4.19,6.17,20.2,20.2,0,0,0-1.48,7.76,20,20,0,0,0,1.48,7.69,18.56,18.56,0,0,0,4.19,6.21,18.93,18.93,0,0,0,6.39,4.07,21.57,21.57,0,0,0,8,1.45,24,24,0,0,0,7.76-1.26,19,19,0,0,0,6.89-4.23l4.12,5.49a25.66,25.66,0,0,1-8.77,4.8A33.54,33.54,0,0,1-85.42,1527.29Zm12.2-7.36v-18.77h6.93v19.71Z" transform="translate(1493.01 -1207.29)"/><path class="cls-1" d="M-27.6,1527.29q-10,0-15.67-5.7t-5.7-16.67v-28.73h7.22v28.44q0,8.44,3.72,12.34c2.47,2.6,6,3.9,10.5,3.9s8.1-1.3,10.57-3.9,3.72-6.71,3.72-12.34v-28.44h7v28.73q0,11-5.66,16.67T-27.6,1527.29Z" transform="translate(1493.01 -1207.29)"/><path class="cls-1" d="M19.75,1520.44H49.2v6.28H12.53v-50.53H48.19v6.28H19.75ZM19.1,1498h26v6.13h-26ZM25,1472.07l9.81-9.38h8.81l-12.13,9.38Z" transform="translate(1493.01 -1207.29)"/><path class="cls-1" d="M64.86,1526.72v-50.53h5.92l22.67,38.18H90.27l22.38-38.18h5.92l.07,50.53h-6.93l-.07-39.63h1.66l-19.93,33.49H90.05L70,1487.09h1.8v39.63Z" transform="translate(1493.01 -1207.29)"/><path class="cls-1" d="M135.17,1495.68l-.44-19.49h6.07l-.51,19.49Zm13.06,0-.43-19.49h6.06l-.5,19.49Z" transform="translate(1493.01 -1207.29)"/><path class="cls-1" d="M200.56,1520.44H230v6.28H193.35v-50.53H229v6.28H200.56Zm-.65-22.45h26v6.13h-26Z" transform="translate(1493.01 -1207.29)"/><path class="cls-1" d="M260.4,1527.29a34.41,34.41,0,0,1-11-1.77,22.45,22.45,0,0,1-8.3-4.58l2.67-5.63a23.37,23.37,0,0,0,7.36,4.19,26.75,26.75,0,0,0,9.31,1.66,21.16,21.16,0,0,0,7.15-1,8.47,8.47,0,0,0,4-2.78,6.59,6.59,0,0,0,1.3-4,5.48,5.48,0,0,0-1.69-4.19,12.79,12.79,0,0,0-4.41-2.56,48.68,48.68,0,0,0-6-1.69q-3.25-.72-6.54-1.7a29.4,29.4,0,0,1-6-2.49,12.2,12.2,0,0,1-4.36-4.08,11.92,11.92,0,0,1-1.66-6.6,13.3,13.3,0,0,1,2.05-7.19,14.31,14.31,0,0,1,6.36-5.27,26.15,26.15,0,0,1,10.93-2,34.22,34.22,0,0,1,8.74,1.15,24.51,24.51,0,0,1,7.5,3.33l-2.38,5.77a23.34,23.34,0,0,0-6.86-3.14,26.75,26.75,0,0,0-7-1,19.31,19.31,0,0,0-7,1.08,8.48,8.48,0,0,0-4,2.89,6.89,6.89,0,0,0-1.26,4,5.57,5.57,0,0,0,1.7,4.26,12.09,12.09,0,0,0,4.4,2.52,59.52,59.52,0,0,0,6,1.7q3.25.75,6.54,1.7a27.73,27.73,0,0,1,6,2.45,12.47,12.47,0,0,1,4.37,4,11.7,11.7,0,0,1,1.66,6.5,13,13,0,0,1-2.1,7.11,14.43,14.43,0,0,1-6.46,5.27A26.71,26.71,0,0,1,260.4,1527.29Z" transform="translate(1493.01 -1207.29)"/><path class="cls-1" d="M303.79,1526.72v-44.25H286.46v-6.28h41.79v6.28H310.93v44.25Z" transform="translate(1493.01 -1207.29)"/><path class="cls-1" d="M329.92,1526.72l22.88-50.53h7.14l23,50.53h-7.58l-20.43-46.49h2.89l-20.43,46.49Zm9.74-12.64,1.95-5.77h28.44l2.09,5.77Zm11.33-42,9.82-9.38h8.81l-12.13,9.38Z" transform="translate(1493.01 -1207.29)"/><path class="cls-1" d="M438.69,1527.29q-10,0-15.66-5.7t-5.7-16.67v-28.73h7.22v28.44q0,8.44,3.71,12.34t10.51,3.9q6.86,0,10.57-3.9t3.72-12.34v-28.44h7v28.73q0,11-5.67,16.67T438.69,1527.29Z" transform="translate(1493.01 -1207.29)"/><path class="cls-1" d="M493.55,1527.29a34.41,34.41,0,0,1-11-1.77,22.37,22.37,0,0,1-8.3-4.58l2.67-5.63a23.37,23.37,0,0,0,7.36,4.19,26.71,26.71,0,0,0,9.31,1.66,21.16,21.16,0,0,0,7.15-1,8.52,8.52,0,0,0,4-2.78,6.59,6.59,0,0,0,1.3-4,5.49,5.49,0,0,0-1.7-4.19,12.65,12.65,0,0,0-4.4-2.56,48.68,48.68,0,0,0-5.95-1.69q-3.25-.72-6.54-1.7a29.4,29.4,0,0,1-6-2.49,12.31,12.31,0,0,1-4.37-4.08,12,12,0,0,1-1.66-6.6,13.31,13.31,0,0,1,2.06-7.19,14.33,14.33,0,0,1,6.35-5.27,26.23,26.23,0,0,1,10.94-2,34.15,34.15,0,0,1,8.73,1.15,24.47,24.47,0,0,1,7.51,3.33l-2.38,5.77a23.34,23.34,0,0,0-6.86-3.14,26.81,26.81,0,0,0-7-1,19.31,19.31,0,0,0-7,1.08,8.48,8.48,0,0,0-4,2.89,6.89,6.89,0,0,0-1.26,4,5.56,5.56,0,0,0,1.69,4.26,12.05,12.05,0,0,0,4.41,2.52,59.52,59.52,0,0,0,5.95,1.7q3.26.75,6.54,1.7a27.94,27.94,0,0,1,6,2.45,12.36,12.36,0,0,1,4.36,4,11.61,11.61,0,0,1,1.66,6.5A12.94,12.94,0,0,1,511,1520a14.49,14.49,0,0,1-6.46,5.27A26.71,26.71,0,0,1,493.55,1527.29Z" transform="translate(1493.01 -1207.29)"/><path class="cls-1" d="M520,1526.72l22.88-50.53H550l23,50.53h-7.58L545,1480.23h2.88l-20.42,46.49Zm9.75-12.64,1.94-5.77H560.1l2.1,5.77Z" transform="translate(1493.01 -1207.29)"/><path class="cls-1" d="M584.43,1526.72v-50.53h5.92l33.42,41.5h-3.1v-41.5h7.21v50.53H622l-33.42-41.51h3.11v41.51Z" transform="translate(1493.01 -1207.29)"/><path class="cls-1" d="M647,1526.72v-50.53h21.3a30.81,30.81,0,0,1,14.25,3.17,23.42,23.42,0,0,1,9.6,8.88,27.15,27.15,0,0,1,0,26.42,23.42,23.42,0,0,1-9.6,8.88,30.69,30.69,0,0,1-14.25,3.18Zm7.22-6.28h13.64a23.27,23.27,0,0,0,10.87-2.39,17.34,17.34,0,0,0,7.11-6.67,20.88,20.88,0,0,0,0-19.89,17.47,17.47,0,0,0-7.11-6.64,23.27,23.27,0,0,0-10.87-2.38H654.23Z" transform="translate(1493.01 -1207.29)"/><path class="cls-1" d="M733.41,1527.29a28.88,28.88,0,0,1-10.71-2,25.58,25.58,0,0,1-8.56-5.45,25.06,25.06,0,0,1-5.63-8.19,27,27,0,0,1,0-20.5,25.06,25.06,0,0,1,5.63-8.19,25.7,25.7,0,0,1,8.52-5.45,28.87,28.87,0,0,1,10.75-2,29.34,29.34,0,0,1,10.69,1.91,25.32,25.32,0,0,1,8.52,5.42,24.52,24.52,0,0,1,5.59,8.23,27.78,27.78,0,0,1,0,20.6,24.8,24.8,0,0,1-5.59,8.2,25.29,25.29,0,0,1-8.52,5.41A29.14,29.14,0,0,1,733.41,1527.29Zm0-6.42a20.38,20.38,0,0,0,7.76-1.45,18.45,18.45,0,0,0,6.21-4.07,19.07,19.07,0,0,0,4.12-6.18,20.8,20.8,0,0,0,0-15.41,19.58,19.58,0,0,0-4.12-6.17,18.11,18.11,0,0,0-6.21-4.11,21.68,21.68,0,0,0-15.59,0,18.53,18.53,0,0,0-6.24,4.11,19.17,19.17,0,0,0-4.15,6.17,20.8,20.8,0,0,0,0,15.41,18.68,18.68,0,0,0,4.15,6.18,18.88,18.88,0,0,0,6.24,4.07A20.55,20.55,0,0,0,733.41,1520.87Z" transform="translate(1493.01 -1207.29)"/><path class="cls-1" d="M774.41,1527.15a4.87,4.87,0,0,1-4.9-5,4.67,4.67,0,0,1,1.44-3.54,4.87,4.87,0,0,1,3.46-1.37,4.67,4.67,0,0,1,3.36,1.37,4.72,4.72,0,0,1,1.41,3.54,4.84,4.84,0,0,1-1.41,3.57A4.59,4.59,0,0,1,774.41,1527.15Zm16.75,0a4.88,4.88,0,0,1-4.91-5,4.64,4.64,0,0,1,1.45-3.54,4.85,4.85,0,0,1,3.46-1.37,4.67,4.67,0,0,1,3.36,1.37,4.72,4.72,0,0,1,1.41,3.54,4.84,4.84,0,0,1-1.41,3.57A4.59,4.59,0,0,1,791.16,1527.15Zm16.75,0a4.87,4.87,0,0,1-4.91-5,4.67,4.67,0,0,1,1.44-3.54,4.89,4.89,0,0,1,3.47-1.37,4.63,4.63,0,0,1,3.35,1.37,4.72,4.72,0,0,1,1.41,3.54,4.84,4.84,0,0,1-1.41,3.57A4.55,4.55,0,0,1,807.91,1527.15Z" transform="translate(1493.01 -1207.29)"/></g></g></g></svg>