<svg xmlns="http://www.w3.org/2000/svg" viewBox="0 0 963.61 541.53"><defs><style>.cls-1{fill:#fff;}</style></defs><title>3</title><g id="Camada_2" data-name="Camada 2"><g id="Camada_1-2" data-name="Camada 1"><g id="DESKTOP3"><rect width="963.61" height="541.53"/><path class="cls-1" d="M82.12,238.86V88.68h35l82.6,100H183.17v-100h41.62V238.86h-35L107,138.88h16.52v100Z"/><path class="cls-1" d="M337.85,241.86a93.14,93.14,0,0,1-33.15-5.79,76.8,76.8,0,0,1-44-41.3,76.07,76.07,0,0,1-6.33-31.21,74.85,74.85,0,0,1,6.33-30.9A77.3,77.3,0,0,1,304.6,91.47a98.37,98.37,0,0,1,66.5,0,78.82,78.82,0,0,1,26.39,16.31A76.36,76.36,0,0,1,415,132.45a75.36,75.36,0,0,1,6.33,31.11A77.92,77.92,0,0,1,415.09,195a74,74,0,0,1-17.49,24.78,80,80,0,0,1-26.5,16.3A92.79,92.79,0,0,1,337.85,241.86Zm0-35.18a42.12,42.12,0,0,0,16-3A37,37,0,0,0,366.71,195a41.4,41.4,0,0,0,8.58-13.52,51.92,51.92,0,0,0,0-35.4,41.36,41.36,0,0,0-8.58-13.51,36.9,36.9,0,0,0-12.88-8.69,43.92,43.92,0,0,0-32,0,37.86,37.86,0,0,0-13,8.69,38.89,38.89,0,0,0-8.58,13.51,53.55,53.55,0,0,0,0,35.4A38.94,38.94,0,0,0,308.89,195a38,38,0,0,0,13,8.69A42.12,42.12,0,0,0,337.85,206.68Z"/><path class="cls-1" d="M503.69,241.86A136,136,0,0,1,468,237.25q-17.06-4.6-27.57-11.69l14-31.54a98.35,98.35,0,0,0,23.27,10.62,86.57,86.57,0,0,0,26.28,4.19,53.51,53.51,0,0,0,14.27-1.51q5.25-1.5,7.73-4.29a9.69,9.69,0,0,0,2.46-6.65q0-4.94-4.72-7.83a47.19,47.19,0,0,0-12.33-4.93q-7.62-2-16.52-3.87a165.43,165.43,0,0,1-18.13-4.82A69.46,69.46,0,0,1,459.92,167a38.14,38.14,0,0,1-12.12-12.87q-4.62-7.94-4.61-20a42.81,42.81,0,0,1,7.29-24.24q7.29-10.94,22.1-17.59t36.9-6.65A128,128,0,0,1,538.55,89a85.76,85.76,0,0,1,25.21,10L550.89,130.3a91.83,91.83,0,0,0-21.24-8.79,79.32,79.32,0,0,0-20.38-2.79q-8.81,0-14.16,1.93t-7.73,4.93A10.27,10.27,0,0,0,485,132a9,9,0,0,0,4.73,8A42.29,42.29,0,0,0,502,144.78q7.51,1.83,16.63,3.76a184.49,184.49,0,0,1,18.13,4.83,72,72,0,0,1,16.63,7.72,38.09,38.09,0,0,1,12.33,12.66q4.72,7.83,4.72,19.63a42.42,42.42,0,0,1-7.4,24.13q-7.39,11.06-22.2,17.7T503.69,241.86Z"/><path class="cls-1" d="M649.79,241.86a136,136,0,0,1-35.72-4.61q-17.05-4.6-27.57-11.69l14-31.54a98.35,98.35,0,0,0,23.27,10.62A86.57,86.57,0,0,0,650,208.83a53.51,53.51,0,0,0,14.27-1.51q5.25-1.5,7.73-4.29a9.69,9.69,0,0,0,2.46-6.65q0-4.94-4.72-7.83a47.19,47.19,0,0,0-12.33-4.93q-7.62-2-16.52-3.87a165.43,165.43,0,0,1-18.13-4.82A69.46,69.46,0,0,1,606,167a38.14,38.14,0,0,1-12.12-12.87q-4.62-7.94-4.61-20a42.81,42.81,0,0,1,7.29-24.24q7.29-10.94,22.1-17.59t36.9-6.65A128,128,0,0,1,684.65,89a85.76,85.76,0,0,1,25.21,10L697,130.3a91.83,91.83,0,0,0-21.24-8.79,79.32,79.32,0,0,0-20.38-2.79q-8.8,0-14.16,1.93t-7.73,4.93a10.27,10.27,0,0,0-2.36,6.44,9,9,0,0,0,4.73,8,42.29,42.29,0,0,0,12.22,4.72q7.51,1.83,16.63,3.76a184.49,184.49,0,0,1,18.13,4.83,72,72,0,0,1,16.63,7.72,38,38,0,0,1,12.33,12.66q4.73,7.83,4.72,19.63a42.42,42.42,0,0,1-7.4,24.13q-7.4,11.06-22.2,17.7T649.79,241.86Z"/><path class="cls-1" d="M725.09,238.86,791.38,88.68h41.84l66.51,150.18h-44.2L803.61,109.49h16.74L768.43,238.86Zm36.26-29.39,10.94-31.11h73.37l11,31.11Z"/><path class="cls-1" d="M74.18,432.56V282.38h42.48V432.56Z"/><path class="cls-1" d="M146.91,432.56V282.38h35l82.6,100H248v-100h41.62V432.56h-35l-82.82-100h16.52v100Z"/><path class="cls-1" d="M372.39,435.56A136,136,0,0,1,336.67,431q-17.06-4.6-27.57-11.69l13.95-31.54a98.35,98.35,0,0,0,23.27,10.62,86.55,86.55,0,0,0,26.28,4.18,53.57,53.57,0,0,0,14.27-1.5q5.25-1.5,7.73-4.29a9.71,9.71,0,0,0,2.46-6.65q0-4.93-4.72-7.83A47.19,47.19,0,0,0,380,377.32q-7.62-2-16.52-3.87a165.43,165.43,0,0,1-18.13-4.82,69.46,69.46,0,0,1-16.74-7.94,38.14,38.14,0,0,1-12.12-12.87q-4.62-7.94-4.61-20a42.81,42.81,0,0,1,7.29-24.24q7.29-10.94,22.1-17.59t36.9-6.65a128,128,0,0,1,29.07,3.32,85.76,85.76,0,0,1,25.21,10L419.59,324a91.83,91.83,0,0,0-21.24-8.79A79.32,79.32,0,0,0,378,312.42q-8.81,0-14.16,1.93t-7.73,4.93a10.26,10.26,0,0,0-2.35,6.44,9,9,0,0,0,4.72,8,42.58,42.58,0,0,0,12.22,4.72q7.51,1.83,16.63,3.76a181.73,181.73,0,0,1,18.13,4.83,72,72,0,0,1,16.63,7.72,38,38,0,0,1,12.33,12.66q4.73,7.83,4.72,19.63a42.42,42.42,0,0,1-7.4,24.13q-7.4,11.06-22.2,17.7T372.39,435.56Z"/><path class="cls-1" d="M458.63,432.56V282.38h68.44q20.59,0,35.62,6.65t23.06,19.2q8,12.56,8,29.5,0,17.38-8,29.72t-23.06,19.09q-15,6.76-35.62,6.76H482l19.09-18.67v57.93Zm42.48-53L482,359.62H524.5q13.29,0,20-5.69t6.65-16.2q0-10.08-6.65-16t-20-5.9H482l19.09-19.52Z"/><path class="cls-1" d="M692.27,435.56a93.14,93.14,0,0,1-33.15-5.79,76.8,76.8,0,0,1-44-41.3,76.07,76.07,0,0,1-6.33-31.21,74.85,74.85,0,0,1,6.33-30.9A77.3,77.3,0,0,1,659,285.17a98.37,98.37,0,0,1,66.5,0,78.82,78.82,0,0,1,26.39,16.31,75,75,0,0,1,23.82,55.78,77.76,77.76,0,0,1-6.23,31.43A74,74,0,0,1,752,413.47a80,80,0,0,1-26.5,16.3A92.83,92.83,0,0,1,692.27,435.56Zm0-35.18a42.12,42.12,0,0,0,16-3,36.91,36.91,0,0,0,12.87-8.69,41.26,41.26,0,0,0,8.59-13.52,51.92,51.92,0,0,0,0-35.4,41.22,41.22,0,0,0-8.59-13.51,36.77,36.77,0,0,0-12.87-8.69,43.92,43.92,0,0,0-32,0,37.86,37.86,0,0,0-13,8.69,38.92,38.92,0,0,0-8.59,13.51,53.72,53.72,0,0,0,0,35.4,39,39,0,0,0,8.59,13.52,38,38,0,0,0,13,8.69A42.12,42.12,0,0,0,692.27,400.38Z"/><path class="cls-1" d="M822.07,377.85a32,32,0,0,1,2.25-12.44,42.49,42.49,0,0,1,5.68-9.76,67,67,0,0,1,7.41-8q4-3.64,7.4-6.86a35.6,35.6,0,0,0,5.68-6.76,13.6,13.6,0,0,0,2.25-7.4,11.69,11.69,0,0,0-5.25-10q-5.26-3.75-13.62-3.75a30.32,30.32,0,0,0-15.56,4.07,31.76,31.76,0,0,0-11.26,11.16l-32-16.95a63.3,63.3,0,0,1,24.24-23.06q15.66-8.7,39.69-8.69,16.53,0,29.18,4.61t19.95,13.62q7.29,9,7.3,22.1A39.55,39.55,0,0,1,893,334.3a36.52,36.52,0,0,1-6.65,10.94,120.9,120.9,0,0,1-8.47,8.69q-4.3,4-8.48,7.62a35,35,0,0,0-6.65,7.51,16,16,0,0,0-2.47,8.79Zm19.09,56.64q-10.73,0-17.49-6.65A21.5,21.5,0,0,1,816.92,412a20.72,20.72,0,0,1,6.75-15.76q6.76-6.33,17.49-6.33,10.94,0,17.7,6.33A20.72,20.72,0,0,1,865.62,412a21.51,21.51,0,0,1-6.76,15.88Q852.1,434.5,841.16,434.49Z"/></g></g></g></svg>