<svg xmlns="http://www.w3.org/2000/svg" viewBox="0 0 3295.26 388.38"><defs><style>.cls-1{fill:#fff;}.cls-2{fill:#211915;}</style></defs><title>2</title><g id="Camada_2" data-name="Camada 2"><g id="Camada_1-2" data-name="Camada 1"><g id="DESKTOP2"><path class="cls-1" d="M-8316-2679.17q-15.28,0-26.95-5.84a41.25,41.25,0,0,1-18.18-18q-6.52-12.12-6.51-30.54v-68.26h35v62.87q0,15.27,6.39,22.34t18.08,7.08a28.49,28.49,0,0,0,14.37-3.59,25.47,25.47,0,0,0,10-10.78q3.7-7.18,3.71-18v-60h34.8V-2681h-33.23v-33.46l6.06,9.88a42.78,42.78,0,0,1-18,19A52.37,52.37,0,0,1-8316-2679.17Z" transform="translate(8367.68 2820.72)"/><path class="cls-1" d="M-8058-2803.54a54.85,54.85,0,0,1,25.49,5.73,40.55,40.55,0,0,1,17.4,17.52q6.29,11.79,6.28,30.2v69.16h-35v-63.77q0-14.6-5.95-21.55t-16.72-7a27.49,27.49,0,0,0-13.93,3.48,22.87,22.87,0,0,0-9.32,10.33q-3.25,6.86-3.25,17.85v60.63h-35v-63.78q0-14.58-5.95-21.55t-17.18-7a27,27,0,0,0-13.7,3.48,23.6,23.6,0,0,0-9.43,10.33q-3.36,6.85-3.37,17.85v60.63h-35v-120.81h33.46V-2769l-6.28-9.43a41.75,41.75,0,0,1,17.74-18.75,53.69,53.69,0,0,1,26.27-6.4q16.62,0,29.19,8.42t16.61,25.72l-12.34-3.37a49.32,49.32,0,0,1,19.31-22.34Q-8075.54-2803.53-8058-2803.54Z" transform="translate(8367.68 2820.72)"/><path class="cls-1" d="M-7939.93-2679.13q-13.92,0-24-4.83a37.63,37.63,0,0,1-15.6-13.14,33,33,0,0,1-5.5-18.63,33.84,33.84,0,0,1,5.28-18.75q5.26-8.2,16.73-12.69t30.09-4.49h31.88v20.21h-28.29q-12.36,0-16.95,4a12.88,12.88,0,0,0-4.61,10.11,12.57,12.57,0,0,0,5.28,10.66q5.26,3.94,14.25,3.94a31.85,31.85,0,0,0,16.06-4,22,22,0,0,0,10-12.35l5.39,16.39a31.8,31.8,0,0,1-13.92,17.4Q-7924-2679.12-7939.93-2679.13Zm36.83-1.79v-23.58l-2.25-5.16v-42.22q0-11.22-6.85-17.51t-21-6.29a61,61,0,0,0-19,3,53.19,53.19,0,0,0-16.05,8.19l-12.35-24.48a71.29,71.29,0,0,1,23.8-10.88,109.09,109.09,0,0,1,28.29-3.7q27.63,0,42.89,13t15.27,40.65v68.93Z" transform="translate(8367.68 2820.72)"/><path class="cls-1" d="M-7620.39-2803.49a54.81,54.81,0,0,1,25.48,5.73,40.53,40.53,0,0,1,17.4,17.51q6.29,11.79,6.29,30.21v69.16h-35v-63.77q0-14.6-5.95-21.56t-16.73-7a27.45,27.45,0,0,0-13.92,3.48,22.82,22.82,0,0,0-9.32,10.33q-3.26,6.85-3.26,17.85v60.63h-35v-63.77q0-14.6-5.95-21.56t-17.17-7a27,27,0,0,0-13.7,3.48,23.49,23.49,0,0,0-9.43,10.33q-3.37,6.86-3.37,17.85v60.63h-35l0-120.8h33.45v32.79l-6.29-9.44a41.78,41.78,0,0,1,17.74-18.74,53.73,53.73,0,0,1,26.28-6.4q16.6,0,29.19,8.42t16.61,25.72l-12.35-3.37a49.38,49.38,0,0,1,19.31-22.34Q-7637.91-2803.5-7620.39-2803.49Z" transform="translate(8367.68 2820.72)"/><path class="cls-1" d="M-7502.3-2679.08q-13.92,0-24-4.83a37.66,37.66,0,0,1-15.61-13.14,33,33,0,0,1-5.5-18.64,33.83,33.83,0,0,1,5.28-18.74q5.28-8.21,16.73-12.69t30.09-4.49h31.89v20.21h-28.3q-12.35,0-16.95,4a12.89,12.89,0,0,0-4.6,10.11,12.55,12.55,0,0,0,5.27,10.66q5.28,3.93,14.26,3.93a31.71,31.71,0,0,0,16.05-4,22.07,22.07,0,0,0,10-12.34l5.39,16.39a31.84,31.84,0,0,1-13.93,17.4Q-7486.36-2679.07-7502.3-2679.08Zm36.83-1.79v-23.58l-2.24-5.16v-42.22q0-11.22-6.85-17.51t-21-6.29a61,61,0,0,0-19,3,53.13,53.13,0,0,0-16.06,8.19l-12.35-24.48a71,71,0,0,1,23.81-10.88,109.53,109.53,0,0,1,28.29-3.71q27.61,0,42.89,13t15.26,40.65v68.93Z" transform="translate(8367.68 2820.72)"/><path class="cls-1" d="M-7401-2680.86l0-120.81h33.45v34.36l-4.72-10.11a38.86,38.86,0,0,1,17.3-19.42q11.89-6.61,29-6.62v32.56a39.42,39.42,0,0,0-3.93-.67,31.66,31.66,0,0,0-3.7-.23q-14.82,0-23.58,8.31t-8.76,25.59v57Z" transform="translate(8367.68 2820.72)"/><path class="cls-1" d="M-7247.89-2679q-19.53,0-34.69-8a60,60,0,0,1-23.8-22.12,60.35,60.35,0,0,1-8.64-32.11q0-18.18,8.65-32.11a61.38,61.38,0,0,1,23.81-22q15.15-8.09,34.69-8.08,19.08,0,33.34,8a46.33,46.33,0,0,1,20.55,22.57l-27,14.82q-4.95-8.53-11.9-12.46a30.52,30.52,0,0,0-15.27-3.93,32.76,32.76,0,0,0-15.94,3.92,29.25,29.25,0,0,0-11.46,11.34q-4.26,7.41-4.26,18t4.26,18.07a29,29,0,0,0,11.45,11.46,32.66,32.66,0,0,0,15.94,3.93,30.52,30.52,0,0,0,15.27-3.93q7-3.93,11.9-12.69l26.95,14.83a47,47,0,0,1-20.55,22.45Q-7228.8-2679-7247.89-2679Z" transform="translate(8367.68 2820.72)"/><path class="cls-1" d="M-7136.29-2679q-13.92,0-24-4.83a37.66,37.66,0,0,1-15.61-13.14,33,33,0,0,1-5.5-18.64,33.83,33.83,0,0,1,5.28-18.74q5.28-8.21,16.73-12.69t30.09-4.49h31.89v20.21h-28.29q-12.35,0-17,4a12.9,12.9,0,0,0-4.61,10.11,12.59,12.59,0,0,0,5.28,10.66q5.27,3.93,14.26,3.93a31.61,31.61,0,0,0,16.05-4,22,22,0,0,0,10-12.34l5.38,16.39a31.78,31.78,0,0,1-13.92,17.4Q-7120.35-2679-7136.29-2679Zm36.83-1.79v-23.58l-2.25-5.16v-42.22q0-11.22-6.85-17.51t-21-6.29a61,61,0,0,0-19,3,53.19,53.19,0,0,0-16,8.19l-12.35-24.48a71,71,0,0,1,23.8-10.88,109.61,109.61,0,0,1,28.3-3.71q27.61,0,42.88,13t15.27,40.65v68.93Z" transform="translate(8367.68 2820.72)"/><path class="cls-1" d="M-7887-2432.43a70.94,70.94,0,0,1-15.72-1.68,38.46,38.46,0,0,1-12.57-5.06l9.43-25.37a25.12,25.12,0,0,0,14.82,4.27q6.73,0,10.44-4.27t3.71-13.47v-120.58h35v120.36q0,21.11-11.79,33.46T-7887-2432.43Zm27.64-183q-9.89,0-15.94-5.61a18.24,18.24,0,0,1-6.06-13.93,18.22,18.22,0,0,1,6.06-13.92q6.06-5.61,15.94-5.61,9.66,0,15.83,5.28a17.05,17.05,0,0,1,6.18,13.58,19.06,19.06,0,0,1-6.07,14.49Q-7849.45-2615.44-7859.33-2615.43Z" transform="translate(8367.68 2820.72)"/><path class="cls-1" d="M-7752-2476q-19.09,0-34-8.09a60.59,60.59,0,0,1-23.46-22.12q-8.54-14-8.53-32,0-18.2,8.53-32.22a59.91,59.91,0,0,1,23.47-22q14.93-8,34-8,19.31,0,34.35,8a59.81,59.81,0,0,1,23.58,22q8.52,14,8.53,32.22t-8.54,32.11a60.75,60.75,0,0,1-23.58,22Q-7732.7-2476-7752-2476Zm0-28.75a31.27,31.27,0,0,0,15.83-3.92,28.87,28.87,0,0,0,11-11.57,37,37,0,0,0,4.16-18q0-10.54-4.15-18a29.32,29.32,0,0,0-11-11.35,30.91,30.91,0,0,0-15.61-3.93,31.41,31.41,0,0,0-15.72,3.93,28.87,28.87,0,0,0-11.11,11.34q-4.17,7.41-4.16,18a37,37,0,0,0,4.15,18,28.52,28.52,0,0,0,11.12,11.56A30.92,30.92,0,0,0-7752-2504.72Z" transform="translate(8367.68 2820.72)"/><path class="cls-1" d="M-7632.56-2477.76l-50.73-120.81h35.93l42.2,104h-18l44-104h33.46l-51,120.8Z" transform="translate(8367.68 2820.72)"/><path class="cls-1" d="M-7474.7-2475.94q-20.67,0-36.15-8.09a59.76,59.76,0,0,1-24-22.12q-8.53-14-8.53-32t8.2-32.11a57.73,57.73,0,0,1,22.91-22.12q14.7-8,33.12-8a66.85,66.85,0,0,1,32,7.63,57.45,57.45,0,0,1,22.56,21.56q8.31,13.93,8.31,33.46c0,1.35-.08,2.89-.23,4.61s-.3,3.33-.45,4.82h-98.12v-20.43h79.71l-13.7,6.06a31.88,31.88,0,0,0-3.59-16.39,27.93,27.93,0,0,0-10.55-10.9,30.72,30.72,0,0,0-15.72-3.93,31.24,31.24,0,0,0-15.83,3.93,27.49,27.49,0,0,0-10.67,11,34.82,34.82,0,0,0-3.81,16.73v5.39a33.19,33.19,0,0,0,4.49,17.52,29.67,29.67,0,0,0,12.35,11.34q7.86,3.93,18.86,3.93a44.68,44.68,0,0,0,16.73-2.92,41,41,0,0,0,13.36-8.76l18.64,20.22a54.37,54.37,0,0,1-20.89,14.48Q-7458.31-2476-7474.7-2475.94Z" transform="translate(8367.68 2820.72)"/><path class="cls-1" d="M-7238.24-2600.32q14.37,0,25.48,5.73a40.55,40.55,0,0,1,17.4,17.52q6.28,11.79,6.29,30.2v69.16h-35v-63.77q0-14.59-5.95-21.56t-16.73-7a27.45,27.45,0,0,0-13.92,3.48,22.84,22.84,0,0,0-9.32,10.32q-3.25,6.85-3.26,17.85v60.63h-35v-63.77q0-14.6-5.94-21.56t-17.18-7a27,27,0,0,0-13.7,3.48,23.46,23.46,0,0,0-9.43,10.32q-3.37,6.86-3.37,17.86v60.62h-35l0-120.81h33.45v32.78l-6.29-9.43a41.91,41.91,0,0,1,17.74-18.75,53.84,53.84,0,0,1,26.28-6.4q16.61,0,29.19,8.43t16.61,25.71l-12.35-3.37A49.38,49.38,0,0,1-7269-2591.9Q-7255.75-2600.32-7238.24-2600.32Z" transform="translate(8367.68 2820.72)"/><path class="cls-1" d="M-7134.73-2532.49a33.89,33.89,0,0,1,2.58-13.59,46,46,0,0,1,6.51-10.77,78,78,0,0,1,8.43-8.87q4.48-4.05,8.42-7.75a41.56,41.56,0,0,0,6.51-7.74,16.77,16.77,0,0,0,2.58-9.21,15.28,15.28,0,0,0-6.62-12.8q-6.63-4.94-17.4-4.94a40.13,40.13,0,0,0-19.2,4.37,38,38,0,0,0-13.59,12.24l-27.17-15.95a64.57,64.57,0,0,1,25-22q15.84-8.09,38.51-8.08,17.07,0,29.87,4.83t20,14q7.19,9.21,7.18,22.45a41.84,41.84,0,0,1-2.69,15.83,41.49,41.49,0,0,1-7,11.57,96.42,96.42,0,0,1-9.1,9.2q-4.83,4.27-9.09,8.31a40.74,40.74,0,0,0-7,8.53,19.76,19.76,0,0,0-2.69,10.33Zm17.06,56.59a20.75,20.75,0,0,1-15.27-6.07,19.64,19.64,0,0,1-6.06-14.37,18.82,18.82,0,0,1,6.06-14.26,21.34,21.34,0,0,1,15.27-5.72q9.66,0,15.61,5.72a19,19,0,0,1,6,14.26,19.85,19.85,0,0,1-6,14.37Q-7108-2475.9-7117.67-2475.9Z" transform="translate(8367.68 2820.72)"/><rect class="cls-1" x="1778.24" y="115.44" width="1517.02" height="137.91"/><rect class="cls-1" x="1351.26" y="250.47" width="1559.8" height="137.91"/><path class="cls-1" d="M-6955.4-2730.29a40.51,40.51,0,0,1-14.93-2.7,35.11,35.11,0,0,1-11.93-7.65,35.19,35.19,0,0,1-7.85-11.52,36.36,36.36,0,0,1-2.8-14.42,36.37,36.37,0,0,1,2.8-14.43,35.4,35.4,0,0,1,7.85-11.52,35.18,35.18,0,0,1,11.88-7.65,40.4,40.4,0,0,1,15-2.7,40.15,40.15,0,0,1,14.89,2.7,35.72,35.72,0,0,1,11.88,7.6,34.73,34.73,0,0,1,7.85,11.52,36.76,36.76,0,0,1,2.8,14.48,36.71,36.71,0,0,1-2.8,14.47,34.87,34.87,0,0,1-7.85,11.53,35.85,35.85,0,0,1-11.88,7.59A40.15,40.15,0,0,1-6955.4-2730.29Zm0-6.73a31.55,31.55,0,0,0,11.88-2.19,27.85,27.85,0,0,0,9.48-6.22,28.71,28.71,0,0,0,6.27-9.38,30.07,30.07,0,0,0,2.25-11.77,30.09,30.09,0,0,0-2.25-11.78,28.82,28.82,0,0,0-6.27-9.38,28,28,0,0,0-9.48-6.22,31.55,31.55,0,0,0-11.88-2.19,31.94,31.94,0,0,0-11.92,2.19,28.56,28.56,0,0,0-9.59,6.22,28.64,28.64,0,0,0-6.32,9.38,30.27,30.27,0,0,0-2.24,11.78,30.36,30.36,0,0,0,2.24,11.72,28.44,28.44,0,0,0,6.32,9.43,28.41,28.41,0,0,0,9.59,6.22A31.94,31.94,0,0,0-6955.4-2737Z" transform="translate(8367.68 2820.72)"/><path class="cls-1" d="M-6843.14-2730.29a40.56,40.56,0,0,1-14.94-2.7,35.11,35.11,0,0,1-11.93-7.65,35.35,35.35,0,0,1-7.85-11.52,36.36,36.36,0,0,1-2.8-14.42,36.37,36.37,0,0,1,2.8-14.43,35.56,35.56,0,0,1,7.85-11.52,35.18,35.18,0,0,1,11.88-7.65,40.41,40.41,0,0,1,15-2.7,40.13,40.13,0,0,1,14.88,2.7,35.72,35.72,0,0,1,11.88,7.6,34.73,34.73,0,0,1,7.85,11.52,36.76,36.76,0,0,1,2.8,14.48,36.71,36.71,0,0,1-2.8,14.47,34.87,34.87,0,0,1-7.85,11.53,35.85,35.85,0,0,1-11.88,7.59A40.13,40.13,0,0,1-6843.14-2730.29Zm0-6.73a31.53,31.53,0,0,0,11.87-2.19,28,28,0,0,0,9.49-6.22,28.93,28.93,0,0,0,6.27-9.43,30.36,30.36,0,0,0,2.24-11.72,30.27,30.27,0,0,0-2.24-11.78,29.14,29.14,0,0,0-6.27-9.38,28.13,28.13,0,0,0-9.49-6.22,31.53,31.53,0,0,0-11.87-2.19,32,32,0,0,0-11.93,2.19,28.56,28.56,0,0,0-9.59,6.22,28.64,28.64,0,0,0-6.32,9.38,30.27,30.27,0,0,0-2.24,11.78,30.36,30.36,0,0,0,2.24,11.72,28.44,28.44,0,0,0,6.32,9.43,28.41,28.41,0,0,0,9.59,6.22A32,32,0,0,0-6843.14-2737Zm23.34,20.29a24.61,24.61,0,0,1-6.32-.81,26.1,26.1,0,0,1-6.17-2.6,40.66,40.66,0,0,1-6.37-4.64q-3.26-2.86-7.13-6.93l8.25-2a47.79,47.79,0,0,0,6.17,6.22,23.31,23.31,0,0,0,5.92,3.61,15.1,15.1,0,0,0,5.76,1.18q7.95,0,13.56-6.53l3.67,4.39A21.48,21.48,0,0,1-6819.8-2716.73Z" transform="translate(8367.68 2820.72)"/><path class="cls-1" d="M-6760-2730.29q-13.66,0-21.51-7.85t-7.85-23.24v-40.89h7.54v40.58q0,12.64,5.71,18.66t16.11,6q10.5,0,16.21-6t5.71-18.66v-40.58h7.34v40.89q0,15.39-7.8,23.24T-6760-2730.29Z" transform="translate(8367.68 2820.72)"/><path class="cls-1" d="M-6700.51-2737.42h42.92v6.52H-6708v-71.37h48.93v6.53h-41.39Zm-.82-32.94h37.73v6.43h-37.73Z" transform="translate(8367.68 2820.72)"/><path class="cls-1" d="M-6593.46-2730.29a44.86,44.86,0,0,1-15.24-2.6,29.11,29.11,0,0,1-11.27-6.68l3-5.81a30,30,0,0,0,10.14,6.17,36.33,36.33,0,0,0,13.41,2.5,30.09,30.09,0,0,0,11-1.68,13.27,13.27,0,0,0,6.22-4.54,10.78,10.78,0,0,0,2-6.32,9.41,9.41,0,0,0-2.4-6.73,16.61,16.61,0,0,0-6.27-4,70.73,70.73,0,0,0-8.56-2.6q-4.69-1.11-9.38-2.39a39.54,39.54,0,0,1-8.62-3.42,17.9,17.9,0,0,1-6.32-5.66,16.05,16.05,0,0,1-2.39-9.22,17.86,17.86,0,0,1,2.8-9.74,19.55,19.55,0,0,1,8.62-7.14q5.81-2.7,14.88-2.7a43.45,43.45,0,0,1,11.93,1.68,34.27,34.27,0,0,1,10.19,4.64l-2.54,6a33.71,33.71,0,0,0-9.74-4.49,37.24,37.24,0,0,0-9.94-1.43,27.76,27.76,0,0,0-10.6,1.74,13.34,13.34,0,0,0-6.17,4.64,11.3,11.3,0,0,0-2,6.57,9.45,9.45,0,0,0,2.39,6.73,16,16,0,0,0,6.33,4,79.14,79.14,0,0,0,8.61,2.55c3.13.74,6.24,1.56,9.33,2.44a44.19,44.19,0,0,1,8.56,3.42,17.5,17.5,0,0,1,6.33,5.56,15.69,15.69,0,0,1,2.39,9.07,17.44,17.44,0,0,1-2.85,9.63,19.91,19.91,0,0,1-8.72,7.14Q-6584.28-2730.29-6593.46-2730.29Z" transform="translate(8367.68 2820.72)"/><path class="cls-1" d="M-6561.85-2730.9l32.62-71.37h7.44l32.63,71.37h-7.95l-30-67h3.06l-30,67ZM-6549-2750l2.25-6.12h41.49l2.24,6.12Z" transform="translate(8367.68 2820.72)"/><path class="cls-1" d="M-6477.33-2730.9v-71.37h30.79q11.93,0,18.5,4.79t6.58,13.56a17,17,0,0,1-2.7,9.79,16.94,16.94,0,0,1-7.34,6,25,25,0,0,1-10.15,2l1.73-2.45a30.21,30.21,0,0,1,11.78,2.09,16.9,16.9,0,0,1,7.7,6.22,18.11,18.11,0,0,1,2.75,10.25q0,9.08-6.68,14.06t-20.13,5Zm7.54-6.22h25.18q9.39,0,14.38-3.21t5-10.25q0-6.93-5-10.14t-14.38-3.21h-26v-6.22H-6447q8.56,0,13.3-3.27t4.74-9.68q0-6.53-4.74-9.74T-6447-2796h-22.74Z" transform="translate(8367.68 2820.72)"/><path class="cls-1" d="M-6392.91-2737.42H-6350v6.52h-50.47v-71.37h48.94v6.53h-41.39Zm-.82-32.94H-6356v6.43h-37.72Z" transform="translate(8367.68 2820.72)"/><path class="cls-1" d="M-6332.25-2730.9v-71.37h6.22l32.62,55.67h-3.26l32.32-55.67h6.22v71.37h-7.24v-60h1.73l-29.77,51H-6297l-30-51h1.94v60Z" transform="translate(8367.68 2820.72)"/><path class="cls-1" d="M-6203.69-2730.29a40.47,40.47,0,0,1-14.93-2.7,35.11,35.11,0,0,1-11.93-7.65,35.19,35.19,0,0,1-7.85-11.52,36.36,36.36,0,0,1-2.81-14.42,36.38,36.38,0,0,1,2.81-14.43,35.4,35.4,0,0,1,7.85-11.52,35.18,35.18,0,0,1,11.88-7.65,40.36,40.36,0,0,1,15-2.7,40.19,40.19,0,0,1,14.89,2.7,35.72,35.72,0,0,1,11.88,7.6,34.73,34.73,0,0,1,7.85,11.52,36.94,36.94,0,0,1,2.8,14.48,36.89,36.89,0,0,1-2.8,14.47,34.87,34.87,0,0,1-7.85,11.53,35.85,35.85,0,0,1-11.88,7.59A40.19,40.19,0,0,1-6203.69-2730.29Zm0-6.73a31.62,31.62,0,0,0,11.88-2.19,27.85,27.85,0,0,0,9.48-6.22,28.71,28.71,0,0,0,6.27-9.38,30.07,30.07,0,0,0,2.25-11.77,30.09,30.09,0,0,0-2.25-11.78,28.82,28.82,0,0,0-6.27-9.38,28,28,0,0,0-9.48-6.22,31.62,31.62,0,0,0-11.88-2.19,32,32,0,0,0-11.93,2.19,28.52,28.52,0,0,0-9.58,6.22,28.49,28.49,0,0,0-6.32,9.38,30.09,30.09,0,0,0-2.24,11.78,30.17,30.17,0,0,0,2.24,11.72,28.29,28.29,0,0,0,6.32,9.43,28.36,28.36,0,0,0,9.58,6.22A32,32,0,0,0-6203.69-2737Z" transform="translate(8367.68 2820.72)"/><path class="cls-1" d="M-6129.67-2730.29a44.86,44.86,0,0,1-15.24-2.6,29.11,29.11,0,0,1-11.27-6.68l3-5.81a30,30,0,0,0,10.14,6.17,36.33,36.33,0,0,0,13.41,2.5,30.09,30.09,0,0,0,11-1.68,13.27,13.27,0,0,0,6.22-4.54,10.78,10.78,0,0,0,2-6.32,9.41,9.41,0,0,0-2.4-6.73,16.53,16.53,0,0,0-6.27-4,70.73,70.73,0,0,0-8.56-2.6q-4.69-1.11-9.38-2.39a39.54,39.54,0,0,1-8.62-3.42,17.9,17.9,0,0,1-6.32-5.66,16.05,16.05,0,0,1-2.39-9.22,17.86,17.86,0,0,1,2.8-9.74,19.55,19.55,0,0,1,8.62-7.14q5.81-2.7,14.88-2.7a43.45,43.45,0,0,1,11.93,1.68,34.27,34.27,0,0,1,10.19,4.64l-2.54,6a33.71,33.71,0,0,0-9.74-4.49,37.24,37.24,0,0,0-9.94-1.43,27.76,27.76,0,0,0-10.6,1.74,13.34,13.34,0,0,0-6.17,4.64,11.3,11.3,0,0,0-2,6.57,9.45,9.45,0,0,0,2.39,6.73,16,16,0,0,0,6.33,4,79.14,79.14,0,0,0,8.61,2.55c3.13.74,6.24,1.56,9.33,2.44a44.19,44.19,0,0,1,8.56,3.42,17.5,17.5,0,0,1,6.33,5.56,15.69,15.69,0,0,1,2.39,9.07,17.44,17.44,0,0,1-2.85,9.63,19.91,19.91,0,0,1-8.72,7.14Q-6120.49-2730.29-6129.67-2730.29Z" transform="translate(8367.68 2820.72)"/><path class="cls-1" d="M-6052.39-2737.42h42.92v6.52h-50.46v-71.37H-6011v6.53h-41.4Zm-.81-32.94h37.72v6.43h-37.72Zm11.21-37.72,14-12.64h9.68l-16.51,12.64Z" transform="translate(8367.68 2820.72)"/><path class="cls-1" d="M-5933.82-2730.29a40.51,40.51,0,0,1-14.93-2.7,35.11,35.11,0,0,1-11.93-7.65,35.19,35.19,0,0,1-7.85-11.52,36.36,36.36,0,0,1-2.81-14.42,36.38,36.38,0,0,1,2.81-14.43,35.4,35.4,0,0,1,7.85-11.52,35.18,35.18,0,0,1,11.88-7.65,40.4,40.4,0,0,1,15-2.7,40.15,40.15,0,0,1,14.89,2.7,35.72,35.72,0,0,1,11.88,7.6,34.73,34.73,0,0,1,7.85,11.52,36.76,36.76,0,0,1,2.8,14.48,36.71,36.71,0,0,1-2.8,14.47,34.87,34.87,0,0,1-7.85,11.53,35.85,35.85,0,0,1-11.88,7.59A40.15,40.15,0,0,1-5933.82-2730.29Zm0-6.73a31.58,31.58,0,0,0,11.88-2.19,27.85,27.85,0,0,0,9.48-6.22,28.62,28.62,0,0,0,6.27-9.43,30.18,30.18,0,0,0,2.25-11.72,30.09,30.09,0,0,0-2.25-11.78,28.82,28.82,0,0,0-6.27-9.38,28,28,0,0,0-9.48-6.22,31.58,31.58,0,0,0-11.88-2.19,31.94,31.94,0,0,0-11.92,2.19,28.46,28.46,0,0,0-9.59,6.22,28.49,28.49,0,0,0-6.32,9.38,30.09,30.09,0,0,0-2.24,11.78,30.17,30.17,0,0,0,2.24,11.72,28.29,28.29,0,0,0,6.32,9.43,28.31,28.31,0,0,0,9.59,6.22A31.94,31.94,0,0,0-5933.82-2737Zm23.35,20.29a24.61,24.61,0,0,1-6.32-.81,25.93,25.93,0,0,1-6.17-2.6,40.2,40.2,0,0,1-6.37-4.64c-2.18-1.91-4.55-4.22-7.14-6.93l8.26-2a47.17,47.17,0,0,0,6.17,6.22,23.27,23.27,0,0,0,5.91,3.61,15.18,15.18,0,0,0,5.76,1.18,17.25,17.25,0,0,0,13.56-6.53l3.67,4.39A21.45,21.45,0,0,1-5910.47-2716.73Z" transform="translate(8367.68 2820.72)"/><path class="cls-1" d="M-5850.72-2730.29q-13.66,0-21.52-7.85t-7.85-23.24v-40.89h7.55v40.58q0,12.64,5.71,18.66t16.11,6q10.5,0,16.21-6t5.71-18.66v-40.58h7.34v40.89q0,15.39-7.8,23.24T-5850.72-2730.29Z" transform="translate(8367.68 2820.72)"/><path class="cls-1" d="M-5791.18-2737.42h42.92v6.52h-50.47v-71.37h48.94v6.53h-41.39Zm-.82-32.94h37.73v6.43H-5792Z" transform="translate(8367.68 2820.72)"/><path class="cls-1" d="M-5703.81-2730.9v-71.37h6.22l49.25,62h-3.27v-62h7.45v71.37h-6.22l-49.15-62h3.27v62Z" transform="translate(8367.68 2820.72)"/><path class="cls-1" d="M-5632.34-2730.9l32.63-71.37h7.44l32.63,71.37h-8l-30-67h3.06l-30,67Zm12.85-19.06,2.24-6.12h41.5l2.24,6.12Zm30.48-58.73a8.48,8.48,0,0,1-4.18-1,16.69,16.69,0,0,1-3.31-2.4,37.67,37.67,0,0,0-2.91-2.44,4.81,4.81,0,0,0-2.95-1.07,4.47,4.47,0,0,0-3.72,1.73,8.47,8.47,0,0,0-1.59,4.79H-5612a13.45,13.45,0,0,1,2.7-8.16,8,8,0,0,1,6.48-3,8.37,8.37,0,0,1,4.23,1.07,18,18,0,0,1,3.36,2.44,33.43,33.43,0,0,0,2.86,2.4,4.77,4.77,0,0,0,2.9,1,4.69,4.69,0,0,0,3.77-1.68,7.29,7.29,0,0,0,1.53-4.64h4.39a12.44,12.44,0,0,1-2.65,7.95A8.13,8.13,0,0,1-5589-2808.69Z" transform="translate(8367.68 2820.72)"/><path class="cls-1" d="M-5517.64-2730.29a40.56,40.56,0,0,1-14.94-2.7,35.16,35.16,0,0,1-11.92-7.65,35,35,0,0,1-7.85-11.52,36.36,36.36,0,0,1-2.81-14.42,36.38,36.38,0,0,1,2.81-14.43,35.25,35.25,0,0,1,7.85-11.52,35.24,35.24,0,0,1,11.87-7.65,40.45,40.45,0,0,1,15-2.7,40.19,40.19,0,0,1,14.89,2.7,35.58,35.58,0,0,1,11.87,7.6,34.75,34.75,0,0,1,7.86,11.52,36.94,36.94,0,0,1,2.8,14.48,36.89,36.89,0,0,1-2.8,14.47,34.9,34.9,0,0,1-7.86,11.53,35.71,35.71,0,0,1-11.87,7.59A40.19,40.19,0,0,1-5517.64-2730.29Zm0-6.73a31.62,31.62,0,0,0,11.88-2.19,27.94,27.94,0,0,0,9.48-6.22,28.71,28.71,0,0,0,6.27-9.38,30.07,30.07,0,0,0,2.24-11.77,30.09,30.09,0,0,0-2.24-11.78,28.82,28.82,0,0,0-6.27-9.38,28.09,28.09,0,0,0-9.48-6.22,31.62,31.62,0,0,0-11.88-2.19,32,32,0,0,0-11.93,2.19,28.52,28.52,0,0,0-9.58,6.22,28.49,28.49,0,0,0-6.32,9.38,30.09,30.09,0,0,0-2.25,11.78,30.18,30.18,0,0,0,2.25,11.72,28.29,28.29,0,0,0,6.32,9.43,28.36,28.36,0,0,0,9.58,6.22A32,32,0,0,0-5517.64-2737Z" transform="translate(8367.68 2820.72)"/><path class="cls-1" d="M-6966.92-2598.65a45.11,45.11,0,0,1-15.24-2.6,29.06,29.06,0,0,1-11.26-6.68l2.95-5.81a30.21,30.21,0,0,0,10.15,6.17,36.45,36.45,0,0,0,13.4,2.5,29.86,29.86,0,0,0,11-1.69,13.26,13.26,0,0,0,6.22-4.53,10.8,10.8,0,0,0,2-6.32,9.45,9.45,0,0,0-2.39-6.73,16.61,16.61,0,0,0-6.27-4,69.16,69.16,0,0,0-8.57-2.6c-3.13-.75-6.25-1.55-9.38-2.4a39.24,39.24,0,0,1-8.61-3.41,18,18,0,0,1-6.33-5.66,16.16,16.16,0,0,1-2.39-9.23,17.82,17.82,0,0,1,2.8-9.73,19.55,19.55,0,0,1,8.62-7.14q5.81-2.7,14.88-2.7a43.45,43.45,0,0,1,11.93,1.68,34.45,34.45,0,0,1,10.2,4.64l-2.55,6a33.68,33.68,0,0,0-9.74-4.48,37.18,37.18,0,0,0-9.94-1.43,28,28,0,0,0-10.6,1.73,13.47,13.47,0,0,0-6.17,4.64,11.35,11.35,0,0,0-2,6.58,9.41,9.41,0,0,0,2.4,6.73,15.88,15.88,0,0,0,6.32,4,75.52,75.52,0,0,0,8.61,2.55q4.69,1.13,9.33,2.45a43.29,43.29,0,0,1,8.57,3.42,17.62,17.62,0,0,1,6.32,5.55,15.72,15.72,0,0,1,2.39,9.08,17.49,17.49,0,0,1-2.85,9.63,19.85,19.85,0,0,1-8.72,7.14Q-6957.74-2598.65-6966.92-2598.65Z" transform="translate(8367.68 2820.72)"/><path class="cls-1" d="M-6892.69-2598.65a40.56,40.56,0,0,1-14.94-2.7,35.2,35.2,0,0,1-11.93-7.65,35.56,35.56,0,0,1-7.85-11.52,36.37,36.37,0,0,1-2.8-14.43,36.36,36.36,0,0,1,2.8-14.42,35.35,35.35,0,0,1,7.85-11.52,35.28,35.28,0,0,1,11.88-7.65,40.41,40.41,0,0,1,15-2.7,40.09,40.09,0,0,1,14.88,2.7,35.65,35.65,0,0,1,11.88,7.59,34.87,34.87,0,0,1,7.85,11.53,36.71,36.71,0,0,1,2.8,14.47,36.76,36.76,0,0,1-2.8,14.48,34.73,34.73,0,0,1-7.85,11.52,35.68,35.68,0,0,1-11.88,7.6A40.09,40.09,0,0,1-6892.69-2598.65Zm0-6.73a31.53,31.53,0,0,0,11.87-2.19,28.13,28.13,0,0,0,9.49-6.22,29.14,29.14,0,0,0,6.27-9.38,30.3,30.3,0,0,0,2.24-11.78,30.25,30.25,0,0,0-2.24-11.77,29,29,0,0,0-6.27-9.38,28,28,0,0,0-9.49-6.22,31.53,31.53,0,0,0-11.87-2.19,32,32,0,0,0-11.93,2.19,28.41,28.41,0,0,0-9.59,6.22,28.54,28.54,0,0,0-6.32,9.38,30.25,30.25,0,0,0-2.24,11.77,30.37,30.37,0,0,0,2.24,11.73,28.54,28.54,0,0,0,6.32,9.43,28.56,28.56,0,0,0,9.59,6.22A32,32,0,0,0-6892.69-2605.38Z" transform="translate(8367.68 2820.72)"/><path class="cls-1" d="M-6838.35-2599.26v-71.37h6.22l32.62,55.67h-3.26l32.32-55.67h6.22v71.37h-7.24v-60h1.73l-29.77,51h-3.57l-30-51h1.94v60Z" transform="translate(8367.68 2820.72)"/><path class="cls-1" d="M-6709.79-2598.65a40.47,40.47,0,0,1-14.93-2.7,35.11,35.11,0,0,1-11.93-7.65,35.4,35.4,0,0,1-7.85-11.52,36.38,36.38,0,0,1-2.81-14.43,36.36,36.36,0,0,1,2.81-14.42,35.19,35.19,0,0,1,7.85-11.52,35.18,35.18,0,0,1,11.88-7.65,40.36,40.36,0,0,1,15-2.7,40.19,40.19,0,0,1,14.89,2.7,35.85,35.85,0,0,1,11.88,7.59,34.87,34.87,0,0,1,7.85,11.53,36.89,36.89,0,0,1,2.8,14.47,36.94,36.94,0,0,1-2.8,14.48,34.73,34.73,0,0,1-7.85,11.52,35.88,35.88,0,0,1-11.88,7.6A40.19,40.19,0,0,1-6709.79-2598.65Zm0-6.73a31.62,31.62,0,0,0,11.88-2.19,28,28,0,0,0,9.48-6.22,28.82,28.82,0,0,0,6.27-9.38,30.12,30.12,0,0,0,2.25-11.78,30.07,30.07,0,0,0-2.25-11.77,28.71,28.71,0,0,0-6.27-9.38,27.85,27.85,0,0,0-9.48-6.22,31.62,31.62,0,0,0-11.88-2.19,32,32,0,0,0-11.93,2.19,28.36,28.36,0,0,0-9.58,6.22,28.39,28.39,0,0,0-6.32,9.38,30.07,30.07,0,0,0-2.24,11.77,30.19,30.19,0,0,0,2.24,11.73,28.39,28.39,0,0,0,6.32,9.43,28.52,28.52,0,0,0,9.58,6.22A32,32,0,0,0-6709.79-2605.38Z" transform="translate(8367.68 2820.72)"/><path class="cls-1" d="M-6635.77-2598.65a45.11,45.11,0,0,1-15.24-2.6,29.11,29.11,0,0,1-11.27-6.68l3-5.81a30.15,30.15,0,0,0,10.14,6.17,36.54,36.54,0,0,0,13.41,2.5,29.86,29.86,0,0,0,11-1.69,13.31,13.31,0,0,0,6.22-4.53,10.8,10.8,0,0,0,2-6.32,9.41,9.41,0,0,0-2.4-6.73,16.61,16.61,0,0,0-6.27-4,69,69,0,0,0-8.56-2.6q-4.69-1.12-9.38-2.4a39.52,39.52,0,0,1-8.62-3.41,18,18,0,0,1-6.32-5.66,16.09,16.09,0,0,1-2.39-9.23,17.82,17.82,0,0,1,2.8-9.73,19.58,19.58,0,0,1,8.61-7.14q5.82-2.7,14.89-2.7a43.45,43.45,0,0,1,11.93,1.68,34.27,34.27,0,0,1,10.19,4.64l-2.54,6a33.68,33.68,0,0,0-9.74-4.48,37.24,37.24,0,0,0-9.94-1.43,28,28,0,0,0-10.6,1.73,13.47,13.47,0,0,0-6.17,4.64,11.35,11.35,0,0,0-2,6.58,9.45,9.45,0,0,0,2.39,6.73,16,16,0,0,0,6.33,4,74.92,74.92,0,0,0,8.61,2.55q4.69,1.13,9.33,2.45a43,43,0,0,1,8.56,3.42,17.57,17.57,0,0,1,6.33,5.55,15.72,15.72,0,0,1,2.39,9.08,17.49,17.49,0,0,1-2.85,9.63,19.91,19.91,0,0,1-8.72,7.14Q-6626.6-2598.65-6635.77-2598.65Z" transform="translate(8367.68 2820.72)"/><path class="cls-2" d="M-6566-2599.26v-71.37h6.22l49.24,62h-3.26v-62h7.44v71.37h-6.22l-49.14-62h3.26v62Z" transform="translate(8367.68 2820.72)"/><path class="cls-2" d="M-6475.6-2605.79h42.92v6.53h-50.46v-71.37h48.93v6.52h-41.39Zm-.82-32.93h37.73v6.42h-37.73Z" transform="translate(8367.68 2820.72)"/><path class="cls-2" d="M-6414.94-2599.26v-71.37h6.22l32.63,55.67h-3.26l32.31-55.67h6.22v71.37H-6348v-60h1.73l-29.77,51h-3.57l-30-51h1.94v60Z" transform="translate(8367.68 2820.72)"/><path class="cls-2" d="M-6262.11-2598.65q-13.67,0-21.51-7.85t-7.85-23.25v-40.88h7.54V-2630q0,12.65,5.71,18.65t16.11,6q10.5,0,16.21-6t5.71-18.65v-40.58h7.34v40.88q0,15.4-7.8,23.25T-6262.11-2598.65Z" transform="translate(8367.68 2820.72)"/><path class="cls-2" d="M-6210.11-2599.26v-71.37h6.22l32.62,55.67h-3.26l32.32-55.67h6.22v71.37h-7.24v-60h1.73l-29.77,51h-3.57l-30-51h1.94v60Z" transform="translate(8367.68 2820.72)"/><path class="cls-2" d="M-6124.16-2599.26l32.62-71.37h7.44l32.63,71.37h-7.95l-30-67h3.06l-30,67Zm12.84-19.07,2.24-6.12h41.5l2.24,6.12Z" transform="translate(8367.68 2820.72)"/><path class="cls-2" d="M-6012.93-2599.26v-71.37h6.22l32.62,55.67h-3.26l32.32-55.67h6.22v71.37H-5946v-60h1.73l-29.77,51h-3.57l-30-51h1.94v60Z" transform="translate(8367.68 2820.72)"/><path class="cls-2" d="M-5927-2599.26l32.63-71.37h7.44l32.63,71.37h-7.95l-30-67h3.06l-30,67Zm12.85-19.07,2.24-6.12h41.5l2.24,6.12Z" transform="translate(8367.68 2820.72)"/><path class="cls-2" d="M-5842.46-2599.26v-71.37h26.71a38.27,38.27,0,0,1,15.6,2.9,22.54,22.54,0,0,1,10,8.36,23.91,23.91,0,0,1,3.52,13.21,23.52,23.52,0,0,1-3.52,13,22.54,22.54,0,0,1-10,8.36,38.27,38.27,0,0,1-15.6,2.9h-22.53l3.36-3.46v26.1Zm7.54-25.49-3.36-3.57H-5816q10.71,0,16.27-4.69t5.55-13.15q0-8.57-5.55-13.26t-16.27-4.69h-22.32l3.36-3.56Zm41.19,25.49-18.35-25.9h8.15l18.46,25.9Z" transform="translate(8367.68 2820.72)"/><path class="cls-2" d="M-5737.76-2598.65a40.09,40.09,0,0,1-14.88-2.7,35.16,35.16,0,0,1-11.83-7.6,35,35,0,0,1-7.8-11.52,36.76,36.76,0,0,1-2.8-14.48,36.71,36.71,0,0,1,2.8-14.47,34.87,34.87,0,0,1,7.85-11.53,35.75,35.75,0,0,1,11.88-7.59,40.09,40.09,0,0,1,14.88-2.7,40.46,40.46,0,0,1,14.58,2.6,29.12,29.12,0,0,1,11.52,7.8l-4.79,4.79a26.62,26.62,0,0,0-9.68-6.48,32.4,32.4,0,0,0-11.42-2,32,32,0,0,0-11.93,2.19,28.27,28.27,0,0,0-9.58,6.22,29.17,29.17,0,0,0-6.38,9.38,29.56,29.56,0,0,0-2.29,11.77,29.61,29.61,0,0,0,2.29,11.78,29.28,29.28,0,0,0,6.38,9.38,28.42,28.42,0,0,0,9.58,6.22,32,32,0,0,0,11.93,2.19,31.55,31.55,0,0,0,11.42-2,27.12,27.12,0,0,0,9.68-6.52l4.79,4.79a29.75,29.75,0,0,1-11.52,7.85A40.12,40.12,0,0,1-5737.76-2598.65Z" transform="translate(8367.68 2820.72)"/><path class="cls-2" d="M-5708.7-2599.26l32.63-71.37h7.44l32.62,71.37H-5644l-30-67h3.06l-30,67Zm12.85-19.07,2.24-6.12h41.5l2.24,6.12Z" transform="translate(8367.68 2820.72)"/><path class="cls-2" d="M-5597.47-2599.26v-71.37h7.55v71.37Z" transform="translate(8367.68 2820.72)"/><path class="cls-2" d="M-5566.68-2599.26v-71.37h6.22l49.25,62h-3.27v-62h7.44v71.37h-6.21l-49.15-62h3.27v62Z" transform="translate(8367.68 2820.72)"/><path class="cls-2" d="M-5476.25-2599.26h-7.54v-71.37h48.94v6.52h-41.4Zm-.81-36.81h37.72v6.53h-37.72Z" transform="translate(8367.68 2820.72)"/><path class="cls-2" d="M-5434-2599.26l32.63-71.37h7.44l32.63,71.37h-7.95l-30-67h3.06l-30,67Zm12.85-19.07,2.24-6.12h41.5l2.24,6.12Z" transform="translate(8367.68 2820.72)"/><path class="cls-2" d="M-5349.52-2599.26v-71.37h6.22l49.25,62h-3.26v-62h7.44v71.37h-6.22l-49.14-62h3.26v62Z" transform="translate(8367.68 2820.72)"/><path class="cls-2" d="M-5252.76-2599.26v-64.85h-25.08v-6.52h57.71v6.52h-25.09v64.85Z" transform="translate(8367.68 2820.72)"/><path class="cls-2" d="M-5208.1-2599.26v-71.37h7.54v71.37Z" transform="translate(8367.68 2820.72)"/><path class="cls-2" d="M-5177.32-2599.26v-71.37h7.55v64.84h40v6.53Z" transform="translate(8367.68 2820.72)"/><path class="cls-2" d="M-6986.59-2467.63V-2539h6.22l49.24,62h-3.26v-62h7.44v71.37h-6.22l-49.14-62h3.26v62Z" transform="translate(8367.68 2820.72)"/><path class="cls-2" d="M-6896.16-2474.15h42.92v6.52h-50.46V-2539h48.93v6.53h-41.39Zm-.82-32.93h37.73v6.42H-6897Z" transform="translate(8367.68 2820.72)"/><path class="cls-2" d="M-6835.5-2467.63V-2539h6.22l32.63,55.67h-3.26l32.32-55.67h6.21v71.37h-7.23v-60h1.73l-29.77,51h-3.57l-30-51h1.94v60Z" transform="translate(8367.68 2820.72)"/><path class="cls-2" d="M-6697.55-2467.63v-64.84h-25.08V-2539h57.7v6.53H-6690v64.84Z" transform="translate(8367.68 2820.72)"/><path class="cls-2" d="M-6622.72-2467a40.57,40.57,0,0,1-14.94-2.71,35.29,35.29,0,0,1-11.92-7.64,35.25,35.25,0,0,1-7.85-11.52,36.45,36.45,0,0,1-2.81-14.43,36.45,36.45,0,0,1,2.81-14.43,35.25,35.25,0,0,1,7.85-11.52,35.55,35.55,0,0,1,11.87-7.65,40.45,40.45,0,0,1,15-2.7,40.19,40.19,0,0,1,14.89,2.7,35.89,35.89,0,0,1,11.87,7.6,34.75,34.75,0,0,1,7.86,11.52,37,37,0,0,1,2.8,14.48,37,37,0,0,1-2.8,14.48,34.75,34.75,0,0,1-7.86,11.52,35.71,35.71,0,0,1-11.87,7.59A40.19,40.19,0,0,1-6622.72-2467Zm0-6.73a31.43,31.43,0,0,0,11.88-2.2,27.94,27.94,0,0,0,9.48-6.22,28.71,28.71,0,0,0,6.27-9.38,30,30,0,0,0,2.24-11.77,30.12,30.12,0,0,0-2.24-11.78,28.82,28.82,0,0,0-6.27-9.38,28.24,28.24,0,0,0-9.48-6.22,31.62,31.62,0,0,0-11.88-2.19,32,32,0,0,0-11.93,2.19,28.67,28.67,0,0,0-9.58,6.22,28.49,28.49,0,0,0-6.32,9.38,30.12,30.12,0,0,0-2.25,11.78,30.18,30.18,0,0,0,2.25,11.72,28.19,28.19,0,0,0,6.32,9.43,28.36,28.36,0,0,0,9.58,6.22A31.8,31.8,0,0,0-6622.72-2473.74Z" transform="translate(8367.68 2820.72)"/><path class="cls-2" d="M-6555.53-2467.63v-64.84h-25.08V-2539h57.71v6.53H-6548v64.84Z" transform="translate(8367.68 2820.72)"/><path class="cls-2" d="M-6525.86-2467.63l32.62-71.37h7.45l32.62,71.37h-7.95l-30-67h3.05l-30,67Zm12.85-19.06,2.24-6.12h41.49l2.25,6.12Z" transform="translate(8367.68 2820.72)"/><path class="cls-2" d="M-6441.34-2467.63V-2539h7.54v64.85h40v6.52Z" transform="translate(8367.68 2820.72)"/><path class="cls-2" d="M-6381.29-2467.63V-2539h6.22l32.63,55.67h-3.27l32.32-55.67h6.22v71.37h-7.24v-60h1.74l-29.77,51H-6346l-30-51h1.94v60Z" transform="translate(8367.68 2820.72)"/><path class="cls-2" d="M-6276.38-2474.15h42.92v6.52h-50.46V-2539H-6235v6.53h-41.4Zm-.81-32.93h37.72v6.42h-37.72Z" transform="translate(8367.68 2820.72)"/><path class="cls-2" d="M-6215.72-2467.63V-2539h6.22l49.25,62h-3.27v-62h7.45v71.37h-6.22l-49.14-62h3.26v62Z" transform="translate(8367.68 2820.72)"/><path class="cls-2" d="M-6119-2467.63v-64.84H-6144V-2539h57.7v6.53h-25.08v64.84Z" transform="translate(8367.68 2820.72)"/><path class="cls-2" d="M-6066.76-2474.15h42.92v6.52h-50.47V-2539h48.94v6.53h-41.39Zm-.82-32.93h37.73v6.42h-37.73Z" transform="translate(8367.68 2820.72)"/><path class="cls-2" d="M-5990.81-2467.63l32.63-71.37h7.44l32.63,71.37h-8l-30-67h3.06l-30,67Zm12.85-19.06,2.24-6.12h41.5l2.24,6.12Z" transform="translate(8367.68 2820.72)"/><path class="cls-2" d="M-5906.29-2467.63V-2539h29.06a42.49,42.49,0,0,1,20,4.54,33.29,33.29,0,0,1,13.4,12.59,35.56,35.56,0,0,1,4.79,18.56,35.56,35.56,0,0,1-4.79,18.56,33.29,33.29,0,0,1-13.4,12.59,42.49,42.49,0,0,1-20,4.53Zm7.55-6.52h21.1a34.57,34.57,0,0,0,16.47-3.72,27.23,27.23,0,0,0,10.86-10.3,29.28,29.28,0,0,0,3.87-15.14,29.21,29.21,0,0,0-3.87-15.19,27.31,27.31,0,0,0-10.86-10.25,34.57,34.57,0,0,0-16.47-3.72h-21.1Z" transform="translate(8367.68 2820.72)"/><path class="cls-2" d="M-5793.32-2467q-13.67,0-21.51-7.86t-7.85-23.24V-2539h7.54v40.58q0,12.65,5.71,18.66t16.11,6q10.5,0,16.21-6t5.71-18.66V-2539h7.34v40.89q0,15.39-7.8,23.24T-5793.32-2467Z" transform="translate(8367.68 2820.72)"/><path class="cls-2" d="M-5741.32-2467.63V-2539h7.54v64.85h40v6.52Z" transform="translate(8367.68 2820.72)"/><path class="cls-2" d="M-5674-2467.63v-64.84h-25.08V-2539h57.7v6.53h-25.08v64.84Z" transform="translate(8367.68 2820.72)"/><path class="cls-2" d="M-5644.36-2467.63l32.62-71.37h7.44l32.63,71.37h-7.95l-30-67h3.06l-30,67Zm12.84-19.06,2.25-6.12h41.49l2.24,6.12Z" transform="translate(8367.68 2820.72)"/><path class="cls-2" d="M-5557.19-2467.12a5.13,5.13,0,0,1-3.83-1.63,5.49,5.49,0,0,1-1.58-4,5.29,5.29,0,0,1,1.58-4,5.31,5.31,0,0,1,3.83-1.53,5.29,5.29,0,0,1,3.82,1.53,5.29,5.29,0,0,1,1.58,4,5.49,5.49,0,0,1-1.58,4A5.11,5.11,0,0,1-5557.19-2467.12Zm22.12,0a5.11,5.11,0,0,1-3.82-1.63,5.45,5.45,0,0,1-1.58-4,5.26,5.26,0,0,1,1.58-4,5.29,5.29,0,0,1,3.82-1.53,5.27,5.27,0,0,1,3.82,1.53,5.26,5.26,0,0,1,1.58,4,5.45,5.45,0,0,1-1.58,4A5.1,5.1,0,0,1-5535.07-2467.12Zm22.23,0a5.13,5.13,0,0,1-3.83-1.63,5.49,5.49,0,0,1-1.58-4,5.29,5.29,0,0,1,1.58-4,5.31,5.31,0,0,1,3.83-1.53,5.29,5.29,0,0,1,3.82,1.53,5.29,5.29,0,0,1,1.58,4,5.49,5.49,0,0,1-1.58,4A5.11,5.11,0,0,1-5512.84-2467.12Z" transform="translate(8367.68 2820.72)"/></g></g></g></svg>