<svg xmlns="http://www.w3.org/2000/svg" viewBox="0 0 3684.22 466.87"><defs><style>.cls-1{fill:#fff;}</style></defs><title>7</title><g id="Camada_2" data-name="Camada 2"><g id="Camada_1-2" data-name="Camada 1"><g id="Camada_16" data-name="Camada 16"><rect x="822.43" width="2861.79" height="220.73"/><rect x="497.58" y="246.14" width="835.33" height="220.73"/><path d="M-1437.31,1462.22V1360.45h39.69q13.36,0,22.82,4.21a32.27,32.27,0,0,1,14.54,12.22q5.09,8,5.09,19t-5.09,19a32.89,32.89,0,0,1-14.54,12.22q-9.45,4.28-22.82,4.28h-31.7l6.55-6.83v37.66Zm14.54-36.21-6.55-7.26h31.26q14,0,21.15-6t7.2-16.87q0-10.9-7.2-16.86t-21.15-6h-31.26l6.55-7.26Z" transform="translate(1437.31 -1275)"/><path d="M-1329.15,1462.22v-77.06h13.38v20.94l-1.31-5.24a23.66,23.66,0,0,1,10.76-12.21q7.56-4.22,18.61-4.22V1398a10,10,0,0,0-1.68-.15h-1.52q-11.21,0-17.74,6.69t-6.54,19.33v38.39Z" transform="translate(1437.31 -1275)"/><path d="M-1245.7,1463.09a36.33,36.33,0,0,1-15-2.91,23,23,0,0,1-10-8.07,20.37,20.37,0,0,1-3.49-11.7,22,22,0,0,1,3-11.34q3-5.08,9.74-8.14t18.24-3.06h24.43v10h-23.84q-10.47,0-14.11,3.48a11.28,11.28,0,0,0-3.63,8.44,10.81,10.81,0,0,0,4.51,9.08q4.5,3.42,12.5,3.42a26.43,26.43,0,0,0,13.74-3.49,19.86,19.86,0,0,0,8.5-10.18l2.77,9.6a21.69,21.69,0,0,1-9.75,10.83Q-1235.08,1463.1-1245.7,1463.09Zm25.3-.87v-16.29l-.73-3v-27.77q0-8.86-5.16-13.74t-15.48-4.87a40.86,40.86,0,0,0-13.38,2.25,34.69,34.69,0,0,0-11,6l-5.81-10.47a42.05,42.05,0,0,1,14.32-7.34,59.69,59.69,0,0,1,17.52-2.55q15.84,0,24.42,7.71t8.58,23.55v46.53Z" transform="translate(1437.31 -1275)"/><path d="M-1094.21,1459a41.6,41.6,0,0,1-20-4.73,36,36,0,0,1-14-13.16,36.47,36.47,0,0,1-5.17-19.48,36.37,36.37,0,0,1,5.17-19.55,35.67,35.67,0,0,1,14-13,42.14,42.14,0,0,1,20-4.66,40.43,40.43,0,0,1,18,4,30.52,30.52,0,0,1,13,12.29q4.88,8.28,4.87,20.93t-4.87,20.79a31.41,31.41,0,0,1-13,12.43A39.09,39.09,0,0,1-1094.21,1459Zm1.75,32.27a71.18,71.18,0,0,1-20.57-3,42.51,42.51,0,0,1-16.22-8.5l6.69-10.76a39.61,39.61,0,0,0,13.23,7.34,50.45,50.45,0,0,0,16.43,2.69q13.67,0,20.06-6.4t6.4-19.48v-16.28l1.46-15.27-.73-15.41v-21.08h13.23v66.59q0,20.36-10.18,30T-1092.46,1491.29Zm-.15-44.49a28.5,28.5,0,0,0,13.67-3.19,24,24,0,0,0,9.38-8.87,24.92,24.92,0,0,0,3.41-13.09,24.91,24.91,0,0,0-3.41-13.08,23.53,23.53,0,0,0-9.38-8.8,29.06,29.06,0,0,0-13.67-3.12,29.46,29.46,0,0,0-13.74,3.12,23.4,23.4,0,0,0-9.45,8.8,24.82,24.82,0,0,0-3.41,13.08,24.83,24.83,0,0,0,3.41,13.09,23.84,23.84,0,0,0,9.45,8.87A28.89,28.89,0,0,0-1092.61,1446.8Z" transform="translate(1437.31 -1275)"/><path d="M-983.57,1463.09a44.93,44.93,0,0,1-21.74-5.09,36.52,36.52,0,0,1-14.53-14,39.6,39.6,0,0,1-5.17-20.35,40.7,40.7,0,0,1,5-20.36,36.18,36.18,0,0,1,13.81-13.88,39.38,39.38,0,0,1,19.85-5,38.85,38.85,0,0,1,19.77,5,35,35,0,0,1,13.45,13.88,43,43,0,0,1,4.87,20.87c0,.58,0,1.26-.08,2s-.12,1.5-.21,2.18h-65.57v-10h58.3l-5.67,3.49a25.92,25.92,0,0,0-3.06-13.23,23.29,23.29,0,0,0-8.79-9.09,25.32,25.32,0,0,0-13-3.27,25.42,25.42,0,0,0-12.94,3.27,23.07,23.07,0,0,0-8.87,9.16,27.77,27.77,0,0,0-3.2,13.45v2.33a26.53,26.53,0,0,0,3.56,13.73,24.49,24.49,0,0,0,10,9.38,31.25,31.25,0,0,0,14.69,3.35,32.16,32.16,0,0,0,12.43-2.33,27.23,27.23,0,0,0,9.81-7l7.7,9a33.53,33.53,0,0,1-13,9.31A45.28,45.28,0,0,1-983.57,1463.09Z" transform="translate(1437.31 -1275)"/><path d="M-879.77,1384.43a36.51,36.51,0,0,1,16.65,3.64,26.11,26.11,0,0,1,11.27,11q4.07,7.41,4.07,18.75v44.35h-14v-42.75q0-11.19-5.45-16.86t-15.34-5.67a27.38,27.38,0,0,0-12.94,2.91,19.87,19.87,0,0,0-8.5,8.57q-3,5.67-3,14.11v39.69h-14v-77.06h13.38V1406l-2.19-5.52a26.75,26.75,0,0,1,11.64-11.78A38.13,38.13,0,0,1-879.77,1384.43Z" transform="translate(1437.31 -1275)"/><path d="M-825,1396.65v-11.49h49.14v11.49Zm37.51,66.44q-11.62,0-18-6.25t-6.4-17.89V1368.3h14v70.07q0,6.26,3.12,9.6t8.94,3.34a16.49,16.49,0,0,0,10.91-3.63l4.36,10a20.3,20.3,0,0,1-7.63,4.07A32.6,32.6,0,0,1-787.45,1463.09Z" transform="translate(1437.31 -1275)"/><path d="M-714,1463.09a44.86,44.86,0,0,1-21.73-5.09,36.62,36.62,0,0,1-14.54-14,39.7,39.7,0,0,1-5.16-20.35,40.7,40.7,0,0,1,5-20.36,36.21,36.21,0,0,1,13.82-13.88,39.35,39.35,0,0,1,19.84-5,38.85,38.85,0,0,1,19.77,5,35,35,0,0,1,13.45,13.88,42.93,42.93,0,0,1,4.87,20.87c0,.58,0,1.26-.07,2s-.12,1.5-.22,2.18h-65.57v-10h58.3l-5.67,3.49a25.91,25.91,0,0,0-3.05-13.23,23.32,23.32,0,0,0-8.8-9.09,25.32,25.32,0,0,0-13-3.27,25.42,25.42,0,0,0-12.94,3.27,23.07,23.07,0,0,0-8.87,9.16,27.77,27.77,0,0,0-3.2,13.45v2.33a26.44,26.44,0,0,0,3.57,13.73,24.4,24.4,0,0,0,10,9.38,31.25,31.25,0,0,0,14.69,3.35,32.12,32.12,0,0,0,12.43-2.33,27.23,27.23,0,0,0,9.81-7l7.71,9a33.68,33.68,0,0,1-13,9.31A45.37,45.37,0,0,1-714,1463.09Z" transform="translate(1437.31 -1275)"/><path d="M-656.89,1483.73l7.27-29.36,1.89,8.43a10,10,0,0,1-7-2.62,9.21,9.21,0,0,1-2.84-7.12,9.54,9.54,0,0,1,2.84-7.13,9.52,9.52,0,0,1,6.9-2.76A8.92,8.92,0,0,1-641,1446a10.06,10.06,0,0,1,2.61,7.06,18.75,18.75,0,0,1-.21,2.83,29.6,29.6,0,0,1-.73,3.2c-.34,1.21-.85,2.69-1.53,4.43l-6.83,20.21Z" transform="translate(1437.31 -1275)"/><path class="cls-1" d="M-500.72,1353.82a50.9,50.9,0,0,1,23.2,5.06,36.33,36.33,0,0,1,15.7,15.4q5.67,10.34,5.68,26.14v61.8h-19.45v-59.57q0-15.6-7.6-23.5t-21.38-7.91a38.06,38.06,0,0,0-18,4.06,27.69,27.69,0,0,0-11.85,12q-4.15,7.9-4.16,19.65v55.32h-19.45V1354.83h18.64v29l-3-7.69a37.36,37.36,0,0,1,16.21-16.42Q-515.3,1353.82-500.72,1353.82Z" transform="translate(1437.31 -1275)"/><path class="cls-1" d="M-377.53,1463.43a50.75,50.75,0,0,1-21-4,32.12,32.12,0,0,1-13.88-11.25,28.44,28.44,0,0,1-4.86-16.31,30.69,30.69,0,0,1,4.15-15.8q4.15-7.1,13.58-11.35t25.42-4.25h34v14h-33.23q-14.58,0-19.65,4.86A15.68,15.68,0,0,0-398,1431a15.11,15.11,0,0,0,6.28,12.67q6.27,4.75,17.42,4.76a36.86,36.86,0,0,0,19.15-4.86,27.68,27.68,0,0,0,11.85-14.19l3.85,13.37a30.22,30.22,0,0,1-13.57,15.1Q-362.74,1463.44-377.53,1463.43Zm35.25-1.21v-22.7l-1-4.25v-38.7q0-12.36-7.19-19.15t-21.58-6.78a56.69,56.69,0,0,0-18.64,3.14,48,48,0,0,0-15.4,8.4l-8.1-14.58a58.72,58.72,0,0,1,19.95-10.24,83.57,83.57,0,0,1,24.42-3.54q22.08,0,34,10.74t12,32.82v64.84Zm-12-123.6a17.83,17.83,0,0,1-8.61-2,34.74,34.74,0,0,1-6.79-4.77,69.07,69.07,0,0,0-5.87-4.76,9.83,9.83,0,0,0-5.68-2,8.83,8.83,0,0,0-7.19,3.34q-2.73,3.34-3.14,9.22h-10.94q.4-11.34,5.67-18a17.11,17.11,0,0,1,14.18-6.69,17.71,17.71,0,0,1,8.72,2.13,37.58,37.58,0,0,1,6.89,4.86c2,1.83,3.95,3.41,5.77,4.76a9.29,9.29,0,0,0,5.57,2,9.28,9.28,0,0,0,7.3-3.24c1.89-2.16,2.9-5.14,3-8.92h10.95q-.21,10.74-5.58,17.43A17.41,17.41,0,0,1-354.23,1338.62Z" transform="translate(1437.31 -1275)"/><path class="cls-1" d="M-230.64,1463.43a57.63,57.63,0,0,1-28.67-7.09,52.49,52.49,0,0,1-20-19.55,54.94,54.94,0,0,1-7.29-28.27q0-16,7.29-28.26a53.08,53.08,0,0,1,19.86-19.35q12.56-7.1,28.77-7.09a58.32,58.32,0,0,1,28.67,7,51.17,51.17,0,0,1,19.86,19.35q7.19,12.36,7.19,28.36t-7.19,28.37A51.91,51.91,0,0,1-202,1456.34,57.63,57.63,0,0,1-230.64,1463.43Zm0-17a36.84,36.84,0,0,0,18.54-4.66,32.91,32.91,0,0,0,12.87-13.27,41.35,41.35,0,0,0,4.66-20q0-11.55-4.66-20a33.29,33.29,0,0,0-12.87-13.07,36.84,36.84,0,0,0-18.54-4.66,36.28,36.28,0,0,0-18.44,4.66,34.9,34.9,0,0,0-13,13.07q-4.87,8.4-4.87,20a39.8,39.8,0,0,0,4.87,20,34.46,34.46,0,0,0,13,13.27A36.28,36.28,0,0,0-230.64,1446.41Z" transform="translate(1437.31 -1275)"/><path class="cls-1" d="M-23.37,1463.43q-17.22,0-30.29-7.09a51.09,51.09,0,0,1-20.26-19.45q-7.2-12.36-7.19-28.37t7-28.36a50.41,50.41,0,0,1,19.25-19.35,54.82,54.82,0,0,1,27.65-7q15.6,0,27.56,6.89a48.76,48.76,0,0,1,18.74,19.35q6.78,12.45,6.79,29.07c0,.81,0,1.76-.11,2.84s-.17,2.09-.3,3H-65.92v-14H15.33l-7.9,4.86a36.2,36.2,0,0,0-4.26-18.44,32.57,32.57,0,0,0-12.25-12.66,35.32,35.32,0,0,0-18.14-4.56,35.43,35.43,0,0,0-18,4.56,32.1,32.1,0,0,0-12.36,12.76,38.65,38.65,0,0,0-4.46,18.74v3.25a36.9,36.9,0,0,0,5,19.14,34,34,0,0,0,13.88,13.07,43.46,43.46,0,0,0,20.46,4.66,44.73,44.73,0,0,0,17.32-3.24,38,38,0,0,0,13.68-9.72L19,1446A47,47,0,0,1,.84,1459,62.91,62.91,0,0,1-23.37,1463.43Z" transform="translate(1437.31 -1275)"/><path class="cls-1" d="M45.32,1462.22l46.19-60-.2,9.93-44-57.34H69L102.66,1399H94.35L128,1354.83h21.28l-44.58,57.75.2-10.34,46.61,60H129.4l-35.46-47,7.91,1.22L67,1462.22Z" transform="translate(1437.31 -1275)"/><path class="cls-1" d="M193.63,1334.17a13,13,0,0,1-9.43-3.65,12,12,0,0,1-3.74-8.92,12.18,12.18,0,0,1,3.74-9.11,12.94,12.94,0,0,1,9.43-3.65,13.18,13.18,0,0,1,9.42,3.54,11.7,11.7,0,0,1,3.75,8.82,12.66,12.66,0,0,1-13.17,13Zm-9.73,128V1354.83h19.45v107.39Z" transform="translate(1437.31 -1275)"/><path class="cls-1" d="M282.37,1463.43a87,87,0,0,1-25.43-3.65q-12.06-3.65-18.94-8.91l8.1-15.4a66.18,66.18,0,0,0,17,7.9,67.12,67.12,0,0,0,20.67,3.24q13.56,0,19.55-3.85a12.1,12.1,0,0,0,6-10.73,9.44,9.44,0,0,0-3.65-7.9,24.94,24.94,0,0,0-9.63-4.26q-6-1.41-13.27-2.53t-14.59-2.84a58.33,58.33,0,0,1-13.37-4.86,25.25,25.25,0,0,1-9.72-8.71q-3.65-5.58-3.65-14.9a27.59,27.59,0,0,1,5.47-17q5.47-7.29,15.5-11.24t23.81-4a93.57,93.57,0,0,1,21.37,2.53q10.85,2.54,17.73,7.19l-8.31,15.4a45.73,45.73,0,0,0-15.19-6.68,69.9,69.9,0,0,0-15.81-1.83c-8.5,0-14.86,1.39-19,4.16s-6.28,6.31-6.28,10.63q0,5.47,3.75,8.41a27,27,0,0,0,9.72,4.56,122,122,0,0,0,13.27,2.74q7.31,1.11,14.59,2.83a59.52,59.52,0,0,1,13.27,4.76A25.89,25.89,0,0,1,325,1417q3.75,5.48,3.75,14.59a26.12,26.12,0,0,1-5.68,16.82q-5.67,7.1-16,11T282.37,1463.43Z" transform="translate(1437.31 -1275)"/><path class="cls-1" d="M348.82,1370.84v-16h68.49v16Zm52.28,92.59q-16.22,0-25.13-8.71t-8.91-24.92v-98.47h19.45V1429q0,8.71,4.35,13.37t12.47,4.66q9.1,0,15.19-5.06l6.08,14a28.3,28.3,0,0,1-10.64,5.68A45.42,45.42,0,0,1,401.1,1463.43Z" transform="translate(1437.31 -1275)"/><path class="cls-1" d="M503.41,1463.43q-17.22,0-30.29-7.09a51.15,51.15,0,0,1-20.26-19.45q-7.19-12.36-7.19-28.37t7-28.36a50.41,50.41,0,0,1,19.25-19.35,54.82,54.82,0,0,1,27.65-7q15.6,0,27.56,6.89a48.76,48.76,0,0,1,18.74,19.35q6.79,12.45,6.79,29.07c0,.81,0,1.76-.1,2.84s-.17,2.09-.31,3H460.87v-14h81.24l-7.9,4.86a36.2,36.2,0,0,0-4.25-18.44,32.59,32.59,0,0,0-12.26-12.66,38.14,38.14,0,0,0-36.17,0,32.1,32.1,0,0,0-12.36,12.76,38.65,38.65,0,0,0-4.45,18.74v3.25a36.89,36.89,0,0,0,5,19.14,34,34,0,0,0,13.88,13.07,43.46,43.46,0,0,0,20.46,4.66,44.81,44.81,0,0,0,17.33-3.24,38,38,0,0,0,13.67-9.72L545.76,1446a47.05,47.05,0,0,1-18.13,13A63,63,0,0,1,503.41,1463.43Z" transform="translate(1437.31 -1275)"/><path class="cls-1" d="M702.38,1463.43a57.63,57.63,0,0,1-28.67-7.09,52.42,52.42,0,0,1-20-19.55,54.94,54.94,0,0,1-7.29-28.27q0-16,7.29-28.26a53,53,0,0,1,19.86-19.35q12.55-7.1,28.77-7.09a58.35,58.35,0,0,1,28.67,7,51.07,51.07,0,0,1,19.85,19.35q7.2,12.36,7.2,28.36t-7.2,28.37a51.81,51.81,0,0,1-19.85,19.45A57.66,57.66,0,0,1,702.38,1463.43Zm0-17a36.84,36.84,0,0,0,18.54-4.66,32.89,32.89,0,0,0,12.86-13.27,41.24,41.24,0,0,0,4.66-20q0-11.55-4.66-20a33.26,33.26,0,0,0-12.86-13.07,36.84,36.84,0,0,0-18.54-4.66,36.28,36.28,0,0,0-18.44,4.66,35,35,0,0,0-13,13.07q-4.86,8.4-4.86,20a39.9,39.9,0,0,0,4.86,20,34.55,34.55,0,0,0,13,13.27A36.28,36.28,0,0,0,702.38,1446.41Z" transform="translate(1437.31 -1275)"/><path class="cls-1" d="M908.64,1463.43q-16.42,0-29.28-7.09a52.16,52.16,0,0,1-20.16-19.45q-7.29-12.36-7.3-28.37t7.3-28.36a51.42,51.42,0,0,1,20.16-19.35q12.85-7,29.28-7a57,57,0,0,1,26,5.77,41,41,0,0,1,17.73,17.12l-14.79,9.53a33,33,0,0,0-12.87-11.65,36.33,36.33,0,0,0-16.31-3.75,37.82,37.82,0,0,0-18.84,4.66,34.44,34.44,0,0,0-13.17,13.07q-4.86,8.4-4.86,20t4.86,20.06a34.16,34.16,0,0,0,13.17,13.17,37.82,37.82,0,0,0,18.84,4.66,36.2,36.2,0,0,0,16.31-3.75A32.94,32.94,0,0,0,937.61,1431l14.79,9.32a42.48,42.48,0,0,1-17.73,17.12A55.34,55.34,0,0,1,908.64,1463.43Z" transform="translate(1437.31 -1275)"/><path class="cls-1" d="M1034.86,1463.43q-17.22,0-30.29-7.09a51.09,51.09,0,0,1-20.26-19.45q-7.2-12.36-7.19-28.37t7-28.36a50.41,50.41,0,0,1,19.25-19.35,54.82,54.82,0,0,1,27.65-7q15.6,0,27.56,6.89a48.76,48.76,0,0,1,18.74,19.35q6.78,12.45,6.79,29.07c0,.81,0,1.76-.1,2.84s-.17,2.09-.31,3H992.31v-14h81.25l-7.9,4.86a36.2,36.2,0,0,0-4.26-18.44,32.5,32.5,0,0,0-12.25-12.66,38.14,38.14,0,0,0-36.17,0,32.1,32.1,0,0,0-12.36,12.76,38.65,38.65,0,0,0-4.46,18.74v3.25a36.9,36.9,0,0,0,5,19.14,34,34,0,0,0,13.88,13.07,43.46,43.46,0,0,0,20.46,4.66,44.73,44.73,0,0,0,17.32-3.24,38,38,0,0,0,13.68-9.72l10.74,12.56a47,47,0,0,1-18.14,13A62.91,62.91,0,0,1,1034.86,1463.43Z" transform="translate(1437.31 -1275)"/><path class="cls-1" d="M1122.19,1462.22V1354.83h18.64V1384l-1.83-7.3a33,33,0,0,1,15-17q10.53-5.87,25.93-5.87v18.84a14.77,14.77,0,0,0-2.33-.2h-2.13q-15.6,0-24.71,9.32t-9.12,27v53.49Z" transform="translate(1437.31 -1275)"/><path class="cls-1" d="M1204,1370.84v-16h68.48v16Zm52.27,92.59q-16.2,0-25.12-8.71t-8.91-24.92v-98.47h19.45V1429q0,8.71,4.35,13.37t12.46,4.66q9.12,0,15.2-5.06l6.08,14a28.3,28.3,0,0,1-10.64,5.68A45.44,45.44,0,0,1,1256.31,1463.43Z" transform="translate(1437.31 -1275)"/><path class="cls-1" d="M1356.81,1463.43a57.63,57.63,0,0,1-28.67-7.09,52.49,52.49,0,0,1-20-19.55,54.94,54.94,0,0,1-7.29-28.27q0-16,7.29-28.26a53.08,53.08,0,0,1,19.86-19.35q12.56-7.1,28.77-7.09a58.32,58.32,0,0,1,28.67,7,51.07,51.07,0,0,1,19.85,19.35q7.2,12.36,7.2,28.36t-7.2,28.37a51.81,51.81,0,0,1-19.85,19.45A57.63,57.63,0,0,1,1356.81,1463.43Zm0-17a36.84,36.84,0,0,0,18.54-4.66,32.82,32.82,0,0,0,12.86-13.27,41.24,41.24,0,0,0,4.66-20q0-11.55-4.66-20a33.2,33.2,0,0,0-12.86-13.07,36.84,36.84,0,0,0-18.54-4.66,36.28,36.28,0,0,0-18.44,4.66,35,35,0,0,0-13,13.07q-4.86,8.4-4.86,20a39.9,39.9,0,0,0,4.86,20,34.55,34.55,0,0,0,13,13.27A36.28,36.28,0,0,0,1356.81,1446.41Z" transform="translate(1437.31 -1275)"/><path class="cls-1" d="M1573.6,1353.82a50.9,50.9,0,0,1,23.2,5.06,36.33,36.33,0,0,1,15.7,15.4q5.67,10.34,5.68,26.14v61.8h-19.45v-59.57q0-15.6-7.6-23.5t-21.38-7.91a38.06,38.06,0,0,0-18,4.06,27.63,27.63,0,0,0-11.85,12q-4.15,7.9-4.16,19.65v55.32h-19.45V1354.83h18.64v29l-3-7.69a37.31,37.31,0,0,1,16.21-16.42Q1559,1353.82,1573.6,1353.82Z" transform="translate(1437.31 -1275)"/><path class="cls-1" d="M1713.2,1463.43q-17.22,0-30.29-7.09a51.09,51.09,0,0,1-20.26-19.45q-7.2-12.36-7.19-28.37t7-28.36a50.41,50.41,0,0,1,19.25-19.35,54.79,54.79,0,0,1,27.65-7q15.6,0,27.56,6.89a48.82,48.82,0,0,1,18.74,19.35q6.78,12.45,6.79,29.07c0,.81,0,1.76-.11,2.84s-.17,2.09-.3,3h-91.38v-14h81.25l-7.9,4.86a36.2,36.2,0,0,0-4.26-18.44,32.57,32.57,0,0,0-12.25-12.66,38.14,38.14,0,0,0-36.17,0,32.1,32.1,0,0,0-12.36,12.76,38.65,38.65,0,0,0-4.46,18.74v3.25a36.81,36.81,0,0,0,5,19.14,33.93,33.93,0,0,0,13.88,13.07,43.46,43.46,0,0,0,20.46,4.66,44.73,44.73,0,0,0,17.32-3.24,38,38,0,0,0,13.68-9.72l10.74,12.56a47.09,47.09,0,0,1-18.14,13A62.91,62.91,0,0,1,1713.2,1463.43Z" transform="translate(1437.31 -1275)"/><path class="cls-1" d="M1934.86,1353.82a49.78,49.78,0,0,1,22.89,5.06,35.89,35.89,0,0,1,15.5,15.4q5.58,10.34,5.57,26.14v61.8h-19.45v-59.57q0-15.6-7.29-23.5t-20.46-7.91a34.37,34.37,0,0,0-17,4.06,27.15,27.15,0,0,0-11.25,12q-3.94,7.9-3.95,19.65v55.32H1880v-59.57q0-15.6-7.19-23.5t-20.57-7.91a33.93,33.93,0,0,0-16.81,4.06,27.7,27.7,0,0,0-11.35,12q-4,7.9-4,19.65v55.32h-19.45V1354.83h18.64v28.57l-3-7.29a36.55,36.55,0,0,1,15.6-16.42q10.53-5.87,24.51-5.87,15.4,0,26.55,7.6t14.58,23l-7.9-3.24a40.33,40.33,0,0,1,17-19.85Q1918.65,1353.82,1934.86,1353.82Z" transform="translate(1437.31 -1275)"/><path class="cls-1" d="M2137.47,1463.43a57.63,57.63,0,0,1-28.67-7.09,52.35,52.35,0,0,1-20-19.55,54.94,54.94,0,0,1-7.29-28.27q0-16,7.29-28.26a53,53,0,0,1,19.86-19.35q12.56-7.1,28.77-7.09a58.35,58.35,0,0,1,28.67,7,51.07,51.07,0,0,1,19.85,19.35q7.2,12.36,7.2,28.36t-7.2,28.37a51.81,51.81,0,0,1-19.85,19.45A57.66,57.66,0,0,1,2137.47,1463.43Zm0-17a36.84,36.84,0,0,0,18.54-4.66,32.89,32.89,0,0,0,12.86-13.27,41.24,41.24,0,0,0,4.66-20q0-11.55-4.66-20A33.26,33.26,0,0,0,2156,1375.5a36.84,36.84,0,0,0-18.54-4.66,36.28,36.28,0,0,0-18.44,4.66,34.92,34.92,0,0,0-13,13.07q-4.86,8.4-4.86,20a39.9,39.9,0,0,0,4.86,20,34.48,34.48,0,0,0,13,13.27A36.28,36.28,0,0,0,2137.47,1446.41Z" transform="translate(1437.31 -1275)"/><path class="cls-1" d="M-791.72,1706.57q-17.22,0-30.29-7.1A51,51,0,0,1-842.27,1680q-7.18-12.35-7.19-28.36t7-28.37a50.41,50.41,0,0,1,19.25-19.35,54.82,54.82,0,0,1,27.65-7q15.6,0,27.56,6.89a48.76,48.76,0,0,1,18.74,19.35q6.78,12.46,6.79,29.08c0,.81,0,1.75-.1,2.83s-.17,2.1-.31,3h-91.38v-14H-753l-7.9,4.86a36.24,36.24,0,0,0-4.25-18.43,32.62,32.62,0,0,0-12.26-12.67,35.29,35.29,0,0,0-18.14-4.56,35.43,35.43,0,0,0-18,4.56A32.12,32.12,0,0,0-826,1630.69a38.65,38.65,0,0,0-4.46,18.74v3.24a37,37,0,0,0,5,19.15,34.12,34.12,0,0,0,13.88,13.07,43.46,43.46,0,0,0,20.46,4.66,44.54,44.54,0,0,0,17.32-3.25,37.86,37.86,0,0,0,13.68-9.72l10.74,12.56a47.07,47.07,0,0,1-18.13,13A63.18,63.18,0,0,1-791.72,1706.57Z" transform="translate(1437.31 -1275)"/><path class="cls-1" d="M-704.39,1705.35V1598h18.64v29.17l-1.82-7.29a32.91,32.91,0,0,1,15-17Q-662,1597-646.65,1597v18.84a14.77,14.77,0,0,0-2.33-.2h-2.12q-15.61,0-24.72,9.32t-9.12,26.95v53.49Z" transform="translate(1437.31 -1275)"/><path class="cls-1" d="M-611.6,1705.35V1598H-593v29.17l-1.82-7.29a33,33,0,0,1,15-17q10.54-5.88,25.94-5.88v18.84a14.77,14.77,0,0,0-2.33-.2h-2.13q-15.6,0-24.72,9.32t-9.11,26.95v53.49Z" transform="translate(1437.31 -1275)"/><path class="cls-1" d="M-495.3,1706.57a50.59,50.59,0,0,1-21-4.06,32.23,32.23,0,0,1-13.88-11.24A28.46,28.46,0,0,1-535,1675a30.7,30.7,0,0,1,4.15-15.81q4.15-7.08,13.58-11.34t25.43-4.26h34v14H-491q-14.59,0-19.66,4.87a15.71,15.71,0,0,0-5.06,11.75,15.08,15.08,0,0,0,6.28,12.66q6.28,4.77,17.42,4.76a36.86,36.86,0,0,0,19.15-4.86,27.65,27.65,0,0,0,11.85-14.18l3.85,13.37A30.2,30.2,0,0,1-470.78,1701Q-480.5,1706.57-495.3,1706.57Zm35.26-1.22v-22.69l-1-4.26v-38.7q0-12.35-7.19-19.14t-21.58-6.79a57,57,0,0,0-18.64,3.14,48,48,0,0,0-15.39,8.41l-8.11-14.59a58.58,58.58,0,0,1,20-10.23A83.45,83.45,0,0,1-487.6,1597q22.08,0,34,10.74t12,32.82v64.84Z" transform="translate(1437.31 -1275)"/><path class="cls-1" d="M-350,1706.57a55.86,55.86,0,0,1-27.85-6.89,50.33,50.33,0,0,1-19.35-19.25q-7.09-12.36-7.1-28.77t7.1-28.67a50.56,50.56,0,0,1,19.35-19.15A55.86,55.86,0,0,1-350,1597a49.65,49.65,0,0,1,24.52,6.08A44.39,44.39,0,0,1-308,1621.27q6.57,12.15,6.58,30.39t-6.38,30.39a43.88,43.88,0,0,1-17.32,18.34A49.83,49.83,0,0,1-350,1706.57Zm1.63-17a36.42,36.42,0,0,0,18.33-4.66,33.67,33.67,0,0,0,13-13.27,40.64,40.64,0,0,0,4.76-20q0-11.55-4.76-20a34.07,34.07,0,0,0-13-13.07A36.53,36.53,0,0,0-348.4,1614a36.38,36.38,0,0,0-18.44,4.66,34.92,34.92,0,0,0-13,13.07q-4.86,8.41-4.86,20a39.93,39.93,0,0,0,4.86,20,34.48,34.48,0,0,0,13,13.27A36.28,36.28,0,0,0-348.4,1689.55Zm36.67,15.8v-29l1.21-24.92-2-24.93V1555h19.45v150.34Z" transform="translate(1437.31 -1275)"/><path class="cls-1" d="M-199.08,1706.57a57.64,57.64,0,0,1-28.67-7.1,52.27,52.27,0,0,1-20-19.55,54.9,54.9,0,0,1-7.29-28.26q0-16,7.29-28.27A53,53,0,0,1-227.85,1604q12.56-7.08,28.77-7.09a58.35,58.35,0,0,1,28.67,7,51.07,51.07,0,0,1,19.85,19.35q7.2,12.36,7.2,28.37t-7.2,28.36a51.74,51.74,0,0,1-19.85,19.45A57.66,57.66,0,0,1-199.08,1706.57Zm0-17a36.84,36.84,0,0,0,18.54-4.66,33,33,0,0,0,12.86-13.27,41.27,41.27,0,0,0,4.66-20q0-11.55-4.66-20a33.33,33.33,0,0,0-12.86-13.07,36.94,36.94,0,0,0-18.54-4.66,36.38,36.38,0,0,0-18.44,4.66,35.07,35.07,0,0,0-13,13.07q-4.86,8.41-4.86,20a39.93,39.93,0,0,0,4.86,20,34.62,34.62,0,0,0,13,13.27A36.28,36.28,0,0,0-199.08,1689.55Z" transform="translate(1437.31 -1275)"/><path d="M-22.23,1627.57a36.44,36.44,0,0,1,16.64,3.63,26.11,26.11,0,0,1,11.27,11q4.07,7.43,4.07,18.76v44.34h-14v-42.74q0-11.2-5.45-16.87T-25,1640.07A27.34,27.34,0,0,0-37.93,1643a19.92,19.92,0,0,0-8.51,8.58q-3,5.67-3,14.1v39.69h-14v-77.06H-50v20.8l-2.18-5.53a26.78,26.78,0,0,1,11.63-11.78A38.14,38.14,0,0,1-22.23,1627.57Z" transform="translate(1437.31 -1275)"/><path d="M66.16,1706.22a36.41,36.41,0,0,1-15-2.91,23,23,0,0,1-10-8.06,20.47,20.47,0,0,1-3.48-11.71,22,22,0,0,1,3-11.34q3-5.09,9.74-8.14t18.24-3H93.06v10H69.21c-7,0-11.68,1.16-14.1,3.49a11.26,11.26,0,0,0-3.63,8.43,10.85,10.85,0,0,0,4.5,9.09q4.52,3.42,12.51,3.41A26.43,26.43,0,0,0,82.23,1692a19.8,19.8,0,0,0,8.5-10.17l2.76,9.59a21.62,21.62,0,0,1-9.74,10.83Q76.77,1706.23,66.16,1706.22Zm25.3-.87v-16.28l-.73-3.06v-27.76q0-8.88-5.16-13.74t-15.48-4.87a40.86,40.86,0,0,0-13.38,2.25,34.38,34.38,0,0,0-11.05,6l-5.81-10.46a42.07,42.07,0,0,1,14.32-7.35,60,60,0,0,1,17.52-2.54q15.84,0,24.42,7.7t8.58,23.56v46.52Z" transform="translate(1437.31 -1275)"/><path d="M226.81,1627.57a36.51,36.51,0,0,1,16.65,3.63,26.09,26.09,0,0,1,11.26,11q4.08,7.43,4.08,18.76v44.34h-14v-42.74q0-11.2-5.45-16.87t-15.34-5.67a27.38,27.38,0,0,0-12.94,2.91,19.92,19.92,0,0,0-8.51,8.58q-3,5.67-3,14.1v39.69h-14V1597.47h14v51.62l-2.76-5.53a26.83,26.83,0,0,1,11.63-11.78A38.17,38.17,0,0,1,226.81,1627.57Z" transform="translate(1437.31 -1275)"/><path d="M325.67,1706.22a41.28,41.28,0,0,1-20.57-5.09,37.54,37.54,0,0,1-14.32-14,39.38,39.38,0,0,1-5.23-20.28,38.92,38.92,0,0,1,5.23-20.28A38.05,38.05,0,0,1,305,1632.66a41.28,41.28,0,0,1,20.64-5.09,41.85,41.85,0,0,1,20.57,5,36.73,36.73,0,0,1,14.25,13.89,42.73,42.73,0,0,1,0,40.71,37.16,37.16,0,0,1-14.25,14A41.26,41.26,0,0,1,325.67,1706.22Zm0-12.21a26.47,26.47,0,0,0,13.31-3.34,23.67,23.67,0,0,0,9.23-9.53,29.61,29.61,0,0,0,3.34-14.32,29.12,29.12,0,0,0-3.34-14.32,23.9,23.9,0,0,0-9.23-9.37,26.48,26.48,0,0,0-13.31-3.35,26.07,26.07,0,0,0-13.23,3.35,25,25,0,0,0-9.3,9.37,28.11,28.11,0,0,0-3.49,14.32,28.58,28.58,0,0,0,3.49,14.32,24.78,24.78,0,0,0,9.3,9.53A26.07,26.07,0,0,0,325.67,1694Z" transform="translate(1437.31 -1275)"/><path d="M393,1705.35v-77.06h13.37v20.94l-1.31-5.23a23.72,23.72,0,0,1,10.76-12.22q7.56-4.21,18.61-4.21v13.52a9.86,9.86,0,0,0-1.67-.15h-1.53q-11.19,0-17.74,6.69T406.94,1667v38.38Z" transform="translate(1437.31 -1275)"/><path d="M476.44,1706.22a36.37,36.37,0,0,1-15.05-2.91,23,23,0,0,1-10-8.06,20.41,20.41,0,0,1-3.49-11.71,22,22,0,0,1,3-11.34q3-5.09,9.74-8.14t18.25-3h24.42v10H479.49q-10.47,0-14.1,3.49a11.24,11.24,0,0,0-3.64,8.43,10.84,10.84,0,0,0,4.51,9.09q4.5,3.42,12.5,3.41A26.38,26.38,0,0,0,492.5,1692,19.82,19.82,0,0,0,501,1681.8l2.76,9.59a21.67,21.67,0,0,1-9.74,10.83Q487.06,1706.23,476.44,1706.22Zm25.29-.87v-16.28L501,1686v-27.76q0-8.88-5.16-13.74t-15.49-4.87a40.84,40.84,0,0,0-13.37,2.25,34.27,34.27,0,0,0-11.05,6l-5.82-10.46a42.25,42.25,0,0,1,14.32-7.35,60,60,0,0,1,17.52-2.54q15.84,0,24.43,7.7t8.57,23.56v46.52Z" transform="translate(1437.31 -1275)"/><path d="M627.78,1706.22a40,40,0,0,1-20-4.94,36.18,36.18,0,0,1-13.88-13.81,44.27,44.27,0,0,1,0-41.22,36.41,36.41,0,0,1,13.88-13.74,40.14,40.14,0,0,1,20-4.94,35.57,35.57,0,0,1,17.59,4.36A31.86,31.86,0,0,1,658,1645q4.72,8.73,4.72,21.81t-4.58,21.81a31.37,31.37,0,0,1-12.43,13.16A35.66,35.66,0,0,1,627.78,1706.22Zm1.16-12.21a26.15,26.15,0,0,0,13.16-3.34,24.12,24.12,0,0,0,9.31-9.53,29.19,29.19,0,0,0,3.41-14.32,28.71,28.71,0,0,0-3.41-14.32,24.37,24.37,0,0,0-9.31-9.37,27.66,27.66,0,0,0-26.39,0,25.12,25.12,0,0,0-9.3,9.37,28.11,28.11,0,0,0-3.49,14.32,28.58,28.58,0,0,0,3.49,14.32,24.85,24.85,0,0,0,9.3,9.53A26.07,26.07,0,0,0,628.94,1694Zm26.32,11.34v-20.79l.87-17.88-1.45-17.89v-51.32h14v107.88Z" transform="translate(1437.31 -1275)"/><path d="M737.4,1706.22a44.75,44.75,0,0,1-21.73-5.09,36.59,36.59,0,0,1-14.54-14,39.73,39.73,0,0,1-5.16-20.36,40.66,40.66,0,0,1,5-20.35,36.34,36.34,0,0,1,13.81-13.89,39.4,39.4,0,0,1,19.85-5,38.94,38.94,0,0,1,19.77,4.94,35,35,0,0,1,13.45,13.89,42.89,42.89,0,0,1,4.87,20.86c0,.58,0,1.26-.07,2s-.13,1.51-.22,2.18H706.87v-10h58.3l-5.67,3.49a26,26,0,0,0-3-13.23,23.43,23.43,0,0,0-8.8-9.08,27.3,27.3,0,0,0-25.95,0,23,23,0,0,0-8.87,9.16,27.7,27.7,0,0,0-3.2,13.44v2.33a26.54,26.54,0,0,0,3.56,13.74,24.56,24.56,0,0,0,10,9.38,31.25,31.25,0,0,0,14.69,3.34,32,32,0,0,0,12.43-2.33,27.21,27.21,0,0,0,9.81-7l7.71,9a33.72,33.72,0,0,1-13,9.3A45.1,45.1,0,0,1,737.4,1706.22Z" transform="translate(1437.31 -1275)"/><path d="M869.26,1706.22a62.79,62.79,0,0,1-18.24-2.61q-8.65-2.62-13.59-6.4l5.81-11a47.64,47.64,0,0,0,12.21,5.67,48.42,48.42,0,0,0,14.83,2.33q9.74,0,14-2.77a8.68,8.68,0,0,0,4.29-7.7A6.77,6.77,0,0,0,886,1678a17.76,17.76,0,0,0-6.9-3.06c-2.86-.67-6-1.28-9.52-1.81s-7-1.21-10.47-2a41.22,41.22,0,0,1-9.6-3.49,18.09,18.09,0,0,1-7-6.25q-2.61-4-2.61-10.69a19.77,19.77,0,0,1,3.92-12.21,24.92,24.92,0,0,1,11.12-8.07,46.56,46.56,0,0,1,17.09-2.83,66.84,66.84,0,0,1,15.34,1.82,38.13,38.13,0,0,1,12.72,5.16l-6,11a32.85,32.85,0,0,0-10.91-4.8,50.42,50.42,0,0,0-11.34-1.31q-9.15,0-13.66,3t-4.51,7.63a7.21,7.21,0,0,0,2.69,6,19.6,19.6,0,0,0,7,3.27,86.38,86.38,0,0,0,9.52,2q5.24.8,10.47,2a42.43,42.43,0,0,1,9.52,3.41,18.55,18.55,0,0,1,7,6.11q2.68,3.93,2.69,10.47a18.73,18.73,0,0,1-4.07,12.06,26.35,26.35,0,0,1-11.49,7.93A49.67,49.67,0,0,1,869.26,1706.22Z" transform="translate(1437.31 -1275)"/><path d="M962.31,1706.22a44.75,44.75,0,0,1-21.73-5.09,36.59,36.59,0,0,1-14.54-14,39.73,39.73,0,0,1-5.16-20.36,40.66,40.66,0,0,1,5-20.35,36.34,36.34,0,0,1,13.81-13.89,39.4,39.4,0,0,1,19.85-5,38.94,38.94,0,0,1,19.77,4.94,35,35,0,0,1,13.45,13.89,43,43,0,0,1,4.87,20.86c0,.58,0,1.26-.07,2s-.13,1.51-.22,2.18H931.78v-10h58.3l-5.67,3.49a26,26,0,0,0-3-13.23,23.43,23.43,0,0,0-8.8-9.08,27.3,27.3,0,0,0-25.95,0,23,23,0,0,0-8.87,9.16,27.7,27.7,0,0,0-3.2,13.44v2.33a26.54,26.54,0,0,0,3.56,13.74,24.56,24.56,0,0,0,10,9.38,31.25,31.25,0,0,0,14.69,3.34,32,32,0,0,0,12.43-2.33,27.21,27.21,0,0,0,9.81-7l7.71,9a33.72,33.72,0,0,1-13,9.3A45.1,45.1,0,0,1,962.31,1706.22Z" transform="translate(1437.31 -1275)"/><path d="M1092.28,1705.35l-33.72-77.06h14.53l30,69.79h-7l30.54-69.79h13.66l-33.73,77.06Z" transform="translate(1437.31 -1275)"/><path d="M1193.47,1706.22a44.75,44.75,0,0,1-21.73-5.09,36.59,36.59,0,0,1-14.54-14,39.73,39.73,0,0,1-5.16-20.36,40.66,40.66,0,0,1,5-20.35,36.34,36.34,0,0,1,13.81-13.89,39.4,39.4,0,0,1,19.85-5,38.94,38.94,0,0,1,19.77,4.94,35,35,0,0,1,13.45,13.89,42.89,42.89,0,0,1,4.87,20.86c0,.58,0,1.26-.07,2s-.13,1.51-.22,2.18h-65.57v-10h58.3l-5.67,3.49a26,26,0,0,0-3-13.23,23.43,23.43,0,0,0-8.8-9.08,27.3,27.3,0,0,0-26,0,23,23,0,0,0-8.87,9.16,27.7,27.7,0,0,0-3.2,13.44v2.33a26.54,26.54,0,0,0,3.56,13.74,24.56,24.56,0,0,0,10,9.38,31.25,31.25,0,0,0,14.69,3.34,31.94,31.94,0,0,0,12.43-2.33,27.21,27.21,0,0,0,9.81-7l7.71,9a33.72,33.72,0,0,1-13,9.3A45.1,45.1,0,0,1,1193.47,1706.22Z" transform="translate(1437.31 -1275)"/><path d="M1278.23,1706.22a62.74,62.74,0,0,1-18.24-2.61q-8.65-2.62-13.6-6.4l5.82-11a47.48,47.48,0,0,0,12.21,5.67,48.38,48.38,0,0,0,14.83,2.33q9.74,0,14-2.77a8.68,8.68,0,0,0,4.29-7.7A6.8,6.8,0,0,0,1295,1678,17.81,17.81,0,0,0,1288,1675c-2.86-.67-6-1.28-9.52-1.81s-7-1.21-10.47-2a41.14,41.14,0,0,1-9.59-3.49,18,18,0,0,1-7-6.25q-2.61-4-2.62-10.69a19.78,19.78,0,0,1,3.93-12.21,24.87,24.87,0,0,1,11.12-8.07,46.54,46.54,0,0,1,17.08-2.83,66.77,66.77,0,0,1,15.34,1.82,38,38,0,0,1,12.72,5.16l-6,11a32.8,32.8,0,0,0-10.9-4.8,50.42,50.42,0,0,0-11.34-1.31q-9.16,0-13.67,3t-4.51,7.63a7.24,7.24,0,0,0,2.69,6,19.69,19.69,0,0,0,7,3.27,87.07,87.07,0,0,0,9.53,2q5.22.8,10.46,2a42.52,42.52,0,0,1,9.53,3.41,18.52,18.52,0,0,1,7,6.11q2.7,3.93,2.69,10.47a18.67,18.67,0,0,1-4.07,12.06,26.26,26.26,0,0,1-11.48,7.93A49.75,49.75,0,0,1,1278.23,1706.22Z" transform="translate(1437.31 -1275)"/><path d="M1325.92,1639.78v-11.49h49.14v11.49Zm37.51,66.44q-11.64,0-18-6.25t-6.4-17.88v-70.66h14v70.08q0,6.24,3.12,9.59t8.94,3.35a16.43,16.43,0,0,0,10.91-3.64l4.36,10a20.3,20.3,0,0,1-7.63,4.07A32.23,32.23,0,0,1,1363.43,1706.22Z" transform="translate(1437.31 -1275)"/><path d="M1412.13,1613.47a9.31,9.31,0,0,1-6.76-2.62,8.57,8.57,0,0,1-2.69-6.4,8.71,8.71,0,0,1,2.69-6.54,9.31,9.31,0,0,1,6.76-2.62,9.45,9.45,0,0,1,6.76,2.55,8.34,8.34,0,0,1,2.69,6.32,9.08,9.08,0,0,1-9.45,9.31Zm-7,91.88v-77.06h14v77.06Z" transform="translate(1437.31 -1275)"/><path d="M1453.71,1705.35v-77.06h13.37v20.94l-1.31-5.23a23.72,23.72,0,0,1,10.76-12.22q7.56-4.21,18.61-4.21v13.52a9.86,9.86,0,0,0-1.67-.15h-1.53q-11.19,0-17.73,6.69t-6.55,19.34v38.38Z" transform="translate(1437.31 -1275)"/><path d="M1523.2,1706.22a9.8,9.8,0,0,1-9.89-10,9.37,9.37,0,0,1,2.91-7.12,9.8,9.8,0,0,1,7-2.77,9.36,9.36,0,0,1,6.76,2.77,9.5,9.5,0,0,1,2.84,7.12,9.76,9.76,0,0,1-2.84,7.2A9.22,9.22,0,0,1,1523.2,1706.22Zm33.73,0a9.8,9.8,0,0,1-9.89-10,9.37,9.37,0,0,1,2.91-7.12,9.78,9.78,0,0,1,7-2.77,9.36,9.36,0,0,1,6.76,2.77,9.49,9.49,0,0,1,2.83,7.12,9.75,9.75,0,0,1-2.83,7.2A9.22,9.22,0,0,1,1556.93,1706.22Zm33.73,0a9.8,9.8,0,0,1-9.89-10,9.37,9.37,0,0,1,2.91-7.12,9.78,9.78,0,0,1,7-2.77,9.36,9.36,0,0,1,6.76,2.77,9.49,9.49,0,0,1,2.83,7.12,9.75,9.75,0,0,1-2.83,7.2A9.22,9.22,0,0,1,1590.66,1706.22Z" transform="translate(1437.31 -1275)"/></g></g></g></svg>