<svg xmlns="http://www.w3.org/2000/svg" viewBox="0 0 3668.64 1550.12"><defs><style>.cls-1{fill:#fff;}.cls-2{fill:#211915;}</style></defs><title>1</title><g id="Camada_2" data-name="Camada 2"><g id="Camada_1-2" data-name="Camada 1"><g id="DESKTOP1"><rect y="255.21" width="2313.09" height="326.62"/><rect width="1459.67" height="326.62"/><path class="cls-1" d="M129.7,247.13,84.57,120.37h34.18L156.2,229.45H139.69l39.05-109.1h30.92l37.69,109.09H231.54l38.34-109.1H302L256.65,247.11H221.77l-33.49-93.53h10.46l-33.93,93.54Z"/><path class="cls-1" d="M377.56,249q-21.4,0-37.44-8.47a62.2,62.2,0,0,1-24.88-23.21q-8.85-14.72-8.84-33.57t8.48-33.7a60.09,60.09,0,0,1,23.71-23.21q15.23-8.37,34.29-8.37a68.48,68.48,0,0,1,33.14,8,59.77,59.77,0,0,1,23.37,22.62q8.6,14.61,8.61,35.11c0,1.41-.08,3-.23,4.83s-.31,3.49-.47,5.06l-101.61,0V172.64l82.54,0L404.05,179a34,34,0,0,0-3.72-17.2,29.12,29.12,0,0,0-10.93-11.43,31.49,31.49,0,0,0-16.28-4.12,32,32,0,0,0-16.39,4.13,28.58,28.58,0,0,0-11,11.55,36.75,36.75,0,0,0-3.95,17.55v5.65a35.13,35.13,0,0,0,4.65,18.38,30.79,30.79,0,0,0,12.79,11.9q8.15,4.13,19.53,4.12A45.72,45.72,0,0,0,396,216.45a42.7,42.7,0,0,0,13.83-9.19l19.3,21.2a56.23,56.23,0,0,1-21.62,15.21Q394.53,249,377.56,249Z"/><path class="cls-1" d="M566.59,248.94q-14.43,0-24.88-5.06a39.16,39.16,0,0,1-16.17-13.78,35,35,0,0,1-5.7-19.56,35.82,35.82,0,0,1,5.47-19.67q5.45-8.61,17.32-13.32t31.15-4.72h33V194H577.51q-12.79,0-17.56,4.24a13.61,13.61,0,0,0-4.76,10.61,13.28,13.28,0,0,0,5.46,11.19q5.46,4.13,14.77,4.12A32.52,32.52,0,0,0,592,220a23.08,23.08,0,0,0,10.35-13l5.58,17.2a33.32,33.32,0,0,1-14.41,18.27Q583.09,248.94,566.59,248.94Zm38.13-1.89V222.31l-2.32-5.42v-44.3q0-11.78-7.09-18.37t-21.75-6.6a62.09,62.09,0,0,0-19.64,3.19,54.78,54.78,0,0,0-16.63,8.6l-12.79-25.68a73.07,73.07,0,0,1,24.65-11.43,112.07,112.07,0,0,1,29.29-3.9q28.61,0,44.41,13.66t15.82,42.65l0,72.33Z"/><path class="cls-1" d="M671.45,247l0-126.77h34.64v36.05l-4.89-10.6a40.54,40.54,0,0,1,17.9-20.39q12.33-6.94,30-7v34.16c-1.39-.31-2.75-.55-4.07-.71a34,34,0,0,0-3.84-.23q-15.34,0-24.41,8.72t-9.06,26.86V247Z"/><path class="cls-1" d="M831.65,248.9q-21.39,0-37.43-8.48a62.16,62.16,0,0,1-24.89-23.21q-8.83-14.72-8.84-33.57T769,150a60.11,60.11,0,0,1,23.71-23.22,70.13,70.13,0,0,1,34.3-8.37,68.34,68.34,0,0,1,33.13,8A59.77,59.77,0,0,1,883.49,149q8.6,14.61,8.6,35.11c0,1.41-.08,3-.23,4.83s-.31,3.5-.46,5.07H789.79V172.56h82.54l-14.18,6.36a33.89,33.89,0,0,0-3.73-17.2,29.09,29.09,0,0,0-10.93-11.42,31.28,31.28,0,0,0-16.27-4.12,32,32,0,0,0-16.39,4.12,28.67,28.67,0,0,0-11.05,11.55,36.9,36.9,0,0,0-3.95,17.55v5.66a35.16,35.16,0,0,0,4.66,18.38,30.77,30.77,0,0,0,12.79,11.89q8.13,4.13,19.53,4.12a45.86,45.86,0,0,0,17.32-3.06,42.52,42.52,0,0,0,13.83-9.2l19.31,21.21a56.35,56.35,0,0,1-21.62,15.2Q848.62,248.89,831.65,248.9Z"/><path class="cls-1" d="M1058.09,118.32a57.59,57.59,0,0,1,26.63,6,43.33,43.33,0,0,1,18.49,18.37q6.74,12.38,6.74,31.69l0,72.57h-36.28V180.05q0-15.31-6.63-22.62t-18.72-7.3a31.49,31.49,0,0,0-15.46,3.78A26.16,26.16,0,0,0,1022.18,165q-3.84,7.31-3.83,19.32V247H982.08l0-126.76h34.65v35.11l-6.51-10.6a46.67,46.67,0,0,1,19.3-19.56Q1042.05,118.32,1058.09,118.32Z"/><path class="cls-1" d="M1203,248.83q-19.77,0-35.23-8.47a63.23,63.23,0,0,1-24.3-23.21q-8.84-14.72-8.84-33.57,0-19.1,8.83-33.82a62.41,62.41,0,0,1,24.29-23.09q15.46-8.37,35.23-8.37,20,0,35.57,8.36a62.12,62.12,0,0,1,24.42,23.08q8.83,14.73,8.84,33.81t-8.83,33.7a63.26,63.26,0,0,1-24.41,23.09Q1223,248.83,1203,248.83Zm0-30.16a32,32,0,0,0,16.4-4.12,30.16,30.16,0,0,0,11.39-12.14,39.35,39.35,0,0,0,4.3-18.85q0-11.07-4.31-18.85a30.53,30.53,0,0,0-11.39-11.9,31.69,31.69,0,0,0-16.16-4.12,32.17,32.17,0,0,0-16.28,4.13,30.2,30.2,0,0,0-11.51,11.9q-4.31,7.77-4.3,18.85a39.35,39.35,0,0,0,4.31,18.85,29.74,29.74,0,0,0,11.51,12.13A31.69,31.69,0,0,0,1203,218.67Z"/><path class="cls-1" d="M1281.08,151.27V123l86.73,0v28.28Zm66.05,97.54q-22.1,0-34.42-11.42t-12.33-34V92.13h36.5l0,110.51q0,8,4.07,12.48c2.71,3,6.4,4.48,11,4.48a23.47,23.47,0,0,0,14.89-4.72l9.53,25.92a36.92,36.92,0,0,1-13.13,6A64.46,64.46,0,0,1,1347.13,248.81Z"/><path class="cls-1" d="M101.15,533.22l0-172.47h34.64v25.92l-.69,37.7,2.33,37.47v71.39Zm73.7-43.83q-15.58,0-27.44-7.07t-18.49-21.55q-6.63-14.49-6.63-36.64,0-22.38,6.27-36.76t18.25-21.44q12-7.08,28-7.08,17.91,0,32,8.13a59.46,59.46,0,0,1,22.32,22.73q8.25,14.61,8.26,34.4,0,20-8.25,34.52a59.76,59.76,0,0,1-22.31,22.62Q192.75,489.38,174.85,489.39Zm-6-30.16a30.19,30.19,0,0,0,27.55-16.38,38.57,38.57,0,0,0,4.29-18.74q0-11.07-4.3-18.84a30.42,30.42,0,0,0-11.4-11.9,31.54,31.54,0,0,0-16.16-4.12,32.25,32.25,0,0,0-16.27,4.12A30.22,30.22,0,0,0,141,405.28q-4.31,7.77-4.3,18.85,0,10.83,4.31,18.73A30.83,30.83,0,0,0,152.52,455,31.45,31.45,0,0,0,168.8,459.23Z"/><path class="cls-1" d="M261.57,487.49l0-126.77h34.64v36l-4.88-10.61a40.52,40.52,0,0,1,17.9-20.38q12.31-6.94,30-7V393c-1.39-.31-2.75-.55-4.06-.71a34,34,0,0,0-3.84-.23q-15.35,0-24.41,8.72t-9.07,26.86v59.85Z"/><path class="cls-1" d="M379,343q-10.25,0-16.51-5.89a20.13,20.13,0,0,1,0-29.21Q368.74,302,379,302q10,0,16.39,5.54a18,18,0,0,1,6.4,14.25,20.13,20.13,0,0,1-6.28,15.2Q389.2,343,379,343ZM360.85,487.47l0-126.76h36.28l0,126.76Z"/><path class="cls-1" d="M506.85,358.8a57.54,57.54,0,0,1,26.62,6A43.25,43.25,0,0,1,552,383.18q6.75,12.36,6.75,31.68v72.58H522.45V420.53q0-15.31-6.63-22.62t-18.72-7.3a31.57,31.57,0,0,0-15.46,3.77,26.15,26.15,0,0,0-10.7,11.08q-3.82,7.31-3.83,19.32v62.67H430.84l0-126.77h34.64V395.8L459,385.19a46.65,46.65,0,0,1,19.29-19.56Q490.81,358.8,506.85,358.8Z"/><path class="cls-1" d="M652.89,489.3q-20.24,0-35.93-8.35a62.57,62.57,0,0,1-24.65-23.21q-9-14.83-8.95-33.69,0-19.08,8.94-33.7a64.05,64.05,0,0,1,24.64-23.09q15.7-8.49,35.93-8.49,19.75,0,34.53,8.36a48.34,48.34,0,0,1,21.27,23.68l-27.89,15.55q-5.13-9-12.33-13.07a31.29,31.29,0,0,0-15.81-4.12,33.57,33.57,0,0,0-16.51,4.12,30.56,30.56,0,0,0-11.86,11.9Q619.86,413,619.86,424t4.42,19a30.2,30.2,0,0,0,11.86,12,33.49,33.49,0,0,0,16.51,4.13A31.3,31.3,0,0,0,668.46,455q7.2-4.12,12.32-13.31l27.91,15.54a49.07,49.07,0,0,1-21.28,23.57Q672.65,489.3,652.89,489.3Z"/><path class="cls-1" d="M790.3,489.28q-21.39,0-37.43-8.47A62.3,62.3,0,0,1,728,457.6q-8.84-14.72-8.84-33.57t8.48-33.7a60,60,0,0,1,23.72-23.21q15.23-8.37,34.29-8.37a68.51,68.51,0,0,1,33.14,8,59.77,59.77,0,0,1,23.37,22.62q8.6,14.61,8.61,35.11,0,2.11-.24,4.83c-.15,1.8-.31,3.49-.46,5.06l-101.61,0V413l82.54,0L816.8,419.3a33.89,33.89,0,0,0-3.73-17.2,29,29,0,0,0-10.93-11.43,31.45,31.45,0,0,0-16.27-4.12,32,32,0,0,0-16.39,4.13,28.67,28.67,0,0,0-11.05,11.55,36.87,36.87,0,0,0-3.95,17.55v5.65a35.13,35.13,0,0,0,4.65,18.38,30.79,30.79,0,0,0,12.79,11.9q8.13,4.13,19.53,4.12a45.66,45.66,0,0,0,17.32-3.07,42.63,42.63,0,0,0,13.84-9.19l19.3,21.2A56.3,56.3,0,0,1,820.3,484Q807.27,489.28,790.3,489.28Z"/><path class="cls-1" d="M917,489.26a119.28,119.28,0,0,1-30.69-3.88q-14.66-3.88-23.49-9.78l11.86-26.15A90.44,90.44,0,0,0,895.28,458a82.41,82.41,0,0,0,23.13,3.42q12.55,0,17.79-3.07t5.23-8.48a7.25,7.25,0,0,0-4.07-6.72,35.35,35.35,0,0,0-10.7-3.41q-6.63-1.18-14.76-2.36a143.27,143.27,0,0,1-16.16-3.29,62.18,62.18,0,0,1-14.88-6,29.28,29.28,0,0,1-10.93-10.72q-4.08-6.82-4.08-17.67a34.62,34.62,0,0,1,7-21.32q7-9.32,19.76-14.5t30.92-5.18a118.89,118.89,0,0,1,26.16,2.94,80,80,0,0,1,22.2,8.12L959.56,396a63.83,63.83,0,0,0-18-7.3A77.63,77.63,0,0,0,924,386.53q-12.56,0-18.14,3.3t-5.57,8.48a7.88,7.88,0,0,0,4.18,7.19,32.39,32.39,0,0,0,10.93,3.65c4.5.79,9.45,1.57,14.88,2.35a140.51,140.51,0,0,1,16,3.3,62.79,62.79,0,0,1,14.76,6A29.5,29.5,0,0,1,972,431.52q4.07,6.84,4.07,17.67a32.86,32.86,0,0,1-7,20.62q-7,9.07-20.11,14.26T917,489.26Z"/><path class="cls-1" d="M1040.48,489.24a119.28,119.28,0,0,1-30.69-3.88q-14.64-3.89-23.48-9.78l11.85-26.15a90.44,90.44,0,0,0,20.58,8.59,82.41,82.41,0,0,0,23.13,3.42q12.57,0,17.79-3.07t5.23-8.48a7.24,7.24,0,0,0-4.07-6.72,35.09,35.09,0,0,0-10.69-3.41q-6.63-1.18-14.77-2.36a143.27,143.27,0,0,1-16.16-3.29,62.59,62.59,0,0,1-14.88-6,29.28,29.28,0,0,1-10.93-10.72q-4.08-6.83-4.07-17.67a34.55,34.55,0,0,1,7-21.32q7-9.31,19.76-14.5T1047,358.7a118.91,118.91,0,0,1,26.16,2.95,80.11,80.11,0,0,1,22.21,8.12L1083,395.93a64.11,64.11,0,0,0-18-7.31,78.32,78.32,0,0,0-17.56-2.11q-12.56,0-18.13,3.3t-5.58,8.48a7.88,7.88,0,0,0,4.18,7.19,32.47,32.47,0,0,0,10.93,3.65q6.75,1.19,14.88,2.35a140.06,140.06,0,0,1,16,3.3,62.62,62.62,0,0,1,14.76,6,29.42,29.42,0,0,1,10.93,10.72q4.07,6.84,4.08,17.67a32.92,32.92,0,0,1-7,20.62q-7,9.07-20.11,14.26T1040.48,489.24Z"/><path class="cls-1" d="M1226.26,489.21q-14.43,0-24.88-5.06a39.07,39.07,0,0,1-16.16-13.78,34.88,34.88,0,0,1-5.7-19.56,35.79,35.79,0,0,1,5.46-19.68q5.46-8.6,17.32-13.31t31.15-4.72h33v21.2h-29.29q-12.79,0-17.56,4.24a13.59,13.59,0,0,0-4.76,10.6,13.29,13.29,0,0,0,5.46,11.2q5.46,4.11,14.77,4.12a32.62,32.62,0,0,0,16.62-4.25,23.15,23.15,0,0,0,10.35-13l5.58,17.2a33.3,33.3,0,0,1-14.41,18.26Q1242.76,489.22,1226.26,489.21Zm38.13-1.89V462.58l-2.32-5.42v-44.3q0-11.78-7.09-18.38t-21.74-6.59a62.37,62.37,0,0,0-19.65,3.18,54.74,54.74,0,0,0-16.62,8.61L1184.15,374a73.28,73.28,0,0,1,24.65-11.44,112.06,112.06,0,0,1,29.29-3.89q28.61,0,44.42,13.66T1298.32,415l0,72.34Z"/><path class="cls-1" d="M1407.13,358.64a57.55,57.55,0,0,1,26.62,6A43.28,43.28,0,0,1,1452.24,383q6.73,12.38,6.75,31.69v72.57h-36.27V420.37q0-15.31-6.63-22.62t-18.72-7.3a31.47,31.47,0,0,0-15.46,3.78,26.12,26.12,0,0,0-10.7,11.07q-3.82,7.31-3.83,19.32V487.3h-36.27l0-126.76h34.64v35.1l-6.52-10.6a46.73,46.73,0,0,1,19.3-19.56Q1391.09,358.66,1407.13,358.64Z"/><path class="cls-1" d="M1505.28,534.87a62.1,62.1,0,0,1-19.07-3.06,44.79,44.79,0,0,1-15.81-8.48l13.25-26.39a28.83,28.83,0,0,0,9.65,6.12,30.14,30.14,0,0,0,11,2.12q7.44,0,12-3.65t8.25-12.14l6.51-15.55,2.79-4L1579,360.5h34.64L1557.12,495q-6,15.56-13.83,24.16a44.2,44.2,0,0,1-17.2,12.13A58.75,58.75,0,0,1,1505.28,534.87Zm21.38-42.65-55.59-131.7h37.2l43.5,106.26Z"/><path class="cls-1" d="M1788.68,358.58q14.88,0,26.39,6a42.3,42.3,0,0,1,18,18.38q6.51,12.36,6.52,31.69v72.57h-36.27V420.31q0-15.31-6.17-22.62t-17.32-7.3a28.2,28.2,0,0,0-14.42,3.65,23.85,23.85,0,0,0-9.64,10.84q-3.37,7.2-3.37,18.74v63.61h-36.27V420.32q0-15.31-6.17-22.62t-17.79-7.3a27.61,27.61,0,0,0-14.18,3.66,24.48,24.48,0,0,0-9.76,10.84q-3.49,7.19-3.49,18.73v63.62H1628.5l0-126.76h34.64v34.41l-6.51-9.9A43.61,43.61,0,0,1,1675,365.31a55,55,0,0,1,27.21-6.72q17.19,0,30.22,8.83t17.21,27l-12.79-3.53a51.66,51.66,0,0,1,20-23.45Q1770.54,358.58,1788.68,358.58Z"/><path class="cls-1" d="M1932.63,489.09q-19.77,0-35.23-8.48a63.21,63.21,0,0,1-24.3-23.2q-8.85-14.73-8.84-33.58,0-19.08,8.83-33.81a62.29,62.29,0,0,1,24.29-23.1q15.46-8.35,35.22-8.37,20,0,35.58,8.36A62.28,62.28,0,0,1,1992.6,390q8.84,14.73,8.84,33.81t-8.83,33.69a63.29,63.29,0,0,1-24.41,23.1Q1952.61,489.09,1932.63,489.09Zm0-30.16A32,32,0,0,0,1949,454.8a30.06,30.06,0,0,0,11.39-12.13,39.28,39.28,0,0,0,4.3-18.86q0-11.07-4.3-18.84a30.42,30.42,0,0,0-11.4-11.9,31.54,31.54,0,0,0-16.16-4.12,32.25,32.25,0,0,0-16.27,4.12A30.16,30.16,0,0,0,1905.06,405q-4.3,7.77-4.3,18.85a39.15,39.15,0,0,0,4.31,18.85,29.73,29.73,0,0,0,11.51,12.13A31.69,31.69,0,0,0,1932.62,458.93Z"/><path class="cls-1" d="M2025.63,487.19l0-126.77h34.64v36.05l-4.89-10.61a40.61,40.61,0,0,1,17.9-20.38q12.33-6.94,30-7v34.17c-1.39-.31-2.75-.55-4.07-.71a33.74,33.74,0,0,0-3.83-.23q-15.35,0-24.41,8.72t-9.07,26.86v59.85Z"/><path class="cls-1" d="M2185.83,489q-21.39,0-37.43-8.47a62.14,62.14,0,0,1-24.88-23.21q-8.85-14.72-8.85-33.57t8.49-33.7a60,60,0,0,1,23.71-23.21,70.09,70.09,0,0,1,34.29-8.37,68.38,68.38,0,0,1,33.14,8,59.81,59.81,0,0,1,23.37,22.61q8.6,14.61,8.61,35.11c0,1.41-.08,3-.23,4.83s-.32,3.5-.47,5.06l-101.61,0V412.71h82.54l-14.18,6.36a34,34,0,0,0-3.72-17.2,29,29,0,0,0-10.93-11.42,31.39,31.39,0,0,0-16.28-4.13,32.08,32.08,0,0,0-16.39,4.13A28.58,28.58,0,0,0,2154,402a36.78,36.78,0,0,0-3.95,17.55v5.66a35.16,35.16,0,0,0,4.65,18.38,30.77,30.77,0,0,0,12.79,11.89q8.14,4.13,19.53,4.12a45.82,45.82,0,0,0,17.32-3.06,42.67,42.67,0,0,0,13.84-9.2l19.3,21.21a56.28,56.28,0,0,1-21.62,15.2Q2202.81,489,2185.83,489Z"/></g><g id="DESKTOP2"><path class="cls-1" d="M482.4,1303.37q-15.27,0-26.95-5.84a41.33,41.33,0,0,1-18.18-18q-6.51-12.13-6.51-30.54v-68.26h35v62.87q0,15.27,6.4,22.35t18.07,7.07a28.39,28.39,0,0,0,14.37-3.59,25.43,25.43,0,0,0,10-10.78q3.71-7.18,3.7-18v-60h34.81l0,120.8H519.9v-33.46L526,1278a42.85,42.85,0,0,1-18,19A52.47,52.47,0,0,1,482.4,1303.37Z"/><path class="cls-1" d="M740.42,1179a54.84,54.84,0,0,1,25.48,5.73,40.55,40.55,0,0,1,17.4,17.52q6.29,11.79,6.29,30.2v69.16h-35v-63.77q0-14.6-5.95-21.56t-16.73-7a27.55,27.55,0,0,0-13.92,3.47,22.92,22.92,0,0,0-9.32,10.33q-3.25,6.86-3.26,17.85v60.63h-35v-63.77q0-14.6-6-21.56t-17.17-7a27,27,0,0,0-13.7,3.48,23.46,23.46,0,0,0-9.43,10.32q-3.37,6.86-3.37,17.85v60.63h-35V1180.78h33.46v32.78l-6.29-9.43a41.85,41.85,0,0,1,17.74-18.75,53.8,53.8,0,0,1,26.27-6.4q16.62,0,29.19,8.43t16.62,25.71l-12.35-3.37a49.38,49.38,0,0,1,19.31-22.34Q722.9,1179,740.42,1179Z"/><path class="cls-1" d="M858.51,1303.41q-13.92,0-24-4.83a37.56,37.56,0,0,1-15.61-13.13,33,33,0,0,1-5.5-18.64,33.86,33.86,0,0,1,5.28-18.75q5.28-8.19,16.73-12.69t30.09-4.48h31.89v20.21H869.07q-12.35,0-17,4a12.88,12.88,0,0,0-4.61,10.1,12.6,12.6,0,0,0,5.28,10.67q5.28,3.93,14.26,3.93a31.81,31.81,0,0,0,16.05-4,22.09,22.09,0,0,0,10-12.35l5.38,16.39a31.71,31.71,0,0,1-13.92,17.4Q874.45,1303.42,858.51,1303.41Zm36.83-1.79v-23.57l-2.24-5.17v-42.21q0-11.24-6.85-17.52t-21-6.29a61.06,61.06,0,0,0-19,3,53.19,53.19,0,0,0-16,8.19l-12.35-24.47a71.2,71.2,0,0,1,23.8-10.89A109.66,109.66,0,0,1,870,1179q27.62,0,42.89,13t15.26,40.64v68.94Z"/><path class="cls-1" d="M1178.05,1179.05a54.85,54.85,0,0,1,25.49,5.73,40.61,40.61,0,0,1,17.4,17.52q6.27,11.79,6.28,30.2v69.16h-35v-63.77q0-14.6-6-21.55t-16.73-7a27.45,27.45,0,0,0-13.92,3.48,22.92,22.92,0,0,0-9.32,10.33Q1143,1230,1143,1241v60.63h-35v-63.78q0-14.58-6-21.55t-17.18-7a27.15,27.15,0,0,0-13.7,3.48,23.6,23.6,0,0,0-9.43,10.33q-3.37,6.85-3.37,17.85v60.63h-35l0-120.81h33.46v32.79l-6.28-9.43a41.75,41.75,0,0,1,17.74-18.75,53.69,53.69,0,0,1,26.27-6.4q16.62,0,29.19,8.43t16.61,25.71l-12.35-3.37a49.4,49.4,0,0,1,19.32-22.34Q1160.53,1179.05,1178.05,1179.05Z"/><path class="cls-1" d="M1296.15,1303.46q-13.94,0-24-4.83a37.55,37.55,0,0,1-15.6-13.14,33,33,0,0,1-5.5-18.63,33.84,33.84,0,0,1,5.28-18.75q5.27-8.19,16.73-12.69t30.09-4.48H1335v20.21h-28.29q-12.36,0-17,4a12.91,12.91,0,0,0-4.6,10.11,12.62,12.62,0,0,0,5.27,10.67q5.28,3.93,14.26,3.93a31.85,31.85,0,0,0,16.06-4,22.12,22.12,0,0,0,10-12.35l5.39,16.39a31.77,31.77,0,0,1-13.93,17.4Q1312.1,1303.47,1296.15,1303.46Zm36.82-1.79v-23.58l-2.25-5.16v-42.22q0-11.22-6.84-17.51t-21-6.29a61,61,0,0,0-19,3,53.37,53.37,0,0,0-16.06,8.19l-12.34-24.47a71.11,71.11,0,0,1,23.8-10.89,109.09,109.09,0,0,1,28.29-3.7q27.63,0,42.89,13t15.26,40.65v68.93Z"/><path class="cls-1" d="M1397.42,1301.68V1180.87h33.46v34.35l-4.71-10.1a38.78,38.78,0,0,1,17.29-19.43q11.89-6.62,29-6.62v32.56a38.94,38.94,0,0,0-3.93-.67,31.53,31.53,0,0,0-3.7-.23q-14.82,0-23.58,8.31t-8.76,25.6v57Z"/><path class="cls-1" d="M1550.56,1303.49q-19.55,0-34.69-8a59.57,59.57,0,0,1-32.44-54.24q0-18.18,8.64-32.11a61.53,61.53,0,0,1,23.81-22q15.15-8.09,34.69-8.08,19.08,0,33.35,8a46.27,46.27,0,0,1,20.54,22.57l-27,14.81q-4.93-8.52-11.9-12.46a30.52,30.52,0,0,0-15.27-3.93,32.68,32.68,0,0,0-15.94,3.93,29.26,29.26,0,0,0-11.45,11.33q-4.28,7.41-4.27,18t4.26,18.07a29.08,29.08,0,0,0,11.45,11.46,32.69,32.69,0,0,0,15.95,3.93,30.58,30.58,0,0,0,15.27-3.93q6.95-3.93,11.9-12.68l26.94,14.82a47,47,0,0,1-20.55,22.45Q1569.65,1303.49,1550.56,1303.49Z"/><path class="cls-1" d="M1662.15,1303.5q-13.92,0-24-4.83a37.58,37.58,0,0,1-15.61-13.14,33,33,0,0,1-5.5-18.63,33.92,33.92,0,0,1,5.28-18.75q5.28-8.19,16.73-12.69t30.09-4.48H1701v20.21h-28.3q-12.35,0-17,4a12.87,12.87,0,0,0-4.6,10.1,12.6,12.6,0,0,0,5.27,10.67q5.28,3.93,14.26,3.93a31.85,31.85,0,0,0,16.06-4,22.12,22.12,0,0,0,10-12.35l5.39,16.39a31.77,31.77,0,0,1-13.93,17.4Q1678.11,1303.51,1662.15,1303.5Zm36.83-1.79v-23.58l-2.24-5.16v-42.22q0-11.22-6.84-17.51t-21-6.29a61,61,0,0,0-19,3,53.13,53.13,0,0,0-16.06,8.19l-12.35-24.47a71.16,71.16,0,0,1,23.81-10.89,109.09,109.09,0,0,1,28.29-3.7q27.62,0,42.89,13t15.26,40.65v68.93Z"/><path class="cls-1" d="M911.47,1550.12a71.44,71.44,0,0,1-15.71-1.69,38.61,38.61,0,0,1-12.58-5l9.44-25.38a25,25,0,0,0,14.81,4.27q6.75,0,10.45-4.26t3.7-13.48l0-120.58h35l0,120.35q0,21.11-11.79,33.46T911.47,1550.12Zm27.64-183q-9.89,0-15.94-5.61a19,19,0,0,1,0-27.85q6.08-5.61,16-5.61,9.64,0,15.83,5.28a17.08,17.08,0,0,1,6.17,13.59,19.08,19.08,0,0,1-6.06,14.48Q949,1367.12,939.11,1367.11Z"/><path class="cls-1" d="M1046.43,1506.57q-19.1,0-34-8.09A60.59,60.59,0,0,1,989,1476.36q-8.54-14-8.53-32,0-18.18,8.54-32.22a59.86,59.86,0,0,1,23.46-22q14.94-8,34-8,19.32,0,34.36,8a59.85,59.85,0,0,1,23.57,22q8.54,14,8.53,32.23t-8.54,32.11a60.84,60.84,0,0,1-23.57,22Q1065.73,1506.58,1046.43,1506.57Zm0-28.74a31.24,31.24,0,0,0,15.83-3.93,28.86,28.86,0,0,0,11-11.56,37,37,0,0,0,4.15-18q0-10.55-4.15-18a29.22,29.22,0,0,0-11-11.34,30.81,30.81,0,0,0-15.61-3.93,31.47,31.47,0,0,0-15.71,3.92,28.89,28.89,0,0,0-11.12,11.34q-4.16,7.41-4.16,18a36.91,36.91,0,0,0,4.16,18,28.53,28.53,0,0,0,11.11,11.57A30.94,30.94,0,0,0,1046.43,1477.83Z"/><path class="cls-1" d="M1165.89,1504.79,1115.15,1384h35.93l42.2,104h-18l44-104h33.46l-51,120.8Z"/><path class="cls-1" d="M1323.74,1506.6q-20.65,0-36.15-8.09a59.67,59.67,0,0,1-24-22.12q-8.53-14-8.53-32t8.2-32.11a57.61,57.61,0,0,1,22.9-22.11,68.45,68.45,0,0,1,33.12-8,66.71,66.71,0,0,1,32,7.64,57.34,57.34,0,0,1,22.57,21.56q8.3,13.92,8.3,33.45c0,1.35-.08,2.89-.23,4.61s-.3,3.33-.44,4.83l-98.13,0v-20.43H1363l-13.69,6.06a32,32,0,0,0-3.59-16.39,27.93,27.93,0,0,0-10.56-10.89,30.61,30.61,0,0,0-15.71-3.93,31.38,31.38,0,0,0-15.84,3.92,27.43,27.43,0,0,0-10.66,11,34.64,34.64,0,0,0-3.82,16.72v5.39a33.09,33.09,0,0,0,4.49,17.52A29.55,29.55,0,0,0,1306,1474.6q7.85,3.93,18.86,3.93a44.75,44.75,0,0,0,16.73-2.92,41.24,41.24,0,0,0,13.36-8.75l18.63,20.21a54.3,54.3,0,0,1-20.88,14.48Q1340.13,1506.61,1323.74,1506.6Z"/><path class="cls-1" d="M1560.2,1382.23a54.85,54.85,0,0,1,25.49,5.73,40.48,40.48,0,0,1,17.4,17.51q6.29,11.79,6.28,30.2v69.16h-35v-63.77q0-14.6-5.95-21.56t-16.72-7a27.49,27.49,0,0,0-13.93,3.48,22.82,22.82,0,0,0-9.32,10.33q-3.26,6.84-3.25,17.85v60.62h-35v-63.77q0-14.6-6-21.56t-17.18-7a27,27,0,0,0-13.7,3.48,23.49,23.49,0,0,0-9.43,10.33q-3.36,6.84-3.37,17.85v60.62h-35V1384H1439v32.78l-6.28-9.43a41.8,41.8,0,0,1,17.74-18.75,53.8,53.8,0,0,1,26.27-6.39q16.62,0,29.19,8.42t16.61,25.71l-12.35-3.37a49.45,49.45,0,0,1,19.32-22.34Q1542.69,1382.23,1560.2,1382.23Z"/><path class="cls-1" d="M1663.71,1450.05a33.81,33.81,0,0,1,2.58-13.58,45.89,45.89,0,0,1,6.52-10.78,78,78,0,0,1,8.42-8.87q4.49-4,8.42-7.75a41.18,41.18,0,0,0,6.51-7.74,16.76,16.76,0,0,0,2.59-9.21,15.28,15.28,0,0,0-6.63-12.8q-6.61-4.93-17.4-4.94a40.18,40.18,0,0,0-19.2,4.38,37.88,37.88,0,0,0-13.58,12.23l-27.17-15.94a64.52,64.52,0,0,1,25-22q15.82-8.07,38.51-8.08,17.06,0,29.86,4.84t20,14q7.17,9.21,7.18,22.46a41.87,41.87,0,0,1-2.7,15.83,41.34,41.34,0,0,1-7,11.56,96.54,96.54,0,0,1-9.1,9.21q-4.83,4.26-9.09,8.3a40.16,40.16,0,0,0-7,8.54,19.62,19.62,0,0,0-2.7,10.32Zm17.06,56.59a20.67,20.67,0,0,1-15.27-6.07,19.64,19.64,0,0,1-6.06-14.37,18.82,18.82,0,0,1,6.06-14.26,21.4,21.4,0,0,1,15.27-5.72q9.66,0,15.61,5.73a19,19,0,0,1,5.95,14.26,19.84,19.84,0,0,1-5.95,14.37Q1690.43,1506.64,1680.77,1506.64Z"/><path class="cls-1" d="M1843.05,1252.25a40.56,40.56,0,0,1-14.94-2.7,35.11,35.11,0,0,1-19.78-19.16,38.58,38.58,0,0,1,0-28.86,35.28,35.28,0,0,1,19.73-19.17,42.66,42.66,0,0,1,29.87,0,35.83,35.83,0,0,1,11.88,7.6,34.58,34.58,0,0,1,7.85,11.52,38.71,38.71,0,0,1,0,29,34.68,34.68,0,0,1-7.85,11.52,35.65,35.65,0,0,1-11.88,7.59A40.09,40.09,0,0,1,1843.05,1252.25Zm0-6.72a31.43,31.43,0,0,0,11.88-2.2,28,28,0,0,0,9.48-6.22,29,29,0,0,0,6.27-9.38,32.07,32.07,0,0,0,0-23.55,29.14,29.14,0,0,0-6.27-9.38,28.34,28.34,0,0,0-9.48-6.22,31.62,31.62,0,0,0-11.88-2.19,32,32,0,0,0-11.93,2.19,28.52,28.52,0,0,0-15.91,15.6,31.94,31.94,0,0,0,0,23.5,28.4,28.4,0,0,0,15.91,15.65A31.8,31.8,0,0,0,1843.05,1245.53Z"/><path class="cls-1" d="M1955.3,1252.25a40.56,40.56,0,0,1-14.94-2.7,35.11,35.11,0,0,1-19.78-19.16,38.58,38.58,0,0,1,0-28.86,35.28,35.28,0,0,1,19.73-19.17,42.68,42.68,0,0,1,29.88,0,35.89,35.89,0,0,1,11.87,7.6,34.58,34.58,0,0,1,7.85,11.52,38.71,38.71,0,0,1,0,29,34.68,34.68,0,0,1-7.85,11.52,35.71,35.71,0,0,1-11.87,7.59A40.19,40.19,0,0,1,1955.3,1252.25Zm0-6.72a31.43,31.43,0,0,0,11.88-2.2,28,28,0,0,0,9.48-6.22,28.82,28.82,0,0,0,6.27-9.43,31.94,31.94,0,0,0,0-23.5,29.14,29.14,0,0,0-6.27-9.38,28.34,28.34,0,0,0-9.48-6.22,31.62,31.62,0,0,0-11.88-2.19,32,32,0,0,0-11.93,2.19,28.46,28.46,0,0,0-15.9,15.6,31.81,31.81,0,0,0,0,23.5,28.34,28.34,0,0,0,15.9,15.65A31.8,31.8,0,0,0,1955.3,1245.53Zm23.35,20.28a24.56,24.56,0,0,1-6.32-.81,25.93,25.93,0,0,1-6.17-2.6,39.75,39.75,0,0,1-6.37-4.64q-3.27-2.85-7.14-6.93l8.26-2a46,46,0,0,0,6.17,6.22,23.44,23.44,0,0,0,5.91,3.62,15.36,15.36,0,0,0,5.76,1.17q7.95,0,13.56-6.53l3.67,4.39A21.43,21.43,0,0,1,1978.65,1265.81Z"/><path class="cls-1" d="M2038.39,1252.25q-13.67,0-21.51-7.85t-7.85-23.24v-40.89h7.54v40.58q0,12.64,5.71,18.66t16.11,6q10.5,0,16.21-6t5.71-18.66v-40.58h7.34v40.89q0,15.39-7.8,23.24T2038.39,1252.25Z"/><path class="cls-1" d="M2097.93,1245.12h42.93v6.52h-50.47v-71.37h48.94v6.53h-41.4Zm-.81-32.93h37.72v6.42h-37.72Z"/><path class="cls-1" d="M2205,1252.25a44.88,44.88,0,0,1-15.25-2.6,29.05,29.05,0,0,1-11.26-6.67l2.95-5.81a30.19,30.19,0,0,0,10.15,6.16,36.33,36.33,0,0,0,13.41,2.5,30.16,30.16,0,0,0,11-1.68,13.25,13.25,0,0,0,6.22-4.54,10.84,10.84,0,0,0,2-6.32,9.45,9.45,0,0,0-2.39-6.73,16.61,16.61,0,0,0-6.27-4,69.2,69.2,0,0,0-8.57-2.59q-4.68-1.12-9.38-2.4a39.46,39.46,0,0,1-8.61-3.42,17.64,17.64,0,0,1-6.32-5.66,16,16,0,0,1-2.4-9.22,17.86,17.86,0,0,1,2.8-9.74,19.62,19.62,0,0,1,8.62-7.14q5.8-2.7,14.88-2.7a43.45,43.45,0,0,1,11.93,1.68,34.71,34.71,0,0,1,10.2,4.64l-2.55,6a34,34,0,0,0-9.74-4.49,37.16,37.16,0,0,0-9.94-1.42,27.81,27.81,0,0,0-10.6,1.73,13.46,13.46,0,0,0-6.17,4.64,11.42,11.42,0,0,0-2,6.57,9.41,9.41,0,0,0,2.4,6.73,16,16,0,0,0,6.32,4,80,80,0,0,0,8.62,2.55c3.12.75,6.23,1.56,9.32,2.45a43.64,43.64,0,0,1,8.57,3.41,17.65,17.65,0,0,1,6.32,5.56,15.61,15.61,0,0,1,2.4,9.07,17.51,17.51,0,0,1-2.86,9.64,19.9,19.9,0,0,1-8.72,7.13Q2214.16,1252.25,2205,1252.25Z"/><path class="cls-1" d="M2236.59,1251.64l32.63-71.37h7.44l32.62,71.37h-8l-30-67h3.06l-30,67Zm12.85-19.06,2.24-6.12h41.5l2.24,6.12Z"/><path class="cls-1" d="M2321.11,1251.64v-71.37h30.79q11.92,0,18.51,4.8t6.57,13.56a16.23,16.23,0,0,1-10,15.8,24.89,24.89,0,0,1-10.14,2l1.73-2.45a30.16,30.16,0,0,1,11.77,2.09,16.91,16.91,0,0,1,7.7,6.22,18,18,0,0,1,2.75,10.25q0,9.08-6.67,14.07t-20.14,5Zm7.55-6.22h25.18q9.38,0,14.37-3.21t5-10.24q0-6.95-5-10.15t-14.37-3.21h-26v-6.22h23.55q8.57,0,13.31-3.26t4.74-9.69q0-6.53-4.74-9.73t-13.31-3.22h-22.73Z"/><path class="cls-1" d="M2405.53,1245.12h42.92v6.52H2398v-71.37h48.93v6.53h-41.39Zm-.82-32.93h37.73v6.42h-37.73Z"/><path class="cls-1" d="M2466.19,1251.64v-71.37h6.22l32.63,55.67h-3.27l32.32-55.67h6.22v71.37h-7.23v-60.05h1.73l-29.77,51h-3.57l-30-51h1.94v60.05Z"/><path class="cls-1" d="M2594.76,1252.25a40.56,40.56,0,0,1-14.94-2.7,35.11,35.11,0,0,1-19.78-19.16,38.58,38.58,0,0,1,0-28.86,35.28,35.28,0,0,1,19.73-19.17,42.66,42.66,0,0,1,29.87,0,35.83,35.83,0,0,1,11.88,7.6,34.73,34.73,0,0,1,7.85,11.52,38.84,38.84,0,0,1,0,29,34.83,34.83,0,0,1-7.85,11.52,35.65,35.65,0,0,1-11.88,7.59A40.09,40.09,0,0,1,2594.76,1252.25Zm0-6.72a31.34,31.34,0,0,0,11.87-2.2,28,28,0,0,0,9.49-6.22,29,29,0,0,0,6.27-9.38,32.07,32.07,0,0,0,0-23.55,29.14,29.14,0,0,0-6.27-9.38,28.28,28.28,0,0,0-9.49-6.22,31.53,31.53,0,0,0-11.87-2.19,32,32,0,0,0-11.93,2.19,28.44,28.44,0,0,0-15.91,15.6,31.94,31.94,0,0,0,0,23.5,28.32,28.32,0,0,0,15.91,15.65A31.76,31.76,0,0,0,2594.76,1245.53Z"/><path class="cls-1" d="M2668.78,1252.25a44.88,44.88,0,0,1-15.25-2.6,29.05,29.05,0,0,1-11.26-6.67l2.95-5.81a30.19,30.19,0,0,0,10.15,6.16,36.33,36.33,0,0,0,13.41,2.5,30.16,30.16,0,0,0,11-1.68,13.25,13.25,0,0,0,6.22-4.54,10.84,10.84,0,0,0,2-6.32,9.45,9.45,0,0,0-2.39-6.73,16.61,16.61,0,0,0-6.27-4,69.2,69.2,0,0,0-8.57-2.59q-4.68-1.12-9.38-2.4a39.46,39.46,0,0,1-8.61-3.42,17.64,17.64,0,0,1-6.32-5.66,16,16,0,0,1-2.4-9.22,17.86,17.86,0,0,1,2.8-9.74,19.62,19.62,0,0,1,8.62-7.14q5.8-2.7,14.88-2.7a43.45,43.45,0,0,1,11.93,1.68,34.71,34.71,0,0,1,10.2,4.64l-2.55,6a34,34,0,0,0-9.74-4.49,37.16,37.16,0,0,0-9.94-1.42,27.81,27.81,0,0,0-10.6,1.73,13.46,13.46,0,0,0-6.17,4.64,11.42,11.42,0,0,0-2,6.57,9.41,9.41,0,0,0,2.4,6.73,16,16,0,0,0,6.32,4,80,80,0,0,0,8.62,2.55c3.12.75,6.23,1.56,9.32,2.45a43.64,43.64,0,0,1,8.57,3.41,17.65,17.65,0,0,1,6.32,5.56,15.61,15.61,0,0,1,2.4,9.07,17.51,17.51,0,0,1-2.86,9.64,19.9,19.9,0,0,1-8.72,7.13Q2677.95,1252.25,2668.78,1252.25Z"/><path class="cls-1" d="M2746.06,1245.12H2789v6.52h-50.47v-71.37h48.94v6.53h-41.39Zm-.82-32.93H2783v6.42h-37.72Zm11.22-37.73,14-12.64h9.69l-16.52,12.64Z"/><path class="cls-1" d="M2864.63,1252.25a40.56,40.56,0,0,1-14.94-2.7,35.11,35.11,0,0,1-19.78-19.16,38.58,38.58,0,0,1,0-28.86,35.28,35.28,0,0,1,19.73-19.17,42.66,42.66,0,0,1,29.87,0,35.83,35.83,0,0,1,11.88,7.6,34.58,34.58,0,0,1,7.85,11.52,38.71,38.71,0,0,1,0,29,34.68,34.68,0,0,1-7.85,11.52,35.65,35.65,0,0,1-11.88,7.59A40.09,40.09,0,0,1,2864.63,1252.25Zm0-6.72a31.43,31.43,0,0,0,11.88-2.2,28,28,0,0,0,9.48-6.22,28.82,28.82,0,0,0,6.27-9.43,31.94,31.94,0,0,0,0-23.5,29.14,29.14,0,0,0-6.27-9.38,28.34,28.34,0,0,0-9.48-6.22,31.62,31.62,0,0,0-11.88-2.19,32,32,0,0,0-11.93,2.19,28.52,28.52,0,0,0-15.91,15.6,31.94,31.94,0,0,0,0,23.5,28.4,28.4,0,0,0,15.91,15.65A31.8,31.8,0,0,0,2864.63,1245.53Zm23.35,20.28a24.63,24.63,0,0,1-6.33-.81,26,26,0,0,1-6.16-2.6,40.26,40.26,0,0,1-6.38-4.64q-3.26-2.85-7.13-6.93l8.26-2a46.54,46.54,0,0,0,6.16,6.22,23.66,23.66,0,0,0,5.92,3.62,15.28,15.28,0,0,0,5.76,1.17q8,0,13.56-6.53l3.67,4.39A21.45,21.45,0,0,1,2888,1265.81Z"/><path class="cls-1" d="M2947.72,1252.25q-13.66,0-21.51-7.85t-7.85-23.24v-40.89h7.54v40.58q0,12.64,5.71,18.66t16.11,6q10.5,0,16.21-6t5.71-18.66v-40.58H2977v40.89q0,15.39-7.8,23.24T2947.72,1252.25Z"/><path class="cls-1" d="M3007.26,1245.12h42.93v6.52h-50.47v-71.37h48.94v6.53h-41.4Zm-.81-32.93h37.72v6.42h-37.72Z"/><path class="cls-1" d="M3094.64,1251.64v-71.37h6.22l49.24,62h-3.26v-62h7.44v71.37h-6.22l-49.14-62h3.26v62Z"/><path class="cls-1" d="M3166.11,1251.64l32.62-71.37h7.44l32.63,71.37h-8l-30-67h3.06l-30,67Zm12.84-19.06,2.25-6.12h41.49l2.24,6.12Zm30.49-58.73a8.43,8.43,0,0,1-4.18-1,17.12,17.12,0,0,1-3.32-2.39,34.05,34.05,0,0,0-2.9-2.45,4.83,4.83,0,0,0-3-1.07,4.52,4.52,0,0,0-3.72,1.73,8.4,8.4,0,0,0-1.58,4.79h-4.38a13.32,13.32,0,0,1,2.7-8.15,8,8,0,0,1,6.47-3.06,8.37,8.37,0,0,1,4.23,1.07,17.66,17.66,0,0,1,3.37,2.45,33.47,33.47,0,0,0,2.85,2.39,4.82,4.82,0,0,0,2.91,1,4.7,4.7,0,0,0,3.77-1.68,7.38,7.38,0,0,0,1.53-4.64h4.38a12.44,12.44,0,0,1-2.65,8A8.11,8.11,0,0,1,3209.44,1173.85Z"/><path class="cls-1" d="M3280.81,1252.25a40.56,40.56,0,0,1-14.94-2.7,35.11,35.11,0,0,1-19.78-19.16,38.58,38.58,0,0,1,0-28.86,35.28,35.28,0,0,1,19.73-19.17,42.66,42.66,0,0,1,29.87,0,36,36,0,0,1,11.88,7.6,34.73,34.73,0,0,1,7.85,11.52,38.84,38.84,0,0,1,0,29,34.83,34.83,0,0,1-7.85,11.52,35.85,35.85,0,0,1-11.88,7.59A40.13,40.13,0,0,1,3280.81,1252.25Zm0-6.72a31.34,31.34,0,0,0,11.87-2.2,28,28,0,0,0,9.49-6.22,29,29,0,0,0,6.27-9.38,32.07,32.07,0,0,0,0-23.55,29.14,29.14,0,0,0-6.27-9.38,28.28,28.28,0,0,0-9.49-6.22,31.53,31.53,0,0,0-11.87-2.19,32,32,0,0,0-11.93,2.19,28.44,28.44,0,0,0-15.91,15.6,31.94,31.94,0,0,0,0,23.5,28.32,28.32,0,0,0,15.91,15.65A31.76,31.76,0,0,0,3280.81,1245.53Z"/><path class="cls-1" d="M1831.53,1383.89a45.07,45.07,0,0,1-15.24-2.6,29.11,29.11,0,0,1-11.27-6.68l3-5.81a29.9,29.9,0,0,0,10.14,6.17,36.33,36.33,0,0,0,13.41,2.5,30.13,30.13,0,0,0,11-1.68,13.39,13.39,0,0,0,6.22-4.54,10.85,10.85,0,0,0,2-6.32,9.41,9.41,0,0,0-2.4-6.73,16.61,16.61,0,0,0-6.27-4,70.37,70.37,0,0,0-8.57-2.6c-3.12-.75-6.25-1.54-9.37-2.39a39.54,39.54,0,0,1-8.62-3.42,17.82,17.82,0,0,1-6.32-5.66,16.07,16.07,0,0,1-2.4-9.23,17.83,17.83,0,0,1,2.81-9.73,19.58,19.58,0,0,1,8.61-7.14q5.82-2.7,14.89-2.7A43.51,43.51,0,0,1,1845,1313a34.27,34.27,0,0,1,10.19,4.64l-2.55,6a33.65,33.65,0,0,0-9.73-4.49,37.3,37.3,0,0,0-9.94-1.43,27.81,27.81,0,0,0-10.61,1.74,13.44,13.44,0,0,0-6.17,4.63,11.42,11.42,0,0,0-2,6.58,9.41,9.41,0,0,0,2.39,6.73,16,16,0,0,0,6.32,4,77.86,77.86,0,0,0,8.62,2.54q4.68,1.13,9.33,2.45a44.45,44.45,0,0,1,8.56,3.42,17.54,17.54,0,0,1,6.32,5.55,15.67,15.67,0,0,1,2.4,9.08,17.39,17.39,0,0,1-2.86,9.63,19.88,19.88,0,0,1-8.71,7.14Q1840.71,1383.89,1831.53,1383.89Z"/><path class="cls-1" d="M1905.75,1383.89a40.56,40.56,0,0,1-14.94-2.7A35.24,35.24,0,0,1,1871,1362a38.56,38.56,0,0,1,0-28.85,35.36,35.36,0,0,1,19.73-19.17,42.68,42.68,0,0,1,29.88,0,35.58,35.58,0,0,1,11.87,7.6,34.58,34.58,0,0,1,7.85,11.52,38.69,38.69,0,0,1,0,29,34.58,34.58,0,0,1-7.85,11.52,35.58,35.58,0,0,1-11.87,7.6A40.19,40.19,0,0,1,1905.75,1383.89Zm0-6.73a31.62,31.62,0,0,0,11.88-2.19,28,28,0,0,0,9.48-6.22,29,29,0,0,0,6.27-9.38,32.07,32.07,0,0,0,0-23.55,29.14,29.14,0,0,0-6.27-9.38,28.19,28.19,0,0,0-9.48-6.22,31.62,31.62,0,0,0-11.88-2.19,32,32,0,0,0-11.93,2.19,28.46,28.46,0,0,0-15.9,15.6,31.81,31.81,0,0,0,0,23.5,28.34,28.34,0,0,0,15.9,15.65A32,32,0,0,0,1905.75,1377.16Z"/><path class="cls-1" d="M1960.09,1383.28v-71.37h6.22l32.63,55.67h-3.27l32.32-55.67h6.22v71.37H2027v-60h1.74l-29.77,51h-3.57l-30-51h1.94v60Z"/><path class="cls-1" d="M2088.66,1383.89a40.56,40.56,0,0,1-14.94-2.7,35.16,35.16,0,0,1-19.78-19.17,38.56,38.56,0,0,1,0-28.85,35.28,35.28,0,0,1,19.73-19.17,42.66,42.66,0,0,1,29.87,0,35.62,35.62,0,0,1,11.88,7.6,34.73,34.73,0,0,1,7.85,11.52,38.82,38.82,0,0,1,0,29,34.73,34.73,0,0,1-7.85,11.52,35.62,35.62,0,0,1-11.88,7.6A40.13,40.13,0,0,1,2088.66,1383.89Zm0-6.73a31.53,31.53,0,0,0,11.87-2.19,28,28,0,0,0,9.49-6.22,29,29,0,0,0,6.27-9.38,32.07,32.07,0,0,0,0-23.55,29.14,29.14,0,0,0-6.27-9.38,28.13,28.13,0,0,0-9.49-6.22,31.53,31.53,0,0,0-11.87-2.19,32,32,0,0,0-11.93,2.19,28.44,28.44,0,0,0-15.91,15.6,31.94,31.94,0,0,0,0,23.5,28.32,28.32,0,0,0,15.91,15.65A32,32,0,0,0,2088.66,1377.16Z"/><path class="cls-1" d="M2162.67,1383.89a45.11,45.11,0,0,1-15.24-2.6,29.06,29.06,0,0,1-11.26-6.68l2.95-5.81a30,30,0,0,0,10.15,6.17,36.24,36.24,0,0,0,13.4,2.5,30.18,30.18,0,0,0,11-1.68,13.36,13.36,0,0,0,6.21-4.54,10.78,10.78,0,0,0,2-6.32,9.45,9.45,0,0,0-2.39-6.73,16.61,16.61,0,0,0-6.27-4,70.91,70.91,0,0,0-8.57-2.6c-3.13-.75-6.25-1.54-9.38-2.39a39.46,39.46,0,0,1-8.61-3.42,17.74,17.74,0,0,1-6.32-5.66,16.07,16.07,0,0,1-2.4-9.23,17.82,17.82,0,0,1,2.8-9.73,19.55,19.55,0,0,1,8.62-7.14q5.8-2.7,14.88-2.7a43.45,43.45,0,0,1,11.93,1.68,34.45,34.45,0,0,1,10.2,4.64l-2.55,6a33.71,33.71,0,0,0-9.74-4.49,37.18,37.18,0,0,0-9.94-1.43,27.79,27.79,0,0,0-10.6,1.74,13.44,13.44,0,0,0-6.17,4.63,11.35,11.35,0,0,0-2,6.58,9.41,9.41,0,0,0,2.4,6.73,15.9,15.9,0,0,0,6.32,4,78.3,78.3,0,0,0,8.61,2.54q4.7,1.13,9.33,2.45a44.29,44.29,0,0,1,8.57,3.42,17.62,17.62,0,0,1,6.32,5.55,15.67,15.67,0,0,1,2.4,9.08,17.47,17.47,0,0,1-2.86,9.63,19.85,19.85,0,0,1-8.72,7.14Q2171.85,1383.89,2162.67,1383.89Z"/><path class="cls-2" d="M2232.41,1383.28v-71.37h6.22l49.24,62h-3.26v-62h7.44v71.37h-6.21l-49.15-62H2240v62Z"/><path class="cls-2" d="M2322.84,1376.75h42.93v6.53H2315.3v-71.37h48.94v6.53h-41.4Zm-.81-32.93h37.72v6.43H2322Z"/><path class="cls-2" d="M2383.51,1383.28v-71.37h6.22l32.62,55.67h-3.26l32.32-55.67h6.22v71.37h-7.24v-60h1.73l-29.77,51h-3.57l-30-51h1.94v60Z"/><path class="cls-2" d="M2536.34,1383.89q-13.66,0-21.52-7.85t-7.85-23.25v-40.88h7.55v40.58q0,12.65,5.71,18.66t16.11,6q10.5,0,16.21-6t5.71-18.66v-40.58h7.34v40.88q0,15.4-7.8,23.25T2536.34,1383.89Z"/><path class="cls-2" d="M2588.33,1383.28v-71.37h6.22l32.63,55.67h-3.26l32.31-55.67h6.22v71.37h-7.23v-60H2657l-29.77,51h-3.57l-30-51h1.94v60Z"/><path class="cls-2" d="M2674.28,1383.28l32.63-71.37h7.44l32.62,71.37H2739l-30-67h3.06l-30,67Zm12.85-19.07,2.24-6.11h41.49l2.25,6.11Z"/><path class="cls-2" d="M2785.51,1383.28v-71.37h6.22l32.63,55.67h-3.27l32.32-55.67h6.22v71.37h-7.24v-60h1.74l-29.77,51h-3.57l-30-51h1.94v60Z"/><path class="cls-2" d="M2871.46,1383.28l32.62-71.37h7.45l32.62,71.37h-8l-30-67h3.05l-30,67Zm12.85-19.07,2.24-6.11H2928l2.25,6.11Z"/><path class="cls-2" d="M2956,1383.28v-71.37h26.71a38.1,38.1,0,0,1,15.6,2.91,22.35,22.35,0,0,1,10,8.36,23.79,23.79,0,0,1,3.52,13.2,23.43,23.43,0,0,1-3.52,13,22.42,22.42,0,0,1-10,8.36,38.1,38.1,0,0,1-15.6,2.91h-22.53l3.36-3.47v26.1Zm7.54-25.49-3.36-3.57h22.33q10.7,0,16.26-4.69t5.56-13.15q0-8.57-5.56-13.25t-16.26-4.69h-22.33l3.36-3.57Zm41.19,25.49-18.35-25.9h8.16l18.45,25.9Z"/><path class="cls-2" d="M3060.69,1383.89a40.15,40.15,0,0,1-14.89-2.7,34.81,34.81,0,0,1-19.63-19.12,38.82,38.82,0,0,1,0-29,34.6,34.6,0,0,1,7.86-11.52,35.58,35.58,0,0,1,11.87-7.6,40.19,40.19,0,0,1,14.89-2.7,40.76,40.76,0,0,1,14.58,2.6,29.26,29.26,0,0,1,11.52,7.8l-4.79,4.79a26.58,26.58,0,0,0-9.69-6.47,33.67,33.67,0,0,0-23.35.2,28.52,28.52,0,0,0-9.58,6.22,29.25,29.25,0,0,0-6.37,9.38,31.29,31.29,0,0,0,0,23.55,29.15,29.15,0,0,0,6.37,9.38,28.36,28.36,0,0,0,9.58,6.22,32,32,0,0,0,11.93,2.19,31.51,31.51,0,0,0,11.42-2,27.25,27.25,0,0,0,9.69-6.52l4.79,4.79a29.79,29.79,0,0,1-11.52,7.85A40.2,40.2,0,0,1,3060.69,1383.89Z"/><path class="cls-2" d="M3089.74,1383.28l32.63-71.37h7.44l32.63,71.37h-8l-30-67h3.06l-30,67Zm12.85-19.07,2.24-6.11h41.5l2.24,6.11Z"/><path class="cls-2" d="M3201,1383.28v-71.37h7.54v71.37Z"/><path class="cls-2" d="M3231.77,1383.28v-71.37H3238l49.25,62H3284v-62h7.44v71.37h-6.22l-49.14-62h3.26v62Z"/><path class="cls-2" d="M3322.2,1383.28h-7.55v-71.37h48.94v6.53H3322.2Zm-.82-36.81h37.73V1353h-37.73Z"/><path class="cls-2" d="M3364.41,1383.28l32.62-71.37h7.45l32.62,71.37h-7.95l-30-67h3.05l-30,67Zm12.84-19.07,2.25-6.11H3421l2.25,6.11Z"/><path class="cls-2" d="M3448.93,1383.28v-71.37h6.22l49.24,62h-3.26v-62h7.44v71.37h-6.22l-49.14-62h3.26v62Z"/><path class="cls-2" d="M3545.68,1383.28v-64.84H3520.6v-6.53h57.71v6.53h-25.08v64.84Z"/><path class="cls-2" d="M3590.34,1383.28v-71.37h7.54v71.37Z"/><path class="cls-2" d="M3621.13,1383.28v-71.37h7.54v64.84h40v6.53Z"/><path class="cls-2" d="M1811.85,1514.92v-71.37h6.22l49.24,62h-3.26v-62h7.44v71.37h-6.22l-49.14-62h3.27v62Z"/><path class="cls-2" d="M1902.28,1508.39h42.93v6.53h-50.47v-71.37h48.94v6.52h-41.4Zm-.81-32.93h37.72v6.42h-37.72Z"/><path class="cls-2" d="M1963,1514.92v-71.37h6.22l32.62,55.66h-3.26l32.32-55.66h6.22v71.37h-7.24v-60.06h1.73l-29.77,51h-3.57l-30-51h1.94v60.06Z"/><path class="cls-2" d="M2100.89,1514.92v-64.85h-25.08v-6.52h57.71v6.52h-25.09v64.85Z"/><path class="cls-2" d="M2175.72,1515.53a40.51,40.51,0,0,1-14.93-2.7,35.16,35.16,0,0,1-19.78-19.17,38.58,38.58,0,0,1,0-28.86,35.22,35.22,0,0,1,19.73-19.16,42.66,42.66,0,0,1,29.87,0,35.85,35.85,0,0,1,11.88,7.59,34.93,34.93,0,0,1,7.85,11.52,38.84,38.84,0,0,1,0,29,34.73,34.73,0,0,1-7.85,11.52,35.88,35.88,0,0,1-11.88,7.6A40.15,40.15,0,0,1,2175.72,1515.53Zm0-6.73a31.55,31.55,0,0,0,11.88-2.19,28,28,0,0,0,9.48-6.22,28.82,28.82,0,0,0,6.27-9.38,31.94,31.94,0,0,0,0-23.55,28.71,28.71,0,0,0-6.27-9.38,27.85,27.85,0,0,0-9.48-6.22,31.55,31.55,0,0,0-11.88-2.2,32,32,0,0,0-11.92,2.2,28.44,28.44,0,0,0-15.91,15.6,31.94,31.94,0,0,0,0,23.5,28.32,28.32,0,0,0,15.91,15.65A31.94,31.94,0,0,0,2175.72,1508.8Z"/><path class="cls-2" d="M2242.91,1514.92v-64.85h-25.08v-6.52h57.71v6.52h-25.08v64.85Z"/><path class="cls-2" d="M2272.58,1514.92l32.63-71.37h7.44l32.63,71.37h-8l-30-67h3.06l-30,67Zm12.85-19.07,2.24-6.12h41.5l2.24,6.12Z"/><path class="cls-2" d="M2357.1,1514.92v-71.37h7.55v64.84h40v6.53Z"/><path class="cls-2" d="M2417.15,1514.92v-71.37h6.22l32.63,55.66h-3.26l32.32-55.66h6.22v71.37H2484v-60.06h1.73l-29.77,51h-3.57l-30-51h1.93v60.06Z"/><path class="cls-2" d="M2522.06,1508.39H2565v6.53h-50.47v-71.37h48.94v6.52h-41.4Zm-.81-32.93H2559v6.42h-37.72Z"/><path class="cls-2" d="M2582.73,1514.92v-71.37H2589l49.24,62h-3.26v-62h7.44v71.37h-6.22l-49.14-62h3.26v62Z"/><path class="cls-2" d="M2679.48,1514.92v-64.85H2654.4v-6.52h57.71v6.52H2687v64.85Z"/><path class="cls-2" d="M2731.68,1508.39h42.93v6.53h-50.47v-71.37h48.94v6.52h-41.4Zm-.81-32.93h37.72v6.42h-37.72Z"/><path class="cls-2" d="M2807.64,1514.92l32.62-71.37h7.45l32.62,71.37h-7.95l-30-67h3.06l-30,67Zm12.84-19.07,2.25-6.12h41.49l2.24,6.12Z"/><path class="cls-2" d="M2892.16,1514.92v-71.37h29.05a42.46,42.46,0,0,1,20,4.53,33.41,33.41,0,0,1,13.41,12.6,38.33,38.33,0,0,1,0,37.11,33.32,33.32,0,0,1-13.41,12.59,42.46,42.46,0,0,1-20,4.54Zm7.54-6.53h21.11a34.5,34.5,0,0,0,16.46-3.72,27,27,0,0,0,10.86-10.3,31.65,31.65,0,0,0,0-30.33,27.25,27.25,0,0,0-10.86-10.25,34.5,34.5,0,0,0-16.46-3.72H2899.7Z"/><path class="cls-2" d="M3005.12,1515.53q-13.66,0-21.51-7.85t-7.85-23.25v-40.88h7.54v40.58q0,12.63,5.71,18.65t16.11,6q10.5,0,16.21-6t5.71-18.65v-40.58h7.34v40.88q0,15.4-7.8,23.25T3005.12,1515.53Z"/><path class="cls-2" d="M3057.12,1514.92v-71.37h7.54v64.84h40v6.53Z"/><path class="cls-2" d="M3124.41,1514.92v-64.85h-25.08v-6.52H3157v6.52H3132v64.85Z"/><path class="cls-2" d="M3154.08,1514.92l32.62-71.37h7.45l32.62,71.37h-7.95l-30-67h3.05l-30,67Zm12.85-19.07,2.24-6.12h41.49l2.25,6.12Z"/><path class="cls-2" d="M3241.25,1515.43a5.11,5.11,0,0,1-3.82-1.64,5.45,5.45,0,0,1-1.58-4,5.4,5.4,0,1,1,10.8,0,5.45,5.45,0,0,1-1.58,4A5.12,5.12,0,0,1,3241.25,1515.43Zm22.12,0a5.12,5.12,0,0,1-3.82-1.64,5.49,5.49,0,0,1-1.58-4,5.41,5.41,0,1,1,10.81,0,5.49,5.49,0,0,1-1.58,4A5.14,5.14,0,0,1,3263.37,1515.43Zm22.23,0a5.12,5.12,0,0,1-3.82-1.64,5.45,5.45,0,0,1-1.58-4,5.4,5.4,0,1,1,10.8,0,5.45,5.45,0,0,1-1.58,4A5.11,5.11,0,0,1,3285.6,1515.43Z"/></g></g></g></svg>