<svg xmlns="http://www.w3.org/2000/svg" viewBox="0 0 1778.94 3808.47"><defs><style>.cls-1{fill:#fff;}.cls-2{fill:#b43176;}</style></defs><title>5</title><g id="Camada_2" data-name="Camada 2"><g id="Camada_1-2" data-name="Camada 1"><g id="DESKTOP2"><path class="cls-1" d="M390,192.67q-15.29,0-26.95-5.84a41.35,41.35,0,0,1-18.18-18q-6.52-12.13-6.51-30.54V70.06h35v62.88q0,15.27,6.39,22.34t18.08,7.07a28.39,28.39,0,0,0,14.37-3.59,25.38,25.38,0,0,0,10-10.77q3.7-7.19,3.71-18v-60h34.8V190.88H427.46V157.42l6.06,9.88a42.88,42.88,0,0,1-18,19A52.37,52.37,0,0,1,390,192.67Z" transform="translate(-70.97 -68.29)"/><path class="cls-1" d="M648,68.3A55,55,0,0,1,673.46,74a40.55,40.55,0,0,1,17.4,17.52q6.28,11.79,6.28,30.2V190.9h-35V127.13q0-14.59-6-21.56t-16.72-7a27.49,27.49,0,0,0-13.93,3.48,22.82,22.82,0,0,0-9.32,10.33q-3.26,6.84-3.25,17.85v60.62h-35V127.12q0-14.59-5.95-21.56t-17.18-7a27,27,0,0,0-13.7,3.48,23.49,23.49,0,0,0-9.43,10.33q-3.36,6.84-3.37,17.85v60.63h-35V70.08h33.46v32.78l-6.28-9.43a41.8,41.8,0,0,1,17.74-18.75,53.8,53.8,0,0,1,26.27-6.39q16.62,0,29.19,8.42t16.61,25.71L597.9,99.05a49.37,49.37,0,0,1,19.31-22.34Q630.45,68.29,648,68.3Z" transform="translate(-70.97 -68.29)"/><path class="cls-1" d="M766.07,192.71q-13.92,0-24-4.83a37.63,37.63,0,0,1-15.6-13.14,33,33,0,0,1-5.5-18.64,33.89,33.89,0,0,1,5.28-18.75q5.26-8.19,16.73-12.68T773,120.18h31.88v20.21H776.63q-12.36,0-17,4a12.85,12.85,0,0,0-4.61,10.1,12.6,12.6,0,0,0,5.28,10.67q5.26,3.93,14.25,3.93a31.75,31.75,0,0,0,16.06-4,22,22,0,0,0,10-12.35L806,169.13a31.85,31.85,0,0,1-13.92,17.41Q782,192.71,766.07,192.71Zm36.83-1.79V167.34l-2.25-5.17V120q0-11.23-6.85-17.52t-21-6.29a61,61,0,0,0-19,3,53.21,53.21,0,0,0-16.05,8.2L725.44,82.9A71.11,71.11,0,0,1,749.24,72a109.52,109.52,0,0,1,28.29-3.7q27.63,0,42.89,13T835.69,122v68.94Z" transform="translate(-70.97 -68.29)"/><path class="cls-1" d="M1085.61,68.34q14.37,0,25.48,5.73a40.55,40.55,0,0,1,17.4,17.52q6.29,11.79,6.29,30.2V191h-35V127.18q0-14.59-6-21.56t-16.73-7a27.45,27.45,0,0,0-13.92,3.48,22.84,22.84,0,0,0-9.32,10.32q-3.25,6.86-3.26,17.85v60.63h-35V127.17q0-14.6-5.95-21.56t-17.17-7a27,27,0,0,0-13.7,3.48,23.46,23.46,0,0,0-9.43,10.32q-3.37,6.85-3.37,17.86v60.62h-35l0-120.81h33.45v32.78l-6.29-9.43A41.85,41.85,0,0,1,975.8,74.73a53.84,53.84,0,0,1,26.28-6.4q16.6,0,29.19,8.43t16.61,25.71l-12.35-3.37a49.38,49.38,0,0,1,19.31-22.34Q1068.09,68.35,1085.61,68.34Z" transform="translate(-70.97 -68.29)"/><path class="cls-1" d="M1203.7,192.76q-13.92,0-24-4.83a37.66,37.66,0,0,1-15.61-13.14,33,33,0,0,1-5.5-18.64,33.89,33.89,0,0,1,5.28-18.75q5.28-8.19,16.73-12.68t30.09-4.49h31.89v20.21h-28.3q-12.35,0-17,4a12.87,12.87,0,0,0-4.6,10.1,12.57,12.57,0,0,0,5.27,10.67q5.28,3.93,14.26,3.93a31.81,31.81,0,0,0,16-4,22.06,22.06,0,0,0,10-12.35l5.39,16.39a31.77,31.77,0,0,1-13.93,17.4Q1219.64,192.76,1203.7,192.76Zm36.83-1.8V167.39l-2.24-5.17V120q0-11.24-6.85-17.52t-21-6.29a61,61,0,0,0-19,3,52.92,52.92,0,0,0-16.06,8.2L1163.07,83a71.16,71.16,0,0,1,23.81-10.89,109.52,109.52,0,0,1,28.29-3.7q27.61,0,42.89,13T1273.32,122V191Z" transform="translate(-70.97 -68.29)"/><path class="cls-1" d="M1305,191l0-120.8h33.45v34.35l-4.72-10.1A38.82,38.82,0,0,1,1351,75q11.89-6.63,29-6.62v32.56a39.53,39.53,0,0,0-3.93-.68,31.6,31.6,0,0,0-3.7-.22q-14.82,0-23.58,8.3t-8.76,25.6v57Z" transform="translate(-70.97 -68.29)"/><path class="cls-1" d="M1458.11,192.78q-19.53,0-34.69-8A59.57,59.57,0,0,1,1391,130.58q0-18.2,8.65-32.11a61.41,61.41,0,0,1,23.81-22q15.15-8.07,34.69-8.07,19.08,0,33.34,8A46.33,46.33,0,0,1,1512,98.93l-27,14.82q-5-8.53-11.9-12.47a30.63,30.63,0,0,0-15.27-3.93,32.66,32.66,0,0,0-15.94,3.93,29.25,29.25,0,0,0-11.46,11.34q-4.26,7.41-4.26,18t4.26,18.08A29,29,0,0,0,1442,160.11a32.66,32.66,0,0,0,15.94,3.93,30.52,30.52,0,0,0,15.27-3.93q7-3.92,11.9-12.68l27,14.82a46.94,46.94,0,0,1-20.55,22.45Q1477.2,192.79,1458.11,192.78Z" transform="translate(-70.97 -68.29)"/><path class="cls-1" d="M1569.71,192.8q-13.92,0-24-4.83a37.66,37.66,0,0,1-15.61-13.14,33,33,0,0,1-5.5-18.64,33.89,33.89,0,0,1,5.28-18.75q5.28-8.19,16.73-12.68t30.09-4.49h31.89v20.21h-28.29q-12.35,0-17,4a12.88,12.88,0,0,0-4.61,10.1,12.6,12.6,0,0,0,5.28,10.67q5.27,3.93,14.26,3.93a31.81,31.81,0,0,0,16-4,22.06,22.06,0,0,0,10-12.35l5.38,16.39a31.71,31.71,0,0,1-13.92,17.4Q1585.65,192.8,1569.71,192.8Zm36.83-1.8V167.43l-2.25-5.17V120.05q0-11.23-6.85-17.52t-21-6.29a61,61,0,0,0-19,3,53,53,0,0,0-16,8.2L1529.08,83a71.2,71.2,0,0,1,23.8-10.89,109.6,109.6,0,0,1,28.3-3.7q27.61,0,42.88,13t15.27,40.64V191Z" transform="translate(-70.97 -68.29)"/><path class="cls-1" d="M819,439.41a70.35,70.35,0,0,1-15.72-1.69,38.46,38.46,0,0,1-12.57-5.05l9.43-25.37A25.12,25.12,0,0,0,815,411.56q6.74,0,10.44-4.26t3.71-13.47V273.25h35V393.61q0,21.09-11.79,33.45T819,439.41Zm27.64-183q-9.88,0-15.94-5.62a19,19,0,0,1,0-27.84q6.06-5.61,15.94-5.62,9.66,0,15.83,5.28a17.06,17.06,0,0,1,6.18,13.59,19,19,0,0,1-6.07,14.48Q856.55,256.41,846.67,256.41Z" transform="translate(-70.97 -68.29)"/><path class="cls-1" d="M954,395.86q-19.1,0-34-8.09a60.59,60.59,0,0,1-23.46-22.12q-8.53-14-8.53-32,0-18.18,8.53-32.22a59.88,59.88,0,0,1,23.47-22q14.92-8,34-8,19.31,0,34.35,8a59.67,59.67,0,0,1,23.58,22q8.52,14,8.53,32.22t-8.54,32.11a60.8,60.8,0,0,1-23.58,22Q973.29,395.87,954,395.86Zm0-28.74a31.27,31.27,0,0,0,15.83-3.93,28.84,28.84,0,0,0,11-11.56,37,37,0,0,0,4.16-18q0-10.56-4.15-18a29.22,29.22,0,0,0-11-11.34,30.81,30.81,0,0,0-15.61-3.93,31.41,31.41,0,0,0-15.72,3.93,28.87,28.87,0,0,0-11.11,11.34q-4.17,7.4-4.16,18a37,37,0,0,0,4.15,18,28.55,28.55,0,0,0,11.12,11.57A30.92,30.92,0,0,0,954,367.12Z" transform="translate(-70.97 -68.29)"/><path class="cls-1" d="M1073.44,394.08l-50.73-120.81h35.93l42.2,104h-18l44-104h33.46l-51,120.8Z" transform="translate(-70.97 -68.29)"/><path class="cls-1" d="M1231.3,395.89q-20.67,0-36.15-8.09a59.76,59.76,0,0,1-24-22.12q-8.53-14-8.53-32t8.2-32.11a57.66,57.66,0,0,1,22.91-22.12,68.39,68.39,0,0,1,33.12-8,66.74,66.74,0,0,1,32,7.64,57.38,57.38,0,0,1,22.56,21.56q8.31,13.92,8.31,33.46c0,1.35-.08,2.88-.23,4.6s-.3,3.33-.45,4.83h-98.12V323.13h79.71l-13.7,6.06a31.9,31.9,0,0,0-3.59-16.39,27.83,27.83,0,0,0-10.55-10.89A30.62,30.62,0,0,0,1227,298a31.24,31.24,0,0,0-15.83,3.93,27.43,27.43,0,0,0-10.67,11,34.76,34.76,0,0,0-3.81,16.73V335a33.18,33.18,0,0,0,4.49,17.51,29.67,29.67,0,0,0,12.35,11.34q7.86,3.93,18.86,3.93a44.88,44.88,0,0,0,16.73-2.91,41.33,41.33,0,0,0,13.36-8.76l18.64,20.21a54.15,54.15,0,0,1-20.89,14.48Q1247.69,395.9,1231.3,395.89Z" transform="translate(-70.97 -68.29)"/><path class="cls-1" d="M1467.76,271.52a54.81,54.81,0,0,1,25.48,5.73,40.53,40.53,0,0,1,17.4,17.51q6.28,11.79,6.29,30.21v69.16h-35V330.35q0-14.6-6-21.56t-16.73-7a27.45,27.45,0,0,0-13.92,3.48,22.82,22.82,0,0,0-9.32,10.33q-3.26,6.86-3.26,17.85v60.63h-35V330.34q0-14.59-5.94-21.55t-17.18-7a27,27,0,0,0-13.7,3.48,23.49,23.49,0,0,0-9.43,10.33q-3.37,6.86-3.37,17.85v60.63h-35l0-120.8h33.45v32.79l-6.29-9.44A41.83,41.83,0,0,1,1358,277.91a53.73,53.73,0,0,1,26.28-6.4q16.61,0,29.19,8.42T1430,305.65l-12.35-3.37A49.38,49.38,0,0,1,1437,279.94Q1450.25,271.51,1467.76,271.52Z" transform="translate(-70.97 -68.29)"/><path class="cls-1" d="M1571.27,339.34a33.87,33.87,0,0,1,2.58-13.58,45.86,45.86,0,0,1,6.51-10.78,78.88,78.88,0,0,1,8.43-8.87q4.49-4,8.42-7.74a41.61,41.61,0,0,0,6.51-7.75,16.73,16.73,0,0,0,2.58-9.21,15.31,15.31,0,0,0-6.62-12.8q-6.63-4.94-17.4-4.94a40.13,40.13,0,0,0-19.2,4.38,38,38,0,0,0-13.59,12.24l-27.17-16a64.57,64.57,0,0,1,25-22q15.84-8.09,38.51-8.08,17.07,0,29.87,4.83t20,14q7.18,9.22,7.18,22.46a39.78,39.78,0,0,1-9.65,27.39,95.38,95.38,0,0,1-9.1,9.21q-4.83,4.26-9.09,8.31a40.48,40.48,0,0,0-7,8.53,19.74,19.74,0,0,0-2.69,10.33Zm17.06,56.59a20.7,20.7,0,0,1-15.27-6.06A19.65,19.65,0,0,1,1567,375.5a18.8,18.8,0,0,1,6.06-14.26,21.35,21.35,0,0,1,15.27-5.73q9.66,0,15.61,5.73a19,19,0,0,1,6,14.26,19.85,19.85,0,0,1-6,14.37Q1598,395.93,1588.33,395.93Z" transform="translate(-70.97 -68.29)"/></g><g id="DESKTOP5"><path class="cls-2" d="M76.84,3608.66,71,3538.54l10.72-.9,48.5,50.41-5.31.45-4.53-54.09,12.83-1.08,5.87,70.12-10.72.9-48.4-50.42,5.3-.44,4.53,54.09Z" transform="translate(-70.97 -68.29)"/><path class="cls-2" d="M186.39,3600.2a29.89,29.89,0,0,1-14.88-2.34,26.56,26.56,0,0,1-11-8.92,27.32,27.32,0,0,1,6.93-38.86,29.76,29.76,0,0,1,14.33-4.78,30.27,30.27,0,0,1,15.07,2.32,26.42,26.42,0,0,1,10.93,8.82,29.5,29.5,0,0,1,2.38,28.4,26.28,26.28,0,0,1-9.36,10.57A30.37,30.37,0,0,1,186.39,3600.2Zm-.89-10.62a16.39,16.39,0,0,0,8-2.74,14.43,14.43,0,0,0,5.16-6.39,18.54,18.54,0,0,0,1.32-9,18.32,18.32,0,0,0-2.8-8.69,14.58,14.58,0,0,0-6.15-5.33,17.09,17.09,0,0,0-16.22,1.35,15.12,15.12,0,0,0-5.23,6.29,18,18,0,0,0-1.36,9,18.25,18.25,0,0,0,2.85,8.69,14.65,14.65,0,0,0,6.2,5.43A16,16,0,0,0,185.5,3589.58Z" transform="translate(-70.97 -68.29)"/><path class="cls-2" d="M254.84,3550.38l-.84-10,35.67-3,.83,10Zm12.42,42.34-4.72-56.4q-.71-8.51,3.82-14t13.76-6.24a26.36,26.36,0,0,1,6.31.18,13.46,13.46,0,0,1,5.15,1.78l-2.73,9.61a12.5,12.5,0,0,0-3.23-1.24,11.59,11.59,0,0,0-3.76-.29,7.73,7.73,0,0,0-5.73,2.65c-1.21,1.55-1.7,3.72-1.47,6.53l.52,6.21L276,3547l3.74,44.68ZM304,3526.9a7.9,7.9,0,0,1-5.94-1.72,7.31,7.31,0,0,1-2.71-5.22,7.05,7.05,0,0,1,1.82-5.4,7.91,7.91,0,0,1,5.57-2.69,8.27,8.27,0,0,1,5.93,1.57,6.84,6.84,0,0,1,2.7,5.07,7.58,7.58,0,0,1-1.75,5.65A7.8,7.8,0,0,1,304,3526.9Zm-1,62.83-4.48-53.5,12.42-1,4.48,53.5Z" transform="translate(-70.97 -68.29)"/><path class="cls-2" d="M400.36,3527a25,25,0,0,1,11.58,1.56,17.9,17.9,0,0,1,8.41,7.06q3.24,5,3.92,13.09l2.57,30.65-12.42,1L412,3551.35q-.59-7.11-4-10.35t-9.26-2.76a14.39,14.39,0,0,0-7.11,2.41,12.24,12.24,0,0,0-4.46,5.77,20,20,0,0,0-1,9l2.27,27.15-12.42,1-2.43-29q-.6-7.11-4-10.35t-9.26-2.76a14.43,14.43,0,0,0-7.11,2.41,12.29,12.29,0,0,0-4.46,5.77,20.14,20.14,0,0,0-1,9l2.27,27.15-12.42,1L333,3533.35l11.93-1,1.19,14.33-2.56-4.13a19,19,0,0,1,7.2-8.57,24.56,24.56,0,0,1,11.64-3.8,22.87,22.87,0,0,1,13.33,2.62q5.82,3.24,8.27,10.81l-5-1.4a20.74,20.74,0,0,1,7.71-10.33A26.13,26.13,0,0,1,400.36,3527Z" transform="translate(-70.97 -68.29)"/><path class="cls-2" d="M446.34,3593.06l3.84-22.82,2.53,7.36a8.51,8.51,0,0,1-6.14-1.66,7.67,7.67,0,0,1-2.85-5.76,7.88,7.88,0,0,1,1.86-6.16,8,8,0,0,1,5.57-2.73,7.82,7.82,0,0,1,6.05,1.81,8.13,8.13,0,0,1,2.75,5.72,13.25,13.25,0,0,1,0,2.27,19.16,19.16,0,0,1-.48,2.72c-.25,1-.61,2.33-1.09,3.92l-4,14.66Z" transform="translate(-70.97 -68.29)"/><path class="cls-2" d="M544.43,3569.52l-.91-10.92-.78-2.16-1.59-18.93q-.46-5.51-4.07-8.28T526.65,3527a28,28,0,0,0-8.59,2.14,23,23,0,0,0-7.09,4.52l-5.67-8.7a31.71,31.71,0,0,1,9.9-5.88,44.62,44.62,0,0,1,12.18-2.73q11.72-1,18.5,4.1t7.75,16.7l2.63,31.36Zm-16.77,2.11a25.3,25.3,0,0,1-10.69-1.18,16.3,16.3,0,0,1-7.44-5.12,14.56,14.56,0,0,1-3.14-8.06,15.65,15.65,0,0,1,1.47-8.3,14.63,14.63,0,0,1,6.59-6.3q4.72-2.51,12.84-3.19l15.53-1.3.7,8.31-14.63,1.23c-4.21.35-7,1.27-8.39,2.77a6.67,6.67,0,0,0-1.82,5.34,6.3,6.3,0,0,0,3.15,5.09q2.86,1.77,7.68,1.37a16.39,16.39,0,0,0,8.08-2.79,12.46,12.46,0,0,0,4.84-6.66l2.64,7.34a14,14,0,0,1-5.8,7.85C536.34,3570,532.47,3571.22,527.66,3571.63Z" transform="translate(-70.97 -68.29)"/><path class="cls-2" d="M633.38,3559.65a29,29,0,0,1-14.09-2.1,24.85,24.85,0,0,1-10.43-8.26,25.48,25.48,0,0,1-4.69-13.22,25.91,25.91,0,0,1,2.42-14,24.37,24.37,0,0,1,8.9-9.88,29.42,29.42,0,0,1,13.56-4.36,26.83,26.83,0,0,1,12.5,1.73,20.37,20.37,0,0,1,9.37,7.74q3.69,5.43,4.44,14.45.74,8.82-2,14.8a20.73,20.73,0,0,1-8,9.23A26.5,26.5,0,0,1,633.38,3559.65Zm3.49,22.4a53.2,53.2,0,0,1-14.63-.74,31.18,31.18,0,0,1-12.06-4.79l4.83-9.79a27.37,27.37,0,0,0,9.21,4,34,34,0,0,0,11.17.88q8.72-.72,12.48-5.13t3.08-12.61l-.79-9.52v-12.1l-1.41-12.09-1.1-13.12,11.92-1,3.8,45.38q1.21,14.52-5.62,22T636.87,3582.05Zm-2.47-33.18a17.78,17.78,0,0,0,8.25-2.66,14.39,14.39,0,0,0,5.31-5.89,15.15,15.15,0,0,0,1.39-8,15.34,15.34,0,0,0-2.72-7.85,14.13,14.13,0,0,0-6.21-4.82,18.12,18.12,0,0,0-8.57-1.2,18.5,18.5,0,0,0-8.31,2.61,14.08,14.08,0,0,0-5.36,5.8,16.43,16.43,0,0,0,1.33,15.87,14.33,14.33,0,0,0,6.26,4.93A18.2,18.2,0,0,0,634.4,3548.87Z" transform="translate(-70.97 -68.29)"/><path class="cls-2" d="M711.18,3556.26A32.68,32.68,0,0,1,695.3,3554a26,26,0,0,1-11.13-8.85,27.32,27.32,0,0,1-4.84-13.87,27.86,27.86,0,0,1,2.37-14.47,25.85,25.85,0,0,1,9-10.54,28.48,28.48,0,0,1,14-4.75,27.76,27.76,0,0,1,14.21,2.29,25.13,25.13,0,0,1,10.43,8.86,29.56,29.56,0,0,1,4.73,14.43c0,.47.08,1,.1,1.76s0,1.32,0,1.86l-44.58,3.74-.7-8.32,38-3.18-4.79,3a15.84,15.84,0,0,0-2.53-7.91,14,14,0,0,0-5.82-5.06,15.9,15.9,0,0,0-8.18-1.28,16.52,16.52,0,0,0-7.9,2.62,13.29,13.29,0,0,0-5,6,17.62,17.62,0,0,0-1.21,8.47l.17,2a16.64,16.64,0,0,0,2.87,8.33,14.66,14.66,0,0,0,6.64,5.24,20.12,20.12,0,0,0,9.49,1.28,21,21,0,0,0,8-2.18,19.15,19.15,0,0,0,6-4.95l7.46,7.25a23.93,23.93,0,0,1-8.63,7.17A33,33,0,0,1,711.18,3556.26Z" transform="translate(-70.97 -68.29)"/><path class="cls-2" d="M779.6,3495.26a25.13,25.13,0,0,1,11.68,1.54,18.72,18.72,0,0,1,8.56,7q3.39,5,4.07,13.08l2.57,30.65L794,3548.63l-2.43-29.05q-.6-7.11-4.2-10.35t-9.71-2.71A16.44,16.44,0,0,0,770,3509a12.48,12.48,0,0,0-4.81,5.8,19.24,19.24,0,0,0-1.1,9.12l2.26,27.05-12.42,1-4.48-53.49,11.92-1,1.22,14.53-2.48-4.34a18.67,18.67,0,0,1,7.4-8.58A26.33,26.33,0,0,1,779.6,3495.26Z" transform="translate(-70.97 -68.29)"/><path class="cls-2" d="M817.2,3503.31l-.84-10,35.66-3,.84,10Zm30.91,41.49q-8.82.73-14-3.42t-5.93-13l-4-48.08,12.42-1,4,47.68a8.29,8.29,0,0,0,2.5,5.74,7.42,7.42,0,0,0,5.79,1.64,10.48,10.48,0,0,0,6.63-2.78l4.35,8.62a15.9,15.9,0,0,1-5.28,3.16A24.33,24.33,0,0,1,848.11,3544.8Z" transform="translate(-70.97 -68.29)"/><path class="cls-2" d="M899.3,3540.51a32.68,32.68,0,0,1-15.88-2.25,26,26,0,0,1-11.13-8.85,27.38,27.38,0,0,1-4.84-13.87,27.86,27.86,0,0,1,2.37-14.47,25.93,25.93,0,0,1,9-10.54,28.55,28.55,0,0,1,14-4.75,27.85,27.85,0,0,1,14.21,2.29,25.13,25.13,0,0,1,10.43,8.86,29.7,29.7,0,0,1,4.74,14.43c0,.47.07,1.06.09,1.76s0,1.33,0,1.86l-44.58,3.74-.69-8.32,38-3.18-4.79,3a15.84,15.84,0,0,0-2.53-7.91,14,14,0,0,0-5.82-5.06,15.88,15.88,0,0,0-8.18-1.28,16.52,16.52,0,0,0-7.9,2.62,13.35,13.35,0,0,0-5,6,17.62,17.62,0,0,0-1.21,8.47l.17,2a16.64,16.64,0,0,0,2.87,8.33,14.74,14.74,0,0,0,6.64,5.25,20.25,20.25,0,0,0,9.49,1.27,21,21,0,0,0,8-2.18,19,19,0,0,0,6-4.95l7.46,7.25a24.11,24.11,0,0,1-8.62,7.18A33.32,33.32,0,0,1,899.3,3540.51Z" transform="translate(-70.97 -68.29)"/><path class="cls-2" d="M1038.05,3473.62a25,25,0,0,1,11.58,1.55,17.93,17.93,0,0,1,8.4,7.06q3.24,5,3.92,13.09l2.57,30.66-12.42,1-2.43-29.05q-.6-7.11-4.05-10.36t-9.26-2.75a14.36,14.36,0,0,0-7.11,2.41,12.24,12.24,0,0,0-4.46,5.77,20.12,20.12,0,0,0-1,9l2.27,27.15-12.42,1-2.43-29q-.6-7.12-4-10.36t-9.26-2.75a14.39,14.39,0,0,0-7.11,2.41,12.13,12.13,0,0,0-4.46,5.77,20,20,0,0,0-1,9l2.27,27.15-12.42,1-4.48-53.5,11.92-1,1.2,14.32-2.57-4.12a18.91,18.91,0,0,1,7.21-8.57,24.45,24.45,0,0,1,11.63-3.8,22.86,22.86,0,0,1,13.33,2.61q5.82,3.26,8.27,10.81l-5-1.4a20.78,20.78,0,0,1,7.71-10.33A26.12,26.12,0,0,1,1038.05,3473.62Z" transform="translate(-70.97 -68.29)"/><path class="cls-2" d="M1111.36,3522.76a32.68,32.68,0,0,1-15.88-2.25,26,26,0,0,1-11.13-8.85,27.41,27.41,0,0,1-4.84-13.87,27.92,27.92,0,0,1,2.37-14.48,26,26,0,0,1,9-10.53,28.45,28.45,0,0,1,14-4.75,27.74,27.74,0,0,1,14.21,2.29,25.06,25.06,0,0,1,10.43,8.86,29.63,29.63,0,0,1,4.74,14.43c0,.47.07,1,.09,1.76s0,1.32,0,1.86l-44.58,3.73-.69-8.31,38-3.18-4.79,3a15.8,15.8,0,0,0-2.53-7.9,14,14,0,0,0-5.82-5.06,15.88,15.88,0,0,0-8.18-1.29,16.57,16.57,0,0,0-7.9,2.63,13.35,13.35,0,0,0-5,6,17.6,17.6,0,0,0-1.21,8.47l.17,2a16.64,16.64,0,0,0,2.87,8.34,14.66,14.66,0,0,0,6.64,5.24,20.26,20.26,0,0,0,9.49,1.28,20.87,20.87,0,0,0,8-2.19,18.94,18.94,0,0,0,6-4.94l7.46,7.24a23.9,23.9,0,0,1-8.62,7.18A33.13,33.13,0,0,1,1111.36,3522.76Z" transform="translate(-70.97 -68.29)"/><path class="cls-2" d="M1155.07,3455.65a7.93,7.93,0,0,1-6-1.72,7.26,7.26,0,0,1-2.7-5.22,7.07,7.07,0,0,1,1.81-5.4,7.92,7.92,0,0,1,5.58-2.68,8.19,8.19,0,0,1,5.93,1.57,6.77,6.77,0,0,1,2.69,5.07,7.53,7.53,0,0,1-1.74,5.64A7.78,7.78,0,0,1,1155.07,3455.65Zm-1,62.83-4.48-53.49,12.43-1,4.47,53.49Z" transform="translate(-70.97 -68.29)"/><path class="cls-2" d="M1212.53,3514.29a29.72,29.72,0,0,1-14.87-2.34,26.59,26.59,0,0,1-11-8.91,29,29,0,0,1-2.37-28.35,26.88,26.88,0,0,1,9.31-10.51,29.62,29.62,0,0,1,14.32-4.78,30.2,30.2,0,0,1,15.08,2.32,26.46,26.46,0,0,1,10.92,8.82,29.49,29.49,0,0,1,2.38,28.4,26.16,26.16,0,0,1-9.35,10.56A30.33,30.33,0,0,1,1212.53,3514.29Zm-.89-10.62a16.39,16.39,0,0,0,8-2.74,14.55,14.55,0,0,0,5.17-6.38,18.7,18.7,0,0,0,1.31-9,18.28,18.28,0,0,0-2.8-8.69,14.64,14.64,0,0,0-6.14-5.34,17.14,17.14,0,0,0-16.23,1.36,15,15,0,0,0-5.22,6.29,17.88,17.88,0,0,0-1.37,9,18.29,18.29,0,0,0,2.85,8.69,14.87,14.87,0,0,0,6.21,5.43A15.86,15.86,0,0,0,1211.64,3503.67Z" transform="translate(-70.97 -68.29)"/><path class="cls-2" d="M1314.3,3505.77a28,28,0,0,1-14.11-2.25,24.84,24.84,0,0,1-10.41-8.76,31.63,31.63,0,0,1-2.42-28.9,24.71,24.71,0,0,1,8.81-10.42,28,28,0,0,1,13.54-4.56,24.67,24.67,0,0,1,12.51,1.92,20.41,20.41,0,0,1,9,8.33q3.52,5.8,4.3,15.22t-1.81,15.69a21,21,0,0,1-7.6,9.77A24.39,24.39,0,0,1,1314.3,3505.77Zm.62-10.74a15.85,15.85,0,0,0,7.93-2.79,15.22,15.22,0,0,0,5.22-6.38,18,18,0,0,0,1.36-9,17.84,17.84,0,0,0-2.84-8.68,15,15,0,0,0-6.2-5.34,16.25,16.25,0,0,0-8.28-1.37,15.93,15.93,0,0,0-7.85,2.72,15,15,0,0,0-5.22,6.29,19.71,19.71,0,0,0,1.48,17.68,15.23,15.23,0,0,0,6.21,5.43A15.64,15.64,0,0,0,1314.92,3495Zm18.18,28-2.67-31.85-.19-14.31-1.59-14.19-1.05-12.63,11.92-1,6.1,72.92Z" transform="translate(-70.97 -68.29)"/><path class="cls-2" d="M1388.63,3499.55a27.14,27.14,0,0,1-12.24-1.55,18.66,18.66,0,0,1-8.81-7.13q-3.4-5-4.07-13l-2.56-30.56,12.62-1.05,2.43,29q.59,7.11,4.2,10.39t9.51,2.78a15.79,15.79,0,0,0,7.56-2.45,12.12,12.12,0,0,0,4.66-5.84,19.81,19.81,0,0,0,1-9.06l-2.26-27.05,12.52-1.05,4.48,53.5-11.92,1-1.22-14.52,2.48,4.33a18.83,18.83,0,0,1-7.25,8.58A23.79,23.79,0,0,1,1388.63,3499.55Z" transform="translate(-70.97 -68.29)"/><path class="cls-2" d="M1464.86,3493.17a32.8,32.8,0,0,1-15.88-2.26,25.9,25.9,0,0,1-11.13-8.85,27.34,27.34,0,0,1-4.84-13.87,27.88,27.88,0,0,1,2.37-14.47,26.07,26.07,0,0,1,9-10.54,28.55,28.55,0,0,1,14-4.75,28,28,0,0,1,14.21,2.29,25.2,25.2,0,0,1,10.43,8.86,29.71,29.71,0,0,1,4.74,14.44c0,.46.07,1.05.09,1.75s0,1.33,0,1.87l-44.58,3.73-.69-8.31,38-3.18-4.79,3a15.74,15.74,0,0,0-2.53-7.91,14,14,0,0,0-5.82-5.06,15.86,15.86,0,0,0-8.17-1.28,16.57,16.57,0,0,0-7.91,2.63,13.32,13.32,0,0,0-5,6,17.66,17.66,0,0,0-1.21,8.48l.17,2a16.57,16.57,0,0,0,2.87,8.33,14.61,14.61,0,0,0,6.64,5.25,20.14,20.14,0,0,0,9.49,1.27,20.87,20.87,0,0,0,8-2.18,19.08,19.08,0,0,0,6-4.94l7.46,7.24a24,24,0,0,1-8.62,7.18A33.33,33.33,0,0,1,1464.86,3493.17Z" transform="translate(-70.97 -68.29)"/><path class="cls-2" d="M1536.7,3506.72a26.48,26.48,0,0,1-6.62-.25,16.93,16.93,0,0,1-5.56-1.86l2.83-9.61a12.24,12.24,0,0,0,7.49,1.49,6.75,6.75,0,0,0,5.13-2.6c1.15-1.54,1.6-3.72,1.37-6.52l-4.59-54.8,12.52-1,4.56,54.49q.75,8.82-3.68,14.38T1536.7,3506.72Zm5.52-83.48a7.91,7.91,0,0,1-5.94-1.72,7.28,7.28,0,0,1-2.71-5.22,7.06,7.06,0,0,1,1.82-5.4,8,8,0,0,1,5.58-2.69,8.26,8.26,0,0,1,5.93,1.58,6.8,6.8,0,0,1,2.69,5.07,7.56,7.56,0,0,1-1.74,5.64A7.79,7.79,0,0,1,1542.22,3423.24Z" transform="translate(-70.97 -68.29)"/><path class="cls-2" d="M1598.39,3482a27.12,27.12,0,0,1-12.24-1.55,18.73,18.73,0,0,1-8.82-7.13q-3.39-5-4.06-13l-2.56-30.55,12.62-1.05,2.42,28.94q.6,7.13,4.2,10.4t9.52,2.78a15.82,15.82,0,0,0,7.56-2.45,12.18,12.18,0,0,0,4.65-5.83,19.73,19.73,0,0,0,1.06-9.07l-2.26-27,12.52-1.05,4.48,53.5-11.92,1-1.22-14.53,2.48,4.33a18.89,18.89,0,0,1-7.25,8.58A23.83,23.83,0,0,1,1598.39,3482Z" transform="translate(-70.97 -68.29)"/><path class="cls-2" d="M1675.23,3420.28a25.16,25.16,0,0,1,11.68,1.54,18.77,18.77,0,0,1,8.56,7q3.39,5,4.07,13.08l2.57,30.65-12.53,1.05-2.43-29.05q-.6-7.11-4.19-10.34t-9.71-2.72a16.3,16.3,0,0,0-7.66,2.46,12.34,12.34,0,0,0-4.82,5.8,19.46,19.46,0,0,0-1.1,9.12l2.27,27-12.43,1-4.47-53.49,11.92-1,1.21,14.53-2.48-4.34a18.78,18.78,0,0,1,7.4-8.58A26.37,26.37,0,0,1,1675.23,3420.28Z" transform="translate(-70.97 -68.29)"/><path class="cls-2" d="M1712.82,3428.33l-.84-10,35.67-3,.83,10Zm30.91,41.49q-8.81.73-14-3.42t-5.93-13l-4-48.08,12.42-1,4,47.68a8.21,8.21,0,0,0,2.5,5.74,7.36,7.36,0,0,0,5.78,1.64,10.43,10.43,0,0,0,6.63-2.78l4.35,8.62a15.7,15.7,0,0,1-5.28,3.16A23.86,23.86,0,0,1,1743.73,3469.82Z" transform="translate(-70.97 -68.29)"/><path class="cls-2" d="M1804.48,3464l-.91-10.92-.79-2.15L1801.2,3432q-.46-5.51-4.08-8.28t-10.42-2.2a27.76,27.76,0,0,0-8.6,2.13,23.06,23.06,0,0,0-7.08,4.52l-5.68-8.7a31.73,31.73,0,0,1,9.9-5.87,44.43,44.43,0,0,1,12.18-2.74q11.71-1,18.5,4.1t7.76,16.71l2.62,31.35Zm-16.77,2.11A25.28,25.28,0,0,1,1777,3465a16.24,16.24,0,0,1-7.44-5.12,14.58,14.58,0,0,1-3.15-8.06,15.51,15.51,0,0,1,1.48-8.29,14.57,14.57,0,0,1,6.58-6.31q4.74-2.5,12.85-3.19l15.53-1.3.69,8.32-14.62,1.22c-4.21.35-7,1.28-8.4,2.77a6.74,6.74,0,0,0-1.82,5.35,6.33,6.33,0,0,0,3.15,5.08c1.92,1.19,4.48,1.64,7.68,1.37a16.23,16.23,0,0,0,8.09-2.79,12.47,12.47,0,0,0,4.84-6.66l2.63,7.35a14,14,0,0,1-5.8,7.84Q1794.92,3465.54,1787.71,3466.14Z" transform="translate(-70.97 -68.29)"/><path class="cls-2" d="M430.73,3627.11l-.84-10,35.66-3,.84,10Zm30.91,41.49q-8.82.75-14-3.41t-5.92-13l-4-48.09,12.42-1,4,47.68a8.32,8.32,0,0,0,2.5,5.75,7.41,7.41,0,0,0,5.79,1.63,10.47,10.47,0,0,0,6.63-2.77l4.35,8.61a15.87,15.87,0,0,1-5.29,3.17A23.77,23.77,0,0,1,461.64,3668.6Z" transform="translate(-70.97 -68.29)"/><path class="cls-2" d="M511.73,3664.41a29.89,29.89,0,0,1-14.88-2.33,26.5,26.5,0,0,1-11-8.92,27.28,27.28,0,0,1,6.93-38.86,29.76,29.76,0,0,1,14.33-4.78,30.16,30.16,0,0,1,15.07,2.32,26.42,26.42,0,0,1,10.93,8.82,29.49,29.49,0,0,1,2.38,28.4,26.19,26.19,0,0,1-9.36,10.56A30.26,30.26,0,0,1,511.73,3664.41Zm-.89-10.62a16.29,16.29,0,0,0,8-2.74,14.46,14.46,0,0,0,5.16-6.38,18.58,18.58,0,0,0,1.32-9,18.32,18.32,0,0,0-2.8-8.69,14.67,14.67,0,0,0-6.15-5.34,17.13,17.13,0,0,0-16.22,1.36,15.06,15.06,0,0,0-5.23,6.29,18,18,0,0,0-1.36,9,18.25,18.25,0,0,0,2.85,8.69,14.78,14.78,0,0,0,6.2,5.43A15.91,15.91,0,0,0,510.84,3653.79Z" transform="translate(-70.97 -68.29)"/><path class="cls-2" d="M580.44,3658.66a28.27,28.27,0,0,1-14.16-2.25,24.7,24.7,0,0,1-10.46-8.75,31.63,31.63,0,0,1-2.42-28.9,24.64,24.64,0,0,1,8.86-10.43,28.32,28.32,0,0,1,13.59-4.57,24.44,24.44,0,0,1,12.26,1.95,20.91,20.91,0,0,1,9.17,8.31q3.62,5.8,4.4,15.22T600,3644.92a20.4,20.4,0,0,1-7.5,9.76A24.74,24.74,0,0,1,580.44,3658.66Zm.62-10.75a16,16,0,0,0,7.89-2.72,15.32,15.32,0,0,0,5.21-6.39,18,18,0,0,0,1.41-9.05,17.57,17.57,0,0,0-2.89-8.68,15.4,15.4,0,0,0-6.2-5.33,16.92,16.92,0,0,0-16.13,1.35,15.48,15.48,0,0,0-5.22,6.28,17.51,17.51,0,0,0-1.41,9.05,17.83,17.83,0,0,0,2.9,8.68,15.16,15.16,0,0,0,6.2,5.44A15.8,15.8,0,0,0,581.06,3647.91Zm17.15,8.55-1.05-12.62-.89-14.25-2.2-14.14-2.78-33.25,12.62-1.06,6.22,74.33Z" transform="translate(-70.97 -68.29)"/><path class="cls-2" d="M665,3650.87l-.92-10.92-.78-2.15-1.59-18.93q-.45-5.52-4.07-8.29t-10.42-2.2a28,28,0,0,0-8.6,2.13,23.32,23.32,0,0,0-7.09,4.53l-5.67-8.71a31.92,31.92,0,0,1,9.9-5.87,44.42,44.42,0,0,1,12.18-2.73q11.71-1,18.5,4.1t7.75,16.7l2.63,31.35ZM648.26,3653a25.29,25.29,0,0,1-10.69-1.17,16.33,16.33,0,0,1-7.44-5.13,14.58,14.58,0,0,1-3.15-8.06,15.52,15.52,0,0,1,1.48-8.29A14.5,14.5,0,0,1,635,3624q4.73-2.52,12.85-3.2l15.52-1.3.7,8.32-14.63,1.22c-4.2.35-7,1.28-8.39,2.77a6.72,6.72,0,0,0-1.82,5.35,6.27,6.27,0,0,0,3.15,5.08q2.87,1.79,7.68,1.38a16.34,16.34,0,0,0,8.09-2.8,12.43,12.43,0,0,0,4.84-6.66l2.63,7.35a14,14,0,0,1-5.8,7.85Q655.46,3652.38,648.26,3653Z" transform="translate(-70.97 -68.29)"/><path class="cls-2" d="M715.07,3647.39a47.11,47.11,0,0,1-13.07-.67,35,35,0,0,1-10.17-3.44l4-9.92a33,33,0,0,0,8.93,3,36.05,36.05,0,0,0,10.24.6q5.81-.48,8.33-2.26a4.76,4.76,0,0,0,2.3-4.48,3.73,3.73,0,0,0-2.08-3.2,14.1,14.1,0,0,0-4.86-1.36q-3-.36-6.55-.56t-7.22-.76a24.71,24.71,0,0,1-6.68-2,13.44,13.44,0,0,1-5.08-4.07,13.72,13.72,0,0,1-2.43-7.36,14,14,0,0,1,2.17-9,19.07,19.07,0,0,1,7.68-6.54,33.41,33.41,0,0,1,12.29-3.15,49.57,49.57,0,0,1,11,.35,31.83,31.83,0,0,1,9.56,2.67l-4.11,9.93a25.7,25.7,0,0,0-7.87-2.42,37.1,37.1,0,0,0-7.79-.2c-3.74.31-6.49,1.1-8.27,2.36s-2.6,2.75-2.45,4.49a4,4,0,0,0,2.11,3.45,13.89,13.89,0,0,0,4.86,1.46c2,.27,4.16.5,6.56.66s4.79.44,7.18.81a28.67,28.67,0,0,1,6.66,1.87,12.4,12.4,0,0,1,5.12,4,13.33,13.33,0,0,1,2.42,7.16,13.56,13.56,0,0,1-2.22,9,19.38,19.38,0,0,1-7.84,6.41A36.34,36.34,0,0,1,715.07,3647.39Z" transform="translate(-70.97 -68.29)"/><path class="cls-2" d="M813.84,3639.12a32.64,32.64,0,0,1-15.87-2.25,26,26,0,0,1-11.14-8.86,27.34,27.34,0,0,1-4.84-13.86,27.9,27.9,0,0,1,2.37-14.48,26,26,0,0,1,9-10.53,28.56,28.56,0,0,1,14-4.76,27.85,27.85,0,0,1,14.21,2.3,25,25,0,0,1,10.43,8.86,29.63,29.63,0,0,1,4.74,14.43c0,.47.07,1.05.1,1.76s0,1.32,0,1.86l-44.58,3.73-.69-8.31,38-3.18-4.79,3a15.68,15.68,0,0,0-2.53-7.91,14,14,0,0,0-5.82-5.05,15.86,15.86,0,0,0-8.17-1.29,16.49,16.49,0,0,0-7.9,2.63,13.31,13.31,0,0,0-5,6,17.48,17.48,0,0,0-1.2,8.47l.16,2a16.74,16.74,0,0,0,2.87,8.34,14.71,14.71,0,0,0,6.64,5.24,20.26,20.26,0,0,0,9.49,1.28,21.05,21.05,0,0,0,8-2.19,19.08,19.08,0,0,0,6-4.94l7.47,7.24a24.12,24.12,0,0,1-8.63,7.18A33.13,33.13,0,0,1,813.84,3639.12Z" transform="translate(-70.97 -68.29)"/><path class="cls-2" d="M873.14,3634.16a46.73,46.73,0,0,1-13.07-.68,34.69,34.69,0,0,1-10.17-3.43l4-9.92a32.63,32.63,0,0,0,8.93,3,36.06,36.06,0,0,0,10.24.61c3.87-.32,6.65-1.08,8.33-2.26a4.76,4.76,0,0,0,2.3-4.48,3.76,3.76,0,0,0-2.08-3.21,14.11,14.11,0,0,0-4.86-1.35q-3-.36-6.55-.57t-7.23-.75a24.75,24.75,0,0,1-6.67-2,13.32,13.32,0,0,1-5.08-4.06,13.75,13.75,0,0,1-2.43-7.36,14,14,0,0,1,2.17-9,19,19,0,0,1,7.67-6.54,33.52,33.52,0,0,1,12.3-3.15,49.56,49.56,0,0,1,11,.34,32.2,32.2,0,0,1,9.56,2.68l-4.11,9.93a25.7,25.7,0,0,0-7.87-2.42,35.8,35.8,0,0,0-7.79-.2q-5.61.46-8.27,2.35t-2.45,4.49a4,4,0,0,0,2.1,3.46,14,14,0,0,0,4.87,1.46q3,.41,6.56.66t7.18.81a28.17,28.17,0,0,1,6.66,1.86,12.57,12.57,0,0,1,5.12,4,13.36,13.36,0,0,1,2.42,7.16,13.63,13.63,0,0,1-2.22,9,19.29,19.29,0,0,1-7.84,6.4A36.11,36.11,0,0,1,873.14,3634.16Z" transform="translate(-70.97 -68.29)"/><path class="cls-2" d="M930.24,3629.38a46.73,46.73,0,0,1-13.07-.68,34.69,34.69,0,0,1-10.17-3.43l4-9.92a33,33,0,0,0,8.93,3,36.8,36.8,0,0,0,10.24.6c3.87-.32,6.65-1.08,8.33-2.26a4.77,4.77,0,0,0,2.3-4.48,3.74,3.74,0,0,0-2.08-3.2,13.89,13.89,0,0,0-4.86-1.36c-2-.24-4.16-.43-6.55-.57s-4.81-.38-7.23-.75a24.65,24.65,0,0,1-6.67-2,13.32,13.32,0,0,1-5.08-4.06,13.75,13.75,0,0,1-2.43-7.36,14,14,0,0,1,2.17-9,18.88,18.88,0,0,1,7.67-6.54,33.52,33.52,0,0,1,12.3-3.15,49.57,49.57,0,0,1,11,.34,32.2,32.2,0,0,1,9.56,2.68l-4.12,9.93a25.56,25.56,0,0,0-7.86-2.42,36.47,36.47,0,0,0-7.79-.21c-3.74.32-6.5,1.1-8.28,2.36s-2.59,2.76-2.44,4.49a4,4,0,0,0,2.1,3.46,14,14,0,0,0,4.86,1.46c2,.27,4.16.49,6.57.66s4.79.44,7.18.81a28.17,28.17,0,0,1,6.66,1.86,12.7,12.7,0,0,1,5.12,4,15,15,0,0,1,.19,16.18,19.19,19.19,0,0,1-7.83,6.4A36.11,36.11,0,0,1,930.24,3629.38Z" transform="translate(-70.97 -68.29)"/><path class="cls-2" d="M1003.61,3622.53l-.92-10.92-.78-2.16-1.59-18.93q-.47-5.51-4.07-8.28T985.83,3580a28.06,28.06,0,0,0-8.6,2.14,23,23,0,0,0-7.09,4.52l-5.67-8.7a31.5,31.5,0,0,1,9.9-5.87,44.26,44.26,0,0,1,12.18-2.74q11.72-1,18.5,4.1t7.75,16.7l2.63,31.36Zm-16.77,2.11a25.28,25.28,0,0,1-10.69-1.18,16.24,16.24,0,0,1-7.44-5.12,14.5,14.5,0,0,1-3.15-8.06A15.65,15.65,0,0,1,967,3602a14.63,14.63,0,0,1,6.59-6.3c3.15-1.67,7.44-2.74,12.84-3.19l15.53-1.3.7,8.31-14.63,1.23c-4.21.35-7,1.27-8.39,2.77a6.68,6.68,0,0,0-1.82,5.35,6.3,6.3,0,0,0,3.15,5.08q2.87,1.77,7.68,1.37a16.36,16.36,0,0,0,8.09-2.79,12.49,12.49,0,0,0,4.83-6.66l2.64,7.34a14,14,0,0,1-5.8,7.85C995.51,3623,991.64,3624.23,986.84,3624.64Z" transform="translate(-70.97 -68.29)"/><path class="cls-2" d="M1053.65,3619a46.73,46.73,0,0,1-13.07-.67,35,35,0,0,1-10.17-3.43l4-9.92a33.31,33.31,0,0,0,8.93,3,36.43,36.43,0,0,0,10.24.61q5.81-.49,8.33-2.26a4.77,4.77,0,0,0,2.3-4.48,3.76,3.76,0,0,0-2.08-3.21,14.33,14.33,0,0,0-4.86-1.36q-3-.34-6.55-.56t-7.23-.75a24.65,24.65,0,0,1-6.67-2,13.42,13.42,0,0,1-5.08-4.06,13.75,13.75,0,0,1-2.43-7.36,14,14,0,0,1,2.17-9,18.88,18.88,0,0,1,7.67-6.54,33.52,33.52,0,0,1,12.3-3.15,49.56,49.56,0,0,1,11,.34A32.2,32.2,0,0,1,1072,3567l-4.11,9.93a25.7,25.7,0,0,0-7.87-2.42,36.47,36.47,0,0,0-7.79-.21c-3.74.32-6.5,1.1-8.27,2.36s-2.6,2.76-2.45,4.49a4,4,0,0,0,2.1,3.46,14,14,0,0,0,4.87,1.46q3,.4,6.56.66t7.18.81a28.17,28.17,0,0,1,6.66,1.86,12.53,12.53,0,0,1,5.12,4,13.36,13.36,0,0,1,2.42,7.16,13.64,13.64,0,0,1-2.22,9,19.29,19.29,0,0,1-7.84,6.4A36.12,36.12,0,0,1,1053.65,3619Z" transform="translate(-70.97 -68.29)"/><path class="cls-2" d="M1128.31,3549.34a7.86,7.86,0,0,1-5.94-1.72,7.28,7.28,0,0,1-2.71-5.22,7.08,7.08,0,0,1,1.82-5.4,7.9,7.9,0,0,1,5.57-2.68,8.23,8.23,0,0,1,5.93,1.57,6.81,6.81,0,0,1,2.7,5.07,7.54,7.54,0,0,1-1.75,5.64A7.76,7.76,0,0,1,1128.31,3549.34Zm-1,62.83-4.48-53.49,12.42-1,4.48,53.49Z" transform="translate(-70.97 -68.29)"/><path class="cls-2" d="M1187.49,3552.56a25.3,25.3,0,0,1,11.68,1.54,18.9,18.9,0,0,1,8.56,7.05q3.39,5,4.07,13.08l2.56,30.65-12.52,1-2.43-29q-.6-7.11-4.19-10.34t-9.71-2.72a16.6,16.6,0,0,0-7.67,2.46,12.43,12.43,0,0,0-4.81,5.8,19.46,19.46,0,0,0-1.1,9.12l2.26,27.05-12.42,1-4.48-53.49,11.93-1,1.21,14.52L1168,3565a18.75,18.75,0,0,1,7.4-8.59A26.37,26.37,0,0,1,1187.49,3552.56Z" transform="translate(-70.97 -68.29)"/><path class="cls-2" d="M1225.08,3560.61l-.84-10,35.66-3,.84,10Zm12.42,42.33-4.72-56.39q-.71-8.52,3.82-14t13.75-6.25a27.52,27.52,0,0,1,6.32.18,13.47,13.47,0,0,1,5.15,1.79l-2.73,9.61a12.15,12.15,0,0,0-3.23-1.24,11.61,11.61,0,0,0-3.76-.29,7.69,7.69,0,0,0-5.73,2.65c-1.21,1.54-1.7,3.72-1.47,6.52l.52,6.21.76,5.49,3.74,44.68Zm35.76-3-6.22-74.33,12.42-1,6.23,74.33Z" transform="translate(-70.97 -68.29)"/><path class="cls-2" d="M1330.32,3595.88a26.94,26.94,0,0,1-12.23-1.55,18.64,18.64,0,0,1-8.82-7.13q-3.4-5-4.07-13l-2.56-30.55,12.62-1.06,2.43,28.95c.4,4.74,1.79,8.2,4.2,10.39s5.57,3.11,9.51,2.78a15.89,15.89,0,0,0,7.56-2.44,12.22,12.22,0,0,0,4.66-5.84,20,20,0,0,0,1.06-9.07l-2.27-27,12.52-1.05,4.48,53.49-11.92,1-1.22-14.53,2.49,4.33a18.91,18.91,0,0,1-7.26,8.58A23.68,23.68,0,0,1,1330.32,3595.88Z" transform="translate(-70.97 -68.29)"/><path class="cls-2" d="M1406.55,3589.5a32.64,32.64,0,0,1-15.87-2.25,26.06,26.06,0,0,1-11.14-8.85,27.41,27.41,0,0,1-4.84-13.87,27.9,27.9,0,0,1,2.37-14.48,26,26,0,0,1,9-10.53,28.56,28.56,0,0,1,14-4.76,27.85,27.85,0,0,1,14.21,2.3,25,25,0,0,1,10.43,8.86,29.63,29.63,0,0,1,4.74,14.43c0,.47.07,1.05.1,1.76s0,1.32,0,1.86L1385,3567.7l-.69-8.31,38-3.18-4.79,3a15.68,15.68,0,0,0-2.53-7.91,14,14,0,0,0-5.82-5.05,15.86,15.86,0,0,0-8.17-1.29,16.49,16.49,0,0,0-7.9,2.63,13.31,13.31,0,0,0-5,6,17.48,17.48,0,0,0-1.2,8.47l.16,2a16.74,16.74,0,0,0,2.87,8.34,14.71,14.71,0,0,0,6.64,5.24A20.26,20.26,0,0,0,1406,3579a21,21,0,0,0,8-2.19,19.08,19.08,0,0,0,6-4.94l7.47,7.24a24,24,0,0,1-8.63,7.18A33.13,33.13,0,0,1,1406.55,3589.5Zm-26.49-59.72,12.38-14.86,11.22-.93,14.67,12.59-10.22.85-14.69-10.37,9.62-.8-12.76,12.67Z" transform="translate(-70.97 -68.29)"/><path class="cls-2" d="M1475,3528.49a25.16,25.16,0,0,1,11.68,1.55,18.77,18.77,0,0,1,8.56,7.05q3.39,5,4.07,13.07l2.56,30.65-12.52,1.05-2.43-29.05q-.6-7.11-4.19-10.34t-9.71-2.72a16.6,16.6,0,0,0-7.67,2.46,12.43,12.43,0,0,0-4.81,5.8,19.48,19.48,0,0,0-1.1,9.12l2.27,27-12.43,1-4.47-53.49,11.92-1,1.21,14.52-2.48-4.33a18.75,18.75,0,0,1,7.4-8.59A26.37,26.37,0,0,1,1475,3528.49Z" transform="translate(-70.97 -68.29)"/><path class="cls-2" d="M1548,3577.66a31.06,31.06,0,0,1-15.27-2.3,26.47,26.47,0,0,1-11.08-8.86,29.12,29.12,0,0,1-2.38-28.4,26.63,26.63,0,0,1,9.46-10.53,31.1,31.1,0,0,1,14.68-4.81,28.84,28.84,0,0,1,14,2.06,20.71,20.71,0,0,1,9.79,8.56l-9,6.41a16,16,0,0,0-6.33-5.07,15.69,15.69,0,0,0-7.62-1.23,17,17,0,0,0-8.14,2.75,14.78,14.78,0,0,0-5.32,6.3,17.77,17.77,0,0,0-1.36,9,18.12,18.12,0,0,0,2.85,8.74,14.62,14.62,0,0,0,6.3,5.37,16.89,16.89,0,0,0,8.48,1.36,15.67,15.67,0,0,0,7.31-2.48,15.87,15.87,0,0,0,5.39-6.15l10,4.81a21,21,0,0,1-8.24,10A28.39,28.39,0,0,1,1548,3577.66Z" transform="translate(-70.97 -68.29)"/><path class="cls-2" d="M1587.69,3510.89a7.93,7.93,0,0,1-5.94-1.73,7.28,7.28,0,0,1-2.71-5.22,7.08,7.08,0,0,1,1.82-5.39,7.89,7.89,0,0,1,5.58-2.69,8.25,8.25,0,0,1,5.93,1.57,6.83,6.83,0,0,1,2.69,5.07,7.57,7.57,0,0,1-1.74,5.65A7.86,7.86,0,0,1,1587.69,3510.89Zm-1,62.82-4.48-53.49,12.42-1,4.48,53.49Z" transform="translate(-70.97 -68.29)"/><path class="cls-2" d="M1654,3568.08l-.91-10.92-.79-2.16-1.58-18.93q-.46-5.51-4.07-8.28t-10.43-2.21a28.14,28.14,0,0,0-8.6,2.14,23.06,23.06,0,0,0-7.08,4.52l-5.67-8.7a31.5,31.5,0,0,1,9.9-5.87,44.27,44.27,0,0,1,12.17-2.74q11.73-1,18.51,4.1t7.75,16.7l2.62,31.36Zm-16.77,2.11a25.3,25.3,0,0,1-10.69-1.18,16.24,16.24,0,0,1-7.44-5.12,14.49,14.49,0,0,1-3.14-8.06,15.56,15.56,0,0,1,1.47-8.3,14.6,14.6,0,0,1,6.58-6.3q4.74-2.51,12.85-3.19l15.53-1.3.69,8.31-14.62,1.23q-6.32.53-8.39,2.77a6.72,6.72,0,0,0-1.83,5.35,6.35,6.35,0,0,0,3.15,5.08,12.48,12.48,0,0,0,7.68,1.37,16.29,16.29,0,0,0,8.09-2.79,12.51,12.51,0,0,0,4.84-6.66l2.63,7.34a14,14,0,0,1-5.79,7.85C1645.92,3568.59,1642.05,3569.78,1637.24,3570.19Z" transform="translate(-70.97 -68.29)"/><path class="cls-2" d="M1704.06,3564.59a46.71,46.71,0,0,1-13.07-.67,34.76,34.76,0,0,1-10.18-3.43l4-9.92a32.85,32.85,0,0,0,8.93,3,36.36,36.36,0,0,0,10.23.61q5.82-.49,8.34-2.26a4.77,4.77,0,0,0,2.3-4.48,3.77,3.77,0,0,0-2.09-3.21,14.2,14.2,0,0,0-4.85-1.36q-3-.34-6.56-.56t-7.22-.75a24.65,24.65,0,0,1-6.67-2,13.42,13.42,0,0,1-5.08-4.06,13.75,13.75,0,0,1-2.43-7.36,14,14,0,0,1,2.17-9,18.82,18.82,0,0,1,7.67-6.54,33.52,33.52,0,0,1,12.3-3.15,49.59,49.59,0,0,1,11,.34,32,32,0,0,1,9.55,2.68l-4.11,9.93a25.54,25.54,0,0,0-7.87-2.42,36.36,36.36,0,0,0-7.78-.21c-3.74.32-6.5,1.1-8.28,2.36s-2.59,2.76-2.45,4.49a4.07,4.07,0,0,0,2.11,3.46,14,14,0,0,0,4.86,1.46c2,.27,4.16.49,6.56.66s4.8.44,7.18.81a28.12,28.12,0,0,1,6.67,1.86,12.53,12.53,0,0,1,5.12,4,13.36,13.36,0,0,1,2.41,7.16,13.53,13.53,0,0,1-2.22,9,19.25,19.25,0,0,1-7.83,6.4A36.12,36.12,0,0,1,1704.06,3564.59Z" transform="translate(-70.97 -68.29)"/><path class="cls-2" d="M1802.83,3556.33a32.8,32.8,0,0,1-15.88-2.26,26,26,0,0,1-11.13-8.85,27.28,27.28,0,0,1-4.84-13.87,27.86,27.86,0,0,1,2.37-14.47,25.85,25.85,0,0,1,9-10.54,28.48,28.48,0,0,1,14-4.75,27.87,27.87,0,0,1,14.21,2.29,25.13,25.13,0,0,1,10.43,8.86,29.59,29.59,0,0,1,4.73,14.43c0,.47.07,1.06.1,1.76s0,1.33,0,1.87l-44.58,3.73-.7-8.32,38-3.17-4.79,3a15.84,15.84,0,0,0-2.53-7.91,14,14,0,0,0-5.82-5.06,15.9,15.9,0,0,0-8.18-1.28,16.53,16.53,0,0,0-7.9,2.63,13.26,13.26,0,0,0-5,6,17.64,17.64,0,0,0-1.21,8.48l.17,2a16.73,16.73,0,0,0,2.86,8.33,14.76,14.76,0,0,0,6.65,5.25,20.23,20.23,0,0,0,9.49,1.27,21,21,0,0,0,8-2.18,19.11,19.11,0,0,0,6-4.94l7.46,7.24a24.14,24.14,0,0,1-8.63,7.18A33.47,33.47,0,0,1,1802.83,3556.33Z" transform="translate(-70.97 -68.29)"/><path class="cls-2" d="M201.12,3718.42a7.9,7.9,0,0,1-5.94-1.73,7.28,7.28,0,0,1-2.71-5.22,7,7,0,0,1,1.82-5.39,7.93,7.93,0,0,1,5.57-2.69,8.27,8.27,0,0,1,5.94,1.57,6.87,6.87,0,0,1,2.69,5.07,7.53,7.53,0,0,1-1.75,5.65A7.78,7.78,0,0,1,201.12,3718.42Zm-1,62.82-4.48-53.49,12.42-1,4.48,53.49Z" transform="translate(-70.97 -68.29)"/><path class="cls-2" d="M260.3,3721.63a25.16,25.16,0,0,1,11.68,1.55,18.77,18.77,0,0,1,8.56,7.05q3.39,5,4.07,13.07l2.56,30.66-12.52,1L272.22,3746q-.6-7.11-4.19-10.34t-9.71-2.71a16.48,16.48,0,0,0-7.67,2.45,12.43,12.43,0,0,0-4.81,5.8,19.5,19.5,0,0,0-1.1,9.12l2.27,27.05-12.43,1-4.47-53.49,11.92-1,1.21,14.52-2.48-4.33a18.8,18.8,0,0,1,7.4-8.59A26.49,26.49,0,0,1,260.3,3721.63Z" transform="translate(-70.97 -68.29)"/><path class="cls-2" d="M325.3,3771.47a46.73,46.73,0,0,1-13.07-.67,34.67,34.67,0,0,1-10.17-3.44l4-9.92a33,33,0,0,0,8.93,3,36.05,36.05,0,0,0,10.24.6q5.81-.48,8.33-2.26a4.77,4.77,0,0,0,2.3-4.48,3.75,3.75,0,0,0-2.09-3.2,14,14,0,0,0-4.85-1.36c-2-.24-4.16-.42-6.55-.56s-4.81-.39-7.23-.76a24.64,24.64,0,0,1-6.67-2,13.42,13.42,0,0,1-5.08-4.06,13.79,13.79,0,0,1-2.43-7.37,13.93,13.93,0,0,1,2.17-9,18.91,18.91,0,0,1,7.67-6.55,33.92,33.92,0,0,1,12.3-3.15,49.59,49.59,0,0,1,11,.35,31.9,31.9,0,0,1,9.56,2.68l-4.12,9.92a25.54,25.54,0,0,0-7.86-2.41,36.47,36.47,0,0,0-7.79-.21q-5.61.47-8.28,2.36c-1.77,1.26-2.59,2.75-2.44,4.49a4.05,4.05,0,0,0,2.1,3.46,14,14,0,0,0,4.86,1.45c2,.28,4.16.5,6.57.67s4.79.44,7.18.81a28.17,28.17,0,0,1,6.66,1.86,12.53,12.53,0,0,1,5.12,4,15,15,0,0,1,.19,16.17,19.2,19.2,0,0,1-7.83,6.41A36.12,36.12,0,0,1,325.3,3771.47Z" transform="translate(-70.97 -68.29)"/><path class="cls-2" d="M367.44,3786.81l-6.11-72.93,11.92-1,1.06,12.62.69,14.27,2.19,14.14,2.67,31.86Zm28-21.21a24.09,24.09,0,0,1-12.17-2,20.84,20.84,0,0,1-9.17-8.36q-3.61-5.85-4.4-15.17t1.66-15.72a19.88,19.88,0,0,1,7.61-9.71,24.92,24.92,0,0,1,11.87-4A28.16,28.16,0,0,1,405,3713a25.06,25.06,0,0,1,10.47,8.8,31.2,31.2,0,0,1,2.42,28.9,25.12,25.12,0,0,1-8.86,10.38A28.29,28.29,0,0,1,395.42,3765.6ZM393,3755.11a15.79,15.79,0,0,0,8-2.79,15.34,15.34,0,0,0,5.17-6.38,19.65,19.65,0,0,0-1.48-17.68,15,15,0,0,0-6.15-5.34,17,17,0,0,0-16.17,1.35,15.12,15.12,0,0,0-5.23,6.29,19.71,19.71,0,0,0,1.48,17.68,15.39,15.39,0,0,0,6.21,5.44A15.73,15.73,0,0,0,393,3755.11Z" transform="translate(-70.97 -68.29)"/><path class="cls-2" d="M441,3698.33a7.9,7.9,0,0,1-5.94-1.72,7.28,7.28,0,0,1-2.71-5.22,7.08,7.08,0,0,1,1.82-5.4,7.9,7.9,0,0,1,5.57-2.68,8.23,8.23,0,0,1,5.93,1.57,6.81,6.81,0,0,1,2.7,5.07,7.54,7.54,0,0,1-1.75,5.64A7.76,7.76,0,0,1,441,3698.33Zm-1,62.83-4.48-53.49,12.42-1,4.48,53.49Z" transform="translate(-70.97 -68.29)"/><path class="cls-2" d="M474.49,3758.27,470,3704.78l11.92-1,1.23,14.73-1.76-4.19a16.57,16.57,0,0,1,6.82-8.89,26.15,26.15,0,0,1,12.48-3.92l1,11.92c-.48,0-.95,0-1.42,0s-.9,0-1.3.06c-4.81.41-8.5,2.09-11.08,5.07s-3.63,7.26-3.16,12.87l2.16,25.84Z" transform="translate(-70.97 -68.29)"/><path class="cls-2" d="M550.62,3751.9l-.91-10.92-.79-2.15-1.58-18.93q-.47-5.52-4.07-8.29t-10.43-2.2a27.7,27.7,0,0,0-8.59,2.13,23.2,23.2,0,0,0-7.09,4.53l-5.67-8.71a31.69,31.69,0,0,1,9.9-5.87,44.25,44.25,0,0,1,12.18-2.73q11.71-1,18.5,4.1t7.75,16.7l2.62,31.35ZM533.85,3754a25.3,25.3,0,0,1-10.69-1.17,16.33,16.33,0,0,1-7.44-5.13,14.56,14.56,0,0,1-3.14-8.06,15.62,15.62,0,0,1,1.47-8.29,14.53,14.53,0,0,1,6.59-6.3q4.73-2.52,12.84-3.2l15.53-1.3.7,8.32-14.63,1.22c-4.21.35-7,1.28-8.39,2.77a6.69,6.69,0,0,0-1.82,5.35,6.3,6.3,0,0,0,3.14,5.08c1.92,1.19,4.48,1.64,7.69,1.38a16.3,16.3,0,0,0,8.08-2.8,12.38,12.38,0,0,0,4.84-6.66l2.63,7.35a14,14,0,0,1-5.79,7.85Q541.06,3753.41,533.85,3754Z" transform="translate(-70.97 -68.29)"/><path class="cls-2" d="M608.68,3747.75a31,31,0,0,1-15.27-2.31,26.37,26.37,0,0,1-11.08-8.85,29.12,29.12,0,0,1-2.38-28.4,26.63,26.63,0,0,1,9.46-10.53,31.1,31.1,0,0,1,14.68-4.81,28.84,28.84,0,0,1,14,2.06,20.66,20.66,0,0,1,9.79,8.56l-9,6.41a16,16,0,0,0-6.33-5.07,15.58,15.58,0,0,0-7.62-1.23,16.92,16.92,0,0,0-8.14,2.75,14.66,14.66,0,0,0-5.32,6.3,17.88,17.88,0,0,0-1.37,9,18.27,18.27,0,0,0,2.86,8.74,14.62,14.62,0,0,0,6.3,5.37,17,17,0,0,0,8.48,1.36,15.67,15.67,0,0,0,7.31-2.48,15.87,15.87,0,0,0,5.39-6.15l10,4.81a21,21,0,0,1-8.24,10A28.39,28.39,0,0,1,608.68,3747.75Zm-3.36,22.47a24.06,24.06,0,0,1-5.05-.08A15.08,15.08,0,0,1,596,3769l1.71-6.09a19.1,19.1,0,0,0,3.41.92,14.68,14.68,0,0,0,3.54.11,6.79,6.79,0,0,0,4.07-1.35,3.08,3.08,0,0,0,1-2.61,2.89,2.89,0,0,0-1.51-2.4,7.41,7.41,0,0,0-4.18-.55l-3.11.26,1.85-10.55,6.71-.56-.83,5.82c3,.09,5.23.85,6.8,2.3a8.31,8.31,0,0,1-.51,12.61Q611.53,3769.7,605.32,3770.22Z" transform="translate(-70.97 -68.29)"/><path class="cls-2" d="M671.09,3742.52a29.89,29.89,0,0,1-14.88-2.33,26.64,26.64,0,0,1-11-8.92,27.31,27.31,0,0,1,6.93-38.86,29.79,29.79,0,0,1,14.33-4.78,30.16,30.16,0,0,1,15.07,2.32,26.42,26.42,0,0,1,10.93,8.82,29.49,29.49,0,0,1,2.38,28.4,26.24,26.24,0,0,1-9.35,10.56A30.33,30.33,0,0,1,671.09,3742.52Zm2-62a9.07,9.07,0,0,1-4.5-.68,21.87,21.87,0,0,1-3.65-2.07c-1.11-.78-2.16-1.46-3.15-2.05a4.8,4.8,0,0,0-2.89-.77,4.21,4.21,0,0,0-3.27,1.89,7.73,7.73,0,0,0-1.13,4.53l-6.71.56q-.32-6.12,2.29-10a9.39,9.39,0,0,1,7.41-4.25,10.18,10.18,0,0,1,4.54.57,16.67,16.67,0,0,1,3.7,2,33.74,33.74,0,0,0,3.09,2.06,4.76,4.76,0,0,0,2.84.72,4.43,4.43,0,0,0,3.33-1.79,6.47,6.47,0,0,0,1.1-4.33l6.71-.56a15.31,15.31,0,0,1-2.25,9.83A9.56,9.56,0,0,1,673.06,3680.52Zm-2.86,51.38a16.29,16.29,0,0,0,8-2.74,14.49,14.49,0,0,0,5.17-6.38,18.7,18.7,0,0,0,1.31-9,18.32,18.32,0,0,0-2.8-8.69,14.7,14.7,0,0,0-6.14-5.34,17.14,17.14,0,0,0-16.23,1.36,15.06,15.06,0,0,0-5.23,6.29,18,18,0,0,0-1.36,9,18.25,18.25,0,0,0,2.85,8.69,14.84,14.84,0,0,0,6.2,5.43A15.91,15.91,0,0,0,670.2,3731.9Z" transform="translate(-70.97 -68.29)"/><path class="cls-2" d="M742.31,3736.56a32.68,32.68,0,0,1-15.88-2.25,25.92,25.92,0,0,1-11.13-8.86,27.34,27.34,0,0,1-4.84-13.86,27.9,27.9,0,0,1,2.37-14.48,26.13,26.13,0,0,1,9-10.54,28.66,28.66,0,0,1,14-4.75,27.85,27.85,0,0,1,14.21,2.3,25.06,25.06,0,0,1,10.43,8.86,29.63,29.63,0,0,1,4.74,14.43c0,.47.07,1.05.09,1.76s0,1.32,0,1.86l-44.58,3.73-.69-8.31,38-3.18-4.79,3a15.7,15.7,0,0,0-2.53-7.9,14,14,0,0,0-5.82-5.07,15.86,15.86,0,0,0-8.17-1.28,16.57,16.57,0,0,0-7.91,2.63,13.35,13.35,0,0,0-5,6,17.6,17.6,0,0,0-1.21,8.47l.17,2a16.64,16.64,0,0,0,2.87,8.34,14.66,14.66,0,0,0,6.64,5.24,20.26,20.26,0,0,0,9.49,1.28,21.05,21.05,0,0,0,8-2.19,19.08,19.08,0,0,0,6-4.94l7.46,7.24a24,24,0,0,1-8.62,7.18A33.13,33.13,0,0,1,742.31,3736.56Z" transform="translate(-70.97 -68.29)"/><path class="cls-2" d="M801.61,3731.6a46.73,46.73,0,0,1-13.07-.68,34.69,34.69,0,0,1-10.17-3.43l4-9.92a32.63,32.63,0,0,0,8.93,3,36.43,36.43,0,0,0,10.24.61c3.87-.32,6.65-1.08,8.33-2.26a4.77,4.77,0,0,0,2.3-4.48,3.76,3.76,0,0,0-2.08-3.21,14.11,14.11,0,0,0-4.86-1.35q-3-.36-6.55-.57t-7.23-.75a24.65,24.65,0,0,1-6.67-2,13.42,13.42,0,0,1-5.08-4.06,13.75,13.75,0,0,1-2.43-7.36,14,14,0,0,1,2.17-9,18.88,18.88,0,0,1,7.67-6.54,33.52,33.52,0,0,1,12.3-3.15,49.56,49.56,0,0,1,11,.34,32.2,32.2,0,0,1,9.56,2.68l-4.11,9.93A25.7,25.7,0,0,0,808,3687a35.82,35.82,0,0,0-7.79-.2q-5.61.47-8.27,2.35t-2.45,4.5a4,4,0,0,0,2.1,3.45,14,14,0,0,0,4.87,1.46q3,.4,6.56.66t7.18.81a28.17,28.17,0,0,1,6.66,1.86,12.63,12.63,0,0,1,5.12,4,13.37,13.37,0,0,1,2.42,7.17,13.61,13.61,0,0,1-2.22,9,19.29,19.29,0,0,1-7.84,6.4A36.11,36.11,0,0,1,801.61,3731.6Z" transform="translate(-70.97 -68.29)"/><path class="cls-2" d="M900.38,3723.33a32.8,32.8,0,0,1-15.88-2.26,25.9,25.9,0,0,1-11.13-8.85,27.34,27.34,0,0,1-4.84-13.87,27.88,27.88,0,0,1,2.37-14.47,26,26,0,0,1,9-10.54,28.52,28.52,0,0,1,14-4.75,27.87,27.87,0,0,1,14.21,2.29,25.13,25.13,0,0,1,10.43,8.86,29.7,29.7,0,0,1,4.74,14.43c0,.47.07,1.06.09,1.76s0,1.33,0,1.87l-44.58,3.73-.69-8.31,38-3.18-4.79,3a15.84,15.84,0,0,0-2.53-7.91,14,14,0,0,0-5.82-5.06,15.9,15.9,0,0,0-8.18-1.28,16.53,16.53,0,0,0-7.9,2.63,13.32,13.32,0,0,0-5,6,17.64,17.64,0,0,0-1.21,8.48l.17,2a16.64,16.64,0,0,0,2.87,8.34,14.66,14.66,0,0,0,6.64,5.24,20.12,20.12,0,0,0,9.49,1.27,21,21,0,0,0,8-2.18,19.08,19.08,0,0,0,6-4.94l7.46,7.24a24,24,0,0,1-8.63,7.18A33.22,33.22,0,0,1,900.38,3723.33Z" transform="translate(-70.97 -68.29)"/><path class="cls-2" d="M965.43,3673.8l-.84-10,35.66-3,.84,10Zm30.91,41.49q-8.82.74-14-3.41t-5.92-13l-4-48.08,12.42-1,4,47.68a8.32,8.32,0,0,0,2.5,5.75,7.42,7.42,0,0,0,5.79,1.63,10.47,10.47,0,0,0,6.63-2.77l4.35,8.61a15.92,15.92,0,0,1-5.28,3.17A23.93,23.93,0,0,1,996.34,3715.29Z" transform="translate(-70.97 -68.29)"/><path class="cls-2" d="M1024.23,3712.25l-4.48-53.49,11.92-1,1.23,14.73-1.76-4.19a16.68,16.68,0,0,1,6.82-8.9,26.3,26.3,0,0,1,12.48-3.92l1,11.92q-.7,0-1.41,0c-.47,0-.91,0-1.31.06q-7.21.6-11.07,5.06t-3.16,12.88l2.16,25.84Z" transform="translate(-70.97 -68.29)"/><path class="cls-2" d="M1100.36,3705.88l-.92-10.92-.78-2.15-1.59-18.94q-.45-5.51-4.07-8.28t-10.42-2.2a27.76,27.76,0,0,0-8.6,2.13,22.94,22.94,0,0,0-7.08,4.52l-5.68-8.7a31.73,31.73,0,0,1,9.9-5.87,44.43,44.43,0,0,1,12.18-2.74q11.71-1,18.5,4.1t7.75,16.7l2.63,31.36Zm-16.77,2.11a25.28,25.28,0,0,1-10.69-1.18,16.24,16.24,0,0,1-7.44-5.12,14.58,14.58,0,0,1-3.15-8.06,15.52,15.52,0,0,1,1.48-8.29,14.57,14.57,0,0,1,6.58-6.31q4.73-2.51,12.85-3.19l15.52-1.3.7,8.31-14.62,1.23c-4.21.35-7,1.28-8.4,2.77a6.72,6.72,0,0,0-1.82,5.35,6.31,6.31,0,0,0,3.15,5.08c1.91,1.19,4.47,1.64,7.68,1.37a16.23,16.23,0,0,0,8.09-2.79,12.51,12.51,0,0,0,4.84-6.66l2.63,7.35a14,14,0,0,1-5.8,7.84Q1090.8,3707.39,1083.59,3708Z" transform="translate(-70.97 -68.29)"/><path class="cls-2" d="M1159.53,3646.35a25.16,25.16,0,0,1,11.68,1.55,18.72,18.72,0,0,1,8.56,7q3.39,5,4.07,13.07l2.57,30.65-12.53,1-2.43-29q-.59-7.11-4.19-10.34t-9.71-2.72a16.52,16.52,0,0,0-7.66,2.46,12.37,12.37,0,0,0-4.81,5.8A19.36,19.36,0,0,0,1144,3675l2.27,27.05-12.42,1-4.48-53.49,11.92-1,1.21,14.52-2.48-4.33a18.8,18.8,0,0,1,7.4-8.59A26.41,26.41,0,0,1,1159.53,3646.35Z" transform="translate(-70.97 -68.29)"/><path class="cls-2" d="M1224.53,3696.19a46.73,46.73,0,0,1-13.07-.67,34.67,34.67,0,0,1-10.17-3.44l4-9.92a33,33,0,0,0,8.93,3,36.05,36.05,0,0,0,10.24.6q5.8-.48,8.33-2.26a4.77,4.77,0,0,0,2.3-4.48,3.75,3.75,0,0,0-2.08-3.2,14.1,14.1,0,0,0-4.86-1.36q-3-.36-6.55-.56c-2.4-.13-4.81-.39-7.23-.76a24.64,24.64,0,0,1-6.67-2,13.42,13.42,0,0,1-5.08-4.06,15.53,15.53,0,0,1-.26-16.37,19,19,0,0,1,7.67-6.55,33.92,33.92,0,0,1,12.3-3.15,49.57,49.57,0,0,1,11,.35,31.61,31.61,0,0,1,9.56,2.68l-4.12,9.92a25.54,25.54,0,0,0-7.86-2.41,36.47,36.47,0,0,0-7.79-.21q-5.61.47-8.27,2.36c-1.78,1.26-2.6,2.75-2.45,4.49a4,4,0,0,0,2.1,3.45,13.8,13.8,0,0,0,4.87,1.46q3,.42,6.56.67c2.4.16,4.79.44,7.18.81a28.17,28.17,0,0,1,6.66,1.86,12.46,12.46,0,0,1,5.12,4,13.33,13.33,0,0,1,2.42,7.16,13.6,13.6,0,0,1-2.22,9,19.3,19.3,0,0,1-7.84,6.41A36.12,36.12,0,0,1,1224.53,3696.19Z" transform="translate(-70.97 -68.29)"/><path class="cls-2" d="M1254.22,3649.62l-.84-10,35.66-3,.84,10Zm12.42,42.34-4.72-56.4q-.7-8.51,3.82-14t13.75-6.24a27,27,0,0,1,6.32.17,13.47,13.47,0,0,1,5.15,1.79l-2.73,9.61a12.15,12.15,0,0,0-3.23-1.24,11.61,11.61,0,0,0-3.76-.29,7.73,7.73,0,0,0-5.73,2.65c-1.21,1.55-1.7,3.72-1.47,6.53l.52,6.21.76,5.48,3.74,44.68Z" transform="translate(-70.97 -68.29)"/><path class="cls-2" d="M1330.71,3687.3a29.72,29.72,0,0,1-14.87-2.34,26.51,26.51,0,0,1-11-8.91,29,29,0,0,1-2.37-28.35,26.88,26.88,0,0,1,9.31-10.51,29.62,29.62,0,0,1,14.33-4.78,30.29,30.29,0,0,1,15.07,2.31,26.59,26.59,0,0,1,10.93,8.83,29.51,29.51,0,0,1,2.37,28.39,26.19,26.19,0,0,1-9.35,10.57A30.26,30.26,0,0,1,1330.71,3687.3Zm-.89-10.62a16.39,16.39,0,0,0,8-2.74,14.48,14.48,0,0,0,5.17-6.38,18.7,18.7,0,0,0,1.31-9,18.18,18.18,0,0,0-2.8-8.69,14.58,14.58,0,0,0-6.14-5.34,17.14,17.14,0,0,0-16.23,1.36,15,15,0,0,0-5.22,6.29,17.77,17.77,0,0,0-1.36,9,18.28,18.28,0,0,0,2.84,8.69,14.87,14.87,0,0,0,6.21,5.43A15.88,15.88,0,0,0,1329.82,3676.68Z" transform="translate(-70.97 -68.29)"/><path class="cls-2" d="M1376.83,3682.73l-4.48-53.49,11.92-1,1.24,14.73-1.77-4.19a16.67,16.67,0,0,1,6.82-8.89,26.12,26.12,0,0,1,12.49-3.92l1,11.92c-.47,0-.94,0-1.41,0s-.91,0-1.31.06q-7.21.6-11.07,5.07t-3.16,12.87l2.16,25.84Z" transform="translate(-70.97 -68.29)"/><path class="cls-2" d="M1486.79,3619a25,25,0,0,1,11.58,1.56,17.9,17.9,0,0,1,8.41,7.06q3.24,5,3.92,13.09l2.57,30.65-12.43,1-2.43-29q-.59-7.11-4-10.35t-9.26-2.76a14.39,14.39,0,0,0-7.11,2.41,12.18,12.18,0,0,0-4.46,5.77,20,20,0,0,0-1,9l2.27,27.14-12.42,1-2.43-29.05q-.6-7.11-4-10.35t-9.26-2.76a14.39,14.39,0,0,0-7.11,2.41,12.29,12.29,0,0,0-4.46,5.77,20,20,0,0,0-1,9l2.27,27.15-12.42,1-4.48-53.49,11.92-1,1.2,14.33-2.56-4.13a19,19,0,0,1,7.2-8.57,24.56,24.56,0,0,1,11.64-3.8,22.88,22.88,0,0,1,13.33,2.62q5.82,3.24,8.27,10.81l-5-1.4a20.74,20.74,0,0,1,7.71-10.33A26.13,26.13,0,0,1,1486.79,3619Z" transform="translate(-70.97 -68.29)"/><path class="cls-2" d="M1567.76,3666.75l-.92-10.92-.78-2.15-1.59-18.94q-.45-5.5-4.07-8.28t-10.42-2.2a27.76,27.76,0,0,0-8.6,2.13,23,23,0,0,0-7.09,4.53l-5.67-8.71a31.8,31.8,0,0,1,9.9-5.87,44.34,44.34,0,0,1,12.18-2.74q11.71-1,18.5,4.1t7.75,16.7l2.63,31.36Zm-16.77,2.11a25.45,25.45,0,0,1-10.69-1.17,16.33,16.33,0,0,1-7.44-5.13,14.58,14.58,0,0,1-3.15-8.06,15.52,15.52,0,0,1,1.48-8.29,14.52,14.52,0,0,1,6.58-6.31q4.73-2.51,12.85-3.19l15.52-1.3.7,8.32-14.63,1.22c-4.2.35-7,1.28-8.39,2.77a6.72,6.72,0,0,0-1.82,5.35,6.28,6.28,0,0,0,3.15,5.08c1.91,1.19,4.47,1.64,7.68,1.37a16.23,16.23,0,0,0,8.09-2.79,12.47,12.47,0,0,0,4.84-6.66l2.63,7.35a14,14,0,0,1-5.8,7.85Q1558.2,3668.26,1551,3668.86Z" transform="translate(-70.97 -68.29)"/><path class="cls-2" d="M1635.36,3598.35a7.93,7.93,0,0,1-5.94-1.73,7.28,7.28,0,0,1-2.71-5.22,7.08,7.08,0,0,1,1.82-5.39,7.93,7.93,0,0,1,5.58-2.69,8.25,8.25,0,0,1,5.93,1.57,6.82,6.82,0,0,1,2.69,5.07,7.57,7.57,0,0,1-1.74,5.65A7.82,7.82,0,0,1,1635.36,3598.35Zm-1,62.82-4.48-53.49,12.42-1,4.48,53.49Z" transform="translate(-70.97 -68.29)"/><path class="cls-2" d="M1685.42,3657.61a46.71,46.71,0,0,1-13.07-.68,34.66,34.66,0,0,1-10.18-3.43l4-9.92a33.09,33.09,0,0,0,8.93,3,36.44,36.44,0,0,0,10.24.6c3.87-.32,6.65-1.08,8.34-2.26a4.75,4.75,0,0,0,2.29-4.48,3.75,3.75,0,0,0-2.08-3.21,14.05,14.05,0,0,0-4.85-1.35c-2-.24-4.16-.43-6.56-.57s-4.81-.38-7.22-.75a24.65,24.65,0,0,1-6.67-2,13.34,13.34,0,0,1-5.08-4.06,13.84,13.84,0,0,1-2.44-7.36,14,14,0,0,1,2.17-9,18.91,18.91,0,0,1,7.68-6.54,33.52,33.52,0,0,1,12.29-3.15,49.66,49.66,0,0,1,11,.34,32.13,32.13,0,0,1,9.55,2.68l-4.11,9.93a25.62,25.62,0,0,0-7.87-2.42,35.72,35.72,0,0,0-7.78-.2c-3.74.31-6.5,1.1-8.28,2.35a4.91,4.91,0,0,0-2.45,4.5,4.07,4.07,0,0,0,2.11,3.45,14,14,0,0,0,4.86,1.46q3,.41,6.56.66c2.4.17,4.8.44,7.18.81a27.91,27.91,0,0,1,6.66,1.86,12.6,12.6,0,0,1,5.13,4,13.3,13.3,0,0,1,2.41,7.16,13.5,13.5,0,0,1-2.22,9,19.29,19.29,0,0,1-7.84,6.4A36.05,36.05,0,0,1,1685.42,3657.61Z" transform="translate(-70.97 -68.29)"/><path class="cls-2" d="M1742.51,3652.83a46.73,46.73,0,0,1-13.07-.68,34.69,34.69,0,0,1-10.17-3.43l4-9.92a33,33,0,0,0,8.93,3,36.42,36.42,0,0,0,10.24.6c3.87-.32,6.65-1.08,8.34-2.26a4.77,4.77,0,0,0,2.29-4.48,3.75,3.75,0,0,0-2.08-3.21,14.11,14.11,0,0,0-4.86-1.35q-3-.36-6.55-.57t-7.22-.75a24.72,24.72,0,0,1-6.68-2,13.32,13.32,0,0,1-5.08-4.06,13.75,13.75,0,0,1-2.43-7.36,14,14,0,0,1,2.17-9,19,19,0,0,1,7.68-6.54,33.46,33.46,0,0,1,12.29-3.15,49.56,49.56,0,0,1,11,.34,32.11,32.11,0,0,1,9.56,2.68l-4.11,9.93a25.7,25.7,0,0,0-7.87-2.42,35.8,35.8,0,0,0-7.79-.2c-3.74.31-6.49,1.09-8.27,2.35s-2.6,2.76-2.45,4.5a4,4,0,0,0,2.11,3.45,13.89,13.89,0,0,0,4.86,1.46q3,.41,6.56.66t7.18.81a28.52,28.52,0,0,1,6.66,1.86,12.66,12.66,0,0,1,5.13,4,15.09,15.09,0,0,1,.19,16.18,19.29,19.29,0,0,1-7.84,6.4A36.11,36.11,0,0,1,1742.51,3652.83Z" transform="translate(-70.97 -68.29)"/><path class="cls-2" d="M1807,3647.42a29.74,29.74,0,0,1-14.87-2.33,26.5,26.5,0,0,1-11-8.92,27.3,27.3,0,0,1,6.93-38.86,29.76,29.76,0,0,1,14.33-4.78,30.27,30.27,0,0,1,15.07,2.32,26.42,26.42,0,0,1,10.93,8.82,29.57,29.57,0,0,1,2.38,28.4,26.35,26.35,0,0,1-9.36,10.57A30.25,30.25,0,0,1,1807,3647.42Zm-.89-10.61a16.3,16.3,0,0,0,8-2.75,14.35,14.35,0,0,0,5.16-6.38,18.68,18.68,0,0,0,1.31-9,18.32,18.32,0,0,0-2.79-8.69,14.67,14.67,0,0,0-6.15-5.34,17.15,17.15,0,0,0-16.23,1.36,15,15,0,0,0-5.22,6.29,17.9,17.9,0,0,0-1.36,9,18.35,18.35,0,0,0,2.84,8.69,14.73,14.73,0,0,0,6.21,5.43A16,16,0,0,0,1806.13,3636.81Z" transform="translate(-70.97 -68.29)"/><path class="cls-2" d="M439.5,3798.08a25.16,25.16,0,0,1,11.68,1.55,18.83,18.83,0,0,1,8.56,7q3.39,5,4.07,13.07l2.56,30.66-12.52,1-2.43-29q-.6-7.11-4.2-10.34t-9.71-2.72a16.6,16.6,0,0,0-7.66,2.46,12.43,12.43,0,0,0-4.81,5.8,19.35,19.35,0,0,0-1.1,9.12l2.26,27.05-12.42,1-4.48-53.49,11.92-1,1.22,14.52-2.48-4.33a18.75,18.75,0,0,1,7.4-8.59A26.37,26.37,0,0,1,439.5,3798.08Z" transform="translate(-70.97 -68.29)"/><path class="cls-2" d="M512,3847.29a29.72,29.72,0,0,1-14.87-2.34,26.59,26.59,0,0,1-11-8.91,27.29,27.29,0,0,1,6.94-38.86,29.62,29.62,0,0,1,14.32-4.78,30.2,30.2,0,0,1,15.08,2.32,26.46,26.46,0,0,1,10.92,8.82,29.49,29.49,0,0,1,2.38,28.4,26.16,26.16,0,0,1-9.35,10.56A30.33,30.33,0,0,1,512,3847.29Zm-.89-10.62a16.39,16.39,0,0,0,8-2.74,14.55,14.55,0,0,0,5.17-6.38,18.7,18.7,0,0,0,1.31-9,18.28,18.28,0,0,0-2.8-8.69,14.7,14.7,0,0,0-6.14-5.34,17.14,17.14,0,0,0-16.23,1.36,15.06,15.06,0,0,0-5.23,6.29,18,18,0,0,0-1.36,9,18.29,18.29,0,0,0,2.85,8.69,14.84,14.84,0,0,0,6.2,5.43A15.91,15.91,0,0,0,511.12,3836.67Z" transform="translate(-70.97 -68.29)"/><path class="cls-2" d="M574.71,3842a46.66,46.66,0,0,1-13.06-.67,34.64,34.64,0,0,1-10.18-3.44l4-9.91a33.43,33.43,0,0,0,8.93,3,36.45,36.45,0,0,0,10.24.61q5.8-.49,8.34-2.26a4.76,4.76,0,0,0,2.29-4.48,3.75,3.75,0,0,0-2.08-3.21,14.27,14.27,0,0,0-4.85-1.36c-2-.24-4.16-.42-6.56-.56s-4.81-.39-7.22-.76a24.18,24.18,0,0,1-6.67-2,13.34,13.34,0,0,1-5.08-4.06,13.84,13.84,0,0,1-2.44-7.36,14,14,0,0,1,2.17-9,19,19,0,0,1,7.68-6.55,33.67,33.67,0,0,1,12.29-3.14,49.06,49.06,0,0,1,11,.34,31.84,31.84,0,0,1,9.55,2.68l-4.11,9.93a25.35,25.35,0,0,0-7.87-2.42,36.38,36.38,0,0,0-7.78-.21c-3.74.32-6.5,1.1-8.28,2.36s-2.59,2.76-2.45,4.49a4.08,4.08,0,0,0,2.11,3.46,14.24,14.24,0,0,0,4.86,1.46q3,.4,6.56.66c2.4.17,4.8.44,7.18.81a27.91,27.91,0,0,1,6.66,1.86,12.49,12.49,0,0,1,5.13,4,15.07,15.07,0,0,1,.19,16.17,19.3,19.3,0,0,1-7.84,6.41A36.06,36.06,0,0,1,574.71,3842Z" transform="translate(-70.97 -68.29)"/><path class="cls-2" d="M711.26,3775.33a25,25,0,0,1,11.58,1.55,18,18,0,0,1,8.41,7.07c2.16,3.31,3.47,7.68,3.92,13.08l2.56,30.66-12.42,1-2.43-29.05q-.6-7.11-4-10.36t-9.26-2.75a14.39,14.39,0,0,0-7.11,2.41,12.18,12.18,0,0,0-4.46,5.77,20,20,0,0,0-1,9l2.27,27.15-12.42,1-2.44-29q-.58-7.11-4-10.36t-9.26-2.75a14.39,14.39,0,0,0-7.11,2.41,12.24,12.24,0,0,0-4.46,5.77,20,20,0,0,0-1,9l2.27,27.15-12.42,1-4.48-53.49,11.92-1L657,3795l-2.56-4.12a19,19,0,0,1,7.2-8.57,24.45,24.45,0,0,1,11.63-3.8,22.82,22.82,0,0,1,13.34,2.62q5.82,3.24,8.27,10.8l-5-1.4a20.78,20.78,0,0,1,7.71-10.33A26.09,26.09,0,0,1,711.26,3775.33Z" transform="translate(-70.97 -68.29)"/><path class="cls-2" d="M792.23,3823.13l-.92-10.92-.78-2.16-1.59-18.93q-.45-5.51-4.07-8.28t-10.42-2.21a28.06,28.06,0,0,0-8.6,2.14,23,23,0,0,0-7.09,4.52l-5.67-8.7a31.5,31.5,0,0,1,9.9-5.87,44.26,44.26,0,0,1,12.18-2.74q11.72-1,18.5,4.1t7.75,16.7l2.63,31.36Zm-16.77,2.11a25.28,25.28,0,0,1-10.69-1.18,16.24,16.24,0,0,1-7.44-5.12,14.58,14.58,0,0,1-3.15-8.06,15.56,15.56,0,0,1,1.48-8.3,14.55,14.55,0,0,1,6.58-6.3q4.72-2.51,12.85-3.19l15.52-1.3.7,8.31-14.63,1.23q-6.3.52-8.39,2.77a6.67,6.67,0,0,0-1.82,5.34,6.3,6.3,0,0,0,3.15,5.09q2.86,1.77,7.68,1.37a16.33,16.33,0,0,0,8.09-2.79,12.51,12.51,0,0,0,4.84-6.66l2.63,7.34a14,14,0,0,1-5.8,7.85C784.13,3823.64,780.26,3824.83,775.46,3825.24Z" transform="translate(-70.97 -68.29)"/><path class="cls-2" d="M826.68,3757.5a8,8,0,0,1-5.95-1.72,7.34,7.34,0,0,1-2.7-5.22,7.08,7.08,0,0,1,1.81-5.4,7.93,7.93,0,0,1,5.58-2.69,8.27,8.27,0,0,1,5.93,1.57,6.84,6.84,0,0,1,2.7,5.07,7.58,7.58,0,0,1-1.75,5.65A7.8,7.8,0,0,1,826.68,3757.5Zm-1,62.83-4.47-53.5,12.42-1,4.48,53.5Z" transform="translate(-70.97 -68.29)"/><path class="cls-2" d="M876.73,3816.76a47.11,47.11,0,0,1-13.07-.67,35,35,0,0,1-10.17-3.44l4-9.92a33,33,0,0,0,8.93,3,36.05,36.05,0,0,0,10.24.6q5.8-.48,8.33-2.26a4.77,4.77,0,0,0,2.3-4.48,3.73,3.73,0,0,0-2.09-3.2,14,14,0,0,0-4.85-1.36c-2-.24-4.16-.43-6.55-.56s-4.81-.39-7.23-.76a24.64,24.64,0,0,1-6.67-2,13.44,13.44,0,0,1-5.08-4.07,13.72,13.72,0,0,1-2.43-7.36,14,14,0,0,1,2.17-9,19,19,0,0,1,7.67-6.54,33.52,33.52,0,0,1,12.3-3.15,50.19,50.19,0,0,1,11,.34,31.89,31.89,0,0,1,9.56,2.69l-4.12,9.92a25.56,25.56,0,0,0-7.86-2.42,37.12,37.12,0,0,0-7.79-.2q-5.61.47-8.28,2.36c-1.77,1.25-2.59,2.75-2.44,4.49a4,4,0,0,0,2.1,3.45,14,14,0,0,0,4.86,1.46c2,.28,4.16.5,6.57.66s4.79.44,7.18.82a28.17,28.17,0,0,1,6.66,1.86,12.53,12.53,0,0,1,5.12,4,13.42,13.42,0,0,1,2.42,7.16,13.56,13.56,0,0,1-2.23,9,19.28,19.28,0,0,1-7.83,6.41A36.34,36.34,0,0,1,876.73,3816.76Z" transform="translate(-70.97 -68.29)"/><path class="cls-2" d="M973,3808.7a28.27,28.27,0,0,1-14.16-2.25,24.7,24.7,0,0,1-10.46-8.75,31.63,31.63,0,0,1-2.42-28.9,24.64,24.64,0,0,1,8.86-10.43,28.28,28.28,0,0,1,13.59-4.57,24.44,24.44,0,0,1,12.26,1.95,21,21,0,0,1,9.17,8.31q3.61,5.8,4.4,15.22T992.52,3795a20.4,20.4,0,0,1-7.5,9.76A24.78,24.78,0,0,1,973,3808.7Zm.62-10.75a15.86,15.86,0,0,0,7.89-2.72,15.32,15.32,0,0,0,5.21-6.39,18,18,0,0,0,1.41-9.05,17.57,17.57,0,0,0-2.89-8.68,15.51,15.51,0,0,0-6.2-5.34,17,17,0,0,0-16.13,1.36,15.48,15.48,0,0,0-5.22,6.28,17.51,17.51,0,0,0-1.41,9.05,17.83,17.83,0,0,0,2.9,8.68,15.16,15.16,0,0,0,6.2,5.44A15.8,15.8,0,0,0,973.61,3798Zm17.15,8.56-1-12.63-.89-14.25-2.2-14.14-2.78-33.25,12.62-1.06,6.22,74.33Z" transform="translate(-70.97 -68.29)"/><path class="cls-2" d="M1025.72,3740.84a7.94,7.94,0,0,1-6-1.73,7.31,7.31,0,0,1-2.71-5.22,7.08,7.08,0,0,1,1.82-5.39,7.93,7.93,0,0,1,5.58-2.69,8.25,8.25,0,0,1,5.93,1.57,6.8,6.8,0,0,1,2.69,5.07,7.57,7.57,0,0,1-1.74,5.65A7.86,7.86,0,0,1,1025.72,3740.84Zm-1,62.82-4.48-53.49,12.42-1,4.48,53.49Z" transform="translate(-70.97 -68.29)"/><path class="cls-2" d="M1048.36,3758.31l-.84-10,35.66-3,.84,10Zm12.42,42.33-4.72-56.39q-.7-8.52,3.82-14t13.75-6.25a27.52,27.52,0,0,1,6.32.18,13.3,13.3,0,0,1,5.15,1.79l-2.73,9.61a12.28,12.28,0,0,0-3.23-1.24,11.61,11.61,0,0,0-3.76-.3,7.76,7.76,0,0,0-5.73,2.65q-1.82,2.33-1.47,6.53l.52,6.21.76,5.49,3.74,44.67Z" transform="translate(-70.97 -68.29)"/><path class="cls-2" d="M1126,3795.89a32.66,32.66,0,0,1-15.87-2.25,26,26,0,0,1-11.13-8.85,27.29,27.29,0,0,1-4.85-13.87,28.07,28.07,0,0,1,2.37-14.47,26,26,0,0,1,9-10.54,28.48,28.48,0,0,1,14-4.75,27.9,27.9,0,0,1,14.22,2.29,25.1,25.1,0,0,1,10.42,8.86,29.5,29.5,0,0,1,4.74,14.43c0,.47.07,1.06.1,1.76s0,1.33,0,1.87l-44.57,3.73-.7-8.32,38-3.18-4.79,3a15.73,15.73,0,0,0-2.52-7.91,14,14,0,0,0-5.82-5.06,15.9,15.9,0,0,0-8.18-1.28,16.49,16.49,0,0,0-7.9,2.62,13.42,13.42,0,0,0-5,6,17.62,17.62,0,0,0-1.2,8.47l.16,2a16.74,16.74,0,0,0,2.87,8.33,14.8,14.8,0,0,0,6.64,5.25,20.26,20.26,0,0,0,9.49,1.27,21,21,0,0,0,8-2.18,19,19,0,0,0,6-5l7.47,7.25a24.22,24.22,0,0,1-8.63,7.18A33.27,33.27,0,0,1,1126,3795.89Z" transform="translate(-70.97 -68.29)"/><path class="cls-2" d="M1168.67,3791.61l-4.48-53.49,11.92-1,1.23,14.73-1.76-4.19a16.63,16.63,0,0,1,6.82-8.9,26.26,26.26,0,0,1,12.48-3.92l1,11.93c-.47,0-1,0-1.42,0s-.9,0-1.3.06q-7.22.6-11.08,5.06t-3.16,12.88l2.17,25.84Z" transform="translate(-70.97 -68.29)"/><path class="cls-2" d="M1240.35,3786.32a32.8,32.8,0,0,1-15.88-2.26,25.9,25.9,0,0,1-11.13-8.85,27.34,27.34,0,0,1-4.84-13.87,27.88,27.88,0,0,1,2.37-14.47,26,26,0,0,1,9-10.54,28.55,28.55,0,0,1,14-4.75,28,28,0,0,1,14.21,2.29,25.13,25.13,0,0,1,10.43,8.86,29.71,29.71,0,0,1,4.74,14.44c0,.46.07,1,.09,1.75s0,1.33,0,1.87l-44.58,3.73-.69-8.31,38-3.18-4.79,3a15.84,15.84,0,0,0-2.53-7.91,14,14,0,0,0-5.82-5.06,15.88,15.88,0,0,0-8.18-1.28,16.53,16.53,0,0,0-7.9,2.63,13.32,13.32,0,0,0-5,6,17.64,17.64,0,0,0-1.21,8.48l.17,2a16.64,16.64,0,0,0,2.87,8.34,14.66,14.66,0,0,0,6.64,5.24,20.12,20.12,0,0,0,9.49,1.27,20.87,20.87,0,0,0,8-2.18,19.08,19.08,0,0,0,6-4.94l7.46,7.24a24,24,0,0,1-8.63,7.18A33.22,33.22,0,0,1,1240.35,3786.32Z" transform="translate(-70.97 -68.29)"/><path class="cls-2" d="M1308.78,3725.31a25.3,25.3,0,0,1,11.68,1.54,19,19,0,0,1,8.56,7.05q3.39,5,4.07,13.08l2.56,30.65-12.52,1-2.43-29q-.6-7.11-4.2-10.34t-9.71-2.72a16.56,16.56,0,0,0-7.66,2.46,12.38,12.38,0,0,0-4.81,5.8,19.33,19.33,0,0,0-1.1,9.12l2.26,27-12.42,1-4.48-53.49,11.92-1,1.22,14.53-2.48-4.33a18.7,18.7,0,0,1,7.4-8.59A26.37,26.37,0,0,1,1308.78,3725.31Z" transform="translate(-70.97 -68.29)"/><path class="cls-2" d="M1346.37,3733.36l-.84-10,35.66-3,.84,10Zm30.91,41.49q-8.82.75-14-3.41t-5.93-13l-4-48.08,12.42-1,4,47.68a8.27,8.27,0,0,0,2.49,5.75,7.43,7.43,0,0,0,5.79,1.63,10.47,10.47,0,0,0,6.63-2.77l4.35,8.61a15.92,15.92,0,0,1-5.28,3.17A23.84,23.84,0,0,1,1377.28,3774.85Z" transform="translate(-70.97 -68.29)"/><path class="cls-2" d="M1428.47,3770.57a32.64,32.64,0,0,1-15.87-2.26,25.92,25.92,0,0,1-11.14-8.85,27.34,27.34,0,0,1-4.84-13.87,27.88,27.88,0,0,1,2.37-14.47,26.13,26.13,0,0,1,9-10.54,28.55,28.55,0,0,1,14-4.75,28,28,0,0,1,14.21,2.29,25.14,25.14,0,0,1,10.43,8.86,29.71,29.71,0,0,1,4.74,14.44c0,.46.07,1,.1,1.75s0,1.33,0,1.87l-44.58,3.73-.69-8.31,38-3.18-4.79,3a15.68,15.68,0,0,0-2.53-7.91,14.06,14.06,0,0,0-5.82-5.06,15.86,15.86,0,0,0-8.17-1.28,16.49,16.49,0,0,0-7.9,2.63,13.31,13.31,0,0,0-5,6,17.48,17.48,0,0,0-1.2,8.47l.16,2a16.74,16.74,0,0,0,2.87,8.34,14.71,14.71,0,0,0,6.64,5.24,20.14,20.14,0,0,0,9.49,1.27,20.82,20.82,0,0,0,8-2.18,19.08,19.08,0,0,0,6-4.94l7.47,7.24a24.12,24.12,0,0,1-8.63,7.18A33.33,33.33,0,0,1,1428.47,3770.57Z" transform="translate(-70.97 -68.29)"/><path class="cls-2" d="M1487.77,3765.6a46.73,46.73,0,0,1-13.07-.67,35,35,0,0,1-10.17-3.43l4-9.92a33,33,0,0,0,8.93,3,36.43,36.43,0,0,0,10.24.61q5.8-.49,8.33-2.26a4.77,4.77,0,0,0,2.3-4.48,3.76,3.76,0,0,0-2.08-3.21,14.33,14.33,0,0,0-4.86-1.36q-3-.35-6.55-.56t-7.23-.75a24.75,24.75,0,0,1-6.67-2,13.42,13.42,0,0,1-5.08-4.06,13.75,13.75,0,0,1-2.43-7.36,13.94,13.94,0,0,1,2.17-9,19,19,0,0,1,7.67-6.55,33.72,33.72,0,0,1,12.3-3.14,49.56,49.56,0,0,1,11,.34,32.2,32.2,0,0,1,9.56,2.68l-4.11,9.93a25.7,25.7,0,0,0-7.87-2.42,36.45,36.45,0,0,0-7.79-.21c-3.74.32-6.5,1.1-8.27,2.36s-2.6,2.76-2.45,4.49a4,4,0,0,0,2.1,3.46,14,14,0,0,0,4.87,1.46q3,.41,6.56.66t7.18.81a28.17,28.17,0,0,1,6.66,1.86,12.46,12.46,0,0,1,5.12,4,13.36,13.36,0,0,1,2.42,7.16,13.64,13.64,0,0,1-2.22,9,19.29,19.29,0,0,1-7.84,6.4A36.12,36.12,0,0,1,1487.77,3765.6Z" transform="translate(-70.97 -68.29)"/><path class="cls-2" d="M1561.44,3758.73l-6.23-74.33,12.43-1,6.22,74.33Z" transform="translate(-70.97 -68.29)"/><path class="cls-2" d="M1619.9,3754.54a29.78,29.78,0,0,1-14.88-2.33,26.5,26.5,0,0,1-11-8.92,27.28,27.28,0,0,1,6.93-38.86,29.76,29.76,0,0,1,14.33-4.78,30.16,30.16,0,0,1,15.07,2.32,26.42,26.42,0,0,1,10.93,8.82,29.49,29.49,0,0,1,2.38,28.4,26.26,26.26,0,0,1-9.36,10.56A30.26,30.26,0,0,1,1619.9,3754.54Zm-.89-10.62a16.29,16.29,0,0,0,8-2.74,14.4,14.4,0,0,0,5.16-6.38,18.58,18.58,0,0,0,1.31-9,18.21,18.21,0,0,0-2.79-8.69,14.67,14.67,0,0,0-6.15-5.34,17.15,17.15,0,0,0-16.23,1.36,15,15,0,0,0-5.22,6.29,18,18,0,0,0-1.36,9,18.25,18.25,0,0,0,2.85,8.69,14.78,14.78,0,0,0,6.2,5.43A15.91,15.91,0,0,0,1619,3743.92Z" transform="translate(-70.97 -68.29)"/><path class="cls-2" d="M1690,3748.67a29.74,29.74,0,0,1-14.87-2.33,26.58,26.58,0,0,1-11-8.92,27.28,27.28,0,0,1,6.93-38.86,29.76,29.76,0,0,1,14.33-4.78,30.16,30.16,0,0,1,15.07,2.32,26.42,26.42,0,0,1,10.93,8.82,29.49,29.49,0,0,1,2.38,28.4,26.26,26.26,0,0,1-9.36,10.56A30.26,30.26,0,0,1,1690,3748.67Zm-.88-10.62a16.29,16.29,0,0,0,8-2.74,14.4,14.4,0,0,0,5.16-6.38,18.7,18.7,0,0,0,1.31-9,18.21,18.21,0,0,0-2.79-8.69,14.67,14.67,0,0,0-6.15-5.34,17.15,17.15,0,0,0-16.23,1.36,15,15,0,0,0-5.22,6.29,17.9,17.9,0,0,0-1.36,9,18.35,18.35,0,0,0,2.84,8.69,14.87,14.87,0,0,0,6.21,5.43A15.91,15.91,0,0,0,1689.13,3738.05Z" transform="translate(-70.97 -68.29)"/><path class="cls-2" d="M1736.13,3744.1l-6.22-74.32,12.42-1,6.22,74.32Zm9.12-12.76-1-15.75L1770,3687.4l15-1.26-21.76,25.73-6.24,6.17Zm31.25,9.39-21.75-22.49,7.07-10.68,29.81,31.9Z" transform="translate(-70.97 -68.29)"/><path class="cls-2" d="M1820.24,3737.77a46.71,46.71,0,0,1-13.07-.67,34.64,34.64,0,0,1-10.18-3.44l4-9.91a33.43,33.43,0,0,0,8.93,3,36.45,36.45,0,0,0,10.24.61c3.88-.33,6.65-1.08,8.34-2.27a4.76,4.76,0,0,0,2.3-4.47,3.77,3.77,0,0,0-2.09-3.21,14,14,0,0,0-4.85-1.36c-2-.24-4.16-.42-6.56-.56s-4.8-.39-7.22-.76a24.29,24.29,0,0,1-6.67-2,13.34,13.34,0,0,1-5.08-4.06,15.48,15.48,0,0,1-.26-16.37,18.91,18.91,0,0,1,7.67-6.55,33.72,33.72,0,0,1,12.29-3.14,49.06,49.06,0,0,1,11,.34,31.84,31.84,0,0,1,9.55,2.68l-4.11,9.92a25.6,25.6,0,0,0-7.87-2.41,36.36,36.36,0,0,0-7.78-.21q-5.61.47-8.28,2.36c-1.78,1.26-2.59,2.75-2.45,4.49a4.1,4.1,0,0,0,2.11,3.46,14.24,14.24,0,0,0,4.86,1.46q3,.41,6.56.66c2.4.17,4.8.44,7.18.81a28.12,28.12,0,0,1,6.67,1.86,12.53,12.53,0,0,1,5.12,4,15.07,15.07,0,0,1,.19,16.17,19.27,19.27,0,0,1-7.83,6.41A36.17,36.17,0,0,1,1820.24,3737.77Z" transform="translate(-70.97 -68.29)"/><path class="cls-2" d="M1270.53,3874.54l-.92-10.92-.78-2.16-1.59-18.93q-.45-5.51-4.07-8.28t-10.42-2.21a28.06,28.06,0,0,0-8.6,2.14,23.11,23.11,0,0,0-7.09,4.52l-5.67-8.7a31.94,31.94,0,0,1,9.9-5.88,44.78,44.78,0,0,1,12.18-2.73q11.71-1,18.5,4.1t7.75,16.7l2.63,31.36Zm-16.77,2.11a25.28,25.28,0,0,1-10.69-1.18,16.24,16.24,0,0,1-7.44-5.12,14.58,14.58,0,0,1-3.15-8.06,15.56,15.56,0,0,1,1.48-8.3,14.6,14.6,0,0,1,6.58-6.3q4.73-2.51,12.85-3.19l15.52-1.3.7,8.31-14.63,1.23q-6.3.53-8.39,2.77a6.7,6.7,0,0,0-1.82,5.34,6.3,6.3,0,0,0,3.15,5.09q2.86,1.77,7.68,1.37a16.33,16.33,0,0,0,8.09-2.79,12.51,12.51,0,0,0,4.84-6.66l2.63,7.34a14,14,0,0,1-5.8,7.85C1262.43,3875.05,1258.57,3876.24,1253.76,3876.65Z" transform="translate(-70.97 -68.29)"/><path class="cls-2" d="M1326.58,3870.55a27.07,27.07,0,0,1-12.23-1.55,18.64,18.64,0,0,1-8.82-7.13q-3.39-5-4.07-13l-2.55-30.56,12.62-1.05,2.42,29q.6,7.11,4.2,10.39t9.51,2.78a15.86,15.86,0,0,0,7.57-2.45,12.18,12.18,0,0,0,4.65-5.83,20,20,0,0,0,1.06-9.07l-2.27-27.05,12.53-1,4.47,53.49-11.92,1-1.21-14.52,2.48,4.33a19,19,0,0,1-7.25,8.58A23.86,23.86,0,0,1,1326.58,3870.55Z" transform="translate(-70.97 -68.29)"/><path class="cls-2" d="M1366.89,3823.09l-.84-10,35.67-3,.83,10Zm30.91,41.5q-8.8.73-14-3.42t-5.93-13l-4-48.08,12.42-1,4,47.68a8.21,8.21,0,0,0,2.5,5.74,7.36,7.36,0,0,0,5.78,1.63,10.42,10.42,0,0,0,6.63-2.77l4.35,8.61a15.72,15.72,0,0,1-5.28,3.17A24.24,24.24,0,0,1,1397.8,3864.59Z" transform="translate(-70.97 -68.29)"/><path class="cls-2" d="M1449,3860.3a32.66,32.66,0,0,1-15.87-2.25,26,26,0,0,1-11.13-8.85,27.42,27.42,0,0,1-4.85-13.87,28.07,28.07,0,0,1,2.37-14.47,26,26,0,0,1,9-10.54,28.38,28.38,0,0,1,14-4.75,27.8,27.8,0,0,1,14.22,2.29,25,25,0,0,1,10.42,8.86,29.43,29.43,0,0,1,4.74,14.43c0,.47.07,1,.1,1.76s0,1.32,0,1.86l-44.57,3.74-.7-8.32,38-3.18-4.79,3a15.81,15.81,0,0,0-2.53-7.91,14,14,0,0,0-5.82-5.06,15.9,15.9,0,0,0-8.18-1.29,16.6,16.6,0,0,0-7.9,2.63,13.29,13.29,0,0,0-5,6,17.6,17.6,0,0,0-1.21,8.47l.17,2a16.63,16.63,0,0,0,2.86,8.33,14.68,14.68,0,0,0,6.65,5.24,20.2,20.2,0,0,0,9.48,1.28,21,21,0,0,0,8-2.18,19.11,19.11,0,0,0,6-4.95l7.47,7.25a24,24,0,0,1-8.63,7.17A33.08,33.08,0,0,1,1449,3860.3Zm-26.48-59.72,12.37-14.85,11.22-.94,14.67,12.59-10.21.85-14.69-10.37,9.61-.8-12.75,12.67Z" transform="translate(-70.97 -68.29)"/><path class="cls-2" d="M1517.42,3799.29a25.27,25.27,0,0,1,11.68,1.55,18.72,18.72,0,0,1,8.56,7q3.39,5,4.07,13.07l2.57,30.66-12.52,1-2.44-29q-.58-7.11-4.19-10.34t-9.71-2.71a16.44,16.44,0,0,0-7.66,2.45,12.37,12.37,0,0,0-4.81,5.8,19.36,19.36,0,0,0-1.11,9.12l2.27,27.05-12.42,1-4.48-53.49,11.92-1,1.22,14.52-2.49-4.33a18.77,18.77,0,0,1,7.41-8.59A26.45,26.45,0,0,1,1517.42,3799.29Z" transform="translate(-70.97 -68.29)"/><path class="cls-2" d="M1555,3807.34l-.84-10,35.66-3,.84,10Zm30.91,41.5q-8.82.73-14-3.42t-5.93-13l-4-48.08,12.42-1,4,47.68a8.25,8.25,0,0,0,2.5,5.74,7.41,7.41,0,0,0,5.79,1.64,10.48,10.48,0,0,0,6.62-2.78l4.36,8.62a15.85,15.85,0,0,1-5.29,3.16A24.26,24.26,0,0,1,1585.93,3848.84Z" transform="translate(-70.97 -68.29)"/><path class="cls-2" d="M1614.81,3783a7.9,7.9,0,0,1-5.94-1.72,7.28,7.28,0,0,1-2.71-5.22,7.06,7.06,0,0,1,1.82-5.4,8,8,0,0,1,5.57-2.69,8.23,8.23,0,0,1,5.93,1.58,6.81,6.81,0,0,1,2.7,5.07,7.57,7.57,0,0,1-1.75,5.64A7.8,7.8,0,0,1,1614.81,3783Zm-1,62.83-4.48-53.49,12.42-1,4.48,53.49Z" transform="translate(-70.97 -68.29)"/><path class="cls-2" d="M1672.77,3841.57a31,31,0,0,1-15.27-2.31,26.43,26.43,0,0,1-11.08-8.85A29.19,29.19,0,0,1,1644,3802a26.63,26.63,0,0,1,9.46-10.53,31.1,31.1,0,0,1,14.68-4.81,28.84,28.84,0,0,1,14,2.06,20.74,20.74,0,0,1,9.8,8.56l-9,6.41a16,16,0,0,0-6.33-5.07,15.63,15.63,0,0,0-7.61-1.23,16.92,16.92,0,0,0-8.15,2.75,14.79,14.79,0,0,0-5.32,6.3,17.88,17.88,0,0,0-1.36,9,18.12,18.12,0,0,0,2.85,8.74,14.62,14.62,0,0,0,6.3,5.37,17,17,0,0,0,8.48,1.36,15.63,15.63,0,0,0,7.31-2.48,15.87,15.87,0,0,0,5.39-6.15l10,4.81a21,21,0,0,1-8.23,10A28.43,28.43,0,0,1,1672.77,3841.57Z" transform="translate(-70.97 -68.29)"/><path class="cls-2" d="M1735.18,3836.34a29.72,29.72,0,0,1-14.87-2.33,26.53,26.53,0,0,1-11-8.92,29,29,0,0,1-2.37-28.35,26.88,26.88,0,0,1,9.31-10.51,29.72,29.72,0,0,1,14.33-4.78,30.18,30.18,0,0,1,15.07,2.32,26.49,26.49,0,0,1,10.93,8.82A29.52,29.52,0,0,1,1759,3821a26.16,26.16,0,0,1-9.35,10.56A30.26,30.26,0,0,1,1735.18,3836.34Zm-.89-10.62a16.29,16.29,0,0,0,8-2.74,14.49,14.49,0,0,0,5.17-6.38,18.7,18.7,0,0,0,1.31-9,18.32,18.32,0,0,0-2.79-8.69,14.67,14.67,0,0,0-6.15-5.34,17.14,17.14,0,0,0-16.23,1.36,15,15,0,0,0-5.22,6.29,17.77,17.77,0,0,0-1.36,9,18.24,18.24,0,0,0,2.84,8.69,14.8,14.8,0,0,0,6.21,5.43A15.88,15.88,0,0,0,1734.29,3825.72Z" transform="translate(-70.97 -68.29)"/><path class="cls-2" d="M1797.89,3831.09a46.73,46.73,0,0,1-13.07-.67,34.88,34.88,0,0,1-10.17-3.43l4-9.92a33.19,33.19,0,0,0,8.93,3,36.43,36.43,0,0,0,10.24.61q5.81-.49,8.33-2.26a4.78,4.78,0,0,0,2.3-4.48,3.77,3.77,0,0,0-2.09-3.21,14.2,14.2,0,0,0-4.85-1.36c-2-.23-4.16-.42-6.55-.56s-4.81-.38-7.23-.75a24.65,24.65,0,0,1-6.67-2,13.42,13.42,0,0,1-5.08-4.06,13.75,13.75,0,0,1-2.43-7.36,13.94,13.94,0,0,1,2.17-9,18.82,18.82,0,0,1,7.67-6.54,33.52,33.52,0,0,1,12.3-3.15,49.59,49.59,0,0,1,11,.34,32,32,0,0,1,9.55,2.68l-4.11,9.93a25.54,25.54,0,0,0-7.87-2.42,36.36,36.36,0,0,0-7.78-.21c-3.74.32-6.5,1.1-8.28,2.36s-2.59,2.76-2.45,4.49a4.07,4.07,0,0,0,2.11,3.46,14.24,14.24,0,0,0,4.86,1.46c2,.27,4.16.49,6.56.66s4.8.44,7.18.81a28.12,28.12,0,0,1,6.67,1.86,12.53,12.53,0,0,1,5.12,4,13.45,13.45,0,0,1,2.42,7.16,13.59,13.59,0,0,1-2.23,9,19.25,19.25,0,0,1-7.83,6.4A36.12,36.12,0,0,1,1797.89,3831.09Z" transform="translate(-70.97 -68.29)"/><path class="cls-2" d="M1842.46,3827.36a8.16,8.16,0,0,1-9-7.72,7.79,7.79,0,0,1,1.9-6.16,8.35,8.35,0,0,1,5.72-2.75,8.11,8.11,0,0,1,5.9,1.78,7.79,7.79,0,0,1,2.9,5.76,8.12,8.12,0,0,1-1.89,6.26A7.91,7.91,0,0,1,1842.46,3827.36Z" transform="translate(-70.97 -68.29)"/><g id="E_QUER_SABER" data-name="E QUER SABER"><path d="M713.27,3402.12l48.82-4,1.71,20.54L689,3424.82l-7.75-93.37,73.1-6.07,1.7,20.54-47.09,3.91Zm-4.91-36.53,43.35-3.59,1.63,19.6L710,3385.2Z" transform="translate(-70.97 -68.29)"/><path d="M864.53,3412.14a58,58,0,0,1-20.91-1.9,47.81,47.81,0,0,1-29.47-23.41,49.46,49.46,0,0,1-3.21-38.61,48.13,48.13,0,0,1,25.22-27.88,61.24,61.24,0,0,1,41.29-3.43,50.19,50.19,0,0,1,17.31,8.77,46.47,46.47,0,0,1,12.15,14.44,51,51,0,0,1,3.22,38.89,46,46,0,0,1-9.59,16.3,50.05,50.05,0,0,1-15.63,11.51A58.07,58.07,0,0,1,864.53,3412.14Zm-1.82-21.88a26.4,26.4,0,0,0,9.79-2.69,23,23,0,0,0,7.55-6.07,25.39,25.39,0,0,0,4.64-8.91,32.08,32.08,0,0,0-1.82-21.88,25.46,25.46,0,0,0-6-8,23.11,23.11,0,0,0-8.45-4.73,26.18,26.18,0,0,0-10.09-1,26.48,26.48,0,0,0-9.78,2.69,23.88,23.88,0,0,0-7.63,6.08,24.13,24.13,0,0,0-4.63,8.91,33.14,33.14,0,0,0,1.81,21.88,24.18,24.18,0,0,0,6,8,23.69,23.69,0,0,0,8.52,4.74A26.37,26.37,0,0,0,862.71,3390.26Zm34.08,40a48.6,48.6,0,0,1-11.38-.33,39.42,39.42,0,0,1-10.54-3.23,62,62,0,0,1-11-6.74q-5.79-4.35-13-10.87l27-9.23a66.15,66.15,0,0,0,6.65,7.31,16.48,16.48,0,0,0,5.61,3.56,13.78,13.78,0,0,0,5.62.68q7.74-.64,13.59-7.85L922,3416.5Q913.33,3428.91,896.79,3430.28Z" transform="translate(-70.97 -68.29)"/><path d="M973.38,3403.11q-20.68,1.71-33.16-8.67T926,3363.38l-4.31-51.89,26.41-2.19,4.24,51.09q1,11.88,6.09,16.69t13.37,4.13q8.26-.69,12.44-6.27t3.19-17.46l-4.24-51.09,26.14-2.17,4.31,51.89q1.71,20.68-9,33T973.38,3403.11Z" transform="translate(-70.97 -68.29)"/><path d="M1059.42,3373.4l48.82-4.05,1.71,20.55-74.83,6.2-7.75-93.37,73.1-6.06,1.7,20.54-47.09,3.9Zm-4.91-36.52,43.35-3.6,1.63,19.61-43.35,3.59Z" transform="translate(-70.97 -68.29)"/><path d="M1124.75,3388.67l-7.74-93.38,42.55-3.53q12.81-1.05,22.49,2.3a31.92,31.92,0,0,1,15.33,10.75,33.39,33.39,0,0,1,6.52,17.93q.9,10.8-3.47,18.82a32.06,32.06,0,0,1-13.38,12.86q-9,4.85-21.8,5.91l-28,2.32,10.94-12.19,3,36Zm23.68-35.14-12.89-11.29,26.42-2.19q8.26-.69,12.1-4.63t3.3-10.48a12.71,12.71,0,0,0-5-9.6q-4.44-3.32-12.71-2.63l-26.42,2.19,10.87-13.13Zm34,30.36-26-32.09,28.14-2.34,26.17,32.08Z" transform="translate(-70.97 -68.29)"/><path d="M1295.12,3376.42a84.9,84.9,0,0,1-22.45-1q-10.85-2-17.75-5.85l7-20.32a61.36,61.36,0,0,0,15,5.4,54,54,0,0,0,16.55,1.24,33.42,33.42,0,0,0,8.8-1.67,9.94,9.94,0,0,0,4.58-3.06,6.12,6.12,0,0,0,1.19-4.27,5.51,5.51,0,0,0-3.34-4.62,29.25,29.25,0,0,0-7.92-2.43q-4.85-.89-10.47-1.55a102.88,102.88,0,0,1-11.52-2.07,42.88,42.88,0,0,1-10.82-4.07,23.84,23.84,0,0,1-8.2-7.38c-2.19-3.13-3.48-7.18-3.9-12.17a26.74,26.74,0,0,1,3.29-15.45q4-7.17,12.83-12.07t22.6-6a80.05,80.05,0,0,1,18.25.56,53.9,53.9,0,0,1,16.19,4.91l-6.39,20.14a57.67,57.67,0,0,0-13.66-4.38,49.72,49.72,0,0,0-12.82-.68,26.63,26.63,0,0,0-8.7,1.93A10.45,10.45,0,0,0,1279,3305a6.41,6.41,0,0,0-1.14,4.12,5.63,5.63,0,0,0,3.35,4.76,26.44,26.44,0,0,0,7.85,2.3q4.77.75,10.53,1.48a115,115,0,0,1,11.52,2.07,44.82,44.82,0,0,1,10.74,3.94,23.62,23.62,0,0,1,8.32,7.24q3.35,4.62,3.95,12a26.52,26.52,0,0,1-3.36,15.39q-4,7.25-12.89,12.15T1295.12,3376.42Z" transform="translate(-70.97 -68.29)"/><path d="M1337.24,3371l33.48-96.79,26-2.16,49.1,89.94-27.48,2.28-39-77.75,10.41-.87-25.61,83.12Zm21-20.14,5.2-19.91,45.62-3.79,8.41,18.78Z" transform="translate(-70.97 -68.29)"/><path d="M1453.43,3361.4l-7.75-93.37,47.49-3.94q18.54-1.55,28.18,4.51t10.53,16.86a22,22,0,0,1-2.69,13,24.57,24.57,0,0,1-10,9.42,40.09,40.09,0,0,1-16,4.42l2-6.61a45.56,45.56,0,0,1,17.39,1.57,25.41,25.41,0,0,1,12.19,7.79,23.2,23.2,0,0,1,5.21,13.4,21.72,21.72,0,0,1-8.24,19.62q-9.24,7.62-28.19,9.19Zm24.43-21.23,22.14-1.84q6.93-.57,10.21-3.2c2.18-1.74,3.14-4.22,2.88-7.42a8.06,8.06,0,0,0-4.06-6.85q-3.66-2-10.6-1.47l-24,2-1.52-18.27,20-1.66q6.67-.55,9.82-3.1a7.6,7.6,0,0,0,2.78-6.95q-.39-4.67-3.91-6.59t-10.18-1.37l-18.14,1.5Z" transform="translate(-70.97 -68.29)"/><path d="M1580.32,3330.19l48.82-4.05,1.7,20.55-74.83,6.2-7.75-93.37,73.1-6.07,1.7,20.55-47.08,3.9Zm-4.92-36.53,43.36-3.59,1.62,19.61-43.35,3.59Z" transform="translate(-70.97 -68.29)"/><path d="M1645.65,3345.46l-7.75-93.38,42.55-3.53q12.81-1.07,22.49,2.3a31.92,31.92,0,0,1,15.33,10.75,33.28,33.28,0,0,1,6.52,17.92q.9,10.82-3.47,18.83a32,32,0,0,1-13.37,12.86q-9,4.85-21.81,5.9l-28,2.33,10.94-12.19,3,36Zm23.68-35.14L1656.44,3299l26.41-2.19q8.26-.69,12.1-4.63t3.3-10.48a12.68,12.68,0,0,0-5-9.6q-4.44-3.32-12.71-2.64l-26.41,2.2,10.86-13.13Zm33.94,30.36-26-32.09,28.15-2.34,26.16,32.08Z" transform="translate(-70.97 -68.29)"/><path d="M1759.68,3301.75a19.83,19.83,0,0,1,.76-7.86,26.61,26.61,0,0,1,3-6.36,41.29,41.29,0,0,1,4.18-5.38q2.28-2.47,4.25-4.65a21.85,21.85,0,0,0,3.19-4.5,8.52,8.52,0,0,0,1-4.72,7.33,7.33,0,0,0-3.78-5.93,14.33,14.33,0,0,0-8.67-1.63,18.9,18.9,0,0,0-9.46,3.34,19.86,19.86,0,0,0-6.43,7.51l-20.75-8.88a39.4,39.4,0,0,1,13.89-15.59q9.28-6.21,24.23-7.45a52.93,52.93,0,0,1,18.38,1.36,27.87,27.87,0,0,1,13.1,7.44,21.19,21.19,0,0,1,5.68,13.36,24.54,24.54,0,0,1-.78,9.2,23,23,0,0,1-3.57,7.15c-1.58,2.1-3.18,4.05-4.82,5.84s-3.27,3.51-4.88,5.17a22.24,22.24,0,0,0-3.75,5,10,10,0,0,0-1.08,5.6Zm14.79,34.23a14.89,14.89,0,0,1-11.21-3.23,13.4,13.4,0,0,1-5-9.53,12.91,12.91,0,0,1,3.38-10.15,15.37,15.37,0,0,1,10.55-4.84q6.8-.55,11.33,3a13,13,0,0,1,5,9.46,13.43,13.43,0,0,1-3.39,10.22A15.06,15.06,0,0,1,1774.47,3336Z" transform="translate(-70.97 -68.29)"/></g></g></g></g></svg>