<svg xmlns="http://www.w3.org/2000/svg" viewBox="0 0 3684.22 5920.3"><defs><style>.cls-1{fill:#fff;}.cls-2{fill:#211915;}</style></defs><title>7</title><g id="Camada_2" data-name="Camada 2"><g id="Camada_1-2" data-name="Camada 1"><g id="DESKTOP2"><path class="cls-1" d="M432.36,270q-15.27,0-26.95-5.84a41.4,41.4,0,0,1-18.18-18q-6.53-12.12-6.51-30.54V147.42h35V210.3q0,15.27,6.39,22.34t18.08,7.07a28.29,28.29,0,0,0,14.37-3.59,25.38,25.38,0,0,0,10-10.77q3.71-7.18,3.71-18V147.43h34.8V268.24H469.86V234.78l6.06,9.88a42.83,42.83,0,0,1-18,19A52.37,52.37,0,0,1,432.36,270Z" transform="translate(-78.09 -128.47)"/><path class="cls-1" d="M690.37,145.66a54.85,54.85,0,0,1,25.49,5.73,40.48,40.48,0,0,1,17.4,17.51q6.29,11.79,6.28,30.2v69.17h-35V204.49q0-14.6-5.94-21.56t-16.73-7a27.45,27.45,0,0,0-13.92,3.48,22.71,22.71,0,0,0-9.32,10.33q-3.27,6.85-3.26,17.85v60.63h-35V204.48q0-14.59-5.95-21.56t-17.18-7a27,27,0,0,0-13.69,3.48,23.45,23.45,0,0,0-9.44,10.33q-3.36,6.85-3.37,17.85v60.63h-35V147.44h33.46v32.78l-6.28-9.43A41.8,41.8,0,0,1,580.57,152a53.8,53.8,0,0,1,26.27-6.39q16.62,0,29.19,8.42t16.62,25.71l-12.35-3.37a49.37,49.37,0,0,1,19.31-22.34Q672.86,145.66,690.37,145.66Z" transform="translate(-78.09 -128.47)"/><path class="cls-1" d="M808.47,270.07q-13.92,0-24-4.83a37.69,37.69,0,0,1-15.6-13.14,33,33,0,0,1-5.5-18.64,33.89,33.89,0,0,1,5.28-18.75q5.28-8.19,16.73-12.68t30.09-4.49h31.88v20.21H819q-12.36,0-16.95,4a12.89,12.89,0,0,0-4.61,10.11,12.59,12.59,0,0,0,5.28,10.66q5.26,3.93,14.26,3.93a31.71,31.71,0,0,0,16-4,22,22,0,0,0,10-12.35l5.39,16.4a31.87,31.87,0,0,1-13.92,17.4Q824.41,270.08,808.47,270.07Zm36.83-1.79V244.7l-2.25-5.17V197.32q0-11.22-6.85-17.52t-21-6.28a60.71,60.71,0,0,0-19,3,53.21,53.21,0,0,0-16,8.2l-12.35-24.48a71.2,71.2,0,0,1,23.8-10.89,109.54,109.54,0,0,1,28.3-3.7q27.62,0,42.88,13t15.27,40.64v68.94Z" transform="translate(-78.09 -128.47)"/><path class="cls-1" d="M1128,145.71a54.93,54.93,0,0,1,25.48,5.72,40.55,40.55,0,0,1,17.4,17.52q6.28,11.79,6.29,30.2v69.16h-35V204.54q0-14.59-6-21.56t-16.73-7a27.45,27.45,0,0,0-13.92,3.48,22.82,22.82,0,0,0-9.32,10.33q-3.26,6.84-3.26,17.85V268.3h-35V204.53q0-14.59-5.94-21.56t-17.18-7a27,27,0,0,0-13.7,3.48,23.43,23.43,0,0,0-9.43,10.33q-3.37,6.84-3.37,17.85v60.62h-35l0-120.81h33.45v32.78l-6.29-9.43a41.91,41.91,0,0,1,17.74-18.75,53.84,53.84,0,0,1,26.28-6.39q16.61,0,29.19,8.42t16.61,25.71l-12.35-3.37a49.43,49.43,0,0,1,19.31-22.34Q1110.5,145.7,1128,145.71Z" transform="translate(-78.09 -128.47)"/><path class="cls-1" d="M1246.1,270.12q-13.92,0-24-4.83a37.66,37.66,0,0,1-15.61-13.14,33,33,0,0,1-5.5-18.64,34,34,0,0,1,5.28-18.75q5.28-8.19,16.73-12.68t30.09-4.49H1285V217.8h-28.3q-12.35,0-17,4a12.87,12.87,0,0,0-4.6,10.1,12.6,12.6,0,0,0,5.27,10.67q5.28,3.93,14.26,3.93a31.85,31.85,0,0,0,16.06-4,22.08,22.08,0,0,0,10-12.35l5.39,16.39A31.83,31.83,0,0,1,1272.15,264Q1262.06,270.12,1246.1,270.12Zm36.83-1.8V244.75l-2.24-5.17V197.37q0-11.24-6.84-17.52t-21-6.29a61,61,0,0,0-19,3,53.15,53.15,0,0,0-16.06,8.2l-12.35-24.48a71.16,71.16,0,0,1,23.81-10.89,109.52,109.52,0,0,1,28.29-3.7q27.62,0,42.89,13t15.26,40.64v68.94Z" transform="translate(-78.09 -128.47)"/><path class="cls-1" d="M1347.37,268.33l0-120.8h33.45v34.36l-4.71-10.11a38.75,38.75,0,0,1,17.29-19.42q11.89-6.62,29-6.62V178.3a39.53,39.53,0,0,0-3.93-.68,33.94,33.94,0,0,0-3.7-.22q-14.82,0-23.58,8.3t-8.76,25.6v57Z" transform="translate(-78.09 -128.47)"/><path class="cls-1" d="M1500.52,270.15q-19.55,0-34.7-8a59.61,59.61,0,0,1-32.44-54.23q0-18.19,8.65-32.11a61.31,61.31,0,0,1,23.81-22q15.15-8.09,34.69-8.08,19.08,0,33.34,8a46.28,46.28,0,0,1,20.55,22.57l-27,14.82q-4.93-8.54-11.9-12.47a30.63,30.63,0,0,0-15.27-3.93,32.66,32.66,0,0,0-15.94,3.93A29.22,29.22,0,0,0,1472.91,190q-4.28,7.41-4.27,18T1472.9,226a29,29,0,0,0,11.45,11.45,32.68,32.68,0,0,0,15.94,3.93,30.52,30.52,0,0,0,15.27-3.92q7-3.93,11.91-12.69l26.94,14.82a47,47,0,0,1-20.55,22.46Q1519.59,270.14,1500.52,270.15Z" transform="translate(-78.09 -128.47)"/><path class="cls-1" d="M1612.11,270.16q-13.92,0-24-4.83a37.66,37.66,0,0,1-15.61-13.14,33,33,0,0,1-5.5-18.64,33.89,33.89,0,0,1,5.28-18.75q5.28-8.19,16.73-12.68t30.09-4.49H1651v20.21h-28.29q-12.35,0-17,4a12.88,12.88,0,0,0-4.61,10.1,12.6,12.6,0,0,0,5.28,10.67q5.27,3.93,14.26,3.93a31.81,31.81,0,0,0,16-4,22.06,22.06,0,0,0,10-12.35l5.38,16.39A31.77,31.77,0,0,1,1638.16,264Q1628.05,270.16,1612.11,270.16Zm36.83-1.79V244.79l-2.24-5.17V197.41q0-11.24-6.85-17.52t-21-6.29a61,61,0,0,0-19,3,53.21,53.21,0,0,0-16.05,8.2l-12.35-24.48a71.2,71.2,0,0,1,23.8-10.89,109.66,109.66,0,0,1,28.3-3.7q27.62,0,42.88,13t15.27,40.64v68.94Z" transform="translate(-78.09 -128.47)"/><path class="cls-1" d="M861.43,516.77a70.35,70.35,0,0,1-15.72-1.69A38.24,38.24,0,0,1,833.14,510l9.43-25.37a25.19,25.19,0,0,0,14.82,4.27q6.74,0,10.44-4.27t3.71-13.47V350.61h35V471q0,21.11-11.79,33.45T861.43,516.77Zm27.64-183q-9.89,0-15.94-5.62a19,19,0,0,1,0-27.84q6.06-5.61,16-5.61,9.64,0,15.82,5.28a17,17,0,0,1,6.18,13.58A19,19,0,0,1,905,328Q899,333.77,889.07,333.77Z" transform="translate(-78.09 -128.47)"/><path class="cls-1" d="M996.39,473.22q-19.1,0-34-8.08A60.61,60.61,0,0,1,938.91,443q-8.53-14-8.53-32,0-18.19,8.53-32.23a60,60,0,0,1,23.47-22q14.93-8,34-8,19.3,0,34.35,8a59.74,59.74,0,0,1,23.58,22q8.54,14,8.53,32.22t-8.54,32.11a60.8,60.8,0,0,1-23.58,22Q1015.7,473.23,996.39,473.22Zm0-28.74a31.24,31.24,0,0,0,15.83-3.93,28.71,28.71,0,0,0,11-11.56,37,37,0,0,0,4.16-18q0-10.56-4.15-18a29.22,29.22,0,0,0-11-11.34,30.81,30.81,0,0,0-15.61-3.93,31.41,31.41,0,0,0-15.72,3.93,28.87,28.87,0,0,0-11.11,11.34q-4.17,7.41-4.16,18a37,37,0,0,0,4.15,18,28.49,28.49,0,0,0,11.12,11.57A30.92,30.92,0,0,0,996.39,444.48Z" transform="translate(-78.09 -128.47)"/><path class="cls-1" d="M1115.85,471.44l-50.74-120.81H1101l42.2,104h-18l44-104h33.46l-51,120.8Z" transform="translate(-78.09 -128.47)"/><path class="cls-1" d="M1273.7,473.25q-20.67,0-36.15-8.08a59.79,59.79,0,0,1-24-22.13q-8.54-14-8.53-32t8.2-32.11a57.73,57.73,0,0,1,22.91-22.12,68.42,68.42,0,0,1,33.12-8,66.83,66.83,0,0,1,32,7.64,57.38,57.38,0,0,1,22.56,21.56q8.31,13.93,8.31,33.46c0,1.35-.08,2.88-.23,4.6s-.3,3.34-.45,4.83h-98.12V400.5H1313l-13.7,6.07a31.94,31.94,0,0,0-3.59-16.4,27.9,27.9,0,0,0-10.55-10.89,30.62,30.62,0,0,0-15.72-3.93,31.24,31.24,0,0,0-15.83,3.93,27.34,27.34,0,0,0-10.66,11,34.68,34.68,0,0,0-3.82,16.73v5.39a33.08,33.08,0,0,0,4.48,17.51A29.61,29.61,0,0,0,1256,441.25q7.86,3.93,18.86,3.93a44.68,44.68,0,0,0,16.73-2.91,41.31,41.31,0,0,0,13.37-8.76l18.63,20.21a54.19,54.19,0,0,1-20.88,14.48Q1290.09,473.26,1273.7,473.25Z" transform="translate(-78.09 -128.47)"/><path class="cls-1" d="M1510.16,348.88a54.81,54.81,0,0,1,25.48,5.73,40.63,40.63,0,0,1,17.41,17.52q6.27,11.79,6.28,30.2v69.16h-35V407.71q0-14.59-6-21.55t-16.73-7a27.45,27.45,0,0,0-13.92,3.48,22.87,22.87,0,0,0-9.32,10.33q-3.26,6.86-3.26,17.85v60.63h-35V407.7q0-14.58-5.94-21.55t-17.18-7a27,27,0,0,0-13.7,3.48,23.54,23.54,0,0,0-9.43,10.33q-3.37,6.86-3.37,17.85v60.63h-35l0-120.81h33.45v32.79l-6.29-9.43a41.83,41.83,0,0,1,17.75-18.75,53.69,53.69,0,0,1,26.27-6.4q16.61,0,29.19,8.42T1472.43,383l-12.35-3.37a49.34,49.34,0,0,1,19.32-22.34Q1492.65,348.87,1510.16,348.88Z" transform="translate(-78.09 -128.47)"/><path class="cls-1" d="M1613.67,416.71a33.89,33.89,0,0,1,2.58-13.59,45.76,45.76,0,0,1,6.52-10.78,78.76,78.76,0,0,1,8.42-8.87q4.49-4,8.42-7.74a40.92,40.92,0,0,0,6.51-7.75,16.72,16.72,0,0,0,2.58-9.2,15.28,15.28,0,0,0-6.62-12.8q-6.63-5-17.4-5a40.13,40.13,0,0,0-19.2,4.38,38,38,0,0,0-13.59,12.24l-27.16-15.95a64.42,64.42,0,0,1,25-22q15.82-8.08,38.51-8.08,17.06,0,29.86,4.83t20,14q7.19,9.21,7.19,22.45a39.9,39.9,0,0,1-9.66,27.4,96.42,96.42,0,0,1-9.1,9.2c-3.22,2.85-6.25,5.61-9.09,8.31a40.12,40.12,0,0,0-7,8.53,19.68,19.68,0,0,0-2.7,10.33Zm17.06,56.58a20.7,20.7,0,0,1-15.27-6.06,19.64,19.64,0,0,1-6.06-14.37,18.82,18.82,0,0,1,6.06-14.26,21.35,21.35,0,0,1,15.27-5.73q9.66,0,15.61,5.73a19,19,0,0,1,6,14.26,19.81,19.81,0,0,1-6,14.37Q1640.39,473.29,1630.73,473.29Z" transform="translate(-78.09 -128.47)"/><path class="cls-1" d="M1793,218.91a40.56,40.56,0,0,1-14.94-2.7,35.2,35.2,0,0,1-11.93-7.65,35.56,35.56,0,0,1-7.85-11.52,38.56,38.56,0,0,1,0-28.85A35.28,35.28,0,0,1,1778,149a42.66,42.66,0,0,1,29.87,0,35.75,35.75,0,0,1,11.88,7.59,34.87,34.87,0,0,1,7.85,11.53,38.82,38.82,0,0,1,0,29,34.73,34.73,0,0,1-7.85,11.52,35.78,35.78,0,0,1-11.88,7.6A40.09,40.09,0,0,1,1793,218.91Zm0-6.73a31.53,31.53,0,0,0,11.87-2.19,28.13,28.13,0,0,0,9.49-6.22,29.14,29.14,0,0,0,6.27-9.38,32.07,32.07,0,0,0,0-23.55,29,29,0,0,0-6.27-9.38,28,28,0,0,0-9.49-6.22,31.53,31.53,0,0,0-11.87-2.19,32,32,0,0,0-11.93,2.19,28.44,28.44,0,0,0-15.91,15.6,31.94,31.94,0,0,0,0,23.5A28.32,28.32,0,0,0,1781.08,210,32,32,0,0,0,1793,212.18Z" transform="translate(-78.09 -128.47)"/><path class="cls-1" d="M1905.26,218.91a40.56,40.56,0,0,1-14.94-2.7,35.2,35.2,0,0,1-11.93-7.65,35.56,35.56,0,0,1-7.85-11.52,38.56,38.56,0,0,1,0-28.85A35.28,35.28,0,0,1,1890.27,149a42.66,42.66,0,0,1,29.87,0,35.65,35.65,0,0,1,11.88,7.59,34.72,34.72,0,0,1,7.85,11.53,38.82,38.82,0,0,1,0,29,34.58,34.58,0,0,1-7.85,11.52,35.68,35.68,0,0,1-11.88,7.6A40.09,40.09,0,0,1,1905.26,218.91Zm0-6.73a31.62,31.62,0,0,0,11.88-2.19,28.19,28.19,0,0,0,9.48-6.22,29,29,0,0,0,6.27-9.43,31.94,31.94,0,0,0,0-23.5,29,29,0,0,0-6.27-9.38,28,28,0,0,0-9.48-6.22,31.62,31.62,0,0,0-11.88-2.19,32,32,0,0,0-11.93,2.19,28.41,28.41,0,0,0-9.59,6.22,28.69,28.69,0,0,0-6.32,9.38,31.94,31.94,0,0,0,0,23.5A28.32,28.32,0,0,0,1893.33,210,32,32,0,0,0,1905.26,212.18Zm23.35,20.29a24.21,24.21,0,0,1-6.33-.82,25.46,25.46,0,0,1-6.16-2.6,39.64,39.64,0,0,1-6.38-4.64q-3.26-2.85-7.13-6.93l8.25-2a46.56,46.56,0,0,0,6.17,6.22,23.37,23.37,0,0,0,5.92,3.62,15.28,15.28,0,0,0,5.76,1.17,17.27,17.27,0,0,0,13.56-6.52l3.67,4.38A21.46,21.46,0,0,1,1928.61,232.47Z" transform="translate(-78.09 -128.47)"/><path class="cls-1" d="M1988.35,218.91q-13.66,0-21.51-7.85T1959,187.81V146.93h7.54v40.58q0,12.65,5.71,18.65t16.11,6q10.5,0,16.21-6t5.71-18.65V146.93h7.34v40.88q0,15.41-7.8,23.25T1988.35,218.91Z" transform="translate(-78.09 -128.47)"/><path class="cls-1" d="M2047.89,211.77h42.92v6.53h-50.46V146.93h48.94v6.52h-41.4Zm-.81-32.93h37.72v6.42h-37.72Z" transform="translate(-78.09 -128.47)"/><path class="cls-1" d="M2154.94,218.91a45.11,45.11,0,0,1-15.24-2.6,29.18,29.18,0,0,1-11.27-6.68l3-5.81a30.21,30.21,0,0,0,10.15,6.17,36.45,36.45,0,0,0,13.4,2.5,29.86,29.86,0,0,0,11-1.69,13.26,13.26,0,0,0,6.22-4.53,10.8,10.8,0,0,0,2-6.32,9.41,9.41,0,0,0-2.4-6.73,16.45,16.45,0,0,0-6.27-4,68.47,68.47,0,0,0-8.56-2.6c-3.13-.75-6.25-1.55-9.38-2.4a39.52,39.52,0,0,1-8.62-3.41,18,18,0,0,1-6.32-5.66,16.16,16.16,0,0,1-2.39-9.23,17.82,17.82,0,0,1,2.8-9.73,19.55,19.55,0,0,1,8.62-7.14q5.8-2.7,14.88-2.7A43.45,43.45,0,0,1,2168.4,148a34.45,34.45,0,0,1,10.2,4.64l-2.55,6a33.68,33.68,0,0,0-9.74-4.48,37.24,37.24,0,0,0-9.94-1.43,28,28,0,0,0-10.6,1.73,13.47,13.47,0,0,0-6.17,4.64,11.35,11.35,0,0,0-2,6.58,9.41,9.41,0,0,0,2.4,6.73,15.88,15.88,0,0,0,6.32,4,75.52,75.52,0,0,0,8.61,2.55q4.7,1.13,9.33,2.45a43.29,43.29,0,0,1,8.57,3.42,17.62,17.62,0,0,1,6.32,5.55,15.72,15.72,0,0,1,2.39,9.08,17.49,17.49,0,0,1-2.85,9.63,19.85,19.85,0,0,1-8.72,7.14Q2164.12,218.91,2154.94,218.91Z" transform="translate(-78.09 -128.47)"/><path class="cls-1" d="M2186.55,218.3l32.62-71.37h7.45l32.62,71.37h-7.95l-30-67h3l-30,67Zm12.84-19.07,2.25-6.12h41.49l2.25,6.12Z" transform="translate(-78.09 -128.47)"/><path class="cls-1" d="M2271.07,218.3V146.93h30.79q11.92,0,18.5,4.79t6.58,13.56a17,17,0,0,1-2.7,9.79,16.86,16.86,0,0,1-7.34,6,25,25,0,0,1-10.15,2l1.74-2.44a30,30,0,0,1,11.77,2.09A16.83,16.83,0,0,1,2328,189a18,18,0,0,1,2.75,10.24q0,9.08-6.68,14.07t-20.13,5Zm7.54-6.22h25.19q9.38,0,14.37-3.21t5-10.25q0-6.93-5-10.14t-14.37-3.22h-26V179h23.55q8.57,0,13.3-3.26t4.75-9.68q0-6.53-4.75-9.74t-13.3-3.21h-22.74Z" transform="translate(-78.09 -128.47)"/><path class="cls-1" d="M2355.49,211.77h42.92v6.53h-50.47V146.93h48.94v6.52h-41.39Zm-.82-32.93h37.73v6.42h-37.73Z" transform="translate(-78.09 -128.47)"/><path class="cls-1" d="M2416.15,218.3V146.93h6.22L2455,202.6h-3.26l32.32-55.67h6.22V218.3H2483V158.25h1.74l-29.78,51h-3.56l-30-51h1.94V218.3Z" transform="translate(-78.09 -128.47)"/><path class="cls-1" d="M2544.71,218.91a40.51,40.51,0,0,1-14.93-2.7A35.16,35.16,0,0,1,2510,197a38.43,38.43,0,0,1,0-28.85A35.28,35.28,0,0,1,2529.73,149a42.66,42.66,0,0,1,29.87,0,35.85,35.85,0,0,1,11.88,7.59,34.87,34.87,0,0,1,7.85,11.53,38.82,38.82,0,0,1,0,29,34.73,34.73,0,0,1-7.85,11.52,35.88,35.88,0,0,1-11.88,7.6A40.15,40.15,0,0,1,2544.71,218.91Zm0-6.73a31.55,31.55,0,0,0,11.88-2.19,28,28,0,0,0,9.48-6.22,28.82,28.82,0,0,0,6.27-9.38,31.94,31.94,0,0,0,0-23.55,28.71,28.71,0,0,0-6.27-9.38,27.85,27.85,0,0,0-9.48-6.22,31.55,31.55,0,0,0-11.88-2.19,31.94,31.94,0,0,0-11.92,2.19,28.44,28.44,0,0,0-15.91,15.6,31.94,31.94,0,0,0,0,23.5A28.32,28.32,0,0,0,2532.79,210,31.94,31.94,0,0,0,2544.71,212.18Z" transform="translate(-78.09 -128.47)"/><path class="cls-1" d="M2618.73,218.91a45.11,45.11,0,0,1-15.24-2.6,29.18,29.18,0,0,1-11.27-6.68l3-5.81a30.21,30.21,0,0,0,10.15,6.17,36.45,36.45,0,0,0,13.4,2.5,29.86,29.86,0,0,0,11-1.69,13.26,13.26,0,0,0,6.22-4.53,10.8,10.8,0,0,0,2-6.32,9.41,9.41,0,0,0-2.4-6.73,16.45,16.45,0,0,0-6.27-4,68.47,68.47,0,0,0-8.56-2.6c-3.13-.75-6.25-1.55-9.38-2.4a39.52,39.52,0,0,1-8.62-3.41,18,18,0,0,1-6.32-5.66,16.16,16.16,0,0,1-2.39-9.23,17.82,17.82,0,0,1,2.8-9.73,19.55,19.55,0,0,1,8.62-7.14q5.8-2.7,14.88-2.7a43.45,43.45,0,0,1,11.93,1.68,34.45,34.45,0,0,1,10.2,4.64l-2.55,6a33.68,33.68,0,0,0-9.74-4.48,37.24,37.24,0,0,0-9.94-1.43,28,28,0,0,0-10.6,1.73,13.47,13.47,0,0,0-6.17,4.64,11.35,11.35,0,0,0-2,6.58,9.41,9.41,0,0,0,2.4,6.73,15.88,15.88,0,0,0,6.32,4,75.52,75.52,0,0,0,8.61,2.55q4.7,1.13,9.33,2.45a43.29,43.29,0,0,1,8.57,3.42,17.62,17.62,0,0,1,6.32,5.55,15.72,15.72,0,0,1,2.39,9.08,17.49,17.49,0,0,1-2.85,9.63,19.85,19.85,0,0,1-8.72,7.14Q2627.91,218.91,2618.73,218.91Z" transform="translate(-78.09 -128.47)"/><path class="cls-1" d="M2696,211.77h42.93v6.53h-50.47V146.93h48.94v6.52H2696Zm-.81-32.93h37.72v6.42H2695.2Zm11.21-37.72,14-12.65h9.69l-16.52,12.65Z" transform="translate(-78.09 -128.47)"/><path class="cls-1" d="M2814.59,218.91a40.56,40.56,0,0,1-14.94-2.7,35.2,35.2,0,0,1-11.93-7.65,35.56,35.56,0,0,1-7.85-11.52,38.56,38.56,0,0,1,0-28.85A35.28,35.28,0,0,1,2799.6,149a42.66,42.66,0,0,1,29.87,0,35.85,35.85,0,0,1,11.88,7.59,34.87,34.87,0,0,1,7.85,11.53,38.82,38.82,0,0,1,0,29,34.73,34.73,0,0,1-7.85,11.52,35.88,35.88,0,0,1-11.88,7.6A40.13,40.13,0,0,1,2814.59,218.91Zm0-6.73a31.53,31.53,0,0,0,11.87-2.19,28.13,28.13,0,0,0,9.49-6.22,29,29,0,0,0,6.27-9.43,31.94,31.94,0,0,0,0-23.5,29,29,0,0,0-6.27-9.38,28,28,0,0,0-9.49-6.22,31.53,31.53,0,0,0-11.87-2.19,32,32,0,0,0-11.93,2.19,28.44,28.44,0,0,0-15.91,15.6,31.94,31.94,0,0,0,0,23.5A28.32,28.32,0,0,0,2802.66,210,32,32,0,0,0,2814.59,212.18Zm23.34,20.29a24.19,24.19,0,0,1-6.32-.82,25.69,25.69,0,0,1-6.17-2.6,40,40,0,0,1-6.37-4.64q-3.26-2.85-7.13-6.93l8.25-2a46.56,46.56,0,0,0,6.17,6.22,23.37,23.37,0,0,0,5.92,3.62,15.28,15.28,0,0,0,5.76,1.17,17.27,17.27,0,0,0,13.56-6.52l3.67,4.38A21.46,21.46,0,0,1,2837.93,232.47Z" transform="translate(-78.09 -128.47)"/><path class="cls-1" d="M2897.68,218.91q-13.66,0-21.51-7.85t-7.85-23.25V146.93h7.54v40.58q0,12.65,5.71,18.65t16.11,6q10.5,0,16.21-6t5.71-18.65V146.93h7.34v40.88q0,15.41-7.8,23.25T2897.68,218.91Z" transform="translate(-78.09 -128.47)"/><path class="cls-1" d="M2957.22,211.77h42.92v6.53h-50.46V146.93h48.93v6.52h-41.39Zm-.82-32.93h37.73v6.42H2956.4Z" transform="translate(-78.09 -128.47)"/><path class="cls-1" d="M3044.59,218.3V146.93h6.22l49.25,62h-3.26v-62h7.44V218.3H3098l-49.14-62h3.26v62Z" transform="translate(-78.09 -128.47)"/><path class="cls-1" d="M3116.06,218.3l32.63-71.37h7.44l32.63,71.37h-8l-30-67h3.06l-30,67Zm12.85-19.07,2.24-6.12h41.5l2.24,6.12Zm30.48-58.72a8.48,8.48,0,0,1-4.18-1,17,17,0,0,1-3.31-2.4,37.83,37.83,0,0,0-2.9-2.45,4.92,4.92,0,0,0-3-1.07,4.47,4.47,0,0,0-3.72,1.74,8.37,8.37,0,0,0-1.58,4.79h-4.39a13.45,13.45,0,0,1,2.7-8.16,8,8,0,0,1,6.48-3.06,8.47,8.47,0,0,1,4.23,1.07,17.7,17.7,0,0,1,3.36,2.45,33.43,33.43,0,0,0,2.86,2.4,4.81,4.81,0,0,0,2.9,1,4.73,4.73,0,0,0,3.78-1.69,7.36,7.36,0,0,0,1.53-4.64h4.38a12.45,12.45,0,0,1-2.65,8A8.11,8.11,0,0,1,3159.39,140.51Z" transform="translate(-78.09 -128.47)"/><path class="cls-1" d="M3230.76,218.91a40.47,40.47,0,0,1-14.93-2.7A35.16,35.16,0,0,1,3196.05,197a38.43,38.43,0,0,1,0-28.85A35.28,35.28,0,0,1,3215.78,149a42.66,42.66,0,0,1,29.87,0,35.85,35.85,0,0,1,11.88,7.59,34.87,34.87,0,0,1,7.85,11.53,38.82,38.82,0,0,1,0,29,34.73,34.73,0,0,1-7.85,11.52,35.88,35.88,0,0,1-11.88,7.6A40.19,40.19,0,0,1,3230.76,218.91Zm0-6.73a31.58,31.58,0,0,0,11.88-2.19,28,28,0,0,0,9.48-6.22,28.82,28.82,0,0,0,6.27-9.38,31.94,31.94,0,0,0,0-23.55,28.71,28.71,0,0,0-6.27-9.38,27.85,27.85,0,0,0-9.48-6.22,31.58,31.58,0,0,0-11.88-2.19,32,32,0,0,0-11.93,2.19,28.46,28.46,0,0,0-15.9,15.6,31.94,31.94,0,0,0,0,23.5,28.34,28.34,0,0,0,15.9,15.65A32,32,0,0,0,3230.76,212.18Z" transform="translate(-78.09 -128.47)"/><path class="cls-1" d="M1781.49,350.55a45.12,45.12,0,0,1-15.25-2.6,29.18,29.18,0,0,1-11.26-6.68l3-5.81a30.19,30.19,0,0,0,10.15,6.16,36.33,36.33,0,0,0,13.41,2.5,30.16,30.16,0,0,0,11-1.68,13.25,13.25,0,0,0,6.22-4.54,10.84,10.84,0,0,0,2-6.32,9.47,9.47,0,0,0-2.39-6.73,16.47,16.47,0,0,0-6.27-4,67.49,67.49,0,0,0-8.57-2.6q-4.68-1.12-9.38-2.4a39.46,39.46,0,0,1-8.61-3.42,17.71,17.71,0,0,1-6.32-5.65,16.09,16.09,0,0,1-2.4-9.23,17.88,17.88,0,0,1,2.8-9.74,19.6,19.6,0,0,1,8.62-7.13q5.8-2.71,14.88-2.71a43.09,43.09,0,0,1,11.93,1.69,34.44,34.44,0,0,1,10.2,4.63l-2.55,6a34,34,0,0,0-9.74-4.49,37.16,37.16,0,0,0-9.94-1.42,28,28,0,0,0-10.6,1.73,13.46,13.46,0,0,0-6.17,4.64,11.43,11.43,0,0,0-2,6.58,9.39,9.39,0,0,0,2.4,6.72,16,16,0,0,0,6.32,4,80,80,0,0,0,8.62,2.55c3.12.75,6.23,1.56,9.32,2.45a43.64,43.64,0,0,1,8.57,3.41,17.74,17.74,0,0,1,6.32,5.56,15.61,15.61,0,0,1,2.4,9.07,17.51,17.51,0,0,1-2.86,9.64,19.9,19.9,0,0,1-8.72,7.13Q1790.65,350.55,1781.49,350.55Z" transform="translate(-78.09 -128.47)"/><path class="cls-1" d="M1855.71,350.55a40.36,40.36,0,0,1-14.94-2.71,35.18,35.18,0,0,1-11.93-7.64,35.56,35.56,0,0,1-7.85-11.52,38.58,38.58,0,0,1,0-28.86,35.22,35.22,0,0,1,19.73-19.16,42.51,42.51,0,0,1,29.87,0,35.65,35.65,0,0,1,11.88,7.59,34.58,34.58,0,0,1,7.85,11.52,38.71,38.71,0,0,1,0,29,34.58,34.58,0,0,1-7.85,11.52,35.65,35.65,0,0,1-11.88,7.59A39.9,39.9,0,0,1,1855.71,350.55Zm0-6.73a31.43,31.43,0,0,0,11.88-2.2,28.17,28.17,0,0,0,9.48-6.21,29.25,29.25,0,0,0,6.27-9.38,32.1,32.1,0,0,0,0-23.56,29.25,29.25,0,0,0-6.27-9.38,28.34,28.34,0,0,0-9.48-6.22,31.62,31.62,0,0,0-11.88-2.19,32,32,0,0,0-11.93,2.19,28.52,28.52,0,0,0-15.91,15.6,31.94,31.94,0,0,0,0,23.5,28.32,28.32,0,0,0,15.91,15.65A31.8,31.8,0,0,0,1855.71,343.82Z" transform="translate(-78.09 -128.47)"/><path class="cls-1" d="M1910.05,349.93V278.57h6.22l32.62,55.66h-3.26L1978,278.57h6.22v71.36h-7.24V289.88h1.74l-29.78,51h-3.56l-30-51h1.94v60.05Z" transform="translate(-78.09 -128.47)"/><path class="cls-1" d="M2038.61,350.55a40.31,40.31,0,0,1-14.93-2.71,35.11,35.11,0,0,1-19.78-19.16,38.46,38.46,0,0,1,0-28.86,35.22,35.22,0,0,1,19.73-19.16,42.51,42.51,0,0,1,29.87,0,35.85,35.85,0,0,1,11.88,7.59,34.73,34.73,0,0,1,7.85,11.52,38.84,38.84,0,0,1,0,29,34.73,34.73,0,0,1-7.85,11.52,35.85,35.85,0,0,1-11.88,7.59A40,40,0,0,1,2038.61,350.55Zm0-6.73a31.39,31.39,0,0,0,11.88-2.2,28,28,0,0,0,9.48-6.21,28.93,28.93,0,0,0,6.27-9.38,32,32,0,0,0,0-23.56,28.93,28.93,0,0,0-6.27-9.38,28.14,28.14,0,0,0-9.48-6.22,31.58,31.58,0,0,0-11.88-2.19,31.94,31.94,0,0,0-11.92,2.19,28.44,28.44,0,0,0-15.91,15.6,31.94,31.94,0,0,0,0,23.5,28.24,28.24,0,0,0,15.91,15.65A31.75,31.75,0,0,0,2038.61,343.82Z" transform="translate(-78.09 -128.47)"/><path class="cls-1" d="M2112.63,350.55a45.11,45.11,0,0,1-15.24-2.6,29.31,29.31,0,0,1-11.27-6.68l3-5.81a30.09,30.09,0,0,0,10.15,6.16,36.24,36.24,0,0,0,13.4,2.5,30.09,30.09,0,0,0,11-1.68,13.2,13.2,0,0,0,6.22-4.54,10.78,10.78,0,0,0,2-6.32,9.43,9.43,0,0,0-2.4-6.73,16.32,16.32,0,0,0-6.27-4,66.83,66.83,0,0,0-8.56-2.6c-3.13-.75-6.25-1.55-9.38-2.4a39.54,39.54,0,0,1-8.62-3.42,17.88,17.88,0,0,1-6.32-5.65,16.16,16.16,0,0,1-2.39-9.23,17.88,17.88,0,0,1,2.8-9.74,19.6,19.6,0,0,1,8.62-7.13q5.8-2.71,14.88-2.71a43.09,43.09,0,0,1,11.93,1.69,34.44,34.44,0,0,1,10.2,4.63l-2.55,6a34,34,0,0,0-9.74-4.49,37.21,37.21,0,0,0-9.94-1.42,28,28,0,0,0-10.6,1.73,13.41,13.41,0,0,0-6.17,4.64,11.35,11.35,0,0,0-2,6.58,9.39,9.39,0,0,0,2.4,6.72,15.9,15.9,0,0,0,6.32,4,79.81,79.81,0,0,0,8.61,2.55c3.13.75,6.24,1.56,9.33,2.45a43.89,43.89,0,0,1,8.57,3.41,17.74,17.74,0,0,1,6.32,5.56,15.69,15.69,0,0,1,2.39,9.07,17.5,17.5,0,0,1-2.85,9.64,20,20,0,0,1-8.72,7.13Q2121.81,350.55,2112.63,350.55Z" transform="translate(-78.09 -128.47)"/><path class="cls-2" d="M2182.37,349.93V278.57h6.22l49.24,62h-3.26v-62H2242v71.36h-6.22l-49.14-62h3.26v62Z" transform="translate(-78.09 -128.47)"/><path class="cls-2" d="M2272.8,343.41h42.92v6.52h-50.46V278.57h48.94v6.52h-41.4Zm-.81-32.93h37.72v6.42H2272Z" transform="translate(-78.09 -128.47)"/><path class="cls-2" d="M2333.46,349.93V278.57h6.22l32.63,55.66h-3.26l32.32-55.66h6.22v71.36h-7.24V289.88h1.73l-29.77,51h-3.57l-30-51h1.93v60.05Z" transform="translate(-78.09 -128.47)"/><path class="cls-2" d="M2486.29,350.55q-13.66,0-21.51-7.85t-7.85-23.25V278.57h7.54v40.57q0,12.64,5.71,18.66t16.11,6q10.5,0,16.21-6t5.71-18.66V278.57h7.34v40.88q0,15.39-7.8,23.25T2486.29,350.55Z" transform="translate(-78.09 -128.47)"/><path class="cls-2" d="M2538.29,349.93V278.57h6.22l32.62,55.66h-3.26l32.32-55.66h6.22v71.36h-7.24V289.88h1.74l-29.78,51h-3.56l-30-51h1.94v60.05Z" transform="translate(-78.09 -128.47)"/><path class="cls-2" d="M2624.24,349.93l32.62-71.36h7.45l32.62,71.36H2689l-30-67h3.06l-30,67Zm12.84-19.06,2.25-6.12h41.49l2.25,6.12Z" transform="translate(-78.09 -128.47)"/><path class="cls-2" d="M2735.47,349.93V278.57h6.22l32.62,55.66h-3.26l32.32-55.66h6.22v71.36h-7.24V289.88h1.74l-29.78,51h-3.56l-30-51h1.94v60.05Z" transform="translate(-78.09 -128.47)"/><path class="cls-2" d="M2821.42,349.93,2854,278.57h7.44l32.63,71.36h-8l-30-67h3.06l-30,67Zm12.84-19.06,2.25-6.12H2878l2.24,6.12Z" transform="translate(-78.09 -128.47)"/><path class="cls-2" d="M2905.94,349.93V278.57h26.71a38.11,38.11,0,0,1,15.6,2.9,22.48,22.48,0,0,1,10,8.36,23.82,23.82,0,0,1,3.52,13.2,23.39,23.39,0,0,1-3.52,13,22.35,22.35,0,0,1-10,8.36,38.1,38.1,0,0,1-15.6,2.91h-22.53l3.36-3.47v26.1Zm7.54-25.48-3.36-3.57h22.33q10.7,0,16.26-4.69t5.55-13.16q0-8.55-5.55-13.25t-16.26-4.69h-22.33l3.36-3.57Zm41.19,25.48L2936.32,324h8.16l18.45,25.89Z" transform="translate(-78.09 -128.47)"/><path class="cls-2" d="M3010.64,350.55a39.9,39.9,0,0,1-14.88-2.71,34.75,34.75,0,0,1-19.63-19.11,38.84,38.84,0,0,1,0-29,34.73,34.73,0,0,1,7.85-11.52,35.85,35.85,0,0,1,11.88-7.59,40,40,0,0,1,14.89-2.71,40.76,40.76,0,0,1,14.58,2.6,29.47,29.47,0,0,1,11.52,7.8l-4.8,4.8a26.49,26.49,0,0,0-9.68-6.48,32.4,32.4,0,0,0-11.42-2,32,32,0,0,0-11.93,2.19,28.67,28.67,0,0,0-9.58,6.22,29.2,29.2,0,0,0-6.37,9.38,31.32,31.32,0,0,0,0,23.56,29.2,29.2,0,0,0,6.37,9.38,28.49,28.49,0,0,0,9.58,6.21,33.22,33.22,0,0,0,23.35.16,27.15,27.15,0,0,0,9.68-6.53l4.8,4.79a29.82,29.82,0,0,1-11.52,7.86A40.42,40.42,0,0,1,3010.64,350.55Z" transform="translate(-78.09 -128.47)"/><path class="cls-2" d="M3039.7,349.93l32.63-71.36h7.44l32.63,71.36h-8l-30-67h3.06l-30,67Zm12.85-19.06,2.24-6.12h41.5l2.24,6.12Z" transform="translate(-78.09 -128.47)"/><path class="cls-2" d="M3150.93,349.93V278.57h7.55v71.36Z" transform="translate(-78.09 -128.47)"/><path class="cls-2" d="M3181.72,349.93V278.57h6.22l49.25,62h-3.27v-62h7.45v71.36h-6.22L3186,288h3.26v62Z" transform="translate(-78.09 -128.47)"/><path class="cls-2" d="M3272.16,349.93h-7.55V278.57h48.94v6.52h-41.39Zm-.82-36.8h37.72v6.52h-37.72Z" transform="translate(-78.09 -128.47)"/><path class="cls-2" d="M3314.37,349.93,3347,278.57h7.44l32.63,71.36h-7.95l-30-67h3.06l-30,67Zm12.84-19.06,2.25-6.12H3371l2.24,6.12Z" transform="translate(-78.09 -128.47)"/><path class="cls-2" d="M3398.89,349.93V278.57h6.22l49.24,62h-3.26v-62h7.44v71.36h-6.22l-49.14-62h3.26v62Z" transform="translate(-78.09 -128.47)"/><path class="cls-2" d="M3495.64,349.93V285.09h-25.08v-6.52h57.71v6.52h-25.08v64.84Z" transform="translate(-78.09 -128.47)"/><path class="cls-2" d="M3540.3,349.93V278.57h7.54v71.36Z" transform="translate(-78.09 -128.47)"/><path class="cls-2" d="M3571.09,349.93V278.57h7.54v64.84h40v6.52Z" transform="translate(-78.09 -128.47)"/><path class="cls-2" d="M1761.81,481.57V410.2H1768l49.24,62H1814v-62h7.44v71.37h-6.22l-49.14-62h3.26v62Z" transform="translate(-78.09 -128.47)"/><path class="cls-2" d="M1852.24,475h42.92v6.53H1844.7V410.2h48.94v6.53h-41.4Zm-.81-32.93h37.72v6.43h-37.72Z" transform="translate(-78.09 -128.47)"/><path class="cls-2" d="M1912.9,481.57V410.2h6.22l32.63,55.67h-3.26l32.32-55.67H1987v71.37h-7.24V421.52h1.73l-29.77,51h-3.57l-30-51h1.93v60.05Z" transform="translate(-78.09 -128.47)"/><path class="cls-2" d="M2050.85,481.57V416.73h-25.08V410.2h57.7v6.53h-25.08v64.84Z" transform="translate(-78.09 -128.47)"/><path class="cls-2" d="M2125.68,482.18a40.47,40.47,0,0,1-14.93-2.7A35.16,35.16,0,0,1,2091,460.31a38.43,38.43,0,0,1,0-28.85,35.3,35.3,0,0,1,19.72-19.17,42.68,42.68,0,0,1,29.88,0,35.72,35.72,0,0,1,11.88,7.6,34.73,34.73,0,0,1,7.85,11.52,38.82,38.82,0,0,1,0,28.95,34.73,34.73,0,0,1-7.85,11.52,35.72,35.72,0,0,1-11.88,7.6A40.19,40.19,0,0,1,2125.68,482.18Zm0-6.73a31.62,31.62,0,0,0,11.88-2.19A27.85,27.85,0,0,0,2147,467a28.71,28.71,0,0,0,6.27-9.38,31.94,31.94,0,0,0,0-23.55,28.82,28.82,0,0,0-6.27-9.38,28,28,0,0,0-9.48-6.22,31.62,31.62,0,0,0-11.88-2.19,32,32,0,0,0-11.93,2.19,28.46,28.46,0,0,0-15.9,15.6,31.94,31.94,0,0,0,0,23.5,28.34,28.34,0,0,0,15.9,15.65A32,32,0,0,0,2125.68,475.45Z" transform="translate(-78.09 -128.47)"/><path class="cls-2" d="M2192.87,481.57V416.73h-25.08V410.2h57.71v6.53h-25.08v64.84Z" transform="translate(-78.09 -128.47)"/><path class="cls-2" d="M2222.54,481.57l32.63-71.37h7.44l32.62,71.37h-7.95l-30-67h3.06l-30,67Zm12.85-19.07,2.24-6.11h41.5l2.24,6.11Z" transform="translate(-78.09 -128.47)"/><path class="cls-2" d="M2307.06,481.57V410.2h7.55V475h40v6.53Z" transform="translate(-78.09 -128.47)"/><path class="cls-2" d="M2367.11,481.57V410.2h6.22L2406,465.87h-3.27L2435,410.2h6.22v71.37H2434V421.52h1.74l-29.77,51h-3.57l-30-51h1.94v60.05Z" transform="translate(-78.09 -128.47)"/><path class="cls-2" d="M2472,475H2515v6.53h-50.47V410.2h48.94v6.53H2472Zm-.81-32.93h37.72v6.43h-37.72Z" transform="translate(-78.09 -128.47)"/><path class="cls-2" d="M2532.68,481.57V410.2h6.22l49.25,62h-3.26v-62h7.44v71.37h-6.22l-49.14-62h3.26v62Z" transform="translate(-78.09 -128.47)"/><path class="cls-2" d="M2629.44,481.57V416.73h-25.08V410.2h57.71v6.53H2637v64.84Z" transform="translate(-78.09 -128.47)"/><path class="cls-2" d="M2681.64,475h42.92v6.53h-50.47V410.2H2723v6.53h-41.39Zm-.82-32.93h37.73v6.43h-37.73Z" transform="translate(-78.09 -128.47)"/><path class="cls-2" d="M2757.59,481.57l32.63-71.37h7.44l32.63,71.37h-7.95l-30-67h3.06l-30,67Zm12.85-19.07,2.24-6.11h41.5l2.24,6.11Z" transform="translate(-78.09 -128.47)"/><path class="cls-2" d="M2842.11,481.57V410.2h29.06a42.37,42.37,0,0,1,20,4.54,33.23,33.23,0,0,1,13.4,12.59,38.26,38.26,0,0,1,0,37.11,33.23,33.23,0,0,1-13.4,12.59,42.37,42.37,0,0,1-20,4.54Zm7.55-6.53h21.1a34.43,34.43,0,0,0,16.47-3.72A27.21,27.21,0,0,0,2898.09,461a31.67,31.67,0,0,0,0-30.34,27.36,27.36,0,0,0-10.86-10.24,34.54,34.54,0,0,0-16.47-3.72h-21.1Z" transform="translate(-78.09 -128.47)"/><path class="cls-2" d="M2955.08,482.18q-13.66,0-21.51-7.85t-7.85-23.24V410.2h7.54v40.58q0,12.64,5.71,18.66t16.11,6q10.5,0,16.21-6t5.71-18.66V410.2h7.34v40.89q0,15.39-7.8,23.24T2955.08,482.18Z" transform="translate(-78.09 -128.47)"/><path class="cls-2" d="M3007.08,481.57V410.2h7.54V475h40v6.53Z" transform="translate(-78.09 -128.47)"/><path class="cls-2" d="M3074.37,481.57V416.73h-25.08V410.2H3107v6.53h-25.08v64.84Z" transform="translate(-78.09 -128.47)"/><path class="cls-2" d="M3104,481.57l32.62-71.37h7.45l32.62,71.37h-7.95l-30-67h3.06l-30,67Zm12.84-19.07,2.25-6.11h41.49l2.24,6.11Z" transform="translate(-78.09 -128.47)"/><path class="cls-2" d="M3191.21,482.08a5.13,5.13,0,0,1-3.83-1.63,5.52,5.52,0,0,1-1.58-4,5.41,5.41,0,1,1,10.81,0,5.52,5.52,0,0,1-1.58,4A5.11,5.11,0,0,1,3191.21,482.08Zm22.12,0a5.11,5.11,0,0,1-3.82-1.63,5.48,5.48,0,0,1-1.58-4,5.32,5.32,0,0,1,5.4-5.5,5.32,5.32,0,0,1,5.41,5.5,5.52,5.52,0,0,1-1.58,4A5.13,5.13,0,0,1,3213.33,482.08Zm22.23,0a5.13,5.13,0,0,1-3.83-1.63,5.52,5.52,0,0,1-1.58-4,5.41,5.41,0,1,1,10.81,0,5.52,5.52,0,0,1-1.58,4A5.11,5.11,0,0,1,3235.56,482.08Z" transform="translate(-78.09 -128.47)"/></g><g id="Camada_16" data-name="Camada 16"><rect x="822.43" y="5453.44" width="2861.79" height="220.73"/><rect x="497.58" y="5699.58" width="835.33" height="220.73"/><path d="M78.09,5769.13V5667.36h39.69q13.38,0,22.83,4.22a32.36,32.36,0,0,1,14.54,12.21q5.08,8,5.08,19t-5.08,19A33,33,0,0,1,140.61,5734q-9.45,4.29-22.83,4.29H86.09l6.54-6.84v37.66Zm14.54-36.2-6.54-7.27h31.26q14,0,21.15-6t7.2-16.87q0-10.9-7.2-16.86t-21.15-6H86.09l6.54-7.27Z" transform="translate(-78.09 -128.47)"/><path d="M186.26,5769.13v-77.06h13.37V5713l-1.31-5.23a23.72,23.72,0,0,1,10.76-12.22q7.56-4.22,18.61-4.21v13.52a9.86,9.86,0,0,0-1.67-.15h-1.53q-11.19,0-17.73,6.69t-6.55,19.34v38.38Z" transform="translate(-78.09 -128.47)"/><path d="M269.71,5770a36.37,36.37,0,0,1-15-2.91,23,23,0,0,1-10-8.07,20.43,20.43,0,0,1-3.49-11.7,22.13,22.13,0,0,1,3-11.34q3-5.08,9.74-8.14t18.25-3.05H296.6v10H272.76q-10.47,0-14.1,3.49a11.24,11.24,0,0,0-3.64,8.43,10.86,10.86,0,0,0,4.51,9.09q4.5,3.41,12.5,3.41a26.38,26.38,0,0,0,13.74-3.49,19.82,19.82,0,0,0,8.51-10.17l2.76,9.59A21.67,21.67,0,0,1,287.3,5766Q280.32,5770,269.71,5770Zm25.29-.87v-16.28l-.72-3.06V5722q0-8.87-5.16-13.73t-15.49-4.87a40.84,40.84,0,0,0-13.37,2.25,34.38,34.38,0,0,0-11,6l-5.82-10.47a42.41,42.41,0,0,1,14.32-7.34,60.11,60.11,0,0,1,17.52-2.54q15.86,0,24.43,7.7t8.58,23.56v46.52Z" transform="translate(-78.09 -128.47)"/><path d="M421.2,5765.93a41.54,41.54,0,0,1-20-4.72,36.07,36.07,0,0,1-14-13.16,39.5,39.5,0,0,1,0-39,35.69,35.69,0,0,1,14-13,42.08,42.08,0,0,1,20-4.65,40.3,40.3,0,0,1,18,4,30.55,30.55,0,0,1,13,12.28q4.86,8.29,4.87,20.94,0,12.49-4.87,20.79a31.59,31.59,0,0,1-13,12.43A39.21,39.21,0,0,1,421.2,5765.93Zm1.74,32.28a71.62,71.62,0,0,1-20.57-3,42.61,42.61,0,0,1-16.21-8.51l6.69-10.76a39.42,39.42,0,0,0,13.23,7.34,50.14,50.14,0,0,0,16.43,2.69q13.67,0,20.06-6.39t6.4-19.48v-16.29l1.45-15.26-.73-15.41v-21.09h13.23v66.59q0,20.35-10.17,29.95T422.94,5798.21Zm-.14-44.49a28.46,28.46,0,0,0,13.66-3.2,23.91,23.91,0,0,0,9.38-8.87,26.74,26.74,0,0,0,0-26.17,23.37,23.37,0,0,0-9.38-8.79,28.9,28.9,0,0,0-13.66-3.13,29.35,29.35,0,0,0-13.74,3.13,23.24,23.24,0,0,0-9.45,8.79,26.74,26.74,0,0,0,0,26.17,23.77,23.77,0,0,0,9.45,8.87A28.9,28.9,0,0,0,422.8,5753.72Z" transform="translate(-78.09 -128.47)"/><path d="M531.83,5770a44.75,44.75,0,0,1-21.73-5.09A36.66,36.66,0,0,1,495.56,5751a39.73,39.73,0,0,1-5.16-20.36,40.56,40.56,0,0,1,5-20.35,36.21,36.21,0,0,1,13.81-13.89,39.34,39.34,0,0,1,19.84-5,38.94,38.94,0,0,1,19.77,4.94,35,35,0,0,1,13.45,13.89,42.89,42.89,0,0,1,4.87,20.86c0,.58,0,1.26-.07,2s-.12,1.51-.22,2.18H501.3v-10h58.3l-5.67,3.49a25.91,25.91,0,0,0-3-13.23,23.36,23.36,0,0,0-8.8-9.08,27.3,27.3,0,0,0-26,0,23,23,0,0,0-8.87,9.16,27.69,27.69,0,0,0-3.19,13.44v2.33a26.45,26.45,0,0,0,3.56,13.74,24.43,24.43,0,0,0,10,9.38,31.21,31.21,0,0,0,14.68,3.34,31.94,31.94,0,0,0,12.43-2.33,27.11,27.11,0,0,0,9.81-7l7.71,9a33.76,33.76,0,0,1-13,9.3A45.18,45.18,0,0,1,531.83,5770Z" transform="translate(-78.09 -128.47)"/><path d="M635.64,5691.35a36.51,36.51,0,0,1,16.65,3.63A26.15,26.15,0,0,1,663.55,5706q4.08,7.43,4.07,18.76v44.34h-14v-42.74q0-11.21-5.46-16.87t-15.33-5.67a27.36,27.36,0,0,0-12.94,2.91,19.92,19.92,0,0,0-8.51,8.58q-3,5.67-3,14.1v39.69h-14v-77.06h13.38v20.8l-2.18-5.53a26.83,26.83,0,0,1,11.63-11.78A38.14,38.14,0,0,1,635.64,5691.35Z" transform="translate(-78.09 -128.47)"/><path d="M690.45,5703.56v-11.49h49.14v11.49ZM728,5770q-11.64,0-18-6.25t-6.4-17.88v-70.66h14v70.08q0,6.24,3.13,9.59t8.94,3.35a16.42,16.42,0,0,0,10.9-3.64l4.36,10a20.22,20.22,0,0,1-7.63,4.07A32.18,32.18,0,0,1,728,5770Z" transform="translate(-78.09 -128.47)"/><path d="M801.38,5770a44.79,44.79,0,0,1-21.74-5.09A36.66,36.66,0,0,1,765.1,5751a39.73,39.73,0,0,1-5.16-20.36,40.56,40.56,0,0,1,5-20.35,36.21,36.21,0,0,1,13.81-13.89,39.38,39.38,0,0,1,19.85-5,38.94,38.94,0,0,1,19.77,4.94,35,35,0,0,1,13.45,13.89,43,43,0,0,1,4.87,20.86c0,.58,0,1.26-.08,2s-.12,1.51-.21,2.18H770.85v-10h58.3l-5.67,3.49a26,26,0,0,0-3.06-13.23,23.33,23.33,0,0,0-8.79-9.08,27.3,27.3,0,0,0-26,0,23,23,0,0,0-8.87,9.16,27.59,27.59,0,0,0-3.2,13.44v2.33a26.54,26.54,0,0,0,3.56,13.74,24.49,24.49,0,0,0,10,9.38,31.21,31.21,0,0,0,14.68,3.34,31.9,31.9,0,0,0,12.43-2.33,27.15,27.15,0,0,0,9.82-7l7.7,9a33.69,33.69,0,0,1-13,9.3A45.13,45.13,0,0,1,801.38,5770Z" transform="translate(-78.09 -128.47)"/><path d="M858.51,5790.65l7.27-29.37,1.89,8.43a10,10,0,0,1-7-2.62,9.19,9.19,0,0,1-2.83-7.12,9.57,9.57,0,0,1,9.74-9.89,8.86,8.86,0,0,1,6.83,2.84A10,10,0,0,1,877,5760a17.66,17.66,0,0,1-.22,2.84A29.48,29.48,0,0,1,876,5766c-.34,1.22-.85,2.69-1.52,4.44l-6.84,20.21Z" transform="translate(-78.09 -128.47)"/><path class="cls-1" d="M1014.69,5660.73a50.77,50.77,0,0,1,23.2,5.07,36.38,36.38,0,0,1,15.7,15.4q5.67,10.32,5.67,26.13v61.8h-19.45v-59.57q0-15.6-7.6-23.5t-21.37-7.9a38.18,38.18,0,0,0-18,4.05A27.76,27.76,0,0,0,981,5694.16q-4.16,7.91-4.15,19.66v55.31H957.35V5661.75H976v29l-3-7.7a37.29,37.29,0,0,1,16.21-16.41Q1000.1,5660.73,1014.69,5660.73Z" transform="translate(-78.09 -128.47)"/><path class="cls-1" d="M1137.87,5770.35a50.59,50.59,0,0,1-21-4.06,32.14,32.14,0,0,1-13.87-11.24,28.4,28.4,0,0,1-4.87-16.31,30.71,30.71,0,0,1,4.16-15.81q4.14-7.08,13.57-11.34t25.43-4.26h34v14h-33.23q-14.6,0-19.65,4.87a15.69,15.69,0,0,0-5.07,11.75,15.1,15.1,0,0,0,6.28,12.66q6.29,4.77,17.43,4.76a36.85,36.85,0,0,0,19.14-4.86,27.72,27.72,0,0,0,11.86-14.18l3.85,13.37a30.26,30.26,0,0,1-13.58,15.09Q1152.67,5770.35,1137.87,5770.35Zm35.26-1.22v-22.69l-1-4.26v-38.7q0-12.34-7.2-19.14t-21.57-6.79a56.87,56.87,0,0,0-18.64,3.14,48.09,48.09,0,0,0-15.4,8.41l-8.11-14.59a58.58,58.58,0,0,1,20-10.23,83.45,83.45,0,0,1,24.41-3.55q22.1,0,34,10.74t12,32.82v64.84Zm-12-123.59a17.84,17.84,0,0,1-8.61-2,34.75,34.75,0,0,1-6.78-4.76,68.76,68.76,0,0,0-5.88-4.76,9.72,9.72,0,0,0-5.67-2,8.84,8.84,0,0,0-7.19,3.34q-2.74,3.34-3.15,9.22H1113q.4-11.34,5.68-18a17.09,17.09,0,0,1,14.18-6.68,17.69,17.69,0,0,1,8.71,2.12,37.24,37.24,0,0,1,6.89,4.86c2,1.83,3.95,3.42,5.78,4.77a9.32,9.32,0,0,0,12.86-1.22q2.84-3.24,3-8.91H1181q-.21,10.74-5.57,17.42A17.4,17.4,0,0,1,1161.17,5645.54Z" transform="translate(-78.09 -128.47)"/><path class="cls-1" d="M1284.77,5770.35a57.61,57.61,0,0,1-28.67-7.1,52.21,52.21,0,0,1-20-19.55,54.9,54.9,0,0,1-7.29-28.26q0-16,7.29-28.27a53,53,0,0,1,19.86-19.35q12.55-7.08,28.77-7.09a58.35,58.35,0,0,1,28.67,7,51.07,51.07,0,0,1,19.85,19.35q7.2,12.36,7.19,28.37t-7.19,28.36a51.74,51.74,0,0,1-19.85,19.45A57.66,57.66,0,0,1,1284.77,5770.35Zm0-17a36.94,36.94,0,0,0,18.54-4.66,33,33,0,0,0,12.86-13.27,41.29,41.29,0,0,0,4.66-20q0-11.55-4.66-20a33.33,33.33,0,0,0-12.86-13.07,36.94,36.94,0,0,0-18.54-4.66,36.38,36.38,0,0,0-18.44,4.66,34.92,34.92,0,0,0-13,13.07q-4.86,8.42-4.86,20a40,40,0,0,0,4.86,20,34.48,34.48,0,0,0,13,13.27A36.38,36.38,0,0,0,1284.77,5753.33Z" transform="translate(-78.09 -128.47)"/><path class="cls-1" d="M1492,5770.35q-17.24,0-30.29-7.1a51,51,0,0,1-20.27-19.45q-7.18-12.35-7.19-28.36t7-28.37a50.47,50.47,0,0,1,19.25-19.35,54.83,54.83,0,0,1,27.66-7q15.6,0,27.55,6.89a48.69,48.69,0,0,1,18.74,19.35q6.8,12.46,6.79,29.08c0,.81,0,1.75-.1,2.83s-.17,2.1-.3,3h-91.38v-14h81.25l-7.91,4.86a36,36,0,0,0-4.25-18.43,32.55,32.55,0,0,0-12.26-12.67,38.14,38.14,0,0,0-36.17,0,32.1,32.1,0,0,0-12.35,12.77,38.54,38.54,0,0,0-4.46,18.74v3.24a37,37,0,0,0,5,19.15,34.18,34.18,0,0,0,13.88,13.07,43.61,43.61,0,0,0,20.46,4.66,44.59,44.59,0,0,0,17.33-3.25,37.83,37.83,0,0,0,13.67-9.72l10.74,12.56a47.07,47.07,0,0,1-18.13,13A63.17,63.17,0,0,1,1492,5770.35Z" transform="translate(-78.09 -128.47)"/><path class="cls-1" d="M1560.72,5769.13l46.2-60-.21,9.92-44-57.33h21.68l33.63,44.16h-8.31l33.64-44.16h21.27l-44.57,57.74.2-10.33,46.6,60h-22.08l-35.46-47,7.9,1.22-34.85,45.79Z" transform="translate(-78.09 -128.47)"/><path class="cls-1" d="M1709,5641.08a13,13,0,0,1-9.42-3.65,12,12,0,0,1-3.75-8.91,12.19,12.19,0,0,1,3.75-9.12,13,13,0,0,1,9.42-3.65,13.19,13.19,0,0,1,9.42,3.55,11.63,11.63,0,0,1,3.75,8.81,12.66,12.66,0,0,1-13.17,13Zm-9.72,128.05V5661.75h19.45v107.38Z" transform="translate(-78.09 -128.47)"/><path class="cls-1" d="M1797.77,5770.35a87.45,87.45,0,0,1-25.43-3.65q-12-3.64-18.94-8.92l8.11-15.4a66.27,66.27,0,0,0,17,7.91,67.52,67.52,0,0,0,20.67,3.24q13.57,0,19.55-3.85a12.11,12.11,0,0,0,6-10.74,9.45,9.45,0,0,0-3.65-7.9,25,25,0,0,0-9.62-4.26q-6-1.41-13.27-2.53t-14.59-2.84a57.41,57.41,0,0,1-13.37-4.86,25.2,25.2,0,0,1-9.73-8.71q-3.65-5.57-3.64-14.89a27.55,27.55,0,0,1,5.47-17q5.46-7.31,15.5-11.25t23.8-4a93.75,93.75,0,0,1,21.38,2.54q10.83,2.53,17.73,7.19l-8.31,15.4a45.8,45.8,0,0,0-15.2-6.69,69.73,69.73,0,0,0-15.8-1.82q-12.76,0-19.05,4.15t-6.28,10.64a10.07,10.07,0,0,0,3.75,8.41,27.07,27.07,0,0,0,9.73,4.55,117.4,117.4,0,0,0,13.27,2.74q7.29,1.11,14.59,2.84a58.72,58.72,0,0,1,13.27,4.76,25.69,25.69,0,0,1,9.72,8.51q3.75,5.46,3.75,14.58a26.09,26.09,0,0,1-5.67,16.82q-5.68,7.09-16,11T1797.77,5770.35Z" transform="translate(-78.09 -128.47)"/><path class="cls-1" d="M1864.23,5677.75v-16h68.48v16Zm52.27,92.6q-16.21,0-25.12-8.72t-8.92-24.92v-98.47h19.45v97.66q0,8.72,4.36,13.37t12.46,4.66q9.12,0,15.2-5.06l6.07,14a28.1,28.1,0,0,1-10.63,5.67A45.09,45.09,0,0,1,1916.5,5770.35Z" transform="translate(-78.09 -128.47)"/><path class="cls-1" d="M2018.82,5770.35q-17.22,0-30.29-7.1a51,51,0,0,1-20.26-19.45q-7.2-12.35-7.19-28.36t7-28.37a50.45,50.45,0,0,1,19.24-19.35,54.83,54.83,0,0,1,27.66-7q15.6,0,27.56,6.89a48.82,48.82,0,0,1,18.74,19.35q6.78,12.46,6.78,29.08c0,.81,0,1.75-.1,2.83s-.17,2.1-.3,3h-91.38v-14h81.25l-7.9,4.86a36.14,36.14,0,0,0-4.26-18.43,32.55,32.55,0,0,0-12.26-12.67,38.12,38.12,0,0,0-36.16,0,32.12,32.12,0,0,0-12.36,12.77,38.65,38.65,0,0,0-4.46,18.74v3.24a37,37,0,0,0,5,19.15,34.18,34.18,0,0,0,13.88,13.07,43.65,43.65,0,0,0,20.47,4.66,44.54,44.54,0,0,0,17.32-3.25,37.86,37.86,0,0,0,13.68-9.72l10.74,12.56a47.11,47.11,0,0,1-18.14,13A63.17,63.17,0,0,1,2018.82,5770.35Z" transform="translate(-78.09 -128.47)"/><path class="cls-1" d="M2217.78,5770.35a57.64,57.64,0,0,1-28.67-7.1,52.25,52.25,0,0,1-20-19.55,54.81,54.81,0,0,1-7.3-28.26q0-16,7.3-28.27a53.05,53.05,0,0,1,19.85-19.35q12.57-7.08,28.77-7.09a58.32,58.32,0,0,1,28.67,7,51.17,51.17,0,0,1,19.86,19.35q7.18,12.36,7.19,28.37t-7.19,28.36a51.84,51.84,0,0,1-19.86,19.45A57.64,57.64,0,0,1,2217.78,5770.35Zm0-17a36.94,36.94,0,0,0,18.54-4.66,33,33,0,0,0,12.87-13.27,41.41,41.41,0,0,0,4.66-20q0-11.55-4.66-20a33.35,33.35,0,0,0-12.87-13.07,36.94,36.94,0,0,0-18.54-4.66,36.34,36.34,0,0,0-18.43,4.66,34.92,34.92,0,0,0-13,13.07q-4.86,8.42-4.86,20a40,40,0,0,0,4.86,20,34.48,34.48,0,0,0,13,13.27A36.34,36.34,0,0,0,2217.78,5753.33Z" transform="translate(-78.09 -128.47)"/><path class="cls-1" d="M2424,5770.35q-16.41,0-29.28-7.1a52.15,52.15,0,0,1-20.16-19.45q-7.29-12.35-7.29-28.36t7.29-28.37a51.49,51.49,0,0,1,20.16-19.35q12.87-7,29.28-7a57,57,0,0,1,26,5.78,40.85,40.85,0,0,1,17.72,17.12l-14.79,9.52a33,33,0,0,0-12.86-11.65,36.39,36.39,0,0,0-16.31-3.75,37.93,37.93,0,0,0-18.85,4.66,34.49,34.49,0,0,0-13.16,13.07q-4.87,8.42-4.87,20t4.87,20.06a34.27,34.27,0,0,0,13.16,13.17,37.93,37.93,0,0,0,18.85,4.66,36.39,36.39,0,0,0,16.31-3.75,33.07,33.07,0,0,0,12.86-11.65l14.79,9.32a42.4,42.4,0,0,1-17.72,17.12A55.5,55.5,0,0,1,2424,5770.35Z" transform="translate(-78.09 -128.47)"/><path class="cls-1" d="M2550.27,5770.35q-17.22,0-30.29-7.1a51,51,0,0,1-20.26-19.45q-7.2-12.35-7.2-28.36t7-28.37a50.47,50.47,0,0,1,19.25-19.35,54.83,54.83,0,0,1,27.66-7q15.6,0,27.55,6.89a48.69,48.69,0,0,1,18.74,19.35q6.79,12.46,6.79,29.08c0,.81,0,1.75-.1,2.83s-.17,2.1-.3,3h-91.38v-14H2589l-7.91,4.86a36,36,0,0,0-4.25-18.43,32.55,32.55,0,0,0-12.26-12.67,38.12,38.12,0,0,0-36.16,0,32.12,32.12,0,0,0-12.36,12.77,38.54,38.54,0,0,0-4.46,18.74v3.24a37,37,0,0,0,5,19.15,34.18,34.18,0,0,0,13.88,13.07,43.62,43.62,0,0,0,20.47,4.66,44.58,44.58,0,0,0,17.32-3.25,37.86,37.86,0,0,0,13.68-9.72l10.73,12.56a47.07,47.07,0,0,1-18.13,13A63.17,63.17,0,0,1,2550.27,5770.35Z" transform="translate(-78.09 -128.47)"/><path class="cls-1" d="M2637.59,5769.13V5661.75h18.64v29.17l-1.82-7.29a33,33,0,0,1,15-17q10.53-5.88,25.94-5.88v18.84a14.77,14.77,0,0,0-2.33-.2h-2.13q-15.6,0-24.72,9.32t-9.12,27v53.49Z" transform="translate(-78.09 -128.47)"/><path class="cls-1" d="M2719.45,5677.75v-16h68.48v16Zm52.27,92.6q-16.21,0-25.12-8.72t-8.92-24.92v-98.47h19.45v97.66q0,8.72,4.36,13.37t12.46,4.66q9.12,0,15.19-5.06l6.08,14a28.17,28.17,0,0,1-10.63,5.67A45.14,45.14,0,0,1,2771.72,5770.35Z" transform="translate(-78.09 -128.47)"/><path class="cls-1" d="M2872.21,5770.35a57.64,57.64,0,0,1-28.67-7.1,52.25,52.25,0,0,1-19.95-19.55,54.81,54.81,0,0,1-7.3-28.26q0-16,7.3-28.27a53.05,53.05,0,0,1,19.85-19.35q12.57-7.08,28.77-7.09a58.32,58.32,0,0,1,28.67,7,51.17,51.17,0,0,1,19.86,19.35q7.19,12.36,7.19,28.37t-7.19,28.36a51.84,51.84,0,0,1-19.86,19.45A57.64,57.64,0,0,1,2872.21,5770.35Zm0-17a36.94,36.94,0,0,0,18.54-4.66,33,33,0,0,0,12.87-13.27,41.41,41.41,0,0,0,4.66-20q0-11.55-4.66-20a33.35,33.35,0,0,0-12.87-13.07,36.94,36.94,0,0,0-18.54-4.66,36.37,36.37,0,0,0-18.43,4.66,34.92,34.92,0,0,0-13,13.07q-4.86,8.42-4.86,20a40,40,0,0,0,4.86,20,34.48,34.48,0,0,0,13,13.27A36.37,36.37,0,0,0,2872.21,5753.33Z" transform="translate(-78.09 -128.47)"/><path class="cls-1" d="M3089,5660.73a50.77,50.77,0,0,1,23.2,5.07,36.38,36.38,0,0,1,15.7,15.4q5.67,10.32,5.67,26.13v61.8h-19.45v-59.57q0-15.6-7.6-23.5t-21.37-7.9a38.25,38.25,0,0,0-18,4.05,27.79,27.79,0,0,0-11.85,11.95q-4.16,7.91-4.15,19.66v55.31h-19.45V5661.75h18.64v29l-3-7.7a37.29,37.29,0,0,1,16.21-16.41Q3074.42,5660.73,3089,5660.73Z" transform="translate(-78.09 -128.47)"/><path class="cls-1" d="M3228.61,5770.35q-17.24,0-30.29-7.1a51,51,0,0,1-20.27-19.45q-7.18-12.35-7.19-28.36t7-28.37a50.47,50.47,0,0,1,19.25-19.35,54.83,54.83,0,0,1,27.66-7q15.6,0,27.55,6.89a48.69,48.69,0,0,1,18.74,19.35q6.79,12.46,6.79,29.08c0,.81,0,1.75-.1,2.83s-.17,2.1-.3,3h-91.38v-14h81.24l-7.9,4.86a36,36,0,0,0-4.25-18.43,32.55,32.55,0,0,0-12.26-12.67,38.14,38.14,0,0,0-36.17,0,32.19,32.19,0,0,0-12.36,12.77,38.65,38.65,0,0,0-4.45,18.74v3.24a37,37,0,0,0,5,19.15,34.12,34.12,0,0,0,13.88,13.07,43.58,43.58,0,0,0,20.46,4.66,44.59,44.59,0,0,0,17.33-3.25,37.83,37.83,0,0,0,13.67-9.72l10.74,12.56a47.07,47.07,0,0,1-18.13,13A63.17,63.17,0,0,1,3228.61,5770.35Z" transform="translate(-78.09 -128.47)"/><path class="cls-1" d="M3450.26,5660.73a49.67,49.67,0,0,1,22.9,5.07,36,36,0,0,1,15.5,15.4q5.57,10.32,5.57,26.13v61.8h-19.45v-59.57q0-15.6-7.3-23.5t-20.46-7.9a34.5,34.5,0,0,0-17,4.05,27.18,27.18,0,0,0-11.24,11.95q-4,7.91-4,19.66v55.31h-19.45v-59.57q0-15.6-7.2-23.5t-20.56-7.9a34.07,34.07,0,0,0-16.82,4.05,27.81,27.81,0,0,0-11.35,11.95q-4,7.91-4,19.66v55.31h-19.45V5661.75h18.64v28.56l-3-7.29a36.69,36.69,0,0,1,15.6-16.41q10.54-5.88,24.52-5.88,15.39,0,26.54,7.6t14.59,23l-7.9-3.25a40.37,40.37,0,0,1,17-19.85Q3434.05,5660.73,3450.26,5660.73Z" transform="translate(-78.09 -128.47)"/><path class="cls-1" d="M3652.87,5770.35a57.64,57.64,0,0,1-28.67-7.1,52.25,52.25,0,0,1-19.95-19.55,54.81,54.81,0,0,1-7.3-28.26q0-16,7.3-28.27a53,53,0,0,1,19.85-19.35q12.57-7.08,28.77-7.09a58.32,58.32,0,0,1,28.67,7,51.17,51.17,0,0,1,19.86,19.35q7.18,12.36,7.19,28.37t-7.19,28.36a51.84,51.84,0,0,1-19.86,19.45A57.64,57.64,0,0,1,3652.87,5770.35Zm0-17a36.94,36.94,0,0,0,18.54-4.66,33,33,0,0,0,12.87-13.27,41.41,41.41,0,0,0,4.66-20q0-11.55-4.66-20a33.35,33.35,0,0,0-12.87-13.07,36.94,36.94,0,0,0-18.54-4.66,36.41,36.41,0,0,0-18.44,4.66,35,35,0,0,0-13,13.07q-4.86,8.42-4.86,20a40,40,0,0,0,4.86,20,34.53,34.53,0,0,0,13,13.27A36.41,36.41,0,0,0,3652.87,5753.33Z" transform="translate(-78.09 -128.47)"/><path class="cls-1" d="M723.69,6013.48q-17.22,0-30.29-7.09a51.09,51.09,0,0,1-20.26-19.45q-7.2-12.36-7.2-28.37t7-28.36a50.47,50.47,0,0,1,19.25-19.35,54.83,54.83,0,0,1,27.66-7q15.6,0,27.55,6.88a48.91,48.91,0,0,1,18.75,19.35q6.78,12.46,6.78,29.08c0,.81,0,1.76-.1,2.84s-.17,2.09-.3,3H681.14v-14h81.25l-7.9,4.87a36.18,36.18,0,0,0-4.26-18.44A32.52,32.52,0,0,0,738,5924.84a38.12,38.12,0,0,0-36.16,0,32.1,32.1,0,0,0-12.36,12.76,38.54,38.54,0,0,0-4.46,18.74v3.24a36.91,36.91,0,0,0,5,19.15,34.12,34.12,0,0,0,13.88,13.07,43.5,43.5,0,0,0,20.47,4.66,44.76,44.76,0,0,0,17.32-3.24,37.89,37.89,0,0,0,13.68-9.73L766,5996.05a47,47,0,0,1-18.13,13A63.17,63.17,0,0,1,723.69,6013.48Z" transform="translate(-78.09 -128.47)"/><path class="cls-1" d="M811,6012.26V5904.88h18.64v29.18l-1.82-7.3a33,33,0,0,1,15-17q10.54-5.86,25.94-5.87v18.84a14.77,14.77,0,0,0-2.33-.2H864.3q-15.6,0-24.72,9.32t-9.12,26.94v53.49Z" transform="translate(-78.09 -128.47)"/><path class="cls-1" d="M903.81,6012.26V5904.88h18.64v29.18l-1.82-7.3a33,33,0,0,1,15-17q10.53-5.86,25.93-5.87v18.84a14.77,14.77,0,0,0-2.33-.2H957.1q-15.61,0-24.72,9.32t-9.12,26.94v53.49Z" transform="translate(-78.09 -128.47)"/><path class="cls-1" d="M1020.11,6013.48a50.75,50.75,0,0,1-21-4,32.12,32.12,0,0,1-13.88-11.25,28.44,28.44,0,0,1-4.86-16.31,30.66,30.66,0,0,1,4.15-15.8q4.16-7.09,13.57-11.35t25.43-4.25h34v14h-33.23q-14.58,0-19.65,4.86a15.69,15.69,0,0,0-5.07,11.75,15.09,15.09,0,0,0,6.29,12.66q6.27,4.77,17.42,4.77a36.89,36.89,0,0,0,19.15-4.87,27.65,27.65,0,0,0,11.85-14.18l3.85,13.37a30.28,30.28,0,0,1-13.58,15.1Q1034.9,6013.48,1020.11,6013.48Zm35.25-1.22v-22.69l-1-4.25v-38.7q0-12.36-7.19-19.15t-21.58-6.79a57,57,0,0,0-18.64,3.14,48.2,48.2,0,0,0-15.4,8.41l-8.1-14.59a58.79,58.79,0,0,1,19.95-10.23,83.57,83.57,0,0,1,24.42-3.54q22.08,0,34,10.73t12,32.83v64.83Z" transform="translate(-78.09 -128.47)"/><path class="cls-1" d="M1165.38,6013.48a55.9,55.9,0,0,1-27.86-6.89,50.47,50.47,0,0,1-19.35-19.25q-7.1-12.36-7.09-28.77t7.09-28.67a50.77,50.77,0,0,1,19.35-19.15,55.9,55.9,0,0,1,27.86-6.88,49.67,49.67,0,0,1,24.52,6.07,44.43,44.43,0,0,1,17.52,18.24q6.58,12.15,6.59,30.39t-6.39,30.39a43.76,43.76,0,0,1-17.32,18.34A49.77,49.77,0,0,1,1165.38,6013.48Zm1.62-17a36.46,36.46,0,0,0,18.34-4.66,33.58,33.58,0,0,0,13-13.27,40.51,40.51,0,0,0,4.77-20q0-11.55-4.77-20a33.89,33.89,0,0,0-13-13.06,38.62,38.62,0,0,0-36.78,0,34.87,34.87,0,0,0-13,13.06q-4.87,8.42-4.87,20a39.8,39.8,0,0,0,4.87,20,34.53,34.53,0,0,0,13,13.27A36.28,36.28,0,0,0,1167,5996.46Zm36.67,15.8v-29l1.22-24.92-2-24.92v-71.52h19.45v150.33Z" transform="translate(-78.09 -128.47)"/><path class="cls-1" d="M1316.32,6013.48a57.63,57.63,0,0,1-28.67-7.09,52.39,52.39,0,0,1-20-19.55,54.85,54.85,0,0,1-7.3-28.27q0-16,7.3-28.26a53.05,53.05,0,0,1,19.85-19.35q12.57-7.1,28.77-7.09a58.32,58.32,0,0,1,28.67,7,51.17,51.17,0,0,1,19.86,19.35q7.19,12.36,7.19,28.36t-7.19,28.37a51.91,51.91,0,0,1-19.86,19.45A57.63,57.63,0,0,1,1316.32,6013.48Zm0-17a36.84,36.84,0,0,0,18.54-4.66,33,33,0,0,0,12.87-13.27,41.35,41.35,0,0,0,4.66-20q0-11.55-4.66-20a33.26,33.26,0,0,0-12.87-13.06,36.84,36.84,0,0,0-18.54-4.66,36.24,36.24,0,0,0-18.43,4.66,34.82,34.82,0,0,0-13,13.06q-4.86,8.42-4.86,20a39.9,39.9,0,0,0,4.86,20,34.48,34.48,0,0,0,13,13.27A36.24,36.24,0,0,0,1316.32,5996.46Z" transform="translate(-78.09 -128.47)"/><path d="M1493.17,5934.48a36.38,36.38,0,0,1,16.65,3.64,26.06,26.06,0,0,1,11.27,11.05q4.07,7.41,4.07,18.75v44.34h-14v-42.74q0-11.19-5.45-16.87t-15.34-5.67a27.5,27.5,0,0,0-12.94,2.91,19.9,19.9,0,0,0-8.5,8.58q-3,5.67-3,14.1v39.69h-14v-77.05h13.37V5956l-2.18-5.53a26.81,26.81,0,0,1,11.63-11.77A38.17,38.17,0,0,1,1493.17,5934.48Z" transform="translate(-78.09 -128.47)"/><path d="M1581.57,6013.14a36.37,36.37,0,0,1-15-2.91,23.08,23.08,0,0,1-10-8.07,20.37,20.37,0,0,1-3.49-11.7,22,22,0,0,1,3-11.34q3-5.1,9.74-8.15t18.25-3.05h24.42v10h-23.84q-10.47,0-14.1,3.49a11.25,11.25,0,0,0-3.64,8.43,10.84,10.84,0,0,0,4.51,9.09q4.5,3.42,12.5,3.42a26.48,26.48,0,0,0,13.74-3.49,19.88,19.88,0,0,0,8.51-10.18l2.76,9.6a21.75,21.75,0,0,1-9.74,10.83Q1592.19,6013.13,1581.57,6013.14Zm25.29-.88V5996l-.72-3v-27.77q0-8.86-5.16-13.74t-15.49-4.87a40.8,40.8,0,0,0-13.37,2.25,34.48,34.48,0,0,0-11,6l-5.82-10.47a42,42,0,0,1,14.32-7.34,59.69,59.69,0,0,1,17.52-2.55q15.84,0,24.43,7.71t8.57,23.55v46.52Z" transform="translate(-78.09 -128.47)"/><path d="M1742.22,5934.48a36.31,36.31,0,0,1,16.64,3.64,26,26,0,0,1,11.27,11.05q4.06,7.41,4.07,18.75v44.34h-14v-42.74q0-11.19-5.45-16.87t-15.34-5.67a27.53,27.53,0,0,0-12.94,2.91,19.9,19.9,0,0,0-8.5,8.58q-3,5.67-3,14.1v39.69h-14V5904.39h14V5956l-2.76-5.53a26.76,26.76,0,0,1,11.63-11.77A38.15,38.15,0,0,1,1742.22,5934.48Z" transform="translate(-78.09 -128.47)"/><path d="M1841.08,6013.14a41.36,41.36,0,0,1-20.57-5.09,37.47,37.47,0,0,1-14.32-14,39.38,39.38,0,0,1-5.24-20.28,38.93,38.93,0,0,1,5.24-20.29,38,38,0,0,1,14.24-13.88,41.29,41.29,0,0,1,20.65-5.09,41.8,41.8,0,0,1,20.57,5,36.64,36.64,0,0,1,14.25,13.88,42.73,42.73,0,0,1,0,40.71,37.19,37.19,0,0,1-14.25,14A41.42,41.42,0,0,1,1841.08,6013.14Zm0-12.22a26.43,26.43,0,0,0,13.3-3.34,23.58,23.58,0,0,0,9.23-9.52,29.61,29.61,0,0,0,3.35-14.32,29.07,29.07,0,0,0-3.35-14.32,23.86,23.86,0,0,0-9.23-9.38,26.44,26.44,0,0,0-13.3-3.35,26,26,0,0,0-13.23,3.35,25.1,25.1,0,0,0-9.31,9.38,28.16,28.16,0,0,0-3.49,14.32,28.68,28.68,0,0,0,3.49,14.32,24.78,24.78,0,0,0,9.31,9.52A26,26,0,0,0,1841.08,6000.92Z" transform="translate(-78.09 -128.47)"/><path d="M1908.39,6012.26v-77.05h13.38v20.93l-1.31-5.23a23.61,23.61,0,0,1,10.76-12.21q7.54-4.21,18.61-4.22V5948a11.19,11.19,0,0,0-1.68-.14h-1.52q-11.2,0-17.74,6.69t-6.54,19.33v38.38Z" transform="translate(-78.09 -128.47)"/><path d="M1991.84,6013.14a36.41,36.41,0,0,1-15-2.91,23,23,0,0,1-10-8.07,20.37,20.37,0,0,1-3.49-11.7,22,22,0,0,1,3-11.34q3-5.1,9.74-8.15t18.24-3.05h24.43v10h-23.85c-7,0-11.68,1.17-14.1,3.49a11.28,11.28,0,0,0-3.63,8.43,10.85,10.85,0,0,0,4.5,9.09q4.52,3.42,12.51,3.42a26.53,26.53,0,0,0,13.74-3.49,19.86,19.86,0,0,0,8.5-10.18l2.76,9.6a21.7,21.7,0,0,1-9.74,10.83Q2002.46,6013.13,1991.84,6013.14Zm25.3-.88V5996l-.73-3v-27.77q0-8.86-5.16-13.74t-15.48-4.87a40.86,40.86,0,0,0-13.38,2.25,34.69,34.69,0,0,0-11.05,6l-5.81-10.47a41.87,41.87,0,0,1,14.32-7.34,59.69,59.69,0,0,1,17.52-2.55q15.84,0,24.42,7.71t8.58,23.55v46.52Z" transform="translate(-78.09 -128.47)"/><path d="M2143.19,6013.14a40,40,0,0,1-20-5,36.13,36.13,0,0,1-13.89-13.81,44.27,44.27,0,0,1,0-41.22,36.27,36.27,0,0,1,13.89-13.73,40,40,0,0,1,20-5,35.71,35.71,0,0,1,17.59,4.36,31.86,31.86,0,0,1,12.57,13.09q4.72,8.71,4.73,21.81t-4.58,21.8a31.37,31.37,0,0,1-12.43,13.16A35.69,35.69,0,0,1,2143.19,6013.14Zm1.16-12.22a26.17,26.17,0,0,0,13.16-3.34,24.14,24.14,0,0,0,9.3-9.52,29.08,29.08,0,0,0,3.42-14.32,28.55,28.55,0,0,0-3.42-14.32,24.44,24.44,0,0,0-9.3-9.38,27.66,27.66,0,0,0-26.39,0,25,25,0,0,0-9.3,9.38,28.06,28.06,0,0,0-3.49,14.32,28.58,28.58,0,0,0,3.49,14.32,24.68,24.68,0,0,0,9.3,9.52A26.07,26.07,0,0,0,2144.35,6000.92Zm26.31,11.34v-20.79l.88-17.88-1.46-17.88v-51.32h14v107.87Z" transform="translate(-78.09 -128.47)"/><path d="M2252.81,6013.14a44.9,44.9,0,0,1-21.74-5.09,36.68,36.68,0,0,1-14.54-14,39.72,39.72,0,0,1-5.16-20.35,40.6,40.6,0,0,1,5-20.36,36.11,36.11,0,0,1,13.81-13.88,39.27,39.27,0,0,1,19.84-5,38.86,38.86,0,0,1,19.78,5,34.94,34.94,0,0,1,13.44,13.88,42.92,42.92,0,0,1,4.87,20.86c0,.58,0,1.26-.07,2s-.12,1.5-.22,2.18h-65.56v-10h58.29l-5.67,3.49a25.87,25.87,0,0,0-3.05-13.23,23.29,23.29,0,0,0-8.79-9.09,27.4,27.4,0,0,0-26,0,23,23,0,0,0-8.86,9.16,27.63,27.63,0,0,0-3.2,13.45v2.32a26.45,26.45,0,0,0,3.56,13.74,24.37,24.37,0,0,0,10,9.38,31.21,31.21,0,0,0,14.68,3.34,32.08,32.08,0,0,0,12.43-2.32,27.35,27.35,0,0,0,9.82-7l7.7,9a33.79,33.79,0,0,1-13,9.31A45.36,45.36,0,0,1,2252.81,6013.14Z" transform="translate(-78.09 -128.47)"/><path d="M2384.67,6013.14a62.86,62.86,0,0,1-18.25-2.62q-8.64-2.62-13.59-6.4l5.82-11.05a47.48,47.48,0,0,0,12.21,5.67,48.38,48.38,0,0,0,14.83,2.33q9.73,0,14-2.76a8.71,8.71,0,0,0,4.29-7.71,6.8,6.8,0,0,0-2.62-5.67,17.87,17.87,0,0,0-6.91-3.05q-4.29-1-9.52-1.82t-10.47-2a41.41,41.41,0,0,1-9.59-3.48,18.12,18.12,0,0,1-7-6.26q-2.62-4-2.62-10.68a19.78,19.78,0,0,1,3.93-12.21,24.81,24.81,0,0,1,11.12-8.07,46.53,46.53,0,0,1,17.08-2.84,67.4,67.4,0,0,1,15.34,1.82,38.13,38.13,0,0,1,12.72,5.16l-6,11.05a32.8,32.8,0,0,0-10.9-4.8,50.42,50.42,0,0,0-11.34-1.31q-9.16,0-13.67,3t-4.51,7.64a7.22,7.22,0,0,0,2.69,6,19.35,19.35,0,0,0,7,3.27,85,85,0,0,0,9.52,2q5.23.81,10.47,2a42,42,0,0,1,9.52,3.42,18.45,18.45,0,0,1,7,6.1q2.7,3.93,2.69,10.47a18.76,18.76,0,0,1-4.07,12.07,26.32,26.32,0,0,1-11.48,7.92A49.74,49.74,0,0,1,2384.67,6013.14Z" transform="translate(-78.09 -128.47)"/><path d="M2477.72,6013.14a44.9,44.9,0,0,1-21.74-5.09,36.68,36.68,0,0,1-14.54-14,39.72,39.72,0,0,1-5.16-20.35,40.6,40.6,0,0,1,5-20.36,36.11,36.11,0,0,1,13.81-13.88,39.27,39.27,0,0,1,19.84-5,38.86,38.86,0,0,1,19.78,5,34.94,34.94,0,0,1,13.44,13.88,42.92,42.92,0,0,1,4.87,20.86c0,.58,0,1.26-.07,2s-.12,1.5-.22,2.18h-65.57v-10h58.3l-5.67,3.49a25.87,25.87,0,0,0-3-13.23,23.32,23.32,0,0,0-8.8-9.09,27.38,27.38,0,0,0-25.95,0,23,23,0,0,0-8.86,9.16,27.63,27.63,0,0,0-3.2,13.45v2.32a26.45,26.45,0,0,0,3.56,13.74,24.37,24.37,0,0,0,10,9.38,31.21,31.21,0,0,0,14.68,3.34,32.08,32.08,0,0,0,12.43-2.32,27.35,27.35,0,0,0,9.82-7l7.7,9a33.79,33.79,0,0,1-13,9.31A45.36,45.36,0,0,1,2477.72,6013.14Z" transform="translate(-78.09 -128.47)"/><path d="M2607.69,6012.26,2574,5935.21h14.54l29.95,69.78h-7l30.53-69.78h13.67l-33.73,77.05Z" transform="translate(-78.09 -128.47)"/><path d="M2708.88,6013.14a44.9,44.9,0,0,1-21.74-5.09,36.68,36.68,0,0,1-14.54-14,39.72,39.72,0,0,1-5.16-20.35,40.6,40.6,0,0,1,5-20.36,36.11,36.11,0,0,1,13.81-13.88,39.27,39.27,0,0,1,19.84-5,38.86,38.86,0,0,1,19.78,5,34.94,34.94,0,0,1,13.44,13.88,42.92,42.92,0,0,1,4.87,20.86c0,.58,0,1.26-.07,2s-.12,1.5-.22,2.18h-65.56v-10h58.29l-5.67,3.49a25.87,25.87,0,0,0-3-13.23,23.29,23.29,0,0,0-8.79-9.09,27.4,27.4,0,0,0-26,0,23,23,0,0,0-8.86,9.16,27.63,27.63,0,0,0-3.2,13.45v2.32a26.45,26.45,0,0,0,3.56,13.74,24.37,24.37,0,0,0,10,9.38,31.21,31.21,0,0,0,14.68,3.34,32.08,32.08,0,0,0,12.43-2.32,27.35,27.35,0,0,0,9.82-7l7.7,9a33.79,33.79,0,0,1-13,9.31A45.36,45.36,0,0,1,2708.88,6013.14Z" transform="translate(-78.09 -128.47)"/><path d="M2793.64,6013.14a62.86,62.86,0,0,1-18.25-2.62q-8.66-2.62-13.59-6.4l5.81-11.05a47.8,47.8,0,0,0,12.21,5.67,48.42,48.42,0,0,0,14.83,2.33q9.75,0,14-2.76a8.69,8.69,0,0,0,4.29-7.71,6.79,6.79,0,0,0-2.61-5.67,17.87,17.87,0,0,0-6.91-3.05q-4.29-1-9.52-1.82t-10.47-2a41.66,41.66,0,0,1-9.6-3.48,18.27,18.27,0,0,1-7-6.26q-2.61-4-2.61-10.68a19.83,19.83,0,0,1,3.92-12.21,24.9,24.9,0,0,1,11.13-8.07,46.49,46.49,0,0,1,17.08-2.84,67.4,67.4,0,0,1,15.34,1.82,38.13,38.13,0,0,1,12.72,5.16l-6,11.05a32.85,32.85,0,0,0-10.91-4.8,50.42,50.42,0,0,0-11.34-1.31q-9.15,0-13.66,3t-4.51,7.64a7.19,7.19,0,0,0,2.69,6,19.27,19.27,0,0,0,7,3.27,84.58,84.58,0,0,0,9.52,2q5.24.81,10.47,2a42,42,0,0,1,9.52,3.42,18.53,18.53,0,0,1,7,6.1q2.69,3.93,2.69,10.47a18.76,18.76,0,0,1-4.07,12.07,26.36,26.36,0,0,1-11.49,7.92A49.64,49.64,0,0,1,2793.64,6013.14Z" transform="translate(-78.09 -128.47)"/><path d="M2841.32,5946.69v-11.48h49.14v11.48Zm37.51,66.45q-11.64,0-18-6.26t-6.39-17.88v-70.66h14v70.08q0,6.26,3.13,9.6t8.94,3.34a16.45,16.45,0,0,0,10.9-3.63l4.36,10a20.36,20.36,0,0,1-7.63,4.07A32.53,32.53,0,0,1,2878.83,6013.14Z" transform="translate(-78.09 -128.47)"/><path d="M2927.53,5920.38a9.28,9.28,0,0,1-6.76-2.62,8.57,8.57,0,0,1-2.69-6.39,8.79,8.79,0,0,1,2.69-6.55,9.32,9.32,0,0,1,6.76-2.61,9.47,9.47,0,0,1,6.76,2.54,8.34,8.34,0,0,1,2.69,6.32,9.07,9.07,0,0,1-9.45,9.31Zm-7,91.88v-77.05h14v77.05Z" transform="translate(-78.09 -128.47)"/><path d="M2969.11,6012.26v-77.05h13.38v20.93l-1.31-5.23a23.66,23.66,0,0,1,10.76-12.21q7.56-4.21,18.61-4.22V5948a11.08,11.08,0,0,0-1.68-.14h-1.52q-11.2,0-17.74,6.69t-6.54,19.33v38.38Z" transform="translate(-78.09 -128.47)"/><path d="M3038.6,6013.14a9.82,9.82,0,0,1-9.88-10,9.38,9.38,0,0,1,2.91-7.12,9.75,9.75,0,0,1,7-2.76,9.37,9.37,0,0,1,6.77,2.76,9.54,9.54,0,0,1,2.83,7.12,9.79,9.79,0,0,1-2.83,7.2A9.25,9.25,0,0,1,3038.6,6013.14Zm33.73,0a9.82,9.82,0,0,1-9.88-10,9.38,9.38,0,0,1,2.91-7.12,9.75,9.75,0,0,1,7-2.76,9.35,9.35,0,0,1,6.76,2.76,9.51,9.51,0,0,1,2.84,7.12,9.76,9.76,0,0,1-2.84,7.2A9.23,9.23,0,0,1,3072.33,6013.14Zm33.73,0a9.82,9.82,0,0,1-9.88-10,9.38,9.38,0,0,1,2.91-7.12,9.75,9.75,0,0,1,7-2.76,9.35,9.35,0,0,1,6.76,2.76,9.51,9.51,0,0,1,2.84,7.12,9.76,9.76,0,0,1-2.84,7.2A9.23,9.23,0,0,1,3106.06,6013.14Z" transform="translate(-78.09 -128.47)"/></g></g></g></svg>