<svg xmlns="http://www.w3.org/2000/svg" viewBox="0 0 2334.55 613.03"><defs><style>.cls-1{fill:#b43176;}.cls-2{fill:#fff;}</style></defs><title>7_1</title><g id="Camada_2" data-name="Camada 2"><g id="Camada_1-2" data-name="Camada 1"><rect class="cls-1" x="1425.07" width="688.15" height="159"/><rect class="cls-1" y="454.02" width="1950.12" height="159"/><rect class="cls-1" x="503.86" y="298.39" width="1830.69" height="159"/><path class="cls-2" d="M73.09,124.59a46.42,46.42,0,0,1-17.17-3.12,41,41,0,0,1-13.7-8.73,40.14,40.14,0,0,1-9-13.12A41,41,0,0,1,30,83.2,41.09,41.09,0,0,1,33.2,66.78a40.25,40.25,0,0,1,9-13.12,41.11,41.11,0,0,1,13.64-8.73,46.32,46.32,0,0,1,17.23-3.12A46.54,46.54,0,0,1,90.2,44.88a40.34,40.34,0,0,1,13.64,8.67,39.32,39.32,0,0,1,9,13.18A42.12,42.12,0,0,1,116,83.2a42,42,0,0,1-3.18,16.54,39.48,39.48,0,0,1-9,13.12,40.34,40.34,0,0,1-13.64,8.67A46.75,46.75,0,0,1,73.09,124.59Zm0-10.29A32.92,32.92,0,0,0,85.52,112a29.58,29.58,0,0,0,9.94-6.53,30.44,30.44,0,0,0,6.59-9.89,31.71,31.71,0,0,0,2.37-12.37,30.92,30.92,0,0,0-9-22.2,29.28,29.28,0,0,0-9.94-6.59,34.92,34.92,0,0,0-25,0,29.93,29.93,0,0,0-10,6.59,30.91,30.91,0,0,0-6.64,9.89A31.3,31.3,0,0,0,41.53,83.2,31.71,31.71,0,0,0,43.9,95.57,29.94,29.94,0,0,0,60.54,112,33.25,33.25,0,0,0,73.09,114.3Z"/><path class="cls-2" d="M201.19,124.36a31.87,31.87,0,0,1-15.89-3.93,28.78,28.78,0,0,1-11.05-11,32.5,32.5,0,0,1-4-16.42,32.17,32.17,0,0,1,4-16.36A29,29,0,0,1,185.3,65.74a31.87,31.87,0,0,1,15.89-3.93,28.8,28.8,0,0,1,14.22,3.47,24.56,24.56,0,0,1,9.89,10.41q3.64,6.93,3.64,17.34t-3.76,17.34a25.68,25.68,0,0,1-10,10.47A27.93,27.93,0,0,1,201.19,124.36Zm.93-9.71A20.73,20.73,0,0,0,212.58,112a19.19,19.19,0,0,0,7.4-7.57A23.18,23.18,0,0,0,222.7,93,22.77,22.77,0,0,0,220,81.64a19.43,19.43,0,0,0-7.4-7.46,22,22,0,0,0-21,0,19.92,19.92,0,0,0-7.4,7.46A22.38,22.38,0,0,0,181.42,93a22.77,22.77,0,0,0,2.78,11.39,19.66,19.66,0,0,0,7.4,7.57A20.64,20.64,0,0,0,202.12,114.65Zm20.46,31.45V107.37l1.16-14.22L223,78.92V62.39h10.64V146.1Z"/><path class="cls-2" d="M286.86,124.36a31.22,31.22,0,0,1-13.81-2.89,20.68,20.68,0,0,1-9.25-8.84q-3.3-6-3.3-15V62.39h11.1v34c0,6,1.45,10.52,4.34,13.53s6.95,4.51,12.2,4.51a20.4,20.4,0,0,0,10.05-2.37,16,16,0,0,0,6.6-6.94,24.21,24.21,0,0,0,2.31-11V62.39h11.1v61.28H307.68V107.14l1.73,4.39a21.51,21.51,0,0,1-9,9.48A27.26,27.26,0,0,1,286.86,124.36Z"/><path class="cls-2" d="M373,124.36a35.78,35.78,0,0,1-17.29-4,29.22,29.22,0,0,1-11.56-11.1A31.55,31.55,0,0,1,340.05,93a32.33,32.33,0,0,1,4-16.19,28.69,28.69,0,0,1,11-11,31.26,31.26,0,0,1,15.78-4,31,31,0,0,1,15.73,3.93,27.94,27.94,0,0,1,10.69,11.05,34.17,34.17,0,0,1,3.87,16.59c0,.46,0,1,0,1.62s-.1,1.19-.18,1.73H348.72v-8h46.36l-4.51,2.78A20.52,20.52,0,0,0,388.14,81a18.42,18.42,0,0,0-7-7.23,21.78,21.78,0,0,0-20.64,0,18.3,18.3,0,0,0-7.05,7.28,22,22,0,0,0-2.55,10.7v1.85a21,21,0,0,0,2.84,10.92,19.39,19.39,0,0,0,7.92,7.46,24.73,24.73,0,0,0,11.67,2.66,25.59,25.59,0,0,0,9.89-1.85,21.49,21.49,0,0,0,7.8-5.55l6.13,7.17a26.78,26.78,0,0,1-10.35,7.4A35.92,35.92,0,0,1,373,124.36Z"/><path class="cls-2" d="M485.61,124.36a31.88,31.88,0,0,1-15.9-3.93,28.82,28.82,0,0,1-11-11A32.4,32.4,0,0,1,454.62,93a32.07,32.07,0,0,1,4.05-16.36,29,29,0,0,1,11-10.93,31.88,31.88,0,0,1,15.9-3.93,28.35,28.35,0,0,1,14,3.47,25.34,25.34,0,0,1,10,10.41q3.75,6.93,3.76,17.34t-3.64,17.34a25,25,0,0,1-9.89,10.47A28.4,28.4,0,0,1,485.61,124.36Zm.92-9.71A20.74,20.74,0,0,0,497,112a19.25,19.25,0,0,0,7.4-7.57A23.17,23.17,0,0,0,507.11,93a22.77,22.77,0,0,0-2.71-11.39,19.5,19.5,0,0,0-7.4-7.46,22,22,0,0,0-21,0,20,20,0,0,0-7.4,7.46A22.38,22.38,0,0,0,465.84,93a22.77,22.77,0,0,0,2.77,11.39A19.73,19.73,0,0,0,476,112,20.64,20.64,0,0,0,486.53,114.65Zm20.93,9V107.14l.69-14.23L507,78.69V37.88h11.1v85.79Z"/><path class="cls-2" d="M572.78,124.36a35.74,35.74,0,0,1-17.28-4,29.15,29.15,0,0,1-11.56-11.1A31.56,31.56,0,0,1,539.83,93a32.33,32.33,0,0,1,4-16.19,28.83,28.83,0,0,1,11-11,31.32,31.32,0,0,1,15.79-4,30.93,30.93,0,0,1,15.72,3.93A28,28,0,0,1,597,76.79a34.17,34.17,0,0,1,3.87,16.59q0,.69-.06,1.62c0,.61-.1,1.19-.17,1.73H548.5v-8h46.37l-4.51,2.78A20.73,20.73,0,0,0,587.93,81a18.51,18.51,0,0,0-7-7.23,21.76,21.76,0,0,0-20.63,0,18.32,18.32,0,0,0-7.06,7.28,22.15,22.15,0,0,0-2.54,10.7v1.85a21,21,0,0,0,2.83,10.92,19.45,19.45,0,0,0,7.92,7.46,24.77,24.77,0,0,0,11.68,2.66A25.63,25.63,0,0,0,583,112.8a21.66,21.66,0,0,0,7.8-5.55l6.13,7.17a26.93,26.93,0,0,1-10.35,7.4A35.93,35.93,0,0,1,572.78,124.36Z"/><path class="cls-2" d="M637.53,123.67,610.71,62.39h11.56l23.82,55.5h-5.55l24.28-55.5h10.86l-26.82,61.28Z"/><path class="cls-2" d="M718,124.36a35.81,35.81,0,0,1-17.29-4,29.22,29.22,0,0,1-11.56-11.1A31.65,31.65,0,0,1,685.05,93a32.33,32.33,0,0,1,4-16.19,28.83,28.83,0,0,1,11-11,31.26,31.26,0,0,1,15.78-4,31,31,0,0,1,15.73,3.93,27.94,27.94,0,0,1,10.69,11.05,34.17,34.17,0,0,1,3.87,16.59c0,.46,0,1-.05,1.62s-.1,1.19-.18,1.73H693.72v-8h46.36l-4.51,2.78A20.52,20.52,0,0,0,733.14,81a18.42,18.42,0,0,0-7-7.23,21.78,21.78,0,0,0-20.64,0,18.3,18.3,0,0,0-7,7.28,22,22,0,0,0-2.54,10.7v1.85a21,21,0,0,0,2.83,10.92,19.45,19.45,0,0,0,7.92,7.46,24.74,24.74,0,0,0,11.68,2.66,25.57,25.57,0,0,0,9.88-1.85,21.61,21.61,0,0,0,7.81-5.55l6.12,7.17a26.82,26.82,0,0,1-10.34,7.4A36,36,0,0,1,718,124.36Z"/><path class="cls-2" d="M832.58,124.36a35.76,35.76,0,0,1-17.29-4,29.15,29.15,0,0,1-11.56-11.1A31.56,31.56,0,0,1,799.62,93a32.33,32.33,0,0,1,4-16.19,28.78,28.78,0,0,1,11-11,31.26,31.26,0,0,1,15.78-4,30.93,30.93,0,0,1,15.72,3.93,28,28,0,0,1,10.7,11.05,34.17,34.17,0,0,1,3.87,16.59q0,.69-.06,1.62c0,.61-.1,1.19-.17,1.73H808.3v-8h46.36l-4.51,2.78A20.62,20.62,0,0,0,847.72,81a18.56,18.56,0,0,0-7-7.23,21.78,21.78,0,0,0-20.64,0A18.23,18.23,0,0,0,813,81.06a22,22,0,0,0-2.55,10.7v1.85a21.13,21.13,0,0,0,2.83,10.92,19.45,19.45,0,0,0,7.92,7.46,24.8,24.8,0,0,0,11.68,2.66,25.63,25.63,0,0,0,9.89-1.85,21.58,21.58,0,0,0,7.8-5.55l6.13,7.17a26.93,26.93,0,0,1-10.35,7.4A35.92,35.92,0,0,1,832.58,124.36Z"/><path class="cls-2" d="M871.77,123.67l26.36-34.22L898,95.11,872.93,62.39H885.3L904.49,87.6h-4.74l19.19-25.21h12.14l-25.43,33,.11-5.89,26.59,34.22h-12.6L899.52,96.85l4.51.69-19.89,26.13Z"/><path class="cls-2" d="M956.4,50.6A7.44,7.44,0,0,1,951,48.52a6.85,6.85,0,0,1-2.14-5.09,7,7,0,0,1,2.14-5.2,7.4,7.4,0,0,1,5.38-2.08,7.52,7.52,0,0,1,5.38,2,6.66,6.66,0,0,1,2.14,5,7.23,7.23,0,0,1-7.52,7.4Zm-5.55,73.07V62.39H962v61.28Z"/><path class="cls-2" d="M1007,124.36a49.71,49.71,0,0,1-14.51-2.08,34,34,0,0,1-10.81-5.09l4.62-8.78a40.76,40.76,0,0,0,21.51,6.36q7.74,0,11.16-2.2a6.92,6.92,0,0,0,3.41-6.13,5.42,5.42,0,0,0-2.08-4.51,14.2,14.2,0,0,0-5.5-2.43c-2.27-.53-4.79-1-7.57-1.44s-5.55-1-8.32-1.62a33,33,0,0,1-7.63-2.77,14.29,14.29,0,0,1-5.55-5,15.29,15.29,0,0,1-2.09-8.49,15.79,15.79,0,0,1,3.13-9.72,19.79,19.79,0,0,1,8.84-6.41,37.08,37.08,0,0,1,13.59-2.26,53.66,53.66,0,0,1,12.19,1.45,30.24,30.24,0,0,1,10.12,4.1l-4.74,8.79a26.24,26.24,0,0,0-8.67-3.82,40.22,40.22,0,0,0-9-1c-4.86,0-8.48.8-10.87,2.37a7.06,7.06,0,0,0-3.58,6.07,5.71,5.71,0,0,0,2.14,4.8,15.23,15.23,0,0,0,5.55,2.6,67,67,0,0,0,7.57,1.56c2.77.43,5.55,1,8.32,1.62a33.9,33.9,0,0,1,7.58,2.72,14.71,14.71,0,0,1,5.55,4.86,14.51,14.51,0,0,1,2.14,8.32,14.9,14.9,0,0,1-3.24,9.6,20.9,20.9,0,0,1-9.13,6.3A39.66,39.66,0,0,1,1007,124.36Z"/><path class="cls-2" d="M1045,71.52V62.39H1084v9.13Zm29.83,52.84q-9.26,0-14.34-5t-5.08-14.22V49h11.1v55.73c0,3.31.82,5.86,2.48,7.63s4,2.66,7.11,2.66a13.11,13.11,0,0,0,8.67-2.89l3.47,8a16,16,0,0,1-6.07,3.24A25.59,25.59,0,0,1,1074.79,124.36Z"/><path class="cls-2" d="M1113.52,50.6a7.44,7.44,0,0,1-5.38-2.08,6.84,6.84,0,0,1-2.13-5.09,7,7,0,0,1,2.13-5.2,7.4,7.4,0,0,1,5.38-2.08,7.52,7.52,0,0,1,5.38,2,6.66,6.66,0,0,1,2.14,5,7.23,7.23,0,0,1-7.52,7.4ZM1108,123.67V62.39h11.1v61.28Z"/><path class="cls-2" d="M1146.59,123.67V62.39h10.63V79l-1-4.16a18.81,18.81,0,0,1,8.56-9.71q6-3.36,14.8-3.36V72.57a7.91,7.91,0,0,0-1.33-.12H1177q-8.9,0-14.1,5.32t-5.2,15.38v30.52Z"/><path class="cls-2" d="M1265.09,124.36a35.74,35.74,0,0,1-17.28-4,29.15,29.15,0,0,1-11.56-11.1A31.56,31.56,0,0,1,1232.14,93a32.33,32.33,0,0,1,4-16.19,28.83,28.83,0,0,1,11-11,31.32,31.32,0,0,1,15.79-4,30.93,30.93,0,0,1,15.72,3.93,27.87,27.87,0,0,1,10.69,11.05,34.06,34.06,0,0,1,3.88,16.59q0,.69-.06,1.62c0,.61-.1,1.19-.17,1.73h-52.15v-8h46.37l-4.51,2.78A20.73,20.73,0,0,0,1280.24,81a18.51,18.51,0,0,0-7-7.23,21.76,21.76,0,0,0-20.63,0,18.32,18.32,0,0,0-7.06,7.28,22.15,22.15,0,0,0-2.54,10.7v1.85a21,21,0,0,0,2.83,10.92,19.45,19.45,0,0,0,7.92,7.46,24.77,24.77,0,0,0,11.68,2.66,25.54,25.54,0,0,0,9.88-1.85,21.61,21.61,0,0,0,7.81-5.55l6.13,7.17a26.93,26.93,0,0,1-10.35,7.4A36,36,0,0,1,1265.09,124.36Zm-11-70.87,15.72-15h14.11l-19.43,15Z"/><path class="cls-2" d="M1378.63,124.36a33,33,0,0,1-16.36-4,29.85,29.85,0,0,1-11.39-11.16A31.29,31.29,0,0,1,1346.72,93a30.9,30.9,0,0,1,4.16-16.13,30.25,30.25,0,0,1,11.33-11,32.8,32.8,0,0,1,16.42-4,33.28,33.28,0,0,1,16.36,4,29.25,29.25,0,0,1,11.33,11,31.68,31.68,0,0,1,4.1,16.19,31.65,31.65,0,0,1-4.1,16.19,29.68,29.68,0,0,1-11.33,11.1A33,33,0,0,1,1378.63,124.36Zm0-9.71a21,21,0,0,0,10.58-2.66,18.85,18.85,0,0,0,7.34-7.57A23.6,23.6,0,0,0,1399.21,93a23.19,23.19,0,0,0-2.66-11.39,19.08,19.08,0,0,0-7.34-7.46,21.07,21.07,0,0,0-10.58-2.66,20.74,20.74,0,0,0-10.52,2.66,19.92,19.92,0,0,0-7.4,7.46A22.38,22.38,0,0,0,1357.93,93a22.77,22.77,0,0,0,2.78,11.39,19.66,19.66,0,0,0,7.4,7.57A20.64,20.64,0,0,0,1378.63,114.65Z"/><path class="cls-2" d="M1471.17,123.67V43.19h31.39q10.57,0,18,3.33a25.58,25.58,0,0,1,11.5,9.66,27.45,27.45,0,0,1,4,15.06,27.15,27.15,0,0,1-4,15,25.71,25.71,0,0,1-11.5,9.6q-7.47,3.34-18,3.34h-25.07l5.18-5.29v29.78ZM1482.67,95l-5.18-5.63h24.72q11,0,16.73-4.78t5.69-13.39q0-8.62-5.69-13.34t-16.73-4.71h-24.72l5.18-5.75ZM1525,123.67l-20.47-29.21h12.31l20.69,29.21Z"/><path class="cls-2" d="M1572.58,113.67h46.91v10h-58.41V43.19h56.8v10h-45.3Zm-1-35.76h41.39v9.77h-41.39Z"/><path class="cls-2" d="M1667.89,124.59a54.88,54.88,0,0,1-17.59-2.82q-8.38-2.82-13.22-7.3l4.25-9a37.23,37.23,0,0,0,11.73,6.67,42.15,42.15,0,0,0,14.83,2.65,33.66,33.66,0,0,0,11.39-1.61,13.52,13.52,0,0,0,6.43-4.43,10.52,10.52,0,0,0,2.07-6.38,8.72,8.72,0,0,0-2.7-6.67,19.93,19.93,0,0,0-7-4.08,76.28,76.28,0,0,0-9.49-2.7q-5.17-1.15-10.4-2.71a46.42,46.42,0,0,1-9.55-4,19.53,19.53,0,0,1-7-6.5Q1639,71.7,1639,65.26a21.18,21.18,0,0,1,3.28-11.44,22.79,22.79,0,0,1,10.12-8.39q6.84-3.16,17.42-3.16a53.65,53.65,0,0,1,13.91,1.84,38.7,38.7,0,0,1,12,5.28l-3.8,9.2a37.12,37.12,0,0,0-10.92-5A42.89,42.89,0,0,0,1669.85,52a30.75,30.75,0,0,0-11.16,1.72,13.64,13.64,0,0,0-6.38,4.6,11,11,0,0,0-2,6.44,8.83,8.83,0,0,0,2.7,6.78,19.38,19.38,0,0,0,7,4,92.14,92.14,0,0,0,9.48,2.7c3.45.8,6.92,1.71,10.41,2.7a44.44,44.44,0,0,1,9.54,3.91,19.76,19.76,0,0,1,7,6.44,18.53,18.53,0,0,1,2.64,10.35,20.67,20.67,0,0,1-3.33,11.32,23.15,23.15,0,0,1-10.29,8.4Q1678.47,124.6,1667.89,124.59Z"/><path class="cls-2" d="M1722.16,123.67V43.19h31.39q10.58,0,18,3.33a25.58,25.58,0,0,1,11.5,9.66,27.45,27.45,0,0,1,4,15.06,27.15,27.15,0,0,1-4,15,26.08,26.08,0,0,1-11.5,9.66q-7.47,3.39-18,3.39h-25.07l5.18-5.4v29.78ZM1733.66,95l-5.18-5.75h24.72q11,0,16.73-4.71t5.69-13.34q0-8.62-5.69-13.34t-16.73-4.71h-24.72l5.18-5.75Z"/><path class="cls-2" d="M1821.84,113.67h46.91v10h-58.4V43.19h56.79v10h-45.3Zm-1-35.76h41.39v9.77h-41.39Z"/><path class="cls-2" d="M1893.7,123.67V43.19h11.5v80.48Z"/><path class="cls-2" d="M1951.65,123.67V53.19h-27.59v-10h66.57v10H1963v70.48Z"/><path class="cls-2" d="M2044.67,124.59a46.14,46.14,0,0,1-17.08-3.11A40.75,40.75,0,0,1,2014,112.8a40,40,0,0,1-9-13,40.73,40.73,0,0,1-3.22-16.32A40.75,40.75,0,0,1,2005,67.1a40.23,40.23,0,0,1,9-13,40.83,40.83,0,0,1,13.57-8.68,46,46,0,0,1,17.13-3.1,46.45,46.45,0,0,1,17,3,40.09,40.09,0,0,1,13.57,8.63,39.16,39.16,0,0,1,8.91,13.1,41.86,41.86,0,0,1,3.16,16.39,41.72,41.72,0,0,1-3.16,16.44,39.46,39.46,0,0,1-8.91,13,40.07,40.07,0,0,1-13.57,8.62A46.46,46.46,0,0,1,2044.67,124.59Zm0-10.23a32.79,32.79,0,0,0,12.36-2.3,29.54,29.54,0,0,0,9.89-6.5,30.34,30.34,0,0,0,6.55-9.83,31.61,31.61,0,0,0,2.36-12.3,30.76,30.76,0,0,0-8.91-22.08A29.07,29.07,0,0,0,2057,54.8a34.68,34.68,0,0,0-24.84,0,29.57,29.57,0,0,0-9.94,6.55,30.57,30.57,0,0,0-6.61,9.83,31,31,0,0,0-2.36,12.25,31.43,31.43,0,0,0,2.36,12.3,29.72,29.72,0,0,0,6.61,9.83,30.05,30.05,0,0,0,9.94,6.5A33.08,33.08,0,0,0,2044.67,114.36Z"/><path class="cls-2" d="M2164.86,124.36a29,29,0,0,1-12-2.31,18.32,18.32,0,0,1-7.92-6.42,16.21,16.21,0,0,1-2.77-9.3,17.51,17.51,0,0,1,2.37-9,16.42,16.42,0,0,1,7.74-6.48q5.39-2.43,14.51-2.43h19.43v8h-19q-8.33,0-11.22,2.78a9,9,0,0,0-2.89,6.7,8.62,8.62,0,0,0,3.59,7.23q3.57,2.72,9.94,2.72a21.07,21.07,0,0,0,10.93-2.78,15.81,15.81,0,0,0,6.76-8.09l2.2,7.63a17.3,17.3,0,0,1-7.75,8.61Q2173.3,124.36,2164.86,124.36Zm20.12-.69v-13l-.58-2.43V86.21q0-7-4.11-10.93T2168,71.41a32.6,32.6,0,0,0-10.64,1.79,27.65,27.65,0,0,0-8.78,4.8l-4.63-8.32a33.42,33.42,0,0,1,11.39-5.84,47.56,47.56,0,0,1,13.93-2q12.6,0,19.43,6.13t6.82,18.73v37Zm-16.65-70.18-19.43-15H2163l15.72,15Z"/><path class="cls-2" d="M2240,124.36a49.71,49.71,0,0,1-14.51-2.08,34,34,0,0,1-10.81-5.09l4.62-8.78a40.76,40.76,0,0,0,21.51,6.36q7.74,0,11.16-2.2a6.92,6.92,0,0,0,3.41-6.13,5.42,5.42,0,0,0-2.08-4.51,14.2,14.2,0,0,0-5.5-2.43c-2.27-.53-4.79-1-7.57-1.44s-5.55-1-8.32-1.62a33,33,0,0,1-7.63-2.77,14.29,14.29,0,0,1-5.55-5,15.29,15.29,0,0,1-2.09-8.49,15.79,15.79,0,0,1,3.13-9.72,19.79,19.79,0,0,1,8.84-6.41,37.08,37.08,0,0,1,13.59-2.26,53.66,53.66,0,0,1,12.19,1.45,30.24,30.24,0,0,1,10.12,4.1l-4.74,8.79a26.33,26.33,0,0,0-8.67-3.82,40.22,40.22,0,0,0-9-1c-4.86,0-8.48.8-10.87,2.37a7.06,7.06,0,0,0-3.58,6.07,5.71,5.71,0,0,0,2.14,4.8,15.23,15.23,0,0,0,5.55,2.6,67,67,0,0,0,7.57,1.56c2.77.43,5.55,1,8.32,1.62A33.9,33.9,0,0,1,2258.8,93a14.71,14.71,0,0,1,5.55,4.86,14.51,14.51,0,0,1,2.14,8.32,14.9,14.9,0,0,1-3.24,9.6,20.88,20.88,0,0,1-9.14,6.3A39.57,39.57,0,0,1,2240,124.36Z"/><path class="cls-2" d="M67.66,210.45a29,29,0,0,1,13.23,2.89,20.7,20.7,0,0,1,9,8.79Q93.09,228,93.09,237v35.27H82v-34q0-8.91-4.33-13.42t-12.2-4.51a21.82,21.82,0,0,0-10.29,2.32,15.74,15.74,0,0,0-6.76,6.82A23.76,23.76,0,0,0,46,240.74v31.57H34.94V211H45.57v16.53l-1.73-4.39a21.3,21.3,0,0,1,9.25-9.37A30.4,30.4,0,0,1,67.66,210.45Z"/><path class="cls-2" d="M146.28,273A32.86,32.86,0,0,1,129.92,269a29.76,29.76,0,0,1-11.39-11.15,31.29,31.29,0,0,1-4.17-16.13,30.88,30.88,0,0,1,4.17-16.13,30.25,30.25,0,0,1,11.33-11,32.8,32.8,0,0,1,16.42-4.05,33.31,33.31,0,0,1,16.36,4,29.25,29.25,0,0,1,11.33,11,34,34,0,0,1,0,32.37A29.54,29.54,0,0,1,162.64,269,32.91,32.91,0,0,1,146.28,273Zm0-9.71a21,21,0,0,0,10.57-2.66,18.81,18.81,0,0,0,7.35-7.57,23.62,23.62,0,0,0,2.65-11.39,23.16,23.16,0,0,0-2.65-11.39,19,19,0,0,0-7.35-7.46,21,21,0,0,0-10.57-2.66,20.78,20.78,0,0,0-10.53,2.66,20,20,0,0,0-7.4,7.46,22.35,22.35,0,0,0-2.77,11.39,22.8,22.8,0,0,0,2.77,11.39,19.73,19.73,0,0,0,7.4,7.57A20.78,20.78,0,0,0,146.28,263.29Z"/><path class="cls-2" d="M217.38,273a49.71,49.71,0,0,1-14.51-2.08,34,34,0,0,1-10.81-5.09l4.62-8.79a37.54,37.54,0,0,0,9.72,4.51,38.22,38.22,0,0,0,11.79,1.85q7.74,0,11.16-2.19a6.93,6.93,0,0,0,3.41-6.13,5.41,5.41,0,0,0-2.08-4.51,14.2,14.2,0,0,0-5.5-2.43q-3.41-.81-7.57-1.44c-2.77-.43-5.55-1-8.32-1.62a33,33,0,0,1-7.63-2.78,14.26,14.26,0,0,1-5.55-5,15.3,15.3,0,0,1-2.09-8.5,15.76,15.76,0,0,1,3.13-9.71,19.79,19.79,0,0,1,8.84-6.41,36.87,36.87,0,0,1,13.59-2.26,53.1,53.1,0,0,1,12.19,1.45,30.24,30.24,0,0,1,10.12,4.1l-4.74,8.79a26.33,26.33,0,0,0-8.67-3.82,40.22,40.22,0,0,0-9-1q-7.29,0-10.87,2.37a7.06,7.06,0,0,0-3.58,6.07,5.73,5.73,0,0,0,2.14,4.8,15.4,15.4,0,0,0,5.55,2.6,67,67,0,0,0,7.57,1.56c2.77.43,5.55,1,8.32,1.62a33.9,33.9,0,0,1,7.58,2.72,13.49,13.49,0,0,1,7.69,13.18,14.85,14.85,0,0,1-3.24,9.59,21,21,0,0,1-9.14,6.31A39.57,39.57,0,0,1,217.38,273Z"/><path class="cls-2" d="M281.66,273a49.76,49.76,0,0,1-14.51-2.08,34,34,0,0,1-10.81-5.09L261,257a37.46,37.46,0,0,0,9.71,4.51,38.22,38.22,0,0,0,11.79,1.85q7.74,0,11.16-2.19a6.93,6.93,0,0,0,3.41-6.13,5.38,5.38,0,0,0-2.08-4.51,14.22,14.22,0,0,0-5.49-2.43c-2.28-.54-4.8-1-7.58-1.44s-5.55-1-8.32-1.62a33,33,0,0,1-7.63-2.78,14.4,14.4,0,0,1-5.55-5,15.3,15.3,0,0,1-2.08-8.5,15.75,15.75,0,0,1,3.12-9.71,19.79,19.79,0,0,1,8.84-6.41,36.91,36.91,0,0,1,13.59-2.26,53.18,53.18,0,0,1,12.2,1.45,30.27,30.27,0,0,1,10.11,4.1l-4.74,8.79a26.24,26.24,0,0,0-8.67-3.82,40.22,40.22,0,0,0-9-1q-7.28,0-10.87,2.37a7.06,7.06,0,0,0-3.58,6.07,5.73,5.73,0,0,0,2.14,4.8,15.4,15.4,0,0,0,5.55,2.6,67,67,0,0,0,7.57,1.56c2.78.43,5.55,1,8.33,1.62a33.81,33.81,0,0,1,7.57,2.72,13.49,13.49,0,0,1,7.69,13.18,14.85,14.85,0,0,1-3.24,9.59,21,21,0,0,1-9.13,6.31A39.62,39.62,0,0,1,281.66,273Z"/><path class="cls-2" d="M346.29,273a29,29,0,0,1-12-2.31,18.32,18.32,0,0,1-7.92-6.42,16.22,16.22,0,0,1-2.77-9.31,17.47,17.47,0,0,1,2.37-9,16.4,16.4,0,0,1,7.75-6.48q5.37-2.43,14.51-2.43h19.42v8h-19q-8.33,0-11.22,2.78a9,9,0,0,0-2.89,6.7,8.62,8.62,0,0,0,3.59,7.23q3.58,2.72,9.94,2.71a21.07,21.07,0,0,0,10.93-2.77,15.81,15.81,0,0,0,6.76-8.09l2.2,7.63a17.3,17.3,0,0,1-7.75,8.61Q354.73,273,346.29,273Zm20.12-.69V259.36l-.58-2.43V234.85q0-7-4.1-10.93t-12.32-3.87a32.5,32.5,0,0,0-10.63,1.79,27.21,27.21,0,0,0-8.79,4.8l-4.63-8.33a33.6,33.6,0,0,1,11.39-5.84,47.89,47.89,0,0,1,13.93-2q12.6,0,19.43,6.13t6.82,18.73v37Z"/><path class="cls-2" d="M421.44,273a49.76,49.76,0,0,1-14.51-2.08,34,34,0,0,1-10.81-5.09l4.63-8.79a37.46,37.46,0,0,0,9.71,4.51,38.22,38.22,0,0,0,11.79,1.85q7.74,0,11.16-2.19a6.93,6.93,0,0,0,3.41-6.13,5.41,5.41,0,0,0-2.08-4.51,14.22,14.22,0,0,0-5.49-2.43c-2.28-.54-4.8-1-7.58-1.44s-5.55-1-8.32-1.62a33,33,0,0,1-7.63-2.78,14.33,14.33,0,0,1-5.55-5,15.3,15.3,0,0,1-2.08-8.5,15.75,15.75,0,0,1,3.12-9.71,19.79,19.79,0,0,1,8.84-6.41,36.91,36.91,0,0,1,13.59-2.26,53.25,53.25,0,0,1,12.2,1.45A30.27,30.27,0,0,1,446,216l-4.74,8.79a26.24,26.24,0,0,0-8.67-3.82,40.22,40.22,0,0,0-9-1q-7.27,0-10.87,2.37a7.06,7.06,0,0,0-3.58,6.07,5.73,5.73,0,0,0,2.14,4.8,15.4,15.4,0,0,0,5.55,2.6,67,67,0,0,0,7.57,1.56c2.78.43,5.55,1,8.33,1.62a34,34,0,0,1,7.57,2.72,13.49,13.49,0,0,1,7.69,13.18,14.85,14.85,0,0,1-3.24,9.59,21,21,0,0,1-9.13,6.31A39.62,39.62,0,0,1,421.44,273Z"/><path class="cls-2" d="M511.16,199.24a7.41,7.41,0,0,1-5.38-2.09,6.83,6.83,0,0,1-2.14-5.08,7,7,0,0,1,2.14-5.21,7.44,7.44,0,0,1,5.38-2.08,7.53,7.53,0,0,1,5.38,2,6.65,6.65,0,0,1,2.13,5,7.22,7.22,0,0,1-7.51,7.4Zm-5.55,73.07V211h11.1v61.28Z"/><path class="cls-2" d="M569.54,273a31.87,31.87,0,0,1-15.89-3.93,28.69,28.69,0,0,1-11-11,32.43,32.43,0,0,1-4.05-16.42,32,32,0,0,1,4.05-16.36,28.83,28.83,0,0,1,11-10.93,31.87,31.87,0,0,1,15.89-3.93,28.32,28.32,0,0,1,14,3.47,25.33,25.33,0,0,1,10,10.4q3.75,6.94,3.75,17.35T593.65,259a25,25,0,0,1-9.88,10.46A28.37,28.37,0,0,1,569.54,273Zm.93-9.71a20.84,20.84,0,0,0,10.46-2.66,19.19,19.19,0,0,0,7.4-7.57,23.2,23.2,0,0,0,2.72-11.39,22.75,22.75,0,0,0-2.72-11.39,19.43,19.43,0,0,0-7.4-7.46,22,22,0,0,0-21,0,19.92,19.92,0,0,0-7.4,7.46,22.35,22.35,0,0,0-2.78,11.39,22.8,22.8,0,0,0,2.78,11.39,19.66,19.66,0,0,0,7.4,7.57A20.74,20.74,0,0,0,570.47,263.29Zm20.93,9V255.77l.69-14.22-1.16-14.22V186.52H602v85.79Z"/><path class="cls-2" d="M656.72,273A35.7,35.7,0,0,1,639.43,269a29.08,29.08,0,0,1-11.56-11.1,31.61,31.61,0,0,1-4.1-16.18,32.31,32.31,0,0,1,4-16.19,28.83,28.83,0,0,1,11-11,31.26,31.26,0,0,1,15.78-4,31,31,0,0,1,15.73,3.93,27.85,27.85,0,0,1,10.69,11A34.17,34.17,0,0,1,684.81,242c0,.47,0,1,0,1.62s-.1,1.2-.18,1.74H632.44v-8H678.8l-4.51,2.77a20.64,20.64,0,0,0-2.42-10.52,18.55,18.55,0,0,0-7-7.22,21.78,21.78,0,0,0-20.64,0,18.3,18.3,0,0,0-7.05,7.28,22,22,0,0,0-2.54,10.7v1.85a21.06,21.06,0,0,0,2.83,10.92,19.45,19.45,0,0,0,7.92,7.46,24.86,24.86,0,0,0,11.68,2.66,25.57,25.57,0,0,0,9.88-1.85,21.61,21.61,0,0,0,7.81-5.55l6.12,7.17a26.93,26.93,0,0,1-10.34,7.4A36.16,36.16,0,0,1,656.72,273Z"/><path class="cls-2" d="M712.1,199.24a7.41,7.41,0,0,1-5.38-2.09,6.83,6.83,0,0,1-2.14-5.08,7,7,0,0,1,2.14-5.21,7.44,7.44,0,0,1,5.38-2.08,7.53,7.53,0,0,1,5.38,2,6.66,6.66,0,0,1,2.14,5,7.23,7.23,0,0,1-7.52,7.4Zm-5.55,73.07V211h11.1v61.28Z"/><path class="cls-2" d="M763.09,273a29,29,0,0,1-12-2.31,18.32,18.32,0,0,1-7.92-6.42,16.22,16.22,0,0,1-2.77-9.31,17.38,17.38,0,0,1,2.37-9,16.37,16.37,0,0,1,7.74-6.48q5.38-2.43,14.51-2.43h19.43v8h-19q-8.32,0-11.21,2.78a8.93,8.93,0,0,0-2.89,6.7,8.61,8.61,0,0,0,3.58,7.23q3.59,2.72,10,2.71a21,21,0,0,0,10.92-2.77,15.83,15.83,0,0,0,6.77-8.09l2.19,7.63a17.23,17.23,0,0,1-7.74,8.61Q771.53,273,763.09,273Zm20.11-.69V259.36l-.57-2.43V234.85q0-7-4.11-10.93t-12.31-3.87a32.56,32.56,0,0,0-10.64,1.79,27.21,27.21,0,0,0-8.79,4.8l-4.62-8.33a33.51,33.51,0,0,1,11.39-5.84,47.84,47.84,0,0,1,13.93-2q12.6,0,19.42,6.13t6.83,18.73v37Z"/><path class="cls-2" d="M838.24,273a49.71,49.71,0,0,1-14.51-2.08,34,34,0,0,1-10.81-5.09l4.62-8.79a37.62,37.62,0,0,0,9.71,4.51,38.33,38.33,0,0,0,11.8,1.85q7.74,0,11.15-2.19a6.91,6.91,0,0,0,3.41-6.13,5.38,5.38,0,0,0-2.08-4.51,14.15,14.15,0,0,0-5.49-2.43c-2.27-.54-4.8-1-7.57-1.44s-5.55-1-8.33-1.62a33.34,33.34,0,0,1-7.63-2.78,14.4,14.4,0,0,1-5.55-5,15.39,15.39,0,0,1-2.08-8.5,15.75,15.75,0,0,1,3.12-9.71,19.77,19.77,0,0,1,8.85-6.41,36.82,36.82,0,0,1,13.58-2.26,53.12,53.12,0,0,1,12.2,1.45,30.33,30.33,0,0,1,10.12,4.1L858,224.79a26.42,26.42,0,0,0-8.67-3.82,40.28,40.28,0,0,0-9-1q-7.29,0-10.87,2.37a7.06,7.06,0,0,0-3.58,6.07,5.76,5.76,0,0,0,2.13,4.8,15.56,15.56,0,0,0,5.55,2.6,67.22,67.22,0,0,0,7.58,1.56c2.77.43,5.55,1,8.32,1.62a33.63,33.63,0,0,1,7.57,2.72,13.49,13.49,0,0,1,7.69,13.18,14.9,14.9,0,0,1-3.23,9.59,21,21,0,0,1-9.14,6.31A39.57,39.57,0,0,1,838.24,273Z"/><path class="cls-2" d="M949.69,273A35.63,35.63,0,0,1,932.41,269a29,29,0,0,1-11.57-11.1,31.61,31.61,0,0,1-4.1-16.18,32.31,32.31,0,0,1,4-16.19,28.83,28.83,0,0,1,11-11,31.29,31.29,0,0,1,15.78-4,31,31,0,0,1,15.73,3.93,27.85,27.85,0,0,1,10.69,11A34.17,34.17,0,0,1,977.79,242q0,.7-.06,1.62t-.18,1.74H925.41v-8h46.36l-4.51,2.77a20.64,20.64,0,0,0-2.42-10.52,18.55,18.55,0,0,0-7-7.22,21.78,21.78,0,0,0-20.64,0,18.37,18.37,0,0,0-7.05,7.28,22.12,22.12,0,0,0-2.54,10.7v1.85a21.06,21.06,0,0,0,2.83,10.92,19.45,19.45,0,0,0,7.92,7.46A24.86,24.86,0,0,0,950,263.29a25.57,25.57,0,0,0,9.88-1.85,21.61,21.61,0,0,0,7.81-5.55l6.12,7.17a26.93,26.93,0,0,1-10.34,7.4A36.16,36.16,0,0,1,949.69,273Z"/><path class="cls-2" d="M1054.9,273a28.9,28.9,0,0,1-12-2.31,18.32,18.32,0,0,1-7.92-6.42,16.23,16.23,0,0,1-2.78-9.31,17.47,17.47,0,0,1,2.37-9,16.4,16.4,0,0,1,7.75-6.48q5.37-2.43,14.51-2.43h19.42v8h-19q-8.32,0-11.21,2.78a8.93,8.93,0,0,0-2.89,6.7,8.61,8.61,0,0,0,3.58,7.23q3.59,2.72,9.94,2.71a21,21,0,0,0,10.93-2.77,15.81,15.81,0,0,0,6.76-8.09l2.2,7.63a17.3,17.3,0,0,1-7.75,8.61Q1063.34,273,1054.9,273Zm20.12-.69V259.36l-.58-2.43V234.85q0-7-4.1-10.93T1058,220.05a32.55,32.55,0,0,0-10.63,1.79,27.21,27.21,0,0,0-8.79,4.8l-4.62-8.33a33.55,33.55,0,0,1,11.38-5.84,48,48,0,0,1,13.94-2q12.6,0,19.42,6.13t6.82,18.73v37Zm-16.65-70.18-19.42-15h14.1l15.73,15Z"/><path class="cls-2" d="M1130.05,273a49.81,49.81,0,0,1-14.51-2.08,34.05,34.05,0,0,1-10.81-5.09l4.63-8.79a37.46,37.46,0,0,0,9.71,4.51,38.22,38.22,0,0,0,11.79,1.85q7.74,0,11.16-2.19a6.93,6.93,0,0,0,3.41-6.13,5.38,5.38,0,0,0-2.08-4.51,14.22,14.22,0,0,0-5.49-2.43c-2.28-.54-4.8-1-7.58-1.44s-5.55-1-8.32-1.62a33,33,0,0,1-7.63-2.78,14.4,14.4,0,0,1-5.55-5,15.3,15.3,0,0,1-2.08-8.5,15.75,15.75,0,0,1,3.12-9.71,19.79,19.79,0,0,1,8.84-6.41,36.91,36.91,0,0,1,13.59-2.26,53.18,53.18,0,0,1,12.2,1.45,30.27,30.27,0,0,1,10.11,4.1l-4.74,8.79a26.24,26.24,0,0,0-8.67-3.82,40.15,40.15,0,0,0-9-1c-4.85,0-8.48.79-10.86,2.37a7.07,7.07,0,0,0-3.59,6.07,5.73,5.73,0,0,0,2.14,4.8,15.56,15.56,0,0,0,5.55,2.6,67,67,0,0,0,7.57,1.56c2.78.43,5.55,1,8.33,1.62a33.81,33.81,0,0,1,7.57,2.72,13.49,13.49,0,0,1,7.69,13.18,14.85,14.85,0,0,1-3.24,9.59,21,21,0,0,1-9.13,6.31A39.62,39.62,0,0,1,1130.05,273Z"/><path class="cls-2" d="M1246.94,210.45a29.1,29.1,0,0,1,13.24,2.89,20.81,20.81,0,0,1,9,8.79q3.24,5.9,3.24,14.91v35.27h-11.1v-34q0-8.91-4.34-13.42t-12.2-4.51a21.82,21.82,0,0,0-10.29,2.32,15.79,15.79,0,0,0-6.76,6.82,23.88,23.88,0,0,0-2.37,11.21v31.57h-11.1V211h10.64v16.53l-1.74-4.39a21.35,21.35,0,0,1,9.25-9.37A30.4,30.4,0,0,1,1246.94,210.45Z"/><path class="cls-2" d="M1325.56,273A32.89,32.89,0,0,1,1309.2,269a29.82,29.82,0,0,1-11.39-11.15,31.38,31.38,0,0,1-4.16-16.13,31,31,0,0,1,4.16-16.13,30.32,30.32,0,0,1,11.33-11,32.8,32.8,0,0,1,16.42-4.05,33.28,33.28,0,0,1,16.36,4,29.19,29.19,0,0,1,11.33,11,34,34,0,0,1,0,32.37,29.47,29.47,0,0,1-11.33,11.1A32.89,32.89,0,0,1,1325.56,273Zm0-9.71a21.07,21.07,0,0,0,10.58-2.66,18.78,18.78,0,0,0,7.34-7.57,23.63,23.63,0,0,0,2.66-11.39,23.16,23.16,0,0,0-2.66-11.39,19,19,0,0,0-7.34-7.46,21.07,21.07,0,0,0-10.58-2.66,20.74,20.74,0,0,0-10.52,2.66,20,20,0,0,0-7.4,7.46,22.35,22.35,0,0,0-2.78,11.39,22.8,22.8,0,0,0,2.78,11.39,19.73,19.73,0,0,0,7.4,7.57A20.74,20.74,0,0,0,1325.56,263.29Z"/><path class="cls-2" d="M1396.66,273a49.81,49.81,0,0,1-14.51-2.08,34.05,34.05,0,0,1-10.81-5.09L1376,257a37.62,37.62,0,0,0,9.71,4.51,38.22,38.22,0,0,0,11.79,1.85q7.76,0,11.16-2.19a6.93,6.93,0,0,0,3.41-6.13,5.38,5.38,0,0,0-2.08-4.51,14.22,14.22,0,0,0-5.49-2.43q-3.42-.81-7.57-1.44c-2.78-.43-5.55-1-8.33-1.62a33.17,33.17,0,0,1-7.63-2.78,14.4,14.4,0,0,1-5.55-5,15.3,15.3,0,0,1-2.08-8.5,15.75,15.75,0,0,1,3.12-9.71,19.77,19.77,0,0,1,8.85-6.41,36.82,36.82,0,0,1,13.58-2.26,53.18,53.18,0,0,1,12.2,1.45,30.41,30.41,0,0,1,10.12,4.1l-4.74,8.79a26.38,26.38,0,0,0-8.68-3.82,40.13,40.13,0,0,0-9-1q-7.29,0-10.87,2.37a7.07,7.07,0,0,0-3.59,6.07,5.73,5.73,0,0,0,2.14,4.8,15.56,15.56,0,0,0,5.55,2.6,67,67,0,0,0,7.57,1.56c2.78.43,5.55,1,8.33,1.62a33.81,33.81,0,0,1,7.57,2.72,14.69,14.69,0,0,1,5.55,4.85,14.49,14.49,0,0,1,2.14,8.33,14.85,14.85,0,0,1-3.24,9.59,21,21,0,0,1-9.13,6.31A39.59,39.59,0,0,1,1396.66,273Z"/><path class="cls-2" d="M1461,273a49.71,49.71,0,0,1-14.51-2.08,34,34,0,0,1-10.81-5.09l4.62-8.79a37.62,37.62,0,0,0,9.71,4.51,38.33,38.33,0,0,0,11.8,1.85q7.74,0,11.15-2.19a6.91,6.91,0,0,0,3.41-6.13,5.38,5.38,0,0,0-2.08-4.51,14.22,14.22,0,0,0-5.49-2.43c-2.27-.54-4.8-1-7.57-1.44s-5.55-1-8.33-1.62a33.34,33.34,0,0,1-7.63-2.78,14.4,14.4,0,0,1-5.55-5,15.39,15.39,0,0,1-2.08-8.5,15.75,15.75,0,0,1,3.12-9.71,19.77,19.77,0,0,1,8.85-6.41,36.82,36.82,0,0,1,13.58-2.26,53.12,53.12,0,0,1,12.2,1.45,30.33,30.33,0,0,1,10.12,4.1l-4.74,8.79a26.42,26.42,0,0,0-8.67-3.82,40.28,40.28,0,0,0-9-1q-7.29,0-10.87,2.37a7.06,7.06,0,0,0-3.58,6.07,5.76,5.76,0,0,0,2.13,4.8,15.56,15.56,0,0,0,5.55,2.6,67.22,67.22,0,0,0,7.58,1.56c2.77.43,5.55,1,8.32,1.62a33.63,33.63,0,0,1,7.57,2.72,13.49,13.49,0,0,1,7.69,13.18,14.9,14.9,0,0,1-3.23,9.59,21,21,0,0,1-9.14,6.31A39.57,39.57,0,0,1,1461,273Z"/><path class="cls-2" d="M1525.58,273a29,29,0,0,1-12-2.31,18.32,18.32,0,0,1-7.92-6.42,16.22,16.22,0,0,1-2.77-9.31,17.38,17.38,0,0,1,2.37-9,16.37,16.37,0,0,1,7.74-6.48q5.38-2.43,14.51-2.43H1547v8h-19q-8.32,0-11.21,2.78a8.93,8.93,0,0,0-2.89,6.7,8.61,8.61,0,0,0,3.58,7.23q3.58,2.72,10,2.71a21,21,0,0,0,10.92-2.77,15.83,15.83,0,0,0,6.77-8.09l2.19,7.63a17.23,17.23,0,0,1-7.74,8.61Q1534,273,1525.58,273Zm20.11-.69V259.36l-.57-2.43V234.85q0-7-4.11-10.93t-12.31-3.87a32.56,32.56,0,0,0-10.64,1.79,27.21,27.21,0,0,0-8.79,4.8l-4.62-8.33a33.51,33.51,0,0,1,11.39-5.84,47.84,47.84,0,0,1,13.93-2q12.6,0,19.42,6.13t6.82,18.73v37Z"/><path class="cls-2" d="M1600.73,273a49.71,49.71,0,0,1-14.51-2.08,34,34,0,0,1-10.81-5.09L1580,257a37.62,37.62,0,0,0,9.71,4.51,38.33,38.33,0,0,0,11.8,1.85q7.74,0,11.15-2.19a6.91,6.91,0,0,0,3.41-6.13,5.38,5.38,0,0,0-2.08-4.51,14.22,14.22,0,0,0-5.49-2.43c-2.27-.54-4.8-1-7.57-1.44s-5.55-1-8.33-1.62a33.17,33.17,0,0,1-7.63-2.78,14.4,14.4,0,0,1-5.55-5,15.39,15.39,0,0,1-2.08-8.5,15.75,15.75,0,0,1,3.12-9.71,19.77,19.77,0,0,1,8.85-6.41,36.82,36.82,0,0,1,13.58-2.26,53.12,53.12,0,0,1,12.2,1.45,30.33,30.33,0,0,1,10.12,4.1l-4.74,8.79a26.42,26.42,0,0,0-8.67-3.82,40.28,40.28,0,0,0-9-1q-7.29,0-10.87,2.37a7.06,7.06,0,0,0-3.58,6.07,5.76,5.76,0,0,0,2.13,4.8,15.56,15.56,0,0,0,5.55,2.6,67.22,67.22,0,0,0,7.58,1.56c2.77.43,5.55,1,8.32,1.62a33.63,33.63,0,0,1,7.57,2.72,13.49,13.49,0,0,1,7.69,13.18,14.9,14.9,0,0,1-3.23,9.59,21,21,0,0,1-9.14,6.31A39.57,39.57,0,0,1,1600.73,273Z"/><path class="cls-2" d="M1701,272.31,1674.14,211h11.56l23.82,55.49H1704L1728.25,211h10.87l-26.82,61.28Z"/><path class="cls-2" d="M1780.39,273A32.89,32.89,0,0,1,1764,269a29.82,29.82,0,0,1-11.39-11.15,31.38,31.38,0,0,1-4.16-16.13,31,31,0,0,1,4.16-16.13,30.35,30.35,0,0,1,11.34-11,32.76,32.76,0,0,1,16.41-4.05,33.28,33.28,0,0,1,16.36,4,29.12,29.12,0,0,1,11.33,11,33.92,33.92,0,0,1,0,32.37,29.41,29.41,0,0,1-11.33,11.1A32.89,32.89,0,0,1,1780.39,273Zm0-9.71a21.07,21.07,0,0,0,10.58-2.66,18.78,18.78,0,0,0,7.34-7.57,23.51,23.51,0,0,0,2.66-11.39,23.05,23.05,0,0,0-2.66-11.39,19,19,0,0,0-7.34-7.46,21.07,21.07,0,0,0-10.58-2.66,20.74,20.74,0,0,0-10.52,2.66,20,20,0,0,0-7.4,7.46,22.35,22.35,0,0,0-2.77,11.39,22.8,22.8,0,0,0,2.77,11.39,19.73,19.73,0,0,0,7.4,7.57A20.74,20.74,0,0,0,1780.39,263.29Z"/><path class="cls-2" d="M1866.64,210.45a29.07,29.07,0,0,1,13.24,2.89,20.76,20.76,0,0,1,9,8.79q3.24,5.9,3.24,14.91v35.27H1881v-34q0-8.91-4.34-13.42t-12.19-4.51a21.79,21.79,0,0,0-10.29,2.32,15.81,15.81,0,0,0-6.77,6.82,23.88,23.88,0,0,0-2.37,11.21v31.57h-11.1V211h10.64v16.53l-1.73-4.39a21.25,21.25,0,0,1,9.25-9.37A30.36,30.36,0,0,1,1866.64,210.45Z"/><path class="cls-2" d="M1910.23,220.16V211h39.08v9.13ZM1940.06,273q-9.25,0-14.34-5t-5.08-14.22V197.62h11.1v55.73c0,3.31.82,5.85,2.48,7.63s4,2.66,7.11,2.66a13.07,13.07,0,0,0,8.67-2.9l3.47,8a16,16,0,0,1-6.07,3.24A25.94,25.94,0,0,1,1940.06,273Z"/><path class="cls-2" d="M1991.16,273a28.9,28.9,0,0,1-12-2.31,18.26,18.26,0,0,1-7.92-6.42,16.23,16.23,0,0,1-2.78-9.31,17.47,17.47,0,0,1,2.37-9,16.4,16.4,0,0,1,7.75-6.48Q1984,237,1993.13,237h19.42v8h-19q-8.33,0-11.22,2.78a9,9,0,0,0-2.89,6.7,8.62,8.62,0,0,0,3.59,7.23q3.59,2.72,9.94,2.71a21,21,0,0,0,10.93-2.77,15.81,15.81,0,0,0,6.76-8.09l2.2,7.63a17.3,17.3,0,0,1-7.75,8.61Q1999.6,273,1991.16,273Zm20.12-.69V259.36l-.58-2.43V234.85q0-7-4.1-10.93t-12.32-3.87a32.55,32.55,0,0,0-10.63,1.79,27.21,27.21,0,0,0-8.79,4.8l-4.63-8.33a33.6,33.6,0,0,1,11.39-5.84,47.91,47.91,0,0,1,13.94-2q12.6,0,19.42,6.13t6.82,18.73v37Z"/><path class="cls-2" d="M2074.06,273a31.88,31.88,0,0,1-15.9-3.93,28.82,28.82,0,0,1-11-11,32.43,32.43,0,0,1-4-16.42,32,32,0,0,1,4-16.36,29,29,0,0,1,11-10.93,31.88,31.88,0,0,1,15.9-3.93,28.35,28.35,0,0,1,14,3.47,25.37,25.37,0,0,1,10,10.4q3.75,6.94,3.76,17.35T2098.16,259a24.9,24.9,0,0,1-9.88,10.46A28.3,28.3,0,0,1,2074.06,273Zm.92-9.71a20.87,20.87,0,0,0,10.47-2.66,19.25,19.25,0,0,0,7.4-7.57,23.2,23.2,0,0,0,2.71-11.39,22.75,22.75,0,0,0-2.71-11.39,19.5,19.5,0,0,0-7.4-7.46,22,22,0,0,0-21,0,20,20,0,0,0-7.4,7.46,22.35,22.35,0,0,0-2.77,11.39,22.8,22.8,0,0,0,2.77,11.39,19.73,19.73,0,0,0,7.4,7.57A20.74,20.74,0,0,0,2075,263.29Zm20.93,9V255.77l.69-14.22-1.15-14.22V186.52h11.1v85.79Z"/><path class="cls-2" d="M2161.23,273A35.63,35.63,0,0,1,2144,269a29,29,0,0,1-11.56-11.1,31.52,31.52,0,0,1-4.11-16.18,32.31,32.31,0,0,1,4-16.19,28.83,28.83,0,0,1,11-11,31.32,31.32,0,0,1,15.79-4,30.93,30.93,0,0,1,15.72,3.93,27.78,27.78,0,0,1,10.69,11,34.06,34.06,0,0,1,3.88,16.59q0,.7-.06,1.62c0,.62-.1,1.2-.17,1.74H2137v-8h46.37l-4.51,2.77a20.75,20.75,0,0,0-2.43-10.52,18.55,18.55,0,0,0-7-7.22,21.76,21.76,0,0,0-20.63,0,18.32,18.32,0,0,0-7.06,7.28,22.12,22.12,0,0,0-2.54,10.7v1.85a21.06,21.06,0,0,0,2.83,10.92,19.45,19.45,0,0,0,7.92,7.46,24.89,24.89,0,0,0,11.68,2.66,25.54,25.54,0,0,0,9.88-1.85,21.61,21.61,0,0,0,7.81-5.55l6.13,7.17a27,27,0,0,1-10.35,7.4A36.16,36.16,0,0,1,2161.23,273Z"/><path class="cls-2" d="M2228.64,273a49.71,49.71,0,0,1-14.51-2.08,34,34,0,0,1-10.81-5.09l4.62-8.79a37.62,37.62,0,0,0,9.71,4.51,38.33,38.33,0,0,0,11.8,1.85q7.74,0,11.15-2.19a6.91,6.91,0,0,0,3.41-6.13,5.38,5.38,0,0,0-2.08-4.51,14.15,14.15,0,0,0-5.49-2.43c-2.27-.54-4.8-1-7.57-1.44s-5.55-1-8.33-1.62a33.34,33.34,0,0,1-7.63-2.78,14.4,14.4,0,0,1-5.55-5,15.39,15.39,0,0,1-2.08-8.5,15.75,15.75,0,0,1,3.12-9.71,19.82,19.82,0,0,1,8.85-6.41,36.82,36.82,0,0,1,13.58-2.26,53.12,53.12,0,0,1,12.2,1.45,30.33,30.33,0,0,1,10.12,4.1l-4.74,8.79a26.42,26.42,0,0,0-8.67-3.82,40.28,40.28,0,0,0-9-1q-7.29,0-10.87,2.37a7.06,7.06,0,0,0-3.58,6.07,5.73,5.73,0,0,0,2.14,4.8,15.4,15.4,0,0,0,5.55,2.6,66.56,66.56,0,0,0,7.57,1.56c2.77.43,5.55,1,8.32,1.62a33.9,33.9,0,0,1,7.58,2.72,13.46,13.46,0,0,1,7.68,13.18,14.9,14.9,0,0,1-3.23,9.59,21,21,0,0,1-9.14,6.31A39.57,39.57,0,0,1,2228.64,273Z"/><path class="cls-2" d="M2271,289.42l5.78-23.36,1.51,6.71a8,8,0,0,1-5.61-2.08,7.36,7.36,0,0,1-2.26-5.67,7.62,7.62,0,0,1,7.75-7.86,7,7,0,0,1,5.43,2.25,8,8,0,0,1,2.09,5.61,14,14,0,0,1-.18,2.26,21.49,21.49,0,0,1-.58,2.54c-.27,1-.67,2.14-1.21,3.53l-5.43,16.07Z"/><path class="cls-2" d="M34.94,443.37v-83.7H45.57V376.2l-.69,14.22L46,404.64v38.73Zm32.48-21.73a28.06,28.06,0,0,1-13.93-3.53,25.66,25.66,0,0,1-10.06-10.46q-3.75-6.94-3.75-17.34T43.32,373a24.52,24.52,0,0,1,9.94-10.4,28.78,28.78,0,0,1,14.16-3.47,31.82,31.82,0,0,1,16,3.93,29,29,0,0,1,11,10.93,35.17,35.17,0,0,1,0,32.77,28.9,28.9,0,0,1-11,11A31.82,31.82,0,0,1,67.42,421.64Zm-.92-9.71a21.07,21.07,0,0,0,10.58-2.66,19.21,19.21,0,0,0,7.4-7.58,23.13,23.13,0,0,0,2.71-11.38,22.75,22.75,0,0,0-2.71-11.39,19.36,19.36,0,0,0-7.4-7.46A21.07,21.07,0,0,0,66.5,368.8,20.81,20.81,0,0,0,56,371.46a19.29,19.29,0,0,0-7.4,7.46,22.64,22.64,0,0,0-2.72,11.39,23,23,0,0,0,2.72,11.38,19.15,19.15,0,0,0,7.4,7.58A20.81,20.81,0,0,0,66.5,411.93Z"/><path class="cls-2" d="M146.39,421.64A32.89,32.89,0,0,1,130,417.59a29.92,29.92,0,0,1-11.39-11.16,31.35,31.35,0,0,1-4.16-16.12,31,31,0,0,1,4.16-16.13,30.17,30.17,0,0,1,11.33-11,32.8,32.8,0,0,1,16.42-4.05,33.28,33.28,0,0,1,16.36,4,29.19,29.19,0,0,1,11.33,11,34,34,0,0,1,0,32.37,29.62,29.62,0,0,1-11.33,11.1A32.89,32.89,0,0,1,146.39,421.64Zm0-9.71A21.07,21.07,0,0,0,157,409.27a18.81,18.81,0,0,0,7.34-7.58A23.56,23.56,0,0,0,167,390.31a23.16,23.16,0,0,0-2.66-11.39,19,19,0,0,0-7.34-7.46,21.07,21.07,0,0,0-10.58-2.66,20.74,20.74,0,0,0-10.52,2.66,19.85,19.85,0,0,0-7.4,7.46,22.35,22.35,0,0,0-2.78,11.39,22.73,22.73,0,0,0,2.78,11.38,19.69,19.69,0,0,0,7.4,7.58A20.74,20.74,0,0,0,146.39,411.93Z"/><path class="cls-2" d="M199.92,420.94V359.67h10.64v16.65l-1-4.17a18.83,18.83,0,0,1,8.55-9.71q6-3.35,14.8-3.35v10.75a8.94,8.94,0,0,0-1.33-.11h-1.21q-8.91,0-14.11,5.31T211,390.42v30.52Z"/><path class="cls-2" d="M277.61,421.64a31.87,31.87,0,0,1-15.89-3.93,28.64,28.64,0,0,1-11-11,35.17,35.17,0,0,1,0-32.77,28.76,28.76,0,0,1,11-10.93,31.87,31.87,0,0,1,15.89-3.93,28.76,28.76,0,0,1,14.23,3.47,24.63,24.63,0,0,1,9.88,10.4q3.64,6.94,3.64,17.35t-3.75,17.34a25.74,25.74,0,0,1-10,10.46A27.94,27.94,0,0,1,277.61,421.64Zm.93-9.71A20.84,20.84,0,0,0,289,409.27a19.21,19.21,0,0,0,7.4-7.58,23.14,23.14,0,0,0,2.72-11.38,22.75,22.75,0,0,0-2.72-11.39,19.36,19.36,0,0,0-7.4-7.46,22,22,0,0,0-21,0,19.85,19.85,0,0,0-7.4,7.46,22.35,22.35,0,0,0-2.78,11.39,22.73,22.73,0,0,0,2.78,11.38,19.69,19.69,0,0,0,7.4,7.58A20.74,20.74,0,0,0,278.54,411.93ZM299,443.37V404.64l1.16-14.22-.69-14.22V359.67H310.1v83.7Z"/><path class="cls-2" d="M363.29,421.64a31.37,31.37,0,0,1-13.82-2.89,20.76,20.76,0,0,1-9.25-8.85q-3.3-6-3.29-15V359.67H348v34q0,9,4.34,13.53t12.2,4.5a20.47,20.47,0,0,0,10.06-2.37,16,16,0,0,0,6.59-6.93,24.26,24.26,0,0,0,2.31-11V359.67h11.1v61.27H384.1V404.41l1.73,4.39a21.36,21.36,0,0,1-9,9.48A27.23,27.23,0,0,1,363.29,421.64Z"/><path class="cls-2" d="M449.42,421.64a35.7,35.7,0,0,1-17.29-4.05,29.22,29.22,0,0,1-11.56-11.1,31.61,31.61,0,0,1-4.1-16.18,32.31,32.31,0,0,1,4-16.19,28.83,28.83,0,0,1,11-11,31.26,31.26,0,0,1,15.78-4A31,31,0,0,1,463,363a27.85,27.85,0,0,1,10.69,11,34.17,34.17,0,0,1,3.87,16.59c0,.46,0,1-.05,1.62s-.1,1.2-.18,1.74H425.14v-8H471.5L467,388.8a20.62,20.62,0,0,0-2.42-10.52,18.55,18.55,0,0,0-7-7.22,21.71,21.71,0,0,0-20.64,0,18.3,18.3,0,0,0-7.05,7.28A22,22,0,0,0,427.34,389v1.85a21.07,21.07,0,0,0,2.83,10.93,19.52,19.52,0,0,0,7.92,7.46,24.86,24.86,0,0,0,11.68,2.66,25.57,25.57,0,0,0,9.88-1.85,21.85,21.85,0,0,0,7.81-5.55l6.12,7.16a26.72,26.72,0,0,1-10.34,7.4A36,36,0,0,1,449.42,421.64Z"/><path class="cls-2" d="M561.49,420.94l-35.42-80.48h12.42L571,414.73H563.9l32.77-74.27h11.5l-35.3,80.48Z"/><path class="cls-2" d="M624.72,420.94V340.46h11.5v80.48Z"/><path class="cls-2" d="M689.11,420.94,653.7,340.46h12.42l32.53,74.27h-7.12l32.76-74.27h11.5l-35.3,80.48Z"/><path class="cls-2" d="M763.84,410.94h46.91v10h-58.4V340.46h56.8v10H763.84Zm-1-35.76H804.2V385H762.81Z"/><path class="cls-2" d="M835.7,420.94V340.46h9.43l36.1,60.82h-5.05l35.64-60.82h9.43l.11,80.48h-11l-.11-63.12h2.64l-31.73,53.35h-5.29l-32-53.35h2.87v63.12Z"/><path class="cls-2" d="M988.16,421.86a46.12,46.12,0,0,1-17.07-3.1,40.79,40.79,0,0,1-13.63-8.68,40.23,40.23,0,0,1-9-13.05,43,43,0,0,1,0-32.65,40,40,0,0,1,9-13.05A40.78,40.78,0,0,1,971,342.65a46,46,0,0,1,17.13-3.11,46.55,46.55,0,0,1,17,3,40.12,40.12,0,0,1,13.56,8.62,39.18,39.18,0,0,1,8.92,13.11,44.19,44.19,0,0,1,0,32.82,39.13,39.13,0,0,1-8.92,13.05,40.15,40.15,0,0,1-13.56,8.63A46.54,46.54,0,0,1,988.16,421.86Zm0-10.23a32.52,32.52,0,0,0,12.36-2.3,29.41,29.41,0,0,0,9.89-6.49A30.23,30.23,0,0,0,1017,393a31.54,31.54,0,0,0,2.36-12.3,30.76,30.76,0,0,0-8.91-22.07,29,29,0,0,0-9.89-6.56,34.66,34.66,0,0,0-24.83,0,29.64,29.64,0,0,0-10,6.56,30.46,30.46,0,0,0-6.61,9.83,31.17,31.17,0,0,0-2.36,12.24,31.54,31.54,0,0,0,2.36,12.3,29.76,29.76,0,0,0,6.61,9.84,30.07,30.07,0,0,0,10,6.49A32.83,32.83,0,0,0,988.16,411.63Z"/><path class="cls-2" d="M1078.19,421.86a54.79,54.79,0,0,1-17.59-2.81,36.21,36.21,0,0,1-13.23-7.3l4.26-9a37.39,37.39,0,0,0,11.73,6.67,42.33,42.33,0,0,0,14.83,2.64,33.35,33.35,0,0,0,11.38-1.61,13.48,13.48,0,0,0,6.44-4.43,10.48,10.48,0,0,0,2.07-6.38,8.72,8.72,0,0,0-2.7-6.67,20.29,20.29,0,0,0-7-4.08,79.17,79.17,0,0,0-9.48-2.7c-3.45-.76-6.92-1.67-10.41-2.7a46.67,46.67,0,0,1-9.54-4,19.45,19.45,0,0,1-7-6.49,19.06,19.06,0,0,1-2.64-10.52,21.15,21.15,0,0,1,3.27-11.44,22.81,22.81,0,0,1,10.12-8.4q6.84-3.15,17.42-3.16a53.53,53.53,0,0,1,13.91,1.84,38.84,38.84,0,0,1,12,5.29l-3.79,9.2a36.8,36.8,0,0,0-10.93-5,42.49,42.49,0,0,0-11.15-1.56A30.67,30.67,0,0,0,1069,351a13.58,13.58,0,0,0-6.38,4.6,11,11,0,0,0-2,6.44,8.86,8.86,0,0,0,2.7,6.78,19.26,19.26,0,0,0,7,4,95.64,95.64,0,0,0,9.49,2.71q5.17,1.2,10.4,2.7a44.23,44.23,0,0,1,9.55,3.91,19.64,19.64,0,0,1,7,6.44,18.51,18.51,0,0,1,2.65,10.34,20.71,20.71,0,0,1-3.34,11.33,23,23,0,0,1-10.29,8.39Q1088.76,421.87,1078.19,421.86Z"/><path class="cls-2" d="M1157.52,420.94,1194,340.46h11.38l36.56,80.48h-12.07l-32.54-74h4.6l-32.54,74ZM1173,400.82l3.11-9.2h45.3l3.33,9.2Z"/><path class="cls-2" d="M1285.26,420.94l36.44-80.48h11.39l36.56,80.48h-12.07l-32.54-74h4.6l-32.54,74Zm15.52-20.12,3.1-9.2h45.3l3.34,9.2Z"/><path class="cls-2" d="M1387.93,420.94V340.46h33.92a49,49,0,0,1,22.71,5.06,37.4,37.4,0,0,1,15.29,14.14,43.27,43.27,0,0,1,0,42.08,37.42,37.42,0,0,1-15.29,14.15,49,49,0,0,1-22.71,5.05Zm11.5-10h21.73a37,37,0,0,0,17.3-3.79,27.65,27.65,0,0,0,11.33-10.64,33.2,33.2,0,0,0,0-31.67,27.71,27.71,0,0,0-11.33-10.58,37,37,0,0,0-17.3-3.8h-21.73Z"/><path class="cls-2" d="M1525.56,421.86a46.14,46.14,0,0,1-17.08-3.1,40.75,40.75,0,0,1-13.62-8.68,39.92,39.92,0,0,1-9-13.05,43,43,0,0,1,0-32.65,39.71,39.71,0,0,1,9-13.05,40.73,40.73,0,0,1,13.56-8.68,48.87,48.87,0,0,1,34.15-.06,40.17,40.17,0,0,1,13.57,8.62,39.3,39.3,0,0,1,8.91,13.11,44.19,44.19,0,0,1,0,32.82,39.25,39.25,0,0,1-8.91,13.05,40.19,40.19,0,0,1-13.57,8.63A46.45,46.45,0,0,1,1525.56,421.86Zm0-10.23a32.59,32.59,0,0,0,12.36-2.3,29.47,29.47,0,0,0,9.88-6.49,30.25,30.25,0,0,0,6.56-9.84,31.53,31.53,0,0,0,2.35-12.3,30.65,30.65,0,0,0-8.91-22.07,29.06,29.06,0,0,0-9.88-6.56,34.68,34.68,0,0,0-24.84,0,29.6,29.6,0,0,0-9.94,6.56,30.49,30.49,0,0,0-6.62,9.83,31.16,31.16,0,0,0-2.35,12.24,31.53,31.53,0,0,0,2.35,12.3,29.85,29.85,0,0,0,16.56,16.33A32.85,32.85,0,0,0,1525.56,411.63Z"/><path class="cls-2" d="M1592.13,420.94V340.46h11.49v70.48h43.58v10Z"/><path class="cls-2" d="M1678.24,410.94h46.91v10h-58.4V340.46h56.79v10h-45.3Zm-1-35.76h41.39V385h-41.39Z"/><path class="cls-2" d="M1773.56,421.86a54.83,54.83,0,0,1-17.59-2.81,36.21,36.21,0,0,1-13.23-7.3l4.26-9a37.39,37.39,0,0,0,11.73,6.67,42.33,42.33,0,0,0,14.83,2.64,33.35,33.35,0,0,0,11.38-1.61,13.48,13.48,0,0,0,6.44-4.43,10.48,10.48,0,0,0,2.07-6.38,8.72,8.72,0,0,0-2.7-6.67,20.19,20.19,0,0,0-7-4.08,79.17,79.17,0,0,0-9.48-2.7c-3.45-.76-6.92-1.67-10.41-2.7a46.67,46.67,0,0,1-9.54-4,19.62,19.62,0,0,1-7-6.49,19.06,19.06,0,0,1-2.64-10.52A21.07,21.07,0,0,1,1748,351.1a22.72,22.72,0,0,1,10.11-8.4q6.84-3.15,17.42-3.16a53.66,53.66,0,0,1,13.92,1.84,38.89,38.89,0,0,1,12,5.29l-3.79,9.2a36.86,36.86,0,0,0-10.92-5,42.57,42.57,0,0,0-11.16-1.56,30.67,30.67,0,0,0-11.15,1.73,13.58,13.58,0,0,0-6.38,4.6,11,11,0,0,0-2,6.44,8.86,8.86,0,0,0,2.7,6.78,19.26,19.26,0,0,0,7,4,95.64,95.64,0,0,0,9.49,2.71q5.17,1.2,10.4,2.7a44.23,44.23,0,0,1,9.55,3.91,19.64,19.64,0,0,1,7,6.44,18.51,18.51,0,0,1,2.65,10.34,20.71,20.71,0,0,1-3.34,11.33,23,23,0,0,1-10.29,8.39Q1784.13,421.87,1773.56,421.86Z"/><path class="cls-2" d="M1863.81,421.86a46.07,46.07,0,0,1-17-3,39.77,39.77,0,0,1-13.45-8.63,40.48,40.48,0,0,1-8.91-13.05,43.58,43.58,0,0,1,0-32.88A40,40,0,0,1,1847,342.59a48.51,48.51,0,0,1,34.15.11,35.21,35.21,0,0,1,13.39,9.37l-7.47,7.25a29.92,29.92,0,0,0-10.35-7.19,32.11,32.11,0,0,0-12.3-2.36,33.92,33.92,0,0,0-12.59,2.3,30.24,30.24,0,0,0-10.06,6.44,29,29,0,0,0-6.61,9.83,33.55,33.55,0,0,0,0,24.72,28.93,28.93,0,0,0,6.61,9.83,30.08,30.08,0,0,0,10.06,6.44,33.71,33.71,0,0,0,12.59,2.3,31.93,31.93,0,0,0,12.3-2.36A29.21,29.21,0,0,0,1887,402l7.47,7.25a35.66,35.66,0,0,1-13.39,9.42A45.25,45.25,0,0,1,1863.81,421.86Z"/><path class="cls-2" d="M1928.77,410.94h46.91v10h-58.4V340.46h56.79v10h-45.3Zm-3.56-77,15.29-15h10.58l15.29,15h-10l-15.18-12.65h9.2l-15.18,12.65Zm2.53,41.27h41.39V385h-41.39Z"/><path class="cls-2" d="M2000.63,420.94V340.46h9.43l53.24,66.11h-5V340.46h11.5v80.48h-9.43l-53.23-66.11h4.94v66.11Z"/><path class="cls-2" d="M2136.31,421.86a46,46,0,0,1-17-3,39.58,39.58,0,0,1-13.45-8.63,40.35,40.35,0,0,1-8.92-13.05,43.7,43.7,0,0,1,0-32.88,40,40,0,0,1,22.48-21.67,48.51,48.51,0,0,1,34.15.11,35.13,35.13,0,0,1,13.39,9.37l-7.47,7.25a29.83,29.83,0,0,0-10.35-7.19,32.11,32.11,0,0,0-12.3-2.36,34,34,0,0,0-12.59,2.3,30.34,30.34,0,0,0-10.06,6.44,29,29,0,0,0-6.61,9.83,33.55,33.55,0,0,0,0,24.72,28.93,28.93,0,0,0,6.61,9.83,30.18,30.18,0,0,0,10.06,6.44,33.75,33.75,0,0,0,12.59,2.3,31.93,31.93,0,0,0,12.3-2.36,29.12,29.12,0,0,0,10.35-7.3l7.47,7.25a35.58,35.58,0,0,1-13.39,9.42A45.24,45.24,0,0,1,2136.31,421.86Z"/><path class="cls-2" d="M2189.77,420.94V340.46h11.5v80.48Z"/><path class="cls-2" d="M2219.55,420.94,2256,340.46h11.38l36.56,80.48h-12.07l-32.54-74h4.6l-32.54,74Zm15.52-20.12,3.1-9.2h45.31l3.33,9.2Z"/><path class="cls-2" d="M72.47,570.5a45.78,45.78,0,0,1-16.95-3,39.69,39.69,0,0,1-13.46-8.62,40.58,40.58,0,0,1-8.91-13.05,43.58,43.58,0,0,1,0-32.88,40,40,0,0,1,22.48-21.67,45.83,45.83,0,0,1,17-3.05,45.68,45.68,0,0,1,17.19,3.16,35.21,35.21,0,0,1,13.39,9.37L95.7,508a29.89,29.89,0,0,0-10.35-7.18,32.11,32.11,0,0,0-12.3-2.36,34,34,0,0,0-12.59,2.3,30.08,30.08,0,0,0-10.06,6.44A29,29,0,0,0,43.79,517a33.55,33.55,0,0,0,0,24.72,29,29,0,0,0,6.61,9.83A30.08,30.08,0,0,0,60.46,558a34,34,0,0,0,12.59,2.3,32.11,32.11,0,0,0,12.3-2.36,29.21,29.21,0,0,0,10.35-7.3l7.47,7.24a35.69,35.69,0,0,1-13.39,9.43A45.25,45.25,0,0,1,72.47,570.5Z"/><path class="cls-2" d="M160.55,570.5a46.14,46.14,0,0,1-17.08-3.1,40.75,40.75,0,0,1-13.62-8.68,39.92,39.92,0,0,1-9-13.05,43,43,0,0,1,0-32.66,39.92,39.92,0,0,1,9-13.05,41,41,0,0,1,13.56-8.68,48.95,48.95,0,0,1,34.15,0,40.17,40.17,0,0,1,13.57,8.62A39.3,39.3,0,0,1,200,513a44.19,44.19,0,0,1,0,32.82,39.35,39.35,0,0,1-8.91,13.05,40.17,40.17,0,0,1-13.57,8.62A46.25,46.25,0,0,1,160.55,570.5Zm0-10.23a32.79,32.79,0,0,0,12.36-2.3,29.34,29.34,0,0,0,9.88-6.5,30.1,30.1,0,0,0,6.56-9.83,31.53,31.53,0,0,0,2.35-12.3,30.69,30.69,0,0,0-8.91-22.08,29,29,0,0,0-9.88-6.55,34.68,34.68,0,0,0-24.84,0,29.57,29.57,0,0,0-9.94,6.55,30.64,30.64,0,0,0-6.62,9.84,31.13,31.13,0,0,0-2.35,12.24,31.53,31.53,0,0,0,2.35,12.3A29.93,29.93,0,0,0,148.07,558,33,33,0,0,0,160.55,560.27Z"/><path class="cls-2" d="M227.12,569.58V489.1h9.42l36.11,60.82h-5.06l35.64-60.82h9.43l.11,80.48h-11l-.12-63.12h2.65l-31.74,53.35h-5.29l-32-53.35h2.87v63.12Z"/><path class="cls-2" d="M379.57,570.5a46.12,46.12,0,0,1-17.07-3.1,40.75,40.75,0,0,1-13.62-8.68,39.92,39.92,0,0,1-9-13.05,43,43,0,0,1,0-32.66,39.92,39.92,0,0,1,9-13.05,41,41,0,0,1,13.56-8.68,48.95,48.95,0,0,1,34.15,0,40.26,40.26,0,0,1,13.57,8.62A39.3,39.3,0,0,1,419.07,513a44.19,44.19,0,0,1,0,32.82,39.35,39.35,0,0,1-8.91,13.05,40.26,40.26,0,0,1-13.57,8.62A46.26,46.26,0,0,1,379.57,570.5Zm0-10.23a32.71,32.71,0,0,0,12.36-2.3,29.29,29.29,0,0,0,9.89-6.5,30.26,30.26,0,0,0,6.56-9.83,31.53,31.53,0,0,0,2.35-12.3,30.69,30.69,0,0,0-8.91-22.08,29,29,0,0,0-9.89-6.55,34.66,34.66,0,0,0-24.83,0,29.61,29.61,0,0,0-10,6.55,30.77,30.77,0,0,0-6.61,9.84,31.13,31.13,0,0,0-2.35,12.24,31.53,31.53,0,0,0,2.35,12.3A29.85,29.85,0,0,0,367.1,558,33,33,0,0,0,379.57,560.27Z"/><path class="cls-2" d="M494.89,559.58H541.8v10H483.4V489.1h56.79v10h-45.3Zm-1-35.76h41.39v9.77H493.86Z"/><path class="cls-2" d="M566.75,569.58V489.1h11.5v70.48h43.58v10Z"/><path class="cls-2" d="M629.19,569.58l36.44-80.48H677l36.56,80.48H701.51l-32.54-74h4.6l-32.54,74Zm15.52-20.12,3.1-9.2h45.3l3.34,9.2Z"/><path class="cls-2" d="M769.11,569.58V489.1H803a48.9,48.9,0,0,1,22.71,5.06A37.33,37.33,0,0,1,841,508.3a43.27,43.27,0,0,1,0,42.08,37.33,37.33,0,0,1-15.29,14.14A48.9,48.9,0,0,1,803,569.58Zm11.5-10h21.73a37,37,0,0,0,17.3-3.8A27.56,27.56,0,0,0,831,545.15a33.22,33.22,0,0,0,0-31.68,27.68,27.68,0,0,0-11.33-10.57,37,37,0,0,0-17.3-3.8H780.61Z"/><path class="cls-2" d="M881.9,559.58h46.91v10H870.4V489.1h56.8v10H881.9Zm-1-35.76h41.39v9.77H880.87Z"/><path class="cls-2" d="M975.84,569.58,940.42,489.1h12.42l32.54,74.27h-7.13L1011,489.1h11.5l-35.3,80.48Z"/><path class="cls-2" d="M1050.57,559.58h46.91v10h-58.41V489.1h56.8v10h-45.3Zm-1-35.76h41.39v9.77h-41.39Z"/><path class="cls-2" d="M1183.14,570.5a54.84,54.84,0,0,1-17.59-2.82,35.92,35.92,0,0,1-13.23-7.3l4.26-9a37.18,37.18,0,0,0,11.73,6.66,42.11,42.11,0,0,0,14.83,2.65,33.6,33.6,0,0,0,11.38-1.61,13.48,13.48,0,0,0,6.44-4.43,10.48,10.48,0,0,0,2.07-6.38,8.72,8.72,0,0,0-2.7-6.67,20.19,20.19,0,0,0-7-4.08,79.17,79.17,0,0,0-9.48-2.7q-5.17-1.15-10.41-2.7a46.67,46.67,0,0,1-9.54-4,19.56,19.56,0,0,1-7-6.5q-2.64-4.08-2.64-10.52a21.1,21.1,0,0,1,3.28-11.44,22.77,22.77,0,0,1,10.11-8.39q6.84-3.16,17.42-3.16A53.66,53.66,0,0,1,1199,490a38.65,38.65,0,0,1,12,5.29l-3.79,9.2a37.15,37.15,0,0,0-10.92-5,43,43,0,0,0-11.16-1.55,30.67,30.67,0,0,0-11.15,1.73,13.63,13.63,0,0,0-6.38,4.59,11,11,0,0,0-2,6.44,8.87,8.87,0,0,0,2.7,6.79,19.4,19.4,0,0,0,7,4,93.09,93.09,0,0,0,9.49,2.7q5.18,1.21,10.4,2.71a44.72,44.72,0,0,1,9.55,3.9,19.73,19.73,0,0,1,7,6.44,18.49,18.49,0,0,1,2.65,10.35A20.63,20.63,0,0,1,1211,559a23,23,0,0,1-10.29,8.39Q1193.71,570.51,1183.14,570.5Z"/><path class="cls-2" d="M1248.9,559.58h46.91v10h-58.4V489.1h56.79v10h-45.3Zm-1-35.76h41.39v9.77h-41.39Z"/><path class="cls-2" d="M1320.76,569.58V489.1h31.39q10.57,0,18,3.33a25.6,25.6,0,0,1,11.5,9.66,27.5,27.5,0,0,1,4,15.06,27.21,27.21,0,0,1-4,15,25.67,25.67,0,0,1-11.5,9.6q-7.47,3.33-18,3.33h-25.06l5.17-5.29v29.78Zm11.5-28.63-5.17-5.63h24.72q11,0,16.73-4.77t5.69-13.4q0-8.62-5.69-13.33t-16.73-4.72h-24.72l5.17-5.75Zm42.31,28.63-20.46-29.2h12.3l20.69,29.2Z"/><path class="cls-2" d="M1471.15,569.58l-35.41-80.48h12.42l32.53,74.27h-7.12l32.76-74.27h11.5l-35.3,80.48Z"/><path class="cls-2" d="M1534.39,569.58V489.1h11.49v80.48Z"/><path class="cls-2" d="M1598.77,569.58l-35.41-80.48h12.42l32.54,74.27h-7.13L1634,489.1h11.5l-35.3,80.48Z"/><path class="cls-2" d="M1662,569.58V489.1h11.5v80.48Z"/><path class="cls-2" d="M1704,569.58V489.1h33.92a48.82,48.82,0,0,1,22.7,5.06,37.36,37.36,0,0,1,15.3,14.14,43.27,43.27,0,0,1,0,42.08,37.36,37.36,0,0,1-15.3,14.14,48.82,48.82,0,0,1-22.7,5.06Zm11.5-10h21.73a37.07,37.07,0,0,0,17.3-3.8,27.47,27.47,0,0,0,11.32-10.63,33.14,33.14,0,0,0,0-31.68,27.6,27.6,0,0,0-11.32-10.57,37.07,37.07,0,0,0-17.3-3.8h-21.73Z"/><path class="cls-2" d="M1791.93,569.58l36.45-80.48h11.38l36.57,80.48h-12.08l-32.53-74h4.59l-32.53,74Zm15.53-20.12,3.1-9.2h45.3l3.33,9.2Z"/><path class="cls-2" d="M1898.06,570.27a7.37,7.37,0,0,1-5.41-2.18,7.1,7.1,0,0,1-2.18-5.18,7,7,0,0,1,2.18-5.29,7.57,7.57,0,0,1,5.41-2.07,7.09,7.09,0,0,1,7.36,7.36,7.28,7.28,0,0,1-2.07,5.18A7,7,0,0,1,1898.06,570.27Zm-4.49-26.1-2.07-55.07h13l-2.19,55.07Z"/></g></g></svg>