<svg xmlns="http://www.w3.org/2000/svg" viewBox="0 0 2313.09 581.83"><defs><style>.cls-1{fill:#fff;}</style></defs><title>1</title><g id="Camada_2" data-name="Camada 2"><g id="Camada_1-2" data-name="Camada 1"><g id="DESKTOP1"><rect y="255.21" width="2313.09" height="326.62"/><rect width="1459.67" height="326.62"/><path class="cls-1" d="M-8061.89-3735.41-8107-3862.17h34.18l37.46,109.09h-16.51l39-109.1h30.92l37.69,109.09H-7960l38.35-109.1h32.08l-45.32,126.78h-34.87l-33.5-93.53h10.46l-33.93,93.55Z" transform="translate(8191.59 3982.54)"/><path class="cls-1" d="M-7814-3733.57q-21.39,0-37.44-8.48a62.18,62.18,0,0,1-24.88-23.2q-8.83-14.72-8.84-33.58t8.48-33.69a60.09,60.09,0,0,1,23.71-23.21q15.22-8.37,34.3-8.37a68.33,68.33,0,0,1,33.13,8,59.63,59.63,0,0,1,23.37,22.62q8.61,14.61,8.61,35.1c0,1.42-.08,3-.23,4.83s-.31,3.5-.46,5.07l-101.61,0v-21.44l82.55,0-14.19,6.37a33.78,33.78,0,0,0-3.72-17.2,29.12,29.12,0,0,0-10.93-11.43,31.38,31.38,0,0,0-16.27-4.12,32,32,0,0,0-16.4,4.13,28.55,28.55,0,0,0-11,11.54,36.82,36.82,0,0,0-4,17.56v5.65a35,35,0,0,0,4.66,18.38,30.85,30.85,0,0,0,12.79,11.9q8.13,4.13,19.53,4.12a45.66,45.66,0,0,0,17.32-3.07,42.59,42.59,0,0,0,13.83-9.19l19.3,21.2a56.1,56.1,0,0,1-21.62,15.2Q-7797.06-3733.57-7814-3733.57Z" transform="translate(8191.59 3982.54)"/><path class="cls-1" d="M-7625-3733.6q-14.41,0-24.88-5.06a39.13,39.13,0,0,1-16.16-13.78,35,35,0,0,1-5.7-19.56,36,36,0,0,1,5.46-19.68q5.46-8.59,17.32-13.31t31.16-4.72h33v21.2h-29.3q-12.8,0-17.56,4.24a13.62,13.62,0,0,0-4.76,10.6,13.27,13.27,0,0,0,5.47,11.2q5.46,4.11,14.76,4.12a32.68,32.68,0,0,0,16.63-4.25,23.13,23.13,0,0,0,10.34-13l5.58,17.2a33.21,33.21,0,0,1-14.41,18.26Q-7608.48-3733.59-7625-3733.6Zm38.13-1.89v-24.74l-2.33-5.42v-44.3q0-11.78-7.09-18.38t-21.74-6.59a62.37,62.37,0,0,0-19.65,3.18,54.86,54.86,0,0,0-16.62,8.61l-12.79-25.68a73.22,73.22,0,0,1,24.64-11.44,112.08,112.08,0,0,1,29.3-3.89q28.59,0,44.41,13.66t15.82,42.64v72.34Z" transform="translate(8191.59 3982.54)"/><path class="cls-1" d="M-7520.14-3735.5l0-126.77h34.64v36l-4.88-10.6a40.52,40.52,0,0,1,17.9-20.38q12.32-6.95,30-7V-3830c-1.39-.31-2.75-.55-4.06-.71a34,34,0,0,0-3.84-.23q-15.35,0-24.41,8.72t-9.07,26.86v59.85Z" transform="translate(8191.59 3982.54)"/><path class="cls-1" d="M-7359.93-3733.65q-21.4,0-37.44-8.47a62.2,62.2,0,0,1-24.88-23.21q-8.85-14.72-8.84-33.57t8.48-33.7a60.09,60.09,0,0,1,23.71-23.21q15.22-8.37,34.29-8.37a68.48,68.48,0,0,1,33.14,8,59.84,59.84,0,0,1,23.37,22.62q8.6,14.61,8.61,35.11c0,1.41-.08,3-.23,4.83s-.32,3.49-.47,5.06l-101.61,0V-3810l82.54,0-14.18,6.37a34,34,0,0,0-3.72-17.2,29.12,29.12,0,0,0-10.93-11.43,31.49,31.49,0,0,0-16.28-4.12,32,32,0,0,0-16.39,4.13,28.58,28.58,0,0,0-11,11.55,36.75,36.75,0,0,0-3.95,17.55v5.66a35.12,35.12,0,0,0,4.65,18.37,30.79,30.79,0,0,0,12.79,11.9q8.15,4.13,19.53,4.12a45.63,45.63,0,0,0,17.32-3.07,42.63,42.63,0,0,0,13.84-9.19l19.3,21.2a56.3,56.3,0,0,1-21.62,15.21Q-7343-3733.65-7359.93-3733.65Z" transform="translate(8191.59 3982.54)"/><path class="cls-1" d="M-7133.49-3864.22a57.67,57.67,0,0,1,26.62,6,43.3,43.3,0,0,1,18.49,18.38q6.73,12.38,6.75,31.69v72.57h-36.27v-66.92q0-15.32-6.63-22.62t-18.72-7.3a31.57,31.57,0,0,0-15.46,3.77,26.2,26.2,0,0,0-10.7,11.08q-3.83,7.3-3.83,19.32v62.68h-36.27l0-126.76h34.64v35.11l-6.52-10.6a46.67,46.67,0,0,1,19.3-19.56Q-7149.53-3864.22-7133.49-3864.22Z" transform="translate(8191.59 3982.54)"/><path class="cls-1" d="M-6988.62-3733.71q-19.76,0-35.22-8.48a63.23,63.23,0,0,1-24.31-23.2q-8.84-14.73-8.84-33.58,0-19.08,8.83-33.81a62.43,62.43,0,0,1,24.3-23.09q15.45-8.37,35.22-8.37,20,0,35.58,8.35a62.26,62.26,0,0,1,24.41,23.09q8.85,14.73,8.85,33.81t-8.83,33.7A63.34,63.34,0,0,1-6953-3742.2Q-6968.62-3733.71-6988.62-3733.71Zm0-30.16a32,32,0,0,0,16.39-4.13,30,30,0,0,0,11.39-12.13,39.26,39.26,0,0,0,4.3-18.85q0-11.07-4.31-18.85a30.46,30.46,0,0,0-11.39-11.9,31.66,31.66,0,0,0-16.16-4.12,32.2,32.2,0,0,0-16.28,4.13,30.11,30.11,0,0,0-11.5,11.9q-4.31,7.77-4.3,18.85a39.26,39.26,0,0,0,4.3,18.85,29.86,29.86,0,0,0,11.51,12.13A31.76,31.76,0,0,0-6988.62-3763.87Z" transform="translate(8191.59 3982.54)"/><path class="cls-1" d="M-6910.51-3831.27v-28.28h86.72v28.27Zm66.05,97.54q-22.09,0-34.41-11.43t-12.33-34l0-111.21h36.5l0,110.5q0,8,4.07,12.49t11.05,4.48a23.42,23.42,0,0,0,14.88-4.72l9.54,25.92a37,37,0,0,1-13.14,6A65.34,65.34,0,0,1-6844.46-3733.73Z" transform="translate(8191.59 3982.54)"/><path class="cls-1" d="M-8090.44-3449.32l0-172.47h34.65v25.92l-.69,37.7,2.33,37.46v71.4Zm73.7-43.84q-15.59,0-27.44-7.06t-18.49-21.56q-6.61-14.49-6.63-36.63,0-22.4,6.27-36.76t18.25-21.45q12-7.07,28-7.07,17.9,0,32,8.12a59.58,59.58,0,0,1,22.33,22.74q8.25,14.61,8.26,34.4,0,20-8.25,34.52a59.79,59.79,0,0,1-22.32,22.62Q-7998.84-3493.16-8016.74-3493.16Zm-6.05-30.15a30.94,30.94,0,0,0,16.16-4.25,31.12,31.12,0,0,0,11.39-12.13q4.31-7.91,4.3-18.74,0-11.07-4.31-18.85a30.44,30.44,0,0,0-11.39-11.89,31.56,31.56,0,0,0-16.16-4.12,32.19,32.19,0,0,0-16.28,4.12,30.17,30.17,0,0,0-11.5,11.9q-4.31,7.79-4.3,18.85,0,10.85,4.3,18.73a30.86,30.86,0,0,0,11.51,12.14A31.6,31.6,0,0,0-8022.79-3523.31Z" transform="translate(8191.59 3982.54)"/><path class="cls-1" d="M-7930-3495.06l0-126.76h34.65v36l-4.88-10.6a40.52,40.52,0,0,1,17.9-20.38q12.31-7,30-7v34.17a40,40,0,0,0-4.07-.71,34,34,0,0,0-3.84-.23q-15.35,0-24.41,8.72t-9.06,26.86v59.85Z" transform="translate(8191.59 3982.54)"/><path class="cls-1" d="M-7812.62-3639.51q-10.23,0-16.51-5.89a19.19,19.19,0,0,1-6.28-14.61,19.22,19.22,0,0,1,6.28-14.61q6.27-5.88,16.5-5.89,10,0,16.4,5.53a18,18,0,0,1,6.39,14.26,20.17,20.17,0,0,1-6.27,15.2Q-7802.39-3639.52-7812.62-3639.51Zm-18.11,144.44,0-126.77h36.27l0,126.76Z" transform="translate(8191.59 3982.54)"/><path class="cls-1" d="M-7684.74-3623.75a57.59,57.59,0,0,1,26.63,6,43.26,43.26,0,0,1,18.48,18.37q6.75,12.38,6.75,31.69l0,72.57h-36.28V-3562q0-15.32-6.63-22.61t-18.72-7.31a31.6,31.6,0,0,0-15.46,3.78,26.1,26.1,0,0,0-10.69,11.07q-3.84,7.31-3.84,19.32l0,62.68h-36.28l0-126.77h34.65v35.1l-6.51-10.6a46.67,46.67,0,0,1,19.3-19.56Q-7700.79-3623.73-7684.74-3623.75Z" transform="translate(8191.59 3982.54)"/><path class="cls-1" d="M-7538.7-3493.24q-20.22,0-35.92-8.36a62.41,62.41,0,0,1-24.65-23.2q-9-14.85-9-33.69,0-19.1,8.95-33.7a63.84,63.84,0,0,1,24.64-23.09q15.69-8.49,35.92-8.49,19.76,0,34.53,8.36a48.34,48.34,0,0,1,21.28,23.67l-27.9,15.56q-5.11-9-12.33-13.08a31.34,31.34,0,0,0-15.81-4.12,33.49,33.49,0,0,0-16.51,4.13,30.47,30.47,0,0,0-11.85,11.9q-4.43,7.77-4.42,18.85t4.42,19a30.22,30.22,0,0,0,11.87,12,33.42,33.42,0,0,0,16.5,4.12,31.24,31.24,0,0,0,15.81-4.12q7.22-4.12,12.33-13.32l27.9,15.55a49.08,49.08,0,0,1-21.27,23.56Q-7518.95-3493.24-7538.7-3493.24Z" transform="translate(8191.59 3982.54)"/><path class="cls-1" d="M-7401.28-3493.26q-21.41,0-37.44-8.48a62.11,62.11,0,0,1-24.88-23.2q-8.85-14.73-8.84-33.58t8.48-33.69a60,60,0,0,1,23.71-23.21q15.22-8.37,34.29-8.37a68.26,68.26,0,0,1,33.14,8,59.77,59.77,0,0,1,23.37,22.62q8.61,14.61,8.61,35.1c0,1.42-.08,3-.23,4.83s-.31,3.5-.47,5.07l-101.6,0v-21.44l82.54,0-14.18,6.37a34,34,0,0,0-3.72-17.2,29.12,29.12,0,0,0-10.93-11.43,31.39,31.39,0,0,0-16.28-4.12,32,32,0,0,0-16.39,4.13,28.55,28.55,0,0,0-11,11.54,36.82,36.82,0,0,0-4,17.56v5.65a35.13,35.13,0,0,0,4.65,18.38,30.85,30.85,0,0,0,12.79,11.9q8.15,4.13,19.53,4.12a45.87,45.87,0,0,0,17.33-3.07A42.7,42.7,0,0,0-7369-3535l19.3,21.2a56.1,56.1,0,0,1-21.62,15.2Q-7384.31-3493.26-7401.28-3493.26Z" transform="translate(8191.59 3982.54)"/><path class="cls-1" d="M-7274.56-3493.28a119.3,119.3,0,0,1-30.7-3.88q-14.64-3.89-23.48-9.78l11.85-26.16a90,90,0,0,0,20.58,8.6,82.1,82.1,0,0,0,23.14,3.41q12.56,0,17.78-3.06t5.23-8.48a7.23,7.23,0,0,0-4.07-6.72,35.09,35.09,0,0,0-10.69-3.41q-6.63-1.18-14.77-2.36a143.27,143.27,0,0,1-16.16-3.29,62.59,62.59,0,0,1-14.88-6,29.35,29.35,0,0,1-10.93-10.72q-4.08-6.83-4.07-17.67a34.59,34.59,0,0,1,7-21.32q7-9.32,19.76-14.5t30.92-5.19a119.5,119.5,0,0,1,26.16,2.94,80.43,80.43,0,0,1,22.21,8.13L-7232-3586.6a64.37,64.37,0,0,0-18-7.3,77.75,77.75,0,0,0-17.56-2.11q-12.55,0-18.13,3.3t-5.58,8.48a7.88,7.88,0,0,0,4.19,7.19,32.63,32.63,0,0,0,10.92,3.65q6.75,1.17,14.89,2.35a138.22,138.22,0,0,1,16,3.3,62.87,62.87,0,0,1,14.77,6,29.5,29.5,0,0,1,10.93,10.72q4.07,6.84,4.07,17.67a33,33,0,0,1-7,20.62q-7,9.08-20.11,14.26T-7274.56-3493.28Z" transform="translate(8191.59 3982.54)"/><path class="cls-1" d="M-7151.1-3493.3a119.17,119.17,0,0,1-30.69-3.89q-14.66-3.89-23.49-9.77l11.85-26.16a90,90,0,0,0,20.58,8.6,82.46,82.46,0,0,0,23.14,3.41q12.55,0,17.79-3.06t5.23-8.49a7.22,7.22,0,0,0-4.07-6.71,35.43,35.43,0,0,0-10.7-3.42q-6.63-1.17-14.77-2.35a141.57,141.57,0,0,1-16.16-3.3,62.32,62.32,0,0,1-14.88-6,29.35,29.35,0,0,1-10.93-10.72q-4.06-6.83-4.07-17.67a34.64,34.64,0,0,1,7-21.33q7-9.3,19.76-14.49t30.93-5.19a119.34,119.34,0,0,1,26.15,2.94,80.31,80.31,0,0,1,22.21,8.13l-12.32,26.15a64.37,64.37,0,0,0-18-7.3,78.2,78.2,0,0,0-17.55-2.12q-12.55,0-18.14,3.31t-5.58,8.48a7.9,7.9,0,0,0,4.19,7.19,32.84,32.84,0,0,0,10.93,3.65q6.73,1.17,14.88,2.35a138.22,138.22,0,0,1,16,3.3,62.87,62.87,0,0,1,14.77,6,29.5,29.5,0,0,1,10.93,10.72q4.06,6.84,4.07,17.67a32.93,32.93,0,0,1-7,20.62q-7,9.08-20.11,14.26T-7151.1-3493.3Z" transform="translate(8191.59 3982.54)"/><path class="cls-1" d="M-6965.33-3493.33q-14.41,0-24.88-5.07a39.12,39.12,0,0,1-16.16-13.78,35,35,0,0,1-5.7-19.55,36,36,0,0,1,5.46-19.68q5.46-8.6,17.32-13.31t31.16-4.72h33v21.21h-29.3q-12.8,0-17.55,4.25a13.6,13.6,0,0,0-4.77,10.6,13.25,13.25,0,0,0,5.47,11.19q5.46,4.13,14.76,4.12a32.58,32.58,0,0,0,16.63-4.24,23.09,23.09,0,0,0,10.34-13l5.58,17.2a33.25,33.25,0,0,1-14.41,18.26Q-6948.81-3493.34-6965.33-3493.33Zm38.13-1.9V-3520l-2.33-5.42v-44.29q0-11.79-7.1-18.38t-21.74-6.59a62.37,62.37,0,0,0-19.65,3.18,54.84,54.84,0,0,0-16.62,8.6l-12.79-25.68a73.4,73.4,0,0,1,24.64-11.43,112.14,112.14,0,0,1,29.3-3.89q28.59,0,44.41,13.66t15.82,42.64v72.34Z" transform="translate(8191.59 3982.54)"/><path class="cls-1" d="M-6784.46-3623.9a57.71,57.71,0,0,1,26.63,6,43.34,43.34,0,0,1,18.48,18.38q6.75,12.38,6.75,31.69v72.57h-36.27v-66.92q0-15.32-6.63-22.62t-18.72-7.3a31.57,31.57,0,0,0-15.46,3.77,26.18,26.18,0,0,0-10.69,11.08q-3.84,7.3-3.84,19.32v62.68h-36.27l0-126.76h34.64v35.11l-6.51-10.6a46.65,46.65,0,0,1,19.29-19.56Q-6800.5-3623.9-6784.46-3623.9Z" transform="translate(8191.59 3982.54)"/><path class="cls-1" d="M-6686.31-3447.67a62,62,0,0,1-19.06-3.06,44.93,44.93,0,0,1-15.82-8.48l13.25-26.39a28.93,28.93,0,0,0,9.65,6.12,30.4,30.4,0,0,0,11.05,2.12q7.44,0,12-3.65t8.25-12.14l6.51-15.55,2.79-4,45.09-109.33H-6578l-56.47,134.55q-6.06,15.55-13.83,24.15a44.26,44.26,0,0,1-17.21,12.14A58.71,58.71,0,0,1-6686.31-3447.67Zm21.39-42.65-55.6-131.71h37.21l43.49,106.26Z" transform="translate(8191.59 3982.54)"/><path class="cls-1" d="M-6402.91-3624q14.88,0,26.39,6a42.26,42.26,0,0,1,18,18.38q6.51,12.36,6.51,31.68l0,72.58h-36.28v-66.91q0-15.32-6.16-22.62t-17.33-7.3a28.16,28.16,0,0,0-14.41,3.65,23.86,23.86,0,0,0-9.65,10.84q-3.37,7.18-3.37,18.73v63.62h-36.27v-66.92q0-15.32-6.17-22.62t-17.78-7.3a27.65,27.65,0,0,0-14.19,3.66,24.49,24.49,0,0,0-9.76,10.84q-3.48,7.18-3.48,18.73v63.62h-36.28l0-126.76h34.65v34.4l-6.51-9.89a43.58,43.58,0,0,1,18.37-19.68,55,55,0,0,1,27.2-6.72q17.2,0,30.23,8.83t17.21,27l-12.79-3.54a51.6,51.6,0,0,1,20-23.44Q-6421-3624-6402.91-3624Z" transform="translate(8191.59 3982.54)"/><path class="cls-1" d="M-6259-3493.46q-19.77,0-35.23-8.47a63.16,63.16,0,0,1-24.3-23.21q-8.84-14.71-8.84-33.57,0-19.08,8.83-33.81a62.36,62.36,0,0,1,24.29-23.1q15.47-8.36,35.23-8.37,20,0,35.57,8.36a62.15,62.15,0,0,1,24.42,23.09q8.83,14.72,8.84,33.81T-6199-3525a63.36,63.36,0,0,1-24.41,23.1Q-6239-3493.46-6259-3493.46Zm0-30.15a32.14,32.14,0,0,0,16.4-4.13,30.09,30.09,0,0,0,11.39-12.14,39.35,39.35,0,0,0,4.3-18.85q0-11.07-4.31-18.85a30.51,30.51,0,0,0-11.39-11.89,31.57,31.57,0,0,0-16.17-4.12,32.25,32.25,0,0,0-16.27,4.12,30.2,30.2,0,0,0-11.51,11.9q-4.3,7.79-4.3,18.85a39.35,39.35,0,0,0,4.31,18.85,29.83,29.83,0,0,0,11.51,12.14A31.79,31.79,0,0,0-6259-3523.61Z" transform="translate(8191.59 3982.54)"/><path class="cls-1" d="M-6166-3495.36l0-126.76h34.65v36.05l-4.88-10.6a40.52,40.52,0,0,1,17.9-20.38q12.31-6.95,30-7v34.17a40,40,0,0,0-4.07-.71,34,34,0,0,0-3.84-.23q-15.34,0-24.41,8.72t-9.06,26.86v59.85Z" transform="translate(8191.59 3982.54)"/><path class="cls-1" d="M-6005.75-3493.5q-21.39,0-37.44-8.47a62.27,62.27,0,0,1-24.88-23.21q-8.84-14.71-8.84-33.57t8.48-33.7a60,60,0,0,1,23.71-23.21q15.23-8.37,34.3-8.37a68.47,68.47,0,0,1,33.13,8,59.77,59.77,0,0,1,23.37,22.62q8.61,14.61,8.61,35.11c0,1.41-.08,3-.23,4.83s-.31,3.49-.46,5.06l-101.61,0v-21.44l82.55,0-14.19,6.37a33.78,33.78,0,0,0-3.72-17.2,29.12,29.12,0,0,0-10.93-11.43,31.49,31.49,0,0,0-16.28-4.12,32,32,0,0,0-16.39,4.13,28.58,28.58,0,0,0-11,11.55,36.75,36.75,0,0,0-3.95,17.55v5.65a35.13,35.13,0,0,0,4.65,18.38,30.85,30.85,0,0,0,12.79,11.9q8.15,4.13,19.54,4.12a45.66,45.66,0,0,0,17.32-3.07,42.59,42.59,0,0,0,13.83-9.19l19.3,21.2a56.23,56.23,0,0,1-21.62,15.21Q-5988.78-3493.5-6005.75-3493.5Z" transform="translate(8191.59 3982.54)"/></g></g></g></svg>