<svg xmlns="http://www.w3.org/2000/svg" viewBox="0 0 3295.26 388.38"><defs><style>.cls-1{fill:#fff;}.cls-2{fill:#211915;}</style></defs><title>2</title><g id="Camada_2" data-name="Camada 2"><g id="Camada_1-2" data-name="Camada 1"><g id="DESKTOP2"><path class="cls-1" d="M67.17,270q-15.27,0-26.95-5.84a41.4,41.4,0,0,1-18.18-18q-6.52-12.12-6.51-30.54V147.42h35V210.3q0,15.27,6.4,22.34T75,239.71a28.29,28.29,0,0,0,14.37-3.59,25.47,25.47,0,0,0,10-10.77q3.7-7.18,3.7-18V147.43h34.8V268.24H104.67V234.78l6.06,9.88a42.83,42.83,0,0,1-18,19A52.37,52.37,0,0,1,67.17,270Z" transform="translate(-15.53 -128.47)"/><path class="cls-1" d="M325.18,145.66a54.85,54.85,0,0,1,25.49,5.73,40.48,40.48,0,0,1,17.4,17.51q6.29,11.79,6.28,30.2v69.17h-35V204.49q0-14.6-5.94-21.56t-16.73-7a27.45,27.45,0,0,0-13.92,3.48,22.71,22.71,0,0,0-9.32,10.33q-3.27,6.85-3.26,17.85v60.63h-35V204.48q0-14.59-6-21.56T232,176a27,27,0,0,0-13.69,3.48,23.45,23.45,0,0,0-9.44,10.33q-3.36,6.85-3.37,17.85v60.63h-35V147.44h33.46v32.78l-6.29-9.43A41.8,41.8,0,0,1,215.38,152a53.8,53.8,0,0,1,26.27-6.39q16.62,0,29.19,8.42t16.62,25.71l-12.35-3.37a49.43,49.43,0,0,1,19.31-22.34Q307.66,145.66,325.18,145.66Z" transform="translate(-15.53 -128.47)"/><path class="cls-1" d="M443.28,270.07q-13.92,0-24-4.83a37.69,37.69,0,0,1-15.6-13.14,33,33,0,0,1-5.5-18.64,33.89,33.89,0,0,1,5.28-18.75q5.28-8.19,16.73-12.68t30.09-4.49h31.89v20.21H453.84q-12.34,0-16.95,4a12.89,12.89,0,0,0-4.61,10.11,12.59,12.59,0,0,0,5.28,10.66q5.26,3.93,14.26,3.93a31.71,31.71,0,0,0,16.05-4,22.06,22.06,0,0,0,10-12.35l5.38,16.4a31.82,31.82,0,0,1-13.92,17.4Q459.22,270.08,443.28,270.07Zm36.83-1.79V244.7l-2.25-5.17V197.32q0-11.22-6.85-17.52t-21-6.28a60.71,60.71,0,0,0-19,3,53.21,53.21,0,0,0-16.05,8.2l-12.35-24.48a71.2,71.2,0,0,1,23.8-10.89,109.54,109.54,0,0,1,28.3-3.7q27.62,0,42.88,13t15.27,40.64v68.94Z" transform="translate(-15.53 -128.47)"/><path class="cls-1" d="M762.82,145.71a54.93,54.93,0,0,1,25.48,5.72A40.55,40.55,0,0,1,805.7,169q6.28,11.79,6.29,30.2v69.16H777V204.54q0-14.59-6-21.56t-16.73-7a27.45,27.45,0,0,0-13.92,3.48A22.82,22.82,0,0,0,731,189.83q-3.25,6.84-3.26,17.85V268.3h-35V204.53q0-14.59-5.94-21.56t-17.18-7a27,27,0,0,0-13.7,3.48,23.43,23.43,0,0,0-9.43,10.33q-3.37,6.84-3.37,17.85v60.62h-35l0-120.81h33.45v32.78l-6.29-9.43A41.91,41.91,0,0,1,653,152.09a53.84,53.84,0,0,1,26.28-6.39q16.61,0,29.19,8.42t16.61,25.71l-12.35-3.37a49.43,49.43,0,0,1,19.31-22.34Q745.31,145.7,762.82,145.71Z" transform="translate(-15.53 -128.47)"/><path class="cls-1" d="M880.92,270.12q-13.93,0-24-4.83a37.66,37.66,0,0,1-15.61-13.14,33,33,0,0,1-5.49-18.64,33.88,33.88,0,0,1,5.27-18.75q5.28-8.19,16.73-12.68t30.09-4.49h31.89V217.8h-28.3q-12.35,0-17,4a12.87,12.87,0,0,0-4.6,10.1,12.6,12.6,0,0,0,5.27,10.67q5.28,3.93,14.26,3.93a31.85,31.85,0,0,0,16.06-4,22.08,22.08,0,0,0,10-12.35l5.39,16.39A31.83,31.83,0,0,1,907,264Q896.87,270.12,880.92,270.12Zm36.82-1.8V244.75l-2.24-5.17V197.37q0-11.24-6.84-17.52t-21-6.29a61,61,0,0,0-19,3,53.15,53.15,0,0,0-16.06,8.2l-12.35-24.48a71.16,71.16,0,0,1,23.81-10.89,109.52,109.52,0,0,1,28.29-3.7q27.61,0,42.89,13t15.26,40.64v68.94Z" transform="translate(-15.53 -128.47)"/><path class="cls-1" d="M982.18,268.33l0-120.8h33.45v34.36l-4.71-10.11a38.75,38.75,0,0,1,17.29-19.42q11.89-6.62,29-6.62V178.3a39.53,39.53,0,0,0-3.93-.68,33.94,33.94,0,0,0-3.7-.22q-14.82,0-23.58,8.3t-8.76,25.6v57Z" transform="translate(-15.53 -128.47)"/><path class="cls-1" d="M1135.33,270.15q-19.55,0-34.69-8a59.6,59.6,0,0,1-32.45-54.23q0-18.19,8.65-32.11a61.31,61.31,0,0,1,23.81-22q15.15-8.09,34.69-8.08,19.08,0,33.34,8a46.28,46.28,0,0,1,20.55,22.57l-27,14.82q-4.93-8.54-11.9-12.47a30.63,30.63,0,0,0-15.27-3.93,32.66,32.66,0,0,0-15.94,3.93A29.22,29.22,0,0,0,1107.72,190q-4.28,7.41-4.27,18t4.26,18.08a29,29,0,0,0,11.45,11.45,32.68,32.68,0,0,0,15.94,3.93,30.52,30.52,0,0,0,15.27-3.92q7-3.93,11.91-12.69l26.94,14.82a47,47,0,0,1-20.55,22.46Q1154.41,270.14,1135.33,270.15Z" transform="translate(-15.53 -128.47)"/><path class="cls-1" d="M1246.92,270.16q-13.92,0-24-4.83a37.66,37.66,0,0,1-15.61-13.14,33,33,0,0,1-5.5-18.64,33.89,33.89,0,0,1,5.28-18.75q5.28-8.19,16.73-12.68t30.09-4.49h31.89v20.21h-28.3q-12.35,0-17,4a12.88,12.88,0,0,0-4.61,10.1,12.6,12.6,0,0,0,5.28,10.67q5.28,3.93,14.26,3.93a31.81,31.81,0,0,0,16-4,22.06,22.06,0,0,0,10-12.35l5.38,16.39A31.77,31.77,0,0,1,1273,264Q1262.86,270.16,1246.92,270.16Zm36.83-1.79V244.79l-2.24-5.17V197.41q0-11.24-6.85-17.52t-21-6.29a61,61,0,0,0-19,3,53.15,53.15,0,0,0-16.06,8.2l-12.35-24.48a71.16,71.16,0,0,1,23.81-10.89,109.52,109.52,0,0,1,28.29-3.7q27.61,0,42.89,13t15.26,40.64v68.94Z" transform="translate(-15.53 -128.47)"/><path class="cls-1" d="M496.24,516.77a70.35,70.35,0,0,1-15.72-1.69A38.33,38.33,0,0,1,468,510l9.43-25.37a25.22,25.22,0,0,0,14.82,4.27q6.74,0,10.45-4.27t3.7-13.47V350.61h35V471q0,21.11-11.79,33.45T496.24,516.77Zm27.64-183q-9.89,0-15.94-5.62a19,19,0,0,1,0-27.84q6.06-5.61,15.95-5.61,9.65,0,15.83,5.28a17,17,0,0,1,6.17,13.58A19,19,0,0,1,539.82,328Q533.76,333.77,523.88,333.77Z" transform="translate(-15.53 -128.47)"/><path class="cls-1" d="M631.2,473.22q-19.1,0-34-8.08A60.61,60.61,0,0,1,573.72,443q-8.54-14-8.53-32,0-18.19,8.53-32.23a60,60,0,0,1,23.47-22q14.94-8,34-8,19.31,0,34.36,8a59.78,59.78,0,0,1,23.57,22q8.54,14,8.53,32.22t-8.54,32.11a60.8,60.8,0,0,1-23.58,22Q650.51,473.23,631.2,473.22Zm0-28.74A31.24,31.24,0,0,0,647,440.55,28.71,28.71,0,0,0,658,429a37,37,0,0,0,4.16-18q0-10.56-4.15-18a29.22,29.22,0,0,0-11-11.34,30.81,30.81,0,0,0-15.61-3.93,31.41,31.41,0,0,0-15.72,3.93,28.94,28.94,0,0,0-11.11,11.34q-4.17,7.41-4.16,18a37,37,0,0,0,4.15,18,28.55,28.55,0,0,0,11.12,11.57A30.92,30.92,0,0,0,631.2,444.48Z" transform="translate(-15.53 -128.47)"/><path class="cls-1" d="M750.66,471.44,699.92,350.63h35.93l42.2,104h-18l44-104h33.46l-51,120.8Z" transform="translate(-15.53 -128.47)"/><path class="cls-1" d="M908.51,473.25q-20.65,0-36.15-8.08a59.79,59.79,0,0,1-24-22.13q-8.54-14-8.52-32T848,378.94a57.73,57.73,0,0,1,22.91-22.12,68.42,68.42,0,0,1,33.12-8,66.83,66.83,0,0,1,32,7.64,57.38,57.38,0,0,1,22.56,21.56q8.31,13.93,8.31,33.46c0,1.35-.08,2.88-.23,4.6s-.3,3.34-.45,4.83H868.1V400.5h79.71l-13.7,6.07a31.94,31.94,0,0,0-3.59-16.4A27.9,27.9,0,0,0,920,379.28a30.62,30.62,0,0,0-15.72-3.93,31.24,31.24,0,0,0-15.83,3.93,27.34,27.34,0,0,0-10.66,11A34.68,34.68,0,0,0,873.94,407v5.39a33.08,33.08,0,0,0,4.49,17.51,29.52,29.52,0,0,0,12.34,11.34q7.86,3.93,18.87,3.93a44.66,44.66,0,0,0,16.72-2.91,41.31,41.31,0,0,0,13.37-8.76l18.63,20.21a54.19,54.19,0,0,1-20.88,14.48Q924.9,473.26,908.51,473.25Z" transform="translate(-15.53 -128.47)"/><path class="cls-1" d="M1145,348.88a54.85,54.85,0,0,1,25.49,5.73,40.66,40.66,0,0,1,17.4,17.52q6.27,11.79,6.28,30.2v69.16h-35V407.71q0-14.59-5.95-21.55t-16.73-7a27.45,27.45,0,0,0-13.92,3.48,22.87,22.87,0,0,0-9.32,10.33q-3.26,6.86-3.26,17.85v60.63h-35V407.7q0-14.58-6-21.55t-17.18-7a27,27,0,0,0-13.7,3.48,23.54,23.54,0,0,0-9.43,10.33q-3.37,6.86-3.37,17.85v60.63h-35l0-120.81h33.45v32.79l-6.29-9.43a41.83,41.83,0,0,1,17.75-18.75,53.69,53.69,0,0,1,26.27-6.4q16.61,0,29.19,8.42T1107.24,383l-12.35-3.37a49.4,49.4,0,0,1,19.32-22.34Q1127.46,348.87,1145,348.88Z" transform="translate(-15.53 -128.47)"/><path class="cls-1" d="M1248.48,416.71a33.89,33.89,0,0,1,2.58-13.59,45.76,45.76,0,0,1,6.52-10.78,78.76,78.76,0,0,1,8.42-8.87q4.49-4,8.42-7.74a40.92,40.92,0,0,0,6.51-7.75,16.72,16.72,0,0,0,2.58-9.2,15.23,15.23,0,0,0-6.62-12.8q-6.62-5-17.4-5a40.13,40.13,0,0,0-19.2,4.38,38,38,0,0,0-13.59,12.24l-27.16-15.95a64.42,64.42,0,0,1,25-22q15.83-8.08,38.51-8.08,17.06,0,29.86,4.83t20,14q7.18,9.21,7.19,22.45a39.9,39.9,0,0,1-9.66,27.4,96.42,96.42,0,0,1-9.1,9.2c-3.22,2.85-6.25,5.61-9.09,8.31a40.12,40.12,0,0,0-7,8.53,19.68,19.68,0,0,0-2.7,10.33Zm17.06,56.58a20.7,20.7,0,0,1-15.27-6.06,19.64,19.64,0,0,1-6.06-14.37,18.82,18.82,0,0,1,6.06-14.26,21.36,21.36,0,0,1,15.27-5.73q9.66,0,15.61,5.73a19,19,0,0,1,5.95,14.26,19.84,19.84,0,0,1-5.95,14.37Q1275.2,473.29,1265.54,473.29Z" transform="translate(-15.53 -128.47)"/><rect class="cls-1" x="1778.24" y="115.44" width="1517.02" height="137.91"/><rect class="cls-1" x="1351.26" y="250.47" width="1559.8" height="137.91"/><path class="cls-1" d="M1427.82,218.91a40.56,40.56,0,0,1-14.94-2.7,35.2,35.2,0,0,1-11.93-7.65A35.56,35.56,0,0,1,1393.1,197a38.56,38.56,0,0,1,0-28.85A35.28,35.28,0,0,1,1412.83,149a42.66,42.66,0,0,1,29.87,0,35.65,35.65,0,0,1,11.88,7.59,34.72,34.72,0,0,1,7.85,11.53,38.82,38.82,0,0,1,0,29,34.58,34.58,0,0,1-7.85,11.52,35.68,35.68,0,0,1-11.88,7.6A40.09,40.09,0,0,1,1427.82,218.91Zm0-6.73A31.62,31.62,0,0,0,1439.7,210a28.19,28.19,0,0,0,9.48-6.22,29.14,29.14,0,0,0,6.27-9.38,32.07,32.07,0,0,0,0-23.55,29,29,0,0,0-6.27-9.38,28,28,0,0,0-9.48-6.22,31.62,31.62,0,0,0-11.88-2.19,32,32,0,0,0-11.93,2.19,28.41,28.41,0,0,0-9.59,6.22,28.69,28.69,0,0,0-6.32,9.38,31.94,31.94,0,0,0,0,23.5A28.32,28.32,0,0,0,1415.89,210,32,32,0,0,0,1427.82,212.18Z" transform="translate(-15.53 -128.47)"/><path class="cls-1" d="M1540.07,218.91a40.56,40.56,0,0,1-14.94-2.7,35.2,35.2,0,0,1-11.93-7.65,35.56,35.56,0,0,1-7.85-11.52,38.56,38.56,0,0,1,0-28.85A35.28,35.28,0,0,1,1525.08,149a42.66,42.66,0,0,1,29.87,0,35.65,35.65,0,0,1,11.88,7.59,34.72,34.72,0,0,1,7.85,11.53,38.69,38.69,0,0,1,0,29,34.58,34.58,0,0,1-7.85,11.52,35.68,35.68,0,0,1-11.88,7.6A40.09,40.09,0,0,1,1540.07,218.91Zm0-6.73A31.62,31.62,0,0,0,1552,210a28.19,28.19,0,0,0,9.48-6.22,29,29,0,0,0,6.27-9.43,31.94,31.94,0,0,0,0-23.5,29,29,0,0,0-6.27-9.38,28,28,0,0,0-9.48-6.22,31.62,31.62,0,0,0-11.88-2.19,32,32,0,0,0-11.93,2.19,28.27,28.27,0,0,0-9.58,6.22,28.57,28.57,0,0,0-6.33,9.38,31.94,31.94,0,0,0,0,23.5A28.4,28.4,0,0,0,1528.14,210,32,32,0,0,0,1540.07,212.18Zm23.35,20.29a24.21,24.21,0,0,1-6.33-.82,25.63,25.63,0,0,1-6.16-2.6,39.64,39.64,0,0,1-6.38-4.64q-3.25-2.85-7.13-6.93l8.26-2a46,46,0,0,0,6.16,6.22,23.37,23.37,0,0,0,5.92,3.62,15.28,15.28,0,0,0,5.76,1.17,17.27,17.27,0,0,0,13.56-6.52l3.67,4.38A21.46,21.46,0,0,1,1563.42,232.47Z" transform="translate(-15.53 -128.47)"/><path class="cls-1" d="M1623.16,218.91q-13.67,0-21.51-7.85t-7.85-23.25V146.93h7.54v40.58q0,12.65,5.71,18.65t16.11,6q10.5,0,16.21-6t5.71-18.65V146.93h7.34v40.88q0,15.41-7.8,23.25T1623.16,218.91Z" transform="translate(-15.53 -128.47)"/><path class="cls-1" d="M1682.7,211.77h42.93v6.53h-50.47V146.93h48.94v6.52h-41.4Zm-.81-32.93h37.72v6.42h-37.72Z" transform="translate(-15.53 -128.47)"/><path class="cls-1" d="M1789.75,218.91a45.11,45.11,0,0,1-15.24-2.6,29.06,29.06,0,0,1-11.26-6.68l3-5.81a30.21,30.21,0,0,0,10.15,6.17,36.45,36.45,0,0,0,13.4,2.5,29.86,29.86,0,0,0,11-1.69,13.26,13.26,0,0,0,6.22-4.53,10.8,10.8,0,0,0,2-6.32,9.45,9.45,0,0,0-2.39-6.73,16.61,16.61,0,0,0-6.27-4,69.16,69.16,0,0,0-8.57-2.6c-3.13-.75-6.25-1.55-9.38-2.4a39.24,39.24,0,0,1-8.61-3.41,18,18,0,0,1-6.33-5.66,16.16,16.16,0,0,1-2.39-9.23,17.82,17.82,0,0,1,2.8-9.73,19.55,19.55,0,0,1,8.62-7.14q5.8-2.7,14.88-2.7a43.45,43.45,0,0,1,11.93,1.68,34.45,34.45,0,0,1,10.2,4.64l-2.55,6a33.68,33.68,0,0,0-9.74-4.48,37.18,37.18,0,0,0-9.94-1.43,28,28,0,0,0-10.6,1.73,13.47,13.47,0,0,0-6.17,4.64,11.35,11.35,0,0,0-2,6.58,9.41,9.41,0,0,0,2.4,6.73,15.88,15.88,0,0,0,6.32,4,75.52,75.52,0,0,0,8.61,2.55q4.7,1.13,9.33,2.45a43.29,43.29,0,0,1,8.57,3.42,17.62,17.62,0,0,1,6.32,5.55,15.72,15.72,0,0,1,2.39,9.08,17.49,17.49,0,0,1-2.85,9.63,19.85,19.85,0,0,1-8.72,7.14Q1798.93,218.91,1789.75,218.91Z" transform="translate(-15.53 -128.47)"/><path class="cls-1" d="M1821.36,218.3,1854,146.93h7.45l32.62,71.37h-8l-30-67h3l-30,67Zm12.85-19.07,2.24-6.12h41.49l2.25,6.12Z" transform="translate(-15.53 -128.47)"/><path class="cls-1" d="M1905.88,218.3V146.93h30.79q11.92,0,18.51,4.79t6.57,13.56a17,17,0,0,1-2.7,9.79,16.86,16.86,0,0,1-7.34,6,25,25,0,0,1-10.15,2l1.74-2.44a30,30,0,0,1,11.77,2.09,16.78,16.78,0,0,1,7.7,6.22,18,18,0,0,1,2.75,10.24q0,9.08-6.67,14.07t-20.14,5Zm7.54-6.22h25.19q9.38,0,14.37-3.21t5-10.25q0-6.93-5-10.14t-14.37-3.22h-26V179h23.55q8.56,0,13.31-3.26t4.74-9.68q0-6.53-4.74-9.74t-13.31-3.21h-22.74Z" transform="translate(-15.53 -128.47)"/><path class="cls-1" d="M1990.3,211.77h42.92v6.53h-50.47V146.93h48.94v6.52H1990.3Zm-.82-32.93h37.73v6.42h-37.73Z" transform="translate(-15.53 -128.47)"/><path class="cls-1" d="M2051,218.3V146.93h6.22l32.63,55.67h-3.27l32.32-55.67h6.22V218.3h-7.24V158.25h1.74l-29.77,51h-3.57l-30-51h1.94V218.3Z" transform="translate(-15.53 -128.47)"/><path class="cls-1" d="M2179.53,218.91a40.56,40.56,0,0,1-14.94-2.7,35.11,35.11,0,0,1-11.93-7.65,35.56,35.56,0,0,1-7.85-11.52,38.56,38.56,0,0,1,0-28.85A35.28,35.28,0,0,1,2164.54,149a42.66,42.66,0,0,1,29.87,0,35.85,35.85,0,0,1,11.88,7.59,34.87,34.87,0,0,1,7.85,11.53,38.82,38.82,0,0,1,0,29,34.73,34.73,0,0,1-7.85,11.52,35.88,35.88,0,0,1-11.88,7.6A40.13,40.13,0,0,1,2179.53,218.91Zm0-6.73A31.53,31.53,0,0,0,2191.4,210a28.13,28.13,0,0,0,9.49-6.22,29.14,29.14,0,0,0,6.27-9.38,32.07,32.07,0,0,0,0-23.55,29,29,0,0,0-6.27-9.38,28,28,0,0,0-9.49-6.22,31.53,31.53,0,0,0-11.87-2.19,32,32,0,0,0-11.93,2.19,28.44,28.44,0,0,0-15.91,15.6,31.94,31.94,0,0,0,0,23.5A28.32,28.32,0,0,0,2167.6,210,32,32,0,0,0,2179.53,212.18Z" transform="translate(-15.53 -128.47)"/><path class="cls-1" d="M2253.54,218.91a45.11,45.11,0,0,1-15.24-2.6,29.06,29.06,0,0,1-11.26-6.68l2.95-5.81a30.21,30.21,0,0,0,10.15,6.17,36.45,36.45,0,0,0,13.4,2.5,29.86,29.86,0,0,0,11-1.69,13.26,13.26,0,0,0,6.22-4.53,10.8,10.8,0,0,0,2-6.32,9.45,9.45,0,0,0-2.39-6.73,16.61,16.61,0,0,0-6.27-4,69.16,69.16,0,0,0-8.57-2.6c-3.13-.75-6.25-1.55-9.38-2.4a39.24,39.24,0,0,1-8.61-3.41,18,18,0,0,1-6.33-5.66,16.16,16.16,0,0,1-2.39-9.23,17.82,17.82,0,0,1,2.8-9.73,19.55,19.55,0,0,1,8.62-7.14q5.8-2.7,14.88-2.7A43.45,43.45,0,0,1,2267,148a34.45,34.45,0,0,1,10.2,4.64l-2.55,6a33.68,33.68,0,0,0-9.74-4.48,37.18,37.18,0,0,0-9.94-1.43,28,28,0,0,0-10.6,1.73,13.47,13.47,0,0,0-6.17,4.64,11.35,11.35,0,0,0-2,6.58,9.41,9.41,0,0,0,2.4,6.73,15.88,15.88,0,0,0,6.32,4,75.52,75.52,0,0,0,8.61,2.55q4.7,1.13,9.33,2.45a43.29,43.29,0,0,1,8.57,3.42,17.62,17.62,0,0,1,6.32,5.55,15.72,15.72,0,0,1,2.39,9.08,17.49,17.49,0,0,1-2.85,9.63,19.85,19.85,0,0,1-8.72,7.14Q2262.72,218.91,2253.54,218.91Z" transform="translate(-15.53 -128.47)"/><path class="cls-1" d="M2330.82,211.77h42.93v6.53h-50.47V146.93h48.94v6.52h-41.4Zm-.81-32.93h37.72v6.42H2330Zm11.21-37.72,14-12.65h9.69l-16.52,12.65Z" transform="translate(-15.53 -128.47)"/><path class="cls-1" d="M2449.4,218.91a40.56,40.56,0,0,1-14.94-2.7,35.2,35.2,0,0,1-11.93-7.65,35.56,35.56,0,0,1-7.85-11.52,38.56,38.56,0,0,1,0-28.85A35.28,35.28,0,0,1,2434.41,149a42.66,42.66,0,0,1,29.87,0,35.65,35.65,0,0,1,11.88,7.59,34.87,34.87,0,0,1,7.85,11.53,38.82,38.82,0,0,1,0,29,34.73,34.73,0,0,1-7.85,11.52,35.68,35.68,0,0,1-11.88,7.6A40.09,40.09,0,0,1,2449.4,218.91Zm0-6.73a31.53,31.53,0,0,0,11.87-2.19,28.13,28.13,0,0,0,9.49-6.22,29,29,0,0,0,6.27-9.43,31.94,31.94,0,0,0,0-23.5,29,29,0,0,0-6.27-9.38,28,28,0,0,0-9.49-6.22,31.53,31.53,0,0,0-11.87-2.19,32,32,0,0,0-11.93,2.19,28.44,28.44,0,0,0-15.91,15.6,31.94,31.94,0,0,0,0,23.5A28.32,28.32,0,0,0,2437.47,210,32,32,0,0,0,2449.4,212.18Zm23.34,20.29a24.19,24.19,0,0,1-6.32-.82,25.46,25.46,0,0,1-6.16-2.6,39.64,39.64,0,0,1-6.38-4.64q-3.26-2.85-7.13-6.93l8.25-2a46.56,46.56,0,0,0,6.17,6.22,23.37,23.37,0,0,0,5.92,3.62,15.28,15.28,0,0,0,5.76,1.17,17.27,17.27,0,0,0,13.56-6.52l3.67,4.38A21.46,21.46,0,0,1,2472.74,232.47Z" transform="translate(-15.53 -128.47)"/><path class="cls-1" d="M2532.49,218.91q-13.66,0-21.51-7.85t-7.85-23.25V146.93h7.54v40.58q0,12.65,5.71,18.65t16.11,6q10.5,0,16.21-6t5.71-18.65V146.93h7.34v40.88q0,15.41-7.8,23.25T2532.49,218.91Z" transform="translate(-15.53 -128.47)"/><path class="cls-1" d="M2592,211.77H2635v6.53h-50.46V146.93h48.93v6.52H2592Zm-.81-32.93h37.72v6.42h-37.72Z" transform="translate(-15.53 -128.47)"/><path class="cls-1" d="M2679.4,218.3V146.93h6.22l49.25,62h-3.26v-62h7.44V218.3h-6.22l-49.14-62H2687v62Z" transform="translate(-15.53 -128.47)"/><path class="cls-1" d="M2750.87,218.3l32.63-71.37h7.44l32.63,71.37h-8l-30-67h3.06l-30,67Zm12.85-19.07,2.24-6.12h41.5l2.24,6.12Zm30.49-58.72a8.43,8.43,0,0,1-4.18-1,16.75,16.75,0,0,1-3.32-2.4,36,36,0,0,0-2.9-2.45,4.92,4.92,0,0,0-3-1.07,4.49,4.49,0,0,0-3.72,1.74,8.37,8.37,0,0,0-1.58,4.79h-4.39a13.45,13.45,0,0,1,2.7-8.16,8,8,0,0,1,6.48-3.06,8.47,8.47,0,0,1,4.23,1.07,17.7,17.7,0,0,1,3.36,2.45,33.43,33.43,0,0,0,2.86,2.4,4.82,4.82,0,0,0,2.91,1,4.73,4.73,0,0,0,3.77-1.69,7.36,7.36,0,0,0,1.53-4.64h4.38a12.45,12.45,0,0,1-2.65,8A8.11,8.11,0,0,1,2794.21,140.51Z" transform="translate(-15.53 -128.47)"/><path class="cls-1" d="M2865.57,218.91a40.51,40.51,0,0,1-14.93-2.7A35.16,35.16,0,0,1,2830.86,197a38.43,38.43,0,0,1,0-28.85A35.28,35.28,0,0,1,2850.59,149a42.66,42.66,0,0,1,29.87,0,35.85,35.85,0,0,1,11.88,7.59,34.87,34.87,0,0,1,7.85,11.53,38.82,38.82,0,0,1,0,29,34.73,34.73,0,0,1-7.85,11.52,35.88,35.88,0,0,1-11.88,7.6A40.15,40.15,0,0,1,2865.57,218.91Zm0-6.73a31.58,31.58,0,0,0,11.88-2.19,28,28,0,0,0,9.48-6.22,28.82,28.82,0,0,0,6.27-9.38,31.94,31.94,0,0,0,0-23.55,28.71,28.71,0,0,0-6.27-9.38,27.85,27.85,0,0,0-9.48-6.22,31.58,31.58,0,0,0-11.88-2.19,31.94,31.94,0,0,0-11.92,2.19,28.44,28.44,0,0,0-15.91,15.6,31.94,31.94,0,0,0,0,23.5A28.32,28.32,0,0,0,2853.65,210,31.94,31.94,0,0,0,2865.57,212.18Z" transform="translate(-15.53 -128.47)"/><path class="cls-1" d="M1416.3,350.55a45.12,45.12,0,0,1-15.25-2.6,29.18,29.18,0,0,1-11.26-6.68l3-5.81a30.19,30.19,0,0,0,10.15,6.16,36.33,36.33,0,0,0,13.41,2.5,30.13,30.13,0,0,0,11-1.68,13.25,13.25,0,0,0,6.22-4.54,10.84,10.84,0,0,0,2-6.32,9.47,9.47,0,0,0-2.39-6.73,16.47,16.47,0,0,0-6.27-4,67.49,67.49,0,0,0-8.57-2.6q-4.68-1.12-9.38-2.4a39.46,39.46,0,0,1-8.61-3.42,17.71,17.71,0,0,1-6.32-5.65,16.09,16.09,0,0,1-2.4-9.23,17.88,17.88,0,0,1,2.8-9.74,19.65,19.65,0,0,1,8.62-7.13q5.8-2.71,14.89-2.71a43,43,0,0,1,11.92,1.69,34.32,34.32,0,0,1,10.2,4.63l-2.55,6a33.85,33.85,0,0,0-9.74-4.49,37.16,37.16,0,0,0-9.94-1.42,28,28,0,0,0-10.6,1.73,13.46,13.46,0,0,0-6.17,4.64,11.43,11.43,0,0,0-2,6.58,9.39,9.39,0,0,0,2.4,6.72,16,16,0,0,0,6.32,4,80,80,0,0,0,8.62,2.55c3.12.75,6.23,1.56,9.33,2.45a43.8,43.8,0,0,1,8.56,3.41,17.74,17.74,0,0,1,6.32,5.56,15.61,15.61,0,0,1,2.4,9.07,17.51,17.51,0,0,1-2.86,9.64,19.9,19.9,0,0,1-8.72,7.13C1427.43,349.65,1422.41,350.55,1416.3,350.55Z" transform="translate(-15.53 -128.47)"/><path class="cls-1" d="M1490.52,350.55a40.36,40.36,0,0,1-14.94-2.71,35.18,35.18,0,0,1-11.93-7.64,35.56,35.56,0,0,1-7.85-11.52,38.58,38.58,0,0,1,0-28.86,35.22,35.22,0,0,1,19.73-19.16,42.51,42.51,0,0,1,29.87,0,35.65,35.65,0,0,1,11.88,7.59,34.58,34.58,0,0,1,7.85,11.52,38.71,38.71,0,0,1,0,29,34.58,34.58,0,0,1-7.85,11.52,35.65,35.65,0,0,1-11.88,7.59A39.9,39.9,0,0,1,1490.52,350.55Zm0-6.73a31.43,31.43,0,0,0,11.88-2.2,28.17,28.17,0,0,0,9.48-6.21,29.25,29.25,0,0,0,6.27-9.38,32.1,32.1,0,0,0,0-23.56,29.25,29.25,0,0,0-6.27-9.38,28.34,28.34,0,0,0-9.48-6.22,31.62,31.62,0,0,0-11.88-2.19,32,32,0,0,0-11.93,2.19,28.52,28.52,0,0,0-15.91,15.6,31.94,31.94,0,0,0,0,23.5,28.32,28.32,0,0,0,15.91,15.65A31.8,31.8,0,0,0,1490.52,343.82Z" transform="translate(-15.53 -128.47)"/><path class="cls-1" d="M1544.86,349.93V278.57h6.22l32.62,55.66h-3.26l32.32-55.66H1619v71.36h-7.24V289.88h1.74l-29.78,51h-3.56l-30-51h1.94v60.05Z" transform="translate(-15.53 -128.47)"/><path class="cls-1" d="M1673.42,350.55a40.31,40.31,0,0,1-14.93-2.71,35.11,35.11,0,0,1-19.78-19.16,38.58,38.58,0,0,1,0-28.86,35.22,35.22,0,0,1,19.73-19.16,42.51,42.51,0,0,1,29.87,0,35.85,35.85,0,0,1,11.88,7.59,34.73,34.73,0,0,1,7.85,11.52,38.84,38.84,0,0,1,0,29,34.73,34.73,0,0,1-7.85,11.52,35.85,35.85,0,0,1-11.88,7.59A40,40,0,0,1,1673.42,350.55Zm0-6.73a31.36,31.36,0,0,0,11.88-2.2,28,28,0,0,0,9.48-6.21,28.93,28.93,0,0,0,6.27-9.38,32,32,0,0,0,0-23.56,28.93,28.93,0,0,0-6.27-9.38,28.14,28.14,0,0,0-9.48-6.22,31.55,31.55,0,0,0-11.88-2.19,31.94,31.94,0,0,0-11.92,2.19,28.44,28.44,0,0,0-15.91,15.6,31.94,31.94,0,0,0,0,23.5,28.24,28.24,0,0,0,15.91,15.65A31.75,31.75,0,0,0,1673.42,343.82Z" transform="translate(-15.53 -128.47)"/><path class="cls-1" d="M1747.44,350.55a45.11,45.11,0,0,1-15.24-2.6,29.31,29.31,0,0,1-11.27-6.68l3-5.81a30.19,30.19,0,0,0,10.15,6.16,36.24,36.24,0,0,0,13.4,2.5,30.09,30.09,0,0,0,11-1.68,13.2,13.2,0,0,0,6.22-4.54,10.78,10.78,0,0,0,2-6.32,9.43,9.43,0,0,0-2.4-6.73,16.32,16.32,0,0,0-6.27-4,66.83,66.83,0,0,0-8.56-2.6c-3.13-.75-6.25-1.55-9.38-2.4a39.26,39.26,0,0,1-8.61-3.42,17.83,17.83,0,0,1-6.33-5.65,16.16,16.16,0,0,1-2.39-9.23,17.88,17.88,0,0,1,2.8-9.74,19.6,19.6,0,0,1,8.62-7.13q5.81-2.71,14.88-2.71a43.09,43.09,0,0,1,11.93,1.69,34.44,34.44,0,0,1,10.2,4.63l-2.55,6a34,34,0,0,0-9.74-4.49,37.21,37.21,0,0,0-9.94-1.42,28,28,0,0,0-10.6,1.73,13.41,13.41,0,0,0-6.17,4.64,11.35,11.35,0,0,0-2,6.58,9.39,9.39,0,0,0,2.4,6.72,15.9,15.9,0,0,0,6.32,4,79.81,79.81,0,0,0,8.61,2.55c3.13.75,6.24,1.56,9.33,2.45a43.89,43.89,0,0,1,8.57,3.41,17.74,17.74,0,0,1,6.32,5.56,15.69,15.69,0,0,1,2.39,9.07,17.5,17.5,0,0,1-2.85,9.64,19.9,19.9,0,0,1-8.72,7.13Q1756.61,350.55,1747.44,350.55Z" transform="translate(-15.53 -128.47)"/><path class="cls-2" d="M1817.18,349.93V278.57h6.22l49.24,62h-3.26v-62h7.44v71.36h-6.22l-49.14-62h3.26v62Z" transform="translate(-15.53 -128.47)"/><path class="cls-2" d="M1907.61,343.41h42.93v6.52h-50.47V278.57H1949v6.52h-41.4Zm-.81-32.93h37.72v6.42H1906.8Z" transform="translate(-15.53 -128.47)"/><path class="cls-2" d="M1968.28,349.93V278.57h6.21l32.63,55.66h-3.26l32.32-55.66h6.22v71.36h-7.24V289.88h1.73l-29.77,51h-3.57l-30-51h1.93v60.05Z" transform="translate(-15.53 -128.47)"/><path class="cls-2" d="M2121.1,350.55q-13.67,0-21.51-7.85t-7.85-23.25V278.57h7.55v40.57q0,12.64,5.71,18.66t16.1,6q10.5,0,16.22-6t5.7-18.66V278.57h7.35v40.88q0,15.39-7.8,23.25T2121.1,350.55Z" transform="translate(-15.53 -128.47)"/><path class="cls-2" d="M2173.1,349.93V278.57h6.22L2212,334.23h-3.27L2241,278.57h6.22v71.36H2240V289.88h1.74l-29.77,51h-3.57l-30-51h1.94v60.05Z" transform="translate(-15.53 -128.47)"/><path class="cls-2" d="M2259.05,349.93l32.62-71.36h7.45l32.62,71.36h-7.95l-30-67h3.06l-30,67Zm12.84-19.06,2.25-6.12h41.49l2.25,6.12Z" transform="translate(-15.53 -128.47)"/><path class="cls-2" d="M2370.28,349.93V278.57h6.22l32.62,55.66h-3.26l32.32-55.66h6.22v71.36h-7.24V289.88h1.74l-29.78,51h-3.56l-30-51h1.94v60.05Z" transform="translate(-15.53 -128.47)"/><path class="cls-2" d="M2456.23,349.93l32.62-71.36h7.45l32.62,71.36h-8l-30-67h3.06l-30,67Zm12.84-19.06,2.25-6.12h41.49l2.25,6.12Z" transform="translate(-15.53 -128.47)"/><path class="cls-2" d="M2540.75,349.93V278.57h26.71a38.11,38.11,0,0,1,15.6,2.9,22.48,22.48,0,0,1,10,8.36,23.82,23.82,0,0,1,3.52,13.2,23.39,23.39,0,0,1-3.52,13,22.35,22.35,0,0,1-10,8.36,38.1,38.1,0,0,1-15.6,2.91h-22.53l3.36-3.47v26.1Zm7.54-25.48-3.36-3.57h22.33q10.69,0,16.26-4.69t5.55-13.16q0-8.55-5.55-13.25t-16.26-4.69h-22.33l3.36-3.57Zm41.19,25.48L2571.13,324h8.16l18.45,25.89Z" transform="translate(-15.53 -128.47)"/><path class="cls-2" d="M2645.45,350.55a39.9,39.9,0,0,1-14.88-2.71,34.75,34.75,0,0,1-19.63-19.11,38.84,38.84,0,0,1,0-29,34.73,34.73,0,0,1,7.85-11.52,35.85,35.85,0,0,1,11.88-7.59,40,40,0,0,1,14.89-2.71,40.76,40.76,0,0,1,14.58,2.6,29.47,29.47,0,0,1,11.52,7.8l-4.79,4.8a26.61,26.61,0,0,0-9.69-6.48,32.4,32.4,0,0,0-11.42-2,32,32,0,0,0-11.93,2.19,28.67,28.67,0,0,0-9.58,6.22,29.86,29.86,0,0,0,0,42.32,28.49,28.49,0,0,0,9.58,6.21,33.22,33.22,0,0,0,23.35.16,27.28,27.28,0,0,0,9.69-6.53l4.79,4.79a29.82,29.82,0,0,1-11.52,7.86A40.42,40.42,0,0,1,2645.45,350.55Z" transform="translate(-15.53 -128.47)"/><path class="cls-2" d="M2674.51,349.93l32.63-71.36h7.44l32.63,71.36h-8l-30-67h3.06l-30,67Zm12.85-19.06,2.24-6.12h41.5l2.24,6.12Z" transform="translate(-15.53 -128.47)"/><path class="cls-2" d="M2785.74,349.93V278.57h7.55v71.36Z" transform="translate(-15.53 -128.47)"/><path class="cls-2" d="M2816.53,349.93V278.57h6.22l49.25,62h-3.26v-62h7.44v71.36H2870l-49.14-62h3.26v62Z" transform="translate(-15.53 -128.47)"/><path class="cls-2" d="M2907,349.93h-7.55V278.57h48.94v6.52H2907Zm-.82-36.8h37.73v6.52h-37.73Z" transform="translate(-15.53 -128.47)"/><path class="cls-2" d="M2949.18,349.93l32.62-71.36h7.45l32.62,71.36h-7.95l-30-67H2987l-30,67ZM2962,330.87l2.25-6.12h41.49l2.25,6.12Z" transform="translate(-15.53 -128.47)"/><path class="cls-2" d="M3033.7,349.93V278.57h6.22l49.24,62h-3.26v-62h7.44v71.36h-6.22L3038,288h3.26v62Z" transform="translate(-15.53 -128.47)"/><path class="cls-2" d="M3130.45,349.93V285.09h-25.08v-6.52h57.71v6.52H3138v64.84Z" transform="translate(-15.53 -128.47)"/><path class="cls-2" d="M3175.11,349.93V278.57h7.54v71.36Z" transform="translate(-15.53 -128.47)"/><path class="cls-2" d="M3205.9,349.93V278.57h7.54v64.84h40v6.52Z" transform="translate(-15.53 -128.47)"/><path class="cls-2" d="M1396.62,481.57V410.2h6.22l49.24,62h-3.26v-62h7.44v71.37H1450l-49.14-62h3.26v62Z" transform="translate(-15.53 -128.47)"/><path class="cls-2" d="M1487.05,475H1530v6.53h-50.47V410.2h48.94v6.53h-41.4Zm-.81-32.93H1524v6.43h-37.72Z" transform="translate(-15.53 -128.47)"/><path class="cls-2" d="M1547.71,481.57V410.2h6.22l32.63,55.67h-3.26l32.32-55.67h6.22v71.37h-7.24V421.52h1.73l-29.77,51H1583l-30-51H1555v60.05Z" transform="translate(-15.53 -128.47)"/><path class="cls-2" d="M1685.66,481.57V416.73h-25.08V410.2h57.7v6.53H1693.2v64.84Z" transform="translate(-15.53 -128.47)"/><path class="cls-2" d="M1760.49,482.18a40.47,40.47,0,0,1-14.93-2.7,35.16,35.16,0,0,1-19.78-19.17,38.43,38.43,0,0,1,0-28.85,35.28,35.28,0,0,1,19.73-19.17,42.66,42.66,0,0,1,29.87,0,35.72,35.72,0,0,1,11.88,7.6,34.73,34.73,0,0,1,7.85,11.52,38.82,38.82,0,0,1,0,28.95,34.73,34.73,0,0,1-7.85,11.52,35.72,35.72,0,0,1-11.88,7.6A40.19,40.19,0,0,1,1760.49,482.18Zm0-6.73a31.58,31.58,0,0,0,11.88-2.19,27.85,27.85,0,0,0,9.48-6.22,28.71,28.71,0,0,0,6.27-9.38,31.94,31.94,0,0,0,0-23.55,28.82,28.82,0,0,0-6.27-9.38,28,28,0,0,0-9.48-6.22,31.58,31.58,0,0,0-11.88-2.19,32,32,0,0,0-11.93,2.19,28.46,28.46,0,0,0-15.9,15.6,31.94,31.94,0,0,0,0,23.5,28.34,28.34,0,0,0,15.9,15.65A32,32,0,0,0,1760.49,475.45Z" transform="translate(-15.53 -128.47)"/><path class="cls-2" d="M1827.68,481.57V416.73H1802.6V410.2h57.71v6.53h-25.08v64.84Z" transform="translate(-15.53 -128.47)"/><path class="cls-2" d="M1857.35,481.57,1890,410.2h7.44L1930,481.57h-8l-30-67h3.06l-30,67Zm12.85-19.07,2.24-6.11h41.5l2.24,6.11Z" transform="translate(-15.53 -128.47)"/><path class="cls-2" d="M1941.87,481.57V410.2h7.55V475h40v6.53Z" transform="translate(-15.53 -128.47)"/><path class="cls-2" d="M2001.92,481.57V410.2h6.22l32.63,55.67h-3.27l32.32-55.67H2076v71.37h-7.24V421.52h1.74l-29.77,51h-3.57l-30-51h1.94v60.05Z" transform="translate(-15.53 -128.47)"/><path class="cls-2" d="M2106.83,475h42.93v6.53h-50.47V410.2h48.94v6.53h-41.4Zm-.81-32.93h37.72v6.43H2106Z" transform="translate(-15.53 -128.47)"/><path class="cls-2" d="M2167.5,481.57V410.2h6.21l49.25,62h-3.26v-62h7.44v71.37h-6.22l-49.14-62H2175v62Z" transform="translate(-15.53 -128.47)"/><path class="cls-2" d="M2264.25,481.57V416.73h-25.08V410.2h57.71v6.53h-25.09v64.84Z" transform="translate(-15.53 -128.47)"/><path class="cls-2" d="M2316.45,475h42.92v6.53h-50.46V410.2h48.93v6.53h-41.39Zm-.82-32.93h37.73v6.43h-37.73Z" transform="translate(-15.53 -128.47)"/><path class="cls-2" d="M2392.41,481.57,2425,410.2h7.44l32.63,71.37h-7.95l-30-67h3.06l-30,67Zm12.84-19.07,2.24-6.11H2449l2.24,6.11Z" transform="translate(-15.53 -128.47)"/><path class="cls-2" d="M2476.93,481.57V410.2H2506a42.37,42.37,0,0,1,20,4.54,33.23,33.23,0,0,1,13.4,12.59,38.26,38.26,0,0,1,0,37.11A33.23,33.23,0,0,1,2526,477a42.37,42.37,0,0,1-20,4.54Zm7.54-6.53h21.1a34.43,34.43,0,0,0,16.47-3.72A27.08,27.08,0,0,0,2532.9,461a31.67,31.67,0,0,0,0-30.34A27.23,27.23,0,0,0,2522,420.45a34.54,34.54,0,0,0-16.47-3.72h-21.1Z" transform="translate(-15.53 -128.47)"/><path class="cls-2" d="M2589.89,482.18q-13.66,0-21.51-7.85t-7.85-23.24V410.2h7.54v40.58q0,12.64,5.71,18.66t16.11,6q10.5,0,16.21-6t5.71-18.66V410.2h7.34v40.89q0,15.39-7.8,23.24T2589.89,482.18Z" transform="translate(-15.53 -128.47)"/><path class="cls-2" d="M2641.89,481.57V410.2h7.54V475h40v6.53Z" transform="translate(-15.53 -128.47)"/><path class="cls-2" d="M2709.18,481.57V416.73H2684.1V410.2h57.7v6.53h-25.08v64.84Z" transform="translate(-15.53 -128.47)"/><path class="cls-2" d="M2738.85,481.57l32.62-71.37h7.45l32.62,71.37h-7.95l-30-67h3.06l-30,67Zm12.84-19.07,2.25-6.11h41.49l2.25,6.11Z" transform="translate(-15.53 -128.47)"/><path class="cls-2" d="M2826,482.08a5.1,5.1,0,0,1-3.82-1.63,5.48,5.48,0,0,1-1.59-4,5.41,5.41,0,1,1,10.81,0,5.52,5.52,0,0,1-1.58,4A5.11,5.11,0,0,1,2826,482.08Zm22.12,0a5.11,5.11,0,0,1-3.82-1.63,5.48,5.48,0,0,1-1.58-4,5.32,5.32,0,0,1,5.4-5.5,5.32,5.32,0,0,1,5.41,5.5,5.52,5.52,0,0,1-1.58,4A5.13,5.13,0,0,1,2848.14,482.08Zm22.23,0a5.1,5.1,0,0,1-3.82-1.63,5.48,5.48,0,0,1-1.58-4,5.4,5.4,0,1,1,10.8,0,5.48,5.48,0,0,1-1.58,4A5.11,5.11,0,0,1,2870.37,482.08Z" transform="translate(-15.53 -128.47)"/></g></g></g></svg>