<svg xmlns="http://www.w3.org/2000/svg" viewBox="0 0 1137.36 997.9"><defs><style>.cls-1{fill:#fff;}</style></defs><title>2</title><g id="Camada_2" data-name="Camada 2"><g id="Camada_1-2" data-name="Camada 1"><g id="UMA_MARCA" data-name="UMA MARCA"><polygon class="cls-1" points="1137.36 450.33 875.57 450.33 875.57 589.76 0 589.76 0 713.19 158.14 713.19 158.14 852.05 586.36 850.05 586.29 997.9 1137.36 997.9 1137.36 859.47 1137.36 851.76 1137.36 450.33"></polygon><path class="cls-1" d="M230,428.91c0-25.22,13.88-40.53,33.66-40.53s33.66,15.35,33.66,40.53S283.48,470,263.7,470,230,454.14,230,428.91Zm57,0c0-19.62-9.25-31.72-23.31-31.72s-23.31,12.1-23.31,31.72,9.25,32.3,23.31,32.3S287,448.53,287,428.91Z" transform="translate(-35.97 -50.53)"></path><path class="cls-1" d="M333.72,428.91c0-25.22,13.88-40.53,33.66-40.53S401,403.73,401,428.91,387.16,470,367.38,470,333.72,454.14,333.72,428.91Zm57,0c0-19.62-9.25-31.72-23.31-31.72s-23.31,12.1-23.31,31.72c0,20.07,9.25,32.8,23.31,32.8S390.69,449,390.69,428.91Zm-28.75,39.4,10.41-.79c3.18,8.32,10.89,12.45,20.19,12.45a29,29,0,0,0,8.27-1.13l1.93,7.75a33.26,33.26,0,0,1-11.24,1.81C376.38,488.4,366.18,479.78,361.94,468.31Z" transform="translate(-35.97 -50.53)"></path><path class="cls-1" d="M417.64,436.05V389.82h10v46.51c0,18.93,8,24.88,18.28,24.88,10.44,0,18.68-5.95,18.68-24.88V389.82h9.6v46.23c0,25.28-12.2,34-28.28,34S417.64,461.33,417.64,436.05Z" transform="translate(-35.97 -50.53)"></path><path class="cls-1" d="M495.37,389.82h45.39v8.48H505.39V423h29.84v8.48H505.39v28.63H542v8.49H495.37Z" transform="translate(-35.97 -50.53)"></path><path class="cls-1" d="M576.9,458.33l6-6.88c5.67,5.88,13.54,9.76,21.73,9.76,10.34,0,16.46-5.15,16.46-12.8,0-8.05-5.7-10.61-13.13-13.86l-11.32-5c-7.33-3.13-15.94-8.69-15.94-20.28,0-12,10.48-20.9,24.79-20.9a32.5,32.5,0,0,1,23.19,9.76l-5.32,6.44a25.14,25.14,0,0,0-17.87-7.39c-8.83,0-14.68,4.46-14.68,11.5,0,7.59,6.86,10.42,13,13l11.23,4.86c9.11,3.92,16.22,9.35,16.22,21.06,0,12.44-10.28,22.38-26.84,22.38A37.74,37.74,0,0,1,576.9,458.33Z" transform="translate(-35.97 -50.53)"></path><path class="cls-1" d="M662.88,389.82h11.31l26.64,78.76H690.22l-13.74-44c-2.83-8.8-5.35-17.45-7.88-26.54h-.48c-2.44,9.13-5,17.74-7.8,26.54l-13.88,44h-10.2Zm-12.63,46.77h36.26v8H650.25Z" transform="translate(-35.97 -50.53)"></path><path class="cls-1" d="M711.49,389.82h23.37c16,0,27.1,5.45,27.1,19.29,0,7.78-4.15,14.7-11.51,17.1v.48c9.41,1.86,16,8.07,16,18.85,0,15.47-12.26,23-29.81,23H711.49Zm21.68,33.51c13.39,0,18.94-4.94,18.94-12.92,0-9.2-6.31-12.64-18.49-12.64H721.51v25.56Zm2.05,37.29c13.46,0,21.4-4.85,21.4-15.46,0-9.7-7.63-14.14-21.4-14.14H721.51v29.6Z" transform="translate(-35.97 -50.53)"></path><path class="cls-1" d="M782.05,389.82h45.39v8.48H792.07V423h29.84v8.48H792.07v28.63h36.57v8.49H782.05Z" transform="translate(-35.97 -50.53)"></path><path class="cls-1" d="M845.28,389.82h12.07l15.1,42.08c1.9,5.38,3.7,10.94,5.6,16.41h.48c1.89-5.47,3.55-11,5.44-16.41l14.92-42.08H911v78.76h-9.32V425.21c0-6.86.77-16.32,1.28-23.29h-.48l-6.25,18-14.84,40.74h-6.64L859.8,419.88l-6.23-18h-.48c.5,7,1.27,16.43,1.27,23.29v43.37h-9.08Z" transform="translate(-35.97 -50.53)"></path><path class="cls-1" d="M928,428.91c0-25.22,13.88-40.53,33.66-40.53s33.66,15.35,33.66,40.53S981.39,470,961.61,470,928,454.14,928,428.91Zm57,0c0-19.62-9.25-31.72-23.31-31.72s-23.31,12.1-23.31,31.72,9.25,32.3,23.31,32.3S984.92,448.53,984.92,428.91Z" transform="translate(-35.97 -50.53)"></path><path class="cls-1" d="M1006.49,458.33l6-6.88c5.67,5.88,13.54,9.76,21.73,9.76,10.33,0,16.46-5.15,16.46-12.8,0-8.05-5.71-10.61-13.14-13.86l-11.31-5c-7.34-3.13-16-8.69-16-20.28,0-12,10.48-20.9,24.79-20.9a32.48,32.48,0,0,1,23.19,9.76l-5.31,6.44a25.18,25.18,0,0,0-17.88-7.39c-8.83,0-14.68,4.46-14.68,11.5,0,7.59,6.87,10.42,13,13l11.22,4.86c9.11,3.92,16.23,9.35,16.23,21.06,0,12.44-10.28,22.38-26.84,22.38A37.78,37.78,0,0,1,1006.49,458.33Z" transform="translate(-35.97 -50.53)"></path><path class="cls-1" d="M1100.28,389.82h45.39v8.48H1110.3V423h29.84v8.48H1110.3v28.63h36.57v8.49h-46.59Zm16.91-9.86,17-15.46,5.64,6.68L1121.61,385Z" transform="translate(-35.97 -50.53)"></path><path class="cls-1" d="M42.36,564.91c0-25.22,13.88-40.53,33.66-40.53s33.66,15.35,33.66,40.53S95.8,606,76,606,42.36,590.14,42.36,564.91Zm57,0c0-19.62-9.25-31.72-23.31-31.72s-23.31,12.1-23.31,31.72c0,20.07,9.25,32.8,23.31,32.8S99.33,585,99.33,564.91Zm-28.75,39.4L81,603.52C84.18,611.84,91.88,616,101.18,616a28.89,28.89,0,0,0,8.27-1.13l1.94,7.75a33.36,33.36,0,0,1-11.24,1.81C85,624.4,74.83,615.78,70.58,604.31Z" transform="translate(-35.97 -50.53)"></path><path class="cls-1" d="M126.29,572.05V525.82h10v46.51c0,18.93,8,24.88,18.28,24.88,10.43,0,18.67-6,18.67-24.88V525.82h9.61v46.23c0,25.28-12.2,34-28.28,34S126.29,597.33,126.29,572.05Z" transform="translate(-35.97 -50.53)"></path><path class="cls-1" d="M204,525.82h45.4v8.48H214V559h29.83v8.48H214v28.63h36.57v8.49H204Z" transform="translate(-35.97 -50.53)"></path><path class="cls-1" d="M291.25,525.82H301.6l28.51,49.51,8.5,16.31h.48c-.51-7.95-1.28-16.82-1.28-25.06V525.82h9.52v78.76H337L308.48,555,300,538.76h-.48c.51,8,1.28,16.37,1.28,24.6v41.22h-9.52Z" transform="translate(-35.97 -50.53)"></path><path class="cls-1" d="M385.09,525.82h11.3L423,604.58H412.42l-13.73-44c-2.83-8.8-5.36-17.45-7.89-26.54h-.48c-2.43,9.13-5,17.74-7.79,26.54l-13.89,44h-10.2ZM381.82,511c-3.06,0-5.33,2.78-5.81,7.93l-6.68-.51c.42-9.18,5.06-14.75,12.23-14.75,9,0,12.11,8.52,17.74,8.52,3.06,0,5.18-2.78,5.82-7.93l6.67.51c-.41,9.18-5.05,14.75-12.22,14.75C390.56,519.53,387.46,511,381.82,511Zm-9.37,61.58h36.26v8H372.45Z" transform="translate(-35.97 -50.53)"></path><path class="cls-1" d="M428.4,564.91c0-25.22,13.88-40.53,33.66-40.53s33.66,15.35,33.66,40.53S481.84,606,462.06,606,428.4,590.14,428.4,564.91Zm57,0c0-19.62-9.25-31.72-23.31-31.72s-23.31,12.1-23.31,31.72,9.25,32.3,23.31,32.3S485.37,584.53,485.37,564.91Z" transform="translate(-35.97 -50.53)"></path><path class="cls-1" d="M530.94,594.33l6-6.88c5.67,5.88,13.54,9.76,21.72,9.76,10.34,0,16.47-5.15,16.47-12.8,0-8-5.71-10.61-13.14-13.86l-11.31-5c-7.34-3.13-15.95-8.69-15.95-20.28,0-12,10.48-20.9,24.79-20.9a32.48,32.48,0,0,1,23.19,9.76l-5.31,6.44a25.18,25.18,0,0,0-17.88-7.39c-8.83,0-14.68,4.46-14.68,11.5,0,7.59,6.87,10.42,13,13l11.22,4.86c9.11,3.92,16.23,9.35,16.23,21.06,0,12.44-10.29,22.38-26.84,22.38A37.74,37.74,0,0,1,530.94,594.33Z" transform="translate(-35.97 -50.53)"></path><path class="cls-1" d="M596.16,564.91c0-25.22,13.88-40.53,33.66-40.53s33.66,15.35,33.66,40.53S649.6,606,629.82,606,596.16,590.14,596.16,564.91Zm57,0c0-19.62-9.25-31.72-23.31-31.72s-23.31,12.1-23.31,31.72,9.24,32.3,23.31,32.3S653.13,584.53,653.13,564.91Z" transform="translate(-35.97 -50.53)"></path><path class="cls-1" d="M680.41,525.82h12.07l15.09,42.08c1.9,5.38,3.7,10.94,5.6,16.41h.48c1.89-5.47,3.55-11,5.44-16.41L734,525.82h12.07v78.76h-9.31V561.21c0-6.86.77-16.32,1.27-23.29h-.48l-6.25,18-14.83,40.74h-6.64l-14.91-40.74-6.24-18h-.48c.5,7,1.27,16.43,1.27,23.29v43.37h-9.07Z" transform="translate(-35.97 -50.53)"></path><path class="cls-1" d="M763.07,564.91c0-25.22,13.89-40.53,33.66-40.53s33.66,15.35,33.66,40.53S816.51,606,796.73,606,763.07,590.14,763.07,564.91Zm57,0c0-19.62-9.24-31.72-23.31-31.72s-23.31,12.1-23.31,31.72,9.25,32.3,23.31,32.3S820,584.53,820,564.91Z" transform="translate(-35.97 -50.53)"></path><path class="cls-1" d="M841.62,594.33l6-6.88c5.67,5.88,13.54,9.76,21.73,9.76,10.34,0,16.46-5.15,16.46-12.8,0-8-5.7-10.61-13.13-13.86l-11.32-5c-7.34-3.13-15.94-8.69-15.94-20.28,0-12,10.48-20.9,24.79-20.9a32.5,32.5,0,0,1,23.19,9.76l-5.32,6.44a25.16,25.16,0,0,0-17.87-7.39c-8.83,0-14.68,4.46-14.68,11.5,0,7.59,6.86,10.42,13,13l11.23,4.86c9.11,3.92,16.22,9.35,16.22,21.06,0,12.44-10.28,22.38-26.84,22.38A37.74,37.74,0,0,1,841.62,594.33Z" transform="translate(-35.97 -50.53)"></path><path d="M935.4,525.82h10.36l28.5,49.51,8.5,16.31h.48c-.51-7.95-1.27-16.82-1.27-25.06V525.82h9.51v78.76H981.13L952.63,555l-8.5-16.26h-.48c.5,8,1.27,16.37,1.27,24.6v41.22H935.4Z" transform="translate(-35.97 -50.53)"></path><path d="M1013,525.82h45.4v8.48h-35.37V559h29.83v8.48h-29.83v28.63h36.57v8.49H1013Z" transform="translate(-35.97 -50.53)"></path><path d="M1076.28,525.82h12.07l15.1,42.08c1.89,5.38,3.7,10.94,5.59,16.41h.48c1.9-5.47,3.55-11,5.45-16.41l14.92-42.08H1142v78.76h-9.32V561.21c0-6.86.77-16.32,1.28-23.29h-.48l-6.26,18-14.83,40.74h-6.64l-14.91-40.74-6.24-18h-.48c.51,7,1.28,16.43,1.28,23.29v43.37h-9.08Z" transform="translate(-35.97 -50.53)"></path><path d="M70.49,708.05V661.82h10v46.51c0,18.93,8,24.88,18.28,24.88,10.44,0,18.68-6,18.68-24.88V661.82h9.6v46.23c0,25.28-12.2,34-28.28,34S70.49,733.33,70.49,708.05Z" transform="translate(-35.97 -50.53)"></path><path d="M148.22,661.82h12.06l15.1,42.08c1.9,5.38,3.7,10.94,5.6,16.41h.48c1.89-5.47,3.55-11,5.44-16.41l14.92-42.08h12.07v78.76h-9.32V697.21c0-6.86.78-16.32,1.28-23.29h-.48l-6.25,18-14.83,40.74h-6.65l-14.9-40.74-6.24-18H156c.5,7,1.27,16.43,1.27,23.29v43.37h-9.07Z" transform="translate(-35.97 -50.53)"></path><path d="M251.65,661.82H263l26.64,78.76H279l-13.73-44c-2.83-8.8-5.36-17.45-7.88-26.54h-.48c-2.44,9.13-5,17.74-7.8,26.54l-13.88,44H225ZM239,708.59h36.27v8H239Z" transform="translate(-35.97 -50.53)"></path><path d="M324.73,661.82H336.8l15.1,42.08c1.89,5.38,3.7,10.94,5.59,16.41H358c1.9-5.47,3.55-11,5.45-16.41l14.92-42.08h12.07v78.76h-9.32V697.21c0-6.86.77-16.32,1.28-23.29h-.48l-6.25,18L360.8,732.62h-6.64l-14.91-40.74-6.24-18h-.48c.51,7,1.28,16.43,1.28,23.29v43.37h-9.08Z" transform="translate(-35.97 -50.53)"></path><path d="M428.17,661.82h11.3l26.65,78.76H455.5l-13.73-44c-2.83-8.8-5.36-17.45-7.89-26.54h-.48c-2.43,9.13-5,17.74-7.79,26.54l-13.89,44h-10.2Zm-12.64,46.77h36.26v8H415.53Z" transform="translate(-35.97 -50.53)"></path><path d="M476.77,661.82h24.67c16,0,27.56,5.76,27.56,22.17,0,15.73-11.52,23.3-27.56,23.3H486.79v33.29h-10ZM500,699.16c12.25,0,19-5,19-15.17,0-10.36-6.75-14-19-14H486.79v29.21Zm-.54,5.38,7.85-5.18,24,41.22H520Z" transform="translate(-35.97 -50.53)"></path><path d="M540.48,701.27c0-25.4,15-40.89,34.94-40.89a29.37,29.37,0,0,1,21.67,9.71l-5.5,6.53c-4.14-4.42-9.34-7.43-16-7.43-14.88,0-24.77,12.19-24.77,31.81,0,19.8,9.45,32.21,24.38,32.21,7.52,0,13.23-3.28,18.25-8.85l5.5,6.29C592.73,737.87,585,742,574.79,742,555.18,742,540.48,726.84,540.48,701.27Z" transform="translate(-35.97 -50.53)"></path><path d="M629.76,661.82h11.31l26.64,78.76H657.1l-13.74-44c-2.83-8.8-5.35-17.45-7.88-26.54H635c-2.44,9.13-5,17.74-7.79,26.54l-13.89,44h-10.2Zm-12.63,46.77h36.26v8H617.13Z" transform="translate(-35.97 -50.53)"></path><path d="M702.85,661.82h10v78.76h-10Z" transform="translate(-35.97 -50.53)"></path><path d="M734.41,661.82h10.35l28.5,49.51,8.5,16.31h.48c-.5-7.95-1.27-16.82-1.27-25.06V661.82h9.51v78.76H780.13L751.63,691l-8.5-16.26h-.48c.5,8,1.27,16.37,1.27,24.6v41.22h-9.51Z" transform="translate(-35.97 -50.53)"></path><path d="M812.05,661.82h45.41v8.48H822.07v26.56h30v8.48h-30v35.24h-10Z" transform="translate(-35.97 -50.53)"></path><path d="M883.08,661.82h11.31L921,740.58H910.41l-13.73-44c-2.83-8.8-5.36-17.45-7.88-26.54h-.48c-2.44,9.13-5,17.74-7.8,26.54l-13.88,44h-10.2Zm-12.64,46.77h36.27v8H870.44Z" transform="translate(-35.97 -50.53)"></path><path d="M931.68,661.82H942l28.5,49.51,8.5,16.31h.48c-.51-7.95-1.27-16.82-1.27-25.06V661.82h9.51v78.76H977.41L948.91,691l-8.5-16.26h-.48c.5,8,1.27,16.37,1.27,24.6v41.22h-9.52Z" transform="translate(-35.97 -50.53)"></path><path d="M1025.72,670.3H1001.9v-8.48h57.67v8.48h-23.83v70.28h-10Z" transform="translate(-35.97 -50.53)"></path><path d="M1073.64,661.82h10v78.76h-10Z" transform="translate(-35.97 -50.53)"></path><path d="M1105.2,661.82h10v70.27h34.38v8.49h-44.4Z" transform="translate(-35.97 -50.53)"></path><path d="M234.85,797.82H245.2l28.5,49.51,8.5,16.31h.48c-.5-7.95-1.27-16.82-1.27-25.06V797.82h9.52v78.76H280.58L252.07,827l-8.5-16.26h-.48c.51,8,1.28,16.37,1.28,24.6v41.22h-9.52Z" transform="translate(-35.97 -50.53)"></path><path d="M312.49,797.82h45.39v8.48H322.51V831h29.84v8.48H322.51v28.63h36.57v8.49H312.49Z" transform="translate(-35.97 -50.53)"></path><path d="M375.73,797.82H387.8l15.09,42.08c1.9,5.38,3.7,10.94,5.6,16.41H409c1.89-5.47,3.55-11,5.44-16.41l14.92-42.08H441.4v78.76h-9.31V833.21c0-6.86.77-16.32,1.27-23.29h-.48l-6.25,18L411.8,868.62h-6.65l-14.9-40.74-6.24-18h-.48c.5,7,1.27,16.43,1.27,23.29v43.37h-9.07Z" transform="translate(-35.97 -50.53)"></path><path d="M503.36,806.3H479.54v-8.48h57.67v8.48H513.38v70.28h-10Z" transform="translate(-35.97 -50.53)"></path><path d="M543.83,836.91c0-25.22,13.89-40.53,33.66-40.53s33.66,15.35,33.66,40.53S597.27,878,577.49,878,543.83,862.14,543.83,836.91Zm57,0c0-19.62-9.25-31.72-23.31-31.72s-23.31,12.1-23.31,31.72,9.25,32.3,23.31,32.3S600.8,856.53,600.8,836.91Z" transform="translate(-35.97 -50.53)"></path><path d="M641.6,806.3H617.78v-8.48h57.67v8.48H651.63v70.28h-10Z" transform="translate(-35.97 -50.53)"></path><path d="M700.92,797.82h11.31l26.64,78.76H728.26l-13.74-44c-2.83-8.8-5.35-17.45-7.88-26.54h-.48c-2.44,9.13-5,17.74-7.8,26.54l-13.88,44h-10.2Zm-12.63,46.77h36.26v8H688.29Z" transform="translate(-35.97 -50.53)"></path><path d="M749.53,797.82h10v70.27h34.37v8.49H749.53Z" transform="translate(-35.97 -50.53)"></path><path d="M807.85,797.82h12.06L835,839.9c1.9,5.38,3.7,10.94,5.6,16.41h.48c1.89-5.47,3.55-11,5.44-16.41l14.92-42.08h12.07v78.76H864.2V833.21c0-6.86.77-16.32,1.28-23.29H865l-6.25,18-14.83,40.74h-6.65l-14.9-40.74-6.24-18h-.48c.5,7,1.27,16.43,1.27,23.29v43.37h-9.07Z" transform="translate(-35.97 -50.53)"></path><path d="M895.08,797.82h45.4v8.48H905.11V831h29.83v8.48H905.11v28.63h36.57v8.49h-46.6Z" transform="translate(-35.97 -50.53)"></path><path d="M958.32,797.82h10.35l28.51,49.51,8.5,16.31h.48c-.51-7.95-1.28-16.82-1.28-25.06V797.82h9.52v78.76h-10.35L975.55,827l-8.5-16.26h-.49c.51,8,1.28,16.37,1.28,24.6v41.22h-9.52Z" transform="translate(-35.97 -50.53)"></path><path d="M1052.36,806.3h-23.83v-8.48h57.67v8.48h-23.82v70.28h-10Z" transform="translate(-35.97 -50.53)"></path><path d="M1100.28,797.82h45.39v8.48H1110.3V831h29.84v8.48H1110.3v28.63h36.57v8.49h-46.59Z" transform="translate(-35.97 -50.53)"></path><path d="M681.24,933.82h11.31l26.64,78.76H708.57l-13.73-44c-2.83-8.8-5.36-17.45-7.88-26.54h-.48c-2.44,9.13-5,17.74-7.8,26.54l-13.88,44H654.6ZM668.6,980.59h36.27v8H668.6Z" transform="translate(-35.97 -50.53)"></path><path d="M729.84,933.82h19.71c24.21,0,37.19,14.07,37.19,39.09s-13,39.67-36.75,39.67H729.84Zm19,70.54c18.41,0,27.59-11.54,27.59-31.45S767.21,942,748.8,942h-8.93v62.32Z" transform="translate(-35.97 -50.53)"></path><path d="M803.31,980.05V933.82h10v46.51c0,18.93,8,24.88,18.28,24.88s18.67-6,18.67-24.88V933.82h9.61v46.23c0,25.28-12.21,34-28.28,34S803.31,1005.33,803.31,980.05Z" transform="translate(-35.97 -50.53)"></path><path d="M881,933.82h10v70.27h34.37v8.49H881Z" transform="translate(-35.97 -50.53)"></path><path d="M941.36,942.3H917.53v-8.48H975.2v8.48H951.38v70.28h-10Z" transform="translate(-35.97 -50.53)"></path><path d="M1000.68,933.82H1012l26.64,78.76H1028l-13.73-44c-2.83-8.8-5.36-17.45-7.89-26.54h-.48c-2.44,9.13-5,17.74-7.79,26.54l-13.89,44H974ZM988,980.59h36.26v8H988Z" transform="translate(-35.97 -50.53)"></path><path d="M1050.28,1006.54c0-4.53,3.22-7.62,7.14-7.62s7.15,3.09,7.15,7.62a7.15,7.15,0,1,1-14.29,0Zm40.2,0c0-4.53,3.22-7.62,7.15-7.62s7.14,3.09,7.14,7.62a7.15,7.15,0,1,1-14.29,0Zm40.21,0c0-4.53,3.22-7.62,7.14-7.62s7.15,3.09,7.15,7.62a7.15,7.15,0,1,1-14.29,0Z" transform="translate(-35.97 -50.53)"></path><path class="cls-1" d="M223.94,142.56A44,44,0,0,1,204,138.24,30.58,30.58,0,0,1,190.55,125q-4.81-9-4.82-22.6V51.84h25.92V98.37q0,11.3,4.74,16.53t13.37,5.23a21.11,21.11,0,0,0,10.64-2.65,18.8,18.8,0,0,0,7.39-8q2.75-5.31,2.74-13.29V51.85h25.75v89.39H251.69V116.48l4.49,7.31a31.73,31.73,0,0,1-13.29,14A38.78,38.78,0,0,1,223.94,142.56Z" transform="translate(-35.97 -50.53)"></path><path class="cls-1" d="M414.86,50.54a40.65,40.65,0,0,1,18.86,4.23,30.1,30.1,0,0,1,12.88,13q4.65,8.72,4.65,22.34v51.18H425.32V94.07q0-10.8-4.4-15.95T408.55,73a20.17,20.17,0,0,0-10.3,2.57,16.81,16.81,0,0,0-6.9,7.64q-2.42,5.07-2.41,13.21v44.86H363V94.06q0-10.8-4.4-16T345.91,73a20.06,20.06,0,0,0-10.14,2.57,17.42,17.42,0,0,0-7,7.64q-2.49,5.07-2.49,13.21v44.87H300.37V51.85h24.76V76.11l-4.65-7a30.93,30.93,0,0,1,13.12-13.87,39.85,39.85,0,0,1,19.44-4.73,37.92,37.92,0,0,1,21.6,6.23Q384,63,387,75.79l-9.14-2.5A36.58,36.58,0,0,1,392.1,56.76,41.44,41.44,0,0,1,414.86,50.54Z" transform="translate(-35.97 -50.53)"></path><path class="cls-1" d="M502.25,142.59A40.93,40.93,0,0,1,484.47,139a27.91,27.91,0,0,1-11.55-9.72,24.38,24.38,0,0,1-4.06-13.79,25.11,25.11,0,0,1,3.9-13.88q3.9-6.06,12.38-9.38t22.27-3.32H531v14.95H510.06q-9.13,0-12.54,3a9.55,9.55,0,0,0-3.41,7.48,9.33,9.33,0,0,0,3.9,7.89c2.61,1.94,6.12,2.91,10.56,2.91a23.58,23.58,0,0,0,11.88-3,16.35,16.35,0,0,0,7.39-9.14l4,12.13A23.56,23.56,0,0,1,521.52,138Q514.05,142.59,502.25,142.59Zm27.25-1.32V123.82L527.84,120V88.76q0-8.3-5.06-13t-15.54-4.65a45.3,45.3,0,0,0-14,2.24,39.31,39.31,0,0,0-11.88,6.06l-9.14-18.11a52.66,52.66,0,0,1,17.62-8.05,80.45,80.45,0,0,1,20.93-2.74q20.44,0,31.74,9.64t11.29,30.07v51Z" transform="translate(-35.97 -50.53)"></path><path class="cls-1" d="M738.69,50.57a40.53,40.53,0,0,1,18.86,4.24,30.05,30.05,0,0,1,12.87,13q4.65,8.73,4.65,22.35v51.17H749.15V94.1q0-10.78-4.4-15.95T732.38,73a20.31,20.31,0,0,0-10.31,2.58,16.8,16.8,0,0,0-6.89,7.64q-2.41,5.07-2.41,13.21v44.86H686.84V94.1q0-10.8-4.4-15.95T669.73,73a20,20,0,0,0-10.13,2.58,17.37,17.37,0,0,0-7,7.64q-2.49,5.07-2.49,13.21v44.86H624.2V51.89H649V76.15l-4.66-7A30.9,30.9,0,0,1,657.44,55.3a39.74,39.74,0,0,1,19.44-4.74,37.85,37.85,0,0,1,21.6,6.24q9.3,6.23,12.29,19l-9.13-2.49A36.48,36.48,0,0,1,715.93,56.8,41.53,41.53,0,0,1,738.69,50.57Z" transform="translate(-35.97 -50.53)"></path><path class="cls-1" d="M826.08,142.63a40.75,40.75,0,0,1-17.78-3.58,27.84,27.84,0,0,1-11.55-9.72,24.42,24.42,0,0,1-4.07-13.79,25,25,0,0,1,3.91-13.87q3.9-6.06,12.38-9.39T831.23,89h23.6v15H833.89q-9.14,0-12.54,3a9.5,9.5,0,0,0-3.41,7.47,9.33,9.33,0,0,0,3.9,7.9q3.9,2.89,10.55,2.9a23.46,23.46,0,0,0,11.88-3,16.3,16.3,0,0,0,7.4-9.13l4,12.13a23.45,23.45,0,0,1-10.3,12.87Q837.88,142.64,826.08,142.63Zm27.25-1.33V123.86L851.67,120V88.8q0-8.31-5.07-13t-15.53-4.66a45,45,0,0,0-14,2.25,39.09,39.09,0,0,0-11.88,6.06L796,61.38a52.68,52.68,0,0,1,17.62-8.06,80.87,80.87,0,0,1,20.93-2.74q20.45,0,31.74,9.64T877.59,90.3v51Z" transform="translate(-35.97 -50.53)"></path><path class="cls-1" d="M901,141.31V51.92h24.76V77.34l-3.48-7.48a28.74,28.74,0,0,1,12.79-14.37q8.8-4.89,21.44-4.9v24.1a28.6,28.6,0,0,0-2.91-.5,23.56,23.56,0,0,0-2.74-.17q-11,0-17.44,6.15t-6.49,18.94v42.2Z" transform="translate(-35.97 -50.53)"></path><path class="cls-1" d="M1014.33,142.65a54.35,54.35,0,0,1-25.67-5.9,44.11,44.11,0,0,1-24-40.13,44.16,44.16,0,0,1,6.4-23.76,45.48,45.48,0,0,1,17.62-16.28,53.65,53.65,0,0,1,25.67-6q14.11,0,24.67,5.9a34.28,34.28,0,0,1,15.2,16.7l-19.94,11a24,24,0,0,0-8.8-9.23,22.69,22.69,0,0,0-11.3-2.9,24.07,24.07,0,0,0-11.8,2.9,21.68,21.68,0,0,0-8.47,8.39,26.2,26.2,0,0,0-3.16,13.29A26.75,26.75,0,0,0,993.89,110a21.45,21.45,0,0,0,8.48,8.47,24.16,24.16,0,0,0,11.8,2.91,22.55,22.55,0,0,0,11.29-2.9,23.8,23.8,0,0,0,8.81-9.39l19.94,11A34.8,34.8,0,0,1,1039,136.67Q1028.46,142.66,1014.33,142.65Z" transform="translate(-35.97 -50.53)"></path><path class="cls-1" d="M1096.9,142.66a40.74,40.74,0,0,1-17.77-3.58,27.78,27.78,0,0,1-11.55-9.72,24.35,24.35,0,0,1-4.07-13.79,25,25,0,0,1,3.91-13.87q3.9-6.06,12.38-9.39T1102.06,89h23.6v15h-20.93q-9.13,0-12.55,3a9.52,9.52,0,0,0-3.4,7.47,9.3,9.3,0,0,0,3.9,7.89q3.9,2.91,10.55,2.91a23.46,23.46,0,0,0,11.88-3,16.34,16.34,0,0,0,7.4-9.13l4,12.13a23.49,23.49,0,0,1-10.3,12.87Q1108.7,142.66,1096.9,142.66Zm27.25-1.33V123.89l-1.67-3.83V88.83q0-8.31-5.07-13t-15.53-4.66a44.93,44.93,0,0,0-14,2.25A39.09,39.09,0,0,0,1076,79.52l-9.14-18.11a52.53,52.53,0,0,1,17.61-8.06,81,81,0,0,1,20.94-2.74q20.43,0,31.73,9.64t11.3,30.08v51Z" transform="translate(-35.97 -50.53)"></path><path class="cls-1" d="M541.44,325.14a52.36,52.36,0,0,1-11.63-1.25,28.48,28.48,0,0,1-9.31-3.74l7-18.77a18.62,18.62,0,0,0,11,3.16,9.72,9.72,0,0,0,7.73-3.16q2.73-3.15,2.74-10V202.19h25.92v89.06q0,15.62-8.73,24.75T541.44,325.14Zm20.45-135.41q-7.32,0-11.8-4.16a14.07,14.07,0,0,1,0-20.6q4.49-4.16,11.79-4.15,7.14,0,11.72,3.9a12.65,12.65,0,0,1,4.56,10.06,14.08,14.08,0,0,1-4.48,10.71Q569.21,189.74,561.89,189.73Z" transform="translate(-35.97 -50.53)"></path><path class="cls-1" d="M641.3,292.92a52,52,0,0,1-25.17-6,46.45,46.45,0,0,1-17.36-63.88,44.34,44.34,0,0,1,17.37-16.29,52.6,52.6,0,0,1,25.17-5.89,53.5,53.5,0,0,1,25.42,5.9,44.17,44.17,0,0,1,17.44,16.28,45,45,0,0,1,6.31,23.85,44.55,44.55,0,0,1-6.31,23.76,45,45,0,0,1-17.45,16.28A52.84,52.84,0,0,1,641.3,292.92Zm0-21.27A23.1,23.1,0,0,0,653,268.74a21.3,21.3,0,0,0,8.15-8.55,27.4,27.4,0,0,0,3.07-13.29,26.83,26.83,0,0,0-3.07-13.3,21.63,21.63,0,0,0-8.14-8.39,22.78,22.78,0,0,0-11.55-2.91,23.22,23.22,0,0,0-11.63,2.91,21.34,21.34,0,0,0-8.22,8.39,26.68,26.68,0,0,0-3.08,13.29,27.35,27.35,0,0,0,3.07,13.29,21.12,21.12,0,0,0,8.23,8.56A22.87,22.87,0,0,0,641.3,271.65Z" transform="translate(-35.97 -50.53)"></path><path class="cls-1" d="M729.69,291.6l-37.54-89.4h26.58L750,279.14H736.67l32.58-76.93H794L756.28,291.6Z" transform="translate(-35.97 -50.53)"></path><path class="cls-1" d="M846.5,292.94q-15.3,0-26.75-6a43.56,43.56,0,0,1-24.09-40,46.56,46.56,0,0,1,6.06-23.76,42.71,42.71,0,0,1,16.95-16.36,50.65,50.65,0,0,1,24.51-5.9,49.46,49.46,0,0,1,23.68,5.65,42.41,42.41,0,0,1,16.69,16q6.15,10.31,6.15,24.75c0,1-.06,2.14-.17,3.41s-.22,2.47-.33,3.57H816.59V239.1h59l-10.14,4.48a23.7,23.7,0,0,0-2.65-12.13,20.7,20.7,0,0,0-7.81-8.05,22.67,22.67,0,0,0-11.63-2.91,23.23,23.23,0,0,0-11.72,2.9,20.27,20.27,0,0,0-7.89,8.14,25.63,25.63,0,0,0-2.83,12.38v4a24.59,24.59,0,0,0,3.32,13,21.92,21.92,0,0,0,9.14,8.39,30.91,30.91,0,0,0,14,2.91A33.15,33.15,0,0,0,859.71,270a30.52,30.52,0,0,0,9.88-6.48l13.79,15a40.19,40.19,0,0,1-15.45,10.71A57,57,0,0,1,846.5,292.94Z" transform="translate(-35.97 -50.53)"></path><path class="cls-1" d="M1021.46,200.91a40.53,40.53,0,0,1,18.86,4.24,30,30,0,0,1,12.88,13q4.65,8.73,4.65,22.35v51.17h-25.92V244.44q0-10.8-4.4-15.95t-12.38-5.15a20.37,20.37,0,0,0-10.3,2.57,16.84,16.84,0,0,0-6.9,7.65q-2.41,5.07-2.41,13.21v44.86H969.61V244.44q0-10.8-4.4-15.95t-12.71-5.16a20,20,0,0,0-10.14,2.58,17.37,17.37,0,0,0-7,7.64q-2.49,5.07-2.49,13.21v44.86H907V202.23h24.76v24.26l-4.65-7a30.85,30.85,0,0,1,13.13-13.87,39.68,39.68,0,0,1,19.43-4.74,37.85,37.85,0,0,1,21.6,6.24q9.32,6.23,12.3,19l-9.14-2.49a36.48,36.48,0,0,1,14.29-16.53A41.55,41.55,0,0,1,1021.46,200.91Z" transform="translate(-35.97 -50.53)"></path><path class="cls-1" d="M1098.06,251.1A25,25,0,0,1,1100,241a33.86,33.86,0,0,1,4.82-8,57.06,57.06,0,0,1,6.23-6.56q3.32-3,6.23-5.73a30.55,30.55,0,0,0,4.82-5.74,12.39,12.39,0,0,0,1.91-6.81,11.31,11.31,0,0,0-4.9-9.47c-3.27-2.43-7.56-3.66-12.88-3.66a29.7,29.7,0,0,0-14.2,3.24,28.08,28.08,0,0,0-10.06,9.06l-20.1-11.8a47.64,47.64,0,0,1,18.53-16.28q11.72-6,28.49-6a62.5,62.5,0,0,1,22.1,3.57,33.06,33.06,0,0,1,14.79,10.39,26.21,26.21,0,0,1,5.31,16.62,29.47,29.47,0,0,1-7.14,20.27,73.36,73.36,0,0,1-6.73,6.81q-3.59,3.15-6.73,6.14a29.91,29.91,0,0,0-5.15,6.32,14.54,14.54,0,0,0-2,7.64ZM1110.68,293a15.33,15.33,0,0,1-11.3-4.49,14.52,14.52,0,0,1-4.48-10.63,13.91,13.91,0,0,1,4.48-10.55,15.79,15.79,0,0,1,11.3-4.24q7.14,0,11.55,4.24a14.05,14.05,0,0,1,4.4,10.55,14.67,14.67,0,0,1-4.4,10.63A15.48,15.48,0,0,1,1110.68,293Z" transform="translate(-35.97 -50.53)"></path></g></g></g></svg>