<svg xmlns="http://www.w3.org/2000/svg" viewBox="0 0 2927.06 335.5"><defs><style>.cls-1{fill:#fff;}</style></defs><title>2</title><g id="Camada_2" data-name="Camada 2"><g id="Camada_2-2" data-name="Camada 2"><path class="cls-1" d="M60.72,228.11q-13.8,0-24.36-5.28a37.34,37.34,0,0,1-16.44-16.25Q14,195.63,14,179V117.27H45.71v56.84q0,13.8,5.79,20.2t16.34,6.39a25.77,25.77,0,0,0,13-3.24,23,23,0,0,0,9-9.75q3.36-6.48,3.36-16.23v-54.2h31.46V226.49h-30V196.24l5.48,8.93a38.68,38.68,0,0,1-16.24,17.15A47.33,47.33,0,0,1,60.72,228.11Z" transform="translate(-14.04 -115.67)"></path><path class="cls-1" d="M294,115.68a49.62,49.62,0,0,1,23,5.17,36.68,36.68,0,0,1,15.73,15.84q5.67,10.65,5.68,27.3v62.52H306.74V168.86q0-13.2-5.38-19.49t-15.12-6.29a24.86,24.86,0,0,0-12.58,3.14,20.61,20.61,0,0,0-8.43,9.34q-2.94,6.19-2.94,16.14v54.8H230.62V168.85q0-13.18-5.38-19.49t-15.53-6.29a24.5,24.5,0,0,0-12.38,3.14,21.37,21.37,0,0,0-8.53,9.34q-3,6.19-3,16.14V226.5H154.1V117.28h30.24v29.63l-5.68-8.52a37.79,37.79,0,0,1,16-17,48.52,48.52,0,0,1,23.75-5.78q15,0,26.38,7.61t15,23.25l-11.16-3.05a44.64,44.64,0,0,1,17.46-20.2Q278.13,115.67,294,115.68Z" transform="translate(-14.04 -115.67)"></path><path class="cls-1" d="M400.73,228.14q-12.59,0-21.72-4.36A34.05,34.05,0,0,1,364.9,211.9a29.78,29.78,0,0,1-5-16.85,30.63,30.63,0,0,1,4.77-17q4.77-7.41,15.13-11.46t27.2-4.06h28.82v18.27H410.27q-11.16,0-15.32,3.65a11.64,11.64,0,0,0-4.16,9.13,11.37,11.37,0,0,0,4.76,9.65q4.77,3.56,12.89,3.55A28.84,28.84,0,0,0,423,203.18,20,20,0,0,0,432,192l4.87,14.82a28.71,28.71,0,0,1-12.58,15.73Q415.15,228.15,400.73,228.14ZM434,226.52V205.21l-2-4.67V162.38q0-10.15-6.19-15.84t-19-5.68a55.09,55.09,0,0,0-17.16,2.74,48,48,0,0,0-14.51,7.4L364,128.88A64.37,64.37,0,0,1,385.52,119a99,99,0,0,1,25.57-3.34q25,0,38.77,11.78t13.8,36.74v62.32Z" transform="translate(-14.04 -115.67)"></path><path class="cls-1" d="M689.59,115.72a49.62,49.62,0,0,1,23,5.18,36.66,36.66,0,0,1,15.73,15.83Q734,147.4,734,164v62.52H702.37V168.9q0-13.18-5.37-19.48t-15.12-6.3a24.8,24.8,0,0,0-12.59,3.15,20.74,20.74,0,0,0-8.43,9.33q-2.94,6.19-2.94,16.14v54.81H626.25V168.9q0-13.2-5.37-19.49t-15.53-6.3A24.38,24.38,0,0,0,593,146.26a21.23,21.23,0,0,0-8.53,9.33q-3,6.19-3.05,16.14v54.81H549.72V117.33H580V147l-5.68-8.53a37.85,37.85,0,0,1,16-17,48.63,48.63,0,0,1,23.75-5.78q15,0,26.39,7.62t15,23.24l-11.17-3a44.62,44.62,0,0,1,17.46-20.19Q673.77,115.71,689.59,115.72Z" transform="translate(-14.04 -115.67)"></path><path class="cls-1" d="M796.35,228.19q-12.58,0-21.72-4.37a34,34,0,0,1-14.1-11.88,29.78,29.78,0,0,1-5-16.84,30.63,30.63,0,0,1,4.78-16.95q4.77-7.41,15.12-11.47t27.2-4.06h28.83v18.26H805.9q-11.17,0-15.33,3.65a11.67,11.67,0,0,0-4.16,9.14,11.39,11.39,0,0,0,4.77,9.64q4.77,3.56,12.89,3.55a28.67,28.67,0,0,0,14.51-3.65,19.9,19.9,0,0,0,9-11.16l4.87,14.82a28.77,28.77,0,0,1-12.59,15.73Q810.76,228.19,796.35,228.19Zm33.29-1.62V205.25l-2-4.67V162.42q0-10.14-6.19-15.83t-19-5.69a55,55,0,0,0-17.15,2.74,48.18,48.18,0,0,0-14.52,7.41l-11.16-22.13a64.35,64.35,0,0,1,21.52-9.84,99.19,99.19,0,0,1,25.58-3.35q25,0,38.77,11.78t13.8,36.74v62.32Z" transform="translate(-14.04 -115.67)"></path><path class="cls-1" d="M887.9,226.57V117.36h30.25v31.06l-4.26-9.14a35.16,35.16,0,0,1,15.63-17.56q10.77-6,26.19-6v29.43c-1.22-.27-2.41-.47-3.56-.61a29.73,29.73,0,0,0-3.34-.2q-13.41,0-21.32,7.51T919.57,175v51.56Z" transform="translate(-14.04 -115.67)"></path><path class="cls-1" d="M1026.34,228.21q-17.65,0-31.36-7.21a53.82,53.82,0,0,1-29.33-49q0-16.44,7.82-29A55.54,55.54,0,0,1,995,123.06q13.71-7.31,31.36-7.3,17.25,0,30.15,7.21a41.81,41.81,0,0,1,18.57,20.4l-24.36,13.39q-4.47-7.71-10.76-11.26a27.6,27.6,0,0,0-13.8-3.56,29.65,29.65,0,0,0-14.42,3.55,26.48,26.48,0,0,0-10.35,10.25q-3.86,6.7-3.86,16.24a32.62,32.62,0,0,0,3.86,16.34,26.24,26.24,0,0,0,10.35,10.36,29.5,29.5,0,0,0,14.41,3.55,27.54,27.54,0,0,0,13.8-3.55q6.3-3.56,10.76-11.47l24.36,13.4a42.5,42.5,0,0,1-18.57,20.3Q1043.59,228.22,1026.34,228.21Z" transform="translate(-14.04 -115.67)"></path><path class="cls-1" d="M1127.22,228.22q-12.59,0-21.72-4.36A34,34,0,0,1,1091.4,212a29.78,29.78,0,0,1-5-16.85,30.63,30.63,0,0,1,4.77-16.95q4.77-7.41,15.12-11.46t27.2-4.06h28.83v18.27h-25.58q-11.16,0-15.33,3.65a11.67,11.67,0,0,0-4.16,9.13,11.4,11.4,0,0,0,4.77,9.65q4.77,3.55,12.89,3.55a28.77,28.77,0,0,0,14.51-3.65,20,20,0,0,0,9-11.17l4.87,14.82a28.73,28.73,0,0,1-12.59,15.73Q1141.64,228.24,1127.22,228.22Zm33.3-1.62V205.29l-2-4.67V162.46q0-10.16-6.19-15.84t-19-5.68a55,55,0,0,0-17.15,2.74,47.88,47.88,0,0,0-14.51,7.4L1090.49,129a64.56,64.56,0,0,1,21.52-9.85,99.18,99.18,0,0,1,25.58-3.34q25,0,38.77,11.78t13.8,36.74v62.32Z" transform="translate(-14.04 -115.67)"></path><path class="cls-1" d="M448.6,451.16a64.2,64.2,0,0,1-14.2-1.52A34.83,34.83,0,0,1,423,445.07l8.53-22.94A22.69,22.69,0,0,0,445,426q6.09,0,9.44-3.85T457.74,410l0-109h31.66V409.76q0,19.08-10.66,30.24T448.6,451.16Zm25-165.43q-8.94,0-14.41-5.08a17.19,17.19,0,0,1,0-25.17q5.49-5.07,14.41-5.07,8.73,0,14.32,4.77a15.43,15.43,0,0,1,5.58,12.28A17.21,17.21,0,0,1,488,280.55Q482.53,285.73,473.59,285.73Z" transform="translate(-14.04 -115.67)"></path><path class="cls-1" d="M570.6,411.8q-17.25,0-30.75-7.32a54,54,0,0,1-28.92-48.92q0-16.44,7.72-29.13a54.21,54.21,0,0,1,21.21-19.89q13.5-7.2,30.76-7.2,17.45,0,31,7.21A54,54,0,0,1,623,326.44q7.71,12.69,7.71,29.13t-7.72,29a55,55,0,0,1-21.32,19.89Q588.06,411.8,570.6,411.8Zm0-26a28.24,28.24,0,0,0,14.31-3.55,26,26,0,0,0,10-10.45,33.5,33.5,0,0,0,3.75-16.24q0-9.54-3.75-16.24a26.37,26.37,0,0,0-9.94-10.25,27.93,27.93,0,0,0-14.11-3.56,28.36,28.36,0,0,0-14.21,3.56,26,26,0,0,0-10.05,10.25q-3.76,6.69-3.76,16.23a33.39,33.39,0,0,0,3.76,16.24,25.8,25.8,0,0,0,10,10.46A28,28,0,0,0,570.61,385.81Z" transform="translate(-14.04 -115.67)"></path><path class="cls-1" d="M678.6,410.18,632.73,301h32.48l38.15,94H687.12l39.8-94h30.25l-46.1,109.21Z" transform="translate(-14.04 -115.67)"></path><path class="cls-1" d="M821.3,411.82q-18.69,0-32.68-7.31a53.2,53.2,0,0,1-29.43-48.92,56.84,56.84,0,0,1,7.41-29,52.1,52.1,0,0,1,20.71-20,61.72,61.72,0,0,1,29.94-7.2,60.28,60.28,0,0,1,28.92,6.9,51.74,51.74,0,0,1,20.4,19.49q7.51,12.58,7.51,30.25c0,1.21-.07,2.6-.2,4.16s-.28,3-.41,4.36H784.76V346.05h72.06l-12.39,5.48a28.84,28.84,0,0,0-3.24-14.82,25.24,25.24,0,0,0-9.54-9.85,27.78,27.78,0,0,0-14.21-3.55,28.24,28.24,0,0,0-14.31,3.55,24.76,24.76,0,0,0-9.64,9.95A31.26,31.26,0,0,0,790,351.94v4.87a29.9,29.9,0,0,0,4.06,15.83,26.84,26.84,0,0,0,11.16,10.26,37.75,37.75,0,0,0,17,3.55,40.49,40.49,0,0,0,15.13-2.64,37.29,37.29,0,0,0,12.08-7.91l16.84,18.27a49.19,49.19,0,0,1-18.88,13.09Q836.11,411.82,821.3,411.82Z" transform="translate(-14.04 -115.67)"></path><path class="cls-1" d="M1035.06,299.39a49.62,49.62,0,0,1,23,5.18,36.71,36.71,0,0,1,15.73,15.83q5.67,10.67,5.68,27.31v62.52h-31.67V352.57q0-13.19-5.38-19.48t-15.12-6.3a24.76,24.76,0,0,0-12.58,3.15,20.63,20.63,0,0,0-8.43,9.33q-2.94,6.19-2.94,16.14v54.81H971.71V352.57q0-13.2-5.38-19.49t-15.53-6.3a24.41,24.41,0,0,0-12.38,3.15,21.26,21.26,0,0,0-8.53,9.34q-3,6.19-3,16.13v54.81H895.19V301h30.24v29.64l-5.68-8.53a37.83,37.83,0,0,1,16-16.95,48.7,48.7,0,0,1,23.76-5.78q15,0,26.38,7.62t15,23.24l-11.16-3.05A44.61,44.61,0,0,1,1007.25,307Q1019.22,299.4,1035.06,299.39Z" transform="translate(-14.04 -115.67)"></path><path class="cls-1" d="M1128.63,360.7a30.53,30.53,0,0,1,2.34-12.28,41.35,41.35,0,0,1,5.88-9.74,71.65,71.65,0,0,1,7.62-8q4-3.65,7.61-7a37.38,37.38,0,0,0,5.89-7,15.18,15.18,0,0,0,2.33-8.32,13.82,13.82,0,0,0-6-11.58q-6-4.45-15.74-4.46a36.27,36.27,0,0,0-17.35,3.95A34.42,34.42,0,0,0,1109,307.31l-24.56-14.41A58.23,58.23,0,0,1,1107,273q14.31-7.31,34.82-7.3,15.42,0,27,4.36t18.07,12.69q6.49,8.33,6.49,20.3a36.08,36.08,0,0,1-8.73,24.77,87.28,87.28,0,0,1-8.22,8.32q-4.37,3.86-8.22,7.51a36.34,36.34,0,0,0-6.3,7.71,17.84,17.84,0,0,0-2.43,9.34Zm15.42,51.16a18.71,18.71,0,0,1-13.8-5.48,17.79,17.79,0,0,1-5.48-13,17,17,0,0,1,5.48-12.88,19.3,19.3,0,0,1,13.81-5.18q8.71,0,14.1,5.18a17.15,17.15,0,0,1,5.38,12.89,17.89,17.89,0,0,1-5.38,13Q1152.77,411.85,1144.05,411.86Z" transform="translate(-14.04 -115.67)"></path><path class="cls-1" d="M1290.75,197.9a36.6,36.6,0,0,1-13.5-2.45,31.66,31.66,0,0,1-10.78-6.91,32.05,32.05,0,0,1-7.1-10.41,34.9,34.9,0,0,1,0-26.09,32,32,0,0,1,17.83-17.33,38.59,38.59,0,0,1,27,0,32.3,32.3,0,0,1,10.74,6.87A31.34,31.34,0,0,1,1322,152a35,35,0,0,1,0,26.17,31.34,31.34,0,0,1-7.09,10.42,32.12,32.12,0,0,1-10.74,6.86A36.24,36.24,0,0,1,1290.75,197.9Zm0-6.09a28.58,28.58,0,0,0,10.74-2,25.27,25.27,0,0,0,8.57-5.62,26.2,26.2,0,0,0,5.67-8.48,28.93,28.93,0,0,0,0-21.29,26.09,26.09,0,0,0-5.67-8.48,25.27,25.27,0,0,0-8.57-5.62,28.58,28.58,0,0,0-10.74-2,28.9,28.9,0,0,0-10.78,2,25.75,25.75,0,0,0-14.38,14.1,28.79,28.79,0,0,0,0,21.24A25.63,25.63,0,0,0,1280,189.83,28.9,28.9,0,0,0,1290.75,191.81Z" transform="translate(-14.04 -115.67)"></path><path class="cls-1" d="M1392.23,197.9a36.53,36.53,0,0,1-13.5-2.45,31.7,31.7,0,0,1-10.79-6.91,32.05,32.05,0,0,1-7.1-10.41,34.9,34.9,0,0,1,0-26.09,31.95,31.95,0,0,1,17.84-17.33,38.57,38.57,0,0,1,27,0,32.3,32.3,0,0,1,10.74,6.87,31.37,31.37,0,0,1,7.1,10.42,35.1,35.1,0,0,1,0,26.17,31.37,31.37,0,0,1-7.1,10.42,32.12,32.12,0,0,1-10.74,6.86A36.19,36.19,0,0,1,1392.23,197.9Zm0-6.09a28.58,28.58,0,0,0,10.74-2,25.37,25.37,0,0,0,8.57-5.62,26.3,26.3,0,0,0,5.67-8.53,28.93,28.93,0,0,0,0-21.24,26.41,26.41,0,0,0-5.67-8.48,25.37,25.37,0,0,0-8.57-5.62,28.58,28.58,0,0,0-10.74-2,29,29,0,0,0-10.79,2,25.69,25.69,0,0,0-14.37,14.1,28.79,28.79,0,0,0,0,21.24,25.58,25.58,0,0,0,14.37,14.15A29,29,0,0,0,1392.23,191.81Zm21.1,18.34a22.13,22.13,0,0,1-5.71-.73,24,24,0,0,1-5.58-2.35,37,37,0,0,1-5.76-4.2q-2.94-2.58-6.45-6.27l7.47-1.84a41.17,41.17,0,0,0,5.57,5.62,21.23,21.23,0,0,0,5.35,3.28,14,14,0,0,0,5.21,1.06,15.63,15.63,0,0,0,12.26-5.9l3.31,4A19.37,19.37,0,0,1,1413.33,210.15Z" transform="translate(-14.04 -115.67)"></path><path class="cls-1" d="M1467.35,197.9q-12.36,0-19.45-7.1t-7.1-21v-37h6.82v36.69q0,11.43,5.16,16.86t14.57,5.44q9.48,0,14.65-5.44t5.16-16.86V132.82h6.64v37q0,13.92-7,21T1467.35,197.9Z" transform="translate(-14.04 -115.67)"></path><path class="cls-1" d="M1521.17,191.44H1560v5.9h-45.62V132.82h44.24v5.9h-37.42Zm-.74-29.77h34.1v5.81h-34.1Z" transform="translate(-14.04 -115.67)"></path><path class="cls-1" d="M1618,197.9a40.6,40.6,0,0,1-13.78-2.36,26.24,26.24,0,0,1-10.19-6l2.67-5.26a27,27,0,0,0,9.18,5.58,32.78,32.78,0,0,0,12.12,2.26,27.24,27.24,0,0,0,9.9-1.52,12.08,12.08,0,0,0,5.63-4.1,9.84,9.84,0,0,0,1.79-5.72,8.53,8.53,0,0,0-2.16-6.08,15,15,0,0,0-5.67-3.64,62.3,62.3,0,0,0-7.74-2.35q-4.25-1-8.48-2.17a35.76,35.76,0,0,1-7.79-3.09,16.15,16.15,0,0,1-5.72-5.11,14.58,14.58,0,0,1-2.16-8.34,16.12,16.12,0,0,1,2.53-8.8,17.71,17.71,0,0,1,7.79-6.46q5.25-2.43,13.46-2.44a39.36,39.36,0,0,1,10.78,1.52,31.06,31.06,0,0,1,9.22,4.2l-2.31,5.43a30.49,30.49,0,0,0-8.8-4,33.59,33.59,0,0,0-9-1.29,25.31,25.31,0,0,0-9.59,1.56,12.22,12.22,0,0,0-5.58,4.2,10.32,10.32,0,0,0-1.79,5.94,8.56,8.56,0,0,0,2.16,6.09,14.56,14.56,0,0,0,5.72,3.59,71.83,71.83,0,0,0,7.79,2.31q4.23,1,8.43,2.21a40.17,40.17,0,0,1,7.74,3.08,15.94,15.94,0,0,1,5.72,5,14.17,14.17,0,0,1,2.16,8.2,15.79,15.79,0,0,1-2.58,8.71,18,18,0,0,1-7.88,6.45Q1626.25,197.9,1618,197.9Z" transform="translate(-14.04 -115.67)"></path><path class="cls-1" d="M1646.52,197.34,1676,132.82h6.73l29.49,64.52H1705L1678,136.79h2.76l-27.1,60.55Zm11.61-17.23,2-5.53h37.51l2,5.53Z" transform="translate(-14.04 -115.67)"></path><path class="cls-1" d="M1722.92,197.34V132.82h27.84q10.79,0,16.73,4.34t5.94,12.25a14.66,14.66,0,0,1-9.08,14.29,22.49,22.49,0,0,1-9.17,1.84l1.57-2.21a27.29,27.29,0,0,1,10.65,1.89,15.35,15.35,0,0,1,6.95,5.62,16.35,16.35,0,0,1,2.49,9.27q0,8.2-6,12.72t-18.21,4.51Zm6.82-5.62h22.77q8.48,0,13-2.9t4.51-9.27q0-6.26-4.51-9.17t-13-2.9H1729v-5.62h21.29q7.74,0,12-3t4.28-8.76q0-5.9-4.28-8.8t-12-2.9h-20.56Z" transform="translate(-14.04 -115.67)"></path><path class="cls-1" d="M1799.24,191.44H1838v5.9h-45.62V132.82h44.24v5.9h-37.42Zm-.74-29.77h34.1v5.81h-34.1Z" transform="translate(-14.04 -115.67)"></path><path class="cls-1" d="M1854.08,197.34V132.82h5.62l29.49,50.33h-3l29.22-50.33h5.62v64.52h-6.54V143.05h1.57l-26.92,46.09H1886l-27.1-46.09h1.75v54.29Z" transform="translate(-14.04 -115.67)"></path><path class="cls-1" d="M1970.3,197.9a36.6,36.6,0,0,1-13.5-2.45,31.8,31.8,0,0,1-17.88-17.32,34.77,34.77,0,0,1,0-26.09,32,32,0,0,1,17.83-17.33,38.59,38.59,0,0,1,27,0,32.5,32.5,0,0,1,10.74,6.87,31.34,31.34,0,0,1,7.09,10.42,35,35,0,0,1,0,26.17,31.34,31.34,0,0,1-7.09,10.42,32.32,32.32,0,0,1-10.74,6.86A36.28,36.28,0,0,1,1970.3,197.9Zm0-6.09a28.58,28.58,0,0,0,10.74-2,25.37,25.37,0,0,0,8.57-5.62,26.2,26.2,0,0,0,5.67-8.48,28.93,28.93,0,0,0,0-21.29,26.09,26.09,0,0,0-5.67-8.48,25.37,25.37,0,0,0-8.57-5.62,28.58,28.58,0,0,0-10.74-2,28.9,28.9,0,0,0-10.78,2,25.67,25.67,0,0,0-14.38,14.1,28.79,28.79,0,0,0,0,21.24,25.55,25.55,0,0,0,14.38,14.15A28.9,28.9,0,0,0,1970.3,191.81Z" transform="translate(-14.04 -115.67)"></path><path class="cls-1" d="M2037.21,197.9a40.59,40.59,0,0,1-13.77-2.36,26.24,26.24,0,0,1-10.19-6l2.67-5.26a27.08,27.08,0,0,0,9.17,5.58,32.82,32.82,0,0,0,12.12,2.26,27.26,27.26,0,0,0,9.91-1.52,12,12,0,0,0,5.62-4.1,9.78,9.78,0,0,0,1.8-5.72,8.53,8.53,0,0,0-2.16-6.08,15,15,0,0,0-5.67-3.64,62.3,62.3,0,0,0-7.74-2.35q-4.24-1-8.48-2.17a35.76,35.76,0,0,1-7.79-3.09,16.15,16.15,0,0,1-5.72-5.11,14.58,14.58,0,0,1-2.16-8.34,16.12,16.12,0,0,1,2.53-8.8,17.71,17.71,0,0,1,7.79-6.46q5.25-2.43,13.46-2.44a39.36,39.36,0,0,1,10.78,1.52,31.06,31.06,0,0,1,9.22,4.2l-2.31,5.43a30.49,30.49,0,0,0-8.8-4,33.6,33.6,0,0,0-9-1.29,25.29,25.29,0,0,0-9.58,1.56,12.22,12.22,0,0,0-5.58,4.2,10.32,10.32,0,0,0-1.79,5.94,8.56,8.56,0,0,0,2.16,6.09,14.48,14.48,0,0,0,5.72,3.59,72.31,72.31,0,0,0,7.78,2.31q4.24,1,8.44,2.21a40.43,40.43,0,0,1,7.74,3.08,15.91,15.91,0,0,1,5.71,5,14.09,14.09,0,0,1,2.17,8.2,15.79,15.79,0,0,1-2.58,8.71,18,18,0,0,1-7.88,6.45Q2045.5,197.9,2037.21,197.9Z" transform="translate(-14.04 -115.67)"></path><path class="cls-1" d="M2107.08,191.44h38.8v5.9h-45.62V132.82h44.24v5.9h-37.42Zm-.74-29.77h34.1v5.81h-34.1Zm10.14-34.1,12.62-11.43h8.76l-14.93,11.43Z" transform="translate(-14.04 -115.67)"></path><path class="cls-1" d="M2214.27,197.9a36.62,36.62,0,0,1-13.51-2.45,31.8,31.8,0,0,1-17.88-17.32,34.9,34.9,0,0,1,0-26.09,31.95,31.95,0,0,1,17.84-17.33,38.57,38.57,0,0,1,27,0,32.3,32.3,0,0,1,10.74,6.87,31.37,31.37,0,0,1,7.1,10.42,35.1,35.1,0,0,1,0,26.17,31.37,31.37,0,0,1-7.1,10.42,32.12,32.12,0,0,1-10.74,6.86A36.19,36.19,0,0,1,2214.27,197.9Zm0-6.09a28.49,28.49,0,0,0,10.73-2,25.31,25.31,0,0,0,8.58-5.62,26.12,26.12,0,0,0,5.66-8.53,28.79,28.79,0,0,0,0-21.24,26.22,26.22,0,0,0-5.66-8.48,25.31,25.31,0,0,0-8.58-5.62,28.49,28.49,0,0,0-10.73-2,29,29,0,0,0-10.79,2,25.75,25.75,0,0,0-14.38,14.1,28.93,28.93,0,0,0,0,21.24,25.63,25.63,0,0,0,14.38,14.15A29,29,0,0,0,2214.27,191.81Zm21.1,18.34a22.13,22.13,0,0,1-5.71-.73,24,24,0,0,1-5.58-2.35,37,37,0,0,1-5.76-4.2q-3-2.58-6.45-6.27l7.47-1.84a41.17,41.17,0,0,0,5.57,5.62,21.06,21.06,0,0,0,5.35,3.28,13.94,13.94,0,0,0,5.21,1.06,15.61,15.61,0,0,0,12.25-5.9l3.32,4A19.37,19.37,0,0,1,2235.37,210.15Z" transform="translate(-14.04 -115.67)"></path><path class="cls-1" d="M2289.38,197.9q-12.35,0-19.44-7.1t-7.1-21v-37h6.82v36.69q0,11.43,5.16,16.86t14.56,5.44q9.49,0,14.66-5.44t5.16-16.86V132.82h6.64v37q0,13.92-7.06,21T2289.38,197.9Z" transform="translate(-14.04 -115.67)"></path><path class="cls-1" d="M2343.21,191.44H2382v5.9h-45.62V132.82h44.24v5.9h-37.42Zm-.74-29.77h34.1v5.81h-34.1Z" transform="translate(-14.04 -115.67)"></path><path class="cls-1" d="M2422.19,197.34V132.82h5.63l44.51,56h-2.94v-56h6.72v64.52h-5.62l-44.42-56H2429v56Z" transform="translate(-14.04 -115.67)"></path><path class="cls-1" d="M2486.8,197.34l29.5-64.52H2523l29.49,64.52h-7.19l-27.1-60.55H2521l-27.1,60.55Zm11.62-17.23,2-5.53H2538l2,5.53ZM2526,127a7.67,7.67,0,0,1-3.78-.92,15.33,15.33,0,0,1-3-2.17,31.17,31.17,0,0,0-2.63-2.21,4.37,4.37,0,0,0-2.67-1,4.05,4.05,0,0,0-3.36,1.57,7.61,7.61,0,0,0-1.43,4.33h-4a12,12,0,0,1,2.44-7.37,7.17,7.17,0,0,1,5.85-2.77,7.6,7.6,0,0,1,3.83,1,16,16,0,0,1,3,2.21,31,31,0,0,0,2.58,2.17,4.36,4.36,0,0,0,2.62.92,4.29,4.29,0,0,0,3.42-1.52,6.72,6.72,0,0,0,1.38-4.2h4a11.21,11.21,0,0,1-2.4,7.19A7.3,7.3,0,0,1,2526,127Z" transform="translate(-14.04 -115.67)"></path><path class="cls-1" d="M2590.49,197.9a36.6,36.6,0,0,1-13.5-2.45,31.66,31.66,0,0,1-10.78-6.91,32.05,32.05,0,0,1-7.1-10.41,34.9,34.9,0,0,1,0-26.09,32,32,0,0,1,17.83-17.33,38.59,38.59,0,0,1,27,0,32.3,32.3,0,0,1,10.74,6.87,31.34,31.34,0,0,1,7.09,10.42,35,35,0,0,1,0,26.17,31.34,31.34,0,0,1-7.09,10.42,32.12,32.12,0,0,1-10.74,6.86A36.24,36.24,0,0,1,2590.49,197.9Zm0-6.09a28.58,28.58,0,0,0,10.74-2,25.27,25.27,0,0,0,8.57-5.62,26.2,26.2,0,0,0,5.67-8.48,28.93,28.93,0,0,0,0-21.29,26.09,26.09,0,0,0-5.67-8.48,25.27,25.27,0,0,0-8.57-5.62,28.58,28.58,0,0,0-10.74-2,28.9,28.9,0,0,0-10.78,2,25.75,25.75,0,0,0-14.38,14.1,28.79,28.79,0,0,0,0,21.24,25.63,25.63,0,0,0,14.38,14.15A28.9,28.9,0,0,0,2590.49,191.81Z" transform="translate(-14.04 -115.67)"></path><path class="cls-1" d="M1280.34,316.9a40.64,40.64,0,0,1-13.78-2.36,26.31,26.31,0,0,1-10.19-6l2.68-5.26a27,27,0,0,0,9.17,5.58,32.82,32.82,0,0,0,12.12,2.26,27.3,27.3,0,0,0,9.91-1.52,12,12,0,0,0,5.62-4.1,9.78,9.78,0,0,0,1.8-5.72,8.54,8.54,0,0,0-2.17-6.08,14.81,14.81,0,0,0-5.67-3.64,61.28,61.28,0,0,0-7.74-2.35c-2.83-.68-5.65-1.4-8.48-2.17a36,36,0,0,1-7.79-3.09,16.11,16.11,0,0,1-5.71-5.11,14.5,14.5,0,0,1-2.17-8.34,16.12,16.12,0,0,1,2.54-8.8,17.68,17.68,0,0,1,7.78-6.46q5.27-2.43,13.46-2.44a39.31,39.31,0,0,1,10.78,1.52,31,31,0,0,1,9.22,4.2l-2.3,5.43a30.55,30.55,0,0,0-8.81-4.05,33.53,33.53,0,0,0-9-1.29,25.34,25.34,0,0,0-9.59,1.56,12.18,12.18,0,0,0-5.57,4.2,10.26,10.26,0,0,0-1.8,5.94,8.52,8.52,0,0,0,2.17,6.09,14.44,14.44,0,0,0,5.71,3.59,71.83,71.83,0,0,0,7.79,2.31q4.23,1,8.43,2.21a39.92,39.92,0,0,1,7.74,3.08,15.94,15.94,0,0,1,5.72,5,14.17,14.17,0,0,1,2.16,8.2,15.79,15.79,0,0,1-2.58,8.71,17.91,17.91,0,0,1-7.88,6.45Q1288.64,316.9,1280.34,316.9Z" transform="translate(-14.04 -115.67)"></path><path class="cls-1" d="M1347.44,316.9a36.62,36.62,0,0,1-13.51-2.45,31.8,31.8,0,0,1-17.88-17.32,34.9,34.9,0,0,1,0-26.09,31.95,31.95,0,0,1,17.84-17.33,38.57,38.57,0,0,1,27,0,32.3,32.3,0,0,1,10.74,6.87,31.37,31.37,0,0,1,7.1,10.42,35.1,35.1,0,0,1,0,26.17,31.37,31.37,0,0,1-7.1,10.42,32.12,32.12,0,0,1-10.74,6.86A36.19,36.19,0,0,1,1347.44,316.9Zm0-6.09a28.53,28.53,0,0,0,10.73-2,25.17,25.17,0,0,0,8.57-5.62,26.2,26.2,0,0,0,5.67-8.48,28.93,28.93,0,0,0,0-21.29,26.09,26.09,0,0,0-5.67-8.48,25.17,25.17,0,0,0-8.57-5.62,28.53,28.53,0,0,0-10.73-2,28.92,28.92,0,0,0-10.79,2,25.75,25.75,0,0,0-14.38,14.1,28.93,28.93,0,0,0,0,21.24,25.63,25.63,0,0,0,14.38,14.15A28.92,28.92,0,0,0,1347.44,310.81Z" transform="translate(-14.04 -115.67)"></path><path class="cls-1" d="M1396.56,316.34V251.82h5.62l29.5,50.33h-3l29.21-50.33h5.63v64.52H1457V262.05h1.57l-26.91,46.09h-3.23l-27.1-46.09h1.75v54.29Z" transform="translate(-14.04 -115.67)"></path><path class="cls-1" d="M1512.78,316.9a36.6,36.6,0,0,1-13.5-2.45,31.66,31.66,0,0,1-10.78-6.91,32.05,32.05,0,0,1-7.1-10.41,34.9,34.9,0,0,1,0-26.09,32,32,0,0,1,17.83-17.33,38.59,38.59,0,0,1,27,0,32.3,32.3,0,0,1,10.74,6.87,31.34,31.34,0,0,1,7.09,10.42,35,35,0,0,1,0,26.17,31.34,31.34,0,0,1-7.09,10.42,32.12,32.12,0,0,1-10.74,6.86A36.24,36.24,0,0,1,1512.78,316.9Zm0-6.09a28.58,28.58,0,0,0,10.74-2,25.27,25.27,0,0,0,8.57-5.62,26.2,26.2,0,0,0,5.67-8.48,28.93,28.93,0,0,0,0-21.29,26.09,26.09,0,0,0-5.67-8.48,25.27,25.27,0,0,0-8.57-5.62,28.58,28.58,0,0,0-10.74-2,28.9,28.9,0,0,0-10.78,2,25.75,25.75,0,0,0-14.38,14.1,28.79,28.79,0,0,0,0,21.24A25.63,25.63,0,0,0,1502,308.83,28.9,28.9,0,0,0,1512.78,310.81Z" transform="translate(-14.04 -115.67)"></path><path class="cls-1" d="M1579.7,316.9a40.6,40.6,0,0,1-13.78-2.36,26.24,26.24,0,0,1-10.19-6l2.68-5.26a27,27,0,0,0,9.17,5.58,32.82,32.82,0,0,0,12.12,2.26,27.24,27.24,0,0,0,9.9-1.52,12.08,12.08,0,0,0,5.63-4.1,9.77,9.77,0,0,0,1.79-5.72,8.53,8.53,0,0,0-2.16-6.08,15,15,0,0,0-5.67-3.64,62.3,62.3,0,0,0-7.74-2.35q-4.25-1-8.48-2.17a35.76,35.76,0,0,1-7.79-3.09,16,16,0,0,1-5.71-5.11,14.5,14.5,0,0,1-2.17-8.34,16.12,16.12,0,0,1,2.53-8.8,17.71,17.71,0,0,1,7.79-6.46q5.25-2.43,13.46-2.44a39.36,39.36,0,0,1,10.78,1.52,31,31,0,0,1,9.22,4.2l-2.31,5.43a30.37,30.37,0,0,0-8.8-4.05,33.59,33.59,0,0,0-9-1.29,25.34,25.34,0,0,0-9.59,1.56,12.13,12.13,0,0,0-5.57,4.2,10.26,10.26,0,0,0-1.8,5.94,8.56,8.56,0,0,0,2.16,6.09,14.56,14.56,0,0,0,5.72,3.59,71.83,71.83,0,0,0,7.79,2.31q4.23,1,8.43,2.21a39.92,39.92,0,0,1,7.74,3.08,15.94,15.94,0,0,1,5.72,5,14.17,14.17,0,0,1,2.16,8.2,15.79,15.79,0,0,1-2.58,8.71,18,18,0,0,1-7.88,6.45Q1588,316.9,1579.7,316.9Z" transform="translate(-14.04 -115.67)"></path><path class="cls-1" d="M1642.74,316.34V251.82h5.62l44.52,56h-3v-56h6.73v64.52H1691l-44.42-56h3v56Z" transform="translate(-14.04 -115.67)"></path><path class="cls-1" d="M1724.49,310.44h38.8v5.9h-45.62V251.82h44.24v5.9h-37.42Zm-.74-29.77h34.1v5.81h-34.1Z" transform="translate(-14.04 -115.67)"></path><path class="cls-1" d="M1779.33,316.34V251.82H1785l29.5,50.33h-3l29.21-50.33h5.63v64.52h-6.55V262.05h1.57l-26.91,46.09h-3.23l-27.1-46.09h1.75v54.29Z" transform="translate(-14.04 -115.67)"></path><path class="cls-1" d="M1917.49,316.9q-12.36,0-19.45-7.1t-7.1-21v-37h6.82v36.69q0,11.43,5.17,16.86t14.56,5.44q9.49,0,14.65-5.44t5.16-16.86V251.82h6.64v37q0,13.92-7,21T1917.49,316.9Z" transform="translate(-14.04 -115.67)"></path><path class="cls-1" d="M1964.49,316.34V251.82h5.63l29.49,50.33h-2.95l29.22-50.33h5.62v64.52H2025V262.05h1.56l-26.91,46.09h-3.23l-27.09-46.09H1971v54.29Z" transform="translate(-14.04 -115.67)"></path><path class="cls-1" d="M2042.19,316.34l29.49-64.52h6.73l29.5,64.52h-7.19l-27.1-60.55h2.76l-27.09,60.55Zm11.61-17.23,2-5.53h37.51l2,5.53Z" transform="translate(-14.04 -115.67)"></path><path class="cls-1" d="M2142.74,316.34V251.82h5.63l29.49,50.33h-3l29.22-50.33h5.62v64.52h-6.54V262.05h1.56l-26.91,46.09h-3.23l-27.09-46.09h1.75v54.29Z" transform="translate(-14.04 -115.67)"></path><path class="cls-1" d="M2220.44,316.34l29.49-64.52h6.73l29.5,64.52H2279l-27.1-60.55h2.77l-27.1,60.55Zm11.61-17.23,2-5.53h37.51l2,5.53Z" transform="translate(-14.04 -115.67)"></path><path class="cls-1" d="M2296.85,316.34V251.82H2321a34.55,34.55,0,0,1,14.1,2.63,20.3,20.3,0,0,1,9.08,7.56,21.57,21.57,0,0,1,3.18,11.93,21.24,21.24,0,0,1-3.18,11.76,20.34,20.34,0,0,1-9.08,7.55,34.39,34.39,0,0,1-14.1,2.63h-20.37l3-3.13v23.59Zm6.82-23-3-3.23h20.18q9.68,0,14.7-4.24t5-11.89q0-7.74-5-12t-14.7-4.24h-20.18l3-3.22Zm37.23,23-16.59-23.41h7.38l16.68,23.41Z" transform="translate(-14.04 -115.67)"></path><path class="cls-1" d="M2391.5,316.9a36.19,36.19,0,0,1-13.45-2.45,31.37,31.37,0,0,1-17.75-17.28,35.1,35.1,0,0,1,0-26.17,31.37,31.37,0,0,1,7.1-10.42,32.3,32.3,0,0,1,10.74-6.87,38.24,38.24,0,0,1,26.64-.09,26.6,26.6,0,0,1,10.41,7.05l-4.33,4.33a24,24,0,0,0-8.76-5.85,30.33,30.33,0,0,0-21.1.19,25.69,25.69,0,0,0-8.67,5.62,26.34,26.34,0,0,0-5.76,8.48,28.41,28.41,0,0,0,0,21.29,26.44,26.44,0,0,0,5.76,8.48,25.69,25.69,0,0,0,8.67,5.62,28.86,28.86,0,0,0,10.78,2A28.44,28.44,0,0,0,2402.1,309a24.54,24.54,0,0,0,8.76-5.9l4.33,4.33a26.92,26.92,0,0,1-10.41,7.1A36.38,36.38,0,0,1,2391.5,316.9Z" transform="translate(-14.04 -115.67)"></path><path class="cls-1" d="M2417.77,316.34l29.5-64.52H2454l29.5,64.52h-7.19l-27.1-60.55H2452l-27.1,60.55Zm11.62-17.23,2-5.53h37.52l2,5.53Z" transform="translate(-14.04 -115.67)"></path><path class="cls-1" d="M2518.33,316.34V251.82h6.82v64.52Z" transform="translate(-14.04 -115.67)"></path><path class="cls-1" d="M2546.16,316.34V251.82h5.62l44.52,56h-3v-56h6.73v64.52h-5.62l-44.43-56H2553v56Z" transform="translate(-14.04 -115.67)"></path><path class="cls-1" d="M2627.91,316.34h-6.82V251.82h44.24v5.9h-37.42Zm-.74-33.27h34.11V289h-34.11Z" transform="translate(-14.04 -115.67)"></path><path class="cls-1" d="M2666.07,316.34l29.49-64.52h6.73l29.5,64.52h-7.19l-27.1-60.55h2.77l-27.1,60.55Zm11.61-17.23,2-5.53h37.51l2,5.53Z" transform="translate(-14.04 -115.67)"></path><path class="cls-1" d="M2742.48,316.34V251.82h5.62l44.52,56h-2.95v-56h6.73v64.52h-5.63l-44.42-56h3v56Z" transform="translate(-14.04 -115.67)"></path><path class="cls-1" d="M2829.94,316.34V257.72h-22.67v-5.9h52.17v5.9h-22.68v58.62Z" transform="translate(-14.04 -115.67)"></path><path class="cls-1" d="M2870.31,316.34V251.82h6.82v64.52Z" transform="translate(-14.04 -115.67)"></path><path class="cls-1" d="M2898.15,316.34V251.82H2905v58.62h36.13v5.9Z" transform="translate(-14.04 -115.67)"></path><path class="cls-1" d="M1262.55,435.34V370.82h5.62l44.52,56h-3v-56h6.73v64.52h-5.62l-44.43-56h2.95v56Z" transform="translate(-14.04 -115.67)"></path><path class="cls-1" d="M1344.3,429.44h38.81v5.9h-45.63V370.82h44.24v5.9H1344.3Zm-.74-29.77h34.11v5.81h-34.11Z" transform="translate(-14.04 -115.67)"></path><path class="cls-1" d="M1399.14,435.34V370.82h5.62l29.5,50.33h-3l29.22-50.33h5.62v64.52h-6.55V381.05h1.57l-26.91,46.09H1431l-27.1-46.09h1.75v54.29Z" transform="translate(-14.04 -115.67)"></path><path class="cls-1" d="M1523.84,435.34V376.72h-22.67v-5.9h52.17v5.9h-22.68v58.62Z" transform="translate(-14.04 -115.67)"></path><path class="cls-1" d="M1591.49,435.9a36.6,36.6,0,0,1-13.5-2.45,31.66,31.66,0,0,1-10.78-6.91,32.05,32.05,0,0,1-7.1-10.41,34.9,34.9,0,0,1,0-26.09A31.95,31.95,0,0,1,1578,372.71a38.57,38.57,0,0,1,27,0,32.3,32.3,0,0,1,10.74,6.87,31.52,31.52,0,0,1,7.1,10.42,35.1,35.1,0,0,1,0,26.17,31.52,31.52,0,0,1-7.1,10.42,32.12,32.12,0,0,1-10.74,6.86A36.24,36.24,0,0,1,1591.49,435.9Zm0-6.09a28.54,28.54,0,0,0,10.74-2,25.17,25.17,0,0,0,8.57-5.62,26.2,26.2,0,0,0,5.67-8.48,28.93,28.93,0,0,0,0-21.29,26.09,26.09,0,0,0-5.67-8.48,25.17,25.17,0,0,0-8.57-5.62,28.55,28.55,0,0,0-10.74-2,28.9,28.9,0,0,0-10.78,2,25.75,25.75,0,0,0-14.38,14.1,28.93,28.93,0,0,0,0,21.24,25.63,25.63,0,0,0,14.38,14.15A28.9,28.9,0,0,0,1591.49,429.81Z" transform="translate(-14.04 -115.67)"></path><path class="cls-1" d="M1652.23,435.34V376.72h-22.67v-5.9h52.17v5.9h-22.68v58.62Z" transform="translate(-14.04 -115.67)"></path><path class="cls-1" d="M1679.05,435.34l29.5-64.52h6.72l29.5,64.52h-7.19l-27.1-60.55h2.77l-27.1,60.55Zm11.62-17.23,2-5.53h37.52l2,5.53Z" transform="translate(-14.04 -115.67)"></path><path class="cls-1" d="M1755.46,435.34V370.82h6.82v58.62h36.13v5.9Z" transform="translate(-14.04 -115.67)"></path><path class="cls-1" d="M1809.75,435.34V370.82h5.62l29.49,50.33h-2.95l29.22-50.33h5.62v64.52h-6.54V381.05h1.56l-26.91,46.09h-3.22l-27.1-46.09h1.75v54.29Z" transform="translate(-14.04 -115.67)"></path><path class="cls-1" d="M1904.59,429.44h38.8v5.9h-45.62V370.82H1942v5.9h-37.42Zm-.74-29.77H1938v5.81h-34.1Z" transform="translate(-14.04 -115.67)"></path><path class="cls-1" d="M1959.43,435.34V370.82h5.62l44.51,56h-2.94v-56h6.72v64.52h-5.62l-44.42-56h3v56Z" transform="translate(-14.04 -115.67)"></path><path class="cls-1" d="M2046.89,435.34V376.72h-22.67v-5.9h52.17v5.9h-22.68v58.62Z" transform="translate(-14.04 -115.67)"></path><path class="cls-1" d="M2094.08,429.44h38.8v5.9h-45.62V370.82h44.24v5.9h-37.42Zm-.74-29.77h34.11v5.81h-34.11Z" transform="translate(-14.04 -115.67)"></path><path class="cls-1" d="M2162.75,435.34l29.49-64.52H2199l29.49,64.52h-7.19l-27.1-60.55h2.77l-27.1,60.55Zm11.61-17.23,2-5.53h37.51l2,5.53Z" transform="translate(-14.04 -115.67)"></path><path class="cls-1" d="M2239.15,435.34V370.82h26.27a38.24,38.24,0,0,1,18.11,4.11,30.11,30.11,0,0,1,12.12,11.38,34.66,34.66,0,0,1,0,33.55,30.11,30.11,0,0,1-12.12,11.38,38.24,38.24,0,0,1-18.11,4.1Zm6.82-5.9h19.08a31.25,31.25,0,0,0,14.89-3.36,24.46,24.46,0,0,0,9.81-9.31,28.53,28.53,0,0,0,0-27.42,24.55,24.55,0,0,0-9.81-9.26,31.14,31.14,0,0,0-14.89-3.37H2246Z" transform="translate(-14.04 -115.67)"></path><path class="cls-1" d="M2341.27,435.9q-12.34,0-19.44-7.1t-7.1-21v-37h6.82v36.69q0,11.43,5.16,16.86t14.56,5.44q9.49,0,14.66-5.44t5.16-16.86V370.82h6.64v37q0,13.92-7.05,21T2341.27,435.9Z" transform="translate(-14.04 -115.67)"></path><path class="cls-1" d="M2388.28,435.34V370.82h6.82v58.62h36.13v5.9Z" transform="translate(-14.04 -115.67)"></path><path class="cls-1" d="M2449.11,435.34V376.72h-22.67v-5.9h52.16v5.9h-22.67v58.62Z" transform="translate(-14.04 -115.67)"></path><path class="cls-1" d="M2475.93,435.34l29.49-64.52h6.73l29.5,64.52h-7.19l-27.1-60.55h2.77L2483,435.34Zm11.61-17.23,2-5.53h37.51l2,5.53Z" transform="translate(-14.04 -115.67)"></path><path class="cls-1" d="M2554.73,435.8a4.63,4.63,0,0,1-3.45-1.47,4.94,4.94,0,0,1-1.43-3.6,4.8,4.8,0,0,1,4.88-5,4.8,4.8,0,0,1,4.89,5,5,5,0,0,1-1.43,3.6A4.65,4.65,0,0,1,2554.73,435.8Zm20,0a4.63,4.63,0,0,1-3.45-1.47,4.94,4.94,0,0,1-1.43-3.6,4.8,4.8,0,0,1,4.88-5,4.8,4.8,0,0,1,4.89,5,5,5,0,0,1-1.43,3.6A4.65,4.65,0,0,1,2574.73,435.8Zm20.1,0a4.63,4.63,0,0,1-3.46-1.47,5,5,0,0,1-1.43-3.6,4.89,4.89,0,1,1,9.77,0,5,5,0,0,1-1.43,3.6A4.63,4.63,0,0,1,2594.83,435.8Z" transform="translate(-14.04 -115.67)"></path></g></g></svg>