<svg xmlns="http://www.w3.org/2000/svg" viewBox="0 0 965.33 274.61"><defs><style>.cls-1{fill:#fff;}</style></defs><title>2</title><g id="Camada_2" data-name="Camada 2"><g id="Camada_1-2" data-name="Camada 1"><g id="UMA_MARCA" data-name="UMA MARCA"><path class="cls-1" d="M49.7,142.56a44,44,0,0,1-19.94-4.32A30.56,30.56,0,0,1,16.31,125q-4.83-9-4.82-22.6V51.84H37.42V98.37q0,11.3,4.73,16.53t13.38,5.23a21,21,0,0,0,10.63-2.65,18.82,18.82,0,0,0,7.4-8q2.74-5.31,2.74-13.29V51.85h25.75v89.39H77.45V116.48l4.49,7.31a31.75,31.75,0,0,1-13.3,14A38.71,38.71,0,0,1,49.7,142.56Z" transform="translate(-11.49 -50.53)"></path><path class="cls-1" d="M240.62,50.54a40.65,40.65,0,0,1,18.86,4.23,30,30,0,0,1,12.87,13Q277,76.46,277,90.08v51.18H251.08V94.07q0-10.8-4.4-15.95T234.3,73A20.2,20.2,0,0,0,224,75.54a16.85,16.85,0,0,0-6.89,7.64q-2.42,5.07-2.42,13.21v44.86H188.77V94.06q0-10.8-4.41-16T171.66,73a20,20,0,0,0-10.13,2.57,17.42,17.42,0,0,0-7,7.64q-2.49,5.07-2.49,13.21v44.87H126.13V51.85H150.9V76.11l-4.65-7a31,31,0,0,1,13.13-13.87,39.85,39.85,0,0,1,19.44-4.73,37.92,37.92,0,0,1,21.6,6.23q9.3,6.24,12.29,19l-9.13-2.5a36.58,36.58,0,0,1,14.29-16.53A41.44,41.44,0,0,1,240.62,50.54Z" transform="translate(-11.49 -50.53)"></path><path class="cls-1" d="M328,142.59A40.9,40.9,0,0,1,310.23,139a27.78,27.78,0,0,1-11.55-9.72,24.47,24.47,0,0,1-4.07-13.79,25,25,0,0,1,3.91-13.88q3.9-6.06,12.38-9.38t22.26-3.32h23.6v14.95H335.82q-9.13,0-12.55,3a9.54,9.54,0,0,0-3.4,7.48,9.33,9.33,0,0,0,3.9,7.89q3.9,2.91,10.55,2.91a23.56,23.56,0,0,0,11.88-3,16.32,16.32,0,0,0,7.4-9.14l4,12.13A23.5,23.5,0,0,1,347.28,138Q339.8,142.59,328,142.59Zm27.24-1.32V123.82L353.6,120V88.76q0-8.3-5.07-13T333,71.15a45.21,45.21,0,0,0-14,2.24,39.31,39.31,0,0,0-11.88,6.06l-9.14-18.11a52.52,52.52,0,0,1,17.61-8.05,80.58,80.58,0,0,1,20.94-2.74q20.43,0,31.73,9.64t11.3,30.07v51Z" transform="translate(-11.49 -50.53)"></path><path class="cls-1" d="M564.45,50.57a40.56,40.56,0,0,1,18.86,4.24,30.05,30.05,0,0,1,12.87,13q4.65,8.73,4.65,22.35v51.17H574.91V94.1q0-10.78-4.4-15.95T558.13,73a20.27,20.27,0,0,0-10.3,2.58,16.87,16.87,0,0,0-6.9,7.64q-2.4,5.07-2.41,13.21v44.86H512.6V94.1q0-10.8-4.4-15.95T495.49,73a19.93,19.93,0,0,0-10.13,2.58,17.37,17.37,0,0,0-7,7.64q-2.49,5.07-2.5,13.21v44.86H450V51.89h24.76V76.15l-4.65-7A30.9,30.9,0,0,1,483.2,55.3a39.74,39.74,0,0,1,19.44-4.74,37.89,37.89,0,0,1,21.6,6.24q9.3,6.23,12.29,19l-9.14-2.49A36.54,36.54,0,0,1,541.68,56.8,41.58,41.58,0,0,1,564.45,50.57Z" transform="translate(-11.49 -50.53)"></path><path class="cls-1" d="M651.83,142.63a40.71,40.71,0,0,1-17.77-3.58,27.78,27.78,0,0,1-11.55-9.72,24.35,24.35,0,0,1-4.07-13.79,25,25,0,0,1,3.91-13.87q3.9-6.06,12.38-9.39T657,89h23.59v15H659.65q-9.15,0-12.55,3a9.56,9.56,0,0,0-3.41,7.47,9.34,9.34,0,0,0,3.91,7.9q3.9,2.89,10.55,2.9a23.46,23.46,0,0,0,11.88-3,16.29,16.29,0,0,0,7.39-9.13l4,12.13a23.49,23.49,0,0,1-10.3,12.87Q663.63,142.64,651.83,142.63Zm27.25-1.33V123.86L677.42,120V88.8q0-8.31-5.07-13t-15.53-4.66a44.93,44.93,0,0,0-14,2.25,39.09,39.09,0,0,0-11.88,6.06l-9.14-18.11a52.53,52.53,0,0,1,17.61-8.06,81,81,0,0,1,20.94-2.74q20.43,0,31.73,9.64t11.3,30.08v51Z" transform="translate(-11.49 -50.53)"></path><path class="cls-1" d="M726.77,141.31V51.92h24.75V77.34L748,69.86a28.72,28.72,0,0,1,12.8-14.37q8.8-4.89,21.43-4.9v24.1c-1-.22-2-.39-2.91-.5a23.56,23.56,0,0,0-2.74-.17q-11,0-17.45,6.15t-6.48,18.94v42.2Z" transform="translate(-11.49 -50.53)"></path><path class="cls-1" d="M840.09,142.65a54.32,54.32,0,0,1-25.67-5.9,44.06,44.06,0,0,1-24-40.13,44.07,44.07,0,0,1,6.4-23.76,45.45,45.45,0,0,1,17.61-16.28,53.72,53.72,0,0,1,25.68-6q14.11,0,24.67,5.9A34.28,34.28,0,0,1,880,73.2L860,84.17a24,24,0,0,0-8.81-9.23A22.65,22.65,0,0,0,839.93,72a24,24,0,0,0-11.8,2.9,21.7,21.7,0,0,0-8.48,8.39,26.3,26.3,0,0,0-3.15,13.29A26.75,26.75,0,0,0,819.65,110a21.39,21.39,0,0,0,8.48,8.47,24.12,24.12,0,0,0,11.79,2.91,22.56,22.56,0,0,0,11.3-2.9,23.87,23.87,0,0,0,8.81-9.39l19.93,11a34.78,34.78,0,0,1-15.2,16.61Q854.2,142.66,840.09,142.65Z" transform="translate(-11.49 -50.53)"></path><path class="cls-1" d="M922.66,142.66a40.78,40.78,0,0,1-17.78-3.58,27.81,27.81,0,0,1-11.54-9.72,24.35,24.35,0,0,1-4.07-13.79,25.08,25.08,0,0,1,3.9-13.87q3.92-6.06,12.38-9.39T927.82,89h23.59v15H930.47q-9.13,0-12.54,3a9.53,9.53,0,0,0-3.41,7.47,9.29,9.29,0,0,0,3.91,7.89q3.9,2.91,10.55,2.91a23.46,23.46,0,0,0,11.88-3,16.29,16.29,0,0,0,7.39-9.13l4,12.13a23.53,23.53,0,0,1-10.3,12.87Q934.46,142.66,922.66,142.66Zm27.25-1.33V123.89l-1.66-3.83V88.83q0-8.31-5.06-13t-15.54-4.66a45,45,0,0,0-14,2.25,39.32,39.32,0,0,0-11.88,6.06L892.6,61.41a52.53,52.53,0,0,1,17.61-8.06,81,81,0,0,1,20.94-2.74q20.43,0,31.73,9.64t11.29,30.08v51Z" transform="translate(-11.49 -50.53)"></path><path class="cls-1" d="M367.19,325.14a52.49,52.49,0,0,1-11.63-1.25,28.51,28.51,0,0,1-9.3-3.74l7-18.77a18.62,18.62,0,0,0,11,3.16,9.7,9.7,0,0,0,7.72-3.16q2.74-3.15,2.75-10V202.19H400.6v89.06q0,15.62-8.73,24.75T367.19,325.14Zm20.46-135.41q-7.32,0-11.8-4.16a14.06,14.06,0,0,1,0-20.6q4.48-4.16,11.8-4.15,7.14,0,11.71,3.9a12.63,12.63,0,0,1,4.57,10.06,14.09,14.09,0,0,1-4.49,10.71Q395,189.74,387.65,189.73Z" transform="translate(-11.49 -50.53)"></path><path class="cls-1" d="M467.05,292.92a52,52,0,0,1-25.17-6,46.45,46.45,0,0,1-17.35-63.88,44.31,44.31,0,0,1,17.36-16.29,52.66,52.66,0,0,1,25.17-5.89,53.54,53.54,0,0,1,25.43,5.9,44.17,44.17,0,0,1,17.44,16.28,45,45,0,0,1,6.31,23.85,43.84,43.84,0,0,1-23.76,40A52.88,52.88,0,0,1,467.05,292.92Zm0-21.27a23.1,23.1,0,0,0,11.71-2.91,21.28,21.28,0,0,0,8.14-8.55A27.41,27.41,0,0,0,490,246.9a26.93,26.93,0,0,0-3.07-13.3,21.7,21.7,0,0,0-8.14-8.39,22.78,22.78,0,0,0-11.55-2.91,23.22,23.22,0,0,0-11.63,2.91,21.37,21.37,0,0,0-8.23,8.39,26.79,26.79,0,0,0-3.07,13.29,27.35,27.35,0,0,0,3.07,13.29,21.16,21.16,0,0,0,8.22,8.56A22.91,22.91,0,0,0,467.06,271.65Z" transform="translate(-11.49 -50.53)"></path><path class="cls-1" d="M555.45,291.6l-37.54-89.4h26.58l31.23,76.93H562.43L595,202.21h24.76L582,291.6Z" transform="translate(-11.49 -50.53)"></path><path class="cls-1" d="M672.25,292.94q-15.29,0-26.75-6a43.57,43.57,0,0,1-24.08-40,46.56,46.56,0,0,1,6.06-23.76,42.58,42.58,0,0,1,16.95-16.36,50.65,50.65,0,0,1,24.51-5.9,49.46,49.46,0,0,1,23.68,5.65,42.47,42.47,0,0,1,16.69,16q6.15,10.31,6.15,24.75c0,1-.06,2.14-.17,3.41s-.22,2.47-.33,3.57H642.35V239.1h59l-10.13,4.48a23.7,23.7,0,0,0-2.66-12.13,20.57,20.57,0,0,0-7.81-8.05,22.64,22.64,0,0,0-11.63-2.91,23.19,23.19,0,0,0-11.71,2.9,20.27,20.27,0,0,0-7.89,8.14,25.63,25.63,0,0,0-2.83,12.38v4a24.5,24.5,0,0,0,3.32,13,21.92,21.92,0,0,0,9.14,8.39,30.86,30.86,0,0,0,14,2.91A33.11,33.11,0,0,0,685.46,270a30.56,30.56,0,0,0,9.89-6.48l13.79,15a40.19,40.19,0,0,1-15.45,10.71A57.06,57.06,0,0,1,672.25,292.94Z" transform="translate(-11.49 -50.53)"></path><path class="cls-1" d="M847.22,200.91a40.53,40.53,0,0,1,18.86,4.24,30,30,0,0,1,12.87,13q4.65,8.73,4.65,22.35v51.17H857.68V244.44q0-10.8-4.4-15.95t-12.38-5.15a20.4,20.4,0,0,0-10.3,2.57,16.88,16.88,0,0,0-6.89,7.65q-2.41,5.07-2.41,13.21v44.86H795.37V244.44q0-10.8-4.4-15.95t-12.72-5.16a20,20,0,0,0-10.13,2.58,17.37,17.37,0,0,0-7,7.64q-2.49,5.07-2.49,13.21v44.86H732.73V202.23H757.5v24.26l-4.66-7A30.9,30.9,0,0,1,766,205.64a39.74,39.74,0,0,1,19.44-4.74,37.85,37.85,0,0,1,21.6,6.24q9.3,6.23,12.29,19l-9.13-2.49a36.48,36.48,0,0,1,14.29-16.53A41.53,41.53,0,0,1,847.22,200.91Z" transform="translate(-11.49 -50.53)"></path><path class="cls-1" d="M923.81,251.1A25.14,25.14,0,0,1,925.72,241a34.2,34.2,0,0,1,4.82-8,58.84,58.84,0,0,1,6.23-6.56q3.33-3,6.24-5.73a30.93,30.93,0,0,0,4.82-5.74,12.39,12.39,0,0,0,1.91-6.81,11.33,11.33,0,0,0-4.9-9.47c-3.27-2.43-7.56-3.66-12.88-3.66a29.74,29.74,0,0,0-14.21,3.24,28.13,28.13,0,0,0-10,9.06l-20.1-11.8a47.64,47.64,0,0,1,18.53-16.28q11.7-6,28.49-6a62.5,62.5,0,0,1,22.1,3.57,33.12,33.12,0,0,1,14.79,10.39,26.21,26.21,0,0,1,5.31,16.62,31,31,0,0,1-2,11.71,30.56,30.56,0,0,1-5.16,8.56,72.13,72.13,0,0,1-6.73,6.81q-3.57,3.15-6.73,6.14a30.22,30.22,0,0,0-5.15,6.32,14.53,14.53,0,0,0-2,7.64ZM936.44,293a15.31,15.31,0,0,1-11.3-4.49,14.53,14.53,0,0,1-4.49-10.63,13.91,13.91,0,0,1,4.49-10.55,15.79,15.79,0,0,1,11.3-4.24q7.14,0,11.55,4.24a14.05,14.05,0,0,1,4.4,10.55A14.64,14.64,0,0,1,948,288.48,15.44,15.44,0,0,1,936.44,293Z" transform="translate(-11.49 -50.53)"></path></g></g></g></svg>