<svg xmlns="http://www.w3.org/2000/svg" viewBox="0 0 706.95 381.91"><defs><style>.cls-1{fill:none;stroke:#717175;stroke-miterlimit:10;stroke-width:11px;opacity:0.2;}</style></defs><title>3</title><g id="Camada_2" data-name="Camada 2"><g id="Camada_2-2" data-name="Camada 2"><path d="M72.13,172.18V64.43H97.22l59.26,71.73H144.63V64.43h29.86V172.18H149.4L90,100.45h11.86v71.73Z"></path><path d="M255.61,174.34a66.78,66.78,0,0,1-23.78-4.16,55.16,55.16,0,0,1-31.56-29.63,54.72,54.72,0,0,1-4.54-22.4A53.79,53.79,0,0,1,200.27,96a55.51,55.51,0,0,1,31.48-29.56,70.67,70.67,0,0,1,47.72,0,56.59,56.59,0,0,1,18.94,11.7A55,55,0,0,1,311,95.83a54.08,54.08,0,0,1,4.54,22.32A55.89,55.89,0,0,1,311,140.7a53,53,0,0,1-12.55,17.78,57.41,57.41,0,0,1-19,11.7A66.63,66.63,0,0,1,255.61,174.34Zm0-25.25a30.13,30.13,0,0,0,11.47-2.15,26.59,26.59,0,0,0,9.24-6.24,29.59,29.59,0,0,0,6.15-9.69,37.12,37.12,0,0,0,0-25.4,29.64,29.64,0,0,0-6.15-9.7,26.43,26.43,0,0,0-9.24-6.23,31.51,31.51,0,0,0-22.93,0,27.12,27.12,0,0,0-9.32,6.23,27.8,27.8,0,0,0-6.15,9.7,38.42,38.42,0,0,0,0,25.4,27.76,27.76,0,0,0,6.15,9.69,27.29,27.29,0,0,0,9.32,6.24A30.12,30.12,0,0,0,255.61,149.09Z"></path><path d="M374.6,174.34A98,98,0,0,1,349,171q-12.24-3.32-19.78-8.39l10-22.63a70.36,70.36,0,0,0,16.7,7.62,62.09,62.09,0,0,0,18.85,3A38.68,38.68,0,0,0,385,149.55a11.38,11.38,0,0,0,5.54-3.07,7,7,0,0,0,1.77-4.78,6.33,6.33,0,0,0-3.38-5.61,33.41,33.41,0,0,0-8.86-3.54q-5.46-1.47-11.85-2.78a118.58,118.58,0,0,1-13-3.46,49.92,49.92,0,0,1-12-5.69,27.23,27.23,0,0,1-8.7-9.24q-3.31-5.7-3.31-14.32a30.74,30.74,0,0,1,5.23-17.39q5.24-7.85,15.86-12.62t26.48-4.77a91.52,91.52,0,0,1,20.85,2.38,61.35,61.35,0,0,1,18.09,7.16l-9.24,22.47A66.25,66.25,0,0,0,393.23,88a57.17,57.17,0,0,0-14.63-2,30.5,30.5,0,0,0-10.16,1.39,12,12,0,0,0-5.54,3.54,7.3,7.3,0,0,0-1.69,4.61,6.47,6.47,0,0,0,3.38,5.78,30.78,30.78,0,0,0,8.78,3.38c3.59.88,7.56,1.77,11.93,2.7a132,132,0,0,1,13,3.46,51.85,51.85,0,0,1,11.93,5.54,27.28,27.28,0,0,1,8.86,9.08q3.38,5.63,3.38,14.09a30.5,30.5,0,0,1-5.31,17.32q-5.31,7.92-15.93,12.7T374.6,174.34Z"></path><path d="M479.42,174.34A98.08,98.08,0,0,1,453.79,171q-12.23-3.32-19.78-8.39L444,140a70.36,70.36,0,0,0,16.7,7.62,62.15,62.15,0,0,0,18.86,3,38.54,38.54,0,0,0,10.23-1.08,11.41,11.41,0,0,0,5.55-3.07,7,7,0,0,0,1.77-4.78,6.32,6.32,0,0,0-3.39-5.61,33.47,33.47,0,0,0-8.85-3.54q-5.47-1.47-11.85-2.78a118,118,0,0,1-13-3.46,49.81,49.81,0,0,1-12-5.69,27.33,27.33,0,0,1-8.7-9.24q-3.3-5.7-3.3-14.32a30.66,30.66,0,0,1,5.23-17.39q5.24-7.85,15.85-12.62t26.48-4.77a91.67,91.67,0,0,1,20.86,2.38,61.39,61.39,0,0,1,18.08,7.16l-9.23,22.47A66.14,66.14,0,0,0,498.05,88a57.16,57.16,0,0,0-14.62-2,30.46,30.46,0,0,0-10.16,1.39,11.92,11.92,0,0,0-5.54,3.54,7.25,7.25,0,0,0-1.7,4.61,6.46,6.46,0,0,0,3.39,5.78,30.7,30.7,0,0,0,8.77,3.38c3.59.88,7.57,1.77,11.93,2.7a132.16,132.16,0,0,1,13,3.46,52,52,0,0,1,11.93,5.54,27.35,27.35,0,0,1,8.85,9.08q3.39,5.63,3.39,14.09A30.5,30.5,0,0,1,522,156.87q-5.32,7.92-15.94,12.7T479.42,174.34Z"></path><path d="M533.45,172.18,581,64.43h30l47.72,107.75H627L589.79,79.36h12l-37.25,92.82Zm26-21.09,7.85-22.32H620l7.85,22.32Z"></path><path d="M66.43,311.16V203.41H96.91V311.16Z"></path><path d="M118.61,311.16V203.41H143.7L203,275.14H191.12V203.41H221V311.16H195.89l-59.42-71.73h11.85v71.73Z"></path><path d="M280.39,313.31A97.53,97.53,0,0,1,254.77,310q-12.24-3.3-19.79-8.39L245,279a70.36,70.36,0,0,0,16.7,7.62,62.15,62.15,0,0,0,18.86,3,38.54,38.54,0,0,0,10.23-1.08,11.37,11.37,0,0,0,5.55-3.08,7,7,0,0,0,1.77-4.77,6.34,6.34,0,0,0-3.39-5.62,34.16,34.16,0,0,0-8.85-3.54q-5.48-1.45-11.85-2.77a118,118,0,0,1-13-3.46,50,50,0,0,1-12-5.7,27.26,27.26,0,0,1-8.69-9.23Q237,244.66,237,236a30.66,30.66,0,0,1,5.23-17.39q5.24-7.86,15.85-12.63t26.48-4.77a91.68,91.68,0,0,1,20.86,2.39,61.39,61.39,0,0,1,18.08,7.16l-9.23,22.47A65.7,65.7,0,0,0,299,227a57.1,57.1,0,0,0-14.62-2,30.75,30.75,0,0,0-10.16,1.38,12.07,12.07,0,0,0-5.54,3.54,7.36,7.36,0,0,0-1.7,4.62,6.45,6.45,0,0,0,3.39,5.77,30.52,30.52,0,0,0,8.77,3.39q5.38,1.31,11.93,2.69a132.22,132.22,0,0,1,13,3.47A51.44,51.44,0,0,1,316,255.36a27.35,27.35,0,0,1,8.85,9.08q3.39,5.63,3.39,14.08A30.46,30.46,0,0,1,323,295.84q-5.31,7.94-15.94,12.7T280.39,313.31Z"></path><path d="M342.27,311.16V203.41h49.11q14.78,0,25.55,4.77A36.69,36.69,0,0,1,433.48,222a38.42,38.42,0,0,1,5.77,21.16q0,12.47-5.77,21.32a37.56,37.56,0,0,1-16.55,13.7Q406.15,283,391.38,283H359.05l13.7-13.39v41.56Zm30.48-38-13.7-14.32h30.48q9.54,0,14.31-4.08t4.78-11.62q0-7.23-4.78-11.47t-14.31-4.23H359.05l13.7-14Z"></path><path d="M509.9,313.31a66.78,66.78,0,0,1-23.78-4.15,55.16,55.16,0,0,1-31.56-29.63,54.75,54.75,0,0,1-4.54-22.4A53.84,53.84,0,0,1,454.56,235,55.45,55.45,0,0,1,486,205.41a70.51,70.51,0,0,1,47.72,0,56.44,56.44,0,0,1,18.93,11.7,54.83,54.83,0,0,1,12.55,17.7,54,54,0,0,1,4.54,22.32,55.89,55.89,0,0,1-4.46,22.55,53.07,53.07,0,0,1-12.55,17.78,57.41,57.41,0,0,1-19,11.7A66.63,66.63,0,0,1,509.9,313.31Zm0-25.24a30.17,30.17,0,0,0,11.47-2.16,26.43,26.43,0,0,0,9.24-6.23,29.64,29.64,0,0,0,6.15-9.7,37.28,37.28,0,0,0,0-25.4,29.7,29.7,0,0,0-6.15-9.69,26.59,26.59,0,0,0-9.24-6.24,31.67,31.67,0,0,0-22.94,0,27.35,27.35,0,0,0-9.31,6.24,28,28,0,0,0-6.16,9.69,38.58,38.58,0,0,0,0,25.4,28,28,0,0,0,6.16,9.7,27.18,27.18,0,0,0,9.31,6.23A30.17,30.17,0,0,0,509.9,288.07Z"></path><path d="M603,271.91a22.84,22.84,0,0,1,1.62-8.93,30.39,30.39,0,0,1,4.07-7A47.93,47.93,0,0,1,614,250.2q2.85-2.61,5.32-4.92a25.15,25.15,0,0,0,4.07-4.85,9.76,9.76,0,0,0,1.62-5.31,8.4,8.4,0,0,0-3.77-7.16,16.42,16.42,0,0,0-9.78-2.7,21.67,21.67,0,0,0-11.15,2.93,22.87,22.87,0,0,0-8.09,8L569.32,224a45.37,45.37,0,0,1,17.39-16.54q11.24-6.24,28.48-6.24a61.09,61.09,0,0,1,20.93,3.31,32,32,0,0,1,14.32,9.78,24.37,24.37,0,0,1,5.23,15.85,28.34,28.34,0,0,1-1.77,10.47,26.37,26.37,0,0,1-4.77,7.85q-3,3.39-6.08,6.23T637,260.21a25.41,25.41,0,0,0-4.77,5.38,11.51,11.51,0,0,0-1.77,6.32Zm13.7,40.63a17.15,17.15,0,0,1-12.55-4.77,15.44,15.44,0,0,1-4.85-11.39,14.86,14.86,0,0,1,4.85-11.31q4.86-4.54,12.55-4.54,7.85,0,12.7,4.54a14.86,14.86,0,0,1,4.85,11.31,15.44,15.44,0,0,1-4.85,11.39Q624.59,312.54,616.73,312.54Z"></path><rect class="cls-1" x="5.5" y="5.5" width="695.95" height="370.91"></rect></g></g></svg>