<svg xmlns="http://www.w3.org/2000/svg" viewBox="0 0 1137.36 683.93"><defs><style>.cls-1{fill:#fff;}.cls-2{fill:#211915;}</style></defs><title>3</title><g id="Camada_2" data-name="Camada 2"><g id="Camada_1-2" data-name="Camada 1"><g id="UMA_MARCA" data-name="UMA MARCA"><polygon class="cls-1" points="1137.36 136.36 875.57 136.36 875.57 275.79 0 275.79 0 399.22 158.14 399.22 158.14 538.08 586.36 536.08 586.29 683.93 1137.36 683.93 1137.36 545.5 1137.36 537.79 1137.36 136.36"></polygon><path class="cls-1" d="M230,201.94c0-25.22,13.88-40.53,33.66-40.53s33.66,15.35,33.66,40.53S283.48,243,263.7,243,230,227.16,230,201.94Zm57,0c0-19.62-9.25-31.72-23.31-31.72s-23.31,12.1-23.31,31.72,9.25,32.29,23.31,32.29S287,221.56,287,201.94Z" transform="translate(-35.97 -137.52)"></path><path class="cls-1" d="M333.72,201.94c0-25.22,13.88-40.53,33.66-40.53S401,176.76,401,201.94,387.16,243,367.38,243,333.72,227.16,333.72,201.94Zm57,0c0-19.62-9.25-31.72-23.31-31.72s-23.31,12.1-23.31,31.72c0,20.06,9.25,32.8,23.31,32.8S390.69,222,390.69,201.94Zm-28.75,39.4,10.41-.8c3.18,8.33,10.89,12.46,20.19,12.46a28.9,28.9,0,0,0,8.27-1.14l1.93,7.75a33.22,33.22,0,0,1-11.24,1.82C376.38,261.43,366.18,252.8,361.94,241.34Z" transform="translate(-35.97 -137.52)"></path><path class="cls-1" d="M417.64,209.08V162.85h10v46.51c0,18.92,8,24.87,18.28,24.87,10.44,0,18.68-5.95,18.68-24.87V162.85h9.6v46.23c0,25.27-12.2,34-28.28,34S417.64,234.35,417.64,209.08Z" transform="translate(-35.97 -137.52)"></path><path class="cls-1" d="M495.37,162.85h45.39v8.48H505.39V196h29.84v8.49H505.39v28.63H542v8.48H495.37Z" transform="translate(-35.97 -137.52)"></path><path class="cls-1" d="M576.9,231.35l6-6.88c5.67,5.88,13.54,9.76,21.73,9.76,10.34,0,16.46-5.15,16.46-12.8,0-8-5.7-10.61-13.13-13.85l-11.32-5c-7.33-3.14-15.94-8.7-15.94-20.28,0-12,10.48-20.9,24.79-20.9a32.53,32.53,0,0,1,23.19,9.75l-5.32,6.44a25.18,25.18,0,0,0-17.87-7.38c-8.83,0-14.68,4.45-14.68,11.49,0,7.59,6.86,10.43,13,13l11.23,4.85c9.11,3.92,16.22,9.35,16.22,21.06C631.28,233.1,621,243,604.44,243A37.74,37.74,0,0,1,576.9,231.35Z" transform="translate(-35.97 -137.52)"></path><path class="cls-1" d="M662.88,162.85h11.31l26.64,78.75H690.22l-13.74-44c-2.83-8.81-5.35-17.45-7.88-26.54h-.48c-2.44,9.13-5,17.73-7.8,26.54l-13.88,44h-10.2Zm-12.63,46.76h36.26v8H650.25Z" transform="translate(-35.97 -137.52)"></path><path class="cls-1" d="M711.49,162.85h23.37c16,0,27.1,5.44,27.1,19.28,0,7.78-4.15,14.71-11.51,17.11v.48c9.41,1.85,16,8.07,16,18.84,0,15.47-12.26,23-29.81,23H711.49Zm21.68,33.51c13.39,0,18.94-4.94,18.94-12.93,0-9.2-6.31-12.63-18.49-12.63H721.51v25.56Zm2.05,37.29c13.46,0,21.4-4.85,21.4-15.47,0-9.7-7.63-14.13-21.4-14.13H721.51v29.6Z" transform="translate(-35.97 -137.52)"></path><path class="cls-1" d="M782.05,162.85h45.39v8.48H792.07V196h29.84v8.49H792.07v28.63h36.57v8.48H782.05Z" transform="translate(-35.97 -137.52)"></path><path class="cls-1" d="M845.28,162.85h12.07l15.1,42.08c1.9,5.38,3.7,10.94,5.6,16.41h.48c1.89-5.47,3.55-11,5.44-16.41l14.92-42.08H911V241.6h-9.32V198.24c0-6.86.77-16.33,1.28-23.29h-.48l-6.25,18-14.84,40.74h-6.64L859.8,192.91l-6.23-18h-.48c.5,7,1.27,16.43,1.27,23.29V241.6h-9.08Z" transform="translate(-35.97 -137.52)"></path><path class="cls-1" d="M928,201.94c0-25.22,13.88-40.53,33.66-40.53s33.66,15.35,33.66,40.53S981.39,243,961.61,243,928,227.16,928,201.94Zm57,0c0-19.62-9.25-31.72-23.31-31.72s-23.31,12.1-23.31,31.72,9.25,32.29,23.31,32.29S984.92,221.56,984.92,201.94Z" transform="translate(-35.97 -137.52)"></path><path class="cls-1" d="M1006.49,231.35l6-6.88c5.67,5.88,13.54,9.76,21.73,9.76,10.33,0,16.46-5.15,16.46-12.8,0-8-5.71-10.61-13.14-13.85l-11.31-5c-7.34-3.14-16-8.7-16-20.28,0-12,10.48-20.9,24.79-20.9a32.52,32.52,0,0,1,23.19,9.75L1053,177.6a25.22,25.22,0,0,0-17.88-7.38c-8.83,0-14.68,4.45-14.68,11.49,0,7.59,6.87,10.43,13,13l11.22,4.85c9.11,3.92,16.23,9.35,16.23,21.06,0,12.44-10.28,22.38-26.84,22.38A37.78,37.78,0,0,1,1006.49,231.35Z" transform="translate(-35.97 -137.52)"></path><path class="cls-1" d="M1100.28,162.85h45.39v8.48H1110.3V196h29.84v8.49H1110.3v28.63h36.57v8.48h-46.59Zm16.91-9.87,17-15.46,5.64,6.68L1121.61,158Z" transform="translate(-35.97 -137.52)"></path><path class="cls-1" d="M42.36,337.94c0-25.22,13.88-40.53,33.66-40.53s33.66,15.35,33.66,40.53S95.8,379,76,379,42.36,363.16,42.36,337.94Zm57,0c0-19.62-9.25-31.72-23.31-31.72s-23.31,12.1-23.31,31.72c0,20.06,9.25,32.8,23.31,32.8S99.33,358,99.33,337.94Zm-28.75,39.4,10.42-.8C84.18,384.87,91.88,389,101.18,389a28.85,28.85,0,0,0,8.27-1.14l1.94,7.75a33.32,33.32,0,0,1-11.24,1.82C85,397.43,74.83,388.8,70.58,377.34Z" transform="translate(-35.97 -137.52)"></path><path class="cls-1" d="M126.29,345.08V298.85h10v46.51c0,18.92,8,24.87,18.28,24.87,10.43,0,18.67-6,18.67-24.87V298.85h9.61v46.23c0,25.27-12.2,34-28.28,34S126.29,370.35,126.29,345.08Z" transform="translate(-35.97 -137.52)"></path><path class="cls-1" d="M204,298.85h45.4v8.48H214V332h29.83v8.49H214v28.63h36.57v8.48H204Z" transform="translate(-35.97 -137.52)"></path><path class="cls-1" d="M291.25,298.85H301.6l28.51,49.51,8.5,16.3h.48c-.51-7.94-1.28-16.82-1.28-25.05V298.85h9.52V377.6H337l-28.5-49.55L300,311.78h-.48c.51,8,1.28,16.37,1.28,24.61V377.6h-9.52Z" transform="translate(-35.97 -137.52)"></path><path class="cls-1" d="M385.09,298.85h11.3L423,377.6H412.42l-13.73-44c-2.83-8.81-5.36-17.45-7.89-26.54h-.48c-2.43,9.13-5,17.73-7.79,26.54l-13.89,44h-10.2ZM381.82,284c-3.06,0-5.33,2.78-5.81,7.92l-6.68-.5c.42-9.18,5.06-14.76,12.23-14.76,9,0,12.11,8.52,17.74,8.52,3.06,0,5.18-2.78,5.82-7.92l6.67.5c-.41,9.18-5.05,14.75-12.22,14.75C390.56,292.55,387.46,284,381.82,284Zm-9.37,61.57h36.26v8H372.45Z" transform="translate(-35.97 -137.52)"></path><path class="cls-1" d="M428.4,337.94c0-25.22,13.88-40.53,33.66-40.53s33.66,15.35,33.66,40.53S481.84,379,462.06,379,428.4,363.16,428.4,337.94Zm57,0c0-19.62-9.25-31.72-23.31-31.72s-23.31,12.1-23.31,31.72,9.25,32.29,23.31,32.29S485.37,357.56,485.37,337.94Z" transform="translate(-35.97 -137.52)"></path><path class="cls-1" d="M530.94,367.35l6-6.88c5.67,5.88,13.54,9.76,21.72,9.76,10.34,0,16.47-5.15,16.47-12.8,0-8-5.71-10.61-13.14-13.85l-11.31-5c-7.34-3.14-15.95-8.7-15.95-20.28,0-12,10.48-20.9,24.79-20.9a32.52,32.52,0,0,1,23.19,9.75l-5.31,6.44a25.22,25.22,0,0,0-17.88-7.38c-8.83,0-14.68,4.45-14.68,11.49,0,7.59,6.87,10.43,13,13l11.22,4.85c9.11,3.92,16.23,9.35,16.23,21.06C585.33,369.1,575,379,558.49,379A37.74,37.74,0,0,1,530.94,367.35Z" transform="translate(-35.97 -137.52)"></path><path class="cls-1" d="M596.16,337.94c0-25.22,13.88-40.53,33.66-40.53s33.66,15.35,33.66,40.53S649.6,379,629.82,379,596.16,363.16,596.16,337.94Zm57,0c0-19.62-9.25-31.72-23.31-31.72s-23.31,12.1-23.31,31.72,9.24,32.29,23.31,32.29S653.13,357.56,653.13,337.94Z" transform="translate(-35.97 -137.52)"></path><path class="cls-1" d="M680.41,298.85h12.07l15.09,42.08c1.9,5.38,3.7,10.94,5.6,16.41h.48c1.89-5.47,3.55-11,5.44-16.41L734,298.85h12.07V377.6h-9.31V334.24c0-6.86.77-16.33,1.27-23.29h-.48l-6.25,18-14.83,40.74h-6.64l-14.91-40.74-6.24-18h-.48c.5,7,1.27,16.43,1.27,23.29V377.6h-9.07Z" transform="translate(-35.97 -137.52)"></path><path class="cls-1" d="M763.07,337.94c0-25.22,13.89-40.53,33.66-40.53s33.66,15.35,33.66,40.53S816.51,379,796.73,379,763.07,363.16,763.07,337.94Zm57,0c0-19.62-9.24-31.72-23.31-31.72s-23.31,12.1-23.31,31.72,9.25,32.29,23.31,32.29S820,357.56,820,337.94Z" transform="translate(-35.97 -137.52)"></path><path class="cls-1" d="M841.62,367.35l6-6.88c5.67,5.88,13.54,9.76,21.73,9.76,10.34,0,16.46-5.15,16.46-12.8,0-8-5.7-10.61-13.13-13.85l-11.32-5c-7.34-3.14-15.94-8.7-15.94-20.28,0-12,10.48-20.9,24.79-20.9a32.53,32.53,0,0,1,23.19,9.75l-5.32,6.44a25.19,25.19,0,0,0-17.87-7.38c-8.83,0-14.68,4.45-14.68,11.49,0,7.59,6.86,10.43,13,13l11.23,4.85C888.89,339.52,896,345,896,356.66,896,369.1,885.72,379,869.16,379A37.74,37.74,0,0,1,841.62,367.35Z" transform="translate(-35.97 -137.52)"></path><path class="cls-2" d="M935.4,298.85h10.36l28.5,49.51,8.5,16.3h.48c-.51-7.94-1.27-16.82-1.27-25.05V298.85h9.51V377.6H981.13l-28.5-49.55-8.5-16.27h-.48c.5,8,1.27,16.37,1.27,24.61V377.6H935.4Z" transform="translate(-35.97 -137.52)"></path><path class="cls-2" d="M1013,298.85h45.4v8.48h-35.37V332h29.83v8.49h-29.83v28.63h36.57v8.48H1013Z" transform="translate(-35.97 -137.52)"></path><path class="cls-2" d="M1076.28,298.85h12.07l15.1,42.08c1.89,5.38,3.7,10.94,5.59,16.41h.48c1.9-5.47,3.55-11,5.45-16.41l14.92-42.08H1142V377.6h-9.32V334.24c0-6.86.77-16.33,1.28-23.29h-.48l-6.26,18-14.83,40.74h-6.64l-14.91-40.74-6.24-18h-.48c.51,7,1.28,16.43,1.28,23.29V377.6h-9.08Z" transform="translate(-35.97 -137.52)"></path><path class="cls-2" d="M70.49,481.08V434.85h10v46.51c0,18.92,8,24.87,18.28,24.87,10.44,0,18.68-6,18.68-24.87V434.85h9.6v46.23c0,25.27-12.2,34-28.28,34S70.49,506.35,70.49,481.08Z" transform="translate(-35.97 -137.52)"></path><path class="cls-2" d="M148.22,434.85h12.06l15.1,42.08c1.9,5.38,3.7,10.94,5.6,16.41h.48c1.89-5.47,3.55-11,5.44-16.41l14.92-42.08h12.07V513.6h-9.32V470.24c0-6.86.78-16.33,1.28-23.29h-.48l-6.25,18-14.83,40.74h-6.65l-14.9-40.74-6.24-18H156c.5,7,1.27,16.43,1.27,23.29V513.6h-9.07Z" transform="translate(-35.97 -137.52)"></path><path class="cls-2" d="M251.65,434.85H263L289.6,513.6H279l-13.73-44c-2.83-8.81-5.36-17.45-7.88-26.54h-.48c-2.44,9.13-5,17.73-7.8,26.54l-13.88,44H225ZM239,481.61h36.27v8H239Z" transform="translate(-35.97 -137.52)"></path><path class="cls-2" d="M324.73,434.85H336.8l15.1,42.08c1.89,5.38,3.7,10.94,5.59,16.41H358c1.9-5.47,3.55-11,5.45-16.41l14.92-42.08h12.07V513.6h-9.32V470.24c0-6.86.77-16.33,1.28-23.29h-.48l-6.25,18L360.8,505.65h-6.64l-14.91-40.74L333,447h-.48c.51,7,1.28,16.43,1.28,23.29V513.6h-9.08Z" transform="translate(-35.97 -137.52)"></path><path class="cls-2" d="M428.17,434.85h11.3l26.65,78.75H455.5l-13.73-44c-2.83-8.81-5.36-17.45-7.89-26.54h-.48c-2.43,9.13-5,17.73-7.79,26.54l-13.89,44h-10.2Zm-12.64,46.76h36.26v8H415.53Z" transform="translate(-35.97 -137.52)"></path><path class="cls-2" d="M476.77,434.85h24.67c16,0,27.56,5.76,27.56,22.16,0,15.73-11.52,23.3-27.56,23.3H486.79V513.6h-10ZM500,472.18c12.25,0,19-5,19-15.17s-6.75-14-19-14H486.79v29.21Zm-.54,5.39,7.85-5.19,24,41.22H520Z" transform="translate(-35.97 -137.52)"></path><path class="cls-2" d="M540.48,474.29c0-25.4,15-40.88,34.94-40.88a29.34,29.34,0,0,1,21.67,9.71l-5.5,6.52c-4.14-4.42-9.34-7.42-16-7.42-14.88,0-24.77,12.19-24.77,31.81,0,19.79,9.45,32.2,24.38,32.2,7.52,0,13.23-3.27,18.25-8.84l5.5,6.28C592.73,510.9,585,515,574.79,515,555.18,515,540.48,499.87,540.48,474.29Z" transform="translate(-35.97 -137.52)"></path><path class="cls-2" d="M629.76,434.85h11.31l26.64,78.75H657.1l-13.74-44c-2.83-8.81-5.35-17.45-7.88-26.54H635c-2.44,9.13-5,17.73-7.79,26.54l-13.89,44h-10.2Zm-12.63,46.76h36.26v8H617.13Z" transform="translate(-35.97 -137.52)"></path><path class="cls-2" d="M702.85,434.85h10V513.6h-10Z" transform="translate(-35.97 -137.52)"></path><path class="cls-2" d="M734.41,434.85h10.35l28.5,49.51,8.5,16.3h.48c-.5-7.94-1.27-16.82-1.27-25.05V434.85h9.51V513.6H780.13l-28.5-49.55-8.5-16.27h-.48c.5,8,1.27,16.37,1.27,24.61V513.6h-9.51Z" transform="translate(-35.97 -137.52)"></path><path class="cls-2" d="M812.05,434.85h45.41v8.48H822.07v26.56h30v8.48h-30V513.6h-10Z" transform="translate(-35.97 -137.52)"></path><path class="cls-2" d="M883.08,434.85h11.31L921,513.6H910.41l-13.73-44c-2.83-8.81-5.36-17.45-7.88-26.54h-.48c-2.44,9.13-5,17.73-7.8,26.54l-13.88,44h-10.2Zm-12.64,46.76h36.27v8H870.44Z" transform="translate(-35.97 -137.52)"></path><path class="cls-2" d="M931.68,434.85H942l28.5,49.51,8.5,16.3h.48c-.51-7.94-1.27-16.82-1.27-25.05V434.85h9.51V513.6H977.41l-28.5-49.55-8.5-16.27h-.48c.5,8,1.27,16.37,1.27,24.61V513.6h-9.52Z" transform="translate(-35.97 -137.52)"></path><path class="cls-2" d="M1025.72,443.33H1001.9v-8.48h57.67v8.48h-23.83V513.6h-10Z" transform="translate(-35.97 -137.52)"></path><path class="cls-2" d="M1073.64,434.85h10V513.6h-10Z" transform="translate(-35.97 -137.52)"></path><path class="cls-2" d="M1105.2,434.85h10v70.27h34.38v8.48h-44.4Z" transform="translate(-35.97 -137.52)"></path><path class="cls-2" d="M234.85,570.85H245.2l28.5,49.51,8.5,16.3h.48c-.5-7.94-1.27-16.82-1.27-25V570.85h9.52V649.6H280.58l-28.51-49.55-8.5-16.27h-.48c.51,8,1.28,16.37,1.28,24.61V649.6h-9.52Z" transform="translate(-35.97 -137.52)"></path><path class="cls-2" d="M312.49,570.85h45.39v8.48H322.51V604h29.84v8.49H322.51v28.63h36.57v8.48H312.49Z" transform="translate(-35.97 -137.52)"></path><path class="cls-2" d="M375.73,570.85H387.8l15.09,42.08c1.9,5.38,3.7,10.94,5.6,16.41H409c1.89-5.47,3.55-11,5.44-16.41l14.92-42.08H441.4V649.6h-9.31V606.24c0-6.86.77-16.33,1.27-23.29h-.48l-6.25,18L411.8,641.65h-6.65l-14.9-40.74L384,583h-.48c.5,7,1.27,16.43,1.27,23.29V649.6h-9.07Z" transform="translate(-35.97 -137.52)"></path><path class="cls-2" d="M503.36,579.33H479.54v-8.48h57.67v8.48H513.38V649.6h-10Z" transform="translate(-35.97 -137.52)"></path><path class="cls-2" d="M543.83,609.94c0-25.22,13.89-40.53,33.66-40.53s33.66,15.35,33.66,40.53S597.27,651,577.49,651,543.83,635.16,543.83,609.94Zm57,0c0-19.62-9.25-31.72-23.31-31.72s-23.31,12.1-23.31,31.72,9.25,32.29,23.31,32.29S600.8,629.56,600.8,609.94Z" transform="translate(-35.97 -137.52)"></path><path class="cls-2" d="M641.6,579.33H617.78v-8.48h57.67v8.48H651.63V649.6h-10Z" transform="translate(-35.97 -137.52)"></path><path class="cls-2" d="M700.92,570.85h11.31l26.64,78.75H728.26l-13.74-44c-2.83-8.81-5.35-17.45-7.88-26.54h-.48c-2.44,9.13-5,17.73-7.8,26.54l-13.88,44h-10.2Zm-12.63,46.76h36.26v8H688.29Z" transform="translate(-35.97 -137.52)"></path><path class="cls-2" d="M749.53,570.85h10v70.27h34.37v8.48H749.53Z" transform="translate(-35.97 -137.52)"></path><path class="cls-2" d="M807.85,570.85h12.06L835,612.93c1.9,5.38,3.7,10.94,5.6,16.41h.48c1.89-5.47,3.55-11,5.44-16.41l14.92-42.08h12.07V649.6H864.2V606.24c0-6.86.77-16.33,1.28-23.29H865l-6.25,18-14.83,40.74h-6.65l-14.9-40.74-6.24-18h-.48c.5,7,1.27,16.43,1.27,23.29V649.6h-9.07Z" transform="translate(-35.97 -137.52)"></path><path class="cls-2" d="M895.08,570.85h45.4v8.48H905.11V604h29.83v8.49H905.11v28.63h36.57v8.48h-46.6Z" transform="translate(-35.97 -137.52)"></path><path class="cls-2" d="M958.32,570.85h10.35l28.51,49.51,8.5,16.3h.48c-.51-7.94-1.28-16.82-1.28-25V570.85h9.52V649.6h-10.35l-28.5-49.55-8.5-16.27h-.49c.51,8,1.28,16.37,1.28,24.61V649.6h-9.52Z" transform="translate(-35.97 -137.52)"></path><path class="cls-2" d="M1052.36,579.33h-23.83v-8.48h57.67v8.48h-23.82V649.6h-10Z" transform="translate(-35.97 -137.52)"></path><path class="cls-2" d="M1100.28,570.85h45.39v8.48H1110.3V604h29.84v8.49H1110.3v28.63h36.57v8.48h-46.59Z" transform="translate(-35.97 -137.52)"></path><path class="cls-2" d="M681.24,706.85h11.31l26.64,78.75H708.57l-13.73-44c-2.83-8.81-5.36-17.45-7.88-26.54h-.48c-2.44,9.13-5,17.73-7.8,26.54l-13.88,44H654.6ZM668.6,753.61h36.27v8H668.6Z" transform="translate(-35.97 -137.52)"></path><path class="cls-2" d="M729.84,706.85h19.71c24.21,0,37.19,14.07,37.19,39.09s-13,39.66-36.75,39.66H729.84Zm19,70.53c18.41,0,27.59-11.53,27.59-31.44s-9.18-30.88-27.59-30.88h-8.93v62.32Z" transform="translate(-35.97 -137.52)"></path><path class="cls-2" d="M803.31,753.08V706.85h10v46.51c0,18.92,8,24.87,18.28,24.87s18.67-6,18.67-24.87V706.85h9.61v46.23c0,25.27-12.21,34-28.28,34S803.31,778.35,803.31,753.08Z" transform="translate(-35.97 -137.52)"></path><path class="cls-2" d="M881,706.85h10v70.27h34.37v8.48H881Z" transform="translate(-35.97 -137.52)"></path><path class="cls-2" d="M941.36,715.33H917.53v-8.48H975.2v8.48H951.38V785.6h-10Z" transform="translate(-35.97 -137.52)"></path><path class="cls-2" d="M1000.68,706.85H1012l26.64,78.75H1028l-13.73-44c-2.83-8.81-5.36-17.45-7.89-26.54h-.48c-2.44,9.13-5,17.73-7.79,26.54l-13.89,44H974ZM988,753.61h36.26v8H988Z" transform="translate(-35.97 -137.52)"></path><path class="cls-2" d="M1050.28,779.57c0-4.54,3.22-7.63,7.14-7.63s7.15,3.09,7.15,7.63a7.15,7.15,0,1,1-14.29,0Zm40.2,0c0-4.54,3.22-7.63,7.15-7.63s7.14,3.09,7.14,7.63a7.15,7.15,0,1,1-14.29,0Zm40.21,0c0-4.54,3.22-7.63,7.14-7.63s7.15,3.09,7.15,7.63a7.15,7.15,0,1,1-14.29,0Z" transform="translate(-35.97 -137.52)"></path></g></g></g></svg>