<svg xmlns="http://www.w3.org/2000/svg" viewBox="0 0 1203.15 935.25"><defs><style>.cls-1{fill:#f7f7f8;}</style></defs><title>4</title><g id="Camada_2" data-name="Camada 2"><g id="Camada_1-2" data-name="Camada 1"><g id="rosa"><path class="cls-1" d="M5.49,67.14l25-55.29h7.82L63.47,67.14H55.18L32.83,16.27H36L13.63,67.14ZM16.16,53.32,18.29,47H49.41l2.29,6.32Z" transform="translate(-5.49 -11.22)"></path><path class="cls-1" d="M76,67.14V11.85H99.34a33.7,33.7,0,0,1,15.6,3.47A25.79,25.79,0,0,1,125.45,25,27.52,27.52,0,0,1,129.2,39.5,27.51,27.51,0,0,1,125.45,54a25.79,25.79,0,0,1-10.51,9.72,33.57,33.57,0,0,1-15.6,3.47Zm7.9-6.87H98.86a25.41,25.41,0,0,0,11.89-2.61,18.85,18.85,0,0,0,7.78-7.3A21,21,0,0,0,121.3,39.5a20.88,20.88,0,0,0-2.77-10.9,19,19,0,0,0-7.78-7.27,25.41,25.41,0,0,0-11.89-2.61H83.93Z" transform="translate(-5.49 -11.22)"></path><path class="cls-1" d="M170.59,67.78a31.77,31.77,0,0,1-11.73-2.14,28,28,0,0,1-9.36-6,27.26,27.26,0,0,1-6.16-9,27.94,27.94,0,0,1-2.22-11.21,28,28,0,0,1,2.22-11.22,27.47,27.47,0,0,1,6.16-9,28.14,28.14,0,0,1,9.32-6,31.63,31.63,0,0,1,11.77-2.13,32,32,0,0,1,11.69,2.09,27.73,27.73,0,0,1,9.32,5.92,27.06,27.06,0,0,1,6.12,9A28.76,28.76,0,0,1,199.9,39.5a28.66,28.66,0,0,1-2.18,11.29,27.1,27.1,0,0,1-6.12,9,27.57,27.57,0,0,1-9.32,5.92A31.83,31.83,0,0,1,170.59,67.78Zm0-7a22.54,22.54,0,0,0,8.49-1.58,20.12,20.12,0,0,0,6.79-4.47A20.67,20.67,0,0,0,190.38,48,21.68,21.68,0,0,0,192,39.5a21.06,21.06,0,0,0-6.13-15.17,19.76,19.76,0,0,0-6.79-4.5,23.82,23.82,0,0,0-17.06,0,20.12,20.12,0,0,0-6.83,4.5,21.1,21.1,0,0,0-4.55,6.75A21.42,21.42,0,0,0,149,39.5,21.68,21.68,0,0,0,150.64,48,20.61,20.61,0,0,0,162,59.17,22.73,22.73,0,0,0,170.59,60.75Z" transform="translate(-5.49 -11.22)"></path><path class="cls-1" d="M216.33,67.14V11.85h21.56a30.24,30.24,0,0,1,12.4,2.29,17.56,17.56,0,0,1,7.9,6.63A18.83,18.83,0,0,1,261,31.12a18.6,18.6,0,0,1-2.77,10.31,17.62,17.62,0,0,1-7.9,6.6,30.24,30.24,0,0,1-12.4,2.29H220.67l3.56-3.64V67.14Zm7.9-19.67-3.56-3.87h17q7.59,0,11.5-3.27t3.91-9.21q0-5.93-3.91-9.16t-11.5-3.24h-17l3.56-3.95ZM253.3,67.14,239.23,47.08h8.46l14.22,20.06Z" transform="translate(-5.49 -11.22)"></path><path class="cls-1" d="M269.73,67.14l25-55.29h7.82l25.12,55.29h-8.3L297.06,16.27h3.16L277.86,67.14Zm10.66-13.82L282.52,47h31.13l2.29,6.32Z" transform="translate(-5.49 -11.22)"></path><path class="cls-1" d="M340.27,67.14V11.85h6.47l24.81,41.79h-3.48l24.49-41.79H399l.08,55.29h-7.59l-.08-43.36h1.82l-21.8,36.65h-3.63l-22-36.65h2V67.14Z" transform="translate(-5.49 -11.22)"></path><path class="cls-1" d="M445,67.78a31.77,31.77,0,0,1-11.73-2.14,28,28,0,0,1-9.36-6,27.41,27.41,0,0,1-6.16-9,27.93,27.93,0,0,1-2.21-11.21,27.94,27.94,0,0,1,2.21-11.22,27.62,27.62,0,0,1,6.16-9,28.14,28.14,0,0,1,9.32-6A31.67,31.67,0,0,1,445,11.22a32,32,0,0,1,11.69,2.09A27.73,27.73,0,0,1,466,19.23a26.94,26.94,0,0,1,6.13,9,28.93,28.93,0,0,1,2.17,11.26,28.83,28.83,0,0,1-2.17,11.29,27,27,0,0,1-6.13,9,27.57,27.57,0,0,1-9.32,5.92A31.83,31.83,0,0,1,445,67.78Zm0-7a22.5,22.5,0,0,0,8.49-1.58,20.26,20.26,0,0,0,6.8-4.47A20.8,20.8,0,0,0,464.8,48a21.68,21.68,0,0,0,1.62-8.45,21.11,21.11,0,0,0-6.12-15.17,19.9,19.9,0,0,0-6.8-4.5A22.31,22.31,0,0,0,445,18.25a22.54,22.54,0,0,0-8.57,1.58,20.21,20.21,0,0,0-6.83,4.5,20.91,20.91,0,0,0-4.54,6.75,21.42,21.42,0,0,0-1.62,8.42A21.68,21.68,0,0,0,425.07,48a20.28,20.28,0,0,0,4.54,6.75,20.59,20.59,0,0,0,6.83,4.47A22.73,22.73,0,0,0,445,60.75Z" transform="translate(-5.49 -11.22)"></path><path class="cls-1" d="M506.86,67.78a37.7,37.7,0,0,1-12.08-1.94,24.64,24.64,0,0,1-9.09-5l2.93-6.16a25.44,25.44,0,0,0,8.05,4.58,28.88,28.88,0,0,0,10.19,1.82,23.24,23.24,0,0,0,7.82-1.1,9.27,9.27,0,0,0,4.43-3.05,7.2,7.2,0,0,0,1.42-4.38A6,6,0,0,0,518.67,48a13.88,13.88,0,0,0-4.82-2.81,52.25,52.25,0,0,0-6.51-1.85c-2.37-.53-4.76-1.15-7.15-1.86a32.34,32.34,0,0,1-6.56-2.72,13.49,13.49,0,0,1-4.78-4.47A13.06,13.06,0,0,1,487,27a14.5,14.5,0,0,1,2.25-7.86,15.58,15.58,0,0,1,6.95-5.77,28.56,28.56,0,0,1,12-2.17,37,37,0,0,1,9.55,1.26A26.63,26.63,0,0,1,526,16.11l-2.61,6.32a25.38,25.38,0,0,0-7.5-3.43,29.45,29.45,0,0,0-7.66-1.07,21.11,21.11,0,0,0-7.67,1.19,9.3,9.3,0,0,0-4.38,3.16,7.52,7.52,0,0,0-1.38,4.42,6.1,6.1,0,0,0,1.85,4.66,13.31,13.31,0,0,0,4.82,2.76A63.38,63.38,0,0,0,508,36q3.55.83,7.15,1.86a30.56,30.56,0,0,1,6.55,2.68A13.48,13.48,0,0,1,526.45,45a12.71,12.71,0,0,1,1.82,7.11A14.19,14.19,0,0,1,526,59.84a15.82,15.82,0,0,1-7.07,5.76A29.14,29.14,0,0,1,506.86,67.78Z" transform="translate(-5.49 -11.22)"></path><path class="cls-1" d="M561.37,67.14l25-55.29h7.82l25.12,55.29h-8.3L588.7,16.27h3.16L569.5,67.14ZM572,53.32,574.16,47h31.13l2.29,6.32Z" transform="translate(-5.49 -11.22)"></path><path class="cls-1" d="M657.5,67.14V11.85H664l24.8,41.79h-3.47L709.8,11.85h6.47l.08,55.29h-7.58l-.08-43.36h1.82l-21.8,36.65h-3.64l-22-36.65h2V67.14Z" transform="translate(-5.49 -11.22)"></path><path class="cls-1" d="M737.29,67.14V11.85h7.89V67.14Z" transform="translate(-5.49 -11.22)"></path><path class="cls-1" d="M782.23,67.78a37.7,37.7,0,0,1-12.08-1.94,24.64,24.64,0,0,1-9.09-5L764,54.66A25.61,25.61,0,0,0,772,59.24a28.88,28.88,0,0,0,10.19,1.82,23.24,23.24,0,0,0,7.82-1.1,9.27,9.27,0,0,0,4.43-3.05,7.26,7.26,0,0,0,1.42-4.38A6,6,0,0,0,794,48a13.88,13.88,0,0,0-4.82-2.81,52.25,52.25,0,0,0-6.51-1.85c-2.37-.53-4.76-1.15-7.15-1.86A32.34,32.34,0,0,1,769,38.71a13.49,13.49,0,0,1-4.78-4.47A13.06,13.06,0,0,1,762.41,27a14.5,14.5,0,0,1,2.25-7.86,15.58,15.58,0,0,1,7-5.77,28.56,28.56,0,0,1,12-2.17,37,37,0,0,1,9.55,1.26,26.63,26.63,0,0,1,8.22,3.63l-2.61,6.32a25.38,25.38,0,0,0-7.5-3.43,29.45,29.45,0,0,0-7.66-1.07,21.11,21.11,0,0,0-7.67,1.19,9.3,9.3,0,0,0-4.38,3.16,7.52,7.52,0,0,0-1.38,4.42A6.1,6.1,0,0,0,772,31.36a13.31,13.31,0,0,0,4.82,2.76A63.38,63.38,0,0,0,783.34,36q3.55.83,7.15,1.86A30.56,30.56,0,0,1,797,40.52,13.48,13.48,0,0,1,801.82,45a12.71,12.71,0,0,1,1.82,7.11,14.19,14.19,0,0,1-2.29,7.78,15.82,15.82,0,0,1-7.07,5.76A29.14,29.14,0,0,1,782.23,67.78Z" transform="translate(-5.49 -11.22)"></path><path class="cls-1" d="M829.71,67.14V18.72h-19V11.85h45.74v6.87h-19V67.14Z" transform="translate(-5.49 -11.22)"></path><path class="cls-1" d="M891.32,67.78q-10.89,0-17.14-6.24t-6.24-18.25V11.85h7.9V43q0,9.24,4.07,13.51t11.49,4.27q7.5,0,11.58-4.27T907,43V11.85h7.67V43.29q0,12-6.21,18.25T891.32,67.78Z" transform="translate(-5.49 -11.22)"></path><path class="cls-1" d="M935.24,67.14V11.85h21.57a30.27,30.27,0,0,1,12.4,2.29,17.61,17.61,0,0,1,7.9,6.63,18.91,18.91,0,0,1,2.76,10.35,18.68,18.68,0,0,1-2.76,10.31,17.68,17.68,0,0,1-7.9,6.6,30.27,30.27,0,0,1-12.4,2.29H939.59l3.55-3.64V67.14Zm7.9-19.67-3.55-3.87h17q7.59,0,11.49-3.27T972,31.12q0-5.93-3.91-9.16t-11.49-3.24h-17l3.55-3.95Zm29.07,19.67L958.15,47.08h8.45l14.22,20.06Z" transform="translate(-5.49 -11.22)"></path><path class="cls-1" d="M988.64,67.14l25-55.29h7.82l25.12,55.29h-8.29L1016,16.27h3.16L996.78,67.14Zm10.67-13.82,2.13-6.32h31.12l2.29,6.32Z" transform="translate(-5.49 -11.22)"></path><path class="cls-1" d="M1084.78,67.14V11.85h23.3a33.7,33.7,0,0,1,15.6,3.47A25.79,25.79,0,0,1,1134.19,25a27.52,27.52,0,0,1,3.75,14.46A27.51,27.51,0,0,1,1134.19,54a25.79,25.79,0,0,1-10.51,9.72,33.57,33.57,0,0,1-15.6,3.47Zm7.9-6.87h14.93a25.39,25.39,0,0,0,11.88-2.61,18.85,18.85,0,0,0,7.78-7.3A21,21,0,0,0,1130,39.5a20.88,20.88,0,0,0-2.77-10.9,19,19,0,0,0-7.78-7.27,25.39,25.39,0,0,0-11.88-2.61h-14.93Z" transform="translate(-5.49 -11.22)"></path><path class="cls-1" d="M1179.33,67.78a31.77,31.77,0,0,1-11.73-2.14,28,28,0,0,1-9.36-6,27.41,27.41,0,0,1-6.16-9,27.93,27.93,0,0,1-2.21-11.21,27.94,27.94,0,0,1,2.21-11.22,27.62,27.62,0,0,1,6.16-9,28.14,28.14,0,0,1,9.32-6,31.63,31.63,0,0,1,11.77-2.13A32,32,0,0,1,1191,13.31a27.73,27.73,0,0,1,9.32,5.92,26.94,26.94,0,0,1,6.13,9,28.93,28.93,0,0,1,2.17,11.26,28.83,28.83,0,0,1-2.17,11.29,27,27,0,0,1-6.13,9,27.57,27.57,0,0,1-9.32,5.92A31.83,31.83,0,0,1,1179.33,67.78Zm0-7a22.5,22.5,0,0,0,8.49-1.58,20.26,20.26,0,0,0,6.8-4.47,20.8,20.8,0,0,0,4.5-6.75,21.68,21.68,0,0,0,1.62-8.45,21.11,21.11,0,0,0-6.12-15.17,19.9,19.9,0,0,0-6.8-4.5,22.31,22.31,0,0,0-8.49-1.58,22.54,22.54,0,0,0-8.57,1.58,20.12,20.12,0,0,0-6.83,4.5,20.91,20.91,0,0,0-4.54,6.75,21.42,21.42,0,0,0-1.62,8.42,21.68,21.68,0,0,0,1.62,8.45,20.28,20.28,0,0,0,4.54,6.75,20.49,20.49,0,0,0,6.83,4.47A22.73,22.73,0,0,0,1179.33,60.75Z" transform="translate(-5.49 -11.22)"></path><path class="cls-1" d="M115,155l25-55.29h7.82L173,155h-8.3l-22.35-50.87h3.16L123.15,155Zm10.66-13.82,2.13-6.32h31.13l2.29,6.32Z" transform="translate(-5.49 -11.22)"></path><path class="cls-1" d="M185.56,155V99.72H192l36.58,45.42h-3.4V99.72h7.9V155h-6.48l-36.57-45.42h3.4V155Z" transform="translate(-5.49 -11.22)"></path><path class="cls-1" d="M265,155V106.59h-19V99.72H291.8v6.87h-19V155Z" transform="translate(-5.49 -11.22)"></path><path class="cls-1" d="M304.76,155V99.72h7.9V155Z" transform="translate(-5.49 -11.22)"></path><path class="cls-1" d="M358.55,155.65a32.07,32.07,0,0,1-11.77-2.1,27.38,27.38,0,0,1-15.48-14.89,30,30,0,0,1,0-22.59,27.28,27.28,0,0,1,6.2-9,28.2,28.2,0,0,1,9.36-5.92,32.27,32.27,0,0,1,11.85-2.09,32.76,32.76,0,0,1,12,2.13,23.71,23.71,0,0,1,9.24,6.4l-4.9,4.9a21.55,21.55,0,0,0-7.39-4.86,25.18,25.18,0,0,0-17.45,0,20.75,20.75,0,0,0-7,4.42,19.73,19.73,0,0,0-4.59,6.75,22,22,0,0,0-1.61,8.5,21.76,21.76,0,0,0,1.61,8.41,20,20,0,0,0,4.59,6.79,20.68,20.68,0,0,0,7,4.47,23.86,23.86,0,0,0,8.77,1.58,26.33,26.33,0,0,0,8.49-1.39,20.89,20.89,0,0,0,7.54-4.62l4.5,6a28.14,28.14,0,0,1-9.59,5.25A36.74,36.74,0,0,1,358.55,155.65Zm13.35-8.06V127.05h7.58v21.57Z" transform="translate(-5.49 -11.22)"></path><path class="cls-1" d="M423.88,155.65a31.69,31.69,0,0,1-11.73-2.14,28,28,0,0,1-9.36-6,27.44,27.44,0,0,1-6.17-9,29.56,29.56,0,0,1,0-22.43,27.65,27.65,0,0,1,6.17-9,28.14,28.14,0,0,1,9.32-6,33.66,33.66,0,0,1,23.46,0,27.73,27.73,0,0,1,9.32,5.92,27.06,27.06,0,0,1,6.12,9,30.38,30.38,0,0,1,0,22.55,27.1,27.1,0,0,1-6.12,9,27.57,27.57,0,0,1-9.32,5.92A31.83,31.83,0,0,1,423.88,155.65Zm0-7a22.54,22.54,0,0,0,8.49-1.58,20.12,20.12,0,0,0,6.79-4.47,20.82,20.82,0,0,0,4.51-6.75,21.86,21.86,0,0,0,1.62-8.45,21.06,21.06,0,0,0-6.13-15.17,19.76,19.76,0,0,0-6.79-4.5,23.82,23.82,0,0,0-17.06,0,20.26,20.26,0,0,0-6.84,4.5,20.92,20.92,0,0,0-6.16,15.17,21.68,21.68,0,0,0,1.62,8.45A20.53,20.53,0,0,0,415.31,147,22.69,22.69,0,0,0,423.88,148.62Z" transform="translate(-5.49 -11.22)"></path><path class="cls-1" d="M519.93,155.65a31.55,31.55,0,0,1-11.65-2.1,27.33,27.33,0,0,1-9.24-5.92,27.71,27.71,0,0,1-6.12-9,30,30,0,0,1,0-22.59,27.46,27.46,0,0,1,15.44-14.89,33.37,33.37,0,0,1,23.46.08A24.17,24.17,0,0,1,541,107.7l-5.14,5a20.59,20.59,0,0,0-7.11-4.93,22,22,0,0,0-8.45-1.62,23.14,23.14,0,0,0-8.65,1.58,20.52,20.52,0,0,0-6.91,4.42,19.89,19.89,0,0,0-4.54,6.75,23.08,23.08,0,0,0,0,17,19.79,19.79,0,0,0,4.54,6.75,20.7,20.7,0,0,0,6.91,4.43,23.34,23.34,0,0,0,8.65,1.58,22,22,0,0,0,8.45-1.62,20.21,20.21,0,0,0,7.11-5l5.14,5a24.57,24.57,0,0,1-9.21,6.47A31,31,0,0,1,519.93,155.65Z" transform="translate(-5.49 -11.22)"></path><path class="cls-1" d="M580.44,155.65a31.77,31.77,0,0,1-11.73-2.14,28,28,0,0,1-9.36-6,27.41,27.41,0,0,1-6.16-9,29.56,29.56,0,0,1,0-22.43,27.62,27.62,0,0,1,6.16-9,28.14,28.14,0,0,1,9.32-6,33.66,33.66,0,0,1,23.46,0,27.73,27.73,0,0,1,9.32,5.92,26.94,26.94,0,0,1,6.13,9,30.38,30.38,0,0,1,0,22.55,27,27,0,0,1-6.13,9,27.57,27.57,0,0,1-9.32,5.92A31.83,31.83,0,0,1,580.44,155.65Zm0-7a22.46,22.46,0,0,0,8.49-1.58,20.26,20.26,0,0,0,6.8-4.47,20.8,20.8,0,0,0,4.5-6.75,21.68,21.68,0,0,0,1.62-8.45,21.11,21.11,0,0,0-6.12-15.17,19.9,19.9,0,0,0-6.8-4.5,22.27,22.27,0,0,0-8.49-1.58,22.54,22.54,0,0,0-8.57,1.58,20.21,20.21,0,0,0-6.83,4.5A21.07,21.07,0,0,0,560.5,119a21.42,21.42,0,0,0-1.62,8.42,21.68,21.68,0,0,0,1.62,8.45A20.55,20.55,0,0,0,571.87,147,22.73,22.73,0,0,0,580.44,148.62Z" transform="translate(-5.49 -11.22)"></path><path class="cls-1" d="M626.18,155V99.72h6.48l24.8,41.79H654l24.48-41.79H685L685,155h-7.58l-.08-43.36h1.81l-21.8,36.65h-3.63l-22-36.65h2V155Z" transform="translate(-5.49 -11.22)"></path><path class="cls-1" d="M756.52,155.65a31.69,31.69,0,0,1-11.73-2.14,28,28,0,0,1-9.36-6,27.26,27.26,0,0,1-6.16-9,29.44,29.44,0,0,1,0-22.43,27.47,27.47,0,0,1,6.16-9,28.14,28.14,0,0,1,9.32-6,33.66,33.66,0,0,1,23.46,0,27.73,27.73,0,0,1,9.32,5.92,27.06,27.06,0,0,1,6.12,9,30.25,30.25,0,0,1,0,22.55,27.1,27.1,0,0,1-6.12,9,27.57,27.57,0,0,1-9.32,5.92A31.83,31.83,0,0,1,756.52,155.65Zm0-7A22.54,22.54,0,0,0,765,147a20.12,20.12,0,0,0,6.79-4.47,20.67,20.67,0,0,0,4.51-6.75,21.86,21.86,0,0,0,1.62-8.45,21.6,21.6,0,0,0-1.62-8.42,21.32,21.32,0,0,0-4.51-6.75,19.76,19.76,0,0,0-6.79-4.5,23.82,23.82,0,0,0-17.06,0,20.26,20.26,0,0,0-6.84,4.5A20.92,20.92,0,0,0,735,127.37a21.68,21.68,0,0,0,1.62,8.45A20.53,20.53,0,0,0,748,147,22.69,22.69,0,0,0,756.52,148.62Z" transform="translate(-5.49 -11.22)"></path><path class="cls-1" d="M827.85,155V99.72h6.48l36.57,45.42h-3.4V99.72h7.9V155h-6.47l-36.58-45.42h3.4V155Z" transform="translate(-5.49 -11.22)"></path><path class="cls-1" d="M921.3,155.65a31.77,31.77,0,0,1-11.73-2.14,28,28,0,0,1-9.36-6,27.26,27.26,0,0,1-6.16-9,29.44,29.44,0,0,1,0-22.43,27.47,27.47,0,0,1,6.16-9,28.14,28.14,0,0,1,9.32-6,33.66,33.66,0,0,1,23.46,0,27.73,27.73,0,0,1,9.32,5.92,27.06,27.06,0,0,1,6.12,9,30.25,30.25,0,0,1,0,22.55,27.1,27.1,0,0,1-6.12,9,27.57,27.57,0,0,1-9.32,5.92A31.83,31.83,0,0,1,921.3,155.65Zm0-7a22.54,22.54,0,0,0,8.49-1.58,20.12,20.12,0,0,0,6.79-4.47,20.67,20.67,0,0,0,4.51-6.75,21.68,21.68,0,0,0,1.62-8.45,21.06,21.06,0,0,0-6.13-15.17,19.76,19.76,0,0,0-6.79-4.5,23.82,23.82,0,0,0-17.06,0,20.26,20.26,0,0,0-6.84,4.5,20.92,20.92,0,0,0-6.16,15.17,21.68,21.68,0,0,0,1.62,8.45A20.53,20.53,0,0,0,912.73,147,22.69,22.69,0,0,0,921.3,148.62Z" transform="translate(-5.49 -11.22)"></path><path class="cls-1" d="M981.26,155,956.93,99.72h8.53l22.35,51h-4.9l22.52-51h7.9L989.08,155Z" transform="translate(-5.49 -11.22)"></path><path class="cls-1" d="M1049.11,155.65a31.77,31.77,0,0,1-11.73-2.14,28,28,0,0,1-9.36-6,27.41,27.41,0,0,1-6.16-9,29.56,29.56,0,0,1,0-22.43,27.62,27.62,0,0,1,6.16-9,28.14,28.14,0,0,1,9.32-6,33.66,33.66,0,0,1,23.46,0,27.73,27.73,0,0,1,9.32,5.92,26.94,26.94,0,0,1,6.13,9,30.38,30.38,0,0,1,0,22.55,27,27,0,0,1-6.13,9,27.57,27.57,0,0,1-9.32,5.92A31.83,31.83,0,0,1,1049.11,155.65Zm0-7a22.46,22.46,0,0,0,8.49-1.58,20.16,20.16,0,0,0,6.8-4.47,20.8,20.8,0,0,0,4.5-6.75,21.68,21.68,0,0,0,1.62-8.45,21.11,21.11,0,0,0-6.12-15.17,19.8,19.8,0,0,0-6.8-4.5,22.27,22.27,0,0,0-8.49-1.58,22.54,22.54,0,0,0-8.57,1.58,20.21,20.21,0,0,0-6.83,4.5,21.07,21.07,0,0,0-4.54,6.75,21.42,21.42,0,0,0-1.62,8.42,21.68,21.68,0,0,0,1.62,8.45A20.55,20.55,0,0,0,1040.54,147,22.73,22.73,0,0,0,1049.11,148.62Z" transform="translate(-5.49 -11.22)"></path><path class="cls-1" d="M1094,155.49a5.33,5.33,0,0,1-5.37-5.45,5.11,5.11,0,0,1,1.58-3.87,5.31,5.31,0,0,1,3.79-1.5,5.07,5.07,0,0,1,3.67,1.5,5.15,5.15,0,0,1,1.54,3.87,5.29,5.29,0,0,1-1.54,3.91A5,5,0,0,1,1094,155.49Z" transform="translate(-5.49 -11.22)"></path><path class="cls-1" d="M132.67,243.52a37.7,37.7,0,0,1-12.08-1.94,24.64,24.64,0,0,1-9.09-5l2.92-6.16a25.61,25.61,0,0,0,8.06,4.58,28.88,28.88,0,0,0,10.19,1.82,23,23,0,0,0,7.82-1.11,9.26,9.26,0,0,0,4.43-3,7.26,7.26,0,0,0,1.42-4.38,6,6,0,0,0-1.86-4.58,13.73,13.73,0,0,0-4.82-2.81,52.25,52.25,0,0,0-6.51-1.85c-2.37-.53-4.76-1.15-7.15-1.86a32.34,32.34,0,0,1-6.56-2.72,13.49,13.49,0,0,1-4.78-4.47,13.09,13.09,0,0,1-1.82-7.23,14.56,14.56,0,0,1,2.26-7.86,15.63,15.63,0,0,1,7-5.76A28.56,28.56,0,0,1,134,187a37,37,0,0,1,9.55,1.26,26.63,26.63,0,0,1,8.22,3.63l-2.61,6.32a25.38,25.38,0,0,0-7.5-3.43,29.45,29.45,0,0,0-7.66-1.07,21.13,21.13,0,0,0-7.67,1.18A9.44,9.44,0,0,0,122,198a7.58,7.58,0,0,0-1.38,4.43,6.06,6.06,0,0,0,1.85,4.66,13.31,13.31,0,0,0,4.82,2.76,63.38,63.38,0,0,0,6.52,1.86q3.56.83,7.15,1.86a30.56,30.56,0,0,1,6.55,2.68,13.48,13.48,0,0,1,4.78,4.43,12.71,12.71,0,0,1,1.82,7.11,14.19,14.19,0,0,1-2.29,7.78,15.87,15.87,0,0,1-7.07,5.76A29.14,29.14,0,0,1,132.67,243.52Z" transform="translate(-5.49 -11.22)"></path><path class="cls-1" d="M194.92,243.52a31.69,31.69,0,0,1-11.73-2.14,28,28,0,0,1-9.36-6,27.36,27.36,0,0,1-6.16-9,29.44,29.44,0,0,1,0-22.43,27.47,27.47,0,0,1,6.16-9,28.14,28.14,0,0,1,9.32-6,33.66,33.66,0,0,1,23.46,0,27.57,27.57,0,0,1,9.32,5.92,27.06,27.06,0,0,1,6.12,9,30.25,30.25,0,0,1,0,22.55,27.1,27.1,0,0,1-6.12,9,27.57,27.57,0,0,1-9.32,5.92A31.83,31.83,0,0,1,194.92,243.52Zm0-7a22.34,22.34,0,0,0,8.49-1.58,20.1,20.1,0,0,0,6.79-4.46,20.67,20.67,0,0,0,4.51-6.75,21.68,21.68,0,0,0,1.62-8.45,21.06,21.06,0,0,0-6.13-15.17,19.76,19.76,0,0,0-6.79-4.5,23.82,23.82,0,0,0-17.06,0,20.26,20.26,0,0,0-6.84,4.5,20.92,20.92,0,0,0-6.16,15.17,21.68,21.68,0,0,0,1.62,8.45,20.47,20.47,0,0,0,11.38,11.21A22.5,22.5,0,0,0,194.92,236.48Z" transform="translate(-5.49 -11.22)"></path><path class="cls-1" d="M240.66,242.88V187.59h6.47l24.81,41.79h-3.48L293,187.59h6.48l.08,55.29h-7.59l-.08-43.36h1.82l-21.8,36.65h-3.64l-22-36.65h2v43.36Z" transform="translate(-5.49 -11.22)"></path><path class="cls-1" d="M345.4,243.52a31.77,31.77,0,0,1-11.73-2.14,28,28,0,0,1-9.36-6,27.51,27.51,0,0,1-6.16-9,29.56,29.56,0,0,1,0-22.43,27.62,27.62,0,0,1,6.16-9,28.14,28.14,0,0,1,9.32-6,33.66,33.66,0,0,1,23.46,0,27.57,27.57,0,0,1,9.32,5.92,26.77,26.77,0,0,1,6.12,9,30.25,30.25,0,0,1,0,22.55,26.81,26.81,0,0,1-6.12,9,27.57,27.57,0,0,1-9.32,5.92A31.83,31.83,0,0,1,345.4,243.52Zm0-7a22.31,22.31,0,0,0,8.49-1.58,20.24,20.24,0,0,0,6.8-4.46,20.8,20.8,0,0,0,4.5-6.75,21.68,21.68,0,0,0,1.62-8.45,21.11,21.11,0,0,0-6.12-15.17,19.9,19.9,0,0,0-6.8-4.5A22.31,22.31,0,0,0,345.4,194a22.54,22.54,0,0,0-8.57,1.58,20.12,20.12,0,0,0-6.83,4.5,21.1,21.1,0,0,0-4.55,6.75,21.42,21.42,0,0,0-1.62,8.42,21.68,21.68,0,0,0,1.62,8.45,20.55,20.55,0,0,0,11.38,11.21A22.54,22.54,0,0,0,345.4,236.48Z" transform="translate(-5.49 -11.22)"></path><path class="cls-1" d="M407.25,243.52a37.7,37.7,0,0,1-12.08-1.94,24.64,24.64,0,0,1-9.09-5L389,230.4a25.61,25.61,0,0,0,8.06,4.58,28.88,28.88,0,0,0,10.19,1.82,23,23,0,0,0,7.82-1.11,9.26,9.26,0,0,0,4.43-3,7.26,7.26,0,0,0,1.42-4.38,6,6,0,0,0-1.86-4.58,13.73,13.73,0,0,0-4.82-2.81,52.25,52.25,0,0,0-6.51-1.85c-2.37-.53-4.76-1.15-7.15-1.86a32.34,32.34,0,0,1-6.56-2.72,13.49,13.49,0,0,1-4.78-4.47,13.09,13.09,0,0,1-1.82-7.23,14.47,14.47,0,0,1,2.26-7.86,15.63,15.63,0,0,1,6.95-5.76,28.55,28.55,0,0,1,12-2.17,37,37,0,0,1,9.56,1.26,26.63,26.63,0,0,1,8.22,3.63l-2.61,6.32a25.38,25.38,0,0,0-7.5-3.43,29.46,29.46,0,0,0-7.67-1.07,21.11,21.11,0,0,0-7.66,1.18,9.44,9.44,0,0,0-4.38,3.16,7.58,7.58,0,0,0-1.38,4.43A6.06,6.06,0,0,0,397,207.1a13.31,13.31,0,0,0,4.82,2.76,63.38,63.38,0,0,0,6.52,1.86q3.56.83,7.15,1.86a30.56,30.56,0,0,1,6.55,2.68,13.48,13.48,0,0,1,4.78,4.43,12.71,12.71,0,0,1,1.82,7.11,14.27,14.27,0,0,1-2.29,7.78,15.87,15.87,0,0,1-7.07,5.76A29.14,29.14,0,0,1,407.25,243.52Z" transform="translate(-5.49 -11.22)"></path><path class="cls-1" d="M461.76,242.88l25-55.29h7.82l25.12,55.29h-8.3L489.09,192h3.16l-22.36,50.87Zm10.66-13.82,2.13-6.32h31.13l2.29,6.32Z" transform="translate(-5.49 -11.22)"></path><path class="cls-1" d="M532.3,242.88V187.59h21.56a30.32,30.32,0,0,1,12.41,2.29,17.58,17.58,0,0,1,7.89,6.63,18.83,18.83,0,0,1,2.77,10.35,18.62,18.62,0,0,1-2.77,10.31,17.92,17.92,0,0,1-7.89,6.64,30,30,0,0,1-12.41,2.33H536.64l3.56-3.72v20.46Zm7.9-19.67-3.56-4h17q7.57,0,11.49-3.23t3.91-9.17q0-5.93-3.91-9.16t-11.49-3.24h-17l3.56-4Z" transform="translate(-5.49 -11.22)"></path><path class="cls-1" d="M581.75,242.88l25-55.29h7.82l25.12,55.29h-8.3L609.08,192h3.16l-22.36,50.87Zm10.66-13.82,2.13-6.32h31.13l2.29,6.32Z" transform="translate(-5.49 -11.22)"></path><path class="cls-1" d="M652.29,242.88V187.59h7.9v55.29Z" transform="translate(-5.49 -11.22)"></path><path class="cls-1" d="M673.85,242.88l23-31.36v6.09l-21.72-30h9l17.22,23.62-3.55.08,17.14-23.7h8.61L702,217.13v-5.69l23,31.44h-9.08l-18.33-25.2H701l-18.09,25.2Z" transform="translate(-5.49 -11.22)"></path><path class="cls-1" d="M761.62,243.52a31.78,31.78,0,0,1-11.74-2.14,28.21,28.21,0,0,1-9.36-6,27.67,27.67,0,0,1-6.16-9,29.56,29.56,0,0,1,0-22.43,27.78,27.78,0,0,1,6.16-9,28.18,28.18,0,0,1,9.33-6,33.66,33.66,0,0,1,23.46,0,27.67,27.67,0,0,1,9.32,5.92,27.06,27.06,0,0,1,6.12,9,30.38,30.38,0,0,1,0,22.55,27.1,27.1,0,0,1-6.12,9,27.67,27.67,0,0,1-9.32,5.92A31.87,31.87,0,0,1,761.62,243.52Zm0-7a22.34,22.34,0,0,0,8.49-1.58,20.19,20.19,0,0,0,6.79-4.46,20.8,20.8,0,0,0,4.5-6.75,21.68,21.68,0,0,0,1.62-8.45,21.11,21.11,0,0,0-6.12-15.17,19.86,19.86,0,0,0-6.79-4.5,22.34,22.34,0,0,0-8.49-1.58,22.59,22.59,0,0,0-8.58,1.58,20.31,20.31,0,0,0-6.83,4.5,21.07,21.07,0,0,0-4.54,6.75,21.42,21.42,0,0,0-1.62,8.42,21.68,21.68,0,0,0,1.62,8.45,20.44,20.44,0,0,0,4.54,6.75A20.67,20.67,0,0,0,753,234.9,22.59,22.59,0,0,0,761.62,236.48Z" transform="translate(-5.49 -11.22)"></path><path class="cls-1" d="M807.35,242.88V187.59h6.48L850.4,233H847V187.59h7.9v55.29h-6.48l-36.58-45.42h3.4v45.42Z" transform="translate(-5.49 -11.22)"></path><path class="cls-1" d="M867.47,242.88l25-55.29h7.82l25.12,55.29h-8.3L894.8,192H898L875.6,242.88Zm10.66-13.82,2.13-6.32h31.13l2.29,6.32Z" transform="translate(-5.49 -11.22)"></path><path class="cls-1" d="M938,242.88V187.59h23.3a33.7,33.7,0,0,1,15.6,3.47,25.72,25.72,0,0,1,10.51,9.72,29.73,29.73,0,0,1,0,28.91,25.72,25.72,0,0,1-10.51,9.72,33.57,33.57,0,0,1-15.6,3.47Zm7.9-6.87h14.93a25.46,25.46,0,0,0,11.89-2.61,19,19,0,0,0,7.78-7.3,22.84,22.84,0,0,0,0-21.77,19.08,19.08,0,0,0-7.78-7.26,25.46,25.46,0,0,0-11.89-2.61H945.91Z" transform="translate(-5.49 -11.22)"></path><path class="cls-1" d="M998.44,242.88l25-55.29h7.82l25.12,55.29h-8.29L1025.77,192h3.16l-22.36,50.87Zm10.66-13.82,2.13-6.32h31.13l2.29,6.32Z" transform="translate(-5.49 -11.22)"></path><path class="cls-1" d="M1085.09,243.52a37.7,37.7,0,0,1-12.08-1.94,24.72,24.72,0,0,1-9.09-5l2.93-6.16a25.44,25.44,0,0,0,8.05,4.58,28.88,28.88,0,0,0,10.19,1.82,22.92,22.92,0,0,0,7.82-1.11,9.21,9.21,0,0,0,4.43-3,7.2,7.2,0,0,0,1.42-4.38,6,6,0,0,0-1.86-4.58,13.68,13.68,0,0,0-4.81-2.81,52.92,52.92,0,0,0-6.52-1.85c-2.37-.53-4.76-1.15-7.15-1.86a32.34,32.34,0,0,1-6.56-2.72,13.49,13.49,0,0,1-4.78-4.47,13.09,13.09,0,0,1-1.81-7.23,14.55,14.55,0,0,1,2.25-7.86,15.69,15.69,0,0,1,7-5.76,28.56,28.56,0,0,1,12-2.17,37.08,37.08,0,0,1,9.56,1.26,26.68,26.68,0,0,1,8.21,3.63l-2.61,6.32a25.38,25.38,0,0,0-7.5-3.43,29.39,29.39,0,0,0-7.66-1.07,21.17,21.17,0,0,0-7.67,1.18,9.44,9.44,0,0,0-4.38,3.16,7.58,7.58,0,0,0-1.38,4.43,6.1,6.1,0,0,0,1.85,4.66,13.31,13.31,0,0,0,4.82,2.76,63.38,63.38,0,0,0,6.52,1.86q3.55.83,7.15,1.86a30.86,30.86,0,0,1,6.56,2.68,13.53,13.53,0,0,1,4.77,4.43,12.71,12.71,0,0,1,1.82,7.11,14.19,14.19,0,0,1-2.29,7.78,15.82,15.82,0,0,1-7.07,5.76A29.14,29.14,0,0,1,1085.09,243.52Z" transform="translate(-5.49 -11.22)"></path><path class="cls-1" d="M41.48,330.75V275.46H63a30.24,30.24,0,0,1,12.4,2.29,17.56,17.56,0,0,1,7.9,6.63,18.92,18.92,0,0,1,2.77,10.35A18.71,18.71,0,0,1,83.34,305a17.89,17.89,0,0,1-7.9,6.64A29.89,29.89,0,0,1,63,314H45.82l3.55-3.72v20.46Zm7.89-19.67-3.55-3.95h17q7.59,0,11.5-3.24t3.91-9.16q0-5.93-3.91-9.16t-11.5-3.24h-17l3.55-3.95Z" transform="translate(-5.49 -11.22)"></path><path class="cls-1" d="M127.81,331.38a31.76,31.76,0,0,1-11.73-2.13,28.21,28.21,0,0,1-9.36-6,27.67,27.67,0,0,1-6.16-9,29.56,29.56,0,0,1,0-22.43,27.67,27.67,0,0,1,6.16-9,28.24,28.24,0,0,1,9.32-6,33.54,33.54,0,0,1,23.47,0,27.67,27.67,0,0,1,9.32,5.92,27.06,27.06,0,0,1,6.12,9,30.38,30.38,0,0,1,0,22.55,27.21,27.21,0,0,1-6.12,9,27.67,27.67,0,0,1-9.32,5.92A31.89,31.89,0,0,1,127.81,331.38Zm0-7a22.36,22.36,0,0,0,8.5-1.58,20.19,20.19,0,0,0,6.79-4.46,20.8,20.8,0,0,0,4.5-6.75,21.69,21.69,0,0,0,1.62-8.46,21.11,21.11,0,0,0-6.12-15.16,19.86,19.86,0,0,0-6.79-4.5,23.84,23.84,0,0,0-17.07,0,20.31,20.31,0,0,0-6.83,4.5,21.07,21.07,0,0,0-4.54,6.75,21.41,21.41,0,0,0-1.62,8.41,21.69,21.69,0,0,0,1.62,8.46,20.44,20.44,0,0,0,4.54,6.75,20.67,20.67,0,0,0,6.83,4.46A22.57,22.57,0,0,0,127.81,324.35Z" transform="translate(-5.49 -11.22)"></path><path class="cls-1" d="M173.55,330.75V275.46h21.57a30.27,30.27,0,0,1,12.4,2.29,17.66,17.66,0,0,1,7.9,6.63,18.91,18.91,0,0,1,2.76,10.35A18.7,18.7,0,0,1,215.42,305a17.73,17.73,0,0,1-7.9,6.6,30.44,30.44,0,0,1-12.4,2.29H177.9l3.55-3.64v20.46Zm7.9-19.67-3.55-3.87h17q7.59,0,11.49-3.28t3.91-9.2q0-5.93-3.91-9.16t-11.49-3.24h-17l3.55-3.95Zm29.07,19.67-14.06-20.06h8.45l14.22,20.06Z" transform="translate(-5.49 -11.22)"></path><path class="cls-1" d="M276.87,330.75l-24.33-55.29h8.54l22.35,51h-4.9l22.52-51H309l-24.26,55.29Z" transform="translate(-5.49 -11.22)"></path><path class="cls-1" d="M320.32,330.75V275.46h7.9v55.29Z" transform="translate(-5.49 -11.22)"></path><path class="cls-1" d="M340.78,330.75l25-55.29h7.82l25.12,55.29h-8.29l-22.36-50.87h3.16l-22.36,50.87Zm10.66-13.82,2.14-6.32H384.7l2.29,6.32Z" transform="translate(-5.49 -11.22)"></path><path class="cls-1" d="M435.49,331.38a32.07,32.07,0,0,1-11.77-2.09,27.38,27.38,0,0,1-15.48-14.89,30,30,0,0,1,0-22.59,27.28,27.28,0,0,1,6.2-9,28,28,0,0,1,9.36-5.92,32.28,32.28,0,0,1,11.85-2.1,32.77,32.77,0,0,1,12,2.14,23.71,23.71,0,0,1,9.24,6.4l-4.9,4.89a21.72,21.72,0,0,0-7.38-4.85,25.21,25.21,0,0,0-17.46,0,20.85,20.85,0,0,0-7,4.42,19.61,19.61,0,0,0-4.58,6.75,22.87,22.87,0,0,0,0,16.91,20.06,20.06,0,0,0,4.58,6.79,20.66,20.66,0,0,0,7,4.46,23.7,23.7,0,0,0,8.77,1.58,26.23,26.23,0,0,0,8.49-1.38,20.81,20.81,0,0,0,7.54-4.62l4.51,6a28.13,28.13,0,0,1-9.6,5.26A36.73,36.73,0,0,1,435.49,331.38Zm13.35-8.05V302.79h7.59v21.56Z" transform="translate(-5.49 -11.22)"></path><path class="cls-1" d="M483.76,323.88H516v6.87H475.86V275.46h39v6.87H483.76Zm-.71-24.57h28.43V306H483.05Z" transform="translate(-5.49 -11.22)"></path><path class="cls-1" d="M533.13,330.75V275.46h6.48l36.57,45.42h-3.4V275.46h7.9v55.29h-6.47l-36.58-45.42H541v45.42Z" transform="translate(-5.49 -11.22)"></path><path class="cls-1" d="M617.73,331.38a37.8,37.8,0,0,1-12.09-1.93,24.67,24.67,0,0,1-9.08-5l2.92-6.16a25.5,25.5,0,0,0,8.06,4.58,29.07,29.07,0,0,0,10.19,1.82,23,23,0,0,0,7.82-1.11,9.26,9.26,0,0,0,4.43-3,7.26,7.26,0,0,0,1.42-4.38,6,6,0,0,0-1.86-4.58,13.73,13.73,0,0,0-4.82-2.81,52.42,52.42,0,0,0-6.52-1.85q-3.56-.79-7.14-1.86a31.56,31.56,0,0,1-6.56-2.73,13.29,13.29,0,0,1-4.78-4.46,13.09,13.09,0,0,1-1.82-7.23,14.55,14.55,0,0,1,2.25-7.86,15.72,15.72,0,0,1,7-5.76,28.54,28.54,0,0,1,12-2.18,37.1,37.1,0,0,1,9.56,1.27,26.63,26.63,0,0,1,8.22,3.63L634.24,286a25.38,25.38,0,0,0-7.5-3.43,29.46,29.46,0,0,0-7.67-1.07,21.11,21.11,0,0,0-7.66,1.18,9.37,9.37,0,0,0-4.38,3.16,7.51,7.51,0,0,0-1.39,4.43A6.07,6.07,0,0,0,607.5,295a13.22,13.22,0,0,0,4.82,2.76,62.66,62.66,0,0,0,6.52,1.86q3.55.82,7.15,1.86a30.56,30.56,0,0,1,6.55,2.68,13.48,13.48,0,0,1,4.78,4.43,12.7,12.7,0,0,1,1.82,7.1,14.28,14.28,0,0,1-2.29,7.79,15.94,15.94,0,0,1-7.07,5.76A29.18,29.18,0,0,1,617.73,331.38Z" transform="translate(-5.49 -11.22)"></path><path class="cls-1" d="M652.48,342.44l3.95-15.95,1,4.58a5.47,5.47,0,0,1-3.83-1.42,5,5,0,0,1-1.54-3.87,5.21,5.21,0,0,1,5.29-5.38,4.86,4.86,0,0,1,3.72,1.54,5.49,5.49,0,0,1,1.42,3.84,9.8,9.8,0,0,1-.12,1.54,14.26,14.26,0,0,1-.4,1.73,24.27,24.27,0,0,1-.83,2.41l-3.71,11Z" transform="translate(-5.49 -11.22)"></path><path class="cls-1" d="M704.46,330.75V275.46H726a30.27,30.27,0,0,1,12.4,2.29,17.66,17.66,0,0,1,7.9,6.63,18.91,18.91,0,0,1,2.76,10.35A18.7,18.7,0,0,1,746.33,305a18,18,0,0,1-7.9,6.64A29.93,29.93,0,0,1,726,314H708.81l3.55-3.72v20.46Zm7.9-19.67-3.55-3.95h17q7.59,0,11.49-3.24t3.91-9.16q0-5.93-3.91-9.16t-11.49-3.24h-17l3.55-3.95Z" transform="translate(-5.49 -11.22)"></path><path class="cls-1" d="M773,323.88h32.23v6.87H765.05V275.46h39v6.87H773Zm-.71-24.57h28.44V306H772.24Z" transform="translate(-5.49 -11.22)"></path><path class="cls-1" d="M838.43,331.38a37.69,37.69,0,0,1-12.08-1.93,24.72,24.72,0,0,1-9.09-5l2.93-6.16a25.44,25.44,0,0,0,8,4.58,29.15,29.15,0,0,0,10.19,1.82,23,23,0,0,0,7.83-1.11,9.23,9.23,0,0,0,4.42-3,7.2,7.2,0,0,0,1.42-4.38,6,6,0,0,0-1.86-4.58,13.68,13.68,0,0,0-4.81-2.81,52.92,52.92,0,0,0-6.52-1.85q-3.55-.79-7.15-1.86a31.79,31.79,0,0,1-6.56-2.73,13.46,13.46,0,0,1-4.78-4.46,13.09,13.09,0,0,1-1.81-7.23,14.55,14.55,0,0,1,2.25-7.86,15.69,15.69,0,0,1,6.95-5.76,28.55,28.55,0,0,1,12-2.18,37.1,37.1,0,0,1,9.56,1.27,26.58,26.58,0,0,1,8.21,3.63L854.94,286a25.38,25.38,0,0,0-7.5-3.43,29.39,29.39,0,0,0-7.66-1.07,21.07,21.07,0,0,0-7.66,1.18,9.35,9.35,0,0,0-4.39,3.16,7.58,7.58,0,0,0-1.38,4.43,6.07,6.07,0,0,0,1.86,4.66,13.17,13.17,0,0,0,4.81,2.76,63.38,63.38,0,0,0,6.52,1.86q3.56.82,7.15,1.86a30.65,30.65,0,0,1,6.56,2.68,13.65,13.65,0,0,1,4.78,4.43,12.7,12.7,0,0,1,1.81,7.1,14.2,14.2,0,0,1-2.29,7.79,15.88,15.88,0,0,1-7.07,5.76A29.15,29.15,0,0,1,838.43,331.38Z" transform="translate(-5.49 -11.22)"></path><path class="cls-1" d="M891.83,331.38a37.69,37.69,0,0,1-12.08-1.93,24.72,24.72,0,0,1-9.09-5l2.93-6.16a25.44,25.44,0,0,0,8,4.58,29.15,29.15,0,0,0,10.19,1.82,22.92,22.92,0,0,0,7.82-1.11,9.21,9.21,0,0,0,4.43-3,7.2,7.2,0,0,0,1.42-4.38,6,6,0,0,0-1.86-4.58,13.68,13.68,0,0,0-4.81-2.81,52.92,52.92,0,0,0-6.52-1.85q-3.55-.79-7.15-1.86a31.79,31.79,0,0,1-6.56-2.73,13.38,13.38,0,0,1-4.78-4.46,13.09,13.09,0,0,1-1.81-7.23,14.55,14.55,0,0,1,2.25-7.86,15.69,15.69,0,0,1,7-5.76,28.55,28.55,0,0,1,12-2.18,37.1,37.1,0,0,1,9.56,1.27,26.68,26.68,0,0,1,8.21,3.63L908.34,286a25.38,25.38,0,0,0-7.5-3.43,29.39,29.39,0,0,0-7.66-1.07,21.07,21.07,0,0,0-7.66,1.18,9.35,9.35,0,0,0-4.39,3.16,7.58,7.58,0,0,0-1.38,4.43A6.1,6.1,0,0,0,881.6,295a13.31,13.31,0,0,0,4.82,2.76,63.38,63.38,0,0,0,6.52,1.86q3.55.82,7.15,1.86a30.86,30.86,0,0,1,6.56,2.68,13.65,13.65,0,0,1,4.78,4.43,12.7,12.7,0,0,1,1.81,7.1,14.2,14.2,0,0,1-2.29,7.79,15.88,15.88,0,0,1-7.07,5.76A29.15,29.15,0,0,1,891.83,331.38Z" transform="translate(-5.49 -11.22)"></path><path class="cls-1" d="M954.08,331.38a31.76,31.76,0,0,1-11.73-2.13,28,28,0,0,1-9.36-6,27.36,27.36,0,0,1-6.16-9,29.56,29.56,0,0,1,0-22.43,27.36,27.36,0,0,1,6.16-9,28.14,28.14,0,0,1,9.32-6,33.51,33.51,0,0,1,23.46,0,27.57,27.57,0,0,1,9.32,5.92,26.77,26.77,0,0,1,6.12,9,30.25,30.25,0,0,1,0,22.55,26.91,26.91,0,0,1-6.12,9,27.57,27.57,0,0,1-9.32,5.92A31.83,31.83,0,0,1,954.08,331.38Zm0-7a22.31,22.31,0,0,0,8.49-1.58,20.24,20.24,0,0,0,6.8-4.46,20.8,20.8,0,0,0,4.5-6.75,21.69,21.69,0,0,0,1.62-8.46,21.11,21.11,0,0,0-6.12-15.16,19.9,19.9,0,0,0-6.8-4.5,22.31,22.31,0,0,0-8.49-1.58,22.54,22.54,0,0,0-8.57,1.58,20.12,20.12,0,0,0-6.83,4.5,21.1,21.1,0,0,0-4.55,6.75,21.4,21.4,0,0,0-1.61,8.41,21.69,21.69,0,0,0,1.61,8.46,20.55,20.55,0,0,0,11.38,11.21A22.54,22.54,0,0,0,954.08,324.35Z" transform="translate(-5.49 -11.22)"></path><path class="cls-1" d="M990.65,330.75l25-55.29h7.83l25.12,55.29h-8.3L1018,279.88h3.15l-22.35,50.87Zm10.67-13.82,2.13-6.32h31.12l2.3,6.32Z" transform="translate(-5.49 -11.22)"></path><path class="cls-1" d="M1077.31,331.38a37.8,37.8,0,0,1-12.09-1.93,24.67,24.67,0,0,1-9.08-5l2.92-6.16a25.5,25.5,0,0,0,8.06,4.58,29.07,29.07,0,0,0,10.19,1.82,23,23,0,0,0,7.82-1.11,9.18,9.18,0,0,0,4.42-3,7.2,7.2,0,0,0,1.43-4.38,6,6,0,0,0-1.86-4.58,13.73,13.73,0,0,0-4.82-2.81,52.42,52.42,0,0,0-6.52-1.85q-3.55-.79-7.14-1.86a31.56,31.56,0,0,1-6.56-2.73,13.29,13.29,0,0,1-4.78-4.46,13.09,13.09,0,0,1-1.82-7.23,14.55,14.55,0,0,1,2.25-7.86,15.69,15.69,0,0,1,7-5.76,28.62,28.62,0,0,1,12-2.18,37.1,37.1,0,0,1,9.56,1.27,26.63,26.63,0,0,1,8.22,3.63l-2.61,6.32a25.31,25.31,0,0,0-7.51-3.43,29.33,29.33,0,0,0-7.66-1.07,21.11,21.11,0,0,0-7.66,1.18,9.37,9.37,0,0,0-4.38,3.16,7.51,7.51,0,0,0-1.39,4.43,6.07,6.07,0,0,0,1.86,4.66,13.22,13.22,0,0,0,4.82,2.76,62.66,62.66,0,0,0,6.52,1.86q3.55.82,7.14,1.86a30.44,30.44,0,0,1,6.56,2.68,13.48,13.48,0,0,1,4.78,4.43,12.7,12.7,0,0,1,1.82,7.1,14.28,14.28,0,0,1-2.29,7.79,15.94,15.94,0,0,1-7.07,5.76A29.18,29.18,0,0,1,1077.31,331.38Z" transform="translate(-5.49 -11.22)"></path><path class="cls-1" d="M1148.09,323.88h32.23v6.87h-40.13V275.46h39v6.87h-31.12Zm-.71-24.57h28.43V306h-28.43Z" transform="translate(-5.49 -11.22)"></path><path class="cls-1" d="M105.78,419.25a31.56,31.56,0,0,1-11.66-2.09,27.33,27.33,0,0,1-9.24-5.92,27.82,27.82,0,0,1-6.12-9,30,30,0,0,1,0-22.59A27.46,27.46,0,0,1,94.2,364.79a33.22,33.22,0,0,1,23.46.08,24.25,24.25,0,0,1,9.21,6.43l-5.14,5a20.53,20.53,0,0,0-7.11-4.94,22.22,22.22,0,0,0-8.45-1.61,23.33,23.33,0,0,0-8.65,1.57,20.8,20.8,0,0,0-6.91,4.43,19.79,19.79,0,0,0-4.54,6.75,23.08,23.08,0,0,0,0,17,19.89,19.89,0,0,0,4.54,6.75,20.62,20.62,0,0,0,6.91,4.42,23.14,23.14,0,0,0,8.65,1.58,22,22,0,0,0,8.45-1.62,20,20,0,0,0,7.11-5l5.14,5a24.48,24.48,0,0,1-9.21,6.48A31,31,0,0,1,105.78,419.25Z" transform="translate(-5.49 -11.22)"></path><path class="cls-1" d="M165.41,419.25q-10.89,0-17.14-6.24T142,394.77V363.33h7.9v31.12q0,9.24,4.07,13.51t11.49,4.26c5,0,8.86-1.42,11.58-4.26s4.06-7.35,4.06-13.51V363.33h7.67v31.44q0,12-6.2,18.24T165.41,419.25Z" transform="translate(-5.49 -11.22)"></path><path class="cls-1" d="M209.33,418.62V363.33h7.9v48.42h29.94v6.87Z" transform="translate(-5.49 -11.22)"></path><path class="cls-1" d="M266.45,418.62V370.2h-19v-6.87h45.74v6.87h-19v48.42Z" transform="translate(-5.49 -11.22)"></path><path class="cls-1" d="M328.06,419.25q-10.89,0-17.14-6.24t-6.24-18.24V363.33h7.9v31.12q0,9.24,4.07,13.51t11.49,4.26q7.5,0,11.57-4.26t4.07-13.51V363.33h7.66v31.44q0,12-6.2,18.24T328.06,419.25Z" transform="translate(-5.49 -11.22)"></path><path class="cls-1" d="M372,418.62V363.33h21.57a30.27,30.27,0,0,1,12.4,2.29,17.66,17.66,0,0,1,7.9,6.63,18.91,18.91,0,0,1,2.76,10.35,18.7,18.7,0,0,1-2.76,10.31,17.73,17.73,0,0,1-7.9,6.6,30.44,30.44,0,0,1-12.4,2.29H376.33l3.55-3.64v20.46Zm7.9-19.67-3.55-3.87h17q7.59,0,11.49-3.28t3.91-9.2q0-5.93-3.91-9.16t-11.49-3.24h-17l3.55-3.95ZM409,418.62l-14.06-20.06h8.45l14.22,20.06Z" transform="translate(-5.49 -11.22)"></path><path class="cls-1" d="M425.38,418.62l25-55.29h7.82l25.12,55.29h-8.29l-22.36-50.87h3.16l-22.35,50.87Zm10.67-13.82,2.13-6.32H469.3l2.29,6.32Z" transform="translate(-5.49 -11.22)"></path><path class="cls-1" d="M512,419.25A37.71,37.71,0,0,1,500,417.32a24.67,24.67,0,0,1-9.08-5l2.92-6.16a25.69,25.69,0,0,0,8.06,4.58A29.07,29.07,0,0,0,512,412.54a23,23,0,0,0,7.82-1.11,9.23,9.23,0,0,0,4.42-3A7.2,7.2,0,0,0,525.7,404a6,6,0,0,0-1.85-4.58,13.82,13.82,0,0,0-4.82-2.81,52.92,52.92,0,0,0-6.52-1.85q-3.56-.79-7.15-1.86a31.7,31.7,0,0,1-6.55-2.73,13.29,13.29,0,0,1-4.78-4.46,13,13,0,0,1-1.82-7.23,14.55,14.55,0,0,1,2.25-7.86,15.69,15.69,0,0,1,7-5.76,28.59,28.59,0,0,1,12-2.18,37.1,37.1,0,0,1,9.56,1.27,26.47,26.47,0,0,1,8.21,3.63l-2.6,6.32a25.31,25.31,0,0,0-7.51-3.43,29,29,0,0,0-7.66-1.07,21.07,21.07,0,0,0-7.66,1.18,9.4,9.4,0,0,0-4.39,3.16,7.58,7.58,0,0,0-1.38,4.43,6.07,6.07,0,0,0,1.86,4.66,13.14,13.14,0,0,0,4.82,2.76,62.45,62.45,0,0,0,6.51,1.86c2.37.55,4.76,1.17,7.15,1.86a30.65,30.65,0,0,1,6.56,2.68,13.63,13.63,0,0,1,4.78,4.42,12.76,12.76,0,0,1,1.81,7.11,14.14,14.14,0,0,1-2.29,7.78,15.78,15.78,0,0,1-7.07,5.77A29.1,29.1,0,0,1,512,419.25Z" transform="translate(-5.49 -11.22)"></path><path class="cls-1" d="M574.92,418.62V363.33h23.3a33.7,33.7,0,0,1,15.6,3.47,25.79,25.79,0,0,1,10.51,9.72,29.73,29.73,0,0,1,0,28.91,25.79,25.79,0,0,1-10.51,9.72,33.7,33.7,0,0,1-15.6,3.47Zm7.89-6.87h14.93a25.41,25.41,0,0,0,11.89-2.61,18.92,18.92,0,0,0,7.78-7.3,22.77,22.77,0,0,0,0-21.77,19,19,0,0,0-7.78-7.26,25.41,25.41,0,0,0-11.89-2.61H582.81Z" transform="translate(-5.49 -11.22)"></path><path class="cls-1" d="M644.51,418.62V363.33h7.9v55.29Z" transform="translate(-5.49 -11.22)"></path><path class="cls-1" d="M681.24,418.62h-7.9V363.33h39v6.87H681.24Zm-.79-29.15H709v6.8H680.45Z" transform="translate(-5.49 -11.22)"></path><path class="cls-1" d="M735.75,411.75H768v6.87H727.85V363.33h39v6.87H735.75ZM735,387.18h28.44v6.72H735Z" transform="translate(-5.49 -11.22)"></path><path class="cls-1" d="M785.12,418.62V363.33h21.56a30.24,30.24,0,0,1,12.4,2.29,17.56,17.56,0,0,1,7.9,6.63,18.83,18.83,0,0,1,2.77,10.35A18.62,18.62,0,0,1,827,392.91a17.62,17.62,0,0,1-7.9,6.6,30.41,30.41,0,0,1-12.4,2.29H789.46l3.56-3.64v20.46ZM793,399l-3.56-3.87h17q7.57,0,11.49-3.28t3.91-9.2q0-5.93-3.91-9.16t-11.49-3.24h-17l3.56-3.95Zm29.07,19.67L808,398.56h8.46l14.22,20.06Z" transform="translate(-5.49 -11.22)"></path><path class="cls-1" d="M854.79,411.75H887v6.87H846.89V363.33h39v6.87H854.79Zm-.71-24.57h28.44v6.72H854.08Z" transform="translate(-5.49 -11.22)"></path><path class="cls-1" d="M904.16,418.62V363.33h6.48l36.57,45.42h-3.4V363.33h7.9v55.29h-6.47L908.66,373.2h3.4v45.42Z" transform="translate(-5.49 -11.22)"></path><path class="cls-1" d="M983.63,418.62V370.2h-19v-6.87h45.74v6.87h-19v48.42Z" transform="translate(-5.49 -11.22)"></path><path class="cls-1" d="M1031.26,411.75h32.23v6.87h-40.13V363.33h39v6.87h-31.12Zm-.71-24.57H1059v6.72h-28.44Z" transform="translate(-5.49 -11.22)"></path><path class="cls-1" d="M1096.74,419.25a37.69,37.69,0,0,1-12.08-1.93,24.72,24.72,0,0,1-9.09-5l2.93-6.16a25.63,25.63,0,0,0,8,4.58,29.15,29.15,0,0,0,10.19,1.82,22.92,22.92,0,0,0,7.82-1.11,9.21,9.21,0,0,0,4.43-3,7.2,7.2,0,0,0,1.42-4.38,6,6,0,0,0-1.86-4.58,13.68,13.68,0,0,0-4.81-2.81,52.92,52.92,0,0,0-6.52-1.85q-3.56-.79-7.15-1.86a31.79,31.79,0,0,1-6.56-2.73,13.38,13.38,0,0,1-4.78-4.46,13.09,13.09,0,0,1-1.81-7.23,14.55,14.55,0,0,1,2.25-7.86,15.69,15.69,0,0,1,6.95-5.76,28.55,28.55,0,0,1,12-2.18,37.1,37.1,0,0,1,9.56,1.27,26.58,26.58,0,0,1,8.21,3.63l-2.61,6.32a25.38,25.38,0,0,0-7.5-3.43,29,29,0,0,0-7.66-1.07,21.07,21.07,0,0,0-7.66,1.18,9.35,9.35,0,0,0-4.39,3.16,7.58,7.58,0,0,0-1.38,4.43,6.07,6.07,0,0,0,1.86,4.66,13.17,13.17,0,0,0,4.81,2.76,63.38,63.38,0,0,0,6.52,1.86q3.56.82,7.15,1.86a30.86,30.86,0,0,1,6.56,2.68,13.71,13.71,0,0,1,4.78,4.42,12.76,12.76,0,0,1,1.81,7.11,14.14,14.14,0,0,1-2.29,7.78,15.83,15.83,0,0,1-7.07,5.77A29.15,29.15,0,0,1,1096.74,419.25Z" transform="translate(-5.49 -11.22)"></path><path class="cls-1" d="M1136.32,419.1a5.33,5.33,0,0,1-5.37-5.45,5.11,5.11,0,0,1,1.58-3.88,5.29,5.29,0,0,1,3.79-1.5,5.08,5.08,0,0,1,3.67,1.5,5.19,5.19,0,0,1,1.54,3.88,5.29,5.29,0,0,1-1.54,3.91A5,5,0,0,1,1136.32,419.1Z" transform="translate(-5.49 -11.22)"></path><path class="cls-1" d="M118.18,507.12a37.71,37.71,0,0,1-12.09-1.93,24.59,24.59,0,0,1-9.08-5L99.93,494a25.58,25.58,0,0,0,8.06,4.58,29.07,29.07,0,0,0,10.19,1.82A23,23,0,0,0,126,499.3a9.23,9.23,0,0,0,4.42-3,7.2,7.2,0,0,0,1.42-4.38A6,6,0,0,0,130,487.3a13.82,13.82,0,0,0-4.82-2.81,52.92,52.92,0,0,0-6.52-1.85q-3.56-.79-7.15-1.86a31.79,31.79,0,0,1-6.56-2.73,13.46,13.46,0,0,1-4.78-4.46,13.09,13.09,0,0,1-1.81-7.23,14.55,14.55,0,0,1,2.25-7.86,15.69,15.69,0,0,1,7-5.76,28.55,28.55,0,0,1,12-2.18,37.1,37.1,0,0,1,9.56,1.27,26.58,26.58,0,0,1,8.21,3.63l-2.6,6.32a25.43,25.43,0,0,0-7.51-3.43,29,29,0,0,0-7.66-1.07,21.07,21.07,0,0,0-7.66,1.18,9.35,9.35,0,0,0-4.39,3.16,7.58,7.58,0,0,0-1.38,4.43,6.07,6.07,0,0,0,1.86,4.66,13.17,13.17,0,0,0,4.81,2.76,63.38,63.38,0,0,0,6.52,1.86q3.56.82,7.15,1.86a30.65,30.65,0,0,1,6.56,2.68,13.71,13.71,0,0,1,4.78,4.42,12.76,12.76,0,0,1,1.81,7.11,14.14,14.14,0,0,1-2.29,7.78,15.83,15.83,0,0,1-7.07,5.77A29.1,29.1,0,0,1,118.18,507.12Z" transform="translate(-5.49 -11.22)"></path><path class="cls-1" d="M180.42,507.12A31.76,31.76,0,0,1,168.69,505a28,28,0,0,1-9.36-6,27.62,27.62,0,0,1-6.16-9,29.56,29.56,0,0,1,0-22.43,27.51,27.51,0,0,1,6.16-9,28.14,28.14,0,0,1,9.32-6,31.47,31.47,0,0,1,11.77-2.14,31.83,31.83,0,0,1,11.69,2.1,27.57,27.57,0,0,1,9.32,5.92,26.94,26.94,0,0,1,6.13,9,30.38,30.38,0,0,1,0,22.55,27.08,27.08,0,0,1-6.13,9,27.57,27.57,0,0,1-9.32,5.92A31.83,31.83,0,0,1,180.42,507.12Zm0-7a22.27,22.27,0,0,0,8.49-1.58,20.24,20.24,0,0,0,6.8-4.46,20.8,20.8,0,0,0,4.5-6.75,21.69,21.69,0,0,0,1.62-8.46,21.11,21.11,0,0,0-6.12-15.16,20.07,20.07,0,0,0-6.8-4.51,22.46,22.46,0,0,0-8.49-1.58,22.73,22.73,0,0,0-8.57,1.58,20.39,20.39,0,0,0-6.83,4.51,20.91,20.91,0,0,0-4.54,6.75,21.41,21.41,0,0,0-1.62,8.41,21.69,21.69,0,0,0,1.62,8.46,20.28,20.28,0,0,0,4.54,6.75,20.57,20.57,0,0,0,6.83,4.46A22.54,22.54,0,0,0,180.42,500.09Z" transform="translate(-5.49 -11.22)"></path><path class="cls-1" d="M226.16,506.49V451.2h6.48L257.44,493H254l24.49-41.78h6.48l.08,55.29h-7.58l-.08-43.37h1.81l-21.8,36.66h-3.63l-22-36.66h2v43.37Z" transform="translate(-5.49 -11.22)"></path><path class="cls-1" d="M330.9,507.12A31.76,31.76,0,0,1,319.17,505a28.21,28.21,0,0,1-9.36-6,27.62,27.62,0,0,1-6.16-9,29.56,29.56,0,0,1,0-22.43,27.51,27.51,0,0,1,6.16-9,28.24,28.24,0,0,1,9.32-6,31.47,31.47,0,0,1,11.77-2.14,31.8,31.8,0,0,1,11.69,2.1,27.62,27.62,0,0,1,9.33,5.92,27.06,27.06,0,0,1,6.12,9,30.38,30.38,0,0,1,0,22.55,27.21,27.21,0,0,1-6.12,9,27.62,27.62,0,0,1-9.33,5.92A31.79,31.79,0,0,1,330.9,507.12Zm0-7a22.36,22.36,0,0,0,8.5-1.58,20.19,20.19,0,0,0,6.79-4.46,20.8,20.8,0,0,0,4.5-6.75,21.69,21.69,0,0,0,1.62-8.46,21.11,21.11,0,0,0-6.12-15.16,20,20,0,0,0-6.79-4.51,23.84,23.84,0,0,0-17.07,0,20.49,20.49,0,0,0-6.83,4.51,21.07,21.07,0,0,0-4.54,6.75,21.41,21.41,0,0,0-1.62,8.41A21.69,21.69,0,0,0,311,487.3a20.44,20.44,0,0,0,4.54,6.75,20.67,20.67,0,0,0,6.83,4.46A22.57,22.57,0,0,0,330.9,500.09Z" transform="translate(-5.49 -11.22)"></path><path class="cls-1" d="M392.76,507.12a37.71,37.71,0,0,1-12.09-1.93,24.72,24.72,0,0,1-9.09-5l2.93-6.16a25.63,25.63,0,0,0,8.05,4.58,29.16,29.16,0,0,0,10.2,1.82,23,23,0,0,0,7.82-1.11,9.23,9.23,0,0,0,4.42-3,7.2,7.2,0,0,0,1.42-4.38,6,6,0,0,0-1.86-4.58,13.68,13.68,0,0,0-4.81-2.81,52.92,52.92,0,0,0-6.52-1.85q-3.56-.79-7.15-1.86a31.79,31.79,0,0,1-6.56-2.73,13.46,13.46,0,0,1-4.78-4.46,13.09,13.09,0,0,1-1.81-7.23,14.55,14.55,0,0,1,2.25-7.86,15.69,15.69,0,0,1,6.95-5.76,28.55,28.55,0,0,1,12-2.18,37.1,37.1,0,0,1,9.56,1.27,26.58,26.58,0,0,1,8.21,3.63l-2.6,6.32a25.54,25.54,0,0,0-7.51-3.43,29,29,0,0,0-7.66-1.07,21.07,21.07,0,0,0-7.66,1.18,9.35,9.35,0,0,0-4.39,3.16,7.58,7.58,0,0,0-1.38,4.43,6.07,6.07,0,0,0,1.86,4.66,13.17,13.17,0,0,0,4.81,2.76,63.38,63.38,0,0,0,6.52,1.86q3.56.82,7.15,1.86a30.65,30.65,0,0,1,6.56,2.68,13.71,13.71,0,0,1,4.78,4.42,12.76,12.76,0,0,1,1.81,7.11,14.14,14.14,0,0,1-2.29,7.78A15.83,15.83,0,0,1,404.8,505,29.13,29.13,0,0,1,392.76,507.12Z" transform="translate(-5.49 -11.22)"></path><path class="cls-1" d="M455.63,506.49V451.2h7.9v48.42h29.94v6.87Z" transform="translate(-5.49 -11.22)"></path><path class="cls-1" d="M530.84,507.12A31.69,31.69,0,0,1,519.11,505a28.16,28.16,0,0,1-9.37-6,27.78,27.78,0,0,1-6.16-9,29.56,29.56,0,0,1,0-22.43,27.67,27.67,0,0,1,6.16-9,28.18,28.18,0,0,1,9.33-6,31.44,31.44,0,0,1,11.77-2.14,31.83,31.83,0,0,1,11.69,2.1,27.67,27.67,0,0,1,9.32,5.92,27.06,27.06,0,0,1,6.12,9,30.38,30.38,0,0,1,0,22.55,27.21,27.21,0,0,1-6.12,9,27.67,27.67,0,0,1-9.32,5.92A31.83,31.83,0,0,1,530.84,507.12Zm0-7a22.34,22.34,0,0,0,8.49-1.58,20.19,20.19,0,0,0,6.79-4.46,20.8,20.8,0,0,0,4.5-6.75,21.69,21.69,0,0,0,1.62-8.46,21.11,21.11,0,0,0-6.12-15.16,20,20,0,0,0-6.79-4.51,23.82,23.82,0,0,0-17.06,0,20.43,20.43,0,0,0-6.84,4.51,21.07,21.07,0,0,0-4.54,6.75,21.41,21.41,0,0,0-1.62,8.41,21.69,21.69,0,0,0,1.62,8.46,20.47,20.47,0,0,0,11.38,11.21A22.5,22.5,0,0,0,530.84,500.09Z" transform="translate(-5.49 -11.22)"></path><path class="cls-1" d="M599.48,507.12q-10.9,0-17.14-6.24t-6.24-18.24V451.2H584v31.12q0,9.24,4.07,13.51t11.49,4.26q7.5,0,11.57-4.26t4.07-13.51V451.2h7.66v31.44q0,12-6.2,18.24T599.48,507.12Z" transform="translate(-5.49 -11.22)"></path><path class="cls-1" d="M668.13,507.12A31.56,31.56,0,0,1,656.47,505a27.33,27.33,0,0,1-9.24-5.92,28,28,0,0,1-6.12-9,30,30,0,0,1,0-22.59,27.46,27.46,0,0,1,15.44-14.89,33.22,33.22,0,0,1,23.46.08,24.25,24.25,0,0,1,9.21,6.43l-5.14,5a20.44,20.44,0,0,0-7.11-4.94,22.23,22.23,0,0,0-8.45-1.62,23.34,23.34,0,0,0-8.65,1.58A20.8,20.8,0,0,0,653,463.6a19.94,19.94,0,0,0-4.54,6.75,23.08,23.08,0,0,0,0,17,20,20,0,0,0,4.54,6.75,20.62,20.62,0,0,0,6.91,4.42,23.14,23.14,0,0,0,8.65,1.58,22,22,0,0,0,8.45-1.62,19.87,19.87,0,0,0,7.11-5l5.14,5a24.48,24.48,0,0,1-9.21,6.48A31,31,0,0,1,668.13,507.12Z" transform="translate(-5.49 -11.22)"></path><path class="cls-1" d="M695.14,506.49l25-55.29H728l25.12,55.29h-8.29l-22.36-50.87h3.16l-22.35,50.87Zm10.67-13.82,2.13-6.32h31.12l2.29,6.32Z" transform="translate(-5.49 -11.22)"></path><path class="cls-1" d="M781.8,507.12a37.75,37.75,0,0,1-12.09-1.93,24.67,24.67,0,0,1-9.08-5l2.92-6.16a25.69,25.69,0,0,0,8.06,4.58,29.07,29.07,0,0,0,10.19,1.82,23,23,0,0,0,7.82-1.11,9.23,9.23,0,0,0,4.42-3,7.2,7.2,0,0,0,1.42-4.38,6,6,0,0,0-1.85-4.58,13.82,13.82,0,0,0-4.82-2.81,52.92,52.92,0,0,0-6.52-1.85q-3.56-.79-7.15-1.86a31.7,31.7,0,0,1-6.55-2.73,13.29,13.29,0,0,1-4.78-4.46,13,13,0,0,1-1.82-7.23,14.55,14.55,0,0,1,2.25-7.86,15.69,15.69,0,0,1,6.95-5.76,28.59,28.59,0,0,1,12-2.18,37.1,37.1,0,0,1,9.56,1.27,26.47,26.47,0,0,1,8.21,3.63l-2.6,6.32a25.43,25.43,0,0,0-7.51-3.43,29,29,0,0,0-7.66-1.07,21.07,21.07,0,0,0-7.66,1.18,9.4,9.4,0,0,0-4.39,3.16,7.58,7.58,0,0,0-1.38,4.43,6.07,6.07,0,0,0,1.86,4.66,13.14,13.14,0,0,0,4.82,2.76,62.45,62.45,0,0,0,6.51,1.86q3.55.82,7.15,1.86a30.65,30.65,0,0,1,6.56,2.68,13.63,13.63,0,0,1,4.78,4.42,12.76,12.76,0,0,1,1.81,7.11,14.14,14.14,0,0,1-2.29,7.78,15.78,15.78,0,0,1-7.07,5.77A29.1,29.1,0,0,1,781.8,507.12Z" transform="translate(-5.49 -11.22)"></path><path class="cls-1" d="M844.67,506.49V451.2h21.57a30.27,30.27,0,0,1,12.4,2.29,17.61,17.61,0,0,1,7.9,6.63,18.92,18.92,0,0,1,2.77,10.35,18.71,18.71,0,0,1-2.77,10.31,17.86,17.86,0,0,1-7.9,6.63,29.76,29.76,0,0,1-12.4,2.34H849l3.55-3.72v20.46Zm7.9-19.67L849,482.87h17q7.59,0,11.5-3.24t3.91-9.16q0-5.93-3.91-9.16T866,458.07H849l3.55-3.95Z" transform="translate(-5.49 -11.22)"></path><path class="cls-1" d="M913.16,499.62h32.23v6.87H905.26V451.2h39v6.87H913.16Zm-.71-24.57h28.44v6.72H912.45Z" transform="translate(-5.49 -11.22)"></path><path class="cls-1" d="M962.53,506.49V451.2h7.9v48.42h29.94v6.87Z" transform="translate(-5.49 -11.22)"></path><path class="cls-1" d="M1037.74,507.12A31.78,31.78,0,0,1,1026,505a28.21,28.21,0,0,1-9.36-6,27.78,27.78,0,0,1-6.16-9,29.56,29.56,0,0,1,0-22.43,27.67,27.67,0,0,1,6.16-9,28.18,28.18,0,0,1,9.33-6,31.44,31.44,0,0,1,11.77-2.14,31.87,31.87,0,0,1,11.69,2.1,27.67,27.67,0,0,1,9.32,5.92,27.06,27.06,0,0,1,6.12,9,30.38,30.38,0,0,1,0,22.55,27.21,27.21,0,0,1-6.12,9,27.67,27.67,0,0,1-9.32,5.92A31.87,31.87,0,0,1,1037.74,507.12Zm0-7a22.34,22.34,0,0,0,8.49-1.58,20.19,20.19,0,0,0,6.79-4.46,20.8,20.8,0,0,0,4.5-6.75,21.69,21.69,0,0,0,1.62-8.46,21.11,21.11,0,0,0-6.12-15.16,20,20,0,0,0-6.79-4.51,22.54,22.54,0,0,0-8.49-1.58,22.78,22.78,0,0,0-8.58,1.58,20.49,20.49,0,0,0-6.83,4.51,21.07,21.07,0,0,0-4.54,6.75,21.41,21.41,0,0,0-1.62,8.41,21.69,21.69,0,0,0,1.62,8.46,20.44,20.44,0,0,0,4.54,6.75,20.67,20.67,0,0,0,6.83,4.46A22.59,22.59,0,0,0,1037.74,500.09Z" transform="translate(-5.49 -11.22)"></path><path class="cls-1" d="M1099.59,507.12a37.75,37.75,0,0,1-12.09-1.93,24.67,24.67,0,0,1-9.08-5l2.92-6.16a25.69,25.69,0,0,0,8.06,4.58,29.07,29.07,0,0,0,10.19,1.82,23,23,0,0,0,7.82-1.11,9.23,9.23,0,0,0,4.42-3,7.2,7.2,0,0,0,1.42-4.38,6,6,0,0,0-1.85-4.58,13.82,13.82,0,0,0-4.82-2.81,52.92,52.92,0,0,0-6.52-1.85q-3.55-.79-7.15-1.86a31.7,31.7,0,0,1-6.55-2.73,13.29,13.29,0,0,1-4.78-4.46,13,13,0,0,1-1.82-7.23,14.55,14.55,0,0,1,2.25-7.86,15.69,15.69,0,0,1,7-5.76,28.59,28.59,0,0,1,12-2.18,37.1,37.1,0,0,1,9.56,1.27,26.47,26.47,0,0,1,8.21,3.63l-2.6,6.32a25.31,25.31,0,0,0-7.51-3.43,29,29,0,0,0-7.66-1.07,21.07,21.07,0,0,0-7.66,1.18,9.4,9.4,0,0,0-4.39,3.16,7.58,7.58,0,0,0-1.38,4.43,6.07,6.07,0,0,0,1.86,4.66,13.14,13.14,0,0,0,4.82,2.76,62.45,62.45,0,0,0,6.51,1.86q3.55.82,7.15,1.86a30.65,30.65,0,0,1,6.56,2.68,13.63,13.63,0,0,1,4.78,4.42,12.76,12.76,0,0,1,1.81,7.11,14.14,14.14,0,0,1-2.29,7.78,15.78,15.78,0,0,1-7.07,5.77A29.1,29.1,0,0,1,1099.59,507.12Z" transform="translate(-5.49 -11.22)"></path><path class="cls-1" d="M168.42,594.36V539.07h7.9v48.42h29.93v6.87Z" transform="translate(-5.49 -11.22)"></path><path class="cls-1" d="M243.62,595a31.76,31.76,0,0,1-11.73-2.13,28,28,0,0,1-9.36-6,27.47,27.47,0,0,1-6.16-9,29.44,29.44,0,0,1,0-22.43,27.26,27.26,0,0,1,6.16-9,28.14,28.14,0,0,1,9.32-6,31.44,31.44,0,0,1,11.77-2.14,31.83,31.83,0,0,1,11.69,2.1,27.57,27.57,0,0,1,9.32,5.92,27.06,27.06,0,0,1,6.12,9,30.25,30.25,0,0,1,0,22.55,27.21,27.21,0,0,1-6.12,9,27.73,27.73,0,0,1-9.32,5.92A31.83,31.83,0,0,1,243.62,595Zm0-7a22.34,22.34,0,0,0,8.49-1.58,20.1,20.1,0,0,0,6.79-4.46,20.67,20.67,0,0,0,4.51-6.75,21.69,21.69,0,0,0,1.62-8.46,21.06,21.06,0,0,0-6.13-15.16,19.93,19.93,0,0,0-6.79-4.51,23.82,23.82,0,0,0-17.06,0,20.29,20.29,0,0,0-6.83,4.51,21.1,21.1,0,0,0-4.55,6.75,21.37,21.37,0,0,0-1.62,8.41,21.69,21.69,0,0,0,1.62,8.46,20.55,20.55,0,0,0,11.38,11.21A22.54,22.54,0,0,0,243.62,588Z" transform="translate(-5.49 -11.22)"></path><path class="cls-1" d="M314.32,595a31.69,31.69,0,0,1-11.73-2.13,28,28,0,0,1-9.36-6,27.47,27.47,0,0,1-6.16-9,29.44,29.44,0,0,1,0-22.43,27.26,27.26,0,0,1,6.16-9,28.14,28.14,0,0,1,9.32-6,31.44,31.44,0,0,1,11.77-2.14,31.83,31.83,0,0,1,11.69,2.1,27.57,27.57,0,0,1,9.32,5.92,27.06,27.06,0,0,1,6.12,9,30.38,30.38,0,0,1,0,22.55,27.21,27.21,0,0,1-6.12,9A27.73,27.73,0,0,1,326,592.9,31.83,31.83,0,0,1,314.32,595Zm0-7a22.34,22.34,0,0,0,8.49-1.58,20.1,20.1,0,0,0,6.79-4.46,20.67,20.67,0,0,0,4.51-6.75,21.87,21.87,0,0,0,1.62-8.46,21.55,21.55,0,0,0-1.62-8.41,21.32,21.32,0,0,0-4.51-6.75,19.93,19.93,0,0,0-6.79-4.51,23.82,23.82,0,0,0-17.06,0,20.43,20.43,0,0,0-6.84,4.51,20.92,20.92,0,0,0-6.16,15.16,21.69,21.69,0,0,0,1.62,8.46,20.47,20.47,0,0,0,11.38,11.21A22.5,22.5,0,0,0,314.32,588Z" transform="translate(-5.49 -11.22)"></path><path class="cls-1" d="M360.06,594.36V539.07H368v55.29ZM367,581l-.4-9.64L398,539.07h9l-24.25,25.59-4.43,4.9Zm32.23,13.35L376.57,568l5.29-5.85,26.62,32.23Z" transform="translate(-5.49 -11.22)"></path><path class="cls-1" d="M436.13,595A37.71,37.71,0,0,1,424,593.06a24.59,24.59,0,0,1-9.08-5l2.92-6.16a25.58,25.58,0,0,0,8.06,4.58,29.07,29.07,0,0,0,10.19,1.82,23,23,0,0,0,7.82-1.11,9.23,9.23,0,0,0,4.42-3,7.2,7.2,0,0,0,1.42-4.38,6,6,0,0,0-1.85-4.58,13.82,13.82,0,0,0-4.82-2.81,54.69,54.69,0,0,0-6.52-1.86q-3.56-.78-7.15-1.85a31.79,31.79,0,0,1-6.56-2.73,13.35,13.35,0,0,1-4.77-4.46,13,13,0,0,1-1.82-7.23,14.55,14.55,0,0,1,2.25-7.86,15.62,15.62,0,0,1,6.95-5.76,28.55,28.55,0,0,1,12-2.18A37.1,37.1,0,0,1,447,539.7a26.58,26.58,0,0,1,8.21,3.63l-2.6,6.32a25.72,25.72,0,0,0-7.51-3.44,29.36,29.36,0,0,0-7.66-1.06,21.07,21.07,0,0,0-7.66,1.18,9.35,9.35,0,0,0-4.39,3.16,7.55,7.55,0,0,0-1.38,4.43,6.09,6.09,0,0,0,1.86,4.66,13.17,13.17,0,0,0,4.81,2.76,63.38,63.38,0,0,0,6.52,1.86q3.56.82,7.15,1.85a30.67,30.67,0,0,1,6.56,2.69,13.71,13.71,0,0,1,4.78,4.42,12.76,12.76,0,0,1,1.81,7.11,14.17,14.17,0,0,1-2.29,7.78,15.83,15.83,0,0,1-7.07,5.77A29.1,29.1,0,0,1,436.13,595Z" transform="translate(-5.49 -11.22)"></path><path class="cls-1" d="M499,594.36V539.07h23.31a33.6,33.6,0,0,1,15.6,3.47,25.7,25.7,0,0,1,10.5,9.72,29.67,29.67,0,0,1,0,28.91,25.7,25.7,0,0,1-10.5,9.72,33.73,33.73,0,0,1-15.6,3.47Zm7.9-6.87h14.93a25.44,25.44,0,0,0,11.89-2.61,18.88,18.88,0,0,0,7.78-7.31,22.75,22.75,0,0,0,0-21.76,19,19,0,0,0-7.78-7.27,25.56,25.56,0,0,0-11.89-2.6H506.9Z" transform="translate(-5.49 -11.22)"></path><path class="cls-1" d="M559.43,594.36l25-55.29h7.82l25.13,55.29h-8.3l-22.35-50.87h3.16l-22.36,50.87Zm10.67-13.82,2.13-6.32h31.12l2.29,6.32Z" transform="translate(-5.49 -11.22)"></path><path class="cls-1" d="M646.09,595A37.8,37.8,0,0,1,634,593.06a24.67,24.67,0,0,1-9.08-5l2.92-6.16a25.69,25.69,0,0,0,8.06,4.58,29.07,29.07,0,0,0,10.19,1.82,23,23,0,0,0,7.82-1.11,9.18,9.18,0,0,0,4.42-3,7.2,7.2,0,0,0,1.43-4.38,6,6,0,0,0-1.86-4.58,13.73,13.73,0,0,0-4.82-2.81,54.16,54.16,0,0,0-6.52-1.86q-3.55-.78-7.15-1.85a31.7,31.7,0,0,1-6.55-2.73,13.29,13.29,0,0,1-4.78-4.46,13.09,13.09,0,0,1-1.82-7.23,14.55,14.55,0,0,1,2.25-7.86,15.62,15.62,0,0,1,7-5.76,28.62,28.62,0,0,1,12-2.18A37.1,37.1,0,0,1,657,539.7a26.63,26.63,0,0,1,8.22,3.63l-2.61,6.32a25.66,25.66,0,0,0-7.5-3.44,29.44,29.44,0,0,0-7.67-1.06,21.07,21.07,0,0,0-7.66,1.18,9.37,9.37,0,0,0-4.38,3.16,7.49,7.49,0,0,0-1.39,4.43,6.09,6.09,0,0,0,1.86,4.66,13.22,13.22,0,0,0,4.82,2.76,62.66,62.66,0,0,0,6.52,1.86c2.36.55,4.75,1.17,7.14,1.85a30.45,30.45,0,0,1,6.56,2.69,13.54,13.54,0,0,1,4.78,4.42,12.76,12.76,0,0,1,1.82,7.11,14.25,14.25,0,0,1-2.29,7.78,15.89,15.89,0,0,1-7.07,5.77A29.18,29.18,0,0,1,646.09,595Z" transform="translate(-5.49 -11.22)"></path><path class="cls-1" d="M709,594.36V539.07h6.47L752,584.49h-3.4V539.07h7.9v55.29H750l-36.57-45.42h3.4v45.42Z" transform="translate(-5.49 -11.22)"></path><path class="cls-1" d="M802.42,595a31.69,31.69,0,0,1-11.73-2.13,28,28,0,0,1-9.36-6,27.65,27.65,0,0,1-6.17-9,29.56,29.56,0,0,1,0-22.43,27.44,27.44,0,0,1,6.17-9,28,28,0,0,1,9.32-6,31.44,31.44,0,0,1,11.77-2.14,31.83,31.83,0,0,1,11.69,2.1,27.57,27.57,0,0,1,9.32,5.92,27.06,27.06,0,0,1,6.12,9,30.38,30.38,0,0,1,0,22.55,27.21,27.21,0,0,1-6.12,9,27.73,27.73,0,0,1-9.32,5.92A31.83,31.83,0,0,1,802.42,595Zm0-7a22.34,22.34,0,0,0,8.49-1.58,20.1,20.1,0,0,0,6.79-4.46,20.8,20.8,0,0,0,4.5-6.75,21.69,21.69,0,0,0,1.62-8.46,21.11,21.11,0,0,0-6.12-15.16,19.93,19.93,0,0,0-6.79-4.51,23.82,23.82,0,0,0-17.06,0,20.43,20.43,0,0,0-6.84,4.51,21.07,21.07,0,0,0-4.54,6.75,21.37,21.37,0,0,0-1.62,8.41,21.69,21.69,0,0,0,1.62,8.46,20.47,20.47,0,0,0,11.38,11.21A22.5,22.5,0,0,0,802.42,588Z" transform="translate(-5.49 -11.22)"></path><path class="cls-1" d="M864.27,595a37.75,37.75,0,0,1-12.09-1.93,24.67,24.67,0,0,1-9.08-5l2.92-6.16a25.69,25.69,0,0,0,8.06,4.58,29.07,29.07,0,0,0,10.19,1.82,23,23,0,0,0,7.82-1.11,9.23,9.23,0,0,0,4.42-3,7.2,7.2,0,0,0,1.42-4.38,6,6,0,0,0-1.85-4.58,13.82,13.82,0,0,0-4.82-2.81,54.69,54.69,0,0,0-6.52-1.86q-3.56-.78-7.15-1.85a31.7,31.7,0,0,1-6.55-2.73,13.29,13.29,0,0,1-4.78-4.46,13.09,13.09,0,0,1-1.82-7.23,14.55,14.55,0,0,1,2.25-7.86,15.62,15.62,0,0,1,6.95-5.76,28.62,28.62,0,0,1,12-2.18,37.1,37.1,0,0,1,9.56,1.27,26.47,26.47,0,0,1,8.21,3.63l-2.6,6.32a25.6,25.6,0,0,0-7.51-3.44,29.31,29.31,0,0,0-7.66-1.06,21.07,21.07,0,0,0-7.66,1.18,9.4,9.4,0,0,0-4.39,3.16,7.55,7.55,0,0,0-1.38,4.43,6.09,6.09,0,0,0,1.86,4.66,13.14,13.14,0,0,0,4.82,2.76,62.45,62.45,0,0,0,6.51,1.86c2.37.55,4.76,1.17,7.15,1.85a30.67,30.67,0,0,1,6.56,2.69,13.63,13.63,0,0,1,4.78,4.42,12.76,12.76,0,0,1,1.82,7.11,14.18,14.18,0,0,1-2.3,7.78,15.78,15.78,0,0,1-7.07,5.77A29.1,29.1,0,0,1,864.27,595Z" transform="translate(-5.49 -11.22)"></path><path class="cls-1" d="M917.67,595a37.71,37.71,0,0,1-12.09-1.93,24.67,24.67,0,0,1-9.08-5l2.92-6.16a25.58,25.58,0,0,0,8.06,4.58,29.07,29.07,0,0,0,10.19,1.82,23,23,0,0,0,7.82-1.11,9.23,9.23,0,0,0,4.42-3,7.2,7.2,0,0,0,1.42-4.38,6,6,0,0,0-1.85-4.58,13.82,13.82,0,0,0-4.82-2.81,54.69,54.69,0,0,0-6.52-1.86q-3.55-.78-7.15-1.85a31.79,31.79,0,0,1-6.56-2.73,13.35,13.35,0,0,1-4.77-4.46,13,13,0,0,1-1.82-7.23,14.55,14.55,0,0,1,2.25-7.86,15.62,15.62,0,0,1,6.95-5.76,28.55,28.55,0,0,1,12-2.18,37.1,37.1,0,0,1,9.56,1.27,26.47,26.47,0,0,1,8.21,3.63l-2.6,6.32a25.72,25.72,0,0,0-7.51-3.44,29.36,29.36,0,0,0-7.66-1.06,21.07,21.07,0,0,0-7.66,1.18,9.4,9.4,0,0,0-4.39,3.16,7.55,7.55,0,0,0-1.38,4.43,6.09,6.09,0,0,0,1.86,4.66,13.14,13.14,0,0,0,4.82,2.76,62.45,62.45,0,0,0,6.51,1.86q3.56.82,7.15,1.85a30.67,30.67,0,0,1,6.56,2.69,13.71,13.71,0,0,1,4.78,4.42,12.76,12.76,0,0,1,1.81,7.11,14.17,14.17,0,0,1-2.29,7.78,15.83,15.83,0,0,1-7.07,5.77A29.1,29.1,0,0,1,917.67,595Z" transform="translate(-5.49 -11.22)"></path><path class="cls-1" d="M946.58,594.36l25-55.29h7.82l25.12,55.29h-8.3l-22.35-50.87h3.16l-22.36,50.87Zm10.66-13.82,2.13-6.32H990.5l2.29,6.32Z" transform="translate(-5.49 -11.22)"></path><path class="cls-1" d="M1033.23,595a37.69,37.69,0,0,1-12.08-1.93,24.64,24.64,0,0,1-9.09-5l2.92-6.16a25.8,25.8,0,0,0,8.06,4.58,29.11,29.11,0,0,0,10.19,1.82,23,23,0,0,0,7.82-1.11,9.26,9.26,0,0,0,4.43-3,7.26,7.26,0,0,0,1.42-4.38,6,6,0,0,0-1.86-4.58,13.73,13.73,0,0,0-4.82-2.81,54,54,0,0,0-6.51-1.86c-2.37-.52-4.76-1.14-7.15-1.85a31.79,31.79,0,0,1-6.56-2.73,13.38,13.38,0,0,1-4.78-4.46,13.09,13.09,0,0,1-1.81-7.23,14.55,14.55,0,0,1,2.25-7.86,15.57,15.57,0,0,1,7-5.76,28.55,28.55,0,0,1,12-2.18,37,37,0,0,1,9.55,1.27,26.63,26.63,0,0,1,8.22,3.63l-2.61,6.32a25.66,25.66,0,0,0-7.5-3.44,29.42,29.42,0,0,0-7.66-1.06,21.13,21.13,0,0,0-7.67,1.18,9.37,9.37,0,0,0-4.38,3.16,7.55,7.55,0,0,0-1.38,4.43,6.12,6.12,0,0,0,1.85,4.66,13.31,13.31,0,0,0,4.82,2.76,63.38,63.38,0,0,0,6.52,1.86q3.56.82,7.15,1.85a30.58,30.58,0,0,1,6.55,2.69,13.54,13.54,0,0,1,4.78,4.42,12.76,12.76,0,0,1,1.82,7.11,14.17,14.17,0,0,1-2.29,7.78,15.83,15.83,0,0,1-7.07,5.77A29.15,29.15,0,0,1,1033.23,595Z" transform="translate(-5.49 -11.22)"></path><path class="cls-1" d="M116.16,682.86a31.54,31.54,0,0,1-11.65-2.09,27.35,27.35,0,0,1-9.24-5.93,27.67,27.67,0,0,1-6.12-9,30,30,0,0,1,0-22.59,27.46,27.46,0,0,1,15.44-14.89,33.22,33.22,0,0,1,23.46.08,24.14,24.14,0,0,1,9.21,6.43l-5.14,5A20.62,20.62,0,0,0,125,635a22,22,0,0,0-8.45-1.62,23.34,23.34,0,0,0-8.65,1.58,20.7,20.7,0,0,0-6.91,4.43,19.7,19.7,0,0,0-4.54,6.75,23.06,23.06,0,0,0,0,17,19.83,19.83,0,0,0,4.54,6.76,20.67,20.67,0,0,0,6.91,4.42,23.14,23.14,0,0,0,8.65,1.58,22,22,0,0,0,8.45-1.62,20.18,20.18,0,0,0,7.11-5l5.14,5a24.48,24.48,0,0,1-9.21,6.48A31,31,0,0,1,116.16,682.86Z" transform="translate(-5.49 -11.22)"></path><path class="cls-1" d="M160.79,675.36H193v6.87H152.9V626.94h39v6.87H160.79Zm-.71-24.57h28.44v6.72H160.08Z" transform="translate(-5.49 -11.22)"></path><path class="cls-1" d="M210.17,682.23V626.94h7.9v48.42H248v6.87Z" transform="translate(-5.49 -11.22)"></path><path class="cls-1" d="M269.33,675.36h32.23v6.87H261.43V626.94h39v6.87H269.33Zm-.71-24.57h28.44v6.72H268.62Z" transform="translate(-5.49 -11.22)"></path><path class="cls-1" d="M318.7,682.23V626.94h24.81q9.56,0,14.69,3.83a12.35,12.35,0,0,1,5.13,10.46,13.63,13.63,0,0,1-2,7.59,13.38,13.38,0,0,1-5.41,4.74,16.63,16.63,0,0,1-7.35,1.65l1.42-2.37a20.12,20.12,0,0,1,8.38,1.66,13.56,13.56,0,0,1,5.76,4.86,13.94,13.94,0,0,1,2.14,7.94,12.87,12.87,0,0,1-5.34,11q-5.32,3.91-15.83,3.91Zm7.9-6.4h18.17q6.56,0,10-2.21t3.48-7c0-3.21-1.16-5.56-3.48-7s-5.66-2.21-10-2.21H325.89V651H342.8q6,0,9.32-2.21a8.32,8.32,0,0,0,0-13.28q-3.31-2.2-9.32-2.21H326.6Z" transform="translate(-5.49 -11.22)"></path><path class="cls-1" d="M399,682.86a37.8,37.8,0,0,1-12.09-1.93,24.81,24.81,0,0,1-9.08-5l2.92-6.16a25.69,25.69,0,0,0,8.06,4.58A29.07,29.07,0,0,0,399,676.15a23,23,0,0,0,7.82-1.11,9.18,9.18,0,0,0,4.42-3,7.2,7.2,0,0,0,1.43-4.38,6,6,0,0,0-1.86-4.58,13.73,13.73,0,0,0-4.82-2.81,54.16,54.16,0,0,0-6.52-1.86q-3.56-.78-7.15-1.85a31.7,31.7,0,0,1-6.55-2.73,13.29,13.29,0,0,1-4.78-4.46,13.09,13.09,0,0,1-1.82-7.23,14.55,14.55,0,0,1,2.25-7.86,15.62,15.62,0,0,1,6.95-5.76,28.62,28.62,0,0,1,12-2.18,37.1,37.1,0,0,1,9.56,1.27,26.63,26.63,0,0,1,8.22,3.63l-2.61,6.32a25.34,25.34,0,0,0-7.51-3.44A29.31,29.31,0,0,0,400.3,633a21.07,21.07,0,0,0-7.66,1.18,9.37,9.37,0,0,0-4.38,3.16,7.49,7.49,0,0,0-1.39,4.43,6.09,6.09,0,0,0,1.86,4.66,13.22,13.22,0,0,0,4.82,2.76,65.22,65.22,0,0,0,6.52,1.86c2.36.55,4.75,1.17,7.14,1.85a30.45,30.45,0,0,1,6.56,2.69,13.54,13.54,0,0,1,4.78,4.42,12.76,12.76,0,0,1,1.82,7.11,14.25,14.25,0,0,1-2.29,7.78,15.89,15.89,0,0,1-7.07,5.77A29.18,29.18,0,0,1,399,682.86Z" transform="translate(-5.49 -11.22)"></path><path class="cls-1" d="M433.71,693.92l4-16,1,4.59a5.43,5.43,0,0,1-3.83-1.43,5,5,0,0,1-1.54-3.87,5.2,5.2,0,0,1,5.29-5.37,4.86,4.86,0,0,1,3.72,1.54,5.48,5.48,0,0,1,1.42,3.83,9.7,9.7,0,0,1-.12,1.54,14.38,14.38,0,0,1-.4,1.74,25.18,25.18,0,0,1-.83,2.41l-3.71,11Z" transform="translate(-5.49 -11.22)"></path><path class="cls-1" d="M485.69,682.23V626.94h6.48L517,668.72H513.5L538,626.94h6.47l.08,55.29H537l-.08-43.37h1.82l-21.81,36.66h-3.63l-22-36.66h2v43.37Z" transform="translate(-5.49 -11.22)"></path><path class="cls-1" d="M557.1,682.23l25-55.29H590l25.12,55.29h-8.29l-22.36-50.87h3.16l-22.35,50.87Zm10.67-13.82,2.13-6.32H601l2.29,6.32Z" transform="translate(-5.49 -11.22)"></path><path class="cls-1" d="M643.76,682.86a37.75,37.75,0,0,1-12.09-1.93,24.81,24.81,0,0,1-9.08-5l2.92-6.16a25.69,25.69,0,0,0,8.06,4.58,29.07,29.07,0,0,0,10.19,1.82,23,23,0,0,0,7.82-1.11,9.23,9.23,0,0,0,4.42-3,7.2,7.2,0,0,0,1.42-4.38,6,6,0,0,0-1.85-4.58,13.82,13.82,0,0,0-4.82-2.81,54.69,54.69,0,0,0-6.52-1.86q-3.56-.78-7.15-1.85a31.47,31.47,0,0,1-6.55-2.73,13.29,13.29,0,0,1-4.78-4.46,13,13,0,0,1-1.82-7.23,14.55,14.55,0,0,1,2.25-7.86,15.62,15.62,0,0,1,7-5.76,28.59,28.59,0,0,1,12-2.18,37.1,37.1,0,0,1,9.56,1.27,26.47,26.47,0,0,1,8.21,3.63l-2.6,6.32a25.46,25.46,0,0,0-7.51-3.44A29.36,29.36,0,0,0,645.1,633a21.07,21.07,0,0,0-7.66,1.18,9.4,9.4,0,0,0-4.39,3.16,7.55,7.55,0,0,0-1.38,4.43,6.09,6.09,0,0,0,1.86,4.66,13.14,13.14,0,0,0,4.82,2.76,65,65,0,0,0,6.51,1.86c2.37.55,4.76,1.17,7.15,1.85a30.67,30.67,0,0,1,6.56,2.69,13.63,13.63,0,0,1,4.78,4.42,12.76,12.76,0,0,1,1.81,7.11,14.17,14.17,0,0,1-2.29,7.78,15.78,15.78,0,0,1-7.07,5.77A29.1,29.1,0,0,1,643.76,682.86Z" transform="translate(-5.49 -11.22)"></path><path class="cls-1" d="M722.75,682.86a37.8,37.8,0,0,1-12.09-1.93,24.81,24.81,0,0,1-9.08-5l2.92-6.16a25.69,25.69,0,0,0,8.06,4.58,29.07,29.07,0,0,0,10.19,1.82,23,23,0,0,0,7.82-1.11,9.18,9.18,0,0,0,4.42-3,7.2,7.2,0,0,0,1.43-4.38,6,6,0,0,0-1.86-4.58,13.73,13.73,0,0,0-4.82-2.81,54.16,54.16,0,0,0-6.52-1.86q-3.56-.78-7.15-1.85a31.7,31.7,0,0,1-6.55-2.73,13.29,13.29,0,0,1-4.78-4.46,13.09,13.09,0,0,1-1.82-7.23,14.55,14.55,0,0,1,2.25-7.86,15.62,15.62,0,0,1,7-5.76,28.62,28.62,0,0,1,12-2.18,37.1,37.1,0,0,1,9.56,1.27,26.63,26.63,0,0,1,8.22,3.63l-2.61,6.32a25.4,25.4,0,0,0-7.5-3.44,29.44,29.44,0,0,0-7.67-1.06,21.07,21.07,0,0,0-7.66,1.18,9.37,9.37,0,0,0-4.38,3.16,7.49,7.49,0,0,0-1.39,4.43,6.09,6.09,0,0,0,1.86,4.66,13.22,13.22,0,0,0,4.82,2.76,65.22,65.22,0,0,0,6.52,1.86q3.55.82,7.14,1.85a30.45,30.45,0,0,1,6.56,2.69,13.54,13.54,0,0,1,4.78,4.42,12.76,12.76,0,0,1,1.82,7.11,14.25,14.25,0,0,1-2.29,7.78,15.89,15.89,0,0,1-7.07,5.77A29.18,29.18,0,0,1,722.75,682.86Z" transform="translate(-5.49 -11.22)"></path><path class="cls-1" d="M751.66,682.23l25-55.29h7.82l25.12,55.29h-8.29L779,631.36h3.16L759.8,682.23Zm10.66-13.82,2.14-6.32h31.12l2.29,6.32Z" transform="translate(-5.49 -11.22)"></path><path class="cls-1" d="M822.2,682.23V626.94H847q9.56,0,14.69,3.83a12.35,12.35,0,0,1,5.13,10.46,13.63,13.63,0,0,1-2,7.59,13.38,13.38,0,0,1-5.41,4.74,16.63,16.63,0,0,1-7.35,1.65l1.42-2.37a20.12,20.12,0,0,1,8.38,1.66,13.56,13.56,0,0,1,5.76,4.86,13.94,13.94,0,0,1,2.14,7.94,12.87,12.87,0,0,1-5.34,11q-5.32,3.91-15.83,3.91Zm7.9-6.4h18.17q6.56,0,10-2.21t3.48-7c0-3.21-1.16-5.56-3.48-7s-5.66-2.21-10-2.21H829.39V651H846.3c4,0,7.1-.74,9.32-2.21a8.32,8.32,0,0,0,0-13.28c-2.22-1.47-5.32-2.21-9.32-2.21H830.1Z" transform="translate(-5.49 -11.22)"></path><path class="cls-1" d="M894.24,675.36h32.23v6.87H886.34V626.94h39v6.87H894.24Zm-.71-24.57H922v6.72H893.53Z" transform="translate(-5.49 -11.22)"></path><path class="cls-1" d="M943.61,682.23V626.94h6.48l24.81,41.78h-3.48l24.49-41.78h6.48l.07,55.29h-7.58l-.08-43.37h1.82l-21.8,36.66h-3.64l-22-36.66h2v43.37Z" transform="translate(-5.49 -11.22)"></path><path class="cls-1" d="M1048.36,682.86a31.69,31.69,0,0,1-11.73-2.13,28,28,0,0,1-9.36-6,27.47,27.47,0,0,1-6.16-9,29.44,29.44,0,0,1,0-22.43,27.26,27.26,0,0,1,6.16-9,28.14,28.14,0,0,1,9.32-6,31.44,31.44,0,0,1,11.77-2.14,31.83,31.83,0,0,1,11.69,2.1,27.57,27.57,0,0,1,9.32,5.92,27.06,27.06,0,0,1,6.12,9,30.25,30.25,0,0,1,0,22.55,27.06,27.06,0,0,1-6.12,9,27.6,27.6,0,0,1-9.32,5.93A31.83,31.83,0,0,1,1048.36,682.86Zm0-7a22.34,22.34,0,0,0,8.49-1.58,20.1,20.1,0,0,0,6.79-4.46,20.67,20.67,0,0,0,4.51-6.75,21.69,21.69,0,0,0,1.62-8.46,21.06,21.06,0,0,0-6.13-15.16,19.93,19.93,0,0,0-6.79-4.51,23.82,23.82,0,0,0-17.06,0,20.43,20.43,0,0,0-6.84,4.51,21.12,21.12,0,0,0-4.54,6.75,21.37,21.37,0,0,0-1.62,8.41,21.69,21.69,0,0,0,1.62,8.46,20.47,20.47,0,0,0,11.38,11.21A22.5,22.5,0,0,0,1048.36,675.83Z" transform="translate(-5.49 -11.22)"></path><path class="cls-1" d="M1110.21,682.86a37.8,37.8,0,0,1-12.09-1.93,24.81,24.81,0,0,1-9.08-5l2.92-6.16a25.69,25.69,0,0,0,8.06,4.58,29.07,29.07,0,0,0,10.19,1.82A23,23,0,0,0,1118,675a9.18,9.18,0,0,0,4.42-3,7.2,7.2,0,0,0,1.43-4.38A6,6,0,0,0,1122,663a13.73,13.73,0,0,0-4.82-2.81,54.16,54.16,0,0,0-6.52-1.86q-3.56-.78-7.14-1.85a31.56,31.56,0,0,1-6.56-2.73,13.29,13.29,0,0,1-4.78-4.46,13.09,13.09,0,0,1-1.82-7.23,14.55,14.55,0,0,1,2.25-7.86,15.65,15.65,0,0,1,7-5.76,28.54,28.54,0,0,1,12-2.18,37,37,0,0,1,9.56,1.27,26.63,26.63,0,0,1,8.22,3.63l-2.61,6.32a25.4,25.4,0,0,0-7.5-3.44,29.44,29.44,0,0,0-7.67-1.06,21.11,21.11,0,0,0-7.66,1.18,9.37,9.37,0,0,0-4.38,3.16,7.49,7.49,0,0,0-1.39,4.43,6.09,6.09,0,0,0,1.86,4.66,13.22,13.22,0,0,0,4.82,2.76,65.22,65.22,0,0,0,6.52,1.86q3.56.82,7.15,1.85a30.58,30.58,0,0,1,6.55,2.69,13.54,13.54,0,0,1,4.78,4.42,12.76,12.76,0,0,1,1.82,7.11,14.25,14.25,0,0,1-2.29,7.78,15.89,15.89,0,0,1-7.07,5.77A29.15,29.15,0,0,1,1110.21,682.86Z" transform="translate(-5.49 -11.22)"></path><path class="cls-1" d="M52.37,770.73a31.76,31.76,0,0,1-11.73-2.13,28.21,28.21,0,0,1-9.36-6,27.62,27.62,0,0,1-6.16-9,29.56,29.56,0,0,1,0-22.43,27.41,27.41,0,0,1,6.16-9,28.24,28.24,0,0,1,9.32-6,31.47,31.47,0,0,1,11.77-2.14,31.8,31.8,0,0,1,11.69,2.1,27.62,27.62,0,0,1,9.33,5.92,27.06,27.06,0,0,1,6.12,9,30.38,30.38,0,0,1,0,22.55,27.06,27.06,0,0,1-6.12,9,27.64,27.64,0,0,1-9.33,5.93A32,32,0,0,1,52.37,770.73Zm0-7a22.36,22.36,0,0,0,8.5-1.58,19.86,19.86,0,0,0,6.79-4.5,21.29,21.29,0,0,0,6.12-15.17A21.68,21.68,0,0,0,72.16,734a20.8,20.8,0,0,0-4.5-6.75,20.22,20.22,0,0,0-6.79-4.47,23.84,23.84,0,0,0-17.07,0A20.69,20.69,0,0,0,37,727.25,20.44,20.44,0,0,0,32.43,734a22.67,22.67,0,0,0,0,16.83A20.92,20.92,0,0,0,37,757.62a20.31,20.31,0,0,0,6.83,4.5A22.57,22.57,0,0,0,52.37,763.7Zm18.09,17.93a20.45,20.45,0,0,1-5.29-.67,20.81,20.81,0,0,1-5.05-2.13A34.46,34.46,0,0,1,54.9,775a78.69,78.69,0,0,1-5.84-5.73l8.45-2.21a36.6,36.6,0,0,0,4.54,4.78,15.21,15.21,0,0,0,4.31,2.68,11.52,11.52,0,0,0,4.26.83,12.93,12.93,0,0,0,10-4.74l3.72,4.51A17.26,17.26,0,0,1,70.46,781.63Z" transform="translate(-5.49 -11.22)"></path><path class="cls-1" d="M121,770.73q-10.9,0-17.14-6.24t-6.24-18.25V714.8h7.9v31.13q0,9.24,4.06,13.51t11.5,4.26q7.5,0,11.57-4.26t4.07-13.51V714.8h7.66v31.44q0,12-6.2,18.25T121,770.73Z" transform="translate(-5.49 -11.22)"></path><path class="cls-1" d="M172.84,763.23h32.23v6.87H164.94V714.8h39v6.88H172.84Zm-.71-24.57h28.43v6.72H172.13Z" transform="translate(-5.49 -11.22)"></path><path class="cls-1" d="M247.8,770.1V714.8h6.48l36.57,45.43h-3.39V714.8h7.9v55.3h-6.48l-36.57-45.42h3.39V770.1Z" transform="translate(-5.49 -11.22)"></path><path class="cls-1" d="M307.92,770.1l25-55.3h7.82l25.12,55.3h-8.3l-22.35-50.87h3.16L316.05,770.1Zm10.66-13.82,2.13-6.32h31.13l2.29,6.32Zm23.86-46.22a6.89,6.89,0,0,1-3.36-.79,13.21,13.21,0,0,1-2.65-1.85,26.79,26.79,0,0,0-2.29-1.86,3.83,3.83,0,0,0-2.21-.79,3.44,3.44,0,0,0-2.8,1.31,6.22,6.22,0,0,0-1.23,3.59h-4.26a11.72,11.72,0,0,1,2.21-7,6.67,6.67,0,0,1,5.53-2.61,6.92,6.92,0,0,1,3.39.83,14.88,14.88,0,0,1,2.69,1.9c.79.71,1.54,1.33,2.25,1.85a3.64,3.64,0,0,0,5-.47,5.43,5.43,0,0,0,1.18-3.48h4.27a10.94,10.94,0,0,1-2.17,6.8A6.79,6.79,0,0,1,342.44,710.06Z" transform="translate(-5.49 -11.22)"></path><path class="cls-1" d="M402.63,770.73a31.76,31.76,0,0,1-11.73-2.13,28,28,0,0,1-9.36-6,27.62,27.62,0,0,1-6.16-9,29.56,29.56,0,0,1,0-22.43,27.41,27.41,0,0,1,6.16-9,28.14,28.14,0,0,1,9.32-6,31.44,31.44,0,0,1,11.77-2.14,31.83,31.83,0,0,1,11.69,2.1,27.57,27.57,0,0,1,9.32,5.92,26.77,26.77,0,0,1,6.12,9,30.25,30.25,0,0,1,0,22.55,26.77,26.77,0,0,1-6.12,9,27.6,27.6,0,0,1-9.32,5.93A32,32,0,0,1,402.63,770.73Zm0-7a22.31,22.31,0,0,0,8.49-1.58,20.24,20.24,0,0,0,6.8-4.46,20.73,20.73,0,0,0,4.5-6.76,21.61,21.61,0,0,0,1.62-8.45,21.11,21.11,0,0,0-6.12-15.16,20.07,20.07,0,0,0-6.8-4.51,22.5,22.5,0,0,0-8.49-1.58,22.73,22.73,0,0,0-8.57,1.58,20.29,20.29,0,0,0-6.83,4.51,21,21,0,0,0-4.55,6.75,21.37,21.37,0,0,0-1.62,8.41,21.61,21.61,0,0,0,1.62,8.45,20.52,20.52,0,0,0,11.38,11.22A22.54,22.54,0,0,0,402.63,763.7Z" transform="translate(-5.49 -11.22)"></path><path class="cls-1" d="M465.59,770.1l25-55.3h7.82l25.12,55.3h-8.3l-22.35-50.87h3.16L473.72,770.1Zm10.66-13.82,2.13-6.32h31.13l2.29,6.32Z" transform="translate(-5.49 -11.22)"></path><path class="cls-1" d="M536.13,770.1V714.8h23.3a33.57,33.57,0,0,1,15.6,3.48A25.66,25.66,0,0,1,585.54,728a29.73,29.73,0,0,1,0,28.91A25.57,25.57,0,0,1,575,766.62a33.57,33.57,0,0,1-15.6,3.48Zm7.9-6.87H559a25.46,25.46,0,0,0,11.89-2.61,19,19,0,0,0,7.78-7.31,22.82,22.82,0,0,0,0-21.76,19.1,19.1,0,0,0-7.78-7.27,25.59,25.59,0,0,0-11.89-2.6H544Z" transform="translate(-5.49 -11.22)"></path><path class="cls-1" d="M605.72,770.1V714.8h7.9v55.3Z" transform="translate(-5.49 -11.22)"></path><path class="cls-1" d="M626.18,770.1l25-55.3H659l25.12,55.3h-8.29l-22.36-50.87h3.16L634.32,770.1Zm10.67-13.82L639,750H670.1l2.29,6.32Z" transform="translate(-5.49 -11.22)"></path><path class="cls-1" d="M696.72,770.1V714.8h6.48l36.57,45.43h-3.39V714.8h7.9v55.3H737.8l-36.58-45.42h3.4V770.1Z" transform="translate(-5.49 -11.22)"></path><path class="cls-1" d="M776.19,770.1V721.68h-19V714.8H803v6.88H784V770.1Z" transform="translate(-5.49 -11.22)"></path><path class="cls-1" d="M804.79,770.1l25-55.3h7.82l25.12,55.3h-8.3l-22.35-50.87h3.16L812.92,770.1Zm10.66-13.82,2.13-6.32h31.13l2.29,6.32Z" transform="translate(-5.49 -11.22)"></path><path class="cls-1" d="M916.88,770.1l-24.33-55.3h8.53l22.35,51h-4.89l22.51-51H949L924.7,770.1Z" transform="translate(-5.49 -11.22)"></path><path class="cls-1" d="M968.22,763.23h32.23v6.87H960.32V714.8h39v6.88H968.22Zm-.71-24.57H996v6.72H967.51Z" transform="translate(-5.49 -11.22)"></path><path class="cls-1" d="M1033.71,770.73a37.75,37.75,0,0,1-12.09-1.93,24.81,24.81,0,0,1-9.08-5l2.92-6.16a25.69,25.69,0,0,0,8.06,4.58,29.07,29.07,0,0,0,10.19,1.82,23,23,0,0,0,7.82-1.11,9.3,9.3,0,0,0,4.42-3,7.2,7.2,0,0,0,1.42-4.38,6,6,0,0,0-1.85-4.59,14,14,0,0,0-4.82-2.8,54.69,54.69,0,0,0-6.52-1.86q-3.56-.78-7.15-1.85a31.7,31.7,0,0,1-6.55-2.73,13.29,13.29,0,0,1-4.78-4.46,13.09,13.09,0,0,1-1.82-7.23,14.55,14.55,0,0,1,2.25-7.86,15.7,15.7,0,0,1,7-5.77,28.79,28.79,0,0,1,12-2.17,36.67,36.67,0,0,1,9.56,1.27,26.47,26.47,0,0,1,8.21,3.63l-2.6,6.32a25.34,25.34,0,0,0-7.51-3.44,29.31,29.31,0,0,0-7.66-1.06,21.07,21.07,0,0,0-7.66,1.18,9.46,9.46,0,0,0-4.39,3.16,7.55,7.55,0,0,0-1.38,4.43,6.09,6.09,0,0,0,1.86,4.66,13.22,13.22,0,0,0,4.82,2.76,65,65,0,0,0,6.51,1.86c2.37.55,4.76,1.17,7.15,1.85a30.67,30.67,0,0,1,6.56,2.69,13.54,13.54,0,0,1,4.78,4.42,12.76,12.76,0,0,1,1.82,7.11,14.18,14.18,0,0,1-2.3,7.78,15.8,15.8,0,0,1-7.06,5.77A29.18,29.18,0,0,1,1033.71,770.73Z" transform="translate(-5.49 -11.22)"></path><path class="cls-1" d="M1081.18,770.1V721.68h-19V714.8H1108v6.88h-19V770.1Z" transform="translate(-5.49 -11.22)"></path><path class="cls-1" d="M1120.92,770.1V714.8h7.89v55.3Z" transform="translate(-5.49 -11.22)"></path><path class="cls-1" d="M1149.75,770.1V714.8h21.56a30.32,30.32,0,0,1,12.41,2.3,17.54,17.54,0,0,1,7.9,6.63,18.91,18.91,0,0,1,2.76,10.35,18.7,18.7,0,0,1-2.76,10.31,17.65,17.65,0,0,1-7.9,6.59,30.32,30.32,0,0,1-12.41,2.29h-17.22l3.56-3.63V770.1Zm7.9-19.67-3.56-3.87h17q7.58,0,11.49-3.28t3.91-9.2q0-5.93-3.91-9.16t-11.49-3.24h-17l3.56-3.95Zm29.07,19.67L1172.66,750h8.45l14.22,20.06Z" transform="translate(-5.49 -11.22)"></path><path class="cls-1" d="M204.91,858l25-55.3h7.82L262.89,858H254.6L232.24,807.1h3.16L213.05,858Zm10.67-13.82,2.13-6.32h31.12l2.29,6.32Z" transform="translate(-5.49 -11.22)"></path><path class="cls-1" d="M275.45,858v-55.3h7.9V851.1h29.94V858Z" transform="translate(-5.49 -11.22)"></path><path class="cls-1" d="M350.66,858.6a32.24,32.24,0,0,1-11.77-2.09,27.44,27.44,0,0,1-15.49-14.89,30,30,0,0,1,0-22.59,27.22,27.22,0,0,1,6.2-9,28.23,28.23,0,0,1,9.36-5.93,34.78,34.78,0,0,1,23.86,0,23.92,23.92,0,0,1,9.24,6.4l-4.9,4.9a21.8,21.8,0,0,0-7.38-4.86,24,24,0,0,0-8.65-1.54,24.19,24.19,0,0,0-8.81,1.58,21.13,21.13,0,0,0-7,4.43,19.66,19.66,0,0,0-4.58,6.75,22,22,0,0,0-1.62,8.49,21.73,21.73,0,0,0,1.62,8.41,20.15,20.15,0,0,0,4.58,6.8,20.85,20.85,0,0,0,7,4.46,23.9,23.9,0,0,0,8.77,1.58,26.23,26.23,0,0,0,8.49-1.38,20.93,20.93,0,0,0,7.55-4.62l4.5,6a27.94,27.94,0,0,1-9.6,5.25A36.42,36.42,0,0,1,350.66,858.6ZM364,850.54V830h7.58v21.56Z" transform="translate(-5.49 -11.22)"></path><path class="cls-1" d="M416,858.6a31.76,31.76,0,0,1-11.73-2.13,27.88,27.88,0,0,1-9.36-6,27.47,27.47,0,0,1-6.16-9,29.59,29.59,0,0,1,0-22.44,27.47,27.47,0,0,1,6.16-9,28.16,28.16,0,0,1,9.32-6A31.67,31.67,0,0,1,416,802a32,32,0,0,1,11.69,2.09,27.75,27.75,0,0,1,9.32,5.93,26.9,26.9,0,0,1,6.13,9,30.4,30.4,0,0,1,0,22.56,26.94,26.94,0,0,1-6.13,9,27.6,27.6,0,0,1-9.32,5.93A32,32,0,0,1,416,858.6Zm0-7a22.46,22.46,0,0,0,8.49-1.58,20.24,20.24,0,0,0,6.8-4.46,20.84,20.84,0,0,0,4.5-6.76,21.64,21.64,0,0,0,1.62-8.45,21.15,21.15,0,0,0-6.12-15.17,20.19,20.19,0,0,0-6.8-4.5,22.46,22.46,0,0,0-8.49-1.58,22.73,22.73,0,0,0-8.57,1.58,20.52,20.52,0,0,0-6.83,4.5,21,21,0,0,0-4.54,6.76,21.37,21.37,0,0,0-1.62,8.41,21.64,21.64,0,0,0,1.62,8.45A20.47,20.47,0,0,0,407.41,850,22.73,22.73,0,0,0,416,851.57Z" transform="translate(-5.49 -11.22)"></path><path class="cls-1" d="M503.43,858.6a37.71,37.71,0,0,1-12.09-1.93,24.81,24.81,0,0,1-9.08-5l2.92-6.16a25.69,25.69,0,0,0,8.06,4.58,29.07,29.07,0,0,0,10.19,1.82,23,23,0,0,0,7.82-1.11,9.3,9.3,0,0,0,4.42-3,7.2,7.2,0,0,0,1.42-4.38,6,6,0,0,0-1.85-4.59,14,14,0,0,0-4.82-2.8,54.69,54.69,0,0,0-6.52-1.86q-3.56-.78-7.15-1.85a31.7,31.7,0,0,1-6.55-2.73,13.29,13.29,0,0,1-4.78-4.46,13.09,13.09,0,0,1-1.82-7.23,14.55,14.55,0,0,1,2.25-7.86,15.64,15.64,0,0,1,6.95-5.77,28.75,28.75,0,0,1,12-2.17,36.67,36.67,0,0,1,9.56,1.27,26.47,26.47,0,0,1,8.21,3.63l-2.6,6.32a25.34,25.34,0,0,0-7.51-3.44,29.31,29.31,0,0,0-7.66-1.06,21.07,21.07,0,0,0-7.66,1.18,9.4,9.4,0,0,0-4.39,3.16,7.55,7.55,0,0,0-1.38,4.42,6.09,6.09,0,0,0,1.86,4.67A13.28,13.28,0,0,0,498,825q3,1,6.51,1.86c2.37.55,4.76,1.17,7.15,1.85a30.67,30.67,0,0,1,6.56,2.69,13.54,13.54,0,0,1,4.78,4.42,12.76,12.76,0,0,1,1.81,7.11,14.17,14.17,0,0,1-2.29,7.78,15.78,15.78,0,0,1-7.07,5.77A29.1,29.1,0,0,1,503.43,858.6Z" transform="translate(-5.49 -11.22)"></path><path class="cls-1" d="M565.67,858.6a31.76,31.76,0,0,1-11.73-2.13,28.08,28.08,0,0,1-9.36-6,27.47,27.47,0,0,1-6.16-9,29.59,29.59,0,0,1,0-22.44,27.47,27.47,0,0,1,6.16-9,28.27,28.27,0,0,1,9.32-6A31.67,31.67,0,0,1,565.67,802a32,32,0,0,1,11.69,2.09,27.8,27.8,0,0,1,9.33,5.93,27,27,0,0,1,6.12,9,30.4,30.4,0,0,1,0,22.56,27.06,27.06,0,0,1-6.12,9,27.64,27.64,0,0,1-9.33,5.93A32,32,0,0,1,565.67,858.6Zm0-7a22.55,22.55,0,0,0,8.5-1.58,20.19,20.19,0,0,0,6.79-4.46,20.84,20.84,0,0,0,4.5-6.76,21.64,21.64,0,0,0,1.62-8.45A21.15,21.15,0,0,0,581,815.15a20.15,20.15,0,0,0-6.79-4.5,23.84,23.84,0,0,0-17.07,0,20.62,20.62,0,0,0-6.83,4.5,21,21,0,0,0-4.54,6.76,21.37,21.37,0,0,0-1.62,8.41,21.64,21.64,0,0,0,1.62,8.45A20.47,20.47,0,0,0,557.1,850,22.77,22.77,0,0,0,565.67,851.57Zm-5.92-53.4,10.74-10.27h9.64l-13.27,10.27Z" transform="translate(-5.49 -11.22)"></path><path class="cls-1" d="M637,858v-55.3h21.56A30.44,30.44,0,0,1,671,805a17.57,17.57,0,0,1,7.9,6.64A18.92,18.92,0,0,1,681.64,822a18.71,18.71,0,0,1-2.77,10.31,17.86,17.86,0,0,1-7.9,6.63,29.77,29.77,0,0,1-12.4,2.33H641.35l3.55-3.71V858Zm7.89-19.67-3.55-3.95h17q7.59,0,11.5-3.24t3.91-9.16q0-5.93-3.91-9.17t-11.5-3.23h-17l3.55-3.95Z" transform="translate(-5.49 -11.22)"></path><path class="cls-1" d="M723.34,858.6a31.76,31.76,0,0,1-11.73-2.13,28.08,28.08,0,0,1-9.36-6,27.47,27.47,0,0,1-6.16-9,29.59,29.59,0,0,1,0-22.44,27.47,27.47,0,0,1,6.16-9,28.27,28.27,0,0,1,9.32-6A31.67,31.67,0,0,1,723.34,802,32,32,0,0,1,735,804.13a27.8,27.8,0,0,1,9.33,5.93,27,27,0,0,1,6.12,9,30.4,30.4,0,0,1,0,22.56,27.06,27.06,0,0,1-6.12,9,27.64,27.64,0,0,1-9.33,5.93A32,32,0,0,1,723.34,858.6Zm0-7a22.55,22.55,0,0,0,8.5-1.58,20.19,20.19,0,0,0,6.79-4.46,20.84,20.84,0,0,0,4.5-6.76,21.64,21.64,0,0,0,1.62-8.45,21.15,21.15,0,0,0-6.12-15.17,20.15,20.15,0,0,0-6.79-4.5,23.84,23.84,0,0,0-17.07,0,20.62,20.62,0,0,0-6.83,4.5,21,21,0,0,0-4.54,6.76,21.37,21.37,0,0,0-1.62,8.41,21.64,21.64,0,0,0,1.62,8.45A20.47,20.47,0,0,0,714.77,850,22.77,22.77,0,0,0,723.34,851.57Z" transform="translate(-5.49 -11.22)"></path><path class="cls-1" d="M769.08,858v-55.3h21.57a30.47,30.47,0,0,1,12.4,2.29,17.62,17.62,0,0,1,7.9,6.64A18.91,18.91,0,0,1,813.71,822,18.7,18.7,0,0,1,811,832.26a17.65,17.65,0,0,1-7.9,6.59,30.31,30.31,0,0,1-12.4,2.29H773.43l3.55-3.63V858ZM777,838.3l-3.55-3.87h17q7.59,0,11.49-3.28t3.91-9.2q0-5.93-3.91-9.17t-11.49-3.23h-17L777,805.6ZM806.05,858,792,837.9h8.45L814.66,858Z" transform="translate(-5.49 -11.22)"></path><path class="cls-1" d="M855.82,858.6a31.78,31.78,0,0,1-11.74-2.13,28.08,28.08,0,0,1-9.36-6,27.63,27.63,0,0,1-6.16-9,29.59,29.59,0,0,1,0-22.44,27.63,27.63,0,0,1,6.16-9,28.21,28.21,0,0,1,9.33-6A31.63,31.63,0,0,1,855.82,802a32.08,32.08,0,0,1,11.69,2.09,27.85,27.85,0,0,1,9.32,5.93,27,27,0,0,1,6.12,9,30.4,30.4,0,0,1,0,22.56,27.06,27.06,0,0,1-6.12,9,27.7,27.7,0,0,1-9.32,5.93A32.08,32.08,0,0,1,855.82,858.6Zm0-7a22.54,22.54,0,0,0,8.49-1.58,19.86,19.86,0,0,0,6.79-4.5,21.34,21.34,0,0,0,6.12-15.17,21.68,21.68,0,0,0-1.62-8.45,20.8,20.8,0,0,0-4.5-6.75,20.22,20.22,0,0,0-6.79-4.47,22.54,22.54,0,0,0-8.49-1.58,22.78,22.78,0,0,0-8.58,1.58,20.69,20.69,0,0,0-6.83,4.47,20.44,20.44,0,0,0-4.54,6.75,21.68,21.68,0,0,0-1.62,8.45,21.42,21.42,0,0,0,1.62,8.37,20.86,20.86,0,0,0,4.54,6.8,20.31,20.31,0,0,0,6.83,4.5A22.78,22.78,0,0,0,855.82,851.57ZM873.9,869.5a20.45,20.45,0,0,1-5.29-.67,21,21,0,0,1-5.05-2.13,34.46,34.46,0,0,1-5.22-3.79,78.69,78.69,0,0,1-5.84-5.73L861,855a36.6,36.6,0,0,0,4.54,4.78,15.34,15.34,0,0,0,4.31,2.68,11.52,11.52,0,0,0,4.26.83,13,13,0,0,0,10-4.74l3.71,4.5A17.23,17.23,0,0,1,873.9,869.5Z" transform="translate(-5.49 -11.22)"></path><path class="cls-1" d="M924.46,858.6q-10.9,0-17.14-6.24t-6.24-18.25V802.67H909V833.8q0,9.24,4.07,13.51t11.49,4.26q7.5,0,11.57-4.26t4.07-13.51V802.67h7.66v31.44q0,12-6.2,18.25T924.46,858.6Z" transform="translate(-5.49 -11.22)"></path><path class="cls-1" d="M976.28,851.1h32.23V858H968.38v-55.3h39v6.88H976.28Zm-.71-24.57H1004v6.71H975.57Z" transform="translate(-5.49 -11.22)"></path><path class="cls-1" d="M32.43,911.87,32,890.54h6.63L38,911.87Zm14.3,0-.48-21.33h6.64l-.55,21.33Z" transform="translate(-5.49 -11.22)"></path><path class="cls-1" d="M58.73,945.84l25.05-55.3H91.6l25.12,55.3h-8.3L86.07,895h3.16L66.87,945.84ZM69.4,932l2.13-6.32h31.12L105,932Z" transform="translate(-5.49 -11.22)"></path><path class="cls-1" d="M129.28,945.84v-55.3h7.9V939h29.93v6.87Z" transform="translate(-5.49 -11.22)"></path><path class="cls-1" d="M204.48,946.47a32.24,32.24,0,0,1-11.77-2.09,27.6,27.6,0,0,1-9.32-5.93,27.32,27.32,0,0,1-6.16-9,29.84,29.84,0,0,1,0-22.59,27.07,27.07,0,0,1,6.2-9,28.23,28.23,0,0,1,9.36-5.93,34.75,34.75,0,0,1,23.85,0,23.88,23.88,0,0,1,9.25,6.4l-4.9,4.9a21.94,21.94,0,0,0-7.39-4.86,24,24,0,0,0-8.65-1.54,24.23,24.23,0,0,0-8.81,1.58,21.13,21.13,0,0,0-7,4.43,19.66,19.66,0,0,0-4.58,6.75,22,22,0,0,0-1.62,8.49,21.73,21.73,0,0,0,1.62,8.41,20.15,20.15,0,0,0,4.58,6.8,20.85,20.85,0,0,0,7,4.46,23.9,23.9,0,0,0,8.77,1.58,26.33,26.33,0,0,0,8.5-1.38,20.89,20.89,0,0,0,7.54-4.62l4.5,6a27.94,27.94,0,0,1-9.6,5.25A36.42,36.42,0,0,1,204.48,946.47Zm13.35-8.06V917.88h7.58v21.56Z" transform="translate(-5.49 -11.22)"></path><path class="cls-1" d="M267.75,946.47q-10.9,0-17.14-6.24T244.37,922V890.54h7.9v31.13q0,9.24,4.07,13.5t11.49,4.27q7.5,0,11.57-4.27t4.07-13.5V890.54h7.66V922q0,12-6.2,18.25T267.75,946.47Z" transform="translate(-5.49 -11.22)"></path><path class="cls-1" d="M319.57,939H351.8v6.87H311.67v-55.3h39v6.88H319.57Zm-.71-24.57H347.3v6.71H318.86ZM325.34,886l10.74-10.27h9.64L332.45,886Z" transform="translate(-5.49 -11.22)"></path><path class="cls-1" d="M368.94,945.84v-55.3h6.48l24.8,41.79h-3.47l24.49-41.79h6.47l.08,55.3h-7.58l-.08-43.37H422l-21.81,36.65h-3.63l-22-36.65h2v43.37Z" transform="translate(-5.49 -11.22)"></path><path class="cls-1" d="M445.88,911.87l-.47-21.33H452l-.55,21.33Zm14.3,0-.48-21.33h6.64l-.55,21.33Z" transform="translate(-5.49 -11.22)"></path><path class="cls-1" d="M517.45,939h32.23v6.87H509.55v-55.3h39v6.88H517.45Zm-.71-24.57h28.43v6.71H516.74Z" transform="translate(-5.49 -11.22)"></path><path class="cls-1" d="M582.93,946.47a37.69,37.69,0,0,1-12.08-1.93,24.86,24.86,0,0,1-9.09-5l2.93-6.16a25.63,25.63,0,0,0,8,4.58,29.11,29.11,0,0,0,10.19,1.82,23,23,0,0,0,7.82-1.11,9.33,9.33,0,0,0,4.43-3,7.2,7.2,0,0,0,1.42-4.38,6,6,0,0,0-1.86-4.59,13.87,13.87,0,0,0-4.82-2.8,54,54,0,0,0-6.51-1.86c-2.37-.52-4.76-1.14-7.15-1.85a31.79,31.79,0,0,1-6.56-2.73,13.38,13.38,0,0,1-4.78-4.46,13.09,13.09,0,0,1-1.81-7.23,14.55,14.55,0,0,1,2.25-7.86,15.58,15.58,0,0,1,6.95-5.77,28.72,28.72,0,0,1,12-2.17,36.59,36.59,0,0,1,9.55,1.27,26.63,26.63,0,0,1,8.22,3.63l-2.61,6.32a25.4,25.4,0,0,0-7.5-3.44,29.42,29.42,0,0,0-7.66-1.06,21.13,21.13,0,0,0-7.67,1.18,9.3,9.3,0,0,0-4.38,3.16,7.55,7.55,0,0,0-1.38,4.42,6.09,6.09,0,0,0,1.85,4.66,13.32,13.32,0,0,0,4.82,2.77q3,1,6.52,1.86t7.15,1.85a30.58,30.58,0,0,1,6.55,2.69,13.45,13.45,0,0,1,4.78,4.42,12.76,12.76,0,0,1,1.82,7.11,14.17,14.17,0,0,1-2.29,7.78A15.83,15.83,0,0,1,595,944.3,29.15,29.15,0,0,1,582.93,946.47Z" transform="translate(-5.49 -11.22)"></path><path class="cls-1" d="M630.41,945.84V897.42h-19v-6.88h45.74v6.88h-19v48.42Z" transform="translate(-5.49 -11.22)"></path><path class="cls-1" d="M659,945.84l25-55.3h7.82L717,945.84h-8.3L686.34,895h3.16l-22.36,50.87ZM669.67,932l2.13-6.32h31.12l2.3,6.32Zm12.4-46,10.74-10.27h9.64L689.18,886Z" transform="translate(-5.49 -11.22)"></path><path class="cls-1" d="M778.05,946.47q-10.9,0-17.14-6.24T754.67,922V890.54h7.89v31.13q0,9.24,4.07,13.5t11.5,4.27q7.5,0,11.57-4.27t4.07-13.5V890.54h7.66V922q0,12-6.2,18.25T778.05,946.47Z" transform="translate(-5.49 -11.22)"></path><path class="cls-1" d="M838.08,946.47A37.69,37.69,0,0,1,826,944.54a24.78,24.78,0,0,1-9.09-5l2.92-6.16a25.8,25.8,0,0,0,8.06,4.58,29.11,29.11,0,0,0,10.19,1.82,23,23,0,0,0,7.82-1.11,9.33,9.33,0,0,0,4.43-3,7.26,7.26,0,0,0,1.42-4.38,6,6,0,0,0-1.86-4.59,13.87,13.87,0,0,0-4.82-2.8,54,54,0,0,0-6.51-1.86c-2.37-.52-4.76-1.14-7.15-1.85a31.56,31.56,0,0,1-6.56-2.73,13.38,13.38,0,0,1-4.78-4.46,13.09,13.09,0,0,1-1.82-7.23,14.47,14.47,0,0,1,2.26-7.86,15.58,15.58,0,0,1,7-5.77,28.7,28.7,0,0,1,12-2.17,36.61,36.61,0,0,1,9.56,1.27,26.63,26.63,0,0,1,8.22,3.63l-2.61,6.32a25.4,25.4,0,0,0-7.5-3.44,29.44,29.44,0,0,0-7.67-1.06,21.11,21.11,0,0,0-7.66,1.18,9.3,9.3,0,0,0-4.38,3.16,7.55,7.55,0,0,0-1.38,4.42,6,6,0,0,0,1.85,4.66,13.32,13.32,0,0,0,4.82,2.77c2,.68,4.15,1.3,6.52,1.86s4.75,1.17,7.15,1.85a30.58,30.58,0,0,1,6.55,2.69,13.45,13.45,0,0,1,4.78,4.42,12.76,12.76,0,0,1,1.82,7.11,14.17,14.17,0,0,1-2.29,7.78,15.89,15.89,0,0,1-7.07,5.77A29.15,29.15,0,0,1,838.08,946.47Z" transform="translate(-5.49 -11.22)"></path><path class="cls-1" d="M867,945.84l25-55.3h7.82L925,945.84h-8.29L894.32,895h3.16l-22.35,50.87ZM877.66,932l2.13-6.32h31.12L913.2,932Z" transform="translate(-5.49 -11.22)"></path><path class="cls-1" d="M937.53,945.84v-55.3H944L980.58,936h-3.39V890.54h7.9v55.3h-6.48L942,900.42h3.39v45.42Z" transform="translate(-5.49 -11.22)"></path><path class="cls-1" d="M1006,945.84v-55.3h23.3a33.65,33.65,0,0,1,15.61,3.48,25.7,25.7,0,0,1,10.5,9.72,29.73,29.73,0,0,1,0,28.91,25.61,25.61,0,0,1-10.5,9.71,33.65,33.65,0,0,1-15.61,3.48Zm7.9-6.87h14.93a25.46,25.46,0,0,0,11.89-2.61,18.94,18.94,0,0,0,7.78-7.31,22.82,22.82,0,0,0,0-21.76,19,19,0,0,0-7.78-7.27,25.46,25.46,0,0,0-11.89-2.6h-14.93Z" transform="translate(-5.49 -11.22)"></path><path class="cls-1" d="M1100.58,946.47a31.78,31.78,0,0,1-11.74-2.13,28.08,28.08,0,0,1-9.36-6,27.63,27.63,0,0,1-6.16-9,29.59,29.59,0,0,1,0-22.44,27.63,27.63,0,0,1,6.16-9,28.21,28.21,0,0,1,9.33-6,31.63,31.63,0,0,1,11.77-2.13,32.08,32.08,0,0,1,11.69,2.09,27.85,27.85,0,0,1,9.32,5.93,27,27,0,0,1,6.12,9,30.4,30.4,0,0,1,0,22.56,27.06,27.06,0,0,1-6.12,9,27.7,27.7,0,0,1-9.32,5.93A32.08,32.08,0,0,1,1100.58,946.47Zm0-7a22.54,22.54,0,0,0,8.49-1.58,20.19,20.19,0,0,0,6.79-4.46,20.84,20.84,0,0,0,4.5-6.76,21.64,21.64,0,0,0,1.62-8.45,21.15,21.15,0,0,0-6.12-15.17,20.15,20.15,0,0,0-6.79-4.5,22.54,22.54,0,0,0-8.49-1.58,22.78,22.78,0,0,0-8.58,1.58,20.62,20.62,0,0,0-6.83,4.5,21,21,0,0,0-4.54,6.76,21.37,21.37,0,0,0-1.62,8.41,21.64,21.64,0,0,0,1.62,8.45A20.47,20.47,0,0,0,1092,937.86,22.78,22.78,0,0,0,1100.58,939.44Z" transform="translate(-5.49 -11.22)"></path><path class="cls-1" d="M1145.44,946.31a5.33,5.33,0,0,1-5.37-5.45,5.11,5.11,0,0,1,1.58-3.87,5.33,5.33,0,0,1,3.79-1.5,5.09,5.09,0,0,1,3.68,1.5,5.19,5.19,0,0,1,1.54,3.87,5.31,5.31,0,0,1-1.54,3.91A5,5,0,0,1,1145.44,946.31Zm18.33,0a5.33,5.33,0,0,1-5.37-5.45A5.11,5.11,0,0,1,1160,937a5.31,5.31,0,0,1,3.79-1.5,5.07,5.07,0,0,1,3.67,1.5,5.15,5.15,0,0,1,1.54,3.87,5.27,5.27,0,0,1-1.54,3.91A5,5,0,0,1,1163.77,946.31Zm18.33,0a5.33,5.33,0,0,1-5.37-5.45,5.07,5.07,0,0,1,1.58-3.87,5.29,5.29,0,0,1,3.79-1.5,5.08,5.08,0,0,1,3.67,1.5,5.15,5.15,0,0,1,1.54,3.87,5.27,5.27,0,0,1-1.54,3.91A5,5,0,0,1,1182.1,946.31Z" transform="translate(-5.49 -11.22)"></path></g></g></g></svg>