<svg xmlns="http://www.w3.org/2000/svg" viewBox="0 0 2734.46 625.6"><defs><style>.cls-1{fill:#f7f7f8;}</style></defs><title>4</title><g id="Camada_2" data-name="Camada 2"><g id="Camada_1-2" data-name="Camada 1"><path class="cls-1" d="M81.94,91.88,116.2,16.21h10.7l34.38,75.67H149.93L119.34,22.27h4.32L93.07,91.88ZM96.53,73l2.92-8.65H142L145.17,73Z" transform="translate(-19.89 -15.35)"></path><path class="cls-1" d="M178.46,91.88V16.21h31.89A46.06,46.06,0,0,1,231.7,21a35.11,35.11,0,0,1,14.37,13.29A37.69,37.69,0,0,1,251.21,54a37.64,37.64,0,0,1-5.14,19.78,35.07,35.07,0,0,1-14.37,13.3,46.06,46.06,0,0,1-21.35,4.76Zm10.81-9.41H209.7A35,35,0,0,0,226,78.91a26,26,0,0,0,10.64-10A28.7,28.7,0,0,0,240.4,54a28.6,28.6,0,0,0-3.79-14.91,26.09,26.09,0,0,0-10.64-10,35,35,0,0,0-16.27-3.56H189.27Z" transform="translate(-19.89 -15.35)"></path><path class="cls-1" d="M307.84,92.74a43.32,43.32,0,0,1-16-2.92A38.35,38.35,0,0,1,279,81.66a37.65,37.65,0,0,1-8.43-12.27,38.5,38.5,0,0,1-3-15.35,38.49,38.49,0,0,1,3-15.34A37.65,37.65,0,0,1,279,26.43a38.43,38.43,0,0,1,12.76-8.16,43.17,43.17,0,0,1,16.1-2.92,43.67,43.67,0,0,1,16,2.86,37.84,37.84,0,0,1,12.76,8.11A36.78,36.78,0,0,1,345,38.64,39.26,39.26,0,0,1,348,54a39.1,39.1,0,0,1-3,15.46,37,37,0,0,1-8.37,12.27,37.84,37.84,0,0,1-12.76,8.11A43.67,43.67,0,0,1,307.84,92.74Zm0-9.62A30.72,30.72,0,0,0,319.46,81a27.6,27.6,0,0,0,9.3-6.11,28.5,28.5,0,0,0,6.16-9.24A29.64,29.64,0,0,0,337.14,54a28.91,28.91,0,0,0-8.38-20.75,27.29,27.29,0,0,0-9.3-6.16,32.6,32.6,0,0,0-23.34,0,27.79,27.79,0,0,0-9.35,6.16,28.89,28.89,0,0,0-6.22,9.24A29.26,29.26,0,0,0,278.34,54a29.63,29.63,0,0,0,2.21,11.57A28.11,28.11,0,0,0,296.12,81,31,31,0,0,0,307.84,83.12Z" transform="translate(-19.89 -15.35)"></path><path class="cls-1" d="M370.43,91.88V16.21h29.51a41.5,41.5,0,0,1,17,3.14,24.06,24.06,0,0,1,10.81,9.08,25.82,25.82,0,0,1,3.78,14.16,25.54,25.54,0,0,1-3.78,14.1,24.21,24.21,0,0,1-10.81,9,41.51,41.51,0,0,1-17,3.13H376.37l4.87-5v28ZM381.24,65l-4.87-5.29h23.24q10.38,0,15.73-4.49t5.35-12.59q0-8.12-5.35-12.54t-15.73-4.43H376.37l4.87-5.41ZM421,91.88,401.78,64.42h11.56L432.8,91.88Z" transform="translate(-19.89 -15.35)"></path><path class="cls-1" d="M443.5,91.88l34.26-75.67h10.7l34.38,75.67H511.49L480.9,22.27h4.32L454.63,91.88ZM458.09,73,461,64.31H503.6L506.73,73Z" transform="translate(-19.89 -15.35)"></path><path class="cls-1" d="M540,91.88V16.21h8.87l33.94,57.18h-4.76l33.51-57.18h8.86l.11,75.67H610.17l-.11-59.35h2.49L582.72,82.69h-5l-30-50.16h2.7V91.88Z" transform="translate(-19.89 -15.35)"></path><path class="cls-1" d="M683.35,92.74a43.25,43.25,0,0,1-16.05-2.92,38.15,38.15,0,0,1-12.81-8.16,37.34,37.34,0,0,1-8.43-12.27A38.33,38.33,0,0,1,643,54a38.32,38.32,0,0,1,3-15.34,37.34,37.34,0,0,1,8.43-12.27,38.28,38.28,0,0,1,12.75-8.16,43.19,43.19,0,0,1,16.11-2.92,43.7,43.7,0,0,1,16,2.86,37.7,37.7,0,0,1,12.75,8.11,37,37,0,0,1,8.38,12.32,39.43,39.43,0,0,1,3,15.4,39.27,39.27,0,0,1-3,15.46,37.16,37.16,0,0,1-8.38,12.27,37.7,37.7,0,0,1-12.75,8.11A43.7,43.7,0,0,1,683.35,92.74Zm0-9.62A30.76,30.76,0,0,0,695,81a27.56,27.56,0,0,0,9.29-6.11,28.53,28.53,0,0,0,6.17-9.24A29.81,29.81,0,0,0,712.64,54a28.8,28.8,0,0,0-8.38-20.75A27.25,27.25,0,0,0,695,27.13,30.76,30.76,0,0,0,683.35,25a31.07,31.07,0,0,0-11.73,2.16,27.89,27.89,0,0,0-9.35,6.16,28.7,28.7,0,0,0-6.21,9.24A29.27,29.27,0,0,0,653.84,54a29.64,29.64,0,0,0,2.22,11.57,27.86,27.86,0,0,0,6.21,9.24A28.22,28.22,0,0,0,671.62,81,31.07,31.07,0,0,0,683.35,83.12Z" transform="translate(-19.89 -15.35)"></path><path class="cls-1" d="M768,92.74a51.43,51.43,0,0,1-16.53-2.65A33.8,33.8,0,0,1,739,83.23l4-8.43a35.28,35.28,0,0,0,11,6.27A39.69,39.69,0,0,0,768,83.55,31.45,31.45,0,0,0,778.68,82a12.69,12.69,0,0,0,6.06-4.16,9.94,9.94,0,0,0,1.94-6,8.18,8.18,0,0,0-2.54-6.27,19,19,0,0,0-6.59-3.84,73.81,73.81,0,0,0-8.92-2.54q-4.86-1.08-9.78-2.54a43.17,43.17,0,0,1-9-3.73,18.32,18.32,0,0,1-6.54-6.1A17.89,17.89,0,0,1,740.85,37a19.9,19.9,0,0,1,3.08-10.76,21.42,21.42,0,0,1,9.52-7.89q6.42-3,16.37-3a50.65,50.65,0,0,1,13.08,1.73,36.46,36.46,0,0,1,11.24,5l-3.57,8.65A34.72,34.72,0,0,0,780.31,26a40.31,40.31,0,0,0-10.49-1.45,28.84,28.84,0,0,0-10.48,1.62,12.77,12.77,0,0,0-6,4.32,10.31,10.31,0,0,0-1.89,6.05A8.29,8.29,0,0,0,754,42.91a18,18,0,0,0,6.59,3.78,86,86,0,0,0,8.92,2.54q4.86,1.14,9.78,2.54a42,42,0,0,1,9,3.68,18.55,18.55,0,0,1,6.54,6,17.41,17.41,0,0,1,2.49,9.73,19.45,19.45,0,0,1-3.14,10.65,21.65,21.65,0,0,1-9.67,7.89Q777.93,92.74,768,92.74Z" transform="translate(-19.89 -15.35)"></path><path class="cls-1" d="M842.56,91.88l34.27-75.67h10.7L921.9,91.88H910.55L880,22.27h4.33L853.7,91.88ZM857.16,73l2.92-8.65h42.58L905.8,73Z" transform="translate(-19.89 -15.35)"></path><path class="cls-1" d="M974.11,91.88V16.21H983l33.94,57.18h-4.75l33.51-57.18h8.86l.11,75.67h-10.38l-.11-59.35h2.49l-29.83,50.16h-5L981.78,32.53h2.71V91.88Z" transform="translate(-19.89 -15.35)"></path><path class="cls-1" d="M1083.28,91.88V16.21h10.81V91.88Z" transform="translate(-19.89 -15.35)"></path><path class="cls-1" d="M1144.78,92.74a51.48,51.48,0,0,1-16.53-2.65,33.67,33.67,0,0,1-12.43-6.86l4-8.43a35.28,35.28,0,0,0,11,6.27,39.69,39.69,0,0,0,13.94,2.48,31.45,31.45,0,0,0,10.7-1.51,12.69,12.69,0,0,0,6.06-4.16,9.94,9.94,0,0,0,1.94-6,8.18,8.18,0,0,0-2.54-6.27,19,19,0,0,0-6.59-3.84,73.29,73.29,0,0,0-8.92-2.54q-4.86-1.08-9.78-2.54a43.17,43.17,0,0,1-9-3.73,18.32,18.32,0,0,1-6.54-6.1,17.89,17.89,0,0,1-2.49-9.89,19.9,19.9,0,0,1,3.08-10.76,21.42,21.42,0,0,1,9.52-7.89q6.42-3,16.37-3a50.65,50.65,0,0,1,13.08,1.73,36.46,36.46,0,0,1,11.24,5l-3.57,8.65A34.72,34.72,0,0,0,1157.11,26a40.31,40.31,0,0,0-10.49-1.45,28.84,28.84,0,0,0-10.48,1.62,12.77,12.77,0,0,0-6,4.32,10.31,10.31,0,0,0-1.89,6.05,8.29,8.29,0,0,0,2.54,6.38,18,18,0,0,0,6.59,3.78,86,86,0,0,0,8.92,2.54q4.86,1.14,9.78,2.54a42,42,0,0,1,9,3.68,18.55,18.55,0,0,1,6.54,6,17.41,17.41,0,0,1,2.49,9.73,19.45,19.45,0,0,1-3.14,10.65,21.65,21.65,0,0,1-9.67,7.89Q1154.73,92.74,1144.78,92.74Z" transform="translate(-19.89 -15.35)"></path><path class="cls-1" d="M1209.75,91.88V25.62h-26V16.21h62.59v9.41h-25.94V91.88Z" transform="translate(-19.89 -15.35)"></path><path class="cls-1" d="M1294.06,92.74q-14.93,0-23.46-8.54t-8.54-25v-43h10.81V58.8q0,12.65,5.57,18.48t15.72,5.84q10.27,0,15.84-5.84t5.57-18.48V16.21h10.48v43q0,16.44-8.48,25T1294.06,92.74Z" transform="translate(-19.89 -15.35)"></path><path class="cls-1" d="M1354.15,91.88V16.21h29.51a41.47,41.47,0,0,1,17,3.14,24,24,0,0,1,10.81,9.08,25.82,25.82,0,0,1,3.79,14.16,25.54,25.54,0,0,1-3.79,14.1,24.1,24.1,0,0,1-10.81,9,41.47,41.47,0,0,1-17,3.13H1360.1l4.86-5v28ZM1365,65l-4.86-5.29h23.24q10.38,0,15.73-4.49t5.35-12.59q0-8.12-5.35-12.54t-15.73-4.43H1360.1l4.86-5.41Zm39.78,26.92L1385.5,64.42h11.57l19.45,27.46Z" transform="translate(-19.89 -15.35)"></path><path class="cls-1" d="M1427.22,91.88l34.27-75.67h10.7l34.37,75.67h-11.35l-30.59-69.61H1469l-30.59,69.61ZM1441.81,73l2.92-8.65h42.59l3.13,8.65Z" transform="translate(-19.89 -15.35)"></path><path class="cls-1" d="M1558.77,91.88V16.21h31.88A46,46,0,0,1,1612,21a35.2,35.2,0,0,1,14.38,13.29A37.69,37.69,0,0,1,1631.51,54a37.64,37.64,0,0,1-5.13,19.78A35.15,35.15,0,0,1,1612,87.12a46,46,0,0,1-21.35,4.76Zm10.81-9.41H1590a34.89,34.89,0,0,0,16.26-3.56,26,26,0,0,0,10.65-10A28.79,28.79,0,0,0,1620.7,54a28.69,28.69,0,0,0-3.78-14.91,26.05,26.05,0,0,0-10.65-10A34.89,34.89,0,0,0,1590,25.62h-20.43Z" transform="translate(-19.89 -15.35)"></path><path class="cls-1" d="M1688.15,92.74a43.25,43.25,0,0,1-16.05-2.92,38.15,38.15,0,0,1-12.81-8.16,37.49,37.49,0,0,1-8.43-12.27,38.33,38.33,0,0,1-3-15.35,38.32,38.32,0,0,1,3-15.34,37.49,37.49,0,0,1,8.43-12.27A38.28,38.28,0,0,1,1672,18.27a43.19,43.19,0,0,1,16.11-2.92,43.7,43.7,0,0,1,16,2.86,37.7,37.7,0,0,1,12.75,8.11,36.81,36.81,0,0,1,8.38,12.32,39.43,39.43,0,0,1,3,15.4,39.27,39.27,0,0,1-3,15.46,37,37,0,0,1-8.38,12.27,37.7,37.7,0,0,1-12.75,8.11A43.7,43.7,0,0,1,1688.15,92.74Zm0-9.62A30.76,30.76,0,0,0,1699.77,81a27.7,27.7,0,0,0,9.3-6.11,28.5,28.5,0,0,0,6.16-9.24A29.81,29.81,0,0,0,1717.44,54a28.84,28.84,0,0,0-8.37-20.75,27.38,27.38,0,0,0-9.3-6.16A30.76,30.76,0,0,0,1688.15,25a31.07,31.07,0,0,0-11.73,2.16,27.89,27.89,0,0,0-9.35,6.16,28.7,28.7,0,0,0-6.21,9.24A29.27,29.27,0,0,0,1658.64,54a29.64,29.64,0,0,0,2.22,11.57,27.86,27.86,0,0,0,6.21,9.24,28.22,28.22,0,0,0,9.35,6.11A31.07,31.07,0,0,0,1688.15,83.12Z" transform="translate(-19.89 -15.35)"></path><path class="cls-1" d="M1774.3,91.88l34.26-75.67h10.7l34.38,75.67h-11.35L1811.7,22.27H1816l-30.59,69.61ZM1788.89,73l2.92-8.65h42.59l3.13,8.65Z" transform="translate(-19.89 -15.35)"></path><path class="cls-1" d="M1870.82,91.88V16.21h8.87l50,62.15h-4.65V16.21h10.81V91.88H1927l-50-62.16h4.65V91.88Z" transform="translate(-19.89 -15.35)"></path><path class="cls-1" d="M1979.56,91.88V25.62h-25.94V16.21h62.58v9.41h-25.94V91.88Z" transform="translate(-19.89 -15.35)"></path><path class="cls-1" d="M2033.93,91.88V16.21h10.81V91.88Z" transform="translate(-19.89 -15.35)"></path><path class="cls-1" d="M2107.54,92.74a44,44,0,0,1-16.11-2.86,37.54,37.54,0,0,1-21.18-20.38,38.59,38.59,0,0,1-3-15.46,38.58,38.58,0,0,1,3-15.45,37.18,37.18,0,0,1,8.48-12.27,38.36,38.36,0,0,1,12.81-8.11,47.55,47.55,0,0,1,32.65.06A32.45,32.45,0,0,1,2136.83,27l-6.7,6.7A29.83,29.83,0,0,0,2120,27.08,32.46,32.46,0,0,0,2108.19,25a33,33,0,0,0-12.05,2.16,28.66,28.66,0,0,0-9.62,6.05,26.85,26.85,0,0,0-6.27,9.24,31.26,31.26,0,0,0,0,23.14,27.34,27.34,0,0,0,6.27,9.29,28.42,28.42,0,0,0,9.56,6.11,32.65,32.65,0,0,0,12,2.16,35.91,35.91,0,0,0,11.62-1.89A28.63,28.63,0,0,0,2130,74.91l6.16,8.21a38.28,38.28,0,0,1-13.13,7.19A50.1,50.1,0,0,1,2107.54,92.74Zm18.27-11V53.61h10.37V83.12Z" transform="translate(-19.89 -15.35)"></path><path class="cls-1" d="M2196.93,92.74a43.25,43.25,0,0,1-16-2.92,38.15,38.15,0,0,1-12.81-8.16,37.34,37.34,0,0,1-8.43-12.27,38.33,38.33,0,0,1-3-15.35,38.32,38.32,0,0,1,3-15.34,37.34,37.34,0,0,1,8.43-12.27,38.28,38.28,0,0,1,12.75-8.16,43.19,43.19,0,0,1,16.11-2.92,43.7,43.7,0,0,1,16,2.86,37.7,37.7,0,0,1,12.75,8.11,37,37,0,0,1,8.38,12.32,39.43,39.43,0,0,1,3,15.4,39.27,39.27,0,0,1-3,15.46,37.16,37.16,0,0,1-8.38,12.27,37.7,37.7,0,0,1-12.75,8.11A43.7,43.7,0,0,1,2196.93,92.74Zm0-9.62A30.76,30.76,0,0,0,2208.55,81a27.56,27.56,0,0,0,9.29-6.11,28.53,28.53,0,0,0,6.17-9.24A29.81,29.81,0,0,0,2226.22,54a28.8,28.8,0,0,0-8.38-20.75,27.25,27.25,0,0,0-9.29-6.16A30.76,30.76,0,0,0,2196.93,25a31.07,31.07,0,0,0-11.73,2.16,27.89,27.89,0,0,0-9.35,6.16,28.7,28.7,0,0,0-6.21,9.24A29.27,29.27,0,0,0,2167.42,54a29.64,29.64,0,0,0,2.22,11.57,27.86,27.86,0,0,0,6.21,9.24A28.22,28.22,0,0,0,2185.2,81,31.07,31.07,0,0,0,2196.93,83.12Z" transform="translate(-19.89 -15.35)"></path><path class="cls-1" d="M2328.37,92.74a43.28,43.28,0,0,1-15.95-2.86,37.23,37.23,0,0,1-12.64-8.11,38.08,38.08,0,0,1-8.38-12.27,38.59,38.59,0,0,1-3-15.46,38.58,38.58,0,0,1,3-15.45,37.65,37.65,0,0,1,21.13-20.38,45.65,45.65,0,0,1,32.1.11,33.1,33.1,0,0,1,12.6,8.81l-7,6.81a28,28,0,0,0-9.73-6.76A30.27,30.27,0,0,0,2328.91,25a31.87,31.87,0,0,0-11.84,2.16,28.46,28.46,0,0,0-9.46,6.05,27.41,27.41,0,0,0-6.21,9.24A30.07,30.07,0,0,0,2299.18,54a30,30,0,0,0,2.22,11.62,27.35,27.35,0,0,0,6.21,9.25,28.46,28.46,0,0,0,9.46,6,31.87,31.87,0,0,0,11.84,2.16,30.09,30.09,0,0,0,11.56-2.22A27.27,27.27,0,0,0,2350.2,74l7,6.81a33.55,33.55,0,0,1-12.6,8.86A42.49,42.49,0,0,1,2328.37,92.74Z" transform="translate(-19.89 -15.35)"></path><path class="cls-1" d="M2411.16,92.74a43.32,43.32,0,0,1-16-2.92,38.15,38.15,0,0,1-12.81-8.16,37.65,37.65,0,0,1-8.43-12.27,38.33,38.33,0,0,1-3-15.35,38.32,38.32,0,0,1,3-15.34,37.65,37.65,0,0,1,8.43-12.27,38.33,38.33,0,0,1,12.76-8.16,43.17,43.17,0,0,1,16.1-2.92,43.67,43.67,0,0,1,16,2.86,37.84,37.84,0,0,1,12.76,8.11,36.78,36.78,0,0,1,8.37,12.32,39.43,39.43,0,0,1,3,15.4,39.27,39.27,0,0,1-3,15.46,37,37,0,0,1-8.37,12.27,37.84,37.84,0,0,1-12.76,8.11A43.67,43.67,0,0,1,2411.16,92.74Zm0-9.62A30.72,30.72,0,0,0,2422.78,81a27.6,27.6,0,0,0,9.3-6.11,28.5,28.5,0,0,0,6.16-9.24A29.64,29.64,0,0,0,2440.46,54a28.91,28.91,0,0,0-8.38-20.75,27.29,27.29,0,0,0-9.3-6.16,32.6,32.6,0,0,0-23.34,0,27.79,27.79,0,0,0-9.35,6.16,28.89,28.89,0,0,0-6.22,9.24A29.27,29.27,0,0,0,2381.65,54a29.64,29.64,0,0,0,2.22,11.57A28.11,28.11,0,0,0,2399.44,81,31,31,0,0,0,2411.16,83.12Z" transform="translate(-19.89 -15.35)"></path><path class="cls-1" d="M2473.75,91.88V16.21h8.86l33.94,57.18h-4.75l33.5-57.18h8.87l.11,75.67H2543.9l-.11-59.35h2.49l-29.84,50.16h-5l-30-50.16h2.7V91.88Z" transform="translate(-19.89 -15.35)"></path><path class="cls-1" d="M2652.1,92.74A43.34,43.34,0,0,1,2636,89.82a38.2,38.2,0,0,1-12.8-8.16,37.52,37.52,0,0,1-8.44-12.27,38.5,38.5,0,0,1-3-15.35,38.49,38.49,0,0,1,3-15.34,37.52,37.52,0,0,1,8.44-12.27A38.28,38.28,0,0,1,2636,18.27a43.19,43.19,0,0,1,16.11-2.92,43.65,43.65,0,0,1,16,2.86,37.84,37.84,0,0,1,12.76,8.11,37,37,0,0,1,8.38,12.32,39.43,39.43,0,0,1,3,15.4,39.27,39.27,0,0,1-3,15.46,37.16,37.16,0,0,1-8.38,12.27,37.84,37.84,0,0,1-12.76,8.11A43.65,43.65,0,0,1,2652.1,92.74Zm0-9.62A30.8,30.8,0,0,0,2663.72,81a27.66,27.66,0,0,0,9.29-6.11,28.34,28.34,0,0,0,6.16-9.24A29.64,29.64,0,0,0,2681.39,54,28.91,28.91,0,0,0,2673,33.29a27.34,27.34,0,0,0-9.29-6.16,32.63,32.63,0,0,0-23.35,0,27.79,27.79,0,0,0-9.35,6.16,28.89,28.89,0,0,0-6.22,9.24A29.26,29.26,0,0,0,2622.59,54a29.63,29.63,0,0,0,2.21,11.57A28.11,28.11,0,0,0,2640.37,81,31,31,0,0,0,2652.1,83.12Z" transform="translate(-19.89 -15.35)"></path><path class="cls-1" d="M47.94,198.54V122.87H56.8L106.85,185H102.2V122.87H113v75.67h-8.86L54.1,136.38h4.65v62.16Z" transform="translate(-19.89 -15.35)"></path><path class="cls-1" d="M175.81,199.4a43.32,43.32,0,0,1-16.05-2.92A38.15,38.15,0,0,1,147,188.32a37.65,37.65,0,0,1-8.43-12.27,40.4,40.4,0,0,1,0-30.7A37.71,37.71,0,0,1,147,133.09a38.23,38.23,0,0,1,12.76-8.16,43.14,43.14,0,0,1,16.1-2.92,43.67,43.67,0,0,1,16,2.86A37.7,37.7,0,0,1,204.56,133a36.67,36.67,0,0,1,8.38,12.32,41.57,41.57,0,0,1,0,30.86,36.86,36.86,0,0,1-8.38,12.27,37.85,37.85,0,0,1-12.75,8.11A43.67,43.67,0,0,1,175.81,199.4Zm0-9.62a30.76,30.76,0,0,0,11.62-2.16,27.6,27.6,0,0,0,9.3-6.11,28.5,28.5,0,0,0,6.16-9.24,29.81,29.81,0,0,0,2.21-11.57A28.84,28.84,0,0,0,196.73,140a27.14,27.14,0,0,0-9.3-6.16,30.76,30.76,0,0,0-11.62-2.16,31.07,31.07,0,0,0-11.73,2.16,27.84,27.84,0,0,0-9.35,6.16,28.86,28.86,0,0,0-6.21,9.24,29.23,29.23,0,0,0-2.22,11.51,29.64,29.64,0,0,0,2.22,11.57,28,28,0,0,0,6.21,9.24,28.32,28.32,0,0,0,9.35,6.11A31.07,31.07,0,0,0,175.81,189.78Z" transform="translate(-19.89 -15.35)"></path><path class="cls-1" d="M257.85,198.54l-33.29-75.67h11.68l30.59,69.83h-6.71l30.81-69.83h10.81l-33.19,75.67Z" transform="translate(-19.89 -15.35)"></path><path class="cls-1" d="M350.7,199.4a43.32,43.32,0,0,1-16.05-2.92,38.35,38.35,0,0,1-12.81-8.16,37.65,37.65,0,0,1-8.43-12.27,40.52,40.52,0,0,1,0-30.7,37.71,37.71,0,0,1,8.43-12.26,38.43,38.43,0,0,1,12.76-8.16A43.17,43.17,0,0,1,350.7,122a43.67,43.67,0,0,1,16,2.86A37.84,37.84,0,0,1,379.46,133a36.78,36.78,0,0,1,8.37,12.32,41.44,41.44,0,0,1,0,30.86,37,37,0,0,1-8.37,12.27,38,38,0,0,1-12.76,8.11A43.67,43.67,0,0,1,350.7,199.4Zm0-9.62a30.72,30.72,0,0,0,11.62-2.16,27.6,27.6,0,0,0,9.3-6.11,28.5,28.5,0,0,0,6.16-9.24A29.64,29.64,0,0,0,380,160.7,28.91,28.91,0,0,0,371.62,140a27.14,27.14,0,0,0-9.3-6.16,32.6,32.6,0,0,0-23.34,0,27.64,27.64,0,0,0-9.35,6.16,28.89,28.89,0,0,0-6.22,9.24,29.23,29.23,0,0,0-2.21,11.51,29.63,29.63,0,0,0,2.21,11.57A28.11,28.11,0,0,0,339,187.62,31,31,0,0,0,350.7,189.78Z" transform="translate(-19.89 -15.35)"></path><path class="cls-1" d="M412.1,199.18a7.28,7.28,0,0,1-7.35-7.45,7,7,0,0,1,2.16-5.3,7.26,7.26,0,0,1,5.19-2.05,7,7,0,0,1,5,2.05,7.08,7.08,0,0,1,2.1,5.3,7.27,7.27,0,0,1-2.1,5.35A6.88,6.88,0,0,1,412.1,199.18Z" transform="translate(-19.89 -15.35)"></path><path class="cls-1" d="M498.68,199.4a51.49,51.49,0,0,1-16.54-2.65,33.83,33.83,0,0,1-12.43-6.86l4-8.43a35.17,35.17,0,0,0,11,6.27,39.87,39.87,0,0,0,13.94,2.48,31.52,31.52,0,0,0,10.7-1.51,12.68,12.68,0,0,0,6-4.16,9.88,9.88,0,0,0,2-6,8.18,8.18,0,0,0-2.54-6.27,18.86,18.86,0,0,0-6.59-3.84,74.34,74.34,0,0,0-8.92-2.54c-3.24-.72-6.51-1.57-9.78-2.54a43.49,43.49,0,0,1-9-3.73,18.41,18.41,0,0,1-6.54-6.1,18,18,0,0,1-2.48-9.89,19.9,19.9,0,0,1,3.08-10.76,21.34,21.34,0,0,1,9.51-7.89q6.44-3,16.38-3a50.33,50.33,0,0,1,13.08,1.73,36.46,36.46,0,0,1,11.24,5l-3.57,8.65A34.77,34.77,0,0,0,511,132.65a40.26,40.26,0,0,0-10.48-1.46A28.66,28.66,0,0,0,490,132.82a12.77,12.77,0,0,0-6,4.32,10.31,10.31,0,0,0-1.89,6.05,8.32,8.32,0,0,0,2.54,6.38,18,18,0,0,0,6.6,3.78,86.45,86.45,0,0,0,8.91,2.54q4.88,1.14,9.78,2.54a42.34,42.34,0,0,1,9,3.68,18.55,18.55,0,0,1,6.54,6,17.49,17.49,0,0,1,2.48,9.73,19.44,19.44,0,0,1-3.13,10.65,21.68,21.68,0,0,1-9.68,7.89Q508.62,199.4,498.68,199.4Z" transform="translate(-19.89 -15.35)"></path><path class="cls-1" d="M583.85,199.4a43.32,43.32,0,0,1-16.05-2.92A38.35,38.35,0,0,1,555,188.32a37.65,37.65,0,0,1-8.43-12.27,40.52,40.52,0,0,1,0-30.7A37.71,37.71,0,0,1,555,133.09a38.43,38.43,0,0,1,12.76-8.16,43.17,43.17,0,0,1,16.1-2.92,43.67,43.67,0,0,1,16,2.86A37.84,37.84,0,0,1,612.61,133,36.78,36.78,0,0,1,621,145.3a41.44,41.44,0,0,1,0,30.86,37,37,0,0,1-8.37,12.27,38,38,0,0,1-12.76,8.11A43.67,43.67,0,0,1,583.85,199.4Zm0-9.62a30.72,30.72,0,0,0,11.62-2.16,27.6,27.6,0,0,0,9.3-6.11,28.5,28.5,0,0,0,6.16-9.24,29.64,29.64,0,0,0,2.22-11.57A28.91,28.91,0,0,0,604.77,140a27.14,27.14,0,0,0-9.3-6.16,32.6,32.6,0,0,0-23.34,0,27.64,27.64,0,0,0-9.35,6.16,28.89,28.89,0,0,0-6.22,9.24,29.23,29.23,0,0,0-2.22,11.51,29.64,29.64,0,0,0,2.22,11.57,28.11,28.11,0,0,0,15.57,15.35A31,31,0,0,0,583.85,189.78Z" transform="translate(-19.89 -15.35)"></path><path class="cls-1" d="M646.44,198.54V122.87h8.86l33.94,57.18h-4.75L718,122.87h8.87l.11,75.67H716.59l-.11-59.35H719l-29.84,50.16h-5l-30-50.16h2.7v59.35Z" transform="translate(-19.89 -15.35)"></path><path class="cls-1" d="M789.76,199.4a43.32,43.32,0,0,1-16-2.92,38.35,38.35,0,0,1-12.81-8.16,37.65,37.65,0,0,1-8.43-12.27,40.52,40.52,0,0,1,0-30.7,37.71,37.71,0,0,1,8.43-12.26,38.43,38.43,0,0,1,12.76-8.16,43.17,43.17,0,0,1,16.1-2.92,43.67,43.67,0,0,1,16,2.86A37.84,37.84,0,0,1,818.52,133a36.78,36.78,0,0,1,8.37,12.32,41.44,41.44,0,0,1,0,30.86,37,37,0,0,1-8.37,12.27,38,38,0,0,1-12.76,8.11A43.67,43.67,0,0,1,789.76,199.4Zm0-9.62a30.72,30.72,0,0,0,11.62-2.16,27.6,27.6,0,0,0,9.3-6.11,28.5,28.5,0,0,0,6.16-9.24,29.64,29.64,0,0,0,2.22-11.57A28.91,28.91,0,0,0,810.68,140a27.14,27.14,0,0,0-9.3-6.16,32.6,32.6,0,0,0-23.34,0,27.64,27.64,0,0,0-9.35,6.16,28.89,28.89,0,0,0-6.22,9.24,29.23,29.23,0,0,0-2.21,11.51,29.63,29.63,0,0,0,2.21,11.57A28.11,28.11,0,0,0,778,187.62,31,31,0,0,0,789.76,189.78Z" transform="translate(-19.89 -15.35)"></path><path class="cls-1" d="M874.4,199.4a51.49,51.49,0,0,1-16.54-2.65,33.83,33.83,0,0,1-12.43-6.86l4-8.43a35.17,35.17,0,0,0,11,6.27,39.87,39.87,0,0,0,13.94,2.48,31.52,31.52,0,0,0,10.7-1.51,12.68,12.68,0,0,0,6-4.16,9.88,9.88,0,0,0,2-6,8.18,8.18,0,0,0-2.54-6.27,19,19,0,0,0-6.59-3.84,74.34,74.34,0,0,0-8.92-2.54q-4.87-1.08-9.78-2.54a43.49,43.49,0,0,1-9-3.73,18.41,18.41,0,0,1-6.54-6.1,18,18,0,0,1-2.48-9.89,19.9,19.9,0,0,1,3.08-10.76,21.34,21.34,0,0,1,9.51-7.89q6.43-3,16.38-3a50.33,50.33,0,0,1,13.08,1.73,36.46,36.46,0,0,1,11.24,5L897,137.36a34.77,34.77,0,0,0-10.27-4.71,40.26,40.26,0,0,0-10.48-1.46,28.66,28.66,0,0,0-10.49,1.63,12.77,12.77,0,0,0-6,4.32,10.31,10.31,0,0,0-1.89,6.05,8.32,8.32,0,0,0,2.54,6.38,18,18,0,0,0,6.59,3.78,87.39,87.39,0,0,0,8.92,2.54c3.25.76,6.5,1.61,9.78,2.54a42.34,42.34,0,0,1,9,3.68,18.55,18.55,0,0,1,6.54,6,17.49,17.49,0,0,1,2.48,9.73,19.44,19.44,0,0,1-3.13,10.65,21.68,21.68,0,0,1-9.68,7.89Q884.34,199.4,874.4,199.4Z" transform="translate(-19.89 -15.35)"></path><path class="cls-1" d="M949,198.54l34.27-75.67H994l34.37,75.67H1017l-30.59-69.62h4.32l-30.59,69.62Zm14.59-18.92,2.92-8.65h42.59l3.13,8.65Z" transform="translate(-19.89 -15.35)"></path><path class="cls-1" d="M1045.51,198.54V122.87H1075a41.47,41.47,0,0,1,17,3.14,24,24,0,0,1,10.81,9.08,28.23,28.23,0,0,1,0,28.26,24.39,24.39,0,0,1-10.81,9.08q-7,3.19-17,3.19h-23.56l4.86-5.08v28Zm10.8-26.92-4.86-5.4h23.24q10.38,0,15.73-4.44t5.35-12.53q0-8.12-5.35-12.54t-15.73-4.43h-23.24l4.86-5.41Z" transform="translate(-19.89 -15.35)"></path><path class="cls-1" d="M1113.17,198.54l34.26-75.67h10.7l34.38,75.67h-11.35l-30.59-69.62h4.32l-30.59,69.62Zm14.59-18.92,2.92-8.65h42.59l3.13,8.65Z" transform="translate(-19.89 -15.35)"></path><path class="cls-1" d="M1209.69,198.54V122.87h10.81v75.67Z" transform="translate(-19.89 -15.35)"></path><path class="cls-1" d="M1239.2,198.54l31.46-42.92V164l-29.73-41.08h12.32l23.57,32.32-4.87.11,23.46-32.43h11.78l-29.51,40.43v-7.78l31.46,43h-12.43l-25.08-34.49h4.75l-24.75,34.49Z" transform="translate(-19.89 -15.35)"></path><path class="cls-1" d="M1359.29,199.4a43.25,43.25,0,0,1-16-2.92,38.15,38.15,0,0,1-12.81-8.16,37.65,37.65,0,0,1-8.43-12.27,40.4,40.4,0,0,1,0-30.7,37.71,37.71,0,0,1,8.43-12.26,38.28,38.28,0,0,1,12.75-8.16,43.19,43.19,0,0,1,16.11-2.92,43.7,43.7,0,0,1,16,2.86A37.7,37.7,0,0,1,1388,133a36.81,36.81,0,0,1,8.38,12.32,41.57,41.57,0,0,1,0,30.86,37,37,0,0,1-8.38,12.27,37.85,37.85,0,0,1-12.75,8.11A43.7,43.7,0,0,1,1359.29,199.4Zm0-9.62a30.76,30.76,0,0,0,11.62-2.16,27.7,27.7,0,0,0,9.3-6.11,28.5,28.5,0,0,0,6.16-9.24,29.81,29.81,0,0,0,2.21-11.57,28.84,28.84,0,0,0-8.37-20.75,27.24,27.24,0,0,0-9.3-6.16,30.76,30.76,0,0,0-11.62-2.16,31.07,31.07,0,0,0-11.73,2.16,27.84,27.84,0,0,0-9.35,6.16,28.86,28.86,0,0,0-6.21,9.24,29.23,29.23,0,0,0-2.22,11.51,29.64,29.64,0,0,0,2.22,11.57,28,28,0,0,0,6.21,9.24,28.32,28.32,0,0,0,9.35,6.11A31.07,31.07,0,0,0,1359.29,189.78Z" transform="translate(-19.89 -15.35)"></path><path class="cls-1" d="M1421.87,198.54V122.87h8.87l50,62.15h-4.64V122.87H1487v75.67h-8.87l-50-62.16h4.64v62.16Z" transform="translate(-19.89 -15.35)"></path><path class="cls-1" d="M1504.13,198.54l34.27-75.67h10.7l34.37,75.67h-11.35l-30.59-69.62h4.32l-30.59,69.62Zm14.59-18.92,2.92-8.65h42.59l3.13,8.65Z" transform="translate(-19.89 -15.35)"></path><path class="cls-1" d="M1600.65,198.54V122.87h31.89a46,46,0,0,1,21.35,4.76,35.2,35.2,0,0,1,14.38,13.29,40.7,40.7,0,0,1,0,39.56,35.15,35.15,0,0,1-14.38,13.3,46,46,0,0,1-21.35,4.76Zm10.81-9.41h20.43a34.84,34.84,0,0,0,16.27-3.57,26,26,0,0,0,10.65-10,31.22,31.22,0,0,0,0-29.78,26.12,26.12,0,0,0-10.65-9.95,34.84,34.84,0,0,0-16.27-3.56h-20.43Z" transform="translate(-19.89 -15.35)"></path><path class="cls-1" d="M1683.34,198.54l34.27-75.67h10.7l34.37,75.67h-11.35l-30.59-69.62h4.33l-30.59,69.62Zm14.6-18.92,2.92-8.65h42.58l3.14,8.65Z" transform="translate(-19.89 -15.35)"></path><path class="cls-1" d="M1801.92,199.4a51.49,51.49,0,0,1-16.54-2.65,33.83,33.83,0,0,1-12.43-6.86l4-8.43a35.17,35.17,0,0,0,11,6.27,39.87,39.87,0,0,0,13.94,2.48,31.48,31.48,0,0,0,10.7-1.51,12.68,12.68,0,0,0,6.05-4.16,9.88,9.88,0,0,0,1.95-6,8.18,8.18,0,0,0-2.54-6.27,18.86,18.86,0,0,0-6.59-3.84,74.34,74.34,0,0,0-8.92-2.54q-4.86-1.08-9.78-2.54a43.17,43.17,0,0,1-9-3.73,18.25,18.25,0,0,1-6.54-6.1,17.89,17.89,0,0,1-2.49-9.89,19.9,19.9,0,0,1,3.08-10.76,21.34,21.34,0,0,1,9.51-7.89q6.43-3,16.38-3a50.33,50.33,0,0,1,13.08,1.73,36.46,36.46,0,0,1,11.24,5l-3.57,8.65a34.66,34.66,0,0,0-10.27-4.71,40.26,40.26,0,0,0-10.48-1.46,28.7,28.7,0,0,0-10.49,1.63,12.77,12.77,0,0,0-6,4.32,10.31,10.31,0,0,0-1.89,6.05,8.32,8.32,0,0,0,2.54,6.38,18,18,0,0,0,6.6,3.78,86.45,86.45,0,0,0,8.91,2.54q4.88,1.14,9.79,2.54a42.25,42.25,0,0,1,9,3.68,18.55,18.55,0,0,1,6.54,6,17.49,17.49,0,0,1,2.48,9.73,19.44,19.44,0,0,1-3.13,10.65,21.68,21.68,0,0,1-9.68,7.89Q1811.86,199.4,1801.92,199.4Z" transform="translate(-19.89 -15.35)"></path><path class="cls-1" d="M1888,198.54V122.87h29.51a41.5,41.5,0,0,1,17,3.14,24.06,24.06,0,0,1,10.81,9.08,28.3,28.3,0,0,1,0,28.26,24.5,24.5,0,0,1-10.81,9.08,40.83,40.83,0,0,1-17,3.19H1893.9l4.87-5.08v28Zm10.81-26.92-4.87-5.4h23.24q10.38,0,15.73-4.44t5.35-12.53q0-8.12-5.35-12.54t-15.73-4.43H1893.9l4.87-5.41Z" transform="translate(-19.89 -15.35)"></path><path class="cls-1" d="M2006.1,199.4a43.25,43.25,0,0,1-16-2.92,38.15,38.15,0,0,1-12.81-8.16,37.65,37.65,0,0,1-8.43-12.27,40.4,40.4,0,0,1,0-30.7,37.71,37.71,0,0,1,8.43-12.26,38.28,38.28,0,0,1,12.75-8.16A43.19,43.19,0,0,1,2006.1,122a43.7,43.7,0,0,1,16,2.86,37.7,37.7,0,0,1,12.75,8.11,36.81,36.81,0,0,1,8.38,12.32,41.57,41.57,0,0,1,0,30.86,37,37,0,0,1-8.38,12.27,37.85,37.85,0,0,1-12.75,8.11A43.7,43.7,0,0,1,2006.1,199.4Zm0-9.62a30.76,30.76,0,0,0,11.62-2.16,27.7,27.7,0,0,0,9.3-6.11,28.5,28.5,0,0,0,6.16-9.24,29.81,29.81,0,0,0,2.21-11.57A28.84,28.84,0,0,0,2027,140a27.24,27.24,0,0,0-9.3-6.16,30.76,30.76,0,0,0-11.62-2.16,31.07,31.07,0,0,0-11.73,2.16A27.84,27.84,0,0,0,1985,140a28.86,28.86,0,0,0-6.21,9.24,29.23,29.23,0,0,0-2.22,11.51,29.64,29.64,0,0,0,2.22,11.57,28,28,0,0,0,6.21,9.24,28.32,28.32,0,0,0,9.35,6.11A31.07,31.07,0,0,0,2006.1,189.78Z" transform="translate(-19.89 -15.35)"></path><path class="cls-1" d="M2068.68,198.54V122.87h29.51a41.47,41.47,0,0,1,17,3.14,24,24,0,0,1,10.81,9.08,28.23,28.23,0,0,1,0,28.26,24.1,24.1,0,0,1-10.81,9,41.47,41.47,0,0,1-17,3.13h-23.56l4.86-5v28Zm10.81-26.92-4.86-5.3h23.24q10.38,0,15.73-4.48t5.35-12.59q0-8.12-5.35-12.54t-15.73-4.43h-23.24l4.86-5.41Zm39.78,26.92L2100,171.08h11.57l19.45,27.46Z" transform="translate(-19.89 -15.35)"></path><path class="cls-1" d="M2210.07,198.54l-33.3-75.67h11.68L2219,192.7h-6.7l30.8-69.83H2254l-33.18,75.67Z" transform="translate(-19.89 -15.35)"></path><path class="cls-1" d="M2269.52,198.54V122.87h10.8v75.67Z" transform="translate(-19.89 -15.35)"></path><path class="cls-1" d="M2297.51,198.54l34.27-75.67h10.7l34.37,75.67H2365.5l-30.59-69.62h4.32l-30.59,69.62Zm14.59-18.92L2315,171h42.59l3.13,8.65Z" transform="translate(-19.89 -15.35)"></path><path class="cls-1" d="M2427.11,199.4a43.9,43.9,0,0,1-16.1-2.86,37.51,37.51,0,0,1-21.19-20.38,40.93,40.93,0,0,1,0-30.91,37.21,37.21,0,0,1,8.49-12.27,38.21,38.21,0,0,1,12.8-8.11,47.55,47.55,0,0,1,32.65.06,32.37,32.37,0,0,1,12.64,8.75l-6.7,6.7a30.08,30.08,0,0,0-10.1-6.65,34.56,34.56,0,0,0-23.89.06,28.76,28.76,0,0,0-9.62,6.05,27,27,0,0,0-6.27,9.24,30,30,0,0,0-2.22,11.62,29.69,29.69,0,0,0,2.22,11.51,27.42,27.42,0,0,0,6.27,9.3,28.42,28.42,0,0,0,9.56,6.11,32.65,32.65,0,0,0,12,2.16,35.87,35.87,0,0,0,11.62-1.89,28.52,28.52,0,0,0,10.32-6.33l6.17,8.22a38.42,38.42,0,0,1-13.14,7.19A50.1,50.1,0,0,1,2427.11,199.4Zm18.27-11v-28.1h10.38v29.51Z" transform="translate(-19.89 -15.35)"></path><path class="cls-1" d="M2493.15,189.13h44.1v9.41h-54.91V122.87h53.4v9.41h-42.59Zm-1-33.61h38.91v9.18h-38.91Z" transform="translate(-19.89 -15.35)"></path><path class="cls-1" d="M2560.71,198.54V122.87h8.86l50,62.15H2615V122.87h10.81v75.67h-8.86l-50.05-62.16h4.65v62.16Z" transform="translate(-19.89 -15.35)"></path><path class="cls-1" d="M2676.48,199.4a51.49,51.49,0,0,1-16.54-2.65,33.75,33.75,0,0,1-12.43-6.86l4-8.43a35.11,35.11,0,0,0,11,6.27,40,40,0,0,0,13.95,2.48,31.52,31.52,0,0,0,10.7-1.51,12.78,12.78,0,0,0,6.05-4.16,9.87,9.87,0,0,0,1.94-6,8.15,8.15,0,0,0-2.54-6.27,18.86,18.86,0,0,0-6.59-3.84,73.29,73.29,0,0,0-8.92-2.54q-4.86-1.08-9.78-2.54a43.17,43.17,0,0,1-9-3.73,18.41,18.41,0,0,1-6.54-6.1,17.89,17.89,0,0,1-2.49-9.89,19.9,19.9,0,0,1,3.08-10.76,21.42,21.42,0,0,1,9.52-7.89q6.42-3,16.37-3a50.22,50.22,0,0,1,13.08,1.73,36.35,36.35,0,0,1,11.24,5l-3.56,8.65a34.89,34.89,0,0,0-10.27-4.71,40.34,40.34,0,0,0-10.49-1.46,28.64,28.64,0,0,0-10.48,1.63,12.77,12.77,0,0,0-6,4.32,10.31,10.31,0,0,0-1.89,6.05,8.29,8.29,0,0,0,2.54,6.38,18,18,0,0,0,6.59,3.78,86.66,86.66,0,0,0,8.92,2.54q4.86,1.14,9.78,2.54a42,42,0,0,1,9,3.68,18.55,18.55,0,0,1,6.54,6,17.41,17.41,0,0,1,2.49,9.73,19.45,19.45,0,0,1-3.14,10.65,21.65,21.65,0,0,1-9.67,7.89Q2686.42,199.4,2676.48,199.4Z" transform="translate(-19.89 -15.35)"></path><path class="cls-1" d="M2724,214.53l5.41-21.83,1.4,6.27a7.43,7.43,0,0,1-5.24-1.95,6.87,6.87,0,0,1-2.11-5.29,7.11,7.11,0,0,1,7.25-7.35,6.62,6.62,0,0,1,5.08,2.1,7.49,7.49,0,0,1,1.94,5.25,13.14,13.14,0,0,1-.16,2.1,21.94,21.94,0,0,1-.54,2.38c-.26.9-.63,2-1.14,3.3l-5.08,15Z" transform="translate(-19.89 -15.35)"></path><path class="cls-1" d="M70.59,305.19V229.53H100.1a41.5,41.5,0,0,1,17,3.14,24.06,24.06,0,0,1,10.81,9.08,28.3,28.3,0,0,1,0,28.26,24.5,24.5,0,0,1-10.81,9.08,40.83,40.83,0,0,1-17,3.19H76.53l4.87-5.08v28ZM81.4,278.28l-4.87-5.4H99.77q10.38,0,15.73-4.44t5.35-12.54q0-8.1-5.35-12.53t-15.73-4.44H76.53l4.87-5.4Z" transform="translate(-19.89 -15.35)"></path><path class="cls-1" d="M164.3,295.79h44.1v9.4H153.49V229.53h53.4v9.4H164.3Zm-1-33.62h38.91v9.19H163.33Z" transform="translate(-19.89 -15.35)"></path><path class="cls-1" d="M253.91,306.06a51.49,51.49,0,0,1-16.54-2.65,33.83,33.83,0,0,1-12.43-6.86l4-8.43a35.17,35.17,0,0,0,11,6.27,39.87,39.87,0,0,0,13.94,2.48,31.52,31.52,0,0,0,10.7-1.51,12.68,12.68,0,0,0,6.05-4.16,9.88,9.88,0,0,0,1.95-6,8.18,8.18,0,0,0-2.54-6.27,18.76,18.76,0,0,0-6.6-3.84,73.63,73.63,0,0,0-8.91-2.54q-4.87-1.08-9.78-2.54a43.81,43.81,0,0,1-9-3.73,18.35,18.35,0,0,1-6.54-6.11,17.92,17.92,0,0,1-2.48-9.89,19.81,19.81,0,0,1,3.08-10.75,21.34,21.34,0,0,1,9.51-7.89q6.44-3,16.38-3a50.2,50.2,0,0,1,13.07,1.73,36.52,36.52,0,0,1,11.25,5L276.5,244a34.77,34.77,0,0,0-10.27-4.71,40.26,40.26,0,0,0-10.48-1.46,28.66,28.66,0,0,0-10.49,1.63,12.77,12.77,0,0,0-6,4.32,10.31,10.31,0,0,0-1.89,6,8.32,8.32,0,0,0,2.54,6.38A18.19,18.19,0,0,0,246.5,260a87.39,87.39,0,0,0,8.92,2.54q4.86,1.14,9.78,2.54a41.82,41.82,0,0,1,9,3.68,18.55,18.55,0,0,1,6.54,6.05,17.47,17.47,0,0,1,2.48,9.73,19.44,19.44,0,0,1-3.13,10.65,21.68,21.68,0,0,1-9.68,7.89Q263.85,306.06,253.91,306.06Z" transform="translate(-19.89 -15.35)"></path><path class="cls-1" d="M327,306.06a51.49,51.49,0,0,1-16.54-2.65A33.75,33.75,0,0,1,298,296.55l4-8.43a35.11,35.11,0,0,0,11,6.27,40,40,0,0,0,14,2.48,31.52,31.52,0,0,0,10.7-1.51,12.73,12.73,0,0,0,6.05-4.16,9.88,9.88,0,0,0,1.95-6,8.18,8.18,0,0,0-2.54-6.27,18.85,18.85,0,0,0-6.6-3.84,73.29,73.29,0,0,0-8.92-2.54q-4.86-1.08-9.78-2.54a43.72,43.72,0,0,1-9-3.73,18.35,18.35,0,0,1-6.54-6.11,17.84,17.84,0,0,1-2.48-9.89,19.81,19.81,0,0,1,3.08-10.75,21.34,21.34,0,0,1,9.51-7.89q6.42-3,16.37-3a50.22,50.22,0,0,1,13.08,1.73,36.35,36.35,0,0,1,11.24,5L349.57,244a34.89,34.89,0,0,0-10.27-4.71,40.34,40.34,0,0,0-10.49-1.46,28.64,28.64,0,0,0-10.48,1.63,12.77,12.77,0,0,0-6,4.32,10.31,10.31,0,0,0-1.89,6,8.29,8.29,0,0,0,2.54,6.38,18.19,18.19,0,0,0,6.59,3.78,86.66,86.66,0,0,0,8.92,2.54q4.86,1.14,9.78,2.54a41.52,41.52,0,0,1,9,3.68,18.46,18.46,0,0,1,6.54,6.05,17.39,17.39,0,0,1,2.49,9.73,19.45,19.45,0,0,1-3.14,10.65,21.65,21.65,0,0,1-9.67,7.89Q336.92,306.06,327,306.06Z" transform="translate(-19.89 -15.35)"></path><path class="cls-1" d="M412.15,306.06a43.25,43.25,0,0,1-16-2.92A38.3,38.3,0,0,1,383.29,295a37.65,37.65,0,0,1-8.43-12.27,40.4,40.4,0,0,1,0-30.7,37.71,37.71,0,0,1,8.43-12.26,38.41,38.41,0,0,1,12.76-8.17,46.09,46.09,0,0,1,32.1-.05,37.7,37.7,0,0,1,12.75,8.11A36.67,36.67,0,0,1,449.28,252a41.57,41.57,0,0,1,0,30.86,37,37,0,0,1-8.38,12.27,37.68,37.68,0,0,1-12.75,8.1A43.71,43.71,0,0,1,412.15,306.06Zm0-9.62a30.76,30.76,0,0,0,11.62-2.16,27.7,27.7,0,0,0,9.3-6.11,28.5,28.5,0,0,0,6.16-9.24,29.81,29.81,0,0,0,2.21-11.57,28.84,28.84,0,0,0-8.37-20.75,27.24,27.24,0,0,0-9.3-6.16,30.76,30.76,0,0,0-11.62-2.16,31.07,31.07,0,0,0-11.73,2.16,27.84,27.84,0,0,0-9.35,6.16,28.86,28.86,0,0,0-6.21,9.24,29.23,29.23,0,0,0-2.22,11.51,29.64,29.64,0,0,0,2.22,11.57,28,28,0,0,0,6.21,9.24,28.32,28.32,0,0,0,9.35,6.11A31.07,31.07,0,0,0,412.15,296.44Z" transform="translate(-19.89 -15.35)"></path><path class="cls-1" d="M462.2,305.19l34.26-75.66h10.7l34.38,75.66H530.19L499.6,235.58h4.32l-30.59,69.61Zm14.59-18.91,2.92-8.65H522.3l3.13,8.65Z" transform="translate(-19.89 -15.35)"></path><path class="cls-1" d="M580.77,306.06a51.54,51.54,0,0,1-16.54-2.65,33.83,33.83,0,0,1-12.43-6.86l4-8.43a35.17,35.17,0,0,0,11,6.27,39.91,39.91,0,0,0,13.94,2.48,31.48,31.48,0,0,0,10.7-1.51,12.76,12.76,0,0,0,6.06-4.16,9.94,9.94,0,0,0,1.94-6,8.18,8.18,0,0,0-2.54-6.27,18.71,18.71,0,0,0-6.59-3.84,73.81,73.81,0,0,0-8.92-2.54q-4.86-1.08-9.78-2.54a43.72,43.72,0,0,1-9-3.73,18.19,18.19,0,0,1-6.54-6.11,17.84,17.84,0,0,1-2.49-9.89,19.89,19.89,0,0,1,3.08-10.75,21.45,21.45,0,0,1,9.51-7.89q6.43-3,16.38-3a50.33,50.33,0,0,1,13.08,1.73,36.46,36.46,0,0,1,11.24,5L603.36,244a34.66,34.66,0,0,0-10.27-4.71,40.21,40.21,0,0,0-10.48-1.46,28.7,28.7,0,0,0-10.49,1.63,12.74,12.74,0,0,0-6,4.32,10.25,10.25,0,0,0-1.9,6,8.32,8.32,0,0,0,2.54,6.38,18.32,18.32,0,0,0,6.6,3.78,86.45,86.45,0,0,0,8.91,2.54q4.88,1.14,9.79,2.54a41.52,41.52,0,0,1,9,3.68,18.55,18.55,0,0,1,6.54,6.05,17.39,17.39,0,0,1,2.48,9.73,19.44,19.44,0,0,1-3.13,10.65,21.71,21.71,0,0,1-9.67,7.89Q590.7,306.06,580.77,306.06Z" transform="translate(-19.89 -15.35)"></path><path class="cls-1" d="M677.62,295.79h44.1v9.4H666.81V229.53h53.4v9.4H677.62Zm-1-33.62h38.91v9.19H676.65Z" transform="translate(-19.89 -15.35)"></path><path class="cls-1" d="M814,306.06a43.2,43.2,0,0,1-15.94-2.87,37.24,37.24,0,0,1-12.65-8.1,38.19,38.19,0,0,1-8.38-12.27,41.06,41.06,0,0,1,0-30.91,37.65,37.65,0,0,1,21.13-20.38,45.67,45.67,0,0,1,32.11.11,33.14,33.14,0,0,1,12.59,8.81l-7,6.81a28.06,28.06,0,0,0-9.72-6.76,30.36,30.36,0,0,0-11.57-2.21,31.91,31.91,0,0,0-11.84,2.16,28.31,28.31,0,0,0-9.45,6.05,27.43,27.43,0,0,0-6.22,9.24,31.52,31.52,0,0,0,0,23.24,27.24,27.24,0,0,0,6.22,9.24,28.18,28.18,0,0,0,9.45,6.06,31.91,31.91,0,0,0,11.84,2.16,30.18,30.18,0,0,0,11.57-2.22,27.32,27.32,0,0,0,9.72-6.86l7,6.81A33.59,33.59,0,0,1,830.3,303,42.58,42.58,0,0,1,814,306.06Z" transform="translate(-19.89 -15.35)"></path><path class="cls-1" d="M895.64,306.06q-14.92,0-23.46-8.54t-8.54-25v-43h10.81v42.59q0,12.64,5.57,18.48t15.73,5.84q10.26,0,15.83-5.84t5.57-18.48V229.53h10.48v43q0,16.44-8.48,25T895.64,306.06Z" transform="translate(-19.89 -15.35)"></path><path class="cls-1" d="M955.73,305.19V229.53h10.81v66.26h41v9.4Z" transform="translate(-19.89 -15.35)"></path><path class="cls-1" d="M1033.88,305.19V238.93h-25.94v-9.4h62.59v9.4h-25.94v66.26Z" transform="translate(-19.89 -15.35)"></path><path class="cls-1" d="M1118.2,306.06q-14.92,0-23.46-8.54t-8.54-25v-43H1097v42.59q0,12.64,5.57,18.48t15.72,5.84q10.28,0,15.84-5.84t5.57-18.48V229.53h10.48v43q0,16.44-8.48,25T1118.2,306.06Z" transform="translate(-19.89 -15.35)"></path><path class="cls-1" d="M1178.29,305.19V229.53h29.51a41.47,41.47,0,0,1,17,3.14,24,24,0,0,1,10.81,9.08,28.3,28.3,0,0,1,0,28.26,24.15,24.15,0,0,1-10.81,9,41.47,41.47,0,0,1-17,3.13h-23.56l4.86-5v28Zm10.81-26.91-4.86-5.3h23.24q10.37,0,15.72-4.48t5.35-12.6q0-8.1-5.35-12.53t-15.72-4.44h-23.24l4.86-5.4Zm39.78,26.91-19.24-27.45h11.56l19.46,27.45Z" transform="translate(-19.89 -15.35)"></path><path class="cls-1" d="M1251.36,305.19l34.27-75.66h10.7l34.37,75.66h-11.35l-30.59-69.61h4.32l-30.59,69.61ZM1266,286.28l2.92-8.65h42.59l3.13,8.65Z" transform="translate(-19.89 -15.35)"></path><path class="cls-1" d="M1369.94,306.06a51.49,51.49,0,0,1-16.54-2.65,33.75,33.75,0,0,1-12.43-6.86l4-8.43a35.11,35.11,0,0,0,11,6.27,40,40,0,0,0,14,2.48,31.52,31.52,0,0,0,10.7-1.51,12.78,12.78,0,0,0,6-4.16,9.88,9.88,0,0,0,2-6,8.18,8.18,0,0,0-2.54-6.27,18.85,18.85,0,0,0-6.6-3.84,73.29,73.29,0,0,0-8.92-2.54q-4.86-1.08-9.78-2.54a43.72,43.72,0,0,1-9-3.73,18.35,18.35,0,0,1-6.54-6.11,17.84,17.84,0,0,1-2.49-9.89,19.81,19.81,0,0,1,3.09-10.75,21.34,21.34,0,0,1,9.51-7.89q6.42-3,16.37-3a50.22,50.22,0,0,1,13.08,1.73,36.35,36.35,0,0,1,11.24,5l-3.56,8.65a34.89,34.89,0,0,0-10.27-4.71,40.34,40.34,0,0,0-10.49-1.46,28.64,28.64,0,0,0-10.48,1.63,12.77,12.77,0,0,0-6,4.32,10.31,10.31,0,0,0-1.89,6,8.29,8.29,0,0,0,2.54,6.38,18.19,18.19,0,0,0,6.59,3.78,86.66,86.66,0,0,0,8.92,2.54q4.86,1.14,9.78,2.54a41.52,41.52,0,0,1,9,3.68,18.55,18.55,0,0,1,6.54,6.05,17.39,17.39,0,0,1,2.49,9.73,19.45,19.45,0,0,1-3.14,10.65,21.65,21.65,0,0,1-9.67,7.89Q1379.88,306.06,1369.94,306.06Z" transform="translate(-19.89 -15.35)"></path><path class="cls-1" d="M1456,305.19V229.53h31.89a46,46,0,0,1,21.35,4.76,35.11,35.11,0,0,1,14.37,13.29,40.63,40.63,0,0,1,0,39.56,35.07,35.07,0,0,1-14.37,13.3,46,46,0,0,1-21.35,4.75Zm10.81-9.4h20.43a34.84,34.84,0,0,0,16.27-3.57,26,26,0,0,0,10.65-10,31.22,31.22,0,0,0,0-29.78,26,26,0,0,0-10.65-9.95,34.84,34.84,0,0,0-16.27-3.57h-20.43Z" transform="translate(-19.89 -15.35)"></path><path class="cls-1" d="M1551.2,305.19V229.53H1562v75.66Z" transform="translate(-19.89 -15.35)"></path><path class="cls-1" d="M1601.46,305.19h-10.81V229.53h53.4v9.4h-42.59Zm-1.08-39.88h39v9.29h-39Z" transform="translate(-19.89 -15.35)"></path><path class="cls-1" d="M1676,295.79h44.11v9.4h-54.91V229.53h53.39v9.4H1676Zm-1-33.62H1714v9.19h-38.92Z" transform="translate(-19.89 -15.35)"></path><path class="cls-1" d="M1743.6,305.19V229.53h29.51a41.47,41.47,0,0,1,17,3.14,24,24,0,0,1,10.81,9.08,28.3,28.3,0,0,1,0,28.26,24.15,24.15,0,0,1-10.81,9,41.47,41.47,0,0,1-17,3.13h-23.56l4.86-5v28Zm10.81-26.91-4.86-5.3h23.24q10.37,0,15.72-4.48t5.35-12.6q0-8.1-5.35-12.53t-15.72-4.44h-23.24l4.86-5.4Zm39.78,26.91L1775,277.74h11.56L1806,305.19Z" transform="translate(-19.89 -15.35)"></path><path class="cls-1" d="M1838.94,295.79H1883v9.4h-54.91V229.53h53.39v9.4h-42.58Zm-1-33.62h38.92v9.19H1838Z" transform="translate(-19.89 -15.35)"></path><path class="cls-1" d="M1906.49,305.19V229.53h8.87l50,62.15h-4.64V229.53h10.8v75.66h-8.86l-50-62.15h4.65v62.15Z" transform="translate(-19.89 -15.35)"></path><path class="cls-1" d="M2015.23,305.19V238.93h-25.94v-9.4h62.58v9.4h-25.94v66.26Z" transform="translate(-19.89 -15.35)"></path><path class="cls-1" d="M2080.41,295.79h44.1v9.4H2069.6V229.53H2123v9.4h-42.59Zm-1-33.62h38.91v9.19h-38.91Z" transform="translate(-19.89 -15.35)"></path><path class="cls-1" d="M2170,306.06a51.49,51.49,0,0,1-16.54-2.65,33.83,33.83,0,0,1-12.43-6.86l4-8.43a35.23,35.23,0,0,0,11,6.27,40,40,0,0,0,13.95,2.48,31.52,31.52,0,0,0,10.7-1.51,12.68,12.68,0,0,0,6.05-4.16,9.88,9.88,0,0,0,1.95-6,8.18,8.18,0,0,0-2.54-6.27,18.76,18.76,0,0,0-6.6-3.84,73.63,73.63,0,0,0-8.91-2.54q-4.87-1.08-9.79-2.54a43.72,43.72,0,0,1-9-3.73,18.35,18.35,0,0,1-6.54-6.11,17.84,17.84,0,0,1-2.48-9.89,19.81,19.81,0,0,1,3.08-10.75,21.34,21.34,0,0,1,9.51-7.89q6.43-3,16.38-3a50.2,50.2,0,0,1,13.07,1.73,36.52,36.52,0,0,1,11.25,5l-3.57,8.65a34.77,34.77,0,0,0-10.27-4.71,40.26,40.26,0,0,0-10.48-1.46,28.66,28.66,0,0,0-10.49,1.63,12.77,12.77,0,0,0-6,4.32,10.31,10.31,0,0,0-1.89,6,8.32,8.32,0,0,0,2.54,6.38,18.19,18.19,0,0,0,6.59,3.78,87.39,87.39,0,0,0,8.92,2.54q4.86,1.14,9.78,2.54a41.52,41.52,0,0,1,9,3.68,18.38,18.38,0,0,1,6.54,6.05,17.39,17.39,0,0,1,2.49,9.73,19.44,19.44,0,0,1-3.13,10.65,21.74,21.74,0,0,1-9.68,7.89Q2180,306.06,2170,306.06Z" transform="translate(-19.89 -15.35)"></path><path class="cls-1" d="M2224.17,305.84a7.28,7.28,0,0,1-7.35-7.46,7,7,0,0,1,2.16-5.29,7.27,7.27,0,0,1,5.19-2.06,7,7,0,0,1,5,2.06,7.07,7.07,0,0,1,2.1,5.29,7.28,7.28,0,0,1-2.1,5.36A6.9,6.9,0,0,1,2224.17,305.84Z" transform="translate(-19.89 -15.35)"></path><path class="cls-1" d="M2310.75,306.06a51.49,51.49,0,0,1-16.54-2.65,33.83,33.83,0,0,1-12.43-6.86l4-8.43a35.23,35.23,0,0,0,11,6.27,40,40,0,0,0,13.95,2.48,31.52,31.52,0,0,0,10.7-1.51,12.68,12.68,0,0,0,6.05-4.16,9.88,9.88,0,0,0,1.95-6,8.18,8.18,0,0,0-2.54-6.27,18.76,18.76,0,0,0-6.6-3.84,73.63,73.63,0,0,0-8.91-2.54q-4.87-1.08-9.79-2.54a44,44,0,0,1-9-3.73,18.35,18.35,0,0,1-6.54-6.11,17.92,17.92,0,0,1-2.48-9.89,19.81,19.81,0,0,1,3.08-10.75,21.34,21.34,0,0,1,9.51-7.89q6.43-3,16.38-3a50.2,50.2,0,0,1,13.07,1.73,36.52,36.52,0,0,1,11.25,5l-3.57,8.65a34.77,34.77,0,0,0-10.27-4.71,40.26,40.26,0,0,0-10.48-1.46,28.66,28.66,0,0,0-10.49,1.63,12.77,12.77,0,0,0-6,4.32,10.31,10.31,0,0,0-1.89,6,8.32,8.32,0,0,0,2.54,6.38,18.19,18.19,0,0,0,6.59,3.78,87.39,87.39,0,0,0,8.92,2.54q4.86,1.14,9.78,2.54a41.82,41.82,0,0,1,9,3.68,18.43,18.43,0,0,1,6.53,6.05,17.39,17.39,0,0,1,2.49,9.73,19.44,19.44,0,0,1-3.13,10.65,21.68,21.68,0,0,1-9.68,7.89Q2320.69,306.06,2310.75,306.06Z" transform="translate(-19.89 -15.35)"></path><path class="cls-1" d="M2395.92,306.06a43.32,43.32,0,0,1-16.05-2.92,38.3,38.3,0,0,1-12.81-8.16,37.65,37.65,0,0,1-8.43-12.27,40.4,40.4,0,0,1,0-30.7,37.71,37.71,0,0,1,8.43-12.26,38.41,38.41,0,0,1,12.76-8.17,46.09,46.09,0,0,1,32.1-.05,37.7,37.7,0,0,1,12.75,8.11,36.67,36.67,0,0,1,8.38,12.32,41.57,41.57,0,0,1,0,30.86,37,37,0,0,1-8.38,12.27,37.68,37.68,0,0,1-12.75,8.1A43.67,43.67,0,0,1,2395.92,306.06Zm0-9.62a30.76,30.76,0,0,0,11.62-2.16,27.6,27.6,0,0,0,9.3-6.11,28.5,28.5,0,0,0,6.16-9.24,29.81,29.81,0,0,0,2.21-11.57,28.84,28.84,0,0,0-8.37-20.75,27.14,27.14,0,0,0-9.3-6.16,30.76,30.76,0,0,0-11.62-2.16,31.07,31.07,0,0,0-11.73,2.16,27.84,27.84,0,0,0-9.35,6.16,28.68,28.68,0,0,0-8.43,20.75,29.64,29.64,0,0,0,2.22,11.57,28,28,0,0,0,15.56,15.35A31.07,31.07,0,0,0,2395.92,296.44Z" transform="translate(-19.89 -15.35)"></path><path class="cls-1" d="M2458.51,305.19V229.53h8.86l33.94,57.18h-4.76l33.51-57.18h8.87l.1,75.66h-10.37l-.11-59.34H2531L2501.2,296h-5l-30.05-50.16h2.7v59.34Z" transform="translate(-19.89 -15.35)"></path><path class="cls-1" d="M2601.83,306.06a43.32,43.32,0,0,1-16-2.92A38.5,38.5,0,0,1,2573,295a37.65,37.65,0,0,1-8.43-12.27,40.52,40.52,0,0,1,0-30.7,37.71,37.71,0,0,1,8.43-12.26,38.61,38.61,0,0,1,12.76-8.17,46.09,46.09,0,0,1,32.1-.05,37.84,37.84,0,0,1,12.76,8.11A36.78,36.78,0,0,1,2639,252a41.44,41.44,0,0,1,0,30.86,37.08,37.08,0,0,1-8.37,12.27,37.82,37.82,0,0,1-12.76,8.1A43.67,43.67,0,0,1,2601.83,306.06Zm0-9.62a30.72,30.72,0,0,0,11.62-2.16,27.6,27.6,0,0,0,9.3-6.11,28.5,28.5,0,0,0,6.16-9.24,29.64,29.64,0,0,0,2.22-11.57,28.91,28.91,0,0,0-8.38-20.75,27.14,27.14,0,0,0-9.3-6.16,32.6,32.6,0,0,0-23.34,0,27.64,27.64,0,0,0-9.35,6.16,28.89,28.89,0,0,0-6.22,9.24,29.23,29.23,0,0,0-2.22,11.51,29.64,29.64,0,0,0,2.22,11.57,28.11,28.11,0,0,0,15.57,15.35A31,31,0,0,0,2601.83,296.44Z" transform="translate(-19.89 -15.35)"></path><path class="cls-1" d="M2686.47,306.06a51.49,51.49,0,0,1-16.54-2.65,33.83,33.83,0,0,1-12.43-6.86l4-8.43a35.17,35.17,0,0,0,11,6.27,39.87,39.87,0,0,0,13.94,2.48,31.52,31.52,0,0,0,10.7-1.51,12.68,12.68,0,0,0,6-4.16,9.88,9.88,0,0,0,2-6,8.18,8.18,0,0,0-2.54-6.27,18.76,18.76,0,0,0-6.6-3.84,73.63,73.63,0,0,0-8.91-2.54q-4.87-1.08-9.78-2.54a44,44,0,0,1-9-3.73,18.35,18.35,0,0,1-6.54-6.11,17.92,17.92,0,0,1-2.48-9.89,19.81,19.81,0,0,1,3.08-10.75,21.34,21.34,0,0,1,9.51-7.89q6.43-3,16.38-3a50.33,50.33,0,0,1,13.08,1.73,36.56,36.56,0,0,1,11.24,5l-3.57,8.65a34.77,34.77,0,0,0-10.27-4.71,40.26,40.26,0,0,0-10.48-1.46,28.66,28.66,0,0,0-10.49,1.63,12.77,12.77,0,0,0-6,4.32,10.31,10.31,0,0,0-1.89,6,8.32,8.32,0,0,0,2.54,6.38,18.15,18.15,0,0,0,6.6,3.78,86.45,86.45,0,0,0,8.91,2.54q4.88,1.14,9.78,2.54a41.82,41.82,0,0,1,9,3.68,18.55,18.55,0,0,1,6.54,6.05,17.47,17.47,0,0,1,2.48,9.73,19.44,19.44,0,0,1-3.13,10.65,21.68,21.68,0,0,1-9.68,7.89Q2696.41,306.06,2686.47,306.06Z" transform="translate(-19.89 -15.35)"></path><path class="cls-1" d="M33.51,411.85V336.19H44.32v66.26h41v9.4Z" transform="translate(-19.89 -15.35)"></path><path class="cls-1" d="M136.41,412.72a43.32,43.32,0,0,1-16-2.92,38.46,38.46,0,0,1-12.81-8.16,37.75,37.75,0,0,1-8.43-12.27,40.4,40.4,0,0,1,0-30.7,37.86,37.86,0,0,1,8.43-12.27,38.64,38.64,0,0,1,12.76-8.16,45.94,45.94,0,0,1,32.1-.05,37.7,37.7,0,0,1,12.75,8.11,36.67,36.67,0,0,1,8.38,12.32,41.57,41.57,0,0,1,0,30.86,37,37,0,0,1-8.38,12.27,37.83,37.83,0,0,1-12.75,8.1A43.67,43.67,0,0,1,136.41,412.72Zm0-9.62A30.72,30.72,0,0,0,148,400.94a27.6,27.6,0,0,0,9.3-6.11,28.5,28.5,0,0,0,6.16-9.24A29.64,29.64,0,0,0,165.71,374a28.91,28.91,0,0,0-8.38-20.75,27.14,27.14,0,0,0-9.3-6.16,30.73,30.73,0,0,0-11.62-2.17,31.08,31.08,0,0,0-11.73,2.17,27.7,27.7,0,0,0-9.34,6.16,28.78,28.78,0,0,0-6.22,9.24A29.23,29.23,0,0,0,106.9,374a29.64,29.64,0,0,0,2.22,11.57,28.13,28.13,0,0,0,15.56,15.35A31.07,31.07,0,0,0,136.41,403.1Z" transform="translate(-19.89 -15.35)"></path><path class="cls-1" d="M230.34,412.72q-14.91,0-23.45-8.54t-8.54-25v-43h10.81v42.59q0,12.64,5.56,18.48t15.73,5.84q10.28,0,15.84-5.84t5.56-18.48V336.19h10.49v43q0,16.43-8.49,25T230.34,412.72Z" transform="translate(-19.89 -15.35)"></path><path class="cls-1" d="M324.27,412.72a43.23,43.23,0,0,1-15.94-2.87,37.49,37.49,0,0,1-12.65-8.1,38.16,38.16,0,0,1-8.37-12.27,41,41,0,0,1,0-30.92,37.67,37.67,0,0,1,21.13-20.37,45.5,45.5,0,0,1,32.1.11,33.06,33.06,0,0,1,12.59,8.81l-7,6.81a28.19,28.19,0,0,0-9.73-6.76,30.18,30.18,0,0,0-11.57-2.22A31.82,31.82,0,0,0,313,347.11a28.36,28.36,0,0,0-9.46,6.05,27.24,27.24,0,0,0-6.22,9.24,31.65,31.65,0,0,0,0,23.24,27.24,27.24,0,0,0,6.22,9.24,28.22,28.22,0,0,0,9.46,6.06,31.82,31.82,0,0,0,11.83,2.16,30.18,30.18,0,0,0,11.57-2.22,27.44,27.44,0,0,0,9.73-6.86l7,6.81a33.63,33.63,0,0,1-12.59,8.86A42.58,42.58,0,0,1,324.27,412.72Z" transform="translate(-19.89 -15.35)"></path><path class="cls-1" d="M361.24,411.85l34.26-75.66h10.7l34.38,75.66H429.23l-30.59-69.61H403l-30.59,69.61Zm14.59-18.91,2.92-8.65h42.59l3.13,8.65Z" transform="translate(-19.89 -15.35)"></path><path class="cls-1" d="M479.81,412.72a51.48,51.48,0,0,1-16.53-2.65,33.89,33.89,0,0,1-12.43-6.86l4-8.44a34.73,34.73,0,0,0,11,6.27,39.74,39.74,0,0,0,13.94,2.49A31.55,31.55,0,0,0,490.52,402a12.78,12.78,0,0,0,6.05-4.16,9.87,9.87,0,0,0,1.94-6,8.15,8.15,0,0,0-2.54-6.27,18.71,18.71,0,0,0-6.59-3.84,73.29,73.29,0,0,0-8.92-2.54q-4.86-1.08-9.78-2.54a43.72,43.72,0,0,1-9-3.73,18.35,18.35,0,0,1-6.54-6.11,17.84,17.84,0,0,1-2.49-9.89,19.89,19.89,0,0,1,3.08-10.75,21.42,21.42,0,0,1,9.52-7.89q6.42-3,16.37-3a50.65,50.65,0,0,1,13.08,1.73A36.47,36.47,0,0,1,506,342l-3.56,8.64a34.86,34.86,0,0,0-10.27-4.7,40.34,40.34,0,0,0-10.49-1.46,28.87,28.87,0,0,0-10.48,1.62,12.78,12.78,0,0,0-6,4.33,10.31,10.31,0,0,0-1.89,6.05,8.3,8.3,0,0,0,2.54,6.38,18.19,18.19,0,0,0,6.59,3.78,89.25,89.25,0,0,0,8.92,2.54q4.86,1.14,9.78,2.54a41.52,41.52,0,0,1,9,3.68,18.55,18.55,0,0,1,6.54,6.05,17.39,17.39,0,0,1,2.49,9.73A19.4,19.4,0,0,1,506,401.85a21.73,21.73,0,0,1-9.67,7.9Q489.76,412.72,479.81,412.72Z" transform="translate(-19.89 -15.35)"></path><path class="cls-1" d="M565.85,411.85V336.19h29.51a41.47,41.47,0,0,1,17,3.13,24.07,24.07,0,0,1,10.81,9.08,25.86,25.86,0,0,1,3.78,14.16,25.57,25.57,0,0,1-3.78,14.11,24.45,24.45,0,0,1-10.81,9.08q-7,3.19-17,3.19H571.8l4.86-5.08v28Zm10.81-26.91-4.86-5.41H595q10.38,0,15.72-4.43t5.36-12.54q0-8.1-5.36-12.54T595,345.59H571.8l4.86-5.4Z" transform="translate(-19.89 -15.35)"></path><path class="cls-1" d="M659.57,402.45h44.1v9.4H648.76V336.19h53.39v9.4H659.57Zm-1-33.62h38.92V378H658.59Z" transform="translate(-19.89 -15.35)"></path><path class="cls-1" d="M727.12,411.85V336.19h10.81v66.26h41v9.4Z" transform="translate(-19.89 -15.35)"></path><path class="cls-1" d="M830,412.72A43.34,43.34,0,0,1,814,409.8a38.52,38.52,0,0,1-12.8-8.16,37.45,37.45,0,0,1-8.43-12.27,40.4,40.4,0,0,1,0-30.7,37.55,37.55,0,0,1,8.43-12.27,38.6,38.6,0,0,1,12.75-8.16,45.94,45.94,0,0,1,32.1-.05,37.84,37.84,0,0,1,12.76,8.11,37,37,0,0,1,8.38,12.32,41.57,41.57,0,0,1,0,30.86,37.26,37.26,0,0,1-8.38,12.27,38,38,0,0,1-12.76,8.1A43.65,43.65,0,0,1,830,412.72Zm0-9.62a30.8,30.8,0,0,0,11.62-2.16,27.66,27.66,0,0,0,9.29-6.11,28.34,28.34,0,0,0,6.16-9.24A29.64,29.64,0,0,0,859.32,374a28.91,28.91,0,0,0-8.38-20.75,27.2,27.2,0,0,0-9.29-6.16,32.49,32.49,0,0,0-23.35,0,27.64,27.64,0,0,0-9.35,6.16,28.78,28.78,0,0,0-6.22,9.24A29.41,29.41,0,0,0,800.52,374a29.81,29.81,0,0,0,2.21,11.57,28.11,28.11,0,0,0,15.57,15.35A31,31,0,0,0,830,403.1Z" transform="translate(-19.89 -15.35)"></path><path class="cls-1" d="M914.66,412.72a51.54,51.54,0,0,1-16.54-2.65,34,34,0,0,1-12.43-6.86l4-8.44a34.78,34.78,0,0,0,11,6.27,39.66,39.66,0,0,0,13.94,2.49,31.48,31.48,0,0,0,10.7-1.51,12.76,12.76,0,0,0,6.06-4.16,9.94,9.94,0,0,0,1.94-6,8.18,8.18,0,0,0-2.54-6.27,18.71,18.71,0,0,0-6.59-3.84,73.81,73.81,0,0,0-8.92-2.54q-4.86-1.08-9.78-2.54a43.72,43.72,0,0,1-9-3.73,18.19,18.19,0,0,1-6.54-6.11,17.84,17.84,0,0,1-2.49-9.89,19.89,19.89,0,0,1,3.08-10.75,21.45,21.45,0,0,1,9.51-7.89q6.43-3,16.38-3a50.76,50.76,0,0,1,13.08,1.73,36.47,36.47,0,0,1,11.24,5l-3.57,8.64A34.63,34.63,0,0,0,927,346a40.21,40.21,0,0,0-10.48-1.46A28.93,28.93,0,0,0,906,346.13a12.75,12.75,0,0,0-6,4.33,10.25,10.25,0,0,0-1.9,6.05,8.34,8.34,0,0,0,2.54,6.38,18.24,18.24,0,0,0,6.6,3.78,89,89,0,0,0,8.91,2.54q4.88,1.14,9.79,2.54a41.52,41.52,0,0,1,9,3.68,18.55,18.55,0,0,1,6.54,6.05,17.47,17.47,0,0,1,2.48,9.73,19.38,19.38,0,0,1-3.13,10.64,21.79,21.79,0,0,1-9.67,7.9Q924.6,412.72,914.66,412.72Z" transform="translate(-19.89 -15.35)"></path><path class="cls-1" d="M1000.7,411.85V336.19h10.81v66.26h41v9.4Z" transform="translate(-19.89 -15.35)"></path><path class="cls-1" d="M1103.6,412.72a43.32,43.32,0,0,1-16-2.92,38.56,38.56,0,0,1-12.81-8.16,37.75,37.75,0,0,1-8.43-12.27,40.52,40.52,0,0,1,0-30.7,37.86,37.86,0,0,1,8.43-12.27,38.75,38.75,0,0,1,12.76-8.16,45.94,45.94,0,0,1,32.1-.05,37.84,37.84,0,0,1,12.76,8.11,36.78,36.78,0,0,1,8.37,12.32,41.57,41.57,0,0,1,0,30.86,37.08,37.08,0,0,1-8.37,12.27,38,38,0,0,1-12.76,8.1A43.67,43.67,0,0,1,1103.6,412.72Zm0-9.62a30.72,30.72,0,0,0,11.62-2.16,27.6,27.6,0,0,0,9.3-6.11,28.5,28.5,0,0,0,6.16-9.24A29.64,29.64,0,0,0,1132.9,374a28.91,28.91,0,0,0-8.38-20.75,27.14,27.14,0,0,0-9.3-6.16,32.46,32.46,0,0,0-23.34,0,27.64,27.64,0,0,0-9.35,6.16,28.78,28.78,0,0,0-6.22,9.24,29.23,29.23,0,0,0-2.22,11.51,29.64,29.64,0,0,0,2.22,11.57,28.11,28.11,0,0,0,15.57,15.35A31,31,0,0,0,1103.6,403.1Z" transform="translate(-19.89 -15.35)"></path><path class="cls-1" d="M1200.34,412.72a43.32,43.32,0,0,1-16-2.92,38.66,38.66,0,0,1-12.81-8.16,37.75,37.75,0,0,1-8.43-12.27,40.52,40.52,0,0,1,0-30.7,37.86,37.86,0,0,1,8.43-12.27,38.75,38.75,0,0,1,12.76-8.16,45.94,45.94,0,0,1,32.1-.05,37.84,37.84,0,0,1,12.76,8.11,36.78,36.78,0,0,1,8.37,12.32,41.44,41.44,0,0,1,0,30.86,37.08,37.08,0,0,1-8.37,12.27,38,38,0,0,1-12.76,8.1A43.67,43.67,0,0,1,1200.34,412.72Zm0-9.62a30.72,30.72,0,0,0,11.62-2.16,27.6,27.6,0,0,0,9.3-6.11,28.5,28.5,0,0,0,6.16-9.24,29.64,29.64,0,0,0,2.22-11.57,28.91,28.91,0,0,0-8.38-20.75,27.14,27.14,0,0,0-9.3-6.16,32.46,32.46,0,0,0-23.34,0,27.64,27.64,0,0,0-9.35,6.16,28.78,28.78,0,0,0-6.22,9.24,29.23,29.23,0,0,0-2.21,11.51,29.63,29.63,0,0,0,2.21,11.57,28.11,28.11,0,0,0,15.57,15.35A31,31,0,0,0,1200.34,403.1Z" transform="translate(-19.89 -15.35)"></path><path class="cls-1" d="M1262.93,411.85V336.19h10.81v75.66Zm9.51-18.26-.54-13.19,42.91-44.21h12.32l-33.18,35-6,6.7Zm44.1,18.26-31-36.1,7.24-8,36.43,44.1Z" transform="translate(-19.89 -15.35)"></path><path class="cls-1" d="M1367,412.72a51.49,51.49,0,0,1-16.54-2.65,34,34,0,0,1-12.43-6.86l4-8.44a34.78,34.78,0,0,0,11,6.27,39.66,39.66,0,0,0,13.94,2.49,31.52,31.52,0,0,0,10.7-1.51,12.68,12.68,0,0,0,6-4.16,9.88,9.88,0,0,0,2-6,8.18,8.18,0,0,0-2.54-6.27,18.8,18.8,0,0,0-6.59-3.84,74.34,74.34,0,0,0-8.92-2.54c-3.24-.72-6.51-1.57-9.78-2.54a44,44,0,0,1-9-3.73,18.35,18.35,0,0,1-6.54-6.11,17.92,17.92,0,0,1-2.48-9.89,19.89,19.89,0,0,1,3.08-10.75,21.34,21.34,0,0,1,9.51-7.89q6.43-3,16.38-3a50.76,50.76,0,0,1,13.08,1.73,36.47,36.47,0,0,1,11.24,5l-3.57,8.64a34.63,34.63,0,0,0-10.27-4.7,40.26,40.26,0,0,0-10.48-1.46,28.89,28.89,0,0,0-10.49,1.62,12.78,12.78,0,0,0-6,4.33,10.31,10.31,0,0,0-1.89,6.05,8.34,8.34,0,0,0,2.54,6.38,18.19,18.19,0,0,0,6.59,3.78,90,90,0,0,0,8.92,2.54c3.25.76,6.5,1.61,9.78,2.54a41.82,41.82,0,0,1,9,3.68,18.55,18.55,0,0,1,6.54,6.05,17.47,17.47,0,0,1,2.48,9.73,19.38,19.38,0,0,1-3.13,10.64,21.76,21.76,0,0,1-9.68,7.9Q1377,412.72,1367,412.72Z" transform="translate(-19.89 -15.35)"></path><path class="cls-1" d="M1453.06,411.85V336.19H1485a46,46,0,0,1,21.34,4.76,35.14,35.14,0,0,1,14.38,13.29,40.7,40.7,0,0,1,0,39.56,35.09,35.09,0,0,1-14.38,13.3,46,46,0,0,1-21.34,4.75Zm10.81-9.4h20.43a34.77,34.77,0,0,0,16.26-3.57,25.91,25.91,0,0,0,10.65-10,31.22,31.22,0,0,0,0-29.78,26,26,0,0,0-10.65-9.94,34.77,34.77,0,0,0-16.26-3.57h-20.43Z" transform="translate(-19.89 -15.35)"></path><path class="cls-1" d="M1535.75,411.85,1570,336.19h10.7l34.37,75.66h-11.34l-30.59-69.61h4.32l-30.59,69.61Zm14.59-18.91,2.92-8.65h42.58l3.14,8.65Z" transform="translate(-19.89 -15.35)"></path><path class="cls-1" d="M1654.32,412.72a51.54,51.54,0,0,1-16.54-2.65,34,34,0,0,1-12.43-6.86l4-8.44a34.78,34.78,0,0,0,11,6.27,39.7,39.7,0,0,0,13.94,2.49A31.48,31.48,0,0,0,1665,402a12.76,12.76,0,0,0,6.06-4.16,9.94,9.94,0,0,0,1.94-6,8.18,8.18,0,0,0-2.54-6.27,18.71,18.71,0,0,0-6.59-3.84,73.81,73.81,0,0,0-8.92-2.54q-4.86-1.08-9.78-2.54a43.72,43.72,0,0,1-9-3.73,18.19,18.19,0,0,1-6.54-6.11,17.84,17.84,0,0,1-2.49-9.89,19.89,19.89,0,0,1,3.08-10.75,21.34,21.34,0,0,1,9.51-7.89q6.43-3,16.38-3a50.76,50.76,0,0,1,13.08,1.73,36.47,36.47,0,0,1,11.24,5l-3.57,8.64a34.63,34.63,0,0,0-10.27-4.7,40.21,40.21,0,0,0-10.48-1.46,28.93,28.93,0,0,0-10.49,1.62,12.8,12.8,0,0,0-6,4.33,10.25,10.25,0,0,0-1.9,6.05,8.34,8.34,0,0,0,2.54,6.38,18.32,18.32,0,0,0,6.6,3.78,89,89,0,0,0,8.91,2.54q4.88,1.14,9.79,2.54a41.52,41.52,0,0,1,9,3.68,18.55,18.55,0,0,1,6.54,6.05,17.47,17.47,0,0,1,2.48,9.73,19.38,19.38,0,0,1-3.13,10.64,21.79,21.79,0,0,1-9.67,7.9Q1664.27,412.72,1654.32,412.72Z" transform="translate(-19.89 -15.35)"></path><path class="cls-1" d="M1740.36,411.85V336.19h8.86l50,62.15h-4.65V336.19h10.81v75.66h-8.86l-50-62.15h4.65v62.15Z" transform="translate(-19.89 -15.35)"></path><path class="cls-1" d="M1868.23,412.72a43.28,43.28,0,0,1-16-2.92,38.46,38.46,0,0,1-12.81-8.16,37.75,37.75,0,0,1-8.43-12.27,40.4,40.4,0,0,1,0-30.7,37.86,37.86,0,0,1,8.43-12.27,38.54,38.54,0,0,1,12.76-8.16,45.94,45.94,0,0,1,32.1-.05A37.7,37.7,0,0,1,1897,346.3a36.67,36.67,0,0,1,8.38,12.32,41.57,41.57,0,0,1,0,30.86,37,37,0,0,1-8.38,12.27,37.83,37.83,0,0,1-12.75,8.1A43.67,43.67,0,0,1,1868.23,412.72Zm0-9.62a30.76,30.76,0,0,0,11.62-2.16,27.6,27.6,0,0,0,9.3-6.11,28.5,28.5,0,0,0,6.16-9.24,29.81,29.81,0,0,0,2.21-11.57,28.84,28.84,0,0,0-8.37-20.75,27.14,27.14,0,0,0-9.3-6.16,30.77,30.77,0,0,0-11.62-2.17,31.08,31.08,0,0,0-11.73,2.17,27.84,27.84,0,0,0-9.35,6.16,28.75,28.75,0,0,0-6.21,9.24,29.23,29.23,0,0,0-2.22,11.51,29.64,29.64,0,0,0,2.22,11.57,28,28,0,0,0,6.21,9.24,28.32,28.32,0,0,0,9.35,6.11A31.07,31.07,0,0,0,1868.23,403.1Z" transform="translate(-19.89 -15.35)"></path><path class="cls-1" d="M1952.87,412.72a51.49,51.49,0,0,1-16.54-2.65,33.89,33.89,0,0,1-12.43-6.86l4-8.44a34.73,34.73,0,0,0,11,6.27,39.75,39.75,0,0,0,13.95,2.49,31.52,31.52,0,0,0,10.7-1.51,12.73,12.73,0,0,0,6-4.16,9.88,9.88,0,0,0,2-6,8.18,8.18,0,0,0-2.54-6.27,18.85,18.85,0,0,0-6.6-3.84,73.63,73.63,0,0,0-8.91-2.54q-4.87-1.08-9.79-2.54a43.72,43.72,0,0,1-9-3.73,18.35,18.35,0,0,1-6.54-6.11,17.84,17.84,0,0,1-2.48-9.89,19.81,19.81,0,0,1,3.08-10.75,21.34,21.34,0,0,1,9.51-7.89q6.42-3,16.37-3a50.65,50.65,0,0,1,13.08,1.73,36.36,36.36,0,0,1,11.24,5l-3.56,8.64a34.86,34.86,0,0,0-10.27-4.7,40.34,40.34,0,0,0-10.49-1.46,28.87,28.87,0,0,0-10.48,1.62,12.78,12.78,0,0,0-6,4.33,10.31,10.31,0,0,0-1.89,6.05,8.3,8.3,0,0,0,2.54,6.38,18.19,18.19,0,0,0,6.59,3.78,89.25,89.25,0,0,0,8.92,2.54q4.86,1.14,9.78,2.54a41.52,41.52,0,0,1,9,3.68,18.46,18.46,0,0,1,6.54,6.05,17.39,17.39,0,0,1,2.49,9.73,19.4,19.4,0,0,1-3.14,10.64,21.73,21.73,0,0,1-9.67,7.9Q1962.81,412.72,1952.87,412.72Z" transform="translate(-19.89 -15.35)"></path><path class="cls-1" d="M2025.93,412.72a51.43,51.43,0,0,1-16.53-2.65,33.89,33.89,0,0,1-12.43-6.86l4-8.44a34.9,34.9,0,0,0,11,6.27,39.74,39.74,0,0,0,13.94,2.49,31.45,31.45,0,0,0,10.7-1.51,12.76,12.76,0,0,0,6.06-4.16,9.87,9.87,0,0,0,1.94-6,8.15,8.15,0,0,0-2.54-6.27,18.71,18.71,0,0,0-6.59-3.84,73.81,73.81,0,0,0-8.92-2.54q-4.86-1.08-9.78-2.54a43.72,43.72,0,0,1-9-3.73,18.35,18.35,0,0,1-6.54-6.11,17.84,17.84,0,0,1-2.49-9.89,19.89,19.89,0,0,1,3.08-10.75,21.42,21.42,0,0,1,9.52-7.89q6.42-3,16.37-3a50.65,50.65,0,0,1,13.08,1.73,36.47,36.47,0,0,1,11.24,5l-3.56,8.64a34.86,34.86,0,0,0-10.27-4.7,40.34,40.34,0,0,0-10.49-1.46,28.84,28.84,0,0,0-10.48,1.62,12.78,12.78,0,0,0-6,4.33,10.31,10.31,0,0,0-1.89,6.05,8.3,8.3,0,0,0,2.54,6.38,18.19,18.19,0,0,0,6.59,3.78,88.49,88.49,0,0,0,8.92,2.54q4.86,1.14,9.78,2.54a41.52,41.52,0,0,1,9,3.68,18.55,18.55,0,0,1,6.54,6.05,17.39,17.39,0,0,1,2.49,9.73,19.4,19.4,0,0,1-3.14,10.64,21.73,21.73,0,0,1-9.67,7.9Q2035.88,412.72,2025.93,412.72Z" transform="translate(-19.89 -15.35)"></path><path class="cls-1" d="M2065.49,411.85l34.27-75.66h10.7l34.37,75.66h-11.35l-30.59-69.61h4.33l-30.59,69.61Zm14.6-18.91,2.91-8.65h42.59l3.14,8.65Z" transform="translate(-19.89 -15.35)"></path><path class="cls-1" d="M2184.07,412.72a51.49,51.49,0,0,1-16.54-2.65,34,34,0,0,1-12.43-6.86l4-8.44a34.78,34.78,0,0,0,11,6.27,39.66,39.66,0,0,0,13.94,2.49,31.52,31.52,0,0,0,10.7-1.51,12.68,12.68,0,0,0,6.05-4.16,9.88,9.88,0,0,0,1.95-6,8.18,8.18,0,0,0-2.54-6.27,18.8,18.8,0,0,0-6.59-3.84,74.34,74.34,0,0,0-8.92-2.54c-3.24-.72-6.51-1.57-9.78-2.54a44,44,0,0,1-9-3.73,18.35,18.35,0,0,1-6.54-6.11,17.92,17.92,0,0,1-2.48-9.89,19.89,19.89,0,0,1,3.08-10.75,21.34,21.34,0,0,1,9.51-7.89q6.43-3,16.38-3a50.76,50.76,0,0,1,13.08,1.73,36.47,36.47,0,0,1,11.24,5l-3.57,8.64a34.74,34.74,0,0,0-10.27-4.7,40.26,40.26,0,0,0-10.48-1.46,28.89,28.89,0,0,0-10.49,1.62,12.78,12.78,0,0,0-6,4.33,10.31,10.31,0,0,0-1.89,6.05,8.34,8.34,0,0,0,2.54,6.38,18.15,18.15,0,0,0,6.6,3.78,89,89,0,0,0,8.91,2.54q4.88,1.14,9.78,2.54a41.82,41.82,0,0,1,9,3.68,18.55,18.55,0,0,1,6.54,6.05,17.47,17.47,0,0,1,2.48,9.73,19.38,19.38,0,0,1-3.13,10.64,21.76,21.76,0,0,1-9.68,7.9Q2194,412.72,2184.07,412.72Z" transform="translate(-19.89 -15.35)"></path><path class="cls-1" d="M2303.94,412.72a43.2,43.2,0,0,1-15.94-2.87,37.4,37.4,0,0,1-12.65-8.1,38.19,38.19,0,0,1-8.38-12.27,41.08,41.08,0,0,1,0-30.92,37.65,37.65,0,0,1,21.14-20.37,45.5,45.5,0,0,1,32.1.11,33.14,33.14,0,0,1,12.59,8.81l-7,6.81a28.19,28.19,0,0,0-9.73-6.76,30.18,30.18,0,0,0-11.57-2.22,31.82,31.82,0,0,0-11.83,2.17,28.36,28.36,0,0,0-9.46,6.05,27.24,27.24,0,0,0-6.22,9.24,31.65,31.65,0,0,0,0,23.24,27.24,27.24,0,0,0,6.22,9.24,28.22,28.22,0,0,0,9.46,6.06,31.82,31.82,0,0,0,11.83,2.16,30.18,30.18,0,0,0,11.57-2.22,27.44,27.44,0,0,0,9.73-6.86l7,6.81a33.7,33.7,0,0,1-12.59,8.86A42.58,42.58,0,0,1,2303.94,412.72Z" transform="translate(-19.89 -15.35)"></path><path class="cls-1" d="M2365,402.45h44.1v9.4H2354.2V336.19h53.4v9.4H2365Zm-1-33.62H2403V378H2364Z" transform="translate(-19.89 -15.35)"></path><path class="cls-1" d="M2432.57,411.85V336.19h10.81v66.26h41v9.4Z" transform="translate(-19.89 -15.35)"></path><path class="cls-1" d="M2513.53,402.45h44.1v9.4h-54.91V336.19h53.39v9.4h-42.58Zm-1-33.62h38.92V378h-38.92Z" transform="translate(-19.89 -15.35)"></path><path class="cls-1" d="M2581.08,411.85V336.19H2615q13.08,0,20.11,5.24a16.92,16.92,0,0,1,7,14.32,18.55,18.55,0,0,1-2.75,10.38,18.3,18.3,0,0,1-7.41,6.49,22.62,22.62,0,0,1-10,2.27l1.95-3.25a27.42,27.42,0,0,1,11.46,2.27,18.59,18.59,0,0,1,7.89,6.65,19.2,19.2,0,0,1,2.91,10.86q0,9.74-7.29,15.08t-21.67,5.35Zm10.81-8.75h24.86q9,0,13.73-3t4.76-9.51q0-6.6-4.76-9.62t-13.73-3h-25.83v-8.75h23.13q8.22,0,12.76-3t4.54-9.08q0-6-4.54-9.08t-12.76-3h-22.16Z" transform="translate(-19.89 -15.35)"></path><path class="cls-1" d="M2690.9,412.72a51.54,51.54,0,0,1-16.54-2.65,34,34,0,0,1-12.43-6.86l4-8.44a34.9,34.9,0,0,0,11,6.27,39.7,39.7,0,0,0,13.94,2.49,31.48,31.48,0,0,0,10.7-1.51,12.76,12.76,0,0,0,6.06-4.16,9.94,9.94,0,0,0,1.94-6,8.18,8.18,0,0,0-2.54-6.27,18.71,18.71,0,0,0-6.59-3.84,73.81,73.81,0,0,0-8.92-2.54q-4.86-1.08-9.78-2.54a43.72,43.72,0,0,1-9-3.73,18.27,18.27,0,0,1-6.54-6.11,17.84,17.84,0,0,1-2.49-9.89,19.89,19.89,0,0,1,3.08-10.75,21.45,21.45,0,0,1,9.51-7.89q6.43-3,16.38-3a50.71,50.71,0,0,1,13.08,1.73,36.47,36.47,0,0,1,11.24,5l-3.57,8.64a34.69,34.69,0,0,0-10.26-4.7,40.34,40.34,0,0,0-10.49-1.46,28.84,28.84,0,0,0-10.48,1.62,12.78,12.78,0,0,0-6,4.33,10.25,10.25,0,0,0-1.9,6.05,8.34,8.34,0,0,0,2.54,6.38,18.32,18.32,0,0,0,6.6,3.78,88.49,88.49,0,0,0,8.92,2.54q4.86,1.14,9.78,2.54a41.52,41.52,0,0,1,9,3.68,18.55,18.55,0,0,1,6.54,6.05,17.39,17.39,0,0,1,2.49,9.73,19.4,19.4,0,0,1-3.14,10.64,21.73,21.73,0,0,1-9.67,7.9Q2700.85,412.72,2690.9,412.72Z" transform="translate(-19.89 -15.35)"></path><path class="cls-1" d="M2738.46,427.85l5.4-21.83,1.41,6.27a7.41,7.41,0,0,1-5.24-2,6.84,6.84,0,0,1-2.11-5.3,7.13,7.13,0,0,1,7.24-7.35,6.6,6.6,0,0,1,5.08,2.11,7.43,7.43,0,0,1,2,5.24,14.55,14.55,0,0,1-.16,2.11,21.94,21.94,0,0,1-.54,2.38q-.39,1.35-1.14,3.3l-5.08,15Z" transform="translate(-19.89 -15.35)"></path><path class="cls-1" d="M123.6,518.51V442.85h8.87L166.41,500h-4.76l33.51-57.18H204l.11,75.66H193.75l-.11-59.34h2.49L166.3,509.32h-5l-30.05-50.15H134v59.34Z" transform="translate(-19.89 -15.35)"></path><path class="cls-1" d="M221.31,518.51l34.27-75.66h10.7l34.37,75.66H289.3L258.71,448.9H263l-30.59,69.61Zm14.6-18.91,2.92-8.65h42.58l3.14,8.65Z" transform="translate(-19.89 -15.35)"></path><path class="cls-1" d="M339.89,519.38a51.49,51.49,0,0,1-16.54-2.65,33.84,33.84,0,0,1-12.43-6.87l4-8.43a34.78,34.78,0,0,0,11,6.27,39.66,39.66,0,0,0,13.94,2.49,31.52,31.52,0,0,0,10.7-1.51,12.62,12.62,0,0,0,6.05-4.17,9.83,9.83,0,0,0,1.95-6,8.18,8.18,0,0,0-2.54-6.27,18.71,18.71,0,0,0-6.59-3.84,74.34,74.34,0,0,0-8.92-2.54c-3.24-.72-6.51-1.57-9.78-2.54a44,44,0,0,1-9-3.73,18.24,18.24,0,0,1-6.53-6.11,17.84,17.84,0,0,1-2.49-9.89,19.89,19.89,0,0,1,3.08-10.75,21.34,21.34,0,0,1,9.51-7.89q6.43-3,16.38-3a50.76,50.76,0,0,1,13.08,1.73,36.47,36.47,0,0,1,11.24,5l-3.57,8.64a34.74,34.74,0,0,0-10.27-4.7,40.26,40.26,0,0,0-10.48-1.46,28.89,28.89,0,0,0-10.49,1.62,12.78,12.78,0,0,0-6,4.33,10.31,10.31,0,0,0-1.89,6.05,8.34,8.34,0,0,0,2.54,6.38,18.3,18.3,0,0,0,6.6,3.78,89,89,0,0,0,8.91,2.54q4.88,1.14,9.79,2.54a42,42,0,0,1,9,3.68,18.55,18.55,0,0,1,6.54,6.05,17.45,17.45,0,0,1,2.48,9.73,19.38,19.38,0,0,1-3.13,10.64,21.68,21.68,0,0,1-9.68,7.89Q349.83,519.39,339.89,519.38Z" transform="translate(-19.89 -15.35)"></path><path class="cls-1" d="M448,519.38a51.49,51.49,0,0,1-16.54-2.65A33.84,33.84,0,0,1,419,509.86l4-8.43a34.78,34.78,0,0,0,11,6.27A39.66,39.66,0,0,0,448,510.19a31.52,31.52,0,0,0,10.7-1.51,12.62,12.62,0,0,0,6.05-4.17,9.83,9.83,0,0,0,1.95-6,8.18,8.18,0,0,0-2.54-6.27,18.8,18.8,0,0,0-6.59-3.84,74.34,74.34,0,0,0-8.92-2.54q-4.87-1.08-9.78-2.54a44,44,0,0,1-9-3.73,18.35,18.35,0,0,1-6.54-6.11,17.92,17.92,0,0,1-2.48-9.89,19.81,19.81,0,0,1,3.08-10.75,21.34,21.34,0,0,1,9.51-7.89q6.44-3,16.38-3a50.76,50.76,0,0,1,13.08,1.73,36.47,36.47,0,0,1,11.24,5l-3.57,8.64a34.74,34.74,0,0,0-10.27-4.7,40.26,40.26,0,0,0-10.48-1.46,28.89,28.89,0,0,0-10.49,1.62,12.78,12.78,0,0,0-6,4.33,10.31,10.31,0,0,0-1.89,6.05,8.34,8.34,0,0,0,2.54,6.38,18.33,18.33,0,0,0,6.59,3.78,90,90,0,0,0,8.92,2.54c3.25.76,6.5,1.61,9.78,2.54a41.82,41.82,0,0,1,9,3.68,18.55,18.55,0,0,1,6.54,6.05,17.45,17.45,0,0,1,2.48,9.73,19.38,19.38,0,0,1-3.13,10.64,21.68,21.68,0,0,1-9.68,7.89Q457.92,519.39,448,519.38Z" transform="translate(-19.89 -15.35)"></path><path class="cls-1" d="M487.54,518.51l34.26-75.66h10.7l34.38,75.66H555.53L524.94,448.9h4.32l-30.59,69.61Zm14.59-18.91,2.92-8.65h42.59l3.13,8.65Z" transform="translate(-19.89 -15.35)"></path><path class="cls-1" d="M584.06,518.51V442.85H618q13.08,0,20.11,5.24a16.92,16.92,0,0,1,7,14.32,18.55,18.55,0,0,1-2.75,10.38,18.3,18.3,0,0,1-7.41,6.49,22.62,22.62,0,0,1-10.05,2.27l2-3.25a27.34,27.34,0,0,1,11.45,2.27,18.56,18.56,0,0,1,7.9,6.65,19.2,19.2,0,0,1,2.91,10.86q0,9.74-7.29,15.08t-21.67,5.35Zm10.81-8.75h24.86q9,0,13.73-3t4.76-9.51q0-6.6-4.76-9.62t-13.73-3H593.9v-8.75H617q8.22,0,12.76-3t4.54-9.08q0-6-4.54-9.08t-12.76-3H594.87Z" transform="translate(-19.89 -15.35)"></path><path class="cls-1" d="M682.64,509.11h44.1v9.4H671.83V442.85h53.4v9.4H682.64Zm-1-33.62h38.91v9.19H681.67Z" transform="translate(-19.89 -15.35)"></path><path class="cls-1" d="M750.2,518.51V442.85h8.86L793,500h-4.75l33.5-57.18h8.87l.1,75.66H820.35l-.11-59.34h2.49l-29.84,50.15h-5l-30-50.15h2.7v59.34Z" transform="translate(-19.89 -15.35)"></path><path class="cls-1" d="M893.52,519.38a43.52,43.52,0,0,1-16-2.92,38.66,38.66,0,0,1-12.81-8.16A37.86,37.86,0,0,1,856.23,496a40.52,40.52,0,0,1,0-30.7,37.86,37.86,0,0,1,8.43-12.27,38.75,38.75,0,0,1,12.76-8.16,45.94,45.94,0,0,1,32.1,0A37.84,37.84,0,0,1,922.28,453a36.78,36.78,0,0,1,8.37,12.32,41.44,41.44,0,0,1,0,30.86,37.08,37.08,0,0,1-8.37,12.27,38,38,0,0,1-12.76,8.1A43.67,43.67,0,0,1,893.52,519.38Zm0-9.62a30.72,30.72,0,0,0,11.62-2.16,27.75,27.75,0,0,0,9.3-6.11,28.5,28.5,0,0,0,6.16-9.24,29.64,29.64,0,0,0,2.22-11.57,28.91,28.91,0,0,0-8.38-20.75,27.14,27.14,0,0,0-9.3-6.16,32.46,32.46,0,0,0-23.34,0,27.64,27.64,0,0,0-9.35,6.16,28.67,28.67,0,0,0-6.22,9.24A29.23,29.23,0,0,0,864,480.68a29.63,29.63,0,0,0,2.21,11.57A28.11,28.11,0,0,0,881.8,507.6,31,31,0,0,0,893.52,509.76Z" transform="translate(-19.89 -15.35)"></path><path class="cls-1" d="M978.16,519.38a51.49,51.49,0,0,1-16.54-2.65,33.84,33.84,0,0,1-12.43-6.87l4-8.43a34.78,34.78,0,0,0,11,6.27,39.66,39.66,0,0,0,13.94,2.49,31.52,31.52,0,0,0,10.7-1.51,12.62,12.62,0,0,0,6-4.17,9.83,9.83,0,0,0,2-6,8.18,8.18,0,0,0-2.54-6.27,18.76,18.76,0,0,0-6.6-3.84,73.63,73.63,0,0,0-8.91-2.54q-4.87-1.08-9.78-2.54a43.81,43.81,0,0,1-9-3.73,18.35,18.35,0,0,1-6.54-6.11A17.92,17.92,0,0,1,951,463.6a19.81,19.81,0,0,1,3.08-10.75,21.34,21.34,0,0,1,9.51-7.89q6.43-3,16.38-3a50.63,50.63,0,0,1,13.07,1.73,36.53,36.53,0,0,1,11.25,5l-3.57,8.64a34.74,34.74,0,0,0-10.27-4.7A40.26,40.26,0,0,0,980,451.17a28.89,28.89,0,0,0-10.49,1.62,12.78,12.78,0,0,0-6,4.33,10.31,10.31,0,0,0-1.89,6.05,8.34,8.34,0,0,0,2.54,6.38,18.33,18.33,0,0,0,6.59,3.78,90,90,0,0,0,8.92,2.54q4.86,1.14,9.78,2.54a41.82,41.82,0,0,1,9,3.68,18.55,18.55,0,0,1,6.54,6.05,17.45,17.45,0,0,1,2.48,9.73,19.38,19.38,0,0,1-3.13,10.64,21.68,21.68,0,0,1-9.68,7.89Q988.1,519.39,978.16,519.38Z" transform="translate(-19.89 -15.35)"></path><path class="cls-1" d="M1098.35,519.38a43.52,43.52,0,0,1-16-2.92,38.66,38.66,0,0,1-12.81-8.16,37.86,37.86,0,0,1-8.43-12.27,40.52,40.52,0,0,1,0-30.7,37.86,37.86,0,0,1,8.43-12.27,38.75,38.75,0,0,1,12.76-8.16,45.94,45.94,0,0,1,32.1,0,37.84,37.84,0,0,1,12.76,8.11,36.78,36.78,0,0,1,8.37,12.32,41.44,41.44,0,0,1,0,30.86,37.08,37.08,0,0,1-8.37,12.27,38,38,0,0,1-12.76,8.1A43.67,43.67,0,0,1,1098.35,519.38Zm0-9.62A30.72,30.72,0,0,0,1110,507.6a27.31,27.31,0,0,0,9.3-6.17,29.14,29.14,0,0,0,8.38-20.75,29.67,29.67,0,0,0-2.22-11.57,28.5,28.5,0,0,0-6.16-9.24,27.58,27.58,0,0,0-9.3-6.1,32.46,32.46,0,0,0-23.34,0,28,28,0,0,0-15.57,15.34,29.67,29.67,0,0,0-2.21,11.57,29.33,29.33,0,0,0,2.21,11.46,28.56,28.56,0,0,0,6.22,9.29,27.81,27.81,0,0,0,9.35,6.17A31,31,0,0,0,1098.35,509.76Zm24.76,24.53a27.81,27.81,0,0,1-7.25-.92,28.34,28.34,0,0,1-6.91-2.91,47.33,47.33,0,0,1-7.14-5.19,108.27,108.27,0,0,1-8-7.84l11.57-3a49.68,49.68,0,0,0,6.21,6.54,20.84,20.84,0,0,0,5.9,3.68,15.89,15.89,0,0,0,5.83,1.13,17.73,17.73,0,0,0,13.73-6.48l5.08,6.16A23.56,23.56,0,0,1,1123.11,534.29Z" transform="translate(-19.89 -15.35)"></path><path class="cls-1" d="M1192.28,519.38q-14.91,0-23.45-8.54t-8.54-25v-43h10.81v42.59q0,12.65,5.57,18.48t15.72,5.84q10.27,0,15.84-5.84t5.56-18.48V442.85h10.49v43q0,16.42-8.49,25T1192.28,519.38Z" transform="translate(-19.89 -15.35)"></path><path class="cls-1" d="M1263.19,509.11h44.1v9.4h-54.91V442.85h53.4v9.4h-42.59Zm-1-33.62h38.91v9.19h-38.91Z" transform="translate(-19.89 -15.35)"></path><path class="cls-1" d="M1365.77,518.51V442.85h8.86l50,62.15H1420V442.85h10.81v75.66H1422l-50-62.15h4.65v62.15Z" transform="translate(-19.89 -15.35)"></path><path class="cls-1" d="M1448,518.51l34.27-75.66H1493l34.37,75.66H1516l-30.59-69.61h4.33l-30.59,69.61Zm14.6-18.91,2.91-8.65h42.59l3.14,8.65Zm32.64-63.24a9.49,9.49,0,0,1-4.59-1.08,18.48,18.48,0,0,1-3.62-2.54,37.71,37.71,0,0,0-3.14-2.54,5.2,5.2,0,0,0-3-1.08,4.73,4.73,0,0,0-3.83,1.78,8.52,8.52,0,0,0-1.68,4.92h-5.84q.23-6,3-9.62a9.12,9.12,0,0,1,7.57-3.56,9.42,9.42,0,0,1,4.65,1.13,20.25,20.25,0,0,1,3.67,2.59,38.35,38.35,0,0,0,3.08,2.54,4.95,4.95,0,0,0,6.86-.64,7.46,7.46,0,0,0,1.63-4.76h5.83a14.86,14.86,0,0,1-3,9.3A9.3,9.3,0,0,1,1495.26,436.36Z" transform="translate(-19.89 -15.35)"></path><path class="cls-1" d="M1577.63,519.38a43.54,43.54,0,0,1-16.06-2.92,38.52,38.52,0,0,1-12.8-8.16,37.73,37.73,0,0,1-8.44-12.27,40.52,40.52,0,0,1,0-30.7,37.73,37.73,0,0,1,8.44-12.27,38.6,38.6,0,0,1,12.75-8.16,45.94,45.94,0,0,1,32.1,0,37.84,37.84,0,0,1,12.76,8.11,37,37,0,0,1,8.38,12.32,41.57,41.57,0,0,1,0,30.86,37.26,37.26,0,0,1-8.38,12.27,38,38,0,0,1-12.76,8.1A43.65,43.65,0,0,1,1577.63,519.38Zm0-9.62a30.8,30.8,0,0,0,11.62-2.16,27.81,27.81,0,0,0,9.29-6.11,28.34,28.34,0,0,0,6.16-9.24,29.64,29.64,0,0,0,2.22-11.57,28.91,28.91,0,0,0-8.38-20.75,27.2,27.2,0,0,0-9.29-6.16,32.49,32.49,0,0,0-23.35,0,27.64,27.64,0,0,0-9.35,6.16,28.67,28.67,0,0,0-6.22,9.24,29.41,29.41,0,0,0-2.21,11.51,29.81,29.81,0,0,0,2.21,11.57,28.11,28.11,0,0,0,15.57,15.35A31,31,0,0,0,1577.63,509.76Z" transform="translate(-19.89 -15.35)"></path><path class="cls-1" d="M1663.77,518.51,1698,442.85h10.7l34.37,75.66h-11.35l-30.59-69.61h4.33l-30.59,69.61Zm14.6-18.91,2.91-8.65h42.59l3.14,8.65Z" transform="translate(-19.89 -15.35)"></path><path class="cls-1" d="M1760.3,518.51V442.85h31.89a46,46,0,0,1,21.34,4.75,35.23,35.23,0,0,1,14.38,13.3,40.7,40.7,0,0,1,0,39.56,35.16,35.16,0,0,1-14.38,13.3,46,46,0,0,1-21.34,4.75Zm10.81-9.4h20.43a34.77,34.77,0,0,0,16.26-3.57,25.91,25.91,0,0,0,10.65-10,31.22,31.22,0,0,0,0-29.78,26,26,0,0,0-10.65-9.94,34.77,34.77,0,0,0-16.26-3.57h-20.43Z" transform="translate(-19.89 -15.35)"></path><path class="cls-1" d="M1855.53,518.51V442.85h10.8v75.66Z" transform="translate(-19.89 -15.35)"></path><path class="cls-1" d="M1883.52,518.51l34.26-75.66h10.71l34.37,75.66h-11.35l-30.59-69.61h4.32l-30.59,69.61Zm14.59-18.91L1901,491h42.59l3.13,8.65Z" transform="translate(-19.89 -15.35)"></path><path class="cls-1" d="M1980.05,518.51V442.85h8.86L2039,505h-4.64V442.85h10.81v75.66h-8.87l-50-62.15h4.64v62.15Z" transform="translate(-19.89 -15.35)"></path><path class="cls-1" d="M2088.78,518.51V452.25h-25.94v-9.4h62.59v9.4h-25.94v66.26Z" transform="translate(-19.89 -15.35)"></path><path class="cls-1" d="M2127.91,518.51l34.27-75.66h10.7l34.37,75.66H2195.9l-30.59-69.61h4.33l-30.59,69.61Zm14.6-18.91,2.91-8.65H2188l3.14,8.65Z" transform="translate(-19.89 -15.35)"></path><path class="cls-1" d="M2281.29,518.51,2248,442.85h11.68l30.59,69.83h-6.71l30.81-69.83h10.81L2292,518.51Z" transform="translate(-19.89 -15.35)"></path><path class="cls-1" d="M2351.55,509.11h44.1v9.4h-54.91V442.85h53.4v9.4h-42.59Zm-1-33.62h38.91v9.19h-38.91Z" transform="translate(-19.89 -15.35)"></path><path class="cls-1" d="M2441.16,519.38a51.49,51.49,0,0,1-16.54-2.65,33.84,33.84,0,0,1-12.43-6.87l4-8.43a34.78,34.78,0,0,0,11,6.27,39.66,39.66,0,0,0,13.94,2.49,31.52,31.52,0,0,0,10.7-1.51,12.62,12.62,0,0,0,6-4.17,9.83,9.83,0,0,0,2-6,8.18,8.18,0,0,0-2.54-6.27,18.8,18.8,0,0,0-6.59-3.84,74.34,74.34,0,0,0-8.92-2.54c-3.24-.72-6.51-1.57-9.78-2.54a44,44,0,0,1-9-3.73,18.35,18.35,0,0,1-6.54-6.11,17.92,17.92,0,0,1-2.48-9.89,19.89,19.89,0,0,1,3.08-10.75,21.34,21.34,0,0,1,9.51-7.89q6.43-3,16.38-3a50.76,50.76,0,0,1,13.08,1.73,36.47,36.47,0,0,1,11.24,5l-3.57,8.64a34.74,34.74,0,0,0-10.27-4.7,40.26,40.26,0,0,0-10.48-1.46,28.89,28.89,0,0,0-10.49,1.62,12.78,12.78,0,0,0-6,4.33,10.31,10.31,0,0,0-1.89,6.05,8.34,8.34,0,0,0,2.54,6.38,18.3,18.3,0,0,0,6.6,3.78,89,89,0,0,0,8.91,2.54q4.88,1.14,9.78,2.54a41.82,41.82,0,0,1,9,3.68,18.55,18.55,0,0,1,6.54,6.05,17.45,17.45,0,0,1,2.48,9.73,19.38,19.38,0,0,1-3.13,10.64,21.68,21.68,0,0,1-9.68,7.89Q2451.1,519.39,2441.16,519.38Z" transform="translate(-19.89 -15.35)"></path><path class="cls-1" d="M2506.12,518.51V452.25h-25.94v-9.4h62.58v9.4h-25.94v66.26Z" transform="translate(-19.89 -15.35)"></path><path class="cls-1" d="M2560.49,518.51V442.85h10.81v75.66Z" transform="translate(-19.89 -15.35)"></path><path class="cls-1" d="M2599.94,518.51V442.85h29.51a41.47,41.47,0,0,1,17,3.13,24,24,0,0,1,10.81,9.08,25.86,25.86,0,0,1,3.78,14.16,25.57,25.57,0,0,1-3.78,14.11,24,24,0,0,1-10.81,9q-7,3.15-17,3.14h-23.56l4.86-5v28Zm10.81-26.91-4.86-5.3h23.24q10.38,0,15.72-4.48t5.35-12.6q0-8.1-5.35-12.54t-15.72-4.43h-23.24l4.86-5.4Zm39.78,26.91-19.24-27.45h11.57l19.45,27.45Z" transform="translate(-19.89 -15.35)"></path><path class="cls-1" d="M19.89,625.17l34.27-75.66h10.7l34.37,75.66H87.88L57.29,555.56h4.32L31,625.17Zm14.59-18.91,2.92-8.65H80l3.13,8.65Z" transform="translate(-19.89 -15.35)"></path><path class="cls-1" d="M116.42,625.17V549.51h10.81v66.26h41v9.4Z" transform="translate(-19.89 -15.35)"></path><path class="cls-1" d="M219.32,626a44,44,0,0,1-16.11-2.87A37.56,37.56,0,0,1,182,602.8a41,41,0,0,1,0-30.92,37.24,37.24,0,0,1,8.48-12.27,38.49,38.49,0,0,1,12.81-8.1,44.32,44.32,0,0,1,16.22-2.87A44.87,44.87,0,0,1,236,551.56a32.58,32.58,0,0,1,12.64,8.76l-6.7,6.7a29.87,29.87,0,0,0-10.11-6.65,34.46,34.46,0,0,0-23.88,0,28.69,28.69,0,0,0-9.62,6.06,26.66,26.66,0,0,0-6.27,9.24,30,30,0,0,0-2.22,11.62A29.73,29.73,0,0,0,192,598.85a27.28,27.28,0,0,0,6.27,9.3,28.39,28.39,0,0,0,9.56,6.1,32.44,32.44,0,0,0,12,2.17,35.65,35.65,0,0,0,11.62-1.9,28.49,28.49,0,0,0,10.32-6.32l6.16,8.22a38.26,38.26,0,0,1-13.13,7.18A49.81,49.81,0,0,1,219.32,626Zm18.27-11v-28.1H248v29.51Z" transform="translate(-19.89 -15.35)"></path><path class="cls-1" d="M308.71,626a43.45,43.45,0,0,1-16-2.92A38.46,38.46,0,0,1,279.85,615a37.55,37.55,0,0,1-8.43-12.27,40.4,40.4,0,0,1,0-30.7,37.55,37.55,0,0,1,8.43-12.27,38.6,38.6,0,0,1,12.75-8.16,46,46,0,0,1,32.11,0,37.83,37.83,0,0,1,12.75,8.1,37,37,0,0,1,8.38,12.33,41.57,41.57,0,0,1,0,30.86,37,37,0,0,1-8.38,12.26,37.7,37.7,0,0,1-12.75,8.11A43.71,43.71,0,0,1,308.71,626Zm0-9.62a30.57,30.57,0,0,0,11.62-2.17,27.53,27.53,0,0,0,9.29-6.1,28.53,28.53,0,0,0,6.17-9.24A29.81,29.81,0,0,0,338,587.34a28.8,28.8,0,0,0-8.38-20.75,27.27,27.27,0,0,0-9.29-6.17,30.76,30.76,0,0,0-11.62-2.16A31.07,31.07,0,0,0,297,560.42a27.91,27.91,0,0,0-9.35,6.17,28.48,28.48,0,0,0-6.21,9.24,29.2,29.2,0,0,0-2.22,11.51,29.64,29.64,0,0,0,2.22,11.57,27.86,27.86,0,0,0,6.21,9.24,28.19,28.19,0,0,0,9.35,6.1A30.88,30.88,0,0,0,308.71,616.42Z" transform="translate(-19.89 -15.35)"></path><path class="cls-1" d="M428.36,626a51.75,51.75,0,0,1-16.53-2.65,33.9,33.9,0,0,1-12.43-6.87l4-8.43a34.73,34.73,0,0,0,11,6.27,39.74,39.74,0,0,0,13.94,2.49,31.27,31.27,0,0,0,10.71-1.52,12.64,12.64,0,0,0,6.05-4.16,9.83,9.83,0,0,0,1.94-6,8.14,8.14,0,0,0-2.54-6.26,18.71,18.71,0,0,0-6.59-3.84,73.29,73.29,0,0,0-8.92-2.54q-4.86-1.08-9.78-2.54a43.72,43.72,0,0,1-9-3.73,18.35,18.35,0,0,1-6.54-6.11,17.86,17.86,0,0,1-2.49-9.89,19.89,19.89,0,0,1,3.08-10.75,21.42,21.42,0,0,1,9.52-7.89q6.42-3,16.37-3a50.65,50.65,0,0,1,13.08,1.73,36.59,36.59,0,0,1,11.24,5L451,564a34.86,34.86,0,0,0-10.27-4.7,40.34,40.34,0,0,0-10.49-1.46,28.87,28.87,0,0,0-10.48,1.62,12.78,12.78,0,0,0-6,4.33,10.31,10.31,0,0,0-1.89,6.05,8.3,8.3,0,0,0,2.54,6.38A18.33,18.33,0,0,0,421,580a89.25,89.25,0,0,0,8.92,2.54q4.86,1.14,9.78,2.54a42,42,0,0,1,9,3.67,18.67,18.67,0,0,1,6.54,6.06,17.37,17.37,0,0,1,2.49,9.73,19.4,19.4,0,0,1-3.14,10.64,21.65,21.65,0,0,1-9.67,7.89Q438.31,626,428.36,626Z" transform="translate(-19.89 -15.35)"></path><path class="cls-1" d="M513.54,626a43.45,43.45,0,0,1-16-2.92A38.46,38.46,0,0,1,484.68,615a37.55,37.55,0,0,1-8.43-12.27,40.4,40.4,0,0,1,0-30.7,37.55,37.55,0,0,1,8.43-12.27,38.6,38.6,0,0,1,12.75-8.16,46,46,0,0,1,32.11,0,37.83,37.83,0,0,1,12.75,8.1,37,37,0,0,1,8.38,12.33,41.57,41.57,0,0,1,0,30.86,37,37,0,0,1-8.38,12.26,37.7,37.7,0,0,1-12.75,8.11A43.71,43.71,0,0,1,513.54,626Zm0-9.62a30.57,30.57,0,0,0,11.62-2.17,27.53,27.53,0,0,0,9.29-6.1,28.53,28.53,0,0,0,6.17-9.24,29.81,29.81,0,0,0,2.21-11.57,28.8,28.8,0,0,0-8.38-20.75,27.27,27.27,0,0,0-9.29-6.17,30.76,30.76,0,0,0-11.62-2.16,31.07,31.07,0,0,0-11.73,2.16,27.91,27.91,0,0,0-9.35,6.17,28.48,28.48,0,0,0-6.21,9.24A29.2,29.2,0,0,0,484,587.34a29.64,29.64,0,0,0,2.22,11.57,27.86,27.86,0,0,0,6.21,9.24,28.19,28.19,0,0,0,9.35,6.1A30.88,30.88,0,0,0,513.54,616.42Zm-8.11-73.07,14.7-14.06h13.19l-18.16,14.06Z" transform="translate(-19.89 -15.35)"></path><path class="cls-1" d="M611.14,625.17V549.51h29.51a41.47,41.47,0,0,1,17,3.13,24,24,0,0,1,10.81,9.08,25.87,25.87,0,0,1,3.79,14.16A25.58,25.58,0,0,1,668.43,590a24.45,24.45,0,0,1-10.81,9.08,41,41,0,0,1-17,3.19H617.09l4.86-5.08v28ZM622,598.26l-4.86-5.41h23.24q10.38,0,15.73-4.43t5.35-12.54q0-8.1-5.35-12.54t-15.73-4.43H617.09l4.86-5.4Z" transform="translate(-19.89 -15.35)"></path><path class="cls-1" d="M729.29,626a43.54,43.54,0,0,1-16.06-2.92,38.52,38.52,0,0,1-12.8-8.16A37.73,37.73,0,0,1,692,602.69a40.52,40.52,0,0,1,0-30.7,37.73,37.73,0,0,1,8.44-12.27,38.6,38.6,0,0,1,12.75-8.16,45.94,45.94,0,0,1,32.1,0,38,38,0,0,1,12.76,8.1,37.1,37.1,0,0,1,8.38,12.33,41.57,41.57,0,0,1,0,30.86A37.12,37.12,0,0,1,758,615.06a37.84,37.84,0,0,1-12.76,8.11A43.65,43.65,0,0,1,729.29,626Zm0-9.62a30.61,30.61,0,0,0,11.62-2.17,27.63,27.63,0,0,0,9.29-6.1,28.5,28.5,0,0,0,6.16-9.24,29.64,29.64,0,0,0,2.22-11.57,28.91,28.91,0,0,0-8.38-20.75,27.37,27.37,0,0,0-9.29-6.17,32.63,32.63,0,0,0-23.35,0,27.81,27.81,0,0,0-9.35,6.17,28.67,28.67,0,0,0-6.22,9.24,29.37,29.37,0,0,0-2.21,11.51A29.81,29.81,0,0,0,702,598.91a28,28,0,0,0,15.57,15.34A30.85,30.85,0,0,0,729.29,616.42Z" transform="translate(-19.89 -15.35)"></path><path class="cls-1" d="M791.87,625.17V549.51h29.51a41.51,41.51,0,0,1,17,3.13,24.12,24.12,0,0,1,10.81,9.08,25.86,25.86,0,0,1,3.78,14.16A25.57,25.57,0,0,1,849.16,590a24.19,24.19,0,0,1-10.81,9,41.5,41.5,0,0,1-17,3.14H797.82l4.86-5v28Zm10.81-26.91-4.86-5.3h23.23q10.38,0,15.73-4.49t5.35-12.59q0-8.1-5.35-12.54t-15.73-4.43H797.82l4.86-5.4Zm39.78,26.91-19.24-27.45h11.56l19.46,27.45Z" transform="translate(-19.89 -15.35)"></path><path class="cls-1" d="M910.55,626a43.52,43.52,0,0,1-16-2.92A38.66,38.66,0,0,1,881.69,615a37.86,37.86,0,0,1-8.43-12.27,40.52,40.52,0,0,1,0-30.7,37.86,37.86,0,0,1,8.43-12.27,38.75,38.75,0,0,1,12.76-8.16,45.94,45.94,0,0,1,32.1,0,38,38,0,0,1,12.76,8.1,36.93,36.93,0,0,1,8.37,12.33,41.57,41.57,0,0,1,0,30.86,36.94,36.94,0,0,1-8.37,12.26,37.84,37.84,0,0,1-12.76,8.11A43.67,43.67,0,0,1,910.55,626Zm0-9.62a30.54,30.54,0,0,0,11.62-2.17,27.14,27.14,0,0,0,9.3-6.16,29.14,29.14,0,0,0,8.38-20.75,29.67,29.67,0,0,0-2.22-11.57,28.5,28.5,0,0,0-6.16-9.24,27.75,27.75,0,0,0-9.3-6.11,32.6,32.6,0,0,0-23.34,0,28.11,28.11,0,0,0-15.57,15.35A29.67,29.67,0,0,0,881,587.34a29.34,29.34,0,0,0,2.22,11.46,28.56,28.56,0,0,0,6.22,9.29,27.64,27.64,0,0,0,9.35,6.16A30.8,30.8,0,0,0,910.55,616.42ZM935.31,641a27.81,27.81,0,0,1-7.25-.92,28.34,28.34,0,0,1-6.91-2.91,47.33,47.33,0,0,1-7.14-5.19,106.35,106.35,0,0,1-8-7.84l11.57-3a49.68,49.68,0,0,0,6.21,6.54,20.84,20.84,0,0,0,5.9,3.68,15.89,15.89,0,0,0,5.83,1.13,17.73,17.73,0,0,0,13.73-6.48l5.08,6.16A23.56,23.56,0,0,1,935.31,641Z" transform="translate(-19.89 -15.35)"></path><path class="cls-1" d="M1004.48,626q-14.91,0-23.45-8.54t-8.54-25v-43H983.3V592.1q0,12.64,5.56,18.48t15.73,5.84q10.27,0,15.84-5.84T1026,592.1V549.51h10.49v43q0,16.43-8.49,25T1004.48,626Z" transform="translate(-19.89 -15.35)"></path><path class="cls-1" d="M1075.39,615.77h44.1v9.4h-54.91V549.51H1118v9.4h-42.59Zm-1-33.62h38.91v9.19h-38.91Z" transform="translate(-19.89 -15.35)"></path><path class="cls-1" d="M1174.08,578.69l-.65-29.18h9.08l-.76,29.18Zm19.56,0-.65-29.18h9.08l-.76,29.18Z" transform="translate(-19.89 -15.35)"></path><path class="cls-1" d="M1210.07,625.17l34.26-75.66H1255l34.38,75.66h-11.35l-30.59-69.61h4.32l-30.59,69.61Zm14.59-18.91,2.92-8.65h42.59l3.13,8.65Z" transform="translate(-19.89 -15.35)"></path><path class="cls-1" d="M1306.59,625.17V549.51h10.81v66.26h41v9.4Z" transform="translate(-19.89 -15.35)"></path><path class="cls-1" d="M1409.5,626a44,44,0,0,1-16.11-2.87,37.56,37.56,0,0,1-21.18-20.37,41,41,0,0,1,0-30.92,37.24,37.24,0,0,1,8.48-12.27,38.49,38.49,0,0,1,12.81-8.1,44.27,44.27,0,0,1,16.21-2.87,44.83,44.83,0,0,1,16.43,2.92,32.61,32.61,0,0,1,12.65,8.76l-6.7,6.7a29.87,29.87,0,0,0-10.11-6.65,32.67,32.67,0,0,0-11.83-2.11,33,33,0,0,0-12.06,2.16,28.89,28.89,0,0,0-9.62,6.06,26.94,26.94,0,0,0-6.27,9.24,30.21,30.21,0,0,0-2.21,11.62,29.91,29.91,0,0,0,2.21,11.51,27.57,27.57,0,0,0,6.27,9.3,28.44,28.44,0,0,0,9.57,6.1,32.37,32.37,0,0,0,12,2.17,35.65,35.65,0,0,0,11.62-1.9A28.49,28.49,0,0,0,1432,608.2l6.16,8.22A38.36,38.36,0,0,1,1425,623.6,49.81,49.81,0,0,1,1409.5,626Zm18.26-11v-28.1h10.38v29.51Z" transform="translate(-19.89 -15.35)"></path><path class="cls-1" d="M1496.08,626q-14.92,0-23.46-8.54t-8.54-25v-43h10.81V592.1q0,12.64,5.57,18.48t15.72,5.84q10.27,0,15.84-5.84t5.57-18.48V549.51h10.48v43q0,16.43-8.48,25T1496.08,626Z" transform="translate(-19.89 -15.35)"></path><path class="cls-1" d="M1567,615.77h44.1v9.4h-54.91V549.51h53.4v9.4H1567Zm-1-33.62h38.91v9.19H1566Zm8.86-38.8,14.7-14.06h13.19l-18.16,14.06Z" transform="translate(-19.89 -15.35)"></path><path class="cls-1" d="M1634.54,625.17V549.51h8.86l33.94,57.18h-4.75l33.51-57.18H1715l.11,75.66h-10.38l-.11-59.34h2.49L1677.24,616h-5l-30-50.15h2.71v59.34Z" transform="translate(-19.89 -15.35)"></path><path class="cls-1" d="M1739.82,578.69l-.65-29.18h9.08l-.76,29.18Zm19.56,0-.64-29.18h9.08l-.76,29.18Z" transform="translate(-19.89 -15.35)"></path><path class="cls-1" d="M1837.75,615.77h44.1v9.4h-54.91V549.51h53.4v9.4h-42.59Zm-1-33.62h38.91v9.19h-38.91Z" transform="translate(-19.89 -15.35)"></path><path class="cls-1" d="M1927.36,626a51.77,51.77,0,0,1-16.54-2.65,33.9,33.9,0,0,1-12.43-6.87l4-8.43a34.73,34.73,0,0,0,11,6.27,39.75,39.75,0,0,0,13.95,2.49,31.25,31.25,0,0,0,10.7-1.52,12.64,12.64,0,0,0,6-4.16,9.84,9.84,0,0,0,2-6,8.18,8.18,0,0,0-2.54-6.26,18.85,18.85,0,0,0-6.6-3.84,73.29,73.29,0,0,0-8.92-2.54q-4.86-1.08-9.78-2.54a43.72,43.72,0,0,1-9-3.73,18.35,18.35,0,0,1-6.54-6.11,17.86,17.86,0,0,1-2.48-9.89,19.81,19.81,0,0,1,3.08-10.75,21.34,21.34,0,0,1,9.51-7.89q6.42-3,16.37-3a50.65,50.65,0,0,1,13.08,1.73,36.59,36.59,0,0,1,11.24,5L1950,564a34.86,34.86,0,0,0-10.27-4.7,40.34,40.34,0,0,0-10.49-1.46,28.87,28.87,0,0,0-10.48,1.62,12.78,12.78,0,0,0-6,4.33,10.31,10.31,0,0,0-1.89,6.05,8.3,8.3,0,0,0,2.54,6.38A18.33,18.33,0,0,0,1920,580a89.25,89.25,0,0,0,8.92,2.54q4.86,1.14,9.78,2.54a42,42,0,0,1,9,3.67,18.67,18.67,0,0,1,6.54,6.06,17.37,17.37,0,0,1,2.49,9.73,19.4,19.4,0,0,1-3.14,10.64,21.65,21.65,0,0,1-9.67,7.89Q1937.3,626,1927.36,626Z" transform="translate(-19.89 -15.35)"></path><path class="cls-1" d="M1992.32,625.17V558.91h-25.94v-9.4H2029v9.4H2003v66.26Z" transform="translate(-19.89 -15.35)"></path><path class="cls-1" d="M2031.45,625.17l34.26-75.66h10.7l34.37,75.66h-11.34l-30.59-69.61h4.32l-30.59,69.61ZM2046,606.26l2.92-8.65h42.58l3.14,8.65Zm17-62.91,14.7-14.06h13.19l-18.16,14.06Z" transform="translate(-19.89 -15.35)"></path><path class="cls-1" d="M2194.34,626q-14.93,0-23.46-8.54t-8.54-25v-43h10.81V592.1q0,12.64,5.57,18.48t15.73,5.84q10.26,0,15.83-5.84t5.57-18.48V549.51h10.48v43q0,16.43-8.48,25T2194.34,626Z" transform="translate(-19.89 -15.35)"></path><path class="cls-1" d="M2276.49,626a51.77,51.77,0,0,1-16.54-2.65,33.9,33.9,0,0,1-12.43-6.87l4-8.43a34.73,34.73,0,0,0,11,6.27,39.75,39.75,0,0,0,13.95,2.49,31.25,31.25,0,0,0,10.7-1.52,12.64,12.64,0,0,0,6-4.16,9.84,9.84,0,0,0,2-6,8.18,8.18,0,0,0-2.54-6.26,18.85,18.85,0,0,0-6.6-3.84,73.29,73.29,0,0,0-8.92-2.54q-4.86-1.08-9.78-2.54a43.72,43.72,0,0,1-9-3.73,18.35,18.35,0,0,1-6.54-6.11,17.86,17.86,0,0,1-2.48-9.89,19.81,19.81,0,0,1,3.08-10.75,21.34,21.34,0,0,1,9.51-7.89q6.42-3,16.37-3a50.65,50.65,0,0,1,13.08,1.73,36.59,36.59,0,0,1,11.24,5l-3.56,8.65a34.86,34.86,0,0,0-10.27-4.7,40.34,40.34,0,0,0-10.49-1.46,28.87,28.87,0,0,0-10.48,1.62,12.78,12.78,0,0,0-6,4.33,10.31,10.31,0,0,0-1.89,6.05,8.3,8.3,0,0,0,2.54,6.38,18.33,18.33,0,0,0,6.59,3.78,89.25,89.25,0,0,0,8.92,2.54q4.86,1.14,9.78,2.54a42,42,0,0,1,9,3.67,18.67,18.67,0,0,1,6.54,6.06,17.37,17.37,0,0,1,2.49,9.73,19.4,19.4,0,0,1-3.14,10.64,21.65,21.65,0,0,1-9.67,7.89Q2286.43,626,2276.49,626Z" transform="translate(-19.89 -15.35)"></path><path class="cls-1" d="M2316.05,625.17l34.26-75.66H2361l34.37,75.66H2384l-30.58-69.61h4.32l-30.59,69.61Zm14.59-18.91,2.92-8.65h42.58l3.14,8.65Z" transform="translate(-19.89 -15.35)"></path><path class="cls-1" d="M2412.57,625.17V549.51h8.86l50.05,62.15h-4.65V549.51h10.81v75.66h-8.86L2418.73,563h4.65v62.15Z" transform="translate(-19.89 -15.35)"></path><path class="cls-1" d="M2506.28,625.17V549.51h31.89a46,46,0,0,1,21.35,4.75,35.29,35.29,0,0,1,14.38,13.3,40.7,40.7,0,0,1,0,39.56,35.22,35.22,0,0,1-14.38,13.3,46,46,0,0,1-21.35,4.75Zm10.81-9.4h20.43a34.84,34.84,0,0,0,16.27-3.57,26,26,0,0,0,10.65-10,31.22,31.22,0,0,0,0-29.78,26.09,26.09,0,0,0-10.65-9.94,34.84,34.84,0,0,0-16.27-3.57h-20.43Z" transform="translate(-19.89 -15.35)"></path><path class="cls-1" d="M2635.67,626a43.45,43.45,0,0,1-16.05-2.92,38.46,38.46,0,0,1-12.81-8.16,37.55,37.55,0,0,1-8.43-12.27,40.4,40.4,0,0,1,0-30.7,37.55,37.55,0,0,1,8.43-12.27,38.6,38.6,0,0,1,12.75-8.16,46,46,0,0,1,32.11,0,37.83,37.83,0,0,1,12.75,8.1,37.1,37.1,0,0,1,8.38,12.33,41.57,41.57,0,0,1,0,30.86,37.12,37.12,0,0,1-8.38,12.26,37.7,37.7,0,0,1-12.75,8.11A43.75,43.75,0,0,1,2635.67,626Zm0-9.62a30.57,30.57,0,0,0,11.62-2.17,27.53,27.53,0,0,0,9.29-6.1,28.34,28.34,0,0,0,6.16-9.24,29.64,29.64,0,0,0,2.22-11.57,28.91,28.91,0,0,0-8.38-20.75,27.27,27.27,0,0,0-9.29-6.17,30.76,30.76,0,0,0-11.62-2.16,31.07,31.07,0,0,0-11.73,2.16,27.91,27.91,0,0,0-9.35,6.17,28.67,28.67,0,0,0-6.22,9.24,29.37,29.37,0,0,0-2.21,11.51,29.81,29.81,0,0,0,2.21,11.57,28,28,0,0,0,15.57,15.34A30.88,30.88,0,0,0,2635.67,616.42Z" transform="translate(-19.89 -15.35)"></path><path class="cls-1" d="M2697.07,625.82a7.29,7.29,0,0,1-7.35-7.46,6.94,6.94,0,0,1,2.16-5.29,7.27,7.27,0,0,1,5.19-2.06,6.94,6.94,0,0,1,5,2.06,7,7,0,0,1,2.11,5.29,7.23,7.23,0,0,1-2.11,5.35A6.83,6.83,0,0,1,2697.07,625.82Zm25.07,0a7.29,7.29,0,0,1-7.35-7.46,7,7,0,0,1,2.16-5.29,7.27,7.27,0,0,1,5.19-2.06,7,7,0,0,1,5,2.06,7.08,7.08,0,0,1,2.11,5.29,7.26,7.26,0,0,1-2.11,5.35A6.85,6.85,0,0,1,2722.14,625.82Zm25.08,0a7.29,7.29,0,0,1-7.35-7.46,7,7,0,0,1,2.16-5.29,7.27,7.27,0,0,1,5.19-2.06,7,7,0,0,1,5,2.06,7.07,7.07,0,0,1,2.1,5.29,7.26,7.26,0,0,1-2.1,5.35A6.87,6.87,0,0,1,2747.22,625.82Z" transform="translate(-19.89 -15.35)"></path></g></g></svg>