<svg xmlns="http://www.w3.org/2000/svg" viewBox="0 0 1278.79 321.66"><defs><style>.cls-1{fill:#fff;}</style></defs><title>1</title><g id="Camada_2" data-name="Camada 2"><g id="Camada_1-2" data-name="Camada 1"><g id="B1"><rect y="141.09" width="1278.79" height="180.57"/><rect width="806.98" height="180.57"/><path class="cls-1" d="M71.7,136.63l-25-70.08h18.9l20.71,60.31H77.23L98.82,66.54h17.09l20.84,60.3H128L149.2,66.53h17.74l-25.05,70.08H122.61L104.09,84.91h5.78L91.11,136.62Z"/><path class="cls-1" d="M208.73,137.64A43.58,43.58,0,0,1,188,133a34.39,34.39,0,0,1-13.76-12.83,35.33,35.33,0,0,1-4.89-18.56,36.83,36.83,0,0,1,4.69-18.63,33.22,33.22,0,0,1,13.11-12.83,38.63,38.63,0,0,1,19-4.63,37.84,37.84,0,0,1,18.32,4.42,33,33,0,0,1,12.92,12.51q4.76,8.07,4.76,19.41c0,.78-.05,1.67-.13,2.67s-.17,1.93-.26,2.8H185.59V95.44h45.63L223.38,99a18.8,18.8,0,0,0-2.06-9.51,16.09,16.09,0,0,0-6-6.31,17.35,17.35,0,0,0-9-2.28,17.67,17.67,0,0,0-9.06,2.28,15.81,15.81,0,0,0-6.11,6.39,20.42,20.42,0,0,0-2.18,9.7v3.13a19.49,19.49,0,0,0,2.57,10.16,17,17,0,0,0,7.08,6.57,23.58,23.58,0,0,0,10.79,2.28,25.35,25.35,0,0,0,9.58-1.69,23.75,23.75,0,0,0,7.65-5.09l10.67,11.73a31.12,31.12,0,0,1-12,8.4A43.57,43.57,0,0,1,208.73,137.64Z"/><path class="cls-1" d="M313.24,137.63a31.39,31.39,0,0,1-13.76-2.8,21.7,21.7,0,0,1-8.93-7.62,19.33,19.33,0,0,1-3.15-10.81,19.81,19.81,0,0,1,3-10.88q3-4.76,9.57-7.36t17.23-2.61h18.25v11.72h-16.2q-7.06,0-9.7,2.35a7.5,7.5,0,0,0-2.63,5.86,7.32,7.32,0,0,0,3,6.19,13.22,13.22,0,0,0,8.16,2.28,17.93,17.93,0,0,0,9.19-2.35,12.74,12.74,0,0,0,5.72-7.16l3.09,9.51a18.45,18.45,0,0,1-8,10.09Q322.36,137.63,313.24,137.63Zm21.08-1V122.9l-1.29-3V95.42q0-6.51-3.93-10.16t-12-3.65a34.6,34.6,0,0,0-10.87,1.76A30.47,30.47,0,0,0,297,88.13L290,73.93a40.56,40.56,0,0,1,13.63-6.32,62,62,0,0,1,16.19-2.15q15.81,0,24.56,7.55t8.74,23.58v40Z"/><path class="cls-1" d="M371.21,136.57V66.49h19.15V86.42l-2.7-5.86a22.44,22.44,0,0,1,9.9-11.27q6.81-3.84,16.58-3.85V84.33q-1.17-.26-2.25-.39a19.62,19.62,0,0,0-2.13-.13q-8.47,0-13.49,4.82t-5,14.85v33.09Z"/><path class="cls-1" d="M459.78,137.6a43.74,43.74,0,0,1-20.7-4.68,34.44,34.44,0,0,1-13.75-12.83,35.36,35.36,0,0,1-4.89-18.56,36.83,36.83,0,0,1,4.69-18.63,33.18,33.18,0,0,1,13.11-12.84,38.74,38.74,0,0,1,19-4.62,37.8,37.8,0,0,1,18.31,4.42,33,33,0,0,1,12.93,12.51q4.76,8.07,4.76,19.4c0,.79-.05,1.68-.13,2.67s-.18,1.94-.26,2.8H436.64V95.4h45.64l-7.84,3.52a18.76,18.76,0,0,0-2.06-9.51,16.09,16.09,0,0,0-6-6.31,17.4,17.4,0,0,0-9-2.28,17.74,17.74,0,0,0-9.07,2.28,15.89,15.89,0,0,0-6.1,6.38A20.35,20.35,0,0,0,440,99.18v3.12a19.35,19.35,0,0,0,2.57,10.16,17,17,0,0,0,7.07,6.58,23.65,23.65,0,0,0,10.8,2.28,25.34,25.34,0,0,0,9.58-1.7,23.42,23.42,0,0,0,7.64-5.08l10.67,11.72a31.1,31.1,0,0,1-11.95,8.41A43.8,43.8,0,0,1,459.78,137.6Z"/><path class="cls-1" d="M585,65.41a31.93,31.93,0,0,1,14.72,3.32,24,24,0,0,1,10.22,10.16q3.72,6.84,3.73,17.52v40.12H593.59v-37q0-8.46-3.67-12.5t-10.35-4A17.46,17.46,0,0,0,571,85.09a14.55,14.55,0,0,0-5.91,6.12q-2.11,4-2.12,10.68v34.65H543l0-70.09h19.16V85.87L558.49,80a25.83,25.83,0,0,1,10.67-10.82A32.73,32.73,0,0,1,585,65.41Z"/><path class="cls-1" d="M665.06,137.57a39.78,39.78,0,0,1-19.47-4.69,34.92,34.92,0,0,1-13.44-12.83,35.4,35.4,0,0,1-4.89-18.56,35.6,35.6,0,0,1,4.89-18.69A34.39,34.39,0,0,1,645.58,70a40.28,40.28,0,0,1,19.47-4.63A41,41,0,0,1,684.72,70a34.38,34.38,0,0,1,13.5,12.77,35.74,35.74,0,0,1,4.89,18.69,35.28,35.28,0,0,1-4.89,18.63,34.9,34.9,0,0,1-13.49,12.76A40.43,40.43,0,0,1,665.06,137.57Zm0-16.68a17.67,17.67,0,0,0,9.06-2.28,16.64,16.64,0,0,0,6.3-6.71,21.75,21.75,0,0,0,2.38-10.42,21.31,21.31,0,0,0-2.38-10.42,16.87,16.87,0,0,0-6.3-6.58,17.49,17.49,0,0,0-8.94-2.28,17.92,17.92,0,0,0-9,2.29,16.73,16.73,0,0,0-6.36,6.58,21.28,21.28,0,0,0-2.37,10.42,21.66,21.66,0,0,0,2.38,10.42,16.44,16.44,0,0,0,6.36,6.71A17.64,17.64,0,0,0,665.06,120.89Z"/><path class="cls-1" d="M708.24,83.63V68h48V83.62Zm36.52,53.92q-12.21,0-19-6.31t-6.81-18.82V50.93h20.18V112a9.89,9.89,0,0,0,2.25,6.91,7.85,7.85,0,0,0,6.11,2.47,13,13,0,0,0,8.22-2.61L761,133.12a20.26,20.26,0,0,1-7.26,3.32A35.64,35.64,0,0,1,744.76,137.55Z"/><path class="cls-1" d="M55.92,294.79l0-95.35H75.06v14.33l-.38,20.84L76,255.32v39.47Zm40.74-24.23a29,29,0,0,1-15.16-3.91,25.89,25.89,0,0,1-10.23-11.92q-3.66-8-3.66-20.25t3.46-20.32A24.83,24.83,0,0,1,81.16,202.3a30,30,0,0,1,15.49-3.91,34.77,34.77,0,0,1,17.68,4.49,33,33,0,0,1,12.34,12.57,38.06,38.06,0,0,1,4.57,19q0,11.07-4.56,19.08a33.09,33.09,0,0,1-12.34,12.51A34.67,34.67,0,0,1,96.66,270.56Zm-3.34-16.68a16.66,16.66,0,0,0,15.23-9,23.87,23.87,0,0,0,0-20.78,16.93,16.93,0,0,0-6.3-6.58,17.55,17.55,0,0,0-8.94-2.27,17.75,17.75,0,0,0-9,2.28A16.69,16.69,0,0,0,78,224.06a23.89,23.89,0,0,0,0,20.77,17,17,0,0,0,6.36,6.71A17.46,17.46,0,0,0,93.32,253.88Z"/><path class="cls-1" d="M144.61,269.51V199.43h19.15v19.93l-2.7-5.86a22.49,22.49,0,0,1,9.9-11.27q6.81-3.84,16.58-3.84v18.88q-1.17-.25-2.25-.39a19.62,19.62,0,0,0-2.13-.13q-8.47,0-13.49,4.83t-5,14.85V269.5Z"/><path class="cls-1" d="M209.51,189.64a12.77,12.77,0,0,1-9.13-3.25,11.13,11.13,0,0,1,0-16.15,12.82,12.82,0,0,1,9.13-3.26,13.36,13.36,0,0,1,9.06,3.06,9.94,9.94,0,0,1,3.54,7.88,11.13,11.13,0,0,1-3.47,8.4A12.64,12.64,0,0,1,209.51,189.64Zm-10,79.86V199.42h20v70.08Z"/><path class="cls-1" d="M280.21,198.36a31.9,31.9,0,0,1,14.72,3.32,23.85,23.85,0,0,1,10.22,10.16q3.74,6.84,3.73,17.52v40.12H288.84v-37c0-5.65-1.22-9.81-3.67-12.51s-5.89-4-10.34-4a17.46,17.46,0,0,0-8.55,2.08,14.41,14.41,0,0,0-5.91,6.13q-2.13,4-2.12,10.68v34.65H238.19V199.41h19.15v19.41l-3.6-5.87a25.81,25.81,0,0,1,10.67-10.81A32.53,32.53,0,0,1,280.21,198.36Z"/><path class="cls-1" d="M361,270.51a41.58,41.58,0,0,1-19.86-4.62,34.53,34.53,0,0,1-13.63-12.83,35.34,35.34,0,0,1-4.95-18.62A34.41,34.41,0,0,1,341.08,203a41,41,0,0,1,19.86-4.69A38.14,38.14,0,0,1,380,203a26.69,26.69,0,0,1,11.76,13.09l-15.42,8.6a18.76,18.76,0,0,0-6.82-7.23,17.27,17.27,0,0,0-8.74-2.28,18.48,18.48,0,0,0-9.12,2.28,16.87,16.87,0,0,0-6.56,6.58,20.78,20.78,0,0,0-2.44,10.42,21.24,21.24,0,0,0,2.44,10.49,16.77,16.77,0,0,0,6.56,6.64,18.52,18.52,0,0,0,9.13,2.28,17.3,17.3,0,0,0,8.74-2.28,18.6,18.6,0,0,0,6.81-7.36l15.43,8.59a27.16,27.16,0,0,1-11.76,13A37.62,37.62,0,0,1,361,270.51Z"/><path class="cls-1" d="M436.92,270.5a43.63,43.63,0,0,1-20.7-4.69A34.3,34.3,0,0,1,402.47,253a35.31,35.31,0,0,1-4.89-18.56,36.89,36.89,0,0,1,4.69-18.63A33.16,33.16,0,0,1,415.38,203a38.85,38.85,0,0,1,19-4.63,37.84,37.84,0,0,1,18.32,4.43,33.09,33.09,0,0,1,12.92,12.5q4.76,8.09,4.76,19.41c0,.78,0,1.67-.13,2.67s-.17,1.94-.26,2.8H413.78V228.3h45.64l-7.84,3.52a18.76,18.76,0,0,0-2.06-9.51,16.12,16.12,0,0,0-6-6.32,17.37,17.37,0,0,0-9-2.27,17.67,17.67,0,0,0-9.06,2.28,15.78,15.78,0,0,0-6.11,6.38,20.35,20.35,0,0,0-2.18,9.71v3.12a19.35,19.35,0,0,0,2.57,10.16,17,17,0,0,0,7.07,6.58,23.65,23.65,0,0,0,10.8,2.28,25.34,25.34,0,0,0,9.58-1.7,23.58,23.58,0,0,0,7.64-5.08l10.68,11.72a31.21,31.21,0,0,1-12,8.41A43.8,43.8,0,0,1,436.92,270.5Z"/><path class="cls-1" d="M507,270.49a66,66,0,0,1-17-2.15,43.77,43.77,0,0,1-13-5.4l6.56-14.46A50.09,50.09,0,0,0,495,253.23a45.66,45.66,0,0,0,12.79,1.89q6.94,0,9.84-1.7a5.21,5.21,0,0,0,2.89-4.69,4,4,0,0,0-2.25-3.71,19.74,19.74,0,0,0-5.91-1.89q-3.67-.65-8.17-1.3a79,79,0,0,1-8.93-1.82,34.51,34.51,0,0,1-8.23-3.32,16.21,16.21,0,0,1-6-5.93,18.89,18.89,0,0,1-2.25-9.77,19.16,19.16,0,0,1,3.85-11.79,24.93,24.93,0,0,1,10.93-8,45.49,45.49,0,0,1,17.09-2.87A65.79,65.79,0,0,1,525,200a44,44,0,0,1,12.27,4.49l-6.81,14.46a35.44,35.44,0,0,0-10-4,43.27,43.27,0,0,0-9.71-1.17c-4.62,0-8,.61-10,1.83s-3.09,2.78-3.09,4.69a4.34,4.34,0,0,0,2.32,4,17.88,17.88,0,0,0,6,2c2.48.43,5.23.87,8.23,1.3a76.21,76.21,0,0,1,8.87,1.82,34.85,34.85,0,0,1,8.16,3.32,16.21,16.21,0,0,1,6,5.93,18.89,18.89,0,0,1,2.25,9.77,18.23,18.23,0,0,1-3.85,11.4,25.36,25.36,0,0,1-11.12,7.88A48.23,48.23,0,0,1,507,270.49Z"/><path class="cls-1" d="M575.23,270.48a66,66,0,0,1-17-2.15,43.81,43.81,0,0,1-13-5.4l6.55-14.46a50.18,50.18,0,0,0,11.38,4.75A45.61,45.61,0,0,0,576,255.11c4.63,0,7.91-.57,9.83-1.7a5.22,5.22,0,0,0,2.9-4.69,4,4,0,0,0-2.25-3.71,19.26,19.26,0,0,0-5.92-1.89c-2.44-.43-5.16-.87-8.16-1.3a78.51,78.51,0,0,1-8.93-1.82,34.35,34.35,0,0,1-8.23-3.32,16.21,16.21,0,0,1-6-5.93,18.89,18.89,0,0,1-2.26-9.77,19.15,19.15,0,0,1,3.86-11.79,25,25,0,0,1,10.92-8,45.58,45.58,0,0,1,17.1-2.87,65.63,65.63,0,0,1,14.46,1.63,44.08,44.08,0,0,1,12.28,4.49l-6.81,14.46a35.38,35.38,0,0,0-10-4,43.19,43.19,0,0,0-9.7-1.17q-6.95,0-10,1.83c-2,1.21-3.08,2.78-3.08,4.69a4.36,4.36,0,0,0,2.31,4,18.24,18.24,0,0,0,6.05,2q3.72.65,8.22,1.3a75.78,75.78,0,0,1,8.87,1.82,34.92,34.92,0,0,1,8.17,3.32,16.28,16.28,0,0,1,6,5.93,18.89,18.89,0,0,1,2.25,9.77A18.14,18.14,0,0,1,604,259.72a25.26,25.26,0,0,1-11.11,7.89Q585.64,270.47,575.23,270.48Z"/><path class="cls-1" d="M677.94,270.46a31.25,31.25,0,0,1-13.76-2.8,21.7,21.7,0,0,1-8.93-7.62,19.31,19.31,0,0,1-3.15-10.81,19.89,19.89,0,0,1,3-10.88q3-4.75,9.58-7.36t17.22-2.61h18.26V240.1H684q-7.07,0-9.7,2.34a7.53,7.53,0,0,0-2.64,5.86,7.36,7.36,0,0,0,3,6.19,13.22,13.22,0,0,0,8.16,2.28,17.93,17.93,0,0,0,9.19-2.35,12.74,12.74,0,0,0,5.72-7.16l3.09,9.51a18.41,18.41,0,0,1-8,10.09Q687.06,270.46,677.94,270.46Zm21.08-1V255.74l-1.29-3V228.25c0-4.34-1.31-7.73-3.93-10.16s-6.62-3.65-12-3.65a34.59,34.59,0,0,0-10.86,1.77,30.23,30.23,0,0,0-9.19,4.75l-7.07-14.2a40.6,40.6,0,0,1,13.62-6.32,62.15,62.15,0,0,1,16.2-2.15q15.81,0,24.55,7.55t8.75,23.58v40Z"/><path class="cls-1" d="M777.93,198.28a31.68,31.68,0,0,1,14.72,3.32,23.88,23.88,0,0,1,10.22,10.15q3.74,6.84,3.73,17.52v40.12H786.56v-37q0-8.46-3.67-12.5t-10.34-4A17.41,17.41,0,0,0,764,218a14.44,14.44,0,0,0-5.91,6.12q-2.13,4-2.12,10.68V269.4H735.91V199.32h19.15v19.41l-3.6-5.86a25.81,25.81,0,0,1,10.67-10.81A32.53,32.53,0,0,1,777.93,198.28Z"/><path class="cls-1" d="M832.19,295.7A34.29,34.29,0,0,1,821.65,294a24.86,24.86,0,0,1-8.74-4.69l7.33-14.59a15.94,15.94,0,0,0,5.33,3.39,16.78,16.78,0,0,0,6.11,1.17,10.22,10.22,0,0,0,6.62-2,17.56,17.56,0,0,0,4.56-6.71l3.6-8.6,1.54-2.21,24.93-60.45h19.15l-31.22,74.38q-3.35,8.61-7.65,13.36a24.52,24.52,0,0,1-9.51,6.71A32.59,32.59,0,0,1,832.19,295.7ZM844,272.12l-30.74-72.81h20.57l24,58.74Z"/><path class="cls-1" d="M988.87,198.24a31.1,31.1,0,0,1,14.59,3.32,23.37,23.37,0,0,1,10,10.16q3.6,6.84,3.6,17.52v40.12H997v-37c0-5.65-1.14-9.81-3.41-12.51s-5.47-4-9.58-4a15.51,15.51,0,0,0-8,2,13.14,13.14,0,0,0-5.33,6,24.44,24.44,0,0,0-1.86,10.36v35.17H948.78v-37q0-8.48-3.41-12.51t-9.83-4a15.27,15.27,0,0,0-7.84,2,13.5,13.5,0,0,0-5.4,6,23.89,23.89,0,0,0-1.93,10.35v35.18h-20l0-70.08h19.16v19l-3.6-5.47A24.18,24.18,0,0,1,926,202a30.51,30.51,0,0,1,15-3.71,29.07,29.07,0,0,1,16.72,4.88Q965,208,967.28,218l-7.07-1.95a28.53,28.53,0,0,1,11-13A31.79,31.79,0,0,1,988.87,198.24Z"/><path class="cls-1" d="M1068.45,270.39a39.88,39.88,0,0,1-19.47-4.68,34.68,34.68,0,0,1-18.32-31.39,35.51,35.51,0,0,1,4.88-18.7A34.53,34.53,0,0,1,1049,202.85a40.27,40.27,0,0,1,19.47-4.62,41,41,0,0,1,19.67,4.62,34.43,34.43,0,0,1,13.5,12.76,35.69,35.69,0,0,1,4.89,18.69,34.41,34.41,0,0,1-18.38,31.4A40.43,40.43,0,0,1,1068.45,270.39Zm0-16.67a17.67,17.67,0,0,0,9.06-2.28,16.64,16.64,0,0,0,6.3-6.71,21.78,21.78,0,0,0,2.38-10.42,21.29,21.29,0,0,0-2.38-10.42,16.87,16.87,0,0,0-6.3-6.58,17.49,17.49,0,0,0-8.94-2.28,17.75,17.75,0,0,0-9,2.28,16.69,16.69,0,0,0-6.37,6.58,21.31,21.31,0,0,0-2.37,10.42,21.64,21.64,0,0,0,2.38,10.42,16.38,16.38,0,0,0,6.36,6.71A17.54,17.54,0,0,0,1068.45,253.72Z"/><path class="cls-1" d="M1119.87,269.34V199.26H1139v19.93l-2.7-5.86a22.44,22.44,0,0,1,9.9-11.27q6.81-3.85,16.58-3.85V217.1q-1.17-.25-2.25-.39a17.38,17.38,0,0,0-2.13-.13q-8.48,0-13.49,4.82t-5,14.85v33.09Z"/><path class="cls-1" d="M1208.44,270.37a43.63,43.63,0,0,1-20.7-4.69A34.3,34.3,0,0,1,1174,252.85a35.31,35.31,0,0,1-4.89-18.56,36.89,36.89,0,0,1,4.69-18.63,33.16,33.16,0,0,1,13.11-12.83,38.74,38.74,0,0,1,19-4.63,37.84,37.84,0,0,1,18.32,4.43,33.09,33.09,0,0,1,12.92,12.5q4.76,8.09,4.76,19.41c0,.78,0,1.67-.13,2.67s-.17,1.93-.26,2.8H1185.3V228.17h45.64l-7.84,3.52a18.76,18.76,0,0,0-2.06-9.51,16.12,16.12,0,0,0-6-6.32,17.37,17.37,0,0,0-9-2.28,17.68,17.68,0,0,0-9.06,2.29,15.78,15.78,0,0,0-6.11,6.38,20.3,20.3,0,0,0-2.18,9.7v3.13a19.35,19.35,0,0,0,2.57,10.16,17,17,0,0,0,7.07,6.58,23.65,23.65,0,0,0,10.8,2.28,25.54,25.54,0,0,0,9.58-1.7,23.58,23.58,0,0,0,7.64-5.08L1237,259a31,31,0,0,1-12,8.4A43.6,43.6,0,0,1,1208.44,270.37Z"/></g></g></g></svg>