<svg xmlns="http://www.w3.org/2000/svg" viewBox="0 0 821.14 748.18"><defs><style>.cls-1{fill:#b43176;}.cls-2{fill:#fff;}</style></defs><title>8_1</title><g id="Camada_2" data-name="Camada 2"><g id="Camada_1-2" data-name="Camada 1"><rect class="cls-1" x="146.63" y="74.49" width="441.88" height="102.1"/><rect class="cls-1" x="325.6" y="362.78" width="495.55" height="102.1"/><rect class="cls-1" y="554.84" width="739.77" height="102.1"/><rect class="cls-1" x="0.55" y="646.08" width="522.77" height="102.1"/><rect class="cls-1" y="462.3" width="690.45" height="102.1"/><path class="cls-2" d="M48.22,63.7a29.75,29.75,0,0,1-11-2,26.32,26.32,0,0,1-8.8-5.6,26,26,0,0,1-5.79-8.43,26.46,26.46,0,0,1-2.07-10.54A26.43,26.43,0,0,1,22.6,26.58a26,26,0,0,1,5.79-8.43,26.39,26.39,0,0,1,8.77-5.6,29.61,29.61,0,0,1,11.06-2,30.06,30.06,0,0,1,11,2A26.06,26.06,0,0,1,68,18.08a25.35,25.35,0,0,1,5.75,8.46,27.07,27.07,0,0,1,2,10.58,27,27,0,0,1-2,10.62A25.49,25.49,0,0,1,68,56.16a26.06,26.06,0,0,1-8.76,5.57A30.06,30.06,0,0,1,48.22,63.7Zm0-6.61a21.1,21.1,0,0,0,8-1.48,18.85,18.85,0,0,0,6.38-4.2,19.41,19.41,0,0,0,4.23-6.35,20.25,20.25,0,0,0,1.53-7.94,19.86,19.86,0,0,0-5.76-14.25,18.52,18.52,0,0,0-6.38-4.24,21.1,21.1,0,0,0-8-1.48,21.33,21.33,0,0,0-8.06,1.48,19,19,0,0,0-6.42,4.24,19.85,19.85,0,0,0-4.27,6.34A20.2,20.2,0,0,0,28,37.12a20.43,20.43,0,0,0,1.52,7.94A19.31,19.31,0,0,0,40.16,55.61,21.33,21.33,0,0,0,48.22,57.09Z" transform="translate(0 -6.9)"/><path class="cls-2" d="M130.48,63.55A20.37,20.37,0,0,1,120.27,61,18.4,18.4,0,0,1,113.18,54a20.73,20.73,0,0,1-2.6-10.54,20.56,20.56,0,0,1,2.6-10.51,18.5,18.5,0,0,1,7.09-7,20.48,20.48,0,0,1,10.21-2.53,18.56,18.56,0,0,1,9.13,2.23A15.77,15.77,0,0,1,146,32.29a23.81,23.81,0,0,1,2.34,11.14,23.19,23.19,0,0,1-2.41,11.14,16.45,16.45,0,0,1-6.42,6.71A17.94,17.94,0,0,1,130.48,63.55Zm.59-6.24a13.48,13.48,0,0,0,6.72-1.7,12.3,12.3,0,0,0,4.75-4.87,14.88,14.88,0,0,0,1.74-7.31,14.62,14.62,0,0,0-1.74-7.31,12.42,12.42,0,0,0-4.75-4.79,14.14,14.14,0,0,0-13.48,0,12.77,12.77,0,0,0-4.75,4.79,14.32,14.32,0,0,0-1.78,7.31,14.58,14.58,0,0,0,1.78,7.31,12.64,12.64,0,0,0,4.75,4.87A13.41,13.41,0,0,0,131.07,57.31Zm13.14,20.2V52.64L145,43.5l-.44-9.13V23.76h6.83V77.51Z" transform="translate(0 -6.9)"/><path class="cls-2" d="M185.49,63.55a20,20,0,0,1-8.87-1.86A13.25,13.25,0,0,1,170.68,56a19.66,19.66,0,0,1-2.12-9.61V23.76h7.13V45.58q0,5.79,2.78,8.69t7.83,2.89a13,13,0,0,0,6.46-1.52A10.23,10.23,0,0,0,197,51.19a15.57,15.57,0,0,0,1.49-7.09V23.76h7.13V63.1h-6.76V52.49L200,55.31a13.74,13.74,0,0,1-5.79,6.09A17.57,17.57,0,0,1,185.49,63.55Z" transform="translate(0 -6.9)"/><path class="cls-2" d="M240.8,63.55A22.92,22.92,0,0,1,229.7,61a18.69,18.69,0,0,1-7.43-7.13,20.24,20.24,0,0,1-2.63-10.39A20.71,20.71,0,0,1,222.2,33,18.47,18.47,0,0,1,229.25,26a21.34,21.34,0,0,1,20.23,0A17.9,17.9,0,0,1,256.35,33a21.88,21.88,0,0,1,2.49,10.65c0,.3,0,.65,0,1s-.06.77-.11,1.12H225.2V40.68H255l-2.9,1.78a13.2,13.2,0,0,0-1.56-6.75A11.93,11.93,0,0,0,246,31.07a14,14,0,0,0-13.25,0,11.73,11.73,0,0,0-4.53,4.68,14.11,14.11,0,0,0-1.63,6.86V43.8a13.6,13.6,0,0,0,1.81,7,12.58,12.58,0,0,0,5.09,4.79,16.07,16.07,0,0,0,7.5,1.7,16.47,16.47,0,0,0,6.35-1.18,14,14,0,0,0,5-3.57l3.93,4.6a17.28,17.28,0,0,1-6.64,4.76A23.32,23.32,0,0,1,240.8,63.55Z" transform="translate(0 -6.9)"/><path class="cls-2" d="M313.11,63.55A20.37,20.37,0,0,1,302.9,61,18.4,18.4,0,0,1,295.81,54a20.73,20.73,0,0,1-2.6-10.54,20.56,20.56,0,0,1,2.6-10.51,18.5,18.5,0,0,1,7.09-7,20.48,20.48,0,0,1,10.21-2.53,18.23,18.23,0,0,1,9,2.23,16.31,16.31,0,0,1,6.42,6.68,23.19,23.19,0,0,1,2.41,11.14,23.81,23.81,0,0,1-2.34,11.14,15.91,15.91,0,0,1-6.34,6.71A18.27,18.27,0,0,1,313.11,63.55Zm.59-6.24a13.48,13.48,0,0,0,6.72-1.7,12.3,12.3,0,0,0,4.75-4.87,14.88,14.88,0,0,0,1.74-7.31,14.62,14.62,0,0,0-1.74-7.31,12.42,12.42,0,0,0-4.75-4.79,14.14,14.14,0,0,0-13.48,0,12.77,12.77,0,0,0-4.75,4.79,14.32,14.32,0,0,0-1.78,7.31,14.58,14.58,0,0,0,1.78,7.31,12.64,12.64,0,0,0,4.75,4.87A13.41,13.41,0,0,0,313.7,57.31Zm13.44,5.79V52.49l.44-9.13-.74-9.14V8H334V63.1Z" transform="translate(0 -6.9)"/><path class="cls-2" d="M369.08,63.55A23,23,0,0,1,358,61a18.67,18.67,0,0,1-7.42-7.13,20.24,20.24,0,0,1-2.64-10.39A20.81,20.81,0,0,1,350.48,33,18.43,18.43,0,0,1,357.54,26a21.34,21.34,0,0,1,20.23,0A17.9,17.9,0,0,1,384.64,33a22,22,0,0,1,2.48,10.65c0,.3,0,.65,0,1s-.07.77-.12,1.12H353.49V40.68h29.77l-2.89,1.78a13.3,13.3,0,0,0-1.56-6.75,11.93,11.93,0,0,0-4.49-4.64,14,14,0,0,0-13.26,0,11.64,11.64,0,0,0-4.52,4.68,14.11,14.11,0,0,0-1.64,6.86V43.8a13.6,13.6,0,0,0,1.82,7,12.52,12.52,0,0,0,5.09,4.79,16,16,0,0,0,7.49,1.7,16.4,16.4,0,0,0,6.35-1.18,13.86,13.86,0,0,0,5-3.57l3.94,4.6A17.24,17.24,0,0,1,378,61.92,23.24,23.24,0,0,1,369.08,63.55Z" transform="translate(0 -6.9)"/><path class="cls-2" d="M410.66,63.1,393.43,23.76h7.43l15.29,35.63h-3.56l15.59-35.63h7L417.93,63.1Z" transform="translate(0 -6.9)"/><path class="cls-2" d="M462.33,63.55a22.92,22.92,0,0,1-11.1-2.6,18.76,18.76,0,0,1-7.43-7.13,20.34,20.34,0,0,1-2.63-10.39A20.71,20.71,0,0,1,443.73,33a18.47,18.47,0,0,1,7-7.09,20.11,20.11,0,0,1,10.14-2.57A19.87,19.87,0,0,1,471,25.91,17.9,17.9,0,0,1,477.88,33a21.88,21.88,0,0,1,2.49,10.65c0,.3,0,.65,0,1s-.06.77-.11,1.12H446.74V40.68h29.77l-2.9,1.78a13.2,13.2,0,0,0-1.56-6.75,11.86,11.86,0,0,0-4.49-4.64,14,14,0,0,0-13.25,0,11.73,11.73,0,0,0-4.53,4.68,14.11,14.11,0,0,0-1.63,6.86V43.8a13.51,13.51,0,0,0,1.82,7,12.49,12.49,0,0,0,5.08,4.79,16.07,16.07,0,0,0,7.5,1.7,16.44,16.44,0,0,0,6.35-1.18,14,14,0,0,0,5-3.57l3.93,4.6a17.21,17.21,0,0,1-6.64,4.76A23.32,23.32,0,0,1,462.33,63.55Z" transform="translate(0 -6.9)"/><path class="cls-2" d="M535.9,63.55A22.92,22.92,0,0,1,524.8,61a18.67,18.67,0,0,1-7.42-7.13,20.24,20.24,0,0,1-2.64-10.39A20.81,20.81,0,0,1,517.3,33,18.43,18.43,0,0,1,524.36,26a21.34,21.34,0,0,1,20.23,0A17.87,17.87,0,0,1,551.45,33a21.88,21.88,0,0,1,2.49,10.65c0,.3,0,.65,0,1s-.06.77-.11,1.12H520.31V40.68h29.77l-2.9,1.78a13.3,13.3,0,0,0-1.55-6.75,11.88,11.88,0,0,0-4.5-4.64,14,14,0,0,0-13.25,0,11.73,11.73,0,0,0-4.53,4.68,14.11,14.11,0,0,0-1.63,6.86V43.8a13.6,13.6,0,0,0,1.82,7,12.55,12.55,0,0,0,5.08,4.79,16.07,16.07,0,0,0,7.5,1.7,16.44,16.44,0,0,0,6.35-1.18,13.86,13.86,0,0,0,5-3.57l3.94,4.6a17.32,17.32,0,0,1-6.65,4.76A23.28,23.28,0,0,1,535.9,63.55Z" transform="translate(0 -6.9)"/><path class="cls-2" d="M561.07,63.1l16.92-22-.07,3.64-16.11-21h7.94l12.33,16.18H579l12.33-16.18h7.79L582.82,44.91l.07-3.78L600,63.1h-8.09l-13-17.22,2.89.45L569,63.1Z" transform="translate(0 -6.9)"/><path class="cls-2" d="M615.41,16.18A4.73,4.73,0,0,1,612,14.85a4.37,4.37,0,0,1-1.38-3.27A4.45,4.45,0,0,1,612,8.24a4.74,4.74,0,0,1,3.45-1.34,4.83,4.83,0,0,1,3.45,1.3,4.27,4.27,0,0,1,1.38,3.23,4.64,4.64,0,0,1-4.83,4.75ZM611.85,63.1V23.76H619V63.1Z" transform="translate(0 -6.9)"/><path class="cls-2" d="M647.93,63.55a32,32,0,0,1-9.32-1.34A21.91,21.91,0,0,1,631.67,59l3-5.65a24.22,24.22,0,0,0,6.23,2.9,24.8,24.8,0,0,0,7.58,1.19q5,0,7.16-1.41A4.45,4.45,0,0,0,657.8,52a3.44,3.44,0,0,0-1.33-2.89,9,9,0,0,0-3.53-1.56q-2.19-.53-4.86-.93t-5.35-1a21.24,21.24,0,0,1-4.9-1.78,9.3,9.3,0,0,1-3.56-3.19,9.85,9.85,0,0,1-1.34-5.46,10.09,10.09,0,0,1,2-6.24,12.66,12.66,0,0,1,5.68-4.12,23.8,23.8,0,0,1,8.72-1.45,34.29,34.29,0,0,1,7.83.93,19.51,19.51,0,0,1,6.5,2.64l-3,5.64a16.86,16.86,0,0,0-5.57-2.45,26,26,0,0,0-5.79-.67c-3.11,0-5.44.51-7,1.52a4.55,4.55,0,0,0-2.31,3.9A3.66,3.66,0,0,0,641.36,38a9.74,9.74,0,0,0,3.56,1.67,44.93,44.93,0,0,0,4.86,1q2.69.41,5.35,1A21.77,21.77,0,0,1,660,43.43a9.43,9.43,0,0,1,3.57,3.12,9.33,9.33,0,0,1,1.37,5.34,9.52,9.52,0,0,1-2.08,6.16A13.36,13.36,0,0,1,657,62.1,25.22,25.22,0,0,1,647.93,63.55Z" transform="translate(0 -6.9)"/><path class="cls-2" d="M672.28,29.62V23.76h25.09v5.86Zm19.15,33.93q-5.94,0-9.2-3.19T679,51.22V15.14h7.13V50.93a6.93,6.93,0,0,0,1.59,4.9,6,6,0,0,0,4.57,1.71,8.4,8.4,0,0,0,5.57-1.86L700,60.8a10.34,10.34,0,0,1-3.89,2.08A16.47,16.47,0,0,1,691.43,63.55Z" transform="translate(0 -6.9)"/><path class="cls-2" d="M716.3,16.18a4.76,4.76,0,0,1-3.45-1.33,4.37,4.37,0,0,1-1.37-3.27,4.44,4.44,0,0,1,1.37-3.34A4.77,4.77,0,0,1,716.3,6.9a4.83,4.83,0,0,1,3.45,1.3,4.27,4.27,0,0,1,1.38,3.23,4.64,4.64,0,0,1-4.83,4.75ZM712.74,63.1V23.76h7.12V63.1Z" transform="translate(0 -6.9)"/><path class="cls-2" d="M737.53,63.1V23.76h6.83V34.45l-.66-2.68a12,12,0,0,1,5.49-6.23,19.2,19.2,0,0,1,9.5-2.16v6.91a5.18,5.18,0,0,0-.85-.08h-.78A12.09,12.09,0,0,0,748,33.63q-3.35,3.42-3.34,9.87V63.1Z" transform="translate(0 -6.9)"/><path class="cls-2" d="M41.24,159a22.81,22.81,0,0,1-11.1-2.6,18.64,18.64,0,0,1-7.42-7.12,20.28,20.28,0,0,1-2.64-10.4,20.71,20.71,0,0,1,2.56-10.39,18.54,18.54,0,0,1,7.05-7.09,20.11,20.11,0,0,1,10.14-2.56,19.86,19.86,0,0,1,10.09,2.52,18,18,0,0,1,6.87,7.09,22,22,0,0,1,2.49,10.66c0,.29,0,.64,0,1s-.06.77-.11,1.12H25.65v-5.12H55.42l-2.9,1.78A13.22,13.22,0,0,0,51,131.15a11.93,11.93,0,0,0-4.49-4.64,12.94,12.94,0,0,0-6.64-1.67,13,13,0,0,0-6.61,1.67,11.8,11.8,0,0,0-4.53,4.68,14.12,14.12,0,0,0-1.63,6.87v1.18a13.46,13.46,0,0,0,1.82,7A12.49,12.49,0,0,0,34,151.05a16,16,0,0,0,7.5,1.71,16.44,16.44,0,0,0,6.35-1.19,13.91,13.91,0,0,0,5-3.57l3.93,4.61a17.19,17.19,0,0,1-6.64,4.75A23.09,23.09,0,0,1,41.24,159Zm-7.05-45.51,10.09-9.65h9.06l-12.47,9.65Z" transform="translate(0 -6.9)"/><path class="cls-2" d="M114.14,159a21,21,0,0,1-10.5-2.6,19.12,19.12,0,0,1-7.31-7.16,20,20,0,0,1-2.68-10.36,19.76,19.76,0,0,1,2.68-10.35,19.33,19.33,0,0,1,7.27-7.09,21,21,0,0,1,10.54-2.6,21.38,21.38,0,0,1,10.51,2.56,18.7,18.7,0,0,1,7.27,7.09,21.79,21.79,0,0,1,0,20.79,18.91,18.91,0,0,1-7.27,7.12A21.08,21.08,0,0,1,114.14,159Zm0-6.23a13.52,13.52,0,0,0,6.8-1.71,12.12,12.12,0,0,0,4.71-4.86,15.13,15.13,0,0,0,1.71-7.32,14.85,14.85,0,0,0-1.71-7.31,12.26,12.26,0,0,0-4.71-4.79,13.52,13.52,0,0,0-6.8-1.71,13.28,13.28,0,0,0-6.75,1.71,12.77,12.77,0,0,0-4.75,4.79,14.35,14.35,0,0,0-1.79,7.31,14.62,14.62,0,0,0,1.79,7.32,12.61,12.61,0,0,0,4.75,4.86A13.28,13.28,0,0,0,114.14,152.76Z" transform="translate(0 -6.9)"/><path class="cls-2" d="M173.57,158.55V106.87h20.15A28.29,28.29,0,0,1,205.31,109a16.46,16.46,0,0,1,7.39,6.2,19.36,19.36,0,0,1,0,19.31,16.57,16.57,0,0,1-7.39,6.16,28.29,28.29,0,0,1-11.59,2.14H177.63l3.32-3.4v19.13ZM181,140.16l-3.32-3.61H193.5q7.09,0,10.74-3.07a10.59,10.59,0,0,0,3.66-8.6q0-5.53-3.66-8.56t-10.74-3H177.63L181,109.6Zm27.17,18.39L195,139.79h7.9l13.29,18.76Z" transform="translate(0 -6.9)"/><path class="cls-2" d="M238.68,152.12H268.8v6.43H231.3V106.87h36.47v6.42H238.68Zm-.66-23H264.6v6.28H238Z" transform="translate(0 -6.9)"/><path class="cls-2" d="M299.89,159.14a35.15,35.15,0,0,1-11.3-1.81,23.24,23.24,0,0,1-8.49-4.69l2.73-5.76a23.82,23.82,0,0,0,7.53,4.28,27,27,0,0,0,9.53,1.7,21.57,21.57,0,0,0,7.31-1,8.72,8.72,0,0,0,4.13-2.84,6.73,6.73,0,0,0,1.33-4.1,5.58,5.58,0,0,0-1.74-4.28,12.58,12.58,0,0,0-4.5-2.62,49.16,49.16,0,0,0-6.09-1.74c-2.22-.49-4.44-1.07-6.68-1.73a30.54,30.54,0,0,1-6.13-2.55,12.61,12.61,0,0,1-4.47-4.17,12.25,12.25,0,0,1-1.69-6.76,13.57,13.57,0,0,1,2.1-7.34,14.57,14.57,0,0,1,6.5-5.39,26.57,26.57,0,0,1,11.18-2,34.39,34.39,0,0,1,8.93,1.18,25,25,0,0,1,7.68,3.39l-2.43,5.91a23.64,23.64,0,0,0-7-3.21,27.21,27.21,0,0,0-7.16-1,19.68,19.68,0,0,0-7.16,1.11,8.74,8.74,0,0,0-4.1,3,7.06,7.06,0,0,0-1.29,4.14,5.66,5.66,0,0,0,1.74,4.35,12.26,12.26,0,0,0,4.5,2.59,61.65,61.65,0,0,0,6.09,1.73q3.31.78,6.68,1.74a28.32,28.32,0,0,1,6.13,2.51,12.67,12.67,0,0,1,4.47,4.13,11.91,11.91,0,0,1,1.69,6.65,13.27,13.27,0,0,1-2.14,7.27,14.89,14.89,0,0,1-6.6,5.39A27.36,27.36,0,0,1,299.89,159.14Z" transform="translate(0 -6.9)"/><path class="cls-2" d="M334.73,158.55V106.87h20.16A28.29,28.29,0,0,1,366.48,109a16.38,16.38,0,0,1,7.38,6.2,19.29,19.29,0,0,1,0,19.31,16.7,16.7,0,0,1-7.38,6.2,27.94,27.94,0,0,1-11.59,2.18h-16.1l3.33-3.48v19.13Zm7.39-18.39-3.33-3.69h15.88q7.08,0,10.74-3t3.65-8.57q0-5.53-3.65-8.56t-10.74-3H338.79l3.33-3.69Z" transform="translate(0 -6.9)"/><path class="cls-2" d="M398.74,152.12h30.12v6.43h-37.5V106.87h36.47v6.42H398.74Zm-.66-23h26.58v6.28H398.08Z" transform="translate(0 -6.9)"/><path class="cls-2" d="M444.89,158.55V106.87h7.38v51.68Z" transform="translate(0 -6.9)"/><path class="cls-2" d="M482.09,158.55V113.29H464.38v-6.42h42.74v6.42H489.4v45.26Z" transform="translate(0 -6.9)"/><path class="cls-2" d="M541.82,159.14a29.58,29.58,0,0,1-11-2,26.32,26.32,0,0,1-8.75-43.3,26.37,26.37,0,0,1,8.71-5.57,29.56,29.56,0,0,1,11-2,29.94,29.94,0,0,1,10.93,2,25.83,25.83,0,0,1,8.71,5.54,25.1,25.1,0,0,1,5.72,8.42,28.35,28.35,0,0,1,0,21.07,25.14,25.14,0,0,1-5.72,8.38,25.68,25.68,0,0,1-8.71,5.54A29.74,29.74,0,0,1,541.82,159.14Zm0-6.57a20.89,20.89,0,0,0,7.94-1.48,18.75,18.75,0,0,0,6.35-4.17,19.61,19.61,0,0,0,4.21-6.31,20.44,20.44,0,0,0,1.51-7.9,19.69,19.69,0,0,0-5.72-14.18,18.7,18.7,0,0,0-6.35-4.21,21.08,21.08,0,0,0-7.94-1.47,21.3,21.3,0,0,0-8,1.47,19.12,19.12,0,0,0-6.38,4.21,19.62,19.62,0,0,0-4.25,6.31,20,20,0,0,0-1.51,7.87,20.26,20.26,0,0,0,1.51,7.9,19.2,19.2,0,0,0,10.63,10.48A21.11,21.11,0,0,0,541.82,152.57Z" transform="translate(0 -6.9)"/><path class="cls-2" d="M619,159a18.56,18.56,0,0,1-7.68-1.48,11.81,11.81,0,0,1-5.09-4.12,10.42,10.42,0,0,1-1.78-6,11.28,11.28,0,0,1,1.52-5.79,10.56,10.56,0,0,1,5-4.16,23,23,0,0,1,9.31-1.56h12.47V141H620.56c-3.56,0-6,.59-7.2,1.78a5.74,5.74,0,0,0-1.86,4.3,5.54,5.54,0,0,0,2.3,4.64,10.35,10.35,0,0,0,6.39,1.75,13.55,13.55,0,0,0,7-1.78,10.12,10.12,0,0,0,4.35-5.2l1.41,4.9a11.05,11.05,0,0,1-5,5.53A17.86,17.86,0,0,1,619,159Zm12.92-.44v-8.32l-.37-1.56V134.49a9.16,9.16,0,0,0-2.64-7c-1.76-1.66-4.39-2.49-7.91-2.49a20.8,20.8,0,0,0-6.83,1.15,17.91,17.91,0,0,0-5.64,3.08l-3-5.34a21.29,21.29,0,0,1,7.32-3.75,30.35,30.35,0,0,1,8.94-1.3q8.1,0,12.47,3.93t4.38,12v23.76Zm-10.69-45.07-12.47-9.65h9l10.1,9.65Z" transform="translate(0 -6.9)"/><path class="cls-2" d="M667.26,159a32,32,0,0,1-9.32-1.33,21.91,21.91,0,0,1-6.94-3.27l3-5.64a24.22,24.22,0,0,0,6.23,2.89,24.8,24.8,0,0,0,7.58,1.19q5,0,7.16-1.41a4.43,4.43,0,0,0,2.19-3.93,3.47,3.47,0,0,0-1.34-2.9,9.17,9.17,0,0,0-3.52-1.56c-1.46-.35-3.08-.65-4.87-.93s-3.56-.62-5.34-1a21.07,21.07,0,0,1-4.9-1.78,9.23,9.23,0,0,1-3.56-3.19,9.85,9.85,0,0,1-1.34-5.46,10.13,10.13,0,0,1,2-6.23,12.62,12.62,0,0,1,5.68-4.12,23.68,23.68,0,0,1,8.73-1.45,34.29,34.29,0,0,1,7.83.93,19.51,19.51,0,0,1,6.5,2.63L680,128a17.07,17.07,0,0,0-5.57-2.45,26,26,0,0,0-5.79-.66c-3.12,0-5.44.5-7,1.52a4.53,4.53,0,0,0-2.3,3.89,3.69,3.69,0,0,0,1.38,3.09,10.07,10.07,0,0,0,3.56,1.67,45,45,0,0,0,4.86,1c1.78.27,3.57.62,5.35,1a21.77,21.77,0,0,1,4.86,1.74,9.5,9.5,0,0,1,3.56,3.12,9.29,9.29,0,0,1,1.38,5.35,9.6,9.6,0,0,1-2.08,6.16,13.42,13.42,0,0,1-5.87,4A25.22,25.22,0,0,1,667.26,159Z" transform="translate(0 -6.9)"/><path class="cls-2" d="M44.73,214.27a18.6,18.6,0,0,1,8.5,1.86A13.31,13.31,0,0,1,59,221.77a19.7,19.7,0,0,1,2.08,9.58V254H53.93V232.16c0-3.81-.92-6.68-2.78-8.61s-4.47-2.89-7.83-2.89a14,14,0,0,0-6.61,1.48,10.14,10.14,0,0,0-4.34,4.38,15.28,15.28,0,0,0-1.53,7.2V254H23.72V214.64h6.83v10.62l-1.12-2.82a13.68,13.68,0,0,1,5.94-6A19.45,19.45,0,0,1,44.73,214.27Z" transform="translate(0 -6.9)"/><path class="cls-2" d="M95.21,254.44a21.12,21.12,0,0,1-10.5-2.6,19.17,19.17,0,0,1-7.32-7.17,21.41,21.41,0,0,1,0-20.71,19.51,19.51,0,0,1,7.28-7.09,21.09,21.09,0,0,1,10.54-2.6,21.49,21.49,0,0,1,10.51,2.56,18.84,18.84,0,0,1,7.27,7.09,21.79,21.79,0,0,1,0,20.79,19,19,0,0,1-7.27,7.13A21.19,21.19,0,0,1,95.21,254.44Zm0-6.24a13.46,13.46,0,0,0,6.79-1.71,12.07,12.07,0,0,0,4.72-4.86,15.09,15.09,0,0,0,1.71-7.31,14.89,14.89,0,0,0-1.71-7.32,12.19,12.19,0,0,0-4.72-4.78,13.46,13.46,0,0,0-6.79-1.71,13.26,13.26,0,0,0-6.75,1.71A12.84,12.84,0,0,0,83.7,227a14.48,14.48,0,0,0-1.78,7.32,14.68,14.68,0,0,0,1.78,7.31,12.71,12.71,0,0,0,4.76,4.86A13.26,13.26,0,0,0,95.21,248.2Z" transform="translate(0 -6.9)"/><path class="cls-2" d="M140.87,254.44a32.06,32.06,0,0,1-9.32-1.34,21.8,21.8,0,0,1-6.94-3.27l3-5.64a24.14,24.14,0,0,0,6.24,2.9,24.73,24.73,0,0,0,7.57,1.18q5,0,7.16-1.41a4.43,4.43,0,0,0,2.19-3.93,3.47,3.47,0,0,0-1.33-2.9,9.22,9.22,0,0,0-3.53-1.56c-1.46-.34-3.08-.65-4.86-.92s-3.57-.62-5.35-1a21.71,21.71,0,0,1-4.9-1.78,9.24,9.24,0,0,1-3.56-3.2,9.84,9.84,0,0,1-1.34-5.45,10.09,10.09,0,0,1,2-6.24,12.72,12.72,0,0,1,5.68-4.12,23.63,23.63,0,0,1,8.72-1.45,34.29,34.29,0,0,1,7.83.93,19.43,19.43,0,0,1,6.5,2.64l-3.05,5.64A16.61,16.61,0,0,0,148,221a25.42,25.42,0,0,0-5.79-.67q-4.68,0-7,1.52a4.53,4.53,0,0,0-2.3,3.9,3.67,3.67,0,0,0,1.37,3.08,9.74,9.74,0,0,0,3.56,1.67,42.48,42.48,0,0,0,4.87,1c1.78.28,3.56.62,5.34,1a21.78,21.78,0,0,1,4.86,1.75,9.43,9.43,0,0,1,3.57,3.12,9.31,9.31,0,0,1,1.37,5.34,9.52,9.52,0,0,1-2.08,6.16,13.4,13.4,0,0,1-5.86,4.05A25.54,25.54,0,0,1,140.87,254.44Z" transform="translate(0 -6.9)"/><path class="cls-2" d="M182.15,254.44a32,32,0,0,1-9.32-1.34,21.7,21.7,0,0,1-6.94-3.27l3-5.64a24.22,24.22,0,0,0,6.23,2.9,24.79,24.79,0,0,0,7.58,1.18q5,0,7.16-1.41a4.43,4.43,0,0,0,2.19-3.93,3.45,3.45,0,0,0-1.34-2.9,9.17,9.17,0,0,0-3.52-1.56c-1.46-.34-3.08-.65-4.87-.92s-3.56-.62-5.34-1a21.54,21.54,0,0,1-4.9-1.78,9.17,9.17,0,0,1-3.56-3.2,9.84,9.84,0,0,1-1.34-5.45,10.14,10.14,0,0,1,2-6.24,12.77,12.77,0,0,1,5.68-4.12,23.68,23.68,0,0,1,8.73-1.45,34.29,34.29,0,0,1,7.83.93,19.51,19.51,0,0,1,6.5,2.64l-3,5.64a16.66,16.66,0,0,0-5.57-2.45,25.42,25.42,0,0,0-5.79-.67c-3.12,0-5.44.51-7,1.52a4.56,4.56,0,0,0-2.3,3.9,3.67,3.67,0,0,0,1.38,3.08,9.74,9.74,0,0,0,3.56,1.67,42.74,42.74,0,0,0,4.86,1c1.78.28,3.57.62,5.35,1a21.78,21.78,0,0,1,4.86,1.75,9.33,9.33,0,0,1,3.56,3.12,9.23,9.23,0,0,1,1.38,5.34,9.58,9.58,0,0,1-2.08,6.16A13.44,13.44,0,0,1,191.2,253,25.44,25.44,0,0,1,182.15,254.44Z" transform="translate(0 -6.9)"/><path class="cls-2" d="M223.65,254.44A18.61,18.61,0,0,1,216,253a11.71,11.71,0,0,1-5.08-4.12,10.39,10.39,0,0,1-1.78-6,11.24,11.24,0,0,1,1.52-5.8,10.52,10.52,0,0,1,5-4.15,23,23,0,0,1,9.32-1.56h12.47v5.12H225.21q-5.36,0-7.21,1.78a5.79,5.79,0,0,0-1.85,4.31,5.52,5.52,0,0,0,2.3,4.64,10.36,10.36,0,0,0,6.38,1.74,13.47,13.47,0,0,0,7-1.78,10.15,10.15,0,0,0,4.34-5.2l1.41,4.9a11.09,11.09,0,0,1-5,5.54A17.89,17.89,0,0,1,223.65,254.44Zm12.91-.45v-8.31l-.37-1.56V229.94a9.21,9.21,0,0,0-2.63-7q-2.64-2.49-7.91-2.49a21,21,0,0,0-6.83,1.15,17.52,17.52,0,0,0-5.64,3.09l-3-5.35a21.59,21.59,0,0,1,7.31-3.75,30.8,30.8,0,0,1,8.95-1.3q8.09,0,12.47,3.94t4.38,12V254Z" transform="translate(0 -6.9)"/><path class="cls-2" d="M271.9,254.44a32.11,32.11,0,0,1-9.32-1.34,21.91,21.91,0,0,1-6.94-3.27l3-5.64a24.3,24.3,0,0,0,6.24,2.9,24.73,24.73,0,0,0,7.57,1.18q5,0,7.17-1.41a4.43,4.43,0,0,0,2.19-3.93,3.48,3.48,0,0,0-1.34-2.9,9.22,9.22,0,0,0-3.53-1.56c-1.46-.34-3.08-.65-4.86-.92s-3.56-.62-5.34-1a21.36,21.36,0,0,1-4.9-1.78,9.2,9.2,0,0,1-3.57-3.2,9.84,9.84,0,0,1-1.33-5.45,10.08,10.08,0,0,1,2-6.24,12.77,12.77,0,0,1,5.68-4.12,23.66,23.66,0,0,1,8.72-1.45,34.31,34.31,0,0,1,7.84.93,19.45,19.45,0,0,1,6.49,2.64l-3,5.64A16.66,16.66,0,0,0,279,221a25.42,25.42,0,0,0-5.79-.67q-4.68,0-7,1.52a4.56,4.56,0,0,0-2.3,3.9,3.69,3.69,0,0,0,1.37,3.08,9.79,9.79,0,0,0,3.57,1.67,42.29,42.29,0,0,0,4.86,1c1.78.28,3.56.62,5.34,1a21.69,21.69,0,0,1,4.87,1.75,9.41,9.41,0,0,1,3.56,3.12,9.23,9.23,0,0,1,1.37,5.34,9.52,9.52,0,0,1-2.08,6.16A13.4,13.4,0,0,1,281,253,25.46,25.46,0,0,1,271.9,254.44Z" transform="translate(0 -6.9)"/><path class="cls-2" d="M329.51,207.07a4.73,4.73,0,0,1-3.45-1.34,4.34,4.34,0,0,1-1.37-3.26,4.44,4.44,0,0,1,1.37-3.34,5.17,5.17,0,0,1,6.9,0,4.26,4.26,0,0,1,1.38,3.23,4.64,4.64,0,0,1-4.83,4.75ZM326,254V214.64h7.13V254Z" transform="translate(0 -6.9)"/><path class="cls-2" d="M367,254.44a20.36,20.36,0,0,1-10.2-2.53,18.4,18.4,0,0,1-7.09-7,22.6,22.6,0,0,1,0-21.05,18.5,18.5,0,0,1,7.09-7,20.36,20.36,0,0,1,10.2-2.53,18.16,18.16,0,0,1,9,2.23,16.25,16.25,0,0,1,6.42,6.68,23.16,23.16,0,0,1,2.41,11.14,23.76,23.76,0,0,1-2.34,11.13,16,16,0,0,1-6.35,6.72A18.21,18.21,0,0,1,367,254.44Zm.6-6.24a13.38,13.38,0,0,0,6.72-1.71,12.41,12.41,0,0,0,4.75-4.86,14.88,14.88,0,0,0,1.74-7.31,14.68,14.68,0,0,0-1.74-7.32,12.53,12.53,0,0,0-4.75-4.78,14.14,14.14,0,0,0-13.48,0,12.82,12.82,0,0,0-4.75,4.78,14.38,14.38,0,0,0-1.78,7.32,14.58,14.58,0,0,0,1.78,7.31,12.68,12.68,0,0,0,4.75,4.86A13.29,13.29,0,0,0,367.6,248.2ZM381,254V243.38l.45-9.14-.74-9.13V198.9h7.13V254Z" transform="translate(0 -6.9)"/><path class="cls-2" d="M423,254.44a22.92,22.92,0,0,1-11.1-2.6,18.67,18.67,0,0,1-7.42-7.13,20.24,20.24,0,0,1-2.64-10.39,20.74,20.74,0,0,1,2.56-10.4,18.56,18.56,0,0,1,7.06-7.09,20.14,20.14,0,0,1,10.13-2.56,19.8,19.8,0,0,1,10.1,2.53,17.81,17.81,0,0,1,6.86,7.09A21.88,21.88,0,0,1,441,234.54c0,.3,0,.64,0,1s-.06.77-.11,1.11H407.39v-5.12h29.77l-2.9,1.78a13.3,13.3,0,0,0-1.55-6.75,11.88,11.88,0,0,0-4.5-4.64A14,14,0,0,0,415,222a11.77,11.77,0,0,0-4.53,4.67,14.18,14.18,0,0,0-1.63,6.87v1.19a13.54,13.54,0,0,0,1.82,7,12.49,12.49,0,0,0,5.08,4.79,16,16,0,0,0,7.5,1.71,16.44,16.44,0,0,0,6.35-1.19,13.83,13.83,0,0,0,5-3.56l3.94,4.6a17.3,17.3,0,0,1-6.65,4.75A23.09,23.09,0,0,1,423,254.44Z" transform="translate(0 -6.9)"/><path class="cls-2" d="M458.54,207.07a4.7,4.7,0,0,1-3.45-1.34,4.34,4.34,0,0,1-1.37-3.26,4.44,4.44,0,0,1,1.37-3.34,4.74,4.74,0,0,1,3.45-1.34,4.79,4.79,0,0,1,3.45,1.3,4.26,4.26,0,0,1,1.38,3.23,4.64,4.64,0,0,1-4.83,4.75ZM455,254V214.64h7.12V254Z" transform="translate(0 -6.9)"/><path class="cls-2" d="M491.28,254.44A18.56,18.56,0,0,1,483.6,253a11.74,11.74,0,0,1-5.09-4.12,10.39,10.39,0,0,1-1.78-6,11.34,11.34,0,0,1,1.52-5.8,10.55,10.55,0,0,1,5-4.15,23,23,0,0,1,9.31-1.56H505v5.12H492.84c-3.56,0-6,.59-7.2,1.78a5.76,5.76,0,0,0-1.86,4.31,5.54,5.54,0,0,0,2.3,4.64,10.41,10.41,0,0,0,6.39,1.74,13.46,13.46,0,0,0,7-1.78,10.12,10.12,0,0,0,4.35-5.2l1.41,4.9a11.11,11.11,0,0,1-5,5.54A17.86,17.86,0,0,1,491.28,254.44ZM504.2,254v-8.31l-.37-1.56V229.94a9.18,9.18,0,0,0-2.64-7c-1.76-1.66-4.39-2.49-7.91-2.49a21.06,21.06,0,0,0-6.83,1.15,17.73,17.73,0,0,0-5.64,3.09l-3-5.35a21.64,21.64,0,0,1,7.32-3.75,30.68,30.68,0,0,1,8.94-1.3q8.1,0,12.47,3.94t4.38,12V254Z" transform="translate(0 -6.9)"/><path class="cls-2" d="M539.54,254.44a32,32,0,0,1-9.32-1.34,21.7,21.7,0,0,1-6.94-3.27l3-5.64a24.22,24.22,0,0,0,6.23,2.9,24.79,24.79,0,0,0,7.58,1.18q5,0,7.16-1.41a4.43,4.43,0,0,0,2.19-3.93,3.45,3.45,0,0,0-1.34-2.9,9.17,9.17,0,0,0-3.52-1.56c-1.46-.34-3.08-.65-4.87-.92s-3.56-.62-5.34-1a21.54,21.54,0,0,1-4.9-1.78,9.24,9.24,0,0,1-3.56-3.2,9.84,9.84,0,0,1-1.34-5.45,10.14,10.14,0,0,1,2-6.24,12.77,12.77,0,0,1,5.68-4.12,23.68,23.68,0,0,1,8.73-1.45,34.29,34.29,0,0,1,7.83.93,19.51,19.51,0,0,1,6.5,2.64l-3,5.64a16.66,16.66,0,0,0-5.57-2.45,25.42,25.42,0,0,0-5.79-.67c-3.12,0-5.44.51-7,1.52a4.56,4.56,0,0,0-2.3,3.9,3.67,3.67,0,0,0,1.38,3.08,9.74,9.74,0,0,0,3.56,1.67,42.74,42.74,0,0,0,4.86,1c1.78.28,3.57.62,5.35,1a21.78,21.78,0,0,1,4.86,1.75,9.33,9.33,0,0,1,3.56,3.12,9.23,9.23,0,0,1,1.38,5.34,9.58,9.58,0,0,1-2.08,6.16,13.44,13.44,0,0,1-5.87,4.05A25.44,25.44,0,0,1,539.54,254.44Z" transform="translate(0 -6.9)"/><path class="cls-2" d="M611.1,254.44a23,23,0,0,1-11.1-2.6,18.73,18.73,0,0,1-7.42-7.13A20.24,20.24,0,0,1,590,234.32a20.74,20.74,0,0,1,2.56-10.4,18.47,18.47,0,0,1,7-7.09,20.14,20.14,0,0,1,10.13-2.56,19.8,19.8,0,0,1,10.1,2.53,17.83,17.83,0,0,1,6.87,7.09,22,22,0,0,1,2.48,10.65c0,.3,0,.64,0,1s-.07.77-.11,1.11H595.51v-5.12h29.77l-2.89,1.78a13.2,13.2,0,0,0-1.56-6.75,11.93,11.93,0,0,0-4.49-4.64,14,14,0,0,0-13.25,0,11.77,11.77,0,0,0-4.53,4.67,14.18,14.18,0,0,0-1.64,6.87v1.19a13.54,13.54,0,0,0,1.82,7,12.51,12.51,0,0,0,5.09,4.79,16,16,0,0,0,7.5,1.71,16.39,16.39,0,0,0,6.34-1.19,14,14,0,0,0,5-3.56l3.93,4.6A17.26,17.26,0,0,1,620,252.8,23.14,23.14,0,0,1,611.1,254.44Z" transform="translate(0 -6.9)"/><path class="cls-2" d="M678.66,254.44A18.56,18.56,0,0,1,671,253a11.8,11.8,0,0,1-5.09-4.12,10.46,10.46,0,0,1-1.78-6,11.34,11.34,0,0,1,1.52-5.8,10.59,10.59,0,0,1,5-4.15,23,23,0,0,1,9.31-1.56H692.4v5.12H680.22q-5.34,0-7.2,1.78a5.76,5.76,0,0,0-1.86,4.31,5.52,5.52,0,0,0,2.31,4.64,10.36,10.36,0,0,0,6.38,1.74,13.52,13.52,0,0,0,7-1.78,10.15,10.15,0,0,0,4.34-5.2l1.41,4.9a11.14,11.14,0,0,1-5,5.54A17.93,17.93,0,0,1,678.66,254.44Zm12.92-.45v-8.31l-.37-1.56V229.94a9.18,9.18,0,0,0-2.64-7c-1.75-1.66-4.39-2.49-7.9-2.49a21,21,0,0,0-6.83,1.15,17.68,17.68,0,0,0-5.65,3.09l-3-5.35a21.5,21.5,0,0,1,7.31-3.75,30.73,30.73,0,0,1,8.94-1.3q8.1,0,12.48,3.94t4.38,12V254Zm-10.69-45.06-12.47-9.65h9.05l10.1,9.65Z" transform="translate(0 -6.9)"/><path class="cls-2" d="M726.92,254.44a32.06,32.06,0,0,1-9.32-1.34,21.8,21.8,0,0,1-6.94-3.27l3-5.64a24.14,24.14,0,0,0,6.24,2.9,24.68,24.68,0,0,0,7.57,1.18q5,0,7.16-1.41a4.43,4.43,0,0,0,2.19-3.93,3.47,3.47,0,0,0-1.33-2.9,9.29,9.29,0,0,0-3.53-1.56c-1.46-.34-3.08-.65-4.86-.92s-3.57-.62-5.35-1a21.71,21.71,0,0,1-4.9-1.78,9.24,9.24,0,0,1-3.56-3.2,9.84,9.84,0,0,1-1.34-5.45,10.09,10.09,0,0,1,2-6.24,12.72,12.72,0,0,1,5.68-4.12,23.63,23.63,0,0,1,8.72-1.45,34.29,34.29,0,0,1,7.83.93,19.43,19.43,0,0,1,6.5,2.64l-3,5.64a16.61,16.61,0,0,0-5.56-2.45,25.5,25.5,0,0,0-5.8-.67c-3.11,0-5.44.51-7,1.52a4.55,4.55,0,0,0-2.31,3.9,3.67,3.67,0,0,0,1.38,3.08,9.74,9.74,0,0,0,3.56,1.67,42.74,42.74,0,0,0,4.86,1c1.79.28,3.57.62,5.35,1a21.78,21.78,0,0,1,4.86,1.75,9.43,9.43,0,0,1,3.57,3.12,9.31,9.31,0,0,1,1.37,5.34,9.52,9.52,0,0,1-2.08,6.16A13.4,13.4,0,0,1,736,253,25.54,25.54,0,0,1,726.92,254.44Z" transform="translate(0 -6.9)"/><path class="cls-2" d="M44.73,309.72a18.6,18.6,0,0,1,8.5,1.85A13.31,13.31,0,0,1,59,317.21a19.72,19.72,0,0,1,2.08,9.58v22.64H53.93V327.61c0-3.81-.92-6.68-2.78-8.61s-4.47-2.9-7.83-2.9a14.1,14.1,0,0,0-6.61,1.48A10.22,10.22,0,0,0,32.37,322a15.28,15.28,0,0,0-1.53,7.2v20.26H23.72V310.09h6.83V320.7l-1.12-2.82a13.68,13.68,0,0,1,5.94-6A19.45,19.45,0,0,1,44.73,309.72Z" transform="translate(0 -6.9)"/><path class="cls-2" d="M95.21,349.88a21.12,21.12,0,0,1-10.5-2.6,19.21,19.21,0,0,1-7.32-7.16,20.16,20.16,0,0,1-2.67-10.36,19.91,19.91,0,0,1,2.67-10.36,19.58,19.58,0,0,1,7.28-7.09,21.08,21.08,0,0,1,10.54-2.59,21.38,21.38,0,0,1,10.51,2.56,18.7,18.7,0,0,1,7.27,7.09,21.77,21.77,0,0,1,0,20.78,19,19,0,0,1-7.27,7.13A21.19,21.19,0,0,1,95.21,349.88Zm0-6.24a13.45,13.45,0,0,0,6.79-1.7,12,12,0,0,0,4.72-4.87,15.09,15.09,0,0,0,1.71-7.31,14.82,14.82,0,0,0-1.71-7.31,12.15,12.15,0,0,0-4.72-4.79A13.46,13.46,0,0,0,95.21,316a13.26,13.26,0,0,0-6.75,1.71,12.8,12.8,0,0,0-4.76,4.79,14.42,14.42,0,0,0-1.78,7.31,14.68,14.68,0,0,0,1.78,7.31,12.67,12.67,0,0,0,4.76,4.87A13.25,13.25,0,0,0,95.21,343.64Z" transform="translate(0 -6.9)"/><path class="cls-2" d="M140.87,349.88a32.06,32.06,0,0,1-9.32-1.34,22,22,0,0,1-6.94-3.26l3-5.65a24.14,24.14,0,0,0,6.24,2.9,24.74,24.74,0,0,0,7.57,1.19q5,0,7.16-1.41a4.44,4.44,0,0,0,2.19-3.94,3.45,3.45,0,0,0-1.33-2.89,9.07,9.07,0,0,0-3.53-1.56q-2.19-.53-4.86-.93c-1.78-.27-3.57-.62-5.35-1a21.24,21.24,0,0,1-4.9-1.78,9.3,9.3,0,0,1-3.56-3.19,9.85,9.85,0,0,1-1.34-5.46,10.11,10.11,0,0,1,2-6.24,12.72,12.72,0,0,1,5.68-4.12,23.84,23.84,0,0,1,8.72-1.44,34.84,34.84,0,0,1,7.83.92,19.43,19.43,0,0,1,6.5,2.64l-3.05,5.64a16.81,16.81,0,0,0-5.56-2.45,26,26,0,0,0-5.79-.67q-4.68,0-7,1.53a4.51,4.51,0,0,0-2.3,3.89,3.65,3.65,0,0,0,1.37,3.08,9.74,9.74,0,0,0,3.56,1.67,42.39,42.39,0,0,0,4.87,1q2.67.4,5.34,1a21.77,21.77,0,0,1,4.86,1.74,9.43,9.43,0,0,1,3.57,3.12,9.33,9.33,0,0,1,1.37,5.34,9.57,9.57,0,0,1-2.08,6.17,13.39,13.39,0,0,1-5.86,4A25.32,25.32,0,0,1,140.87,349.88Z" transform="translate(0 -6.9)"/><path class="cls-2" d="M182.15,349.88a32,32,0,0,1-9.32-1.34,21.91,21.91,0,0,1-6.94-3.26l3-5.65a24.22,24.22,0,0,0,6.23,2.9,24.8,24.8,0,0,0,7.58,1.19q5,0,7.16-1.41a4.44,4.44,0,0,0,2.19-3.94,3.43,3.43,0,0,0-1.34-2.89,9,9,0,0,0-3.52-1.56c-1.46-.35-3.08-.66-4.87-.93s-3.56-.62-5.34-1a21.07,21.07,0,0,1-4.9-1.78,9.23,9.23,0,0,1-3.56-3.19,9.85,9.85,0,0,1-1.34-5.46,10.16,10.16,0,0,1,2-6.24,12.77,12.77,0,0,1,5.68-4.12,23.9,23.9,0,0,1,8.73-1.44,34.84,34.84,0,0,1,7.83.92,19.51,19.51,0,0,1,6.5,2.64l-3,5.64a16.86,16.86,0,0,0-5.57-2.45,26,26,0,0,0-5.79-.67c-3.12,0-5.44.51-7,1.53a4.53,4.53,0,0,0-2.3,3.89,3.66,3.66,0,0,0,1.38,3.08,9.74,9.74,0,0,0,3.56,1.67,42.65,42.65,0,0,0,4.86,1c1.78.27,3.57.62,5.35,1a21.77,21.77,0,0,1,4.86,1.74,8.7,8.7,0,0,1,4.94,8.46,9.63,9.63,0,0,1-2.08,6.17,13.42,13.42,0,0,1-5.87,4A25.22,25.22,0,0,1,182.15,349.88Z" transform="translate(0 -6.9)"/><path class="cls-2" d="M223.65,349.88A18.61,18.61,0,0,1,216,348.4a11.73,11.73,0,0,1-5.08-4.13,10.36,10.36,0,0,1-1.78-6,11.18,11.18,0,0,1,1.52-5.79,10.53,10.53,0,0,1,5-4.16,23,23,0,0,1,9.32-1.56h12.47v5.12H225.21q-5.36,0-7.21,1.79a5.75,5.75,0,0,0-1.85,4.3,5.52,5.52,0,0,0,2.3,4.64,10.36,10.36,0,0,0,6.38,1.75,13.47,13.47,0,0,0,7-1.79,10.13,10.13,0,0,0,4.34-5.19l1.41,4.9a11.07,11.07,0,0,1-5,5.53A17.89,17.89,0,0,1,223.65,349.88Zm12.91-.45v-8.31l-.37-1.56V325.38a9.18,9.18,0,0,0-2.63-7q-2.64-2.49-7.91-2.49a20.75,20.75,0,0,0-6.83,1.15,17.5,17.5,0,0,0-5.64,3.08l-3-5.35a21.59,21.59,0,0,1,7.31-3.75,30.8,30.8,0,0,1,8.95-1.29q8.09,0,12.47,3.93t4.38,12v23.75Z" transform="translate(0 -6.9)"/><path class="cls-2" d="M271.9,349.88a32.11,32.11,0,0,1-9.32-1.34,22.13,22.13,0,0,1-6.94-3.26l3-5.65a24.3,24.3,0,0,0,6.24,2.9,24.74,24.74,0,0,0,7.57,1.19q5,0,7.17-1.41a4.44,4.44,0,0,0,2.19-3.94,3.46,3.46,0,0,0-1.34-2.89,9.07,9.07,0,0,0-3.53-1.56q-2.19-.53-4.86-.93t-5.34-1a20.9,20.9,0,0,1-4.9-1.78,9.26,9.26,0,0,1-3.57-3.19,9.85,9.85,0,0,1-1.33-5.46,10.1,10.1,0,0,1,2-6.24,12.77,12.77,0,0,1,5.68-4.12,23.88,23.88,0,0,1,8.72-1.44,34.86,34.86,0,0,1,7.84.92,19.45,19.45,0,0,1,6.49,2.64l-3,5.64a16.86,16.86,0,0,0-5.57-2.45,26,26,0,0,0-5.79-.67q-4.68,0-7,1.53a4.53,4.53,0,0,0-2.3,3.89,3.68,3.68,0,0,0,1.37,3.08A9.79,9.79,0,0,0,268.9,326a42.2,42.2,0,0,0,4.86,1q2.67.4,5.34,1a21.68,21.68,0,0,1,4.87,1.74,9.41,9.41,0,0,1,3.56,3.12,9.25,9.25,0,0,1,1.37,5.34,9.57,9.57,0,0,1-2.08,6.17,13.39,13.39,0,0,1-5.86,4A25.24,25.24,0,0,1,271.9,349.88Z" transform="translate(0 -6.9)"/><path class="cls-2" d="M336.27,349.43,319,310.09h7.43l15.29,35.63H338.2l15.59-35.63h7l-17.23,39.34Z" transform="translate(0 -6.9)"/><path class="cls-2" d="M387.27,349.88a21.12,21.12,0,0,1-10.5-2.6,19.21,19.21,0,0,1-7.32-7.16,20.16,20.16,0,0,1-2.67-10.36,19.91,19.91,0,0,1,2.67-10.36,19.58,19.58,0,0,1,7.28-7.09,21.08,21.08,0,0,1,10.54-2.59,21.38,21.38,0,0,1,10.51,2.56,18.7,18.7,0,0,1,7.27,7.09,21.77,21.77,0,0,1,0,20.78,19,19,0,0,1-7.27,7.13A21.19,21.19,0,0,1,387.27,349.88Zm0-6.24a13.45,13.45,0,0,0,6.79-1.7,12,12,0,0,0,4.72-4.87,15.09,15.09,0,0,0,1.71-7.31,14.82,14.82,0,0,0-1.71-7.31,12.15,12.15,0,0,0-4.72-4.79,13.46,13.46,0,0,0-6.79-1.71,13.26,13.26,0,0,0-6.75,1.71,12.8,12.8,0,0,0-4.76,4.79,14.42,14.42,0,0,0-1.78,7.31,14.68,14.68,0,0,0,1.78,7.31,12.67,12.67,0,0,0,4.76,4.87A13.25,13.25,0,0,0,387.27,343.64Z" transform="translate(0 -6.9)"/><path class="cls-2" d="M442.65,309.72a18.57,18.57,0,0,1,8.5,1.85,13.39,13.39,0,0,1,5.76,5.64,19.84,19.84,0,0,1,2.08,9.58v22.64h-7.13V327.61q0-5.72-2.78-8.61t-7.84-2.9a14.09,14.09,0,0,0-6.6,1.48,10.24,10.24,0,0,0-4.35,4.39,15.41,15.41,0,0,0-1.52,7.2v20.26h-7.13V310.09h6.83V320.7l-1.11-2.82a13.68,13.68,0,0,1,5.94-6A19.41,19.41,0,0,1,442.65,309.72Z" transform="translate(0 -6.9)"/><path class="cls-2" d="M470.64,316v-5.86h25.1V316Zm19.16,33.93q-5.94,0-9.21-3.19t-3.26-9.13V301.47h7.12v35.79a6.89,6.89,0,0,0,1.6,4.9,5.92,5.92,0,0,0,4.56,1.71,8.38,8.38,0,0,0,5.57-1.86l2.23,5.12a10.31,10.31,0,0,1-3.9,2.08A16.4,16.4,0,0,1,489.8,349.88Z" transform="translate(0 -6.9)"/><path class="cls-2" d="M522.61,349.88a18.56,18.56,0,0,1-7.68-1.48,11.76,11.76,0,0,1-5.09-4.13,10.36,10.36,0,0,1-1.78-6,11.28,11.28,0,0,1,1.52-5.79,10.56,10.56,0,0,1,5-4.16,23,23,0,0,1,9.31-1.56h12.48v5.12H524.17q-5.34,0-7.2,1.79a5.72,5.72,0,0,0-1.86,4.3,5.54,5.54,0,0,0,2.3,4.64,10.41,10.41,0,0,0,6.39,1.75,13.46,13.46,0,0,0,7-1.79,10.1,10.1,0,0,0,4.35-5.19l1.41,4.9a11.09,11.09,0,0,1-5,5.53A17.86,17.86,0,0,1,522.61,349.88Zm12.92-.45v-8.31l-.37-1.56V325.38a9.15,9.15,0,0,0-2.64-7q-2.64-2.49-7.9-2.49a20.71,20.71,0,0,0-6.83,1.15,17.66,17.66,0,0,0-5.65,3.08l-3-5.35a21.64,21.64,0,0,1,7.32-3.75,30.68,30.68,0,0,1,8.94-1.29q8.1,0,12.47,3.93t4.38,12v23.75Z" transform="translate(0 -6.9)"/><path class="cls-2" d="M575.84,349.88a20.53,20.53,0,0,1-10.21-2.52,18.56,18.56,0,0,1-7.09-7.06,20.83,20.83,0,0,1-2.6-10.54,20.6,20.6,0,0,1,2.6-10.5,18.53,18.53,0,0,1,7.09-7,20.53,20.53,0,0,1,10.21-2.52,18.2,18.2,0,0,1,9,2.22,16.3,16.3,0,0,1,6.43,6.69,23.24,23.24,0,0,1,2.41,11.13,23.81,23.81,0,0,1-2.34,11.14,16,16,0,0,1-6.35,6.72A18.21,18.21,0,0,1,575.84,349.88Zm.59-6.24a13.32,13.32,0,0,0,6.72-1.7,12.33,12.33,0,0,0,4.76-4.87,14.88,14.88,0,0,0,1.74-7.31,14.62,14.62,0,0,0-1.74-7.31,12.45,12.45,0,0,0-4.76-4.79,14.12,14.12,0,0,0-13.47,0,12.77,12.77,0,0,0-4.75,4.79,14.32,14.32,0,0,0-1.78,7.31,14.58,14.58,0,0,0,1.78,7.31,12.64,12.64,0,0,0,4.75,4.87A13.28,13.28,0,0,0,576.43,343.64Zm13.44,5.79V338.82l.45-9.13-.74-9.14v-26.2h7.12v55.08Z" transform="translate(0 -6.9)"/><path class="cls-2" d="M631.82,349.88a22.92,22.92,0,0,1-11.1-2.6,18.76,18.76,0,0,1-7.43-7.13,20.31,20.31,0,0,1-2.63-10.39,20.71,20.71,0,0,1,2.56-10.39,18.47,18.47,0,0,1,7-7.09,20.08,20.08,0,0,1,10.14-2.56,19.86,19.86,0,0,1,10.09,2.52,17.9,17.9,0,0,1,6.87,7.09A21.91,21.91,0,0,1,649.86,330c0,.3,0,.65,0,1s-.06.77-.11,1.12H616.23V327H646l-2.9,1.79a13.22,13.22,0,0,0-1.56-6.76,11.86,11.86,0,0,0-4.49-4.64,14,14,0,0,0-13.25,0,11.73,11.73,0,0,0-4.53,4.68,14.11,14.11,0,0,0-1.63,6.86v1.19a13.48,13.48,0,0,0,1.82,7,12.49,12.49,0,0,0,5.08,4.79,15.94,15.94,0,0,0,7.5,1.7,16.44,16.44,0,0,0,6.35-1.18,13.91,13.91,0,0,0,5-3.57l3.93,4.61a17.29,17.29,0,0,1-6.64,4.75A23.13,23.13,0,0,1,631.82,349.88Z" transform="translate(0 -6.9)"/><path class="cls-2" d="M675.1,349.88a32.06,32.06,0,0,1-9.32-1.34,22,22,0,0,1-6.94-3.26l3-5.65a24.14,24.14,0,0,0,6.24,2.9,24.74,24.74,0,0,0,7.57,1.19q5,0,7.16-1.41a4.44,4.44,0,0,0,2.19-3.94,3.45,3.45,0,0,0-1.33-2.89,9.07,9.07,0,0,0-3.53-1.56q-2.19-.53-4.86-.93c-1.78-.27-3.57-.62-5.35-1a21.24,21.24,0,0,1-4.9-1.78,9.3,9.3,0,0,1-3.56-3.19,9.85,9.85,0,0,1-1.34-5.46,10.11,10.11,0,0,1,2-6.24,12.72,12.72,0,0,1,5.68-4.12,23.84,23.84,0,0,1,8.72-1.44,34.84,34.84,0,0,1,7.83.92,19.43,19.43,0,0,1,6.5,2.64l-3,5.64a17,17,0,0,0-5.57-2.45,26,26,0,0,0-5.79-.67q-4.68,0-7,1.53a4.51,4.51,0,0,0-2.3,3.89,3.65,3.65,0,0,0,1.37,3.08,9.74,9.74,0,0,0,3.56,1.67,42.39,42.39,0,0,0,4.87,1q2.67.4,5.34,1a21.77,21.77,0,0,1,4.86,1.74,9.43,9.43,0,0,1,3.57,3.12,9.33,9.33,0,0,1,1.37,5.34,9.57,9.57,0,0,1-2.08,6.17,13.39,13.39,0,0,1-5.86,4A25.32,25.32,0,0,1,675.1,349.88Z" transform="translate(0 -6.9)"/><path class="cls-2" d="M702.27,360.42l3.71-15,1,4.3a5.09,5.09,0,0,1-3.6-1.33,4.72,4.72,0,0,1-1.45-3.64,4.89,4.89,0,0,1,5-5.05,4.51,4.51,0,0,1,3.49,1.45,5.1,5.1,0,0,1,1.34,3.6,9.9,9.9,0,0,1-.11,1.45c-.08.47-.2,1-.37,1.63s-.44,1.37-.78,2.26L707,360.42Z" transform="translate(0 -6.9)"/><path class="cls-2" d="M23.72,459.28V405.53h6.83v10.62l-.45,9.13.74,9.13v24.87Zm20.86-14a18,18,0,0,1-8.95-2.26,16.44,16.44,0,0,1-6.46-6.72,23.26,23.26,0,0,1-2.41-11.13,23.78,23.78,0,0,1,2.34-11.14,15.74,15.74,0,0,1,6.38-6.68,18.5,18.5,0,0,1,9.1-2.23,20.43,20.43,0,0,1,10.24,2.52,18.8,18.8,0,0,1,7.06,7,22.6,22.6,0,0,1,0,21.05,18.6,18.6,0,0,1-7.06,7.05A20.43,20.43,0,0,1,44.58,445.32ZM44,439.09a13.51,13.51,0,0,0,6.79-1.71,12.34,12.34,0,0,0,4.75-4.86,14.88,14.88,0,0,0,1.74-7.31,14.65,14.65,0,0,0-1.74-7.32,12.49,12.49,0,0,0-4.75-4.79A13.61,13.61,0,0,0,44,411.4a13.42,13.42,0,0,0-6.72,1.7,12.42,12.42,0,0,0-4.75,4.79,14.55,14.55,0,0,0-1.75,7.32,14.78,14.78,0,0,0,1.75,7.31,12.28,12.28,0,0,0,4.75,4.86A13.33,13.33,0,0,0,44,439.09Z" transform="translate(0 -6.9)"/><path class="cls-2" d="M95.28,445.32a21.12,21.12,0,0,1-10.5-2.59,19.21,19.21,0,0,1-7.31-7.17,20,20,0,0,1-2.68-10.35,19.79,19.79,0,0,1,2.68-10.36,19.33,19.33,0,0,1,7.27-7.09,21.09,21.09,0,0,1,10.54-2.6,21.35,21.35,0,0,1,10.51,2.56,18.79,18.79,0,0,1,7.28,7.09,21.86,21.86,0,0,1,0,20.79,19.1,19.1,0,0,1-7.28,7.13A21.16,21.16,0,0,1,95.28,445.32Zm0-6.23a13.52,13.52,0,0,0,6.8-1.71,12.12,12.12,0,0,0,4.71-4.86,15.09,15.09,0,0,0,1.71-7.31,14.86,14.86,0,0,0-1.71-7.32,12.26,12.26,0,0,0-4.71-4.79,13.62,13.62,0,0,0-6.8-1.7,13.38,13.38,0,0,0-6.75,1.7,12.85,12.85,0,0,0-4.75,4.79A14.36,14.36,0,0,0,82,425.21a14.58,14.58,0,0,0,1.78,7.31,12.68,12.68,0,0,0,4.75,4.86A13.28,13.28,0,0,0,95.28,439.09Z" transform="translate(0 -6.9)"/><path class="cls-2" d="M129.66,444.88V405.53h6.83v10.69l-.67-2.67a12.13,12.13,0,0,1,5.49-6.24,19.38,19.38,0,0,1,9.51-2.15v6.9A6.63,6.63,0,0,0,150,412h-.78a12.05,12.05,0,0,0-9.05,3.42q-3.34,3.4-3.34,9.87v19.6Z" transform="translate(0 -6.9)"/><path class="cls-2" d="M179.55,445.32a20.5,20.5,0,0,1-10.21-2.52,18.4,18.4,0,0,1-7.09-7.05,22.6,22.6,0,0,1,0-21.05,18.6,18.6,0,0,1,7.09-7,20.5,20.5,0,0,1,10.21-2.52,18.43,18.43,0,0,1,9.13,2.23,15.8,15.8,0,0,1,6.35,6.68,23.78,23.78,0,0,1,2.34,11.14A23.15,23.15,0,0,1,195,436.34a16.54,16.54,0,0,1-6.42,6.72A17.93,17.93,0,0,1,179.55,445.32Zm.59-6.23a13.33,13.33,0,0,0,6.72-1.71,12.34,12.34,0,0,0,4.75-4.86,14.89,14.89,0,0,0,1.75-7.31,14.66,14.66,0,0,0-1.75-7.32,12.49,12.49,0,0,0-4.75-4.79,14.19,14.19,0,0,0-13.47,0,12.87,12.87,0,0,0-4.76,4.79,14.46,14.46,0,0,0-1.78,7.32,14.68,14.68,0,0,0,1.78,7.31,12.71,12.71,0,0,0,4.76,4.86A13.26,13.26,0,0,0,180.14,439.09Zm13.14,20.19V434.41l.74-9.13-.44-9.13V405.53h6.83v53.75Z" transform="translate(0 -6.9)"/><path class="cls-2" d="M234.56,445.32a20,20,0,0,1-8.87-1.85,13.3,13.3,0,0,1-5.94-5.68,19.68,19.68,0,0,1-2.12-9.62V405.53h7.13v21.83q0,5.79,2.78,8.68t7.84,2.9a13.14,13.14,0,0,0,6.45-1.52,10.28,10.28,0,0,0,4.24-4.46,15.51,15.51,0,0,0,1.48-7.09V405.53h7.13v39.35h-6.76V434.26l1.12,2.82a13.74,13.74,0,0,1-5.79,6.09A17.5,17.5,0,0,1,234.56,445.32Z" transform="translate(0 -6.9)"/><path class="cls-2" d="M289.87,445.32a22.92,22.92,0,0,1-11.1-2.59,18.83,18.83,0,0,1-7.43-7.13,20.34,20.34,0,0,1-2.63-10.39,20.74,20.74,0,0,1,2.56-10.4,18.54,18.54,0,0,1,7.05-7.09,20.08,20.08,0,0,1,10.14-2.56,19.86,19.86,0,0,1,10.09,2.52,18,18,0,0,1,6.87,7.09,22,22,0,0,1,2.49,10.66c0,.29,0,.64,0,1s-.06.77-.11,1.11H274.28v-5.12h29.77l-2.9,1.78a13.24,13.24,0,0,0-1.56-6.76,11.93,11.93,0,0,0-4.49-4.64,14,14,0,0,0-13.25,0,11.86,11.86,0,0,0-4.53,4.68,14.18,14.18,0,0,0-1.63,6.87v1.19a13.44,13.44,0,0,0,1.82,7,12.42,12.42,0,0,0,5.08,4.79,16,16,0,0,0,7.5,1.71,16.44,16.44,0,0,0,6.35-1.19,14,14,0,0,0,5-3.56l3.93,4.6a17.19,17.19,0,0,1-6.64,4.75A23.13,23.13,0,0,1,289.87,445.32Z" transform="translate(0 -6.9)"/><path class="cls-2" d="M361.83,444.88,339.09,393.2h8L368,440.89h-4.58l21-47.69h7.38l-22.66,51.68Z" transform="translate(0 -6.9)"/><path class="cls-2" d="M402.43,444.88V393.2h7.39v51.68Z" transform="translate(0 -6.9)"/><path class="cls-2" d="M443.78,444.88,421,393.2h8l20.9,47.69h-4.58l21-47.69h7.38l-22.66,51.68Z" transform="translate(0 -6.9)"/><path class="cls-2" d="M491.77,438.46h30.12v6.42H484.38V393.2h36.47v6.42H491.77Zm-.67-23h26.58v6.27H491.1Z" transform="translate(0 -6.9)"/><path class="cls-2" d="M537.91,444.88V393.2H544l23.19,39.05H563.9l22.88-39.05h6.06l.07,51.68h-7.09l-.07-40.53h1.7L567.07,438.6h-3.39l-20.53-34.25H545v40.53Z" transform="translate(0 -6.9)"/><path class="cls-2" d="M635.81,445.47a29.83,29.83,0,0,1-11-2,26.21,26.21,0,0,1-8.75-5.58,25.7,25.7,0,0,1-5.76-8.38,27.71,27.71,0,0,1,0-21,25.76,25.76,0,0,1,5.76-8.37,26.28,26.28,0,0,1,8.72-5.58,29.49,29.49,0,0,1,11-2,29.89,29.89,0,0,1,10.92,1.95,25.83,25.83,0,0,1,8.71,5.54,25.13,25.13,0,0,1,5.73,8.42,28.38,28.38,0,0,1,0,21.08,25.27,25.27,0,0,1-5.73,8.38,25.8,25.8,0,0,1-8.71,5.53A29.69,29.69,0,0,1,635.81,445.47Zm0-6.57a20.84,20.84,0,0,0,7.93-1.48,18.75,18.75,0,0,0,6.35-4.17,19.34,19.34,0,0,0,4.21-6.31,20.26,20.26,0,0,0,1.51-7.9,19.73,19.73,0,0,0-5.72-14.18,18.53,18.53,0,0,0-6.35-4.2,22.2,22.2,0,0,0-15.94,0,18.89,18.89,0,0,0-6.39,4.2,19.71,19.71,0,0,0-4.25,6.32,19.92,19.92,0,0,0-1.51,7.86,20.26,20.26,0,0,0,1.51,7.9,19.18,19.18,0,0,0,10.64,10.48A21,21,0,0,0,635.81,438.9Z" transform="translate(0 -6.9)"/><path class="cls-2" d="M693.61,445.47a35.14,35.14,0,0,1-11.29-1.81,22.93,22.93,0,0,1-8.49-4.69l2.73-5.76a24,24,0,0,0,7.53,4.29,27.21,27.21,0,0,0,9.52,1.69,21.49,21.49,0,0,0,7.31-1,8.75,8.75,0,0,0,4.14-2.84,6.79,6.79,0,0,0,1.33-4.1,5.58,5.58,0,0,0-1.74-4.28,12.91,12.91,0,0,0-4.5-2.62,51,51,0,0,0-6.09-1.74q-3.33-.74-6.68-1.73a30.3,30.3,0,0,1-6.13-2.55,12.43,12.43,0,0,1-4.47-4.17,12.25,12.25,0,0,1-1.7-6.76,13.52,13.52,0,0,1,2.11-7.34,14.54,14.54,0,0,1,6.49-5.39,26.81,26.81,0,0,1,11.19-2,34.39,34.39,0,0,1,8.93,1.18,24.87,24.87,0,0,1,7.68,3.4l-2.44,5.9a23.73,23.73,0,0,0-7-3.21,27.63,27.63,0,0,0-7.16-1,19.64,19.64,0,0,0-7.16,1.11,8.74,8.74,0,0,0-4.1,2.95,7.06,7.06,0,0,0-1.29,4.14,5.69,5.69,0,0,0,1.73,4.35,12.39,12.39,0,0,0,4.51,2.59,58.32,58.32,0,0,0,6.09,1.73q3.32.78,6.68,1.74a28.32,28.32,0,0,1,6.13,2.51,12.64,12.64,0,0,1,4.46,4.13,11.85,11.85,0,0,1,1.7,6.65,13.24,13.24,0,0,1-2.14,7.27,14.8,14.8,0,0,1-6.61,5.39A27.32,27.32,0,0,1,693.61,445.47Z" transform="translate(0 -6.9)"/><path class="cls-2" d="M744.55,444.88,768,393.2h7.31l23.48,51.68H791L770.1,397.33h2.95l-20.89,47.55Zm10-12.92,2-5.91H785.6l2.14,5.91Z" transform="translate(0 -6.9)"/><path class="cls-2" d="M16.89,540.32l23.4-51.68H47.6l23.48,51.68H63.33l-20.9-47.54h3l-20.9,47.54Zm10-12.92,2-5.9H57.94l2.14,5.9Z" transform="translate(0 -6.9)"/><path class="cls-2" d="M82.82,540.32V488.64H104.6a31.51,31.51,0,0,1,14.58,3.25A24,24,0,0,1,129,501a27.82,27.82,0,0,1,0,27,24,24,0,0,1-9.82,9.09,31.5,31.5,0,0,1-14.58,3.24Zm7.38-6.42h14a23.68,23.68,0,0,0,11.11-2.44,17.72,17.72,0,0,0,7.28-6.83,21.33,21.33,0,0,0,0-20.34,17.89,17.89,0,0,0-7.28-6.79,23.81,23.81,0,0,0-11.11-2.43h-14Z" transform="translate(0 -6.9)"/><path class="cls-2" d="M171.19,540.91a29.58,29.58,0,0,1-11-2,26.24,26.24,0,0,1-8.75-5.57,25.81,25.81,0,0,1-5.76-8.38,27.59,27.59,0,0,1,0-21,25.81,25.81,0,0,1,5.76-8.38,26.21,26.21,0,0,1,8.71-5.57,29.53,29.53,0,0,1,11-2,30,30,0,0,1,10.93,2,25.77,25.77,0,0,1,8.71,5.54,25.06,25.06,0,0,1,5.72,8.41,28.38,28.38,0,0,1,0,21.08,25.24,25.24,0,0,1-5.72,8.38,25.93,25.93,0,0,1-8.71,5.54A29.94,29.94,0,0,1,171.19,540.91Zm0-6.57a21.12,21.12,0,0,0,7.94-1.47,19.15,19.15,0,0,0,6.35-4.17,19.63,19.63,0,0,0,4.2-6.32,20.23,20.23,0,0,0,1.52-7.9,19.8,19.8,0,0,0-5.72-14.17,18.65,18.65,0,0,0-6.35-4.21,22.23,22.23,0,0,0-15.95,0,18.92,18.92,0,0,0-6.39,4.21,19.64,19.64,0,0,0-4.24,6.31,20,20,0,0,0-1.52,7.86,20.23,20.23,0,0,0,1.52,7.9,19.1,19.1,0,0,0,10.63,10.49A21.26,21.26,0,0,0,171.19,534.34Z" transform="translate(0 -6.9)"/><path class="cls-2" d="M213.94,540.32V488.64h7.38V533.9h28v6.42Z" transform="translate(0 -6.9)"/><path class="cls-2" d="M269.23,533.9h30.13v6.42H261.85V488.64h36.47v6.43H269.23Zm-.66-23h26.58v6.27H268.57Z" transform="translate(0 -6.9)"/><path class="cls-2" d="M330.44,540.91a35.42,35.42,0,0,1-11.3-1.8,23.24,23.24,0,0,1-8.49-4.69l2.73-5.76a24,24,0,0,0,7.53,4.28,27.27,27.27,0,0,0,9.53,1.7,21.5,21.5,0,0,0,7.31-1,8.53,8.53,0,0,0,4.13-2.84,6.7,6.7,0,0,0,1.33-4.09,5.63,5.63,0,0,0-1.73-4.29,13,13,0,0,0-4.51-2.62,50,50,0,0,0-6.09-1.73q-3.31-.74-6.68-1.74a30,30,0,0,1-6.13-2.54,12.71,12.71,0,0,1-4.47-4.18,12.19,12.19,0,0,1-1.69-6.75,13.6,13.6,0,0,1,2.1-7.35,14.64,14.64,0,0,1,6.5-5.39,26.76,26.76,0,0,1,11.18-2,35,35,0,0,1,8.94,1.18,24.81,24.81,0,0,1,7.67,3.4l-2.43,5.91a23.81,23.81,0,0,0-7-3.22,27.55,27.55,0,0,0-7.16-1,19.68,19.68,0,0,0-7.16,1.11,8.68,8.68,0,0,0-4.1,2.95,7,7,0,0,0-1.29,4.13,5.68,5.68,0,0,0,1.74,4.36,12.47,12.47,0,0,0,4.5,2.58,62.36,62.36,0,0,0,6.09,1.74c2.22.51,4.44,1.09,6.68,1.73a28.62,28.62,0,0,1,6.13,2.51,12.7,12.7,0,0,1,4.47,4.14,11.9,11.9,0,0,1,1.7,6.64,13.25,13.25,0,0,1-2.15,7.27,14.76,14.76,0,0,1-6.6,5.39A27.16,27.16,0,0,1,330.44,540.91Z" transform="translate(0 -6.9)"/><path class="cls-2" d="M388.39,540.91A29.65,29.65,0,0,1,377.5,539a25.48,25.48,0,0,1-8.63-5.54,26,26,0,0,1-5.73-8.38,28.07,28.07,0,0,1,0-21.11A25.72,25.72,0,0,1,377.58,490a31.11,31.11,0,0,1,21.92.07,22.65,22.65,0,0,1,8.6,6l-4.79,4.65a19.18,19.18,0,0,0-6.65-4.61,20.59,20.59,0,0,0-7.9-1.52,21.82,21.82,0,0,0-8.08,1.48,19.28,19.28,0,0,0-6.46,4.13,18.78,18.78,0,0,0-4.25,6.32,21.6,21.6,0,0,0,0,15.87,18.64,18.64,0,0,0,4.25,6.31,19.46,19.46,0,0,0,6.46,4.14,21.82,21.82,0,0,0,8.08,1.47,20.58,20.58,0,0,0,7.9-1.51,18.77,18.77,0,0,0,6.65-4.69l4.79,4.65a23,23,0,0,1-8.6,6.06A29,29,0,0,1,388.39,540.91Z" transform="translate(0 -6.9)"/><path class="cls-2" d="M430.11,533.9h30.12v6.42H422.72V488.64h36.47v6.43H430.11Zm-2.29-49.47,9.82-9.59h6.79l9.82,9.59h-6.43l-9.74-8.12H444l-9.75,8.12Zm1.62,26.51H456v6.27H429.44Z" transform="translate(0 -6.9)"/><path class="cls-2" d="M476.25,540.32V488.64h6.05l34.19,42.45h-3.18V488.64h7.38v51.68h-6.05l-34.18-42.45h3.17v42.45Z" transform="translate(0 -6.9)"/><path class="cls-2" d="M563.37,540.91A29.62,29.62,0,0,1,552.48,539a25.43,25.43,0,0,1-8.64-5.54,25.85,25.85,0,0,1-5.72-8.38,27.95,27.95,0,0,1,0-21.11,25.4,25.4,0,0,1,5.76-8.38,25.8,25.8,0,0,1,8.67-5.54,31.13,31.13,0,0,1,21.93.07,22.65,22.65,0,0,1,8.6,6l-4.8,4.65a19.15,19.15,0,0,0-6.64-4.61,20.66,20.66,0,0,0-7.9-1.52,21.87,21.87,0,0,0-8.09,1.48,19.38,19.38,0,0,0-6.46,4.13,18.61,18.61,0,0,0-4.24,6.32,21.47,21.47,0,0,0,0,15.87,18.47,18.47,0,0,0,4.24,6.31,19.56,19.56,0,0,0,6.46,4.14,21.87,21.87,0,0,0,8.09,1.47,20.65,20.65,0,0,0,7.9-1.51,18.74,18.74,0,0,0,6.64-4.69l4.8,4.65a23,23,0,0,1-8.6,6.06A29.07,29.07,0,0,1,563.37,540.91Z" transform="translate(0 -6.9)"/><path class="cls-2" d="M597.7,540.32V488.64h7.38v51.68Z" transform="translate(0 -6.9)"/><path class="cls-2" d="M616.82,540.32l23.4-51.68h7.31L671,540.32h-7.75l-20.9-47.54h3l-20.9,47.54Zm10-12.92,2-5.9h29.09l2.14,5.9Z" transform="translate(0 -6.9)"/><path class="cls-2" d="M47.82,636.36a29.41,29.41,0,0,1-10.89-2,25.47,25.47,0,0,1-8.64-5.54,25.9,25.9,0,0,1-7.78-18.93,26.38,26.38,0,0,1,2.06-10.56A25.72,25.72,0,0,1,37,585.45a29.62,29.62,0,0,1,10.89-2,29.21,29.21,0,0,1,11,2,22.52,22.52,0,0,1,8.6,6l-4.79,4.65a19.32,19.32,0,0,0-6.65-4.61,20.58,20.58,0,0,0-7.9-1.51,21.82,21.82,0,0,0-8.08,1.47,19.46,19.46,0,0,0-6.46,4.14A18.64,18.64,0,0,0,29.4,602a21.6,21.6,0,0,0,0,15.87,18.78,18.78,0,0,0,4.25,6.32,19.28,19.28,0,0,0,6.46,4.13,21.82,21.82,0,0,0,8.08,1.48,20.59,20.59,0,0,0,7.9-1.52,18.77,18.77,0,0,0,6.65-4.69l4.79,4.66a23.05,23.05,0,0,1-8.6,6A29,29,0,0,1,47.82,636.36Z" transform="translate(0 -6.9)"/><path class="cls-2" d="M104.37,636.36a29.62,29.62,0,0,1-11-2,25.74,25.74,0,0,1-14.51-14,27.71,27.71,0,0,1,0-21,25.81,25.81,0,0,1,5.76-8.38,26.47,26.47,0,0,1,8.71-5.57,29.56,29.56,0,0,1,11-2,29.94,29.94,0,0,1,10.93,2A25.83,25.83,0,0,1,124,591a25.28,25.28,0,0,1,5.73,8.42,28.35,28.35,0,0,1,0,21.07,25.32,25.32,0,0,1-5.73,8.38,25.68,25.68,0,0,1-8.71,5.54A29.74,29.74,0,0,1,104.37,636.36Zm0-6.57a21,21,0,0,0,7.94-1.48,18.75,18.75,0,0,0,6.35-4.17,19.45,19.45,0,0,0,4.21-6.31,20.26,20.26,0,0,0,1.51-7.9,19.69,19.69,0,0,0-5.72-14.18,18.7,18.7,0,0,0-6.35-4.21,21,21,0,0,0-7.94-1.47,21.3,21.3,0,0,0-8,1.47A19.12,19.12,0,0,0,90,595.75a19.78,19.78,0,0,0-4.25,6.31,20,20,0,0,0-1.51,7.87,20.26,20.26,0,0,0,1.51,7.9,19.2,19.2,0,0,0,10.63,10.48A21.3,21.3,0,0,0,104.37,629.79Z" transform="translate(0 -6.9)"/><path class="cls-2" d="M147.12,635.77V584.09h6.06l23.18,39h-3.25l22.89-39h6.05l.07,51.68H195L195,595.23h1.7l-20.38,34.26h-3.39l-20.53-34.26h1.85v40.54Z" transform="translate(0 -6.9)"/><path class="cls-2" d="M245,636.36a29.67,29.67,0,0,1-11-2,26,26,0,0,1-8.74-5.57,25.5,25.5,0,0,1-5.76-8.38,27.59,27.59,0,0,1,0-21,25.5,25.5,0,0,1,5.76-8.38,26.37,26.37,0,0,1,8.71-5.57,29.49,29.49,0,0,1,11-2,29.85,29.85,0,0,1,10.92,2,26,26,0,0,1,8.72,5.54,25.25,25.25,0,0,1,5.72,8.42,28.35,28.35,0,0,1,0,21.07,25.29,25.29,0,0,1-5.72,8.38,25.82,25.82,0,0,1-8.72,5.54A29.65,29.65,0,0,1,245,636.36Zm0-6.57a21,21,0,0,0,7.93-1.48,18.65,18.65,0,0,0,6.35-4.17,19.45,19.45,0,0,0,4.21-6.31,20.26,20.26,0,0,0,1.52-7.9,19.75,19.75,0,0,0-5.73-14.18,18.61,18.61,0,0,0-6.35-4.21,22.34,22.34,0,0,0-15.94,0,19.07,19.07,0,0,0-6.39,4.21,19.59,19.59,0,0,0-4.24,6.31,20,20,0,0,0-1.52,7.87,20.26,20.26,0,0,0,1.52,7.9A19.12,19.12,0,0,0,237,628.31,21.23,21.23,0,0,0,245,629.79Z" transform="translate(0 -6.9)"/><path class="cls-2" d="M319.07,629.34h30.12v6.43h-37.5V584.09h36.47v6.42H319.07Zm-.67-23H345v6.28H318.4Z" transform="translate(0 -6.9)"/><path class="cls-2" d="M365.21,635.77V584.09h7.38v45.25h28v6.43Z" transform="translate(0 -6.9)"/><path class="cls-2" d="M405.3,635.77l23.4-51.68H436l23.48,51.68h-7.75l-20.89-47.55h2.95l-20.9,47.55Zm10-12.92,2-5.91h29.09l2.14,5.91Z" transform="translate(0 -6.9)"/><path class="cls-2" d="M495.15,635.77V584.09h21.78a31.5,31.5,0,0,1,14.58,3.24,24,24,0,0,1,9.82,9.09,27.76,27.76,0,0,1,0,27,24,24,0,0,1-9.82,9.08,31.51,31.51,0,0,1-14.58,3.25Zm7.38-6.43h14a23.86,23.86,0,0,0,11.11-2.43,17.76,17.76,0,0,0,7.27-6.83,21.33,21.33,0,0,0,0-20.34A17.73,17.73,0,0,0,527.6,593a23.74,23.74,0,0,0-11.11-2.44h-14Z" transform="translate(0 -6.9)"/><path class="cls-2" d="M567.57,629.34H597.7v6.43H560.19V584.09h36.47v6.42H567.57Zm-.66-23h26.58v6.28H566.91Z" transform="translate(0 -6.9)"/><path class="cls-2" d="M627.89,635.77l-22.74-51.68h8L634,631.78h-4.58l21-47.69h7.38L635.2,635.77Z" transform="translate(0 -6.9)"/><path class="cls-2" d="M675.88,629.34H706v6.43H668.5V584.09H705v6.42H675.88Zm-.66-23H701.8v6.28H675.22Z" transform="translate(0 -6.9)"/><path class="cls-2" d="M39.77,731.8A35.14,35.14,0,0,1,28.48,730,23.1,23.1,0,0,1,20,725.3l2.73-5.76a23.83,23.83,0,0,0,7.53,4.29,27.22,27.22,0,0,0,9.52,1.7,21.46,21.46,0,0,0,7.31-1,8.68,8.68,0,0,0,4.14-2.84,6.79,6.79,0,0,0,1.33-4.1,5.58,5.58,0,0,0-1.74-4.28,12.82,12.82,0,0,0-4.5-2.62,51,51,0,0,0-6.09-1.74c-2.22-.49-4.44-1.07-6.68-1.73a29.74,29.74,0,0,1-6.13-2.55,12.43,12.43,0,0,1-4.47-4.17,12.24,12.24,0,0,1-1.7-6.75,13.61,13.61,0,0,1,2.11-7.35,14.57,14.57,0,0,1,6.5-5.39,26.73,26.73,0,0,1,11.18-2A34.39,34.39,0,0,1,50,680.12a24.77,24.77,0,0,1,7.68,3.4l-2.43,5.9a24.16,24.16,0,0,0-7-3.21,27.63,27.63,0,0,0-7.16-1,19.68,19.68,0,0,0-7.16,1.11,8.69,8.69,0,0,0-4.1,3,7,7,0,0,0-1.29,4.13,5.72,5.72,0,0,0,1.73,4.36,12.52,12.52,0,0,0,4.51,2.58,58.32,58.32,0,0,0,6.09,1.73q3.31.78,6.68,1.74a28.83,28.83,0,0,1,6.13,2.51,12.64,12.64,0,0,1,4.46,4.13,11.85,11.85,0,0,1,1.7,6.65,13.24,13.24,0,0,1-2.14,7.27A14.8,14.8,0,0,1,51,729.77,27.13,27.13,0,0,1,39.77,731.8Z" transform="translate(0 -6.9)"/><path class="cls-2" d="M82,724.79h30.13v6.42H74.62V679.53h36.47V686H82Zm-.66-23h26.58v6.27H81.34Z" transform="translate(0 -6.9)"/><path class="cls-2" d="M128.15,731.21V679.53H148.3a28.29,28.29,0,0,1,11.59,2.14,16.52,16.52,0,0,1,7.39,6.2,17.66,17.66,0,0,1,2.58,9.67,17.46,17.46,0,0,1-2.58,9.64,16.51,16.51,0,0,1-7.39,6.16,28.29,28.29,0,0,1-11.59,2.14H132.21l3.32-3.39v19.12Zm7.38-18.38-3.32-3.62h15.87q7.09,0,10.74-3.07a10.58,10.58,0,0,0,3.66-8.6q0-5.53-3.66-8.56t-10.74-3H132.21l3.32-3.69Zm27.17,18.38-13.14-18.75h7.9l13.29,18.75Z" transform="translate(0 -6.9)"/><path class="cls-2" d="M224.71,731.21,202,679.53h8l20.89,47.69h-4.58l21.05-47.69h7.38L232,731.21Z" transform="translate(0 -6.9)"/><path class="cls-2" d="M265.32,731.21V679.53h7.38v51.68Z" transform="translate(0 -6.9)"/><path class="cls-2" d="M306.66,731.21l-22.73-51.68h8l20.89,47.69h-4.58l21.05-47.69h7.38L314,731.21Z" transform="translate(0 -6.9)"/><path class="cls-2" d="M347.27,731.21V679.53h7.38v51.68Z" transform="translate(0 -6.9)"/><path class="cls-2" d="M374.22,731.21V679.53H396a31.38,31.38,0,0,1,14.58,3.25,24,24,0,0,1,9.82,9.08,27.82,27.82,0,0,1,0,27,24,24,0,0,1-9.82,9.08A31.38,31.38,0,0,1,396,731.21Zm7.38-6.42h13.95a23.81,23.81,0,0,0,11.11-2.44,17.72,17.72,0,0,0,7.28-6.83,21.33,21.33,0,0,0,0-20.34,17.82,17.82,0,0,0-7.28-6.79A23.68,23.68,0,0,0,395.55,686H381.6Z" transform="translate(0 -6.9)"/><path class="cls-2" d="M430.7,731.21l23.4-51.68h7.31l23.48,51.68h-7.76l-20.89-47.55h2.95L438.3,731.21Zm10-12.92,2-5.91h29.08l2.15,5.91Z" transform="translate(0 -6.9)"/><path class="cls-2" d="M498.84,731.65a4.68,4.68,0,0,1-3.47-1.4,4.73,4.73,0,0,1,0-6.72,4.87,4.87,0,0,1,3.47-1.33,4.76,4.76,0,0,1,3.4,8A4.47,4.47,0,0,1,498.84,731.65ZM496,714.89l-1.33-35.36H503l-1.4,35.36Z" transform="translate(0 -6.9)"/></g></g></svg>