<svg xmlns="http://www.w3.org/2000/svg" viewBox="0 0 838 655.61"><defs><style>.cls-1{fill:#fff;}.cls-2{fill:#b43176;}</style></defs><title>5</title><g id="Camada_2" data-name="Camada 2"><g id="Camada_1-2" data-name="Camada 1"><g id="quer_saber_" data-name="quer saber?"><rect class="cls-1" width="838" height="655.61"/><path class="cls-2" d="M34.21,279.23l-4.55-44.5,6.81-.7,31.41,31.48-3.37.35L61,231.53l8.13-.83,4.54,44.5-6.8.69L35.53,244.41l3.37-.35,3.51,34.33Z"/><path class="cls-2" d="M103.74,272.58a18.89,18.89,0,0,1-9.48-1.31,16.85,16.85,0,0,1-7.09-5.54,18.46,18.46,0,0,1-1.84-18,17.11,17.11,0,0,1,5.8-6.79,18.89,18.89,0,0,1,9.05-3.2,19.18,19.18,0,0,1,9.61,1.3,16.82,16.82,0,0,1,7,5.47,18.71,18.71,0,0,1,1.84,18,16.64,16.64,0,0,1-5.82,6.82A19.17,19.17,0,0,1,103.74,272.58Zm-.69-6.74a10.46,10.46,0,0,0,5.08-1.83,9.22,9.22,0,0,0,3.21-4.12,12,12,0,0,0,.73-5.76,11.61,11.61,0,0,0-1.88-5.49,9.25,9.25,0,0,0-4-3.32,10.87,10.87,0,0,0-10.3,1.05,9.51,9.51,0,0,0-3.25,4.06,11.48,11.48,0,0,0-.76,5.76,11.73,11.73,0,0,0,1.91,5.49,9.39,9.39,0,0,0,4,3.38A10.17,10.17,0,0,0,103.05,265.84Z"/><path class="cls-2" d="M146.67,240.13l-.65-6.36,22.63-2.31.65,6.36Zm8.39,26.77-3.66-35.8a11.85,11.85,0,0,1,2.27-8.93q2.82-3.53,8.67-4.13a17.36,17.36,0,0,1,4,0,8.51,8.51,0,0,1,3.29,1.08L168,225.3a7.81,7.81,0,0,0-4.45-.9,5,5,0,0,0-3.62,1.75,5.75,5.75,0,0,0-.85,4.17l.4,3.94.54,3.48,2.9,28.35Zm22.6-42.26a5.06,5.06,0,0,1-3.8-1,4.63,4.63,0,0,1-1.78-3.29,4.48,4.48,0,0,1,1.09-3.45,5,5,0,0,1,3.51-1.77,5.25,5.25,0,0,1,3.79.93,4.35,4.35,0,0,1,1.77,3.19,4.81,4.81,0,0,1-1,3.61A5,5,0,0,1,177.66,224.64Zm.09,39.94-3.46-33.95,7.88-.8,3.46,33.94Z"/><path class="cls-2" d="M238.89,223.59a15.92,15.92,0,0,1,7.38.85,11.41,11.41,0,0,1,5.43,4.39,17.92,17.92,0,0,1,2.64,8.28l2,19.45-7.89.8-1.88-18.43c-.31-3-1.2-5.19-2.69-6.54a7.33,7.33,0,0,0-5.92-1.64,9.22,9.22,0,0,0-4.49,1.62,7.75,7.75,0,0,0-2.77,3.71,12.88,12.88,0,0,0-.53,5.74l1.75,17.23-7.88.81-1.88-18.44c-.31-3-1.2-5.19-2.69-6.53a7.3,7.3,0,0,0-5.92-1.65,9.19,9.19,0,0,0-4.49,1.62,7.77,7.77,0,0,0-2.77,3.72,12.7,12.7,0,0,0-.54,5.74l1.76,17.22-7.88.81-3.47-34,7.57-.77.93,9.09L203,234.13a12,12,0,0,1,4.48-5.53,15.58,15.58,0,0,1,7.35-2.55,14.47,14.47,0,0,1,8.5,1.51,11.46,11.46,0,0,1,5.38,6.77l-3.16-.83a13.14,13.14,0,0,1,4.78-6.66A16.58,16.58,0,0,1,238.89,223.59Z"/><path class="cls-2" d="M268.88,265l2.18-14.54,1.69,4.64a5.4,5.4,0,0,1-3.92-1,4.91,4.91,0,0,1-1.88-3.63,5,5,0,0,1,1.11-3.93,5.12,5.12,0,0,1,3.51-1.81,5.07,5.07,0,0,1,3.87,1.08,5.2,5.2,0,0,1,1.81,3.61,8.63,8.63,0,0,1,0,1.44,13.72,13.72,0,0,1-.27,1.73c-.15.66-.37,1.5-.65,2.51L274,264.52Z"/><path class="cls-2" d="M331,248.94l-.71-6.93-.52-1.36-1.23-12a7,7,0,0,0-2.68-5.22c-1.56-1.15-3.77-1.57-6.66-1.28a17.94,17.94,0,0,0-5.44,1.46,14.66,14.66,0,0,0-4.45,3l-3.7-5.47a20.14,20.14,0,0,1,6.22-3.85,28.26,28.26,0,0,1,7.71-1.88q7.44-.75,11.81,2.39t5.12,10.53l2,19.9Zm-10.64,1.54a16.13,16.13,0,0,1-6.81-.62,10.33,10.33,0,0,1-4.78-3.18,9.21,9.21,0,0,1-2.1-5.08,10,10,0,0,1,.84-5.29,9.27,9.27,0,0,1,4.12-4.08,21.38,21.38,0,0,1,8.12-2.18l9.86-1,.54,5.27-9.28,1q-4,.4-5.31,1.86a4.24,4.24,0,0,0-1.09,3.42,4,4,0,0,0,2.06,3.19,7.88,7.88,0,0,0,4.89.78,10.25,10.25,0,0,0,5.11-1.87,7.84,7.84,0,0,0,3-4.28l1.76,4.63a8.94,8.94,0,0,1-3.59,5.06A15.24,15.24,0,0,1,320.32,250.48Z"/><path class="cls-2" d="M387.38,241.64a18.28,18.28,0,0,1-9-1.17,15.82,15.82,0,0,1-6.73-5.12,16.23,16.23,0,0,1-3.13-8.36,16.45,16.45,0,0,1,1.37-8.9,15.43,15.43,0,0,1,5.55-6.38,18.66,18.66,0,0,1,8.57-2.93,17,17,0,0,1,8,.95,13,13,0,0,1,6.05,4.81,19.1,19.1,0,0,1,3,9.14,18.74,18.74,0,0,1-1.1,9.42,13.19,13.19,0,0,1-4.94,6A16.88,16.88,0,0,1,387.38,241.64Zm2.48,14.2a33.69,33.69,0,0,1-9.32-.3,19.72,19.72,0,0,1-7.71-2.9l3-6.28a17.58,17.58,0,0,0,5.89,2.42,22,22,0,0,0,7.11.43c3.69-.38,6.32-1.51,7.88-3.41s2.16-4.58,1.81-8.05l-.62-6-.14-7.7-1-7.66-.85-8.33,7.57-.77,2.94,28.8q.93,9.21-3.32,14T389.86,255.84Zm-2-21.06a11.35,11.35,0,0,0,5.21-1.78,9.13,9.13,0,0,0,3.31-3.81,9.62,9.62,0,0,0,.79-5.12,9.73,9.73,0,0,0-1.82-5,9,9,0,0,0-4-3,11.43,11.43,0,0,0-5.46-.66,11.81,11.81,0,0,0-5.25,1.75,9,9,0,0,0-3.35,3.75,10.45,10.45,0,0,0,1,10.07,9,9,0,0,0,4,3.06A11.64,11.64,0,0,0,387.9,234.78Z"/><path class="cls-2" d="M436.79,238.59a20.82,20.82,0,0,1-10.12-1.24,16.52,16.52,0,0,1-7.18-5.5,17.45,17.45,0,0,1-3.24-8.76,17.82,17.82,0,0,1,1.34-9.23,16.59,16.59,0,0,1,5.6-6.8,18.12,18.12,0,0,1,8.83-3.18,17.66,17.66,0,0,1,9.06,1.29,16,16,0,0,1,6.73,5.51A18.87,18.87,0,0,1,451,219.8c0,.3.06.67.08,1.12s0,.84,0,1.18L422.81,225l-.54-5.28,24.09-2.46-3,2a10,10,0,0,0-1.7-5,8.92,8.92,0,0,0-3.75-3.15,10.12,10.12,0,0,0-5.22-.72,10.58,10.58,0,0,0-5,1.76,8.48,8.48,0,0,0-3.1,3.89,11.09,11.09,0,0,0-.67,5.4l.13,1.27a10.54,10.54,0,0,0,1.92,5.26,9.33,9.33,0,0,0,4.28,3.26,12.9,12.9,0,0,0,6,.7,13.49,13.49,0,0,0,5.06-1.48,12.08,12.08,0,0,0,3.78-3.21l4.83,4.51a15.39,15.39,0,0,1-5.4,4.67A21.08,21.08,0,0,1,436.79,238.59Z"/><path class="cls-2" d="M479.57,199a16,16,0,0,1,7.44.84,12,12,0,0,1,5.53,4.38,17.18,17.18,0,0,1,2.73,8.27l2,19.45-7.95.81-1.88-18.43c-.31-3-1.23-5.19-2.78-6.53a7.85,7.85,0,0,0-6.21-1.61,10.49,10.49,0,0,0-4.84,1.65,7.87,7.87,0,0,0-3,3.74,12.23,12.23,0,0,0-.59,5.81l1.75,17.16-7.89.81-3.46-33.95,7.56-.77.95,9.22-1.63-2.73a11.84,11.84,0,0,1,4.6-5.54A16.76,16.76,0,0,1,479.57,199Z"/><path class="cls-2" d="M503.56,203.71l-.65-6.36L525.54,195l.65,6.36Zm20.13,26q-5.6.57-8.94-2t-3.92-8.17L507.71,189l7.89-.8,3.09,30.26a5.21,5.21,0,0,0,1.65,3.62,4.71,4.71,0,0,0,3.7,1,6.68,6.68,0,0,0,4.18-1.84l2.86,5.43a10,10,0,0,1-3.32,2.07A15.14,15.14,0,0,1,523.69,229.72Z"/><path class="cls-2" d="M556.17,226.41a20.79,20.79,0,0,1-10.11-1.25,16.52,16.52,0,0,1-7.18-5.5,17.45,17.45,0,0,1-3.24-8.76,17.78,17.78,0,0,1,1.34-9.22,16.52,16.52,0,0,1,5.6-6.8,18.13,18.13,0,0,1,8.83-3.19,17.88,17.88,0,0,1,9.06,1.29,15.92,15.92,0,0,1,6.73,5.52,18.8,18.8,0,0,1,3.18,9.11c0,.3.06.67.08,1.12s0,.84,0,1.19L542.2,212.8l-.54-5.27,24.09-2.46-3,2a10,10,0,0,0-1.7-5,8.89,8.89,0,0,0-3.76-3.15,10.07,10.07,0,0,0-5.21-.72,10.44,10.44,0,0,0-5,1.76,8.45,8.45,0,0,0-3.1,3.88,11.12,11.12,0,0,0-.67,5.4l.13,1.27a10.48,10.48,0,0,0,1.92,5.27,9.31,9.31,0,0,0,4.28,3.25,12.78,12.78,0,0,0,6,.7,13.18,13.18,0,0,0,5.06-1.48,12.08,12.08,0,0,0,3.78-3.21l4.83,4.52a15.37,15.37,0,0,1-5.4,4.66A21.08,21.08,0,0,1,556.17,226.41Z"/><path class="cls-2" d="M643.59,182.29a15.79,15.79,0,0,1,7.38.85,11.43,11.43,0,0,1,5.42,4.39A17.83,17.83,0,0,1,659,195.8l2,19.46-7.88.8-1.88-18.43q-.46-4.51-2.69-6.54a7.33,7.33,0,0,0-5.92-1.64,9.14,9.14,0,0,0-4.49,1.61,7.77,7.77,0,0,0-2.77,3.72,12.71,12.71,0,0,0-.54,5.74l1.76,17.23-7.88.8-1.88-18.43q-.47-4.51-2.69-6.54a7.33,7.33,0,0,0-5.92-1.64,9.24,9.24,0,0,0-4.49,1.61,7.77,7.77,0,0,0-2.77,3.72,12.71,12.71,0,0,0-.54,5.74l1.76,17.23-7.89.81-3.46-34,7.57-.77.92,9.09-1.67-2.59a12.05,12.05,0,0,1,4.47-5.54,15.72,15.72,0,0,1,7.36-2.54,14.56,14.56,0,0,1,8.5,1.5,11.52,11.52,0,0,1,5.38,6.78l-3.17-.84a13.28,13.28,0,0,1,4.78-6.65A16.57,16.57,0,0,1,643.59,182.29Z"/><path class="cls-2" d="M690.75,212.67a20.8,20.8,0,0,1-10.11-1.24,16.52,16.52,0,0,1-7.18-5.5,17.45,17.45,0,0,1-3.24-8.76,17.82,17.82,0,0,1,1.34-9.23,16.59,16.59,0,0,1,5.6-6.8A18.22,18.22,0,0,1,686,178a17.66,17.66,0,0,1,9.06,1.29,16,16,0,0,1,6.73,5.51,18.87,18.87,0,0,1,3.18,9.12c0,.3.06.67.08,1.12s0,.84,0,1.18l-28.28,2.89-.54-5.28,24.09-2.46-3,2a10,10,0,0,0-1.7-5,8.89,8.89,0,0,0-3.76-3.15,10.07,10.07,0,0,0-5.21-.72,10.58,10.58,0,0,0-5,1.76,8.48,8.48,0,0,0-3.1,3.89,11.12,11.12,0,0,0-.67,5.4l.13,1.27a10.62,10.62,0,0,0,1.91,5.26,9.41,9.41,0,0,0,4.29,3.26,12.9,12.9,0,0,0,6,.7,13.54,13.54,0,0,0,5.06-1.48,12.08,12.08,0,0,0,3.78-3.21l4.83,4.52a15.47,15.47,0,0,1-5.4,4.66A21.08,21.08,0,0,1,690.75,212.67Z"/><path class="cls-2" d="M717.76,169.51a5,5,0,0,1-3.8-1,4.65,4.65,0,0,1-1.78-3.29,4.52,4.52,0,0,1,1.09-3.45,5,5,0,0,1,3.52-1.77,5.24,5.24,0,0,1,3.78.93,4.31,4.31,0,0,1,1.78,3.19,4.82,4.82,0,0,1-1.05,3.61A4.9,4.9,0,0,1,717.76,169.51Zm.09,40-3.46-34,7.88-.8,3.47,33.94Z"/><path class="cls-2" d="M755,206.12a19,19,0,0,1-9.48-1.31,16.93,16.93,0,0,1-7.09-5.54,17.3,17.3,0,0,1-3.26-8.73,16.76,16.76,0,0,1,7.22-16,19,19,0,0,1,9.06-3.21,19.25,19.25,0,0,1,9.6,1.3,16.89,16.89,0,0,1,7,5.48,18.76,18.76,0,0,1,1.84,18,16.61,16.61,0,0,1-5.82,6.83A19.21,19.21,0,0,1,755,206.12Zm-.69-6.74a10.42,10.42,0,0,0,5.08-1.83,9.21,9.21,0,0,0,3.21-4.12,11.83,11.83,0,0,0,.73-5.76,11.61,11.61,0,0,0-1.88-5.49,9.28,9.28,0,0,0-4-3.32,10.87,10.87,0,0,0-10.3,1A9.48,9.48,0,0,0,743.9,184a12.6,12.6,0,0,0,1.15,11.26,9.37,9.37,0,0,0,4,3.38A10.2,10.2,0,0,0,754.27,199.38Z"/><path class="cls-2" d="M237.46,317.17a17.82,17.82,0,0,1-9-1.27,15.76,15.76,0,0,1-6.72-5.44,20.13,20.13,0,0,1-1.87-18.34,15.66,15.66,0,0,1,5.48-6.73,17.83,17.83,0,0,1,8.55-3.06,15.77,15.77,0,0,1,8,1.08,13.1,13.1,0,0,1,5.83,5.19,22.27,22.27,0,0,1,2.91,9.63,21.67,21.67,0,0,1-1,10,13.31,13.31,0,0,1-4.72,6.29A15.4,15.4,0,0,1,237.46,317.17Zm.26-6.84a10,10,0,0,0,5-1.86,9.68,9.68,0,0,0,3.25-4.12,12.53,12.53,0,0,0-1.15-11.22,9.52,9.52,0,0,0-4-3.32,10.78,10.78,0,0,0-10.23,1.05,9.57,9.57,0,0,0-3.25,4.06,12.55,12.55,0,0,0,1.14,11.22,9.76,9.76,0,0,0,4,3.38A10,10,0,0,0,237.72,310.33Zm11.88,17.61-2.06-20.21-.29-9.1-1.17-9-.82-8,7.57-.77,4.72,46.28Z"/><path class="cls-2" d="M284.63,312.36a17.23,17.23,0,0,1-7.8-.85,11.86,11.86,0,0,1-5.69-4.43,17.2,17.2,0,0,1-2.73-8.23l-2-19.39,8-.82L276.32,297q.45,4.51,2.78,6.55a7.59,7.59,0,0,0,6.08,1.66,10.16,10.16,0,0,0,4.78-1.64,7.75,7.75,0,0,0,2.89-3.76,12.62,12.62,0,0,0,.57-5.78l-1.75-17.16,7.95-.81L303.08,310l-7.56.78-.95-9.22,1.63,2.72a12,12,0,0,1-4.51,5.54A15.16,15.16,0,0,1,284.63,312.36Z"/><path class="cls-2" d="M333,307.42a20.79,20.79,0,0,1-10.11-1.25,16.52,16.52,0,0,1-7.18-5.5,17.42,17.42,0,0,1-3.24-8.76,17.78,17.78,0,0,1,1.34-9.22,16.52,16.52,0,0,1,5.6-6.8,18.13,18.13,0,0,1,8.83-3.19,17.77,17.77,0,0,1,9.06,1.3,15.88,15.88,0,0,1,6.73,5.51,18.8,18.8,0,0,1,3.18,9.12c0,.29.06.66.08,1.11s0,.84,0,1.19L319,293.81l-.54-5.27,24.09-2.46-3,2a10,10,0,0,0-1.7-5,8.92,8.92,0,0,0-3.75-3.15,10.12,10.12,0,0,0-5.22-.72,10.48,10.48,0,0,0-5,1.76,8.5,8.5,0,0,0-3.1,3.88,11.12,11.12,0,0,0-.67,5.4l.13,1.27a10.57,10.57,0,0,0,1.92,5.27,9.31,9.31,0,0,0,4.28,3.25,12.78,12.78,0,0,0,6,.7,13.18,13.18,0,0,0,5.06-1.48,12.08,12.08,0,0,0,3.78-3.21l4.83,4.52a15.37,15.37,0,0,1-5.4,4.66A21.08,21.08,0,0,1,333,307.42Z"/><path class="cls-2" d="M378.83,315.2a17,17,0,0,1-4.22-.08,10.66,10.66,0,0,1-3.55-1.11l1.68-6.15a7.81,7.81,0,0,0,4.78.86,4.3,4.3,0,0,0,3.23-1.71,6,6,0,0,0,.8-4.16L378,268.08l7.94-.82,3.53,34.59q.57,5.59-2.17,9.18T378.83,315.2Zm2.54-53.12a5,5,0,0,1-3.8-1,4.63,4.63,0,0,1-1.78-3.28,4.48,4.48,0,0,1,1.09-3.45,5,5,0,0,1,3.52-1.78,5.24,5.24,0,0,1,3.78.93,4.35,4.35,0,0,1,1.78,3.2,4.81,4.81,0,0,1-1,3.6A5,5,0,0,1,381.37,262.08Z"/><path class="cls-2" d="M417.74,298.77a17.32,17.32,0,0,1-7.79-.84,11.92,11.92,0,0,1-5.69-4.43,17.13,17.13,0,0,1-2.73-8.23l-2-19.39,8-.82,1.87,18.37q.46,4.51,2.79,6.56a7.67,7.67,0,0,0,6.08,1.66,10.05,10.05,0,0,0,4.78-1.65,7.7,7.7,0,0,0,2.89-3.76,12.57,12.57,0,0,0,.57-5.77l-1.75-17.17,7.94-.81,3.47,33.95-7.57.77-.94-9.22,1.63,2.73a12,12,0,0,1-4.51,5.53A15.15,15.15,0,0,1,417.74,298.77Z"/><path class="cls-2" d="M465.87,258.66a16.08,16.08,0,0,1,7.44.84,12,12,0,0,1,5.53,4.39,17.1,17.1,0,0,1,2.73,8.26l2,19.45-7.95.81L473.73,274c-.31-3-1.23-5.18-2.78-6.53a7.88,7.88,0,0,0-6.21-1.61,10.49,10.49,0,0,0-4.84,1.65,7.92,7.92,0,0,0-3,3.74,12.25,12.25,0,0,0-.59,5.81l1.75,17.17-7.89.8-3.46-33.95,7.56-.77,1,9.22-1.63-2.73a11.94,11.94,0,0,1,4.6-5.54A16.76,16.76,0,0,1,465.87,258.66Z"/><path class="cls-2" d="M489.86,263.34l-.65-6.36,22.63-2.31.65,6.36Zm20.13,26q-5.6.57-8.94-2t-3.92-8.18L494,248.66l7.89-.81L505,278.11a5.21,5.21,0,0,0,1.65,3.62,4.67,4.67,0,0,0,3.7,1,6.63,6.63,0,0,0,4.18-1.84l2.86,5.43a10,10,0,0,1-3.32,2.07A15.54,15.54,0,0,1,510,289.36Z"/><path class="cls-2" d="M548.53,285l-.71-6.93-.52-1.36-1.23-12a7,7,0,0,0-2.68-5.22c-1.55-1.15-3.77-1.57-6.65-1.28a18.05,18.05,0,0,0-5.44,1.45,14.72,14.72,0,0,0-4.45,3l-3.71-5.46a20.19,20.19,0,0,1,6.23-3.85,28.1,28.1,0,0,1,7.7-1.88q7.44-.75,11.81,2.39c2.91,2.11,4.62,5.61,5.12,10.53l2,19.9Zm-10.63,1.54a16.1,16.1,0,0,1-6.81-.62,10.36,10.36,0,0,1-4.79-3.18,9.2,9.2,0,0,1-2.09-5.08,9.81,9.81,0,0,1,.84-5.29,9.19,9.19,0,0,1,4.11-4.08,21.49,21.49,0,0,1,8.13-2.18l9.85-1,.54,5.28-9.28.95q-4,.4-5.3,1.85a4.27,4.27,0,0,0-1.1,3.42,4,4,0,0,0,2.06,3.2,7.9,7.9,0,0,0,4.9.78,10.39,10.39,0,0,0,5.11-1.87,7.94,7.94,0,0,0,3-4.28l1.75,4.63a8.89,8.89,0,0,1-3.59,5.06A15.2,15.2,0,0,1,537.9,286.51Z"/><path class="cls-2" d="M583.44,253.79l-.65-6.36,22.63-2.31.65,6.36Zm20.13,26q-5.61.57-9-2t-3.91-8.18l-3.12-30.52,7.89-.8,3.08,30.26a5.26,5.26,0,0,0,1.66,3.62,4.66,4.66,0,0,0,3.69,1,6.58,6.58,0,0,0,4.18-1.84l2.87,5.43a10.08,10.08,0,0,1-3.32,2.07A15.64,15.64,0,0,1,603.57,279.81Z"/><path class="cls-2" d="M635.35,276.56a19,19,0,0,1-9.48-1.31,16.9,16.9,0,0,1-7.08-5.54,18.46,18.46,0,0,1-1.84-18,17,17,0,0,1,5.8-6.79,18.93,18.93,0,0,1,9-3.21,19.25,19.25,0,0,1,9.6,1.3,16.89,16.89,0,0,1,7.05,5.48,18.78,18.78,0,0,1,1.84,18,16.64,16.64,0,0,1-5.82,6.82A19.17,19.17,0,0,1,635.35,276.56Zm-.69-6.74a10.42,10.42,0,0,0,5.08-1.83,9.21,9.21,0,0,0,3.21-4.12,11.83,11.83,0,0,0,.73-5.76,11.61,11.61,0,0,0-1.88-5.49,9.28,9.28,0,0,0-4-3.32,10.87,10.87,0,0,0-10.3,1,9.45,9.45,0,0,0-3.25,4.06,11.37,11.37,0,0,0-.76,5.76,11.62,11.62,0,0,0,1.91,5.49,9.39,9.39,0,0,0,4,3.38A10.15,10.15,0,0,0,634.66,269.82Z"/><path class="cls-2" d="M679,272.11a18,18,0,0,1-9-1.26,15.72,15.72,0,0,1-6.76-5.45,20.13,20.13,0,0,1-1.87-18.34,15.71,15.71,0,0,1,5.51-6.73,18.13,18.13,0,0,1,8.59-3.06,15.52,15.52,0,0,1,7.82,1.1,13.28,13.28,0,0,1,5.92,5.18,21.43,21.43,0,0,1,3,9.62,22.23,22.23,0,0,1-.9,10,13,13,0,0,1-4.66,6.29A15.67,15.67,0,0,1,679,272.11Zm.27-6.83a10.13,10.13,0,0,0,5-1.83,9.65,9.65,0,0,0,3.24-4.12,11.44,11.44,0,0,0,.8-5.77,11.16,11.16,0,0,0-1.94-5.48,9.9,9.9,0,0,0-4-3.32,10.79,10.79,0,0,0-10.24,1,9.87,9.87,0,0,0-3.25,4.06,11.19,11.19,0,0,0-.79,5.77,11.36,11.36,0,0,0,1.94,5.48,9.63,9.63,0,0,0,4,3.38A10.09,10.09,0,0,0,679.23,265.28Zm11,5.23-.81-8-.74-9.05-1.55-9L685,223.39l8-.82,4.82,47.17Z"/><path class="cls-2" d="M732.64,266.18l-.71-6.93-.53-1.36-1.22-12a7,7,0,0,0-2.69-5.22c-1.55-1.15-3.76-1.57-6.65-1.28a17.86,17.86,0,0,0-5.44,1.46,14.66,14.66,0,0,0-4.45,3l-3.7-5.47a20.14,20.14,0,0,1,6.22-3.85,28.63,28.63,0,0,1,7.71-1.88q7.44-.75,11.8,2.39c2.92,2.11,4.62,5.61,5.13,10.53l2,19.9ZM722,267.72a16.13,16.13,0,0,1-6.81-.62,10.41,10.41,0,0,1-4.79-3.18,9.27,9.27,0,0,1-2.09-5.08,10,10,0,0,1,.84-5.29,9.27,9.27,0,0,1,4.12-4.08,21.38,21.38,0,0,1,8.12-2.18l9.86-1,.54,5.28-9.29.95c-2.67.27-4.43.89-5.3,1.86a4.28,4.28,0,0,0-1.1,3.42,4,4,0,0,0,2.07,3.19,7.88,7.88,0,0,0,4.89.78,10.25,10.25,0,0,0,5.11-1.87,7.84,7.84,0,0,0,3-4.28l1.76,4.63a8.91,8.91,0,0,1-3.6,5.06A15.17,15.17,0,0,1,722,267.72Z"/><path class="cls-2" d="M764.4,263.39a29.8,29.8,0,0,1-8.31-.27,22.27,22.27,0,0,1-6.51-2.07L752,254.7a20.71,20.71,0,0,0,5.71,1.82,23,23,0,0,0,6.51.27,11.2,11.2,0,0,0,5.28-1.53,3,3,0,0,0,1.4-2.88,2.38,2.38,0,0,0-1.36-2,8.9,8.9,0,0,0-3.1-.81c-1.26-.13-2.65-.22-4.17-.28s-3.06-.19-4.6-.39a15.56,15.56,0,0,1-4.26-1.18,8.39,8.39,0,0,1-3.28-2.52,8.78,8.78,0,0,1-1.63-4.65,8.89,8.89,0,0,1,1.27-5.75,12,12,0,0,1,4.81-4.25,21.23,21.23,0,0,1,7.77-2.14,31.44,31.44,0,0,1,7,.09,20.43,20.43,0,0,1,6.11,1.59l-2.5,6.36a16.33,16.33,0,0,0-5-1.45,23.44,23.44,0,0,0-4.95,0,10.73,10.73,0,0,0-5.23,1.6,3.11,3.11,0,0,0-1.51,2.88,2.58,2.58,0,0,0,1.38,2.17,8.91,8.91,0,0,0,3.11.87c1.25.15,2.65.27,4.17.35s3.06.22,4.58.43a17.79,17.79,0,0,1,4.25,1.11,8.05,8.05,0,0,1,3.31,2.45,8.51,8.51,0,0,1,1.61,4.53,8.61,8.61,0,0,1-1.3,5.75,12.38,12.38,0,0,1-4.91,4.17A23.13,23.13,0,0,1,764.4,263.39Z"/><path class="cls-2" d="M141.24,385.22A20.8,20.8,0,0,1,131.13,384a16.52,16.52,0,0,1-7.18-5.5,17.45,17.45,0,0,1-3.24-8.76,17.82,17.82,0,0,1,1.34-9.23,16.59,16.59,0,0,1,5.6-6.8,18.22,18.22,0,0,1,8.83-3.18,17.66,17.66,0,0,1,9.06,1.29,16,16,0,0,1,6.73,5.51,18.87,18.87,0,0,1,3.18,9.12c0,.3.06.67.08,1.12s0,.84,0,1.18l-28.28,2.89-.54-5.28,24.09-2.45-3,2a10,10,0,0,0-1.7-5,8.89,8.89,0,0,0-3.76-3.15,10.28,10.28,0,0,0-5.21-.72,10.56,10.56,0,0,0-5,1.77,8.45,8.45,0,0,0-3.1,3.88,11.12,11.12,0,0,0-.67,5.4l.13,1.27a10.53,10.53,0,0,0,1.91,5.26,9.34,9.34,0,0,0,4.29,3.26,12.78,12.78,0,0,0,6,.7,13.36,13.36,0,0,0,5.06-1.48,12.08,12.08,0,0,0,3.78-3.21l4.83,4.52A15.37,15.37,0,0,1,149,383,21.08,21.08,0,0,1,141.24,385.22Z"/><path class="cls-2" d="M178.88,381.38a29.5,29.5,0,0,1-8.32-.27,22.1,22.1,0,0,1-6.5-2.07l2.43-6.35a21.16,21.16,0,0,0,5.71,1.83,23.05,23.05,0,0,0,6.52.26,11.15,11.15,0,0,0,5.27-1.53,3,3,0,0,0,1.41-2.87,2.41,2.41,0,0,0-1.36-2,9,9,0,0,0-3.1-.8c-1.26-.13-2.65-.23-4.18-.28s-3.06-.2-4.6-.4a15.91,15.91,0,0,1-4.26-1.17,8.66,8.66,0,0,1-3.28-2.53,9.85,9.85,0,0,1-.35-10.4,12.09,12.09,0,0,1,4.8-4.25,21.48,21.48,0,0,1,7.78-2.14,31.46,31.46,0,0,1,7,.09,20.36,20.36,0,0,1,6.1,1.59l-2.5,6.36a16.23,16.23,0,0,0-5-1.44,22.79,22.79,0,0,0-5,0,10.77,10.77,0,0,0-5.23,1.59,3.08,3.08,0,0,0-1.5,2.88,2.57,2.57,0,0,0,1.37,2.17,9,9,0,0,0,3.11.88c1.26.15,2.65.26,4.18.34s3.05.22,4.57.43a18,18,0,0,1,4.26,1.11,7.89,7.89,0,0,1,3.3,2.46,9.55,9.55,0,0,1,.31,10.27,12.24,12.24,0,0,1-4.91,4.17A22.85,22.85,0,0,1,178.88,381.38Z"/><path class="cls-2" d="M215.11,377.69a29.8,29.8,0,0,1-8.31-.28,22.27,22.27,0,0,1-6.51-2.07l2.44-6.35a21,21,0,0,0,5.71,1.83,23,23,0,0,0,6.51.27,11.19,11.19,0,0,0,5.28-1.54,3,3,0,0,0,1.4-2.87,2.36,2.36,0,0,0-1.36-2,8.9,8.9,0,0,0-3.1-.81c-1.25-.13-2.64-.22-4.17-.28s-3.06-.19-4.6-.4a15.91,15.91,0,0,1-4.26-1.17,8.51,8.51,0,0,1-3.28-2.53,8.72,8.72,0,0,1-1.63-4.65,8.9,8.9,0,0,1,1.27-5.75,12.12,12.12,0,0,1,4.81-4.25,21.43,21.43,0,0,1,7.77-2.14,31.44,31.44,0,0,1,7,.09,20.13,20.13,0,0,1,6.11,1.6l-2.5,6.35a16.3,16.3,0,0,0-5-1.44,22.79,22.79,0,0,0-4.95,0,10.73,10.73,0,0,0-5.23,1.59,3.11,3.11,0,0,0-1.51,2.88,2.59,2.59,0,0,0,1.38,2.18,8.91,8.91,0,0,0,3.11.87c1.25.15,2.65.26,4.18.34s3,.23,4.57.43a17.79,17.79,0,0,1,4.25,1.11,8,8,0,0,1,3.31,2.46,8.47,8.47,0,0,1,1.61,4.52,8.66,8.66,0,0,1-1.3,5.76,12.36,12.36,0,0,1-4.91,4.16A23.12,23.12,0,0,1,215.11,377.69Z"/><path class="cls-2" d="M261.67,372.49l-.71-6.93-.52-1.36-1.23-12a7,7,0,0,0-2.69-5.22c-1.55-1.14-3.76-1.57-6.65-1.28a17.94,17.94,0,0,0-5.44,1.46,14.66,14.66,0,0,0-4.45,3l-3.7-5.47a20.14,20.14,0,0,1,6.22-3.85,28.63,28.63,0,0,1,7.71-1.88c5-.5,8.89.29,11.81,2.4s4.62,5.61,5.12,10.52l2,19.9ZM251,374a16.13,16.13,0,0,1-6.81-.62,10.33,10.33,0,0,1-4.78-3.18,9.18,9.18,0,0,1-2.1-5.08,10,10,0,0,1,.84-5.29,9.27,9.27,0,0,1,4.12-4.08,21.38,21.38,0,0,1,8.12-2.18l9.86-1,.54,5.27-9.28.95q-4,.4-5.31,1.86a4.24,4.24,0,0,0-1.09,3.42,4,4,0,0,0,2.06,3.19,8,8,0,0,0,4.89.79,10.45,10.45,0,0,0,5.11-1.87,7.9,7.9,0,0,0,3-4.29l1.76,4.64a8.89,8.89,0,0,1-3.6,5.05A15.17,15.17,0,0,1,251,374Z"/><path class="cls-2" d="M293.43,369.69a29.8,29.8,0,0,1-8.31-.27,22.27,22.27,0,0,1-6.51-2.07l2.44-6.35a21,21,0,0,0,5.71,1.83,23.36,23.36,0,0,0,6.51.26,11.2,11.2,0,0,0,5.28-1.53,3,3,0,0,0,1.4-2.87,2.36,2.36,0,0,0-1.36-2,8.7,8.7,0,0,0-3.1-.8c-1.25-.13-2.64-.23-4.17-.29s-3.06-.19-4.6-.39a15.56,15.56,0,0,1-4.26-1.18,8.46,8.46,0,0,1-3.28-2.52,8.78,8.78,0,0,1-1.63-4.65,8.89,8.89,0,0,1,1.27-5.75,12,12,0,0,1,4.81-4.25,21.23,21.23,0,0,1,7.77-2.14,31.44,31.44,0,0,1,7,.09,20.43,20.43,0,0,1,6.11,1.59l-2.5,6.36a16.53,16.53,0,0,0-5-1.45,23.44,23.44,0,0,0-4.95,0,10.87,10.87,0,0,0-5.23,1.6,3.11,3.11,0,0,0-1.51,2.88,2.58,2.58,0,0,0,1.38,2.17,8.91,8.91,0,0,0,3.11.87c1.25.16,2.65.27,4.18.35s3.05.22,4.57.43a18,18,0,0,1,4.26,1.11,8,8,0,0,1,3.3,2.46,8.44,8.44,0,0,1,1.61,4.52,8.56,8.56,0,0,1-1.3,5.75,12.3,12.3,0,0,1-4.91,4.17A22.91,22.91,0,0,1,293.43,369.69Z"/><path class="cls-2" d="M340.08,324.53a5,5,0,0,1-3.8-1,4.66,4.66,0,0,1-1.78-3.28,4.5,4.5,0,0,1,1.1-3.46,5,5,0,0,1,3.51-1.77,5.26,5.26,0,0,1,3.79.93,4.35,4.35,0,0,1,1.77,3.19,4.78,4.78,0,0,1-1.05,3.61A4.94,4.94,0,0,1,340.08,324.53Zm.1,39.94-3.47-34,7.89-.8,3.46,33.95Z"/><path class="cls-2" d="M377.73,325.89a16.08,16.08,0,0,1,7.44.84,12,12,0,0,1,5.53,4.39,17.1,17.1,0,0,1,2.73,8.26l2,19.46-7.95.81-1.88-18.44c-.3-3-1.23-5.18-2.78-6.53a7.88,7.88,0,0,0-6.21-1.61,10.49,10.49,0,0,0-4.84,1.65,7.92,7.92,0,0,0-3,3.74,12.25,12.25,0,0,0-.59,5.81l1.75,17.17-7.89.8-3.46-33.95,7.57-.77.94,9.22L365.46,334a11.94,11.94,0,0,1,4.6-5.54A16.76,16.76,0,0,1,377.73,325.89Z"/><path class="cls-2" d="M401.72,330.57l-.65-6.36,22.63-2.31.65,6.36Zm8.39,26.77-3.66-35.8a11.85,11.85,0,0,1,2.27-8.93q2.82-3.53,8.67-4.13a17.36,17.36,0,0,1,4,0,8.51,8.51,0,0,1,3.29,1.08l-1.63,6.14a7.81,7.81,0,0,0-4.45-.9,4.91,4.91,0,0,0-3.62,1.75,5.8,5.8,0,0,0-.86,4.17l.41,3.94.55,3.48L418,356.53ZM432.8,355,428,307.85l7.88-.81,4.81,47.18Z"/><path class="cls-2" d="M469,351.77a17.11,17.11,0,0,1-7.8-.84,11.85,11.85,0,0,1-5.68-4.43,17.14,17.14,0,0,1-2.74-8.23l-2-19.39,8-.82,1.88,18.37q.46,4.51,2.79,6.56a7.65,7.65,0,0,0,6.08,1.66,10.15,10.15,0,0,0,4.77-1.64,7.74,7.74,0,0,0,2.9-3.77,12.7,12.7,0,0,0,.56-5.77l-1.75-17.17,7.95-.81,3.46,33.95-7.56.77L479,341l1.62,2.73a11.93,11.93,0,0,1-4.51,5.53A15,15,0,0,1,469,351.77Z"/><path class="cls-2" d="M517.4,346.84a20.94,20.94,0,0,1-10.12-1.25,16.58,16.58,0,0,1-7.18-5.5,17.35,17.35,0,0,1-3.23-8.76,17.72,17.72,0,0,1,1.33-9.23,16.65,16.65,0,0,1,5.6-6.8,18.22,18.22,0,0,1,8.83-3.18,17.66,17.66,0,0,1,9.06,1.29,16,16,0,0,1,6.73,5.51A18.87,18.87,0,0,1,531.6,328c0,.3.06.67.08,1.12s0,.84,0,1.18l-28.29,2.89-.54-5.28L527,325.5l-3,2a10,10,0,0,0-1.69-5,9,9,0,0,0-3.76-3.14,10.22,10.22,0,0,0-5.22-.73,10.59,10.59,0,0,0-5,1.77,8.45,8.45,0,0,0-3.1,3.88,11.24,11.24,0,0,0-.67,5.4l.13,1.27a10.63,10.63,0,0,0,1.92,5.26,9.31,9.31,0,0,0,4.28,3.26,12.8,12.8,0,0,0,6,.7,13.31,13.31,0,0,0,5.05-1.48,12.08,12.08,0,0,0,3.78-3.21l4.83,4.52a15.37,15.37,0,0,1-5.4,4.66A21.28,21.28,0,0,1,517.4,346.84Zm-17.53-37.66,7.7-9.58,7.11-.73,9.48,7.84-6.49.66L508.22,301l6.1-.63-8,8.2Z"/><path class="cls-2" d="M560.18,307.27a16.14,16.14,0,0,1,7.45.84,12,12,0,0,1,5.52,4.39,17.1,17.1,0,0,1,2.74,8.26l2,19.45-7.94.81L568,322.59c-.3-3-1.23-5.18-2.78-6.53a7.83,7.83,0,0,0-6.2-1.61,10.53,10.53,0,0,0-4.85,1.65,7.92,7.92,0,0,0-3,3.74,12.25,12.25,0,0,0-.59,5.81l1.75,17.17-7.88.8L541,309.67l7.57-.77.94,9.22-1.63-2.73a11.9,11.9,0,0,1,4.61-5.54A16.68,16.68,0,0,1,560.18,307.27Z"/><path class="cls-2" d="M607.16,337.67a19.63,19.63,0,0,1-9.73-1.28,16.87,16.87,0,0,1-7.15-5.5,18.55,18.55,0,0,1-1.84-18,17,17,0,0,1,5.89-6.8,19.75,19.75,0,0,1,9.27-3.22,18.31,18.31,0,0,1,8.92,1.14,13.25,13.25,0,0,1,6.33,5.33l-5.68,4.18a10.16,10.16,0,0,0-4.08-3.15,9.76,9.76,0,0,0-4.85-.69,10.68,10.68,0,0,0-5.15,1.84,9.41,9.41,0,0,0-3.31,4.06,11.37,11.37,0,0,0-.76,5.76,11.61,11.61,0,0,0,1.91,5.52,9.39,9.39,0,0,0,4.07,3.35,10.74,10.74,0,0,0,5.41.76,9.8,9.8,0,0,0,4.61-1.66,10,10,0,0,0,3.36-4l6.4,2.94a13.4,13.4,0,0,1-5.12,6.47A18,18,0,0,1,607.16,337.67Z"/><path class="cls-2" d="M631.62,294.77a5,5,0,0,1-3.8-1,4.68,4.68,0,0,1-1.78-3.29,4.49,4.49,0,0,1,1.1-3.45,5,5,0,0,1,3.51-1.77,5.26,5.26,0,0,1,3.79.93,4.33,4.33,0,0,1,1.77,3.19,4.78,4.78,0,0,1-1.05,3.61A4.9,4.9,0,0,1,631.62,294.77Zm.1,40-3.47-34,7.89-.8,3.46,33.94Z"/><path class="cls-2" d="M674.44,330.36l-.71-6.93-.52-1.36-1.23-12a7,7,0,0,0-2.69-5.21c-1.55-1.15-3.76-1.58-6.65-1.28A17.92,17.92,0,0,0,657.2,305a14.85,14.85,0,0,0-4.45,3l-3.7-5.47a19.93,19.93,0,0,1,6.22-3.84,27.9,27.9,0,0,1,7.71-1.88q7.44-.76,11.81,2.39t5.12,10.52l2,19.9Zm-10.64,1.53a16,16,0,0,1-6.81-.62,10.31,10.31,0,0,1-4.78-3.17,9.24,9.24,0,0,1-2.1-5.09,10,10,0,0,1,.84-5.29,9.32,9.32,0,0,1,4.12-4.08,21.21,21.21,0,0,1,8.12-2.17l9.86-1,.54,5.28-9.29.94c-2.67.28-4.43.9-5.3,1.86a4.26,4.26,0,0,0-1.09,3.42,4,4,0,0,0,2.06,3.2,7.88,7.88,0,0,0,4.89.78,10.35,10.35,0,0,0,5.11-1.87,7.9,7.9,0,0,0,3-4.29l1.76,4.64a8.94,8.94,0,0,1-3.59,5.06A15.24,15.24,0,0,1,663.8,331.89Z"/><path class="cls-2" d="M706.2,327.57a29.8,29.8,0,0,1-8.31-.28,22.27,22.27,0,0,1-6.51-2.07l2.44-6.35a21,21,0,0,0,5.71,1.83A23,23,0,0,0,706,321a11.07,11.07,0,0,0,5.28-1.54,3.05,3.05,0,0,0,1.41-2.87,2.39,2.39,0,0,0-1.37-2,8.9,8.9,0,0,0-3.1-.81c-1.25-.13-2.64-.22-4.17-.28s-3.06-.19-4.6-.4a15.91,15.91,0,0,1-4.26-1.17,8.49,8.49,0,0,1-3.28-2.53,8.72,8.72,0,0,1-1.63-4.65A8.86,8.86,0,0,1,691.6,299a11.93,11.93,0,0,1,4.8-4.24,21.42,21.42,0,0,1,7.77-2.15,31.44,31.44,0,0,1,7,.09,20.13,20.13,0,0,1,6.11,1.6l-2.5,6.35a16.23,16.23,0,0,0-5-1.44,22.79,22.79,0,0,0-5,0,10.77,10.77,0,0,0-5.23,1.59A3.11,3.11,0,0,0,698,303.6a2.61,2.61,0,0,0,1.38,2.18,8.91,8.91,0,0,0,3.11.87c1.25.15,2.65.26,4.18.34s3,.23,4.57.44a17.52,17.52,0,0,1,4.26,1.1,8,8,0,0,1,3.3,2.46,9.56,9.56,0,0,1,.31,10.28,12.29,12.29,0,0,1-4.91,4.16A23.12,23.12,0,0,1,706.2,327.57Z"/><path class="cls-2" d="M768.89,321.17a20.82,20.82,0,0,1-10.12-1.25,16.58,16.58,0,0,1-7.18-5.5,17.42,17.42,0,0,1-3.24-8.76,17.78,17.78,0,0,1,1.34-9.22,16.52,16.52,0,0,1,5.6-6.8,18,18,0,0,1,8.83-3.18,17.66,17.66,0,0,1,9.06,1.29,15.82,15.82,0,0,1,6.73,5.51,18.8,18.8,0,0,1,3.18,9.12c0,.29.06.66.08,1.11s0,.84,0,1.19l-28.29,2.88-.54-5.27,24.09-2.46-3,2a10.11,10.11,0,0,0-1.69-5,9,9,0,0,0-3.76-3.15,10.12,10.12,0,0,0-5.22-.72,10.48,10.48,0,0,0-5,1.76,8.5,8.5,0,0,0-3.1,3.88A11.24,11.24,0,0,0,756,304l.13,1.27a10.67,10.67,0,0,0,1.92,5.27,9.36,9.36,0,0,0,4.28,3.25,12.8,12.8,0,0,0,6,.7,13.3,13.3,0,0,0,5.05-1.47,12.25,12.25,0,0,0,3.78-3.22l4.83,4.52a15.27,15.27,0,0,1-5.4,4.66A21.09,21.09,0,0,1,768.89,321.17Z"/><path class="cls-2" d="M98,407.47a5.07,5.07,0,0,1-3.8-1,4.68,4.68,0,0,1-1.78-3.29,4.49,4.49,0,0,1,1.1-3.45A5,5,0,0,1,97,397.94a5.22,5.22,0,0,1,3.79.93,4.33,4.33,0,0,1,1.77,3.19,4.79,4.79,0,0,1-1,3.61A4.93,4.93,0,0,1,98,407.47Zm.1,39.95L94.6,413.47l7.89-.81L106,446.61Z"/><path class="cls-2" d="M135.62,408.83a16,16,0,0,1,7.45.85,12,12,0,0,1,5.52,4.38,17.24,17.24,0,0,1,2.74,8.26l2,19.46-7.95.81-1.88-18.44q-.45-4.51-2.78-6.52a7.89,7.89,0,0,0-6.21-1.62,10.49,10.49,0,0,0-4.84,1.65,7.89,7.89,0,0,0-3,3.75,12.23,12.23,0,0,0-.59,5.81l1.75,17.16-7.89.8-3.46-33.94,7.57-.77.94,9.21L123.35,417a11.92,11.92,0,0,1,4.6-5.55A17,17,0,0,1,135.62,408.83Z"/><path class="cls-2" d="M177.51,439.76a29.8,29.8,0,0,1-8.31-.28,22.28,22.28,0,0,1-6.51-2.06l2.44-6.36a20.71,20.71,0,0,0,5.71,1.83,23,23,0,0,0,6.51.27,11,11,0,0,0,5.27-1.54,3,3,0,0,0,1.41-2.87,2.38,2.38,0,0,0-1.36-2,8.9,8.9,0,0,0-3.1-.81c-1.25-.13-2.65-.22-4.17-.28s-3.06-.19-4.6-.4a15.55,15.55,0,0,1-4.26-1.17,8.39,8.39,0,0,1-3.28-2.52,8.7,8.7,0,0,1-1.63-4.65,8.93,8.93,0,0,1,1.27-5.76,12,12,0,0,1,4.81-4.24,21.42,21.42,0,0,1,7.77-2.15,32.06,32.06,0,0,1,7,.09,20.73,20.73,0,0,1,6.11,1.6l-2.5,6.36a16.06,16.06,0,0,0-5-1.45,22.79,22.79,0,0,0-4.95,0,10.73,10.73,0,0,0-5.23,1.59,3.11,3.11,0,0,0-1.51,2.89,2.59,2.59,0,0,0,1.38,2.17,8.91,8.91,0,0,0,3.11.87c1.25.15,2.65.26,4.18.34s3,.23,4.57.44a17.33,17.33,0,0,1,4.25,1.1,8,8,0,0,1,3.31,2.46,8.51,8.51,0,0,1,1.61,4.52,8.64,8.64,0,0,1-1.3,5.76,12.36,12.36,0,0,1-4.91,4.16A23.12,23.12,0,0,1,177.51,439.76Z"/><path class="cls-2" d="M204.47,449l-4.72-46.28,7.56-.77.82,8,.61,9.06,1.55,9,2.07,20.21ZM222,435.22a15.42,15.42,0,0,1-7.75-1.11,13.19,13.19,0,0,1-5.93-5.21,21.54,21.54,0,0,1-3-9.59,22.46,22.46,0,0,1,.87-10A12.64,12.64,0,0,1,211,403a15.89,15.89,0,0,1,7.5-2.66,17.91,17.91,0,0,1,9.06,1.26,15.91,15.91,0,0,1,6.75,5.48,19.86,19.86,0,0,1,1.87,18.34,15.87,15.87,0,0,1-5.51,6.69A17.92,17.92,0,0,1,222,435.22Zm-1.64-6.65a9.93,9.93,0,0,0,5-1.86,9.77,9.77,0,0,0,3.21-4.12,12.53,12.53,0,0,0-1.15-11.22,9.56,9.56,0,0,0-4-3.32,10.25,10.25,0,0,0-5.31-.77,10.13,10.13,0,0,0-4.95,1.82,9.57,9.57,0,0,0-3.25,4.06,12.55,12.55,0,0,0,1.14,11.22,9.76,9.76,0,0,0,4,3.38A10,10,0,0,0,220.37,428.57Z"/><path class="cls-2" d="M250.23,391.93a5.06,5.06,0,0,1-3.8-1,4.65,4.65,0,0,1-1.78-3.29,4.48,4.48,0,0,1,1.09-3.45,5,5,0,0,1,3.51-1.77,5.25,5.25,0,0,1,3.79.93,4.33,4.33,0,0,1,1.77,3.19,4.81,4.81,0,0,1-1,3.61A4.94,4.94,0,0,1,250.23,391.93Zm.09,39.95-3.46-33.95,7.88-.8,3.46,33.94Z"/><path class="cls-2" d="M272.19,429.65l-3.47-33.95,7.57-.77.95,9.34-1.17-2.64a10.58,10.58,0,0,1,4.24-5.73,16.77,16.77,0,0,1,7.88-2.64l.78,7.57c-.3,0-.6,0-.9,0l-.83.05a10,10,0,0,0-7,3.35q-2.42,2.88-1.86,8.22l1.67,16.4Z"/><path class="cls-2" d="M320.5,424.72l-.7-6.93-.53-1.36-1.22-12a7,7,0,0,0-2.69-5.22c-1.55-1.15-3.77-1.57-6.65-1.28a17.86,17.86,0,0,0-5.44,1.46,14.54,14.54,0,0,0-4.45,3l-3.71-5.47a20.31,20.31,0,0,1,6.23-3.85,28.45,28.45,0,0,1,7.71-1.88q7.44-.75,11.8,2.39T326,404.05l2,19.9Zm-10.63,1.53a16.13,16.13,0,0,1-6.81-.62,10.42,10.42,0,0,1-4.79-3.17,9.33,9.33,0,0,1-2.09-5.09,9.81,9.81,0,0,1,.84-5.29,9.29,9.29,0,0,1,4.11-4.08,21.49,21.49,0,0,1,8.13-2.18l9.85-1,.54,5.28-9.28,1q-4,.4-5.3,1.86a4.25,4.25,0,0,0-1.1,3.42,4,4,0,0,0,2.06,3.19,8,8,0,0,0,4.9.79,10.48,10.48,0,0,0,5.11-1.87,7.9,7.9,0,0,0,3-4.29l1.76,4.64a8.89,8.89,0,0,1-3.6,5.05A15.2,15.2,0,0,1,309.87,426.25Z"/><path class="cls-2" d="M357.36,421.4a19.69,19.69,0,0,1-9.74-1.28,16.86,16.86,0,0,1-7.14-5.51,17.27,17.27,0,0,1,4-24.82,19.75,19.75,0,0,1,9.27-3.22,18.21,18.21,0,0,1,8.92,1.14A13.13,13.13,0,0,1,369,393l-5.67,4.18a10.16,10.16,0,0,0-4.08-3.15,9.78,9.78,0,0,0-4.86-.69,10.64,10.64,0,0,0-5.14,1.84,9.41,9.41,0,0,0-3.31,4.06,11.37,11.37,0,0,0-.76,5.76,11.51,11.51,0,0,0,1.91,5.52,9.33,9.33,0,0,0,4.07,3.35,10.68,10.68,0,0,0,5.4.76,9.91,9.91,0,0,0,4.62-1.66,10.06,10.06,0,0,0,3.35-4L371,412a13.42,13.42,0,0,1-5.13,6.47A18,18,0,0,1,357.36,421.4Zm-1.88,14.33a15,15,0,0,1-3.21,0,9.7,9.7,0,0,1-2.71-.68l1-3.9a11.15,11.15,0,0,0,2.17.55,9.41,9.41,0,0,0,2.26,0,4.33,4.33,0,0,0,2.57-.91,2,2,0,0,0,.63-1.67,1.82,1.82,0,0,0-1-1.5,4.64,4.64,0,0,0-2.66-.31l-2,.2,1.05-6.72,4.25-.43-.45,3.7a6.48,6.48,0,0,1,4.35,1.39,5.3,5.3,0,0,1-.18,8A11.24,11.24,0,0,1,355.48,435.73Z"/><path class="cls-2" d="M397,417.36a19,19,0,0,1-9.48-1.31,16.83,16.83,0,0,1-7.08-5.54,17.36,17.36,0,0,1,4-24.78,19,19,0,0,1,9.06-3.21,19.25,19.25,0,0,1,9.6,1.3,16.89,16.89,0,0,1,7.05,5.48,18.78,18.78,0,0,1,1.84,18,16.71,16.71,0,0,1-5.82,6.82A19.21,19.21,0,0,1,397,417.36Zm.54-39.43a5.75,5.75,0,0,1-2.87-.38,13.75,13.75,0,0,1-2.34-1.27c-.72-.49-1.39-.91-2-1.27a3,3,0,0,0-1.84-.46,2.68,2.68,0,0,0-2.06,1.24,5,5,0,0,0-.67,2.89l-4.26.44a10.18,10.18,0,0,1,1.34-6.37,6,6,0,0,1,4.66-2.79,6.55,6.55,0,0,1,2.9.32,10.64,10.64,0,0,1,2.37,1.23,21,21,0,0,0,2,1.28,3.07,3.07,0,0,0,1.81.42,2.85,2.85,0,0,0,2.1-1.17,4.14,4.14,0,0,0,.65-2.77l4.26-.43a9.73,9.73,0,0,1-1.32,6.27A6.08,6.08,0,0,1,397.5,377.93Zm-1.23,32.69a10.42,10.42,0,0,0,5.08-1.83,9.21,9.21,0,0,0,3.21-4.12,11.83,11.83,0,0,0,.73-5.76,11.61,11.61,0,0,0-1.88-5.49,9.28,9.28,0,0,0-4-3.32,10.28,10.28,0,0,0-5.29-.78,10.15,10.15,0,0,0-5,1.83,9.48,9.48,0,0,0-3.25,4.05,11.42,11.42,0,0,0-.76,5.77,11.62,11.62,0,0,0,1.91,5.49,9.39,9.39,0,0,0,4,3.38A10.15,10.15,0,0,0,396.27,410.62Z"/><path class="cls-2" d="M442.16,412.75a20.79,20.79,0,0,1-10.11-1.25,16.47,16.47,0,0,1-7.18-5.5,17.36,17.36,0,0,1-3.24-8.76A17.68,17.68,0,0,1,423,388a16.45,16.45,0,0,1,5.6-6.8A18.09,18.09,0,0,1,437.4,378a17.91,17.91,0,0,1,9.06,1.29,16,16,0,0,1,6.73,5.52,18.8,18.8,0,0,1,3.18,9.12c0,.29.05.66.08,1.11s0,.84,0,1.19l-28.29,2.88-.54-5.27,24.1-2.46-3,2a10,10,0,0,0-1.7-5,8.89,8.89,0,0,0-3.76-3.15,10.07,10.07,0,0,0-5.21-.72,10.44,10.44,0,0,0-5,1.76,8.47,8.47,0,0,0-3.11,3.88,11.24,11.24,0,0,0-.67,5.4l.13,1.27a10.67,10.67,0,0,0,1.92,5.27,9.36,9.36,0,0,0,4.28,3.25,12.82,12.82,0,0,0,6.05.7,13.08,13.08,0,0,0,5.05-1.48,12.23,12.23,0,0,0,3.79-3.21l4.82,4.52a15.19,15.19,0,0,1-5.4,4.66A21.16,21.16,0,0,1,442.16,412.75Z"/><path class="cls-2" d="M479.8,408.91a29.85,29.85,0,0,1-8.32-.28,22.11,22.11,0,0,1-6.5-2.06l2.43-6.36a21.16,21.16,0,0,0,5.71,1.83,23,23,0,0,0,6.52.27,11.07,11.07,0,0,0,5.27-1.54,3,3,0,0,0,1.41-2.87,2.39,2.39,0,0,0-1.37-2,8.9,8.9,0,0,0-3.1-.81c-1.25-.13-2.64-.22-4.17-.28s-3.06-.19-4.6-.4a15.91,15.91,0,0,1-4.26-1.17,8.46,8.46,0,0,1-3.28-2.52,8.78,8.78,0,0,1-1.63-4.65,8.87,8.87,0,0,1,1.28-5.76,11.93,11.93,0,0,1,4.8-4.24,21.42,21.42,0,0,1,7.78-2.15,31.38,31.38,0,0,1,7,.1,20.43,20.43,0,0,1,6.11,1.59l-2.5,6.36a16,16,0,0,0-5-1.45,22.79,22.79,0,0,0-4.95,0,10.77,10.77,0,0,0-5.23,1.59,3.11,3.11,0,0,0-1.51,2.89,2.61,2.61,0,0,0,1.38,2.17,9,9,0,0,0,3.11.87c1.26.15,2.65.26,4.18.34s3.05.23,4.57.44a17.52,17.52,0,0,1,4.26,1.1,8,8,0,0,1,3.3,2.46,9.56,9.56,0,0,1,.31,10.28,12.29,12.29,0,0,1-4.91,4.16A23.13,23.13,0,0,1,479.8,408.91Z"/><path class="cls-2" d="M542.48,402.51a20.82,20.82,0,0,1-10.12-1.25,16.51,16.51,0,0,1-7.18-5.5A17.28,17.28,0,0,1,522,387a17.7,17.7,0,0,1,1.33-9.23,16.52,16.52,0,0,1,5.6-6.8,18,18,0,0,1,8.83-3.18,17.66,17.66,0,0,1,9.06,1.29,15.82,15.82,0,0,1,6.73,5.51,18.87,18.87,0,0,1,3.18,9.12c0,.29.06.67.08,1.11s0,.85,0,1.19l-28.29,2.89-.54-5.28,24.09-2.46-3,2a10,10,0,0,0-1.69-5,9,9,0,0,0-3.76-3.15,10.12,10.12,0,0,0-5.22-.72,10.48,10.48,0,0,0-5,1.76,8.5,8.5,0,0,0-3.1,3.88,11.24,11.24,0,0,0-.67,5.4l.13,1.28a10.63,10.63,0,0,0,1.92,5.26,9.38,9.38,0,0,0,4.28,3.26,13.06,13.06,0,0,0,6,.7,13.49,13.49,0,0,0,5-1.48,12.25,12.25,0,0,0,3.78-3.22l4.83,4.52a15.27,15.27,0,0,1-5.4,4.66A21.09,21.09,0,0,1,542.48,402.51Z"/><path class="cls-2" d="M583.25,370.28l-.65-6.36,22.63-2.31.65,6.36Zm20.13,26q-5.6.58-8.94-2t-3.92-8.18l-3.12-30.52,7.89-.8,3.09,30.26a5.21,5.21,0,0,0,1.65,3.62,4.71,4.71,0,0,0,3.7,1,6.63,6.63,0,0,0,4.18-1.84l2.86,5.43a10,10,0,0,1-3.32,2.07A15.14,15.14,0,0,1,603.38,396.29Z"/><path class="cls-2" d="M621.07,394l-3.47-34,7.57-.77,1,9.35L625,366a10.67,10.67,0,0,1,4.24-5.73,16.66,16.66,0,0,1,7.89-2.63l.77,7.56q-.45,0-.9,0a7,7,0,0,0-.83,0,10,10,0,0,0-7,3.34q-2.42,2.88-1.86,8.22L629,393.24Z"/><path class="cls-2" d="M669.38,389.11l-.7-6.93-.53-1.36-1.22-12a7,7,0,0,0-2.69-5.21q-2.32-1.72-6.65-1.28a17.84,17.84,0,0,0-5.44,1.45,14.72,14.72,0,0,0-4.45,3L644,361.25a20.1,20.1,0,0,1,6.23-3.84,27.73,27.73,0,0,1,7.71-1.88q7.44-.76,11.8,2.39t5.12,10.52l2,19.9Zm-10.63,1.53a16.13,16.13,0,0,1-6.81-.62,10.39,10.39,0,0,1-4.79-3.17,9.3,9.3,0,0,1-2.09-5.09,9.92,9.92,0,0,1,.84-5.29,9.34,9.34,0,0,1,4.11-4.08,21.49,21.49,0,0,1,8.13-2.18l9.86-1,.53,5.28-9.28.94q-4,.42-5.3,1.86a4.27,4.27,0,0,0-1.1,3.42,4.05,4.05,0,0,0,2.06,3.2,7.91,7.91,0,0,0,4.9.78,10.39,10.39,0,0,0,5.11-1.87,8,8,0,0,0,3-4.29l1.76,4.64a8.85,8.85,0,0,1-3.6,5.05A15.1,15.1,0,0,1,658.75,390.64Z"/><path class="cls-2" d="M706.31,350.59a16,16,0,0,1,7.44.85,11.93,11.93,0,0,1,5.52,4.38,17.14,17.14,0,0,1,2.74,8.26l2,19.46-7.94.81-1.89-18.44q-.45-4.52-2.78-6.52a7.87,7.87,0,0,0-6.2-1.62,10.53,10.53,0,0,0-4.85,1.65,7.92,7.92,0,0,0-3,3.74,12.25,12.25,0,0,0-.59,5.81l1.75,17.17-7.88.8L687.15,353l7.57-.77.94,9.22L694,358.72a11.88,11.88,0,0,1,4.61-5.55A16.68,16.68,0,0,1,706.31,350.59Z"/><path class="cls-2" d="M748.19,381.51a29.43,29.43,0,0,1-8.31-.27,22.27,22.27,0,0,1-6.51-2.07l2.44-6.35a21,21,0,0,0,5.71,1.83,22.62,22.62,0,0,0,6.51.26,11.2,11.2,0,0,0,5.28-1.53,3.05,3.05,0,0,0,1.41-2.87,2.39,2.39,0,0,0-1.37-2,8.9,8.9,0,0,0-3.1-.81c-1.25-.13-2.64-.22-4.17-.28s-3.06-.19-4.6-.4a15.91,15.91,0,0,1-4.26-1.17,8.59,8.59,0,0,1-3.28-2.53,8.72,8.72,0,0,1-1.63-4.65,8.84,8.84,0,0,1,1.28-5.75,12,12,0,0,1,4.8-4.25,21.43,21.43,0,0,1,7.78-2.14,31.36,31.36,0,0,1,7,.09,20.13,20.13,0,0,1,6.11,1.6l-2.5,6.35a16.23,16.23,0,0,0-5-1.44,22.79,22.79,0,0,0-5,0,10.77,10.77,0,0,0-5.23,1.59,3.11,3.11,0,0,0-1.51,2.88,2.58,2.58,0,0,0,1.38,2.17,8.75,8.75,0,0,0,3.11.88c1.26.15,2.65.26,4.18.34s3,.23,4.57.43a18,18,0,0,1,4.26,1.11,8,8,0,0,1,3.3,2.46,8.56,8.56,0,0,1,1.62,4.52,8.66,8.66,0,0,1-1.31,5.76,12.29,12.29,0,0,1-4.91,4.16A22.91,22.91,0,0,1,748.19,381.51Z"/><path class="cls-2" d="M770.59,364.33l-.68-6.74,17.54-1.79.69,6.74Z"/><path class="cls-2" d="M86.6,479.2,86,472.84l22.63-2.31.65,6.36ZM95,506l-3.66-35.79a11.85,11.85,0,0,1,2.27-8.93q2.82-3.54,8.67-4.13a17.36,17.36,0,0,1,4,0,8.51,8.51,0,0,1,3.29,1.08L108,464.37a7.87,7.87,0,0,0-4.46-.9,4.91,4.91,0,0,0-3.62,1.75,5.75,5.75,0,0,0-.85,4.17l.4,3.94.55,3.48,2.89,28.35Z"/><path class="cls-2" d="M135.65,502.26a18.92,18.92,0,0,1-9.48-1.31,16.82,16.82,0,0,1-7.08-5.54,17.34,17.34,0,0,1,4-24.78,18.85,18.85,0,0,1,9-3.2,19.18,19.18,0,0,1,9.61,1.3,16.76,16.76,0,0,1,7,5.48,18.69,18.69,0,0,1,1.84,18,16.64,16.64,0,0,1-5.82,6.82A19.17,19.17,0,0,1,135.65,502.26Zm-.68-6.73a10.37,10.37,0,0,0,5.08-1.84,9.29,9.29,0,0,0,3.21-4.12,11.83,11.83,0,0,0,.72-5.76,11.61,11.61,0,0,0-1.87-5.49,9.31,9.31,0,0,0-4-3.32,10.87,10.87,0,0,0-10.3,1.05,9.57,9.57,0,0,0-3.25,4.06,11.48,11.48,0,0,0-.76,5.76,11.62,11.62,0,0,0,1.91,5.49,9.39,9.39,0,0,0,4,3.38A10.17,10.17,0,0,0,135,495.53Z"/><path class="cls-2" d="M164.91,498.83l-3.46-33.95,7.57-.77.95,9.34-1.17-2.64a10.57,10.57,0,0,1,4.23-5.73,16.77,16.77,0,0,1,7.89-2.64l.77,7.57h-.9c-.29,0-.57,0-.83.06a10,10,0,0,0-7,3.34q-2.4,2.88-1.86,8.22L172.8,498Z"/><path class="cls-2" d="M234.07,457a15.92,15.92,0,0,1,7.38.85,11.43,11.43,0,0,1,5.42,4.39,17.88,17.88,0,0,1,2.65,8.28l2,19.45-7.88.81-1.88-18.44q-.47-4.51-2.69-6.53a7.3,7.3,0,0,0-5.92-1.65,9.15,9.15,0,0,0-4.49,1.62,7.75,7.75,0,0,0-2.77,3.71,12.76,12.76,0,0,0-.54,5.75l1.76,17.22-7.88.81-1.88-18.44q-.47-4.52-2.7-6.53a7.27,7.27,0,0,0-5.91-1.65,9.15,9.15,0,0,0-4.49,1.62,7.77,7.77,0,0,0-2.77,3.72,12.7,12.7,0,0,0-.54,5.74L202.68,495l-7.89.81-3.46-33.95,7.57-.77.92,9.09-1.67-2.59a12,12,0,0,1,4.47-5.53,15.62,15.62,0,0,1,7.36-2.55,14.48,14.48,0,0,1,8.5,1.51,11.52,11.52,0,0,1,5.38,6.77l-3.17-.83a13.26,13.26,0,0,1,4.78-6.66A16.65,16.65,0,0,1,234.07,457Z"/><path class="cls-2" d="M286.08,486.46l-.7-6.93-.53-1.36-1.22-12a7,7,0,0,0-2.69-5.22c-1.55-1.15-3.77-1.57-6.65-1.28a17.84,17.84,0,0,0-5.44,1.45,14.85,14.85,0,0,0-4.45,3l-3.71-5.46a20.31,20.31,0,0,1,6.23-3.85,28.17,28.17,0,0,1,7.71-1.88q7.44-.76,11.8,2.39c2.92,2.1,4.62,5.61,5.13,10.53l2,19.9ZM275.45,488a16.13,16.13,0,0,1-6.81-.62,10.49,10.49,0,0,1-4.79-3.18,9.27,9.27,0,0,1-2.09-5.08,10,10,0,0,1,.84-5.29,9.29,9.29,0,0,1,4.11-4.08,21.3,21.3,0,0,1,8.13-2.18l9.86-1,.53,5.28-9.28,1c-2.67.27-4.43.89-5.3,1.85a4.31,4.31,0,0,0-1.1,3.42,4,4,0,0,0,2.06,3.2,7.91,7.91,0,0,0,4.9.78,10.39,10.39,0,0,0,5.11-1.87,7.87,7.87,0,0,0,3-4.29l1.76,4.64a8.91,8.91,0,0,1-3.6,5.06A15.2,15.2,0,0,1,275.45,488Z"/><path class="cls-2" d="M328.26,442.2a5,5,0,0,1-3.79-1,4.61,4.61,0,0,1-1.78-3.29,4.48,4.48,0,0,1,1.09-3.45,5,5,0,0,1,3.51-1.77,5.22,5.22,0,0,1,3.79.93,4.33,4.33,0,0,1,1.77,3.19,4.81,4.81,0,0,1-1,3.61A4.94,4.94,0,0,1,328.26,442.2Zm.1,39.95-3.47-33.95,7.89-.8,3.46,33.94Z"/><path class="cls-2" d="M360.76,479.29a29.8,29.8,0,0,1-8.31-.28,22,22,0,0,1-6.51-2.06l2.44-6.35a20.6,20.6,0,0,0,5.71,1.82,23,23,0,0,0,6.51.27,11.12,11.12,0,0,0,5.27-1.53,3,3,0,0,0,1.41-2.88,2.38,2.38,0,0,0-1.36-2,9,9,0,0,0-3.1-.81c-1.26-.13-2.65-.22-4.17-.28s-3.06-.19-4.6-.4a15.18,15.18,0,0,1-4.27-1.17,8.43,8.43,0,0,1-3.27-2.52,8.78,8.78,0,0,1-1.64-4.65,8.89,8.89,0,0,1,1.28-5.75,12.09,12.09,0,0,1,4.8-4.25,21.34,21.34,0,0,1,7.78-2.14,31.45,31.45,0,0,1,7,.09,20.28,20.28,0,0,1,6.1,1.59l-2.49,6.36a16.33,16.33,0,0,0-5-1.45,23.44,23.44,0,0,0-5,0,10.7,10.7,0,0,0-5.24,1.6,3.11,3.11,0,0,0-1.5,2.88A2.56,2.56,0,0,0,354,457.5a8.91,8.91,0,0,0,3.1.87c1.26.15,2.65.27,4.18.35s3.05.22,4.58.43a17.92,17.92,0,0,1,4.25,1.11,7.87,7.87,0,0,1,3.3,2.45,8.43,8.43,0,0,1,1.62,4.53A8.56,8.56,0,0,1,373.7,473a12.18,12.18,0,0,1-4.9,4.16A22.91,22.91,0,0,1,360.76,479.29Z"/><path class="cls-2" d="M397,475.59a29.86,29.86,0,0,1-8.32-.27,22.1,22.1,0,0,1-6.5-2.07l2.43-6.35a21.16,21.16,0,0,0,5.71,1.83,23.43,23.43,0,0,0,6.52.26,11.19,11.19,0,0,0,5.27-1.53,3.06,3.06,0,0,0,1.41-2.88,2.4,2.4,0,0,0-1.36-2,9,9,0,0,0-3.11-.81c-1.25-.12-2.64-.22-4.17-.28s-3.06-.19-4.6-.39a15.56,15.56,0,0,1-4.26-1.18,8.54,8.54,0,0,1-3.28-2.52,8.78,8.78,0,0,1-1.63-4.65,8.89,8.89,0,0,1,1.28-5.75,12,12,0,0,1,4.8-4.25A21.28,21.28,0,0,1,395,440.6a31.46,31.46,0,0,1,7,.09,20.36,20.36,0,0,1,6.1,1.59l-2.5,6.36a16.53,16.53,0,0,0-5-1.45,23.44,23.44,0,0,0-4.95,0,10.76,10.76,0,0,0-5.23,1.6,3.11,3.11,0,0,0-1.51,2.88,2.6,2.6,0,0,0,1.38,2.17,9,9,0,0,0,3.11.87c1.26.15,2.65.27,4.18.35s3.05.22,4.57.43a18,18,0,0,1,4.26,1.11,8,8,0,0,1,3.3,2.45,9.57,9.57,0,0,1,.31,10.28,12.31,12.31,0,0,1-4.91,4.17A23.07,23.07,0,0,1,397,475.59Z"/><path class="cls-2" d="M437.94,471.41a18.89,18.89,0,0,1-9.48-1.31,16.85,16.85,0,0,1-7.09-5.54,17.37,17.37,0,0,1-3.27-8.72,16.79,16.79,0,0,1,7.23-16.06,18.89,18.89,0,0,1,9.05-3.2,19.18,19.18,0,0,1,9.61,1.3,16.85,16.85,0,0,1,7.05,5.47,18.78,18.78,0,0,1,1.84,18,16.74,16.74,0,0,1-5.83,6.82A19.17,19.17,0,0,1,437.94,471.41Zm-.69-6.73a10.47,10.47,0,0,0,5.08-1.84,9.16,9.16,0,0,0,3.21-4.12,12,12,0,0,0,.73-5.76,11.61,11.61,0,0,0-1.88-5.49,9.25,9.25,0,0,0-4-3.32,10.87,10.87,0,0,0-10.3,1.05,9.48,9.48,0,0,0-3.24,4.06,11.26,11.26,0,0,0-.76,5.76,11.61,11.61,0,0,0,1.9,5.49,9.45,9.45,0,0,0,4,3.38A10.19,10.19,0,0,0,437.25,464.68Z"/><path class="cls-2" d="M503.93,429.48a16,16,0,0,1,7.44.85,11.83,11.83,0,0,1,5.52,4.38,17,17,0,0,1,2.74,8.26l2,19.45-8,.81-1.88-18.43c-.31-3-1.24-5.18-2.79-6.53a7.87,7.87,0,0,0-6.2-1.61,10.45,10.45,0,0,0-4.84,1.65,7.86,7.86,0,0,0-3,3.74,12.36,12.36,0,0,0-.6,5.81L496.12,465l-7.88.8-3.46-33.95,7.56-.77.94,9.22-1.63-2.73a12,12,0,0,1,4.61-5.54A16.72,16.72,0,0,1,503.93,429.48Z"/><path class="cls-2" d="M550.59,459.92a18.89,18.89,0,0,1-9.48-1.32,16.85,16.85,0,0,1-7.09-5.54,17.34,17.34,0,0,1,4-24.78,18.85,18.85,0,0,1,9-3.2,19.18,19.18,0,0,1,9.61,1.3,16.76,16.76,0,0,1,7,5.48,18.69,18.69,0,0,1,1.84,18,16.67,16.67,0,0,1-5.82,6.83A19.39,19.39,0,0,1,550.59,459.92Zm-.69-6.74a10.37,10.37,0,0,0,5.08-1.84,9.27,9.27,0,0,0,3.21-4.11,12,12,0,0,0,.73-5.76A11.65,11.65,0,0,0,557,436a9.38,9.38,0,0,0-4-3.32,10.95,10.95,0,0,0-10.3,1.05,9.57,9.57,0,0,0-3.25,4.06,11.48,11.48,0,0,0-.76,5.76,11.73,11.73,0,0,0,1.91,5.49,9.39,9.39,0,0,0,4,3.38A10.07,10.07,0,0,0,549.9,453.18Z"/><path class="cls-2" d="M590.38,455.86a29.8,29.8,0,0,1-8.31-.28,22.27,22.27,0,0,1-6.51-2.07l2.44-6.35a20.93,20.93,0,0,0,5.71,1.83,23,23,0,0,0,6.51.27,11.1,11.1,0,0,0,5.27-1.54,3,3,0,0,0,1.41-2.87,2.38,2.38,0,0,0-1.36-2,9,9,0,0,0-3.1-.81c-1.26-.13-2.65-.22-4.17-.28s-3.06-.19-4.6-.4a15.88,15.88,0,0,1-4.27-1.17,8,8,0,0,1-4.9-7.18,8.85,8.85,0,0,1,1.27-5.75,12.07,12.07,0,0,1,4.8-4.24,21.34,21.34,0,0,1,7.78-2.15,31.45,31.45,0,0,1,7,.09,20,20,0,0,1,6.1,1.6l-2.49,6.35a16.3,16.3,0,0,0-5-1.44,22.79,22.79,0,0,0-4.95,0,10.81,10.81,0,0,0-5.24,1.59,3.12,3.12,0,0,0-1.5,2.88,2.57,2.57,0,0,0,1.38,2.18,8.91,8.91,0,0,0,3.11.87c1.25.15,2.64.26,4.17.34s3,.23,4.58.43a17.92,17.92,0,0,1,4.25,1.11,7.89,7.89,0,0,1,3.3,2.46,8.43,8.43,0,0,1,1.62,4.52,8.6,8.6,0,0,1-1.31,5.76,12.26,12.26,0,0,1-4.9,4.16A23.12,23.12,0,0,1,590.38,455.86Z"/><path class="cls-2" d="M676.4,411.88a15.79,15.79,0,0,1,7.38.85,11.43,11.43,0,0,1,5.42,4.39,17.83,17.83,0,0,1,2.65,8.27l2,19.46-7.88.8-1.88-18.43q-.47-4.52-2.69-6.54a7.33,7.33,0,0,0-5.92-1.64,9.14,9.14,0,0,0-4.49,1.61,7.77,7.77,0,0,0-2.77,3.72,12.71,12.71,0,0,0-.54,5.74l1.76,17.23-7.88.8-1.89-18.43q-.45-4.51-2.69-6.54a7.31,7.31,0,0,0-5.91-1.64,9.24,9.24,0,0,0-4.49,1.61,7.71,7.71,0,0,0-2.77,3.72,12.71,12.71,0,0,0-.54,5.74L645,449.83l-7.89.81-3.46-33.95,7.56-.77.93,9.09-1.68-2.59a12.14,12.14,0,0,1,4.48-5.54,15.58,15.58,0,0,1,7.35-2.54,14.5,14.5,0,0,1,8.51,1.5,11.52,11.52,0,0,1,5.38,6.78l-3.17-.84a13.22,13.22,0,0,1,4.78-6.65A16.53,16.53,0,0,1,676.4,411.88Z"/><path class="cls-2" d="M728.41,441.32l-.7-6.93-.53-1.36L726,421a7,7,0,0,0-2.69-5.21q-2.32-1.73-6.65-1.28a17.84,17.84,0,0,0-5.44,1.45,14.72,14.72,0,0,0-4.45,3L703,413.46a20.31,20.31,0,0,1,6.23-3.85,28.07,28.07,0,0,1,7.71-1.87q7.44-.76,11.8,2.39t5.12,10.52l2,19.9Zm-10.63,1.53a16.13,16.13,0,0,1-6.81-.62,10.39,10.39,0,0,1-4.79-3.17,9.3,9.3,0,0,1-2.09-5.09,9.92,9.92,0,0,1,.84-5.29A9.34,9.34,0,0,1,709,424.6a21.5,21.5,0,0,1,8.13-2.17l9.85-1,.54,5.28-9.28.94c-2.67.28-4.43.9-5.3,1.86a4.27,4.27,0,0,0-1.1,3.42,4,4,0,0,0,2.06,3.19,7.85,7.85,0,0,0,4.9.79A10.39,10.39,0,0,0,724,435a8,8,0,0,0,3-4.29l1.76,4.64a8.94,8.94,0,0,1-3.6,5.06A15.2,15.2,0,0,1,717.78,442.85Z"/><path class="cls-2" d="M749.55,399.21a5,5,0,0,1-3.8-1,4.66,4.66,0,0,1-1.78-3.29,4.49,4.49,0,0,1,1.1-3.45,5,5,0,0,1,3.51-1.77,5.26,5.26,0,0,1,3.79.93,4.35,4.35,0,0,1,1.77,3.19,4.78,4.78,0,0,1-1,3.61A4.94,4.94,0,0,1,749.55,399.21Zm.1,39.94-3.47-33.95,7.88-.8,3.47,34Z"/><path class="cls-2" d="M782.05,436.29a29.5,29.5,0,0,1-8.32-.27,22.1,22.1,0,0,1-6.5-2.07l2.43-6.35a21.16,21.16,0,0,0,5.71,1.83,22.71,22.71,0,0,0,6.52.26,11.15,11.15,0,0,0,5.27-1.53,3,3,0,0,0,1.41-2.87,2.41,2.41,0,0,0-1.36-2,9.21,9.21,0,0,0-3.1-.8c-1.26-.13-2.65-.22-4.18-.28s-3.06-.19-4.6-.4a15.91,15.91,0,0,1-4.26-1.17,8.66,8.66,0,0,1-3.28-2.53,9.85,9.85,0,0,1-.35-10.4,12.16,12.16,0,0,1,4.8-4.25A21.54,21.54,0,0,1,780,401.3a31.45,31.45,0,0,1,7,.09,20.36,20.36,0,0,1,6.1,1.59l-2.5,6.36a16.23,16.23,0,0,0-5-1.44,23.45,23.45,0,0,0-5,0,10.91,10.91,0,0,0-5.23,1.6,3.1,3.1,0,0,0-1.5,2.88,2.56,2.56,0,0,0,1.38,2.17,8.84,8.84,0,0,0,3.1.88c1.26.15,2.65.26,4.18.34s3.05.22,4.57.43a18,18,0,0,1,4.26,1.11,7.89,7.89,0,0,1,3.3,2.46,8.48,8.48,0,0,1,1.62,4.52A8.66,8.66,0,0,1,795,430a12.33,12.33,0,0,1-4.9,4.16A22.91,22.91,0,0,1,782.05,436.29Z"/><path class="cls-2" d="M250.24,548.8a17.83,17.83,0,0,1-9-1.26,15.7,15.7,0,0,1-6.76-5.44,20.13,20.13,0,0,1-1.87-18.34A15.65,15.65,0,0,1,238.1,517a17.92,17.92,0,0,1,8.59-3.06,15.51,15.51,0,0,1,7.82,1.09,13.28,13.28,0,0,1,5.92,5.18,21.6,21.6,0,0,1,3,9.62,22.43,22.43,0,0,1-.91,10,12.92,12.92,0,0,1-4.66,6.28A15.67,15.67,0,0,1,250.24,548.8Zm.27-6.83a10.13,10.13,0,0,0,5-1.83,9.59,9.59,0,0,0,3.24-4.12,11.4,11.4,0,0,0,.8-5.76,11.16,11.16,0,0,0-1.94-5.49,9.9,9.9,0,0,0-4-3.32,10.22,10.22,0,0,0-5.25-.78,10.11,10.11,0,0,0-5,1.83,9.86,9.86,0,0,0-3.25,4,11.2,11.2,0,0,0-.79,5.77,11.43,11.43,0,0,0,1.94,5.49,9.85,9.85,0,0,0,4,3.38A10.19,10.19,0,0,0,250.51,542Zm11,5.23-.81-8-.73-9-1.56-9-2.16-21.1,8-.82,4.82,47.17Z"/><path class="cls-2" d="M283,505.06a5,5,0,0,1-3.8-1,4.63,4.63,0,0,1-1.78-3.28,4.52,4.52,0,0,1,1.09-3.45,5.08,5.08,0,0,1,3.52-1.78,5.23,5.23,0,0,1,3.79.94,4.33,4.33,0,0,1,1.77,3.19,4.75,4.75,0,0,1-1.05,3.6A4.94,4.94,0,0,1,283,505.06Zm.09,39.94-3.46-33.94,7.88-.81,3.47,34Z"/><path class="cls-2" d="M297.57,515.9l-.65-6.35,22.63-2.31.65,6.35ZM306,542.67l-3.65-35.79a11.88,11.88,0,0,1,2.26-8.94q2.82-3.53,8.67-4.13a17.36,17.36,0,0,1,4,0,8.46,8.46,0,0,1,3.29,1.08l-1.62,6.14a7.75,7.75,0,0,0-2.07-.75,7.12,7.12,0,0,0-2.39-.14,4.89,4.89,0,0,0-3.61,1.75,5.73,5.73,0,0,0-.86,4.16l.4,3.94.55,3.48,2.89,28.35Z"/><path class="cls-2" d="M347.32,538.9a20.82,20.82,0,0,1-10.12-1.25,16.58,16.58,0,0,1-7.18-5.5,17.35,17.35,0,0,1-3.23-8.76,17.78,17.78,0,0,1,1.33-9.22,16.62,16.62,0,0,1,5.6-6.81,18.22,18.22,0,0,1,8.83-3.18,17.66,17.66,0,0,1,9.06,1.29,15.92,15.92,0,0,1,6.73,5.52,18.8,18.8,0,0,1,3.18,9.11c0,.3.06.67.08,1.12s0,.84,0,1.18l-28.29,2.89L332.8,520l24.09-2.46-3,2a10,10,0,0,0-1.69-5,9,9,0,0,0-3.76-3.15,10.1,10.1,0,0,0-5.21-.72,10.48,10.48,0,0,0-5,1.76,8.45,8.45,0,0,0-3.1,3.88,11.24,11.24,0,0,0-.67,5.4l.13,1.27a10.67,10.67,0,0,0,1.92,5.27,9.36,9.36,0,0,0,4.28,3.25,12.8,12.8,0,0,0,6.05.7,13.31,13.31,0,0,0,5.05-1.48,12.08,12.08,0,0,0,3.78-3.21l4.83,4.52a15.37,15.37,0,0,1-5.4,4.66A21.28,21.28,0,0,1,347.32,538.9Z"/><path class="cls-2" d="M374.42,535.68,371,501.73l7.57-.77,1,9.35-1.17-2.65a10.57,10.57,0,0,1,4.24-5.73,16.58,16.58,0,0,1,7.88-2.63l.78,7.56h-.9c-.3,0-.58,0-.83.05a10,10,0,0,0-7,3.35q-2.4,2.88-1.85,8.21l1.67,16.41Z"/><path class="cls-2" d="M419.92,531.49a20.82,20.82,0,0,1-10.12-1.25,16.58,16.58,0,0,1-7.18-5.5,17.45,17.45,0,0,1-3.24-8.76,17.78,17.78,0,0,1,1.34-9.22,16.62,16.62,0,0,1,5.6-6.81,18.22,18.22,0,0,1,8.83-3.18,17.77,17.77,0,0,1,9.06,1.29,15.92,15.92,0,0,1,6.73,5.52,18.8,18.8,0,0,1,3.18,9.11c0,.3.06.67.08,1.12s0,.84,0,1.19l-28.29,2.88-.54-5.27,24.09-2.46-3,2a10.08,10.08,0,0,0-1.69-5A9,9,0,0,0,421,504a10.12,10.12,0,0,0-5.22-.72,10.48,10.48,0,0,0-5,1.76,8.45,8.45,0,0,0-3.1,3.88,11.24,11.24,0,0,0-.67,5.4l.13,1.27a10.67,10.67,0,0,0,1.92,5.27,9.36,9.36,0,0,0,4.28,3.25,12.8,12.8,0,0,0,6.05.7,13.31,13.31,0,0,0,5.05-1.48,12.08,12.08,0,0,0,3.78-3.21l4.83,4.52a15.37,15.37,0,0,1-5.4,4.66A21.28,21.28,0,0,1,419.92,531.49Z"/><path class="cls-2" d="M462.7,491.92a16,16,0,0,1,7.45.85,11.93,11.93,0,0,1,5.52,4.38,17.1,17.1,0,0,1,2.74,8.26l2,19.46-7.95.81-1.88-18.44q-.45-4.51-2.78-6.52a7.87,7.87,0,0,0-6.2-1.62,10.53,10.53,0,0,0-4.85,1.65,7.92,7.92,0,0,0-3,3.74,12.25,12.25,0,0,0-.59,5.81l1.75,17.17-7.88.8-3.47-33.95,7.57-.77.94,9.22-1.63-2.72A11.88,11.88,0,0,1,455,494.5,16.68,16.68,0,0,1,462.7,491.92Z"/><path class="cls-2" d="M486.69,496.6l-.65-6.35,22.64-2.32.64,6.36Zm20.13,26q-5.6.57-8.94-2T494,512.43l-3.11-30.51,7.88-.81,3.09,30.26a5.21,5.21,0,0,0,1.65,3.62,4.71,4.71,0,0,0,3.7,1,6.66,6.66,0,0,0,4.18-1.84l2.86,5.42a10,10,0,0,1-3.32,2.07A15.45,15.45,0,0,1,506.82,522.62Z"/><path class="cls-2" d="M539.31,519.3a20.7,20.7,0,0,1-10.12-1.25,16.43,16.43,0,0,1-7.18-5.49,17.45,17.45,0,0,1-3.24-8.76,17.82,17.82,0,0,1,1.34-9.23,16.52,16.52,0,0,1,5.6-6.8,18.12,18.12,0,0,1,8.83-3.18,17.66,17.66,0,0,1,9.06,1.29,16,16,0,0,1,6.73,5.51,18.87,18.87,0,0,1,3.18,9.12c0,.3.06.67.08,1.12s0,.84,0,1.18l-28.29,2.89-.54-5.28L548.88,498l-3,2a10,10,0,0,0-1.7-5,8.92,8.92,0,0,0-3.75-3.15,10.12,10.12,0,0,0-5.22-.72,10.58,10.58,0,0,0-5,1.76,8.48,8.48,0,0,0-3.1,3.89,11.2,11.2,0,0,0-.67,5.4l.13,1.27a10.54,10.54,0,0,0,1.92,5.26,9.33,9.33,0,0,0,4.28,3.26,12.9,12.9,0,0,0,6,.7,13.49,13.49,0,0,0,5.06-1.48,12.08,12.08,0,0,0,3.78-3.21l4.83,4.51a15.39,15.39,0,0,1-5.4,4.67A21.08,21.08,0,0,1,539.31,519.3Z"/><path class="cls-2" d="M576.94,515.46a29.8,29.8,0,0,1-8.31-.27,22.07,22.07,0,0,1-6.51-2.07l2.43-6.35a21.16,21.16,0,0,0,5.71,1.83,23.44,23.44,0,0,0,6.52.26,11.15,11.15,0,0,0,5.27-1.53,3,3,0,0,0,1.41-2.87,2.38,2.38,0,0,0-1.36-2,8.76,8.76,0,0,0-3.1-.8c-1.26-.13-2.65-.23-4.18-.29s-3.06-.19-4.6-.39a15.56,15.56,0,0,1-4.26-1.18,8.54,8.54,0,0,1-3.28-2.52,9.85,9.85,0,0,1-.35-10.4,12.09,12.09,0,0,1,4.8-4.25,21.34,21.34,0,0,1,7.78-2.14,31.45,31.45,0,0,1,7,.09,20.36,20.36,0,0,1,6.1,1.59l-2.5,6.36a16.53,16.53,0,0,0-5-1.45,23.44,23.44,0,0,0-5,0,10.91,10.91,0,0,0-5.23,1.6,3.1,3.1,0,0,0-1.5,2.88,2.56,2.56,0,0,0,1.38,2.17,8.91,8.91,0,0,0,3.1.87c1.26.15,2.65.27,4.18.35s3,.22,4.57.43a18,18,0,0,1,4.26,1.11,7.89,7.89,0,0,1,3.3,2.46,8.36,8.36,0,0,1,1.62,4.52,8.62,8.62,0,0,1-1.31,5.75,12.27,12.27,0,0,1-4.9,4.17A23.13,23.13,0,0,1,576.94,515.46Z"/><path class="cls-2" d="M623.68,510.24l-4.81-47.17,7.88-.8,4.81,47.17Z"/><path class="cls-2" d="M660.79,506.9a18.92,18.92,0,0,1-9.48-1.31,16.85,16.85,0,0,1-7.09-5.54,18.49,18.49,0,0,1-1.83-18,17.08,17.08,0,0,1,5.79-6.79,18.89,18.89,0,0,1,9.05-3.2,19.18,19.18,0,0,1,9.61,1.3,16.73,16.73,0,0,1,7,5.48,18.76,18.76,0,0,1,1.84,18,16.59,16.59,0,0,1-5.83,6.82A19.17,19.17,0,0,1,660.79,506.9Zm-.69-6.73a10.47,10.47,0,0,0,5.08-1.84,9.16,9.16,0,0,0,3.21-4.12,11.83,11.83,0,0,0,.73-5.76,11.61,11.61,0,0,0-1.88-5.49,9.25,9.25,0,0,0-4-3.32A10.85,10.85,0,0,0,653,480.69a9.57,9.57,0,0,0-3.25,4.06,11.37,11.37,0,0,0-.76,5.76,11.51,11.51,0,0,0,1.91,5.49,9.37,9.37,0,0,0,4,3.38A10.1,10.1,0,0,0,660.1,500.17Z"/><path class="cls-2" d="M705.29,502.36a18.92,18.92,0,0,1-9.48-1.31,16.93,16.93,0,0,1-7.09-5.54,17.27,17.27,0,0,1-3.26-8.72,16.76,16.76,0,0,1,7.22-16.06,19,19,0,0,1,9.05-3.21,19.4,19.4,0,0,1,9.61,1.3,16.89,16.89,0,0,1,7,5.48,18.78,18.78,0,0,1,1.84,18,16.59,16.59,0,0,1-5.83,6.82A19.17,19.17,0,0,1,705.29,502.36Zm-.69-6.74a10.36,10.36,0,0,0,5.08-1.83,9.21,9.21,0,0,0,3.21-4.12,11.83,11.83,0,0,0,.73-5.76,11.61,11.61,0,0,0-1.88-5.49,9.25,9.25,0,0,0-4-3.32,10.85,10.85,0,0,0-10.29,1,9.57,9.57,0,0,0-3.25,4.06,11.37,11.37,0,0,0-.76,5.76,11.51,11.51,0,0,0,1.91,5.49,9.37,9.37,0,0,0,4,3.38A10.2,10.2,0,0,0,704.6,495.62Z"/><path class="cls-2" d="M734.55,498.93l-4.81-47.17,7.88-.81,4.81,47.17Zm5.65-8.22-.83-10,16.06-18.22,9.54-1-13.53,16.61-3.9,4Zm20,5.6-14.09-14,4.38-6.87,19.31,19.93Z"/><path class="cls-2" d="M787.93,493.93a29.8,29.8,0,0,1-8.31-.28,22,22,0,0,1-6.51-2.06l2.44-6.35a21,21,0,0,0,5.71,1.82,23,23,0,0,0,6.51.27A11.12,11.12,0,0,0,793,485.8a3,3,0,0,0,1.41-2.88,2.38,2.38,0,0,0-1.36-2,9,9,0,0,0-3.1-.81c-1.26-.13-2.65-.22-4.17-.28s-3.06-.19-4.6-.4a15.27,15.27,0,0,1-4.27-1.17,8.43,8.43,0,0,1-3.27-2.52,8.7,8.7,0,0,1-1.63-4.65,8.89,8.89,0,0,1,1.27-5.75,12,12,0,0,1,4.8-4.25,21.54,21.54,0,0,1,7.78-2.15,32.07,32.07,0,0,1,7,.1,20.43,20.43,0,0,1,6.11,1.59l-2.5,6.36a16.06,16.06,0,0,0-5-1.45,23.44,23.44,0,0,0-5,0,10.81,10.81,0,0,0-5.24,1.59,3.13,3.13,0,0,0-1.5,2.89,2.57,2.57,0,0,0,1.38,2.17,8.91,8.91,0,0,0,3.11.87c1.25.15,2.65.26,4.17.34s3.06.23,4.58.44a18.27,18.27,0,0,1,4.25,1.1,8.07,8.07,0,0,1,3.31,2.46,8.51,8.51,0,0,1,1.61,4.53,8.61,8.61,0,0,1-1.3,5.75,12.28,12.28,0,0,1-4.91,4.16A23.12,23.12,0,0,1,787.93,493.93Z"/><path class="cls-2" d="M440.12,587.21l-.71-6.93-.52-1.36-1.23-12a7,7,0,0,0-2.68-5.22c-1.56-1.15-3.77-1.58-6.65-1.28a17.77,17.77,0,0,0-5.44,1.45,14.6,14.6,0,0,0-4.45,3l-3.71-5.47a20.24,20.24,0,0,1,6.22-3.84,28.26,28.26,0,0,1,7.71-1.88q7.44-.76,11.81,2.39t5.12,10.53l2,19.9Zm-10.64,1.54a15.9,15.9,0,0,1-6.8-.63,10.29,10.29,0,0,1-4.79-3.17,9.16,9.16,0,0,1-2.09-5.09,9.79,9.79,0,0,1,.84-5.28,9.19,9.19,0,0,1,4.11-4.08,21.2,21.2,0,0,1,8.13-2.18l9.85-1,.54,5.28-9.28.95q-4,.4-5.31,1.85a4.3,4.3,0,0,0-1.09,3.42,4,4,0,0,0,2.06,3.2,7.9,7.9,0,0,0,4.9.78,10.39,10.39,0,0,0,5.11-1.87,7.94,7.94,0,0,0,3-4.29l1.76,4.64a8.94,8.94,0,0,1-3.59,5.06A15.31,15.31,0,0,1,429.48,588.75Z"/><path class="cls-2" d="M475.7,584a17.32,17.32,0,0,1-7.79-.84,11.94,11.94,0,0,1-5.69-4.43,17.14,17.14,0,0,1-2.74-8.24l-2-19.38,8-.82,1.87,18.37q.47,4.51,2.79,6.56a7.66,7.66,0,0,0,6.08,1.66,10.09,10.09,0,0,0,4.78-1.65,7.76,7.76,0,0,0,2.89-3.76,12.62,12.62,0,0,0,.57-5.78l-1.76-17.16,7.95-.81,3.47,34-7.57.77-.94-9.22,1.63,2.72a12.07,12.07,0,0,1-4.51,5.54A15.19,15.19,0,0,1,475.7,584Z"/><path class="cls-2" d="M500.77,553.4l-.65-6.36,22.64-2.31.65,6.36Zm20.13,26q-5.6.57-8.94-2T508,569.23l-3.11-30.51,7.88-.81,3.09,30.26a5.21,5.21,0,0,0,1.65,3.62,4.67,4.67,0,0,0,3.7,1,6.61,6.61,0,0,0,4.18-1.84l2.87,5.43a10.12,10.12,0,0,1-3.33,2.07A15.45,15.45,0,0,1,520.9,579.42Z"/><path class="cls-2" d="M553.39,576.1a20.7,20.7,0,0,1-10.12-1.25,16.51,16.51,0,0,1-7.18-5.5,17.28,17.28,0,0,1-3.23-8.75,17.82,17.82,0,0,1,1.33-9.23,16.47,16.47,0,0,1,5.61-6.8,18,18,0,0,1,8.82-3.18,17.66,17.66,0,0,1,9.06,1.29,15.89,15.89,0,0,1,6.73,5.51,18.87,18.87,0,0,1,3.18,9.12c0,.29.06.67.08,1.11s0,.85,0,1.19l-28.29,2.89-.54-5.28L563,554.76l-3,2a10,10,0,0,0-1.69-5,9,9,0,0,0-3.76-3.15,10.1,10.1,0,0,0-5.21-.72,10.48,10.48,0,0,0-5,1.76,8.5,8.5,0,0,0-3.1,3.88,11.24,11.24,0,0,0-.67,5.4l.13,1.28a10.63,10.63,0,0,0,1.92,5.26,9.38,9.38,0,0,0,4.28,3.26,12.93,12.93,0,0,0,6,.7,13.49,13.49,0,0,0,5.05-1.48,12.11,12.11,0,0,0,3.78-3.22l4.83,4.52a15.27,15.27,0,0,1-5.4,4.66A21.09,21.09,0,0,1,553.39,576.1Zm-17.53-37.65,7.7-9.59,7.12-.72,9.47,7.83-6.49.66-9.45-6.42,6.1-.62-8,8.2Z"/><path class="cls-2" d="M596.18,536.53a16.12,16.12,0,0,1,7.44.85,12.05,12.05,0,0,1,5.52,4.38,17.14,17.14,0,0,1,2.74,8.27l2,19.45-7.94.81L604,551.85c-.3-3-1.23-5.18-2.78-6.52a7.83,7.83,0,0,0-6.2-1.61,10.64,10.64,0,0,0-4.85,1.64,7.89,7.89,0,0,0-3,3.75,12.23,12.23,0,0,0-.59,5.81l1.75,17.16-7.88.81L577,538.94l7.57-.77.94,9.21-1.63-2.72a11.94,11.94,0,0,1,4.61-5.55A16.92,16.92,0,0,1,596.18,536.53Z"/><path class="cls-2" d="M620.16,541.22l-.65-6.36,22.64-2.31.64,6.35Zm20.13,26q-5.6.57-8.94-2t-3.92-8.17l-3.11-30.52,7.88-.8L635.29,556a5.21,5.21,0,0,0,1.65,3.62,4.71,4.71,0,0,0,3.7,1,6.66,6.66,0,0,0,4.18-1.84l2.87,5.42a10,10,0,0,1-3.33,2.08A15,15,0,0,1,640.29,567.23Z"/><path class="cls-2" d="M657.89,525a5.06,5.06,0,0,1-3.8-1,4.65,4.65,0,0,1-1.78-3.29,4.48,4.48,0,0,1,1.09-3.45,5,5,0,0,1,3.51-1.77,5.25,5.25,0,0,1,3.79.93,4.3,4.3,0,0,1,1.77,3.19,4.81,4.81,0,0,1-1,3.61A5,5,0,0,1,657.89,525Zm.09,40-3.46-34,7.88-.81,3.46,33.95Z"/><path class="cls-2" d="M695.41,561.61a19.8,19.8,0,0,1-9.74-1.29,16.84,16.84,0,0,1-7.14-5.5,18.54,18.54,0,0,1-1.84-18,16.75,16.75,0,0,1,5.89-6.8,19.65,19.65,0,0,1,9.27-3.23,18.45,18.45,0,0,1,8.92,1.14,13.18,13.18,0,0,1,6.32,5.33l-5.67,4.18a10.34,10.34,0,0,0-4.08-3.15,10,10,0,0,0-4.86-.69,10.74,10.74,0,0,0-5.14,1.84,9.41,9.41,0,0,0-3.31,4.06,11.37,11.37,0,0,0-.76,5.76,11.51,11.51,0,0,0,1.91,5.53,9.31,9.31,0,0,0,4.07,3.34,10.72,10.72,0,0,0,5.41.76,9.8,9.8,0,0,0,4.61-1.66,10,10,0,0,0,3.35-4l6.41,3a13.38,13.38,0,0,1-5.13,6.46A18.1,18.1,0,0,1,695.41,561.61Z"/><path class="cls-2" d="M735,557.56a18.92,18.92,0,0,1-9.48-1.31,16.76,16.76,0,0,1-7.08-5.54,17.36,17.36,0,0,1,3.95-24.78,18.89,18.89,0,0,1,9.06-3.2,19.14,19.14,0,0,1,9.6,1.3,16.73,16.73,0,0,1,7.05,5.48,18.76,18.76,0,0,1,1.84,18,16.64,16.64,0,0,1-5.82,6.82A19.21,19.21,0,0,1,735,557.56Zm-.69-6.73A10.33,10.33,0,0,0,739.4,549a9.16,9.16,0,0,0,3.21-4.12,11.83,11.83,0,0,0,.73-5.76,11.61,11.61,0,0,0-1.88-5.49,9.28,9.28,0,0,0-4-3.32,10.87,10.87,0,0,0-10.3,1.05,9.57,9.57,0,0,0-3.25,4.06,11.37,11.37,0,0,0-.76,5.76,11.62,11.62,0,0,0,1.91,5.49,9.43,9.43,0,0,0,4,3.38A10.1,10.1,0,0,0,734.32,550.83Z"/><path class="cls-2" d="M774.81,553.5a29.87,29.87,0,0,1-8.32-.27,22.1,22.1,0,0,1-6.5-2.07l2.43-6.35a21.16,21.16,0,0,0,5.71,1.83,23.05,23.05,0,0,0,6.52.26,11.15,11.15,0,0,0,5.27-1.53,3.05,3.05,0,0,0,1.41-2.87,2.4,2.4,0,0,0-1.36-2,8.82,8.82,0,0,0-3.11-.8c-1.25-.13-2.64-.23-4.17-.29s-3.06-.19-4.6-.39a15.91,15.91,0,0,1-4.26-1.17,8.66,8.66,0,0,1-3.28-2.53,9.85,9.85,0,0,1-.35-10.4,12,12,0,0,1,4.8-4.25,21.48,21.48,0,0,1,7.78-2.14,31.46,31.46,0,0,1,7,.09,20.36,20.36,0,0,1,6.1,1.59l-2.5,6.36a16.53,16.53,0,0,0-5-1.45,23.44,23.44,0,0,0-5,0,10.91,10.91,0,0,0-5.23,1.6,3.08,3.08,0,0,0-1.5,2.88,2.57,2.57,0,0,0,1.37,2.17,9.18,9.18,0,0,0,3.11.88c1.26.15,2.65.26,4.18.34s3.05.22,4.57.43a18,18,0,0,1,4.26,1.11,8,8,0,0,1,3.3,2.46,9.55,9.55,0,0,1,.31,10.27,12.24,12.24,0,0,1-4.91,4.17A22.85,22.85,0,0,1,774.81,553.5Z"/><path class="cls-2" d="M803.1,550.62a5.19,5.19,0,0,1-5.82-4.81,5,5,0,0,1,1.14-3.93,5.33,5.33,0,0,1,3.6-1.82,5.15,5.15,0,0,1,3.77,1.06,5,5,0,0,1,1.91,3.63,5.19,5.19,0,0,1-1.13,4A5.07,5.07,0,0,1,803.1,550.62Z"/><g id="E_QUER_SABER" data-name="E QUER SABER"><path d="M81.34,187l31-3.14,1.32,13-47.49,4.81-6-59.26,46.39-4.7,1.32,13L78,153.8Zm-3.55-23.16L105.31,161l1.26,12.45-27.52,2.78Z"/><path d="M177.59,191.6a37.13,37.13,0,0,1-13.31-1,30.45,30.45,0,0,1-19-14.54,31.48,31.48,0,0,1-2.49-24.51,30.53,30.53,0,0,1,15.71-18,38.94,38.94,0,0,1,26.2-2.66,31.9,31.9,0,0,1,11.11,5.38,29.36,29.36,0,0,1,7.88,9,32.35,32.35,0,0,1,2.5,24.67,29.22,29.22,0,0,1-5.9,10.48,31.83,31.83,0,0,1-9.81,7.49A36.79,36.79,0,0,1,177.59,191.6Zm-1.4-13.89a16.45,16.45,0,0,0,6.18-1.82A14.57,14.57,0,0,0,187.1,172a16.26,16.26,0,0,0,2.85-5.72,20.37,20.37,0,0,0-1.41-13.88,16.22,16.22,0,0,0-3.93-5,14.58,14.58,0,0,0-5.43-2.91,17.39,17.39,0,0,0-12.61,1.28,15,15,0,0,0-4.78,3.94,15.6,15.6,0,0,0-2.84,5.72,19.48,19.48,0,0,0-.48,7.06,19.73,19.73,0,0,0,1.89,6.83,15.45,15.45,0,0,0,3.93,5,15.13,15.13,0,0,0,5.47,2.91A16.75,16.75,0,0,0,176.19,177.71Zm22.12,25a31.14,31.14,0,0,1-7.24-.08,25.18,25.18,0,0,1-6.74-1.93,39.27,39.27,0,0,1-7-4.16q-3.75-2.7-8.43-6.76l17.08-6.18a41.49,41.49,0,0,0,4.31,4.57,10.43,10.43,0,0,0,3.6,2.2,8.82,8.82,0,0,0,3.59.37q4.91-.51,8.54-5.15l8.17,8.07Q208.81,201.69,198.31,202.76Z"/><path d="M246.67,184.6q-13.12,1.34-21.17-5.12t-9.38-19.58L212.78,127l16.76-1.7,3.29,32.42q.76,7.55,4.06,10.54a10.53,10.53,0,0,0,8.54,2.47,10.39,10.39,0,0,0,7.84-4.13q2.58-3.6,1.82-11.13L251.81,123l16.59-1.68,3.34,32.93q1.32,13.11-5.35,21.06T246.67,184.6Z"/><path d="M301,164.73l31-3.14,1.32,13-47.49,4.81-6-59.26,46.39-4.7,1.32,13-29.88,3Zm-3.54-23.16L325,138.78l1.26,12.44L298.74,154Z"/><path d="M342.72,173.67l-6-59.26,27-2.73a34.66,34.66,0,0,1,14.32,1.2,20.32,20.32,0,0,1,9.87,6.65,21.24,21.24,0,0,1,4.35,11.32,20.84,20.84,0,0,1-2,12,20.3,20.3,0,0,1-8.35,8.33,35.17,35.17,0,0,1-13.79,4L350.35,157l6.82-7.87L359.48,172Zm14.64-22.6L349,144l16.76-1.7q5.25-.53,7.64-3.08a9.07,9.07,0,0,0-1.29-12.74c-1.9-1.38-4.61-1.89-8.1-1.53l-16.77,1.7,6.76-8.47ZM379.29,170l-16.91-20.1,17.86-1.81,17,20.09Z"/><path d="M450.86,163.92a54.74,54.74,0,0,1-14.28-.39A36.56,36.56,0,0,1,425.24,160l4.24-13a39.18,39.18,0,0,0,9.61,3.26,34.21,34.21,0,0,0,10.53.6,21.09,21.09,0,0,0,5.57-1.16,6.21,6.21,0,0,0,2.88-2,3.9,3.9,0,0,0,.71-2.73,3.52,3.52,0,0,0-2.18-2.9,18.81,18.81,0,0,0-5.06-1.45q-3.09-.49-6.68-.87a66.05,66.05,0,0,1-7.34-1.17,27.55,27.55,0,0,1-6.92-2.47,15.17,15.17,0,0,1-5.3-4.59,15.53,15.53,0,0,1-2.62-7.69,17,17,0,0,1,1.91-9.86,20.1,20.1,0,0,1,8-7.83,35.66,35.66,0,0,1,14.29-4.09,50.07,50.07,0,0,1,11.61.15,33.69,33.69,0,0,1,10.34,2.93L465,118a36.55,36.55,0,0,0-8.74-2.62,31.31,31.31,0,0,0-8.15-.29,17.08,17.08,0,0,0-5.51,1.33,6.66,6.66,0,0,0-2.85,2.25,4.11,4.11,0,0,0-.68,2.64,3.59,3.59,0,0,0,2.19,3,17.2,17.2,0,0,0,5,1.37c2,.28,4.26.55,6.71.81a72,72,0,0,1,7.35,1.19,28.33,28.33,0,0,1,6.87,2.38,15.14,15.14,0,0,1,5.37,4.5,14.83,14.83,0,0,1,2.65,7.56,16.8,16.8,0,0,1-2,9.82,20.15,20.15,0,0,1-8.05,7.87Q459.66,163,450.86,163.92Z"/><path d="M477.58,160,497.73,98.1l16.51-1.67L546.49,153l-17.44,1.77-25.66-49,6.6-.67-15.31,53.12Zm13.13-13,3.07-12.72,29-2.93,5.56,11.84Z"/><path d="M551.31,152.55l-6-59.26,30.14-3.06q11.76-1.19,18,2.54a13.46,13.46,0,0,1,6.89,10.6,14,14,0,0,1-1.56,8.28,15.68,15.68,0,0,1-6.22,6.1,25.44,25.44,0,0,1-10.13,3l1.19-4.23a28.94,28.94,0,0,1,11.07.8,16.17,16.17,0,0,1,7.85,4.81,14.77,14.77,0,0,1,3.46,8.46,13.77,13.77,0,0,1-5,12.56q-5.79,4.95-17.81,6.17Zm15.28-13.78,14.06-1.43q4.4-.43,6.45-2.15a5.79,5.79,0,0,0-.92-9.06c-1.57-.83-3.82-1.11-6.75-.81l-15.24,1.54L563,115.27,575.71,114c2.83-.28,4.89-1,6.21-2.08a5.46,5.46,0,0,0-.87-8.59q-2.26-1.19-6.49-.76L563,103.72Z"/><path d="M631.6,131.24l31-3.14,1.32,13L616.41,146l-6-59.26L656.8,82l1.32,13-29.88,3Zm-3.54-23.16,27.51-2.79,1.26,12.45-27.51,2.79Z"/><path d="M673.3,140.19l-6-59.26,27-2.74a34.61,34.61,0,0,1,14.31,1.2,20.27,20.27,0,0,1,9.87,6.66,21.29,21.29,0,0,1,4.36,11.32,20.91,20.91,0,0,1-2,12,20.3,20.3,0,0,1-8.35,8.33,35.17,35.17,0,0,1-13.79,4l-17.78,1.8,6.82-7.88,2.31,22.86ZM688,117.58l-8.33-7,16.76-1.69q5.25-.54,7.65-3.09A9.08,9.08,0,0,0,702.73,93q-2.85-2.06-8.1-1.53l-16.77,1.7,6.76-8.47Zm21.92,18.9L693,116.39l17.86-1.81,17,20.09Z"/><path d="M745.27,111.09a12.8,12.8,0,0,1,.4-5,16.78,16.78,0,0,1,1.85-4.08,25.12,25.12,0,0,1,2.6-3.47l2.65-3a14.11,14.11,0,0,0,2-2.89,5.4,5.4,0,0,0,.59-3,4.63,4.63,0,0,0-2.47-3.73,9.11,9.11,0,0,0-5.53-.93,11.85,11.85,0,0,0-6,2.23,12.47,12.47,0,0,0-4,4.85l-13.29-5.41a25,25,0,0,1,8.64-10.07q5.84-4.06,15.32-5a33.57,33.57,0,0,1,11.69.66,17.66,17.66,0,0,1,8.42,4.57,13.5,13.5,0,0,1,3.76,8.43,15.39,15.39,0,0,1-.39,5.86,14.57,14.57,0,0,1-2.18,4.58c-1,1.36-2,2.61-3,3.77s-2,2.27-3,3.34A14.14,14.14,0,0,0,761,106a6.32,6.32,0,0,0-.63,3.57Zm9.8,21.58a9.43,9.43,0,0,1-7.16-1.92,8.49,8.49,0,0,1-3.3-6,8.18,8.18,0,0,1,2-6.49,11,11,0,0,1,13.89-1.4,8.2,8.2,0,0,1,3.29,6,8.51,8.51,0,0,1-2,6.53A9.57,9.57,0,0,1,755.07,132.67Z"/></g></g></g></g></svg>