<svg xmlns="http://www.w3.org/2000/svg" viewBox="0 0 1138.31 1132.15"><defs><style>.cls-1{fill:#ededee;}.cls-2{fill:none;stroke:#717175;stroke-miterlimit:10;stroke-width:11px;opacity:0.2;}</style></defs><title>6</title><g id="Camada_2" data-name="Camada 2"><g id="Camada_1-2" data-name="Camada 1"><g id="nosso_estilo_" data-name="nosso estilo?"><rect class="cls-1" y="543.96" width="1133.4" height="228.78"/><path class="cls-1" d="M94.48,417h-7.6v-53.2h7.6Zm31.24-23.71h-32v-6.62h32ZM125,363.76h7.6V417H125Z"/><path class="cls-1" d="M173.44,417.57a30.44,30.44,0,0,1-11.28-2.06,27,27,0,0,1-9-5.73,26.65,26.65,0,0,1-5.93-8.63,28.52,28.52,0,0,1,0-21.58,26.54,26.54,0,0,1,5.93-8.63,27,27,0,0,1,9-5.74,30.35,30.35,0,0,1,11.32-2.05,30.77,30.77,0,0,1,11.25,2,26.84,26.84,0,0,1,9,5.7,25.94,25.94,0,0,1,5.89,8.67,29.18,29.18,0,0,1,0,21.69,26,26,0,0,1-5.89,8.63,26.53,26.53,0,0,1-9,5.7A30.77,30.77,0,0,1,173.44,417.57Zm0-6.77a21.64,21.64,0,0,0,8.17-1.52,19.36,19.36,0,0,0,6.54-4.29,20.06,20.06,0,0,0,4.33-6.5,20.81,20.81,0,0,0,1.56-8.13,20.34,20.34,0,0,0-5.89-14.6,19.31,19.31,0,0,0-6.54-4.33,22.91,22.91,0,0,0-16.41,0,19.78,19.78,0,0,0-6.58,4.33,20.09,20.09,0,0,0-5.92,14.6,20.81,20.81,0,0,0,1.55,8.13,19.69,19.69,0,0,0,10.95,10.79A21.81,21.81,0,0,0,173.44,410.8Z"/><path class="cls-1" d="M219.8,417.57a20,20,0,0,1-8.81-2,17,17,0,0,1-6.69-5.7l4.41-5.17a16.59,16.59,0,0,0,5,4.68A11.83,11.83,0,0,0,219.8,411q9.12,0,9.12-10.79V370.37H209.69v-6.61h26.76v36.1q0,8.89-4.22,13.3T219.8,417.57Z"/><path class="cls-1" d="M260.39,410.34h31V417h-38.6v-53.2h37.54v6.61H260.39Zm-.69-23.63h27.36v6.46H259.7Z"/><path class="cls-1" d="M349.84,417.57a31,31,0,0,1-11.33-2,26.4,26.4,0,0,1-14.89-14.33,28.78,28.78,0,0,1,0-21.73,26.27,26.27,0,0,1,6-8.63,27.22,27.22,0,0,1,9-5.7,33.45,33.45,0,0,1,23,0,22.79,22.79,0,0,1,8.89,6.16l-4.71,4.71a20.88,20.88,0,0,0-7.1-4.67,22.91,22.91,0,0,0-8.33-1.49,23.26,23.26,0,0,0-8.47,1.52,20.36,20.36,0,0,0-6.76,4.26,18.92,18.92,0,0,0-4.41,6.5,21.12,21.12,0,0,0-1.56,8.17,20.9,20.9,0,0,0,1.56,8.09,19.37,19.37,0,0,0,4.41,6.54,19.93,19.93,0,0,0,6.72,4.29,23,23,0,0,0,8.44,1.52,25.16,25.16,0,0,0,8.17-1.33,20.25,20.25,0,0,0,7.26-4.44L370,410.8a27.25,27.25,0,0,1-9.24,5.06A35.14,35.14,0,0,1,349.84,417.57Zm12.84-7.76V390.05H370V410.8Z"/><path class="cls-1" d="M385.33,417v-53.2h20.75A29.18,29.18,0,0,1,418,366a17,17,0,0,1,7.6,6.38,18.2,18.2,0,0,1,2.66,10,18,18,0,0,1-2.66,9.92,17.05,17.05,0,0,1-7.6,6.35,29.18,29.18,0,0,1-11.93,2.2H389.51l3.42-3.5V417Zm7.6-18.93-3.42-3.72h16.34q7.29,0,11.06-3.15a11,11,0,0,0,3.76-8.86q0-5.7-3.76-8.81t-11.06-3.12H389.51l3.42-3.8Zm28,18.93-13.53-19.31h8.13L429.18,417Z"/><path class="cls-1" d="M463.46,417.57q-10.5,0-16.5-6T441,394V363.76h7.6V393.7q0,8.9,3.91,13t11.06,4.1q7.22,0,11.14-4.1t3.91-13V363.76H486V394q0,11.56-6,17.56T463.46,417.57Z"/><path class="cls-1" d="M502.37,417v-53.2h6.23l35.19,43.7h-3.27v-43.7h7.6V417h-6.23l-35.19-43.7H510V417Z"/><path class="cls-1" d="M588.93,417.57a31,31,0,0,1-11.32-2,26.38,26.38,0,0,1-14.9-14.33,28.78,28.78,0,0,1,0-21.73,26.3,26.3,0,0,1,6-8.63,27.18,27.18,0,0,1,9-5.7,33.45,33.45,0,0,1,23,0,22.9,22.9,0,0,1,8.9,6.16l-4.72,4.71a20.79,20.79,0,0,0-7.1-4.67,22.9,22.9,0,0,0-8.32-1.49,23.31,23.31,0,0,0-8.48,1.52,20.36,20.36,0,0,0-6.76,4.26,18.92,18.92,0,0,0-4.41,6.5,21.12,21.12,0,0,0-1.56,8.17,20.9,20.9,0,0,0,1.56,8.09,19.37,19.37,0,0,0,4.41,6.54,19.93,19.93,0,0,0,6.72,4.29,23,23,0,0,0,8.44,1.52,25.12,25.12,0,0,0,8.17-1.33,20.25,20.25,0,0,0,7.26-4.44l4.33,5.77a27.11,27.11,0,0,1-9.23,5.06A35.25,35.25,0,0,1,588.93,417.57Zm12.84-7.76V390.05h7.3V410.8Z"/><path class="cls-1" d="M632,410.34h31V417H624.42v-53.2H662v6.61H632Zm-.68-23.63H658.7v6.46H631.34Z"/><path class="cls-1" d="M673,428.21l3.8-15.36,1,4.41a5.23,5.23,0,0,1-3.68-1.37,4.8,4.8,0,0,1-1.48-3.72A5,5,0,0,1,677.7,407a4.65,4.65,0,0,1,3.57,1.48,5.25,5.25,0,0,1,1.37,3.69,9,9,0,0,1-.12,1.48,13.16,13.16,0,0,1-.38,1.67,23.81,23.81,0,0,1-.79,2.32l-3.58,10.57Z"/><path class="cls-1" d="M708.25,417l24.09-53.2h7.52L764,417h-8L734.54,368h3L716.08,417Zm10.26-13.3,2-6.08H750.5l2.21,6.08Z"/><path class="cls-1" d="M772.77,417v-53.2H779L802.87,404h-3.35l23.56-40.2h6.24l.07,53.2H822.1L822,375.23h1.75l-21,35.27H799.3l-21.13-35.27h1.9V417Z"/><path class="cls-1" d="M838.13,417l24.09-53.2h7.53L893.91,417h-8L864.43,368h3L846,417Zm10.26-13.3,2.05-6.08h29.95l2.2,6.08Z"/><path class="cls-1" d="M902.66,417v-53.2h6.23l35.19,43.7h-3.27v-43.7h7.6V417h-6.24L907,373.26h3.26V417Z"/><path class="cls-1" d="M972.8,417h-7.6v-53.2h7.6ZM1004,393.25H972v-6.62h32Zm-.69-29.49h7.6V417h-7.6Z"/><path class="cls-1" d="M1019.69,417l24.1-53.2h7.52l24.17,53.2h-8L1046,368h3L1027.52,417Zm10.26-13.3,2.06-6.08H1062l2.2,6.08Zm23-44.46a6.73,6.73,0,0,1-3.23-.76,13.38,13.38,0,0,1-2.55-1.79,24.59,24.59,0,0,0-2.2-1.78,3.63,3.63,0,0,0-2.13-.76,3.29,3.29,0,0,0-2.7,1.25,6,6,0,0,0-1.18,3.46h-4.1a11.3,11.3,0,0,1,2.13-6.77,6.42,6.42,0,0,1,5.32-2.51,6.64,6.64,0,0,1,3.26.8,13.8,13.8,0,0,1,2.59,1.83c.76.68,1.48,1.28,2.16,1.78a3.5,3.5,0,0,0,4.83-.45,5.21,5.21,0,0,0,1.14-3.35h4.1a10.4,10.4,0,0,1-2.09,6.54A6.51,6.51,0,0,1,1052.91,359.2Z"/><path class="cls-1" d="M24.1,508.16V455h7.6v53.2Z"/><path class="cls-1" d="M48.5,508.16V455h6.23l35.19,43.7H86.65V455h7.6v53.2H88l-35.19-43.7H56.1v43.7Z"/><path class="cls-1" d="M111.05,508.16V455h22.42a32.35,32.35,0,0,1,15,3.34,24.77,24.77,0,0,1,10.11,9.35,28.58,28.58,0,0,1,0,27.81,24.7,24.7,0,0,1-10.11,9.35,32.35,32.35,0,0,1-15,3.35Zm7.6-6.62H133a24.53,24.53,0,0,0,11.44-2.5,18.35,18.35,0,0,0,7.49-7,21.94,21.94,0,0,0,0-20.94,18.33,18.33,0,0,0-7.49-7A24.41,24.41,0,0,0,133,461.57H118.65Z"/><path class="cls-1" d="M174.66,508.16V455h7.6v53.2Z"/><path class="cls-1" d="M206.65,501.54h31v6.62H199.05V455H236.6v6.61H206.65ZM206,477.91h27.36v6.46H206Z"/><path class="cls-1" d="M279.69,501.54h31v6.62H272.09V455h37.54v6.61H279.69ZM279,477.91h27.36v6.46H279Z"/><path class="cls-1" d="M360.63,508.76A36.37,36.37,0,0,1,349,506.9a23.89,23.89,0,0,1-8.74-4.82l2.81-5.93a24.82,24.82,0,0,0,7.76,4.41,28,28,0,0,0,9.8,1.74,22.11,22.11,0,0,0,7.52-1.06,8.85,8.85,0,0,0,4.26-2.93,6.93,6.93,0,0,0,1.37-4.21,5.75,5.75,0,0,0-1.79-4.41,13.08,13.08,0,0,0-4.63-2.7,52.9,52.9,0,0,0-6.27-1.79c-2.28-.5-4.58-1.1-6.88-1.78a31.26,31.26,0,0,1-6.31-2.62,13,13,0,0,1-4.6-4.3,12.61,12.61,0,0,1-1.75-6.95,14,14,0,0,1,2.17-7.56,15,15,0,0,1,6.69-5.55,27.38,27.38,0,0,1,11.51-2.09,35.6,35.6,0,0,1,9.2,1.21,25.85,25.85,0,0,1,7.9,3.5l-2.51,6.08a24.53,24.53,0,0,0-7.22-3.31,28.36,28.36,0,0,0-7.37-1,20.26,20.26,0,0,0-7.37,1.14,9,9,0,0,0-4.22,3,7.19,7.19,0,0,0-1.33,4.25,5.87,5.87,0,0,0,1.79,4.49,12.88,12.88,0,0,0,4.63,2.66,61.83,61.83,0,0,0,6.27,1.78c2.28.54,4.58,1.13,6.88,1.79a29.56,29.56,0,0,1,6.31,2.58,13.17,13.17,0,0,1,4.6,4.26,12.26,12.26,0,0,1,1.75,6.84,13.68,13.68,0,0,1-2.21,7.49,15.22,15.22,0,0,1-6.8,5.54A28,28,0,0,1,360.63,508.76Z"/><path class="cls-1" d="M400.76,501.54h31v6.62h-38.6V455H430.7v6.61H400.76Zm-.69-23.63h27.36v6.46H400.07Z"/><path class="cls-1" d="M444.91,508.16V455h6.23L475,495.16h-3.35L495.22,455h6.24l.07,53.2h-7.29l-.08-41.73h1.75l-21,35.27h-3.49l-21.13-35.27h1.9v41.73Z"/><path class="cls-1" d="M510.27,508.16,534.36,455h7.53l24.17,53.2h-8l-21.51-49h3l-21.51,49Zm10.26-13.3,2.05-6.08h29.95l2.2,6.08Z"/><path class="cls-1" d="M574.8,508.16V455H581l35.19,43.7H613V455h7.6v53.2h-6.23l-35.19-43.7h3.27v43.7Z"/><path class="cls-1" d="M629.29,508.16,653.38,455h7.52l24.17,53.2h-8l-21.51-49h3l-21.5,49Zm10.26-13.3,2.05-6.08h29.94l2.21,6.08Z"/><path class="cls-1" d="M739.11,508.76a30.46,30.46,0,0,1-11.29-2.05,27.07,27.07,0,0,1-9-5.74,26.32,26.32,0,0,1-5.92-8.62,28.42,28.42,0,0,1,0-21.59,26.43,26.43,0,0,1,5.92-8.62,27.2,27.2,0,0,1,9-5.74,30.41,30.41,0,0,1,11.33-2,30.72,30.72,0,0,1,11.24,2,26.74,26.74,0,0,1,9,5.7,25.8,25.8,0,0,1,5.89,8.67,29.18,29.18,0,0,1,0,21.69,25.83,25.83,0,0,1-5.89,8.63,26.44,26.44,0,0,1-9,5.7A30.72,30.72,0,0,1,739.11,508.76Zm0-6.76a21.71,21.71,0,0,0,8.17-1.52,19.22,19.22,0,0,0,6.53-4.33,20.29,20.29,0,0,0,4.33-6.54,20.63,20.63,0,0,0,1.56-8.05,20.9,20.9,0,0,0-1.56-8.14,19.86,19.86,0,0,0-4.33-6.49,19.59,19.59,0,0,0-6.53-4.3,22.93,22.93,0,0,0-16.42,0,19.86,19.86,0,0,0-6.57,4.3,19.5,19.5,0,0,0-4.37,6.49,20.9,20.9,0,0,0-1.56,8.14,20.63,20.63,0,0,0,1.56,8.05,19.92,19.92,0,0,0,4.37,6.54,19.48,19.48,0,0,0,6.57,4.33A21.9,21.9,0,0,0,739.11,502Zm17.4,17.25a19.78,19.78,0,0,1-5.09-.64,20.31,20.31,0,0,1-4.87-2.06,32.42,32.42,0,0,1-5-3.64,78.66,78.66,0,0,1-5.63-5.51l8.14-2.13a35.74,35.74,0,0,0,4.37,4.6,14.49,14.49,0,0,0,4.14,2.58,11.28,11.28,0,0,0,4.1.8,12.44,12.44,0,0,0,9.65-4.56l3.58,4.33A16.6,16.6,0,0,1,756.51,519.25Z"/><path class="cls-1" d="M801.81,508.76q-10.5,0-16.5-6t-6-17.56V455h7.6V484.9q0,8.89,3.91,13t11.06,4.1q7.23,0,11.14-4.1t3.91-13V455h7.37V485.2q0,11.57-6,17.56T801.81,508.76Z"/><path class="cls-1" d="M848.32,501.54h31v6.62H840.72V455h37.54v6.61H848.32Zm-.69-23.63H875v6.46H847.63Z"/><path class="cls-1" d="M929.1,508.16,905.7,455h8.2l21.51,49.09H930.7L952.36,455H960l-23.33,53.2Z"/><path class="cls-1" d="M975.16,501.54h31v6.62H967.56V455h37.54v6.61H975.16Zm-.68-23.63h27.36v6.46H974.48Z"/><path class="cls-1" d="M1019.32,508.16V455h6.23l23.86,40.2h-3.34l23.56-40.2h6.23l.08,53.2h-7.3l-.08-41.73h1.75l-21,35.27h-3.5l-21.13-35.27h1.9v41.73Z"/><path class="cls-1" d="M1093.41,508.61a5.12,5.12,0,0,1-5.16-5.24,4.91,4.91,0,0,1,1.52-3.73,5.11,5.11,0,0,1,3.64-1.44,4.91,4.91,0,0,1,3.54,1.44,5,5,0,0,1,1.48,3.73,5.09,5.09,0,0,1-1.48,3.76A4.83,4.83,0,0,1,1093.41,508.61Z"/><path class="cls-1" d="M1111.5,508.61a5.12,5.12,0,0,1-5.17-5.24,4.94,4.94,0,0,1,1.52-3.73,5.13,5.13,0,0,1,3.65-1.44,4.91,4.91,0,0,1,3.54,1.44,5,5,0,0,1,1.48,3.73,5.13,5.13,0,0,1-1.48,3.76A4.83,4.83,0,0,1,1111.5,508.61Z"/><path class="cls-1" d="M1129.59,508.61a5.12,5.12,0,0,1-5.17-5.24,4.94,4.94,0,0,1,1.52-3.73,5.11,5.11,0,0,1,3.65-1.44,4.87,4.87,0,0,1,3.53,1.44,5,5,0,0,1,1.49,3.73,5.09,5.09,0,0,1-1.49,3.76A4.79,4.79,0,0,1,1129.59,508.61Z"/><path class="cls-1" d="M23.88,863.64V811.55H30l34.46,42.79h-3.2V811.55h7.44v52.09h-6.1L28.12,820.85h3.2v42.79Z"/><path class="cls-1" d="M108.65,864.24a29.91,29.91,0,0,1-11.06-2,26.42,26.42,0,0,1-8.81-5.62A25.82,25.82,0,0,1,83,848.16,27.87,27.87,0,0,1,83,827a25.82,25.82,0,0,1,5.81-8.45A26.38,26.38,0,0,1,97.56,813a29.77,29.77,0,0,1,11.09-2,30.17,30.17,0,0,1,11,2,26.1,26.1,0,0,1,8.78,5.59,25.38,25.38,0,0,1,5.77,8.48,28.56,28.56,0,0,1,0,21.25,25.52,25.52,0,0,1-5.77,8.44,25.92,25.92,0,0,1-8.78,5.58A30,30,0,0,1,108.65,864.24Zm0-6.63a21.24,21.24,0,0,0,8-1.48,19.31,19.31,0,0,0,6.4-4.21,19.64,19.64,0,0,0,4.24-6.36,20.58,20.58,0,0,0,1.52-8,20.29,20.29,0,0,0-1.52-7.92,20.08,20.08,0,0,0-4.24-6.36,19,19,0,0,0-6.4-4.25,22.58,22.58,0,0,0-16.08,0,19.33,19.33,0,0,0-6.44,4.25,19.86,19.86,0,0,0-4.28,6.36,20.29,20.29,0,0,0-1.52,7.92,20.58,20.58,0,0,0,1.52,8,19.43,19.43,0,0,0,4.28,6.36,19.69,19.69,0,0,0,6.44,4.21A21.43,21.43,0,0,0,108.65,857.61Z"/><path class="cls-1" d="M163.64,864.24a35.38,35.38,0,0,1-11.38-1.83,23.22,23.22,0,0,1-8.56-4.72l2.75-5.81A24,24,0,0,0,154,856.2a27.44,27.44,0,0,0,9.6,1.71,21.84,21.84,0,0,0,7.37-1,8.82,8.82,0,0,0,4.17-2.87,6.8,6.8,0,0,0,1.34-4.13,5.65,5.65,0,0,0-1.75-4.31,13,13,0,0,0-4.54-2.64,49.48,49.48,0,0,0-6.14-1.75q-3.34-.75-6.74-1.75a30.37,30.37,0,0,1-6.17-2.57,12.63,12.63,0,0,1-4.51-4.2,12.32,12.32,0,0,1-1.71-6.81,13.74,13.74,0,0,1,2.12-7.41,14.73,14.73,0,0,1,6.55-5.43,26.86,26.86,0,0,1,11.28-2,35,35,0,0,1,9,1.19,25.16,25.16,0,0,1,7.74,3.43l-2.45,5.95a24,24,0,0,0-7.07-3.24,27.7,27.7,0,0,0-7.22-1,20,20,0,0,0-7.22,1.11,8.83,8.83,0,0,0-4.13,3,7.09,7.09,0,0,0-1.3,4.17,5.73,5.73,0,0,0,1.74,4.39,12.54,12.54,0,0,0,4.54,2.6,60,60,0,0,0,6.14,1.75c2.24.52,4.48,1.11,6.74,1.75a29.3,29.3,0,0,1,6.18,2.53,12.7,12.7,0,0,1,4.5,4.17,12,12,0,0,1,1.71,6.7,13.38,13.38,0,0,1-2.16,7.33,14.89,14.89,0,0,1-6.66,5.43A27.36,27.36,0,0,1,163.64,864.24Z"/><path class="cls-1" d="M210.67,864.24a35.38,35.38,0,0,1-11.38-1.83,23.3,23.3,0,0,1-8.56-4.72l2.75-5.81a24.21,24.21,0,0,0,7.59,4.32,27.44,27.44,0,0,0,9.6,1.71,21.8,21.8,0,0,0,7.37-1,8.72,8.72,0,0,0,4.17-2.87,6.8,6.8,0,0,0,1.34-4.13,5.62,5.62,0,0,0-1.75-4.31,13,13,0,0,0-4.54-2.64,49.48,49.48,0,0,0-6.14-1.75c-2.23-.5-4.48-1.08-6.73-1.75a30.23,30.23,0,0,1-6.18-2.57,12.6,12.6,0,0,1-4.5-4.2,12.24,12.24,0,0,1-1.72-6.81,13.66,13.66,0,0,1,2.13-7.41,14.64,14.64,0,0,1,6.54-5.43,26.89,26.89,0,0,1,11.28-2,34.88,34.88,0,0,1,9,1.19,25.16,25.16,0,0,1,7.74,3.43l-2.45,5.95a23.89,23.89,0,0,0-7.07-3.24,27.64,27.64,0,0,0-7.22-1,20,20,0,0,0-7.22,1.11,8.83,8.83,0,0,0-4.13,3,7.09,7.09,0,0,0-1.3,4.17,5.7,5.7,0,0,0,1.75,4.39,12.46,12.46,0,0,0,4.54,2.6,59.24,59.24,0,0,0,6.14,1.75c2.23.52,4.47,1.11,6.73,1.75a29.08,29.08,0,0,1,6.18,2.53,12.7,12.7,0,0,1,4.5,4.17,12,12,0,0,1,1.71,6.7,13.38,13.38,0,0,1-2.16,7.33,14.89,14.89,0,0,1-6.66,5.43A27.36,27.36,0,0,1,210.67,864.24Z"/><path class="cls-1" d="M266,864.24a29.86,29.86,0,0,1-11.05-2,26.36,26.36,0,0,1-8.82-5.62,26,26,0,0,1-5.8-8.45,27.75,27.75,0,0,1,0-21.13,26,26,0,0,1,5.8-8.45A26.49,26.49,0,0,1,255,813,29.8,29.8,0,0,1,266,811a30.23,30.23,0,0,1,11,2,26.1,26.1,0,0,1,8.78,5.59A25.21,25.21,0,0,1,291.6,827a28.56,28.56,0,0,1,0,21.25,25.35,25.35,0,0,1-5.76,8.44,25.92,25.92,0,0,1-8.78,5.58A30,30,0,0,1,266,864.24Zm0-6.63a21.17,21.17,0,0,0,8-1.48,19.11,19.11,0,0,0,6.4-4.21,19.48,19.48,0,0,0,4.24-6.36,20.4,20.4,0,0,0,1.53-8,20.11,20.11,0,0,0-1.53-7.92,19.91,19.91,0,0,0-4.24-6.36,18.77,18.77,0,0,0-6.4-4.25,22.55,22.55,0,0,0-16.07,0,19.13,19.13,0,0,0-6.44,4.25,19.7,19.7,0,0,0-4.28,6.36,20.11,20.11,0,0,0-1.53,7.92,20.4,20.4,0,0,0,1.53,8,19.28,19.28,0,0,0,4.28,6.36,19.48,19.48,0,0,0,6.44,4.21A21.35,21.35,0,0,0,266,857.61Z"/><path class="cls-1" d="M334.13,857.17H364.5v6.47H326.69V811.55h36.77V818H334.13ZM333.47,834h26.79v6.33H333.47Z"/><path class="cls-1" d="M392.55,864.24a35.38,35.38,0,0,1-11.38-1.83,23.3,23.3,0,0,1-8.56-4.72l2.75-5.81A24.21,24.21,0,0,0,383,856.2a27.44,27.44,0,0,0,9.6,1.71,21.8,21.8,0,0,0,7.37-1,8.72,8.72,0,0,0,4.17-2.87,6.8,6.8,0,0,0,1.34-4.13,5.62,5.62,0,0,0-1.75-4.31,13,13,0,0,0-4.54-2.64,49.48,49.48,0,0,0-6.14-1.75c-2.23-.5-4.48-1.08-6.73-1.75a30.23,30.23,0,0,1-6.18-2.57,12.6,12.6,0,0,1-4.5-4.2,12.24,12.24,0,0,1-1.72-6.81,13.66,13.66,0,0,1,2.13-7.41,14.64,14.64,0,0,1,6.54-5.43,26.89,26.89,0,0,1,11.28-2,34.88,34.88,0,0,1,9,1.19,25.16,25.16,0,0,1,7.74,3.43l-2.45,5.95a23.89,23.89,0,0,0-7.07-3.24,27.64,27.64,0,0,0-7.22-1,20,20,0,0,0-7.22,1.11,8.83,8.83,0,0,0-4.13,3,7.09,7.09,0,0,0-1.3,4.17,5.7,5.7,0,0,0,1.75,4.39,12.46,12.46,0,0,0,4.54,2.6,59.24,59.24,0,0,0,6.14,1.75c2.23.52,4.47,1.11,6.73,1.75a29.08,29.08,0,0,1,6.18,2.53,12.7,12.7,0,0,1,4.5,4.17,12,12,0,0,1,1.71,6.7,13.38,13.38,0,0,1-2.16,7.33,14.89,14.89,0,0,1-6.66,5.43A27.36,27.36,0,0,1,392.55,864.24Z"/><path class="cls-1" d="M434,863.64V818H416.14v-6.47h43.09V818H441.37v45.62Z"/><path class="cls-1" d="M468.16,863.64V811.55h7.45v52.09Z"/><path class="cls-1" d="M492.05,863.64V811.55h7.44v45.62H527.7v6.47Z"/><path class="cls-1" d="M559.63,864.24a29.91,29.91,0,0,1-11.06-2,26.42,26.42,0,0,1-8.81-5.62,25.82,25.82,0,0,1-5.81-8.45A27.87,27.87,0,0,1,534,827a25.82,25.82,0,0,1,5.81-8.45,26.38,26.38,0,0,1,8.78-5.62,29.77,29.77,0,0,1,11.09-2,30.17,30.17,0,0,1,11,2,26.1,26.1,0,0,1,8.78,5.59,25.38,25.38,0,0,1,5.77,8.48,28.56,28.56,0,0,1,0,21.25,25.52,25.52,0,0,1-5.77,8.44,25.92,25.92,0,0,1-8.78,5.58A30,30,0,0,1,559.63,864.24Zm0-6.63a21.24,21.24,0,0,0,8-1.48,19.31,19.31,0,0,0,6.4-4.21,19.64,19.64,0,0,0,4.24-6.36,20.58,20.58,0,0,0,1.52-8,20.29,20.29,0,0,0-1.52-7.92,20.08,20.08,0,0,0-4.24-6.36,19,19,0,0,0-6.4-4.25,22.58,22.58,0,0,0-16.08,0,19.33,19.33,0,0,0-6.44,4.25,19.86,19.86,0,0,0-4.28,6.36,20.29,20.29,0,0,0-1.52,7.92,20.58,20.58,0,0,0,1.52,8,19.43,19.43,0,0,0,4.28,6.36,19.69,19.69,0,0,0,6.44,4.21A21.43,21.43,0,0,0,559.63,857.61Z"/><path class="cls-1" d="M630.62,863.64V818H612.76v-6.47h43.09V818H638v45.62Z"/><path class="cls-1" d="M672.22,857.17h30.36v6.47h-37.8V811.55h36.76V818H672.22ZM671.55,834h26.79v6.33H671.55Z"/><path class="cls-1" d="M715.46,863.64V811.55h6.1l23.37,39.37h-3.27l23.07-39.37h6.1l.07,52.09h-7.14l-.08-40.85h1.72l-20.54,34.53h-3.43l-20.69-34.53h1.86v40.85Z"/><path class="cls-1" d="M808.18,863.64V811.55h6.11l23.36,39.37h-3.27l23.07-39.37h6.1l.08,52.09h-7.15l-.07-40.85h1.71l-20.54,34.53h-3.42l-20.69-34.53h1.86v40.85Z"/><path class="cls-1" d="M901.65,864.24q-10.26,0-16.14-5.88t-5.88-17.19V811.55h7.44v29.32c0,5.8,1.27,10,3.83,12.72s6.17,4,10.83,4,8.35-1.34,10.9-4,3.83-6.92,3.83-12.72V811.55h7.22v29.62q0,11.31-5.84,17.19T901.65,864.24Z"/><path class="cls-1" d="M939.76,863.64V811.55h7.44v52.09Z"/><path class="cls-1" d="M974,863.64V818H956.13v-6.47h43.09V818H981.36v45.62Z"/><path class="cls-1" d="M1030.92,864.24a29.86,29.86,0,0,1-11.05-2,26.36,26.36,0,0,1-8.82-5.62,25.8,25.8,0,0,1-5.8-8.45,27.75,27.75,0,0,1,0-21.13,25.8,25.8,0,0,1,5.8-8.45,26.49,26.49,0,0,1,8.78-5.62,29.77,29.77,0,0,1,11.09-2,30.13,30.13,0,0,1,11,2,26.14,26.14,0,0,1,8.79,5.59,25.21,25.21,0,0,1,5.76,8.48,28.56,28.56,0,0,1,0,21.25,25.35,25.35,0,0,1-5.76,8.44,26,26,0,0,1-8.79,5.58A29.93,29.93,0,0,1,1030.92,864.24Zm0-6.63a21.2,21.2,0,0,0,8-1.48,19.11,19.11,0,0,0,6.4-4.21,19.64,19.64,0,0,0,4.24-6.36,20.4,20.4,0,0,0,1.53-8,19.91,19.91,0,0,0-5.77-14.28,18.77,18.77,0,0,0-6.4-4.25,22.55,22.55,0,0,0-16.07,0,19.13,19.13,0,0,0-6.44,4.25,19.7,19.7,0,0,0-4.28,6.36,20.11,20.11,0,0,0-1.53,7.92,20.4,20.4,0,0,0,1.53,8,19.28,19.28,0,0,0,4.28,6.36,19.48,19.48,0,0,0,6.44,4.21A21.35,21.35,0,0,0,1030.92,857.61Z"/><path class="cls-1" d="M1083.68,863.64l23.59-52.09h7.37l23.67,52.09h-7.82l-21.06-47.93h3l-21.06,47.93Zm10-13,2-6h29.32l2.16,6Z"/><path class="cls-1" d="M43.42,953,20.5,900.85h8l21.06,48.08H45l21.21-48.08h7.44L50.78,953Z"/><path class="cls-1" d="M88.51,946.47h30.37V953H81.07v-52.1h36.77v6.48H88.51Zm-.66-23.14h26.79v6.32H87.85Z"/><path class="cls-1" d="M131.75,953v-52.1h20.32A28.52,28.52,0,0,1,163.75,903a16.48,16.48,0,0,1,7.44,6.25A17.75,17.75,0,0,1,173.8,919a17.55,17.55,0,0,1-2.61,9.71,16.54,16.54,0,0,1-7.44,6.22,28.53,28.53,0,0,1-11.68,2.15H135.85l3.34-3.42V953Zm7.44-18.53-3.34-3.65h16q7.14,0,10.82-3.09a10.69,10.69,0,0,0,3.69-8.67q0-5.58-3.69-8.63t-10.82-3h-16l3.34-3.72ZM166.58,953,153.33,934h8L174.69,953Z"/><path class="cls-1" d="M230.8,953.54a29.84,29.84,0,0,1-11-2,25.77,25.77,0,0,1-14.48-14,28.25,28.25,0,0,1,0-21.28,25.94,25.94,0,0,1,14.55-14,31.45,31.45,0,0,1,22.1.07,22.83,22.83,0,0,1,8.67,6.07l-4.83,4.69a19.22,19.22,0,0,0-6.7-4.65,20.74,20.74,0,0,0-8-1.53,22,22,0,0,0-8.15,1.49,19.34,19.34,0,0,0-6.51,4.17,18.54,18.54,0,0,0-4.28,6.36,21.68,21.68,0,0,0,0,16,18.63,18.63,0,0,0,4.28,6.36,19.34,19.34,0,0,0,6.51,4.17,22,22,0,0,0,8.15,1.49,20.74,20.74,0,0,0,8-1.53,18.91,18.91,0,0,0,6.7-4.72l4.83,4.68a23.14,23.14,0,0,1-8.67,6.11A29.27,29.27,0,0,1,230.8,953.54Z"/><path class="cls-1" d="M284.53,953.54a29.86,29.86,0,0,1-11-2,26.36,26.36,0,0,1-8.82-5.62,25.91,25.91,0,0,1-5.8-8.44,27.9,27.9,0,0,1,0-21.14,26.06,26.06,0,0,1,5.8-8.45,26.56,26.56,0,0,1,8.79-5.61,31.67,31.67,0,0,1,22.1,0,25.92,25.92,0,0,1,8.78,5.58,25.48,25.48,0,0,1,5.77,8.48,28.69,28.69,0,0,1,0,21.25,25.56,25.56,0,0,1-5.77,8.45,26.23,26.23,0,0,1-8.78,5.58A30.23,30.23,0,0,1,284.53,953.54Zm0-6.62a21.17,21.17,0,0,0,8-1.49,18.81,18.81,0,0,0,6.4-4.21,19.51,19.51,0,0,0,4.25-6.36,20.53,20.53,0,0,0,1.52-8,19.8,19.8,0,0,0-5.77-14.29,18.74,18.74,0,0,0-6.4-4.24,21.17,21.17,0,0,0-8-1.49,21.42,21.42,0,0,0-8.07,1.49,19.2,19.2,0,0,0-6.44,4.24,20.08,20.08,0,0,0-4.28,6.36,20.3,20.3,0,0,0-1.52,7.93,20.53,20.53,0,0,0,1.52,8,19.35,19.35,0,0,0,10.72,10.57A21.42,21.42,0,0,0,284.53,946.92Z"/><path class="cls-1" d="M324.35,953v-52.1h6.1l23.37,39.37h-3.28l23.07-39.37h6.11l.07,52.1h-7.14l-.08-40.86h1.71l-20.54,34.53h-3.42l-20.69-34.53h1.86V953Z"/><path class="cls-1" d="M440.59,953.54a29.86,29.86,0,0,1-11-2,26.36,26.36,0,0,1-8.82-5.62,25.75,25.75,0,0,1-5.8-8.44,27.77,27.77,0,0,1,0-21.14,25.9,25.9,0,0,1,5.8-8.45,26.62,26.62,0,0,1,8.78-5.61,31.67,31.67,0,0,1,22.1,0,25.87,25.87,0,0,1,8.79,5.58,25.31,25.31,0,0,1,5.76,8.48,28.56,28.56,0,0,1,0,21.25,25.39,25.39,0,0,1-5.76,8.45,26.18,26.18,0,0,1-8.79,5.58A30.13,30.13,0,0,1,440.59,953.54Zm0-6.62a21.17,21.17,0,0,0,8-1.49,18.81,18.81,0,0,0,6.4-4.21,19.48,19.48,0,0,0,4.24-6.36,20.35,20.35,0,0,0,1.53-8A19.91,19.91,0,0,0,455,912.61a18.74,18.74,0,0,0-6.4-4.24,22.41,22.41,0,0,0-16.07,0,19.1,19.1,0,0,0-6.44,4.24A19.91,19.91,0,0,0,421.8,919a20.13,20.13,0,0,0-1.53,7.93,20.35,20.35,0,0,0,1.53,8,19.35,19.35,0,0,0,10.72,10.57A21.35,21.35,0,0,0,440.59,946.92Z"/><path class="cls-1" d="M501.24,953v-52.1h6.1l23.37,39.37h-3.27l23.07-39.37h6.1l.07,52.1h-7.14l-.07-40.86h1.71l-20.54,34.53h-3.43l-20.68-34.53h1.86V953Z"/><path class="cls-1" d="M596.65,953.54a29.82,29.82,0,0,1-11-2,26.36,26.36,0,0,1-8.82-5.62,25.94,25.94,0,0,1-5.81-8.44,27.9,27.9,0,0,1,0-21.14,26.08,26.08,0,0,1,5.81-8.45,26.52,26.52,0,0,1,8.78-5.61,31.67,31.67,0,0,1,22.1,0,25.83,25.83,0,0,1,8.78,5.58,25.34,25.34,0,0,1,5.77,8.48,28.56,28.56,0,0,1,0,21.25,25.41,25.41,0,0,1-5.77,8.45,26.13,26.13,0,0,1-8.78,5.58A30.13,30.13,0,0,1,596.65,953.54Zm0-6.62a21.24,21.24,0,0,0,8-1.49,18.91,18.91,0,0,0,6.4-4.21,19.64,19.64,0,0,0,4.24-6.36,20.34,20.34,0,0,0,1.52-8,19.85,19.85,0,0,0-5.76-14.29,18.84,18.84,0,0,0-6.4-4.24,22.44,22.44,0,0,0-16.08,0,19.16,19.16,0,0,0-6.43,4.24,19.75,19.75,0,0,0-4.28,6.36,20.13,20.13,0,0,0-1.53,7.93,20.35,20.35,0,0,0,1.53,8,19.38,19.38,0,0,0,10.71,10.57A21.44,21.44,0,0,0,596.65,946.92Z"/><path class="cls-1" d="M660,953.54a29.82,29.82,0,0,1-11.05-2,26.36,26.36,0,0,1-8.82-5.62,25.94,25.94,0,0,1-5.81-8.44,27.9,27.9,0,0,1,0-21.14,26.08,26.08,0,0,1,5.81-8.45,26.62,26.62,0,0,1,8.78-5.61,31.67,31.67,0,0,1,22.1,0,25.83,25.83,0,0,1,8.78,5.58,25.34,25.34,0,0,1,5.77,8.48,28.56,28.56,0,0,1,0,21.25,25.41,25.41,0,0,1-5.77,8.45,26.13,26.13,0,0,1-8.78,5.58A30.13,30.13,0,0,1,660,953.54Zm0-6.62a21.24,21.24,0,0,0,8-1.49,18.91,18.91,0,0,0,6.4-4.21,19.64,19.64,0,0,0,4.24-6.36,20.35,20.35,0,0,0,1.53-8,19.91,19.91,0,0,0-5.77-14.29,18.84,18.84,0,0,0-6.4-4.24,22.44,22.44,0,0,0-16.08,0,19.16,19.16,0,0,0-6.43,4.24,19.75,19.75,0,0,0-4.28,6.36,20.13,20.13,0,0,0-1.53,7.93,20.35,20.35,0,0,0,1.53,8,19.38,19.38,0,0,0,10.71,10.57A21.44,21.44,0,0,0,660,946.92Z"/><path class="cls-1" d="M699.79,953v-52.1h22a31.58,31.58,0,0,1,14.69,3.28,24.07,24.07,0,0,1,9.9,9.15,28,28,0,0,1,0,27.24,24.07,24.07,0,0,1-9.9,9.15A31.7,31.7,0,0,1,721.75,953Zm7.44-6.48H721.3A23.94,23.94,0,0,0,732.5,944a17.84,17.84,0,0,0,7.33-6.88,21.43,21.43,0,0,0,0-20.5,18,18,0,0,0-7.33-6.85,23.94,23.94,0,0,0-11.2-2.45H707.23Z"/><path class="cls-1" d="M782.92,953v-52.1h22a31.59,31.59,0,0,1,14.7,3.28,24.2,24.2,0,0,1,9.9,9.15,28,28,0,0,1,0,27.24,24.2,24.2,0,0,1-9.9,9.15,31.71,31.71,0,0,1-14.7,3.28Zm7.44-6.48h14.07a24,24,0,0,0,11.2-2.46,17.84,17.84,0,0,0,7.33-6.88,21.5,21.5,0,0,0,0-20.5,18,18,0,0,0-7.33-6.85,24,24,0,0,0-11.2-2.45H790.36Z"/><path class="cls-1" d="M868.72,953.54a29.86,29.86,0,0,1-11.05-2,26.36,26.36,0,0,1-8.82-5.62,25.91,25.91,0,0,1-5.8-8.44,27.77,27.77,0,0,1,0-21.14,26.06,26.06,0,0,1,5.8-8.45,26.62,26.62,0,0,1,8.78-5.61,31.7,31.7,0,0,1,22.11,0,25.92,25.92,0,0,1,8.78,5.58,25.48,25.48,0,0,1,5.77,8.48,28.69,28.69,0,0,1,0,21.25,25.56,25.56,0,0,1-5.77,8.45,26.23,26.23,0,0,1-8.78,5.58A30.23,30.23,0,0,1,868.72,953.54Zm0-6.62a21.17,21.17,0,0,0,8-1.49,18.81,18.81,0,0,0,6.4-4.21,19.67,19.67,0,0,0,4.25-6.36,20.53,20.53,0,0,0,1.52-8,19.8,19.8,0,0,0-5.77-14.29,18.74,18.74,0,0,0-6.4-4.24,22.41,22.41,0,0,0-16.07,0,19.2,19.2,0,0,0-6.44,4.24,19.91,19.91,0,0,0-4.28,6.36,20.13,20.13,0,0,0-1.52,7.93,20.34,20.34,0,0,0,1.52,8,19.35,19.35,0,0,0,10.72,10.57A21.35,21.35,0,0,0,868.72,946.92Z"/><path class="cls-1" d="M929.38,953v-52.1h22a31.59,31.59,0,0,1,14.7,3.28,24.11,24.11,0,0,1,9.89,9.15,28,28,0,0,1,0,27.24,24.11,24.11,0,0,1-9.89,9.15,31.71,31.71,0,0,1-14.7,3.28Zm7.44-6.48h14.06a23.94,23.94,0,0,0,11.2-2.46,17.78,17.78,0,0,0,7.33-6.88,21.43,21.43,0,0,0,0-20.5,17.9,17.9,0,0,0-7.33-6.85,23.94,23.94,0,0,0-11.2-2.45H936.82Z"/><path class="cls-1" d="M991.66,953v-52.1h7.45V953Z"/><path class="cls-1" d="M1007.66,953l23.59-52.1h7.37l23.67,52.1h-7.82L1033.41,905h3L1015.33,953Zm10.05-13,2-5.95H1049l2.16,5.95Z"/><path class="cls-1" d="M1099.12,946.47h30.37V953h-37.81v-52.1h36.77v6.48h-29.33Zm-.67-23.14h26.8v6.32h-26.8Z"/><path class="cls-1" d="M69.05,1042.84a29.64,29.64,0,0,1-11-2,25.62,25.62,0,0,1-8.71-5.58,26.18,26.18,0,0,1-5.77-8.45,28.25,28.25,0,0,1,0-21.28,25.94,25.94,0,0,1,14.55-14,29.9,29.9,0,0,1,11-2,29.42,29.42,0,0,1,11.12,2.05,22.7,22.7,0,0,1,8.67,6.06l-4.83,4.69a19.48,19.48,0,0,0-6.7-4.65,20.74,20.74,0,0,0-8-1.53,22,22,0,0,0-8.15,1.49,19.49,19.49,0,0,0-6.51,4.17,18.73,18.73,0,0,0-4.28,6.36,21.68,21.68,0,0,0,0,16,18.67,18.67,0,0,0,4.28,6.37,19.47,19.47,0,0,0,6.51,4.16,21.75,21.75,0,0,0,8.15,1.49,20.93,20.93,0,0,0,8-1.52,19.06,19.06,0,0,0,6.7-4.73l4.83,4.69a23.12,23.12,0,0,1-8.67,6.1A29.27,29.27,0,0,1,69.05,1042.84Z"/><path class="cls-1" d="M122.79,1042.84a29.91,29.91,0,0,1-11.06-2,26.44,26.44,0,0,1-8.82-5.61,26,26,0,0,1-5.8-8.45,27.9,27.9,0,0,1,0-21.14,25.91,25.91,0,0,1,5.8-8.44,26.53,26.53,0,0,1,8.79-5.62,29.77,29.77,0,0,1,11.09-2,30.21,30.21,0,0,1,11,2,26.23,26.23,0,0,1,8.78,5.58,25.53,25.53,0,0,1,5.77,8.49,28.66,28.66,0,0,1,0,21.24,25.56,25.56,0,0,1-5.77,8.45,25.92,25.92,0,0,1-8.78,5.58A30,30,0,0,1,122.79,1042.84Zm0-6.62a21.05,21.05,0,0,0,8-1.49,19.13,19.13,0,0,0,6.4-4.2,19.64,19.64,0,0,0,4.24-6.36,20.61,20.61,0,0,0,1.52-8,19.89,19.89,0,0,0-5.76-14.29,19.09,19.09,0,0,0-6.4-4.24,22.44,22.44,0,0,0-16.08,0,19.36,19.36,0,0,0-6.44,4.24,20,20,0,0,0-4.28,6.37,20.25,20.25,0,0,0-1.52,7.92,20.61,20.61,0,0,0,1.52,8,19.3,19.3,0,0,0,10.72,10.56A21.24,21.24,0,0,0,122.79,1036.22Z"/><path class="cls-1" d="M162.6,1042.25V990.16h6.1l23.37,39.36h-3.28l23.08-39.36H218l.07,52.09H210.9l-.08-40.86h1.71L192,1035.92h-3.42l-20.69-34.53h1.86v40.86Z"/><path class="cls-1" d="M278.84,1042.84a29.86,29.86,0,0,1-11-2,26.34,26.34,0,0,1-8.82-5.61,26,26,0,0,1-5.8-8.45,27.77,27.77,0,0,1,0-21.14,25.91,25.91,0,0,1,5.8-8.44,26.49,26.49,0,0,1,8.78-5.62,29.8,29.8,0,0,1,11.09-2,30.23,30.23,0,0,1,11,2,26.23,26.23,0,0,1,8.78,5.58,25.35,25.35,0,0,1,5.76,8.49,28.53,28.53,0,0,1,0,21.24,25.39,25.39,0,0,1-5.76,8.45,25.92,25.92,0,0,1-8.78,5.58A30,30,0,0,1,278.84,1042.84Zm0-6.62a21,21,0,0,0,8-1.49,18.94,18.94,0,0,0,6.4-4.2,19.48,19.48,0,0,0,4.24-6.36,20.43,20.43,0,0,0,1.53-8,20,20,0,0,0-5.77-14.29,18.89,18.89,0,0,0-6.4-4.24,22.41,22.41,0,0,0-16.07,0,19.25,19.25,0,0,0-6.44,4.24,19.85,19.85,0,0,0-4.28,6.37,20.08,20.08,0,0,0-1.53,7.92,20.43,20.43,0,0,0,1.53,8,19.3,19.3,0,0,0,10.72,10.56A21.16,21.16,0,0,0,278.84,1036.22Z"/><path class="cls-1" d="M363,1042.84a29.86,29.86,0,0,1-11.05-2,26.34,26.34,0,0,1-8.82-5.61,26,26,0,0,1-5.81-8.45,27.9,27.9,0,0,1,0-21.14,25.94,25.94,0,0,1,5.81-8.44,26.49,26.49,0,0,1,8.78-5.62,29.77,29.77,0,0,1,11.09-2,30.13,30.13,0,0,1,11,2,26.27,26.27,0,0,1,8.79,5.58,25.35,25.35,0,0,1,5.76,8.49,28.53,28.53,0,0,1,0,21.24,25.39,25.39,0,0,1-5.76,8.45,26,26,0,0,1-8.79,5.58A29.93,29.93,0,0,1,363,1042.84Zm0-6.62a21,21,0,0,0,8-1.49,18.6,18.6,0,0,0,6.4-4.24,20.09,20.09,0,0,0,5.77-14.29,20.38,20.38,0,0,0-1.53-8,19.64,19.64,0,0,0-4.24-6.36,19.11,19.11,0,0,0-6.4-4.21,21.21,21.21,0,0,0-8-1.49,21.44,21.44,0,0,0-8.08,1.49,19.54,19.54,0,0,0-6.43,4.21,19.13,19.13,0,0,0-4.28,6.36,20.38,20.38,0,0,0-1.53,8,20.18,20.18,0,0,0,1.53,7.89,19.5,19.5,0,0,0,4.28,6.4,19,19,0,0,0,6.43,4.24A21.24,21.24,0,0,0,363,1036.22Zm17,16.89a18.73,18.73,0,0,1-9.75-2.64,32.5,32.5,0,0,1-4.91-3.57,71.7,71.7,0,0,1-5.51-5.4l8-2.08a33,33,0,0,0,4.28,4.5,14.12,14.12,0,0,0,4.05,2.53,11.06,11.06,0,0,0,4,.79,12.19,12.19,0,0,0,9.45-4.47l3.5,4.24A16.23,16.23,0,0,1,380.05,1053.11Z"/><path class="cls-1" d="M424.41,1042.84q-10.28,0-16.15-5.88t-5.88-17.19V990.16h7.44v29.32q0,8.7,3.83,12.72t10.83,4q7.06,0,10.9-4t3.83-12.72V990.16h7.22v29.61q0,11.32-5.84,17.19T424.41,1042.84Z"/><path class="cls-1" d="M470,1035.77h30.36v6.48h-37.8V990.16h36.76v6.47H470Zm-.67-23.14h26.79V1019H469.28Z"/><path class="cls-1" d="M526.14,1042.25l23.59-52.09h7.36l23.67,52.09h-7.82l-21.06-47.93h3l-21.06,47.93Zm10-13,2-6h29.32l2.16,6Z"/><path class="cls-1" d="M633.67,1042.84a30.17,30.17,0,0,1-11.09-2,25.79,25.79,0,0,1-14.58-14,28.13,28.13,0,0,1,0-21.28,25.56,25.56,0,0,1,5.84-8.45,26.51,26.51,0,0,1,8.82-5.58,32.71,32.71,0,0,1,22.47,0,22.4,22.4,0,0,1,8.71,6l-4.62,4.61a20.63,20.63,0,0,0-7-4.58,23.75,23.75,0,0,0-16.45,0,19.78,19.78,0,0,0-6.62,4.17,18.55,18.55,0,0,0-4.32,6.36,20.69,20.69,0,0,0-1.53,8,20.48,20.48,0,0,0,1.53,7.93,18.9,18.9,0,0,0,4.32,6.4,19.51,19.51,0,0,0,6.58,4.2,22.29,22.29,0,0,0,8.26,1.49,24.61,24.61,0,0,0,8-1.3,19.71,19.71,0,0,0,7.11-4.35l4.24,5.65a26.52,26.52,0,0,1-9,5A34.36,34.36,0,0,1,633.67,1042.84Zm12.58-7.59V1015.9h7.14v20.32Z"/><path class="cls-1" d="M675.87,1035.77h30.36v6.48H668.42V990.16h36.77v6.47H675.87Zm-.67-23.14H702V1019H675.2Z"/><path class="cls-1" d="M719.1,1042.25V990.16h6.11L759.66,1033h-3.2V990.16h7.44v52.09h-6.1l-34.45-42.79h3.2v42.79Z"/><path class="cls-1" d="M790.7,1042.25V996.63H772.83v-6.47h43.09v6.47H798.06v45.62Z"/><path class="cls-1" d="M832.29,1035.77h30.37v6.48H824.85V990.16h36.77v6.47H832.29Zm-.67-23.14h26.8V1019h-26.8Z"/><path class="cls-1" d="M919.89,1042.84a29.82,29.82,0,0,1-11-2,26.34,26.34,0,0,1-8.82-5.61,26,26,0,0,1-5.81-8.45,27.9,27.9,0,0,1,0-21.14,25.94,25.94,0,0,1,5.81-8.44,26.38,26.38,0,0,1,8.78-5.62,29.77,29.77,0,0,1,11.09-2,30.13,30.13,0,0,1,11,2,26.23,26.23,0,0,1,8.78,5.58,25.53,25.53,0,0,1,5.77,8.49,28.53,28.53,0,0,1,0,21.24,25.56,25.56,0,0,1-5.77,8.45,25.92,25.92,0,0,1-8.78,5.58A29.93,29.93,0,0,1,919.89,1042.84Zm0-6.62a21.05,21.05,0,0,0,8-1.49,18.7,18.7,0,0,0,6.4-4.24,20,20,0,0,0,5.76-14.29,20.38,20.38,0,0,0-1.52-8,19.64,19.64,0,0,0-4.24-6.36,19.21,19.21,0,0,0-6.4-4.21,22.44,22.44,0,0,0-16.08,0,19.69,19.69,0,0,0-6.44,4.21,19.25,19.25,0,0,0-4.27,6.36,20.38,20.38,0,0,0-1.53,8,20.18,20.18,0,0,0,1.53,7.89,19.63,19.63,0,0,0,4.27,6.4,19.15,19.15,0,0,0,6.44,4.24A21.24,21.24,0,0,0,919.89,1036.22Zm17,16.89a18.67,18.67,0,0,1-9.75-2.64,32,32,0,0,1-4.91-3.57,69.93,69.93,0,0,1-5.51-5.4l8-2.08a34.24,34.24,0,0,0,4.28,4.5,14.29,14.29,0,0,0,4.06,2.53,11.06,11.06,0,0,0,4,.79,12.19,12.19,0,0,0,9.45-4.47L950,1047A16.23,16.23,0,0,1,936.93,1053.11Z"/><path class="cls-1" d="M981.28,1042.84q-10.26,0-16.15-5.88t-5.88-17.19V990.16h7.45v29.32q0,8.7,3.83,12.72t10.83,4q7.07,0,10.9-4t3.83-12.72V990.16h7.22v29.61q0,11.32-5.84,17.19T981.28,1042.84Z"/><path class="cls-1" d="M1026.83,1035.77h30.36v6.48h-37.8V990.16h36.76v6.47h-29.32Zm-.67-23.14H1053V1019h-26.79Z"/><path class="cls-1" d="M1070.07,1042.25V990.16h20.31a28.75,28.75,0,0,1,11.69,2.15,16.64,16.64,0,0,1,7.44,6.25,19.53,19.53,0,0,1,0,19.47,16.69,16.69,0,0,1-7.44,6.21,28.57,28.57,0,0,1-11.69,2.16h-16.22l3.35-3.43v19.28Zm7.44-18.53-3.35-3.65h16q7.14,0,10.83-3.09a10.7,10.7,0,0,0,3.68-8.67q0-5.58-3.68-8.63t-10.83-3h-16l3.35-3.72Zm27.38,18.53-13.24-18.9h8l13.4,18.9Z"/><path class="cls-1" d="M372.28,1132.15q-10.27,0-16.15-5.88t-5.88-17.19v-29.62h7.44v29.32q0,8.7,3.83,12.73t10.83,4q7.06,0,10.9-4t3.83-12.73v-29.32h7.22v29.62q0,11.31-5.84,17.19T372.28,1132.15Z"/><path class="cls-1" d="M425.56,1132.15a35.71,35.71,0,0,1-11.39-1.82,23.54,23.54,0,0,1-8.56-4.73l2.76-5.81a24,24,0,0,0,7.59,4.32,27.36,27.36,0,0,0,9.6,1.71,21.63,21.63,0,0,0,7.37-1,8.72,8.72,0,0,0,4.16-2.86,6.78,6.78,0,0,0,1.34-4.13,5.62,5.62,0,0,0-1.75-4.32,12.9,12.9,0,0,0-4.53-2.64,50,50,0,0,0-6.14-1.75c-2.24-.5-4.48-1.08-6.74-1.75a30.23,30.23,0,0,1-6.18-2.57,12.6,12.6,0,0,1-4.5-4.2,12.32,12.32,0,0,1-1.71-6.81,13.74,13.74,0,0,1,2.12-7.41,14.8,14.8,0,0,1,6.55-5.43,27,27,0,0,1,11.27-2.05,35,35,0,0,1,9,1.19,25.26,25.26,0,0,1,7.74,3.43l-2.46,6a23.89,23.89,0,0,0-7.07-3.24,27.59,27.59,0,0,0-7.22-1,19.7,19.7,0,0,0-7.21,1.12,8.78,8.78,0,0,0-4.14,3,7.16,7.16,0,0,0-1.3,4.17,5.74,5.74,0,0,0,1.75,4.39,12.7,12.7,0,0,0,4.54,2.61,62.7,62.7,0,0,0,6.14,1.74c2.23.52,4.48,1.11,6.74,1.75a29.21,29.21,0,0,1,6.17,2.53,12.79,12.79,0,0,1,4.5,4.17,11.92,11.92,0,0,1,1.72,6.7,13.38,13.38,0,0,1-2.16,7.33,14.89,14.89,0,0,1-6.66,5.43A27.4,27.4,0,0,1,425.56,1132.15Z"/><path class="cls-1" d="M449.52,1131.55l23.59-52.09h7.37l23.67,52.09h-7.82l-21.06-47.92h3l-21.06,47.92Zm10.05-13,2-6H490.9l2.16,6Z"/><path class="cls-1" d="M512.7,1131.55v-52.09H533a28.52,28.52,0,0,1,11.68,2.16,16.55,16.55,0,0,1,7.45,6.25,17.83,17.83,0,0,1,2.6,9.75,17.62,17.62,0,0,1-2.6,9.71,16.66,16.66,0,0,1-7.45,6.21A28.52,28.52,0,0,1,533,1115.7H516.8l3.34-3.42v19.27Zm7.44-18.53-3.34-3.64h16q7.14,0,10.82-3.09a10.69,10.69,0,0,0,3.69-8.67q0-5.58-3.69-8.64t-10.82-3h-16l3.34-3.72Zm27.39,18.53-13.24-18.9h8l13.39,18.9Z"/><path class="cls-1" d="M595.9,1131.55h-7.44v-52.09h7.44Zm30.59-23.22H595.16v-6.47h31.33Zm-.67-28.87h7.44v52.09h-7.44Z"/><path class="cls-1" d="M673.23,1132.15a29.91,29.91,0,0,1-11.06-2,26.32,26.32,0,0,1-8.81-5.62,25.82,25.82,0,0,1-5.81-8.45,27.87,27.87,0,0,1,0-21.13,25.82,25.82,0,0,1,5.81-8.45,26.44,26.44,0,0,1,8.78-5.62,31.6,31.6,0,0,1,22.1,0,25.92,25.92,0,0,1,8.78,5.58,25.38,25.38,0,0,1,5.77,8.48,28.69,28.69,0,0,1,0,21.25,25.52,25.52,0,0,1-5.77,8.44,26.1,26.1,0,0,1-8.78,5.59A30.17,30.17,0,0,1,673.23,1132.15Zm0-6.63a21.24,21.24,0,0,0,8-1.48,19.17,19.17,0,0,0,6.39-4.21,19.51,19.51,0,0,0,4.25-6.36,20.56,20.56,0,0,0,1.52-8,20.3,20.3,0,0,0-1.52-7.93,19.94,19.94,0,0,0-4.25-6.36,18.66,18.66,0,0,0-6.39-4.24,22.44,22.44,0,0,0-16.08,0,19.15,19.15,0,0,0-6.44,4.24,19.86,19.86,0,0,0-4.28,6.36,20.3,20.3,0,0,0-1.52,7.93,20.56,20.56,0,0,0,1.52,8,19.43,19.43,0,0,0,4.28,6.36,19.69,19.69,0,0,0,6.44,4.21A21.43,21.43,0,0,0,673.23,1125.52Z"/><path class="cls-1" d="M718.62,1132.15a19.62,19.62,0,0,1-8.63-1.94,16.63,16.63,0,0,1-6.55-5.58l4.32-5.06a16.16,16.16,0,0,0,4.87,4.58,11.56,11.56,0,0,0,6,1.6q8.94,0,8.93-10.57v-29.25H708.72v-6.47h26.2v35.35c0,5.8-1.38,10.15-4.13,13S724,1132.15,718.62,1132.15Z"/><path class="cls-1" d="M758.36,1125.08h30.36v6.47h-37.8v-52.09h36.76v6.47H758.36Zm-.67-23.15h26.79v6.33H757.69Z"/><path class="cls-1" d="M803,1132a5,5,0,0,1-5.06-5.14,4.81,4.81,0,0,1,1.49-3.64,5,5,0,0,1,3.57-1.42,4.9,4.9,0,0,1,4.91,5.06,5,5,0,0,1-1.45,3.69A4.72,4.72,0,0,1,803,1132Z"/><rect class="cls-2" x="244.65" y="5.5" width="670.97" height="317.67"/><path class="cls-1" d="M305.64,147.14v-94h21.89l51.7,62.58H368.89V53.14h26.05v94H373.05L321.22,84.57h10.34v62.57Z"/><path class="cls-1" d="M479.4,149a58.2,58.2,0,0,1-20.75-3.63,48.08,48.08,0,0,1-27.53-25.85,47.61,47.61,0,0,1-4-19.53,46.89,46.89,0,0,1,4-19.34,48.41,48.41,0,0,1,27.46-25.78,61.49,61.49,0,0,1,41.63,0,49.53,49.53,0,0,1,16.52,10.2,47.9,47.9,0,0,1,10.94,15.45,47.2,47.2,0,0,1,4,19.47,48.77,48.77,0,0,1-3.89,19.67,46.55,46.55,0,0,1-10.94,15.51,49.93,49.93,0,0,1-16.59,10.2A58,58,0,0,1,479.4,149Zm0-22a26.4,26.4,0,0,0,10-1.88,23.07,23.07,0,0,0,8.06-5.44,25.79,25.79,0,0,0,5.37-8.46,32.45,32.45,0,0,0,0-22.16,26,26,0,0,0-5.37-8.46,23,23,0,0,0-8.06-5.43,27.56,27.56,0,0,0-20,0,23.85,23.85,0,0,0-8.12,5.43,24.45,24.45,0,0,0-5.37,8.46A30.65,30.65,0,0,0,454,100.14a30.62,30.62,0,0,0,1.88,11.08,24.26,24.26,0,0,0,5.37,8.46,23.88,23.88,0,0,0,8.12,5.44A26.45,26.45,0,0,0,479.4,127Z"/><path class="cls-1" d="M596.89,149a85.08,85.08,0,0,1-22.36-2.89q-10.66-2.88-17.25-7.32L566,119.08a61.28,61.28,0,0,0,14.57,6.64A54,54,0,0,0,597,128.34a33.66,33.66,0,0,0,8.93-.94,9.85,9.85,0,0,0,4.83-2.69,6.05,6.05,0,0,0,1.54-4.16,5.52,5.52,0,0,0-3-4.9,29.32,29.32,0,0,0-7.72-3.09q-4.77-1.28-10.34-2.41a102.38,102.38,0,0,1-11.35-3,43.19,43.19,0,0,1-10.47-5,23.84,23.84,0,0,1-7.59-8.06q-2.88-5-2.88-12.49a26.77,26.77,0,0,1,4.56-15.17q4.56-6.86,13.83-11t23.1-4.17a79.74,79.74,0,0,1,18.19,2.09,53.6,53.6,0,0,1,15.78,6.24l-8.06,19.6a57.28,57.28,0,0,0-13.29-5.5,49.88,49.88,0,0,0-12.76-1.75,26.89,26.89,0,0,0-8.86,1.21,10.52,10.52,0,0,0-4.83,3.09,6.4,6.4,0,0,0-1.48,4,5.61,5.61,0,0,0,2.95,5,26.68,26.68,0,0,0,7.66,3q4.7,1.14,10.4,2.35a112.48,112.48,0,0,1,11.35,3A45.44,45.44,0,0,1,628,98.46a23.9,23.9,0,0,1,7.72,7.93q3,4.89,2.95,12.28A26.59,26.59,0,0,1,634,133.78q-4.63,6.91-13.9,11.08T596.89,149Z"/><path class="cls-1" d="M702,149a85.08,85.08,0,0,1-22.36-2.89q-10.67-2.88-17.25-7.32l8.73-19.73a61.28,61.28,0,0,0,14.57,6.64,54,54,0,0,0,16.45,2.62,33.66,33.66,0,0,0,8.93-.94,9.85,9.85,0,0,0,4.83-2.69,6.05,6.05,0,0,0,1.54-4.16,5.52,5.52,0,0,0-3-4.9,29.32,29.32,0,0,0-7.72-3.09q-4.77-1.28-10.34-2.41a102.38,102.38,0,0,1-11.35-3,43.19,43.19,0,0,1-10.47-5,23.84,23.84,0,0,1-7.59-8.06,24.58,24.58,0,0,1-2.89-12.49,26.78,26.78,0,0,1,4.57-15.17q4.56-6.86,13.83-11t23.1-4.17a79.74,79.74,0,0,1,18.19,2.09,53.6,53.6,0,0,1,15.78,6.24l-8.06,19.6a57.46,57.46,0,0,0-13.29-5.5,49.88,49.88,0,0,0-12.76-1.75,26.89,26.89,0,0,0-8.86,1.21,10.52,10.52,0,0,0-4.83,3.09,6.4,6.4,0,0,0-1.48,4,5.61,5.61,0,0,0,2.95,5,26.68,26.68,0,0,0,7.66,3q4.69,1.14,10.4,2.35a112.48,112.48,0,0,1,11.35,3,45.44,45.44,0,0,1,10.41,4.83,23.9,23.9,0,0,1,7.72,7.93q3,4.89,2.95,12.28a26.59,26.59,0,0,1-4.63,15.11q-4.63,6.91-13.9,11.08T702,149Z"/><path class="cls-1" d="M821.54,149a58.2,58.2,0,0,1-20.75-3.63,48.08,48.08,0,0,1-27.53-25.85,47.61,47.61,0,0,1-4-19.53,46.89,46.89,0,0,1,4-19.34,48.39,48.39,0,0,1,27.47-25.78,61.46,61.46,0,0,1,41.62,0,49.53,49.53,0,0,1,16.52,10.2,47.9,47.9,0,0,1,10.94,15.45,47.2,47.2,0,0,1,4,19.47,48.77,48.77,0,0,1-3.89,19.67,46.55,46.55,0,0,1-10.94,15.51,49.93,49.93,0,0,1-16.59,10.2A58,58,0,0,1,821.54,149Zm0-22a26.4,26.4,0,0,0,10-1.88,23.07,23.07,0,0,0,8.06-5.44,25.79,25.79,0,0,0,5.37-8.46,32.45,32.45,0,0,0,0-22.16,26,26,0,0,0-5.37-8.46,23,23,0,0,0-8.06-5.43,27.54,27.54,0,0,0-20,0,23.79,23.79,0,0,0-8.13,5.43A24.45,24.45,0,0,0,798,89.06a33.59,33.59,0,0,0,0,22.16,24.26,24.26,0,0,0,5.37,8.46,23.82,23.82,0,0,0,8.13,5.44A26.37,26.37,0,0,0,821.54,127Z"/><path class="cls-1" d="M326.52,253h49.15v20.68H300.34v-94h73.58v20.68h-47.4Zm-1.88-36.92h43.64v19.74H324.64Z"/><path class="cls-1" d="M426.16,275.53a85.5,85.5,0,0,1-22.36-2.88q-10.68-2.89-17.26-7.32l8.73-19.74a62.06,62.06,0,0,0,14.57,6.65,54.37,54.37,0,0,0,16.45,2.61,33.6,33.6,0,0,0,8.93-.94,9.92,9.92,0,0,0,4.83-2.68,6.06,6.06,0,0,0,1.55-4.16,5.52,5.52,0,0,0-3-4.9,29.32,29.32,0,0,0-7.72-3.09q-4.77-1.28-10.34-2.42a105,105,0,0,1-11.34-3,43.46,43.46,0,0,1-10.48-5,23.72,23.72,0,0,1-7.58-8.06q-2.9-5-2.89-12.48A26.75,26.75,0,0,1,392.86,193q4.56-6.84,13.83-11t23.09-4.16a79.82,79.82,0,0,1,18.2,2.08,53.87,53.87,0,0,1,15.78,6.24l-8.06,19.61a57.57,57.57,0,0,0-13.3-5.51,49.78,49.78,0,0,0-12.75-1.74,26.59,26.59,0,0,0-8.86,1.21,10.52,10.52,0,0,0-4.84,3.08,6.46,6.46,0,0,0-1.48,4,5.64,5.64,0,0,0,3,5,26.73,26.73,0,0,0,7.65,3c3.14.76,6.6,1.55,10.41,2.35a115.94,115.94,0,0,1,11.35,3,45,45,0,0,1,10.4,4.84,22.37,22.37,0,0,1,10.68,20.21,26.63,26.63,0,0,1-4.63,15.1q-4.64,6.91-13.9,11.08T426.16,275.53Z"/><path class="cls-1" d="M501.35,273.65V200.74H472.48V179.66h84.2v21.08H527.94v72.91Z"/><path class="cls-1" d="M569.43,273.65v-94H596v94Z"/><path class="cls-1" d="M617.64,273.65v-94h26.58v72.91h44.72v21.08Z"/><path class="cls-1" d="M748,275.53a58.11,58.11,0,0,1-20.74-3.62,48,48,0,0,1-27.53-25.85,47.66,47.66,0,0,1-4-19.54,46.89,46.89,0,0,1,4-19.34,48.41,48.41,0,0,1,27.46-25.78,61.62,61.62,0,0,1,41.62,0,49.3,49.3,0,0,1,16.52,10.21,48,48,0,0,1,10.95,15.44,47.36,47.36,0,0,1,4,19.47,48.61,48.61,0,0,1-3.9,19.67,46.07,46.07,0,0,1-10.94,15.51,50.11,50.11,0,0,1-16.59,10.21A58,58,0,0,1,748,275.53Zm0-22a26.26,26.26,0,0,0,10-1.88,23,23,0,0,0,8.05-5.44,25.47,25.47,0,0,0,5.37-8.46,32.43,32.43,0,0,0,0-22.15,25.47,25.47,0,0,0-5.37-8.46,23.13,23.13,0,0,0-8.05-5.44,27.56,27.56,0,0,0-20,0,23.82,23.82,0,0,0-8.13,5.44,24.56,24.56,0,0,0-5.37,8.46,33.56,33.56,0,0,0,0,22.15,24.56,24.56,0,0,0,5.37,8.46,23.68,23.68,0,0,0,8.13,5.44A26.21,26.21,0,0,0,748,253.51Z"/><path class="cls-1" d="M832,239.41a20,20,0,0,1,1.41-7.79,27,27,0,0,1,3.55-6.11,41.23,41.23,0,0,1,4.64-5c1.65-1.52,3.2-3,4.63-4.3a22,22,0,0,0,3.56-4.23,8.5,8.5,0,0,0,1.41-4.63,7.3,7.3,0,0,0-3.29-6.24,14.34,14.34,0,0,0-8.53-2.35,18.9,18.9,0,0,0-9.73,2.55,19.8,19.8,0,0,0-7.05,7l-20-10.61a39.58,39.58,0,0,1,15.17-14.43q9.81-5.44,24.84-5.44a53.12,53.12,0,0,1,18.27,2.89,27.83,27.83,0,0,1,12.48,8.52A21.24,21.24,0,0,1,877.87,203a24.87,24.87,0,0,1-1.54,9.13,23.12,23.12,0,0,1-4.17,6.85q-2.61,3-5.3,5.44t-5.31,4.77a22,22,0,0,0-4.16,4.7,10,10,0,0,0-1.54,5.5Zm11.95,35.45A15,15,0,0,1,833,270.7a13.46,13.46,0,0,1-4.23-9.94,13,13,0,0,1,4.23-9.87,15.38,15.38,0,0,1,10.95-4c4.56,0,8.26,1.32,11.07,4a13,13,0,0,1,4.23,9.87A13.46,13.46,0,0,1,855,270.7,15.11,15.11,0,0,1,843.9,274.86Z"/><path d="M71.53,712.42,37.15,617.08H63.2l28.53,82H79.15l29.77-82h23.57l28.71,82h-12l29.24-82h24.46l-34.56,95.34H141.71l-25.52-70.36h8L98.29,712.42Z"/><path d="M275.68,615.66A44.31,44.31,0,0,1,296,620.18,32.82,32.82,0,0,1,310.06,634q5.13,9.3,5.14,23.83v54.59H287.55V662.09q0-11.52-5.05-17t-14.26-5.5a24.33,24.33,0,0,0-11.79,2.84,19.85,19.85,0,0,0-8.15,8.33q-2.93,5.49-2.92,14.53v47.14H217.73V580.92h27.65v62.56l-6.21-8a35.3,35.3,0,0,1,14.71-14.71A45.32,45.32,0,0,1,275.68,615.66Z"/><path d="M388,713.83a55.43,55.43,0,0,1-26.85-6.38,49.56,49.56,0,0,1-18.52-68.13A47.25,47.25,0,0,1,361.18,622,56.19,56.19,0,0,1,388,615.66,57,57,0,0,1,415.14,622a47,47,0,0,1,18.61,17.37,48.29,48.29,0,0,1-18.61,68.13Q403.28,713.84,388,713.83Zm0-22.68a24.62,24.62,0,0,0,12.49-3.1,22.75,22.75,0,0,0,8.69-9.13,29.25,29.25,0,0,0,3.28-14.17,28.64,28.64,0,0,0-3.28-14.18,23,23,0,0,0-8.69-9,24.24,24.24,0,0,0-12.31-3.1,24.77,24.77,0,0,0-12.41,3.1,22.89,22.89,0,0,0-8.77,9,28.54,28.54,0,0,0-3.28,14.18A29.14,29.14,0,0,0,367,678.92a22.6,22.6,0,0,0,8.77,9.13A24.41,24.41,0,0,0,388,691.15Z"/><path d="M559,713.83q-15.42,0-27.38-6.29a49.15,49.15,0,0,1-18.78-68.14A48.36,48.36,0,0,1,531.66,622q12-6.39,27.38-6.38,15.06,0,26.32,6.29a36.51,36.51,0,0,1,16.21,17.81l-21.27,11.7a25.68,25.68,0,0,0-9.39-9.84,24.06,24.06,0,0,0-12-3.1,25.74,25.74,0,0,0-12.58,3.1,23.07,23.07,0,0,0-9,9,28,28,0,0,0-3.37,14.18A28.52,28.52,0,0,0,537.24,679a22.91,22.91,0,0,0,9,9,25.74,25.74,0,0,0,12.58,3.1,24.06,24.06,0,0,0,12-3.1,25.46,25.46,0,0,0,9.39-10l21.27,11.69a37.09,37.09,0,0,1-16.21,17.72Q574.1,713.84,559,713.83Z"/><path d="M649.06,713.83q-11,0-19-3.81a29.72,29.72,0,0,1-12.32-10.36A26.1,26.1,0,0,1,613.44,685a26.72,26.72,0,0,1,4.17-14.8q4.15-6.46,13.2-10t23.74-3.55h25.17v15.95H657.39q-9.75,0-13.38,3.19a10.19,10.19,0,0,0-3.63,8,10,10,0,0,0,4.16,8.42q4.17,3.09,11.26,3.1A25.18,25.18,0,0,0,668.47,692a17.41,17.41,0,0,0,7.88-9.75l4.26,12.94a25.16,25.16,0,0,1-11,13.73Q661.64,713.84,649.06,713.83Zm29.06-1.41V693.81l-1.77-4.08V656.42q0-8.86-5.4-13.83t-16.57-5a48.28,48.28,0,0,0-15,2.39,42.34,42.34,0,0,0-12.67,6.47L617,627.18a56,56,0,0,1,18.78-8.6,86.41,86.41,0,0,1,22.33-2.92q21.79,0,33.85,10.28T704,658v54.41Z"/><path d="M730.93,712.42V617.08h26.41v27.11l-3.73-8a30.65,30.65,0,0,1,13.65-15.32q9.39-5.24,22.86-5.23v25.69c-1.06-.23-2.1-.41-3.1-.53a27.08,27.08,0,0,0-2.93-.18q-11.69,0-18.6,6.56t-6.91,20.2v45Z"/><path d="M855,713.83q-16.31,0-28.53-6.38a46.47,46.47,0,0,1-25.7-42.7,49.67,49.67,0,0,1,6.47-25.35A45.53,45.53,0,0,1,825.3,622a54,54,0,0,1,26.14-6.29,52.71,52.71,0,0,1,25.25,6,45.26,45.26,0,0,1,17.81,17q6.56,11,6.56,26.4c0,1.06-.06,2.28-.18,3.63s-.24,2.63-.35,3.81H823.08V656.42H886l-10.81,4.78a25.21,25.21,0,0,0-2.83-12.94,22.05,22.05,0,0,0-8.33-8.59,24.13,24.13,0,0,0-12.4-3.1,24.64,24.64,0,0,0-12.5,3.1,21.71,21.71,0,0,0-8.42,8.68,27.44,27.44,0,0,0-3,13.21v4.25a26.08,26.08,0,0,0,3.55,13.82,23.33,23.33,0,0,0,9.74,9,33,33,0,0,0,14.89,3.1,35.25,35.25,0,0,0,13.2-2.3,32.81,32.81,0,0,0,10.55-6.91l14.7,15.95a42.84,42.84,0,0,1-16.48,11.43A61.17,61.17,0,0,1,855,713.83Z"/><path d="M953.51,713.83a91.91,91.91,0,0,1-23.39-2.92Q919,708,912.22,703.56l9-19.68a69.45,69.45,0,0,0,15.68,6.47,63.49,63.49,0,0,0,17.64,2.57q9.55,0,13.55-2.3c2.66-1.54,4-3.66,4-6.38a5.44,5.44,0,0,0-3.1-5,27.18,27.18,0,0,0-8.15-2.57q-5.05-.89-11.26-1.77a111.31,111.31,0,0,1-12.31-2.48A48,48,0,0,1,926,667.85a22.17,22.17,0,0,1-8.33-8.07q-3.11-5.13-3.1-13.29a25.8,25.8,0,0,1,5.31-16q5.32-7,15.07-10.9t23.56-3.9a92.44,92.44,0,0,1,19.94,2.21A61.48,61.48,0,0,1,995.33,624l-9.39,19.67a49.41,49.41,0,0,0-13.73-5.5,60.47,60.47,0,0,0-13.38-1.59q-9.57,0-13.82,2.48c-2.84,1.66-4.26,3.78-4.26,6.38a5.92,5.92,0,0,0,3.19,5.4,24.81,24.81,0,0,0,8.33,2.75q5.15.88,11.34,1.77a109.44,109.44,0,0,1,12.23,2.48,48.32,48.32,0,0,1,11.25,4.52,22.25,22.25,0,0,1,8.33,8.07c2.07,3.42,3.1,7.86,3.1,13.29a24.54,24.54,0,0,1-5.31,15.5q-5.33,6.82-15.33,10.72T953.51,713.83Z"/><path d="M1040.7,669.18a26.65,26.65,0,0,1,2-10.72,35.93,35.93,0,0,1,5.14-8.51,62.17,62.17,0,0,1,6.64-7q3.54-3.19,6.65-6.12a32.39,32.39,0,0,0,5.14-6.11,13.28,13.28,0,0,0,2-7.26,12.08,12.08,0,0,0-5.23-10.11q-5.23-3.89-13.74-3.89a31.72,31.72,0,0,0-15.15,3.45,30.06,30.06,0,0,0-10.72,9.66L1002.07,610a50.82,50.82,0,0,1,19.76-17.37q12.5-6.37,30.39-6.38a66.65,66.65,0,0,1,23.57,3.81q10.1,3.81,15.77,11.08t5.67,17.72a33,33,0,0,1-2.13,12.49,32.54,32.54,0,0,1-5.49,9.13,74.59,74.59,0,0,1-7.18,7.26q-3.81,3.38-7.17,6.56a32.07,32.07,0,0,0-5.5,6.73,15.65,15.65,0,0,0-2.12,8.16Zm13.47,44.65a16.32,16.32,0,0,1-12.05-4.78,15.5,15.5,0,0,1-4.79-11.34,14.87,14.87,0,0,1,4.79-11.26,16.85,16.85,0,0,1,12.05-4.51q7.62,0,12.31,4.51a15,15,0,0,1,4.7,11.26,15.65,15.65,0,0,1-4.7,11.34Q1061.78,713.84,1054.17,713.83Z"/></g></g></g></svg>