<svg xmlns="http://www.w3.org/2000/svg" viewBox="0 0 1235.45 876.54"><defs><style>.cls-1{fill:#211915;}.cls-2{fill:#99989d;}</style></defs><title>5</title><g id="Camada_2" data-name="Camada 2"><g id="Camada_1-2" data-name="Camada 1"><g id="quer_saber_" data-name="quer saber?"><path class="cls-1" d="M53.85,400,46.54,328.3l8.39-.86,53.4,54-4.4.45-6-58.86,10.24-1,7.31,71.65-8.39.86-53.4-54,4.4-.45,6,58.86Z" transform="translate(-46.54 -22.41)"></path><path class="cls-1" d="M164.46,389.28a29.32,29.32,0,0,1-14.85-2.1,26.56,26.56,0,0,1-11.09-8.85,27.91,27.91,0,0,1-5.14-13.9,27.51,27.51,0,0,1,2.23-14.66,26.85,26.85,0,0,1,9-10.8,29.14,29.14,0,0,1,14.17-5.06,29.64,29.64,0,0,1,14.85,2,26,26,0,0,1,11,8.75,30.22,30.22,0,0,1,2.93,28.66,26.33,26.33,0,0,1-9,10.85A29.22,29.22,0,0,1,164.46,389.28Zm-.87-8.59a18.76,18.76,0,0,0,9.12-3.31,16.85,16.85,0,0,0,5.82-7.37,21,21,0,0,0,1.32-10.33,20.49,20.49,0,0,0-3.38-9.84,16.94,16.94,0,0,0-7.17-5.94,18.88,18.88,0,0,0-9.61-1.4,18.5,18.5,0,0,0-9.08,3.31,17.72,17.72,0,0,0-5.87,7.27,19.84,19.84,0,0,0-1.43,10.33,20.32,20.32,0,0,0,3.48,9.84,17.58,17.58,0,0,0,7.24,6A18.53,18.53,0,0,0,163.59,380.69Z" transform="translate(-46.54 -22.41)"></path><path class="cls-1" d="M232.47,335.08l-.83-8.09,34.6-3.53.82,8.09Zm13.92,45.22-6-59.06q-.81-8,3.36-13.22t12.77-6.11a24,24,0,0,1,6.17.14,13.44,13.44,0,0,1,5.21,1.9l-2.21,7.78a11.3,11.3,0,0,0-3.67-1.54,12.82,12.82,0,0,0-4.16-.25q-4.3.44-6.31,3.08T250,320.36l.75,7.27.66,4.48,4.82,47.19Zm33-68.73a6.61,6.61,0,0,1-4.95-1.36,6.1,6.1,0,0,1-2.35-4.31,6.22,6.22,0,0,1,1.42-4.8,6.6,6.6,0,0,1,4.58-2.33,6.69,6.69,0,0,1,4.94,1.31,5.9,5.9,0,0,1,2.35,4.26,6.44,6.44,0,0,1-6,7.23Zm1.69,65.19-5.54-54.25,9.83-1,5.54,54.25Z" transform="translate(-46.54 -22.41)"></path><path class="cls-1" d="M377.55,311.58A25.38,25.38,0,0,1,389.38,313a18.3,18.3,0,0,1,8.63,7q3.35,4.94,4.16,12.92l3.19,31.22-9.83,1L392.46,335q-.81-7.89-4.9-11.5t-10.74-2.94a17.48,17.48,0,0,0-8.39,2.93,13.76,13.76,0,0,0-5.07,6.62,22.08,22.08,0,0,0-1,10.13l2.85,27.94-9.83,1-3.07-30.1q-.79-7.87-4.84-11.5t-10.8-2.93a17.28,17.28,0,0,0-8.29,2.91,14.1,14.1,0,0,0-5.11,6.63,21.67,21.67,0,0,0-1,10.13l2.85,27.95-9.82,1L309.74,319l9.42-1,1.47,14.43L318.72,329a18.56,18.56,0,0,1,7-9.09,25.22,25.22,0,0,1,12.08-4.24,23.4,23.4,0,0,1,13.8,2.48q6,3.25,8.55,10.86L356,327.74a20.49,20.49,0,0,1,7.57-10.91A26.93,26.93,0,0,1,377.55,311.58Z" transform="translate(-46.54 -22.41)"></path><path class="cls-1" d="M426.76,377.2l3-21.2,1.93,5.8a7,7,0,0,1-5.15-1.33,6.53,6.53,0,0,1-2.51-4.81,6.78,6.78,0,0,1,6.15-7.66,6.24,6.24,0,0,1,5,1.5,7.09,7.09,0,0,1,2.34,4.78,12.33,12.33,0,0,1,.05,2,19.25,19.25,0,0,1-.28,2.3c-.15.88-.4,2-.75,3.23l-3.36,14.72Z" transform="translate(-46.54 -22.41)"></path><path class="cls-1" d="M524.81,351.89l-1.17-11.47-.73-2.09-2-19.55q-.63-6.25-4.62-9.31T505,307.16a28.76,28.76,0,0,0-9.26,2.54,24.52,24.52,0,0,0-7.34,5.05l-4.85-7a29.79,29.79,0,0,1,9.56-6.19,42.19,42.19,0,0,1,12.15-3.06q11.16-1.12,17.75,3.67t7.73,16l3.34,32.76Zm-17.75,2.43a25.66,25.66,0,0,1-10.8-1,16.27,16.27,0,0,1-7.59-5,14.41,14.41,0,0,1-3.3-8,15.62,15.62,0,0,1,1.28-8.2,14.68,14.68,0,0,1,6.27-6.43q4.54-2.64,12.63-3.46l17.2-1.76.72,7.07-16.79,1.71q-7.37.75-9.68,3.47a8,8,0,0,0-1.95,6.2,7.67,7.67,0,0,0,3.83,6.07c2.27,1.39,5.29,1.89,9,1.51a18.78,18.78,0,0,0,9.43-3.45,14,14,0,0,0,5.25-7.77l2.64,6.55a15.36,15.36,0,0,1-6.08,8.33Q514.53,353.55,507.06,354.32Z" transform="translate(-46.54 -22.41)"></path><path class="cls-1" d="M613.43,340.57A29.59,29.59,0,0,1,599,338.68a27,27,0,0,1-13.57-35.75,25.26,25.26,0,0,1,8.89-10.16,29.62,29.62,0,0,1,13.74-4.71,28.43,28.43,0,0,1,13,1.52,21.51,21.51,0,0,1,10,7.71q4,5.49,4.93,14.39t-1.93,15a22.26,22.26,0,0,1-8.27,9.68A27.71,27.71,0,0,1,613.43,340.57Zm3.54,22.6a50.8,50.8,0,0,1-14.69-.62,30.13,30.13,0,0,1-12-4.83l3.94-8.05a28.14,28.14,0,0,0,9.84,4.22,35.81,35.81,0,0,0,11.76.71q9.62-1,13.67-6t3.1-14.17L631.39,323l-.07-10.85-1.62-10.8-1.52-14.84,9.32-.95,4.78,46.88q1.47,14.32-5,21.82T617,363.17Zm-3.29-31.31a20.16,20.16,0,0,0,9.39-3.24,17,17,0,0,0,6-6.92,18.91,18.91,0,0,0-1.88-18.42,16.56,16.56,0,0,0-7.23-5.52,20.54,20.54,0,0,0-9.85-1.22,20.78,20.78,0,0,0-9.45,3.19,16.55,16.55,0,0,0-6,6.87A19,19,0,0,0,596.48,325a16.89,16.89,0,0,0,7.29,5.57A20.61,20.61,0,0,0,613.68,331.86Z" transform="translate(-46.54 -22.41)"></path><path class="cls-1" d="M691.62,335.48a31.63,31.63,0,0,1-15.67-2,25.78,25.78,0,0,1-11.24-8.78,28.07,28.07,0,0,1-5.1-14A28.74,28.74,0,0,1,661.68,296a25.67,25.67,0,0,1,8.73-10.77,27.86,27.86,0,0,1,13.61-5,27.56,27.56,0,0,1,14.27,2.07,24.64,24.64,0,0,1,10.47,8.8,30.48,30.48,0,0,1,4.93,14.34q.06.62.09,1.44c0,.55,0,1.07,0,1.55l-46.17,4.71-.72-7.06L708,302l-3.74,2.87a18.48,18.48,0,0,0-3.1-9.1,16.55,16.55,0,0,0-6.85-5.77A19.41,19.41,0,0,0,676,291.83a16.3,16.3,0,0,0-5.59,7.09,19.6,19.6,0,0,0-1.28,9.69l.17,1.64a18.68,18.68,0,0,0,3.49,9.42,17.26,17.26,0,0,0,7.69,5.88,22,22,0,0,0,10.58,1.3,22.62,22.62,0,0,0,8.58-2.53,19.41,19.41,0,0,0,6.41-5.61l6.07,5.79a23.92,23.92,0,0,1-8.49,7.48A31.79,31.79,0,0,1,691.62,335.48Z" transform="translate(-46.54 -22.41)"></path><path class="cls-1" d="M759.05,272.65A25.85,25.85,0,0,1,771,274a18.52,18.52,0,0,1,8.73,7q3.39,4.93,4.21,12.91l3.19,31.22-9.83,1L774.26,296q-.81-7.87-5-11.48T758,281.65a19.31,19.31,0,0,0-8.9,3,14.1,14.1,0,0,0-5.37,6.65,21.27,21.27,0,0,0-1.09,10.14l2.86,27.95-9.83,1-5.54-54.25,9.42-1,1.5,14.63-1.94-3.73a18.93,18.93,0,0,1,7.35-9.13A27,27,0,0,1,759.05,272.65Z" transform="translate(-46.54 -22.41)"></path><path class="cls-1" d="M798.52,277.31l-.83-8.09,34.6-3.53.83,8.09Zm31.18,44.08q-8.19.84-13.14-3.1c-3.31-2.63-5.23-6.67-5.79-12.14l-5.08-49.74,9.83-1,5,49.34c.3,2.94,1.27,5.11,2.89,6.53A8.29,8.29,0,0,0,830,313a11.69,11.69,0,0,0,7.42-3.35l3.79,6.75a14.5,14.5,0,0,1-5.08,3.42A23.25,23.25,0,0,1,829.7,321.39Z" transform="translate(-46.54 -22.41)"></path><path class="cls-1" d="M881.39,316.12a31.78,31.78,0,0,1-15.67-2,26,26,0,0,1-11.24-8.79,28.12,28.12,0,0,1-5.09-14,28.76,28.76,0,0,1,2.07-14.69,25.65,25.65,0,0,1,8.72-10.77,27.92,27.92,0,0,1,13.62-4.95A27.45,27.45,0,0,1,888.07,263a24.79,24.79,0,0,1,10.47,8.81,30.51,30.51,0,0,1,4.93,14.33c0,.41.07.9.09,1.44s0,1.07,0,1.55l-46.16,4.72-.72-7.07,41.05-4.19L894,285.46a18.29,18.29,0,0,0-3.1-9.1A16.57,16.57,0,0,0,884,270.6a19.37,19.37,0,0,0-18.27,1.86,16.3,16.3,0,0,0-5.59,7.09,19.51,19.51,0,0,0-1.28,9.7l.16,1.63a18.69,18.69,0,0,0,3.5,9.42,17.38,17.38,0,0,0,7.68,5.89,22.25,22.25,0,0,0,10.58,1.3,22.8,22.8,0,0,0,8.59-2.53,19.31,19.31,0,0,0,6.4-5.62l6.08,5.79a24,24,0,0,1-8.5,7.49A32,32,0,0,1,881.39,316.12Z" transform="translate(-46.54 -22.41)"></path><path class="cls-1" d="M1020.89,245.92a25.4,25.4,0,0,1,11.83,1.38,18.33,18.33,0,0,1,8.62,7q3.35,4.93,4.16,12.92l3.19,31.22-9.83,1-3.07-30.09q-.81-7.87-4.9-11.5c-2.72-2.41-6.31-3.39-10.74-2.94a17.63,17.63,0,0,0-8.39,2.93,13.73,13.73,0,0,0-5.06,6.62,22.24,22.24,0,0,0-1,10.13l2.85,27.95-9.82,1-3.07-30.1q-.81-7.87-4.85-11.5T980,259a17.31,17.31,0,0,0-8.28,2.91,14.12,14.12,0,0,0-5.12,6.63,21.7,21.7,0,0,0-1,10.14l2.85,27.94-9.83,1-5.53-54.26,9.41-1L964,266.84l-1.91-3.53a18.59,18.59,0,0,1,7-9.1A25.1,25.1,0,0,1,981.17,250a23.29,23.29,0,0,1,13.8,2.47q6,3.26,8.56,10.86l-4.16-1.23a20.48,20.48,0,0,1,7.57-10.9A26.88,26.88,0,0,1,1020.89,245.92Z" transform="translate(-46.54 -22.41)"></path><path class="cls-1" d="M1096.66,294.15a31.76,31.76,0,0,1-15.67-2,25.87,25.87,0,0,1-11.24-8.79,28,28,0,0,1-5.1-14,28.76,28.76,0,0,1,2.07-14.69,25.67,25.67,0,0,1,8.73-10.77,27.89,27.89,0,0,1,13.61-4.95,27.51,27.51,0,0,1,14.28,2.06,24.7,24.7,0,0,1,10.46,8.81,30.3,30.3,0,0,1,4.93,14.34c0,.4.07.89.1,1.43s0,1.07,0,1.56l-46.17,4.71-.72-7.07,41-4.19-3.74,2.87a18.38,18.38,0,0,0-3.1-9.1,16.54,16.54,0,0,0-6.85-5.76,17.81,17.81,0,0,0-9.39-1.37,18.08,18.08,0,0,0-8.88,3.23,16.28,16.28,0,0,0-5.58,7.09,19.53,19.53,0,0,0-1.29,9.7l.17,1.63a18.77,18.77,0,0,0,3.49,9.42,17.28,17.28,0,0,0,7.69,5.89,22.23,22.23,0,0,0,10.58,1.3,22.8,22.8,0,0,0,8.58-2.53,19.34,19.34,0,0,0,6.41-5.62l6.07,5.79a23.86,23.86,0,0,1-8.49,7.49A32.15,32.15,0,0,1,1096.66,294.15Z" transform="translate(-46.54 -22.41)"></path><path class="cls-1" d="M1139,223.84a6.61,6.61,0,0,1-5-1.36,6.1,6.1,0,0,1-2.35-4.31,6.22,6.22,0,0,1,1.42-4.8,6.6,6.6,0,0,1,4.58-2.33,6.69,6.69,0,0,1,4.94,1.31,5.9,5.9,0,0,1,2.35,4.26,6.44,6.44,0,0,1-6,7.23Zm1.69,65.19-5.54-54.25,9.83-1,5.54,54.25Z" transform="translate(-46.54 -22.41)"></path><path class="cls-1" d="M1198.2,283.78a29.32,29.32,0,0,1-14.85-2.1,26.49,26.49,0,0,1-11.09-8.85,27.92,27.92,0,0,1-5.15-13.9,27.6,27.6,0,0,1,2.23-14.66,27,27,0,0,1,9-10.8,29.1,29.1,0,0,1,14.17-5.06,29.6,29.6,0,0,1,14.84,2.05,26.05,26.05,0,0,1,11,8.75,30.18,30.18,0,0,1,2.92,28.66,26.23,26.23,0,0,1-9,10.85A29.26,29.26,0,0,1,1198.2,283.78Zm-.88-8.59a18.83,18.83,0,0,0,9.13-3.31,16.76,16.76,0,0,0,5.81-7.37,21,21,0,0,0,1.33-10.33,20.6,20.6,0,0,0-3.39-9.84,16.94,16.94,0,0,0-7.17-5.94,18.87,18.87,0,0,0-9.61-1.4,18.46,18.46,0,0,0-9.07,3.31,17.74,17.74,0,0,0-5.88,7.27,20,20,0,0,0-1.43,10.33,20.33,20.33,0,0,0,3.49,9.84,17.49,17.49,0,0,0,7.23,6A18.53,18.53,0,0,0,1197.32,275.19Z" transform="translate(-46.54 -22.41)"></path><path class="cls-1" d="M376.71,461.39a28.34,28.34,0,0,1-14.43-2,25.71,25.71,0,0,1-10.77-8.73,28.83,28.83,0,0,1-5.06-14.17,28.46,28.46,0,0,1,2.1-14.85,25.77,25.77,0,0,1,8.79-10.67A28.41,28.41,0,0,1,371.06,406,25.61,25.61,0,0,1,384,407.8a21.87,21.87,0,0,1,9.7,8.32q3.84,5.81,4.79,15t-1.76,15.7A22.85,22.85,0,0,1,388.78,457,24.89,24.89,0,0,1,376.71,461.39Zm-.06-8.68a18.61,18.61,0,0,0,9-3.3,17.06,17.06,0,0,0,5.86-7.38,20.54,20.54,0,0,0,1.38-10.32,20.21,20.21,0,0,0-3.44-9.84,17.16,17.16,0,0,0-7.22-5.93,19.62,19.62,0,0,0-18.58,1.89,17.74,17.74,0,0,0-5.88,7.27,20,20,0,0,0-1.42,10.34,20.32,20.32,0,0,0,3.48,9.83,17.58,17.58,0,0,0,7.24,6A18.39,18.39,0,0,0,376.65,452.71Zm21,26-3.5-34.29-.26-12.7L392,419.19l-1.49-14.64,9.41-1,7.57,74.11Z" transform="translate(-46.54 -22.41)"></path><path class="cls-1" d="M452.56,453.65a27.82,27.82,0,0,1-12.49-1.31,18.42,18.42,0,0,1-9-7q-3.46-5-4.27-13l-3.19-31.21,9.83-1,3.07,30.1q.81,8,5.06,11.58t11.21,2.89a18.16,18.16,0,0,0,8.69-3,14.16,14.16,0,0,0,5.21-6.74,21.52,21.52,0,0,0,1.05-10l-2.87-28,9.83-1,5.54,54.25-9.32.95-1.49-14.63,1.93,3.73a19.08,19.08,0,0,1-7.13,9.21A24.22,24.22,0,0,1,452.56,453.65Z" transform="translate(-46.54 -22.41)"></path><path class="cls-1" d="M528.82,445.87a31.65,31.65,0,0,1-15.67-2,25.84,25.84,0,0,1-11.24-8.78,28,28,0,0,1-5.1-14,28.74,28.74,0,0,1,2.07-14.69,25.67,25.67,0,0,1,8.73-10.77,27.79,27.79,0,0,1,13.61-4.95,27.51,27.51,0,0,1,14.28,2.06A24.7,24.7,0,0,1,546,401.56a30.29,30.29,0,0,1,4.93,14.33c0,.41.07.89.1,1.44s0,1.07,0,1.55l-46.16,4.72-.73-7.07,41-4.19-3.74,2.87a18.38,18.38,0,0,0-3.1-9.1,16.47,16.47,0,0,0-6.85-5.76,19.37,19.37,0,0,0-18.27,1.86,16.28,16.28,0,0,0-5.58,7.09,19.6,19.6,0,0,0-1.29,9.69l.17,1.64a18.77,18.77,0,0,0,3.49,9.42,17.35,17.35,0,0,0,7.69,5.89,22.23,22.23,0,0,0,10.58,1.3,22.93,22.93,0,0,0,8.58-2.53,19.34,19.34,0,0,0,6.41-5.62l6.07,5.79a23.86,23.86,0,0,1-8.49,7.49A32.15,32.15,0,0,1,528.82,445.87Z" transform="translate(-46.54 -22.41)"></path><path class="cls-1" d="M601.17,458.55a25.84,25.84,0,0,1-6.59-.16,14.72,14.72,0,0,1-5.52-1.92l2.4-7.9a12.13,12.13,0,0,0,8.25,1.75,7.58,7.58,0,0,0,5.74-3q1.84-2.62,1.37-7.33L601,383.06l9.83-1,5.79,56.71q.84,8.28-3.11,13.6T601.17,458.55Zm3.69-86.43a6.61,6.61,0,0,1-5-1.36,6,6,0,0,1-2.35-4.31,6.18,6.18,0,0,1,1.42-4.8,6.6,6.6,0,0,1,4.57-2.33,6.72,6.72,0,0,1,5,1.31,5.91,5.91,0,0,1,2.34,4.26,6.42,6.42,0,0,1-6,7.23Z" transform="translate(-46.54 -22.41)"></path><path class="cls-1" d="M663.63,432.11a28,28,0,0,1-12.5-1.31,18.39,18.39,0,0,1-9-7q-3.46-5-4.28-13l-3.18-31.22,9.82-1,3.08,30.09q.81,8,5.06,11.59t11.2,2.89a18.2,18.2,0,0,0,8.7-3,14.14,14.14,0,0,0,5.2-6.74,21.52,21.52,0,0,0,1-10l-2.86-28,9.83-1,5.53,54.25-9.31.95L680.49,415l1.94,3.74a19.14,19.14,0,0,1-7.13,9.21A24.4,24.4,0,0,1,663.63,432.11Z" transform="translate(-46.54 -22.41)"></path><path class="cls-1" d="M739,368.46a25.7,25.7,0,0,1,12,1.36,18.37,18.37,0,0,1,8.73,7q3.4,4.92,4.22,12.91l3.18,31.22-9.82,1-3.08-30.09q-.79-7.87-5-11.48T738,377.46a19.31,19.31,0,0,0-8.9,3,14,14,0,0,0-5.38,6.65,21.41,21.41,0,0,0-1.08,10.14l2.85,27.94-9.83,1-5.53-54.26,9.42-1L721,385.6l-1.93-3.73a19,19,0,0,1,7.34-9.13A27,27,0,0,1,739,368.46Z" transform="translate(-46.54 -22.41)"></path><path class="cls-1" d="M778.51,373.12l-.82-8.09,34.59-3.53.83,8.09Zm31.18,44.08q-8.19.84-13.14-3.11T790.76,402l-5.07-49.74,9.82-1,5,49.34c.3,2.94,1.26,5.11,2.89,6.53a8.22,8.22,0,0,0,6.53,1.71,11.58,11.58,0,0,0,7.42-3.34l3.79,6.75a14.41,14.41,0,0,1-5.08,3.42A23.17,23.17,0,0,1,809.69,417.2Z" transform="translate(-46.54 -22.41)"></path><path class="cls-1" d="M872.68,410.15l-1.17-11.46-.73-2.1-2-19.55q-.64-6.24-4.62-9.3t-11.25-2.32a29,29,0,0,0-9.26,2.55,24.49,24.49,0,0,0-7.35,5l-4.84-6.95a29.71,29.71,0,0,1,9.55-6.2,42.35,42.35,0,0,1,12.15-3.05q11.16-1.14,17.76,3.67t7.73,16L882,409.2Zm-17.74,2.43a25.89,25.89,0,0,1-10.81-1,16.39,16.39,0,0,1-7.59-5,14.52,14.52,0,0,1-3.3-8,15.66,15.66,0,0,1,1.29-8.2A14.57,14.57,0,0,1,840.8,384q4.55-2.64,12.63-3.46l17.2-1.76.72,7.07-16.79,1.71q-7.37.75-9.68,3.47a8,8,0,0,0-2,6.2,7.64,7.64,0,0,0,3.82,6.07q3.42,2.09,9,1.51a18.7,18.7,0,0,0,9.42-3.44,14,14,0,0,0,5.26-7.78l2.64,6.56A15.37,15.37,0,0,1,867,408.5Q862.41,411.81,854.94,412.58Z" transform="translate(-46.54 -22.41)"></path><path class="cls-1" d="M926.52,358l-.82-8.09,34.6-3.53.82,8.09Zm31.19,44.08q-8.19.84-13.15-3.1t-5.78-12.13l-5.08-49.75,9.83-1,5,49.34c.3,2.93,1.26,5.11,2.89,6.52a8.21,8.21,0,0,0,6.54,1.72,11.63,11.63,0,0,0,7.41-3.34l3.79,6.75a14.52,14.52,0,0,1-5.08,3.41A22.84,22.84,0,0,1,957.71,402.09Z" transform="translate(-46.54 -22.41)"></path><path class="cls-1" d="M1008.48,396.91a29.31,29.31,0,0,1-14.85-2.1A26.49,26.49,0,0,1,982.54,386a27.92,27.92,0,0,1-5.15-13.9,27.6,27.6,0,0,1,2.23-14.66,27,27,0,0,1,9-10.8,29.1,29.1,0,0,1,14.17-5.06,29.51,29.51,0,0,1,14.84,2,26.05,26.05,0,0,1,11,8.75,30.18,30.18,0,0,1,2.92,28.66,26.23,26.23,0,0,1-9,10.85A29.26,29.26,0,0,1,1008.48,396.91Zm-.88-8.6a18.63,18.63,0,0,0,9.13-3.31,16.67,16.67,0,0,0,5.81-7.36,21,21,0,0,0,1.33-10.33,20.6,20.6,0,0,0-3.39-9.84,16.94,16.94,0,0,0-7.17-5.94,18.78,18.78,0,0,0-9.61-1.4,18.46,18.46,0,0,0-9.07,3.31,17.74,17.74,0,0,0-5.88,7.27A20,20,0,0,0,987.32,371a20.33,20.33,0,0,0,3.49,9.84,17.49,17.49,0,0,0,7.23,6A18.42,18.42,0,0,0,1007.6,388.31Z" transform="translate(-46.54 -22.41)"></path><path class="cls-1" d="M1078.29,389.79a28.41,28.41,0,0,1-14.43-2.05,25.49,25.49,0,0,1-10.77-8.72,31.3,31.3,0,0,1-3-29,25.62,25.62,0,0,1,8.79-10.67,28.41,28.41,0,0,1,13.71-4.92,25.16,25.16,0,0,1,12.7,1.81,22.53,22.53,0,0,1,9.8,8.31q3.94,5.79,4.89,15t-1.66,15.68a22.22,22.22,0,0,1-7.8,10.16A25.27,25.27,0,0,1,1078.29,389.79Zm-.06-8.68a18.54,18.54,0,0,0,9-3.3,17.08,17.08,0,0,0,5.87-7.38,20.79,20.79,0,0,0,1.38-10.33,20.28,20.28,0,0,0-3.44-9.83,17.26,17.26,0,0,0-7.22-5.94,18.62,18.62,0,0,0-9.51-1.4,18.36,18.36,0,0,0-9.07,3.3,17.74,17.74,0,0,0-5.88,7.27,19.84,19.84,0,0,0-1.43,10.33,20.22,20.22,0,0,0,3.49,9.84,17.49,17.49,0,0,0,7.23,6A18.42,18.42,0,0,0,1078.23,381.11Zm19.34,6.09-1.49-14.64-.67-12.65-2.31-12.49-3.69-36.13,9.83-1,7.75,75.95Z" transform="translate(-46.54 -22.41)"></path><path class="cls-1" d="M1164.92,380.33l-1.17-11.47-.73-2.1-2-19.55q-.65-6.24-4.62-9.3t-11.26-2.32a29,29,0,0,0-9.25,2.55,24.49,24.49,0,0,0-7.35,5l-4.84-6.95a29.76,29.76,0,0,1,9.55-6.2,42.51,42.51,0,0,1,12.15-3q11.16-1.14,17.75,3.67t7.73,16l3.35,32.76Zm-17.75,2.43a25.69,25.69,0,0,1-10.8-1,16.38,16.38,0,0,1-7.59-5,14.48,14.48,0,0,1-3.3-8,15.53,15.53,0,0,1,1.29-8.2,14.52,14.52,0,0,1,6.27-6.43c3-1.76,7.23-2.92,12.63-3.46l17.19-1.76.72,7.06-16.78,1.72q-7.38.75-9.68,3.47a8,8,0,0,0-2,6.19,7.69,7.69,0,0,0,3.83,6.08q3.42,2.08,9,1.51a18.74,18.74,0,0,0,9.42-3.45,14,14,0,0,0,5.26-7.78l2.63,6.56a15.34,15.34,0,0,1-6.08,8.33Q1154.65,382,1147.17,382.76Z" transform="translate(-46.54 -22.41)"></path><path class="cls-1" d="M1213.71,376a44.53,44.53,0,0,1-13-.53,30.43,30.43,0,0,1-10-3.53l3.3-8.2a33.79,33.79,0,0,0,9,3.12,34.42,34.42,0,0,0,10.61.57q6.86-.7,9.68-3a6.13,6.13,0,0,0,2.46-5.73,4.78,4.78,0,0,0-2.25-3.8,12.72,12.72,0,0,0-5.08-1.66c-2.06-.27-4.34-.46-6.83-.59s-5-.35-7.52-.68a29.51,29.51,0,0,1-7-1.77,12.87,12.87,0,0,1-5.36-3.9A13.61,13.61,0,0,1,1189,339a14,14,0,0,1,1.89-8.88,17.53,17.53,0,0,1,7.25-6.48,32.74,32.74,0,0,1,11.82-3.23,47.75,47.75,0,0,1,10.93.18,27,27,0,0,1,9.33,2.72l-3.4,8.21a23.24,23.24,0,0,0-8-2.6,35.18,35.18,0,0,0-8.07-.1q-6.45.65-9.41,3.08a6.29,6.29,0,0,0-2.63,5.69,5.12,5.12,0,0,0,2.33,4.06,13.75,13.75,0,0,0,5.15,1.8,62.48,62.48,0,0,0,6.85.7c2.49.12,5,.35,7.51.68a30,30,0,0,1,7,1.72,13,13,0,0,1,5.35,3.8,12.84,12.84,0,0,1,2.65,7.17,13.26,13.26,0,0,1-2,8.79,18.62,18.62,0,0,1-7.52,6.41A35.4,35.4,0,0,1,1213.71,376Z" transform="translate(-46.54 -22.41)"></path><path class="cls-1" d="M228.55,570.28a31.75,31.75,0,0,1-15.67-2,25.87,25.87,0,0,1-11.24-8.79,28,28,0,0,1-5.1-14,28.76,28.76,0,0,1,2.07-14.69,25.58,25.58,0,0,1,8.73-10.76,29.64,29.64,0,0,1,27.89-2.9A24.7,24.7,0,0,1,245.69,526a30.4,30.4,0,0,1,4.93,14.34c0,.4.07.89.09,1.43s0,1.07,0,1.56L204.55,548l-.72-7.07,41-4.19-3.74,2.87a18.38,18.38,0,0,0-3.1-9.1,16.6,16.6,0,0,0-6.85-5.76,17.81,17.81,0,0,0-9.39-1.37,18,18,0,0,0-8.88,3.23,16.37,16.37,0,0,0-5.59,7.09,19.64,19.64,0,0,0-1.28,9.7l.17,1.63a18.77,18.77,0,0,0,3.49,9.42,17.35,17.35,0,0,0,7.69,5.89,22.23,22.23,0,0,0,10.58,1.3,22.8,22.8,0,0,0,8.58-2.53A19.44,19.44,0,0,0,243,553.5l6.07,5.79a24,24,0,0,1-8.49,7.49A32.15,32.15,0,0,1,228.55,570.28Z" transform="translate(-46.54 -22.41)"></path><path class="cls-1" d="M288.22,564.19a44.45,44.45,0,0,1-13-.53,30.35,30.35,0,0,1-10-3.53l3.3-8.2a33.37,33.37,0,0,0,9,3.11,34.13,34.13,0,0,0,10.61.58q6.85-.71,9.68-3a6.16,6.16,0,0,0,2.47-5.73,4.83,4.83,0,0,0-2.25-3.8,12.78,12.78,0,0,0-5.08-1.66c-2.07-.27-4.34-.47-6.84-.59s-5-.35-7.52-.68a29.43,29.43,0,0,1-7-1.77,12.84,12.84,0,0,1-5.37-3.9,13.72,13.72,0,0,1-2.61-7.33,14.08,14.08,0,0,1,1.89-8.89,17.67,17.67,0,0,1,7.25-6.48,32.94,32.94,0,0,1,11.83-3.22,47.66,47.66,0,0,1,10.92.18,27,27,0,0,1,9.33,2.72l-3.4,8.21a23.19,23.19,0,0,0-8-2.6,35.27,35.27,0,0,0-8.08-.1q-6.45.65-9.41,3.08a6.26,6.26,0,0,0-2.62,5.69,5.08,5.08,0,0,0,2.32,4.06,13.82,13.82,0,0,0,5.15,1.8,62.48,62.48,0,0,0,6.85.7c2.49.12,5,.35,7.51.68a29.84,29.84,0,0,1,6.95,1.72,13,13,0,0,1,5.36,3.8,12.84,12.84,0,0,1,2.64,7.17,13.2,13.2,0,0,1-2,8.79,18.59,18.59,0,0,1-7.51,6.41A35.46,35.46,0,0,1,288.22,564.19Z" transform="translate(-46.54 -22.41)"></path><path class="cls-1" d="M345.13,558.38a44.45,44.45,0,0,1-13-.53,30.35,30.35,0,0,1-10-3.53l3.3-8.2a33.32,33.32,0,0,0,9,3.12,34.35,34.35,0,0,0,10.6.57q6.86-.7,9.68-2.95a6.16,6.16,0,0,0,2.47-5.74,4.83,4.83,0,0,0-2.25-3.8,12.62,12.62,0,0,0-5.08-1.65c-2.07-.27-4.34-.47-6.84-.6s-5-.35-7.51-.68a29.39,29.39,0,0,1-7-1.77,12.81,12.81,0,0,1-5.36-3.9,13.61,13.61,0,0,1-2.61-7.33,14,14,0,0,1,1.88-8.88A17.53,17.53,0,0,1,329.6,506a33.06,33.06,0,0,1,11.83-3.23,47.76,47.76,0,0,1,10.93.18,27,27,0,0,1,9.32,2.72l-3.4,8.21a23.41,23.41,0,0,0-8-2.6,35.84,35.84,0,0,0-8.08-.1q-6.45.66-9.41,3.08a6.28,6.28,0,0,0-2.62,5.69,5.09,5.09,0,0,0,2.33,4.06,13.7,13.7,0,0,0,5.14,1.8,60.36,60.36,0,0,0,6.85.7c2.5.12,5,.35,7.52.68a30.1,30.1,0,0,1,6.95,1.72,13.17,13.17,0,0,1,5.35,3.8,12.84,12.84,0,0,1,2.64,7.18,13.24,13.24,0,0,1-2,8.78,18.69,18.69,0,0,1-7.52,6.41A35.46,35.46,0,0,1,345.13,558.38Z" transform="translate(-46.54 -22.41)"></path><path class="cls-1" d="M420.1,550.11l-1.17-11.47-.73-2.09-2-19.55q-.63-6.25-4.62-9.31t-11.25-2.31a28.64,28.64,0,0,0-9.25,2.54,24.42,24.42,0,0,0-7.35,5l-4.85-7a29.92,29.92,0,0,1,9.56-6.2,42.51,42.51,0,0,1,12.15-3.05q11.16-1.12,17.75,3.67t7.73,16l3.35,32.76Zm-17.75,2.43a25.68,25.68,0,0,1-10.8-1,16.27,16.27,0,0,1-7.59-5,14.41,14.41,0,0,1-3.3-8,15.62,15.62,0,0,1,1.28-8.2,14.6,14.6,0,0,1,6.28-6.43q4.53-2.64,12.62-3.46l17.2-1.76.72,7.06L402,527.55q-7.37.75-9.67,3.47a8,8,0,0,0-2,6.2,7.67,7.67,0,0,0,3.83,6.07c2.28,1.39,5.29,1.89,9.05,1.51a18.77,18.77,0,0,0,9.42-3.45,14,14,0,0,0,5.26-7.77l2.63,6.55a15.39,15.39,0,0,1-6.08,8.33Q409.83,551.77,402.35,552.54Z" transform="translate(-46.54 -22.41)"></path><path class="cls-1" d="M468.89,545.75a44.52,44.52,0,0,1-13-.53,30.43,30.43,0,0,1-10-3.53l3.3-8.2a33.32,33.32,0,0,0,9,3.12,34.42,34.42,0,0,0,10.61.57q6.86-.7,9.67-2.95a6.13,6.13,0,0,0,2.47-5.74,4.78,4.78,0,0,0-2.25-3.8,12.57,12.57,0,0,0-5.08-1.65q-3.09-.4-6.84-.6c-2.49-.12-5-.35-7.51-.68a29.51,29.51,0,0,1-7-1.77,12.87,12.87,0,0,1-5.36-3.9,13.61,13.61,0,0,1-2.61-7.33,13.91,13.91,0,0,1,1.89-8.88,17.47,17.47,0,0,1,7.25-6.48,32.94,32.94,0,0,1,11.82-3.23,47.75,47.75,0,0,1,10.93.18,27,27,0,0,1,9.33,2.72L482,501.28a23.34,23.34,0,0,0-8-2.6,35.27,35.27,0,0,0-8.08-.1q-6.45.66-9.4,3.08a6.26,6.26,0,0,0-2.63,5.69,5.09,5.09,0,0,0,2.33,4.06,13.75,13.75,0,0,0,5.15,1.8,59.93,59.93,0,0,0,6.84.7c2.5.12,5,.35,7.52.68a30.1,30.1,0,0,1,6.95,1.72,13.1,13.1,0,0,1,5.35,3.8,12.92,12.92,0,0,1,2.65,7.18,13.3,13.3,0,0,1-2,8.78,18.69,18.69,0,0,1-7.52,6.41A35.4,35.4,0,0,1,468.89,545.75Z" transform="translate(-46.54 -22.41)"></path><path class="cls-1" d="M541.65,472.33A6.57,6.57,0,0,1,536.7,471a6.1,6.1,0,0,1-2.35-4.31,6.22,6.22,0,0,1,1.42-4.8,6.6,6.6,0,0,1,4.58-2.33,6.69,6.69,0,0,1,4.94,1.31,5.9,5.9,0,0,1,2.35,4.26,6.42,6.42,0,0,1-6,7.22Zm1.69,65.2-5.54-54.25,9.83-1,5.54,54.25Z" transform="translate(-46.54 -22.41)"></path><path class="cls-1" d="M600.91,476.32a25.85,25.85,0,0,1,12,1.36,18.52,18.52,0,0,1,8.73,7q3.39,4.94,4.21,12.91L629,528.79l-9.83,1-3.07-30.1q-.81-7.87-5-11.48t-11.21-2.89a19.42,19.42,0,0,0-8.9,3,14,14,0,0,0-5.37,6.65,21.29,21.29,0,0,0-1.09,10.14L587.36,533l-9.83,1L572,479.79l9.42-1,1.49,14.64L581,489.73a18.9,18.9,0,0,1,7.34-9.12A27,27,0,0,1,600.91,476.32Z" transform="translate(-46.54 -22.41)"></path><path class="cls-1" d="M640.38,481l-.83-8.09,34.6-3.53.82,8.09Zm13.92,45.23-6-59.07q-.81-8,3.36-13.22t12.77-6.11a23.94,23.94,0,0,1,6.17.15,13.18,13.18,0,0,1,5.21,1.9l-2.21,7.77a11.85,11.85,0,0,0-3.67-1.54,12.55,12.55,0,0,0-4.16-.24q-4.31.43-6.31,3.07t-1.53,7.34l.75,7.27.66,4.48,4.82,47.19Zm34.7-3.55-7.75-75.95,9.83-1,7.75,75.95Z" transform="translate(-46.54 -22.41)"></path><path class="cls-1" d="M746.08,517.46a27.88,27.88,0,0,1-12.5-1.31,18.39,18.39,0,0,1-9-7q-3.47-5-4.27-12.95L717.14,465l9.83-1,3.07,30.1q.81,8,5.06,11.58t11.2,2.89a18.2,18.2,0,0,0,8.7-3,14.16,14.16,0,0,0,5.2-6.73,21.58,21.58,0,0,0,1-10l-2.86-28,9.83-1L773.75,514l-9.31,1L763,500.33l1.93,3.73a19.08,19.08,0,0,1-7.13,9.21A24.3,24.3,0,0,1,746.08,517.46Z" transform="translate(-46.54 -22.41)"></path><path class="cls-1" d="M822.34,509.68a31.75,31.75,0,0,1-15.67-2,25.87,25.87,0,0,1-11.24-8.79,28,28,0,0,1-5.1-14,28.76,28.76,0,0,1,2.07-14.69,25.58,25.58,0,0,1,8.73-10.76,27.76,27.76,0,0,1,13.61-5A27.45,27.45,0,0,1,829,456.56a24.67,24.67,0,0,1,10.47,8.81,30.4,30.4,0,0,1,4.93,14.34c0,.4.07.88.09,1.43s0,1.07,0,1.56l-46.17,4.71-.72-7.07,41-4.19L834.93,479a18.38,18.38,0,0,0-3.1-9.1,16.53,16.53,0,0,0-6.85-5.76A19.37,19.37,0,0,0,806.71,466a16.3,16.3,0,0,0-5.59,7.09,19.62,19.62,0,0,0-1.28,9.69l.16,1.64a18.78,18.78,0,0,0,3.5,9.42,17.35,17.35,0,0,0,7.69,5.89,22.2,22.2,0,0,0,10.57,1.3,22.8,22.8,0,0,0,8.59-2.53,19.44,19.44,0,0,0,6.41-5.62l6.07,5.79a24,24,0,0,1-8.49,7.49A32.15,32.15,0,0,1,822.34,509.68ZM795.56,449l12.26-14.7,9.41-1,15,11.92-8.91.91-14.66-9.88,8.19-.84L804.47,448.1Z" transform="translate(-46.54 -22.41)"></path><path class="cls-1" d="M889.77,446.84a25.85,25.85,0,0,1,12,1.36,18.52,18.52,0,0,1,8.73,7q3.39,4.93,4.21,12.91l3.19,31.22-9.83,1L905,470.21q-.81-7.87-5.05-11.48t-11.21-2.89a19.42,19.42,0,0,0-8.9,3,14.1,14.1,0,0,0-5.37,6.65,21.17,21.17,0,0,0-1.08,10.14l2.85,27.95-9.83,1-5.54-54.25,9.42-1L871.76,464l-1.93-3.73a18.9,18.9,0,0,1,7.34-9.12A27,27,0,0,1,889.77,446.84Z" transform="translate(-46.54 -22.41)"></path><path class="cls-1" d="M965.44,495.07A30.19,30.19,0,0,1,950.28,493a26.53,26.53,0,0,1-11.19-8.79,29.82,29.82,0,0,1-2.92-28.66,26.09,26.09,0,0,1,9.18-10.81,30.61,30.61,0,0,1,14.43-5,28.9,28.9,0,0,1,13.46,1.57,20.77,20.77,0,0,1,9.83,7.73l-7,5.58a16.69,16.69,0,0,0-7.1-5.22,18.48,18.48,0,0,0-8.43-1.06,19.36,19.36,0,0,0-9.28,3.33,17.52,17.52,0,0,0-6,7.28,20,20,0,0,0-1.43,10.33,20.25,20.25,0,0,0,3.49,9.89,17.36,17.36,0,0,0,7.34,6,19.06,19.06,0,0,0,9.76,1.38,18.38,18.38,0,0,0,8-2.73,16.73,16.73,0,0,0,5.9-6.55l8,3.95a21.56,21.56,0,0,1-8.07,9.56A28.07,28.07,0,0,1,965.44,495.07Z" transform="translate(-46.54 -22.41)"></path><path class="cls-1" d="M1003.4,425.21a6.57,6.57,0,0,1-4.95-1.36,6,6,0,0,1-2.35-4.31,6.22,6.22,0,0,1,1.42-4.8,6.59,6.59,0,0,1,4.58-2.32,6.7,6.7,0,0,1,4.94,1.3,5.94,5.94,0,0,1,2.35,4.26,6.42,6.42,0,0,1-6,7.23Zm1.69,65.19-5.54-54.25,9.83-1,5.54,54.25Z" transform="translate(-46.54 -22.41)"></path><path class="cls-1" d="M1073,483.48,1071.78,472l-.73-2.09-2-19.55q-.64-6.25-4.62-9.31t-11.25-2.31a28.69,28.69,0,0,0-9.26,2.54,24.7,24.7,0,0,0-7.35,5l-4.84-7a29.85,29.85,0,0,1,9.55-6.19,41.86,41.86,0,0,1,12.15-3.05q11.16-1.14,17.75,3.67t7.74,16l3.34,32.76Zm-17.74,2.43a25.72,25.72,0,0,1-10.81-1,16.38,16.38,0,0,1-7.59-5,14.55,14.55,0,0,1-3.3-8,15.53,15.53,0,0,1,1.29-8.2,14.57,14.57,0,0,1,6.27-6.43q4.54-2.64,12.63-3.46l17.19-1.76.72,7.07-16.78,1.71q-7.38.75-9.68,3.47a8,8,0,0,0-2,6.2,7.66,7.66,0,0,0,3.82,6.07q3.42,2.08,9,1.51a18.7,18.7,0,0,0,9.42-3.45,14,14,0,0,0,5.26-7.77l2.63,6.55a15.26,15.26,0,0,1-6.08,8.33Q1062.68,485.15,1055.21,485.91Z" transform="translate(-46.54 -22.41)"></path><path class="cls-1" d="M1121.74,479.12a44.45,44.45,0,0,1-13-.53,30.35,30.35,0,0,1-10-3.53l3.3-8.2a33.37,33.37,0,0,0,9,3.12,34.42,34.42,0,0,0,10.61.57q6.86-.71,9.68-2.95a6.17,6.17,0,0,0,2.47-5.74,4.83,4.83,0,0,0-2.25-3.8,12.67,12.67,0,0,0-5.09-1.65q-3.09-.41-6.83-.6c-2.5-.12-5-.35-7.52-.68a29.43,29.43,0,0,1-7-1.77,12.67,12.67,0,0,1-5.37-3.9,13.61,13.61,0,0,1-2.61-7.33,14,14,0,0,1,1.89-8.88,17.53,17.53,0,0,1,7.25-6.48,32.94,32.94,0,0,1,11.82-3.23,47.75,47.75,0,0,1,10.93.18,27,27,0,0,1,9.33,2.72l-3.4,8.21a23.48,23.48,0,0,0-8-2.6,35.85,35.85,0,0,0-8.08-.1q-6.45.66-9.41,3.08a6.26,6.26,0,0,0-2.62,5.7,5.08,5.08,0,0,0,2.32,4,13.82,13.82,0,0,0,5.15,1.8,60.12,60.12,0,0,0,6.85.7c2.49.13,5,.35,7.51.68a30,30,0,0,1,7,1.72,13.2,13.2,0,0,1,5.36,3.8,12.87,12.87,0,0,1,2.64,7.18,13.23,13.23,0,0,1-2,8.79,18.71,18.71,0,0,1-7.51,6.4A35.24,35.24,0,0,1,1121.74,479.12Z" transform="translate(-46.54 -22.41)"></path><path class="cls-1" d="M1220.42,469.05a31.75,31.75,0,0,1-15.67-2,25.92,25.92,0,0,1-11.24-8.78,28.11,28.11,0,0,1-5.1-14,28.74,28.74,0,0,1,2.07-14.69,25.55,25.55,0,0,1,8.73-10.77,27.76,27.76,0,0,1,13.61-5,27.45,27.45,0,0,1,14.27,2.06,24.74,24.74,0,0,1,10.47,8.81,30.4,30.4,0,0,1,4.93,14.34q.06.62.09,1.44c0,.55,0,1.06,0,1.55l-46.17,4.71-.72-7.06,41-4.19-3.74,2.86a18.38,18.38,0,0,0-3.1-9.1,16.6,16.6,0,0,0-6.85-5.76,19.37,19.37,0,0,0-18.27,1.86,16.37,16.37,0,0,0-5.59,7.09,19.64,19.64,0,0,0-1.28,9.7l.17,1.64a18.67,18.67,0,0,0,3.49,9.41,17.21,17.21,0,0,0,7.69,5.89,22.08,22.08,0,0,0,10.57,1.3,22.8,22.8,0,0,0,8.59-2.53,19.33,19.33,0,0,0,6.41-5.62l6.07,5.79a23.85,23.85,0,0,1-8.49,7.49A32.15,32.15,0,0,1,1220.42,469.05Z" transform="translate(-46.54 -22.41)"></path><path class="cls-1" d="M158,605.26a6.57,6.57,0,0,1-5-1.36,6,6,0,0,1-2.35-4.31,6.18,6.18,0,0,1,1.42-4.8,6.59,6.59,0,0,1,4.57-2.32,6.71,6.71,0,0,1,4.95,1.3,5.93,5.93,0,0,1,2.34,4.26,6.41,6.41,0,0,1-6,7.23Zm1.69,65.19-5.54-54.25,9.83-1,5.54,54.25Z" transform="translate(-46.54 -22.41)"></path><path class="cls-1" d="M217.21,609.25a25.76,25.76,0,0,1,12,1.36,18.39,18.39,0,0,1,8.72,7q3.41,4.92,4.22,12.91l3.18,31.22-9.82,1-3.07-30.09q-.81-7.89-5.05-11.48t-11.21-2.89a19.3,19.3,0,0,0-8.9,3,14,14,0,0,0-5.37,6.66A21.27,21.27,0,0,0,200.81,638L203.66,666l-9.82,1-5.54-54.25,9.42-1,1.49,14.64-1.93-3.73a19,19,0,0,1,7.34-9.13A27,27,0,0,1,217.21,609.25Z" transform="translate(-46.54 -22.41)"></path><path class="cls-1" d="M284.8,658.3a44.52,44.52,0,0,1-13-.53,30.36,30.36,0,0,1-10-3.52l3.3-8.2a36.27,36.27,0,0,0,19.61,3.68q6.87-.69,9.68-3a6.14,6.14,0,0,0,2.47-5.73,4.78,4.78,0,0,0-2.25-3.81,12.62,12.62,0,0,0-5.08-1.65q-3.09-.4-6.84-.6c-2.49-.12-5-.35-7.51-.68a29,29,0,0,1-7-1.76,12.87,12.87,0,0,1-5.36-3.9,13.64,13.64,0,0,1-2.61-7.34,14,14,0,0,1,1.88-8.88,17.7,17.7,0,0,1,7.26-6.48,32.94,32.94,0,0,1,11.82-3.22,47.74,47.74,0,0,1,10.93.17,27.3,27.3,0,0,1,9.33,2.72l-3.41,8.21a23.11,23.11,0,0,0-8-2.59,35.27,35.27,0,0,0-8.08-.11q-6.45.66-9.4,3.08a6.29,6.29,0,0,0-2.63,5.7,5.09,5.09,0,0,0,2.33,4.05,13.41,13.41,0,0,0,5.15,1.8,57.75,57.75,0,0,0,6.84.7c2.5.13,5,.36,7.52.68a30.1,30.1,0,0,1,7,1.73,12,12,0,0,1,8,11,13.33,13.33,0,0,1-2,8.79,18.67,18.67,0,0,1-7.52,6.4A35,35,0,0,1,284.8,658.3Z" transform="translate(-46.54 -22.41)"></path><path class="cls-1" d="M328.11,673.33l-7.56-74.11,9.42-1,1.49,14.63.67,12.66L334.44,638l3.5,34.29Zm26.8-22.18a24.86,24.86,0,0,1-12.65-1.87,22.72,22.72,0,0,1-9.85-8.35q-4-5.8-4.9-15t1.66-15.69A21.83,21.83,0,0,1,337,600.12a25.64,25.64,0,0,1,12.23-4.35,28.36,28.36,0,0,1,14.48,2,25.78,25.78,0,0,1,10.71,8.68,31.34,31.34,0,0,1,3,29,25.68,25.68,0,0,1-8.73,10.72A28.43,28.43,0,0,1,354.91,651.15Zm-1.69-8.52a18.66,18.66,0,0,0,9.12-3.31,17.11,17.11,0,0,0,5.87-7.37,20.71,20.71,0,0,0,1.38-10.33,20.32,20.32,0,0,0-3.44-9.84,17.31,17.31,0,0,0-7.22-5.93,18.78,18.78,0,0,0-9.61-1.4,18.54,18.54,0,0,0-9,3.3,17.19,17.19,0,0,0-5.88,7.27A20.16,20.16,0,0,0,333,625.35a20.63,20.63,0,0,0,3.44,9.84,17,17,0,0,0,7.23,6A18.5,18.5,0,0,0,353.22,642.63Z" transform="translate(-46.54 -22.41)"></path><path class="cls-1" d="M399.84,580.58a6.6,6.6,0,0,1-4.95-1.36,6.11,6.11,0,0,1-2.36-4.31,6.23,6.23,0,0,1,1.43-4.8,6.58,6.58,0,0,1,4.57-2.33,6.72,6.72,0,0,1,4.94,1.3,5.91,5.91,0,0,1,2.35,4.27,6.44,6.44,0,0,1-6,7.23Zm1.68,65.19L396,591.52l9.82-1,5.54,54.26Z" transform="translate(-46.54 -22.41)"></path><path class="cls-1" d="M435.71,642.28,430.18,588l9.41-1,1.51,14.74-1.3-3.59a16.73,16.73,0,0,1,6.7-9.37,26.59,26.59,0,0,1,12.8-4.31l1,9.52a6.67,6.67,0,0,0-1.19,0l-1.07.11q-7.89.79-12,6t-3.22,14.08l2.76,27Z" transform="translate(-46.54 -22.41)"></path><path class="cls-1" d="M512.28,634.47,511.11,623l-.73-2.1-2-19.55q-.63-6.24-4.62-9.3t-11.25-2.32a29,29,0,0,0-9.26,2.55,24.32,24.32,0,0,0-7.34,5l-4.85-7a29.81,29.81,0,0,1,9.56-6.2,42.51,42.51,0,0,1,12.15-3q11.16-1.14,17.75,3.67t7.73,16l3.34,32.75Zm-17.75,2.43a25.66,25.66,0,0,1-10.8-1,16.27,16.27,0,0,1-7.59-5,14.41,14.41,0,0,1-3.3-8,15.62,15.62,0,0,1,1.28-8.2,14.6,14.6,0,0,1,6.28-6.43q4.53-2.64,12.62-3.47l17.2-1.75.72,7.06-16.79,1.72q-7.36.75-9.68,3.47a8,8,0,0,0-2,6.2,7.67,7.67,0,0,0,3.83,6.07q3.4,2.08,9,1.51a18.77,18.77,0,0,0,9.42-3.45,14,14,0,0,0,5.25-7.77l2.64,6.55a15.39,15.39,0,0,1-6.08,8.33Q502,636.14,494.53,636.9Z" transform="translate(-46.54 -22.41)"></path><path class="cls-1" d="M569.15,629.28A30.19,30.19,0,0,1,554,627.21a26.56,26.56,0,0,1-11.18-8.79,29.86,29.86,0,0,1-2.93-28.66A26,26,0,0,1,549.07,579a30.53,30.53,0,0,1,14.43-5A28.85,28.85,0,0,1,577,575.48a20.84,20.84,0,0,1,9.84,7.73l-7,5.58a16.75,16.75,0,0,0-7.1-5.22,18.5,18.5,0,0,0-8.44-1.06,19.32,19.32,0,0,0-9.27,3.33,17.44,17.44,0,0,0-6,7.28,19.84,19.84,0,0,0-1.43,10.33,20.15,20.15,0,0,0,3.49,9.89,17.34,17.34,0,0,0,7.33,6,19.07,19.07,0,0,0,9.76,1.38,18.42,18.42,0,0,0,8.05-2.73,16.81,16.81,0,0,0,5.9-6.55l8,4a21.56,21.56,0,0,1-8.07,9.56A28.12,28.12,0,0,1,569.15,629.28Zm-2.53,22.81a20.49,20.49,0,0,1-5-.06,16.8,16.8,0,0,1-4.37-1.26l1.64-5.24a13.15,13.15,0,0,0,3.46,1,15.45,15.45,0,0,0,3.67,0,7.09,7.09,0,0,0,4.24-1.52,3.62,3.62,0,0,0,1.08-3.16,3.56,3.56,0,0,0-1.68-2.78,7.43,7.43,0,0,0-4.56-.62l-2.77.29,1.54-10.3,5.63-.57-.94,6a10.21,10.21,0,0,1,6.93,2.08,8.45,8.45,0,0,1,.05,12.67Q572.34,651.5,566.62,652.09Z" transform="translate(-46.54 -22.41)"></path><path class="cls-1" d="M632,622.87a29.22,29.22,0,0,1-14.85-2.11,26.61,26.61,0,0,1-11.09-8.84A27.94,27.94,0,0,1,600.92,598a27.47,27.47,0,0,1,2.23-14.65,26.85,26.85,0,0,1,9-10.8,29.25,29.25,0,0,1,14.17-5.07,29.7,29.7,0,0,1,14.84,2,25.93,25.93,0,0,1,11,8.75A30.24,30.24,0,0,1,655.15,607a26.39,26.39,0,0,1-9,10.85A29.32,29.32,0,0,1,632,622.87Zm.63-63.78a9,9,0,0,1-4.46-.58,17.94,17.94,0,0,1-3.67-2,33.54,33.54,0,0,0-3.21-2.1,5,5,0,0,0-3-.74,4.51,4.51,0,0,0-3.46,2.06,8.2,8.2,0,0,0-1.11,4.82l-5.53.57q-.37-5.76,1.94-9.4a8.65,8.65,0,0,1,6.82-4.11,9,9,0,0,1,4.51.62,19.18,19.18,0,0,1,3.73,2.1c1.12.82,2.18,1.52,3.17,2.11a4.75,4.75,0,0,0,2.92.74,4.7,4.7,0,0,0,3.51-2,7,7,0,0,0,1.08-4.66l5.53-.56A14.15,14.15,0,0,1,639.5,555,8.81,8.81,0,0,1,632.63,559.09Zm-1.51,55.18a18.69,18.69,0,0,0,9.13-3.31,16.79,16.79,0,0,0,5.82-7.37,21,21,0,0,0,1.32-10.32,20.59,20.59,0,0,0-3.38-9.84,16.91,16.91,0,0,0-7.18-5.94,19.82,19.82,0,0,0-18.68,1.9,17.67,17.67,0,0,0-5.87,7.28A19.83,19.83,0,0,0,610.85,597a20.28,20.28,0,0,0,3.48,9.83,17.6,17.6,0,0,0,7.24,6A18.38,18.38,0,0,0,631.12,614.27Z" transform="translate(-46.54 -22.41)"></path><path class="cls-1" d="M703.55,615.57a31.78,31.78,0,0,1-15.67-2,25.89,25.89,0,0,1-11.24-8.78,28.12,28.12,0,0,1-5.09-14,28.76,28.76,0,0,1,2.07-14.69,25.65,25.65,0,0,1,8.72-10.77,27.92,27.92,0,0,1,13.61-5,27.48,27.48,0,0,1,14.28,2.06,24.79,24.79,0,0,1,10.47,8.81,30.51,30.51,0,0,1,4.93,14.33q.06.61.09,1.44c0,.55,0,1.07,0,1.55l-46.16,4.71-.72-7.06,41-4.19-3.74,2.87a18.29,18.29,0,0,0-3.1-9.1,16.5,16.5,0,0,0-6.84-5.76,19.37,19.37,0,0,0-18.27,1.86,16.3,16.3,0,0,0-5.59,7.09,19.63,19.63,0,0,0-1.29,9.7l.17,1.63a18.69,18.69,0,0,0,3.5,9.42,17.38,17.38,0,0,0,7.68,5.89,22.23,22.23,0,0,0,10.58,1.3,22.62,22.62,0,0,0,8.59-2.54,19.17,19.17,0,0,0,6.4-5.61l6.08,5.79a24,24,0,0,1-8.5,7.49A32.1,32.1,0,0,1,703.55,615.57Z" transform="translate(-46.54 -22.41)"></path><path class="cls-1" d="M763.23,609.47a44.18,44.18,0,0,1-13-.53,30.21,30.21,0,0,1-10-3.52l3.3-8.2a36.4,36.4,0,0,0,19.62,3.69q6.85-.7,9.68-3a6.13,6.13,0,0,0,2.46-5.73,4.78,4.78,0,0,0-2.25-3.8,12.72,12.72,0,0,0-5.08-1.66q-3.09-.4-6.83-.59c-2.5-.13-5-.35-7.52-.68a29.51,29.51,0,0,1-7-1.77,12.87,12.87,0,0,1-5.36-3.9,13.64,13.64,0,0,1-2.61-7.34,14,14,0,0,1,1.89-8.88,17.67,17.67,0,0,1,7.25-6.48,32.94,32.94,0,0,1,11.82-3.22,47.75,47.75,0,0,1,10.93.18,26.79,26.79,0,0,1,9.33,2.72l-3.4,8.2a23.44,23.44,0,0,0-8-2.59,35.76,35.76,0,0,0-8.07-.11q-6.45.66-9.41,3.08a6.29,6.29,0,0,0-2.63,5.7,5.13,5.13,0,0,0,2.33,4.06,13.75,13.75,0,0,0,5.15,1.8,62.55,62.55,0,0,0,6.84.7c2.5.12,5,.35,7.52.68A30,30,0,0,1,777,580a12,12,0,0,1,8,11,13.26,13.26,0,0,1-2,8.79,18.62,18.62,0,0,1-7.52,6.41A35.18,35.18,0,0,1,763.23,609.47Z" transform="translate(-46.54 -22.41)"></path><path class="cls-1" d="M861.9,599.4a31.66,31.66,0,0,1-15.67-2A25.81,25.81,0,0,1,835,588.6a28.07,28.07,0,0,1-5.1-14A28.74,28.74,0,0,1,832,560a25.65,25.65,0,0,1,8.72-10.77,27.92,27.92,0,0,1,13.62-4.95,27.45,27.45,0,0,1,14.27,2.06,24.83,24.83,0,0,1,10.47,8.8A30.48,30.48,0,0,1,884,569.43q.06.62.09,1.44c0,.55,0,1.07,0,1.55l-46.16,4.71-.72-7.06,41-4.19-3.75,2.87a18.29,18.29,0,0,0-3.1-9.1,16.6,16.6,0,0,0-6.84-5.77,19.41,19.41,0,0,0-18.27,1.87,16.3,16.3,0,0,0-5.59,7.09,19.49,19.49,0,0,0-1.28,9.69l.16,1.64a18.78,18.78,0,0,0,3.5,9.42,17.38,17.38,0,0,0,7.68,5.89,22.25,22.25,0,0,0,10.58,1.3,22.8,22.8,0,0,0,8.59-2.54,19.28,19.28,0,0,0,6.4-5.61l6.08,5.79a23.91,23.91,0,0,1-8.49,7.48A31.78,31.78,0,0,1,861.9,599.4Z" transform="translate(-46.54 -22.41)"></path><path class="cls-1" d="M926.63,545.53l-.82-8.08,34.59-3.53.83,8.08Zm31.18,44.09q-8.19.82-13.14-3.11t-5.79-12.13l-5.07-49.75,9.82-1,5,49.34q.45,4.39,2.89,6.53a8.22,8.22,0,0,0,6.53,1.71,11.63,11.63,0,0,0,7.42-3.34l3.79,6.75a14.25,14.25,0,0,1-5.08,3.41A22.83,22.83,0,0,1,957.81,589.62Z" transform="translate(-46.54 -22.41)"></path><path class="cls-1" d="M987.13,586l-5.54-54.25,9.42-1,1.5,14.74-1.3-3.59a16.81,16.81,0,0,1,6.7-9.37,26.77,26.77,0,0,1,12.8-4.31l1,9.52a7.66,7.66,0,0,0-1.18,0l-1.08.11q-7.87.81-12,6T994.2,558L997,585Z" transform="translate(-46.54 -22.41)"></path><path class="cls-1" d="M1063.69,578.19l-1.17-11.47-.73-2.09-2-19.55q-.65-6.24-4.62-9.31c-2.66-2-6.41-2.81-11.25-2.31a29,29,0,0,0-9.26,2.55,24.49,24.49,0,0,0-7.35,5l-4.84-6.95a29.71,29.71,0,0,1,9.55-6.2,42.18,42.18,0,0,1,12.15-3q11.16-1.14,17.75,3.67t7.74,16l3.34,32.76ZM1046,580.62a25.89,25.89,0,0,1-10.81-1,16.39,16.39,0,0,1-7.59-5,14.52,14.52,0,0,1-3.3-8,15.56,15.56,0,0,1,1.29-8.2,14.57,14.57,0,0,1,6.27-6.43q4.55-2.64,12.63-3.46l17.19-1.76.72,7.07-16.78,1.71q-7.38.75-9.68,3.47a8,8,0,0,0-2,6.2,7.64,7.64,0,0,0,3.82,6.07q3.42,2.08,9,1.51a18.7,18.7,0,0,0,9.42-3.44,14.07,14.07,0,0,0,5.26-7.78l2.63,6.56a15.32,15.32,0,0,1-6.08,8.32Q1053.42,579.86,1046,580.62Z" transform="translate(-46.54 -22.41)"></path><path class="cls-1" d="M1120.24,517.09a25.72,25.72,0,0,1,12,1.36,18.46,18.46,0,0,1,8.73,7q3.39,4.92,4.21,12.91l3.19,31.22-9.83,1-3.07-30.09q-.81-7.89-5-11.48t-11.21-2.89a19.3,19.3,0,0,0-8.9,3,14.15,14.15,0,0,0-5.37,6.65,21.33,21.33,0,0,0-1.09,10.15l2.86,27.94-9.83,1-5.54-54.25,9.42-1,1.49,14.64-1.93-3.73a19,19,0,0,1,7.34-9.13A27.06,27.06,0,0,1,1120.24,517.09Z" transform="translate(-46.54 -22.41)"></path><path class="cls-1" d="M1187.82,566.14a44.52,44.52,0,0,1-13-.53,30.21,30.21,0,0,1-10-3.53l3.3-8.19a36.28,36.28,0,0,0,19.62,3.68q6.86-.69,9.68-3a6.13,6.13,0,0,0,2.46-5.73,4.78,4.78,0,0,0-2.25-3.81,12.57,12.57,0,0,0-5.08-1.65q-3.09-.4-6.83-.6c-2.5-.12-5-.35-7.52-.68a29,29,0,0,1-7-1.76,12.87,12.87,0,0,1-5.36-3.9,13.64,13.64,0,0,1-2.61-7.34,14,14,0,0,1,1.89-8.88,17.6,17.6,0,0,1,7.25-6.48,32.74,32.74,0,0,1,11.82-3.22,47.74,47.74,0,0,1,10.93.17,27,27,0,0,1,9.33,2.72l-3.4,8.21a23.22,23.22,0,0,0-8-2.59,35.18,35.18,0,0,0-8.07-.11q-6.45.66-9.41,3.08a6.29,6.29,0,0,0-2.63,5.7,5.12,5.12,0,0,0,2.33,4,13.58,13.58,0,0,0,5.15,1.8,58,58,0,0,0,6.84.7q3.75.19,7.52.68a30,30,0,0,1,6.95,1.73,12,12,0,0,1,8,11,13.27,13.27,0,0,1-2,8.79,18.6,18.6,0,0,1-7.52,6.4A35,35,0,0,1,1187.82,566.14Z" transform="translate(-46.54 -22.41)"></path><path class="cls-1" d="M1223.19,537.81l-.86-8.49,27.53-2.81.87,8.49Z" transform="translate(-46.54 -22.41)"></path><path class="cls-1" d="M202.59,713.19l-.83-8.08,34.6-3.54.83,8.09Zm13.92,45.23-6-59.07q-.81-8,3.36-13.22T226.61,680a24.38,24.38,0,0,1,6.17.15,13.28,13.28,0,0,1,5.21,1.9l-2.21,7.77a11.75,11.75,0,0,0-3.67-1.54,12.55,12.55,0,0,0-4.16-.24c-2.87.29-5,1.32-6.31,3.07s-1.84,4.21-1.52,7.34l.74,7.27.66,4.49,4.82,47.18Z" transform="translate(-46.54 -22.41)"></path><path class="cls-1" d="M279.32,752.63a29.22,29.22,0,0,1-14.85-2.11,26.56,26.56,0,0,1-11.09-8.85,27.87,27.87,0,0,1-5.14-13.9,27.47,27.47,0,0,1,2.23-14.65,26.85,26.85,0,0,1,9-10.8,29.25,29.25,0,0,1,14.17-5.07,29.59,29.59,0,0,1,14.84,2,25.93,25.93,0,0,1,11,8.75,30.24,30.24,0,0,1,2.93,28.67,26.39,26.39,0,0,1-9,10.85A29.32,29.32,0,0,1,279.32,752.63Zm-.88-8.6a18.79,18.79,0,0,0,9.13-3.31,16.79,16.79,0,0,0,5.82-7.37A21,21,0,0,0,294.71,723a20.59,20.59,0,0,0-3.38-9.84,16.91,16.91,0,0,0-7.18-5.94,19.82,19.82,0,0,0-18.68,1.9,17.71,17.71,0,0,0-5.87,7.27,19.88,19.88,0,0,0-1.43,10.34,20.28,20.28,0,0,0,3.48,9.83,17.58,17.58,0,0,0,7.24,6A18.39,18.39,0,0,0,278.44,744Z" transform="translate(-46.54 -22.41)"></path><path class="cls-1" d="M326.65,747.18l-5.53-54.26,9.41-1L332,706.7l-1.3-3.59a16.76,16.76,0,0,1,6.7-9.37,26.59,26.59,0,0,1,12.8-4.3l1,9.52a6.71,6.71,0,0,0-1.19,0l-1.08.11q-7.87.81-12,6t-3.22,14.08l2.76,27Z" transform="translate(-46.54 -22.41)"></path><path class="cls-1" d="M435.81,680.7a25.38,25.38,0,0,1,11.83,1.38,18.28,18.28,0,0,1,8.62,7q3.35,4.94,4.17,12.92l3.18,31.22-9.83,1-3.07-30.09q-.79-7.89-4.89-11.5t-10.75-2.94a17.56,17.56,0,0,0-8.39,2.93,13.75,13.75,0,0,0-5.06,6.62,22.21,22.21,0,0,0-1,10.13l2.86,27.94-9.83,1-3.07-30.1q-.81-7.87-4.85-11.5T395,693.77a17.28,17.28,0,0,0-8.29,2.91,14.13,14.13,0,0,0-5.12,6.63,21.67,21.67,0,0,0-1,10.13l2.85,27.95-9.83,1L368,688.14l9.41-1,1.48,14.43L377,698.08a18.54,18.54,0,0,1,7-9.09,25.18,25.18,0,0,1,12.08-4.23,23.37,23.37,0,0,1,13.8,2.46q6,3.27,8.56,10.87l-4.16-1.23A20.47,20.47,0,0,1,421.87,686,26.89,26.89,0,0,1,435.81,680.7Z" transform="translate(-46.54 -22.41)"></path><path class="cls-1" d="M521,727.34l-1.17-11.47-.73-2.09-2-19.55q-.64-6.26-4.62-9.31t-11.25-2.31a28.69,28.69,0,0,0-9.26,2.54,24.7,24.7,0,0,0-7.35,5.05l-4.84-7a30,30,0,0,1,9.55-6.2,42.25,42.25,0,0,1,12.15-3q11.16-1.14,17.75,3.67t7.74,16l3.34,32.76Zm-17.74,2.43a25.72,25.72,0,0,1-10.81-1,16.38,16.38,0,0,1-7.59-5,14.55,14.55,0,0,1-3.3-8,15.55,15.55,0,0,1,1.29-8.2,14.57,14.57,0,0,1,6.27-6.43q4.55-2.64,12.63-3.46L519,696l.72,7.07-16.78,1.71q-7.38.75-9.68,3.47a8,8,0,0,0-2,6.2,7.66,7.66,0,0,0,3.82,6.07q3.42,2.09,9,1.51a18.7,18.7,0,0,0,9.42-3.45,14,14,0,0,0,5.26-7.77l2.63,6.56a15.32,15.32,0,0,1-6.08,8.32Q510.76,729,503.29,729.77Z" transform="translate(-46.54 -22.41)"></path><path class="cls-1" d="M616.48,662.26a25.35,25.35,0,0,1,11.82,1.38,18.3,18.3,0,0,1,8.63,7q3.35,4.93,4.16,12.92l3.19,31.22-9.83,1-3.07-30.09q-.81-7.87-4.9-11.5t-10.74-2.94a17.48,17.48,0,0,0-8.39,2.93,13.81,13.81,0,0,0-5.07,6.62,22.24,22.24,0,0,0-1,10.13l2.85,27.94-9.83,1-3.07-30.1q-.79-7.87-4.84-11.5t-10.8-2.93a17.39,17.39,0,0,0-8.29,2.91,14.16,14.16,0,0,0-5.11,6.63,21.69,21.69,0,0,0-1,10.14L564,723l-9.83,1-5.54-54.25,9.42-1,1.47,14.43-1.91-3.52a18.54,18.54,0,0,1,7-9.1,25.1,25.1,0,0,1,12.08-4.23,23.31,23.31,0,0,1,13.8,2.47q6,3.26,8.56,10.86L595,678.42a20.49,20.49,0,0,1,7.57-10.91A27,27,0,0,1,616.48,662.26Z" transform="translate(-46.54 -22.41)"></path><path class="cls-1" d="M691.32,710.58a29.22,29.22,0,0,1-14.85-2.11,26.61,26.61,0,0,1-11.09-8.84,27.94,27.94,0,0,1-5.14-13.91,27.47,27.47,0,0,1,2.23-14.65,26.85,26.85,0,0,1,9-10.8,29.25,29.25,0,0,1,14.17-5.07,29.7,29.7,0,0,1,14.84,2,25.88,25.88,0,0,1,11,8.76,30.22,30.22,0,0,1,2.93,28.66,26.33,26.33,0,0,1-9,10.85A29.32,29.32,0,0,1,691.32,710.58Zm-.88-8.6a18.69,18.69,0,0,0,9.13-3.31,16.74,16.74,0,0,0,5.82-7.37A21,21,0,0,0,706.71,681a20.59,20.59,0,0,0-3.38-9.84,16.91,16.91,0,0,0-7.18-5.94,18.72,18.72,0,0,0-9.6-1.4,18.5,18.5,0,0,0-9.08,3.31,17.72,17.72,0,0,0-5.87,7.27,19.84,19.84,0,0,0-1.43,10.33,20.28,20.28,0,0,0,3.48,9.83,17.53,17.53,0,0,0,7.24,6A18.38,18.38,0,0,0,690.44,702Z" transform="translate(-46.54 -22.41)"></path><path class="cls-1" d="M754.27,704.15a44.11,44.11,0,0,1-13-.53,30.36,30.36,0,0,1-10-3.52l3.3-8.2a36.22,36.22,0,0,0,19.61,3.68q6.86-.69,9.68-3a6.16,6.16,0,0,0,2.47-5.73,4.81,4.81,0,0,0-2.25-3.8,12.62,12.62,0,0,0-5.08-1.66c-2.07-.27-4.34-.47-6.84-.59s-5-.35-7.51-.68a29.39,29.39,0,0,1-7-1.77,12.81,12.81,0,0,1-5.36-3.9,13.64,13.64,0,0,1-2.61-7.34,14,14,0,0,1,1.88-8.88,17.67,17.67,0,0,1,7.25-6.48,33,33,0,0,1,11.83-3.22,47.76,47.76,0,0,1,10.93.18,26.8,26.8,0,0,1,9.32,2.72l-3.4,8.2a23.38,23.38,0,0,0-8-2.59,35.85,35.85,0,0,0-8.08-.11q-6.45.66-9.41,3.08a6.3,6.3,0,0,0-2.62,5.7,5.11,5.11,0,0,0,2.33,4.06,13.7,13.7,0,0,0,5.14,1.8,62.48,62.48,0,0,0,6.85.7q3.74.18,7.52.68a30.1,30.1,0,0,1,7,1.72,13.14,13.14,0,0,1,5.35,3.79,12.9,12.9,0,0,1,2.64,7.18,13.2,13.2,0,0,1-2,8.79,18.49,18.49,0,0,1-7.51,6.4A35,35,0,0,1,754.27,704.15Z" transform="translate(-46.54 -22.41)"></path><path class="cls-1" d="M827,630.74a6.57,6.57,0,0,1-4.95-1.36,6,6,0,0,1-2.35-4.31,6.18,6.18,0,0,1,1.42-4.8,6.59,6.59,0,0,1,4.57-2.32,6.71,6.71,0,0,1,4.95,1.3,5.93,5.93,0,0,1,2.34,4.26,6.41,6.41,0,0,1-6,7.23Zm1.69,65.19-5.54-54.25,9.83-1,5.54,54.25Z" transform="translate(-46.54 -22.41)"></path><path class="cls-1" d="M878.54,691.47a44.52,44.52,0,0,1-13-.53,30.21,30.21,0,0,1-10-3.53l3.3-8.19a36.28,36.28,0,0,0,19.62,3.68q6.86-.69,9.68-2.95a6.13,6.13,0,0,0,2.46-5.73,4.78,4.78,0,0,0-2.25-3.81,12.57,12.57,0,0,0-5.08-1.65q-3.09-.4-6.83-.6c-2.5-.12-5-.35-7.52-.68a29,29,0,0,1-7-1.76,12.87,12.87,0,0,1-5.36-3.9,13.64,13.64,0,0,1-2.61-7.34,14,14,0,0,1,1.89-8.88,17.6,17.6,0,0,1,7.25-6.48,32.74,32.74,0,0,1,11.82-3.22,47.74,47.74,0,0,1,10.93.17,27.23,27.23,0,0,1,9.33,2.72L891.68,647a23.11,23.11,0,0,0-8-2.59,35.76,35.76,0,0,0-8.07-.11q-6.45.66-9.41,3.08a6.29,6.29,0,0,0-2.63,5.7,5.12,5.12,0,0,0,2.33,4,13.76,13.76,0,0,0,5.15,1.81,60.29,60.29,0,0,0,6.84.69c2.5.13,5,.36,7.52.68a30,30,0,0,1,7,1.73,12,12,0,0,1,8,11,13.33,13.33,0,0,1-2,8.79,18.6,18.6,0,0,1-7.52,6.4A35,35,0,0,1,878.54,691.47Z" transform="translate(-46.54 -22.41)"></path><path class="cls-1" d="M935.45,685.66a44.11,44.11,0,0,1-13-.53,30.5,30.5,0,0,1-10-3.52l3.31-8.2a36.22,36.22,0,0,0,19.61,3.68q6.86-.69,9.68-3a6.16,6.16,0,0,0,2.47-5.73,4.81,4.81,0,0,0-2.25-3.8,12.67,12.67,0,0,0-5.09-1.66q-3.09-.41-6.83-.59c-2.5-.13-5-.35-7.52-.68a29.64,29.64,0,0,1-7-1.77,12.87,12.87,0,0,1-5.36-3.9,13.64,13.64,0,0,1-2.61-7.34,14.06,14.06,0,0,1,1.89-8.88,17.67,17.67,0,0,1,7.25-6.48,32.94,32.94,0,0,1,11.82-3.22,47.75,47.75,0,0,1,10.93.18A26.79,26.79,0,0,1,952,633l-3.4,8.2a23.45,23.45,0,0,0-8-2.59,35.85,35.85,0,0,0-8.08-.11q-6.45.66-9.41,3.08a6.31,6.31,0,0,0-2.63,5.7,5.15,5.15,0,0,0,2.33,4.06,13.82,13.82,0,0,0,5.15,1.8,60.24,60.24,0,0,0,6.85.69c2.49.13,5,.36,7.51.69a30,30,0,0,1,7,1.72,12,12,0,0,1,8,11,13.26,13.26,0,0,1-2,8.79,18.6,18.6,0,0,1-7.52,6.4A35,35,0,0,1,935.45,685.66Z" transform="translate(-46.54 -22.41)"></path><path class="cls-1" d="M1000,679.07a29.32,29.32,0,0,1-14.85-2.1,26.57,26.57,0,0,1-11.09-8.85,27.81,27.81,0,0,1-5.14-13.9,27.5,27.5,0,0,1,2.22-14.66,27,27,0,0,1,9-10.8,29.1,29.1,0,0,1,14.17-5.06,29.6,29.6,0,0,1,14.84,2,26.05,26.05,0,0,1,11,8.75,30.18,30.18,0,0,1,2.92,28.66,26.23,26.23,0,0,1-9,10.85A29.26,29.26,0,0,1,1000,679.07Zm-.88-8.6a18.63,18.63,0,0,0,9.13-3.31,16.67,16.67,0,0,0,5.81-7.36,20.91,20.91,0,0,0,1.33-10.33,20.6,20.6,0,0,0-3.39-9.84,16.94,16.94,0,0,0-7.17-5.94,18.87,18.87,0,0,0-9.61-1.4,18.46,18.46,0,0,0-9.07,3.31,17.74,17.74,0,0,0-5.88,7.27,20,20,0,0,0-1.43,10.33,20.25,20.25,0,0,0,3.49,9.83,17.4,17.4,0,0,0,7.24,6A18.37,18.37,0,0,0,999.16,670.47Z" transform="translate(-46.54 -22.41)"></path><path class="cls-1" d="M1103.91,612.52a25.7,25.7,0,0,1,12,1.36,18.41,18.41,0,0,1,8.73,7q3.39,4.92,4.21,12.91L1132,665l-9.83,1-3.07-30.09q-.8-7.87-5-11.48t-11.2-2.89a19.39,19.39,0,0,0-8.91,3,14.1,14.1,0,0,0-5.37,6.65,21.16,21.16,0,0,0-1.08,10.14l2.85,27.94-9.83,1L1075,616l9.41-1,1.5,14.64-1.94-3.73a19,19,0,0,1,7.35-9.13A27,27,0,0,1,1103.91,612.52Z" transform="translate(-46.54 -22.41)"></path><path class="cls-1" d="M1179.17,660.79a29.32,29.32,0,0,1-14.85-2.1,26.65,26.65,0,0,1-11.09-8.85,29.7,29.7,0,0,1-2.92-28.56,27,27,0,0,1,9-10.8,29.25,29.25,0,0,1,14.17-5.07,29.59,29.59,0,0,1,14.84,2.06,25.91,25.91,0,0,1,11,8.75,30.22,30.22,0,0,1,2.93,28.66,26.33,26.33,0,0,1-9,10.85A29.32,29.32,0,0,1,1179.17,660.79Zm-.88-8.6a18.73,18.73,0,0,0,9.13-3.31,16.65,16.65,0,0,0,5.81-7.37,22.87,22.87,0,0,0-2-20.16,16.91,16.91,0,0,0-7.18-5.94,18.72,18.72,0,0,0-9.6-1.4,18.5,18.5,0,0,0-9.08,3.31,17.74,17.74,0,0,0-5.88,7.27,19.85,19.85,0,0,0-1.42,10.33,20.28,20.28,0,0,0,3.48,9.83,17.53,17.53,0,0,0,7.24,6A18.38,18.38,0,0,0,1178.29,652.19Z" transform="translate(-46.54 -22.41)"></path><path class="cls-1" d="M1242.12,654.37a44.11,44.11,0,0,1-13-.54,30.13,30.13,0,0,1-10-3.52l3.3-8.2a33.72,33.72,0,0,0,9,3.11,34.11,34.11,0,0,0,10.61.58q6.85-.7,9.68-3a6.16,6.16,0,0,0,2.47-5.73,4.83,4.83,0,0,0-2.25-3.8,12.83,12.83,0,0,0-5.09-1.66q-3.09-.4-6.83-.59c-2.5-.13-5-.35-7.52-.68a29.43,29.43,0,0,1-7-1.77,12.84,12.84,0,0,1-5.37-3.9,13.64,13.64,0,0,1-2.61-7.34,14.06,14.06,0,0,1,1.89-8.88,17.67,17.67,0,0,1,7.25-6.48,32.94,32.94,0,0,1,11.82-3.22,47.75,47.75,0,0,1,10.93.18,26.79,26.79,0,0,1,9.33,2.72l-3.4,8.2a23.45,23.45,0,0,0-8-2.59,35.85,35.85,0,0,0-8.08-.11q-6.45.66-9.41,3.09a6.26,6.26,0,0,0-2.62,5.69,5.08,5.08,0,0,0,2.32,4.06,13.82,13.82,0,0,0,5.15,1.8,62.48,62.48,0,0,0,6.85.7c2.49.12,5,.35,7.51.68a30,30,0,0,1,7,1.72,13.1,13.1,0,0,1,5.36,3.8,12.84,12.84,0,0,1,2.64,7.17,13.26,13.26,0,0,1-2,8.79,18.66,18.66,0,0,1-7.51,6.41A35.52,35.52,0,0,1,1242.12,654.37Z" transform="translate(-46.54 -22.41)"></path><path class="cls-1" d="M137.59,804.9a25.34,25.34,0,0,1,11.82,1.38,18.25,18.25,0,0,1,8.63,7q3.35,4.93,4.16,12.92l3.19,31.22-9.83,1-3.07-30.09q-.81-7.87-4.9-11.5t-10.74-2.94a17.48,17.48,0,0,0-8.39,2.93,13.81,13.81,0,0,0-5.07,6.62,22.24,22.24,0,0,0-1,10.13l2.85,28-9.82,1-3.08-30.1q-.8-7.87-4.84-11.5c-2.7-2.41-6.29-3.39-10.8-2.93a17.39,17.39,0,0,0-8.29,2.91,14.16,14.16,0,0,0-5.11,6.63,21.69,21.69,0,0,0-1,10.14l2.86,27.94-9.83,1-5.54-54.25,9.42-1,1.47,14.43-1.91-3.52a18.54,18.54,0,0,1,7-9.1A25.1,25.1,0,0,1,97.87,809a23.29,23.29,0,0,1,13.8,2.47q6,3.26,8.56,10.86l-4.16-1.23a20.48,20.48,0,0,1,7.57-10.9A26.88,26.88,0,0,1,137.59,804.9Z" transform="translate(-46.54 -22.41)"></path><path class="cls-1" d="M222.81,851.54l-1.17-11.46-.73-2.1-2-19.55q-.63-6.24-4.62-9.3T203,806.81a28.91,28.91,0,0,0-9.25,2.55,24.24,24.24,0,0,0-7.35,5l-4.85-6.95a29.76,29.76,0,0,1,9.56-6.2,42.51,42.51,0,0,1,12.15-3q11.16-1.14,17.75,3.67t7.73,16l3.35,32.76ZM205.06,854a25.86,25.86,0,0,1-10.8-1,16.29,16.29,0,0,1-7.59-5,14.38,14.38,0,0,1-3.3-8,15.66,15.66,0,0,1,1.28-8.2,14.65,14.65,0,0,1,6.28-6.43q4.53-2.64,12.62-3.46l17.2-1.75.72,7.06L204.68,829q-7.37.75-9.67,3.47a8,8,0,0,0-2,6.2,7.65,7.65,0,0,0,3.83,6.07c2.28,1.39,5.29,1.89,9.05,1.51a18.77,18.77,0,0,0,9.42-3.44,14,14,0,0,0,5.26-7.78l2.63,6.56a15.32,15.32,0,0,1-6.08,8.32Q212.54,853.21,205.06,854Z" transform="translate(-46.54 -22.41)"></path><path class="cls-1" d="M254.29,783a6.57,6.57,0,0,1-4.95-1.35,6.12,6.12,0,0,1-2.36-4.32,6.19,6.19,0,0,1,1.43-4.79,6.56,6.56,0,0,1,4.57-2.33,6.68,6.68,0,0,1,4.94,1.3,5.91,5.91,0,0,1,2.35,4.26,6.42,6.42,0,0,1-6,7.23Zm1.69,65.2-5.54-54.26,9.83-1,5.53,54.25Z" transform="translate(-46.54 -22.41)"></path><path class="cls-1" d="M305.78,843.69a44.12,44.12,0,0,1-13-.53,30.12,30.12,0,0,1-10-3.53l3.3-8.19a36.27,36.27,0,0,0,19.61,3.68q6.86-.69,9.68-3a6.14,6.14,0,0,0,2.47-5.73,4.78,4.78,0,0,0-2.25-3.81,12.62,12.62,0,0,0-5.08-1.65q-3.09-.4-6.84-.6c-2.49-.12-5-.35-7.51-.68a29,29,0,0,1-7-1.76,12.81,12.81,0,0,1-5.36-3.9,13.64,13.64,0,0,1-2.61-7.34,14,14,0,0,1,1.88-8.88,17.67,17.67,0,0,1,7.25-6.48,33.06,33.06,0,0,1,11.83-3.22,47.74,47.74,0,0,1,10.93.17,27.24,27.24,0,0,1,9.32,2.72l-3.4,8.21a23.17,23.17,0,0,0-8-2.59,35.85,35.85,0,0,0-8.08-.11q-6.45.66-9.41,3.08a6.3,6.3,0,0,0-2.62,5.7,5.09,5.09,0,0,0,2.33,4.05,13.59,13.59,0,0,0,5.14,1.81,60.47,60.47,0,0,0,6.85.69c2.5.13,5,.36,7.52.68a30.62,30.62,0,0,1,6.95,1.73,12,12,0,0,1,8,11,13.34,13.34,0,0,1-2,8.79,18.67,18.67,0,0,1-7.52,6.4A35,35,0,0,1,305.78,843.69Z" transform="translate(-46.54 -22.41)"></path><path class="cls-1" d="M402.72,833.8a28.31,28.31,0,0,1-14.43-2A25.59,25.59,0,0,1,377.52,823a28.93,28.93,0,0,1-5.07-14.17A28.57,28.57,0,0,1,374.56,794a25.69,25.69,0,0,1,8.79-10.67,28.41,28.41,0,0,1,13.72-4.92,25.3,25.3,0,0,1,12.7,1.81,22.56,22.56,0,0,1,9.79,8.31q3.94,5.81,4.89,15t-1.65,15.69A22.21,22.21,0,0,1,415,829.39,25.23,25.23,0,0,1,402.72,833.8Zm-.06-8.68a18.54,18.54,0,0,0,9-3.3,17,17,0,0,0,5.87-7.38,20.54,20.54,0,0,0,1.38-10.32,20.32,20.32,0,0,0-3.44-9.84,17.16,17.16,0,0,0-7.22-5.93,19.62,19.62,0,0,0-18.58,1.89,17.81,17.81,0,0,0-5.88,7.27,20,20,0,0,0-1.43,10.34,20.29,20.29,0,0,0,3.49,9.83,17.45,17.45,0,0,0,7.24,6A18.37,18.37,0,0,0,402.66,825.12ZM422,831.21l-1.49-14.64-.67-12.65-2.31-12.49-3.69-36.13,9.83-1,7.75,76Z" transform="translate(-46.54 -22.41)"></path><path class="cls-1" d="M454,762.58a6.57,6.57,0,0,1-4.95-1.36,6,6,0,0,1-2.35-4.31,6.18,6.18,0,0,1,1.42-4.8,6.59,6.59,0,0,1,4.57-2.32,6.71,6.71,0,0,1,4.95,1.3,5.93,5.93,0,0,1,2.34,4.26,6.41,6.41,0,0,1-6,7.23Zm1.69,65.19-5.54-54.25,9.83-1,5.54,54.25Z" transform="translate(-46.54 -22.41)"></path><path class="cls-1" d="M477.37,778.92l-.82-8.09,34.6-3.53.82,8.08Zm13.93,45.22-6-59.06q-.81-8,3.36-13.22t12.77-6.11a24,24,0,0,1,6.17.14,13.34,13.34,0,0,1,5.21,1.9l-2.21,7.78A11.39,11.39,0,0,0,506.9,754a12.61,12.61,0,0,0-4.17-.25c-2.86.29-5,1.32-6.3,3.07s-1.85,4.21-1.53,7.35l.75,7.26.66,4.49,4.82,47.19Z" transform="translate(-46.54 -22.41)"></path><path class="cls-1" d="M555,818.25a31.66,31.66,0,0,1-15.67-2,25.89,25.89,0,0,1-11.24-8.78,28.06,28.06,0,0,1-5.09-14,28.86,28.86,0,0,1,2.06-14.69A25.67,25.67,0,0,1,533.82,768a27.92,27.92,0,0,1,13.61-4.95,27.48,27.48,0,0,1,14.28,2.06A24.79,24.79,0,0,1,572.18,774a30.4,30.4,0,0,1,4.92,14.33c0,.41.08.89.1,1.44s0,1.07,0,1.55L531,796l-.72-7.07,41-4.19-3.74,2.87a18.38,18.38,0,0,0-3.1-9.1,16.5,16.5,0,0,0-6.84-5.76,19.39,19.39,0,0,0-18.28,1.86,16.35,16.35,0,0,0-5.58,7.09,19.6,19.6,0,0,0-1.29,9.69l.17,1.64a18.69,18.69,0,0,0,3.5,9.42,17.38,17.38,0,0,0,7.68,5.89,22.23,22.23,0,0,0,10.58,1.3,22.52,22.52,0,0,0,8.58-2.54,19.1,19.1,0,0,0,6.41-5.61l6.08,5.79a23.86,23.86,0,0,1-8.5,7.48A32,32,0,0,1,555,818.25Z" transform="translate(-46.54 -22.41)"></path><path class="cls-1" d="M599.09,813.14l-5.54-54.25,9.42-1,1.5,14.74-1.3-3.6a16.8,16.8,0,0,1,6.7-9.37,26.73,26.73,0,0,1,12.8-4.3l1,9.52a6.69,6.69,0,0,0-1.19,0l-1.07.1q-7.89.81-12,6t-3.22,14.08l2.76,27Z" transform="translate(-46.54 -22.41)"></path><path class="cls-1" d="M669.67,806.55a31.61,31.61,0,0,1-15.66-2,25.78,25.78,0,0,1-11.24-8.78,28.07,28.07,0,0,1-5.1-14,28.74,28.74,0,0,1,2.07-14.69,25.67,25.67,0,0,1,8.73-10.77,27.85,27.85,0,0,1,13.61-5,27.45,27.45,0,0,1,14.27,2.06,24.67,24.67,0,0,1,10.47,8.81,30.4,30.4,0,0,1,4.93,14.33q.06.61.09,1.44c0,.55,0,1.07,0,1.55l-46.17,4.72-.72-7.07L686,773l-3.74,2.87a18.38,18.38,0,0,0-3.1-9.1,16.53,16.53,0,0,0-6.85-5.76,19.37,19.37,0,0,0-18.27,1.86,16.3,16.3,0,0,0-5.59,7.09,19.6,19.6,0,0,0-1.28,9.69l.16,1.64a18.78,18.78,0,0,0,3.5,9.42,17.35,17.35,0,0,0,7.69,5.89,22.19,22.19,0,0,0,10.57,1.3,22.8,22.8,0,0,0,8.59-2.54,19.3,19.3,0,0,0,6.41-5.61l6.07,5.79a23.82,23.82,0,0,1-8.49,7.48A32,32,0,0,1,669.67,806.55Z" transform="translate(-46.54 -22.41)"></path><path class="cls-1" d="M737.11,743.72a25.85,25.85,0,0,1,12,1.36,18.52,18.52,0,0,1,8.73,7Q761.21,757,762,765l3.19,31.22-9.83,1-3.07-30.1q-.81-7.87-5.05-11.48t-11.21-2.89a19.46,19.46,0,0,0-8.9,3,14.1,14.1,0,0,0-5.37,6.65,21.16,21.16,0,0,0-1.08,10.14l2.85,28-9.83,1-5.54-54.25,9.42-1,1.49,14.63-1.93-3.73a19,19,0,0,1,7.34-9.13A27.1,27.1,0,0,1,737.11,743.72Z" transform="translate(-46.54 -22.41)"></path><path class="cls-1" d="M776.58,748.38l-.83-8.09,34.6-3.53.82,8.09Zm31.18,44.08q-8.19.84-13.14-3.1t-5.79-12.13l-5.08-49.75,9.83-1,5,49.34c.3,2.94,1.27,5.11,2.89,6.53a8.25,8.25,0,0,0,6.54,1.72,11.69,11.69,0,0,0,7.42-3.35l3.79,6.75a14.5,14.5,0,0,1-5.08,3.42A23.25,23.25,0,0,1,807.76,792.46Z" transform="translate(-46.54 -22.41)"></path><path class="cls-1" d="M859.45,787.19a31.78,31.78,0,0,1-15.67-2,26,26,0,0,1-11.24-8.79,28.12,28.12,0,0,1-5.09-14,28.77,28.77,0,0,1,2.07-14.69A25.65,25.65,0,0,1,838.24,737a27.92,27.92,0,0,1,13.62-5,27.45,27.45,0,0,1,14.27,2.06,24.79,24.79,0,0,1,10.47,8.81,30.4,30.4,0,0,1,4.93,14.33c0,.41.07.9.09,1.44s0,1.07,0,1.56l-46.16,4.71-.72-7.07,41-4.18L872,756.53a18.29,18.29,0,0,0-3.1-9.1,16.5,16.5,0,0,0-6.84-5.76,17.86,17.86,0,0,0-9.4-1.37,18,18,0,0,0-8.87,3.23,16.3,16.3,0,0,0-5.59,7.09,19.53,19.53,0,0,0-1.28,9.7l.16,1.63a18.78,18.78,0,0,0,3.5,9.42,17.3,17.3,0,0,0,7.68,5.89,22.23,22.23,0,0,0,10.58,1.3,22.8,22.8,0,0,0,8.59-2.53,19.31,19.31,0,0,0,6.4-5.62L880,776.2a24,24,0,0,1-8.5,7.49A32,32,0,0,1,859.45,787.19Z" transform="translate(-46.54 -22.41)"></path><path class="cls-1" d="M919.13,781.1a44.52,44.52,0,0,1-13-.53,30.43,30.43,0,0,1-10-3.53l3.3-8.2A36.16,36.16,0,0,0,919,772.53q6.85-.71,9.68-3a6.13,6.13,0,0,0,2.46-5.73,4.78,4.78,0,0,0-2.25-3.8,12.72,12.72,0,0,0-5.08-1.66q-3.09-.4-6.83-.59c-2.5-.12-5-.35-7.52-.68a29.51,29.51,0,0,1-7-1.77,12.87,12.87,0,0,1-5.36-3.9,13.64,13.64,0,0,1-2.61-7.34,14.06,14.06,0,0,1,1.89-8.88,17.67,17.67,0,0,1,7.25-6.48,32.94,32.94,0,0,1,11.82-3.22,47.75,47.75,0,0,1,10.93.18,26.79,26.79,0,0,1,9.33,2.72l-3.4,8.21a23.24,23.24,0,0,0-8-2.6,35.76,35.76,0,0,0-8.07-.11q-6.45.66-9.41,3.08a6.31,6.31,0,0,0-2.63,5.7,5.12,5.12,0,0,0,2.33,4.06,13.75,13.75,0,0,0,5.15,1.8,62.55,62.55,0,0,0,6.84.7c2.5.12,5,.35,7.52.68a30,30,0,0,1,6.95,1.72,13,13,0,0,1,5.35,3.8,12.84,12.84,0,0,1,2.65,7.17,13.26,13.26,0,0,1-2,8.79,18.62,18.62,0,0,1-7.52,6.41A35.4,35.4,0,0,1,919.13,781.1Z" transform="translate(-46.54 -22.41)"></path><path class="cls-1" d="M993.58,772.88l-7.75-76,9.83-1,7.75,76Z" transform="translate(-46.54 -22.41)"></path><path class="cls-1" d="M1051.07,767.63a29.32,29.32,0,0,1-14.85-2.1,26.65,26.65,0,0,1-11.09-8.85,29.7,29.7,0,0,1-2.92-28.56,27,27,0,0,1,9-10.8,29.21,29.21,0,0,1,14.17-5.07,29.59,29.59,0,0,1,14.84,2.06,25.91,25.91,0,0,1,11,8.75,30.22,30.22,0,0,1,2.93,28.66,26.33,26.33,0,0,1-9,10.85A29.22,29.22,0,0,1,1051.07,767.63Zm-.88-8.6a18.73,18.73,0,0,0,9.13-3.31,16.65,16.65,0,0,0,5.81-7.37,22.87,22.87,0,0,0-2.05-20.16,16.91,16.91,0,0,0-7.18-5.94,18.72,18.72,0,0,0-9.6-1.4,18.5,18.5,0,0,0-9.08,3.31,17.74,17.74,0,0,0-5.88,7.27,20,20,0,0,0-1.42,10.33,20.28,20.28,0,0,0,3.48,9.83,17.53,17.53,0,0,0,7.24,6A18.38,18.38,0,0,0,1050.19,759Z" transform="translate(-46.54 -22.41)"></path><path class="cls-1" d="M1121.7,760.42a29.32,29.32,0,0,1-14.85-2.1,26.49,26.49,0,0,1-11.09-8.85,29.7,29.7,0,0,1-2.92-28.56,27,27,0,0,1,9-10.8,29.21,29.21,0,0,1,14.17-5.07,29.7,29.7,0,0,1,14.84,2.06,26,26,0,0,1,11,8.75,30.22,30.22,0,0,1,2.93,28.66,26.33,26.33,0,0,1-9,10.85A29.22,29.22,0,0,1,1121.7,760.42Zm-.88-8.6a18.63,18.63,0,0,0,9.13-3.31,16.67,16.67,0,0,0,5.81-7.36,20.91,20.91,0,0,0,1.33-10.33,20.6,20.6,0,0,0-3.39-9.84,16.94,16.94,0,0,0-7.17-5.94,18.76,18.76,0,0,0-9.61-1.4,18.46,18.46,0,0,0-9.07,3.31,17.74,17.74,0,0,0-5.88,7.27,20,20,0,0,0-1.43,10.33,20.25,20.25,0,0,0,3.49,9.83,17.47,17.47,0,0,0,7.24,6A18.37,18.37,0,0,0,1120.82,751.82Z" transform="translate(-46.54 -22.41)"></path><path class="cls-1" d="M1169,755l-7.75-76,9.82-1,7.75,76Zm6.65-13.92-1.09-12.61,28.31-31.74,11.87-1.21-21.55,26-4.86,5Zm34.8,9.69-24-24.24L1192,718l30.52,31.53Z" transform="translate(-46.54 -22.41)"></path><path class="cls-1" d="M1251.59,747.17a44.11,44.11,0,0,1-13-.54,30.13,30.13,0,0,1-10-3.52l3.3-8.2a33.72,33.72,0,0,0,9,3.11,34.13,34.13,0,0,0,10.61.58q6.86-.71,9.68-3a6.14,6.14,0,0,0,2.47-5.73,4.83,4.83,0,0,0-2.25-3.8,12.78,12.78,0,0,0-5.08-1.66c-2.07-.27-4.34-.47-6.84-.59s-5-.35-7.52-.68a29.43,29.43,0,0,1-7-1.77,12.81,12.81,0,0,1-5.36-3.9,13.64,13.64,0,0,1-2.61-7.34,14,14,0,0,1,1.88-8.88,17.67,17.67,0,0,1,7.25-6.48,33,33,0,0,1,11.83-3.22,47.76,47.76,0,0,1,10.93.18,26.8,26.8,0,0,1,9.32,2.72l-3.4,8.2a23.38,23.38,0,0,0-8-2.59,35.85,35.85,0,0,0-8.08-.11q-6.45.66-9.41,3.08a6.3,6.3,0,0,0-2.62,5.7,5.09,5.09,0,0,0,2.33,4.06,13.7,13.7,0,0,0,5.14,1.8,62.48,62.48,0,0,0,6.85.7q3.73.18,7.52.68a30.1,30.1,0,0,1,7,1.72,13.07,13.07,0,0,1,5.35,3.8,12.84,12.84,0,0,1,2.64,7.17,13.2,13.2,0,0,1-2,8.79,18.59,18.59,0,0,1-7.51,6.41A35.46,35.46,0,0,1,1251.59,747.17Z" transform="translate(-46.54 -22.41)"></path><path class="cls-1" d="M702.63,896.34l-1.17-11.47-.73-2.09-2-19.55q-.63-6.26-4.62-9.31c-2.65-2-6.41-2.81-11.25-2.31a28.76,28.76,0,0,0-9.26,2.54,24.52,24.52,0,0,0-7.34,5.05l-4.85-7a29.79,29.79,0,0,1,9.56-6.19,41.86,41.86,0,0,1,12.15-3q11.16-1.14,17.75,3.67t7.73,16l3.34,32.76Zm-17.75,2.43a25.66,25.66,0,0,1-10.8-1,16.27,16.27,0,0,1-7.59-5,14.41,14.41,0,0,1-3.3-8,15.64,15.64,0,0,1,1.28-8.2,14.65,14.65,0,0,1,6.28-6.43q4.53-2.64,12.62-3.46l17.2-1.76.72,7.07-16.79,1.71q-7.37.75-9.68,3.47a8,8,0,0,0-2,6.2,7.67,7.67,0,0,0,3.83,6.07q3.4,2.09,9,1.51a18.77,18.77,0,0,0,9.42-3.45,14,14,0,0,0,5.25-7.77l2.64,6.55a15.36,15.36,0,0,1-6.08,8.33Q692.35,898,684.88,898.77Z" transform="translate(-46.54 -22.41)"></path><path class="cls-1" d="M758.68,891.24a27.84,27.84,0,0,1-12.49-1.31,18.42,18.42,0,0,1-9-7q-3.45-5-4.27-13l-3.19-31.22,9.83-1,3.07,30.09q.83,8,5.06,11.59t11.21,2.89a18.16,18.16,0,0,0,8.69-3,14.18,14.18,0,0,0,5.21-6.73,21.58,21.58,0,0,0,1.05-10L771,834.54l9.82-1,5.54,54.25-9.32,1-1.49-14.63,1.93,3.73a19,19,0,0,1-7.13,9.21A24.32,24.32,0,0,1,758.68,891.24Z" transform="translate(-46.54 -22.41)"></path><path class="cls-1" d="M798.23,839.94l-.83-8.09,34.6-3.53.83,8.08ZM829.41,884q-8.19.84-13.14-3.11t-5.79-12.13L805.4,819l9.83-1,5,49.34q.45,4.39,2.89,6.53a8.21,8.21,0,0,0,6.53,1.71,11.61,11.61,0,0,0,7.42-3.34L840.9,879a14.25,14.25,0,0,1-5.08,3.41A22.92,22.92,0,0,1,829.41,884Z" transform="translate(-46.54 -22.41)"></path><path class="cls-1" d="M881.1,878.74a31.72,31.72,0,0,1-15.66-2,25.85,25.85,0,0,1-11.24-8.78,28.07,28.07,0,0,1-5.1-14,28.74,28.74,0,0,1,2.07-14.69,25.67,25.67,0,0,1,8.73-10.77,29.62,29.62,0,0,1,27.88-2.9,24.74,24.74,0,0,1,10.47,8.81,30.48,30.48,0,0,1,4.93,14.34q.06.62.09,1.44c0,.55,0,1.07,0,1.55l-46.17,4.71-.72-7.06,41.05-4.19-3.74,2.86a18.48,18.48,0,0,0-3.1-9.09,16.55,16.55,0,0,0-6.85-5.77,19.41,19.41,0,0,0-18.27,1.87,16.33,16.33,0,0,0-5.59,7.08,19.66,19.66,0,0,0-1.28,9.7l.16,1.64a18.78,18.78,0,0,0,3.5,9.42,17.26,17.26,0,0,0,7.69,5.88,21.94,21.94,0,0,0,10.57,1.3,22.62,22.62,0,0,0,8.59-2.53,19.33,19.33,0,0,0,6.41-5.62l6.07,5.8a24,24,0,0,1-8.49,7.48A32,32,0,0,1,881.1,878.74Zm-26.77-60.66,12.26-14.7,9.41-1,15,11.91-8.91.91-14.66-9.88,8.19-.83-12.36,12.64Z" transform="translate(-46.54 -22.41)"></path><path class="cls-1" d="M948.54,815.91a25.72,25.72,0,0,1,12,1.36,18.52,18.52,0,0,1,8.73,7q3.39,4.93,4.21,12.91l3.19,31.22-9.83,1-3.07-30.1q-.81-7.87-5-11.48t-11.21-2.89a19.31,19.31,0,0,0-8.9,3,14,14,0,0,0-5.37,6.65,21.27,21.27,0,0,0-1.09,10.14L935,872.62l-9.83,1-5.54-54.25,9.42-1,1.49,14.64-1.93-3.73a19,19,0,0,1,7.34-9.13A27.06,27.06,0,0,1,948.54,815.91Z" transform="translate(-46.54 -22.41)"></path><path class="cls-1" d="M988,820.57l-.83-8.09,34.6-3.53.82,8.09Zm31.18,44.08q-8.19.84-13.14-3.11c-3.31-2.62-5.23-6.67-5.79-12.13l-5.08-49.74,9.83-1,5,49.34c.3,2.94,1.27,5.11,2.89,6.53a8.29,8.29,0,0,0,6.54,1.72,11.64,11.64,0,0,0,7.41-3.35l3.8,6.75a14.45,14.45,0,0,1-5.09,3.42A23.1,23.1,0,0,1,1019.19,864.65Z" transform="translate(-46.54 -22.41)"></path><path class="cls-1" d="M1046.81,795.84a6.53,6.53,0,0,1-4.94-1.35,6.08,6.08,0,0,1-2.36-4.31,6.19,6.19,0,0,1,1.43-4.8,6.58,6.58,0,0,1,4.57-2.33,6.69,6.69,0,0,1,4.94,1.31,5.9,5.9,0,0,1,2.35,4.26,6.42,6.42,0,0,1-6,7.22Zm1.69,65.2L1043,806.79l9.82-1,5.54,54.26Z" transform="translate(-46.54 -22.41)"></path><path class="cls-1" d="M1106.4,855.75a30.3,30.3,0,0,1-15.16-2.07,26.59,26.59,0,0,1-11.19-8.79,29.89,29.89,0,0,1-2.92-28.66,26.13,26.13,0,0,1,9.19-10.82,30.75,30.75,0,0,1,14.43-5A29,29,0,0,1,1114.2,802a20.84,20.84,0,0,1,9.84,7.73l-7,5.58A16.81,16.81,0,0,0,1110,810a18.37,18.37,0,0,0-8.44-1.06,19.16,19.16,0,0,0-9.28,3.33,17.52,17.52,0,0,0-6,7.28,22.19,22.19,0,0,0,2.07,20.22,17.41,17.41,0,0,0,7.33,6,19.18,19.18,0,0,0,9.76,1.38,18.55,18.55,0,0,0,8-2.73,16.81,16.81,0,0,0,5.9-6.55l8,4a21.63,21.63,0,0,1-8.08,9.56A28.07,28.07,0,0,1,1106.4,855.75Z" transform="translate(-46.54 -22.41)"></path><path class="cls-1" d="M1169.25,849.34a29.22,29.22,0,0,1-14.85-2.11,26.49,26.49,0,0,1-11.09-8.85,29.7,29.7,0,0,1-2.92-28.56,27,27,0,0,1,9-10.79A29.21,29.21,0,0,1,1163.6,794a29.59,29.59,0,0,1,14.84,2,26,26,0,0,1,11,8.75,30.24,30.24,0,0,1,2.93,28.67,26.39,26.39,0,0,1-9,10.85A29.32,29.32,0,0,1,1169.25,849.34Zm-.88-8.6a18.83,18.83,0,0,0,9.13-3.31,16.7,16.7,0,0,0,5.81-7.37,20.88,20.88,0,0,0,1.33-10.32,20.6,20.6,0,0,0-3.39-9.84,16.81,16.81,0,0,0-7.17-5.94,18.64,18.64,0,0,0-9.61-1.4,18.36,18.36,0,0,0-9.07,3.3,17.81,17.81,0,0,0-5.88,7.27,19.88,19.88,0,0,0-1.42,10.34,20.28,20.28,0,0,0,3.48,9.83,17.58,17.58,0,0,0,7.24,6A18.39,18.39,0,0,0,1168.37,840.74Z" transform="translate(-46.54 -22.41)"></path><path class="cls-1" d="M1232.2,842.91a44.45,44.45,0,0,1-13-.53,30.12,30.12,0,0,1-10-3.53l3.3-8.19a36.22,36.22,0,0,0,19.61,3.68q6.85-.69,9.68-3a6.16,6.16,0,0,0,2.47-5.73,4.83,4.83,0,0,0-2.25-3.81,12.67,12.67,0,0,0-5.09-1.65q-3.09-.41-6.83-.6c-2.5-.12-5-.35-7.52-.68a29.91,29.91,0,0,1-7-1.76,12.84,12.84,0,0,1-5.37-3.9,13.64,13.64,0,0,1-2.61-7.34,14,14,0,0,1,1.89-8.88,17.53,17.53,0,0,1,7.25-6.48,32.74,32.74,0,0,1,11.82-3.22,47.18,47.18,0,0,1,10.93.17,27,27,0,0,1,9.33,2.72l-3.4,8.21a23.24,23.24,0,0,0-8-2.59,35.28,35.28,0,0,0-8.08-.11q-6.45.66-9.41,3.08a6.27,6.27,0,0,0-2.62,5.7,5.08,5.08,0,0,0,2.32,4.05,13.64,13.64,0,0,0,5.15,1.8,57.93,57.93,0,0,0,6.85.7c2.49.13,5,.35,7.51.68a30.35,30.35,0,0,1,7,1.72,13.2,13.2,0,0,1,5.36,3.8,12.9,12.9,0,0,1,2.64,7.18,13.23,13.23,0,0,1-2,8.79,18.57,18.57,0,0,1-7.51,6.4A35,35,0,0,1,1232.2,842.91Z" transform="translate(-46.54 -22.41)"></path><path class="cls-1" d="M1275.91,838.45a6.93,6.93,0,0,1-7.68-6.35,6.66,6.66,0,0,1,1.53-5.23,6.92,6.92,0,0,1,4.72-2.44,6.59,6.59,0,0,1,5,1.46,6.7,6.7,0,0,1,2.51,4.81,6.88,6.88,0,0,1-1.48,5.27A6.51,6.51,0,0,1,1275.91,838.45Z" transform="translate(-46.54 -22.41)"></path><g id="E_QUER_SABER" data-name="E QUER SABER"><path class="cls-2" d="M131.14,221l51.93-5.26,1.8,17.72L111,241l-9.67-95.41,72.11-7.31,1.8,17.72-50.16,5.08Zm-5.63-39.23,45.94-4.65,1.75,17.31-45.93,4.65Z" transform="translate(-46.54 -22.41)"></path><path class="cls-2" d="M287.4,224.76a57.46,57.46,0,0,1-21.09-1.59,50.53,50.53,0,0,1-17.68-8.67,47,47,0,0,1-12.56-14.56,52,52,0,0,1-4-39.33,47.06,47.06,0,0,1,9.39-16.72,50.88,50.88,0,0,1,15.51-12,57.22,57.22,0,0,1,20.41-5.78,58.27,58.27,0,0,1,21.16,1.5,50,50,0,0,1,17.6,8.62,47,47,0,0,1,12.56,14.56,52.29,52.29,0,0,1,4,39.46,46.94,46.94,0,0,1-9.38,16.86,50,50,0,0,1-15.52,12A58.48,58.48,0,0,1,287.4,224.76Zm-1.89-18.68a30.45,30.45,0,0,0,11.56-3.44,29.27,29.27,0,0,0,8.83-7.3A28.45,28.45,0,0,0,311.25,185a35.36,35.36,0,0,0-2.5-24.74,28.88,28.88,0,0,0-7.32-9,29.23,29.23,0,0,0-10.12-5.38,30.37,30.37,0,0,0-12-1.06,31.08,31.08,0,0,0-11.64,3.45,28.47,28.47,0,0,0-8.83,7.3,29.59,29.59,0,0,0-5.29,10.31,35.32,35.32,0,0,0,2.51,24.74,29.18,29.18,0,0,0,7.26,9.12A28.3,28.3,0,0,0,273.42,205,30.86,30.86,0,0,0,285.51,206.08Zm35.16,35.82a41.74,41.74,0,0,1-10.69-.22,41.18,41.18,0,0,1-10.22-3A60.05,60.05,0,0,1,289,232.38q-5.65-4-12.74-10.21L299,213.94a61.71,61.71,0,0,0,7.63,7.36,22.14,22.14,0,0,0,6.51,3.68,15.34,15.34,0,0,0,6.33.66q8.71-.88,14.81-8.8l11,10.73Q336.76,240.27,320.67,241.9Z" transform="translate(-46.54 -22.41)"></path><path class="cls-2" d="M398.63,213.49q-20.31,2.06-32.91-8.1T351,174.11l-5.4-53.3,22.22-2.25,5.34,52.76q1.37,13.49,7.57,19t16.15,4.49q10.1-1,15.06-7.65T415.54,167l-5.34-52.75,21.67-2.2,5.4,53.3q2.14,21.13-8.16,33.6T398.63,213.49Z" transform="translate(-46.54 -22.41)"></path><path class="cls-2" d="M483.63,185.32l51.94-5.26,1.79,17.72-73.88,7.49-9.66-95.42,72.1-7.3,1.8,17.72-50.16,5.08ZM478,146.1l45.93-4.66,1.76,17.31-45.94,4.66Z" transform="translate(-46.54 -22.41)"></path><path class="cls-2" d="M554.94,196l-9.66-95.42,41.3-4.18q12.81-1.29,22.5,1.92A32.49,32.49,0,0,1,624.6,108.8a33.2,33.2,0,0,1,6.91,17.89q1.1,10.77-3.17,19a31.72,31.72,0,0,1-13.13,13.17q-8.87,5-21.67,6.26l-29.17,3,9.12-10.57,3.67,36.26ZM573.74,160l-11.15-9.48,27.94-2.83q10.08-1,14.83-5.91t3.93-12.79q-.79-7.91-6.41-11.67t-15.7-2.75l-27.95,2.83,9-11.52Zm42,29.89-27.5-32.19,23.72-2.4,27.5,32.19Z" transform="translate(-46.54 -22.41)"></path><path class="cls-2" d="M725.36,180.39a78.79,78.79,0,0,1-22.33-.83q-10.87-2-17.78-6.26l5.82-17.39a52.3,52.3,0,0,0,15.17,5.69,54,54,0,0,0,17.32,1.07A33.87,33.87,0,0,0,734,160.24a13.13,13.13,0,0,0,5.56-4.21,7.94,7.94,0,0,0,1.38-5.45,7.25,7.25,0,0,0-3.62-5.76A24.88,24.88,0,0,0,729,142q-5.13-.93-11.11-1.63t-12.11-1.94a48,48,0,0,1-11.41-3.8,23.24,23.24,0,0,1-8.72-7.24q-3.43-4.68-4.19-12.18a27.12,27.12,0,0,1,2.85-15.37q3.68-7.19,12.2-12.11t22-6.29a73.8,73.8,0,0,1,18,.38,53,53,0,0,1,16,4.71l-5.26,17.34a56.14,56.14,0,0,0-13.78-4.19,50.91,50.91,0,0,0-13.28-.51,31.45,31.45,0,0,0-10.35,2.5,12.22,12.22,0,0,0-5.4,4.47,8.87,8.87,0,0,0-1.28,5.64,7.38,7.38,0,0,0,3.62,5.83,22.09,22.09,0,0,0,8.27,2.81q5,.8,11.16,1.48a123.33,123.33,0,0,1,12.19,2,53.56,53.56,0,0,1,11.26,3.75,22.34,22.34,0,0,1,13.09,19.13,26.25,26.25,0,0,1-2.94,15.17Q756,169,747.43,174T725.36,180.39Z" transform="translate(-46.54 -22.41)"></path><path class="cls-2" d="M768.13,174.41,800.85,74.7l21.81-2.21,52.47,91.08L852,165.92,808.39,85.23l8.86-.9-26.5,87.79Zm19.33-22.62,3.89-17.33,49.34-5,7.42,16.19Z" transform="translate(-46.54 -22.41)"></path><path class="cls-2" d="M885.08,162.56l-9.67-95.42L922,62.42q18-1.81,27.75,4.08a21.56,21.56,0,0,1,10.89,17.07A23.09,23.09,0,0,1,958.3,97a24.05,24.05,0,0,1-9.29,9.55A34.51,34.51,0,0,1,934.66,111l2-6a39.55,39.55,0,0,1,16.19,1.39A25,25,0,0,1,964.58,114,24.25,24.25,0,0,1,970,127.66q1.24,12.27-7.74,20.13t-27.79,9.77Zm20.26-18.85,25.9-2.62q8.44-.87,12.66-4.18t3.6-9.31q-.62-6.13-5.41-8.55t-13.24-1.55l-27.53,2.79-1.63-16.08,23.58-2.39q8-.81,12.05-4t3.43-9q-.57-5.73-5.15-8T921,79.33l-22,2.22Z" transform="translate(-46.54 -22.41)"></path><path class="cls-2" d="M1009.51,132.06l51.93-5.27,1.8,17.72L989.36,152l-9.67-95.42,72.11-7.3L1053.59,67l-50.16,5.08Zm-5.63-39.23,45.94-4.66,1.75,17.32-45.94,4.65Z" transform="translate(-46.54 -22.41)"></path><path class="cls-2" d="M1080.82,142.73l-9.67-95.41,41.31-4.19q12.81-1.29,22.5,1.92a32.54,32.54,0,0,1,15.52,10.48,33.28,33.28,0,0,1,6.91,17.89q1.08,10.77-3.18,19a31.78,31.78,0,0,1-13.12,13.18q-8.86,5-21.68,6.25l-29.17,3,9.12-10.57,3.68,36.26Zm18.79-36-11.15-9.47,28-2.84q10.08-1,14.82-5.91t3.94-12.79q-.81-7.9-6.42-11.67t-15.7-2.75l-27.94,2.83,9-11.52Zm42,29.9-27.5-32.2,23.72-2.4,27.5,32.19Z" transform="translate(-46.54 -22.41)"></path><path class="cls-2" d="M1195.22,97.54a20.7,20.7,0,0,1,.73-8.4,28,28,0,0,1,3.29-6.94,47.87,47.87,0,0,1,4.57-5.91q2.48-2.73,4.63-5.22a25.1,25.1,0,0,0,3.48-5.1,10.22,10.22,0,0,0,1-5.75,9.3,9.3,0,0,0-4.81-7.36q-4.32-2.59-10.86-1.93a24.47,24.47,0,0,0-11.39,3.84,23,23,0,0,0-7.49,8.27l-17.48-8a39.39,39.39,0,0,1,13.85-14.9q9.1-5.88,22.88-7.28A51.67,51.67,0,0,1,1216,34a27.24,27.24,0,0,1,13,7.29,21.6,21.6,0,0,1,5.74,13.19,25.5,25.5,0,0,1-.66,9.77,25,25,0,0,1-3.52,7.45,56.9,56.9,0,0,1-4.95,6.15q-2.67,2.88-5,5.6a24.83,24.83,0,0,0-3.7,5.61,12,12,0,0,0-1,6.44Zm13.84,33.31a12.63,12.63,0,0,1-9.64-2.75,11.93,11.93,0,0,1-4.57-8.35,11.49,11.49,0,0,1,2.81-9,14.44,14.44,0,0,1,18.74-1.89,11.57,11.57,0,0,1,4.49,8.29,12.1,12.1,0,0,1-2.73,9.09A12.8,12.8,0,0,1,1209.06,130.85Z" transform="translate(-46.54 -22.41)"></path><path d="M129,208.62l49.88-5.06,2.13,21-76.47,7.75-9.66-95.42,74.69-7.57,2.13,21-48.12,4.87Zm-5.71-37.3,44.3-4.49,2,20-44.3,4.49Z" transform="translate(-46.54 -22.41)"></path><path d="M284,216.05a59.4,59.4,0,0,1-21.43-1.55A49.06,49.06,0,0,1,232,191.09a50.7,50.7,0,0,1-4-39.46,49.16,49.16,0,0,1,25.29-29,62.65,62.65,0,0,1,42.19-4.27A51.1,51.1,0,0,1,313.35,127a47.56,47.56,0,0,1,12.7,14.55,52.13,52.13,0,0,1,4,39.74,47.08,47.08,0,0,1-9.51,16.86,51.09,51.09,0,0,1-15.79,12.07A59.11,59.11,0,0,1,284,216.05Zm-2.27-22.35a27,27,0,0,0,10-2.94,23.76,23.76,0,0,0,7.62-6.35,26.18,26.18,0,0,0,4.57-9.21,32.68,32.68,0,0,0-2.26-22.35,26.27,26.27,0,0,0-6.33-8.11,23.73,23.73,0,0,0-8.74-4.69,28.09,28.09,0,0,0-20.31,2.06,24.35,24.35,0,0,0-7.69,6.35,24.74,24.74,0,0,0-4.57,9.21A33.85,33.85,0,0,0,256.27,180a24.72,24.72,0,0,0,6.33,8.1,24.35,24.35,0,0,0,8.81,4.69A27.1,27.1,0,0,0,281.75,193.7ZM317.37,234a49.52,49.52,0,0,1-11.64-.13,40.43,40.43,0,0,1-10.85-3.1,63.52,63.52,0,0,1-11.36-6.7q-6-4.35-13.56-10.88l27.5-10a66.86,66.86,0,0,0,6.94,7.35,16.92,16.92,0,0,0,5.8,3.55,14.14,14.14,0,0,0,5.77.58q7.9-.8,13.76-8.28l13.16,13Q334.28,232.31,317.37,234Z" transform="translate(-46.54 -22.41)"></path><path d="M395.25,204.78q-21.13,2.15-34.1-8.25T346.05,165l-5.37-53,27-2.74L373,161.46q1.23,12.14,6.53,17t13.76,4q8.46-.85,12.62-6.65t2.94-17.92l-5.29-52.21,26.71-2.7,5.38,53q2.13,21.13-8.62,33.92T395.25,204.78Z" transform="translate(-46.54 -22.41)"></path><path d="M482.75,172.79l49.89-5.06,2.13,21-76.47,7.75-9.66-95.42,74.69-7.57,2.13,21-48.12,4.87Zm-5.7-37.3,44.3-4.49,2,20-44.3,4.49Z" transform="translate(-46.54 -22.41)"></path><path d="M549.9,187.19l-9.66-95.42,43.48-4.4q13.08-1.34,23,1.93A32.68,32.68,0,0,1,622.66,100a34,34,0,0,1,7,18.22q1.13,11-3.2,19.33A32.71,32.71,0,0,1,613,151q-9.12,5.13-22.2,6.45l-28.63,2.9,11-12.68,3.73,36.81Zm23.58-36.4-13.4-11.31,27-2.74q8.45-.86,12.3-5T602.55,121a13,13,0,0,0-5.26-9.73q-4.6-3.32-13-2.46l-27,2.73L568.12,97.9Zm35.31,30.43-27.24-32.35L610.31,146l27.37,32.34Z" transform="translate(-46.54 -22.41)"></path><path d="M724,171.48a87.12,87.12,0,0,1-23-.63q-11.13-1.83-18.27-5.66l6.83-20.93a63.2,63.2,0,0,0,15.47,5.25,55.22,55.22,0,0,0,17,1,34.22,34.22,0,0,0,9-1.87,10.14,10.14,0,0,0,4.63-3.22,6.21,6.21,0,0,0,1.14-4.39,5.65,5.65,0,0,0-3.5-4.67,30.44,30.44,0,0,0-8.16-2.34c-3.31-.53-6.9-1-10.74-1.39a105.17,105.17,0,0,1-11.83-1.9,44.31,44.31,0,0,1-11.14-4,24.12,24.12,0,0,1-8.53-7.39q-3.45-4.76-4.22-12.38a27.34,27.34,0,0,1,3.07-15.88q3.93-7.41,12.91-12.6t23-6.6a81.56,81.56,0,0,1,18.68.25A54.67,54.67,0,0,1,753,76.83l-6.16,20.73a58.72,58.72,0,0,0-14.06-4.22,50.85,50.85,0,0,0-13.13-.46A27.27,27.27,0,0,0,710.77,95a10.68,10.68,0,0,0-4.59,3.63,6.58,6.58,0,0,0-1.09,4.24,5.76,5.76,0,0,0,3.52,4.81,27.39,27.39,0,0,0,8.07,2.21q4.89.68,10.81,1.32a115.47,115.47,0,0,1,11.83,1.9A46.5,46.5,0,0,1,750.38,117a24.38,24.38,0,0,1,8.65,7.25,23.84,23.84,0,0,1,4.26,12.17,27.16,27.16,0,0,1-3.15,15.81q-4,7.5-13,12.68T724,171.48Z" transform="translate(-46.54 -22.41)"></path><path d="M767,165.2l32.45-99.69,26.58-2.69L878,154l-28.08,2.84L808.6,78l10.63-1.08-24.66,85.54Zm21.14-21,5-20.47L839.75,119l9,19.06Z" transform="translate(-46.54 -22.41)"></path><path d="M885.76,153.17,876.1,57.75l48.52-4.91q18.95-1.92,28.92,4.09T964.63,74a22.48,22.48,0,0,1-2.5,13.34,25.23,25.23,0,0,1-10,9.83A41.13,41.13,0,0,1,935.8,102l1.92-6.81a46.53,46.53,0,0,1,17.83,1.3,25.93,25.93,0,0,1,12.63,7.74,23.82,23.82,0,0,1,5.58,13.61,22.25,22.25,0,0,1-8.08,20.24Q956.37,146,937,148ZM910.37,131,933,128.69q7.08-.72,10.39-3.46t2.8-7.65a8.26,8.26,0,0,0-4.28-6.94q-3.79-2-10.88-1.3l-24.53,2.48-1.89-18.67,20.44-2.08q6.83-.67,10-3.35a7.75,7.75,0,0,0,2.72-7.16c-.32-3.18-1.7-5.4-4.12-6.67s-5.91-1.68-10.45-1.22l-18.54,1.88Z" transform="translate(-46.54 -22.41)"></path><path d="M1015,118.87l49.89-5.06,2.12,21-76.47,7.75-9.66-95.42,74.7-7.56,2.12,21-48.11,4.87Zm-5.71-37.3,44.3-4.48,2,20-44.3,4.48Z" transform="translate(-46.54 -22.41)"></path><path d="M1082.18,133.27l-9.66-95.41L1116,33.45q13.08-1.32,23.06,1.93a32.7,32.7,0,0,1,15.88,10.72,34.15,34.15,0,0,1,7,18.22q1.11,11.06-3.21,19.33a32.65,32.65,0,0,1-13.45,13.41q-9.12,5.13-22.2,6.45l-28.63,2.9,11-12.68,3.73,36.81Zm23.58-36.4-13.4-11.31,27-2.74q8.45-.85,12.3-5t3.18-10.79a12.93,12.93,0,0,0-5.26-9.72q-4.6-3.33-13-2.47l-27,2.74L1100.4,44Zm35.31,30.44L1113.83,95,1142.59,92,1170,124.38Z" transform="translate(-46.54 -22.41)"></path><path d="M1198.07,86.42a20.17,20.17,0,0,1,.63-8,27.2,27.2,0,0,1,3-6.57,42.66,42.66,0,0,1,4.19-5.59c1.52-1.71,2.94-3.33,4.26-4.84a23,23,0,0,0,3.18-4.66,8.63,8.63,0,0,0,1-4.84,7.45,7.45,0,0,0-4-6,14.59,14.59,0,0,0-8.9-1.51,19.22,19.22,0,0,0-9.62,3.59,20.29,20.29,0,0,0-6.44,7.81l-21.4-8.71a40.41,40.41,0,0,1,13.92-16.21q9.39-6.54,24.66-8.08a54.23,54.23,0,0,1,18.83,1,28.63,28.63,0,0,1,13.56,7.37A21.81,21.81,0,0,1,1241,44.75a25.55,25.55,0,0,1-.63,9.43,23.54,23.54,0,0,1-3.52,7.38q-2.35,3.27-4.83,6.07T1227.08,73a22.66,22.66,0,0,0-3.75,5.2,10.22,10.22,0,0,0-1,5.75Zm15.78,34.75a15.23,15.23,0,0,1-11.54-3.1,13.72,13.72,0,0,1-5.32-9.65A13.24,13.24,0,0,1,1200.27,98a15.68,15.68,0,0,1,10.7-5.15q7-.7,11.66,2.88a13.24,13.24,0,0,1,5.3,9.59,13.7,13.7,0,0,1-3.27,10.52A15.35,15.35,0,0,1,1213.85,121.17Z" transform="translate(-46.54 -22.41)"></path></g></g></g></g></svg>