<svg xmlns="http://www.w3.org/2000/svg" viewBox="0 0 2205.72 758.64"><defs><style>.cls-1{fill:#99989d;}</style></defs><title>5</title><g id="Camada_2" data-name="Camada 2"><g id="Camada_1-2" data-name="Camada 1"><path class="cls-1" d="M62,285.58l67.1-6.8,2.32,22.9L36,311.35,23.46,188.06l93.17-9.43,2.31,22.89-64.81,6.57ZM54.71,234.9l59.35-6,2.27,22.37-59.35,6Z" transform="translate(-15.18 -28.95)"></path><path class="cls-1" d="M263.88,290.39a74,74,0,0,1-27.25-2,65.48,65.48,0,0,1-22.85-11.21,60.56,60.56,0,0,1-16.22-18.82,67.12,67.12,0,0,1-5.15-50.8,61.2,61.2,0,0,1,12.13-21.61,65.63,65.63,0,0,1,20.05-15.55A73.61,73.61,0,0,1,251,162.89a75.21,75.21,0,0,1,27.33,1.94A64.68,64.68,0,0,1,301,176a61.08,61.08,0,0,1,16.23,18.82,67.63,67.63,0,0,1,5.16,51,60.34,60.34,0,0,1-12.12,21.78A64.49,64.49,0,0,1,290.26,283,75.17,75.17,0,0,1,263.88,290.39Zm-2.45-24.12a39.29,39.29,0,0,0,14.94-4.45,37.85,37.85,0,0,0,11.41-9.43A37,37,0,0,0,294.7,239a45.65,45.65,0,0,0-3.24-32A37,37,0,0,0,282,195.33a37.62,37.62,0,0,0-13.07-7A39.23,39.23,0,0,0,253.41,187a40.07,40.07,0,0,0-15,4.46A36.58,36.58,0,0,0,227,200.9a37.83,37.83,0,0,0-6.84,13.33,45.64,45.64,0,0,0,3.24,32A37.6,37.6,0,0,0,232.75,258a36.59,36.59,0,0,0,13.07,7A40,40,0,0,0,261.43,266.27Zm45.44,46.28a54.24,54.24,0,0,1-13.82-.29,53.11,53.11,0,0,1-13.21-3.91,77.61,77.61,0,0,1-13.9-8.11q-7.29-5.22-16.46-13.19l29.35-10.62a78.67,78.67,0,0,0,9.86,9.49,28.19,28.19,0,0,0,8.4,4.76,19.78,19.78,0,0,0,8.18.86q11.28-1.14,19.13-11.37L338.62,294Q327.64,310.44,306.87,312.55Z" transform="translate(-15.18 -28.95)"></path><path class="cls-1" d="M407.59,275.84q-26.25,2.66-42.52-10.46T346,225l-7-68.86,28.7-2.91,6.91,68.16q1.77,17.43,9.78,24.54t20.87,5.8q13-1.32,19.46-9.89t4.66-26l-6.9-68.16,28-2.84,7,68.87Q460.29,241,447,257.08T407.59,275.84Z" transform="translate(-15.18 -28.95)"></path><path class="cls-1" d="M517.42,239.45l67.1-6.8,2.32,22.89-95.46,9.67L478.89,141.93l93.17-9.44,2.32,22.9L509.57,162Zm-7.27-50.69,59.35-6,2.27,22.37-59.36,6Z" transform="translate(-15.18 -28.95)"></path><path class="cls-1" d="M609.55,253.24,597.07,130l53.36-5.4Q667,122.88,679.51,127a42,42,0,0,1,20,13.53q7.53,9.39,8.92,23.12,1.41,13.92-4.1,24.52a41,41,0,0,1-17,17q-11.46,6.42-28,8.09l-37.69,3.82,11.79-13.65,4.74,46.85Zm24.29-46.58-14.41-12.24,36.11-3.66q13-1.32,19.15-7.63t5.09-16.53q-1-10.22-8.29-15.09T651.2,148l-36.1,3.66,11.65-14.88Zm54.26,38.63-35.53-41.6,30.65-3.1,35.53,41.59Z" transform="translate(-15.18 -28.95)"></path><path class="cls-1" d="M829.74,233.08A102.39,102.39,0,0,1,800.89,232q-14.05-2.58-23-8.08l7.51-22.46A68.07,68.07,0,0,0,805,208.8a70,70,0,0,0,22.38,1.38A44,44,0,0,0,840.89,207a17,17,0,0,0,7.18-5.45,10.14,10.14,0,0,0,1.78-7,9.34,9.34,0,0,0-4.66-7.44,32,32,0,0,0-10.79-3.71q-6.61-1.2-14.36-2.11t-15.64-2.51a61.17,61.17,0,0,1-14.73-4.91,30,30,0,0,1-11.27-9.35q-4.44-6-5.42-15.74a35,35,0,0,1,3.68-19.85q4.76-9.28,15.76-15.65t28.45-8.13a95.43,95.43,0,0,1,23.27.49,68.38,68.38,0,0,1,20.63,6.09l-6.8,22.4a72.66,72.66,0,0,0-17.81-5.41,65.05,65.05,0,0,0-17.15-.66q-8.44.85-13.37,3.22a15.87,15.87,0,0,0-7,5.78,11.52,11.52,0,0,0-1.66,7.28,9.57,9.57,0,0,0,4.68,7.54,28.65,28.65,0,0,0,10.68,3.63q6.51,1,14.43,1.92A153.19,153.19,0,0,1,846.53,160a68.11,68.11,0,0,1,14.55,4.84A30.32,30.32,0,0,1,872.42,174q4.61,6,5.57,15.54a33.81,33.81,0,0,1-3.79,19.6q-4.86,9.21-15.94,15.67T829.74,233.08Z" transform="translate(-15.18 -28.95)"></path><path class="cls-1" d="M885,225.34,927.28,96.51l28.18-2.85,67.79,117.68-29.94,3L937,110.12,948.47,109,914.23,222.38Zm25-29.22,5-22.39,63.75-6.46,9.59,20.92Z" transform="translate(-15.18 -28.95)"></path><path class="cls-1" d="M1036.1,210,1023.61,86.75l60.24-6.1q23.25-2.36,35.85,5.27T1133.76,108a29.7,29.7,0,0,1-3,17.3,31.23,31.23,0,0,1-12,12.34,45,45,0,0,1-18.54,5.79l2.59-7.74a51.35,51.35,0,0,1,20.91,1.8,32.43,32.43,0,0,1,15.15,9.85q5.85,6.88,6.94,17.62,1.6,15.85-10,26t-35.9,12.62Zm26.18-24.36,33.46-3.39q10.92-1.11,16.36-5.4t4.65-12q-.8-7.94-7-11t-17.1-2l-35.58,3.6-2.1-20.78,30.46-3.08q10.39-1.06,15.58-5.23t4.43-11.57q-.75-7.4-6.65-10.36t-16.3-1.9l-28.35,2.87Z" transform="translate(-15.18 -28.95)"></path><path class="cls-1" d="M1196.87,170.62l67.1-6.8,2.32,22.9-95.46,9.67L1158.34,73.11l93.17-9.44,2.32,22.89L1189,93.13Zm-7.27-50.68,59.35-6,2.27,22.36-59.36,6Z" transform="translate(-15.18 -28.95)"></path><path class="cls-1" d="M1289,184.42,1276.52,61.14l53.36-5.41q16.56-1.68,29.08,2.48a42.08,42.08,0,0,1,20,13.54q7.53,9.38,8.92,23.12,1.41,13.91-4.09,24.52a41.18,41.18,0,0,1-17,17q-11.46,6.41-28,8.08l-37.69,3.82L1313,134.66l4.74,46.85Zm24.28-46.59-14.41-12.24,36.11-3.66q13-1.32,19.15-7.63t5.09-16.53q-1-10.22-8.29-15.08t-20.29-3.55l-36.1,3.65,11.66-14.88Zm54.26,38.63L1332,134.87l30.64-3.11,35.53,41.6Z" transform="translate(-15.18 -28.95)"></path><path class="cls-1" d="M1436.82,126a26.67,26.67,0,0,1,.94-10.86,36.45,36.45,0,0,1,4.25-9,63.71,63.71,0,0,1,5.9-7.63q3.21-3.52,6-6.74a32.42,32.42,0,0,0,4.5-6.59,13.28,13.28,0,0,0,1.29-7.43,12.05,12.05,0,0,0-6.21-9.51q-5.6-3.35-14-2.49a31.59,31.59,0,0,0-14.71,5A30,30,0,0,0,1415,81.44L1392.46,71.1a50.83,50.83,0,0,1,17.89-19.25q11.78-7.6,29.57-9.4a66.77,66.77,0,0,1,23.8,1.41q10.42,2.78,16.79,9.42t7.42,17a31.4,31.4,0,0,1-5.39,22.26,76.16,76.16,0,0,1-6.41,7.94q-3.45,3.74-6.47,7.24a31.85,31.85,0,0,0-4.78,7.25,15.5,15.5,0,0,0-1.29,8.31Zm17.88,43a16.34,16.34,0,0,1-12.46-3.54,15.5,15.5,0,0,1-5.9-10.79,14.85,14.85,0,0,1,3.63-11.67,16.79,16.79,0,0,1,11.52-5.7c5-.51,9.28.57,12.69,3.25a15,15,0,0,1,5.8,10.71,15.65,15.65,0,0,1-3.52,11.74Q1462.26,168.3,1454.7,169.06Z" transform="translate(-15.18 -28.95)"></path><path d="M59.26,269.54,123.72,263l2.75,27.12-98.8,10L15.18,176.86l96.51-9.78,2.75,27.12-62.17,6.3Zm-7.37-48.18,57.24-5.8,2.62,25.89-57.23,5.8Z" transform="translate(-15.18 -28.95)"></path><path d="M259.51,279.15a76.91,76.91,0,0,1-27.69-2,63.32,63.32,0,0,1-39.54-30.25,65.53,65.53,0,0,1-5.17-51,63.59,63.59,0,0,1,32.68-37.47,80.83,80.83,0,0,1,54.51-5.53,66.17,66.17,0,0,1,23.11,11.19,61.13,61.13,0,0,1,16.4,18.79,67.31,67.31,0,0,1,5.2,51.34A61,61,0,0,1,306.72,256a66.15,66.15,0,0,1-20.39,15.59A76.76,76.76,0,0,1,259.51,279.15Zm-2.93-28.89a34.57,34.57,0,0,0,12.88-3.79,30.5,30.5,0,0,0,9.84-8.2,33.73,33.73,0,0,0,5.91-11.9,42.37,42.37,0,0,0-2.92-28.88A33.8,33.8,0,0,0,274.11,187,30.54,30.54,0,0,0,262.82,181a36.4,36.4,0,0,0-26.24,2.66,31.44,31.44,0,0,0-9.94,8.21,32.29,32.29,0,0,0-5.91,11.9,43.75,43.75,0,0,0,2.93,28.88,31.87,31.87,0,0,0,8.18,10.47,31.33,31.33,0,0,0,11.37,6.06A34.74,34.74,0,0,0,256.58,250.26Zm46,52.1a63.4,63.4,0,0,1-15.06-.17,51.87,51.87,0,0,1-14-4,81.47,81.47,0,0,1-14.67-8.66q-7.77-5.61-17.53-14.06l35.53-12.85a87.91,87.91,0,0,0,9,9.5,21.81,21.81,0,0,0,7.49,4.58,18.32,18.32,0,0,0,7.46.76q10.21-1,17.78-10.7l17,16.78Q324.44,300.15,302.61,302.36Z" transform="translate(-15.18 -28.95)"></path><path d="M403.22,264.59q-27.3,2.76-44.05-10.66T339.66,213.2l-6.94-68.51,34.87-3.53,6.83,67.45q1.59,15.69,8.45,21.92t17.78,5.14q10.92-1.11,16.3-8.59t3.79-23.16l-6.83-67.45,34.52-3.5,6.94,68.51q2.76,27.3-11.13,43.83T403.22,264.59Z" transform="translate(-15.18 -28.95)"></path><path d="M516.28,223.25l64.46-6.53,2.75,27.12-98.8,10L472.2,130.56l96.51-9.77,2.75,27.12-62.17,6.3Zm-7.37-48.19,57.24-5.8,2.62,25.89L511.53,201Z" transform="translate(-15.18 -28.95)"></path><path d="M603,241.86,590.55,118.58l56.18-5.7q16.9-1.71,29.79,2.5a42.18,42.18,0,0,1,20.53,13.85q7.65,9.63,9.06,23.55,1.44,14.26-4.14,25t-17.38,17.33q-11.77,6.61-28.69,8.33l-37,3.74,14.17-16.38,4.82,47.56Zm30.46-47-17.31-14.61,34.87-3.53q10.92-1.11,15.9-6.42t4.1-13.93q-.84-8.28-6.79-12.57t-16.87-3.19l-34.87,3.54,14.05-17.62Zm45.62,39.33-35.19-41.8,37.16-3.77,35.37,41.79Z" transform="translate(-15.18 -28.95)"></path><path d="M828,221.56a112.16,112.16,0,0,1-29.71-.82q-14.38-2.36-23.6-7.3l8.82-27.05a81.33,81.33,0,0,0,20,6.78,71.2,71.2,0,0,0,21.92,1.25A44.34,44.34,0,0,0,837,192a13.14,13.14,0,0,0,6-4.16,8,8,0,0,0,1.47-5.67,7.27,7.27,0,0,0-4.52-6,38.88,38.88,0,0,0-10.54-3q-6.42-1-13.88-1.8a136.92,136.92,0,0,1-15.29-2.45,57.34,57.34,0,0,1-14.39-5.12,31.44,31.44,0,0,1-11-9.56q-4.44-6.13-5.44-16a35.33,35.33,0,0,1,4-20.51q5.07-9.58,16.68-16.28t29.74-8.52a104.74,104.74,0,0,1,24.14.31,70.76,70.76,0,0,1,21.52,6.09l-8,26.78a75.66,75.66,0,0,0-18.17-5.45,65.94,65.94,0,0,0-17-.6,35,35,0,0,0-11.46,2.77,13.81,13.81,0,0,0-5.93,4.69,8.43,8.43,0,0,0-1.41,5.48,7.42,7.42,0,0,0,4.55,6.21A35,35,0,0,0,818.53,142q6.32.87,14,1.7a149.42,149.42,0,0,1,15.28,2.46,59.18,59.18,0,0,1,14.29,5,31.19,31.19,0,0,1,11.18,9.37q4.53,6,5.51,15.72a35,35,0,0,1-4.07,20.43q-5.16,9.69-16.75,16.37T828,221.56Z" transform="translate(-15.18 -28.95)"></path><path d="M883.59,213.44,925.52,84.65l34.34-3.48L1027,198.92l-36.28,3.67L937.29,100.71,951,99.32,919.16,209.84Zm27.32-27.14,6.39-26.45,60.23-6.1,11.57,24.63Z" transform="translate(-15.18 -28.95)"></path><path d="M1037,197.9,1024.5,74.62l62.69-6.35q24.48-2.47,37.37,5.29t14.33,22a29.1,29.1,0,0,1-3.24,17.23,32.56,32.56,0,0,1-12.94,12.7q-8.76,5-21.08,6.23l2.49-8.79a60,60,0,0,1,23,1.67,33.52,33.52,0,0,1,16.32,10,30.73,30.73,0,0,1,7.21,17.59q1.6,15.85-10.43,26.15t-37,12.82Zm31.8-28.66,29.23-3q9.16-.93,13.43-4.48t3.62-9.88q-.64-6.34-5.53-9t-14-1.69l-31.7,3.21-2.45-24.13,26.42-2.68q8.8-.89,12.91-4.33a10,10,0,0,0,3.51-9.25q-.63-6.16-5.32-8.62t-13.51-1.57l-23.95,2.42Z" transform="translate(-15.18 -28.95)"></path><path d="M1204,153.58l64.46-6.53,2.75,27.12-98.8,10L1159.93,60.9l96.51-9.78,2.75,27.13L1197,84.54Zm-7.37-48.18,57.24-5.8,2.62,25.89-57.23,5.8Z" transform="translate(-15.18 -28.95)"></path><path d="M1290.77,172.19,1278.28,48.91l56.18-5.69q16.9-1.71,29.79,2.5a42.23,42.23,0,0,1,20.53,13.84q7.65,9.64,9.06,23.55,1.44,14.27-4.14,25t-17.38,17.33q-11.77,6.63-28.69,8.33l-37,3.75,14.17-16.38,4.82,47.55Zm30.46-47-17.31-14.61,34.87-3.54q10.92-1.1,15.9-6.41t4.1-13.94q-.84-8.28-6.79-12.57t-16.87-3.18l-34.87,3.53,14-17.61Zm45.62,39.33-35.19-41.81,37.16-3.76,35.37,41.79Z" transform="translate(-15.18 -28.95)"></path><path d="M1440.5,111.66a26.53,26.53,0,0,1,.81-10.41,35.29,35.29,0,0,1,3.86-8.48,53.51,53.51,0,0,1,5.41-7.22q3-3.33,5.5-6.25a29.26,29.26,0,0,0,4.11-6,11.32,11.32,0,0,0,1.23-6.27,9.64,9.64,0,0,0-5.15-7.75q-4.62-2.64-11.49-1.95A25.06,25.06,0,0,0,1432.35,62a26.22,26.22,0,0,0-8.32,10.1l-27.65-11.26a52.29,52.29,0,0,1,18-20.95q12.14-8.43,31.86-10.43a70.12,70.12,0,0,1,24.34,1.36,36.84,36.84,0,0,1,17.51,9.52q6.73,6.8,7.83,17.54a32.51,32.51,0,0,1-.82,12.18,30.11,30.11,0,0,1-4.55,9.53,98,98,0,0,1-6.23,7.84q-3.19,3.62-6.32,7a29.25,29.25,0,0,0-4.84,6.71,13.11,13.11,0,0,0-1.29,7.43Zm20.38,44.9q-8.81.9-14.9-4a17.73,17.73,0,0,1-6.87-12.47,17.1,17.1,0,0,1,4.24-13.51q5-5.76,13.82-6.65,9-.92,15.06,3.72a17.12,17.12,0,0,1,6.86,12.39,17.73,17.73,0,0,1-4.23,13.59Q1469.87,155.66,1460.88,156.56Z" transform="translate(-15.18 -28.95)"></path><path d="M48.94,459.31l-8.85-86.75,10.16-1,64.65,65.4-5.33.55-7.27-71.26,12.39-1.27,8.85,86.75-10.16,1-64.65-65.4,5.33-.55L61.33,458Z" transform="translate(-15.18 -28.95)"></path><path d="M182.86,446.39a35.36,35.36,0,0,1-18-2.55,32.11,32.11,0,0,1-13.43-10.71,33.72,33.72,0,0,1-6.22-16.83,33.36,33.36,0,0,1,2.69-17.75,32.67,32.67,0,0,1,10.94-13.07A35.34,35.34,0,0,1,176,379.35a35.89,35.89,0,0,1,18,2.48,31.52,31.52,0,0,1,13.35,10.6,36.6,36.6,0,0,1,3.54,34.7A31.79,31.79,0,0,1,200,440.26,35.5,35.5,0,0,1,182.86,446.39ZM181.79,436a22.57,22.57,0,0,0,11.05-4,20.13,20.13,0,0,0,7-8.92,25.4,25.4,0,0,0,1.61-12.49,24.92,24.92,0,0,0-4.1-11.92,20.47,20.47,0,0,0-8.68-7.19,22.66,22.66,0,0,0-11.63-1.7,22.4,22.4,0,0,0-11,4,21.55,21.55,0,0,0-7.12,8.8,24.13,24.13,0,0,0-1.72,12.51,24.5,24.5,0,0,0,4.22,11.9,21.18,21.18,0,0,0,8.76,7.31A22.22,22.22,0,0,0,181.79,436Z" transform="translate(-15.18 -28.95)"></path><path d="M265.19,380.76l-1-9.79,41.89-4.27,1,9.79Zm16.86,54.76L274.75,364q-1-9.66,4.06-16t15.46-7.41a29.05,29.05,0,0,1,7.47.18,16.16,16.16,0,0,1,6.31,2.3l-2.67,9.41a14.18,14.18,0,0,0-4.45-1.86,15.38,15.38,0,0,0-5-.3q-5.2.54-7.63,3.72c-1.62,2.13-2.24,5.1-1.85,8.89l.9,8.8.8,5.43,5.83,57.13Zm40-83.22a8,8,0,0,1-6-1.64,7.36,7.36,0,0,1-2.85-5.22,7.52,7.52,0,0,1,1.73-5.81,7.9,7.9,0,0,1,5.53-2.82,8.1,8.1,0,0,1,6,1.58,7.18,7.18,0,0,1,2.84,5.16A7.79,7.79,0,0,1,322,352.3Zm2.05,78.93-6.71-65.68,11.9-1.22L336,430Z" transform="translate(-15.18 -28.95)"></path><path d="M440.85,352.32A30.59,30.59,0,0,1,455.17,354a22.1,22.1,0,0,1,10.44,8.45q4,6,5,15.64l3.86,37.79-11.9,1.22-3.72-36.44q-1-9.54-5.93-13.92t-13-3.55a21.16,21.16,0,0,0-10.16,3.54,16.77,16.77,0,0,0-6.13,8A26.92,26.92,0,0,0,422.47,387l3.46,33.83L414,422.05l-3.72-36.44q-1-9.54-5.87-13.92t-13.07-3.55a20.9,20.9,0,0,0-10,3.52,17,17,0,0,0-6.19,8A26.25,26.25,0,0,0,373.89,392l3.46,33.83L365.45,427l-6.7-65.68,11.4-1.16,1.78,17.47-2.31-4.27a22.52,22.52,0,0,1,8.51-11,30.46,30.46,0,0,1,14.63-5.12,28.15,28.15,0,0,1,16.71,3q7.29,3.94,10.36,13.15l-5-1.49A24.89,24.89,0,0,1,424,358.67,32.57,32.57,0,0,1,440.85,352.32Z" transform="translate(-15.18 -28.95)"></path><path d="M500.42,431.76l3.64-25.66,2.34,7a8.54,8.54,0,0,1-6.23-1.62,7.86,7.86,0,0,1-3-5.82,8.21,8.21,0,0,1,7.44-9.28,7.67,7.67,0,0,1,6.08,1.82,8.6,8.6,0,0,1,2.84,5.79,16.54,16.54,0,0,1,.06,2.43,24.38,24.38,0,0,1-.34,2.79c-.19,1.07-.49,2.37-.92,3.92L508.23,431Z" transform="translate(-15.18 -28.95)"></path><path d="M619.13,401.11l-1.42-13.88-.88-2.53L614.41,361q-.76-7.56-5.59-11.27T595.19,347A34.8,34.8,0,0,0,584,350a29.62,29.62,0,0,0-8.9,6.11l-5.86-8.42a36,36,0,0,1,11.56-7.5,51.33,51.33,0,0,1,14.72-3.7Q609,335.15,617,341t9.36,19.33l4,39.65Zm-21.49,2.95a31.09,31.09,0,0,1-13.08-1.17,19.76,19.76,0,0,1-9.19-6,17.52,17.52,0,0,1-4-9.67,18.79,18.79,0,0,1,1.55-9.93,17.72,17.72,0,0,1,7.6-7.79q5.49-3.19,15.28-4.19l20.82-2.12.88,8.55-20.33,2.07q-8.92.92-11.72,4.2a9.67,9.67,0,0,0-2.36,7.51,9.28,9.28,0,0,0,4.63,7.35q4.14,2.52,11,1.83a22.78,22.78,0,0,0,11.41-4.17,17,17,0,0,0,6.36-9.42l3.19,7.94a18.64,18.64,0,0,1-7.36,10.08Q606.68,403.14,597.64,404.06Z" transform="translate(-15.18 -28.95)"></path><path d="M726.42,387.41A35.55,35.55,0,0,1,709,385.12a30.93,30.93,0,0,1-13.05-10,33.84,33.84,0,0,1-3.39-33.27,30.65,30.65,0,0,1,10.76-12.31,36.16,36.16,0,0,1,16.64-5.71,34.72,34.72,0,0,1,15.71,1.84A26.28,26.28,0,0,1,747.81,335q4.86,6.64,6,17.43t-2.34,18.14a27,27,0,0,1-10,11.73A33.42,33.42,0,0,1,726.42,387.41Zm4.29,27.36a61.17,61.17,0,0,1-17.79-.75,36.38,36.38,0,0,1-14.56-5.84l4.76-9.75A34.09,34.09,0,0,0,715,403.54a43.15,43.15,0,0,0,14.24.86q11.64-1.18,16.54-7.2T749.58,380l-1.41-13.88L748.08,353l-2-13.07-1.84-18,11.28-1.16,5.79,56.76q1.77,17.35-6.07,26.42T730.71,414.77Zm-4-37.91A24.43,24.43,0,0,0,738.09,373a20.56,20.56,0,0,0,7.22-8.38A22.92,22.92,0,0,0,743,342.26a20.21,20.21,0,0,0-8.76-6.68A27,27,0,0,0,710.92,338a19.85,19.85,0,0,0-7.29,8.32,22.9,22.9,0,0,0,2.27,22.3,20.36,20.36,0,0,0,8.83,6.74A24.68,24.68,0,0,0,726.72,376.86Z" transform="translate(-15.18 -28.95)"></path><path d="M821.08,381.25a38.38,38.38,0,0,1-19-2.44,31.48,31.48,0,0,1-13.61-10.63,34.16,34.16,0,0,1-6.17-16.9,34.84,34.84,0,0,1,2.51-17.79,31,31,0,0,1,10.56-13,33.71,33.71,0,0,1,16.48-6,33.37,33.37,0,0,1,17.29,2.49,30.07,30.07,0,0,1,12.67,10.67,36.87,36.87,0,0,1,6,17.36c.06.49.09,1.08.12,1.74s0,1.29,0,1.88L792,354.29l-.87-8.55,49.69-5.07-4.53,3.47a22.08,22.08,0,0,0-3.75-11,19.93,19.93,0,0,0-8.29-7,23.45,23.45,0,0,0-22.12,2.25A19.74,19.74,0,0,0,795.4,337a23.69,23.69,0,0,0-1.56,11.74l.2,2a22.68,22.68,0,0,0,4.24,11.4,20.86,20.86,0,0,0,9.3,7.12,26.65,26.65,0,0,0,12.81,1.58,27.47,27.47,0,0,0,10.39-3.07,23.23,23.23,0,0,0,7.76-6.8l7.35,7A28.92,28.92,0,0,1,835.61,377,38.64,38.64,0,0,1,821.08,381.25Z" transform="translate(-15.18 -28.95)"></path><path d="M902.72,305.18a31.2,31.2,0,0,1,14.51,1.65,22.32,22.32,0,0,1,10.56,8.44q4.13,6,5.11,15.63l3.85,37.8-11.89,1.21-3.72-36.43q-1-9.54-6.12-13.9t-13.56-3.5a23.49,23.49,0,0,0-10.78,3.6,17.17,17.17,0,0,0-6.51,8.05A25.83,25.83,0,0,0,882.86,340l3.45,33.84-11.89,1.21-6.71-65.68,11.41-1.17,1.8,17.73-2.34-4.52a23,23,0,0,1,8.89-11.05A32.75,32.75,0,0,1,902.72,305.18Z" transform="translate(-15.18 -28.95)"></path><path d="M950.51,310.82l-1-9.79,41.88-4.27,1,9.79Zm37.75,53.37q-9.91,1-15.91-3.76t-7-14.68l-6.15-60.23,11.9-1.22,6.1,59.74c.36,3.55,1.52,6.19,3.5,7.9s4.6,2.41,7.91,2.08a14.1,14.1,0,0,0,9-4l4.59,8.17a17.31,17.31,0,0,1-6.16,4.13A27.11,27.11,0,0,1,988.26,364.19Z" transform="translate(-15.18 -28.95)"></path><path d="M1050.84,357.81a38.51,38.51,0,0,1-19-2.45,31.39,31.39,0,0,1-13.6-10.63,34,34,0,0,1-6.17-16.9,34.73,34.73,0,0,1,2.5-17.79,31.06,31.06,0,0,1,10.57-13,33.68,33.68,0,0,1,16.48-6,33.31,33.31,0,0,1,17.28,2.49,30.07,30.07,0,0,1,12.67,10.67,36.77,36.77,0,0,1,6,17.36c0,.5.09,1.08.11,1.74s0,1.29,0,1.88l-55.9,5.7-.87-8.55,49.7-5.07-4.53,3.47a22.18,22.18,0,0,0-3.76-11,20,20,0,0,0-8.28-7,23.47,23.47,0,0,0-22.13,2.25,19.81,19.81,0,0,0-6.76,8.58,23.69,23.69,0,0,0-1.55,11.74l.2,2a22.58,22.58,0,0,0,4.23,11.4,21,21,0,0,0,9.3,7.13,26.77,26.77,0,0,0,12.81,1.57,27.47,27.47,0,0,0,10.39-3.07,23.14,23.14,0,0,0,7.76-6.8l7.36,7a28.93,28.93,0,0,1-10.29,9.06A38.83,38.83,0,0,1,1050.84,357.81Z" transform="translate(-15.18 -28.95)"></path><path d="M1219.73,272.83a30.45,30.45,0,0,1,14.32,1.67,22.05,22.05,0,0,1,10.44,8.45q4,6,5,15.64l3.86,37.79-11.9,1.22-3.72-36.44q-1-9.54-5.93-13.92t-13-3.55a21.08,21.08,0,0,0-10.15,3.54,16.66,16.66,0,0,0-6.13,8,26.78,26.78,0,0,0-1.19,12.27l3.45,33.83-11.9,1.22-3.72-36.44q-1-9.54-5.86-13.93t-13.08-3.54a20.94,20.94,0,0,0-10,3.52,17.11,17.11,0,0,0-6.19,8,26.24,26.24,0,0,0-1.25,12.28l3.45,33.83-11.9,1.21-6.7-65.68,11.4-1.16,1.78,17.47-2.31-4.27a22.45,22.45,0,0,1,8.52-11,30.43,30.43,0,0,1,14.63-5.13,28.29,28.29,0,0,1,16.7,3q7.29,4,10.36,13.16l-5-1.49a24.84,24.84,0,0,1,9.17-13.21A32.5,32.5,0,0,1,1219.73,272.83Z" transform="translate(-15.18 -28.95)"></path><path d="M1311.46,331.21a38.51,38.51,0,0,1-19-2.45,31.48,31.48,0,0,1-13.61-10.63,34.12,34.12,0,0,1-6.17-16.9,34.84,34.84,0,0,1,2.51-17.79,31.08,31.08,0,0,1,10.56-13,35.85,35.85,0,0,1,33.77-3.51,30,30,0,0,1,12.67,10.66,36.77,36.77,0,0,1,6,17.36c0,.5.08,1.08.11,1.74s0,1.3,0,1.88l-55.9,5.71-.87-8.56,49.7-5.07-4.53,3.47a22.18,22.18,0,0,0-3.76-11,20,20,0,0,0-8.28-7,23.44,23.44,0,0,0-22.13,2.26,19.73,19.73,0,0,0-6.76,8.57,23.73,23.73,0,0,0-1.55,11.75l.2,2a22.58,22.58,0,0,0,4.23,11.4,21,21,0,0,0,9.3,7.13,26.77,26.77,0,0,0,12.81,1.57,27.65,27.65,0,0,0,10.39-3.06,23.28,23.28,0,0,0,7.76-6.81l7.36,7A29,29,0,0,1,1326,327,38.83,38.83,0,0,1,1311.46,331.21Z" transform="translate(-15.18 -28.95)"></path><path d="M1362.75,246.08a8,8,0,0,1-6-1.64,7.36,7.36,0,0,1-2.85-5.22,7.52,7.52,0,0,1,1.73-5.81,8,8,0,0,1,5.53-2.82,8.13,8.13,0,0,1,6,1.58,7.18,7.18,0,0,1,2.84,5.16,7.77,7.77,0,0,1-7.25,8.75Zm2,78.93-6.7-65.68,11.89-1.21,6.71,65.68Z" transform="translate(-15.18 -28.95)"></path><path d="M1434.4,318.66a35.36,35.36,0,0,1-18-2.55A32.11,32.11,0,0,1,1403,305.4a33.72,33.72,0,0,1-6.22-16.83,33.36,33.36,0,0,1,2.69-17.75,32.67,32.67,0,0,1,10.94-13.07,35.34,35.34,0,0,1,17.16-6.13,35.86,35.86,0,0,1,18,2.48,31.52,31.52,0,0,1,13.35,10.6,36.6,36.6,0,0,1,3.54,34.7,31.79,31.79,0,0,1-10.93,13.13A35.4,35.4,0,0,1,1434.4,318.66Zm-1.06-10.41a22.57,22.57,0,0,0,11-4,20.22,20.22,0,0,0,7-8.92,25.4,25.4,0,0,0,1.6-12.49,24.92,24.92,0,0,0-4.1-11.92,20.47,20.47,0,0,0-8.68-7.19,22.66,22.66,0,0,0-11.63-1.69,22.29,22.29,0,0,0-11,4,21.45,21.45,0,0,0-7.11,8.8,24,24,0,0,0-1.73,12.51,24.46,24.46,0,0,0,4.22,11.9,21.18,21.18,0,0,0,8.76,7.31A22.26,22.26,0,0,0,1433.34,308.25Z" transform="translate(-15.18 -28.95)"></path><path d="M1559.07,305.94a34.33,34.33,0,0,1-17.47-2.48,31,31,0,0,1-13-10.56,38,38,0,0,1-3.58-35.14,31.1,31.1,0,0,1,10.64-12.92,34.41,34.41,0,0,1,16.61-6,31.07,31.07,0,0,1,15.62,2.16,26.56,26.56,0,0,1,11.73,10.08q4.67,7,5.8,18.19t-2.13,19a27.77,27.77,0,0,1-9.57,12.31A30.22,30.22,0,0,1,1559.07,305.94Zm-.07-10.51a22.51,22.51,0,0,0,10.92-4,20.7,20.7,0,0,0,7.11-8.92,25,25,0,0,0,1.66-12.51,24.51,24.51,0,0,0-4.16-11.91,20.86,20.86,0,0,0-8.74-7.18,23.74,23.74,0,0,0-22.5,2.29,21.48,21.48,0,0,0-7.11,8.81,24.13,24.13,0,0,0-1.73,12.51,24.53,24.53,0,0,0,4.22,11.9,21.18,21.18,0,0,0,8.76,7.31A22.36,22.36,0,0,0,1559,295.43Zm25.37,31.47-4.23-41.52-.32-15.37-2.3-15.17-1.81-17.72,11.4-1.16,9.16,89.72Z" transform="translate(-15.18 -28.95)"></path><path d="M1650.9,296.57a33.79,33.79,0,0,1-15.13-1.59,22.31,22.31,0,0,1-10.88-8.47q-4.19-6-5.17-15.69l-3.86-37.8,11.9-1.21,3.72,36.44q1,9.66,6.13,14t13.56,3.5a22.11,22.11,0,0,0,10.53-3.64A17.24,17.24,0,0,0,1668,274a26.11,26.11,0,0,0,1.27-12.09l-3.46-33.95,11.89-1.22,6.71,65.69-11.28,1.15-1.81-17.73,2.34,4.52a23.08,23.08,0,0,1-8.63,11.15A29.36,29.36,0,0,1,1650.9,296.57Z" transform="translate(-15.18 -28.95)"></path><path d="M1743.22,287.14a38.39,38.39,0,0,1-19-2.44,31.34,31.34,0,0,1-13.6-10.64,33.9,33.9,0,0,1-6.17-16.9,34.82,34.82,0,0,1,2.5-17.78,31.06,31.06,0,0,1,10.57-13,33.68,33.68,0,0,1,16.48-6,33.31,33.31,0,0,1,17.28,2.49A30,30,0,0,1,1764,233.5a36.73,36.73,0,0,1,6,17.36c0,.49.09,1.07.11,1.74s0,1.29,0,1.88l-55.89,5.7-.88-8.55,49.7-5.07-4.53,3.47a22.28,22.28,0,0,0-3.75-11,20.14,20.14,0,0,0-8.29-7,23.49,23.49,0,0,0-22.12,2.26,19.76,19.76,0,0,0-6.77,8.58,23.8,23.8,0,0,0-1.55,11.74l.2,2a22.8,22.8,0,0,0,4.23,11.41,21,21,0,0,0,9.31,7.12,26.71,26.71,0,0,0,12.8,1.58,27.53,27.53,0,0,0,10.4-3.07,23.33,23.33,0,0,0,7.76-6.8l7.35,7a28.92,28.92,0,0,1-10.28,9.07A38.69,38.69,0,0,1,1743.22,287.14Z" transform="translate(-15.18 -28.95)"></path><path d="M1830.82,302.5a31.59,31.59,0,0,1-8-.19,18,18,0,0,1-6.69-2.33l2.91-9.56a14.65,14.65,0,0,0,10,2.11,9.13,9.13,0,0,0,7-3.65c1.49-2.11,2-5.07,1.66-8.87l-7-68.91,11.9-1.21,7,68.66q1,10-3.76,16.47T1830.82,302.5Zm4.47-104.64a8,8,0,0,1-6-1.64,7.37,7.37,0,0,1-2.85-5.22,7.47,7.47,0,0,1,1.72-5.81,7.93,7.93,0,0,1,5.54-2.82,8.08,8.08,0,0,1,6,1.58,7.14,7.14,0,0,1,2.84,5.15,7.77,7.77,0,0,1-7.24,8.76Z" transform="translate(-15.18 -28.95)"></path><path d="M1906.44,270.49a33.79,33.79,0,0,1-15.13-1.59,22.31,22.31,0,0,1-10.88-8.47q-4.18-6-5.17-15.69l-3.86-37.8,11.9-1.21,3.72,36.44q1,9.66,6.13,14t13.56,3.5a22,22,0,0,0,10.52-3.64,17.15,17.15,0,0,0,6.31-8.16,26.11,26.11,0,0,0,1.27-12.09l-3.46-34,11.89-1.22,6.71,65.69-11.28,1.15-1.81-17.73,2.34,4.52a23.08,23.08,0,0,1-8.63,11.15A29.36,29.36,0,0,1,1906.44,270.49Z" transform="translate(-15.18 -28.95)"></path><path d="M1997.74,193.42a31.46,31.46,0,0,1,14.51,1.65,22.38,22.38,0,0,1,10.56,8.44q4.13,6,5.11,15.64l3.85,37.79-11.89,1.22-3.72-36.44q-1-9.54-6.12-13.9t-13.56-3.5a23.5,23.5,0,0,0-10.78,3.61,17,17,0,0,0-6.5,8,25.68,25.68,0,0,0-1.32,12.28l3.46,33.83-11.9,1.22-6.71-65.69,11.41-1.16,1.81,17.72-2.34-4.52a22.91,22.91,0,0,1,8.88-11A32.75,32.75,0,0,1,1997.74,193.42Z" transform="translate(-15.18 -28.95)"></path><path d="M2045.53,199.07l-1-9.79,41.89-4.28,1,9.79Zm37.75,53.37q-9.92,1-15.91-3.76t-7-14.69l-6.15-60.23,11.9-1.21,6.1,59.73q.54,5.33,3.5,7.91c2,1.72,4.6,2.41,7.91,2.07a14.1,14.1,0,0,0,9-4l4.59,8.18a17.49,17.49,0,0,1-6.15,4.13A27.94,27.94,0,0,1,2083.28,252.44Z" transform="translate(-15.18 -28.95)"></path><path d="M2159.54,243.9,2158.13,230l-.89-2.54-2.41-23.67q-.78-7.55-5.6-11.26t-13.62-2.8a34.86,34.86,0,0,0-11.21,3.08,29.57,29.57,0,0,0-8.89,6.11l-5.87-8.42a36.15,36.15,0,0,1,11.57-7.5,51.26,51.26,0,0,1,14.71-3.7q13.51-1.38,21.49,4.45t9.36,19.33l4.05,39.65Zm-21.48,2.95a31.09,31.09,0,0,1-13.08-1.17,19.76,19.76,0,0,1-9.19-6,17.46,17.46,0,0,1-4-9.68,18.86,18.86,0,0,1,1.56-9.92,17.64,17.64,0,0,1,7.59-7.79q5.51-3.19,15.29-4.19l20.82-2.12.87,8.55-20.32,2.07q-8.92.91-11.72,4.2a9.67,9.67,0,0,0-2.36,7.51,9.26,9.26,0,0,0,4.63,7.35q4.14,2.52,10.95,1.83a22.74,22.74,0,0,0,11.41-4.17,17,17,0,0,0,6.36-9.42l3.19,7.94a18.57,18.57,0,0,1-7.36,10.08Q2147.1,245.93,2138.06,246.85Z" transform="translate(-15.18 -28.95)"></path><path d="M489.81,471.36l-1-9.79,41.89-4.27,1,9.79Zm37.75,53.37q-9.91,1-15.91-3.76t-7-14.68l-6.14-60.23,11.89-1.22,6.1,59.74c.36,3.55,1.53,6.19,3.5,7.9s4.61,2.41,7.91,2.08a14.1,14.1,0,0,0,9-4l4.59,8.17a17.51,17.51,0,0,1-6.15,4.14A27.59,27.59,0,0,1,527.56,524.73Z" transform="translate(-15.18 -28.95)"></path><path d="M589,518.46a35.36,35.36,0,0,1-18-2.55,32.08,32.08,0,0,1-13.42-10.71,33.73,33.73,0,0,1-6.23-16.83,33.27,33.27,0,0,1,2.7-17.75A32.5,32.5,0,0,1,565,457.55a35.28,35.28,0,0,1,17.16-6.13,35.85,35.85,0,0,1,18,2.48,31.39,31.39,0,0,1,13.35,10.6,36.6,36.6,0,0,1,3.54,34.7,31.71,31.71,0,0,1-10.93,13.13A35.46,35.46,0,0,1,589,518.46ZM588,508.05a22.64,22.64,0,0,0,11-4,20.27,20.27,0,0,0,7-8.92,25.4,25.4,0,0,0,1.6-12.49,24.92,24.92,0,0,0-4.09-11.92,20.56,20.56,0,0,0-8.69-7.19,22.66,22.66,0,0,0-11.63-1.7,22.33,22.33,0,0,0-11,4,21.45,21.45,0,0,0-7.11,8.8,24.13,24.13,0,0,0-1.73,12.51,24.46,24.46,0,0,0,4.22,11.9,21.18,21.18,0,0,0,8.76,7.31A22.26,22.26,0,0,0,588,508.05Z" transform="translate(-15.18 -28.95)"></path><path d="M673.55,509.83a34.33,34.33,0,0,1-17.47-2.47,31,31,0,0,1-13-10.57,34.92,34.92,0,0,1-6.13-17.15,34.54,34.54,0,0,1,2.55-18,31.1,31.1,0,0,1,10.64-12.92,34.31,34.31,0,0,1,16.61-5.95A30.36,30.36,0,0,1,682.08,445,27.19,27.19,0,0,1,693.94,455q4.78,7,5.92,18.17t-2,19a26.92,26.92,0,0,1-9.45,12.3A30.57,30.57,0,0,1,673.55,509.83Zm-.07-10.51a22.4,22.4,0,0,0,10.92-4,20.66,20.66,0,0,0,7.11-8.93,25,25,0,0,0,1.66-12.5A24.51,24.51,0,0,0,689,462a20.88,20.88,0,0,0-8.74-7.19,23.78,23.78,0,0,0-22.5,2.3,21.45,21.45,0,0,0-7.11,8.8,24.13,24.13,0,0,0-1.73,12.51,24.53,24.53,0,0,0,4.22,11.91,21.15,21.15,0,0,0,8.76,7.3A22.26,22.26,0,0,0,673.48,499.32Zm23.42,7.38L695.09,489l-.82-15.32-2.79-15.12L687,414.8l11.89-1.22,9.39,92Z" transform="translate(-15.18 -28.95)"></path><path d="M778.44,498.38,777,484.5l-.88-2.54-2.42-23.67q-.76-7.56-5.59-11.26t-13.63-2.81a35.08,35.08,0,0,0-11.2,3.09,29.43,29.43,0,0,0-8.89,6.1L728.54,445a36,36,0,0,1,11.57-7.5,51.17,51.17,0,0,1,14.71-3.69q13.5-1.38,21.49,4.44t9.36,19.33l4.05,39.66ZM757,501.32a31.12,31.12,0,0,1-13.08-1.17,19.73,19.73,0,0,1-9.19-6,17.49,17.49,0,0,1-4-9.67,18.91,18.91,0,0,1,1.55-9.93,17.65,17.65,0,0,1,7.6-7.78q5.49-3.19,15.29-4.19L776,460.44l.87,8.55-20.33,2.08q-8.93.9-11.71,4.2a9.6,9.6,0,0,0-2.37,7.5,9.3,9.3,0,0,0,4.63,7.36q4.14,2.52,11,1.82a22.68,22.68,0,0,0,11.41-4.17,17,17,0,0,0,6.36-9.41L779,486.3a18.55,18.55,0,0,1-7.36,10.08Q766,500.4,757,501.32Z" transform="translate(-15.18 -28.95)"></path><path d="M837.5,493.1a53.77,53.77,0,0,1-15.78-.64,36.9,36.9,0,0,1-12.14-4.27l4-9.93a40.18,40.18,0,0,0,10.9,3.77,41.08,41.08,0,0,0,12.84.7q8.31-.86,11.72-3.58a7.44,7.44,0,0,0,3-6.94,5.82,5.82,0,0,0-2.73-4.61,15.32,15.32,0,0,0-6.15-2c-2.5-.32-5.25-.57-8.28-.72s-6-.42-9.1-.82a35.72,35.72,0,0,1-8.48-2.14,15.54,15.54,0,0,1-6.49-4.72q-2.58-3.18-3.16-8.88a17,17,0,0,1,2.28-10.76,21.38,21.38,0,0,1,8.78-7.84,39.82,39.82,0,0,1,14.32-3.9,57.61,57.61,0,0,1,13.23.21,32.68,32.68,0,0,1,11.29,3.29l-4.12,9.94a28.31,28.31,0,0,0-9.71-3.14,43.29,43.29,0,0,0-9.78-.13q-7.81.79-11.39,3.73t-3.18,6.9a6.19,6.19,0,0,0,2.82,4.91,16.68,16.68,0,0,0,6.23,2.18,74.55,74.55,0,0,0,8.29.84c3,.16,6,.43,9.1.83a36.34,36.34,0,0,1,8.41,2.08,15.79,15.79,0,0,1,6.48,4.6q2.64,3.1,3.21,8.69a16.13,16.13,0,0,1-2.42,10.64,22.53,22.53,0,0,1-9.1,7.75A42.66,42.66,0,0,1,837.5,493.1Z" transform="translate(-15.18 -28.95)"></path><path d="M957,480.91a38.38,38.38,0,0,1-19-2.45,31.41,31.41,0,0,1-13.61-10.63,34,34,0,0,1-6.17-16.9,34.86,34.86,0,0,1,2.51-17.79,30.93,30.93,0,0,1,10.56-13,33.82,33.82,0,0,1,16.48-6,33.45,33.45,0,0,1,17.29,2.5,30,30,0,0,1,12.67,10.66,36.87,36.87,0,0,1,6,17.36c.06.5.09,1.08.12,1.75s0,1.29,0,1.87L927.92,454l-.87-8.55,49.69-5.08-4.53,3.47a22.08,22.08,0,0,0-3.75-11,19.93,19.93,0,0,0-8.29-7,23.42,23.42,0,0,0-22.12,2.26,19.63,19.63,0,0,0-6.76,8.58,23.67,23.67,0,0,0-1.56,11.74l.21,2a22.58,22.58,0,0,0,4.23,11.4,21,21,0,0,0,9.3,7.13,26.77,26.77,0,0,0,12.81,1.57,27.65,27.65,0,0,0,10.39-3.06,23.35,23.35,0,0,0,7.76-6.8l7.35,7a29,29,0,0,1-10.28,9.06A38.83,38.83,0,0,1,957,480.91Z" transform="translate(-15.18 -28.95)"></path><path d="M1029.22,473.54a53.77,53.77,0,0,1-15.78-.65,36.28,36.28,0,0,1-12.14-4.27l4-9.92a41,41,0,0,0,10.9,3.77,41.45,41.45,0,0,0,12.85.69c5.53-.56,9.44-1.76,11.72-3.57a7.46,7.46,0,0,0,3-6.95A5.82,5.82,0,0,0,1041,448a15.27,15.27,0,0,0-6.15-2q-3.75-.5-8.28-.72t-9.1-.83a35.13,35.13,0,0,1-8.48-2.14,15.39,15.39,0,0,1-6.49-4.72q-2.58-3.18-3.16-8.88a16.89,16.89,0,0,1,2.28-10.75,21.34,21.34,0,0,1,8.78-7.85,39.71,39.71,0,0,1,14.31-3.9,57.05,57.05,0,0,1,13.23.22,32.74,32.74,0,0,1,11.3,3.29l-4.12,9.94a28.4,28.4,0,0,0-9.71-3.15,43.29,43.29,0,0,0-9.78-.12q-7.82.79-11.39,3.72t-3.18,6.9a6.17,6.17,0,0,0,2.82,4.91,16.62,16.62,0,0,0,6.23,2.18,71.89,71.89,0,0,0,8.29.85c3,.15,6,.43,9.1.82a36,36,0,0,1,8.41,2.09,15.89,15.89,0,0,1,6.48,4.59c1.76,2.08,2.82,5,3.2,8.69a16,16,0,0,1-2.42,10.64,22.55,22.55,0,0,1-9.1,7.76A42.6,42.6,0,0,1,1029.22,473.54Z" transform="translate(-15.18 -28.95)"></path><path d="M1098.12,466.5a53.44,53.44,0,0,1-15.78-.64,36.59,36.59,0,0,1-12.14-4.27l4-9.92a43.87,43.87,0,0,0,23.75,4.46q8.31-.86,11.72-3.58a7.44,7.44,0,0,0,3-6.94,5.81,5.81,0,0,0-2.73-4.6,15.21,15.21,0,0,0-6.15-2q-3.75-.5-8.28-.73c-3-.14-6-.42-9.1-.82a35.72,35.72,0,0,1-8.48-2.14,15.54,15.54,0,0,1-6.49-4.72q-2.58-3.18-3.16-8.88a16.89,16.89,0,0,1,2.28-10.75,21.33,21.33,0,0,1,8.78-7.85,39.82,39.82,0,0,1,14.32-3.9,57.61,57.61,0,0,1,13.23.21,32.68,32.68,0,0,1,11.29,3.3l-4.12,9.93a28.31,28.31,0,0,0-9.71-3.14,43.29,43.29,0,0,0-9.78-.13q-7.82.8-11.39,3.73T1080,420a6.19,6.19,0,0,0,2.82,4.91,16.68,16.68,0,0,0,6.23,2.18,74.18,74.18,0,0,0,8.29.85q4.53.23,9.1.82a36.34,36.34,0,0,1,8.41,2.08,15.79,15.79,0,0,1,6.48,4.6c1.76,2.08,2.83,5,3.21,8.69a16.12,16.12,0,0,1-2.42,10.64,22.53,22.53,0,0,1-9.1,7.75A42.66,42.66,0,0,1,1098.12,466.5Z" transform="translate(-15.18 -28.95)"></path><path d="M1188.89,456.49l-1.42-13.88-.89-2.54-2.41-23.67q-.78-7.56-5.6-11.26T1165,402.33a35,35,0,0,0-11.2,3.09,29.48,29.48,0,0,0-8.9,6.1L1139,403.1a36.15,36.15,0,0,1,11.57-7.5,51.25,51.25,0,0,1,14.71-3.69q13.52-1.38,21.49,4.44t9.37,19.33l4,39.66Zm-21.49,2.94a31.09,31.09,0,0,1-13.08-1.17,19.68,19.68,0,0,1-9.19-6,17.5,17.5,0,0,1-4-9.67,18.91,18.91,0,0,1,1.56-9.93,17.68,17.68,0,0,1,7.59-7.78q5.51-3.19,15.29-4.19l20.82-2.13.87,8.55-20.32,2.08c-6,.6-9.86,2-11.72,4.2a9.64,9.64,0,0,0-2.36,7.5,9.3,9.3,0,0,0,4.63,7.36q4.14,2.52,11,1.82a22.52,22.52,0,0,0,11.41-4.17,17,17,0,0,0,6.37-9.41l3.19,7.94a18.67,18.67,0,0,1-7.36,10.08Q1176.44,458.51,1167.4,459.43Z" transform="translate(-15.18 -28.95)"></path><path d="M1248,451.21a53.42,53.42,0,0,1-15.78-.64A36.73,36.73,0,0,1,1220,446.3l4-9.92a41,41,0,0,0,10.91,3.77,41.37,41.37,0,0,0,12.84.69q8.3-.85,11.72-3.58a7.44,7.44,0,0,0,3-6.94,5.81,5.81,0,0,0-2.72-4.6,15.11,15.11,0,0,0-6.15-2q-3.75-.5-8.28-.73c-3-.14-6-.42-9.1-.82a35.72,35.72,0,0,1-8.48-2.14,15.48,15.48,0,0,1-6.49-4.72q-2.58-3.18-3.16-8.88a16.94,16.94,0,0,1,2.28-10.76,21.32,21.32,0,0,1,8.78-7.84,39.71,39.71,0,0,1,14.31-3.9,57.6,57.6,0,0,1,13.23.21,33,33,0,0,1,11.3,3.29l-4.12,9.94a28.38,28.38,0,0,0-9.71-3.14,43.29,43.29,0,0,0-9.78-.13q-7.82.79-11.4,3.73t-3.17,6.9a6.17,6.17,0,0,0,2.82,4.91,16.62,16.62,0,0,0,6.23,2.18,74.18,74.18,0,0,0,8.29.85q4.53.22,9.1.82a36.46,36.46,0,0,1,8.41,2.08,15.92,15.92,0,0,1,6.48,4.6c1.76,2.08,2.82,5,3.2,8.69a16,16,0,0,1-2.42,10.64,22.53,22.53,0,0,1-9.1,7.75A42.6,42.6,0,0,1,1248,451.21Z" transform="translate(-15.18 -28.95)"></path><path d="M1336.05,362.33a8,8,0,0,1-6-1.64,7.36,7.36,0,0,1-2.85-5.22,7.47,7.47,0,0,1,1.72-5.81,8.7,8.7,0,0,1,11.52-1.24,7.14,7.14,0,0,1,2.84,5.16,7.76,7.76,0,0,1-7.24,8.75Zm2,78.93-6.7-65.68,11.9-1.21,6.7,65.68Z" transform="translate(-15.18 -28.95)"></path><path d="M1407.79,367.16a31.2,31.2,0,0,1,14.51,1.65,22.36,22.36,0,0,1,10.56,8.43q4.11,6,5.1,15.64l3.86,37.8-11.9,1.21-3.72-36.43q-1-9.56-6.11-13.91t-13.57-3.5a23.5,23.5,0,0,0-10.77,3.61,17.06,17.06,0,0,0-6.51,8,25.83,25.83,0,0,0-1.31,12.28l3.45,33.83-11.9,1.22-6.7-65.68,11.4-1.17,1.81,17.72-2.34-4.52a23,23,0,0,1,8.89-11.05A32.63,32.63,0,0,1,1407.79,367.16Z" transform="translate(-15.18 -28.95)"></path><path d="M1455.57,372.8l-1-9.79,41.89-4.28,1,9.79Zm16.86,54.75-7.3-71.5q-1-9.68,4.07-16t15.46-7.4a29.05,29.05,0,0,1,7.47.18,16,16,0,0,1,6.3,2.3l-2.67,9.41a13.85,13.85,0,0,0-4.45-1.86,15.07,15.07,0,0,0-5-.3q-5.21.53-7.64,3.72c-1.62,2.13-2.23,5.09-1.85,8.89l.9,8.8.81,5.43,5.83,57.13Zm42-4.29-9.38-91.95,11.89-1.22,9.39,92Z" transform="translate(-15.18 -28.95)"></path><path d="M1583.54,417a33.61,33.61,0,0,1-15.12-1.58,22.32,22.32,0,0,1-10.88-8.47q-4.18-6-5.17-15.69l-3.86-37.8,11.9-1.21,3.72,36.43q1,9.67,6.12,14t13.57,3.5a22,22,0,0,0,10.52-3.65,17.12,17.12,0,0,0,6.31-8.15,26.11,26.11,0,0,0,1.27-12.09l-3.47-34,11.9-1.21,6.7,65.68-11.27,1.15L1604,396.22l2.34,4.52a23.14,23.14,0,0,1-8.63,11.15A29.39,29.39,0,0,1,1583.54,417Z" transform="translate(-15.18 -28.95)"></path><path d="M1675.87,407.54a38.38,38.38,0,0,1-19-2.45,31.41,31.41,0,0,1-13.61-10.63,34.12,34.12,0,0,1-6.17-16.9,34.87,34.87,0,0,1,2.51-17.79,30.93,30.93,0,0,1,10.56-13,33.71,33.71,0,0,1,16.48-6,33.37,33.37,0,0,1,17.29,2.49,30,30,0,0,1,12.67,10.66,36.87,36.87,0,0,1,6,17.36c.06.5.09,1.08.12,1.75s0,1.29,0,1.87l-55.89,5.71L1646,372l49.69-5.08-4.53,3.47a22.08,22.08,0,0,0-3.75-11,19.93,19.93,0,0,0-8.29-7,23.42,23.42,0,0,0-22.12,2.26,19.74,19.74,0,0,0-6.76,8.58,23.67,23.67,0,0,0-1.56,11.74l.21,2a22.58,22.58,0,0,0,4.23,11.4,20.88,20.88,0,0,0,9.3,7.13,26.77,26.77,0,0,0,12.81,1.57,27.47,27.47,0,0,0,10.39-3.06,23.35,23.35,0,0,0,7.76-6.8l7.35,7a29,29,0,0,1-10.28,9.06A38.83,38.83,0,0,1,1675.87,407.54Zm-32.42-73.45,14.84-17.79,11.4-1.17,18.13,14.43-10.78,1.1-17.75-12,9.91-1-15,15.3Z" transform="translate(-15.18 -28.95)"></path><path d="M1757.51,331.46a31.46,31.46,0,0,1,14.51,1.65,22.38,22.38,0,0,1,10.56,8.44q4.13,6,5.11,15.64l3.85,37.79-11.89,1.22-3.72-36.44q-1-9.54-6.12-13.9t-13.57-3.5a23.5,23.5,0,0,0-10.77,3.61,17,17,0,0,0-6.5,8,25.68,25.68,0,0,0-1.32,12.28l3.45,33.83-11.89,1.22-6.71-65.69,11.4-1.16,1.81,17.72-2.34-4.52a23,23,0,0,1,8.89-11.05A32.75,32.75,0,0,1,1757.51,331.46Z" transform="translate(-15.18 -28.95)"></path><path d="M1849.12,389.86a36.66,36.66,0,0,1-18.35-2.51,32.09,32.09,0,0,1-13.54-10.64,36.09,36.09,0,0,1-3.54-34.7,31.57,31.57,0,0,1,11.12-13.09,37.11,37.11,0,0,1,17.47-6.11,35.09,35.09,0,0,1,16.28,1.91,25.2,25.2,0,0,1,11.92,9.37l-8.46,6.74a20.25,20.25,0,0,0-8.59-6.32,22.3,22.3,0,0,0-10.21-1.27,23.27,23.27,0,0,0-11.24,4,21.32,21.32,0,0,0-7.24,8.82,24,24,0,0,0-1.72,12.51,24.35,24.35,0,0,0,4.22,12,21.14,21.14,0,0,0,8.88,7.24,23.31,23.31,0,0,0,11.82,1.67,22.25,22.25,0,0,0,9.74-3.31,20.28,20.28,0,0,0,7.14-7.93l9.63,4.78a26.16,26.16,0,0,1-9.78,11.58A34.14,34.14,0,0,1,1849.12,389.86Z" transform="translate(-15.18 -28.95)"></path><path d="M1895.09,305.28a8,8,0,0,1-6-1.64,7.34,7.34,0,0,1-2.85-5.22,7.47,7.47,0,0,1,1.72-5.81,7.93,7.93,0,0,1,5.54-2.82,8.08,8.08,0,0,1,6,1.58,7.14,7.14,0,0,1,2.84,5.15,7.77,7.77,0,0,1-7.24,8.76Zm2,78.93-6.7-65.68,11.89-1.22L1909,383Z" transform="translate(-15.18 -28.95)"></path><path d="M1979.3,375.82l-1.42-13.88-.89-2.54-2.41-23.67q-.78-7.56-5.6-11.26t-13.62-2.8a34.73,34.73,0,0,0-11.2,3.08,29.66,29.66,0,0,0-8.9,6.1l-5.87-8.41a36.34,36.34,0,0,1,11.57-7.51,51.25,51.25,0,0,1,14.71-3.69q13.51-1.38,21.49,4.44t9.37,19.33l4,39.66Zm-21.49,2.95a31.25,31.25,0,0,1-13.08-1.17,19.7,19.7,0,0,1-9.19-6,17.4,17.4,0,0,1-4-9.67,18.86,18.86,0,0,1,1.56-9.92,17.7,17.7,0,0,1,7.59-7.79q5.5-3.19,15.29-4.19l20.82-2.12.87,8.55-20.32,2.07q-8.92.92-11.72,4.2a9.65,9.65,0,0,0-2.36,7.51,9.28,9.28,0,0,0,4.63,7.35q4.14,2.52,10.95,1.82a22.52,22.52,0,0,0,11.41-4.17,17,17,0,0,0,6.37-9.41l3.19,7.94a18.67,18.67,0,0,1-7.36,10.08Q1966.85,377.85,1957.81,378.77Z" transform="translate(-15.18 -28.95)"></path><path d="M2038.36,370.54a53.44,53.44,0,0,1-15.78-.64,36.28,36.28,0,0,1-12.14-4.27l4-9.92a41,41,0,0,0,10.9,3.77,41.45,41.45,0,0,0,12.85.69c5.53-.56,9.44-1.76,11.72-3.57a7.46,7.46,0,0,0,3-7,5.82,5.82,0,0,0-2.72-4.6,15.27,15.27,0,0,0-6.15-2q-3.75-.49-8.28-.72t-9.1-.83a35.72,35.72,0,0,1-8.48-2.14,15.49,15.49,0,0,1-6.5-4.72q-2.57-3.18-3.16-8.88a17,17,0,0,1,2.29-10.75,21.34,21.34,0,0,1,8.78-7.85,39.71,39.71,0,0,1,14.31-3.9,57.05,57.05,0,0,1,13.23.22,32.46,32.46,0,0,1,11.3,3.29l-4.12,9.93a28.6,28.6,0,0,0-9.71-3.14,43.88,43.88,0,0,0-9.78-.13q-7.82.81-11.39,3.73t-3.18,6.9A6.16,6.16,0,0,0,2023,329a16.73,16.73,0,0,0,6.24,2.18,71.89,71.89,0,0,0,8.29.85q4.53.22,9.1.82a36,36,0,0,1,8.41,2.09,15.89,15.89,0,0,1,6.48,4.59c1.76,2.08,2.82,5,3.2,8.69a16,16,0,0,1-2.42,10.64,22.55,22.55,0,0,1-9.1,7.76A42.39,42.39,0,0,1,2038.36,370.54Z" transform="translate(-15.18 -28.95)"></path><path d="M2157.83,358.35a38.42,38.42,0,0,1-19-2.44,31.34,31.34,0,0,1-13.6-10.64,34,34,0,0,1-6.17-16.9,34.82,34.82,0,0,1,2.5-17.78,31.06,31.06,0,0,1,10.57-13,33.68,33.68,0,0,1,16.48-6,33.31,33.31,0,0,1,17.28,2.49,29.94,29.94,0,0,1,12.67,10.67,36.73,36.73,0,0,1,6,17.36q.07.74.12,1.74c0,.66,0,1.29,0,1.88l-55.89,5.7-.88-8.55,49.7-5.07-4.53,3.46a22.27,22.27,0,0,0-3.75-11,20.06,20.06,0,0,0-8.29-7,23.49,23.49,0,0,0-22.12,2.26,19.67,19.67,0,0,0-6.76,8.58,23.69,23.69,0,0,0-1.56,11.74l.2,2a22.76,22.76,0,0,0,4.23,11.4,21,21,0,0,0,9.31,7.13,26.62,26.62,0,0,0,12.8,1.57,27.34,27.34,0,0,0,10.4-3.06,23.33,23.33,0,0,0,7.76-6.8l7.35,7a28.92,28.92,0,0,1-10.28,9.07A38.7,38.7,0,0,1,2157.83,358.35Z" transform="translate(-15.18 -28.95)"></path><path d="M223,589.45a8,8,0,0,1-6-1.64,7.36,7.36,0,0,1-2.85-5.22,7.47,7.47,0,0,1,1.72-5.81,7.93,7.93,0,0,1,5.54-2.82,8.08,8.08,0,0,1,6,1.58,7.14,7.14,0,0,1,2.84,5.16,7.77,7.77,0,0,1-7.24,8.75Zm2,78.93-6.7-65.68,11.9-1.22,6.7,65.69Z" transform="translate(-15.18 -28.95)"></path><path d="M294.74,594.27a31.48,31.48,0,0,1,14.51,1.65,22.38,22.38,0,0,1,10.56,8.44q4.11,6,5.1,15.64l3.86,37.79L316.87,659l-3.72-36.44q-1-9.54-6.11-13.9t-13.57-3.5a23.5,23.5,0,0,0-10.77,3.61,17,17,0,0,0-6.51,8.05,25.81,25.81,0,0,0-1.31,12.28l3.45,33.83-11.9,1.22-6.7-65.69,11.4-1.16L272.94,615l-2.34-4.52a22.93,22.93,0,0,1,8.89-11A32.75,32.75,0,0,1,294.74,594.27Z" transform="translate(-15.18 -28.95)"></path><path d="M376.56,653.67a53.76,53.76,0,0,1-15.78-.65,36.43,36.43,0,0,1-12.15-4.27l4-9.92a41,41,0,0,0,10.9,3.77,41.45,41.45,0,0,0,12.85.69q8.3-.84,11.72-3.57a7.45,7.45,0,0,0,3-6.94,5.82,5.82,0,0,0-2.72-4.61,15.42,15.42,0,0,0-6.16-2q-3.74-.49-8.27-.72c-3-.15-6.06-.43-9.1-.83a35.6,35.6,0,0,1-8.48-2.13,15.59,15.59,0,0,1-6.5-4.73q-2.58-3.18-3.16-8.88A17,17,0,0,1,349,598.13a21.19,21.19,0,0,1,8.78-7.84,39.91,39.91,0,0,1,14.31-3.91,57.61,57.61,0,0,1,13.23.22,32.74,32.74,0,0,1,11.3,3.29l-4.12,9.94a28.15,28.15,0,0,0-9.72-3.14,42.71,42.71,0,0,0-9.78-.13q-7.8.8-11.39,3.73c-2.39,2-3.44,4.25-3.17,6.89a6.14,6.14,0,0,0,2.81,4.91,16.67,16.67,0,0,0,6.24,2.19,74.11,74.11,0,0,0,8.28.84c3,.15,6.06.43,9.1.82a36.55,36.55,0,0,1,8.42,2.09,15.82,15.82,0,0,1,6.48,4.6q2.63,3.11,3.2,8.69A16,16,0,0,1,400.53,642a22.61,22.61,0,0,1-9.1,7.75A42.66,42.66,0,0,1,376.56,653.67Z" transform="translate(-15.18 -28.95)"></path><path d="M429,671.86l-9.16-89.73L431.25,581l1.8,17.72.82,15.32,2.79,15.12,4.24,41.51ZM461.45,645a30.18,30.18,0,0,1-15.32-2.25,27.55,27.55,0,0,1-11.93-10.12q-4.79-7-5.92-18.17t2-19a26.35,26.35,0,0,1,9.52-12.24A31.08,31.08,0,0,1,454.6,578a34.3,34.3,0,0,1,17.54,2.47,31.36,31.36,0,0,1,13,10.51,38,38,0,0,1,3.58,35.13,31.18,31.18,0,0,1-10.57,13A34.23,34.23,0,0,1,461.45,645Zm-2.06-10.3a22.66,22.66,0,0,0,11.05-4,20.73,20.73,0,0,0,7.11-8.93,25,25,0,0,0,1.66-12.5,24.51,24.51,0,0,0-4.16-11.91,20.88,20.88,0,0,0-8.74-7.19,22.77,22.77,0,0,0-11.63-1.69,22.4,22.4,0,0,0-10.93,4,20.92,20.92,0,0,0-7.11,8.81,24.41,24.41,0,0,0-1.67,12.5,24.9,24.9,0,0,0,4.16,11.91,20.62,20.62,0,0,0,8.76,7.31A22.41,22.41,0,0,0,459.39,634.7Z" transform="translate(-15.18 -28.95)"></path><path d="M515.84,559.56a8,8,0,0,1-6-1.64A7.36,7.36,0,0,1,507,552.7a7.47,7.47,0,0,1,1.72-5.81,8,8,0,0,1,5.54-2.82,8.17,8.17,0,0,1,6,1.58,7.14,7.14,0,0,1,2.84,5.16,7.76,7.76,0,0,1-7.24,8.75Zm2,78.93-6.7-65.68,11.9-1.21,6.7,65.68Z" transform="translate(-15.18 -28.95)"></path><path d="M559.27,634.27l-6.7-65.68,11.4-1.17,1.82,17.85-1.57-4.35a20.29,20.29,0,0,1,8.11-11.34q6.07-4.26,15.5-5.22L589,575.89a8.59,8.59,0,0,0-1.44,0l-1.3.13q-9.54,1-14.53,7.25t-3.9,17.05l3.34,32.71Z" transform="translate(-15.18 -28.95)"></path><path d="M652,624.81l-1.41-13.88-.89-2.54-2.42-23.67q-.76-7.56-5.59-11.26T628,570.65a35.06,35.06,0,0,0-11.21,3.09,29.55,29.55,0,0,0-8.89,6.1l-5.87-8.42a36,36,0,0,1,11.57-7.5,51.25,51.25,0,0,1,14.71-3.69q13.51-1.38,21.49,4.44T659.2,584l4,39.66Zm-21.49,2.94a31.06,31.06,0,0,1-13.07-1.17,19.76,19.76,0,0,1-9.2-6,17.49,17.49,0,0,1-4-9.67,18.91,18.91,0,0,1,1.56-9.93,17.62,17.62,0,0,1,7.59-7.78q5.49-3.2,15.29-4.19l20.82-2.13.87,8.55L630,597.5q-8.92.9-11.72,4.2a9.64,9.64,0,0,0-2.37,7.5,9.28,9.28,0,0,0,4.64,7.35c2.75,1.69,6.41,2.29,10.95,1.83a22.74,22.74,0,0,0,11.41-4.17,17,17,0,0,0,6.36-9.41l3.19,7.93a18.5,18.5,0,0,1-7.36,10.08Q639.54,626.83,630.48,627.75Z" transform="translate(-15.18 -28.95)"></path><path d="M720.83,618.53A36.66,36.66,0,0,1,702.48,616a32,32,0,0,1-13.55-10.64,36.16,36.16,0,0,1-3.54-34.7,31.71,31.71,0,0,1,11.12-13.09,37,37,0,0,1,17.47-6.1,35.15,35.15,0,0,1,16.29,1.9,25.12,25.12,0,0,1,11.91,9.37l-8.45,6.75a20.39,20.39,0,0,0-8.6-6.33,22.42,22.42,0,0,0-10.21-1.27,23.24,23.24,0,0,0-11.23,4,21.08,21.08,0,0,0-7.24,8.81,24.13,24.13,0,0,0-1.73,12.51,24.43,24.43,0,0,0,4.23,12,21,21,0,0,0,8.87,7.23,23.32,23.32,0,0,0,11.82,1.68,22.39,22.39,0,0,0,9.74-3.32,20.2,20.2,0,0,0,7.15-7.92l9.62,4.77a26,26,0,0,1-9.77,11.58A34,34,0,0,1,720.83,618.53Zm-3.07,27.61a24.55,24.55,0,0,1-6-.07,19.66,19.66,0,0,1-5.29-1.53l2-6.34a15.82,15.82,0,0,0,4.2,1.2,18.8,18.8,0,0,0,4.45.05c2.39-.24,4.1-.86,5.13-1.84a4.38,4.38,0,0,0,1.3-3.82,4.28,4.28,0,0,0-2-3.37q-1.82-1.12-5.53-.75l-3.34.34,1.86-12.46,6.81-.69-1.14,7.25q5.39,0,8.4,2.53A10.22,10.22,0,0,1,728.6,642Q724.7,645.43,717.76,646.14Z" transform="translate(-15.18 -28.95)"></path><path d="M796.92,610.77a35.57,35.57,0,0,1-18-2.55,32.25,32.25,0,0,1-13.43-10.71,33.81,33.81,0,0,1-6.22-16.84,33.23,33.23,0,0,1,2.7-17.74,32.5,32.5,0,0,1,10.93-13.07,35.39,35.39,0,0,1,17.16-6.14,35.87,35.87,0,0,1,18,2.49A31.42,31.42,0,0,1,821.4,556.8a36.6,36.6,0,0,1,3.54,34.7A31.88,31.88,0,0,1,814,604.64,35.46,35.46,0,0,1,796.92,610.77Zm.76-77.22a10.86,10.86,0,0,1-5.39-.7,21.16,21.16,0,0,1-4.45-2.49,44.79,44.79,0,0,0-3.89-2.54,6,6,0,0,0-3.6-.89,5.45,5.45,0,0,0-4.19,2.5,9.76,9.76,0,0,0-1.35,5.83l-6.69.68q-.47-7,2.35-11.38a10.53,10.53,0,0,1,8.25-5,10.91,10.91,0,0,1,5.47.75,22.93,22.93,0,0,1,4.51,2.55c1.36,1,2.63,1.84,3.83,2.55a5.73,5.73,0,0,0,7.8-1.55,8.54,8.54,0,0,0,1.3-5.64l6.69-.68q.54,6.58-2.32,11A10.7,10.7,0,0,1,797.68,533.55Zm-1.82,66.81a22.74,22.74,0,0,0,11-4,20.33,20.33,0,0,0,7-8.92,25.44,25.44,0,0,0,1.6-12.5A25.06,25.06,0,0,0,811.46,563a20.56,20.56,0,0,0-8.69-7.19,22.77,22.77,0,0,0-11.63-1.69,22.42,22.42,0,0,0-11,4,21.48,21.48,0,0,0-7.11,8.81,24,24,0,0,0-1.73,12.51,24.53,24.53,0,0,0,4.22,11.9,21.18,21.18,0,0,0,8.76,7.31A22.36,22.36,0,0,0,795.86,600.36Z" transform="translate(-15.18 -28.95)"></path><path d="M883.54,601.93a38.51,38.51,0,0,1-19-2.45A31.39,31.39,0,0,1,851,588.85,34,34,0,0,1,844.8,572a34.84,34.84,0,0,1,2.5-17.79,31.06,31.06,0,0,1,10.57-13,33.68,33.68,0,0,1,16.48-6,33.31,33.31,0,0,1,17.28,2.49,30,30,0,0,1,12.67,10.67,36.77,36.77,0,0,1,6,17.36c.05.5.09,1.08.11,1.74s0,1.29,0,1.88L854.5,575l-.88-8.55,49.7-5.07-4.53,3.47a22.27,22.27,0,0,0-3.75-11,20,20,0,0,0-8.29-7,23.45,23.45,0,0,0-22.12,2.25,19.76,19.76,0,0,0-6.77,8.58,23.8,23.8,0,0,0-1.55,11.74l.2,2a22.76,22.76,0,0,0,4.23,11.4,21,21,0,0,0,9.31,7.13,26.73,26.73,0,0,0,12.8,1.57,27.53,27.53,0,0,0,10.4-3.07,23.33,23.33,0,0,0,7.76-6.8l7.35,7a29,29,0,0,1-10.28,9.06A38.88,38.88,0,0,1,883.54,601.93Z" transform="translate(-15.18 -28.95)"></path><path d="M955.79,594.55a53.77,53.77,0,0,1-15.78-.64,36.9,36.9,0,0,1-12.14-4.27l4-9.93a40.51,40.51,0,0,0,10.9,3.78,41.39,41.39,0,0,0,12.84.69q8.31-.85,11.72-3.58a7.44,7.44,0,0,0,3-6.94,5.79,5.79,0,0,0-2.73-4.6,15.16,15.16,0,0,0-6.15-2c-2.5-.32-5.25-.56-8.27-.72s-6.06-.42-9.11-.82a35.72,35.72,0,0,1-8.48-2.14,15.54,15.54,0,0,1-6.49-4.72q-2.58-3.18-3.16-8.88A17,17,0,0,1,928.21,539a21.33,21.33,0,0,1,8.78-7.85,39.82,39.82,0,0,1,14.32-3.9,57.61,57.61,0,0,1,13.23.21,32.68,32.68,0,0,1,11.29,3.29l-4.12,9.94a28.24,28.24,0,0,0-9.71-3.14,43.29,43.29,0,0,0-9.78-.13q-7.82.79-11.39,3.73t-3.18,6.9a6.19,6.19,0,0,0,2.82,4.91,16.68,16.68,0,0,0,6.23,2.18A74.55,74.55,0,0,0,955,556c3,.16,6,.43,9.1.83a36.55,36.55,0,0,1,8.42,2.08,15.92,15.92,0,0,1,6.48,4.6q2.63,3.11,3.2,8.69a16.06,16.06,0,0,1-2.42,10.64,22.53,22.53,0,0,1-9.1,7.75A42.66,42.66,0,0,1,955.79,594.55Z" transform="translate(-15.18 -28.95)"></path><path d="M1075.26,582.36a38.39,38.39,0,0,1-19-2.45,31.41,31.41,0,0,1-13.61-10.63,34.12,34.12,0,0,1-6.17-16.9,34.86,34.86,0,0,1,2.51-17.79,31,31,0,0,1,10.56-13,33.71,33.71,0,0,1,16.48-6,33.35,33.35,0,0,1,17.29,2.49A30,30,0,0,1,1096,528.71a37,37,0,0,1,6,17.36c0,.5.08,1.08.11,1.75s0,1.29,0,1.87l-55.89,5.71-.87-8.55,49.7-5.08-4.53,3.47a22.18,22.18,0,0,0-3.76-11,19.93,19.93,0,0,0-8.29-7,23.42,23.42,0,0,0-22.12,2.26,19.7,19.7,0,0,0-6.76,8.58,23.67,23.67,0,0,0-1.56,11.74l.21,2a22.58,22.58,0,0,0,4.23,11.4,21,21,0,0,0,9.3,7.13,26.77,26.77,0,0,0,12.81,1.57,27.47,27.47,0,0,0,10.39-3.06,23.35,23.35,0,0,0,7.76-6.8l7.35,7a28.9,28.9,0,0,1-10.28,9.06A38.83,38.83,0,0,1,1075.26,582.36Z" transform="translate(-15.18 -28.95)"></path><path d="M1153.63,517.14l-1-9.79,41.89-4.28,1,9.79Zm37.75,53.37q-9.92,1-15.91-3.76t-7-14.69l-6.15-60.23,11.9-1.21,6.1,59.73q.54,5.32,3.5,7.91c2,1.72,4.6,2.41,7.91,2.07a14.14,14.14,0,0,0,9-4l4.59,8.17a17.49,17.49,0,0,1-6.15,4.13A27.94,27.94,0,0,1,1191.38,570.51Z" transform="translate(-15.18 -28.95)"></path><path d="M1226.87,566.14l-6.7-65.69,11.4-1.16,1.82,17.85-1.57-4.35a20.3,20.3,0,0,1,8.11-11.35q6.08-4.24,15.49-5.21l1.18,11.53a7.65,7.65,0,0,0-1.44,0l-1.3.13q-9.54,1-14.54,7.24t-3.89,17.05l3.34,32.72Z" transform="translate(-15.18 -28.95)"></path><path d="M1319.57,556.68l-1.42-13.88-.88-2.54-2.42-23.67q-.76-7.56-5.59-11.27t-13.62-2.8a35,35,0,0,0-11.21,3.08,29.45,29.45,0,0,0-8.89,6.11l-5.87-8.42a36,36,0,0,1,11.57-7.5,51.18,51.18,0,0,1,14.71-3.7q13.5-1.38,21.49,4.45t9.36,19.33l4,39.65Zm-21.49,2.94a31.12,31.12,0,0,1-13.08-1.17,19.81,19.81,0,0,1-9.19-6,17.52,17.52,0,0,1-4-9.67,18.89,18.89,0,0,1,1.55-9.93,17.72,17.72,0,0,1,7.6-7.79q5.49-3.18,15.28-4.19l20.82-2.12.88,8.55-20.33,2.07q-8.92.92-11.71,4.2a9.63,9.63,0,0,0-2.37,7.51,9.28,9.28,0,0,0,4.63,7.35q4.14,2.52,11,1.83a22.78,22.78,0,0,0,11.41-4.17,17,17,0,0,0,6.36-9.42l3.19,7.94a18.59,18.59,0,0,1-7.36,10.08Q1307.14,558.7,1298.08,559.62Z" transform="translate(-15.18 -28.95)"></path><path d="M1388,482.7a31.15,31.15,0,0,1,14.5,1.65,22.37,22.37,0,0,1,10.57,8.43q4.11,6,5.1,15.64l3.86,37.8-11.9,1.21L1406.44,511q-1-9.56-6.11-13.91t-13.57-3.5A23.54,23.54,0,0,0,1376,497.2a17,17,0,0,0-6.5,8.05,25.82,25.82,0,0,0-1.32,12.28l3.46,33.83-11.9,1.22L1353,486.9l11.4-1.17,1.81,17.72-2.34-4.52a23,23,0,0,1,8.89-11.05A32.59,32.59,0,0,1,1388,482.7Z" transform="translate(-15.18 -28.95)"></path><path d="M1469.85,542.09a53.83,53.83,0,0,1-15.79-.64,36.9,36.9,0,0,1-12.14-4.27l4-9.93a40.52,40.52,0,0,0,10.9,3.77,41.7,41.7,0,0,0,12.84.7q8.31-.86,11.72-3.58a7.45,7.45,0,0,0,3-6.94,5.81,5.81,0,0,0-2.73-4.61,15.32,15.32,0,0,0-6.15-2c-2.5-.33-5.25-.57-8.27-.72s-6.06-.42-9.1-.82a35.68,35.68,0,0,1-8.49-2.14,15.54,15.54,0,0,1-6.49-4.72q-2.58-3.18-3.16-8.89a17,17,0,0,1,2.28-10.75,21.38,21.38,0,0,1,8.78-7.84,40,40,0,0,1,14.32-3.91,58.2,58.2,0,0,1,13.23.22,32.68,32.68,0,0,1,11.29,3.29l-4.12,9.94a28,28,0,0,0-9.71-3.14,42.72,42.72,0,0,0-9.78-.13q-7.82.79-11.39,3.73t-3.18,6.9a6.19,6.19,0,0,0,2.82,4.91,16.68,16.68,0,0,0,6.23,2.18,74.55,74.55,0,0,0,8.29.84c3,.15,6.06.43,9.1.83a36.55,36.55,0,0,1,8.42,2.08,15.82,15.82,0,0,1,6.48,4.6q2.63,3.1,3.2,8.69a16.07,16.07,0,0,1-2.42,10.64,22.53,22.53,0,0,1-9.1,7.75A42.66,42.66,0,0,1,1469.85,542.09Z" transform="translate(-15.18 -28.95)"></path><path d="M1504.71,481.31l-1-9.79,41.89-4.28,1,9.79Zm16.86,54.75-7.3-71.51q-1-9.66,4.07-16t15.46-7.4a29.51,29.51,0,0,1,7.47.17,16.12,16.12,0,0,1,6.3,2.3L1544.9,453a13.87,13.87,0,0,0-4.45-1.87,15.61,15.61,0,0,0-5-.3q-5.2.54-7.64,3.73c-1.62,2.13-2.23,5.09-1.85,8.89l.9,8.8.81,5.42,5.83,57.14Z" transform="translate(-15.18 -28.95)"></path><path d="M1597.61,529.05a35.32,35.32,0,0,1-18-2.55,32.11,32.11,0,0,1-13.43-10.71A33.82,33.82,0,0,1,1560,499a33.46,33.46,0,0,1,2.7-17.75,32.52,32.52,0,0,1,10.94-13.07,35.31,35.31,0,0,1,17.15-6.14,35.94,35.94,0,0,1,18,2.49,31.42,31.42,0,0,1,13.36,10.6,36.6,36.6,0,0,1,3.54,34.7,31.86,31.86,0,0,1-10.93,13.13A35.5,35.5,0,0,1,1597.61,529.05Zm-1.06-10.41a22.57,22.57,0,0,0,11-4,20.2,20.2,0,0,0,7-8.92,25.42,25.42,0,0,0,1.61-12.5,24.88,24.88,0,0,0-4.1-11.91,20.43,20.43,0,0,0-8.69-7.19,22.65,22.65,0,0,0-11.63-1.7,22.3,22.3,0,0,0-11,4,21.41,21.41,0,0,0-7.12,8.8,24.13,24.13,0,0,0-1.73,12.51,24.6,24.6,0,0,0,4.22,11.9,21.18,21.18,0,0,0,8.76,7.31A22.27,22.27,0,0,0,1596.55,518.64Z" transform="translate(-15.18 -28.95)"></path><path d="M1654.92,522.45l-6.71-65.68,11.4-1.17,1.83,17.85-1.58-4.35a20.32,20.32,0,0,1,8.11-11.34q6.08-4.26,15.5-5.22l1.18,11.53a8.56,8.56,0,0,0-1.44,0l-1.3.13q-9.56,1-14.54,7.25t-3.9,17l3.34,32.72Z" transform="translate(-15.18 -28.95)"></path><path d="M1787.07,442a30.58,30.58,0,0,1,14.32,1.67,22.12,22.12,0,0,1,10.45,8.45q4,6,5,15.64l3.86,37.8-11.89,1.21-3.72-36.43q-1-9.54-5.93-13.92t-13-3.56a21.33,21.33,0,0,0-10.16,3.54,16.75,16.75,0,0,0-6.13,8,26.86,26.86,0,0,0-1.19,12.26l3.45,33.84-11.89,1.21-3.72-36.43q-1-9.56-5.87-13.93t-13.07-3.55a21,21,0,0,0-10,3.53,17.06,17.06,0,0,0-6.19,8,26.33,26.33,0,0,0-1.25,12.27l3.45,33.83-11.89,1.22L1705,451l11.4-1.17,1.79,17.48-2.32-4.28a22.6,22.6,0,0,1,8.52-11,30.46,30.46,0,0,1,14.63-5.12,28.23,28.23,0,0,1,16.71,3q7.29,3.94,10.36,13.15l-5-1.49a24.83,24.83,0,0,1,9.17-13.2A32.63,32.63,0,0,1,1787.07,442Z" transform="translate(-15.18 -28.95)"></path><path d="M1890.25,498.43l-1.41-13.88L1888,482l-2.41-23.67q-.78-7.54-5.6-11.26t-13.62-2.8a34.86,34.86,0,0,0-11.21,3.08,29.57,29.57,0,0,0-8.89,6.11l-5.87-8.42a36.34,36.34,0,0,1,11.57-7.51,51.25,51.25,0,0,1,14.71-3.69q13.51-1.38,21.49,4.44t9.36,19.33l4,39.66Zm-21.48,2.95a31.25,31.25,0,0,1-13.08-1.17,19.76,19.76,0,0,1-9.19-6,17.46,17.46,0,0,1-4-9.68,18.86,18.86,0,0,1,1.56-9.92,17.7,17.7,0,0,1,7.59-7.79q5.5-3.19,15.29-4.19l20.82-2.12.87,8.55-20.32,2.07q-8.93.92-11.72,4.2a9.67,9.67,0,0,0-2.36,7.51,9.28,9.28,0,0,0,4.63,7.35q4.14,2.52,11,1.82a22.52,22.52,0,0,0,11.41-4.17,17,17,0,0,0,6.37-9.41l3.19,7.94a18.64,18.64,0,0,1-7.37,10.08Q1877.82,500.46,1868.77,501.38Z" transform="translate(-15.18 -28.95)"></path><path d="M2005.8,419.65a30.56,30.56,0,0,1,14.32,1.67,22.12,22.12,0,0,1,10.45,8.45q4,6,5,15.64l3.85,37.79-11.89,1.22L2023.85,448q-1-9.54-5.93-13.92t-13-3.55a21.12,21.12,0,0,0-10.16,3.54,16.77,16.77,0,0,0-6.13,8,26.92,26.92,0,0,0-1.19,12.27l3.45,33.83L1979,489.38l-3.72-36.44q-1-9.54-5.87-13.92t-13.07-3.55a20.87,20.87,0,0,0-10,3.52,17.12,17.12,0,0,0-6.2,8,26.39,26.39,0,0,0-1.25,12.28l3.45,33.83-11.89,1.21-6.71-65.68,11.4-1.16,1.79,17.47-2.32-4.27a22.55,22.55,0,0,1,8.52-11,30.58,30.58,0,0,1,14.63-5.13,28.31,28.31,0,0,1,16.71,3q7.29,4,10.36,13.16l-5-1.49a24.89,24.89,0,0,1,9.17-13.21A32.54,32.54,0,0,1,2005.8,419.65Z" transform="translate(-15.18 -28.95)"></path><path d="M2096.42,478.14a35.46,35.46,0,0,1-18-2.54A32.18,32.18,0,0,1,2065,464.88a33.73,33.73,0,0,1-6.23-16.83,33.22,33.22,0,0,1,2.7-17.74,32.61,32.61,0,0,1,10.93-13.08,35.38,35.38,0,0,1,17.16-6.13,35.85,35.85,0,0,1,18,2.48,31.4,31.4,0,0,1,13.35,10.6,36.6,36.6,0,0,1,3.54,34.7A31.86,31.86,0,0,1,2113.52,472,35.39,35.39,0,0,1,2096.42,478.14Zm-1.06-10.41a22.69,22.69,0,0,0,11-4,20.28,20.28,0,0,0,7-8.93,25.27,25.27,0,0,0,1.6-12.49,25,25,0,0,0-4.09-11.92,20.5,20.5,0,0,0-8.69-7.19,22.66,22.66,0,0,0-11.63-1.69,22.33,22.33,0,0,0-11,4,21.45,21.45,0,0,0-7.11,8.8,24.13,24.13,0,0,0-1.73,12.51,24.53,24.53,0,0,0,4.22,11.91,21.15,21.15,0,0,0,8.76,7.3A22.27,22.27,0,0,0,2095.36,467.73Z" transform="translate(-15.18 -28.95)"></path><path d="M2172.64,470.36a53.41,53.41,0,0,1-15.78-.64,36.65,36.65,0,0,1-12.15-4.27l4-9.92a40.87,40.87,0,0,0,10.9,3.77,41.41,41.41,0,0,0,12.84.69q8.31-.84,11.72-3.58a7.44,7.44,0,0,0,3-6.94,5.79,5.79,0,0,0-2.73-4.6,15.16,15.16,0,0,0-6.15-2q-3.74-.5-8.27-.72c-3-.15-6.06-.43-9.1-.83a35.68,35.68,0,0,1-8.49-2.14,15.54,15.54,0,0,1-6.49-4.72q-2.58-3.18-3.16-8.88a17,17,0,0,1,2.28-10.75,21.4,21.4,0,0,1,8.78-7.85,39.82,39.82,0,0,1,14.32-3.9,57.61,57.61,0,0,1,13.23.21,32.68,32.68,0,0,1,11.29,3.3l-4.12,9.93a28.24,28.24,0,0,0-9.71-3.14,43.29,43.29,0,0,0-9.78-.13q-7.8.79-11.39,3.73t-3.18,6.9a6.19,6.19,0,0,0,2.82,4.91,16.67,16.67,0,0,0,6.24,2.18,71.71,71.71,0,0,0,8.28.85c3,.15,6.06.42,9.1.82a36.55,36.55,0,0,1,8.42,2.08,16,16,0,0,1,6.48,4.6A15.67,15.67,0,0,1,2199,448a16,16,0,0,1-2.42,10.64,22.53,22.53,0,0,1-9.1,7.75A42.23,42.23,0,0,1,2172.64,470.36Z" transform="translate(-15.18 -28.95)"></path><path d="M167.3,708.66a8,8,0,0,1-6-1.64,7.37,7.37,0,0,1-2.85-5.22,7.47,7.47,0,0,1,1.72-5.81,7.93,7.93,0,0,1,5.54-2.82,8.08,8.08,0,0,1,6,1.58,7.14,7.14,0,0,1,2.84,5.15,7.77,7.77,0,0,1-7.24,8.76Zm2,78.93-6.7-65.68,11.9-1.22,6.7,65.68Z" transform="translate(-15.18 -28.95)"></path><path d="M229.65,782.18a53.41,53.41,0,0,1-15.78-.64,36.65,36.65,0,0,1-12.15-4.27l4-9.92a41,41,0,0,0,10.9,3.77,41.45,41.45,0,0,0,12.85.69c5.53-.56,9.44-1.76,11.71-3.57a7.45,7.45,0,0,0,3-7,5.81,5.81,0,0,0-2.72-4.6,15.26,15.26,0,0,0-6.16-2q-3.73-.5-8.27-.73c-3-.14-6.06-.42-9.1-.82a35.48,35.48,0,0,1-8.48-2.14,15.57,15.57,0,0,1-6.5-4.72q-2.58-3.18-3.16-8.88a17,17,0,0,1,2.29-10.75,21.24,21.24,0,0,1,8.77-7.85,39.82,39.82,0,0,1,14.32-3.9,57.61,57.61,0,0,1,13.23.21,32.74,32.74,0,0,1,11.3,3.3l-4.13,9.93a28.24,28.24,0,0,0-9.71-3.14,43.28,43.28,0,0,0-9.78-.13q-7.8.79-11.39,3.73c-2.39,2-3.44,4.26-3.17,6.9a6.16,6.16,0,0,0,2.81,4.91,16.67,16.67,0,0,0,6.24,2.18,71.71,71.71,0,0,0,8.28.85c3,.15,6.06.42,9.1.82a36.55,36.55,0,0,1,8.42,2.08,16,16,0,0,1,6.48,4.6,15.67,15.67,0,0,1,3.2,8.69,16,16,0,0,1-2.42,10.64,22.53,22.53,0,0,1-9.1,7.75A42.44,42.44,0,0,1,229.65,782.18Z" transform="translate(-15.18 -28.95)"></path><path d="M298.55,775.15a53.77,53.77,0,0,1-15.78-.64,36.73,36.73,0,0,1-12.14-4.27l4-9.93a40.59,40.59,0,0,0,10.91,3.78,41.37,41.37,0,0,0,12.84.69q8.29-.85,11.72-3.58a7.44,7.44,0,0,0,3-6.94,5.81,5.81,0,0,0-2.72-4.6,15.27,15.27,0,0,0-6.15-2c-2.5-.32-5.26-.57-8.28-.72s-6.05-.42-9.1-.82a35.72,35.72,0,0,1-8.48-2.14,15.54,15.54,0,0,1-6.49-4.72q-2.58-3.18-3.16-8.88A16.89,16.89,0,0,1,271,719.62a21.27,21.27,0,0,1,8.78-7.85,39.71,39.71,0,0,1,14.31-3.9,57.69,57.69,0,0,1,13.24.21,32.75,32.75,0,0,1,11.29,3.29l-4.12,9.94a28.17,28.17,0,0,0-9.71-3.14A43.29,43.29,0,0,0,295,718q-7.82.8-11.39,3.73t-3.18,6.9a6.17,6.17,0,0,0,2.82,4.91,16.62,16.62,0,0,0,6.23,2.18,74.31,74.31,0,0,0,8.29.84c3,.16,6.05.43,9.1.83a36.46,36.46,0,0,1,8.41,2.08,15.92,15.92,0,0,1,6.48,4.6q2.64,3.1,3.2,8.69a16,16,0,0,1-2.42,10.64,22.47,22.47,0,0,1-9.1,7.75A42.6,42.6,0,0,1,298.55,775.15Z" transform="translate(-15.18 -28.95)"></path><path d="M376.75,767.17a35.36,35.36,0,0,1-18-2.55,32.17,32.17,0,0,1-13.43-10.71,33.72,33.72,0,0,1-6.22-16.83,33.36,33.36,0,0,1,2.69-17.75,32.67,32.67,0,0,1,10.94-13.07,35.34,35.34,0,0,1,17.16-6.13,35.86,35.86,0,0,1,18,2.48,31.52,31.52,0,0,1,13.35,10.6,36.6,36.6,0,0,1,3.54,34.7A31.79,31.79,0,0,1,393.84,761,35.5,35.5,0,0,1,376.75,767.17Zm-1.06-10.41a22.57,22.57,0,0,0,11-4,20.22,20.22,0,0,0,7-8.92,25.4,25.4,0,0,0,1.6-12.49,25,25,0,0,0-4.1-11.92,20.47,20.47,0,0,0-8.68-7.19A22.66,22.66,0,0,0,371,710.54a22.29,22.29,0,0,0-11,4,21.45,21.45,0,0,0-7.11,8.8,24,24,0,0,0-1.73,12.51,24.46,24.46,0,0,0,4.22,11.9,21.18,21.18,0,0,0,8.76,7.31A22.26,22.26,0,0,0,375.69,756.76Z" transform="translate(-15.18 -28.95)"></path><path d="M502.51,686.59a31.28,31.28,0,0,1,14.5,1.65,22.35,22.35,0,0,1,10.57,8.44q4.11,6,5.1,15.63l3.86,37.8-11.9,1.22-3.72-36.44q-1-9.54-6.11-13.9t-13.57-3.5a23.42,23.42,0,0,0-10.78,3.61,17,17,0,0,0-6.5,8,25.81,25.81,0,0,0-1.31,12.28l3.45,33.83-11.9,1.21-6.7-65.68,11.4-1.16,1.81,17.72-2.34-4.52a22.93,22.93,0,0,1,8.89-11.05A32.75,32.75,0,0,1,502.51,686.59Z" transform="translate(-15.18 -28.95)"></path><path d="M593.62,745a35.46,35.46,0,0,1-18-2.55,32.16,32.16,0,0,1-13.42-10.71A33.73,33.73,0,0,1,556,714.94a33.23,33.23,0,0,1,2.7-17.74,32.58,32.58,0,0,1,10.93-13.07A35.39,35.39,0,0,1,586.78,678a35.94,35.94,0,0,1,18,2.49,31.3,31.3,0,0,1,13.35,10.59,36.64,36.64,0,0,1,3.55,34.7,32,32,0,0,1-10.93,13.14A35.5,35.5,0,0,1,593.62,745Zm-1.06-10.41a22.7,22.7,0,0,0,11.05-4,20.2,20.2,0,0,0,7-8.92,25.31,25.31,0,0,0,1.6-12.5,24.88,24.88,0,0,0-4.09-11.91,20.43,20.43,0,0,0-8.69-7.19,24,24,0,0,0-22.62,2.3,21.48,21.48,0,0,0-7.11,8.81A24.13,24.13,0,0,0,568,713.72a24.53,24.53,0,0,0,4.22,11.9,21.18,21.18,0,0,0,8.76,7.31A22.37,22.37,0,0,0,592.56,734.63Z" transform="translate(-15.18 -28.95)"></path><path d="M669.84,737.26a53.75,53.75,0,0,1-15.78-.64,36.88,36.88,0,0,1-12.15-4.27l4-9.93a40.64,40.64,0,0,0,10.9,3.77,41.41,41.41,0,0,0,12.84.69q8.31-.84,11.72-3.57a7.43,7.43,0,0,0,3-6.94,5.84,5.84,0,0,0-2.72-4.61,15.42,15.42,0,0,0-6.16-2q-3.74-.5-8.27-.72c-3-.15-6.06-.42-9.1-.82a35.48,35.48,0,0,1-8.48-2.14,15.51,15.51,0,0,1-6.5-4.73c-1.72-2.11-2.77-5.08-3.16-8.88a17,17,0,0,1,2.29-10.75,21.29,21.29,0,0,1,8.77-7.84A40,40,0,0,1,665.35,670a58.19,58.19,0,0,1,13.23.22,32.74,32.74,0,0,1,11.3,3.29l-4.13,9.94a28,28,0,0,0-9.71-3.14,42.72,42.72,0,0,0-9.78-.13q-7.8.79-11.39,3.73t-3.18,6.9a6.17,6.17,0,0,0,2.82,4.9,16.5,16.5,0,0,0,6.24,2.19,74.11,74.11,0,0,0,8.28.84c3,.15,6.06.43,9.1.83a36.55,36.55,0,0,1,8.42,2.08,15.82,15.82,0,0,1,6.48,4.6q2.63,3.1,3.2,8.69a16,16,0,0,1-2.42,10.64,22.53,22.53,0,0,1-9.1,7.75A42.66,42.66,0,0,1,669.84,737.26Z" transform="translate(-15.18 -28.95)"></path><path d="M835.38,652.62a30.59,30.59,0,0,1,14.32,1.67,22.05,22.05,0,0,1,10.44,8.45q4.05,6,5,15.64l3.86,37.8-11.9,1.21L853.42,681q-1-9.54-5.93-13.92t-13-3.56A21.37,21.37,0,0,0,824.32,667a16.81,16.81,0,0,0-6.13,8A26.86,26.86,0,0,0,817,687.3l3.46,33.84-11.9,1.21-3.72-36.43q-1-9.55-5.87-13.93t-13.07-3.55a21,21,0,0,0-10,3.53,17,17,0,0,0-6.19,8,26.19,26.19,0,0,0-1.26,12.27l3.46,33.83L760,727.31l-6.7-65.68,11.4-1.17,1.78,17.48-2.31-4.27a22.5,22.5,0,0,1,8.51-11,30.46,30.46,0,0,1,14.63-5.12,28.23,28.23,0,0,1,16.71,3q7.29,3.94,10.36,13.15l-5-1.49A24.8,24.8,0,0,1,818.5,659,32.6,32.6,0,0,1,835.38,652.62Z" transform="translate(-15.18 -28.95)"></path><path d="M938.56,709.08l-1.42-13.88-.88-2.54L933.84,669q-.76-7.54-5.59-11.26t-13.63-2.8a34.8,34.8,0,0,0-11.2,3.08,29.45,29.45,0,0,0-8.89,6.11l-5.87-8.42a36,36,0,0,1,11.57-7.5,50.86,50.86,0,0,1,14.71-3.7q13.5-1.38,21.49,4.44t9.36,19.33l4.05,39.66ZM917.07,712A31.28,31.28,0,0,1,904,710.86a19.81,19.81,0,0,1-9.19-6,17.52,17.52,0,0,1-4-9.68,18.85,18.85,0,0,1,1.55-9.92,17.67,17.67,0,0,1,7.6-7.79q5.49-3.19,15.28-4.19l20.82-2.12.88,8.55-20.33,2.07q-8.93.91-11.71,4.2a9.63,9.63,0,0,0-2.37,7.51,9.28,9.28,0,0,0,4.63,7.35q4.14,2.52,11,1.82a22.59,22.59,0,0,0,11.41-4.17,17,17,0,0,0,6.36-9.41l3.19,7.94a18.62,18.62,0,0,1-7.36,10.08Q926.13,711.11,917.07,712Z" transform="translate(-15.18 -28.95)"></path><path d="M976.67,626.06a8,8,0,0,1-6-1.65,7.32,7.32,0,0,1-2.85-5.22,7.48,7.48,0,0,1,1.72-5.81,8,8,0,0,1,5.53-2.82,8.14,8.14,0,0,1,6,1.59,7.16,7.16,0,0,1,2.84,5.15,7.77,7.77,0,0,1-7.24,8.76Zm2,78.93L972,639.3l11.89-1.21,6.71,65.68Z" transform="translate(-15.18 -28.95)"></path><path d="M1039,699.58a53.83,53.83,0,0,1-15.79-.64,36.9,36.9,0,0,1-12.14-4.27l4-9.93a40.51,40.51,0,0,0,10.9,3.78,41.39,41.39,0,0,0,12.84.69q8.31-.86,11.72-3.58a7.44,7.44,0,0,0,3-6.94,5.82,5.82,0,0,0-2.73-4.61,15.32,15.32,0,0,0-6.15-2c-2.5-.32-5.25-.57-8.27-.72s-6.06-.42-9.1-.82a35.68,35.68,0,0,1-8.49-2.14,15.54,15.54,0,0,1-6.49-4.72q-2.58-3.18-3.16-8.88a17.06,17.06,0,0,1,2.28-10.76,21.38,21.38,0,0,1,8.78-7.84,39.82,39.82,0,0,1,14.32-3.9,57.61,57.61,0,0,1,13.23.21,32.68,32.68,0,0,1,11.29,3.29l-4.12,9.94a28,28,0,0,0-9.71-3.14,43.29,43.29,0,0,0-9.78-.13q-7.8.79-11.39,3.73t-3.18,6.9a6.19,6.19,0,0,0,2.82,4.91,16.68,16.68,0,0,0,6.23,2.18,74.55,74.55,0,0,0,8.29.84c3,.16,6.06.43,9.1.83a36.55,36.55,0,0,1,8.42,2.08,15.92,15.92,0,0,1,6.48,4.6q2.63,3.11,3.2,8.69a16.07,16.07,0,0,1-2.42,10.64,22.53,22.53,0,0,1-9.1,7.75A42.66,42.66,0,0,1,1039,699.58Z" transform="translate(-15.18 -28.95)"></path><path d="M1156.37,687.6a34.34,34.34,0,0,1-17.47-2.47,31,31,0,0,1-13-10.57,37.9,37.9,0,0,1-3.59-35.13,31.18,31.18,0,0,1,10.64-12.92,34.35,34.35,0,0,1,16.61-6,30.4,30.4,0,0,1,15.38,2.19,27.22,27.22,0,0,1,11.85,10.06q4.79,7,5.93,18.17t-2,19a26.84,26.84,0,0,1-9.45,12.3A30.53,30.53,0,0,1,1156.37,687.6Zm-.07-10.51a22.44,22.44,0,0,0,10.93-4,20.64,20.64,0,0,0,7.1-8.93,25,25,0,0,0,1.67-12.5,24.51,24.51,0,0,0-4.16-11.91,20.91,20.91,0,0,0-8.75-7.19,23.76,23.76,0,0,0-22.49,2.3,21.55,21.55,0,0,0-7.12,8.8,24.13,24.13,0,0,0-1.73,12.51,24.54,24.54,0,0,0,4.23,11.91,21.19,21.19,0,0,0,8.75,7.3A22.27,22.27,0,0,0,1156.3,677.09Zm23.42,7.38-1.81-17.72-.81-15.32-2.79-15.12-4.47-43.74,11.9-1.22,9.38,92Z" transform="translate(-15.18 -28.95)"></path><path d="M1218.45,601.38a8,8,0,0,1-6-1.64,7.36,7.36,0,0,1-2.85-5.22,7.47,7.47,0,0,1,1.72-5.81,8,8,0,0,1,5.54-2.82,8.08,8.08,0,0,1,6,1.58,7.14,7.14,0,0,1,2.84,5.16,7.77,7.77,0,0,1-7.24,8.75Zm2,78.93-6.7-65.68,11.9-1.22,6.7,65.69Z" transform="translate(-15.18 -28.95)"></path><path d="M1246.76,621.16l-1-9.8,41.89-4.27,1,9.79Zm16.86,54.75-7.3-71.51q-1-9.66,4.06-16t15.47-7.4a29,29,0,0,1,7.46.17,16.16,16.16,0,0,1,6.31,2.3l-2.67,9.42a13.87,13.87,0,0,0-4.45-1.87,15.66,15.66,0,0,0-5-.3q-5.2.54-7.63,3.73c-1.62,2.12-2.23,5.09-1.85,8.89l.9,8.79.81,5.43,5.83,57.13Z" transform="translate(-15.18 -28.95)"></path><path d="M1340.78,668.78a38.36,38.36,0,0,1-19-2.44,31.42,31.42,0,0,1-13.61-10.63A34.06,34.06,0,0,1,1302,638.8a34.71,34.71,0,0,1,2.51-17.78,31,31,0,0,1,10.56-13,33.71,33.71,0,0,1,16.48-6,33.31,33.31,0,0,1,17.28,2.49,30,30,0,0,1,12.68,10.67,36.87,36.87,0,0,1,6,17.36c0,.49.09,1.08.12,1.74s0,1.29,0,1.88l-55.89,5.7-.87-8.55,49.69-5.07-4.53,3.47a22.27,22.27,0,0,0-3.75-11,20.09,20.09,0,0,0-8.29-7,23.49,23.49,0,0,0-22.12,2.26,19.74,19.74,0,0,0-6.76,8.58,23.69,23.69,0,0,0-1.56,11.74l.2,2a22.76,22.76,0,0,0,4.23,11.4,20.94,20.94,0,0,0,9.31,7.12,26.65,26.65,0,0,0,12.81,1.58,27.53,27.53,0,0,0,10.39-3.07,23.23,23.23,0,0,0,7.76-6.8l7.35,7a28.92,28.92,0,0,1-10.28,9.07A38.7,38.7,0,0,1,1340.78,668.78Z" transform="translate(-15.18 -28.95)"></path><path d="M1394.11,662.59l-6.7-65.68,11.4-1.16,1.82,17.84-1.57-4.35a20.29,20.29,0,0,1,8.11-11.34q6.07-4.26,15.5-5.22l1.17,11.53a8.46,8.46,0,0,0-1.43,0l-1.31.13q-9.54,1-14.53,7.25t-3.9,17l3.34,32.72Z" transform="translate(-15.18 -28.95)"></path><path d="M1479.58,654.62a38.36,38.36,0,0,1-19-2.45A31.35,31.35,0,0,1,1447,641.54a34,34,0,0,1-6.17-16.9,34.85,34.85,0,0,1,2.5-17.79,31,31,0,0,1,10.57-13,33.82,33.82,0,0,1,16.48-6,33.42,33.42,0,0,1,17.28,2.5A30.07,30.07,0,0,1,1500.34,601a36.87,36.87,0,0,1,6,17.36c0,.5.09,1.08.12,1.75s0,1.29,0,1.87l-55.89,5.71-.87-8.56,49.69-5.07-4.53,3.47a22.27,22.27,0,0,0-3.75-11,20,20,0,0,0-8.29-7,23.41,23.41,0,0,0-22.12,2.26,19.66,19.66,0,0,0-6.76,8.57,23.73,23.73,0,0,0-1.56,11.75l.2,2a22.76,22.76,0,0,0,4.23,11.4,21,21,0,0,0,9.31,7.13,26.77,26.77,0,0,0,12.81,1.57,27.52,27.52,0,0,0,10.39-3.06,23.36,23.36,0,0,0,7.76-6.81l7.35,7a29,29,0,0,1-10.28,9.06A38.89,38.89,0,0,1,1479.58,654.62Z" transform="translate(-15.18 -28.95)"></path><path d="M1561.22,578.54a31.46,31.46,0,0,1,14.51,1.65,22.32,22.32,0,0,1,10.56,8.44q4.11,6,5.1,15.63l3.86,37.8-11.9,1.22-3.71-36.44q-1-9.54-6.12-13.9t-13.57-3.5a23.38,23.38,0,0,0-10.77,3.61,17,17,0,0,0-6.51,8.05,25.81,25.81,0,0,0-1.31,12.28l3.45,33.83-11.9,1.21-6.7-65.68,11.4-1.16,1.81,17.72-2.34-4.52a22.93,22.93,0,0,1,8.89-11A32.75,32.75,0,0,1,1561.22,578.54Z" transform="translate(-15.18 -28.95)"></path><path d="M1609,584.19l-1-9.79,41.89-4.28,1,9.79Zm37.76,53.37q-9.91,1-15.91-3.76t-7-14.69l-6.15-60.23,11.9-1.21,6.09,59.73c.37,3.55,1.53,6.19,3.5,7.91s4.61,2.41,7.91,2.07a14.08,14.08,0,0,0,9-4l4.59,8.18a17.4,17.4,0,0,1-6.15,4.13A27.87,27.87,0,0,1,1646.76,637.56Z" transform="translate(-15.18 -28.95)"></path><path d="M1709.34,631.17a38.38,38.38,0,0,1-19-2.45,31.41,31.41,0,0,1-13.61-10.63,34,34,0,0,1-6.17-16.9,34.87,34.87,0,0,1,2.51-17.79,30.93,30.93,0,0,1,10.56-13,33.71,33.71,0,0,1,16.48-6,33.37,33.37,0,0,1,17.29,2.49,30,30,0,0,1,12.67,10.66,36.87,36.87,0,0,1,6,17.36c0,.5.09,1.08.12,1.75s0,1.29,0,1.87l-55.89,5.71-.87-8.55,49.69-5.08-4.53,3.47a22.18,22.18,0,0,0-3.75-11,19.93,19.93,0,0,0-8.29-7,23.42,23.42,0,0,0-22.12,2.26,19.68,19.68,0,0,0-6.76,8.58,23.67,23.67,0,0,0-1.56,11.74l.21,2a22.58,22.58,0,0,0,4.23,11.4,20.88,20.88,0,0,0,9.3,7.13,26.77,26.77,0,0,0,12.81,1.57,27.47,27.47,0,0,0,10.39-3.06,23.35,23.35,0,0,0,7.76-6.8l7.35,7a29,29,0,0,1-10.28,9.06A38.83,38.83,0,0,1,1709.34,631.17Z" transform="translate(-15.18 -28.95)"></path><path d="M1781.59,623.8a53.77,53.77,0,0,1-15.78-.65,36.28,36.28,0,0,1-12.14-4.27l4-9.92a41,41,0,0,0,10.9,3.77,41.45,41.45,0,0,0,12.85.69q8.29-.84,11.72-3.57a7.45,7.45,0,0,0,3-6.94,5.82,5.82,0,0,0-2.72-4.61,15.27,15.27,0,0,0-6.15-2q-3.75-.49-8.28-.72t-9.1-.83a35.13,35.13,0,0,1-8.48-2.14,15.49,15.49,0,0,1-6.5-4.72,16.52,16.52,0,0,1-3.15-8.88,16.89,16.89,0,0,1,2.28-10.75,21.34,21.34,0,0,1,8.78-7.85,39.71,39.71,0,0,1,14.31-3.9,57.05,57.05,0,0,1,13.23.22,32.74,32.74,0,0,1,11.3,3.29l-4.12,9.94a28.4,28.4,0,0,0-9.71-3.15,43.29,43.29,0,0,0-9.78-.12q-7.82.79-11.39,3.72t-3.18,6.9a6.17,6.17,0,0,0,2.82,4.91,16.38,16.38,0,0,0,6.23,2.18,71.89,71.89,0,0,0,8.29.85c3,.15,6,.43,9.1.82a36.47,36.47,0,0,1,8.41,2.09,15.89,15.89,0,0,1,6.48,4.59c1.76,2.08,2.82,5,3.2,8.69a16,16,0,0,1-2.42,10.64,22.55,22.55,0,0,1-9.1,7.76A42.66,42.66,0,0,1,1781.59,623.8Z" transform="translate(-15.18 -28.95)"></path><path d="M1871.73,613.85l-9.38-92,11.89-1.21,9.39,92Z" transform="translate(-15.18 -28.95)"></path><path d="M1941.33,607.49a35.46,35.46,0,0,1-18-2.54,32.18,32.18,0,0,1-13.42-10.72,33.69,33.69,0,0,1-6.23-16.83,33.23,33.23,0,0,1,2.7-17.74,32.59,32.59,0,0,1,10.93-13.08,35.38,35.38,0,0,1,17.16-6.13,35.85,35.85,0,0,1,18,2.48,31.46,31.46,0,0,1,13.35,10.6,36.6,36.6,0,0,1,3.54,34.7,31.8,31.8,0,0,1-10.93,13.14A35.31,35.31,0,0,1,1941.33,607.49Zm-1.06-10.41a22.73,22.73,0,0,0,11-4,20.38,20.38,0,0,0,7-8.92,25.33,25.33,0,0,0,1.6-12.5,25,25,0,0,0-4.09-11.92,20.56,20.56,0,0,0-8.69-7.19,22.65,22.65,0,0,0-11.63-1.69,22.33,22.33,0,0,0-11,4,21.45,21.45,0,0,0-7.11,8.8,24.13,24.13,0,0,0-1.73,12.51,24.53,24.53,0,0,0,4.22,11.91,21.15,21.15,0,0,0,8.76,7.3A22.27,22.27,0,0,0,1940.27,597.08Z" transform="translate(-15.18 -28.95)"></path><path d="M2026.84,598.77a35.57,35.57,0,0,1-18-2.55,32.16,32.16,0,0,1-13.42-10.71,33.73,33.73,0,0,1-6.23-16.84,33.23,33.23,0,0,1,2.7-17.74,32.5,32.5,0,0,1,10.93-13.07,35.39,35.39,0,0,1,17.16-6.14,35.85,35.85,0,0,1,18,2.49,31.36,31.36,0,0,1,13.35,10.59,36.63,36.63,0,0,1,3.55,34.7,31.9,31.9,0,0,1-10.94,13.14A35.46,35.46,0,0,1,2026.84,598.77Zm-1.06-10.41a22.74,22.74,0,0,0,11-4,20.26,20.26,0,0,0,7-8.92,25.44,25.44,0,0,0,1.6-12.5,25,25,0,0,0-4.09-11.92,20.5,20.5,0,0,0-8.69-7.19,22.77,22.77,0,0,0-11.63-1.69,22.42,22.42,0,0,0-11,4,21.48,21.48,0,0,0-7.11,8.81,24.13,24.13,0,0,0-1.73,12.51,24.53,24.53,0,0,0,4.22,11.9,21.18,21.18,0,0,0,8.76,7.31A22.37,22.37,0,0,0,2025.78,588.36Z" transform="translate(-15.18 -28.95)"></path><path d="M2084.14,592.17l-9.38-92,11.9-1.21,9.38,92Zm8.05-16.85-1.31-15.27,34.27-38.43,14.38-1.47-26.09,31.46-5.89,6.11ZM2134.33,587l-29-29.34,6.71-10.32,37,38.17Z" transform="translate(-15.18 -28.95)"></path><path d="M2184.1,582.72a53.77,53.77,0,0,1-15.78-.65,36.45,36.45,0,0,1-12.14-4.27l4-9.92a40.87,40.87,0,0,0,10.9,3.77,41.39,41.39,0,0,0,12.84.69q8.31-.84,11.72-3.57a7.45,7.45,0,0,0,3-6.94,5.81,5.81,0,0,0-2.73-4.61,15.37,15.37,0,0,0-6.15-2c-2.5-.33-5.25-.57-8.27-.72s-6.06-.43-9.1-.83a35.21,35.21,0,0,1-8.49-2.14,15.46,15.46,0,0,1-6.49-4.72q-2.58-3.18-3.16-8.88a17,17,0,0,1,2.28-10.75,21.4,21.4,0,0,1,8.78-7.85,40,40,0,0,1,14.32-3.9,57.07,57.07,0,0,1,13.23.22,32.68,32.68,0,0,1,11.29,3.29l-4.12,9.94a28.27,28.27,0,0,0-9.71-3.15,43.29,43.29,0,0,0-9.78-.12q-7.8.79-11.39,3.72t-3.18,6.9a6.18,6.18,0,0,0,2.82,4.91,16.51,16.51,0,0,0,6.23,2.18,72.13,72.13,0,0,0,8.29.85c3,.15,6.06.43,9.1.82a36.55,36.55,0,0,1,8.42,2.09,15.89,15.89,0,0,1,6.48,4.59,15.7,15.7,0,0,1,3.2,8.69,16,16,0,0,1-2.42,10.64,22.55,22.55,0,0,1-9.1,7.76A42.66,42.66,0,0,1,2184.1,582.72Z" transform="translate(-15.18 -28.95)"></path><path d="M1519.47,763.32l-1.41-13.88-.89-2.54-2.42-23.67q-.76-7.56-5.59-11.26t-13.62-2.81a35.06,35.06,0,0,0-11.21,3.09,29.55,29.55,0,0,0-8.89,6.1l-5.87-8.42a36,36,0,0,1,11.57-7.5,51.25,51.25,0,0,1,14.71-3.69q13.5-1.38,21.49,4.44t9.36,19.33l4,39.66ZM1498,766.26a31.12,31.12,0,0,1-13.08-1.17,19.78,19.78,0,0,1-9.19-6,17.49,17.49,0,0,1-4-9.67,18.91,18.91,0,0,1,1.56-9.93,17.62,17.62,0,0,1,7.59-7.78q5.49-3.19,15.29-4.19l20.82-2.13.87,8.55L1497.53,736c-6,.6-9.86,2-11.72,4.2a9.64,9.64,0,0,0-2.37,7.5,9.31,9.31,0,0,0,4.64,7.36c2.75,1.68,6.41,2.28,11,1.82a22.65,22.65,0,0,0,11.41-4.17,17,17,0,0,0,6.36-9.41l3.19,7.94a18.57,18.57,0,0,1-7.36,10.08Q1507,765.34,1498,766.26Z" transform="translate(-15.18 -28.95)"></path><path d="M1587.34,757.14a33.65,33.65,0,0,1-15.13-1.58,22.26,22.26,0,0,1-10.88-8.47q-4.18-6-5.17-15.69l-3.86-37.8,11.9-1.21,3.72,36.43q1,9.67,6.12,14t13.57,3.5a22,22,0,0,0,10.52-3.64,17.2,17.2,0,0,0,6.31-8.16,26.11,26.11,0,0,0,1.27-12.09l-3.47-34,11.9-1.22,6.7,65.68-11.27,1.15-1.81-17.72,2.34,4.52a23.08,23.08,0,0,1-8.63,11.15A29.25,29.25,0,0,1,1587.34,757.14Z" transform="translate(-15.18 -28.95)"></path><path d="M1635.22,695l-1-9.79L1676.1,681l1,9.79ZM1673,748.4q-9.92,1-15.91-3.76t-7-14.68l-6.15-60.23,11.9-1.22,6.1,59.74c.36,3.55,1.52,6.19,3.5,7.91s4.6,2.41,7.91,2.07a14.1,14.1,0,0,0,9-4.05l4.59,8.17a17.33,17.33,0,0,1-6.16,4.14A27.43,27.43,0,0,1,1673,748.4Z" transform="translate(-15.18 -28.95)"></path><path d="M1735.55,742a38.51,38.51,0,0,1-19-2.45,31.39,31.39,0,0,1-13.6-10.63,34,34,0,0,1-6.18-16.9,34.84,34.84,0,0,1,2.51-17.79,31.17,31.17,0,0,1,10.56-13,33.71,33.71,0,0,1,16.48-6,33.33,33.33,0,0,1,17.29,2.5,30,30,0,0,1,12.67,10.66,36.77,36.77,0,0,1,6,17.36c0,.5.08,1.08.11,1.74s0,1.3,0,1.88l-55.9,5.71-.87-8.56,49.7-5.07-4.53,3.47a22.18,22.18,0,0,0-3.76-11,20,20,0,0,0-8.28-7,23.44,23.44,0,0,0-22.13,2.26,19.73,19.73,0,0,0-6.76,8.57,23.84,23.84,0,0,0-1.56,11.75l.21,2a22.58,22.58,0,0,0,4.23,11.4,21,21,0,0,0,9.3,7.13,26.77,26.77,0,0,0,12.81,1.57,27.65,27.65,0,0,0,10.39-3.06,23.28,23.28,0,0,0,7.76-6.81l7.35,7a28.9,28.9,0,0,1-10.28,9.06A38.83,38.83,0,0,1,1735.55,742Zm-32.41-73.45,14.84-17.8,11.4-1.16L1747.5,664l-10.78,1.1-17.75-12,9.92-1-15,15.3Z" transform="translate(-15.18 -28.95)"></path><path d="M1817.19,665.94a31.33,31.33,0,0,1,14.51,1.65,22.39,22.39,0,0,1,10.57,8.44q4.11,6,5.1,15.63l3.86,37.8-11.9,1.21-3.72-36.43q-1-9.54-6.12-13.9t-13.56-3.5a23.49,23.49,0,0,0-10.78,3.6,17.07,17.07,0,0,0-6.5,8.06,25.68,25.68,0,0,0-1.32,12.28l3.46,33.83-11.9,1.21-6.7-65.68,11.4-1.16,1.81,17.72-2.34-4.52a22.93,22.93,0,0,1,8.89-11A32.67,32.67,0,0,1,1817.19,665.94Z" transform="translate(-15.18 -28.95)"></path><path d="M1865,671.58l-1-9.79,41.89-4.27,1,9.79ZM1902.73,725q-9.92,1-15.91-3.76t-7-14.69l-6.15-60.23,11.9-1.21,6.1,59.73q.54,5.33,3.5,7.91t7.91,2.07a14.1,14.1,0,0,0,9-4l4.59,8.17a17.38,17.38,0,0,1-6.15,4.14A27.94,27.94,0,0,1,1902.73,725Z" transform="translate(-15.18 -28.95)"></path><path d="M1936.18,641.65a8,8,0,0,1-6-1.64,7.32,7.32,0,0,1-2.85-5.22,7.47,7.47,0,0,1,1.72-5.81,8,8,0,0,1,5.54-2.82,8.12,8.12,0,0,1,6,1.58,7.14,7.14,0,0,1,2.84,5.16,7.76,7.76,0,0,1-7.24,8.75Zm2,78.93-6.7-65.68,11.89-1.21,6.71,65.68Z" transform="translate(-15.18 -28.95)"></path><path d="M2008.32,714.18a36.64,36.64,0,0,1-18.35-2.51A32,32,0,0,1,1976.42,701a36.16,36.16,0,0,1-3.54-34.7A31.65,31.65,0,0,1,1984,653.24a37.15,37.15,0,0,1,17.47-6.11,35.14,35.14,0,0,1,16.29,1.91,25.12,25.12,0,0,1,11.91,9.37l-8.45,6.75a20.3,20.3,0,0,0-8.6-6.33,22.42,22.42,0,0,0-10.21-1.27,23.29,23.29,0,0,0-11.23,4,21.17,21.17,0,0,0-7.24,8.82,24.13,24.13,0,0,0-1.73,12.51,24.43,24.43,0,0,0,4.23,12,21,21,0,0,0,8.87,7.23,23.2,23.2,0,0,0,11.82,1.67,22.25,22.25,0,0,0,9.74-3.31,20.21,20.21,0,0,0,7.14-7.93l9.63,4.78a26.08,26.08,0,0,1-9.77,11.58A34.18,34.18,0,0,1,2008.32,714.18Z" transform="translate(-15.18 -28.95)"></path><path d="M2084.41,706.41a35.46,35.46,0,0,1-18-2.54A32.21,32.21,0,0,1,2053,693.15a33.68,33.68,0,0,1-6.22-16.83,33.31,33.31,0,0,1,2.69-17.74,32.7,32.7,0,0,1,10.94-13.08,35.34,35.34,0,0,1,17.15-6.13,35.89,35.89,0,0,1,18,2.48,31.52,31.52,0,0,1,13.35,10.6,36.6,36.6,0,0,1,3.54,34.7,31.88,31.88,0,0,1-10.93,13.14A35.39,35.39,0,0,1,2084.41,706.41ZM2083.35,696a22.56,22.56,0,0,0,11-4,20.28,20.28,0,0,0,7.05-8.92,25.44,25.44,0,0,0,1.6-12.5,25,25,0,0,0-4.1-11.92,20.47,20.47,0,0,0-8.68-7.19,22.77,22.77,0,0,0-11.63-1.69,22.29,22.29,0,0,0-11,4,21.45,21.45,0,0,0-7.11,8.8,24,24,0,0,0-1.73,12.51A24.53,24.53,0,0,0,2063,687a21.15,21.15,0,0,0,8.76,7.3A22.24,22.24,0,0,0,2083.35,696Z" transform="translate(-15.18 -28.95)"></path><path d="M2160.62,698.64a53.77,53.77,0,0,1-15.78-.65,36.36,36.36,0,0,1-12.14-4.27l4-9.92a43.87,43.87,0,0,0,23.75,4.46c5.54-.56,9.44-1.76,11.72-3.57a7.46,7.46,0,0,0,3-6.94,5.83,5.83,0,0,0-2.73-4.61,15.37,15.37,0,0,0-6.15-2q-3.75-.5-8.28-.72t-9.1-.83a35.25,35.25,0,0,1-8.48-2.14,15.46,15.46,0,0,1-6.49-4.72q-2.58-3.18-3.16-8.88A16.89,16.89,0,0,1,2133,643.1a21.4,21.4,0,0,1,8.78-7.85,39.82,39.82,0,0,1,14.31-3.9,57.15,57.15,0,0,1,13.24.22,32.68,32.68,0,0,1,11.29,3.29l-4.12,9.93a28.53,28.53,0,0,0-9.71-3.14,43.29,43.29,0,0,0-9.78-.12q-7.82.79-11.39,3.72t-3.18,6.9a6.19,6.19,0,0,0,2.82,4.91,16.68,16.68,0,0,0,6.23,2.18,72.13,72.13,0,0,0,8.29.85q4.53.23,9.1.82a36.34,36.34,0,0,1,8.41,2.09,14.54,14.54,0,0,1,9.69,13.28,16.1,16.1,0,0,1-2.42,10.64,22.62,22.62,0,0,1-9.1,7.76A42.66,42.66,0,0,1,2160.62,698.64Z" transform="translate(-15.18 -28.95)"></path><path d="M2213.54,693.24a8.41,8.41,0,0,1-9.3-7.7,8.06,8.06,0,0,1,1.86-6.32,8.33,8.33,0,0,1,5.71-3,8,8,0,0,1,6,1.76,8.2,8.2,0,0,1,3,5.83,8.38,8.38,0,0,1-1.79,6.38A7.92,7.92,0,0,1,2213.54,693.24Z" transform="translate(-15.18 -28.95)"></path></g></g></svg>