<svg xmlns="http://www.w3.org/2000/svg" viewBox="0 0 722.23 773.29"><defs><style>.cls-1{fill:#fff;}.cls-2{fill:#b43176;}</style></defs><title>Ativo 100</title><g id="Camada_2" data-name="Camada 2"><g id="Camada_1-2" data-name="Camada 1"><g id="MOBILE5"><rect class="cls-1" width="722.23" height="773.29"/><rect class="cls-2" x="172.45" y="323.43" width="477.35" height="67.49"/><rect class="cls-2" x="171.97" y="323.29" width="421.41" height="132.43"/><rect class="cls-2" x="432.64" y="577.6" width="211.62" height="62"/><rect class="cls-2" x="228.89" y="639.24" width="415.37" height="62"/><path class="cls-2" d="M133.73,189.55l-.14-36.75,5.62,0L162.37,181h-2.78l-.11-28.35,6.72,0,.14,36.76-5.62,0-23.1-28.26,2.78,0,.11,28.36Z"/><path class="cls-2" d="M196.38,189.84a21.54,21.54,0,0,1-7.91-1.39,18.88,18.88,0,0,1-6.34-4,17.94,17.94,0,0,1-4.18-6,20,20,0,0,1,0-15,17.82,17.82,0,0,1,4.12-6,19.4,19.4,0,0,1,6.29-4,21.62,21.62,0,0,1,7.92-1.45,22,22,0,0,1,7.88,1.36,18.54,18.54,0,0,1,6.29,3.92,18.09,18.09,0,0,1,4.15,6,19.53,19.53,0,0,1,1.5,7.56,19,19,0,0,1-1.45,7.54,18.25,18.25,0,0,1-4.09,6,18.52,18.52,0,0,1-6.26,4A22,22,0,0,1,196.38,189.84Zm0-6a13.72,13.72,0,0,0,5.12-1,12.23,12.23,0,0,0,4.06-2.7,12.59,12.59,0,0,0,2.69-4.1,14.56,14.56,0,0,0,0-10.4,11.73,11.73,0,0,0-2.72-4.08,12.37,12.37,0,0,0-4.1-2.67,13.57,13.57,0,0,0-5.13-.92,14.15,14.15,0,0,0-5.17,1A12,12,0,0,0,187,161.7a13.18,13.18,0,0,0-2.71,4.11,13,13,0,0,0-1,5.18,13.2,13.2,0,0,0,1,5.14,13.06,13.06,0,0,0,2.75,4.11,11.73,11.73,0,0,0,4.13,2.69A13.92,13.92,0,0,0,196.35,183.85Z"/><path class="cls-2" d="M250.45,189.1l-6.82,0-.14-36.76,26.83-.1,0,5.78-20,.07Zm-.6-19.79,18.28-.07,0,5.67-18.27.07Z"/><path class="cls-2" d="M280,189l-.14-36.76,6.83,0,.14,36.75Z"/><path class="cls-2" d="M299.6,188.91l-.14-36.75,5.62,0,16.17,26.77h-2.94L334,152l5.61,0,.25,36.76-6.56,0-.1-26.62h1.31l-13.25,22.52h-3.1l-13.74-22.42H306l.1,26.62Z"/><path class="cls-2" d="M350.3,196.7,353.25,185l1,3.93a4.46,4.46,0,0,1-3.13-1.11,4,4,0,0,1-1.25-3.12,4.17,4.17,0,0,1,1.22-3.13,4.25,4.25,0,0,1,3-1.2,4.14,4.14,0,0,1,3.08,1.2,4.25,4.25,0,0,1,1.19,3.09,7,7,0,0,1-.1,1.19,10.65,10.65,0,0,1-.36,1.39c-.18.52-.42,1.19-.73,2l-2.7,7.46Z"/><path class="cls-2" d="M380.51,188.6l16.4-36.82,6.72,0,16.73,36.69-7.19,0L398.86,155.4h2.73l-14.1,33.18Zm7.58-8.53L390,174.7l19.79-.07,1.86,5.34Z"/><path class="cls-2" d="M462.47,188.81a21.72,21.72,0,0,1-7.91-1.36,18.63,18.63,0,0,1-6.28-3.94,18.16,18.16,0,0,1-4.18-6,20.11,20.11,0,0,1-.05-15.12,18,18,0,0,1,4.15-6,18.83,18.83,0,0,1,6.28-4,23.7,23.7,0,0,1,16.38.06,16.59,16.59,0,0,1,6.35,4.44l-4.29,4.22A13.58,13.58,0,0,0,462.77,157a15,15,0,0,0-5.38,1,12.61,12.61,0,0,0-4.22,2.7,12.39,12.39,0,0,0-2.76,4.11,13.13,13.13,0,0,0-1,5.2,13.39,13.39,0,0,0,1,5.17,12.25,12.25,0,0,0,2.8,4.11,12.47,12.47,0,0,0,4.21,2.66,14.61,14.61,0,0,0,5.36.92,16.19,16.19,0,0,0,5.27-.88,14.42,14.42,0,0,0,4.85-2.94l3.85,5.08a19.73,19.73,0,0,1-6.6,3.52A25.67,25.67,0,0,1,462.47,188.81Zm7.91-5.6-.05-13.7,6.4,0,.06,14.6Z"/><path class="cls-2" d="M495.53,182.38l20.74-.08,0,5.78-27.57.1-.14-36.75,26.83-.11,0,5.78-20,.08Zm-.59-15.7,18.27-.07,0,5.62L495,172.3Z"/><path class="cls-2" d="M526.79,188l-.14-36.76,5.62,0,23.16,28.26h-2.79l-.11-28.35,6.72,0,.15,36.75-5.62,0-23.11-28.26h2.78l.11,28.35Z"/><path class="cls-2" d="M579.66,187.83l-.12-31-12.18.05,0-5.78,31.19-.12,0,5.78-12.18.05.12,31Z"/><path class="cls-2" d="M613.51,181.93l20.74-.08,0,5.77-27.57.11L606.56,151l26.83-.1,0,5.78-20,.07Zm-.59-15.7,18.27-.07,0,5.61-18.28.08Z"/><path class="cls-2" d="M127.78,252.58l-.14-36.76,5.62,0,16.17,26.77h-2.94l15.7-26.89,5.62,0,.24,36.75-6.56,0-.1-26.62h1.31l-13.25,22.52-3.1,0-13.74-22.42h1.58l.1,26.62Z"/><path class="cls-2" d="M187.61,246.57l20.74-.08,0,5.78-27.57.1-.14-36.75,26.83-.11,0,5.78-20,.08Zm-.58-15.7,18.27-.07,0,5.62-18.27.07Z"/><path class="cls-2" d="M218.88,252.23l-.14-36.76,6.82,0,.14,36.76Z"/><path class="cls-2" d="M255.74,252.61a21.57,21.57,0,0,1-7.91-1.39,18.73,18.73,0,0,1-6.34-4,18.06,18.06,0,0,1-4.17-6,18.81,18.81,0,0,1-1.5-7.48,19,19,0,0,1,1.44-7.54,17.91,17.91,0,0,1,4.12-6,19.4,19.4,0,0,1,6.29-4,21.62,21.62,0,0,1,7.92-1.45,22,22,0,0,1,7.88,1.36,18.54,18.54,0,0,1,6.29,3.92,17.94,17.94,0,0,1,4.15,6,20.12,20.12,0,0,1,.06,15.1,18.24,18.24,0,0,1-10.36,10A21.93,21.93,0,0,1,255.74,252.61Zm0-6a13.48,13.48,0,0,0,5.11-1,12.13,12.13,0,0,0,4.06-2.7,12.33,12.33,0,0,0,2.69-4.1,13.52,13.52,0,0,0,.95-5.2,13.87,13.87,0,0,0-1-5.2,11.73,11.73,0,0,0-2.72-4.08,12.42,12.42,0,0,0-4.1-2.67,13.55,13.55,0,0,0-5.12-.92,14.11,14.11,0,0,0-5.17,1,12,12,0,0,0-4.11,2.72,13.5,13.5,0,0,0-2.68,14.43,13.06,13.06,0,0,0,2.75,4.11,11.82,11.82,0,0,0,4.13,2.69A13.94,13.94,0,0,0,255.72,246.62Z"/><path class="cls-2" d="M320.22,252.36a21.54,21.54,0,0,1-7.91-1.39,18.86,18.86,0,0,1-6.34-4,18.08,18.08,0,0,1-4.18-6,19.17,19.17,0,0,1-1.5-7.48,18.8,18.8,0,0,1,1.45-7.51,18.12,18.12,0,0,1,4.12-6,19,19,0,0,1,6.29-4,22.92,22.92,0,0,1,15.8-.09,18.33,18.33,0,0,1,10.44,9.94,19.12,19.12,0,0,1,1.49,7.53,18.84,18.84,0,0,1-1.44,7.54,18.13,18.13,0,0,1-4.1,6,18.38,18.38,0,0,1-6.25,4A22,22,0,0,1,320.22,252.36Zm0-6a13.53,13.53,0,0,0,5.12-1,12.21,12.21,0,0,0,6.77-6.85,13.79,13.79,0,0,0,.93-5.15,13.64,13.64,0,0,0-1-5.17,12.06,12.06,0,0,0-2.72-4.09,12.34,12.34,0,0,0-4.1-2.68,13.42,13.42,0,0,0-5.13-.93,14.15,14.15,0,0,0-5.17,1,11.83,11.83,0,0,0-4.11,2.73,12.91,12.91,0,0,0-3.69,9.28,13.06,13.06,0,0,0,3.76,9.25,11.86,11.86,0,0,0,4.14,2.69A13.92,13.92,0,0,0,320.19,246.37Zm12.08,13.5a14.09,14.09,0,0,1-3.78-.46,14.79,14.79,0,0,1-3.58-1.45,21.67,21.67,0,0,1-3.69-2.66q-1.89-1.68-4.16-4.08l7.24-1.87a20,20,0,0,0,2.82,3.09,10,10,0,0,0,2.63,1.67,6.9,6.9,0,0,0,2.55.51,8.26,8.26,0,0,0,6.34-3l3.11,3.82A11.66,11.66,0,0,1,332.27,259.87Z"/><path class="cls-2" d="M365.84,252.18q-7.5,0-11.8-4.2t-4.33-12.33L349.63,215l6.83,0,.08,20.48c0,3.78.84,6.52,2.47,8.23a9.06,9.06,0,0,0,6.91,2.55c3,0,5.27-.88,6.87-2.6s2.4-4.48,2.39-8.26l-.08-20.47,6.72,0,.08,20.69q0,8.08-4.23,12.35T365.84,252.18Z"/><path class="cls-2" d="M401.21,245.74l20.74-.08,0,5.78-27.57.11-.14-36.76,26.83-.1,0,5.77-20,.08Zm-.59-15.69,18.27-.07,0,5.61-18.28.07Z"/><path class="cls-2" d="M455.52,251.84a15.26,15.26,0,0,1-6.44-1.34,12.2,12.2,0,0,1-4.87-4l3.87-4.63a11.06,11.06,0,0,0,3.35,3.14,7.87,7.87,0,0,0,4,1q5.67,0,5.64-6.8L461,220.31l-13.08.05,0-5.78,19.85-.07.09,24.36q0,6.51-3.11,9.73T455.52,251.84Z"/><path class="cls-2" d="M496.16,251.68q-7.5,0-11.8-4.21T480,235.15L480,214.46l6.83,0,.07,20.48c0,3.78.84,6.53,2.48,8.24a9.05,9.05,0,0,0,6.91,2.54c3,0,5.27-.87,6.87-2.6s2.4-4.47,2.39-8.25l-.08-20.48,6.72,0,.08,20.68c0,5.4-1.39,9.51-4.24,12.36S501.2,251.66,496.16,251.68Z"/><path class="cls-2" d="M524.72,251l-.14-36.75,5.62,0,23.16,28.26h-2.79l-.1-28.35,6.72,0,.14,36.76-5.62,0L528.6,222.67h2.79l.1,28.36Z"/><path class="cls-2" d="M577.6,250.84l-.12-31-12.19,0,0-5.78,31.19-.12,0,5.78-12.18,0,.12,31Z"/><path class="cls-2" d="M597.6,250.76,614,213.94l6.72,0,16.73,36.69-7.19,0L616,217.56h2.73l-14.1,33.19Zm7.58-8.53,1.87-5.37,19.8-.07,1.85,5.35Z"/><path class="cls-2" d="M242.38,315.14l-.12-31-12.18,0,0-5.77,31.18-.12,0,5.77-12.18.05.12,31Z"/><path class="cls-2" d="M286.12,315.49a21.57,21.57,0,0,1-7.91-1.39,18.7,18.7,0,0,1-6.34-4,18.2,18.2,0,0,1-4.17-6,18.8,18.8,0,0,1-1.5-7.47,19.06,19.06,0,0,1,1.44-7.55,18.06,18.06,0,0,1,4.12-6,19.4,19.4,0,0,1,6.29-4,23,23,0,0,1,15.8-.08,18.52,18.52,0,0,1,6.29,3.91,17.89,17.89,0,0,1,4.15,6,20.1,20.1,0,0,1,.06,15.09,18.24,18.24,0,0,1-10.36,10A21.71,21.71,0,0,1,286.12,315.49Zm0-6a13.48,13.48,0,0,0,5.11-1,12.1,12.1,0,0,0,4.06-2.69,12.37,12.37,0,0,0,2.69-4.11,13.52,13.52,0,0,0,1-5.2,13.82,13.82,0,0,0-1-5.19,11.68,11.68,0,0,0-2.72-4.09,12.24,12.24,0,0,0-4.1-2.66,13.36,13.36,0,0,0-5.12-.93,13.91,13.91,0,0,0-5.17,1,11.67,11.67,0,0,0-4.11,2.72,13.26,13.26,0,0,0,.07,18.53,11.68,11.68,0,0,0,4.13,2.69A14.15,14.15,0,0,0,286.1,309.51Z"/><path class="cls-2" d="M316,314.85l-.14-36.75L332,278a23,23,0,0,1,10.43,2.25,17,17,0,0,1,7.09,6.4,19.76,19.76,0,0,1,.07,19.33,17,17,0,0,1-7,6.45,22.94,22.94,0,0,1-10.42,2.33Zm6.81-5.8,8.87,0a15.28,15.28,0,0,0,7.16-1.6,11.7,11.7,0,0,0,4.71-4.43,12.67,12.67,0,0,0,1.68-6.67,12.44,12.44,0,0,0-1.73-6.61,11.91,11.91,0,0,0-4.74-4.34,15.36,15.36,0,0,0-7.18-1.55l-8.87,0Z"/><path class="cls-2" d="M356.53,314.69l16.39-36.81,6.73,0,16.73,36.69-7.19,0-14.31-33.08h2.73l-14.1,33.19Zm7.58-8.53L366,300.8l19.79-.08,1.86,5.35Z"/><path class="cls-2" d="M415.34,315a27.32,27.32,0,0,1-8.23-1.2,18.53,18.53,0,0,1-6.28-3.15l2.34-5.31a19,19,0,0,0,5.47,2.86,19.81,19.81,0,0,0,6.67,1.13,14.2,14.2,0,0,0,4.67-.65A5.5,5.5,0,0,0,422.6,307a3.82,3.82,0,0,0,.83-2.45,3.38,3.38,0,0,0-1.21-2.7,8.88,8.88,0,0,0-3.13-1.61c-1.28-.4-2.7-.76-4.26-1.09s-3.12-.73-4.68-1.21a21.35,21.35,0,0,1-4.29-1.85,8.41,8.41,0,0,1-4.33-7.84,10,10,0,0,1,1.58-5.49,11,11,0,0,1,4.87-4,20.12,20.12,0,0,1,8.31-1.53,26.17,26.17,0,0,1,6.57.82,19.13,19.13,0,0,1,5.68,2.39l-2.13,5.31a20.56,20.56,0,0,0-5.1-2.16,20,20,0,0,0-5.05-.69,13.2,13.2,0,0,0-4.56.7,5.52,5.52,0,0,0-2.6,1.83,4.15,4.15,0,0,0-.8,2.49,3.39,3.39,0,0,0,1.19,2.7,8.35,8.35,0,0,0,3.11,1.59c1.28.38,2.7.74,4.28,1.09s3.13.75,4.68,1.21a20.42,20.42,0,0,1,4.26,1.83,8.94,8.94,0,0,1,3.13,3,8.59,8.59,0,0,1,1.2,4.74,9.83,9.83,0,0,1-1.58,5.44,10.94,10.94,0,0,1-4.89,4A20.17,20.17,0,0,1,415.34,315Z"/><path class="cls-2" d="M464,308.5l20.74-.08,0,5.78-27.57.11-.14-36.76,26.83-.1,0,5.77-20,.08Zm-.59-15.69,18.27-.07,0,5.61-18.27.07Z"/><path class="cls-2" d="M506.7,314.64a27.32,27.32,0,0,1-8.23-1.2,18.9,18.9,0,0,1-6.28-3.15l2.34-5.32a19,19,0,0,0,5.47,2.87,19.81,19.81,0,0,0,6.67,1.13,14.47,14.47,0,0,0,4.67-.65A5.51,5.51,0,0,0,514,306.6a3.8,3.8,0,0,0,.83-2.44,3.38,3.38,0,0,0-1.21-2.7,9.05,9.05,0,0,0-3.13-1.62c-1.28-.39-2.7-.76-4.26-1.08s-3.12-.73-4.68-1.22a20.79,20.79,0,0,1-4.29-1.85,8.82,8.82,0,0,1-3.13-3,9,9,0,0,1-1.2-4.83,10,10,0,0,1,1.58-5.49,11,11,0,0,1,4.87-4,20,20,0,0,1,8.31-1.53,25.72,25.72,0,0,1,6.57.82A18.88,18.88,0,0,1,519.9,280l-2.13,5.31a20.56,20.56,0,0,0-5.1-2.16,19.09,19.09,0,0,0-5-.69,13,13,0,0,0-4.56.7,5.58,5.58,0,0,0-2.6,1.82,4.21,4.21,0,0,0-.8,2.5,3.39,3.39,0,0,0,1.19,2.7,8.35,8.35,0,0,0,3.11,1.59c1.27.38,2.7.74,4.28,1.09s3.13.74,4.68,1.21a20.94,20.94,0,0,1,4.26,1.82,9,9,0,0,1,3.13,3,8.8,8.8,0,0,1,1.2,4.75,9.83,9.83,0,0,1-1.58,5.44,11,11,0,0,1-4.89,4A20.17,20.17,0,0,1,506.7,314.64Z"/><path class="cls-2" d="M542.61,314.5a27.25,27.25,0,0,1-8.22-1.2,18.59,18.59,0,0,1-6.29-3.15l2.34-5.32a19.1,19.1,0,0,0,5.48,2.87,19.77,19.77,0,0,0,6.67,1.13,14.28,14.28,0,0,0,4.67-.65,5.56,5.56,0,0,0,2.62-1.72,3.89,3.89,0,0,0,.83-2.44,3.38,3.38,0,0,0-1.22-2.7,9,9,0,0,0-3.13-1.62q-1.92-.58-4.26-1.08c-1.56-.33-3.12-.73-4.68-1.22a21.24,21.24,0,0,1-4.28-1.84,8.88,8.88,0,0,1-3.14-3,9,9,0,0,1-1.2-4.83,10,10,0,0,1,1.58-5.49,11.06,11.06,0,0,1,4.87-4,20,20,0,0,1,8.32-1.53,25.7,25.7,0,0,1,6.56.82,18.91,18.91,0,0,1,5.68,2.39l-2.13,5.31a20.56,20.56,0,0,0-5.1-2.16,19.81,19.81,0,0,0-5-.69,13,13,0,0,0-4.57.7,5.54,5.54,0,0,0-2.59,1.82,4.22,4.22,0,0,0-.81,2.5,3.43,3.43,0,0,0,1.2,2.7,8.31,8.31,0,0,0,3.1,1.59c1.28.38,2.71.74,4.28,1.09s3.14.75,4.68,1.21a20.94,20.94,0,0,1,4.26,1.82,9.15,9.15,0,0,1,3.14,3,8.8,8.8,0,0,1,1.2,4.75,9.92,9.92,0,0,1-1.58,5.44,11,11,0,0,1-4.9,4A20.17,20.17,0,0,1,542.61,314.5Z"/><path class="cls-2" d="M561.93,313.9l16.4-36.82,6.72,0,16.73,36.69-7.19,0L580.28,280.7H583l-14.1,33.18Zm7.58-8.53,1.87-5.37,19.79-.07,1.86,5.35Z"/><path class="cls-2" d="M620.74,314.2a27.25,27.25,0,0,1-8.22-1.2,18.78,18.78,0,0,1-6.29-3.16l2.34-5.31A19.17,19.17,0,0,0,614,307.4a19.86,19.86,0,0,0,6.68,1.13,14.56,14.56,0,0,0,4.67-.65,5.56,5.56,0,0,0,2.62-1.72,3.91,3.91,0,0,0,.83-2.44,3.38,3.38,0,0,0-1.22-2.7,9,9,0,0,0-3.13-1.62c-1.28-.39-2.7-.76-4.26-1.08s-3.12-.73-4.68-1.22a20.47,20.47,0,0,1-4.28-1.85,8.85,8.85,0,0,1-3.14-3,9,9,0,0,1-1.2-4.83,9.93,9.93,0,0,1,1.58-5.49,10.94,10.94,0,0,1,4.87-4,20,20,0,0,1,8.31-1.53,26.16,26.16,0,0,1,6.57.81,19,19,0,0,1,5.68,2.4l-2.13,5.31a20.56,20.56,0,0,0-5.1-2.16,19,19,0,0,0-5.05-.69,13,13,0,0,0-4.56.7,5.54,5.54,0,0,0-2.59,1.82,4.22,4.22,0,0,0-.81,2.5,3.42,3.42,0,0,0,1.19,2.7,8.35,8.35,0,0,0,3.11,1.59c1.28.38,2.71.74,4.28,1.08s3.14.75,4.68,1.22a20.39,20.39,0,0,1,4.26,1.82,9.06,9.06,0,0,1,3.14,3,8.78,8.78,0,0,1,1.2,4.75,9.87,9.87,0,0,1-1.59,5.44,11,11,0,0,1-4.89,4A20.17,20.17,0,0,1,620.74,314.2Z"/><path class="cls-1" d="M188.23,378.34l-.14-36.75,6.82,0,.14,36.76Z"/><path class="cls-1" d="M207.86,378.27l-.14-36.76,5.62,0,23.16,28.27h-2.78l-.11-28.36,6.72,0,.14,36.75-5.62,0-23.1-28.26h2.78l.11,28.35Z"/><path class="cls-1" d="M260.11,378.07l-6.83,0-.14-36.75,26.83-.11,0,5.78-20,.08Zm-.6-19.8,18.27-.07,0,5.67-18.27.08Z"/><path class="cls-1" d="M289.62,378l-.15-36.75,6.83,0,.12,31,19.22-.07,0,5.77Z"/><path class="cls-1" d="M339.18,378.29q-7.5,0-11.8-4.21t-4.33-12.32L323,341.07l6.83,0,.08,20.48c0,3.78.84,6.53,2.47,8.23a9.08,9.08,0,0,0,6.92,2.55,9,9,0,0,0,6.86-2.6c1.61-1.72,2.4-4.47,2.39-8.25L348.44,341l6.72,0,.08,20.69q0,8.08-4.23,12.36T339.18,378.29Z"/><path class="cls-1" d="M374.55,371.85l20.74-.08,0,5.77-27.56.11-.15-36.75,26.83-.11,0,5.78-20,.08Zm-3.49-34,7.06-7.22,5.88,0,7.11,7.16-5.35,0-7.22-6,5,0-7.17,6.07Zm2.9,18.26,18.27-.07,0,5.62-18.28.07Z"/><path class="cls-1" d="M405.81,377.5l-.14-36.75,5.62,0L434.45,369h-2.78l-.11-28.35,6.72,0,.14,36.76-5.62,0-23.11-28.27h2.79l.1,28.36Z"/><path class="cls-1" d="M468.24,377.79a21.61,21.61,0,0,1-7.83-1.36A18.45,18.45,0,0,1,450,366.52a20.2,20.2,0,0,1-.06-15.13,18.51,18.51,0,0,1,4.13-6,18.79,18.79,0,0,1,6.23-4,22.7,22.7,0,0,1,16.07.1,16.38,16.38,0,0,1,6.32,4.57l-4.4,4.17A14,14,0,0,0,473.8,347a13.11,13.11,0,0,0-5.31-1,14.22,14.22,0,0,0-5.28,1,12.23,12.23,0,0,0-4.13,2.7,12.4,12.4,0,0,0-2.74,4.1,14,14,0,0,0,0,10.4,12.31,12.31,0,0,0,6.93,6.75,14.21,14.21,0,0,0,5.28.92,13.1,13.1,0,0,0,5.3-1.1,13.57,13.57,0,0,0,4.5-3.29l4.43,4.13a16.69,16.69,0,0,1-6.29,4.64A21.06,21.06,0,0,1,468.24,377.79Z"/><path class="cls-1" d="M492.29,377.17l-.14-36.76,6.82,0,.14,36.75Z"/><path class="cls-1" d="M506.73,377.11l16.39-36.81,6.73,0L546.58,377l-7.19,0-14.31-33.08h2.73l-14.1,33.19Zm7.58-8.53,1.87-5.36,19.79-.08,1.86,5.35Z"/><path class="cls-1" d="M565.54,377.41a27.32,27.32,0,0,1-8.23-1.2,18.53,18.53,0,0,1-6.28-3.15l2.34-5.32a18.8,18.8,0,0,0,5.47,2.87,19.81,19.81,0,0,0,6.67,1.13,14.2,14.2,0,0,0,4.67-.65,5.5,5.5,0,0,0,2.62-1.71,3.82,3.82,0,0,0,.83-2.45,3.38,3.38,0,0,0-1.21-2.7,8.88,8.88,0,0,0-3.13-1.61c-1.28-.4-2.7-.76-4.26-1.09s-3.12-.73-4.68-1.21a21.93,21.93,0,0,1-4.29-1.85,8.41,8.41,0,0,1-4.33-7.84,10,10,0,0,1,1.58-5.49,11,11,0,0,1,4.87-4,20.12,20.12,0,0,1,8.31-1.53,26.17,26.17,0,0,1,6.57.82,19.13,19.13,0,0,1,5.68,2.39l-2.13,5.31a20.56,20.56,0,0,0-5.1-2.16,20,20,0,0,0-5-.69,13.2,13.2,0,0,0-4.56.7,5.52,5.52,0,0,0-2.6,1.83,4.15,4.15,0,0,0-.8,2.49,3.39,3.39,0,0,0,1.19,2.7,8.35,8.35,0,0,0,3.11,1.59c1.28.38,2.7.74,4.28,1.09s3.13.75,4.68,1.21a20.42,20.42,0,0,1,4.26,1.83,8.94,8.94,0,0,1,3.13,3,8.59,8.59,0,0,1,1.2,4.74,9.83,9.83,0,0,1-1.58,5.44,10.94,10.94,0,0,1-4.89,4A20.17,20.17,0,0,1,565.54,377.41Z"/><path class="cls-1" d="M614.24,370.92l20.74-.08,0,5.78-27.57.11L607.29,340l26.83-.1,0,5.77-20,.08Zm-.59-15.69,18.27-.08,0,5.62-18.27.07Z"/><path class="cls-1" d="M184.9,441.36l-.14-36.76,6.82,0,.15,36.75Z"/><path class="cls-1" d="M204.54,441.28l-.14-36.75,5.61,0,23.16,28.26h-2.78l-.11-28.35,6.72,0,.14,36.76-5.61,0-23.11-28.27h2.78l.11,28.36Z"/><path class="cls-1" d="M261.35,441.59a27.25,27.25,0,0,1-8.22-1.2,18.78,18.78,0,0,1-6.29-3.16l2.35-5.31a18.91,18.91,0,0,0,5.47,2.87,19.77,19.77,0,0,0,6.67,1.13,14.56,14.56,0,0,0,4.67-.65,5.64,5.64,0,0,0,2.62-1.72,3.86,3.86,0,0,0,.83-2.44,3.38,3.38,0,0,0-1.22-2.7,9,9,0,0,0-3.13-1.62c-1.28-.39-2.7-.76-4.26-1.08s-3.12-.73-4.67-1.22a20.79,20.79,0,0,1-4.29-1.85,8.94,8.94,0,0,1-3.14-3,9,9,0,0,1-1.2-4.83,10,10,0,0,1,1.58-5.49,11,11,0,0,1,4.87-4,20,20,0,0,1,8.32-1.53,26.14,26.14,0,0,1,6.56.81,18.92,18.92,0,0,1,5.68,2.4l-2.13,5.31a20.56,20.56,0,0,0-5.1-2.16,19,19,0,0,0-5-.69,13,13,0,0,0-4.57.7,5.54,5.54,0,0,0-2.59,1.82,4.14,4.14,0,0,0-.8,2.5,3.39,3.39,0,0,0,1.19,2.7,8.31,8.31,0,0,0,3.1,1.59c1.28.38,2.71.74,4.28,1.08s3.14.75,4.68,1.22a20.39,20.39,0,0,1,4.26,1.82,9,9,0,0,1,3.14,3,8.78,8.78,0,0,1,1.2,4.75,9.86,9.86,0,0,1-1.58,5.44,11,11,0,0,1-4.9,4A20.17,20.17,0,0,1,261.35,441.59Z"/><path class="cls-1" d="M285.87,441l-.14-36.76,15.12,0a20.51,20.51,0,0,1,8.38,1.51,12,12,0,0,1,5.4,4.47,12.73,12.73,0,0,1,1.92,7,11.93,11.93,0,0,1-7.23,11.5A19.89,19.89,0,0,1,301,430.3l-11.29.05,3-3.16.05,13.75Zm6.77-13.05-3-3.35,11,0c3,0,5.28-.66,6.79-1.94a7.48,7.48,0,0,0,0-10.77q-2.28-1.9-6.8-1.89l-11,0,3-3.37Z"/><path class="cls-1" d="M326.35,440.81l-.14-36.75,6.82,0,.15,36.76Z"/><path class="cls-1" d="M346,440.74,345.85,404l15.12-.06a20.67,20.67,0,0,1,8.38,1.52,12,12,0,0,1,5.4,4.47,12.78,12.78,0,0,1,1.92,7,12.36,12.36,0,0,1-1.87,6.93,12.21,12.21,0,0,1-5.36,4.49,20.41,20.41,0,0,1-8.37,1.61l-11.29,0,3-3.06.05,13.76Zm6.77-13.05-3-3.3,11,0c3,0,5.28-.67,6.79-2a6.72,6.72,0,0,0,2.27-5.42,6.63,6.63,0,0,0-2.31-5.37q-2.3-1.9-6.81-1.89l-11,0,3-3.37ZM370,440.64l-9.35-13.3,7.3,0,9.4,13.31Z"/><path class="cls-1" d="M382.06,440.6l16.4-36.82,6.72,0,16.73,36.69-7.19,0-14.31-33.08h2.73L389,440.57Zm7.58-8.54,1.87-5.36,19.79-.08,1.86,5.35Z"/><path class="cls-1" d="M446,440.87a21.2,21.2,0,0,1-7.83-1.36,18.45,18.45,0,0,1-10.38-9.91,20.17,20.17,0,0,1-.06-15.12,18.14,18.14,0,0,1,4.13-6,18.79,18.79,0,0,1,6.23-4,21.49,21.49,0,0,1,7.82-1.42,21.19,21.19,0,0,1,8.25,1.52,16.28,16.28,0,0,1,6.32,4.57l-4.4,4.16a13.84,13.84,0,0,0-4.53-3.21,13.24,13.24,0,0,0-5.3-1.06,14.22,14.22,0,0,0-5.28,1,12.34,12.34,0,0,0-4.14,2.69,12.65,12.65,0,0,0-2.74,4.11,14.15,14.15,0,0,0,0,10.4,12.63,12.63,0,0,0,2.78,4.08A12.11,12.11,0,0,0,441,434a14,14,0,0,0,5.28.93,13.18,13.18,0,0,0,5.29-1.1,13.4,13.4,0,0,0,4.51-3.3l4.42,4.13a16.49,16.49,0,0,1-6.28,4.65A21.05,21.05,0,0,1,446,440.87Zm-2.42,11.41a12.77,12.77,0,0,1-2.63-.25,8.26,8.26,0,0,1-2.15-.78l1.14-3.11a9.33,9.33,0,0,0,1.73.63,8.17,8.17,0,0,0,1.84.2,3.52,3.52,0,0,0,2.18-.53,1.62,1.62,0,0,0,.65-1.32,1.49,1.49,0,0,0-.69-1.31,3.8,3.8,0,0,0-2.15-.46h-1.63l1.4-5.41h3.52l-.68,3a5.28,5.28,0,0,1,3.45,1.49,4.19,4.19,0,0,1,1.14,2.91,4.15,4.15,0,0,1-1.93,3.63A9.15,9.15,0,0,1,443.54,452.28Z"/><path class="cls-1" d="M486.44,440.72a21.52,21.52,0,0,1-7.9-1.39,18.9,18.9,0,0,1-6.35-4,18.2,18.2,0,0,1-4.17-6,18.81,18.81,0,0,1-1.5-7.48,19,19,0,0,1,1.44-7.54,17.94,17.94,0,0,1,4.13-6,19.35,19.35,0,0,1,6.28-4,22.94,22.94,0,0,1,15.81-.09,18.64,18.64,0,0,1,6.29,3.92,18.06,18.06,0,0,1,4.14,6,20.12,20.12,0,0,1,.06,15.1,18.24,18.24,0,0,1-10.36,10A21.89,21.89,0,0,1,486.44,440.72Zm0-6a13.57,13.57,0,0,0,5.12-1,12.23,12.23,0,0,0,6.74-6.8,13.52,13.52,0,0,0,1-5.2,13.71,13.71,0,0,0-1-5.2,11.87,11.87,0,0,0-2.72-4.08,12.39,12.39,0,0,0-4.11-2.66,13.33,13.33,0,0,0-5.12-.93,13.91,13.91,0,0,0-5.17,1,11.79,11.79,0,0,0-4.11,2.71,13.3,13.3,0,0,0,.07,18.54,11.91,11.91,0,0,0,4.13,2.69A14,14,0,0,0,486.42,434.73Zm3.65-34.25a4.54,4.54,0,0,1-2.31-.54,10.36,10.36,0,0,1-1.82-1.23c-.54-.45-1.06-.85-1.55-1.2a2.63,2.63,0,0,0-1.48-.52,2.22,2.22,0,0,0-1.78.85,4.07,4.07,0,0,0-.78,2.31l-3.51,0a8.31,8.31,0,0,1,1.6-5.1,4.94,4.94,0,0,1,4-1.91,5.36,5.36,0,0,1,2.34.49,8.58,8.58,0,0,1,1.84,1.2,17.2,17.2,0,0,0,1.53,1.2,2.42,2.42,0,0,0,1.44.5,2.34,2.34,0,0,0,1.81-.8,3.35,3.35,0,0,0,.75-2.21h3.52a7.89,7.89,0,0,1-1.58,5A5,5,0,0,1,490.07,400.48Z"/><path class="cls-1" d="M523.12,434.28l20.74-.08,0,5.77-27.56.11-.14-36.76,26.83-.1,0,5.78-20,.07Zm-.59-15.7,18.28-.07,0,5.62-18.27.07Z"/><path class="cls-1" d="M565.78,440.41a27.25,27.25,0,0,1-8.22-1.2,18.59,18.59,0,0,1-6.29-3.15l2.34-5.32a18.93,18.93,0,0,0,5.47,2.87,19.86,19.86,0,0,0,6.68,1.13,14.28,14.28,0,0,0,4.67-.65,5.55,5.55,0,0,0,2.62-1.71,3.94,3.94,0,0,0,.83-2.45,3.38,3.38,0,0,0-1.22-2.7,8.79,8.79,0,0,0-3.13-1.61c-1.28-.4-2.7-.76-4.26-1.09s-3.12-.73-4.68-1.21a21.58,21.58,0,0,1-4.28-1.85,8.88,8.88,0,0,1-3.14-3,9,9,0,0,1-1.2-4.83,10,10,0,0,1,1.58-5.49,11.06,11.06,0,0,1,4.87-4,20.17,20.17,0,0,1,8.32-1.53,26.15,26.15,0,0,1,6.56.82,18.91,18.91,0,0,1,5.68,2.39l-2.13,5.31a20.56,20.56,0,0,0-5.1-2.16,19.87,19.87,0,0,0-5-.69,13.26,13.26,0,0,0-4.57.7,5.49,5.49,0,0,0-2.59,1.83,4.16,4.16,0,0,0-.81,2.49,3.43,3.43,0,0,0,1.2,2.7,8.31,8.31,0,0,0,3.1,1.59c1.28.38,2.71.74,4.28,1.09s3.14.75,4.68,1.21a20.42,20.42,0,0,1,4.26,1.83,9,9,0,0,1,3.14,3,8.76,8.76,0,0,1,1.2,4.74,9.92,9.92,0,0,1-1.58,5.44,11,11,0,0,1-4.9,4A20.17,20.17,0,0,1,565.78,440.41Z"/><path class="cls-2" d="M614.48,433.92l20.74-.08,0,5.78-27.56.11L607.53,403l26.84-.1,0,5.77-20,.08Zm-.59-15.69,18.28-.08,0,5.62-18.27.07Z"/><path class="cls-2" d="M234.61,504.17l-.12-31-12.19,0,0-5.77,31.19-.12,0,5.77-12.18.05.12,31Z"/><path class="cls-2" d="M261.65,504.06l-.15-36.75,15.13-.06a20.71,20.71,0,0,1,8.38,1.51,12,12,0,0,1,5.39,4.47,12.73,12.73,0,0,1,1.92,7,12.39,12.39,0,0,1-1.86,6.94,12.23,12.23,0,0,1-5.37,4.48,20.17,20.17,0,0,1-8.36,1.61l-11.29,0,3-3.06.05,13.76ZM268.42,491l-3-3.29,11,0c3,0,5.27-.67,6.79-2a6.71,6.71,0,0,0,2.26-5.42,6.59,6.59,0,0,0-2.3-5.37q-2.29-1.92-6.81-1.89l-11,0,3-3.37Zm17.27,13-9.34-13.3,7.3,0,9.39,13.3Z"/><path class="cls-2" d="M297.72,503.92l16.39-36.82,6.73,0,16.73,36.69-7.19,0-14.31-33.08h2.73L304.7,503.9Zm7.58-8.53,1.87-5.37L327,490l1.86,5.35Z"/><path class="cls-2" d="M345.13,503.74,345,467l5.62,0,23.16,28.27H371l-.11-28.36,6.72,0,.15,36.75-5.62,0L349,475.37h2.78l.11,28.35Z"/><path class="cls-2" d="M401.94,504a26.64,26.64,0,0,1-8.22-1.2,18.59,18.59,0,0,1-6.29-3.15l2.35-5.31a18.9,18.9,0,0,0,5.47,2.86,19.56,19.56,0,0,0,6.67,1.13,14.27,14.27,0,0,0,4.67-.64,5.64,5.64,0,0,0,2.62-1.72,3.86,3.86,0,0,0,.83-2.45,3.32,3.32,0,0,0-1.22-2.69,9,9,0,0,0-3.13-1.62c-1.28-.4-2.7-.76-4.25-1.09s-3.12-.73-4.68-1.21a21.35,21.35,0,0,1-4.29-1.85,8.36,8.36,0,0,1-4.33-7.83,10,10,0,0,1,1.57-5.5,11.18,11.18,0,0,1,4.87-4,20.21,20.21,0,0,1,8.32-1.52,26.27,26.27,0,0,1,6.57.81,19.13,19.13,0,0,1,5.68,2.39L413,474.76a19.84,19.84,0,0,0-5.1-2.16,19,19,0,0,0-5-.69,12.8,12.8,0,0,0-4.57.7,5.47,5.47,0,0,0-2.59,1.82,4.12,4.12,0,0,0-.8,2.5,3.36,3.36,0,0,0,1.19,2.69,8.31,8.31,0,0,0,3.1,1.59c1.28.39,2.71.75,4.29,1.09s3.13.75,4.67,1.22a19.46,19.46,0,0,1,4.26,1.82,9,9,0,0,1,3.14,3,8.78,8.78,0,0,1,1.2,4.75,9.86,9.86,0,0,1-1.58,5.44,11.08,11.08,0,0,1-4.89,4A20.43,20.43,0,0,1,401.94,504Z"/><path class="cls-2" d="M433.29,503.4l-6.83,0-.14-36.75,26.83-.1,0,5.77-20,.08Zm-.6-19.79,18.27-.07,0,5.67-18.27.07Z"/><path class="cls-2" d="M479.6,503.74a21.57,21.57,0,0,1-7.91-1.38,18.88,18.88,0,0,1-6.34-4,18.16,18.16,0,0,1-4.17-6,18.81,18.81,0,0,1-1.5-7.48,19,19,0,0,1,1.44-7.54,17.74,17.74,0,0,1,4.13-6,18.92,18.92,0,0,1,6.28-4,21.42,21.42,0,0,1,7.92-1.45,21.71,21.71,0,0,1,7.88,1.36,18.52,18.52,0,0,1,6.29,3.91,18.09,18.09,0,0,1,4.15,6,20.12,20.12,0,0,1,.06,15.1,18.34,18.34,0,0,1-4.1,6,18.13,18.13,0,0,1-6.26,4A21.71,21.71,0,0,1,479.6,503.74Zm0-6a13.48,13.48,0,0,0,5.11-1,12,12,0,0,0,4.06-2.69,12.37,12.37,0,0,0,2.69-4.11,13.48,13.48,0,0,0,.95-5.2,13.82,13.82,0,0,0-1-5.19,11.89,11.89,0,0,0-2.71-4.09,12.54,12.54,0,0,0-4.11-2.66,13.55,13.55,0,0,0-5.12-.92,13.7,13.7,0,0,0-5.17,1,11.81,11.81,0,0,0-4.11,2.72A13.5,13.5,0,0,0,467.52,490a13.06,13.06,0,0,0,2.75,4.11,11.8,11.8,0,0,0,4.13,2.68A13.78,13.78,0,0,0,479.58,497.76Z"/><path class="cls-2" d="M509.47,503.1l-.14-36.75,15.12-.06a20.64,20.64,0,0,1,8.38,1.52,11.9,11.9,0,0,1,5.4,4.47,12.67,12.67,0,0,1,1.92,7,11.76,11.76,0,0,1-7.23,11.43,20.19,20.19,0,0,1-8.37,1.6l-11.29.05,3-3.06,0,13.76Zm6.78-13-3-3.3,11,0q4.51,0,6.79-2A7.52,7.52,0,0,0,531,474q-2.29-1.9-6.81-1.89l-11,0,3-3.37ZM533.52,503l-9.34-13.3,7.29,0,9.4,13.3Z"/><path class="cls-2" d="M550.74,503l-.14-36.76,5.62,0,16.17,26.77h-2.94l15.7-26.89,5.62,0,.24,36.75-6.56,0-.1-26.62h1.31l-13.25,22.52h-3.1L555.58,476.3h1.57l.1,26.62Z"/><path class="cls-2" d="M598.57,502.76,615,465.94l6.72,0,16.74,36.69-7.2,0-14.3-33.07h2.73l-14.1,33.18Zm7.59-8.53,1.86-5.37,19.8-.07,1.86,5.34Z"/><path class="cls-2" d="M86.26,567.74,86.12,531l6.82,0,.15,36.75Z"/><path class="cls-2" d="M117.29,568.15a26.94,26.94,0,0,1-8.22-1.21,18.59,18.59,0,0,1-6.29-3.15l2.35-5.31a19.16,19.16,0,0,0,5.47,2.87,19.8,19.8,0,0,0,6.67,1.12,14.27,14.27,0,0,0,4.67-.64,5.64,5.64,0,0,0,2.62-1.72,3.86,3.86,0,0,0,.83-2.45,3.33,3.33,0,0,0-1.22-2.69,9,9,0,0,0-3.13-1.62c-1.28-.4-2.7-.76-4.25-1.09s-3.12-.73-4.68-1.21a21.35,21.35,0,0,1-4.29-1.85,8.39,8.39,0,0,1-4.34-7.83,10,10,0,0,1,1.58-5.5,11.1,11.1,0,0,1,4.87-4,20,20,0,0,1,8.32-1.53,26.27,26.27,0,0,1,6.57.81,19.13,19.13,0,0,1,5.68,2.39l-2.14,5.32a19.84,19.84,0,0,0-5.1-2.16,19,19,0,0,0-5-.69,12.8,12.8,0,0,0-4.57.7,5.47,5.47,0,0,0-2.59,1.82,4.14,4.14,0,0,0-.8,2.5,3.39,3.39,0,0,0,1.19,2.7,8.31,8.31,0,0,0,3.1,1.59q1.92.57,4.29,1.08c1.57.35,3.13.75,4.67,1.22a19.46,19.46,0,0,1,4.26,1.82,9,9,0,0,1,3.14,3,8.78,8.78,0,0,1,1.2,4.75,9.86,9.86,0,0,1-1.58,5.44,11.08,11.08,0,0,1-4.89,4A20.59,20.59,0,0,1,117.29,568.15Z"/><path class="cls-2" d="M153.21,568A27.05,27.05,0,0,1,145,566.8a18.53,18.53,0,0,1-6.28-3.15l2.34-5.31a19.17,19.17,0,0,0,5.47,2.87,20.12,20.12,0,0,0,6.68,1.13,14.56,14.56,0,0,0,4.67-.65,5.6,5.6,0,0,0,2.61-1.72,3.86,3.86,0,0,0,.84-2.44,3.42,3.42,0,0,0-1.22-2.7,9,9,0,0,0-3.13-1.62c-1.28-.4-2.7-.76-4.26-1.09s-3.12-.73-4.68-1.21a20.79,20.79,0,0,1-4.29-1.85,8.85,8.85,0,0,1-3.13-3,9,9,0,0,1-1.2-4.82,9.9,9.9,0,0,1,1.58-5.49,10.94,10.94,0,0,1,4.87-4,20,20,0,0,1,8.31-1.53,26.16,26.16,0,0,1,6.57.81,18.78,18.78,0,0,1,5.68,2.4l-2.13,5.31a19.84,19.84,0,0,0-5.1-2.16,19.09,19.09,0,0,0-5.05-.69,12.74,12.74,0,0,0-4.56.7,5.49,5.49,0,0,0-2.59,1.82,4.22,4.22,0,0,0-.81,2.5,3.42,3.42,0,0,0,1.19,2.7,8.35,8.35,0,0,0,3.11,1.59c1.28.38,2.7.74,4.28,1.08s3.14.75,4.68,1.22a20.39,20.39,0,0,1,4.26,1.82,8.94,8.94,0,0,1,3.13,3A8.6,8.6,0,0,1,168,557a9.86,9.86,0,0,1-1.58,5.44,11,11,0,0,1-4.89,4A20.5,20.5,0,0,1,153.21,568Z"/><path class="cls-2" d="M195,567.85a21.78,21.78,0,0,1-7.91-1.39,18.88,18.88,0,0,1-6.34-4,18.16,18.16,0,0,1-4.17-6A18.81,18.81,0,0,1,175,549a19,19,0,0,1,1.44-7.54,17.86,17.86,0,0,1,4.12-6,19.07,19.07,0,0,1,6.29-4,22.92,22.92,0,0,1,15.8-.09,18.39,18.39,0,0,1,6.29,3.92,17.94,17.94,0,0,1,4.15,6,20.12,20.12,0,0,1,.06,15.1,18.34,18.34,0,0,1-4.1,6,18.13,18.13,0,0,1-6.26,4A21.93,21.93,0,0,1,195,567.85Zm0-6a13.48,13.48,0,0,0,5.11-1,12,12,0,0,0,4.06-2.69,12.43,12.43,0,0,0,2.69-4.1,13.57,13.57,0,0,0,1-5.21,13.82,13.82,0,0,0-1-5.19,11.77,11.77,0,0,0-2.72-4.09A12.4,12.4,0,0,0,200,537a13.55,13.55,0,0,0-5.12-.92,13.9,13.9,0,0,0-5.17,1,11.81,11.81,0,0,0-4.11,2.72,13.5,13.5,0,0,0-2.68,14.43,13.06,13.06,0,0,0,2.75,4.11,11.8,11.8,0,0,0,4.13,2.68A13.78,13.78,0,0,0,194.93,561.86Z"/><path class="cls-2" d="M242.2,567.14l-.14-36.76,5.62,0,23.16,28.27h-2.79l-.1-28.36,6.72,0,.14,36.75-5.62,0-23.11-28.26h2.79l.11,28.35Z"/><path class="cls-2" d="M304.84,567.42a21.52,21.52,0,0,1-7.9-1.39,18.84,18.84,0,0,1-6.35-4,18.2,18.2,0,0,1-4.17-6,18.8,18.8,0,0,1-1.5-7.47,19.06,19.06,0,0,1,1.44-7.55,17.94,17.94,0,0,1,4.13-6,19.35,19.35,0,0,1,6.28-4,23,23,0,0,1,15.81-.08,18.62,18.62,0,0,1,6.29,3.91,18,18,0,0,1,4.14,6,20.1,20.1,0,0,1,.06,15.09,18.24,18.24,0,0,1-10.36,10A21.67,21.67,0,0,1,304.84,567.42Zm0-6a13.34,13.34,0,0,0,5.12-1,12.15,12.15,0,0,0,6.74-6.8,13.52,13.52,0,0,0,.95-5.2,13.71,13.71,0,0,0-1-5.2,11.87,11.87,0,0,0-2.72-4.08,12.39,12.39,0,0,0-4.11-2.66,13.33,13.33,0,0,0-5.12-.93,13.91,13.91,0,0,0-5.17,1,11.67,11.67,0,0,0-4.11,2.72,13.29,13.29,0,0,0,.07,18.53,11.72,11.72,0,0,0,4.14,2.69A13.89,13.89,0,0,0,304.82,561.43Z"/><path class="cls-2" d="M346.11,567.26a27.25,27.25,0,0,1-8.22-1.2,18.59,18.59,0,0,1-6.29-3.15l2.35-5.32a18.91,18.91,0,0,0,5.47,2.87,19.81,19.81,0,0,0,6.67,1.13,14.24,14.24,0,0,0,4.67-.65,5.55,5.55,0,0,0,2.62-1.71,3.88,3.88,0,0,0,.83-2.45,3.35,3.35,0,0,0-1.22-2.7,8.79,8.79,0,0,0-3.13-1.61c-1.28-.4-2.7-.76-4.25-1.09s-3.12-.73-4.68-1.22a21.33,21.33,0,0,1-4.29-1.84,8.36,8.36,0,0,1-4.33-7.84,9.87,9.87,0,0,1,1.58-5.49,11,11,0,0,1,4.86-4,20.2,20.2,0,0,1,8.32-1.53,26.28,26.28,0,0,1,6.57.82,19.13,19.13,0,0,1,5.68,2.39L357.18,538a20.56,20.56,0,0,0-5.1-2.16,19.81,19.81,0,0,0-5-.69,13,13,0,0,0-4.57.7,5.54,5.54,0,0,0-2.59,1.82,4.14,4.14,0,0,0-.8,2.5,3.39,3.39,0,0,0,1.19,2.7,8.31,8.31,0,0,0,3.1,1.59c1.28.38,2.71.74,4.29,1.09s3.13.75,4.67,1.21a20.47,20.47,0,0,1,4.26,1.82,9,9,0,0,1,3.14,3,8.76,8.76,0,0,1,1.2,4.74,9.83,9.83,0,0,1-1.58,5.44,10.94,10.94,0,0,1-4.89,4A20.25,20.25,0,0,1,346.11,567.26Z"/><path class="cls-2" d="M388,566.57l-.14-36.75,5.62,0,16.17,26.77h-2.94l15.7-26.89,5.62,0,.24,36.76-6.56,0-.1-26.62h1.31l-13.25,22.52h-3.1l-13.74-22.42h1.58l.1,26.62Z"/><path class="cls-2" d="M435.84,566.39l16.4-36.82,6.72,0,16.73,36.7-7.19,0-14.3-33.07h2.73l-14.1,33.18Zm7.58-8.54,1.87-5.36,19.8-.08,1.86,5.35Z"/><path class="cls-2" d="M483.26,566.21l-.15-36.76,6.83,0,.14,36.75Z"/><path class="cls-2" d="M514.29,566.61a27.25,27.25,0,0,1-8.22-1.2,18.5,18.5,0,0,1-6.29-3.15l2.34-5.31a19.42,19.42,0,0,0,5.47,2.86,19.86,19.86,0,0,0,6.68,1.13,14.28,14.28,0,0,0,4.67-.65,5.52,5.52,0,0,0,2.61-1.71,3.89,3.89,0,0,0,.84-2.45,3.38,3.38,0,0,0-1.22-2.7,8.79,8.79,0,0,0-3.13-1.61c-1.28-.4-2.7-.76-4.26-1.09s-3.12-.73-4.68-1.22a21,21,0,0,1-4.28-1.84,8.88,8.88,0,0,1-3.14-3,9,9,0,0,1-1.2-4.83,10,10,0,0,1,1.58-5.49,11,11,0,0,1,4.87-4,20.28,20.28,0,0,1,8.31-1.53,26.17,26.17,0,0,1,6.57.82,19,19,0,0,1,5.68,2.39l-2.13,5.31a20.56,20.56,0,0,0-5.1-2.16,20,20,0,0,0-5-.69,13,13,0,0,0-4.56.7,5.54,5.54,0,0,0-2.59,1.82,4.22,4.22,0,0,0-.81,2.5,3.42,3.42,0,0,0,1.19,2.7,8.35,8.35,0,0,0,3.11,1.59c1.28.38,2.7.74,4.28,1.09s3.14.75,4.68,1.21a20.42,20.42,0,0,1,4.26,1.83,8.86,8.86,0,0,1,3.13,3,8.59,8.59,0,0,1,1.2,4.74,9.83,9.83,0,0,1-1.58,5.44,10.94,10.94,0,0,1-4.89,4A20.17,20.17,0,0,1,514.29,566.61Z"/><path class="cls-2" d="M556.18,565.92,556,529.17l16.12-.06a22.83,22.83,0,0,1,10.43,2.24,17,17,0,0,1,7.09,6.41,19.74,19.74,0,0,1,.07,19.32,17,17,0,0,1-7,6.46,22.9,22.9,0,0,1-10.42,2.32Zm6.81-5.8,8.87,0a15.38,15.38,0,0,0,7.16-1.6,11.77,11.77,0,0,0,4.71-4.43,12.71,12.71,0,0,0,1.68-6.68,12.47,12.47,0,0,0-1.73-6.61,12,12,0,0,0-4.74-4.34,15.24,15.24,0,0,0-7.18-1.54l-8.87,0Z"/><path class="cls-2" d="M602.44,565.75,602.3,529l6.83,0,.14,36.76Z"/><path class="cls-2" d="M620.44,549.92l0-5.56,14.49-.06,0,5.57Z"/><path class="cls-2" d="M124.15,630.59l-6.83,0-.14-36.75,26.83-.11,0,5.78-20,.08Zm-.61-19.79,18.28-.07,0,5.67-18.27.07Z"/><path class="cls-2" d="M160.46,624.68l20.74-.08,0,5.77-27.57.11-.14-36.76,26.83-.1,0,5.78-20,.07Zm-.59-15.7,18.27-.07,0,5.62-18.28.07Z"/><path class="cls-2" d="M191.72,630.33l-.14-36.75,15.12-.06a20.47,20.47,0,0,1,8.38,1.52,12,12,0,0,1,5.4,4.46,12.73,12.73,0,0,1,1.92,7A11.8,11.8,0,0,1,215.17,618a20.35,20.35,0,0,1-8.37,1.6l-11.29.05,3-3.06.06,13.76Zm6.78-13-3-3.3,11,0c3,0,5.27-.67,6.79-2a6.74,6.74,0,0,0,2.26-5.42,6.65,6.65,0,0,0-2.3-5.37c-1.53-1.28-3.8-1.9-6.81-1.89l-11,0,3-3.37Zm17.27,13-9.35-13.3,7.3,0,9.4,13.3Z"/><path class="cls-2" d="M239.79,624.37l20.74-.08,0,5.78-27.57.1-.14-36.75,26.83-.11,0,5.78-20,.08Zm-.58-15.7,18.27-.07,0,5.62-18.27.07Z"/><path class="cls-2" d="M271.06,630l-.14-36.76,5.61,0,23.16,28.26-2.78,0-.11-28.36,6.72,0,.14,36.75-5.61,0-23.11-28.26h2.78l.11,28.35Z"/><path class="cls-2" d="M323.93,629.82l-.12-31-12.18,0,0-5.78L342.8,593l0,5.78-12.18.05.12,31Z"/><path class="cls-2" d="M357.77,623.92l20.74-.08,0,5.77-27.57.11L350.83,593l26.83-.1,0,5.78-20,.07Zm-.58-15.7,18.27-.07,0,5.62-18.27.07Z"/><path class="cls-2" d="M400.43,630.05a27.25,27.25,0,0,1-8.22-1.2,18.53,18.53,0,0,1-6.28-3.15l2.34-5.32a18.91,18.91,0,0,0,5.47,2.87,19.81,19.81,0,0,0,6.67,1.13,14.24,14.24,0,0,0,4.67-.65A5.55,5.55,0,0,0,407.7,622a3.82,3.82,0,0,0,.83-2.45,3.35,3.35,0,0,0-1.22-2.7,8.79,8.79,0,0,0-3.13-1.61c-1.28-.4-2.7-.76-4.25-1.09s-3.12-.73-4.68-1.22a21.33,21.33,0,0,1-4.29-1.84,8.41,8.41,0,0,1-4.33-7.84,9.87,9.87,0,0,1,1.58-5.49,11,11,0,0,1,4.86-4,20.2,20.2,0,0,1,8.32-1.53,26.23,26.23,0,0,1,6.57.82,19.13,19.13,0,0,1,5.68,2.39l-2.14,5.31a20.56,20.56,0,0,0-5.1-2.16,19.81,19.81,0,0,0-5-.69,13.26,13.26,0,0,0-4.57.7,5.54,5.54,0,0,0-2.59,1.83,4.09,4.09,0,0,0-.8,2.49,3.39,3.39,0,0,0,1.19,2.7,8.31,8.31,0,0,0,3.1,1.59c1.28.38,2.71.74,4.29,1.09s3.13.75,4.68,1.21a20.42,20.42,0,0,1,4.26,1.83,8.94,8.94,0,0,1,3.13,3,8.76,8.76,0,0,1,1.2,4.74,9.83,9.83,0,0,1-1.58,5.44,10.94,10.94,0,0,1-4.89,4A20.25,20.25,0,0,1,400.43,630.05Z"/><path class="cls-1" d="M442.33,629.37l-.14-36.76,6.82,0,.12,31,19.22-.07,0,5.77Z"/><path class="cls-1" d="M493.21,629.69a21.82,21.82,0,0,1-7.91-1.38,19,19,0,0,1-6.34-4,18.2,18.2,0,0,1-4.17-6,18.77,18.77,0,0,1-1.5-7.47,19,19,0,0,1,1.44-7.54,17.74,17.74,0,0,1,4.13-6,19,19,0,0,1,6.28-4,21.47,21.47,0,0,1,7.93-1.45,21.79,21.79,0,0,1,7.88,1.36,18.62,18.62,0,0,1,6.29,3.91,18,18,0,0,1,4.14,6,20.1,20.1,0,0,1,.06,15.09,18.24,18.24,0,0,1-10.36,10A21.67,21.67,0,0,1,493.21,629.69Zm0-6a13.48,13.48,0,0,0,5.11-1,12,12,0,0,0,4.06-2.69,12.37,12.37,0,0,0,2.69-4.11,13.48,13.48,0,0,0,.95-5.2,13.82,13.82,0,0,0-1-5.19,12,12,0,0,0-2.72-4.09,12.39,12.39,0,0,0-4.11-2.66,13.75,13.75,0,0,0-5.12-.93,13.91,13.91,0,0,0-5.17,1,11.81,11.81,0,0,0-4.11,2.72,12.85,12.85,0,0,0-3.69,9.28,13,13,0,0,0,3.76,9.25,11.77,11.77,0,0,0,4.13,2.69A14,14,0,0,0,493.19,623.71Z"/><path class="cls-1" d="M540.31,629.51a21.57,21.57,0,0,1-7.91-1.39,18.8,18.8,0,0,1-6.34-4,18.2,18.2,0,0,1-4.17-6,19.89,19.89,0,0,1-.06-15,17.88,17.88,0,0,1,4.13-6,19.24,19.24,0,0,1,6.28-4,23,23,0,0,1,15.81-.08,18.57,18.57,0,0,1,6.28,3.91,17.89,17.89,0,0,1,4.15,6,20.1,20.1,0,0,1,.06,15.09,18.24,18.24,0,0,1-10.36,10A21.67,21.67,0,0,1,540.31,629.51Zm0-6a13.48,13.48,0,0,0,5.11-1,12.1,12.1,0,0,0,4.06-2.69,12.37,12.37,0,0,0,2.69-4.11,13.52,13.52,0,0,0,1-5.2,14,14,0,0,0-1-5.19,12,12,0,0,0-2.72-4.09,12.39,12.39,0,0,0-4.11-2.66,13.56,13.56,0,0,0-5.12-.93,13.91,13.91,0,0,0-5.17,1,11.67,11.67,0,0,0-4.11,2.72,13.26,13.26,0,0,0,.07,18.53,11.77,11.77,0,0,0,4.13,2.69A14.19,14.19,0,0,0,540.29,623.53Z"/><path class="cls-1" d="M570.18,628.87,570,592.12l6.83,0,.14,36.75Zm6-8.69-.35-8.08L595,592l7.72,0-16,17.07L583,613.23Zm19.62,8.59-14.19-16.69,4.55-5,17.67,21.67Z"/><path class="cls-1" d="M622,629.2a27.05,27.05,0,0,1-8.23-1.21,18.53,18.53,0,0,1-6.28-3.15l2.34-5.31a19.29,19.29,0,0,0,5.47,2.87,20.06,20.06,0,0,0,6.67,1.13,14.47,14.47,0,0,0,4.67-.65,5.58,5.58,0,0,0,2.62-1.72,3.8,3.8,0,0,0,.83-2.44,3.38,3.38,0,0,0-1.21-2.7,9.05,9.05,0,0,0-3.13-1.62c-1.28-.4-2.7-.76-4.26-1.09s-3.12-.73-4.68-1.21a21.35,21.35,0,0,1-4.29-1.85,8.41,8.41,0,0,1-4.33-7.83,10,10,0,0,1,1.58-5.5,11,11,0,0,1,4.87-4,20,20,0,0,1,8.31-1.53,26.16,26.16,0,0,1,6.57.81,19.13,19.13,0,0,1,5.68,2.39L633,599.91a19.84,19.84,0,0,0-5.1-2.16,19.09,19.09,0,0,0-5-.69,12.74,12.74,0,0,0-4.56.7,5.58,5.58,0,0,0-2.6,1.82,4.18,4.18,0,0,0-.8,2.5,3.39,3.39,0,0,0,1.19,2.7,8.35,8.35,0,0,0,3.11,1.59c1.28.38,2.7.74,4.28,1.08s3.14.75,4.68,1.22a19.88,19.88,0,0,1,4.26,1.82,8.94,8.94,0,0,1,3.13,3,8.6,8.6,0,0,1,1.2,4.75,9.86,9.86,0,0,1-1.58,5.44,11,11,0,0,1-4.89,4A20.5,20.5,0,0,1,622,629.2Z"/><path class="cls-1" d="M244.31,693.13l16.4-36.82,6.72,0L284.17,693l-7.2,0-14.3-33.07h2.73L251.3,693.1Zm7.59-8.53,1.86-5.37,19.8-.07,1.86,5.34Z"/><path class="cls-1" d="M306.69,693.41q-7.5,0-11.8-4.2c-2.87-2.83-4.31-6.93-4.33-12.33l-.08-20.68,6.83,0,.08,20.48c0,3.78.84,6.52,2.47,8.23a9.08,9.08,0,0,0,6.92,2.55,9,9,0,0,0,6.86-2.6c1.61-1.72,2.4-4.47,2.39-8.25L316,656.1l6.72,0,.08,20.69q0,8.09-4.23,12.36C315.67,692,311.73,693.4,306.69,693.41Z"/><path class="cls-1" d="M342,692.75l-.12-31-12.18.05,0-5.78,31.19-.12,0,5.78-12.19,0,.12,31Z"/><path class="cls-1" d="M375.87,686.85l20.74-.08,0,5.77-27.56.11-.14-36.76,26.83-.1,0,5.78-20,.07Zm-3.49-34,7.06-7.22,5.88,0,7.12,7.17-5.36,0-7.21-6,5,0-7.17,6.07Zm2.91,18.26,18.27-.07,0,5.62-18.27.07Z"/><path class="cls-1" d="M407.13,692.5,407,655.75l5.62,0L435.77,684H433l-.11-28.35,6.72,0,.14,36.76-5.62,0L411,664.13h2.78l.11,28.36Z"/><path class="cls-1" d="M460,692.3l-.12-31-12.18,0,0-5.78,31.18-.12,0,5.77-12.19,0,.12,31Z"/><path class="cls-1" d="M487.05,692.19l-.14-36.75,6.82,0,.14,36.76Z"/><path class="cls-1" d="M523.7,692.58a21.54,21.54,0,0,1-7.83-1.36,18.58,18.58,0,0,1-6.24-4,18.36,18.36,0,0,1-4.14-6,20.2,20.2,0,0,1-.06-15.13,18.25,18.25,0,0,1,4.13-6,18.69,18.69,0,0,1,6.23-4,22.67,22.67,0,0,1,16.06.1,16.31,16.31,0,0,1,6.32,4.57L533.78,665a13.84,13.84,0,0,0-4.53-3.21,13.11,13.11,0,0,0-5.31-1,14.2,14.2,0,0,0-5.27,1,12.31,12.31,0,0,0-6.88,6.8,14.15,14.15,0,0,0,0,10.4A12.6,12.6,0,0,0,514.6,683a12.3,12.3,0,0,0,4.16,2.66,14.09,14.09,0,0,0,5.28.93,13.06,13.06,0,0,0,5.3-1.1,13.5,13.5,0,0,0,4.51-3.3l4.42,4.13A16.57,16.57,0,0,1,532,691,21.09,21.09,0,0,1,523.7,692.58Z"/><path class="cls-1" d="M564.18,692.42a21.61,21.61,0,0,1-7.91-1.39,18.8,18.8,0,0,1-6.34-4,18.2,18.2,0,0,1-4.17-6,18.81,18.81,0,0,1-1.5-7.48,19,19,0,0,1,1.44-7.54,17.94,17.94,0,0,1,4.13-6,19.35,19.35,0,0,1,6.28-4,23,23,0,0,1,15.81-.08,18.62,18.62,0,0,1,6.29,3.91,18,18,0,0,1,4.14,6,20.1,20.1,0,0,1,.06,15.09,18.24,18.24,0,0,1-10.36,10A21.89,21.89,0,0,1,564.18,692.42Zm0-6a13.29,13.29,0,0,0,5.11-1,12.1,12.1,0,0,0,4.06-2.69,12.37,12.37,0,0,0,2.69-4.11,13.52,13.52,0,0,0,1-5.2,13.91,13.91,0,0,0-1-5.2,12,12,0,0,0-2.72-4.08,12.39,12.39,0,0,0-4.11-2.66,13.36,13.36,0,0,0-5.12-.93,13.91,13.91,0,0,0-5.17,1,11.67,11.67,0,0,0-4.11,2.72,13.54,13.54,0,0,0-2.68,14.42,13.23,13.23,0,0,0,2.75,4.11,11.91,11.91,0,0,0,4.13,2.69A14,14,0,0,0,564.16,686.43Z"/><path class="cls-1" d="M605.45,692.26a27.25,27.25,0,0,1-8.22-1.2,18.59,18.59,0,0,1-6.29-3.15l2.34-5.32a19.1,19.1,0,0,0,5.48,2.87,19.77,19.77,0,0,0,6.67,1.13,14.28,14.28,0,0,0,4.67-.65,5.49,5.49,0,0,0,2.62-1.72,3.84,3.84,0,0,0,.83-2.44,3.35,3.35,0,0,0-1.22-2.7,9,9,0,0,0-3.13-1.62q-1.92-.59-4.26-1.08c-1.56-.33-3.12-.73-4.67-1.22a21.33,21.33,0,0,1-4.29-1.84,8.39,8.39,0,0,1-4.34-7.84,10,10,0,0,1,1.58-5.49,11.06,11.06,0,0,1,4.87-4,20,20,0,0,1,8.32-1.53,26.15,26.15,0,0,1,6.56.82,18.91,18.91,0,0,1,5.68,2.39L616.52,663a20.56,20.56,0,0,0-5.1-2.16,19.81,19.81,0,0,0-5-.69,13,13,0,0,0-4.57.7,5.54,5.54,0,0,0-2.59,1.82,4.14,4.14,0,0,0-.8,2.5,3.39,3.39,0,0,0,1.19,2.7,8.31,8.31,0,0,0,3.1,1.59c1.28.38,2.71.74,4.28,1.09s3.14.75,4.68,1.21a20.94,20.94,0,0,1,4.26,1.82,9,9,0,0,1,3.14,3,8.8,8.8,0,0,1,1.2,4.75,9.83,9.83,0,0,1-1.58,5.44,10.92,10.92,0,0,1-4.9,4A20.17,20.17,0,0,1,605.45,692.26Z"/><path class="cls-1" d="M632.54,692a4.26,4.26,0,0,1-4.37-4.4,4,4,0,0,1,1.25-3.12,4.5,4.5,0,0,1,6.09,0,4.13,4.13,0,0,1,1.27,3.12,4.24,4.24,0,0,1-1.25,3.18A4.14,4.14,0,0,1,632.54,692Z"/><g id="E_QUER_SABER" data-name="E QUER SABER"><path d="M109.76,114l23.85-.07,0,10-36.56.12L97,78.47l35.71-.11,0,10-23,.08Zm-1-17.92L130,96l0,9.58-21.17.06Z"/><path d="M182.78,124.73A28.15,28.15,0,0,1,172.71,123a23.29,23.29,0,0,1-13.4-12.5,24.12,24.12,0,0,1-.06-18.86,23.41,23.41,0,0,1,13.32-12.56A29.77,29.77,0,0,1,192.74,79,24.19,24.19,0,0,1,200.8,84a22.54,22.54,0,0,1,5.34,7.47,24.82,24.82,0,0,1,.06,19,22.62,22.62,0,0,1-5.29,7.54,24.28,24.28,0,0,1-8,5A28.24,28.24,0,0,1,182.78,124.73Zm0-10.69a12.77,12.77,0,0,0,4.85-.92,11.3,11.3,0,0,0,3.9-2.65,12.5,12.5,0,0,0,2.6-4.15A14.55,14.55,0,0,0,195,101a14.34,14.34,0,0,0-1-5.34,12.45,12.45,0,0,0-2.62-4.13,11.17,11.17,0,0,0-3.92-2.62,13.34,13.34,0,0,0-9.71,0,11.58,11.58,0,0,0-6.52,6.79,15,15,0,0,0-.9,5.35,15.15,15.15,0,0,0,.93,5.34,11.76,11.76,0,0,0,2.62,4.13,11.59,11.59,0,0,0,3.95,2.63A12.77,12.77,0,0,0,182.75,114Zm15,20.75a23.61,23.61,0,0,1-5.51-.61,18.73,18.73,0,0,1-5-2,30.45,30.45,0,0,1-5.07-3.7c-1.76-1.56-3.73-3.48-5.91-5.78l13.48-3.43a31.48,31.48,0,0,0,2.94,3.8,7.91,7.91,0,0,0,2.58,2,6.7,6.7,0,0,0,2.71.55,9.47,9.47,0,0,0,6.9-3.28l5.62,6.76Q205.81,134.76,197.74,134.79Z"/><path d="M236,124.57q-10.11,0-15.76-5.49t-5.68-15.63l-.08-25.35,12.9,0,.08,25q0,5.81,2.3,8.34a8.06,8.06,0,0,0,6.33,2.52,7.94,7.94,0,0,0,6.28-2.56q2.25-2.55,2.23-8.35l-.08-25,12.77,0,.08,25.35q0,10.11-5.65,15.66T236,124.57Z"/><path d="M278.87,113.49l23.85-.08,0,10-36.56.11-.14-45.62,35.71-.11,0,10-23,.07Zm-1-17.92,21.18-.07,0,9.58-21.18.07Z"/><path d="M310,123.42l-.14-45.61,20.79-.07a26.56,26.56,0,0,1,10.82,2,15.46,15.46,0,0,1,7,5.81,16.21,16.21,0,0,1,2.47,8.95,15.93,15.93,0,0,1-2.41,9,15.54,15.54,0,0,1-7,5.73,27,27,0,0,1-10.81,2l-13.68,0,5.78-5.49.05,17.59Zm12.85-16.13-5.81-6,12.9,0q4,0,6.05-1.78a7,7,0,0,0,0-9.81q-2-1.79-6.06-1.77L317,88l5.78-6Zm15.3,16-11.39-16.59,13.75,0L352,123.29Z"/><path d="M393.13,124.08a41.53,41.53,0,0,1-10.85-1.37,28.38,28.38,0,0,1-8.39-3.52l4.21-9.6a29.75,29.75,0,0,0,7.08,3.21,26.5,26.5,0,0,0,8,1.24,16.08,16.08,0,0,0,4.33-.47,4.76,4.76,0,0,0,2.34-1.31,2.89,2.89,0,0,0,.74-2,2.66,2.66,0,0,0-1.44-2.37,14.19,14.19,0,0,0-3.75-1.49c-1.54-.41-3.22-.8-5-1.16a49.93,49.93,0,0,1-5.51-1.45,21.09,21.09,0,0,1-5.09-2.39,11.61,11.61,0,0,1-3.7-3.9,11.94,11.94,0,0,1-1.42-6.06,13.07,13.07,0,0,1,2.2-7.37,15.29,15.29,0,0,1,6.69-5.36,27.42,27.42,0,0,1,11.2-2.06,38.46,38.46,0,0,1,8.84,1,25.84,25.84,0,0,1,7.66,3l-3.88,9.53a27.86,27.86,0,0,0-6.46-2.66,24.24,24.24,0,0,0-6.19-.82,12.73,12.73,0,0,0-4.3.6,5.1,5.1,0,0,0-2.34,1.5,3.11,3.11,0,0,0-.71,2,2.72,2.72,0,0,0,1.44,2.44,13,13,0,0,0,3.72,1.42c1.52.37,3.21.74,5.05,1.13a51.39,51.39,0,0,1,5.51,1.45,21.43,21.43,0,0,1,5.06,2.33,11.48,11.48,0,0,1,3.76,3.83,11.32,11.32,0,0,1,1.45,6,12.87,12.87,0,0,1-2.22,7.33,15.39,15.39,0,0,1-6.73,5.4A27.58,27.58,0,0,1,393.13,124.08Z"/><path d="M413.79,123.1l20-45.68,12.71,0,20.34,45.56-13.42,0-15.9-39.25h5.09L427,123.06Zm11-9,3.3-9.46,22.28-.07,3.36,9.44Z"/><path d="M470.55,122.92l-.15-45.61,23.2-.07q9.06,0,13.5,3.28a10.28,10.28,0,0,1,4.46,8.59,10.68,10.68,0,0,1-1.81,6.19,12,12,0,0,1-5.2,4.19,19.42,19.42,0,0,1-7.94,1.52l1.23-3.13a22.2,22.2,0,0,1,8.38,1.44,12.37,12.37,0,0,1,5.61,4.25,11.34,11.34,0,0,1,2,6.71,10.56,10.56,0,0,1-4.76,9.2q-4.79,3.34-14,3.37Zm12.67-9.35,10.82,0a9.15,9.15,0,0,0,5.08-1.15,4.45,4.45,0,0,0,0-7,9.21,9.21,0,0,0-5.09-1.12l-11.73,0,0-8.93,9.78,0a8.77,8.77,0,0,0,4.88-1.12A3.68,3.68,0,0,0,498.53,91a3.72,3.72,0,0,0-1.64-3.35A9,9,0,0,0,492,86.56l-8.86,0Z"/><path d="M533.33,112.69l23.85-.07,0,10-36.55.11-.14-45.62L556.23,77l0,10-23,.07Zm-1-17.91,21.17-.07,0,9.58-21.17.07Z"/><path d="M564.45,122.63,564.31,77,585.09,77a26.61,26.61,0,0,1,10.83,2,15.56,15.56,0,0,1,7,5.81,16.21,16.21,0,0,1,2.47,9,16,16,0,0,1-2.41,9,15.6,15.6,0,0,1-7,5.73,27.15,27.15,0,0,1-10.81,2l-13.69,0L577.3,105l.05,17.59ZM577.3,106.5l-5.82-6,12.91,0q4,0,6.05-1.78a6.22,6.22,0,0,0,2-5,6.14,6.14,0,0,0-2-4.85q-2-1.78-6.07-1.77l-12.9,0,5.78-6Zm15.3,16L581.21,106l13.75,0,11.45,16.58Z"/><path d="M621.48,105.84a9.81,9.81,0,0,1,.67-3.78,13.17,13.17,0,0,1,1.72-3,19.45,19.45,0,0,1,2.24-2.45c.8-.75,1.55-1.44,2.24-2.1a10.41,10.41,0,0,0,1.72-2.05,4.11,4.11,0,0,0,.68-2.25,3.56,3.56,0,0,0-1.6-3A7,7,0,0,0,625,86.08a9.35,9.35,0,0,0-4.72,1.25,9.74,9.74,0,0,0-3.41,3.4l-9.72-5.11a19.19,19.19,0,0,1,7.34-7q4.74-2.66,12-2.68a25.68,25.68,0,0,1,8.86,1.38,13.53,13.53,0,0,1,6.08,4.11,10.36,10.36,0,0,1,2.23,6.71,12,12,0,0,1-.73,4.43,11.26,11.26,0,0,1-2,3.33c-.85,1-1.7,1.84-2.57,2.65s-1.72,1.58-2.57,2.32a10.76,10.76,0,0,0-2,2.29,4.83,4.83,0,0,0-.74,2.67ZM627.33,123a7.23,7.23,0,0,1-5.31-2A6.52,6.52,0,0,1,620,116.2a6.24,6.24,0,0,1,2-4.79,7.44,7.44,0,0,1,5.3-1.94,7.55,7.55,0,0,1,5.38,1.9,6.27,6.27,0,0,1,2.07,4.79,6.49,6.49,0,0,1-2,4.83A7.29,7.29,0,0,1,627.33,123Z"/></g></g></g></g></svg>