<svg xmlns="http://www.w3.org/2000/svg" viewBox="0 0 1146.2 219.73"><defs><style>.cls-1{fill:#9a999e;}.cls-2{fill:#211915;}</style></defs><title>6</title><g id="Camada_2" data-name="Camada 2"><g id="Camada_1-2" data-name="Camada 1"><g id="quer_saber_" data-name="quer saber?"><g id="E_QUER_SABER" data-name="E QUER SABER"><path class="cls-1" d="M48,221l51.94-5.26,1.79,17.72L27.82,241l-9.66-95.41,72.1-7.31L92.06,156,41.9,161.05ZM42.35,181.8l45.93-4.65L90,194.46,44.1,199.11Z" transform="translate(-11.75 -22.41)"></path><path class="cls-1" d="M204.23,224.76a57.46,57.46,0,0,1-21.09-1.59,50.61,50.61,0,0,1-17.68-8.67,47.16,47.16,0,0,1-12.56-14.56,52,52,0,0,1-4-39.33,47.22,47.22,0,0,1,9.39-16.72,50.88,50.88,0,0,1,15.51-12,57.21,57.21,0,0,1,20.42-5.78,58.23,58.23,0,0,1,21.15,1.5,50,50,0,0,1,17.6,8.62,46.89,46.89,0,0,1,12.56,14.56,52.29,52.29,0,0,1,4,39.46,46.79,46.79,0,0,1-9.38,16.86,49.84,49.84,0,0,1-15.52,12A58.48,58.48,0,0,1,204.23,224.76Zm-1.89-18.68a30.45,30.45,0,0,0,11.56-3.44,29.31,29.31,0,0,0,8.84-7.3A28.6,28.6,0,0,0,228.09,185a33.41,33.41,0,0,0,1-12.56,33.07,33.07,0,0,0-3.51-12.18,29,29,0,0,0-17.43-14.41,30.44,30.44,0,0,0-12-1.06,31,31,0,0,0-11.63,3.45,28.24,28.24,0,0,0-8.83,7.3,29.26,29.26,0,0,0-5.29,10.31,35.24,35.24,0,0,0,2.5,24.74,29.18,29.18,0,0,0,7.26,9.12A28.38,28.38,0,0,0,190.25,205,30.86,30.86,0,0,0,202.34,206.08Zm35.17,35.82a41.81,41.81,0,0,1-10.7-.22,41.31,41.31,0,0,1-10.22-3,59.55,59.55,0,0,1-10.76-6.28q-5.64-4-12.74-10.2l22.72-8.23a60.33,60.33,0,0,0,7.63,7.36,21.7,21.7,0,0,0,6.5,3.67,15.18,15.18,0,0,0,6.33.67q8.73-.88,14.81-8.8l11,10.73Q253.59,240.27,237.51,241.9Z" transform="translate(-11.75 -22.41)"></path><path class="cls-1" d="M315.46,213.49q-20.31,2.06-32.91-8.1t-14.73-31.28l-5.4-53.3,22.22-2.25L290,171.31q1.36,13.5,7.57,19t16.16,4.49q10.08-1,15.06-7.65t3.6-20.13L327,114.27l21.67-2.2,5.4,53.3q2.14,21.13-8.16,33.6T315.46,213.49Z" transform="translate(-11.75 -22.41)"></path><path class="cls-1" d="M400.46,185.32l51.94-5.26,1.79,17.72-73.88,7.49-9.66-95.42,72.11-7.31,1.79,17.73-50.16,5.08Zm-5.62-39.22,45.93-4.66,1.76,17.31-45.94,4.66Z" transform="translate(-11.75 -22.41)"></path><path class="cls-1" d="M471.78,196l-9.67-95.42,41.3-4.18q12.81-1.29,22.51,1.92a32.54,32.54,0,0,1,15.52,10.48,33.19,33.19,0,0,1,6.9,17.89q1.1,10.77-3.17,19a31.76,31.76,0,0,1-13.12,13.17q-8.87,5-21.68,6.26l-29.17,3,9.12-10.57L494,193.75ZM490.57,160l-11.15-9.48,27.94-2.83q10.1-1,14.83-5.91t3.94-12.79q-.81-7.91-6.42-11.67T504,114.52l-27.95,2.83,9-11.52Zm42,29.89-27.5-32.19,23.72-2.4,27.5,32.19Z" transform="translate(-11.75 -22.41)"></path><path class="cls-1" d="M642.19,180.39a78.8,78.8,0,0,1-22.33-.83q-10.87-2-17.77-6.26l5.81-17.39a52.3,52.3,0,0,0,15.17,5.69,54,54,0,0,0,17.32,1.07,33.8,33.8,0,0,0,10.43-2.43,13.13,13.13,0,0,0,5.56-4.21,7.94,7.94,0,0,0,1.38-5.45,7.24,7.24,0,0,0-3.61-5.76A24.94,24.94,0,0,0,645.8,142q-5.12-.93-11.11-1.63t-12.11-1.94a47.74,47.74,0,0,1-11.4-3.8,23.16,23.16,0,0,1-8.72-7.24,24.42,24.42,0,0,1-4.2-12.18,27.12,27.12,0,0,1,2.85-15.37q3.67-7.19,12.2-12.11t22-6.29a73.9,73.9,0,0,1,18,.38,53.06,53.06,0,0,1,16,4.71L664,103.82a56,56,0,0,0-13.78-4.19A50.85,50.85,0,0,0,637,99.12a31.32,31.32,0,0,0-10.35,2.5,12.22,12.22,0,0,0-5.4,4.47,8.88,8.88,0,0,0-1.29,5.64,7.42,7.42,0,0,0,3.62,5.83,22.09,22.09,0,0,0,8.27,2.81q5,.8,11.17,1.48t12.18,2a53.37,53.37,0,0,1,11.26,3.75,22.34,22.34,0,0,1,13.09,19.13,26.25,26.25,0,0,1-2.94,15.17Q672.85,169,664.27,174T642.19,180.39Z" transform="translate(-11.75 -22.41)"></path><path class="cls-1" d="M685,174.41,717.69,74.7l21.81-2.21L792,163.57l-23.17,2.35L725.22,85.23l8.86-.9-26.49,87.79Zm19.33-22.62,3.89-17.33,49.34-5L765,145.65Z" transform="translate(-11.75 -22.41)"></path><path class="cls-1" d="M801.91,162.56l-9.66-95.42,46.61-4.72q18-1.81,27.75,4.08A21.56,21.56,0,0,1,877.5,83.57,23.09,23.09,0,0,1,875.14,97a24.08,24.08,0,0,1-9.3,9.55A34.51,34.51,0,0,1,851.49,111l2-6a39.5,39.5,0,0,1,16.18,1.39A25,25,0,0,1,881.41,114a24.25,24.25,0,0,1,5.37,13.64q1.25,12.27-7.73,20.13t-27.8,9.77Zm20.26-18.85,25.9-2.62q8.45-.87,12.66-4.18t3.6-9.31q-.62-6.13-5.41-8.55t-13.24-1.55l-27.53,2.79-1.63-16.08,23.58-2.39q8-.81,12-4t3.43-9q-.57-5.73-5.15-8t-12.61-1.47l-21.94,2.22Z" transform="translate(-11.75 -22.41)"></path><path class="cls-1" d="M926.34,132.05l51.93-5.26,1.8,17.72L906.19,152l-9.67-95.42,72.11-7.3L970.42,67l-50.16,5.08Zm-5.63-39.22,45.94-4.66,1.75,17.32-45.93,4.65Z" transform="translate(-11.75 -22.41)"></path><path class="cls-1" d="M997.65,142.73,988,47.32l41.31-4.19q12.81-1.29,22.5,1.92a32.54,32.54,0,0,1,15.52,10.48,33.2,33.2,0,0,1,6.91,17.89q1.08,10.77-3.17,19a31.78,31.78,0,0,1-13.13,13.17q-8.87,5-21.67,6.26l-29.18,3,9.13-10.57,3.67,36.26Zm18.79-36-11.15-9.47,28-2.84q10.08-1,14.82-5.91T1052,75.67q-.8-7.9-6.42-11.67t-15.7-2.75l-27.94,2.83,9-11.52Zm42,29.9L1031,104.38l23.71-2.4,27.5,32.19Z" transform="translate(-11.75 -22.41)"></path><path class="cls-1" d="M1112.05,97.54a20.7,20.7,0,0,1,.73-8.4,28,28,0,0,1,3.29-6.94,47.87,47.87,0,0,1,4.57-5.91c1.65-1.82,3.2-3.56,4.63-5.22a25.1,25.1,0,0,0,3.48-5.1,10.14,10.14,0,0,0,1-5.75,9.3,9.3,0,0,0-4.81-7.36q-4.32-2.59-10.86-1.93a24.47,24.47,0,0,0-11.39,3.84A23.12,23.12,0,0,0,1095.2,63l-17.48-8a39.39,39.39,0,0,1,13.85-14.9q9.12-5.88,22.88-7.28a51.74,51.74,0,0,1,18.43,1.1,27.25,27.25,0,0,1,13,7.29,21.6,21.6,0,0,1,5.74,13.19,25.48,25.48,0,0,1-.66,9.77,25.22,25.22,0,0,1-3.51,7.45,58.22,58.22,0,0,1-5,6.15q-2.67,2.88-5,5.6a24.83,24.83,0,0,0-3.7,5.61,12,12,0,0,0-1,6.44Zm13.84,33.31a12.63,12.63,0,0,1-9.64-2.75,12,12,0,0,1-4.57-8.35,11.49,11.49,0,0,1,2.81-9,14.44,14.44,0,0,1,18.74-1.89,11.57,11.57,0,0,1,4.49,8.29,12.1,12.1,0,0,1-2.73,9.09A12.78,12.78,0,0,1,1125.89,130.85Z" transform="translate(-11.75 -22.41)"></path><path class="cls-2" d="M45.87,208.62l49.89-5.06,2.12,21L21.41,232.3l-9.66-95.42,74.7-7.57,2.12,21-48.11,4.87Zm-5.71-37.3,44.3-4.49,2,20-44.3,4.49Z" transform="translate(-11.75 -22.41)"></path><path class="cls-2" d="M200.85,216.05a59.4,59.4,0,0,1-21.43-1.55,49,49,0,0,1-30.6-23.41,50.65,50.65,0,0,1-4-39.46,49.25,49.25,0,0,1,25.29-29,62.65,62.65,0,0,1,42.19-4.27A51.1,51.1,0,0,1,230.18,127a47.3,47.3,0,0,1,12.7,14.55,52.2,52.2,0,0,1,4,39.74,47.26,47.26,0,0,1-9.52,16.86,51.16,51.16,0,0,1-15.78,12.07A59.17,59.17,0,0,1,200.85,216.05Zm-2.26-22.35a27,27,0,0,0,10-2.94,23.55,23.55,0,0,0,7.62-6.35,26,26,0,0,0,4.57-9.21,32.68,32.68,0,0,0-2.26-22.35,26.27,26.27,0,0,0-6.33-8.11,23.66,23.66,0,0,0-8.74-4.69,28.09,28.09,0,0,0-20.31,2.06,24.31,24.31,0,0,0-7.68,6.35,24.61,24.61,0,0,0-4.58,9.21A33.85,33.85,0,0,0,173.1,180a25,25,0,0,0,6.33,8.1,24.43,24.43,0,0,0,8.81,4.69A27.13,27.13,0,0,0,198.59,193.7ZM234.21,234a49.61,49.61,0,0,1-11.65-.13,40.43,40.43,0,0,1-10.85-3.1,63.12,63.12,0,0,1-11.35-6.7q-6-4.35-13.57-10.88l27.5-10a67.83,67.83,0,0,0,6.94,7.35,17,17,0,0,0,5.8,3.55,14.19,14.19,0,0,0,5.78.58q7.89-.8,13.75-8.28l13.16,13Q251.11,232.31,234.21,234Z" transform="translate(-11.75 -22.41)"></path><path class="cls-2" d="M312.08,204.78q-21.13,2.15-34.09-8.25T262.88,165l-5.37-53,27-2.74,5.29,52.21q1.23,12.14,6.54,17t13.76,4q8.45-.85,12.61-6.65t2.94-17.92l-5.29-52.21,26.72-2.7,5.37,53q2.13,21.13-8.62,33.92T312.08,204.78Z" transform="translate(-11.75 -22.41)"></path><path class="cls-2" d="M399.59,172.79l49.89-5.06,2.12,21-76.47,7.75-9.66-95.42,74.7-7.57,2.12,21-48.12,4.87Zm-5.71-37.3,44.3-4.49,2,20-44.3,4.49Z" transform="translate(-11.75 -22.41)"></path><path class="cls-2" d="M466.73,187.19l-9.66-95.42,43.48-4.4Q513.63,86,523.61,89.3A32.7,32.7,0,0,1,539.49,100a34,34,0,0,1,7,18.22q1.13,11-3.2,19.33A32.65,32.65,0,0,1,529.85,151q-9.12,5.13-22.2,6.45L479,160.33l11-12.68,3.73,36.81Zm23.58-36.4-13.4-11.31,27-2.74q8.45-.86,12.3-5T519.38,121a13,13,0,0,0-5.25-9.73q-4.62-3.32-13.06-2.46l-27,2.73L485,97.9Zm35.31,30.43-27.24-32.35L527.14,146l27.38,32.34Z" transform="translate(-11.75 -22.41)"></path><path class="cls-2" d="M640.85,171.48a87.12,87.12,0,0,1-23-.63q-11.13-1.83-18.27-5.66l6.83-20.93a63.14,63.14,0,0,0,15.48,5.25,55.13,55.13,0,0,0,17,1,34.22,34.22,0,0,0,9-1.87,10.09,10.09,0,0,0,4.63-3.22A6.16,6.16,0,0,0,653.6,141a5.65,5.65,0,0,0-3.5-4.67,30.23,30.23,0,0,0-8.16-2.34q-5-.79-10.74-1.39a105.54,105.54,0,0,1-11.83-1.9,44.31,44.31,0,0,1-11.14-4,24.12,24.12,0,0,1-8.53-7.39q-3.45-4.76-4.22-12.38a27.34,27.34,0,0,1,3.08-15.88q3.93-7.41,12.9-12.6t23-6.6a81.65,81.65,0,0,1,18.69.25,54.69,54.69,0,0,1,16.65,4.71l-6.16,20.73a58.72,58.72,0,0,0-14.06-4.22,50.85,50.85,0,0,0-13.13-.46A27.27,27.27,0,0,0,627.6,95,10.68,10.68,0,0,0,623,98.65a6.51,6.51,0,0,0-1.08,4.24,5.75,5.75,0,0,0,3.51,4.81,27.37,27.37,0,0,0,8.08,2.21q4.88.68,10.8,1.31a117.87,117.87,0,0,1,11.83,1.91A46.35,46.35,0,0,1,667.21,117a24.3,24.3,0,0,1,8.65,7.25,23.84,23.84,0,0,1,4.26,12.17A27.07,27.07,0,0,1,677,152.19q-4,7.5-13,12.68T640.85,171.48Z" transform="translate(-11.75 -22.41)"></path><path class="cls-2" d="M683.87,165.2l32.45-99.69,26.58-2.69L794.82,154l-28.08,2.84L725.43,78l10.63-1.08L711.4,162.41Zm21.14-21,5-20.47L756.58,119l8.95,19.06Z" transform="translate(-11.75 -22.41)"></path><path class="cls-2" d="M802.59,153.17l-9.66-95.42,48.52-4.91q18.94-1.92,28.92,4.09T881.47,74A22.56,22.56,0,0,1,879,87.32a25.23,25.23,0,0,1-10,9.83A41.08,41.08,0,0,1,852.63,102l1.93-6.81a46.49,46.49,0,0,1,17.82,1.3A25.93,25.93,0,0,1,885,104.2a23.69,23.69,0,0,1,5.58,13.61,22.24,22.24,0,0,1-8.07,20.24q-9.32,8-28.67,9.93ZM827.2,131l22.63-2.29q7.08-.72,10.39-3.46t2.8-7.65a8.26,8.26,0,0,0-4.28-6.94q-3.79-2-10.87-1.3l-24.54,2.48-1.89-18.67,20.45-2.08q6.81-.67,10-3.35a7.72,7.72,0,0,0,2.72-7.16q-.48-4.77-4.12-6.67T840,72.67l-18.54,1.88Z" transform="translate(-11.75 -22.41)"></path><path class="cls-2" d="M931.87,118.87l49.89-5.06,2.12,21-76.46,7.75-9.67-95.42,74.7-7.56,2.12,21-48.11,4.87Zm-5.71-37.3,44.3-4.48,2,20-44.3,4.48Z" transform="translate(-11.75 -22.41)"></path><path class="cls-2" d="M999,133.27l-9.66-95.41,43.48-4.41q13.1-1.32,23.06,1.93a32.78,32.78,0,0,1,15.89,10.72,34.23,34.23,0,0,1,7,18.22q1.11,11.06-3.21,19.33a32.68,32.68,0,0,1-13.44,13.41q-9.14,5.13-22.21,6.45l-28.63,2.9,11-12.68,3.72,36.81Zm23.58-36.4-13.4-11.31,27-2.74c5.63-.57,9.74-2.22,12.3-5s3.63-6.33,3.18-10.79a12.92,12.92,0,0,0-5.25-9.72q-4.61-3.33-13.06-2.47l-27,2.74L1017.24,44Zm35.31,30.44L1030.66,95,1059.42,92l27.38,32.34Z" transform="translate(-11.75 -22.41)"></path><path class="cls-2" d="M1114.9,86.42a20.53,20.53,0,0,1,.63-8,27.23,27.23,0,0,1,3-6.57,41.72,41.72,0,0,1,4.18-5.59c1.52-1.71,2.94-3.33,4.26-4.84a22.55,22.55,0,0,0,3.18-4.66,8.63,8.63,0,0,0,.95-4.84,7.43,7.43,0,0,0-4-6,14.59,14.59,0,0,0-8.9-1.51,19.22,19.22,0,0,0-9.62,3.59,20.18,20.18,0,0,0-6.43,7.81l-21.41-8.71a40.41,40.41,0,0,1,13.92-16.21q9.39-6.54,24.66-8.08a54.31,54.31,0,0,1,18.84,1,28.6,28.6,0,0,1,13.55,7.37,21.76,21.76,0,0,1,6.06,13.57,25.34,25.34,0,0,1-.63,9.43,23.32,23.32,0,0,1-3.52,7.38q-2.36,3.27-4.83,6.07T1143.91,73a22.66,22.66,0,0,0-3.75,5.2,10.22,10.22,0,0,0-1,5.75Zm15.78,34.75a15.23,15.23,0,0,1-11.54-3.1,13.72,13.72,0,0,1-5.32-9.65A13.24,13.24,0,0,1,1117.1,98a15.69,15.69,0,0,1,10.71-5.15q6.95-.7,11.65,2.88a13.29,13.29,0,0,1,5.31,9.59,13.74,13.74,0,0,1-3.28,10.52A15.35,15.35,0,0,1,1130.68,121.17Z" transform="translate(-11.75 -22.41)"></path></g></g></g></g></svg>