<svg xmlns="http://www.w3.org/2000/svg" viewBox="0 0 1103.99 1165.26"><defs><style>.cls-1{fill:#f7f7f8;}.cls-2{fill:none;stroke:#717175;stroke-miterlimit:10;stroke-width:11px;opacity:0.2;}</style></defs><title>6</title><g id="Camada_2" data-name="Camada 2"><g id="Camada_1-2" data-name="Camada 1"><g id="nosso_estilo_" data-name="nosso estilo?"><path class="cls-1" d="M28.09,492.62h-8v-56h8Zm32.88-25H27.29v-7H61Zm-.72-31h8v56h-8Z" transform="translate(-20.09)"></path><path class="cls-1" d="M114.73,493.26a32.16,32.16,0,0,1-11.88-2.16,28.42,28.42,0,0,1-9.48-6A28.09,28.09,0,0,1,87.13,476a29.93,29.93,0,0,1,0-22.72,28.09,28.09,0,0,1,6.24-9.08,28.55,28.55,0,0,1,9.44-6A32,32,0,0,1,114.73,436a32.36,32.36,0,0,1,11.84,2.12,27.79,27.79,0,0,1,9.44,6,27.19,27.19,0,0,1,6.2,9.12,30.74,30.74,0,0,1,0,22.84,27.22,27.22,0,0,1-6.2,9.08,27.79,27.79,0,0,1-9.44,6A32.36,32.36,0,0,1,114.73,493.26Zm0-7.12a22.65,22.65,0,0,0,8.6-1.6,20.38,20.38,0,0,0,6.88-4.52,21,21,0,0,0,4.56-6.84,21.84,21.84,0,0,0,1.64-8.56,21.38,21.38,0,0,0-6.2-15.36,20.19,20.19,0,0,0-6.88-4.56,22.65,22.65,0,0,0-8.6-1.6,22.92,22.92,0,0,0-8.68,1.6,20.75,20.75,0,0,0-6.92,4.56,21.41,21.41,0,0,0-4.6,6.84,21.75,21.75,0,0,0-1.64,8.52,22,22,0,0,0,1.64,8.56,20.77,20.77,0,0,0,11.52,11.36A22.92,22.92,0,0,0,114.73,486.14Z" transform="translate(-20.09)"></path><path class="cls-1" d="M167.05,493.26a21.09,21.09,0,0,1-9.28-2.08,18,18,0,0,1-7-6l4.64-5.44a17.7,17.7,0,0,0,5.24,4.92,12.45,12.45,0,0,0,6.44,1.72q9.6,0,9.6-11.36V443.58H156.41v-7h28.16v38q0,9.36-4.44,14T167.05,493.26Z" transform="translate(-20.09)"></path><path class="cls-1" d="M213.29,485.66h32.64v7H205.29v-56h39.52v7H213.29Zm-.72-24.88h28.8v6.8h-28.8Z" transform="translate(-20.09)"></path><path class="cls-1" d="M314.49,493.26a32.64,32.64,0,0,1-11.92-2.12,27.77,27.77,0,0,1-15.68-15.08,30.33,30.33,0,0,1,0-22.88,27.59,27.59,0,0,1,6.28-9.08,28.25,28.25,0,0,1,9.48-6,35.17,35.17,0,0,1,24.16,0,24.06,24.06,0,0,1,9.36,6.48l-5,5a22.07,22.07,0,0,0-7.48-4.92A24.09,24.09,0,0,0,315,443.1a24.37,24.37,0,0,0-8.92,1.6,21.29,21.29,0,0,0-7.12,4.48,19.89,19.89,0,0,0-4.64,6.84,23.16,23.16,0,0,0,0,17.12,20.34,20.34,0,0,0,4.64,6.88,21,21,0,0,0,7.08,4.52,24,24,0,0,0,8.88,1.6,26.64,26.64,0,0,0,8.6-1.4,21.08,21.08,0,0,0,7.64-4.68l4.56,6.08a28.29,28.29,0,0,1-9.72,5.32A37,37,0,0,1,314.49,493.26ZM328,485.1V464.3h7.68v21.84Z" transform="translate(-20.09)"></path><path class="cls-1" d="M355.37,492.62v-56h21.84a30.65,30.65,0,0,1,12.56,2.32,17.83,17.83,0,0,1,8,6.72,20.94,20.94,0,0,1,0,20.92,17.87,17.87,0,0,1-8,6.68,30.65,30.65,0,0,1-12.56,2.32H359.77l3.6-3.68v20.72Zm8-19.92-3.6-3.92H377q7.68,0,11.64-3.32t4-9.32q0-6-4-9.28T377,443.58h-17.2l3.6-4Zm29.44,19.92L378.57,472.3h8.56l14.4,20.32Z" transform="translate(-20.09)"></path><path class="cls-1" d="M441.13,493.26q-11,0-17.36-6.32t-6.32-18.48V436.62h8v31.52q0,9.36,4.12,13.68t11.64,4.32q7.59,0,11.72-4.32t4.12-13.68V436.62h7.76v31.84q0,12.17-6.28,18.48T441.13,493.26Z" transform="translate(-20.09)"></path><path class="cls-1" d="M485.61,492.62v-56h6.56l37,46h-3.44v-46h8v56h-6.56l-37-46h3.44v46Z" transform="translate(-20.09)"></path><path class="cls-1" d="M580.25,493.26a32.6,32.6,0,0,1-11.92-2.12,27.77,27.77,0,0,1-15.68-15.08,30.33,30.33,0,0,1,0-22.88,27.44,27.44,0,0,1,6.28-9.08,28.25,28.25,0,0,1,9.48-6,35.17,35.17,0,0,1,24.16,0,24.06,24.06,0,0,1,9.36,6.48l-5,5a22.17,22.17,0,0,0-7.48-4.92,25.52,25.52,0,0,0-17.68,0,21.29,21.29,0,0,0-7.12,4.48,19.89,19.89,0,0,0-4.64,6.84,22.14,22.14,0,0,0-1.64,8.6,21.92,21.92,0,0,0,1.64,8.52,20.34,20.34,0,0,0,4.64,6.88,21,21,0,0,0,7.08,4.52,24,24,0,0,0,8.88,1.6,26.68,26.68,0,0,0,8.6-1.4,21.16,21.16,0,0,0,7.64-4.68l4.56,6.08a28.48,28.48,0,0,1-9.72,5.32A37.09,37.09,0,0,1,580.25,493.26Zm13.52-8.16V464.3h7.68v21.84Z" transform="translate(-20.09)"></path><path class="cls-1" d="M629.13,485.66h32.64v7H621.13v-56h39.52v7H629.13Zm-.72-24.88h28.8v6.8h-28.8Z" transform="translate(-20.09)"></path><path class="cls-1" d="M675.77,504.46l4-16.16,1,4.64a5.5,5.5,0,0,1-3.88-1.44,5.08,5.08,0,0,1-1.56-3.92,5.26,5.26,0,0,1,5.36-5.44,4.89,4.89,0,0,1,3.76,1.56,5.5,5.5,0,0,1,1.44,3.88,10.05,10.05,0,0,1-.12,1.56,17.41,17.41,0,0,1-.4,1.76c-.19.67-.47,1.48-.84,2.44l-3.76,11.12Z" transform="translate(-20.09)"></path><path class="cls-1" d="M719.92,492.62l25.36-56h7.92l25.44,56h-8.4L747.6,441.1h3.2l-22.64,51.52Zm10.8-14,2.16-6.4H764.4l2.32,6.4Z" transform="translate(-20.09)"></path><path class="cls-1" d="M791.36,492.62v-56h6.56L823,478.94h-3.52l24.8-42.32h6.56l.08,56h-7.68l-.08-43.92H845L823,485.82h-3.68L797,448.7h2v43.92Z" transform="translate(-20.09)"></path><path class="cls-1" d="M863.68,492.62l25.36-56H897l25.44,56H914L891.36,441.1h3.2l-22.64,51.52Zm10.8-14,2.16-6.4h31.52l2.32,6.4Z" transform="translate(-20.09)"></path><path class="cls-1" d="M935.12,492.62v-56h6.56l37,46h-3.44v-46h8v56h-6.56l-37-46h3.44v46Z" transform="translate(-20.09)"></path><path class="cls-1" d="M1012.48,492.62h-8v-56h8Zm32.88-25h-33.68v-7h33.68Zm-.72-31h8v56h-8Z" transform="translate(-20.09)"></path><path class="cls-1" d="M1065.36,492.62l25.36-56h7.92l25.44,56h-8.4L1093,441.1h3.2l-22.64,51.52Zm10.8-14,2.16-6.4h31.52l2.32,6.4Zm24.16-46.8a7.08,7.08,0,0,1-3.4-.8,13.55,13.55,0,0,1-2.68-1.88,25.57,25.57,0,0,0-2.32-1.88,3.86,3.86,0,0,0-2.24-.8,3.5,3.5,0,0,0-2.84,1.32,6.32,6.32,0,0,0-1.24,3.64h-4.32a11.91,11.91,0,0,1,2.24-7.12,6.76,6.76,0,0,1,5.6-2.64,7,7,0,0,1,3.44.84,14.72,14.72,0,0,1,2.72,1.92c.8.72,1.56,1.35,2.28,1.88a3.68,3.68,0,0,0,5.08-.48,5.44,5.44,0,0,0,1.2-3.52h4.32a11,11,0,0,1-2.2,6.88A6.86,6.86,0,0,1,1100.32,431.82Z" transform="translate(-20.09)"></path><path class="cls-1" d="M89.73,588.62v-56h8v56Z" transform="translate(-20.09)"></path><path class="cls-1" d="M118.93,588.62v-56h6.56l37,46h-3.44v-46h8v56h-6.56l-37-46h3.44v46Z" transform="translate(-20.09)"></path><path class="cls-1" d="M188.29,588.62v-56h23.6a34,34,0,0,1,15.8,3.52A26,26,0,0,1,238.33,546a30.1,30.1,0,0,1,0,29.28,26,26,0,0,1-10.64,9.84,34,34,0,0,1-15.8,3.52Zm8-7h15.12a25.8,25.8,0,0,0,12-2.64,19.22,19.22,0,0,0,7.88-7.4,23.09,23.09,0,0,0,0-22,19.26,19.26,0,0,0-7.88-7.36,25.8,25.8,0,0,0-12-2.64H196.29Z" transform="translate(-20.09)"></path><path class="cls-1" d="M258.77,588.62v-56h8v56Z" transform="translate(-20.09)"></path><path class="cls-1" d="M296,581.66h32.64v7H288v-56h39.52v7H296Zm-.72-24.88h28.8v6.8h-28.8Z" transform="translate(-20.09)"></path><path class="cls-1" d="M379.89,581.66h32.64v7H371.89v-56h39.52v7H379.89Zm-.72-24.88H408v6.8h-28.8Z" transform="translate(-20.09)"></path><path class="cls-1" d="M472.13,589.26a38.09,38.09,0,0,1-12.24-2,25.15,25.15,0,0,1-9.2-5.08l3-6.24a25.91,25.91,0,0,0,8.16,4.64,29.39,29.39,0,0,0,10.32,1.84,23.27,23.27,0,0,0,7.92-1.12,9.37,9.37,0,0,0,4.48-3.08,7.32,7.32,0,0,0,1.44-4.44,6.07,6.07,0,0,0-1.88-4.64,14,14,0,0,0-4.88-2.84,53.69,53.69,0,0,0-6.6-1.88q-3.6-.8-7.24-1.88a32.33,32.33,0,0,1-6.64-2.76,13.64,13.64,0,0,1-4.84-4.52,13.2,13.2,0,0,1-1.84-7.32,14.71,14.71,0,0,1,2.28-8,15.85,15.85,0,0,1,7-5.84,28.89,28.89,0,0,1,12.12-2.2,37.58,37.58,0,0,1,9.68,1.28,26.94,26.94,0,0,1,8.32,3.68l-2.64,6.4a25.69,25.69,0,0,0-7.6-3.48,29.72,29.72,0,0,0-7.76-1.08,21.36,21.36,0,0,0-7.76,1.2,9.45,9.45,0,0,0-4.44,3.2,7.65,7.65,0,0,0-1.4,4.48,6.17,6.17,0,0,0,1.88,4.72,13.47,13.47,0,0,0,4.88,2.8,66.86,66.86,0,0,0,6.6,1.88q3.6.84,7.24,1.88a30.68,30.68,0,0,1,6.64,2.72,13.71,13.71,0,0,1,4.84,4.48,12.87,12.87,0,0,1,1.84,7.2,14.36,14.36,0,0,1-2.32,7.88,16,16,0,0,1-7.16,5.84A29.48,29.48,0,0,1,472.13,589.26Z" transform="translate(-20.09)"></path><path class="cls-1" d="M517.89,581.66h32.64v7H509.89v-56h39.52v7H517.89Zm-.72-24.88H546v6.8h-28.8Z" transform="translate(-20.09)"></path><path class="cls-1" d="M567.89,588.62v-56h6.56l25.12,42.32h-3.52l24.8-42.32h6.56l.08,56h-7.68l-.08-43.92h1.84l-22.08,37.12h-3.68L573.57,544.7h2v43.92Z" transform="translate(-20.09)"></path><path class="cls-1" d="M640.21,588.62l25.36-56h7.92l25.44,56h-8.4L667.89,537.1h3.2l-22.64,51.52Zm10.8-14,2.16-6.4h31.52l2.32,6.4Z" transform="translate(-20.09)"></path><path class="cls-1" d="M711.65,588.62v-56h6.55l37,46H751.8v-46h8v56h-6.56l-37-46h3.45v46Z" transform="translate(-20.09)"></path><path class="cls-1" d="M772.53,588.62l25.36-56h7.92l25.43,56h-8.39L800.2,537.1h3.21l-22.64,51.52Zm10.8-14,2.16-6.4H817l2.32,6.4Z" transform="translate(-20.09)"></path><path class="cls-1" d="M895.16,589.26a32.16,32.16,0,0,1-11.88-2.16,28.42,28.42,0,0,1-9.48-6,28.09,28.09,0,0,1-6.24-9.08,29.93,29.93,0,0,1,0-22.72,28.09,28.09,0,0,1,6.24-9.08,28.55,28.55,0,0,1,9.44-6A32,32,0,0,1,895.16,532,32.36,32.36,0,0,1,907,534.1a27.79,27.79,0,0,1,9.44,6,27.19,27.19,0,0,1,6.2,9.12,30.74,30.74,0,0,1,0,22.84,27.22,27.22,0,0,1-6.2,9.08,27.79,27.79,0,0,1-9.44,6A32.36,32.36,0,0,1,895.16,589.26Zm0-7.12a22.65,22.65,0,0,0,8.6-1.6,20.19,20.19,0,0,0,6.88-4.56,21.56,21.56,0,0,0,6.2-15.36,21.84,21.84,0,0,0-1.64-8.56,21,21,0,0,0-4.56-6.84,20.38,20.38,0,0,0-6.88-4.52,22.65,22.65,0,0,0-8.6-1.6,22.92,22.92,0,0,0-8.68,1.6A20.77,20.77,0,0,0,875,552.06a22,22,0,0,0-1.64,8.56A21.8,21.8,0,0,0,875,569.1a21.36,21.36,0,0,0,4.6,6.88,20.75,20.75,0,0,0,6.92,4.56A22.92,22.92,0,0,0,895.16,582.14Zm18.32,18.16A20.13,20.13,0,0,1,903,597.46a35.64,35.64,0,0,1-5.28-3.84,80.49,80.49,0,0,1-5.92-5.8l8.56-2.24a37.56,37.56,0,0,0,4.6,4.84,15.51,15.51,0,0,0,4.36,2.72,11.84,11.84,0,0,0,4.32.84,13.09,13.09,0,0,0,10.16-4.8l3.76,4.56A17.44,17.44,0,0,1,913.48,600.3Z" transform="translate(-20.09)"></path><path class="cls-1" d="M964.68,589.26q-11,0-17.36-6.32T941,564.46V532.62h8v31.52q0,9.36,4.12,13.68t11.64,4.32q7.61,0,11.72-4.32t4.12-13.68V532.62h7.76v31.84q0,12.16-6.28,18.48T964.68,589.26Z" transform="translate(-20.09)"></path><path class="cls-1" d="M1017.16,581.66h32.64v7h-40.64v-56h39.52v7h-31.52Zm-.72-24.88h28.8v6.8h-28.8Z" transform="translate(-20.09)"></path><path class="cls-1" d="M144.69,684.62l-24.64-56h8.64l22.64,51.68h-5l22.8-51.68h8l-24.56,56Z" transform="translate(-20.09)"></path><path class="cls-1" d="M196.69,677.66h32.64v7H188.69v-56h39.52v7H196.69ZM196,652.78h28.8v6.8H196Z" transform="translate(-20.09)"></path><path class="cls-1" d="M246.69,684.62v-56h6.56l25.12,42.32h-3.52l24.8-42.32h6.56l.08,56h-7.68l-.08-43.92h1.84l-22.08,37.12h-3.68L252.37,640.7h2v43.92Z" transform="translate(-20.09)"></path><path class="cls-1" d="M328.21,685.1a5.4,5.4,0,0,1-5.44-5.52,5.15,5.15,0,0,1,1.6-3.92,5.4,5.4,0,0,1,3.84-1.52,5.16,5.16,0,0,1,3.72,1.52,5.23,5.23,0,0,1,1.56,3.92,5.37,5.37,0,0,1-1.56,4A5.08,5.08,0,0,1,328.21,685.1Z" transform="translate(-20.09)"></path><path class="cls-1" d="M350.77,685.1a5.4,5.4,0,0,1-5.44-5.52,5.15,5.15,0,0,1,1.6-3.92,5.4,5.4,0,0,1,3.84-1.52,5.16,5.16,0,0,1,3.72,1.52,5.23,5.23,0,0,1,1.56,3.92,5.37,5.37,0,0,1-1.56,4A5.08,5.08,0,0,1,350.77,685.1Z" transform="translate(-20.09)"></path><path class="cls-1" d="M373.33,685.1a5.4,5.4,0,0,1-5.44-5.52,5.15,5.15,0,0,1,1.6-3.92,5.4,5.4,0,0,1,3.84-1.52,5.16,5.16,0,0,1,3.72,1.52,5.23,5.23,0,0,1,1.56,3.92,5.37,5.37,0,0,1-1.56,4A5.08,5.08,0,0,1,373.33,685.1Z" transform="translate(-20.09)"></path><path class="cls-1" d="M434,684.62l-18.72-56h8.24l17.2,51.68h-4.16l17.84-51.68h7.36l17.44,51.68h-4l17.44-51.68h7.6l-18.72,56h-8.4L456.77,636.7h2.16l-16.4,47.92Z" transform="translate(-20.09)"></path><path class="cls-1" d="M522.37,684.62h-8v-56h8Zm32.88-25H521.57v-7h33.68Zm-.72-31h8v56h-8Z" transform="translate(-20.09)"></path><path class="cls-1" d="M609,685.26a32.08,32.08,0,0,1-11.88-2.16,28.22,28.22,0,0,1-9.48-6,27.78,27.78,0,0,1-6.24-9.08,29.93,29.93,0,0,1,0-22.72,27.78,27.78,0,0,1,6.24-9.08,28.34,28.34,0,0,1,9.44-6A32,32,0,0,1,609,628a32.44,32.44,0,0,1,11.84,2.12,28,28,0,0,1,9.44,6,27.48,27.48,0,0,1,6.2,9.12,30.74,30.74,0,0,1,0,22.84,27.52,27.52,0,0,1-6.2,9.08,28,28,0,0,1-9.44,6A32.44,32.44,0,0,1,609,685.26Zm0-7.12a22.69,22.69,0,0,0,8.6-1.6,20.48,20.48,0,0,0,6.88-4.52,21.35,21.35,0,0,0,4.56-6.84,22,22,0,0,0,1.64-8.56,21.38,21.38,0,0,0-6.2-15.36,20.28,20.28,0,0,0-6.88-4.56,24.13,24.13,0,0,0-17.28,0,20.65,20.65,0,0,0-6.92,4.56,21.09,21.09,0,0,0-4.6,6.84,21.57,21.57,0,0,0-1.64,8.52,21.84,21.84,0,0,0,1.64,8.56,20.77,20.77,0,0,0,11.52,11.36A22.88,22.88,0,0,0,609,678.14Z" transform="translate(-20.09)"></path><path class="cls-1" d="M706.29,685.26a32.07,32.07,0,0,1-11.8-2.12,27.54,27.54,0,0,1-9.36-6,28.14,28.14,0,0,1-6.2-9.08,30.33,30.33,0,0,1,0-22.88,27.86,27.86,0,0,1,15.64-15.08,33.75,33.75,0,0,1,23.76.08,24.56,24.56,0,0,1,9.32,6.52l-5.2,5a20.86,20.86,0,0,0-7.2-5,22.42,22.42,0,0,0-8.56-1.64,23.49,23.49,0,0,0-8.76,1.6,21,21,0,0,0-7,4.48,20.07,20.07,0,0,0-4.6,6.84,23.37,23.37,0,0,0,0,17.2,20.07,20.07,0,0,0,4.6,6.84,21,21,0,0,0,7,4.48,23.49,23.49,0,0,0,8.76,1.6,22.42,22.42,0,0,0,8.56-1.64,20.45,20.45,0,0,0,7.2-5.08l5.2,5a24.87,24.87,0,0,1-9.32,6.56A31.63,31.63,0,0,1,706.29,685.26Z" transform="translate(-20.09)"></path><path class="cls-1" d="M733.65,684.62l25.36-56h7.92l25.44,56H784L761.33,633.1h3.2l-22.64,51.52Zm10.8-14,2.16-6.4h31.52l2.32,6.4Z" transform="translate(-20.09)"></path><path class="cls-1" d="M805.09,684.62v-56h21.84a30.69,30.69,0,0,1,12.56,2.32,17.88,17.88,0,0,1,8,6.72,21,21,0,0,1,0,20.92,17.93,17.93,0,0,1-8,6.68,30.69,30.69,0,0,1-12.56,2.32H809.49l3.6-3.68v20.72Zm8-19.92-3.6-3.92h17.2q7.68,0,11.64-3.32t3.95-9.32q0-6-3.95-9.28t-11.64-3.28h-17.2l3.6-4Zm29.44,19.92L828.28,664.3h8.57l14.39,20.32Z" transform="translate(-20.09)"></path><path class="cls-1" d="M875.64,677.66h32.64v7H867.64v-56h39.52v7H875.64Zm-.72-24.88h28.8v6.8h-28.8Z" transform="translate(-20.09)"></path><path class="cls-1" d="M942,685.26a38.18,38.18,0,0,1-12.24-2,25.15,25.15,0,0,1-9.2-5.08l3-6.24a26.13,26.13,0,0,0,8.16,4.64A29.39,29.39,0,0,0,942,678.46a23.19,23.19,0,0,0,7.92-1.12,9.37,9.37,0,0,0,4.48-3.08,7.32,7.32,0,0,0,1.44-4.44,6,6,0,0,0-1.88-4.64,14,14,0,0,0-4.88-2.84,53.69,53.69,0,0,0-6.6-1.88q-3.6-.8-7.24-1.88a32.57,32.57,0,0,1-6.64-2.76,13.64,13.64,0,0,1-4.84-4.52,13.28,13.28,0,0,1-1.84-7.32,14.71,14.71,0,0,1,2.28-8,15.85,15.85,0,0,1,7-5.84,29,29,0,0,1,12.12-2.2,37.52,37.52,0,0,1,9.68,1.28,26.84,26.84,0,0,1,8.32,3.68l-2.64,6.4a25.69,25.69,0,0,0-7.6-3.48,29.66,29.66,0,0,0-7.76-1.08,21.4,21.4,0,0,0-7.76,1.2,9.55,9.55,0,0,0-4.44,3.2,7.65,7.65,0,0,0-1.4,4.48,6.17,6.17,0,0,0,1.88,4.72,13.56,13.56,0,0,0,4.88,2.8,66.86,66.86,0,0,0,6.6,1.88c2.4.56,4.82,1.19,7.24,1.88a30.68,30.68,0,0,1,6.64,2.72,13.62,13.62,0,0,1,4.84,4.48,12.87,12.87,0,0,1,1.84,7.2,14.36,14.36,0,0,1-2.32,7.88,16,16,0,0,1-7.16,5.84A29.45,29.45,0,0,1,942,685.26Z" transform="translate(-20.09)"></path><path class="cls-1" d="M988,666.94a13.27,13.27,0,0,1,1-5.44,17.6,17.6,0,0,1,2.6-4.16,29.51,29.51,0,0,1,3.4-3.4q1.85-1.56,3.44-3.12a14.78,14.78,0,0,0,2.6-3.32,8.06,8.06,0,0,0,1-4.08,7.57,7.57,0,0,0-3-6.24q-3-2.4-8.4-2.4a19.92,19.92,0,0,0-8.32,1.6,16.22,16.22,0,0,0-6,4.72l-5.84-4.16a22.67,22.67,0,0,1,8.56-6.6A29.25,29.25,0,0,1,991.16,628a26.43,26.43,0,0,1,10,1.72,15,15,0,0,1,6.6,4.88,12.36,12.36,0,0,1,2.36,7.64,14.32,14.32,0,0,1-1,5.76,16.14,16.14,0,0,1-2.64,4.24,36.81,36.81,0,0,1-3.4,3.44c-1.2,1.07-2.33,2.13-3.4,3.2a15.66,15.66,0,0,0-2.64,3.52,9.48,9.48,0,0,0-1,4.56ZM992,685.1a5.12,5.12,0,0,1-5.2-5.12,4.94,4.94,0,0,1,1.48-3.68,5.13,5.13,0,0,1,3.72-1.44,4.93,4.93,0,0,1,5.12,5.12,5,5,0,0,1-1.44,3.6A4.85,4.85,0,0,1,992,685.1Z" transform="translate(-20.09)"></path><path class="cls-1" d="M139.93,780.62v-56h6.56l37,46h-3.44v-46h8v56h-6.56l-37-46h3.44v46Z" transform="translate(-20.09)"></path><path class="cls-1" d="M234.57,781.26a32.12,32.12,0,0,1-11.88-2.16,28.42,28.42,0,0,1-9.48-6A27.78,27.78,0,0,1,207,764a29.93,29.93,0,0,1,0-22.72,27.78,27.78,0,0,1,6.24-9.08,28.45,28.45,0,0,1,9.44-6A32,32,0,0,1,234.57,724a32.4,32.4,0,0,1,11.84,2.12,27.88,27.88,0,0,1,9.44,6,27.33,27.33,0,0,1,6.2,9.12,30.74,30.74,0,0,1,0,22.84,27.37,27.37,0,0,1-6.2,9.08,27.88,27.88,0,0,1-9.44,6A32.4,32.4,0,0,1,234.57,781.26Zm0-7.12a22.69,22.69,0,0,0,8.6-1.6,20.48,20.48,0,0,0,6.88-4.52,21,21,0,0,0,4.56-6.84,22,22,0,0,0,1.64-8.56,21.75,21.75,0,0,0-1.64-8.52,21.46,21.46,0,0,0-4.56-6.84,20.28,20.28,0,0,0-6.88-4.56,22.69,22.69,0,0,0-8.6-1.6,22.92,22.92,0,0,0-8.68,1.6,20.75,20.75,0,0,0-6.92,4.56,21.25,21.25,0,0,0-4.6,6.84,21.75,21.75,0,0,0-1.64,8.52,22,22,0,0,0,1.64,8.56,20.77,20.77,0,0,0,11.52,11.36A22.92,22.92,0,0,0,234.57,774.14Z" transform="translate(-20.09)"></path><path class="cls-1" d="M297.21,781.26a38.09,38.09,0,0,1-12.24-2,25.15,25.15,0,0,1-9.2-5.08l3-6.24a25.91,25.91,0,0,0,8.16,4.64,29.39,29.39,0,0,0,10.32,1.84,23.27,23.27,0,0,0,7.92-1.12,9.37,9.37,0,0,0,4.48-3.08,7.32,7.32,0,0,0,1.44-4.44,6.07,6.07,0,0,0-1.88-4.64,14,14,0,0,0-4.88-2.84,53.69,53.69,0,0,0-6.6-1.88q-3.6-.8-7.24-1.88a32.33,32.33,0,0,1-6.64-2.76A13.64,13.64,0,0,1,279,747.3a13.2,13.2,0,0,1-1.84-7.32,14.71,14.71,0,0,1,2.28-8,15.85,15.85,0,0,1,7-5.84,28.89,28.89,0,0,1,12.12-2.2,37.58,37.58,0,0,1,9.68,1.28,26.94,26.94,0,0,1,8.32,3.68l-2.64,6.4a25.69,25.69,0,0,0-7.6-3.48,29.72,29.72,0,0,0-7.76-1.08,21.36,21.36,0,0,0-7.76,1.2,9.45,9.45,0,0,0-4.44,3.2,7.65,7.65,0,0,0-1.4,4.48,6.17,6.17,0,0,0,1.88,4.72,13.47,13.47,0,0,0,4.88,2.8,66.86,66.86,0,0,0,6.6,1.88q3.6.84,7.24,1.88a30.68,30.68,0,0,1,6.64,2.72,13.71,13.71,0,0,1,4.84,4.48,12.87,12.87,0,0,1,1.84,7.2,14.36,14.36,0,0,1-2.32,7.88,16,16,0,0,1-7.16,5.84A29.48,29.48,0,0,1,297.21,781.26Z" transform="translate(-20.09)"></path><path class="cls-1" d="M351.29,781.26a38.09,38.09,0,0,1-12.24-2,25.15,25.15,0,0,1-9.2-5.08l3-6.24a25.91,25.91,0,0,0,8.16,4.64,29.39,29.39,0,0,0,10.32,1.84,23.27,23.27,0,0,0,7.92-1.12,9.37,9.37,0,0,0,4.48-3.08,7.32,7.32,0,0,0,1.44-4.44,6.07,6.07,0,0,0-1.88-4.64,14,14,0,0,0-4.88-2.84,53.69,53.69,0,0,0-6.6-1.88q-3.6-.8-7.24-1.88a32.33,32.33,0,0,1-6.64-2.76,13.64,13.64,0,0,1-4.84-4.52,13.2,13.2,0,0,1-1.84-7.32,14.71,14.71,0,0,1,2.28-8,15.85,15.85,0,0,1,7-5.84,28.89,28.89,0,0,1,12.12-2.2,37.58,37.58,0,0,1,9.68,1.28,26.94,26.94,0,0,1,8.32,3.68l-2.64,6.4a25.69,25.69,0,0,0-7.6-3.48,29.72,29.72,0,0,0-7.76-1.08,21.36,21.36,0,0,0-7.76,1.2,9.45,9.45,0,0,0-4.44,3.2,7.65,7.65,0,0,0-1.4,4.48,6.17,6.17,0,0,0,1.88,4.72,13.47,13.47,0,0,0,4.88,2.8,66.86,66.86,0,0,0,6.6,1.88q3.6.84,7.24,1.88a30.68,30.68,0,0,1,6.64,2.72,13.71,13.71,0,0,1,4.84,4.48,12.87,12.87,0,0,1,1.84,7.2,14.36,14.36,0,0,1-2.32,7.88,16,16,0,0,1-7.16,5.84A29.48,29.48,0,0,1,351.29,781.26Z" transform="translate(-20.09)"></path><path class="cls-1" d="M414.33,781.26a32.08,32.08,0,0,1-11.88-2.16,28.42,28.42,0,0,1-9.48-6,27.78,27.78,0,0,1-6.24-9.08,29.93,29.93,0,0,1,0-22.72,27.78,27.78,0,0,1,6.24-9.08,28.45,28.45,0,0,1,9.44-6A32,32,0,0,1,414.33,724a32.4,32.4,0,0,1,11.84,2.12,27.88,27.88,0,0,1,9.44,6,27.33,27.33,0,0,1,6.2,9.12,30.74,30.74,0,0,1,0,22.84,27.37,27.37,0,0,1-6.2,9.08,27.88,27.88,0,0,1-9.44,6A32.4,32.4,0,0,1,414.33,781.26Zm0-7.12a22.69,22.69,0,0,0,8.6-1.6,20.48,20.48,0,0,0,6.88-4.52,21,21,0,0,0,4.56-6.84,22,22,0,0,0,1.64-8.56,21.75,21.75,0,0,0-1.64-8.52,21.46,21.46,0,0,0-4.56-6.84,20.28,20.28,0,0,0-6.88-4.56,24.13,24.13,0,0,0-17.28,0,20.65,20.65,0,0,0-6.92,4.56,21.25,21.25,0,0,0-4.6,6.84,21.75,21.75,0,0,0-1.64,8.52,22,22,0,0,0,1.64,8.56,20.77,20.77,0,0,0,11.52,11.36A22.88,22.88,0,0,0,414.33,774.14Z" transform="translate(-20.09)"></path><path class="cls-1" d="M494.57,773.66h32.64v7H486.57v-56h39.52v7H494.57Zm-.72-24.88h28.8v6.8h-28.8Z" transform="translate(-20.09)"></path><path class="cls-1" d="M560.89,781.26a38.09,38.09,0,0,1-12.24-2,25.15,25.15,0,0,1-9.2-5.08l3-6.24a25.91,25.91,0,0,0,8.16,4.64,29.39,29.39,0,0,0,10.32,1.84,23.27,23.27,0,0,0,7.92-1.12,9.37,9.37,0,0,0,4.48-3.08,7.32,7.32,0,0,0,1.44-4.44,6.07,6.07,0,0,0-1.88-4.64,14,14,0,0,0-4.88-2.84,53.69,53.69,0,0,0-6.6-1.88q-3.6-.8-7.24-1.88a32.33,32.33,0,0,1-6.64-2.76,13.64,13.64,0,0,1-4.84-4.52,13.2,13.2,0,0,1-1.84-7.32,14.71,14.71,0,0,1,2.28-8,15.85,15.85,0,0,1,7-5.84,28.89,28.89,0,0,1,12.12-2.2,37.58,37.58,0,0,1,9.68,1.28,26.94,26.94,0,0,1,8.32,3.68l-2.64,6.4a25.69,25.69,0,0,0-7.6-3.48,29.72,29.72,0,0,0-7.76-1.08,21.36,21.36,0,0,0-7.76,1.2,9.45,9.45,0,0,0-4.44,3.2,7.65,7.65,0,0,0-1.4,4.48,6.17,6.17,0,0,0,1.88,4.72,13.47,13.47,0,0,0,4.88,2.8,66.86,66.86,0,0,0,6.6,1.88q3.6.84,7.24,1.88a30.68,30.68,0,0,1,6.64,2.72,13.71,13.71,0,0,1,4.84,4.48,13,13,0,0,1,1.84,7.2,14.36,14.36,0,0,1-2.32,7.88,16,16,0,0,1-7.16,5.84A29.48,29.48,0,0,1,560.89,781.26Z" transform="translate(-20.09)"></path><path class="cls-1" d="M609,780.62v-49h-19.2v-7h46.32v7h-19.2v49Z" transform="translate(-20.09)"></path><path class="cls-1" d="M649.21,780.62v-56h8v56Z" transform="translate(-20.09)"></path><path class="cls-1" d="M678.41,780.62v-56h8v49h30.32v7Z" transform="translate(-20.09)"></path><path class="cls-1" d="M754.57,781.26a32.08,32.08,0,0,1-11.88-2.16,28.22,28.22,0,0,1-9.48-6A27.78,27.78,0,0,1,727,764a29.93,29.93,0,0,1,0-22.72,27.78,27.78,0,0,1,6.24-9.08,28.34,28.34,0,0,1,9.44-6A32,32,0,0,1,754.57,724a32.44,32.44,0,0,1,11.84,2.12,28,28,0,0,1,9.44,6,27.48,27.48,0,0,1,6.2,9.12,30.74,30.74,0,0,1,0,22.84,27.52,27.52,0,0,1-6.2,9.08,28,28,0,0,1-9.44,6A32.44,32.44,0,0,1,754.57,781.26Zm0-7.12a22.69,22.69,0,0,0,8.6-1.6,20.48,20.48,0,0,0,6.88-4.52,21.35,21.35,0,0,0,4.56-6.84,22,22,0,0,0,1.64-8.56,21.38,21.38,0,0,0-6.2-15.36,20.28,20.28,0,0,0-6.88-4.56,24.13,24.13,0,0,0-17.28,0,20.65,20.65,0,0,0-6.92,4.56,21.09,21.09,0,0,0-4.6,6.84,21.75,21.75,0,0,0-1.64,8.52,22,22,0,0,0,1.64,8.56,20.77,20.77,0,0,0,11.52,11.36A22.88,22.88,0,0,0,754.57,774.14Z" transform="translate(-20.09)"></path><path class="cls-1" d="M837.93,780.62v-49h-19.2v-7h46.32v7h-19.2v49Z" transform="translate(-20.09)"></path><path class="cls-1" d="M886.17,773.66h32.64v7H878.17v-56h39.52v7H886.17Zm-.72-24.88h28.8v6.8h-28.8Z" transform="translate(-20.09)"></path><path class="cls-1" d="M936.17,780.62v-56h6.56l25.12,42.32h-3.52l24.8-42.32h6.56l.08,56h-7.68L988,736.7h1.84l-22.08,37.12h-3.68L941.85,736.7h2v43.92Z" transform="translate(-20.09)"></path><path class="cls-1" d="M112.33,876.62v-56h6.56L144,862.94h-3.52l24.8-42.32h6.56l.08,56h-7.68l-.08-43.92H166l-22.08,37.12h-3.68L118,832.7h2v43.92Z" transform="translate(-20.09)"></path><path class="cls-1" d="M216.33,877.26q-11,0-17.36-6.32t-6.32-18.48V820.62h8v31.52q0,9.36,4.12,13.68t11.64,4.32q7.6,0,11.72-4.32t4.12-13.68V820.62H240v31.84q0,12.16-6.28,18.48T216.33,877.26Z" transform="translate(-20.09)"></path><path class="cls-1" d="M260.81,876.62v-56h8v56Z" transform="translate(-20.09)"></path><path class="cls-1" d="M301.13,876.62v-49h-19.2v-7h46.32v7h-19.2v49Z" transform="translate(-20.09)"></path><path class="cls-1" d="M365.85,877.26A32.08,32.08,0,0,1,354,875.1a28.42,28.42,0,0,1-9.48-6,27.78,27.78,0,0,1-6.24-9.08,29.93,29.93,0,0,1,0-22.72,27.78,27.78,0,0,1,6.24-9.08,28.45,28.45,0,0,1,9.44-6A32,32,0,0,1,365.85,820a32.4,32.4,0,0,1,11.84,2.12,27.88,27.88,0,0,1,9.44,6,27.33,27.33,0,0,1,6.2,9.12,30.74,30.74,0,0,1,0,22.84,27.37,27.37,0,0,1-6.2,9.08,27.88,27.88,0,0,1-9.44,6A32.4,32.4,0,0,1,365.85,877.26Zm0-7.12a22.69,22.69,0,0,0,8.6-1.6,20.48,20.48,0,0,0,6.88-4.52,21,21,0,0,0,4.56-6.84,22,22,0,0,0,1.64-8.56,21.75,21.75,0,0,0-1.64-8.52,21.46,21.46,0,0,0-4.56-6.84,20.28,20.28,0,0,0-6.88-4.56,24.13,24.13,0,0,0-17.28,0,20.65,20.65,0,0,0-6.92,4.56,21.25,21.25,0,0,0-4.6,6.84,21.75,21.75,0,0,0-1.64,8.52,22,22,0,0,0,1.64,8.56,20.77,20.77,0,0,0,11.52,11.36A22.88,22.88,0,0,0,365.85,870.14Z" transform="translate(-20.09)"></path><path class="cls-1" d="M429.61,876.62l25.36-56h7.92l25.44,56h-8.4L457.29,825.1h3.2l-22.64,51.52Zm10.8-14,2.16-6.4h31.52l2.32,6.4Z" transform="translate(-20.09)"></path><path class="cls-1" d="M543.13,876.62l-24.64-56h8.64l22.64,51.68h-5l22.8-51.68h8l-24.56,56Z" transform="translate(-20.09)"></path><path class="cls-1" d="M595.13,869.66h32.64v7H587.13v-56h39.52v7H595.13Zm-.72-24.88h28.8v6.8h-28.8Z" transform="translate(-20.09)"></path><path class="cls-1" d="M645.13,876.62v-56H667a30.69,30.69,0,0,1,12.56,2.32,17.88,17.88,0,0,1,8,6.72,20.94,20.94,0,0,1,0,20.92,17.93,17.93,0,0,1-8,6.68A30.69,30.69,0,0,1,667,859.58H649.53l3.6-3.68v20.72Zm8-19.92-3.6-3.92h17.2q7.68,0,11.64-3.32t4-9.32q0-6-4-9.28t-11.64-3.28h-17.2l3.6-4Zm29.44,19.92L668.33,856.3h8.56l14.4,20.32Z" transform="translate(-20.09)"></path><path class="cls-1" d="M758.65,877.26a32.07,32.07,0,0,1-11.8-2.12,27.54,27.54,0,0,1-9.36-6,28.14,28.14,0,0,1-6.2-9.08,30.33,30.33,0,0,1,0-22.88,27.86,27.86,0,0,1,15.64-15.08,33.75,33.75,0,0,1,23.76.08A24.56,24.56,0,0,1,780,828.7l-5.2,5a20.86,20.86,0,0,0-7.2-5,22.42,22.42,0,0,0-8.56-1.64,23.49,23.49,0,0,0-8.76,1.6,21,21,0,0,0-7,4.48,20.07,20.07,0,0,0-4.6,6.84,23.37,23.37,0,0,0,0,17.2,20.07,20.07,0,0,0,4.6,6.84,21,21,0,0,0,7,4.48,23.49,23.49,0,0,0,8.76,1.6,22.42,22.42,0,0,0,8.56-1.64,20.45,20.45,0,0,0,7.2-5.08l5.2,5a24.87,24.87,0,0,1-9.32,6.56A31.63,31.63,0,0,1,758.65,877.26Z" transform="translate(-20.09)"></path><path class="cls-1" d="M819.92,877.26A32.16,32.16,0,0,1,808,875.1a28.28,28.28,0,0,1-9.47-6,27.78,27.78,0,0,1-6.24-9.08,29.8,29.8,0,0,1,0-22.72,27.78,27.78,0,0,1,6.24-9.08,28.4,28.4,0,0,1,9.43-6,34,34,0,0,1,23.76,0,27.79,27.79,0,0,1,9.44,6,27.36,27.36,0,0,1,6.21,9.12,30.74,30.74,0,0,1,0,22.84,27.4,27.4,0,0,1-6.21,9.08,27.79,27.79,0,0,1-9.44,6A32.36,32.36,0,0,1,819.92,877.26Zm0-7.12a22.74,22.74,0,0,0,8.61-1.6,20.58,20.58,0,0,0,6.88-4.52,21.16,21.16,0,0,0,4.55-6.84,21.84,21.84,0,0,0,1.65-8.56,21.49,21.49,0,0,0-6.2-15.36,20.38,20.38,0,0,0-6.88-4.56,24.15,24.15,0,0,0-17.29,0,20.7,20.7,0,0,0-6.91,4.56,21.09,21.09,0,0,0-4.6,6.84,21.57,21.57,0,0,0-1.65,8.52,21.84,21.84,0,0,0,1.65,8.56,20.67,20.67,0,0,0,4.6,6.84,20.91,20.91,0,0,0,6.91,4.52A22.92,22.92,0,0,0,819.92,870.14Z" transform="translate(-20.09)"></path><path class="cls-1" d="M866.24,876.62v-56h6.56l25.12,42.32H894.4l24.8-42.32h6.56l.08,56h-7.68l-.08-43.92h1.84l-22.08,37.12h-3.68L871.92,832.7h2v43.92Z" transform="translate(-20.09)"></path><path class="cls-1" d="M998.24,877.26a32.08,32.08,0,0,1-11.88-2.16,28.42,28.42,0,0,1-9.48-6,27.78,27.78,0,0,1-6.24-9.08,29.93,29.93,0,0,1,0-22.72,27.78,27.78,0,0,1,6.24-9.08,28.55,28.55,0,0,1,9.44-6A32,32,0,0,1,998.24,820a32.4,32.4,0,0,1,11.84,2.12,27.79,27.79,0,0,1,9.44,6,27.33,27.33,0,0,1,6.2,9.12,30.74,30.74,0,0,1,0,22.84,27.37,27.37,0,0,1-6.2,9.08,27.79,27.79,0,0,1-9.44,6A32.4,32.4,0,0,1,998.24,877.26Zm0-7.12a22.69,22.69,0,0,0,8.6-1.6,20.38,20.38,0,0,0,6.88-4.52,21,21,0,0,0,4.56-6.84,22,22,0,0,0,1.64-8.56,21.75,21.75,0,0,0-1.64-8.52,21.46,21.46,0,0,0-4.56-6.84,20.19,20.19,0,0,0-6.88-4.56,24.13,24.13,0,0,0-17.28,0,20.75,20.75,0,0,0-6.92,4.56,21.25,21.25,0,0,0-4.6,6.84,21.75,21.75,0,0,0-1.64,8.52,22,22,0,0,0,1.64,8.56,20.77,20.77,0,0,0,11.52,11.36A22.88,22.88,0,0,0,998.24,870.14Z" transform="translate(-20.09)"></path><path class="cls-1" d="M42.53,972.62v-56h6.56l25.12,42.32H70.69l24.8-42.32h6.56l.08,56H94.45l-.08-43.92h1.84L74.13,965.82H70.45L48.21,928.7h2v43.92Z" transform="translate(-20.09)"></path><path class="cls-1" d="M148.61,973.26a32.16,32.16,0,0,1-11.88-2.16,28.42,28.42,0,0,1-9.48-6A27.78,27.78,0,0,1,121,956a29.93,29.93,0,0,1,0-22.72,27.78,27.78,0,0,1,6.24-9.08,28.45,28.45,0,0,1,9.44-6A32,32,0,0,1,148.61,916a32.36,32.36,0,0,1,11.84,2.12,27.88,27.88,0,0,1,9.44,6,27.33,27.33,0,0,1,6.2,9.12,30.74,30.74,0,0,1,0,22.84,27.37,27.37,0,0,1-6.2,9.08,27.88,27.88,0,0,1-9.44,6A32.36,32.36,0,0,1,148.61,973.26Zm0-7.12a22.69,22.69,0,0,0,8.6-1.6,20.48,20.48,0,0,0,6.88-4.52,21,21,0,0,0,4.56-6.84,22,22,0,0,0,1.64-8.56,21.75,21.75,0,0,0-1.64-8.52,21.46,21.46,0,0,0-4.56-6.84,20.28,20.28,0,0,0-6.88-4.56,22.69,22.69,0,0,0-8.6-1.6,22.92,22.92,0,0,0-8.68,1.6,20.75,20.75,0,0,0-6.92,4.56,21.25,21.25,0,0,0-4.6,6.84,21.75,21.75,0,0,0-1.64,8.52,22,22,0,0,0,1.64,8.56,20.77,20.77,0,0,0,11.52,11.36A22.92,22.92,0,0,0,148.61,966.14Z" transform="translate(-20.09)"></path><path class="cls-1" d="M220.21,973.26a32.08,32.08,0,0,1-11.88-2.16,28.42,28.42,0,0,1-9.48-6,27.78,27.78,0,0,1-6.24-9.08,29.93,29.93,0,0,1,0-22.72,27.78,27.78,0,0,1,6.24-9.08,28.45,28.45,0,0,1,9.44-6A32,32,0,0,1,220.21,916a32.4,32.4,0,0,1,11.84,2.12,27.88,27.88,0,0,1,9.44,6,27.33,27.33,0,0,1,6.2,9.12,30.74,30.74,0,0,1,0,22.84,27.37,27.37,0,0,1-6.2,9.08,27.88,27.88,0,0,1-9.44,6A32.4,32.4,0,0,1,220.21,973.26Zm0-7.12a22.69,22.69,0,0,0,8.6-1.6,20.48,20.48,0,0,0,6.88-4.52,21,21,0,0,0,4.56-6.84,22,22,0,0,0,1.64-8.56,21.75,21.75,0,0,0-1.64-8.52,21.46,21.46,0,0,0-4.56-6.84,20.28,20.28,0,0,0-6.88-4.56,24.13,24.13,0,0,0-17.28,0,20.65,20.65,0,0,0-6.92,4.56,21.25,21.25,0,0,0-4.6,6.84,21.75,21.75,0,0,0-1.64,8.52,22,22,0,0,0,1.64,8.56,20.77,20.77,0,0,0,11.52,11.36A22.88,22.88,0,0,0,220.21,966.14Z" transform="translate(-20.09)"></path><path class="cls-1" d="M266.53,972.62v-56h23.6a34,34,0,0,1,15.8,3.52A26,26,0,0,1,316.57,930a30.1,30.1,0,0,1,0,29.28,26,26,0,0,1-10.64,9.84,34,34,0,0,1-15.8,3.52Zm8-7h15.12a25.8,25.8,0,0,0,12-2.64,19.22,19.22,0,0,0,7.88-7.4,23.09,23.09,0,0,0,0-22,19.26,19.26,0,0,0-7.88-7.36,25.8,25.8,0,0,0-12-2.64H274.53Z" transform="translate(-20.09)"></path><path class="cls-1" d="M362.93,972.62v-56h23.6a34,34,0,0,1,15.8,3.52A26,26,0,0,1,413,930a30.1,30.1,0,0,1,0,29.28,26,26,0,0,1-10.64,9.84,34,34,0,0,1-15.8,3.52Zm8-7h15.12a25.8,25.8,0,0,0,12-2.64,19.22,19.22,0,0,0,7.88-7.4,23.09,23.09,0,0,0,0-22,19.26,19.26,0,0,0-7.88-7.36,25.8,25.8,0,0,0-12-2.64H370.93Z" transform="translate(-20.09)"></path><path class="cls-1" d="M458.69,973.26a32.08,32.08,0,0,1-11.88-2.16,28.42,28.42,0,0,1-9.48-6,27.78,27.78,0,0,1-6.24-9.08,29.93,29.93,0,0,1,0-22.72,27.78,27.78,0,0,1,6.24-9.08,28.45,28.45,0,0,1,9.44-6A32,32,0,0,1,458.69,916a32.4,32.4,0,0,1,11.84,2.12,27.88,27.88,0,0,1,9.44,6,27.33,27.33,0,0,1,6.2,9.12,30.74,30.74,0,0,1,0,22.84,27.37,27.37,0,0,1-6.2,9.08,27.88,27.88,0,0,1-9.44,6A32.4,32.4,0,0,1,458.69,973.26Zm0-7.12a22.69,22.69,0,0,0,8.6-1.6,20.48,20.48,0,0,0,6.88-4.52,21,21,0,0,0,4.56-6.84,22,22,0,0,0,1.64-8.56,21.75,21.75,0,0,0-1.64-8.52,21.46,21.46,0,0,0-4.56-6.84,20.28,20.28,0,0,0-6.88-4.56,24.13,24.13,0,0,0-17.28,0,20.65,20.65,0,0,0-6.92,4.56,21.25,21.25,0,0,0-4.6,6.84,21.75,21.75,0,0,0-1.64,8.52,22,22,0,0,0,1.64,8.56A20.77,20.77,0,0,0,450,964.54,22.88,22.88,0,0,0,458.69,966.14Z" transform="translate(-20.09)"></path><path class="cls-1" d="M530.93,972.62v-56h23.6a34,34,0,0,1,15.8,3.52A26,26,0,0,1,581,930a30.1,30.1,0,0,1,0,29.28,26,26,0,0,1-10.64,9.84,34,34,0,0,1-15.8,3.52Zm8-7h15.12a25.8,25.8,0,0,0,12-2.64,19.22,19.22,0,0,0,7.88-7.4,23.09,23.09,0,0,0,0-22,19.26,19.26,0,0,0-7.88-7.36,25.8,25.8,0,0,0-12-2.64H538.93Z" transform="translate(-20.09)"></path><path class="cls-1" d="M601.41,972.62v-56h8v56Z" transform="translate(-20.09)"></path><path class="cls-1" d="M622.13,972.62l25.36-56h7.92l25.44,56h-8.4L649.81,921.1H653l-22.64,51.52Zm10.8-14,2.16-6.4h31.52l2.32,6.4Z" transform="translate(-20.09)"></path><path class="cls-1" d="M727.49,965.66h32.64v7H719.49v-56H759v7H727.49Zm-.72-24.88h28.8v6.8h-28.8Z" transform="translate(-20.09)"></path><path class="cls-1" d="M828.45,973.26a32.07,32.07,0,0,1-11.8-2.12,27.54,27.54,0,0,1-9.36-6,28.14,28.14,0,0,1-6.2-9.08,30.33,30.33,0,0,1,0-22.88,27.86,27.86,0,0,1,15.64-15.08,33.75,33.75,0,0,1,23.76.08,24.56,24.56,0,0,1,9.32,6.52l-5.2,5a20.86,20.86,0,0,0-7.2-5,22.42,22.42,0,0,0-8.56-1.64,23.49,23.49,0,0,0-8.76,1.6,21,21,0,0,0-7,4.48,20.07,20.07,0,0,0-4.6,6.84,23.37,23.37,0,0,0,0,17.2,20.07,20.07,0,0,0,4.6,6.84,21,21,0,0,0,7,4.48,23.49,23.49,0,0,0,8.76,1.6,22.42,22.42,0,0,0,8.56-1.64,20.45,20.45,0,0,0,7.2-5.08l5.2,5a24.87,24.87,0,0,1-9.32,6.56A31.63,31.63,0,0,1,828.45,973.26Z" transform="translate(-20.09)"></path><path class="cls-1" d="M889.73,973.26a32.08,32.08,0,0,1-11.88-2.16,28.22,28.22,0,0,1-9.48-6,27.78,27.78,0,0,1-6.24-9.08,29.93,29.93,0,0,1,0-22.72,27.78,27.78,0,0,1,6.24-9.08,28.34,28.34,0,0,1,9.44-6A32,32,0,0,1,889.73,916a32.44,32.44,0,0,1,11.84,2.12,28,28,0,0,1,9.44,6,27.48,27.48,0,0,1,6.2,9.12,30.74,30.74,0,0,1,0,22.84,27.52,27.52,0,0,1-6.2,9.08,28,28,0,0,1-9.44,6A32.44,32.44,0,0,1,889.73,973.26Zm0-7.12a22.69,22.69,0,0,0,8.6-1.6,20.48,20.48,0,0,0,6.88-4.52,21.35,21.35,0,0,0,4.56-6.84,22,22,0,0,0,1.64-8.56,21.38,21.38,0,0,0-6.2-15.36,20.28,20.28,0,0,0-6.88-4.56,24.13,24.13,0,0,0-17.28,0,20.65,20.65,0,0,0-6.92,4.56,21.09,21.09,0,0,0-4.6,6.84,21.57,21.57,0,0,0-1.64,8.52,21.84,21.84,0,0,0,1.64,8.56,20.77,20.77,0,0,0,11.52,11.36A22.88,22.88,0,0,0,889.73,966.14Z" transform="translate(-20.09)"></path><path class="cls-1" d="M936.05,972.62v-56h6.56l25.12,42.32H964.2L989,916.62h6.56l.08,56H988l-.08-43.92h1.84l-22.08,37.12H964L941.73,928.7h2v43.92Z" transform="translate(-20.09)"></path><path class="cls-1" d="M1068,973.26a32.16,32.16,0,0,1-11.88-2.16,28.42,28.42,0,0,1-9.48-6,28.09,28.09,0,0,1-6.24-9.08,29.93,29.93,0,0,1,0-22.72,28.09,28.09,0,0,1,6.24-9.08,28.55,28.55,0,0,1,9.44-6A32,32,0,0,1,1068,916a32.36,32.36,0,0,1,11.84,2.12,27.79,27.79,0,0,1,9.44,6,27.19,27.19,0,0,1,6.2,9.12,30.74,30.74,0,0,1,0,22.84,27.22,27.22,0,0,1-6.2,9.08,27.79,27.79,0,0,1-9.44,6A32.36,32.36,0,0,1,1068,973.26Zm0-7.12a22.65,22.65,0,0,0,8.6-1.6,20.38,20.38,0,0,0,6.88-4.52,21,21,0,0,0,4.56-6.84,21.84,21.84,0,0,0,1.64-8.56,21.38,21.38,0,0,0-6.2-15.36,20.19,20.19,0,0,0-6.88-4.56,22.65,22.65,0,0,0-8.6-1.6,22.92,22.92,0,0,0-8.68,1.6,20.75,20.75,0,0,0-6.92,4.56,21.41,21.41,0,0,0-4.6,6.84,21.75,21.75,0,0,0-1.64,8.52,22,22,0,0,0,1.64,8.56,20.77,20.77,0,0,0,11.52,11.36A22.92,22.92,0,0,0,1068,966.14Z" transform="translate(-20.09)"></path><path class="cls-1" d="M153.37,1069.26a32.16,32.16,0,0,1-11.88-2.16,28.42,28.42,0,0,1-9.48-6,28.09,28.09,0,0,1-6.24-9.08,29.93,29.93,0,0,1,0-22.72,28.09,28.09,0,0,1,6.24-9.08,28.55,28.55,0,0,1,9.44-6,32,32,0,0,1,11.92-2.16,32.36,32.36,0,0,1,11.84,2.12,27.79,27.79,0,0,1,9.44,6,27.19,27.19,0,0,1,6.2,9.12,30.74,30.74,0,0,1,0,22.84,27.22,27.22,0,0,1-6.2,9.08,27.79,27.79,0,0,1-9.44,6A32.36,32.36,0,0,1,153.37,1069.26Zm0-7.12a22.65,22.65,0,0,0,8.6-1.6,20.19,20.19,0,0,0,6.88-4.56,21.56,21.56,0,0,0,6.2-15.36,21.84,21.84,0,0,0-1.64-8.56,21,21,0,0,0-4.56-6.84,20.38,20.38,0,0,0-6.88-4.52,22.65,22.65,0,0,0-8.6-1.6,22.92,22.92,0,0,0-8.68,1.6,20.77,20.77,0,0,0-11.52,11.36,22,22,0,0,0-1.64,8.56,21.8,21.8,0,0,0,1.64,8.48,21.36,21.36,0,0,0,4.6,6.88,20.75,20.75,0,0,0,6.92,4.56A22.92,22.92,0,0,0,153.37,1062.14Zm18.32,18.16a20.13,20.13,0,0,1-10.48-2.84,35.64,35.64,0,0,1-5.28-3.84,80.49,80.49,0,0,1-5.92-5.8l8.56-2.24a37.56,37.56,0,0,0,4.6,4.84,15.51,15.51,0,0,0,4.36,2.72,11.84,11.84,0,0,0,4.32.84,13.09,13.09,0,0,0,10.16-4.8l3.76,4.56A17.44,17.44,0,0,1,171.69,1080.3Z" transform="translate(-20.09)"></path><path class="cls-1" d="M222.89,1069.26q-11,0-17.36-6.32t-6.32-18.48v-31.84h8v31.52q0,9.36,4.12,13.68t11.64,4.32q7.6,0,11.72-4.32t4.12-13.68v-31.52h7.76v31.84q0,12.16-6.28,18.48T222.89,1069.26Z" transform="translate(-20.09)"></path><path class="cls-1" d="M275.37,1061.66H308v7H267.37v-56h39.52v7H275.37Zm-.72-24.88h28.8v6.8h-28.8Z" transform="translate(-20.09)"></path><path class="cls-1" d="M342.81,1068.62l25.36-56h7.92l25.44,56h-8.4l-22.64-51.52h3.2l-22.64,51.52Zm10.8-14,2.16-6.4h31.52l2.32,6.4Z" transform="translate(-20.09)"></path><path class="cls-1" d="M465.45,1069.26a32.64,32.64,0,0,1-11.92-2.12,27.77,27.77,0,0,1-15.68-15.08,30.33,30.33,0,0,1,0-22.88,27.59,27.59,0,0,1,6.28-9.08,28.25,28.25,0,0,1,9.48-6,35.17,35.17,0,0,1,24.16,0,24.06,24.06,0,0,1,9.36,6.48l-5,5a22.07,22.07,0,0,0-7.48-4.92,24.09,24.09,0,0,0-8.76-1.56,24.37,24.37,0,0,0-8.92,1.6,21.29,21.29,0,0,0-7.12,4.48,19.89,19.89,0,0,0-4.64,6.84,23.16,23.16,0,0,0,0,17.12,20.34,20.34,0,0,0,4.64,6.88,21,21,0,0,0,7.08,4.52,24,24,0,0,0,8.88,1.6,26.64,26.64,0,0,0,8.6-1.4,21.08,21.08,0,0,0,7.64-4.68l4.56,6.08a28.29,28.29,0,0,1-9.72,5.32A37,37,0,0,1,465.45,1069.26ZM479,1061.1v-20.8h7.68v21.84Z" transform="translate(-20.09)"></path><path class="cls-1" d="M514.33,1061.66H547v7H506.33v-56h39.52v7H514.33Zm-.72-24.88h28.8v6.8h-28.8Z" transform="translate(-20.09)"></path><path class="cls-1" d="M564.33,1068.62v-56h6.56l37,46h-3.44v-46h8v56h-6.56l-37-46h3.44v46Z" transform="translate(-20.09)"></path><path class="cls-1" d="M644.81,1068.62v-49h-19.2v-7h46.32v7h-19.2v49Z" transform="translate(-20.09)"></path><path class="cls-1" d="M693.05,1061.66h32.64v7H685.05v-56h39.52v7H693.05Zm-.72-24.88h28.8v6.8h-28.8Z" transform="translate(-20.09)"></path><path class="cls-1" d="M794.25,1069.26a32.08,32.08,0,0,1-11.88-2.16,28.22,28.22,0,0,1-9.48-6,27.78,27.78,0,0,1-6.24-9.08,29.93,29.93,0,0,1,0-22.72,27.78,27.78,0,0,1,6.24-9.08,28.34,28.34,0,0,1,9.44-6,32,32,0,0,1,11.92-2.16,32.44,32.44,0,0,1,11.84,2.12,28,28,0,0,1,9.44,6,27.48,27.48,0,0,1,6.2,9.12,30.74,30.74,0,0,1,0,22.84,27.52,27.52,0,0,1-6.2,9.08,28,28,0,0,1-9.44,6A32.44,32.44,0,0,1,794.25,1069.26Zm0-7.12a22.69,22.69,0,0,0,8.6-1.6,20.28,20.28,0,0,0,6.88-4.56,21.56,21.56,0,0,0,6.2-15.36,22,22,0,0,0-1.64-8.56,21.35,21.35,0,0,0-4.56-6.84,20.48,20.48,0,0,0-6.88-4.52,24.13,24.13,0,0,0-17.28,0,20.77,20.77,0,0,0-11.52,11.36,21.84,21.84,0,0,0-1.64,8.56,21.62,21.62,0,0,0,1.64,8.48,21,21,0,0,0,4.6,6.88,20.65,20.65,0,0,0,6.92,4.56A22.88,22.88,0,0,0,794.25,1062.14Zm18.32,18.16a20.88,20.88,0,0,1-5.36-.68,20.61,20.61,0,0,1-5.12-2.16,34.63,34.63,0,0,1-5.28-3.84,76.72,76.72,0,0,1-5.92-5.8l8.56-2.24a36.89,36.89,0,0,0,4.6,4.84,15.37,15.37,0,0,0,4.36,2.72,11.84,11.84,0,0,0,4.32.84,13.12,13.12,0,0,0,10.16-4.8l3.76,4.56A17.46,17.46,0,0,1,812.57,1080.3Z" transform="translate(-20.09)"></path><path class="cls-1" d="M863.77,1069.26q-11,0-17.36-6.32t-6.32-18.48v-31.84h8v31.52q0,9.36,4.12,13.68t11.64,4.32q7.59,0,11.72-4.32t4.12-13.68v-31.52h7.76v31.84q0,12.16-6.28,18.48T863.77,1069.26Z" transform="translate(-20.09)"></path><path class="cls-1" d="M916.25,1061.66h32.64v7H908.25v-56h39.52v7H916.25Zm-.72-24.88h28.8v6.8h-28.8Z" transform="translate(-20.09)"></path><path class="cls-1" d="M966.25,1068.62v-56h21.84a30.69,30.69,0,0,1,12.56,2.32,17.88,17.88,0,0,1,8,6.72,20.94,20.94,0,0,1,0,20.92,17.93,17.93,0,0,1-8,6.68,30.69,30.69,0,0,1-12.56,2.32H970.65l3.6-3.68v20.72Zm8-19.92-3.6-3.92h17.2q7.68,0,11.64-3.32t4-9.32q0-6-4-9.28t-11.64-3.28h-17.2l3.6-4Zm29.44,19.92-14.24-20.32H998l14.4,20.32Z" transform="translate(-20.09)"></path><path class="cls-1" d="M331.77,1165.26q-11,0-17.36-6.32t-6.32-18.48v-31.84h8v31.52q0,9.36,4.12,13.68t11.64,4.32q7.61,0,11.72-4.32t4.12-13.68v-31.52h7.76v31.84q0,12.16-6.28,18.48T331.77,1165.26Z" transform="translate(-20.09)"></path><path class="cls-1" d="M392.57,1165.26a38.09,38.09,0,0,1-12.24-2,25.15,25.15,0,0,1-9.2-5.08l3-6.24a25.91,25.91,0,0,0,8.16,4.64,29.39,29.39,0,0,0,10.32,1.84,23.27,23.27,0,0,0,7.92-1.12,9.37,9.37,0,0,0,4.48-3.08,7.32,7.32,0,0,0,1.44-4.44,6.07,6.07,0,0,0-1.88-4.64,14,14,0,0,0-4.88-2.84,53.69,53.69,0,0,0-6.6-1.88q-3.6-.8-7.24-1.88a32.33,32.33,0,0,1-6.64-2.76,13.64,13.64,0,0,1-4.84-4.52,13.2,13.2,0,0,1-1.84-7.32,14.71,14.71,0,0,1,2.28-8,15.85,15.85,0,0,1,7-5.84,28.89,28.89,0,0,1,12.12-2.2,37.58,37.58,0,0,1,9.68,1.28,26.94,26.94,0,0,1,8.32,3.68l-2.64,6.4a25.69,25.69,0,0,0-7.6-3.48,29.72,29.72,0,0,0-7.76-1.08,21.36,21.36,0,0,0-7.76,1.2,9.45,9.45,0,0,0-4.44,3.2,7.65,7.65,0,0,0-1.4,4.48,6.17,6.17,0,0,0,1.88,4.72,13.47,13.47,0,0,0,4.88,2.8,66.86,66.86,0,0,0,6.6,1.88q3.6.84,7.24,1.88a30.68,30.68,0,0,1,6.64,2.72,13.71,13.71,0,0,1,4.84,4.48,12.87,12.87,0,0,1,1.84,7.2,14.36,14.36,0,0,1-2.32,7.88,16,16,0,0,1-7.16,5.84A29.48,29.48,0,0,1,392.57,1165.26Z" transform="translate(-20.09)"></path><path class="cls-1" d="M421.85,1164.62l25.36-56h7.92l25.44,56h-8.4l-22.64-51.52h3.2l-22.64,51.52Zm10.8-14,2.16-6.4h31.52l2.32,6.4Z" transform="translate(-20.09)"></path><path class="cls-1" d="M493.29,1164.62v-56h21.84a30.65,30.65,0,0,1,12.56,2.32,17.83,17.83,0,0,1,8,6.72,20.94,20.94,0,0,1,0,20.92,17.87,17.87,0,0,1-8,6.68,30.65,30.65,0,0,1-12.56,2.32H497.69l3.6-3.68v20.72Zm8-19.92-3.6-3.92h17.2q7.68,0,11.64-3.32t4-9.32q0-6-4-9.28t-11.64-3.28h-17.2l3.6-4Zm29.44,19.92-14.24-20.32h8.56l14.4,20.32Z" transform="translate(-20.09)"></path><path class="cls-1" d="M589.77,1164.62h-8v-56h8Zm32.88-25H589v-7h33.68Zm-.72-31h8v56h-8Z" transform="translate(-20.09)"></path><path class="cls-1" d="M676.41,1165.26a32.08,32.08,0,0,1-11.88-2.16,28.22,28.22,0,0,1-9.48-6,27.78,27.78,0,0,1-6.24-9.08,29.93,29.93,0,0,1,0-22.72,27.78,27.78,0,0,1,6.24-9.08,28.34,28.34,0,0,1,9.44-6,32,32,0,0,1,11.92-2.16,32.44,32.44,0,0,1,11.84,2.12,28,28,0,0,1,9.44,6,27.48,27.48,0,0,1,6.2,9.12,30.74,30.74,0,0,1,0,22.84,27.52,27.52,0,0,1-6.2,9.08,28,28,0,0,1-9.44,6A32.44,32.44,0,0,1,676.41,1165.26Zm0-7.12a22.69,22.69,0,0,0,8.6-1.6,20.48,20.48,0,0,0,6.88-4.52,21.35,21.35,0,0,0,4.56-6.84,22,22,0,0,0,1.64-8.56,21.38,21.38,0,0,0-6.2-15.36,20.28,20.28,0,0,0-6.88-4.56,24.13,24.13,0,0,0-17.28,0,20.65,20.65,0,0,0-6.92,4.56,21.09,21.09,0,0,0-4.6,6.84,21.75,21.75,0,0,0-1.64,8.52,22,22,0,0,0,1.64,8.56,20.77,20.77,0,0,0,11.52,11.36A22.88,22.88,0,0,0,676.41,1158.14Z" transform="translate(-20.09)"></path><path class="cls-1" d="M728.73,1165.26a21.06,21.06,0,0,1-9.28-2.08,17.88,17.88,0,0,1-7-6l4.64-5.44a17.47,17.47,0,0,0,5.24,4.92,12.4,12.4,0,0,0,6.44,1.72q9.6,0,9.6-11.36v-31.44H718.09v-7h28.16v38q0,9.36-4.44,14T728.73,1165.26Z" transform="translate(-20.09)"></path><path class="cls-1" d="M775,1157.66h32.64v7H767v-56h39.52v7H775Zm-.72-24.88h28.8v6.8h-28.8Z" transform="translate(-20.09)"></path><path class="cls-1" d="M826.49,1165.1a5.41,5.41,0,0,1-5.45-5.52,5.16,5.16,0,0,1,1.61-3.92,5.37,5.37,0,0,1,3.84-1.52,5.15,5.15,0,0,1,3.71,1.52,5.24,5.24,0,0,1,1.57,3.92,5.37,5.37,0,0,1-1.57,4A5.07,5.07,0,0,1,826.49,1165.1Z" transform="translate(-20.09)"></path><rect class="cls-2" x="190.32" y="5.5" width="721.29" height="341.49"></rect><path class="cls-1" d="M276,157.76v-101h23.53L355.08,124H344V56.72h28v101H348.44L292.73,90.49h11.11v67.27Z" transform="translate(-20.09)"></path><path class="cls-1" d="M462.77,159.78a62.56,62.56,0,0,1-22.3-3.9,51.68,51.68,0,0,1-29.6-27.78,51.2,51.2,0,0,1-4.25-21,50.32,50.32,0,0,1,4.25-20.78,52.09,52.09,0,0,1,29.52-27.72,66.29,66.29,0,0,1,44.75,0,53.29,53.29,0,0,1,17.76,11,51.51,51.51,0,0,1,11.76,16.6,50.73,50.73,0,0,1,4.26,20.93,52.36,52.36,0,0,1-4.19,21.15A49.71,49.71,0,0,1,503,144.91a53.69,53.69,0,0,1-17.83,11A62.39,62.39,0,0,1,462.77,159.78Zm0-23.67a28.25,28.25,0,0,0,10.75-2,24.85,24.85,0,0,0,8.66-5.85,27.7,27.7,0,0,0,5.78-9.09,35,35,0,0,0,0-23.82,27.7,27.7,0,0,0-5.78-9.09,24.85,24.85,0,0,0-8.66-5.85,29.64,29.64,0,0,0-21.51,0,25.6,25.6,0,0,0-8.73,5.85,26.14,26.14,0,0,0-5.77,9.09,36.12,36.12,0,0,0,0,23.82,26.14,26.14,0,0,0,5.77,9.09,25.6,25.6,0,0,0,8.73,5.85A28.3,28.3,0,0,0,462.77,136.11Z" transform="translate(-20.09)"></path><path class="cls-1" d="M589.07,159.78a91.61,91.61,0,0,1-24-3.1q-11.47-3.1-18.55-7.87l9.38-21.22a66.22,66.22,0,0,0,15.66,7.15,58.49,58.49,0,0,0,17.69,2.81,36.06,36.06,0,0,0,9.6-1,10.62,10.62,0,0,0,5.19-2.89,6.5,6.5,0,0,0,1.66-4.47,6,6,0,0,0-3.17-5.27,31.93,31.93,0,0,0-8.3-3.32q-5.13-1.36-11.12-2.6a110,110,0,0,1-12.2-3.25,46.38,46.38,0,0,1-11.26-5.34,25.63,25.63,0,0,1-8.15-8.66q-3.11-5.34-3.1-13.42A28.75,28.75,0,0,1,553.27,71q4.9-7.37,14.87-11.84T593,54.7a86,86,0,0,1,19.56,2.23,57.92,57.92,0,0,1,17,6.71l-8.66,21.08a61.9,61.9,0,0,0-14.29-5.92,53.46,53.46,0,0,0-13.71-1.87,28.93,28.93,0,0,0-9.53,1.29,11.39,11.39,0,0,0-5.2,3.32,6.9,6.9,0,0,0-1.59,4.33,6.06,6.06,0,0,0,3.18,5.42,28.45,28.45,0,0,0,8.23,3.17q5,1.23,11.18,2.53a124.11,124.11,0,0,1,12.2,3.25,48.91,48.91,0,0,1,11.19,5.19,25.72,25.72,0,0,1,8.3,8.52q3.16,5.26,3.17,13.21a28.6,28.6,0,0,1-5,16.24q-5,7.42-14.94,11.91T589.07,159.78Z" transform="translate(-20.09)"></path><path class="cls-1" d="M702.1,159.78a91.63,91.63,0,0,1-24-3.1q-11.47-3.1-18.55-7.87l9.38-21.22a66.3,66.3,0,0,0,15.67,7.15,58.37,58.37,0,0,0,17.68,2.81,36.06,36.06,0,0,0,9.6-1,10.53,10.53,0,0,0,5.19-2.89,6.51,6.51,0,0,0,1.67-4.47,6,6,0,0,0-3.18-5.27,31.93,31.93,0,0,0-8.3-3.32q-5.13-1.36-11.12-2.6a109.29,109.29,0,0,1-12.19-3.25,46.21,46.21,0,0,1-11.26-5.34,25.56,25.56,0,0,1-8.16-8.66q-3.11-5.34-3.1-13.42A28.68,28.68,0,0,1,666.3,71q4.91-7.37,14.86-11.84T706,54.7a86,86,0,0,1,19.56,2.23,57.81,57.81,0,0,1,17,6.71l-8.66,21.08a61.73,61.73,0,0,0-14.29-5.92,53.41,53.41,0,0,0-13.71-1.87,29,29,0,0,0-9.53,1.29,11.39,11.39,0,0,0-5.2,3.32,6.89,6.89,0,0,0-1.58,4.33,6.05,6.05,0,0,0,3.17,5.42,28.57,28.57,0,0,0,8.23,3.17Q706,95.69,712.13,97a123.93,123.93,0,0,1,12.19,3.25,48.71,48.71,0,0,1,11.19,5.19,25.62,25.62,0,0,1,8.3,8.52q3.18,5.26,3.18,13.21a28.6,28.6,0,0,1-5,16.24q-5,7.42-14.94,11.91T702.1,159.78Z" transform="translate(-20.09)"></path><path class="cls-1" d="M830.56,159.78a62.56,62.56,0,0,1-22.3-3.9,51.63,51.63,0,0,1-29.59-27.78,51.2,51.2,0,0,1-4.26-21,50.32,50.32,0,0,1,4.26-20.78,52,52,0,0,1,29.52-27.72,66.29,66.29,0,0,1,44.75,0,53.15,53.15,0,0,1,17.75,11,51.54,51.54,0,0,1,11.77,16.6,50.88,50.88,0,0,1,4.25,20.93,52.36,52.36,0,0,1-4.18,21.15,49.59,49.59,0,0,1-11.77,16.67,53.64,53.64,0,0,1-17.82,11A62.45,62.45,0,0,1,830.56,159.78Zm0-23.67a28.3,28.3,0,0,0,10.76-2,25,25,0,0,0,8.66-5.85,27.67,27.67,0,0,0,5.77-9.09,34.82,34.82,0,0,0,0-23.82A27.67,27.67,0,0,0,850,86.24a25,25,0,0,0-8.66-5.85,29.64,29.64,0,0,0-21.51,0,25.6,25.6,0,0,0-8.73,5.85,26.17,26.17,0,0,0-5.78,9.09,36.12,36.12,0,0,0,0,23.82,26.17,26.17,0,0,0,5.78,9.09,25.6,25.6,0,0,0,8.73,5.85A28.25,28.25,0,0,0,830.56,136.11Z" transform="translate(-20.09)"></path><path class="cls-1" d="M298.43,271.53h52.83v22.23h-81v-101h79.1V215H298.43Zm-2-39.7h46.91v21.22H296.41Z" transform="translate(-20.09)"></path><path class="cls-1" d="M405.53,295.78a91.61,91.61,0,0,1-24-3.1Q370,289.58,363,284.81l9.38-21.22A66.3,66.3,0,0,0,388,270.74a58.37,58.37,0,0,0,17.68,2.81,36.06,36.06,0,0,0,9.6-1,10.58,10.58,0,0,0,5.19-2.89,6.5,6.5,0,0,0,1.66-4.47,6,6,0,0,0-3.17-5.27,31.93,31.93,0,0,0-8.3-3.32q-5.13-1.36-11.12-2.6a109.29,109.29,0,0,1-12.19-3.25,46,46,0,0,1-11.26-5.34,25.56,25.56,0,0,1-8.16-8.66q-3.1-5.34-3.1-13.42A28.68,28.68,0,0,1,369.74,207q4.9-7.37,14.86-11.84t24.83-4.47A86,86,0,0,1,429,192.93a57.92,57.92,0,0,1,17,6.71l-8.66,21.08A61.9,61.9,0,0,0,423,214.8a53.46,53.46,0,0,0-13.71-1.87,28.93,28.93,0,0,0-9.53,1.29,11.39,11.39,0,0,0-5.2,3.32,6.89,6.89,0,0,0-1.58,4.33,6.05,6.05,0,0,0,3.17,5.42,28.57,28.57,0,0,0,8.23,3.17c3.37.82,7.09,1.66,11.19,2.53a123.93,123.93,0,0,1,12.19,3.25A48.71,48.71,0,0,1,439,241.43a25.62,25.62,0,0,1,8.3,8.52q3.18,5.27,3.18,13.21a28.6,28.6,0,0,1-5,16.24q-5,7.43-14.94,11.91T405.53,295.78Z" transform="translate(-20.09)"></path><path class="cls-1" d="M486.37,293.76V215.38h-31V192.72h90.51v22.66H515v78.38Z" transform="translate(-20.09)"></path><path class="cls-1" d="M559.55,293.76v-101h28.58v101Z" transform="translate(-20.09)"></path><path class="cls-1" d="M611.37,293.76v-101H640V271.1H688v22.66Z" transform="translate(-20.09)"></path><path class="cls-1" d="M751.53,295.78a62.56,62.56,0,0,1-22.3-3.9,51.7,51.7,0,0,1-29.59-27.78,51.2,51.2,0,0,1-4.26-21,50.32,50.32,0,0,1,4.26-20.78,52.09,52.09,0,0,1,29.52-27.72,66.29,66.29,0,0,1,44.75,0,53.15,53.15,0,0,1,17.75,11,51.54,51.54,0,0,1,11.77,16.6,50.89,50.89,0,0,1,4.26,20.93,52.36,52.36,0,0,1-4.19,21.15,49.71,49.71,0,0,1-11.76,16.67,53.79,53.79,0,0,1-17.83,11A62.45,62.45,0,0,1,751.53,295.78Zm0-23.67a28.3,28.3,0,0,0,10.76-2,25,25,0,0,0,8.66-5.85,27.67,27.67,0,0,0,5.77-9.09,34.82,34.82,0,0,0,0-23.82,27.67,27.67,0,0,0-5.77-9.09,25,25,0,0,0-8.66-5.85,29.64,29.64,0,0,0-21.51,0,25.6,25.6,0,0,0-8.73,5.85,26.17,26.17,0,0,0-5.78,9.09,36.12,36.12,0,0,0,0,23.82,26.17,26.17,0,0,0,5.78,9.09,25.6,25.6,0,0,0,8.73,5.85A28.25,28.25,0,0,0,751.53,272.11Z" transform="translate(-20.09)"></path><path class="cls-1" d="M841.75,257a21.52,21.52,0,0,1,1.52-8.37,28.67,28.67,0,0,1,3.82-6.57,45.12,45.12,0,0,1,5-5.41q2.67-2.46,5-4.62a23.56,23.56,0,0,0,3.83-4.55,9.15,9.15,0,0,0,1.51-5,7.87,7.87,0,0,0-3.53-6.71,15.47,15.47,0,0,0-9.17-2.53A20.3,20.3,0,0,0,839.23,216a21.35,21.35,0,0,0-7.58,7.5l-21.51-11.4a42.57,42.57,0,0,1,16.31-15.52q10.53-5.85,26.71-5.84a57.2,57.2,0,0,1,19.63,3.1A30,30,0,0,1,886.21,203a22.86,22.86,0,0,1,4.91,14.86,26.67,26.67,0,0,1-1.66,9.82A24.78,24.78,0,0,1,885,235a79.37,79.37,0,0,1-5.7,5.85q-2.88,2.67-5.7,5.12a23.61,23.61,0,0,0-4.47,5.05,10.76,10.76,0,0,0-1.66,5.92Zm12.85,38.11a16,16,0,0,1-11.77-4.48,14.45,14.45,0,0,1-4.54-10.68,14,14,0,0,1,4.54-10.61A16.57,16.57,0,0,1,854.6,265c4.91,0,8.88,1.43,11.91,4.26a14,14,0,0,1,4.54,10.61,14.45,14.45,0,0,1-4.54,10.68Q862,295.07,854.6,295.06Z" transform="translate(-20.09)"></path></g></g></g></svg>