<svg xmlns="http://www.w3.org/2000/svg" viewBox="0 0 2721.8 1159.81"><defs><style>.cls-1{fill:#f7f7f8;}.cls-2{fill:none;stroke:#717175;stroke-miterlimit:10;stroke-width:11px;opacity:0.2;}</style></defs><title>6</title><g id="Camada_2" data-name="Camada 2"><g id="Camada_2-2" data-name="Camada 2"><path class="cls-1" d="M202.91,524.5H190.07V434.58h12.84Zm52.8-40.08H201.63V473.24h54.08Zm-1.16-49.84h12.84V524.5H254.55Z"></path><path class="cls-1" d="M342,525.52A51.55,51.55,0,0,1,323,522.06a45.72,45.72,0,0,1-15.22-9.7,44.77,44.77,0,0,1-10-14.58,48,48,0,0,1,0-36.48,44.77,44.77,0,0,1,10-14.58,45.71,45.71,0,0,1,15.16-9.7A51.42,51.42,0,0,1,342,433.55,52,52,0,0,1,361,437a45,45,0,0,1,15.15,9.63,44,44,0,0,1,10,14.64,49.41,49.41,0,0,1,0,36.68,44.1,44.1,0,0,1-10,14.58A45,45,0,0,1,361,522.12,52,52,0,0,1,342,525.52Zm0-11.43a36.38,36.38,0,0,0,13.81-2.57,32.9,32.9,0,0,0,11.05-7.25,33.85,33.85,0,0,0,7.32-11,35.12,35.12,0,0,0,2.63-13.74,34.3,34.3,0,0,0-9.95-24.66,32.51,32.51,0,0,0-11.05-7.33,38.85,38.85,0,0,0-27.74,0A33.05,33.05,0,0,0,317,454.88a34.17,34.17,0,0,0-7.39,11A34.68,34.68,0,0,0,307,479.54a35.12,35.12,0,0,0,2.63,13.74,33.31,33.31,0,0,0,18.5,18.24A36.7,36.7,0,0,0,342,514.09Z"></path><path class="cls-1" d="M426,525.52a33.83,33.83,0,0,1-14.9-3.34,28.58,28.58,0,0,1-11.3-9.63l7.45-8.73a28.05,28.05,0,0,0,8.41,7.9A20,20,0,0,0,426,514.48q15.42,0,15.41-18.24V445.76H409V434.58h45.21v61q0,15-7.13,22.47T426,525.52Z"></path><path class="cls-1" d="M500.27,513.32h52.41V524.5H487.43V434.58h63.45v11.18H500.27Zm-1.15-40h46.24v10.92H499.12Z"></path><path class="cls-1" d="M662.76,525.52a52.31,52.31,0,0,1-19.14-3.4,44.58,44.58,0,0,1-25.17-24.21,48.67,48.67,0,0,1,0-36.74,44.13,44.13,0,0,1,10.08-14.58A45.67,45.67,0,0,1,643.75,437a56.4,56.4,0,0,1,38.79.06,38.55,38.55,0,0,1,15,10.41l-8,8a35.41,35.41,0,0,0-12-7.9,38.77,38.77,0,0,0-14.07-2.5,39.26,39.26,0,0,0-14.32,2.56,34.15,34.15,0,0,0-11.43,7.2,31.91,31.91,0,0,0-7.45,11,37.1,37.1,0,0,0,0,27.49,32.67,32.67,0,0,0,7.45,11,33.78,33.78,0,0,0,11.37,7.25,38.53,38.53,0,0,0,14.25,2.57,42.58,42.58,0,0,0,13.81-2.25,33.9,33.9,0,0,0,12.27-7.51l7.32,9.76a45.38,45.38,0,0,1-15.61,8.54A59.34,59.34,0,0,1,662.76,525.52Zm21.71-13.1V479H696.8v35.07Z"></path><path class="cls-1" d="M728.4,524.5V434.58h35.07q11.81,0,20.16,3.73a28.54,28.54,0,0,1,12.85,10.79,33.66,33.66,0,0,1,0,33.59,28.72,28.72,0,0,1-12.85,10.72q-8.34,3.73-20.16,3.73h-28l5.78-5.91V524.5Zm12.84-32-5.78-6.29h27.62q12.33,0,18.69-5.33t6.36-15q0-9.63-6.36-14.9t-18.69-5.26H735.46l5.78-6.43Zm47.27,32-22.86-32.63h13.74l23.13,32.63Z"></path><path class="cls-1" d="M866.1,525.52q-17.73,0-27.88-10.14T828.08,485.7V434.58h12.84v50.61q0,15,6.62,22t18.69,6.93q12.19,0,18.81-6.93t6.62-22V434.58h12.46V485.7q0,19.53-10.08,29.68T866.1,525.52Z"></path><path class="cls-1" d="M937.51,524.5V434.58h10.54l59.47,73.86H1002V434.58h12.84V524.5h-10.53l-59.47-73.86h5.52V524.5Z"></path><path class="cls-1" d="M1089.47,525.52a52.24,52.24,0,0,1-19.14-3.4,44.56,44.56,0,0,1-25.18-24.21,48.79,48.79,0,0,1,0-36.74,44.31,44.31,0,0,1,10.09-14.58,45.67,45.67,0,0,1,15.22-9.63,52.6,52.6,0,0,1,19.27-3.41,53.2,53.2,0,0,1,19.52,3.47,38.55,38.55,0,0,1,15,10.41l-8,8a35.51,35.51,0,0,0-12-7.9,38.77,38.77,0,0,0-14.07-2.5,39.26,39.26,0,0,0-14.32,2.56,34.15,34.15,0,0,0-11.43,7.2,31.91,31.91,0,0,0-7.45,11,37.1,37.1,0,0,0,0,27.49,32.67,32.67,0,0,0,7.45,11,33.83,33.83,0,0,0,11.36,7.25,38.58,38.58,0,0,0,14.26,2.57,42.58,42.58,0,0,0,13.81-2.25,33.9,33.9,0,0,0,12.27-7.51l7.32,9.76a45.47,45.47,0,0,1-15.61,8.54A59.34,59.34,0,0,1,1089.47,525.52Zm21.71-13.1V479h12.33v35.07Z"></path><path class="cls-1" d="M1168,513.32h52.41V524.5h-65.25V434.58h63.45v11.18H1168Zm-1.15-40H1213v10.92H1166.8Z"></path><path class="cls-1" d="M1242.84,543.51l6.42-26,1.67,7.45a8.85,8.85,0,0,1-6.23-2.31,8.14,8.14,0,0,1-2.5-6.3,8.44,8.44,0,0,1,8.6-8.73,7.84,7.84,0,0,1,6,2.5,8.85,8.85,0,0,1,2.31,6.23,15.85,15.85,0,0,1-.19,2.51,25.12,25.12,0,0,1-.64,2.82c-.3,1.08-.75,2.38-1.35,3.92l-6,17.86Z"></path><path class="cls-1" d="M1313.74,524.5l40.72-89.92h12.72L1408,524.5h-13.48l-36.36-82.73h5.14L1327,524.5ZM1331.08,502l3.47-10.28h50.61l3.72,10.28Z"></path><path class="cls-1" d="M1428.45,524.5V434.58H1439l40.33,67.95h-5.65l39.82-67.95H1524l.13,89.92h-12.33l-.13-70.52h3l-35.46,59.6h-5.9L1437.57,454h3.21V524.5Z"></path><path class="cls-1" d="M1544.56,524.5l40.72-89.92H1598l40.85,89.92h-13.49L1589,441.77h5.14l-36.36,82.73ZM1561.91,502l3.46-10.28H1616l3.73,10.28Z"></path><path class="cls-1" d="M1659.27,524.5V434.58h10.53l59.48,73.86h-5.53V434.58h12.85V524.5h-10.54l-59.47-73.86h5.53V524.5Z"></path><path class="cls-1" d="M1783.48,524.5h-12.84V434.58h12.84Zm52.8-40.08H1782.2V473.24h54.08Zm-1.16-49.84H1848V524.5h-12.84Z"></path><path class="cls-1" d="M1868.39,524.5l40.72-89.92h12.71l40.85,89.92h-13.49l-36.35-82.73H1918l-36.35,82.73ZM1885.73,502l3.47-10.28h50.61l3.72,10.28Zm38.79-75.15a11.29,11.29,0,0,1-5.46-1.28,22.1,22.1,0,0,1-4.3-3,43.46,43.46,0,0,0-3.73-3,6.18,6.18,0,0,0-3.59-1.28,5.57,5.57,0,0,0-4.56,2.12,10.07,10.07,0,0,0-2,5.84H1894q.25-7.19,3.6-11.43a10.83,10.83,0,0,1,9-4.24,11.23,11.23,0,0,1,5.52,1.35,23.87,23.87,0,0,1,4.37,3.08,46.05,46.05,0,0,0,3.66,3,5.89,5.89,0,0,0,8.16-.77,8.8,8.8,0,0,0,1.92-5.65h6.94q-.13,6.81-3.53,11.05A11,11,0,0,1,1924.52,426.87Z"></path><path class="cls-1" d="M2024.71,524.5V434.58h12.85V524.5Z"></path><path class="cls-1" d="M2071.6,524.5V434.58h10.53l59.47,73.86h-5.52V434.58h12.84V524.5h-10.53l-59.47-73.86h5.52V524.5Z"></path><path class="cls-1" d="M2183,524.5V434.58h37.9q14.38,0,25.36,5.65a41.78,41.78,0,0,1,17.09,15.8,48.35,48.35,0,0,1,0,47,41.78,41.78,0,0,1-17.09,15.8q-11,5.64-25.36,5.65Zm12.85-11.18h24.27q11.19,0,19.34-4.24a30.81,30.81,0,0,0,12.65-11.88,37,37,0,0,0,0-35.39A31,31,0,0,0,2239.42,450q-8.16-4.25-19.34-4.24h-24.27Z"></path><path class="cls-1" d="M2296.13,524.5V434.58H2309V524.5Z"></path><path class="cls-1" d="M2355.85,513.32h52.41V524.5H2343V434.58h63.45v11.18h-50.61Zm-1.15-40h46.24v10.92H2354.7Z"></path><path class="cls-1" d="M2490.6,513.32H2543V524.5h-65.26V434.58h63.46v11.18H2490.6Zm-1.16-40h46.25v10.92h-46.25Z"></path><path class="cls-1" d="M172.66,679.67A61.28,61.28,0,0,1,153,676.52q-9.37-3.15-14.77-8.16l4.75-10a41.59,41.59,0,0,0,13.1,7.45,47.25,47.25,0,0,0,16.57,3,37.45,37.45,0,0,0,12.72-1.8,15.08,15.08,0,0,0,7.19-5,11.72,11.72,0,0,0,2.31-7.13,9.74,9.74,0,0,0-3-7.45,22.62,22.62,0,0,0-7.84-4.56,86.79,86.79,0,0,0-10.6-3q-5.77-1.29-11.62-3a52.6,52.6,0,0,1-10.66-4.43,21.84,21.84,0,0,1-7.77-7.26q-3-4.56-3-11.75a23.64,23.64,0,0,1,3.66-12.79,25.41,25.41,0,0,1,11.31-9.37q7.63-3.54,19.46-3.54a60.1,60.1,0,0,1,15.54,2.06,43.32,43.32,0,0,1,13.36,5.91l-4.24,10.28a41.11,41.11,0,0,0-12.2-5.59,47.64,47.64,0,0,0-12.46-1.74,34.35,34.35,0,0,0-12.46,1.93,15.15,15.15,0,0,0-7.13,5.14,12.24,12.24,0,0,0-2.25,7.19,9.89,9.89,0,0,0,3,7.58,21.8,21.8,0,0,0,7.83,4.5,108.11,108.11,0,0,0,10.6,3q5.78,1.35,11.63,3a50,50,0,0,1,10.66,4.37,22.09,22.09,0,0,1,7.77,7.19q3,4.5,2.95,11.56a23.15,23.15,0,0,1-3.72,12.66q-3.74,5.84-11.5,9.37T172.66,679.67Z"></path><path class="cls-1" d="M246.14,667.46h52.4v11.18H233.29V588.72h63.45V599.9h-50.6ZM245,627.52h46.24v10.91H245Z"></path><path class="cls-1" d="M326.42,678.64V588.72H337l40.33,67.95h-5.65l39.82-67.95H422l.13,89.92H409.78l-.13-70.52h3l-35.46,59.6h-5.91l-35.7-59.6h3.21v70.52Z"></path><path class="cls-1" d="M442.53,678.64l40.72-89.92H496l40.85,89.92H523.33L487,595.92h5.14l-36.36,82.72Zm17.34-22.48,3.47-10.28H514l3.73,10.28Z"></path><path class="cls-1" d="M557.24,678.64V588.72h10.53l59.48,73.86h-5.53V588.72h12.85v89.92H624l-59.47-73.86h5.52v73.86Z"></path><path class="cls-1" d="M655,678.64l40.72-89.92h12.72l40.84,89.92H735.79l-36.36-82.72h5.14l-36.35,82.72Zm17.34-22.48,3.47-10.28h50.61l3.72,10.28Z"></path><path class="cls-1" d="M851.9,679.67a51.55,51.55,0,0,1-19.07-3.47,45.57,45.57,0,0,1-15.22-9.7,44.77,44.77,0,0,1-10-14.58,48,48,0,0,1,0-36.48,44.87,44.87,0,0,1,10-14.58,45.86,45.86,0,0,1,15.16-9.7,54.58,54.58,0,0,1,38.14-.06,44.91,44.91,0,0,1,15.16,9.63,44,44,0,0,1,10,14.65,49.38,49.38,0,0,1,0,36.67,44,44,0,0,1-10,14.58,44.91,44.91,0,0,1-15.16,9.63A51.88,51.88,0,0,1,851.9,679.67Zm0-11.44a36.38,36.38,0,0,0,13.81-2.57,32.34,32.34,0,0,0,11-7.32,34.5,34.5,0,0,0,7.32-11,36.89,36.89,0,0,0,0-27.36,33.85,33.85,0,0,0-7.32-11,32.9,32.9,0,0,0-11-7.25,38.71,38.71,0,0,0-27.74,0,33.31,33.31,0,0,0-18.5,18.24,36.89,36.89,0,0,0,0,27.36,33.89,33.89,0,0,0,7.39,11A32.88,32.88,0,0,0,838,665.66,36.7,36.7,0,0,0,851.9,668.23Zm29.42,29.16a32.28,32.28,0,0,1-16.83-4.56,55.42,55.42,0,0,1-8.48-6.16,126.84,126.84,0,0,1-9.5-9.32l13.74-3.59a59.06,59.06,0,0,0,7.39,7.77,24.76,24.76,0,0,0,7,4.37,19.17,19.17,0,0,0,6.94,1.34q9.49,0,16.31-7.7l6,7.32A28,28,0,0,1,881.32,697.39Z"></path><path class="cls-1" d="M963.53,679.67q-17.73,0-27.88-10.15t-10.14-29.67V588.72h12.84v50.61q0,15,6.62,22t18.69,6.93q12.2,0,18.81-6.93t6.62-22V588.72h12.46v51.13q0,19.51-10.08,29.67T963.53,679.67Z"></path><path class="cls-1" d="M1047.79,667.46h52.41v11.18h-65.26V588.72h63.46V599.9h-50.61Zm-1.16-39.94h46.24v10.91h-46.24Z"></path><path class="cls-1" d="M1195.64,678.64l-39.57-89.92h13.87l36.36,83h-8l36.61-83h12.85l-39.44,89.92Z"></path><path class="cls-1" d="M1279.13,667.46h52.4v11.18h-65.25V588.72h63.46V599.9h-50.61ZM1278,627.52h46.24v10.91H1278Z"></path><path class="cls-1" d="M1359.41,678.64V588.72h10.53l40.33,67.95h-5.65l39.82-67.95H1455l.13,89.92h-12.33l-.13-70.52h3l-35.45,59.6h-5.91l-35.71-59.6h3.21v70.52Z"></path><path class="cls-1" d="M1490.3,679.41a8.68,8.68,0,0,1-8.74-8.86,8.32,8.32,0,0,1,2.57-6.3,8.67,8.67,0,0,1,6.17-2.44,8.29,8.29,0,0,1,6,2.44,8.42,8.42,0,0,1,2.51,6.3,8.61,8.61,0,0,1-2.51,6.35A8.16,8.16,0,0,1,1490.3,679.41Z"></path><path class="cls-1" d="M1526.52,679.41a8.66,8.66,0,0,1-8.73-8.86,8.31,8.31,0,0,1,2.56-6.3,8.68,8.68,0,0,1,6.17-2.44,8.29,8.29,0,0,1,6,2.44,8.42,8.42,0,0,1,2.51,6.3,8.61,8.61,0,0,1-2.51,6.35A8.16,8.16,0,0,1,1526.52,679.41Z"></path><path class="cls-1" d="M1562.74,679.41a8.68,8.68,0,0,1-8.73-8.86,8.28,8.28,0,0,1,2.57-6.3,8.64,8.64,0,0,1,6.16-2.44,8.29,8.29,0,0,1,6,2.44,8.42,8.42,0,0,1,2.51,6.3,8.61,8.61,0,0,1-2.51,6.35A8.16,8.16,0,0,1,1562.74,679.41Z"></path><path class="cls-1" d="M1660.11,678.64l-30.06-89.92h13.23l27.62,83h-6.68l28.64-83h11.82l28,83h-6.42l28-83h12.2l-30,89.92h-13.49l-26.21-76.94h3.47l-26.33,76.94Z"></path><path class="cls-1" d="M1802,678.64H1789.2V588.72H1802Zm52.8-40.08h-54.08V627.39h54.08Zm-1.16-49.84h12.85v89.92h-12.85Z"></path><path class="cls-1" d="M1941.16,679.67a51.57,51.57,0,0,1-19.08-3.47,45.57,45.57,0,0,1-15.22-9.7,44.77,44.77,0,0,1-10-14.58,48,48,0,0,1,0-36.48,44.87,44.87,0,0,1,10-14.58,45.86,45.86,0,0,1,15.16-9.7,51.44,51.44,0,0,1,19.14-3.47,52,52,0,0,1,19,3.41,45,45,0,0,1,15.15,9.63,44,44,0,0,1,10,14.65,49.38,49.38,0,0,1,0,36.67,44,44,0,0,1-10,14.58,45,45,0,0,1-15.15,9.63A52,52,0,0,1,1941.16,679.67Zm0-11.44a36.36,36.36,0,0,0,13.8-2.57,32.9,32.9,0,0,0,11-7.25,33.85,33.85,0,0,0,7.32-11,35.12,35.12,0,0,0,2.63-13.74A34.3,34.3,0,0,0,1966,609a32.34,32.34,0,0,0-11-7.32,38.71,38.71,0,0,0-27.74,0,32.88,32.88,0,0,0-11.11,7.32,34.33,34.33,0,0,0-7.39,11,34.72,34.72,0,0,0-2.63,13.68,35.12,35.12,0,0,0,2.63,13.74,33.31,33.31,0,0,0,18.5,18.24A36.72,36.72,0,0,0,1941.16,668.23Z"></path><path class="cls-1" d="M2097.35,679.67a51.41,51.41,0,0,1-18.95-3.41,44.45,44.45,0,0,1-15-9.63,45.35,45.35,0,0,1-9.95-14.58,48.67,48.67,0,0,1,0-36.74,44.71,44.71,0,0,1,25.11-24.21,54.1,54.1,0,0,1,38.15.13,39.2,39.2,0,0,1,15,10.47l-8.35,8.09a33.45,33.45,0,0,0-11.56-8,36,36,0,0,0-13.75-2.63,37.67,37.67,0,0,0-14.06,2.57,33.68,33.68,0,0,0-11.24,7.19,32.47,32.47,0,0,0-7.39,11,37.57,37.57,0,0,0,0,27.62,32.47,32.47,0,0,0,7.39,11,33.68,33.68,0,0,0,11.24,7.19,37.67,37.67,0,0,0,14.06,2.57,35.85,35.85,0,0,0,13.75-2.63,32.54,32.54,0,0,0,11.56-8.16l8.35,8.1a40,40,0,0,1-15,10.53A50.56,50.56,0,0,1,2097.35,679.67Z"></path><path class="cls-1" d="M2141.28,678.64,2182,588.72h12.71l40.85,89.92h-13.48l-36.36-82.72h5.14l-36.35,82.72Zm17.34-22.48,3.47-10.28h50.61l3.72,10.28Z"></path><path class="cls-1" d="M2256,678.64V588.72h35.06q11.82,0,20.17,3.73a28.46,28.46,0,0,1,12.84,10.79,33.59,33.59,0,0,1,0,33.59,28.58,28.58,0,0,1-12.84,10.72q-8.35,3.74-20.17,3.73h-28l5.78-5.91v33.27Zm12.84-32-5.78-6.29h27.62q12.33,0,18.69-5.33t6.35-15q0-9.63-6.35-14.9t-18.69-5.26h-27.62l5.78-6.42Zm47.27,32L2293.24,646H2307l23.12,32.63Z"></path><path class="cls-1" d="M2369.28,667.46h52.41v11.18h-65.26V588.72h63.46V599.9h-50.61Zm-1.16-39.94h46.25v10.91h-46.25Z"></path><path class="cls-1" d="M2475.76,679.67a61.28,61.28,0,0,1-19.65-3.15q-9.37-3.15-14.77-8.16l4.75-10a41.7,41.7,0,0,0,13.1,7.45,47.29,47.29,0,0,0,16.57,3,37.45,37.45,0,0,0,12.72-1.8,15.08,15.08,0,0,0,7.19-5,11.73,11.73,0,0,0,2.32-7.13,9.75,9.75,0,0,0-3-7.45,22.62,22.62,0,0,0-7.84-4.56,86.79,86.79,0,0,0-10.6-3q-5.78-1.29-11.62-3a52.6,52.6,0,0,1-10.66-4.43,21.84,21.84,0,0,1-7.77-7.26q-3-4.56-3-11.75a23.64,23.64,0,0,1,3.66-12.79,25.41,25.41,0,0,1,11.31-9.37q7.64-3.54,19.46-3.54a60.1,60.1,0,0,1,15.54,2.06,43.32,43.32,0,0,1,13.36,5.91l-4.24,10.28a41.11,41.11,0,0,0-12.2-5.59,47.64,47.64,0,0,0-12.46-1.74,34.35,34.35,0,0,0-12.46,1.93,15.15,15.15,0,0,0-7.13,5.14,12.24,12.24,0,0,0-2.25,7.19,9.89,9.89,0,0,0,3,7.58A21.8,21.8,0,0,0,2467,625a108.11,108.11,0,0,0,10.6,3q5.78,1.35,11.63,3a50,50,0,0,1,10.66,4.37,22.09,22.09,0,0,1,7.77,7.19q3,4.5,3,11.56a23.15,23.15,0,0,1-3.72,12.66q-3.73,5.84-11.5,9.37T2475.76,679.67Z"></path><path class="cls-1" d="M2549.62,650.25a21.21,21.21,0,0,1,1.67-8.73,27.71,27.71,0,0,1,4.18-6.68,46.16,46.16,0,0,1,5.46-5.46q3-2.5,5.52-5a24.2,24.2,0,0,0,4.17-5.33,13.06,13.06,0,0,0,1.61-6.55,12.19,12.19,0,0,0-4.88-10q-4.89-3.86-13.49-3.86a32.1,32.1,0,0,0-13.36,2.57,25.84,25.84,0,0,0-9.63,7.58l-9.38-6.68a36.47,36.47,0,0,1,13.75-10.6,46.91,46.91,0,0,1,19.52-3.79,42.6,42.6,0,0,1,16.06,2.77,24.12,24.12,0,0,1,10.59,7.83,19.91,19.91,0,0,1,3.79,12.27,23.06,23.06,0,0,1-1.67,9.25,25.84,25.84,0,0,1-4.24,6.81,60.46,60.46,0,0,1-5.45,5.52q-2.9,2.57-5.46,5.14a24,24,0,0,0-4.24,5.65,15,15,0,0,0-1.67,7.32Zm6.55,29.16a8.31,8.31,0,0,1-6-14.13,8.22,8.22,0,0,1,6-2.31,7.91,7.91,0,0,1,8.22,8.22,8.12,8.12,0,0,1-2.31,5.78A7.77,7.77,0,0,1,2556.17,679.41Z"></path><path class="cls-1" d="M177.61,832.78V742.86h10.53l59.47,73.86h-5.52V742.86h12.85v89.92H244.4l-59.47-73.86h5.52v73.86Z"></path><path class="cls-1" d="M329.57,833.81a51.57,51.57,0,0,1-19.08-3.47,45.57,45.57,0,0,1-15.22-9.7,44.77,44.77,0,0,1-10-14.58,48,48,0,0,1,0-36.48,45,45,0,0,1,10-14.58,45.86,45.86,0,0,1,15.16-9.7,54.76,54.76,0,0,1,38.15-.06,45,45,0,0,1,15.15,9.63,44,44,0,0,1,10,14.65,49.38,49.38,0,0,1,0,36.67,44,44,0,0,1-10,14.58,45,45,0,0,1-15.15,9.63A51.92,51.92,0,0,1,329.57,833.81Zm0-11.44a36.51,36.51,0,0,0,13.8-2.56,33.08,33.08,0,0,0,11.05-7.26,33.69,33.69,0,0,0,7.32-11,35.12,35.12,0,0,0,2.64-13.74,34.36,34.36,0,0,0-10-24.66,32.34,32.34,0,0,0-11.05-7.32,36.32,36.32,0,0,0-13.8-2.57,36.72,36.72,0,0,0-13.94,2.57,32.88,32.88,0,0,0-11.11,7.32,34.33,34.33,0,0,0-7.39,11,34.93,34.93,0,0,0-2.63,13.68,35.3,35.3,0,0,0,2.63,13.74,33.37,33.37,0,0,0,18.5,18.25A36.91,36.91,0,0,0,329.57,822.37Z"></path><path class="cls-1" d="M430.14,833.81a61.28,61.28,0,0,1-19.65-3.15q-9.37-3.15-14.77-8.16l4.75-10a41.59,41.59,0,0,0,13.1,7.45,47.25,47.25,0,0,0,16.57,3,37.49,37.49,0,0,0,12.72-1.8,15.08,15.08,0,0,0,7.19-5,11.71,11.71,0,0,0,2.31-7.12,9.72,9.72,0,0,0-3-7.46,22.32,22.32,0,0,0-7.83-4.55,85,85,0,0,0-10.6-3q-5.78-1.29-11.62-3a52.6,52.6,0,0,1-10.66-4.43,21.78,21.78,0,0,1-7.78-7.26q-3-4.56-3-11.75a23.64,23.64,0,0,1,3.66-12.79,25.44,25.44,0,0,1,11.3-9.37q7.65-3.54,19.47-3.53a60.09,60.09,0,0,1,15.54,2,43.32,43.32,0,0,1,13.36,5.91L457,760.08a41.16,41.16,0,0,0-12.21-5.59,47.51,47.51,0,0,0-12.45-1.74,34.35,34.35,0,0,0-12.46,1.93,15.16,15.16,0,0,0-7.13,5.14,12.24,12.24,0,0,0-2.25,7.19,9.85,9.85,0,0,0,3,7.58,21.66,21.66,0,0,0,7.83,4.5,104.65,104.65,0,0,0,10.6,3q5.78,1.35,11.62,3a50.1,50.1,0,0,1,10.67,4.37,22.09,22.09,0,0,1,7.77,7.19q3,4.5,2.95,11.56a23.15,23.15,0,0,1-3.72,12.66q-3.74,5.83-11.5,9.37T430.14,833.81Z"></path><path class="cls-1" d="M517,833.81a61.28,61.28,0,0,1-19.65-3.15q-9.37-3.15-14.77-8.16l4.75-10a41.59,41.59,0,0,0,13.1,7.45,47.25,47.25,0,0,0,16.57,3,37.49,37.49,0,0,0,12.72-1.8,15.08,15.08,0,0,0,7.19-5,11.71,11.71,0,0,0,2.31-7.12,9.75,9.75,0,0,0-3-7.46,22.46,22.46,0,0,0-7.84-4.55,85,85,0,0,0-10.6-3q-5.78-1.29-11.62-3a52.6,52.6,0,0,1-10.66-4.43,21.75,21.75,0,0,1-7.77-7.26q-3-4.56-3-11.75a23.64,23.64,0,0,1,3.66-12.79,25.41,25.41,0,0,1,11.31-9.37q7.64-3.54,19.46-3.53a60.09,60.09,0,0,1,15.54,2,43.32,43.32,0,0,1,13.36,5.91l-4.24,10.28a41.11,41.11,0,0,0-12.2-5.59,47.64,47.64,0,0,0-12.46-1.74,34.35,34.35,0,0,0-12.46,1.93,15.16,15.16,0,0,0-7.13,5.14,12.24,12.24,0,0,0-2.25,7.19,9.89,9.89,0,0,0,3,7.58,21.66,21.66,0,0,0,7.83,4.5,104.65,104.65,0,0,0,10.6,3q5.78,1.35,11.63,3a50,50,0,0,1,10.66,4.37,22.09,22.09,0,0,1,7.77,7.19q3,4.5,2.95,11.56a23.15,23.15,0,0,1-3.72,12.66q-3.73,5.83-11.5,9.37T517,833.81Z"></path><path class="cls-1" d="M618.19,833.81a51.55,51.55,0,0,1-19.07-3.47,45.61,45.61,0,0,1-15.23-9.7,44.77,44.77,0,0,1-10-14.58,48.13,48.13,0,0,1,0-36.48,45,45,0,0,1,10-14.58,46,46,0,0,1,15.16-9.7,54.76,54.76,0,0,1,38.15-.06,45.11,45.11,0,0,1,15.16,9.63,43.81,43.81,0,0,1,9.95,14.65,49.25,49.25,0,0,1,0,36.67,43.82,43.82,0,0,1-9.95,14.58,45.11,45.11,0,0,1-15.16,9.63A51.88,51.88,0,0,1,618.19,833.81Zm0-11.44A36.56,36.56,0,0,0,632,819.81a33.08,33.08,0,0,0,11-7.26,34,34,0,0,0,7.32-11A35.3,35.3,0,0,0,653,787.82a34.3,34.3,0,0,0-10-24.66,32.34,32.34,0,0,0-11-7.32,36.38,36.38,0,0,0-13.81-2.57,36.75,36.75,0,0,0-13.94,2.57,33,33,0,0,0-11.11,7.32,34.14,34.14,0,0,0-7.38,11,34.75,34.75,0,0,0-2.64,13.68,35.12,35.12,0,0,0,2.64,13.74,33.23,33.23,0,0,0,7.38,11,33.74,33.74,0,0,0,11.11,7.26A36.94,36.94,0,0,0,618.19,822.37Z"></path><path class="cls-1" d="M747,821.6h52.41v11.18H734.18V742.86h63.45V754H747Zm-1.15-39.94h46.24v10.91H745.87Z"></path><path class="cls-1" d="M853.51,833.81a61.28,61.28,0,0,1-19.65-3.15q-9.39-3.15-14.77-8.16l4.75-10a41.59,41.59,0,0,0,13.1,7.45,47.25,47.25,0,0,0,16.57,3,37.49,37.49,0,0,0,12.72-1.8,15.08,15.08,0,0,0,7.19-5,11.71,11.71,0,0,0,2.31-7.12,9.76,9.76,0,0,0-3-7.46,22.32,22.32,0,0,0-7.83-4.55,85.5,85.5,0,0,0-10.6-3q-5.78-1.29-11.62-3A52.93,52.93,0,0,1,832,786.54a21.84,21.84,0,0,1-7.77-7.26q-3-4.56-3-11.75a23.64,23.64,0,0,1,3.66-12.79,25.44,25.44,0,0,1,11.3-9.37q7.65-3.54,19.46-3.53a60.11,60.11,0,0,1,15.55,2,43.42,43.42,0,0,1,13.36,5.91l-4.24,10.28a41.27,41.27,0,0,0-12.21-5.59,47.53,47.53,0,0,0-12.46-1.74,34.43,34.43,0,0,0-12.46,1.93,15.27,15.27,0,0,0-7.13,5.14,12.3,12.3,0,0,0-2.24,7.19,9.85,9.85,0,0,0,3,7.58,21.66,21.66,0,0,0,7.83,4.5,103.91,103.91,0,0,0,10.6,3q5.78,1.35,11.62,3a49.8,49.8,0,0,1,10.66,4.37,22.13,22.13,0,0,1,7.78,7.19q2.94,4.5,3,11.56a23.15,23.15,0,0,1-3.72,12.66q-3.74,5.83-11.5,9.37T853.51,833.81Z"></path><path class="cls-1" d="M930.71,832.78V754H899.88V742.86h74.37V754H943.42v78.74Z"></path><path class="cls-1" d="M995.32,832.78V742.86h12.84v89.92Z"></path><path class="cls-1" d="M1042.2,832.78V742.86h12.85V821.6h48.68v11.18Z"></path><path class="cls-1" d="M1164.49,833.81a51.64,51.64,0,0,1-19.08-3.47,45.67,45.67,0,0,1-15.22-9.7,44.77,44.77,0,0,1-10-14.58,48.13,48.13,0,0,1,0-36.48,45,45,0,0,1,10-14.58,45.86,45.86,0,0,1,15.16-9.7,54.76,54.76,0,0,1,38.15-.06,45.11,45.11,0,0,1,15.16,9.63,44,44,0,0,1,9.95,14.65,49.38,49.38,0,0,1,0,36.67,44,44,0,0,1-9.95,14.58,45.11,45.11,0,0,1-15.16,9.63A51.92,51.92,0,0,1,1164.49,833.81Zm0-11.44a36.6,36.6,0,0,0,13.81-2.56,32.93,32.93,0,0,0,11-7.26,33.69,33.69,0,0,0,7.32-11,35.12,35.12,0,0,0,2.64-13.74,34.36,34.36,0,0,0-10-24.66,32.2,32.2,0,0,0-11-7.32,38.74,38.74,0,0,0-27.75,0,33,33,0,0,0-11.11,7.32,34.33,34.33,0,0,0-7.39,11,34.93,34.93,0,0,0-2.63,13.68,35.3,35.3,0,0,0,2.63,13.74,33.37,33.37,0,0,0,18.5,18.25A36.91,36.91,0,0,0,1164.49,822.37Z"></path><path class="cls-1" d="M1298.33,832.78V754H1267.5V742.86h74.38V754h-30.83v78.74Z"></path><path class="cls-1" d="M1375.79,821.6h52.4v11.18h-65.25V742.86h63.46V754h-50.61Zm-1.16-39.94h46.24v10.91h-46.24Z"></path><path class="cls-1" d="M1456.07,832.78V742.86h10.53l40.33,67.95h-5.65l39.82-67.95h10.53l.13,89.92h-12.33l-.13-70.52h3l-35.45,59.6h-5.91l-35.71-59.6h3.21v70.52Z"></path><path class="cls-1" d="M1627.42,832.78V742.86H1638l40.34,67.95h-5.66l39.82-67.95H1723l.12,89.92h-12.33l-.12-70.52h2.95l-35.45,59.6h-5.91l-35.71-59.6h3.21v70.52Z"></path><path class="cls-1" d="M1794.4,833.81q-17.72,0-27.87-10.15T1756.38,794V742.86h12.85v50.61q0,15,6.61,22t18.69,6.93q12.21,0,18.82-6.93t6.61-22V742.86h12.46V794q0,19.51-10.08,29.67T1794.4,833.81Z"></path><path class="cls-1" d="M1865.82,832.78V742.86h12.84v89.92Z"></path><path class="cls-1" d="M1930.56,832.78V754h-30.83V742.86h74.37V754h-30.82v78.74Z"></path><path class="cls-1" d="M2034.48,833.81a51.57,51.57,0,0,1-19.08-3.47,45.57,45.57,0,0,1-15.22-9.7,44.77,44.77,0,0,1-10-14.58,48,48,0,0,1,0-36.48,45,45,0,0,1,10-14.58,45.86,45.86,0,0,1,15.16-9.7,54.76,54.76,0,0,1,38.15-.06,45,45,0,0,1,15.15,9.63,44,44,0,0,1,10,14.65,49.38,49.38,0,0,1,0,36.67,44,44,0,0,1-10,14.58,45,45,0,0,1-15.15,9.63A51.92,51.92,0,0,1,2034.48,833.81Zm0-11.44a36.55,36.55,0,0,0,13.8-2.56,33.08,33.08,0,0,0,11-7.26,33.85,33.85,0,0,0,7.32-11,35.12,35.12,0,0,0,2.64-13.74,34.36,34.36,0,0,0-10-24.66,32.34,32.34,0,0,0-11-7.32,38.71,38.71,0,0,0-27.74,0,32.88,32.88,0,0,0-11.11,7.32,34.33,34.33,0,0,0-7.39,11,34.93,34.93,0,0,0-2.63,13.68,35.3,35.3,0,0,0,2.63,13.74,33.37,33.37,0,0,0,18.5,18.25A36.91,36.91,0,0,0,2034.48,822.37Z"></path><path class="cls-1" d="M2136.85,832.78l40.72-89.92h12.72l40.84,89.92h-13.48l-36.36-82.72h5.14l-36.35,82.72Zm17.34-22.48,3.47-10.28h50.61L2212,810.3Z"></path><path class="cls-1" d="M2319.12,832.78l-39.56-89.92h13.87l36.35,83h-8l36.61-83h12.84l-39.43,89.92Z"></path><path class="cls-1" d="M2402.61,821.6H2455v11.18h-65.25V742.86h63.45V754h-50.61Zm-1.15-39.94h46.24v10.91h-46.24Z"></path><path class="cls-1" d="M2482.89,832.78V742.86H2518q11.82,0,20.17,3.73A28.57,28.57,0,0,1,2551,757.38a30.66,30.66,0,0,1,4.5,16.83A30.35,30.35,0,0,1,2551,791a28.68,28.68,0,0,1-12.84,10.72q-8.36,3.73-20.17,3.73h-28l5.78-5.91v33.27Zm12.85-32L2490,794.5h27.62q12.33,0,18.68-5.33t6.36-15q0-9.65-6.36-14.9T2517.58,754H2490l5.78-6.42Zm47.27,32-22.87-32.63h13.75L2557,832.78Z"></path><path class="cls-1" d="M289.75,988a51.37,51.37,0,0,1-18.95-3.41,44.45,44.45,0,0,1-15-9.63,45,45,0,0,1-10-14.58,48.67,48.67,0,0,1,0-36.74,44.8,44.8,0,0,1,10-14.58,45.25,45.25,0,0,1,15.1-9.63,54.24,54.24,0,0,1,38.15.13A39.24,39.24,0,0,1,324,910l-8.35,8.09a33.35,33.35,0,0,0-11.56-8,36,36,0,0,0-13.74-2.63A37.93,37.93,0,0,0,276.32,910a33.78,33.78,0,0,0-11.24,7.19,32.3,32.3,0,0,0-7.38,11,37.44,37.44,0,0,0,0,27.62,32.3,32.3,0,0,0,7.38,11,33.81,33.81,0,0,0,11.24,7.2,37.93,37.93,0,0,0,14.07,2.57,35.77,35.77,0,0,0,13.74-2.64,32.54,32.54,0,0,0,11.56-8.15l8.35,8.09a40.05,40.05,0,0,1-15,10.53A50.59,50.59,0,0,1,289.75,988Z"></path><path class="cls-1" d="M388.14,988a51.64,51.64,0,0,1-19.08-3.47,45.51,45.51,0,0,1-15.22-9.7,44.77,44.77,0,0,1-10-14.58,48.13,48.13,0,0,1,0-36.48,45,45,0,0,1,10-14.58,45.86,45.86,0,0,1,15.16-9.7,54.76,54.76,0,0,1,38.15-.06A45.11,45.11,0,0,1,422.31,909a44,44,0,0,1,9.95,14.65,49.38,49.38,0,0,1,0,36.67,44,44,0,0,1-9.95,14.58,45.11,45.11,0,0,1-15.16,9.63A51.92,51.92,0,0,1,388.14,988Zm0-11.43A36.61,36.61,0,0,0,402,974a33,33,0,0,0,11-7.26,33.76,33.76,0,0,0,7.32-11A35.21,35.21,0,0,0,423,942a34.36,34.36,0,0,0-10-24.66A32.3,32.3,0,0,0,402,910a38.74,38.74,0,0,0-27.75,0,33,33,0,0,0-11.11,7.32,34.33,34.33,0,0,0-7.39,11A34.93,34.93,0,0,0,353.07,942a35.39,35.39,0,0,0,2.63,13.75A33.39,33.39,0,0,0,374.2,974,36.91,36.91,0,0,0,388.14,976.52Z"></path><path class="cls-1" d="M462.51,986.92V897H473l40.34,68h-5.66l39.82-68h10.54l.13,89.92H545.87l-.12-70.52h3L513.25,976h-5.91l-35.71-59.6h3.21v70.52Z"></path><path class="cls-1" d="M674.45,988a51.55,51.55,0,0,1-19.07-3.47,45.55,45.55,0,0,1-15.23-9.7,44.58,44.58,0,0,1-10-14.58,48,48,0,0,1,0-36.48,44.8,44.8,0,0,1,10-14.58,46.07,46.07,0,0,1,15.16-9.7,54.76,54.76,0,0,1,38.15-.06A45,45,0,0,1,708.62,909a43.81,43.81,0,0,1,10,14.65,49.25,49.25,0,0,1,0,36.67,43.82,43.82,0,0,1-10,14.58,45,45,0,0,1-15.16,9.63A51.88,51.88,0,0,1,674.45,988Zm0-11.43A36.57,36.57,0,0,0,688.26,974a33.08,33.08,0,0,0,11-7.26,34.08,34.08,0,0,0,7.32-11A35.39,35.39,0,0,0,709.26,942a34.3,34.3,0,0,0-10-24.66,32.34,32.34,0,0,0-11-7.32,36.57,36.57,0,0,0-13.81-2.57A37,37,0,0,0,660.51,910a33.07,33.07,0,0,0-11.11,7.32,34.14,34.14,0,0,0-7.38,11A34.75,34.75,0,0,0,639.38,942,35.21,35.21,0,0,0,642,955.71a33.3,33.3,0,0,0,7.38,11A33.84,33.84,0,0,0,660.51,974,37,37,0,0,0,674.45,976.52Z"></path><path class="cls-1" d="M790.44,986.92V897H801l40.34,68h-5.65l39.81-68H886l.13,89.92H873.81l-.13-70.52h3L841.18,976h-5.91l-35.71-59.6h3.21v70.52Z"></path><path class="cls-1" d="M960.76,988a51.55,51.55,0,0,1-19.07-3.47,45.41,45.41,0,0,1-15.22-9.7,44.77,44.77,0,0,1-10-14.58,48,48,0,0,1,0-36.48,45,45,0,0,1,10-14.58,45.86,45.86,0,0,1,15.16-9.7A51.42,51.42,0,0,1,960.76,896a52,52,0,0,1,19,3.4A45,45,0,0,1,994.93,909a44,44,0,0,1,10,14.65,49.38,49.38,0,0,1,0,36.67,44,44,0,0,1-10,14.58,45,45,0,0,1-15.15,9.63A52,52,0,0,1,960.76,988Zm0-11.43A36.57,36.57,0,0,0,974.57,974a33.08,33.08,0,0,0,11-7.26,33.92,33.92,0,0,0,7.32-11A35.21,35.21,0,0,0,995.57,942a34.3,34.3,0,0,0-10-24.66,32.34,32.34,0,0,0-11-7.32,38.71,38.71,0,0,0-27.74,0,32.88,32.88,0,0,0-11.11,7.32,34.17,34.17,0,0,0-7.39,11A34.75,34.75,0,0,0,925.7,942a35.21,35.21,0,0,0,2.63,13.75A33.39,33.39,0,0,0,946.83,974,36.9,36.9,0,0,0,960.76,976.52Z"></path><path class="cls-1" d="M1075.73,988a51.61,51.61,0,0,1-19.08-3.47,45.51,45.51,0,0,1-15.22-9.7,44.77,44.77,0,0,1-10-14.58,48,48,0,0,1,0-36.48,45,45,0,0,1,10-14.58,45.86,45.86,0,0,1,15.16-9.7,54.76,54.76,0,0,1,38.15-.06,45,45,0,0,1,15.15,9.63,43.83,43.83,0,0,1,10,14.65,49.38,49.38,0,0,1,0,36.67,43.85,43.85,0,0,1-10,14.58,45,45,0,0,1-15.15,9.63A51.92,51.92,0,0,1,1075.73,988Zm0-11.43a36.61,36.61,0,0,0,13.81-2.57,33,33,0,0,0,11-7.26,33.76,33.76,0,0,0,7.32-11,35.21,35.21,0,0,0,2.64-13.75,34.36,34.36,0,0,0-10-24.66,32.3,32.3,0,0,0-11-7.32,38.74,38.74,0,0,0-27.75,0,33,33,0,0,0-11.11,7.32,34.33,34.33,0,0,0-7.39,11,34.93,34.93,0,0,0-2.63,13.68,35.39,35.39,0,0,0,2.63,13.75,33.39,33.39,0,0,0,18.5,18.24A36.91,36.91,0,0,0,1075.73,976.52Z"></path><path class="cls-1" d="M1150.1,986.92V897H1188q14.38,0,25.37,5.66a41.78,41.78,0,0,1,17.09,15.8,48.34,48.34,0,0,1,0,47,41.84,41.84,0,0,1-17.09,15.8q-11,5.65-25.37,5.65Zm12.84-11.18h24.28q11.17,0,19.33-4.23a30.86,30.86,0,0,0,12.66-11.89,37.09,37.09,0,0,0,0-35.38,30.89,30.89,0,0,0-12.66-11.82q-8.16-4.24-19.33-4.24h-24.28Z"></path><path class="cls-1" d="M1304.88,986.92V897h37.89q14.38,0,25.37,5.66a41.78,41.78,0,0,1,17.09,15.8,48.34,48.34,0,0,1,0,47,41.84,41.84,0,0,1-17.09,15.8q-11,5.65-25.37,5.65Zm12.85-11.18H1342q11.18,0,19.33-4.23A30.86,30.86,0,0,0,1374,959.62a37.09,37.09,0,0,0,0-35.38,30.89,30.89,0,0,0-12.66-11.82q-8.14-4.24-19.33-4.24h-24.27Z"></path><path class="cls-1" d="M1458.63,988a51.55,51.55,0,0,1-19.07-3.47,45.41,45.41,0,0,1-15.22-9.7,44.46,44.46,0,0,1-10-14.58,48,48,0,0,1,0-36.48,44.67,44.67,0,0,1,10-14.58,45.92,45.92,0,0,1,15.15-9.7,54.78,54.78,0,0,1,38.16-.06A45,45,0,0,1,1492.8,909a44,44,0,0,1,10,14.65,49.38,49.38,0,0,1,0,36.67,44,44,0,0,1-10,14.58,45,45,0,0,1-15.15,9.63A52,52,0,0,1,1458.63,988Zm0-11.43a36.57,36.57,0,0,0,13.81-2.57,33.08,33.08,0,0,0,11-7.26,34.08,34.08,0,0,0,7.32-11,35.21,35.21,0,0,0,2.63-13.75,34.3,34.3,0,0,0-10-24.66,32.34,32.34,0,0,0-11-7.32,38.71,38.71,0,0,0-27.74,0,32.88,32.88,0,0,0-11.11,7.32,34.17,34.17,0,0,0-7.39,11,34.75,34.75,0,0,0-2.63,13.68,35.21,35.21,0,0,0,2.63,13.75A33.39,33.39,0,0,0,1444.7,974,36.9,36.9,0,0,0,1458.63,976.52Z"></path><path class="cls-1" d="M1574.62,986.92V897h37.9q14.38,0,25.37,5.66a41.75,41.75,0,0,1,17.08,15.8,48.34,48.34,0,0,1,0,47,41.82,41.82,0,0,1-17.08,15.8q-11,5.65-25.37,5.65Zm12.85-11.18h24.28q11.18,0,19.33-4.23a30.83,30.83,0,0,0,12.65-11.89,37,37,0,0,0,0-35.38,30.87,30.87,0,0,0-12.65-11.82q-8.16-4.24-19.33-4.24h-24.28Z"></path><path class="cls-1" d="M1687.79,986.92V897h12.84v89.92Z"></path><path class="cls-1" d="M1721.06,986.92,1761.78,897h12.71l40.85,89.92h-13.49L1765.5,904.2h5.14l-36.35,82.72Zm17.34-22.48,3.47-10.28h50.61l3.72,10.28Z"></path><path class="cls-1" d="M1890.22,975.74h52.41v11.18h-65.25V897h63.45v11.18h-50.61Zm-1.15-39.94h46.24v10.91h-46.24Z"></path><path class="cls-1" d="M2052.33,988a51.41,51.41,0,0,1-18.95-3.41,44.45,44.45,0,0,1-15-9.63,45.2,45.2,0,0,1-9.95-14.58,48.67,48.67,0,0,1,0-36.74,44.71,44.71,0,0,1,25.11-24.21,54.24,54.24,0,0,1,38.15.13,39.17,39.17,0,0,1,15,10.47l-8.34,8.09a33.45,33.45,0,0,0-11.56-8,36,36,0,0,0-13.75-2.63,37.87,37.87,0,0,0-14.06,2.57,33.58,33.58,0,0,0-11.24,7.19,32.47,32.47,0,0,0-7.39,11,37.57,37.57,0,0,0,0,27.62,32.47,32.47,0,0,0,7.39,11,33.61,33.61,0,0,0,11.24,7.2,37.87,37.87,0,0,0,14.06,2.57,35.86,35.86,0,0,0,13.75-2.64,32.63,32.63,0,0,0,11.56-8.15l8.34,8.09a40,40,0,0,1-15,10.53A50.59,50.59,0,0,1,2052.33,988Z"></path><path class="cls-1" d="M2150.72,988a51.55,51.55,0,0,1-19.07-3.47,45.55,45.55,0,0,1-15.23-9.7,44.58,44.58,0,0,1-10-14.58,48,48,0,0,1,0-36.48,44.8,44.8,0,0,1,10-14.58,46.07,46.07,0,0,1,15.16-9.7,54.76,54.76,0,0,1,38.15-.06,45,45,0,0,1,15.16,9.63,43.81,43.81,0,0,1,10,14.65,49.25,49.25,0,0,1,0,36.67,43.82,43.82,0,0,1-10,14.58,45,45,0,0,1-15.16,9.63A51.88,51.88,0,0,1,2150.72,988Zm0-11.43a36.57,36.57,0,0,0,13.81-2.57,33.08,33.08,0,0,0,11-7.26,34.08,34.08,0,0,0,7.32-11,35.39,35.39,0,0,0,2.63-13.75,34.3,34.3,0,0,0-10-24.66,32.34,32.34,0,0,0-11-7.32,36.57,36.57,0,0,0-13.81-2.57,37,37,0,0,0-13.94,2.57,33.07,33.07,0,0,0-11.11,7.32,34.14,34.14,0,0,0-7.38,11,34.75,34.75,0,0,0-2.64,13.68,35.21,35.21,0,0,0,2.64,13.75,33.3,33.3,0,0,0,7.38,11,33.84,33.84,0,0,0,11.11,7.26A37,37,0,0,0,2150.72,976.52Z"></path><path class="cls-1" d="M2225.09,986.92V897h10.54L2276,965h-5.65l39.82-68h10.53l.13,89.92h-12.33l-.13-70.52h3L2275.83,976h-5.91l-35.71-59.6h3.22v70.52Z"></path><path class="cls-1" d="M2437,988a51.61,51.61,0,0,1-19.08-3.47,45.41,45.41,0,0,1-15.22-9.7,44.77,44.77,0,0,1-10-14.58,48,48,0,0,1,0-36.48,45,45,0,0,1,10-14.58,45.86,45.86,0,0,1,15.16-9.7,54.76,54.76,0,0,1,38.15-.06A45,45,0,0,1,2471.2,909a44,44,0,0,1,10,14.65,49.38,49.38,0,0,1,0,36.67,44,44,0,0,1-10,14.58,45,45,0,0,1-15.15,9.63A51.92,51.92,0,0,1,2437,988Zm0-11.43a36.52,36.52,0,0,0,13.8-2.57,33.08,33.08,0,0,0,11-7.26,33.76,33.76,0,0,0,7.32-11,35.21,35.21,0,0,0,2.64-13.75,34.36,34.36,0,0,0-10-24.66,32.34,32.34,0,0,0-11-7.32,36.52,36.52,0,0,0-13.8-2.57A36.91,36.91,0,0,0,2423.1,910,33,33,0,0,0,2412,917.3a34.33,34.33,0,0,0-7.39,11A34.93,34.93,0,0,0,2402,942a35.39,35.39,0,0,0,2.63,13.75A33.39,33.39,0,0,0,2423.1,974,36.91,36.91,0,0,0,2437,976.52Z"></path><path class="cls-1" d="M243.82,1142.09a51.55,51.55,0,0,1-19.07-3.47,45.41,45.41,0,0,1-15.22-9.7,44.61,44.61,0,0,1-10-14.58,48,48,0,0,1,0-36.48,44.82,44.82,0,0,1,10-14.58,45.74,45.74,0,0,1,15.15-9.69,51.31,51.31,0,0,1,19.14-3.47,51.88,51.88,0,0,1,19,3.4,44.91,44.91,0,0,1,15.16,9.63,44,44,0,0,1,10,14.65,49.38,49.38,0,0,1,0,36.67,44,44,0,0,1-10,14.58,44.76,44.76,0,0,1-15.16,9.63A51.88,51.88,0,0,1,243.82,1142.09Zm0-11.43a36.57,36.57,0,0,0,13.81-2.57,32.63,32.63,0,0,0,11.05-7.32,34.62,34.62,0,0,0,9.95-24.67,35.19,35.19,0,0,0-2.63-13.74,33.86,33.86,0,0,0-7.32-11,32.77,32.77,0,0,0-11.05-7.26,38.71,38.71,0,0,0-27.74,0,33.39,33.39,0,0,0-18.5,18.24,36.89,36.89,0,0,0,0,27.36,34,34,0,0,0,7.39,11,33.18,33.18,0,0,0,11.11,7.32A36.9,36.9,0,0,0,243.82,1130.66Zm29.42,29.15a32.28,32.28,0,0,1-16.83-4.56,55.42,55.42,0,0,1-8.48-6.16,126.53,126.53,0,0,1-9.5-9.31l13.74-3.6a59.06,59.06,0,0,0,7.39,7.77,24.76,24.76,0,0,0,7,4.37,19,19,0,0,0,6.94,1.35q9.5,0,16.31-7.71l6,7.32A28,28,0,0,1,273.24,1159.81Z"></path><path class="cls-1" d="M355.45,1142.09q-17.73,0-27.88-10.15t-10.14-29.67v-51.12h12.84v50.6q0,15,6.62,22t18.69,6.94q12.19,0,18.81-6.94t6.62-22v-50.6h12.46v51.12q0,19.53-10.08,29.67T355.45,1142.09Z"></path><path class="cls-1" d="M439.71,1129.89h52.41v11.17H426.86v-89.91h63.46v11.17H439.71Zm-1.16-40h46.24v10.91H438.55Z"></path><path class="cls-1" d="M548,1141.06l40.72-89.91h12.72l40.84,89.91H628.79l-36.35-82.72h5.13l-36.35,82.72Zm17.34-22.48,3.47-10.27h50.61l3.73,10.27Z"></path><path class="cls-1" d="M744.91,1142.09a52.24,52.24,0,0,1-19.14-3.41,44.56,44.56,0,0,1-25.18-24.21,48.67,48.67,0,0,1,0-36.74,44.53,44.53,0,0,1,10.08-14.58,45.77,45.77,0,0,1,15.22-9.63,56.5,56.5,0,0,1,38.8.07,38.63,38.63,0,0,1,15,10.4l-8,8a35.56,35.56,0,0,0-12-7.9,38.68,38.68,0,0,0-14.06-2.5,39.31,39.31,0,0,0-14.33,2.57,34.12,34.12,0,0,0-11.43,7.19,32.14,32.14,0,0,0-7.45,11,35.87,35.87,0,0,0-2.63,13.81,35.5,35.5,0,0,0,2.63,13.68,32.82,32.82,0,0,0,7.45,11,33.8,33.8,0,0,0,11.37,7.26,38.78,38.78,0,0,0,14.26,2.57,42.62,42.62,0,0,0,13.81-2.25,33.89,33.89,0,0,0,12.26-7.52l7.33,9.77a45.9,45.9,0,0,1-15.61,8.54A59.68,59.68,0,0,1,744.91,1142.09Zm21.7-13.1v-33.4H779v35.07Z"></path><path class="cls-1" d="M823.39,1129.89H875.8v11.17H810.54v-89.91H874v11.17H823.39Zm-1.16-40h46.24v10.91H822.23Z"></path><path class="cls-1" d="M903.67,1141.06v-89.91H914.2L973.67,1125h-5.52v-73.85H981v89.91H970.46L911,1067.2h5.52v73.86Z"></path><path class="cls-1" d="M1032.89,1141.06v-78.74h-30.83v-11.17h74.37v11.17h-30.82v78.74Z"></path><path class="cls-1" d="M1110.34,1129.89h52.41v11.17H1097.5v-89.91H1161v11.17h-50.61Zm-1.15-40h46.24v10.91h-46.24Z"></path><path class="cls-1" d="M1272.83,1142.09a51.55,51.55,0,0,1-19.07-3.47,45.41,45.41,0,0,1-15.22-9.7,44.46,44.46,0,0,1-10-14.58,48,48,0,0,1,0-36.48,44.67,44.67,0,0,1,10-14.58,45.74,45.74,0,0,1,15.15-9.69,51.31,51.31,0,0,1,19.14-3.47,51.88,51.88,0,0,1,19,3.4,44.91,44.91,0,0,1,15.16,9.63,44,44,0,0,1,10,14.65,49.38,49.38,0,0,1,0,36.67,44,44,0,0,1-10,14.58,44.76,44.76,0,0,1-15.16,9.63A51.88,51.88,0,0,1,1272.83,1142.09Zm0-11.43a36.57,36.57,0,0,0,13.81-2.57,32.63,32.63,0,0,0,11-7.32,34.62,34.62,0,0,0,10-24.67,35.37,35.37,0,0,0-2.63-13.74,33.86,33.86,0,0,0-7.32-11,32.77,32.77,0,0,0-11-7.26,38.71,38.71,0,0,0-27.74,0,33.39,33.39,0,0,0-18.5,18.24,36.89,36.89,0,0,0,0,27.36,34,34,0,0,0,7.39,11,33.18,33.18,0,0,0,11.11,7.32A36.9,36.9,0,0,0,1272.83,1130.66Zm29.42,29.15a32.28,32.28,0,0,1-16.83-4.56,55.42,55.42,0,0,1-8.48-6.16,126.53,126.53,0,0,1-9.5-9.31l13.74-3.6a59.06,59.06,0,0,0,7.39,7.77,24.76,24.76,0,0,0,7,4.37,19,19,0,0,0,6.94,1.35q9.49,0,16.31-7.71l6,7.32A28,28,0,0,1,1302.25,1159.81Z"></path><path class="cls-1" d="M1384.46,1142.09q-17.73,0-27.88-10.15t-10.14-29.67v-51.12h12.84v50.6q0,15,6.62,22t18.68,6.94q12.21,0,18.82-6.94t6.62-22v-50.6h12.46v51.12q0,19.53-10.09,29.67T1384.46,1142.09Z"></path><path class="cls-1" d="M1468.72,1129.89h52.41v11.17h-65.26v-89.91h63.46v11.17h-50.61Zm-1.16-40h46.25v10.91h-46.25Z"></path><path class="cls-1" d="M1549,1141.06v-89.91h35.07q11.81,0,20.16,3.72a28.54,28.54,0,0,1,12.85,10.79,30.66,30.66,0,0,1,4.49,16.83,30.32,30.32,0,0,1-4.49,16.76,28.74,28.74,0,0,1-12.85,10.73q-8.34,3.72-20.16,3.72h-28l5.78-5.91v33.27Zm12.84-32-5.78-6.3h27.62q12.33,0,18.69-5.33t6.36-15q0-9.65-6.36-14.9t-18.69-5.27h-27.62l5.78-6.42Zm47.28,32-22.87-32.63H1600l23.13,32.63Z"></path><path class="cls-1" d="M1728.32,1142.09q-17.73,0-27.88-10.15t-10.15-29.67v-51.12h12.85v50.6q0,15,6.61,22t18.69,6.94q12.21,0,18.82-6.94t6.62-22v-50.6h12.46v51.12q0,19.53-10.09,29.67T1728.32,1142.09Z"></path><path class="cls-1" d="M1825.94,1142.09a61.3,61.3,0,0,1-19.66-3.15q-9.37-3.15-14.77-8.16l4.75-10a42,42,0,0,0,13.11,7.45,47.2,47.2,0,0,0,16.57,3,37.38,37.38,0,0,0,12.71-1.8,15.17,15.17,0,0,0,7.2-4.94,11.76,11.76,0,0,0,2.31-7.13,9.72,9.72,0,0,0-3-7.45,22.14,22.14,0,0,0-7.84-4.56,85.32,85.32,0,0,0-10.59-3q-5.79-1.29-11.63-3a52,52,0,0,1-10.66-4.43,21.84,21.84,0,0,1-7.77-7.26q-3-4.56-3-11.75a23.58,23.58,0,0,1,3.66-12.78q3.66-5.85,11.3-9.38t19.46-3.53a60.09,60.09,0,0,1,15.54,2.05,43.32,43.32,0,0,1,13.36,5.91l-4.24,10.28a41.36,41.36,0,0,0-12.2-5.59,47.56,47.56,0,0,0-12.46-1.73,34.41,34.41,0,0,0-12.46,1.92,15.27,15.27,0,0,0-7.13,5.14,12.24,12.24,0,0,0-2.25,7.19,9.89,9.89,0,0,0,3,7.58,21.56,21.56,0,0,0,7.84,4.5,107,107,0,0,0,10.59,3q5.79,1.35,11.63,3a50,50,0,0,1,10.66,4.37,22,22,0,0,1,7.77,7.2q3,4.48,3,11.56a23.13,23.13,0,0,1-3.73,12.65q-3.72,5.85-11.49,9.38T1825.94,1142.09Z"></path><path class="cls-1" d="M1873,1141.06l40.72-89.91h12.71l40.85,89.91h-13.49l-36.35-82.72h5.14l-36.35,82.72Zm17.34-22.48,3.47-10.27h50.61l3.72,10.27Z"></path><path class="cls-1" d="M1987.65,1141.06v-89.91h35.07q11.82,0,20.17,3.72a28.57,28.57,0,0,1,12.84,10.79,30.66,30.66,0,0,1,4.5,16.83,30.33,30.33,0,0,1-4.5,16.76,28.76,28.76,0,0,1-12.84,10.73q-8.36,3.72-20.17,3.72h-28l5.78-5.91v33.27Zm12.85-32-5.78-6.3h27.62q12.33,0,18.69-5.33t6.35-15q0-9.65-6.35-14.9t-18.69-5.27h-27.62l5.78-6.42Zm47.27,32-22.86-32.63h13.74l23.12,32.63Z"></path><path class="cls-1" d="M2142.56,1141.06h-12.84v-89.91h12.84Zm52.8-40.08h-54.08v-11.17h54.08Zm-1.16-49.83h12.85v89.91H2194.2Z"></path><path class="cls-1" d="M2281.68,1142.09a51.61,51.61,0,0,1-19.08-3.47,45.51,45.51,0,0,1-15.22-9.7,44.77,44.77,0,0,1-10-14.58,48,48,0,0,1,0-36.48,45,45,0,0,1,10-14.58,45.68,45.68,0,0,1,15.16-9.69,51.24,51.24,0,0,1,19.14-3.47,51.92,51.92,0,0,1,19,3.4,45,45,0,0,1,15.15,9.63,44,44,0,0,1,10,14.65,49.38,49.38,0,0,1,0,36.67,44,44,0,0,1-10,14.58,44.81,44.81,0,0,1-15.15,9.63A51.92,51.92,0,0,1,2281.68,1142.09Zm0-11.43a36.52,36.52,0,0,0,13.8-2.57,32.92,32.92,0,0,0,11.05-7.26,33.76,33.76,0,0,0,7.32-11,35.21,35.21,0,0,0,2.64-13.75,34.36,34.36,0,0,0-10-24.66,32.34,32.34,0,0,0-11.05-7.32,36.52,36.52,0,0,0-13.8-2.57,36.91,36.91,0,0,0-13.94,2.57,33,33,0,0,0-11.11,7.32,34.33,34.33,0,0,0-7.39,11,34.93,34.93,0,0,0-2.63,13.68,35.39,35.39,0,0,0,2.63,13.75,33.39,33.39,0,0,0,18.5,18.24A36.91,36.91,0,0,0,2281.68,1130.66Z"></path><path class="cls-1" d="M2365.68,1142.09a33.87,33.87,0,0,1-14.9-3.34,28.68,28.68,0,0,1-11.3-9.64l7.45-8.73a28,28,0,0,0,8.41,7.9,20,20,0,0,0,10.34,2.76q15.42,0,15.42-18.24v-50.48h-32.5v-11.17h45.21v61q0,15-7.13,22.48T2365.68,1142.09Z"></path><path class="cls-1" d="M2439.93,1129.89h52.4v11.17h-65.25v-89.91h63.46v11.17h-50.61Zm-1.16-40H2485v10.91h-46.24Z"></path><path class="cls-1" d="M2522.65,1141.83a8.66,8.66,0,0,1-8.74-8.86,8.32,8.32,0,0,1,2.57-6.3,8.67,8.67,0,0,1,6.17-2.44,8.29,8.29,0,0,1,6,2.44,8.41,8.41,0,0,1,2.5,6.3,8.61,8.61,0,0,1-2.5,6.36A8.15,8.15,0,0,1,2522.65,1141.83Z"></path><rect class="cls-2" x="5.5" y="5.5" width="2710.8" height="308.57"></rect><path class="cls-1" d="M485.13,235.78V89.19h34.13l80.63,97.59H583.76V89.19h40.63V235.78H590.25L509.42,138.2h16.12v97.58Z"></path><path class="cls-1" d="M731.82,238.72a90.84,90.84,0,0,1-32.36-5.66,75,75,0,0,1-42.93-40.31,74.25,74.25,0,0,1-6.17-30.47,73.06,73.06,0,0,1,6.17-30.16,75.47,75.47,0,0,1,42.83-40.2,95.91,95.91,0,0,1,64.92,0A77.14,77.14,0,0,1,790,107.83a74.71,74.71,0,0,1,17.06,24.08,73.58,73.58,0,0,1,6.18,30.37A76.06,76.06,0,0,1,807.21,193a72.26,72.26,0,0,1-17.07,24.19,78.19,78.19,0,0,1-25.86,15.91A90.65,90.65,0,0,1,731.82,238.72Zm0-34.35a41,41,0,0,0,15.6-2.93A35.92,35.92,0,0,0,760,193a40.34,40.34,0,0,0,8.38-13.19,50.63,50.63,0,0,0,0-34.56A40.34,40.34,0,0,0,760,132a35.92,35.92,0,0,0-12.56-8.48,43,43,0,0,0-31.2,0A37,37,0,0,0,703.55,132a37.88,37.88,0,0,0-8.38,13.19,52.42,52.42,0,0,0,0,34.56A37.88,37.88,0,0,0,703.55,193a37,37,0,0,0,12.67,8.48A40.94,40.94,0,0,0,731.82,204.37Z"></path><path class="cls-1" d="M890.76,238.72a133.12,133.12,0,0,1-34.87-4.51q-16.64-4.5-26.91-11.41L842.6,192a96,96,0,0,0,22.72,10.36A84.5,84.5,0,0,0,891,206.47,52.61,52.61,0,0,0,904.9,205c3.42-1,5.93-2.37,7.54-4.19a9.48,9.48,0,0,0,2.4-6.49q0-4.81-4.6-7.64a46,46,0,0,0-12-4.82q-7.44-2-16.13-3.77a162,162,0,0,1-17.69-4.71A68,68,0,0,1,848,165.63a37,37,0,0,1-11.83-12.57q-4.5-7.74-4.5-19.47a41.72,41.72,0,0,1,7.12-23.66q7.11-10.68,21.57-17.18t36-6.49a124.2,124.2,0,0,1,28.37,3.25,83.45,83.45,0,0,1,24.61,9.74l-12.57,30.57a89.68,89.68,0,0,0-20.73-8.59,77.64,77.64,0,0,0-19.89-2.72q-8.6,0-13.82,1.89t-7.54,4.81a10,10,0,0,0-2.31,6.29,8.79,8.79,0,0,0,4.61,7.85A42,42,0,0,0,889.09,144q7.32,1.77,16.23,3.66A181.12,181.12,0,0,1,923,152.33a70.64,70.64,0,0,1,16.23,7.54,37,37,0,0,1,12,12.36q4.61,7.64,4.61,19.16A41.46,41.46,0,0,1,948.66,215q-7.21,10.78-21.67,17.27T890.76,238.72Z"></path><path class="cls-1" d="M1030.44,238.72a133.07,133.07,0,0,1-34.87-4.51q-16.65-4.5-26.91-11.41L982.27,192A96.21,96.21,0,0,0,1005,202.38a84.61,84.61,0,0,0,25.66,4.09,52.48,52.48,0,0,0,13.92-1.47c3.42-1,5.94-2.37,7.54-4.19a9.44,9.44,0,0,0,2.41-6.49q0-4.81-4.61-7.64a45.73,45.73,0,0,0-12-4.82q-7.42-2-16.12-3.77a161.53,161.53,0,0,1-17.7-4.71,67.94,67.94,0,0,1-16.33-7.75,37,37,0,0,1-11.83-12.57q-4.51-7.74-4.51-19.47a41.8,41.8,0,0,1,7.12-23.66q7.13-10.68,21.57-17.18t36-6.49a124.29,124.29,0,0,1,28.38,3.25,83.56,83.56,0,0,1,24.61,9.74l-12.57,30.57a89.68,89.68,0,0,0-20.73-8.59,77.72,77.72,0,0,0-19.9-2.72q-8.58,0-13.82,1.89t-7.54,4.81a10,10,0,0,0-2.3,6.29,8.77,8.77,0,0,0,4.61,7.85,42,42,0,0,0,11.93,4.61q7.34,1.77,16.23,3.66a180.56,180.56,0,0,1,17.7,4.71,70.84,70.84,0,0,1,16.23,7.54,37.07,37.07,0,0,1,12,12.36q4.61,7.64,4.61,19.16a41.46,41.46,0,0,1-7.23,23.56q-7.21,10.78-21.67,17.27T1030.44,238.72Z"></path><path class="cls-1" d="M1192.52,238.72a90.79,90.79,0,0,1-32.35-5.66,75,75,0,0,1-42.93-40.31,74.26,74.26,0,0,1-6.18-30.47,73.07,73.07,0,0,1,6.18-30.16,75.49,75.49,0,0,1,42.82-40.2,95.91,95.91,0,0,1,64.92,0,77,77,0,0,1,25.76,15.91,74.59,74.59,0,0,1,17.07,24.08,73.74,73.74,0,0,1,6.18,30.37,75.9,75.9,0,0,1-6.08,30.68,72.37,72.37,0,0,1-17.06,24.19A78.24,78.24,0,0,1,1225,233.06,90.57,90.57,0,0,1,1192.52,238.72Zm0-34.35a40.94,40.94,0,0,0,15.6-2.93,36,36,0,0,0,12.57-8.48,40.34,40.34,0,0,0,8.38-13.19,50.79,50.79,0,0,0,0-34.56,40.34,40.34,0,0,0-8.38-13.19,36,36,0,0,0-12.57-8.48,43,43,0,0,0-31.2,0,37.1,37.1,0,0,0-12.67,8.48,38,38,0,0,0-8.37,13.19,52.25,52.25,0,0,0,0,34.56,38,38,0,0,0,8.37,13.19,37.1,37.1,0,0,0,12.67,8.48A41,41,0,0,0,1192.52,204.37Z"></path><path class="cls-1" d="M1406.12,203.53h76.65v32.25H1365.29V89.19h114.76v32.25h-73.93Zm-2.93-57.59h68.06v30.79h-68.06Z"></path><path class="cls-1" d="M1561.51,238.72a133.07,133.07,0,0,1-34.87-4.51q-16.65-4.5-26.91-11.41L1513.34,192a96.21,96.21,0,0,0,22.72,10.36,84.61,84.61,0,0,0,25.66,4.09,52.48,52.48,0,0,0,13.92-1.47c3.42-1,5.94-2.37,7.54-4.19a9.44,9.44,0,0,0,2.41-6.49q0-4.81-4.61-7.64a45.73,45.73,0,0,0-12-4.82q-7.44-2-16.12-3.77a161.53,161.53,0,0,1-17.7-4.71,67.94,67.94,0,0,1-16.33-7.75A37.06,37.06,0,0,1,1507,153.06q-4.5-7.74-4.5-19.47a41.72,41.72,0,0,1,7.12-23.66q7.13-10.68,21.57-17.18t36-6.49a124.35,124.35,0,0,1,28.38,3.25,83.39,83.39,0,0,1,24.6,9.74l-12.56,30.57a89.86,89.86,0,0,0-20.73-8.59,77.78,77.78,0,0,0-19.9-2.72q-8.58,0-13.82,1.89t-7.54,4.81a10,10,0,0,0-2.3,6.29,8.77,8.77,0,0,0,4.61,7.85,41.78,41.78,0,0,0,11.93,4.61q7.34,1.77,16.23,3.66a182.07,182.07,0,0,1,17.7,4.71,70.84,70.84,0,0,1,16.23,7.54,37.17,37.17,0,0,1,12,12.36q4.6,7.64,4.6,19.16a41.45,41.45,0,0,1-7.22,23.56q-7.23,10.78-21.67,17.27T1561.51,238.72Z"></path><path class="cls-1" d="M1678.78,235.78V122.07h-45V89.19h131.31v32.88h-44.82V235.78Z"></path><path class="cls-1" d="M1785,235.78V89.19h41.46V235.78Z"></path><path class="cls-1" d="M1860.13,235.78V89.19h41.46V202.91h69.74v32.87Z"></path><path class="cls-1" d="M2063.47,238.72a90.84,90.84,0,0,1-32.36-5.66,75,75,0,0,1-42.93-40.31,74.41,74.41,0,0,1-6.17-30.47,73.22,73.22,0,0,1,6.17-30.16A75.47,75.47,0,0,1,2031,91.92a95.91,95.91,0,0,1,64.92,0,77,77,0,0,1,25.76,15.91,74.71,74.71,0,0,1,17.06,24.08,73.58,73.58,0,0,1,6.18,30.37,75.89,75.89,0,0,1-6.07,30.68,72.26,72.26,0,0,1-17.07,24.19,78.19,78.19,0,0,1-25.86,15.91A90.61,90.61,0,0,1,2063.47,238.72Zm0-34.35a41,41,0,0,0,15.6-2.93,36,36,0,0,0,12.57-8.48,40.15,40.15,0,0,0,8.37-13.19,50.63,50.63,0,0,0,0-34.56,40.15,40.15,0,0,0-8.37-13.19,36,36,0,0,0-12.57-8.48,43,43,0,0,0-31.2,0A37,37,0,0,0,2035.2,132a38.17,38.17,0,0,0-8.38,13.19,52.42,52.42,0,0,0,0,34.56A38.17,38.17,0,0,0,2035.2,193a37,37,0,0,0,12.67,8.48A40.94,40.94,0,0,0,2063.47,204.37Z"></path><path class="cls-1" d="M2194.35,182.38a31.09,31.09,0,0,1,2.2-12.14,41.81,41.81,0,0,1,5.55-9.53,63.73,63.73,0,0,1,7.23-7.85q3.87-3.57,7.22-6.71a34.64,34.64,0,0,0,5.55-6.59,13.24,13.24,0,0,0,2.2-7.23,11.4,11.4,0,0,0-5.13-9.73q-5.15-3.67-13.3-3.67a29.51,29.51,0,0,0-15.18,4,30.93,30.93,0,0,0-11,10.89l-31.2-16.54a61.79,61.79,0,0,1,23.66-22.52q15.29-8.47,38.75-8.48,16.11,0,28.48,4.5t19.47,13.3q7.13,8.81,7.12,21.57a38.4,38.4,0,0,1-2.41,14.24,35.78,35.78,0,0,1-6.49,10.68q-4.08,4.6-8.27,8.48t-8.27,7.44a34.16,34.16,0,0,0-6.49,7.33,15.54,15.54,0,0,0-2.41,8.58ZM2213,237.67q-10.47,0-17.07-6.49a21,21,0,0,1-6.59-15.5,20.21,20.21,0,0,1,6.59-15.39q6.6-6.18,17.07-6.18,10.68,0,17.28,6.18a20.25,20.25,0,0,1,6.59,15.39,21,21,0,0,1-6.59,15.5Q2223.67,237.68,2213,237.67Z"></path></g></g></svg>