<svg xmlns="http://www.w3.org/2000/svg" viewBox="0 0 1272.86 896.09"><defs><style>.cls-1{fill:#d7d8dc;}.cls-2{fill:#fff;}</style></defs><title>7</title><g id="Camada_2" data-name="Camada 2"><g id="Camada_1-2" data-name="Camada 1"><g id="pra_gnt" data-name="pra gnt"><rect class="cls-1" y="573.63" width="1272.86" height="322.46"></rect><path d="M139.92,661a19.15,19.15,0,0,1-7.13-1.3,17,17,0,0,1-5.69-3.62,16.62,16.62,0,0,1-3.74-5.45,18,18,0,0,1,0-13.63,16.62,16.62,0,0,1,3.74-5.45,17,17,0,0,1,5.67-3.62,19.07,19.07,0,0,1,7.15-1.3,19.52,19.52,0,0,1,7.1,1.27,16.84,16.84,0,0,1,5.67,3.6,16.43,16.43,0,0,1,3.72,5.48,18.43,18.43,0,0,1,0,13.7,16.41,16.41,0,0,1-3.72,5.45,16.84,16.84,0,0,1-5.67,3.6A19.31,19.31,0,0,1,139.92,661Zm0-4.27a13.65,13.65,0,0,0,5.16-1,12.45,12.45,0,0,0,4.13-2.71,12.68,12.68,0,0,0,2.73-4.11,13.76,13.76,0,0,0,0-10.25,13,13,0,0,0-2.73-4.1,12.23,12.23,0,0,0-4.13-2.74,13.65,13.65,0,0,0-5.16-1,13.8,13.8,0,0,0-5.21,1,12.41,12.41,0,0,0-4.15,2.74,12.56,12.56,0,0,0-2.76,4.1,13.89,13.89,0,0,0,0,10.25,12.3,12.3,0,0,0,2.76,4.11,12.64,12.64,0,0,0,4.15,2.71A13.8,13.8,0,0,0,139.92,656.73Z"></path><path d="M198.43,661a19.15,19.15,0,0,1-7.13-1.3,17,17,0,0,1-5.69-3.62,16.77,16.77,0,0,1-3.74-5.45,18,18,0,0,1,0-13.63,16.77,16.77,0,0,1,3.74-5.45,17,17,0,0,1,5.67-3.62,19.07,19.07,0,0,1,7.15-1.3,19.52,19.52,0,0,1,7.1,1.27,16.84,16.84,0,0,1,5.67,3.6,16.43,16.43,0,0,1,3.72,5.48,18.43,18.43,0,0,1,0,13.7,16.41,16.41,0,0,1-3.72,5.45,16.84,16.84,0,0,1-5.67,3.6A19.31,19.31,0,0,1,198.43,661Zm0-4.27a13.62,13.62,0,0,0,5.16-1,12.08,12.08,0,0,0,4.13-2.74,12.71,12.71,0,0,0,2.73-4.13,12.93,12.93,0,0,0,1-5.08,13.12,13.12,0,0,0-1-5.14,12.39,12.39,0,0,0-6.86-6.82,13.62,13.62,0,0,0-5.16-1,13.8,13.8,0,0,0-5.21,1,12.52,12.52,0,0,0-6.91,6.82,13.11,13.11,0,0,0-1,5.14,12.81,12.81,0,0,0,3.74,9.21,12.26,12.26,0,0,0,4.15,2.74A13.8,13.8,0,0,0,198.43,656.73Zm11,10.89a12.49,12.49,0,0,1-3.21-.4,13.09,13.09,0,0,1-3.08-1.3,20.56,20.56,0,0,1-3.16-2.3,49.14,49.14,0,0,1-3.56-3.48l5.14-1.35a22.48,22.48,0,0,0,2.76,2.91,9.29,9.29,0,0,0,2.62,1.63,7.18,7.18,0,0,0,2.59.5,7.84,7.84,0,0,0,6.09-2.88l2.26,2.74A10.48,10.48,0,0,1,209.42,667.62Z"></path><path d="M240.14,661c-4.41,0-7.89-1.26-10.41-3.79s-3.8-6.23-3.8-11.09V627h4.8v18.91q0,5.61,2.48,8.21a10.77,10.77,0,0,0,14,0q2.47-2.6,2.47-8.21V627h4.66v19.1q0,7.29-3.77,11.09T240.14,661Z"></path><path d="M271.63,656.44h19.58v4.18H266.83V627h23.71v4.17H271.63Zm-.43-14.93h17.28v4.08H271.2Z"></path><path d="M317.18,660.62V627h14.16a20.37,20.37,0,0,1,9.48,2.11,15.58,15.58,0,0,1,6.39,5.9,18.06,18.06,0,0,1,0,17.57,15.52,15.52,0,0,1-6.39,5.9,20.38,20.38,0,0,1-9.48,2.12Zm4.8-4.18h9.07a15.55,15.55,0,0,0,7.23-1.58,11.59,11.59,0,0,0,4.73-4.44,13.86,13.86,0,0,0,0-13.23,11.52,11.52,0,0,0-4.73-4.41,15.43,15.43,0,0,0-7.23-1.59H322Z"></path><path d="M364.27,656.44h19.58v4.18H359.47V627h23.71v4.17H364.27Zm-.43-14.93h17.28v4.08H363.84Z"></path><path d="M403.49,660.62,388.7,627h5.19l13.58,31h-3l13.68-31H423l-14.73,33.6Z"></path><path d="M434.69,656.44h19.58v4.18H429.89V627H453.6v4.17H434.69Zm-.44-14.93h17.28v4.08H434.25Z"></path><path d="M485,656.44h19.58v4.18H480.24V627H504v4.17H485Zm-.43-14.93h17.28v4.08H484.61Z"></path><path d="M510.24,660.62l14-19.06v3.7L511,627h5.47l10.46,14.35-2.16,0L535.2,627h5.23l-13.1,18v-3.46l14,19.11h-5.52L524.64,645.3h2.11l-11,15.32Z"></path><path d="M548.49,660.62V627h4.8v33.6Z"></path><path d="M575.81,661a22.82,22.82,0,0,1-7.35-1.18,15.2,15.2,0,0,1-5.52-3l1.78-3.75a15.69,15.69,0,0,0,4.89,2.79,17.84,17.84,0,0,0,6.2,1.1,14,14,0,0,0,4.75-.67,5.74,5.74,0,0,0,2.69-1.85,4.41,4.41,0,0,0,.86-2.66A3.65,3.65,0,0,0,583,649a8.39,8.39,0,0,0-2.93-1.7,32.92,32.92,0,0,0-4-1.13c-1.44-.32-2.88-.7-4.34-1.13a19.31,19.31,0,0,1-4-1.65,8.26,8.26,0,0,1-2.91-2.72,8,8,0,0,1-1.1-4.39,8.72,8.72,0,0,1,1.37-4.77,9.48,9.48,0,0,1,4.22-3.51,17.37,17.37,0,0,1,7.27-1.32,22.57,22.57,0,0,1,5.81.77,16.16,16.16,0,0,1,5,2.21l-1.58,3.84a15.39,15.39,0,0,0-4.56-2.09,17.92,17.92,0,0,0-4.66-.65,12.75,12.75,0,0,0-4.65.72,5.68,5.68,0,0,0-2.67,1.92,4.59,4.59,0,0,0-.84,2.69,3.7,3.7,0,0,0,1.13,2.83,7.92,7.92,0,0,0,2.93,1.68,39.56,39.56,0,0,0,4,1.13c1.44.34,2.89.71,4.34,1.13a18.32,18.32,0,0,1,4,1.63,8.23,8.23,0,0,1,2.9,2.69,7.69,7.69,0,0,1,1.1,4.32,8.64,8.64,0,0,1-1.39,4.73,9.69,9.69,0,0,1-4.29,3.5A17.75,17.75,0,0,1,575.81,661Z"></path><path d="M604.65,660.62V631.19H593.13V627h27.8v4.17H609.41v29.43Z"></path><path d="M628.8,660.62V627h4.8v33.6Z"></path><path d="M646.32,660.62V627h13.1a18.39,18.39,0,0,1,7.54,1.39,10.68,10.68,0,0,1,4.8,4,11.48,11.48,0,0,1,1.68,6.29,11.32,11.32,0,0,1-1.68,6.26,10.7,10.7,0,0,1-4.8,4,18.39,18.39,0,0,1-7.54,1.39H649l2.16-2.21v12.44Zm4.8-12L649,646.31h10.32q4.61,0,7-2a7.73,7.73,0,0,0,0-11.16q-2.37-2-7-2H649l2.16-2.4Zm17.66,12-8.54-12.2h5.13l8.64,12.2Z"></path><path d="M704.21,656.44h19.58v4.18H699.41V627h23.71v4.17H704.21Zm-.44-14.93h17.28v4.08H703.77Zm3.94-17.23,6.53-6.24h5.85L712,624.28Z"></path><path d="M764.92,661a19.1,19.1,0,0,1-7.12-1.3,16.93,16.93,0,0,1-5.69-3.62,16.62,16.62,0,0,1-3.74-5.45,17.88,17.88,0,0,1,0-13.63,16.62,16.62,0,0,1,3.74-5.45,17.1,17.1,0,0,1,5.66-3.62,19.11,19.11,0,0,1,7.15-1.3A19.57,19.57,0,0,1,772,627.9a16.89,16.89,0,0,1,5.66,3.6,16.43,16.43,0,0,1,3.72,5.48,18.43,18.43,0,0,1,0,13.7,16.41,16.41,0,0,1-3.72,5.45,16.89,16.89,0,0,1-5.66,3.6A19.37,19.37,0,0,1,764.92,661Zm0-4.27a13.7,13.7,0,0,0,5.17-1,12.41,12.41,0,0,0,4.12-2.71A12.71,12.71,0,0,0,777,649a13.89,13.89,0,0,0,0-10.25,13,13,0,0,0-2.74-4.1,12.19,12.19,0,0,0-4.12-2.74,14.48,14.48,0,0,0-10.37,0,12.31,12.31,0,0,0-4.15,2.74,12.56,12.56,0,0,0-2.76,4.1,13.76,13.76,0,0,0,0,10.25,12.3,12.3,0,0,0,2.76,4.11,12.54,12.54,0,0,0,4.15,2.71A13.75,13.75,0,0,0,764.92,656.73Z"></path><path d="M808.27,660.62V627h13.1a18.39,18.39,0,0,1,7.54,1.39,10.68,10.68,0,0,1,4.8,4,11.48,11.48,0,0,1,1.68,6.29,11.32,11.32,0,0,1-1.68,6.26,10.7,10.7,0,0,1-4.8,4,18.39,18.39,0,0,1-7.54,1.39H810.91l2.16-2.21v12.44Zm4.8-12-2.16-2.35h10.32q4.6,0,7-2a7.73,7.73,0,0,0,0-11.16q-2.37-2-7-2H810.91l2.16-2.4Zm17.66,12-8.54-12.2h5.13l8.64,12.2Z"></path><path d="M850.6,656.44h19.59v4.18H845.8V627h23.72v4.17H850.6Zm-.43-14.93h17.28v4.08H850.17Z"></path><path d="M890.4,661a22.82,22.82,0,0,1-7.35-1.18,15.2,15.2,0,0,1-5.52-3l1.78-3.75a15.69,15.69,0,0,0,4.89,2.79,17.84,17.84,0,0,0,6.2,1.1,14,14,0,0,0,4.75-.67,5.74,5.74,0,0,0,2.69-1.85,4.41,4.41,0,0,0,.86-2.66,3.65,3.65,0,0,0-1.13-2.79,8.39,8.39,0,0,0-2.93-1.7,32.92,32.92,0,0,0-4-1.13c-1.44-.32-2.88-.7-4.34-1.13a19.31,19.31,0,0,1-4-1.65,8.26,8.26,0,0,1-2.91-2.72,8,8,0,0,1-1.1-4.39,8.72,8.72,0,0,1,1.37-4.77,9.48,9.48,0,0,1,4.22-3.51,17.37,17.37,0,0,1,7.27-1.32,22.57,22.57,0,0,1,5.81.77,16.16,16.16,0,0,1,5,2.21l-1.58,3.84a15.39,15.39,0,0,0-4.56-2.09,17.92,17.92,0,0,0-4.66-.65,12.75,12.75,0,0,0-4.65.72,5.68,5.68,0,0,0-2.67,1.92,4.59,4.59,0,0,0-.84,2.69,3.7,3.7,0,0,0,1.13,2.83,7.92,7.92,0,0,0,2.93,1.68,39.56,39.56,0,0,0,4,1.13c1.44.34,2.89.71,4.34,1.13a18.32,18.32,0,0,1,4,1.63,8.23,8.23,0,0,1,2.9,2.69,7.69,7.69,0,0,1,1.1,4.32,8.64,8.64,0,0,1-1.39,4.73,9.69,9.69,0,0,1-4.29,3.5A17.75,17.75,0,0,1,890.4,661Z"></path><path d="M913.05,660.62V627h13.11a18.38,18.38,0,0,1,7.53,1.39,10.68,10.68,0,0,1,4.8,4,11.48,11.48,0,0,1,1.68,6.29,11.32,11.32,0,0,1-1.68,6.26,10.8,10.8,0,0,1-4.8,4,18,18,0,0,1-7.53,1.42H915.69l2.16-2.26v12.44Zm4.8-12-2.16-2.4H926q4.61,0,7-2a7.73,7.73,0,0,0,0-11.14q-2.38-2-7-2H915.69l2.16-2.4Z"></path><path d="M954.67,656.44h19.58v4.18H949.87V627h23.71v4.17H954.67Zm-.43-14.93h17.28v4.08H954.24Z"></path><path d="M984.67,660.62V627h4.8v33.6Z"></path><path d="M1008.86,660.62V631.19H997.34V627h27.79v4.17h-11.52v29.43Z"></path><path d="M1047.69,661a19.19,19.19,0,0,1-7.13-1.3,17,17,0,0,1-5.68-3.62,16.8,16.8,0,0,1-3.75-5.45,18,18,0,0,1,0-13.63,16.8,16.8,0,0,1,3.75-5.45,17,17,0,0,1,5.66-3.62,19.11,19.11,0,0,1,7.15-1.3,19.61,19.61,0,0,1,7.11,1.27,16.89,16.89,0,0,1,5.66,3.6,16.43,16.43,0,0,1,3.72,5.48,18.43,18.43,0,0,1,0,13.7,16.41,16.41,0,0,1-3.72,5.45,16.89,16.89,0,0,1-5.66,3.6A19.4,19.4,0,0,1,1047.69,661Zm0-4.27a13.62,13.62,0,0,0,5.16-1,12.35,12.35,0,0,0,4.13-2.71,12.71,12.71,0,0,0,2.74-4.11,13.89,13.89,0,0,0,0-10.25,13,13,0,0,0-2.74-4.1,12.13,12.13,0,0,0-4.13-2.74,13.62,13.62,0,0,0-5.16-1,13.8,13.8,0,0,0-5.21,1,12.51,12.51,0,0,0-4.15,2.74,12.88,12.88,0,0,0-2.76,4.1,13.89,13.89,0,0,0,0,10.25,12.6,12.6,0,0,0,2.76,4.11,12.75,12.75,0,0,0,4.15,2.71A13.8,13.8,0,0,0,1047.69,656.73Z"></path><path d="M1086,660.62l15.21-33.6h4.76l15.26,33.6h-5l-13.59-30.92h1.93l-13.59,30.92Zm6.48-8.4,1.29-3.84h18.91l1.4,3.84Zm10.41-27.94-8.06-6.24h5.85l6.53,6.24Z"></path><path d="M1138.6,661a22.71,22.71,0,0,1-7.34-1.18,15,15,0,0,1-5.52-3l1.78-3.75a15.69,15.69,0,0,0,4.89,2.79,17.83,17.83,0,0,0,6.19,1.1,14,14,0,0,0,4.76-.67,5.65,5.65,0,0,0,2.68-1.85,4.35,4.35,0,0,0,.87-2.66,3.65,3.65,0,0,0-1.13-2.79,8.39,8.39,0,0,0-2.93-1.7,32.92,32.92,0,0,0-4-1.13c-1.44-.32-2.89-.7-4.34-1.13a19.4,19.4,0,0,1-4-1.65,8.23,8.23,0,0,1-2.9-2.72,7.9,7.9,0,0,1-1.1-4.39,8.79,8.79,0,0,1,1.36-4.77,9.51,9.51,0,0,1,4.23-3.51,17.34,17.34,0,0,1,7.27-1.32,22.57,22.57,0,0,1,5.81.77,16.16,16.16,0,0,1,5,2.21l-1.58,3.84a15.51,15.51,0,0,0-4.56-2.09,18,18,0,0,0-4.66-.65,12.85,12.85,0,0,0-4.66.72,5.69,5.69,0,0,0-2.66,1.92,4.59,4.59,0,0,0-.84,2.69,3.66,3.66,0,0,0,1.13,2.83,7.92,7.92,0,0,0,2.93,1.68,39.56,39.56,0,0,0,4,1.13c1.44.34,2.88.71,4.34,1.13a18.23,18.23,0,0,1,4,1.63,8.27,8.27,0,0,1,2.91,2.69,7.78,7.78,0,0,1,1.1,4.32,8.64,8.64,0,0,1-1.39,4.73,9.66,9.66,0,0,1-4.3,3.5A17.68,17.68,0,0,1,1138.6,661Z"></path><path d="M85.1,718.22v-33.6H89l22.22,27.6H109.2v-27.6H114v33.6h-3.94l-22.22-27.6H89.9v27.6Z"></path><path d="M141.89,718.6a19.15,19.15,0,0,1-7.13-1.3,17,17,0,0,1-5.69-3.62,16.62,16.62,0,0,1-3.74-5.45,17.88,17.88,0,0,1,0-13.63,16.62,16.62,0,0,1,3.74-5.45,17,17,0,0,1,5.67-3.62,19.07,19.07,0,0,1,7.15-1.3,19.52,19.52,0,0,1,7.1,1.27,16.84,16.84,0,0,1,5.67,3.6,16.43,16.43,0,0,1,3.72,5.48,18.43,18.43,0,0,1,0,13.7,16.41,16.41,0,0,1-3.72,5.45,16.84,16.84,0,0,1-5.67,3.6A19.31,19.31,0,0,1,141.89,718.6Zm0-4.27a13.69,13.69,0,0,0,5.16-1,12.45,12.45,0,0,0,4.13-2.71,12.68,12.68,0,0,0,2.73-4.11,13.18,13.18,0,0,0-2.73-14.35,12.38,12.38,0,0,0-4.13-2.74,14.48,14.48,0,0,0-10.37,0,12.64,12.64,0,0,0-6.91,6.84,13.76,13.76,0,0,0,0,10.25,12.3,12.3,0,0,0,2.76,4.11,12.64,12.64,0,0,0,4.15,2.71A13.76,13.76,0,0,0,141.89,714.33Z"></path><path d="M179.47,718.6a22.71,22.71,0,0,1-7.34-1.18,15,15,0,0,1-5.52-3l1.77-3.75a15.74,15.74,0,0,0,4.9,2.79,17.78,17.78,0,0,0,6.19,1.1,13.93,13.93,0,0,0,4.75-.67,5.64,5.64,0,0,0,2.69-1.85,4.35,4.35,0,0,0,.87-2.66,3.65,3.65,0,0,0-1.13-2.79,8.39,8.39,0,0,0-2.93-1.7,32.92,32.92,0,0,0-4-1.13c-1.44-.32-2.89-.7-4.34-1.13a19.4,19.4,0,0,1-4-1.65,8.14,8.14,0,0,1-2.9-2.72,7.9,7.9,0,0,1-1.11-4.39,8.8,8.8,0,0,1,1.37-4.77,9.46,9.46,0,0,1,4.23-3.51,17.34,17.34,0,0,1,7.27-1.32,22.57,22.57,0,0,1,5.81.77,16.16,16.16,0,0,1,5,2.21l-1.59,3.84a15.39,15.39,0,0,0-4.56-2.09,17.9,17.9,0,0,0-4.65-.65,12.85,12.85,0,0,0-4.66.72A5.69,5.69,0,0,0,173,691a4.59,4.59,0,0,0-.84,2.69,3.66,3.66,0,0,0,1.13,2.83,7.88,7.88,0,0,0,2.92,1.68,39.56,39.56,0,0,0,4,1.13c1.44.34,2.89.71,4.35,1.13a18.44,18.44,0,0,1,4,1.63,8.27,8.27,0,0,1,2.91,2.69,7.78,7.78,0,0,1,1.1,4.32,8.64,8.64,0,0,1-1.39,4.73,9.66,9.66,0,0,1-4.3,3.5A17.68,17.68,0,0,1,179.47,718.6Z"></path><path d="M211.92,718.6a22.82,22.82,0,0,1-7.35-1.18,15.2,15.2,0,0,1-5.52-3l1.78-3.75a15.63,15.63,0,0,0,4.9,2.79,17.78,17.78,0,0,0,6.19,1.1,14,14,0,0,0,4.75-.67,5.69,5.69,0,0,0,2.69-1.85,4.34,4.34,0,0,0,.86-2.66,3.62,3.62,0,0,0-1.13-2.79,8.34,8.34,0,0,0-2.92-1.7,32.92,32.92,0,0,0-4-1.13c-1.44-.32-2.89-.7-4.35-1.13a19.54,19.54,0,0,1-4-1.65,8.14,8.14,0,0,1-2.9-2.72,7.9,7.9,0,0,1-1.11-4.39,8.8,8.8,0,0,1,1.37-4.77,9.48,9.48,0,0,1,4.22-3.51,17.42,17.42,0,0,1,7.28-1.32,22.49,22.49,0,0,1,5.8.77,16.22,16.22,0,0,1,5,2.21L222,691.05a15.39,15.39,0,0,0-4.56-2.09,17.9,17.9,0,0,0-4.65-.65,12.81,12.81,0,0,0-4.66.72,5.59,5.59,0,0,0-2.66,1.92,4.53,4.53,0,0,0-.85,2.69,3.7,3.7,0,0,0,1.13,2.83,7.92,7.92,0,0,0,2.93,1.68,39.56,39.56,0,0,0,4,1.13c1.44.34,2.89.71,4.35,1.13a18.44,18.44,0,0,1,4,1.63,8.15,8.15,0,0,1,2.9,2.69,7.7,7.7,0,0,1,1.11,4.32,8.73,8.73,0,0,1-1.39,4.73,9.72,9.72,0,0,1-4.3,3.5A17.75,17.75,0,0,1,211.92,718.6Z"></path><path d="M229.49,718.22l15.21-33.6h4.75l15.27,33.6h-5L246.09,687.3H248l-13.58,30.92Zm6.48-8.4,1.29-3.84h18.91l1.4,3.84Z"></path><path d="M282.14,718.6a22.71,22.71,0,0,1-7.34-1.18,15,15,0,0,1-5.52-3l1.77-3.75a15.74,15.74,0,0,0,4.9,2.79,17.78,17.78,0,0,0,6.19,1.1,13.93,13.93,0,0,0,4.75-.67,5.64,5.64,0,0,0,2.69-1.85,4.35,4.35,0,0,0,.87-2.66,3.65,3.65,0,0,0-1.13-2.79,8.39,8.39,0,0,0-2.93-1.7,32.92,32.92,0,0,0-4-1.13c-1.44-.32-2.89-.7-4.34-1.13a19.4,19.4,0,0,1-4-1.65,8.14,8.14,0,0,1-2.9-2.72,7.9,7.9,0,0,1-1.11-4.39,8.8,8.8,0,0,1,1.37-4.77,9.46,9.46,0,0,1,4.23-3.51,17.34,17.34,0,0,1,7.27-1.32,22.57,22.57,0,0,1,5.81.77,16.16,16.16,0,0,1,5,2.21l-1.59,3.84a15.39,15.39,0,0,0-4.56-2.09,17.9,17.9,0,0,0-4.65-.65,12.85,12.85,0,0,0-4.66.72,5.69,5.69,0,0,0-2.66,1.92,4.59,4.59,0,0,0-.84,2.69,3.66,3.66,0,0,0,1.13,2.83,7.88,7.88,0,0,0,2.92,1.68,39.56,39.56,0,0,0,4,1.13c1.44.34,2.89.71,4.35,1.13a18.44,18.44,0,0,1,4,1.63,8.27,8.27,0,0,1,2.91,2.69,7.78,7.78,0,0,1,1.1,4.32,8.64,8.64,0,0,1-1.39,4.73,9.66,9.66,0,0,1-4.3,3.5A17.68,17.68,0,0,1,282.14,718.6Z"></path><path d="M320.35,718.22v-33.6h4.8v33.6Z"></path><path d="M337.87,718.22v-33.6H352a20.43,20.43,0,0,1,9.48,2.11,15.62,15.62,0,0,1,6.38,5.9,18.06,18.06,0,0,1,0,17.57,15.49,15.49,0,0,1-6.38,5.9,20.43,20.43,0,0,1-9.48,2.12Zm4.8-4.18h9.07a15.58,15.58,0,0,0,7.23-1.58,11.56,11.56,0,0,0,4.72-4.44,13.86,13.86,0,0,0,0-13.23,11.49,11.49,0,0,0-4.72-4.41,15.45,15.45,0,0,0-7.23-1.59h-9.07Z"></path><path d="M385,714h19.58v4.18H380.16v-33.6h23.71v4.17H385Zm-.43-14.93h17.28v4.08H384.53Zm3.93-17.23,6.53-6.24h5.86l-8.07,6.24Z"></path><path d="M415,718.22v-33.6h4.8v33.6Z"></path><path d="M427.39,718.22l15.22-33.6h4.75l15.26,33.6h-5L444,687.3h1.92l-13.59,30.92Zm6.48-8.4,1.3-3.84h18.91l1.39,3.84Z"></path><path d="M480.05,718.6a22.82,22.82,0,0,1-7.35-1.18,15.2,15.2,0,0,1-5.52-3l1.78-3.75a15.69,15.69,0,0,0,4.89,2.79,17.84,17.84,0,0,0,6.2,1.1,14,14,0,0,0,4.75-.67,5.74,5.74,0,0,0,2.69-1.85,4.41,4.41,0,0,0,.86-2.66,3.65,3.65,0,0,0-1.13-2.79,8.39,8.39,0,0,0-2.93-1.7,32.92,32.92,0,0,0-4-1.13c-1.44-.32-2.88-.7-4.34-1.13a19.31,19.31,0,0,1-4-1.65,8.26,8.26,0,0,1-2.91-2.72,7.9,7.9,0,0,1-1.1-4.39,8.72,8.72,0,0,1,1.37-4.77,9.48,9.48,0,0,1,4.22-3.51,17.37,17.37,0,0,1,7.27-1.32,22.57,22.57,0,0,1,5.81.77,16.16,16.16,0,0,1,5,2.21l-1.58,3.84a15.39,15.39,0,0,0-4.56-2.09,17.92,17.92,0,0,0-4.66-.65,12.75,12.75,0,0,0-4.65.72,5.68,5.68,0,0,0-2.67,1.92,4.59,4.59,0,0,0-.84,2.69,3.7,3.7,0,0,0,1.13,2.83,7.92,7.92,0,0,0,2.93,1.68,39.56,39.56,0,0,0,4,1.13c1.44.34,2.89.71,4.34,1.13a18.32,18.32,0,0,1,4,1.63,8.23,8.23,0,0,1,2.9,2.69,7.69,7.69,0,0,1,1.1,4.32,8.64,8.64,0,0,1-1.39,4.73,9.69,9.69,0,0,1-4.29,3.5A17.75,17.75,0,0,1,480.05,718.6Z"></path><path d="M523.05,714h19.59v4.18H518.25v-33.6H542v4.17H523.05Zm-.43-14.93H539.9v4.08H522.62Z"></path><path d="M563.52,718.22l15.21-33.6h4.76l15.26,33.6h-5L580.13,687.3h1.92l-13.59,30.92Zm6.48-8.4,1.29-3.84h18.92l1.39,3.84Z"></path><path d="M616.17,718.6a22.71,22.71,0,0,1-7.34-1.18,15,15,0,0,1-5.52-3l1.78-3.75a15.57,15.57,0,0,0,4.89,2.79,17.78,17.78,0,0,0,6.19,1.1,13.93,13.93,0,0,0,4.75-.67,5.64,5.64,0,0,0,2.69-1.85,4.35,4.35,0,0,0,.87-2.66,3.65,3.65,0,0,0-1.13-2.79,8.39,8.39,0,0,0-2.93-1.7,32.92,32.92,0,0,0-4-1.13c-1.44-.32-2.89-.7-4.34-1.13a19.4,19.4,0,0,1-4-1.65,8.14,8.14,0,0,1-2.9-2.72,7.9,7.9,0,0,1-1.1-4.39,8.79,8.79,0,0,1,1.36-4.77,9.46,9.46,0,0,1,4.23-3.51,17.34,17.34,0,0,1,7.27-1.32,22.57,22.57,0,0,1,5.81.77,16.16,16.16,0,0,1,5,2.21l-1.59,3.84a15.45,15.45,0,0,0-4.55-2.09,18,18,0,0,0-4.66-.65,12.85,12.85,0,0,0-4.66.72,5.69,5.69,0,0,0-2.66,1.92,4.59,4.59,0,0,0-.84,2.69,3.66,3.66,0,0,0,1.13,2.83,8,8,0,0,0,2.92,1.68,40.34,40.34,0,0,0,4,1.13c1.44.34,2.89.71,4.35,1.13a18.44,18.44,0,0,1,4,1.63,8.27,8.27,0,0,1,2.91,2.69,7.78,7.78,0,0,1,1.1,4.32,8.64,8.64,0,0,1-1.39,4.73,9.66,9.66,0,0,1-4.3,3.5A17.68,17.68,0,0,1,616.17,718.6Z"></path><path d="M654.38,718.22v-33.6h3.94l22.22,27.6h-2.06v-27.6h4.8v33.6h-3.94l-22.22-27.6h2.06v27.6Z"></path><path d="M711.16,718.6a19.1,19.1,0,0,1-7.12-1.3,16.75,16.75,0,0,1-9.44-9.07,18,18,0,0,1,0-13.63,16.8,16.8,0,0,1,3.75-5.45,17.1,17.1,0,0,1,5.66-3.62,19.11,19.11,0,0,1,7.15-1.3,19.61,19.61,0,0,1,7.11,1.27,16.89,16.89,0,0,1,5.66,3.6,16.43,16.43,0,0,1,3.72,5.48,18.43,18.43,0,0,1,0,13.7,16.41,16.41,0,0,1-3.72,5.45,16.89,16.89,0,0,1-5.66,3.6A19.4,19.4,0,0,1,711.16,718.6Zm0-4.27a13.62,13.62,0,0,0,5.16-1,12.35,12.35,0,0,0,4.13-2.71,12.71,12.71,0,0,0,2.74-4.11,13.89,13.89,0,0,0,0-10.25,13,13,0,0,0-2.74-4.1,12.28,12.28,0,0,0-4.13-2.74,14.46,14.46,0,0,0-10.36,0,12.61,12.61,0,0,0-4.16,2.74,12.88,12.88,0,0,0-2.76,4.1,13.89,13.89,0,0,0,0,10.25,12.41,12.41,0,0,0,6.92,6.82A13.75,13.75,0,0,0,711.16,714.33Z"></path><path d="M748.75,718.6a22.82,22.82,0,0,1-7.35-1.18,15.2,15.2,0,0,1-5.52-3l1.78-3.75a15.63,15.63,0,0,0,4.9,2.79,17.74,17.74,0,0,0,6.19,1.1,14,14,0,0,0,4.75-.67,5.69,5.69,0,0,0,2.69-1.85,4.41,4.41,0,0,0,.86-2.66,3.65,3.65,0,0,0-1.13-2.79,8.34,8.34,0,0,0-2.92-1.7,32.92,32.92,0,0,0-4-1.13c-1.44-.32-2.89-.7-4.35-1.13a19.54,19.54,0,0,1-4-1.65,8.26,8.26,0,0,1-2.91-2.72,8,8,0,0,1-1.1-4.39,8.8,8.8,0,0,1,1.37-4.77,9.48,9.48,0,0,1,4.22-3.51,17.4,17.4,0,0,1,7.27-1.32,22.51,22.51,0,0,1,5.81.77,16.05,16.05,0,0,1,5,2.21l-1.58,3.84a15.39,15.39,0,0,0-4.56-2.09,17.92,17.92,0,0,0-4.66-.65,12.75,12.75,0,0,0-4.65.72,5.68,5.68,0,0,0-2.67,1.92,4.59,4.59,0,0,0-.84,2.69,3.7,3.7,0,0,0,1.13,2.83,7.92,7.92,0,0,0,2.93,1.68,39.56,39.56,0,0,0,4,1.13c1.44.34,2.89.71,4.34,1.13a18.32,18.32,0,0,1,4,1.63,8.15,8.15,0,0,1,2.9,2.69,7.7,7.7,0,0,1,1.11,4.32,8.65,8.65,0,0,1-1.4,4.73,9.63,9.63,0,0,1-4.29,3.5A17.75,17.75,0,0,1,748.75,718.6Z"></path><path d="M781.2,718.6a22.77,22.77,0,0,1-7.35-1.18,15,15,0,0,1-5.52-3l1.78-3.75a15.69,15.69,0,0,0,4.89,2.79,17.84,17.84,0,0,0,6.2,1.1,14,14,0,0,0,4.75-.67,5.74,5.74,0,0,0,2.69-1.85,4.41,4.41,0,0,0,.86-2.66,3.65,3.65,0,0,0-1.13-2.79,8.39,8.39,0,0,0-2.93-1.7,32.92,32.92,0,0,0-4-1.13c-1.44-.32-2.89-.7-4.34-1.13a19.31,19.31,0,0,1-4-1.65,8.26,8.26,0,0,1-2.91-2.72,7.9,7.9,0,0,1-1.1-4.39,8.72,8.72,0,0,1,1.37-4.77,9.48,9.48,0,0,1,4.22-3.51,17.37,17.37,0,0,1,7.27-1.32,22.57,22.57,0,0,1,5.81.77,16.16,16.16,0,0,1,5,2.21l-1.58,3.84a15.39,15.39,0,0,0-4.56-2.09,18,18,0,0,0-4.66-.65,12.75,12.75,0,0,0-4.65.72,5.68,5.68,0,0,0-2.67,1.92,4.59,4.59,0,0,0-.84,2.69,3.7,3.7,0,0,0,1.13,2.83,7.92,7.92,0,0,0,2.93,1.68,39.56,39.56,0,0,0,4,1.13c1.44.34,2.89.71,4.34,1.13a18.32,18.32,0,0,1,4,1.63,8.23,8.23,0,0,1,2.9,2.69,7.69,7.69,0,0,1,1.1,4.32,8.64,8.64,0,0,1-1.39,4.73,9.69,9.69,0,0,1-4.29,3.5A17.75,17.75,0,0,1,781.2,718.6Z"></path><path d="M798.76,718.22,814,684.62h4.75L834,718.22h-5L815.37,687.3h1.92l-13.58,30.92Zm6.48-8.4,1.3-3.84h18.91l1.39,3.84Z"></path><path d="M851.42,718.6a22.71,22.71,0,0,1-7.34-1.18,15.16,15.16,0,0,1-5.53-3l1.78-3.75a15.63,15.63,0,0,0,4.9,2.79,17.74,17.74,0,0,0,6.19,1.1,14,14,0,0,0,4.75-.67,5.69,5.69,0,0,0,2.69-1.85,4.41,4.41,0,0,0,.86-2.66,3.62,3.62,0,0,0-1.13-2.79,8.34,8.34,0,0,0-2.92-1.7,32.92,32.92,0,0,0-4-1.13c-1.44-.32-2.89-.7-4.35-1.13a19.54,19.54,0,0,1-4-1.65,8.26,8.26,0,0,1-2.91-2.72,8,8,0,0,1-1.1-4.39,8.8,8.8,0,0,1,1.37-4.77,9.48,9.48,0,0,1,4.22-3.51,17.42,17.42,0,0,1,7.28-1.32,22.49,22.49,0,0,1,5.8.77,16.22,16.22,0,0,1,5,2.21l-1.59,3.84a15.39,15.39,0,0,0-4.56-2.09,17.9,17.9,0,0,0-4.65-.65,12.85,12.85,0,0,0-4.66.72,5.59,5.59,0,0,0-2.66,1.92,4.52,4.52,0,0,0-.84,2.69,3.69,3.69,0,0,0,1.12,2.83,7.92,7.92,0,0,0,2.93,1.68,39.56,39.56,0,0,0,4,1.13c1.44.34,2.89.71,4.34,1.13a18.32,18.32,0,0,1,4,1.63,8.15,8.15,0,0,1,2.9,2.69,7.7,7.7,0,0,1,1.11,4.32,8.73,8.73,0,0,1-1.39,4.73,9.72,9.72,0,0,1-4.3,3.5A17.75,17.75,0,0,1,851.42,718.6Z"></path><path d="M899.32,718.22l-14.78-33.6h5.18l13.59,31h-3l13.68-31h4.8l-14.74,33.6Z"></path><path d="M940.55,718.6a19.1,19.1,0,0,1-7.12-1.3,16.93,16.93,0,0,1-5.69-3.62,16.62,16.62,0,0,1-3.74-5.45,17.88,17.88,0,0,1,0-13.63,16.62,16.62,0,0,1,3.74-5.45,17.1,17.1,0,0,1,5.66-3.62,19.11,19.11,0,0,1,7.15-1.3,19.61,19.61,0,0,1,7.11,1.27,16.89,16.89,0,0,1,5.66,3.6,16.43,16.43,0,0,1,3.72,5.48,18.43,18.43,0,0,1,0,13.7,16.41,16.41,0,0,1-3.72,5.45,16.89,16.89,0,0,1-5.66,3.6A19.4,19.4,0,0,1,940.55,718.6Zm0-4.27a13.62,13.62,0,0,0,5.16-1,12.35,12.35,0,0,0,4.13-2.71,12.71,12.71,0,0,0,2.74-4.11,13.89,13.89,0,0,0,0-10.25,13,13,0,0,0-2.74-4.1,12.28,12.28,0,0,0-4.13-2.74,14.46,14.46,0,0,0-10.36,0,12.61,12.61,0,0,0-4.16,2.74,12.88,12.88,0,0,0-2.76,4.1,13.89,13.89,0,0,0,0,10.25,12.41,12.41,0,0,0,6.92,6.82A13.75,13.75,0,0,0,940.55,714.33Z"></path><path d="M968.35,718.22v-33.6h3.93l22.23,27.6h-2.07v-27.6h4.8v33.6h-3.93l-22.23-27.6h2.07v27.6Z"></path><path d="M1016.63,718.22V688.79h-11.52v-4.17h27.8v4.17h-11.52v29.43Z"></path><path d="M1034,718.22l15.22-33.6H1054l15.26,33.6h-5l-13.58-30.92h1.92L1039,718.22Zm6.48-8.4,1.3-3.84h18.91l1.39,3.84Z"></path><path d="M1076.88,718.22v-33.6H1091a20.36,20.36,0,0,1,9.47,2.11,15.65,15.65,0,0,1,6.39,5.9,18.06,18.06,0,0,1,0,17.57,15.52,15.52,0,0,1-6.39,5.9,20.36,20.36,0,0,1-9.47,2.12Zm4.79-4.18h9.08a15.53,15.53,0,0,0,7.22-1.58,11.59,11.59,0,0,0,4.73-4.44,13.86,13.86,0,0,0,0-13.23,11.52,11.52,0,0,0-4.73-4.41,15.41,15.41,0,0,0-7.22-1.59h-9.08Z"></path><path d="M1124,714h19.59v4.18h-24.39v-33.6h23.71v4.17H1124Zm-.43-14.93h17.28v4.08h-17.28Z"></path><path d="M1163.75,718.6a22.76,22.76,0,0,1-7.34-1.18,15,15,0,0,1-5.52-3l1.78-3.75a15.69,15.69,0,0,0,4.89,2.79,17.83,17.83,0,0,0,6.19,1.1,14,14,0,0,0,4.76-.67,5.65,5.65,0,0,0,2.68-1.85,4.35,4.35,0,0,0,.87-2.66,3.65,3.65,0,0,0-1.13-2.79,8.39,8.39,0,0,0-2.93-1.7,32.92,32.92,0,0,0-4-1.13c-1.44-.32-2.89-.7-4.34-1.13a19.4,19.4,0,0,1-4-1.65,8.23,8.23,0,0,1-2.9-2.72,7.9,7.9,0,0,1-1.1-4.39,8.79,8.79,0,0,1,1.36-4.77,9.51,9.51,0,0,1,4.23-3.51,17.37,17.37,0,0,1,7.27-1.32,22.57,22.57,0,0,1,5.81.77,16.16,16.16,0,0,1,5,2.21l-1.58,3.84a15.39,15.39,0,0,0-4.56-2.09,18,18,0,0,0-4.66-.65,12.85,12.85,0,0,0-4.66.72,5.69,5.69,0,0,0-2.66,1.92,4.59,4.59,0,0,0-.84,2.69,3.7,3.7,0,0,0,1.13,2.83,7.92,7.92,0,0,0,2.93,1.68,39.56,39.56,0,0,0,4,1.13c1.44.34,2.88.71,4.34,1.13a18.23,18.23,0,0,1,4,1.63,8.27,8.27,0,0,1,2.91,2.69,7.78,7.78,0,0,1,1.1,4.32,8.64,8.64,0,0,1-1.39,4.73,9.66,9.66,0,0,1-4.3,3.5A17.68,17.68,0,0,1,1163.75,718.6Z"></path><path d="M1184.87,725.32l2.4-9.7.63,2.79a3.28,3.28,0,0,1-2.33-.87,3,3,0,0,1-.94-2.35,3.16,3.16,0,0,1,.94-2.35,3.12,3.12,0,0,1,2.28-.91,3,3,0,0,1,2.26.93,3.34,3.34,0,0,1,.86,2.33,5.86,5.86,0,0,1-.07.94,10.62,10.62,0,0,1-.24,1,14.7,14.7,0,0,1-.51,1.47l-2.25,6.67Z"></path><path d="M144.77,775.82v-33.6h13.1a18.39,18.39,0,0,1,7.54,1.39,10.68,10.68,0,0,1,4.8,4,11.48,11.48,0,0,1,1.68,6.29,11.32,11.32,0,0,1-1.68,6.26,10.8,10.8,0,0,1-4.8,4,18.05,18.05,0,0,1-7.54,1.42H147.41l2.16-2.26v12.44Zm4.8-12-2.16-2.4h10.32q4.61,0,7-2a7.71,7.71,0,0,0,0-11.14q-2.37-2-7-2H147.41l2.16-2.4Z"></path><path d="M197.23,776.2a19.15,19.15,0,0,1-7.13-1.3,17,17,0,0,1-5.69-3.62,16.77,16.77,0,0,1-3.74-5.45,18,18,0,0,1,0-13.63,16.77,16.77,0,0,1,3.74-5.45,17,17,0,0,1,5.67-3.62,19.07,19.07,0,0,1,7.15-1.3,19.52,19.52,0,0,1,7.1,1.27,16.84,16.84,0,0,1,5.67,3.6,16.43,16.43,0,0,1,3.72,5.48,18.43,18.43,0,0,1,0,13.7,16.41,16.41,0,0,1-3.72,5.45,16.84,16.84,0,0,1-5.67,3.6A19.31,19.31,0,0,1,197.23,776.2Zm0-4.27a13.62,13.62,0,0,0,5.16-1,12.31,12.31,0,0,0,6.86-6.82,13.76,13.76,0,0,0,0-10.25,12.8,12.8,0,0,0-2.73-4.1,12.23,12.23,0,0,0-4.13-2.74,13.62,13.62,0,0,0-5.16-1,13.8,13.8,0,0,0-5.21,1,12.41,12.41,0,0,0-4.15,2.74,12.67,12.67,0,0,0-3.74,9.22,13.1,13.1,0,0,0,1,5.13A12.44,12.44,0,0,0,192,771,13.8,13.8,0,0,0,197.23,771.93Z"></path><path d="M225,775.82v-33.6h13.11a18.38,18.38,0,0,1,7.53,1.39,10.68,10.68,0,0,1,4.8,4,11.48,11.48,0,0,1,1.68,6.29,11.32,11.32,0,0,1-1.68,6.26,10.7,10.7,0,0,1-4.8,4,18.38,18.38,0,0,1-7.53,1.39H227.66l2.16-2.21v12.44Zm4.8-12-2.16-2.35H238q4.61,0,7-2a7.75,7.75,0,0,0,0-11.16q-2.39-2-7-2H227.66l2.16-2.4Zm17.67,12-8.55-12.2h5.14l8.64,12.2Z"></path><path d="M277.73,776.2a19.15,19.15,0,0,1-7.13-1.3,17,17,0,0,1-5.69-3.62,16.62,16.62,0,0,1-3.74-5.45,17.88,17.88,0,0,1,0-13.63,16.62,16.62,0,0,1,3.74-5.45,17.1,17.1,0,0,1,5.66-3.62,19.12,19.12,0,0,1,7.16-1.3,19.56,19.56,0,0,1,7.1,1.27,16.8,16.8,0,0,1,5.66,3.6,16.43,16.43,0,0,1,3.72,5.48,18.43,18.43,0,0,1,0,13.7,16.41,16.41,0,0,1-3.72,5.45,16.8,16.8,0,0,1-5.66,3.6A19.35,19.35,0,0,1,277.73,776.2Zm0-4.27a13.69,13.69,0,0,0,5.16-1,12,12,0,0,0,4.12-2.74,12.9,12.9,0,0,0,3.72-9.21,13.11,13.11,0,0,0-1-5.14,12.66,12.66,0,0,0-2.74-4.1,12.18,12.18,0,0,0-4.12-2.72,14.48,14.48,0,0,0-10.37,0,12.41,12.41,0,0,0-4.15,2.72,12.25,12.25,0,0,0-2.76,4.1,13.12,13.12,0,0,0-1,5.14,12.93,12.93,0,0,0,1,5.08,12.48,12.48,0,0,0,2.76,4.13,12.16,12.16,0,0,0,4.15,2.74A13.76,13.76,0,0,0,277.73,771.93Zm11,10.89a12.63,12.63,0,0,1-3.22-.4,13,13,0,0,1-3.07-1.3,21.1,21.1,0,0,1-3.17-2.3,49.17,49.17,0,0,1-3.55-3.48l5.14-1.35a22.48,22.48,0,0,0,2.76,2.91,9.39,9.39,0,0,0,2.61,1.63,7.26,7.26,0,0,0,2.59.5,7.88,7.88,0,0,0,6.1-2.88l2.26,2.74A10.49,10.49,0,0,1,288.72,782.82Z"></path><path d="M319.44,776.2q-6.63,0-10.42-3.79t-3.79-11.09v-19.1H310v18.91q0,5.61,2.47,8.21a10.78,10.78,0,0,0,14,0q2.48-2.6,2.47-8.21V742.22h4.66v19.1q0,7.29-3.77,11.09T319.44,776.2Z"></path><path d="M350.92,771.64h19.59v4.18H346.13v-33.6h23.71v4.17H350.92Zm-.43-14.93h17.28v4.08H350.49Z"></path><path d="M406.17,775.82l-14.78-33.6h5.18l13.59,31h-3l13.68-31h4.8l-14.74,33.6Z"></path><path d="M432.57,775.82v-33.6h4.8v33.6Z"></path><path d="M459.45,775.82l-14.78-33.6h5.18l13.59,31h-3l13.68-31h4.8l-14.74,33.6Z"></path><path d="M490.65,771.64h19.59v4.18H485.85v-33.6h23.72v4.17H490.65Zm-.43-14.93H507.5v4.08H490.22Z"></path><path d="M520.65,775.82v-33.6h3.94l15.07,25.39h-2.11l14.88-25.39h3.94l0,33.6h-4.6l0-26.36h1.1l-13.25,22.28h-2.2l-13.35-22.28h1.2v26.36Z"></path><path d="M584.3,776.2a19.15,19.15,0,0,1-7.13-1.3,16.89,16.89,0,0,1-5.68-3.62,16.64,16.64,0,0,1-3.75-5.45,18,18,0,0,1,0-13.63,16.64,16.64,0,0,1,3.75-5.45,16.9,16.9,0,0,1,5.66-3.62,19.07,19.07,0,0,1,7.15-1.3,19.52,19.52,0,0,1,7.1,1.27,16.84,16.84,0,0,1,5.67,3.6,16.43,16.43,0,0,1,3.72,5.48,18.43,18.43,0,0,1,0,13.7,16.41,16.41,0,0,1-3.72,5.45,16.84,16.84,0,0,1-5.67,3.6A19.31,19.31,0,0,1,584.3,776.2Zm0-4.27a13.62,13.62,0,0,0,5.16-1,12.35,12.35,0,0,0,4.13-2.71,12.52,12.52,0,0,0,2.73-4.11,13.76,13.76,0,0,0,0-10.25,12.8,12.8,0,0,0-2.73-4.1,12.13,12.13,0,0,0-4.13-2.74,13.62,13.62,0,0,0-5.16-1,13.8,13.8,0,0,0-5.21,1,12.41,12.41,0,0,0-4.15,2.74A12.67,12.67,0,0,0,571.2,759a13.1,13.1,0,0,0,1,5.13,12.44,12.44,0,0,0,6.91,6.82A13.8,13.8,0,0,0,584.3,771.93Z"></path><path d="M621.88,776.2a22.76,22.76,0,0,1-7.34-1.18,15,15,0,0,1-5.52-3l1.78-3.75a15.69,15.69,0,0,0,4.89,2.79,17.83,17.83,0,0,0,6.19,1.1,14,14,0,0,0,4.76-.67,5.65,5.65,0,0,0,2.68-1.85,4.35,4.35,0,0,0,.87-2.66,3.65,3.65,0,0,0-1.13-2.79,8.39,8.39,0,0,0-2.93-1.7,32.92,32.92,0,0,0-4-1.13c-1.44-.32-2.89-.7-4.34-1.13a19.4,19.4,0,0,1-4-1.65,8.23,8.23,0,0,1-2.9-2.72,7.9,7.9,0,0,1-1.1-4.39,8.79,8.79,0,0,1,1.36-4.77,9.51,9.51,0,0,1,4.23-3.51,17.37,17.37,0,0,1,7.27-1.32,22.57,22.57,0,0,1,5.81.77,16.16,16.16,0,0,1,5,2.21l-1.58,3.84a15.39,15.39,0,0,0-4.56-2.09,18,18,0,0,0-4.66-.65,12.85,12.85,0,0,0-4.66.72,5.69,5.69,0,0,0-2.66,1.92,4.59,4.59,0,0,0-.84,2.69,3.7,3.7,0,0,0,1.13,2.83,7.92,7.92,0,0,0,2.93,1.68,39.56,39.56,0,0,0,4,1.13c1.44.34,2.88.71,4.34,1.13a18.23,18.23,0,0,1,4,1.63,8.27,8.27,0,0,1,2.91,2.69,7.78,7.78,0,0,1,1.1,4.32,8.64,8.64,0,0,1-1.39,4.73,9.66,9.66,0,0,1-4.3,3.5A17.68,17.68,0,0,1,621.88,776.2Z"></path><path d="M655,775.82l15.21-33.6H675l15.27,33.6h-5L671.61,744.9h1.92L660,775.82Zm6.47-8.4,1.3-3.84h18.91l1.4,3.84Z"></path><path d="M708.33,775.82l15.22-33.6h4.75l15.26,33.6h-5L724.94,744.9h1.92l-13.58,30.92Zm6.48-8.4,1.3-3.84H735l1.39,3.84Z"></path><path d="M751.2,775.82v-33.6h14.16a20.43,20.43,0,0,1,9.48,2.11,15.62,15.62,0,0,1,6.38,5.9,18.06,18.06,0,0,1,0,17.57,15.55,15.55,0,0,1-6.38,5.9,20.43,20.43,0,0,1-9.48,2.12Zm4.8-4.18h9.07a15.53,15.53,0,0,0,7.22-1.58,11.59,11.59,0,0,0,4.73-4.44,13.86,13.86,0,0,0,0-13.23,11.52,11.52,0,0,0-4.73-4.41,15.41,15.41,0,0,0-7.22-1.59H756Z"></path><path d="M808.65,776.2a19.15,19.15,0,0,1-7.13-1.3,17,17,0,0,1-5.68-3.62,16.64,16.64,0,0,1-3.75-5.45,18,18,0,0,1,0-13.63,16.64,16.64,0,0,1,3.75-5.45,17,17,0,0,1,5.66-3.62,19.07,19.07,0,0,1,7.15-1.3,19.61,19.61,0,0,1,7.11,1.27,16.89,16.89,0,0,1,5.66,3.6,16.43,16.43,0,0,1,3.72,5.48,18.43,18.43,0,0,1,0,13.7,16.41,16.41,0,0,1-3.72,5.45,16.89,16.89,0,0,1-5.66,3.6A19.4,19.4,0,0,1,808.65,776.2Zm0-4.27a13.62,13.62,0,0,0,5.16-1,12.35,12.35,0,0,0,4.13-2.71,12.71,12.71,0,0,0,2.74-4.11,13.89,13.89,0,0,0,0-10.25,13,13,0,0,0-2.74-4.1,12.13,12.13,0,0,0-4.13-2.74,13.62,13.62,0,0,0-5.16-1,13.8,13.8,0,0,0-5.21,1,12.41,12.41,0,0,0-4.15,2.74,12.88,12.88,0,0,0-2.76,4.1,13.89,13.89,0,0,0,0,10.25,12.44,12.44,0,0,0,6.91,6.82A13.8,13.8,0,0,0,808.65,771.93Z"></path><path d="M836.44,775.82v-33.6h4.8v29.42h18.19v4.18Z"></path><path d="M872.39,771.64H892v4.18H867.59v-33.6h23.72v4.17H872.39ZM872,756.71h17.28v4.08H872Z"></path><path d="M912.19,776.2a22.82,22.82,0,0,1-7.35-1.18,15.2,15.2,0,0,1-5.52-3l1.78-3.75A15.69,15.69,0,0,0,906,771a17.84,17.84,0,0,0,6.2,1.1,14,14,0,0,0,4.75-.67,5.74,5.74,0,0,0,2.69-1.85,4.41,4.41,0,0,0,.86-2.66,3.65,3.65,0,0,0-1.13-2.79,8.39,8.39,0,0,0-2.93-1.7,32.92,32.92,0,0,0-4-1.13c-1.44-.32-2.88-.7-4.34-1.13a19.31,19.31,0,0,1-4-1.65,8.26,8.26,0,0,1-2.91-2.72,8,8,0,0,1-1.1-4.39,8.72,8.72,0,0,1,1.37-4.77,9.48,9.48,0,0,1,4.22-3.51,17.37,17.37,0,0,1,7.27-1.32,22.57,22.57,0,0,1,5.81.77,16.16,16.16,0,0,1,5,2.21l-1.58,3.84a15.39,15.39,0,0,0-4.56-2.09,17.92,17.92,0,0,0-4.66-.65,12.75,12.75,0,0,0-4.65.72,5.68,5.68,0,0,0-2.67,1.92,4.59,4.59,0,0,0-.84,2.69,3.7,3.7,0,0,0,1.13,2.83,7.92,7.92,0,0,0,2.93,1.68,39.56,39.56,0,0,0,4,1.13c1.44.34,2.89.71,4.34,1.13a18.32,18.32,0,0,1,4,1.63,8.23,8.23,0,0,1,2.9,2.69,7.69,7.69,0,0,1,1.1,4.32,8.64,8.64,0,0,1-1.39,4.73,9.69,9.69,0,0,1-4.29,3.5A17.75,17.75,0,0,1,912.19,776.2Z"></path><path d="M949.87,776.2a19.17,19.17,0,0,1-7.08-1.27,16.62,16.62,0,0,1-5.62-3.6,17.09,17.09,0,0,1,5.66-28.23,19.37,19.37,0,0,1,7.08-1.27,19.07,19.07,0,0,1,7.18,1.32,14.74,14.74,0,0,1,5.59,3.91l-3.12,3a12.31,12.31,0,0,0-4.32-3,13.32,13.32,0,0,0-5.13-1,14.14,14.14,0,0,0-5.26,1,12.56,12.56,0,0,0-4.2,2.69,12.19,12.19,0,0,0-2.76,4.11,14.07,14.07,0,0,0,0,10.32,12.25,12.25,0,0,0,2.76,4.1,12.56,12.56,0,0,0,4.2,2.69,14.14,14.14,0,0,0,5.26,1,13.32,13.32,0,0,0,5.13-1,12.17,12.17,0,0,0,4.32-3l3.12,3a14.92,14.92,0,0,1-5.59,3.94A19,19,0,0,1,949.87,776.2Z"></path><path d="M977,771.64h19.58v4.18H972.19v-33.6H995.9v4.17H977Zm-1.49-32.16,6.38-6.24h4.42l6.38,6.24h-4.17l-6.34-5.28H986l-6.34,5.28Zm1,17.23h17.29v4.08H976.55Z"></path><path d="M1007,775.82v-33.6h3.93l22.23,27.6h-2.07v-27.6h4.8v33.6H1032l-22.23-27.6h2.07v27.6Z"></path><path d="M1063.63,776.2a19.17,19.17,0,0,1-7.08-1.27,16.62,16.62,0,0,1-5.62-3.6,17.09,17.09,0,0,1,5.66-28.23,19.37,19.37,0,0,1,7.08-1.27,19.07,19.07,0,0,1,7.18,1.32,14.74,14.74,0,0,1,5.59,3.91l-3.12,3a12.31,12.31,0,0,0-4.32-3,13.32,13.32,0,0,0-5.13-1,14.14,14.14,0,0,0-5.26,1,12.56,12.56,0,0,0-4.2,2.69,12,12,0,0,0-2.76,4.11,14.07,14.07,0,0,0,0,10.32,12.1,12.1,0,0,0,2.76,4.1,12.56,12.56,0,0,0,4.2,2.69,14.14,14.14,0,0,0,5.26,1,13.32,13.32,0,0,0,5.13-1,12.17,12.17,0,0,0,4.32-3l3.12,3a14.92,14.92,0,0,1-5.59,3.94A19,19,0,0,1,1063.63,776.2Z"></path><path d="M1086,775.82v-33.6h4.8v33.6Z"></path><path d="M1098.38,775.82l15.21-33.6h4.76l15.26,33.6h-5L1115,744.9h1.92l-13.59,30.92Zm6.48-8.4,1.29-3.84h18.92l1.39,3.84Z"></path><path d="M262.61,833.8a19.17,19.17,0,0,1-7.08-1.27,16.62,16.62,0,0,1-5.62-3.6,17.09,17.09,0,0,1,5.66-28.23,19.37,19.37,0,0,1,7.08-1.27,19.07,19.07,0,0,1,7.18,1.32,14.74,14.74,0,0,1,5.59,3.91l-3.12,3a12.31,12.31,0,0,0-4.32-3,13.32,13.32,0,0,0-5.13-1,14.18,14.18,0,0,0-5.26,1,12.56,12.56,0,0,0-4.2,2.69,12.19,12.19,0,0,0-2.76,4.11,14.07,14.07,0,0,0,0,10.32,12.25,12.25,0,0,0,2.76,4.1,12.56,12.56,0,0,0,4.2,2.69,14.18,14.18,0,0,0,5.26,1,13.32,13.32,0,0,0,5.13-1,12.17,12.17,0,0,0,4.32-3l3.12,3a14.92,14.92,0,0,1-5.59,3.94A19,19,0,0,1,262.61,833.8Z"></path><path d="M299.37,833.8a19.1,19.1,0,0,1-7.12-1.3,16.75,16.75,0,0,1-9.44-9.07,18,18,0,0,1,0-13.63,16.8,16.8,0,0,1,3.75-5.45,17.1,17.1,0,0,1,5.66-3.62,19.11,19.11,0,0,1,7.15-1.3,19.61,19.61,0,0,1,7.11,1.27,16.89,16.89,0,0,1,5.66,3.6,16.43,16.43,0,0,1,3.72,5.48,18.43,18.43,0,0,1,0,13.7,16.41,16.41,0,0,1-3.72,5.45,16.89,16.89,0,0,1-5.66,3.6A19.4,19.4,0,0,1,299.37,833.8Zm0-4.27a13.62,13.62,0,0,0,5.16-1,12.35,12.35,0,0,0,4.13-2.71,12.71,12.71,0,0,0,2.74-4.11,13.89,13.89,0,0,0,0-10.25,13,13,0,0,0-2.74-4.1,12.13,12.13,0,0,0-4.13-2.74,14.46,14.46,0,0,0-10.36,0A12.45,12.45,0,0,0,290,807.4a12.88,12.88,0,0,0-2.76,4.1,13.89,13.89,0,0,0,0,10.25,12.41,12.41,0,0,0,6.92,6.82A13.75,13.75,0,0,0,299.37,829.53Z"></path><path d="M327.17,833.42v-33.6h3.93l15.07,25.39h-2.11l14.88-25.39h3.94l.05,33.6h-4.61l-.05-26.36h1.1l-13.24,22.28h-2.21l-13.35-22.28h1.2v26.36Z"></path><path d="M390.81,833.8a19.19,19.19,0,0,1-7.13-1.3,17,17,0,0,1-5.68-3.62,16.8,16.8,0,0,1-3.75-5.45,18,18,0,0,1,0-13.63,16.8,16.8,0,0,1,3.75-5.45,17,17,0,0,1,5.66-3.62,19.11,19.11,0,0,1,7.15-1.3,19.61,19.61,0,0,1,7.11,1.27,16.89,16.89,0,0,1,5.66,3.6,16.43,16.43,0,0,1,3.72,5.48,18.43,18.43,0,0,1,0,13.7,16.41,16.41,0,0,1-3.72,5.45,16.89,16.89,0,0,1-5.66,3.6A19.4,19.4,0,0,1,390.81,833.8Zm0-4.27a13.62,13.62,0,0,0,5.16-1,12.35,12.35,0,0,0,4.13-2.71,12.71,12.71,0,0,0,2.74-4.11,13.89,13.89,0,0,0,0-10.25,13,13,0,0,0-2.74-4.1,12.13,12.13,0,0,0-4.13-2.74,13.62,13.62,0,0,0-5.16-1,13.8,13.8,0,0,0-5.21,1,12.51,12.51,0,0,0-4.15,2.74,12.88,12.88,0,0,0-2.76,4.1,13.89,13.89,0,0,0,0,10.25,12.6,12.6,0,0,0,2.76,4.11,12.75,12.75,0,0,0,4.15,2.71A13.8,13.8,0,0,0,390.81,829.53Z"></path><path d="M439,829.24h19.58v4.18H434.16v-33.6h23.71V804H439Zm-.43-14.93h17.28v4.08H438.53Z"></path><path d="M469,833.42v-33.6h4.8v29.42H492v4.18Z"></path><path d="M495,833.42l15.22-33.6H515l15.26,33.6h-5L511.63,802.5h1.92L500,833.42Zm6.48-8.4,1.3-3.84h18.91L523.1,825Z"></path><path d="M553.44,833.42v-33.6H567.6a20.43,20.43,0,0,1,9.48,2.11,15.62,15.62,0,0,1,6.38,5.9,18.06,18.06,0,0,1,0,17.57,15.55,15.55,0,0,1-6.38,5.9,20.43,20.43,0,0,1-9.48,2.12Zm4.8-4.18h9.07a15.53,15.53,0,0,0,7.22-1.58,11.59,11.59,0,0,0,4.73-4.44,13.86,13.86,0,0,0,0-13.23,11.52,11.52,0,0,0-4.73-4.41,15.41,15.41,0,0,0-7.22-1.59h-9.07Z"></path><path d="M600.52,829.24h19.59v4.18H595.72v-33.6h23.72V804H600.52Zm-.43-14.93h17.28v4.08H600.09Z"></path><path d="M639.74,833.42,625,799.82h5.18l13.58,31h-3l13.68-31h4.8l-14.74,33.6Z"></path><path d="M670.94,829.24h19.58v4.18H666.14v-33.6h23.71V804H670.94Zm-.43-14.93h17.28v4.08H670.51Z"></path><path d="M726.28,833.8a22.76,22.76,0,0,1-7.34-1.18,15,15,0,0,1-5.52-3l1.78-3.75a15.69,15.69,0,0,0,4.89,2.79,17.83,17.83,0,0,0,6.19,1.1,14,14,0,0,0,4.76-.67,5.65,5.65,0,0,0,2.68-1.85,4.35,4.35,0,0,0,.87-2.66,3.65,3.65,0,0,0-1.13-2.79,8.39,8.39,0,0,0-2.93-1.7,32.92,32.92,0,0,0-4-1.13c-1.44-.32-2.89-.7-4.34-1.13a19.4,19.4,0,0,1-4-1.65,8.23,8.23,0,0,1-2.9-2.72,7.9,7.9,0,0,1-1.1-4.39,8.79,8.79,0,0,1,1.36-4.77,9.51,9.51,0,0,1,4.23-3.51,17.37,17.37,0,0,1,7.27-1.32,22.57,22.57,0,0,1,5.81.77,16.16,16.16,0,0,1,5,2.21l-1.58,3.84a15.39,15.39,0,0,0-4.56-2.09,18,18,0,0,0-4.66-.65,12.85,12.85,0,0,0-4.66.72,5.69,5.69,0,0,0-2.66,1.92,4.59,4.59,0,0,0-.84,2.69,3.7,3.7,0,0,0,1.13,2.83,7.92,7.92,0,0,0,2.93,1.68,39.56,39.56,0,0,0,4,1.13c1.44.34,2.88.71,4.34,1.13a18.23,18.23,0,0,1,4,1.63,8.27,8.27,0,0,1,2.91,2.69,7.78,7.78,0,0,1,1.1,4.32A8.64,8.64,0,0,1,737.9,829a9.66,9.66,0,0,1-4.3,3.5A17.68,17.68,0,0,1,726.28,833.8Z"></path><path d="M753.74,829.24h19.58v4.18H748.94v-33.6h23.71V804H753.74Zm-.43-14.93h17.28v4.08H753.31Z"></path><path d="M783.74,833.42v-33.6h13.1a18.39,18.39,0,0,1,7.54,1.39,10.68,10.68,0,0,1,4.8,4,11.48,11.48,0,0,1,1.68,6.29,11.32,11.32,0,0,1-1.68,6.26,10.7,10.7,0,0,1-4.8,4,18.39,18.39,0,0,1-7.54,1.39H786.38l2.16-2.21v12.44Zm4.8-12-2.16-2.35H796.7q4.6,0,7-2a7.73,7.73,0,0,0,0-11.16q-2.37-2-7-2H786.38l2.16-2.4Zm17.66,12-8.54-12.2h5.14l8.64,12.2Z"></path><path d="M846.52,833.42l-14.78-33.6h5.18l13.59,31h-3l13.68-31H866l-14.73,33.6Z"></path><path d="M872.92,833.42v-33.6h4.8v33.6Z"></path><path d="M899.8,833.42,885,799.82h5.18l13.59,31h-3l13.68-31h4.8l-14.73,33.6Z"></path><path d="M926.2,833.42v-33.6H931v33.6Z"></path><path d="M943.72,833.42v-33.6h14.16a20.37,20.37,0,0,1,9.48,2.11,15.58,15.58,0,0,1,6.39,5.9,18.06,18.06,0,0,1,0,17.57,15.52,15.52,0,0,1-6.39,5.9,20.38,20.38,0,0,1-9.48,2.12Zm4.8-4.18h9.08a15.53,15.53,0,0,0,7.22-1.58,11.59,11.59,0,0,0,4.73-4.44,13.86,13.86,0,0,0,0-13.23,11.52,11.52,0,0,0-4.73-4.41A15.41,15.41,0,0,0,957.6,804h-9.08Z"></path><path d="M980.44,833.42l15.22-33.6h4.75l15.26,33.6h-5L997.05,802.5H999l-13.58,30.92Zm6.48-8.4,1.3-3.84h18.91l1.39,3.84Z"></path><path d="M1025.32,833.7a3.23,3.23,0,0,1-3.26-3.31,3.1,3.1,0,0,1,1-2.35,3.22,3.22,0,0,1,2.3-.91,3.1,3.1,0,0,1,2.24.91,3.15,3.15,0,0,1,.93,2.35,3.25,3.25,0,0,1-.93,2.38A3.07,3.07,0,0,1,1025.32,833.7Z"></path><rect x="762.73" width="321.12" height="133.5"></rect><rect x="158.85" y="148.87" width="1003.04" height="133.5"></rect><rect x="91.5" y="297.6" width="926.87" height="133.5"></rect><path d="M252.87,115.65V54.1h24a33.74,33.74,0,0,1,13.8,2.55,19.54,19.54,0,0,1,8.8,7.39,21,21,0,0,1,3.08,11.52A20.78,20.78,0,0,1,299.47,87a19.85,19.85,0,0,1-8.8,7.39A33.23,33.23,0,0,1,276.87,97H257.7l4-4.13v22.77Zm8.79-21.89-4-4.4h18.91q8.43,0,12.79-3.6c2.9-2.4,4.35-5.81,4.35-10.2s-1.45-7.8-4.35-10.2-7.17-3.61-12.79-3.61H257.7l4-4.39Z"></path><path d="M318.28,115.65V69.05h8.09V81.71l-.79-3.16a14.3,14.3,0,0,1,6.51-7.39,22.82,22.82,0,0,1,11.25-2.55v8.18a6,6,0,0,0-1-.09h-.92q-6.78,0-10.73,4t-3.95,11.69v23.21Z"></path><path d="M368.76,116.18a21.94,21.94,0,0,1-9.11-1.76,14,14,0,0,1-6-4.88,12.32,12.32,0,0,1-2.11-7.08,13.33,13.33,0,0,1,1.8-6.85,12.46,12.46,0,0,1,5.89-4.93q4.1-1.84,11-1.84H385V94.9H370.6c-4.22,0-7.06.71-8.53,2.11a6.84,6.84,0,0,0-2.2,5.1,6.56,6.56,0,0,0,2.73,5.5c1.82,1.38,4.34,2.06,7.56,2.06a15.94,15.94,0,0,0,8.31-2.11,12,12,0,0,0,5.15-6.15l1.67,5.8a13.12,13.12,0,0,1-5.9,6.55A21.06,21.06,0,0,1,368.76,116.18Zm15.29-.53v-9.84l-.43-1.85V87.16c0-3.57-1.05-6.34-3.13-8.3s-5.2-3-9.36-3A24.63,24.63,0,0,0,363,77.27a20.83,20.83,0,0,0-6.68,3.65l-3.52-6.33a25.59,25.59,0,0,1,8.66-4.44,36.38,36.38,0,0,1,10.6-1.54q9.58,0,14.77,4.66t5.19,14.25v28.13Z"></path><path d="M460.38,113.72a25.05,25.05,0,0,1-12.09-2.86,21.79,21.79,0,0,1-8.45-8,22.08,22.08,0,0,1-3.12-11.78,22,22,0,0,1,3.12-11.82,21.56,21.56,0,0,1,8.45-7.87,25.38,25.38,0,0,1,12.09-2.82A24.42,24.42,0,0,1,471.28,71a18.5,18.5,0,0,1,7.87,7.43q2.94,5,2.94,12.66a24.58,24.58,0,0,1-2.94,12.58,19.06,19.06,0,0,1-7.87,7.51A23.69,23.69,0,0,1,460.38,113.72Zm1.05,19.52a43.17,43.17,0,0,1-12.44-1.8,25.6,25.6,0,0,1-9.8-5.15l4-6.5a24.19,24.19,0,0,0,8,4.44,30.59,30.59,0,0,0,9.94,1.62q8.26,0,12.13-3.86c2.58-2.59,3.87-6.51,3.87-11.79v-9.85l.88-9.23-.44-9.32V69.05h8v40.27q0,12.32-6.15,18.12T461.43,133.24Zm-.09-26.91a17.23,17.23,0,0,0,8.27-1.93A14.56,14.56,0,0,0,475.28,99a16.17,16.17,0,0,0,0-15.83,14.18,14.18,0,0,0-5.67-5.32A17.57,17.57,0,0,0,461.34,76,17.85,17.85,0,0,0,453,77.89a14.09,14.09,0,0,0-5.71,5.32,16.17,16.17,0,0,0,0,15.83A14.46,14.46,0,0,0,453,104.4,17.5,17.5,0,0,0,461.34,106.33Z"></path><path d="M527.29,116.18a27.06,27.06,0,0,1-13.15-3.08,22.13,22.13,0,0,1-8.79-8.44,24,24,0,0,1-3.12-12.31,24.61,24.61,0,0,1,3-12.31,22,22,0,0,1,8.36-8.39,25.31,25.31,0,0,1,24-.05,21.08,21.08,0,0,1,8.13,8.4,26,26,0,0,1,2.95,12.62c0,.35,0,.76,0,1.23s-.07.91-.13,1.32H508.82V89.1h35.26l-3.43,2.11a15.63,15.63,0,0,0-1.84-8,14.14,14.14,0,0,0-5.32-5.5,16.55,16.55,0,0,0-15.7,0,14,14,0,0,0-5.36,5.54,16.8,16.8,0,0,0-1.93,8.14v1.4a16,16,0,0,0,2.15,8.31,14.77,14.77,0,0,0,6,5.67,18.87,18.87,0,0,0,8.88,2,19.38,19.38,0,0,0,7.52-1.41,16.55,16.55,0,0,0,5.94-4.22l4.66,5.45a20.49,20.49,0,0,1-7.87,5.63A27.41,27.41,0,0,1,527.29,116.18Z"></path><path d="M590.07,68.61a22.12,22.12,0,0,1,10.07,2.2A15.78,15.78,0,0,1,607,77.49a23.4,23.4,0,0,1,2.47,11.35v26.81H601V89.8q0-6.76-3.29-10.2t-9.28-3.43a16.62,16.62,0,0,0-7.83,1.76,12.09,12.09,0,0,0-5.14,5.19,18.22,18.22,0,0,0-1.8,8.53v24h-8.44V69.05h8.09V81.63L572,78.28a16.22,16.22,0,0,1,7-7.12A23.09,23.09,0,0,1,590.07,68.61Z"></path><path d="M623.22,76v-7h29.72v7Zm22.69,40.18q-7,0-10.91-3.78t-3.87-10.81V58.85h8.45v42.38a8.21,8.21,0,0,0,1.89,5.81,7,7,0,0,0,5.4,2,9.94,9.94,0,0,0,6.6-2.2l2.64,6.07a12.36,12.36,0,0,1-4.62,2.46A19.55,19.55,0,0,1,645.91,116.18Z"></path><path d="M690.31,116.18a27,27,0,0,1-13.14-3.08,22.09,22.09,0,0,1-8.8-8.44,24,24,0,0,1-3.12-12.31,24.61,24.61,0,0,1,3-12.31,22,22,0,0,1,8.36-8.39,25.31,25.31,0,0,1,24-.05,21.08,21.08,0,0,1,8.13,8.4,26,26,0,0,1,2.95,12.62c0,.35,0,.76,0,1.23s-.07.91-.13,1.32H671.84V89.1H707.1l-3.42,2.11a15.74,15.74,0,0,0-1.85-8,14.07,14.07,0,0,0-5.32-5.5,16.55,16.55,0,0,0-15.7,0,14,14,0,0,0-5.36,5.54,16.8,16.8,0,0,0-1.93,8.14v1.4a16,16,0,0,0,2.15,8.31,14.77,14.77,0,0,0,6,5.67,18.87,18.87,0,0,0,8.88,2,19.34,19.34,0,0,0,7.52-1.41,16.55,16.55,0,0,0,5.94-4.22l4.66,5.45a20.49,20.49,0,0,1-7.87,5.63A27.41,27.41,0,0,1,690.31,116.18Z"></path><path d="M724.87,128.67l4.39-17.76,1.15,5.1a6,6,0,0,1-4.27-1.59,5.57,5.57,0,0,1-1.71-4.31,5.78,5.78,0,0,1,5.89-6,5.36,5.36,0,0,1,4.13,1.71,6,6,0,0,1,1.58,4.26,10.8,10.8,0,0,1-.13,1.72,16.42,16.42,0,0,1-.44,1.93,28.06,28.06,0,0,1-.92,2.69l-4.13,12.22Z"></path><path class="cls-2" d="M819.32,50.1a30.74,30.74,0,0,1,14,3.06,22,22,0,0,1,9.5,9.31q3.42,6.25,3.43,15.81v37.37H834.51v-36q0-9.43-4.59-14.22T817,60.63a23.12,23.12,0,0,0-10.9,2.45,16.8,16.8,0,0,0-7.17,7.23,25.31,25.31,0,0,0-2.51,11.89v33.45H784.64V50.71h11.28V68.23l-1.84-4.66a22.57,22.57,0,0,1,9.8-9.92A32.14,32.14,0,0,1,819.32,50.1Z"></path><path class="cls-2" d="M893.82,116.39a30.71,30.71,0,0,1-12.68-2.45,19.44,19.44,0,0,1-8.39-6.8,17.22,17.22,0,0,1-2.94-9.87,18.55,18.55,0,0,1,2.51-9.56,17.44,17.44,0,0,1,8.21-6.86q5.7-2.56,15.38-2.57h20.58v8.46H896.4c-5.89,0-9.85,1-11.89,2.94a9.49,9.49,0,0,0-3.06,7.1,9.11,9.11,0,0,0,3.8,7.66q3.79,2.88,10.53,2.88a22.25,22.25,0,0,0,11.58-2.94,16.72,16.72,0,0,0,7.17-8.58l2.33,8.09a18.31,18.31,0,0,1-8.21,9.13Q902.77,116.4,893.82,116.39Zm21.33-.74V101.93l-.62-2.57V76q0-7.47-4.35-11.58t-13-4.1a34.24,34.24,0,0,0-11.27,1.9,28.91,28.91,0,0,0-9.31,5.08l-4.91-8.82a35.5,35.5,0,0,1,12.07-6.19,50.44,50.44,0,0,1,14.77-2.14q13.35,0,20.59,6.49t7.23,19.85v39.21ZM907.92,40.9a10.75,10.75,0,0,1-5.21-1.22,21.6,21.6,0,0,1-4.11-2.88,41.67,41.67,0,0,0-3.55-2.88,5.88,5.88,0,0,0-3.43-1.23,5.34,5.34,0,0,0-4.35,2,9.61,9.61,0,0,0-1.9,5.57h-6.62q.24-6.85,3.43-10.9a10.35,10.35,0,0,1,8.58-4.05A10.69,10.69,0,0,1,896,26.63a22.87,22.87,0,0,1,4.17,2.94c1.22,1.1,2.39,2.06,3.49,2.88a5.64,5.64,0,0,0,7.78-.74,8.43,8.43,0,0,0,1.84-5.39h6.61q-.12,6.49-3.37,10.54A10.49,10.49,0,0,1,907.92,40.9Z"></path><path class="cls-2" d="M982.67,116.39a34.84,34.84,0,0,1-17.34-4.29,31.65,31.65,0,0,1-12.07-11.82,33.16,33.16,0,0,1-4.42-17.1,32.69,32.69,0,0,1,4.42-17.09,32.12,32.12,0,0,1,12-11.71,37.62,37.62,0,0,1,34.74-.06A30.87,30.87,0,0,1,1012,66a33.46,33.46,0,0,1,4.35,17.15,33.5,33.5,0,0,1-4.35,17.16,31.34,31.34,0,0,1-12,11.76A34.82,34.82,0,0,1,982.67,116.39Zm0-10.29a22.3,22.3,0,0,0,11.21-2.82,19.93,19.93,0,0,0,7.78-8,24.94,24.94,0,0,0,2.82-12.07,24.5,24.5,0,0,0-2.82-12.07,20.11,20.11,0,0,0-7.78-7.9,22.3,22.3,0,0,0-11.21-2.82,22,22,0,0,0-11.16,2.82,21.16,21.16,0,0,0-7.84,7.9,23.7,23.7,0,0,0-2.94,12.07,24.11,24.11,0,0,0,2.94,12.07,21,21,0,0,0,7.84,8A22,22,0,0,0,982.67,106.1Z"></path><path class="cls-2" d="M215.82,263.44a37.79,37.79,0,0,1-18.32-4.29,30.89,30.89,0,0,1-12.26-11.77,33.46,33.46,0,0,1-4.35-17.15,34.27,34.27,0,0,1,4.23-17.16,30.57,30.57,0,0,1,11.64-11.7,33.15,33.15,0,0,1,16.73-4.23,32.73,32.73,0,0,1,16.66,4.17A29.56,29.56,0,0,1,241.49,213a36.19,36.19,0,0,1,4.1,17.59q0,.74-.06,1.71c0,.66-.1,1.27-.18,1.84H190.08V225.7h49.14l-4.78,2.94a21.79,21.79,0,0,0-2.57-11.15,19.64,19.64,0,0,0-7.41-7.66,23.06,23.06,0,0,0-21.88,0,19.35,19.35,0,0,0-7.47,7.72,23.29,23.29,0,0,0-2.7,11.33v2a22.36,22.36,0,0,0,3,11.58,20.59,20.59,0,0,0,8.4,7.9,26.17,26.17,0,0,0,12.37,2.82,27,27,0,0,0,10.48-2,22.75,22.75,0,0,0,8.27-5.88l6.5,7.6a28.38,28.38,0,0,1-11,7.84A38.11,38.11,0,0,1,215.82,263.44Z"></path><path class="cls-2" d="M257.36,262.7l27.94-36.27-.13,6-26.59-34.67H271.7L292,224.47h-5l20.34-26.71h12.87l-27,34.92.12-6.25,28.19,36.27H308.21l-21.44-28.43,4.78.74L270.47,262.7Z"></path><path class="cls-2" d="M347.06,185.26a7.84,7.84,0,0,1-5.7-2.21,7.21,7.21,0,0,1-2.27-5.39,7.32,7.32,0,0,1,2.27-5.51,7.8,7.8,0,0,1,5.7-2.21,8,8,0,0,1,5.69,2.14,7.05,7.05,0,0,1,2.27,5.33,7.65,7.65,0,0,1-8,7.85Zm-5.89,77.44V197.76h11.77V262.7Z"></path><path class="cls-2" d="M400.73,263.44a52.86,52.86,0,0,1-15.38-2.21,36.24,36.24,0,0,1-11.46-5.39l4.9-9.31a40.27,40.27,0,0,0,10.3,4.78,41,41,0,0,0,12.49,2q8.22,0,11.83-2.33a7.33,7.33,0,0,0,3.62-6.5,5.73,5.73,0,0,0-2.21-4.78,15.06,15.06,0,0,0-5.82-2.57q-3.62-.85-8-1.53t-8.82-1.72a34.78,34.78,0,0,1-8.09-2.94,15.2,15.2,0,0,1-5.88-5.27q-2.21-3.36-2.21-9a16.74,16.74,0,0,1,3.31-10.3,21,21,0,0,1,9.38-6.8,39.26,39.26,0,0,1,14.4-2.39A56.73,56.73,0,0,1,416,198.67,32.34,32.34,0,0,1,426.71,203l-5,9.31a27.84,27.84,0,0,0-9.19-4.05,42.7,42.7,0,0,0-9.56-1.1q-7.71,0-11.52,2.51c-2.53,1.68-3.79,3.82-3.79,6.44a6.07,6.07,0,0,0,2.26,5.08,16.23,16.23,0,0,0,5.88,2.76,71.63,71.63,0,0,0,8,1.65c2.94.45,5.88,1,8.82,1.72a35.4,35.4,0,0,1,8,2.88,14.33,14.33,0,0,1,8.15,14,15.83,15.83,0,0,1-3.43,10.17,22.3,22.3,0,0,1-9.68,6.68A42,42,0,0,1,400.73,263.44Z"></path><path class="cls-2" d="M440.92,207.44v-9.68h41.42v9.68Zm31.61,56q-9.79,0-15.19-5.27T452,243.1V183.54h11.76v59.07q0,5.26,2.64,8.08t7.53,2.82a13.87,13.87,0,0,0,9.19-3.06l3.68,8.45a16.94,16.94,0,0,1-6.43,3.43A27.27,27.27,0,0,1,472.53,263.44Z"></path><path class="cls-2" d="M534.42,263.44a37.79,37.79,0,0,1-18.32-4.29,30.89,30.89,0,0,1-12.26-11.77,33.46,33.46,0,0,1-4.35-17.15,34.27,34.27,0,0,1,4.23-17.16,30.57,30.57,0,0,1,11.64-11.7,33.15,33.15,0,0,1,16.73-4.23,32.73,32.73,0,0,1,16.66,4.17A29.56,29.56,0,0,1,560.09,213a36.3,36.3,0,0,1,4.1,17.59q0,.74-.06,1.71c0,.66-.1,1.27-.18,1.84H508.68V225.7h49.14L553,228.64a21.79,21.79,0,0,0-2.57-11.15,19.64,19.64,0,0,0-7.41-7.66,23.06,23.06,0,0,0-21.88,0,19.35,19.35,0,0,0-7.47,7.72,23.29,23.29,0,0,0-2.7,11.33v2a22.36,22.36,0,0,0,3,11.58,20.53,20.53,0,0,0,8.4,7.9,26.17,26.17,0,0,0,12.37,2.82,27,27,0,0,0,10.48-2,22.83,22.83,0,0,0,8.27-5.88l6.5,7.6a28.38,28.38,0,0,1-11,7.84A38.11,38.11,0,0,1,534.42,263.44Z"></path><path class="cls-2" d="M654.75,263.44a34.89,34.89,0,0,1-17.34-4.29,31.6,31.6,0,0,1-12.07-11.83,33.19,33.19,0,0,1-4.41-17.09,32.84,32.84,0,0,1,4.41-17.1,32,32,0,0,1,12-11.7,34.74,34.74,0,0,1,17.4-4.29,35.28,35.28,0,0,1,17.34,4.23,31,31,0,0,1,12,11.7,36,36,0,0,1,0,34.31,31.37,31.37,0,0,1-12,11.77A34.89,34.89,0,0,1,654.75,263.44Zm0-10.3A22.17,22.17,0,0,0,666,250.32a19.84,19.84,0,0,0,7.78-8,24.94,24.94,0,0,0,2.82-12.07,24.5,24.5,0,0,0-2.82-12.07,20.2,20.2,0,0,0-7.78-7.91,22.37,22.37,0,0,0-11.21-2.81,22,22,0,0,0-11.15,2.81,21.18,21.18,0,0,0-7.84,7.91,23.7,23.7,0,0,0-2.94,12.07,24.11,24.11,0,0,0,2.94,12.07,20.78,20.78,0,0,0,7.84,8A21.85,21.85,0,0,0,654.75,253.14Z"></path><path class="cls-2" d="M779.5,263.44a36,36,0,0,1-17.71-4.29,31.6,31.6,0,0,1-12.2-11.77,35.57,35.57,0,0,1,0-34.31,31.21,31.21,0,0,1,12.2-11.7,36.46,36.46,0,0,1,17.71-4.23,34.42,34.42,0,0,1,15.74,3.5A24.68,24.68,0,0,1,806,211L797,216.75a20.06,20.06,0,0,0-7.78-7.05,22.06,22.06,0,0,0-9.87-2.26A23,23,0,0,0,768,210.25a21,21,0,0,0-8,7.91,23.7,23.7,0,0,0-2.94,12.07A24,24,0,0,0,760,242.36a20.66,20.66,0,0,0,8,8,22.75,22.75,0,0,0,11.39,2.82,22.06,22.06,0,0,0,9.87-2.26,20,20,0,0,0,7.78-7l8.94,5.64a25.66,25.66,0,0,1-10.72,10.35A33.48,33.48,0,0,1,779.5,263.44Z"></path><path class="cls-2" d="M855.84,263.44a37.79,37.79,0,0,1-18.32-4.29,30.89,30.89,0,0,1-12.26-11.77,33.46,33.46,0,0,1-4.35-17.15,34.27,34.27,0,0,1,4.23-17.16,30.57,30.57,0,0,1,11.64-11.7,33.15,33.15,0,0,1,16.73-4.23,32.73,32.73,0,0,1,16.66,4.17A29.56,29.56,0,0,1,881.51,213a36.19,36.19,0,0,1,4.1,17.59q0,.74-.06,1.71c0,.66-.1,1.27-.18,1.84H830.1V225.7h49.14l-4.78,2.94a21.79,21.79,0,0,0-2.57-11.15,19.64,19.64,0,0,0-7.41-7.66,23.06,23.06,0,0,0-21.88,0,19.35,19.35,0,0,0-7.47,7.72,23.29,23.29,0,0,0-2.7,11.33v2a22.36,22.36,0,0,0,3,11.58,20.59,20.59,0,0,0,8.4,7.9,26.19,26.19,0,0,0,12.38,2.82,27,27,0,0,0,10.47-2A22.75,22.75,0,0,0,875,245.3l6.5,7.6a28.38,28.38,0,0,1-11,7.84A38.11,38.11,0,0,1,855.84,263.44Z"></path><path class="cls-2" d="M908.65,262.7V197.76h11.28V215.4L918.82,211a20,20,0,0,1,9.07-10.29q6.38-3.55,15.69-3.56v11.4a8.76,8.76,0,0,0-1.41-.12h-1.29q-9.43,0-15,5.63t-5.51,16.3V262.7Z"></path><path class="cls-2" d="M958.16,207.44v-9.68h41.42v9.68Zm31.61,56q-9.79,0-15.19-5.27t-5.4-15.07V183.54H981v59.07q0,5.26,2.63,8.08t7.54,2.82a13.87,13.87,0,0,0,9.19-3.06l3.68,8.45a17,17,0,0,1-6.44,3.43A27.15,27.15,0,0,1,989.77,263.44Z"></path><path class="cls-2" d="M1050.55,263.44a34.89,34.89,0,0,1-17.34-4.29,31.67,31.67,0,0,1-12.07-11.83,33.19,33.19,0,0,1-4.41-17.09,32.84,32.84,0,0,1,4.41-17.1,32.12,32.12,0,0,1,12-11.7,34.77,34.77,0,0,1,17.4-4.29,35.28,35.28,0,0,1,17.34,4.23,30.91,30.91,0,0,1,12,11.7,36,36,0,0,1,0,34.31,31.3,31.3,0,0,1-12,11.77A34.89,34.89,0,0,1,1050.55,263.44Zm0-10.3a22.15,22.15,0,0,0,11.21-2.82,19.87,19.87,0,0,0,7.79-8,25,25,0,0,0,2.81-12.07,24.61,24.61,0,0,0-2.81-12.07,20.22,20.22,0,0,0-7.79-7.91,22.35,22.35,0,0,0-11.21-2.81,22.07,22.07,0,0,0-11.15,2.81,21.18,21.18,0,0,0-7.84,7.91,23.7,23.7,0,0,0-2.94,12.07,24.11,24.11,0,0,0,2.94,12.07,20.78,20.78,0,0,0,7.84,8A21.87,21.87,0,0,0,1050.55,253.14Z"></path><path class="cls-2" d="M147.4,344.19a30.79,30.79,0,0,1,14,3.06,22,22,0,0,1,9.49,9.32q3.44,6.24,3.43,15.8v37.38H162.59v-36q0-9.44-4.59-14.21t-12.93-4.78a23.13,23.13,0,0,0-10.91,2.45,16.85,16.85,0,0,0-7.17,7.23,25.43,25.43,0,0,0-2.51,11.89v33.45H112.72V344.8H124v17.53l-1.84-4.66a22.56,22.56,0,0,1,9.81-9.93A32.23,32.23,0,0,1,147.4,344.19Z"></path><path class="cls-2" d="M231.83,410.49a37.79,37.79,0,0,1-18.32-4.29,30.89,30.89,0,0,1-12.26-11.77,33.46,33.46,0,0,1-4.35-17.15,34.24,34.24,0,0,1,4.23-17.16,30.57,30.57,0,0,1,11.64-11.7,33.15,33.15,0,0,1,16.73-4.23,32.73,32.73,0,0,1,16.66,4.17,29.56,29.56,0,0,1,11.34,11.7,36.26,36.26,0,0,1,4.1,17.58c0,.49,0,1.07-.06,1.72s-.1,1.27-.18,1.84H206.09v-8.46h49.14l-4.78,2.94a21.94,21.94,0,0,0-2.57-11.15,19.73,19.73,0,0,0-7.42-7.66,23.12,23.12,0,0,0-21.87,0,19.41,19.41,0,0,0-7.47,7.72,23.35,23.35,0,0,0-2.7,11.34v2a22.36,22.36,0,0,0,3,11.58,20.59,20.59,0,0,0,8.4,7.9,26.29,26.29,0,0,0,12.37,2.82,27,27,0,0,0,10.48-2,23,23,0,0,0,8.27-5.88l6.5,7.6a28.49,28.49,0,0,1-11,7.84A38.11,38.11,0,0,1,231.83,410.49Z"></path><path class="cls-2" d="M365.88,344.19a30.09,30.09,0,0,1,13.85,3.06,21.8,21.8,0,0,1,9.38,9.32q3.36,6.24,3.37,15.8v37.38H380.71v-36q0-9.44-4.41-14.21t-12.38-4.78a20.88,20.88,0,0,0-10.29,2.45,16.43,16.43,0,0,0-6.8,7.23,26.51,26.51,0,0,0-2.39,11.89v33.45H332.68v-36q0-9.44-4.35-14.21t-12.44-4.78a20.63,20.63,0,0,0-10.17,2.45,16.87,16.87,0,0,0-6.87,7.23,26,26,0,0,0-2.45,11.89v33.45H284.64V344.8h11.27v17.28l-1.83-4.41a22.12,22.12,0,0,1,9.43-9.93,30,30,0,0,1,14.83-3.55,27.74,27.74,0,0,1,16.05,4.6q6.74,4.59,8.82,13.9l-4.77-2a24.39,24.39,0,0,1,10.29-12A32,32,0,0,1,365.88,344.19Z"></path><path class="cls-2" d="M488.42,410.49a34.89,34.89,0,0,1-17.34-4.29A31.67,31.67,0,0,1,459,394.37a33.19,33.19,0,0,1-4.41-17.09,32.82,32.82,0,0,1,4.41-17.1,32.12,32.12,0,0,1,12-11.7,34.8,34.8,0,0,1,17.4-4.29,35.26,35.26,0,0,1,17.34,4.23,30.91,30.91,0,0,1,12,11.7,36,36,0,0,1,0,34.31,31.3,31.3,0,0,1-12,11.77A34.86,34.86,0,0,1,488.42,410.49Zm0-10.3a22.25,22.25,0,0,0,11.21-2.82,19.93,19.93,0,0,0,7.79-8,25.07,25.07,0,0,0,2.81-12.07,24.61,24.61,0,0,0-2.81-12.07,20.16,20.16,0,0,0-7.79-7.91,22.25,22.25,0,0,0-11.21-2.82,22,22,0,0,0-11.15,2.82,21.11,21.11,0,0,0-7.84,7.91,23.7,23.7,0,0,0-2.94,12.07,24.14,24.14,0,0,0,2.94,12.07,20.85,20.85,0,0,0,7.84,8A22,22,0,0,0,488.42,400.19Z"></path><path class="cls-2" d="M613.78,410.49a37.79,37.79,0,0,1-18.32-4.29,30.8,30.8,0,0,1-12.25-11.77,33.36,33.36,0,0,1-4.35-17.15,34.24,34.24,0,0,1,4.22-17.16,30.57,30.57,0,0,1,11.64-11.7,33.18,33.18,0,0,1,16.73-4.23,32.77,32.77,0,0,1,16.67,4.17,29.54,29.54,0,0,1,11.33,11.7,36.16,36.16,0,0,1,4.11,17.58c0,.49,0,1.07-.06,1.72s-.11,1.27-.19,1.84H588.05v-8.46h49.13l-4.77,2.94a21.85,21.85,0,0,0-2.58-11.15,19.78,19.78,0,0,0-7.41-7.66,23.12,23.12,0,0,0-21.87,0,19.43,19.43,0,0,0-7.48,7.72,23.35,23.35,0,0,0-2.7,11.34v2a22.27,22.27,0,0,0,3,11.58,20.57,20.57,0,0,0,8.39,7.9,26.31,26.31,0,0,0,12.38,2.82,26.94,26.94,0,0,0,10.47-2,22.9,22.9,0,0,0,8.28-5.88l6.49,7.6a28.49,28.49,0,0,1-11,7.84A38.11,38.11,0,0,1,613.78,410.49Z"></path><path class="cls-2" d="M666.59,409.75V344.8h11.28v17.65L676.76,358a20,20,0,0,1,9.07-10.3q6.38-3.54,15.69-3.55v11.4a8.8,8.8,0,0,0-1.41-.13h-1.29q-9.44,0-15,5.64t-5.51,16.3v32.35Z"></path><path class="cls-2" d="M722.72,409.75V344.8H734v17.65l-1.1-4.41a19.94,19.94,0,0,1,9.07-10.3q6.36-3.54,15.68-3.55v11.4a8.8,8.8,0,0,0-1.41-.13h-1.29q-9.44,0-14.94,5.64t-5.52,16.3v32.35Z"></path><path class="cls-2" d="M793.05,410.49A30.58,30.58,0,0,1,780.37,408a19.44,19.44,0,0,1-8.39-6.8,17.21,17.21,0,0,1-2.94-9.86,18.52,18.52,0,0,1,2.51-9.56,17.33,17.33,0,0,1,8.21-6.86q5.7-2.58,15.38-2.58h20.58v8.46H795.63q-8.82,0-11.89,2.94a9.5,9.5,0,0,0-3.06,7.11,9.13,9.13,0,0,0,3.8,7.66q3.79,2.88,10.53,2.88a22.25,22.25,0,0,0,11.58-2.94,16.72,16.72,0,0,0,7.17-8.58l2.33,8.09a18.25,18.25,0,0,1-8.21,9.12Q802,410.49,793.05,410.49Zm21.33-.74V396l-.62-2.58v-23.4c0-5-1.45-8.85-4.35-11.58s-7.25-4.11-13-4.11a34.55,34.55,0,0,0-11.27,1.9,28.92,28.92,0,0,0-9.31,5.09l-4.9-8.83a35.52,35.52,0,0,1,12.06-6.18,50.45,50.45,0,0,1,14.77-2.15q13.35,0,20.59,6.5t7.23,19.85v39.21Z"></path><path class="cls-2" d="M880.91,410.49a33.79,33.79,0,0,1-16.85-4.17,30.57,30.57,0,0,1-11.7-11.64,34.35,34.35,0,0,1-4.29-17.4,34,34,0,0,1,4.29-17.34,30.69,30.69,0,0,1,11.7-11.58,33.79,33.79,0,0,1,16.85-4.17,30,30,0,0,1,14.83,3.68,26.77,26.77,0,0,1,10.6,11q4,7.35,4,18.38t-3.86,18.38A26.46,26.46,0,0,1,896,406.75,30.15,30.15,0,0,1,880.91,410.49Zm1-10.3A22,22,0,0,0,893,397.37a20.33,20.33,0,0,0,7.85-8,24.54,24.54,0,0,0,2.88-12.07,24.09,24.09,0,0,0-2.88-12.07A20.57,20.57,0,0,0,893,357.3a23.33,23.33,0,0,0-22.24,0,21.11,21.11,0,0,0-7.84,7.91A23.7,23.7,0,0,0,860,377.28a24.14,24.14,0,0,0,2.94,12.07,20.85,20.85,0,0,0,7.84,8A22,22,0,0,0,881.89,400.19Zm22.18,9.56V392.23l.74-15.08-1.23-15.07V318.82h11.77v90.93Z"></path><path class="cls-2" d="M972.21,410.49a34.84,34.84,0,0,1-17.34-4.29,31.6,31.6,0,0,1-12.07-11.83,33.2,33.2,0,0,1-4.42-17.09,32.82,32.82,0,0,1,4.42-17.1,32,32,0,0,1,12-11.7,34.74,34.74,0,0,1,17.4-4.29,35.28,35.28,0,0,1,17.34,4.23,31,31,0,0,1,12,11.7,36,36,0,0,1,0,34.31,31.34,31.34,0,0,1-12,11.77A34.89,34.89,0,0,1,972.21,410.49Zm0-10.3a22.3,22.3,0,0,0,11.21-2.82,19.9,19.9,0,0,0,7.78-8A25,25,0,0,0,994,377.28a24.5,24.5,0,0,0-2.82-12.07,20.13,20.13,0,0,0-7.78-7.91,22.3,22.3,0,0,0-11.21-2.82,22,22,0,0,0-11.16,2.82,21.19,21.19,0,0,0-7.84,7.91,23.7,23.7,0,0,0-2.94,12.07,24.14,24.14,0,0,0,2.94,12.07,20.92,20.92,0,0,0,7.84,8A22,22,0,0,0,972.21,400.19Z"></path><path d="M1079.16,362.71a22,22,0,0,1,10.07,2.2,15.8,15.8,0,0,1,6.82,6.68,23.39,23.39,0,0,1,2.46,11.34v26.82h-8.44V383.9q0-6.76-3.3-10.2t-9.28-3.43a16.55,16.55,0,0,0-7.82,1.76,12,12,0,0,0-5.15,5.19,18.18,18.18,0,0,0-1.8,8.52v24h-8.44v-46.6h8.09v12.57l-1.32-3.34a16.14,16.14,0,0,1,7-7.12A23,23,0,0,1,1079.16,362.71Z"></path><path d="M1132.63,410.28a22.1,22.1,0,0,1-9.11-1.76,14,14,0,0,1-6-4.88,12.32,12.32,0,0,1-2.11-7.08,13.34,13.34,0,0,1,1.8-6.86,12.5,12.5,0,0,1,5.89-4.92q4.1-1.84,11-1.85h14.77V389h-14.42q-6.33,0-8.53,2.11a6.84,6.84,0,0,0-2.2,5.1,6.54,6.54,0,0,0,2.73,5.49q2.73,2.07,7.56,2.07a15.94,15.94,0,0,0,8.31-2.11,12,12,0,0,0,5.14-6.15l1.68,5.8a13.16,13.16,0,0,1-5.9,6.55A21.16,21.16,0,0,1,1132.63,410.28Zm15.29-.53V399.9l-.44-1.84v-16.8q0-5.36-3.12-8.31T1135,370a24.63,24.63,0,0,0-8.09,1.36,20.64,20.64,0,0,0-6.68,3.65l-3.52-6.33a25.24,25.24,0,0,1,8.66-4.44,36,36,0,0,1,10.6-1.54q9.57,0,14.77,4.66t5.19,14.24v28.14Z"></path><path d="M231.62,468.22a22.15,22.15,0,0,1,10.07,2.2,15.78,15.78,0,0,1,6.81,6.68A23.41,23.41,0,0,1,251,488.45v26.82h-8.44V489.41q0-6.77-3.3-10.2c-2.19-2.28-5.29-3.43-9.27-3.43a16.62,16.62,0,0,0-7.83,1.76,12.09,12.09,0,0,0-5.14,5.19,18.1,18.1,0,0,0-1.81,8.53v24h-8.44V450h8.44v31.22l-1.67-3.34a16.21,16.21,0,0,1,7-7.13A23.06,23.06,0,0,1,231.62,468.22Z"></path><path d="M291.41,515.79A25,25,0,0,1,279,512.72a22.71,22.71,0,0,1-8.66-8.49A23.84,23.84,0,0,1,267.14,492a23.5,23.5,0,0,1,3.17-12.26,23,23,0,0,1,8.61-8.4,26.92,26.92,0,0,1,24.93,0,22.21,22.21,0,0,1,8.62,8.39,25.84,25.84,0,0,1,0,24.62,22.57,22.57,0,0,1-8.62,8.45A25,25,0,0,1,291.41,515.79Zm0-7.38a16,16,0,0,0,8-2,14.17,14.17,0,0,0,5.59-5.76,17.87,17.87,0,0,0,2-8.66,17.6,17.6,0,0,0-2-8.66,14.45,14.45,0,0,0-5.59-5.67,16,16,0,0,0-8-2,15.72,15.72,0,0,0-8,2,15.17,15.17,0,0,0-5.63,5.67,17,17,0,0,0-2.11,8.66,17.25,17.25,0,0,0,2.11,8.66,14.86,14.86,0,0,0,5.63,5.76A15.73,15.73,0,0,0,291.41,508.41Z"></path><path d="M332.12,515.27V468.66h8.09v12.66l-.79-3.16a14.36,14.36,0,0,1,6.5-7.39,22.84,22.84,0,0,1,11.26-2.55v8.18a6,6,0,0,0-1-.09h-.92q-6.78,0-10.73,4.05t-4,11.69v23.22Z"></path><path d="M382.59,515.79a21.89,21.89,0,0,1-9.1-1.76,13.82,13.82,0,0,1-6-4.88,12.31,12.31,0,0,1-2.11-7.07,13.34,13.34,0,0,1,1.8-6.86,12.46,12.46,0,0,1,5.89-4.93c2.73-1.23,6.4-1.84,11-1.84h14.77v6.06H384.44c-4.22,0-7.07.71-8.53,2.11a6.81,6.81,0,0,0-2.2,5.1,6.56,6.56,0,0,0,2.73,5.5q2.71,2.07,7.56,2.07a16.09,16.09,0,0,0,8.31-2.11,12,12,0,0,0,5.14-6.16l1.67,5.8a13.1,13.1,0,0,1-5.89,6.55A21.07,21.07,0,0,1,382.59,515.79Zm15.3-.52v-9.85l-.44-1.85V486.78q0-5.37-3.12-8.31t-9.37-3a24.83,24.83,0,0,0-8.08,1.36,21,21,0,0,0-6.69,3.65l-3.51-6.33a25.5,25.5,0,0,1,8.66-4.44,36.36,36.36,0,0,1,10.59-1.54q9.58,0,14.77,4.66t5.19,14.25v28.14Z"></path><path d="M474.12,515.79a24.19,24.19,0,0,1-12.09-3,21.85,21.85,0,0,1-8.39-8.35,26.76,26.76,0,0,1,0-24.93,22.1,22.1,0,0,1,8.39-8.31,24.3,24.3,0,0,1,12.09-3,21.5,21.5,0,0,1,10.64,2.64,19.28,19.28,0,0,1,7.61,7.92A27.47,27.47,0,0,1,495.23,492a28.23,28.23,0,0,1-2.77,13.19,19,19,0,0,1-7.52,8A21.6,21.6,0,0,1,474.12,515.79Zm.71-7.38a15.84,15.84,0,0,0,8-2,14.5,14.5,0,0,0,5.62-5.76,17.55,17.55,0,0,0,2.07-8.66,17.29,17.29,0,0,0-2.07-8.66,14.79,14.79,0,0,0-5.62-5.67,16.77,16.77,0,0,0-16,0,15.17,15.17,0,0,0-5.63,5.67,17,17,0,0,0-2.11,8.66,17.25,17.25,0,0,0,2.11,8.66,14.86,14.86,0,0,0,5.63,5.76A15.73,15.73,0,0,0,474.83,508.41Zm15.91,6.86V502.69l.53-10.81-.88-10.82V450h8.44v65.25Z"></path><path d="M540.42,515.79a27.13,27.13,0,0,1-13.14-3.07,22.24,22.24,0,0,1-8.8-8.45A24,24,0,0,1,515.36,492a24.51,24.51,0,0,1,3-12.31,21.85,21.85,0,0,1,8.35-8.39,25.31,25.31,0,0,1,24-.05,21.14,21.14,0,0,1,8.13,8.4,25.92,25.92,0,0,1,2.95,12.62c0,.35,0,.76,0,1.23s-.08.91-.14,1.32H522v-6.07h35.26l-3.43,2.11a15.64,15.64,0,0,0-1.85-8,14.14,14.14,0,0,0-5.32-5.5,16.61,16.61,0,0,0-15.69,0,14,14,0,0,0-5.37,5.54,16.8,16.8,0,0,0-1.93,8.14v1.4a16.08,16.08,0,0,0,2.15,8.31,14.73,14.73,0,0,0,6,5.67,18.82,18.82,0,0,0,8.88,2A19.33,19.33,0,0,0,548.2,507a16.43,16.43,0,0,0,5.94-4.22l4.66,5.45a20.41,20.41,0,0,1-7.87,5.63A27.41,27.41,0,0,1,540.42,515.79Z"></path><path d="M620.17,515.79a37.76,37.76,0,0,1-11-1.58,25.82,25.82,0,0,1-8.22-3.87l3.51-6.68a30.89,30.89,0,0,0,16.36,4.83c3.93,0,6.76-.55,8.48-1.67a5.25,5.25,0,0,0,2.6-4.66,4.1,4.1,0,0,0-1.58-3.42,10.7,10.7,0,0,0-4.18-1.85q-2.6-.61-5.76-1.1T614,494.56a25.06,25.06,0,0,1-5.8-2.11,10.94,10.94,0,0,1-4.22-3.78,11.63,11.63,0,0,1-1.59-6.47,11.92,11.92,0,0,1,2.38-7.38,15,15,0,0,1,6.72-4.88,28,28,0,0,1,10.33-1.72,40.88,40.88,0,0,1,9.28,1.1,23.43,23.43,0,0,1,7.7,3.12l-3.61,6.69a20,20,0,0,0-6.59-2.91,30.93,30.93,0,0,0-6.86-.79c-3.7,0-6.45.6-8.27,1.81a5.35,5.35,0,0,0-2.72,4.61,4.36,4.36,0,0,0,1.62,3.65,11.82,11.82,0,0,0,4.22,2,51.47,51.47,0,0,0,5.76,1.19q3.17.48,6.33,1.23a25.75,25.75,0,0,1,5.76,2.06,11.09,11.09,0,0,1,4.22,3.7,11,11,0,0,1,1.63,6.33,11.34,11.34,0,0,1-2.46,7.3,15.91,15.91,0,0,1-7,4.79A30.11,30.11,0,0,1,620.17,515.79Z"></path><path d="M676.45,515.79a27.15,27.15,0,0,1-13.15-3.07,22.22,22.22,0,0,1-8.79-8.45A24,24,0,0,1,651.39,492a24.61,24.61,0,0,1,3-12.31,21.88,21.88,0,0,1,8.36-8.39,25.31,25.31,0,0,1,24-.05,21.27,21.27,0,0,1,8.13,8.4,26,26,0,0,1,2.94,12.62c0,.35,0,.76,0,1.23s-.07.91-.13,1.32H658v-6.07h35.26l-3.43,2.11a15.63,15.63,0,0,0-1.84-8,14.21,14.21,0,0,0-5.32-5.5,16.63,16.63,0,0,0-15.7,0,14,14,0,0,0-5.36,5.54,16.8,16.8,0,0,0-1.94,8.14v1.4a16,16,0,0,0,2.16,8.31,14.64,14.64,0,0,0,6,5.67,18.87,18.87,0,0,0,8.88,2,19.38,19.38,0,0,0,7.52-1.41,16.52,16.52,0,0,0,5.94-4.22l4.66,5.45a20.56,20.56,0,0,1-7.87,5.63A27.41,27.41,0,0,1,676.45,515.79Z"></path><path d="M755.06,515.27l-20.4-46.61h8.79l18.11,42.21h-4.22l18.47-42.21h8.26l-20.4,46.61Z"></path><path d="M816.26,515.79a27.15,27.15,0,0,1-13.15-3.07,22.22,22.22,0,0,1-8.79-8.45A23.9,23.9,0,0,1,791.19,492a24.61,24.61,0,0,1,3-12.31,21.85,21.85,0,0,1,8.35-8.39,25.31,25.31,0,0,1,24-.05,21.23,21.23,0,0,1,8.14,8.4,26,26,0,0,1,2.94,12.62c0,.35,0,.76,0,1.23s-.08.91-.13,1.32H797.79v-6.07h35.26l-3.43,2.11a15.64,15.64,0,0,0-1.85-8,14.14,14.14,0,0,0-5.32-5.5,16.61,16.61,0,0,0-15.69,0,14,14,0,0,0-5.37,5.54,16.8,16.8,0,0,0-1.93,8.14v1.4a16.08,16.08,0,0,0,2.15,8.31,14.73,14.73,0,0,0,6,5.67,18.87,18.87,0,0,0,8.88,2A19.41,19.41,0,0,0,824,507a16.48,16.48,0,0,0,5.93-4.22l4.66,5.45a20.41,20.41,0,0,1-7.87,5.63A27.35,27.35,0,0,1,816.26,515.79Z"></path><path d="M867.52,515.79a37.78,37.78,0,0,1-11-1.58,25.82,25.82,0,0,1-8.22-3.87l3.52-6.68a28.78,28.78,0,0,0,7.38,3.43,29.18,29.18,0,0,0,9,1.4c3.93,0,6.76-.55,8.49-1.67a5.24,5.24,0,0,0,2.59-4.66,4.1,4.1,0,0,0-1.58-3.42,10.7,10.7,0,0,0-4.18-1.85q-2.6-.61-5.76-1.1t-6.33-1.23a25.23,25.23,0,0,1-5.8-2.11,10.94,10.94,0,0,1-4.22-3.78,11.63,11.63,0,0,1-1.58-6.47,12,12,0,0,1,2.37-7.38,15,15,0,0,1,6.73-4.88,28,28,0,0,1,10.33-1.72,40.73,40.73,0,0,1,9.27,1.1,23.34,23.34,0,0,1,7.7,3.12l-3.61,6.69a20,20,0,0,0-6.59-2.91,30.86,30.86,0,0,0-6.86-.79c-3.69,0-6.45.6-8.26,1.81a5.36,5.36,0,0,0-2.73,4.61,4.34,4.34,0,0,0,1.63,3.65,11.74,11.74,0,0,0,4.22,2,51,51,0,0,0,5.76,1.19q3.16.48,6.33,1.23a25.75,25.75,0,0,1,5.76,2.06,11.24,11.24,0,0,1,4.22,3.7,11,11,0,0,1,1.62,6.33,11.34,11.34,0,0,1-2.46,7.3,15.91,15.91,0,0,1-7,4.79A30.06,30.06,0,0,1,867.52,515.79Z"></path><path d="M896.36,475.61v-6.95h29.72v6.95Zm22.69,40.18q-7,0-10.91-3.78t-3.87-10.81V458.46h8.44v42.38a8.19,8.19,0,0,0,1.89,5.81,7,7,0,0,0,5.41,2,9.94,9.94,0,0,0,6.6-2.2l2.63,6.07a12.32,12.32,0,0,1-4.61,2.46A19.55,19.55,0,0,1,919.05,515.79Z"></path><path d="M948.5,459.69a5.62,5.62,0,0,1-4.09-1.58,5.2,5.2,0,0,1-1.63-3.87,5.29,5.29,0,0,1,1.63-3.95,5.63,5.63,0,0,1,4.09-1.59,5.76,5.76,0,0,1,4.09,1.54,5.07,5.07,0,0,1,1.62,3.83,5.47,5.47,0,0,1-5.71,5.62Zm-4.22,55.58V468.66h8.44v46.61Z"></path><path d="M973.65,515.27V468.66h8.09v12.66l-.8-3.16a14.34,14.34,0,0,1,6.51-7.39,22.84,22.84,0,0,1,11.26-2.55v8.18a6.12,6.12,0,0,0-1-.09h-.92q-6.76,0-10.73,4.05t-3.95,11.69v23.22Z"></path><path d="M1015.68,515.79a5.93,5.93,0,0,1-6-6.06,5.65,5.65,0,0,1,1.76-4.31,5.86,5.86,0,0,1,4.22-1.67,5.61,5.61,0,0,1,4.08,1.67,5.72,5.72,0,0,1,1.72,4.31,5.88,5.88,0,0,1-1.72,4.35A5.57,5.57,0,0,1,1015.68,515.79Zm20.4,0a5.91,5.91,0,0,1-6-6.06,5.67,5.67,0,0,1,1.75-4.31,5.9,5.9,0,0,1,4.23-1.67,5.61,5.61,0,0,1,4.08,1.67,5.72,5.72,0,0,1,1.72,4.31,5.88,5.88,0,0,1-1.72,4.35A5.57,5.57,0,0,1,1036.08,515.79Zm20.39,0a5.91,5.91,0,0,1-6-6.06,5.67,5.67,0,0,1,1.75-4.31,5.9,5.9,0,0,1,4.22-1.67,5.62,5.62,0,0,1,4.09,1.67,5.72,5.72,0,0,1,1.72,4.31,5.88,5.88,0,0,1-1.72,4.35A5.58,5.58,0,0,1,1056.47,515.79Z"></path></g></g></g></svg>