<svg xmlns="http://www.w3.org/2000/svg" viewBox="0 0 2433.68 840.14"><title>7</title><g id="Camada_2" data-name="Camada 2"><g id="Camada_2-2" data-name="Camada 2"><path d="M21.36,105.59v-87H55.27q11.43,0,19.51,3.61A27.64,27.64,0,0,1,87.2,32.67,29.68,29.68,0,0,1,91.55,49,29.37,29.37,0,0,1,87.2,65.16,28.15,28.15,0,0,1,74.78,75.59q-8.09,3.68-19.51,3.67H28.19l5.59-5.84v32.17ZM33.78,74.66l-5.59-6.21H54.9q11.93,0,18.07-5.09T79.12,49q0-9.33-6.15-14.41T54.9,29.44H28.19l5.59-6.21Z" transform="translate(-21.36 -11.55)"></path><path d="M113.78,105.59V39.75h11.43V57.64l-1.12-4.47a20.28,20.28,0,0,1,9.2-10.44q6.45-3.6,15.9-3.6V50.68a9.09,9.09,0,0,0-1.43-.12h-1.31q-9.57,0-15.15,5.71t-5.59,16.52v32.8Z" transform="translate(-21.36 -11.55)"></path><path d="M185.09,106.34a31,31,0,0,1-12.86-2.49A19.65,19.65,0,0,1,163.72,97a17.44,17.44,0,0,1-3-10,18.89,18.89,0,0,1,2.54-9.69,17.67,17.67,0,0,1,8.33-7q5.77-2.61,15.59-2.61h20.87v8.57H187.69q-8.94,0-12,3a9.58,9.58,0,0,0-3.11,7.2,9.24,9.24,0,0,0,3.85,7.76q3.86,2.93,10.68,2.92a22.54,22.54,0,0,0,11.74-3,16.89,16.89,0,0,0,7.27-8.69l2.36,8.2a18.56,18.56,0,0,1-8.32,9.25Q194.15,106.34,185.09,106.34Zm21.61-.75V91.68l-.62-2.61V65.34q0-7.58-4.41-11.74t-13.23-4.16A34.73,34.73,0,0,0,177,51.37a29.41,29.41,0,0,0-9.44,5.15l-5-8.94a36,36,0,0,1,12.24-6.28,51.42,51.42,0,0,1,15-2.17q13.53,0,20.87,6.58T218,65.84v39.75Z" transform="translate(-21.36 -11.55)"></path><path d="M314.53,102.86a35.53,35.53,0,0,1-17.08-4,30.86,30.86,0,0,1-11.93-11.24,31.23,31.23,0,0,1-4.41-16.65,31.2,31.2,0,0,1,4.41-16.71,30.53,30.53,0,0,1,11.93-11.11,36,36,0,0,1,17.08-4,34.43,34.43,0,0,1,15.4,3.42A26.1,26.1,0,0,1,341.05,53q4.15,7.08,4.16,17.89T341.05,88.7a26.9,26.9,0,0,1-11.12,10.62A33.46,33.46,0,0,1,314.53,102.86ZM316,130.44a60.88,60.88,0,0,1-17.58-2.55,36.32,36.32,0,0,1-13.85-7.27l5.71-9.19a33.87,33.87,0,0,0,11.31,6.27,43.06,43.06,0,0,0,14,2.3q11.67,0,17.14-5.46t5.47-16.65V84l1.24-13-.62-13.17v-18h11.3v56.9q0,17.38-8.7,25.59T316,130.44Zm-.13-38a24.36,24.36,0,0,0,11.68-2.73,20.37,20.37,0,0,0,8-7.58,21.19,21.19,0,0,0,2.92-11.18,21.21,21.21,0,0,0-2.92-11.18,19.93,19.93,0,0,0-8-7.51,24.8,24.8,0,0,0-11.68-2.67,25.09,25.09,0,0,0-11.73,2.67,19.92,19.92,0,0,0-8.08,7.51,21.21,21.21,0,0,0-2.92,11.18,21.19,21.19,0,0,0,2.92,11.18,20.36,20.36,0,0,0,8.08,7.58A24.64,24.64,0,0,0,315.89,92.42Z" transform="translate(-21.36 -11.55)"></path><path d="M409.06,106.34A38.31,38.31,0,0,1,390.49,102a31.3,31.3,0,0,1-12.42-11.93,33.93,33.93,0,0,1-4.41-17.39,34.78,34.78,0,0,1,4.28-17.39,30.87,30.87,0,0,1,11.81-11.86,35.79,35.79,0,0,1,33.85-.07,30,30,0,0,1,11.49,11.87A36.71,36.71,0,0,1,439.25,73q0,.75-.06,1.74c-.05.67-.11,1.29-.19,1.87H383V68.08h49.82l-4.85,3a22.1,22.1,0,0,0-2.6-11.31A20,20,0,0,0,417.82,52a23.34,23.34,0,0,0-22.17,0,19.67,19.67,0,0,0-7.58,7.82,23.74,23.74,0,0,0-2.74,11.49v2A22.63,22.63,0,0,0,388.38,85a20.82,20.82,0,0,0,8.51,8,26.59,26.59,0,0,0,12.54,2.86,27.36,27.36,0,0,0,10.63-2,23.24,23.24,0,0,0,8.38-6l6.59,7.7a28.88,28.88,0,0,1-11.12,7.95A38.56,38.56,0,0,1,409.06,106.34Z" transform="translate(-21.36 -11.55)"></path><path d="M497.76,39.13A31.14,31.14,0,0,1,512,42.24a22.26,22.26,0,0,1,9.63,9.44q3.48,6.33,3.48,16v37.89H513.16V69.07q0-9.57-4.66-14.41t-13.1-4.85a23.38,23.38,0,0,0-11.06,2.49,17,17,0,0,0-7.26,7.33,25.68,25.68,0,0,0-2.55,12.05v33.91H462.6V39.75H474V57.52l-1.86-4.73a22.88,22.88,0,0,1,9.94-10.06A32.6,32.6,0,0,1,497.76,39.13Z" transform="translate(-21.36 -11.55)"></path><path d="M544.59,49.57V39.75h42v9.82Zm32,56.77q-9.93,0-15.4-5.35t-5.47-15.28V25.34H567.7V85.22q0,5.34,2.67,8.2T578,96.27a14.07,14.07,0,0,0,9.32-3.1l3.72,8.57a17.4,17.4,0,0,1-6.52,3.48A28,28,0,0,1,576.64,106.34Z" transform="translate(-21.36 -11.55)"></path><path d="M639.38,106.34A38.37,38.37,0,0,1,620.8,102a31.3,31.3,0,0,1-12.42-11.93A33.93,33.93,0,0,1,604,72.67a34.68,34.68,0,0,1,4.29-17.39,30.84,30.84,0,0,1,11.8-11.86,35.79,35.79,0,0,1,33.85-.07A30,30,0,0,1,665.4,55.22,36.71,36.71,0,0,1,669.56,73q0,.75-.06,1.74c0,.67-.1,1.29-.19,1.87h-56V68.08H663.1l-4.84,3a22.21,22.21,0,0,0-2.61-11.31A19.9,19.9,0,0,0,648.13,52,23.34,23.34,0,0,0,626,52a19.67,19.67,0,0,0-7.58,7.82,23.74,23.74,0,0,0-2.73,11.49v2a22.62,22.62,0,0,0,3,11.74,20.88,20.88,0,0,0,8.51,8,26.63,26.63,0,0,0,12.55,2.86,27.34,27.34,0,0,0,10.62-2,23.15,23.15,0,0,0,8.38-6l6.59,7.7a28.8,28.8,0,0,1-11.12,7.95A38.54,38.54,0,0,1,639.38,106.34Z" transform="translate(-21.36 -11.55)"></path><path d="M688.2,124l6.21-25.1,1.61,7.21a8.53,8.53,0,0,1-6-2.24,7.85,7.85,0,0,1-2.42-6.08,8.17,8.17,0,0,1,8.32-8.45,7.6,7.6,0,0,1,5.84,2.42,8.55,8.55,0,0,1,2.23,6,16.13,16.13,0,0,1-.18,2.42,25.83,25.83,0,0,1-.62,2.73c-.3,1-.73,2.3-1.31,3.79L696,124Z" transform="translate(-21.36 -11.55)"></path><path d="M803.35,39.13a31.19,31.19,0,0,1,14.23,3.11,22.23,22.23,0,0,1,9.62,9.44q3.48,6.33,3.48,16v37.89H818.76V69.07q0-9.57-4.66-14.41T801,49.81a23.33,23.33,0,0,0-11,2.49,17,17,0,0,0-7.27,7.33,25.68,25.68,0,0,0-2.55,12.05v33.91H768.2V39.75h11.42V57.52l-1.86-4.73a22.94,22.94,0,0,1,9.94-10.06A32.6,32.6,0,0,1,803.35,39.13Z" transform="translate(-21.36 -11.55)"></path><path d="M878.88,106.34A31.06,31.06,0,0,1,866,103.85,19.71,19.71,0,0,1,857.51,97a17.51,17.51,0,0,1-3-10,18.8,18.8,0,0,1,2.55-9.69,17.64,17.64,0,0,1,8.32-7Q871.18,67.7,881,67.7h20.87v8.57H881.49q-8.94,0-12,3a9.61,9.61,0,0,0-3.11,7.2,9.25,9.25,0,0,0,3.86,7.76q3.84,2.93,10.68,2.92a22.59,22.59,0,0,0,11.74-3,17,17,0,0,0,7.27-8.69l2.36,8.2a18.58,18.58,0,0,1-8.33,9.25Q888,106.34,878.88,106.34Zm21.62-.75V91.68l-.62-2.61V65.34c0-5.05-1.48-9-4.41-11.74s-7.36-4.16-13.23-4.16a34.65,34.65,0,0,0-11.43,1.93,29.31,29.31,0,0,0-9.44,5.15l-5-8.94a36,36,0,0,1,12.23-6.28,51.42,51.42,0,0,1,15-2.17q13.54,0,20.87,6.58t7.33,20.13v39.75Zm-7.33-75.78a10.9,10.9,0,0,1-5.28-1.24,21.09,21.09,0,0,1-4.16-2.92,44.57,44.57,0,0,0-3.61-2.92,6,6,0,0,0-3.47-1.24,5.39,5.39,0,0,0-4.41,2.05,9.74,9.74,0,0,0-1.93,5.65H863.6q.25-7,3.48-11a10.47,10.47,0,0,1,8.7-4.1,10.88,10.88,0,0,1,5.34,1.3,23.09,23.09,0,0,1,4.22,3,45.2,45.2,0,0,0,3.54,2.92,5.72,5.72,0,0,0,7.89-.74A8.5,8.5,0,0,0,898.63,15h6.71q-.12,6.59-3.42,10.68A10.63,10.63,0,0,1,893.17,29.81Z" transform="translate(-21.36 -11.55)"></path><path d="M968.94,106.34A35.3,35.3,0,0,1,951.37,102a32.11,32.11,0,0,1-12.24-12,33.67,33.67,0,0,1-4.47-17.33,33.26,33.26,0,0,1,4.47-17.33A32.53,32.53,0,0,1,951.3,43.48a35.27,35.27,0,0,1,17.64-4.35,35.76,35.76,0,0,1,17.58,4.29A31.35,31.35,0,0,1,998.7,55.28a34,34,0,0,1,4.4,17.39,34,34,0,0,1-4.4,17.39A31.8,31.8,0,0,1,986.52,102,35.36,35.36,0,0,1,968.94,106.34Zm0-10.44A22.54,22.54,0,0,0,980.31,93a20.2,20.2,0,0,0,7.89-8.13,25.38,25.38,0,0,0,2.86-12.24,24.87,24.87,0,0,0-2.86-12.23,20.49,20.49,0,0,0-7.89-8,22.64,22.64,0,0,0-11.37-2.85,22.3,22.3,0,0,0-11.3,2.85,21.48,21.48,0,0,0-7.95,8,24,24,0,0,0-3,12.23,24.44,24.44,0,0,0,3,12.24A21.14,21.14,0,0,0,957.64,93,22.2,22.2,0,0,0,968.94,95.9Z" transform="translate(-21.36 -11.55)"></path><path d="M1096,106.34a38.31,38.31,0,0,1-18.57-4.35A31.3,31.3,0,0,1,1065,90.06a33.93,33.93,0,0,1-4.41-17.39,34.68,34.68,0,0,1,4.29-17.39,30.84,30.84,0,0,1,11.8-11.86,35.79,35.79,0,0,1,33.85-.07,30,30,0,0,1,11.49,11.87A36.71,36.71,0,0,1,1126.21,73q0,.75-.06,1.74c0,.67-.11,1.29-.19,1.87h-56V68.08h49.81l-4.84,3a22.21,22.21,0,0,0-2.61-11.31,19.9,19.9,0,0,0-7.52-7.76,23.34,23.34,0,0,0-22.17,0,19.67,19.67,0,0,0-7.58,7.82,23.74,23.74,0,0,0-2.73,11.49v2a22.62,22.62,0,0,0,3,11.74,20.88,20.88,0,0,0,8.51,8,26.63,26.63,0,0,0,12.55,2.86,27.34,27.34,0,0,0,10.62-2,23.15,23.15,0,0,0,8.38-6l6.59,7.7a28.8,28.8,0,0,1-11.12,7.95A38.56,38.56,0,0,1,1096,106.34Z" transform="translate(-21.36 -11.55)"></path><path d="M1138.14,105.59l28.32-36.77-.12,6.09-27-35.16h13.29l20.62,27.08h-5.09l20.62-27.08h13l-27.33,35.41.13-6.34,28.57,36.77h-13.54L1168,76.77l4.85.75-21.37,28.07Z" transform="translate(-21.36 -11.55)"></path><path d="M1229.07,27.08a8,8,0,0,1-5.78-2.23,7.37,7.37,0,0,1-2.3-5.47,7.48,7.48,0,0,1,2.3-5.59,8,8,0,0,1,5.78-2.24,8.05,8.05,0,0,1,5.77,2.18,7.11,7.11,0,0,1,2.3,5.4,7.75,7.75,0,0,1-8.07,8Zm-6,78.51V39.75H1235v65.84Z" transform="translate(-21.36 -11.55)"></path><path d="M1283.48,106.34a53.52,53.52,0,0,1-15.59-2.24,36.49,36.49,0,0,1-11.62-5.47l5-9.44A40.71,40.71,0,0,0,1271.68,94a41.46,41.46,0,0,0,12.67,2q8.31,0,12-2.36a7.43,7.43,0,0,0,3.67-6.59,5.79,5.79,0,0,0-2.24-4.84,15.26,15.26,0,0,0-5.9-2.61q-3.66-.87-8.13-1.55c-3-.46-6-1-9-1.74a36.2,36.2,0,0,1-8.2-3,15.56,15.56,0,0,1-6-5.35c-1.49-2.27-2.24-5.32-2.24-9.13a16.88,16.88,0,0,1,3.36-10.43,21.26,21.26,0,0,1,9.5-6.9,39.9,39.9,0,0,1,14.6-2.42,57.74,57.74,0,0,1,13.1,1.55,32.71,32.71,0,0,1,10.87,4.41l-5.09,9.45a28,28,0,0,0-9.32-4.1,42.71,42.71,0,0,0-9.69-1.12c-5.21,0-9.11.85-11.67,2.54s-3.85,3.88-3.85,6.52a6.17,6.17,0,0,0,2.29,5.16,16.82,16.82,0,0,0,6,2.8,73,73,0,0,0,8.13,1.67c3,.46,6,1,9,1.74a36.61,36.61,0,0,1,8.13,2.92,15.76,15.76,0,0,1,6,5.22,15.59,15.59,0,0,1,2.3,8.94,16,16,0,0,1-3.48,10.31,22.44,22.44,0,0,1-9.82,6.77A42.3,42.3,0,0,1,1283.48,106.34Z" transform="translate(-21.36 -11.55)"></path><path d="M1324.22,49.57V39.75h42v9.82Zm32,56.77q-9.93,0-15.4-5.35t-5.47-15.28V25.34h11.93V85.22q0,5.34,2.67,8.2t7.64,2.85a14.07,14.07,0,0,0,9.32-3.1l3.72,8.57a17.4,17.4,0,0,1-6.52,3.48A27.91,27.91,0,0,1,1356.27,106.34Z" transform="translate(-21.36 -11.55)"></path><path d="M1419,106.34a38.37,38.37,0,0,1-18.58-4.35A31.3,31.3,0,0,1,1388,90.06a33.93,33.93,0,0,1-4.41-17.39,34.68,34.68,0,0,1,4.29-17.39,30.84,30.84,0,0,1,11.8-11.86,35.79,35.79,0,0,1,33.85-.07A30,30,0,0,1,1445,55.22,36.71,36.71,0,0,1,1449.19,73q0,.75-.06,1.74c0,.67-.1,1.29-.19,1.87h-56V68.08h49.81l-4.84,3a22.21,22.21,0,0,0-2.61-11.31,19.9,19.9,0,0,0-7.52-7.76,23.34,23.34,0,0,0-22.17,0,19.67,19.67,0,0,0-7.58,7.82,23.74,23.74,0,0,0-2.73,11.49v2a22.62,22.62,0,0,0,3,11.74,20.88,20.88,0,0,0,8.51,8,26.63,26.63,0,0,0,12.55,2.86,27.34,27.34,0,0,0,10.62-2,23.15,23.15,0,0,0,8.38-6l6.59,7.7a28.8,28.8,0,0,1-11.12,7.95A38.54,38.54,0,0,1,1419,106.34Z" transform="translate(-21.36 -11.55)"></path><path d="M1541,106.34a35.3,35.3,0,0,1-17.57-4.35,32.11,32.11,0,0,1-12.24-12,33.67,33.67,0,0,1-4.47-17.33,33.26,33.26,0,0,1,4.47-17.33,32.53,32.53,0,0,1,12.17-11.86A35.27,35.27,0,0,1,1541,39.13a35.7,35.7,0,0,1,17.58,4.29,31.28,31.28,0,0,1,12.18,11.86,34,34,0,0,1,4.41,17.39,34,34,0,0,1-4.41,17.39A31.73,31.73,0,0,1,1558.57,102,35.31,35.31,0,0,1,1541,106.34Zm0-10.44A22.54,22.54,0,0,0,1552.36,93a20.2,20.2,0,0,0,7.89-8.13,25.38,25.38,0,0,0,2.86-12.24,24.87,24.87,0,0,0-2.86-12.23,20.49,20.49,0,0,0-7.89-8A22.64,22.64,0,0,0,1541,49.57a22.3,22.3,0,0,0-11.3,2.85,21.48,21.48,0,0,0-8,8,24,24,0,0,0-3,12.23,24.44,24.44,0,0,0,3,12.24,21.14,21.14,0,0,0,8,8.13A22.2,22.2,0,0,0,1541,95.9Z" transform="translate(-21.36 -11.55)"></path><path d="M1667.46,106.34a36.59,36.59,0,0,1-18-4.35,31.94,31.94,0,0,1-12.36-11.93,33.58,33.58,0,0,1-4.47-17.39,33.58,33.58,0,0,1,4.47-17.39,31.49,31.49,0,0,1,12.36-11.86,37,37,0,0,1,18-4.29,35,35,0,0,1,16,3.54,25.1,25.1,0,0,1,10.87,10.5L1685.22,59a20.33,20.33,0,0,0-7.89-7.15,22.34,22.34,0,0,0-10-2.29,23.21,23.21,0,0,0-11.55,2.85,21.17,21.17,0,0,0-8.08,8,24,24,0,0,0-3,12.23,24.36,24.36,0,0,0,3,12.3,21,21,0,0,0,8.08,8.07,23.12,23.12,0,0,0,11.55,2.86,22.21,22.21,0,0,0,10-2.3,20.22,20.22,0,0,0,7.89-7.14l9.07,5.72a26.05,26.05,0,0,1-10.87,10.49A33.89,33.89,0,0,1,1667.46,106.34Z" transform="translate(-21.36 -11.55)"></path><path d="M1744.85,106.34a38.31,38.31,0,0,1-18.57-4.35,31.26,31.26,0,0,1-12.43-11.93,33.93,33.93,0,0,1-4.41-17.39,34.68,34.68,0,0,1,4.29-17.39,30.91,30.91,0,0,1,11.8-11.86,35.79,35.79,0,0,1,33.85-.07,29.91,29.91,0,0,1,11.49,11.87A36.6,36.6,0,0,1,1775,73q0,.75-.06,1.74c0,.67-.1,1.29-.18,1.87h-56V68.08h49.81l-4.84,3a22.21,22.21,0,0,0-2.61-11.31,20,20,0,0,0-7.51-7.76,23.36,23.36,0,0,0-22.18,0,19.67,19.67,0,0,0-7.58,7.82,23.74,23.74,0,0,0-2.73,11.49v2a22.62,22.62,0,0,0,3,11.74,20.88,20.88,0,0,0,8.51,8,26.66,26.66,0,0,0,12.55,2.86,27.34,27.34,0,0,0,10.62-2,23.27,23.27,0,0,0,8.39-6l6.58,7.7a28.8,28.8,0,0,1-11.12,7.95A38.54,38.54,0,0,1,1744.85,106.34Z" transform="translate(-21.36 -11.55)"></path><path d="M1798.39,105.59V39.75h11.43V57.64l-1.12-4.47a20.26,20.26,0,0,1,9.19-10.44q6.46-3.6,15.9-3.6V50.68a8.9,8.9,0,0,0-1.43-.12h-1.3q-9.57,0-15.16,5.71t-5.59,16.52v32.8Z" transform="translate(-21.36 -11.55)"></path><path d="M1848.57,49.57V39.75h42v9.82Zm32,56.77q-9.93,0-15.4-5.35t-5.47-15.28V25.34h11.93V85.22q0,5.34,2.67,8.2t7.64,2.85a14.07,14.07,0,0,0,9.32-3.1l3.72,8.57a17.4,17.4,0,0,1-6.52,3.48A27.91,27.91,0,0,1,1880.62,106.34Z" transform="translate(-21.36 -11.55)"></path><path d="M1942.24,106.34a35.36,35.36,0,0,1-17.58-4.35,32.18,32.18,0,0,1-12.24-12A33.67,33.67,0,0,1,1908,72.67a33.26,33.26,0,0,1,4.47-17.33,32.55,32.55,0,0,1,12.18-11.86,35.22,35.22,0,0,1,17.64-4.35,35.76,35.76,0,0,1,17.58,4.29A31.32,31.32,0,0,1,1972,55.28a33.93,33.93,0,0,1,4.41,17.39A33.93,33.93,0,0,1,1972,90.06,31.78,31.78,0,0,1,1959.82,102,35.36,35.36,0,0,1,1942.24,106.34Zm0-10.44A22.59,22.59,0,0,0,1953.61,93a20.11,20.11,0,0,0,7.88-8.13,25.26,25.26,0,0,0,2.86-12.24,24.76,24.76,0,0,0-2.86-12.23,20.4,20.4,0,0,0-7.88-8,22.69,22.69,0,0,0-11.37-2.85,22.36,22.36,0,0,0-11.31,2.85,21.48,21.48,0,0,0-8,8,24.06,24.06,0,0,0-3,12.23,24.55,24.55,0,0,0,3,12.24,21.14,21.14,0,0,0,8,8.13A22.26,22.26,0,0,0,1942.24,95.9Z" transform="translate(-21.36 -11.55)"></path><path d="M2075.16,39.13a31.14,31.14,0,0,1,14.22,3.11,22.26,22.26,0,0,1,9.63,9.44q3.48,6.33,3.48,16v37.89h-11.93V69.07q0-9.57-4.65-14.41t-13.11-4.85a23.4,23.4,0,0,0-11.06,2.49,17,17,0,0,0-7.26,7.33,25.68,25.68,0,0,0-2.55,12.05v33.91H2040V39.75h11.43V57.52l-1.86-4.73a22.94,22.94,0,0,1,9.94-10.06A32.6,32.6,0,0,1,2075.16,39.13Z" transform="translate(-21.36 -11.55)"></path><path d="M2160.75,106.34a38.31,38.31,0,0,1-18.57-4.35,31.3,31.3,0,0,1-12.42-11.93,33.93,33.93,0,0,1-4.41-17.39,34.78,34.78,0,0,1,4.28-17.39,30.91,30.91,0,0,1,11.8-11.86,35.81,35.81,0,0,1,33.86-.07,30,30,0,0,1,11.49,11.87A36.71,36.71,0,0,1,2190.94,73q0,.75-.06,1.74c-.05.67-.11,1.29-.19,1.87h-56V68.08h49.82l-4.85,3a22.1,22.1,0,0,0-2.6-11.31,20,20,0,0,0-7.52-7.76,23.36,23.36,0,0,0-22.18,0,19.72,19.72,0,0,0-7.57,7.82A23.63,23.63,0,0,0,2137,71.3v2A22.63,22.63,0,0,0,2140.07,85a20.82,20.82,0,0,0,8.51,8,26.59,26.59,0,0,0,12.54,2.86,27.36,27.36,0,0,0,10.63-2,23.24,23.24,0,0,0,8.38-6l6.58,7.7a28.77,28.77,0,0,1-11.11,7.95A38.56,38.56,0,0,1,2160.75,106.34Z" transform="translate(-21.36 -11.55)"></path><path d="M2296.65,39.13a30.49,30.49,0,0,1,14,3.11,21.92,21.92,0,0,1,9.5,9.44q3.42,6.33,3.42,16v37.89h-11.93V69.07q0-9.57-4.47-14.41t-12.54-4.85a21.1,21.1,0,0,0-10.44,2.49,16.65,16.65,0,0,0-6.89,7.33,26.75,26.75,0,0,0-2.43,12.05v33.91H2263V69.07q0-9.57-4.41-14.41T2246,49.81a20.84,20.84,0,0,0-10.31,2.49,17.09,17.09,0,0,0-7,7.33,26.2,26.2,0,0,0-2.48,12.05v33.91h-11.93V39.75h11.43V57.27l-1.86-4.48a22.54,22.54,0,0,1,9.56-10.06,30.39,30.39,0,0,1,15-3.6,28.17,28.17,0,0,1,16.28,4.66q6.83,4.65,8.94,14.1l-4.84-2a24.68,24.68,0,0,1,10.43-12.17A32.42,32.42,0,0,1,2296.65,39.13Z" transform="translate(-21.36 -11.55)"></path><path d="M2420.88,106.34A35.31,35.31,0,0,1,2403.3,102a32.11,32.11,0,0,1-12.24-12,33.67,33.67,0,0,1-4.47-17.33,33.26,33.26,0,0,1,4.47-17.33,32.48,32.48,0,0,1,12.18-11.86,35.22,35.22,0,0,1,17.64-4.35,35.76,35.76,0,0,1,17.58,4.29,31.32,31.32,0,0,1,12.17,11.86A33.93,33.93,0,0,1,2455,72.67a33.93,33.93,0,0,1-4.41,17.39A31.78,31.78,0,0,1,2438.46,102,35.36,35.36,0,0,1,2420.88,106.34Zm0-10.44A22.53,22.53,0,0,0,2432.24,93a20.07,20.07,0,0,0,7.89-8.13A25.26,25.26,0,0,0,2443,72.67a24.76,24.76,0,0,0-2.86-12.23,20.36,20.36,0,0,0-7.89-8,22.63,22.63,0,0,0-11.36-2.85,22.31,22.31,0,0,0-11.31,2.85,21.48,21.48,0,0,0-8,8,24,24,0,0,0-3,12.23,24.44,24.44,0,0,0,3,12.24,21.14,21.14,0,0,0,8,8.13A22.21,22.21,0,0,0,2420.88,95.9Z" transform="translate(-21.36 -11.55)"></path><path d="M94.59,255.41A38.31,38.31,0,0,1,76,251.06,31.3,31.3,0,0,1,63.6,239.13a33.91,33.91,0,0,1-4.41-17.39,34.78,34.78,0,0,1,4.28-17.39,30.91,30.91,0,0,1,11.8-11.86,33.61,33.61,0,0,1,17-4.29,33.3,33.3,0,0,1,16.9,4.22,30,30,0,0,1,11.49,11.87,36.72,36.72,0,0,1,4.16,17.83c0,.49,0,1.07-.06,1.73s-.11,1.29-.19,1.87h-56v-8.57h49.82l-4.85,3a22.11,22.11,0,0,0-2.61-11.31,19.88,19.88,0,0,0-7.51-7.76,23.36,23.36,0,0,0-22.18,0,19.65,19.65,0,0,0-7.57,7.82,23.64,23.64,0,0,0-2.74,11.5v2a22.63,22.63,0,0,0,3,11.74,20.91,20.91,0,0,0,8.51,8A26.71,26.71,0,0,0,95,245a27.27,27.27,0,0,0,10.62-2,23.19,23.19,0,0,0,8.39-6l6.58,7.7a28.77,28.77,0,0,1-11.11,7.95A38.59,38.59,0,0,1,94.59,255.41Z" transform="translate(-21.36 -11.55)"></path><path d="M148.13,254.66V188.82h11.43v17.89l-1.12-4.47a20.28,20.28,0,0,1,9.2-10.44q6.45-3.6,15.9-3.6v11.55a9.09,9.09,0,0,0-1.43-.12H180.8q-9.56,0-15.15,5.71t-5.59,16.53v32.79Z" transform="translate(-21.36 -11.55)"></path><path d="M205,254.66V188.82h11.43v17.89l-1.12-4.47a20.26,20.26,0,0,1,9.19-10.44q6.47-3.6,15.9-3.6v11.55a9,9,0,0,0-1.43-.12h-1.3q-9.57,0-15.16,5.71T217,221.87v32.79Z" transform="translate(-21.36 -11.55)"></path><path d="M276.33,255.41a31,31,0,0,1-12.85-2.49A19.59,19.59,0,0,1,255,246a17.44,17.44,0,0,1-3-10,18.8,18.8,0,0,1,2.55-9.69,17.64,17.64,0,0,1,8.32-7q5.79-2.61,15.59-2.61h20.87v8.57H278.94q-8.94,0-12.05,3a9.61,9.61,0,0,0-3.1,7.2,9.24,9.24,0,0,0,3.85,7.76c2.56,2,6.13,2.92,10.68,2.92a22.57,22.57,0,0,0,11.74-3,16.94,16.94,0,0,0,7.27-8.69l2.36,8.2a18.58,18.58,0,0,1-8.33,9.25Q285.4,255.41,276.33,255.41Zm21.62-.75V240.75l-.62-2.61V214.41q0-7.57-4.41-11.74t-13.23-4.16a34.65,34.65,0,0,0-11.43,1.93,29.31,29.31,0,0,0-9.44,5.15l-5-8.94a35.8,35.8,0,0,1,12.23-6.27,51.19,51.19,0,0,1,15-2.18q13.54,0,20.87,6.59t7.33,20.12v39.75Z" transform="translate(-21.36 -11.55)"></path><path d="M365.4,255.41a34.2,34.2,0,0,1-17.08-4.23,30.84,30.84,0,0,1-11.86-11.8,37.82,37.82,0,0,1,0-35.22,31,31,0,0,1,11.86-11.74,34.3,34.3,0,0,1,17.08-4.22,30.35,30.35,0,0,1,15,3.73,27.19,27.19,0,0,1,10.75,11.18q4,7.45,4,18.63t-3.92,18.64a26.94,26.94,0,0,1-10.62,11.24A30.57,30.57,0,0,1,365.4,255.41Zm1-10.44a22.42,22.42,0,0,0,11.24-2.85,20.69,20.69,0,0,0,7.95-8.14,25,25,0,0,0,2.92-12.24,24.46,24.46,0,0,0-2.92-12.23,20.91,20.91,0,0,0-7.95-8,23.73,23.73,0,0,0-22.55,0,21.48,21.48,0,0,0-7.95,8,24,24,0,0,0-3,12.23,24.44,24.44,0,0,0,3,12.24,21.24,21.24,0,0,0,7.95,8.14A22.31,22.31,0,0,0,366.4,245Zm22.48,9.69V236.9l.75-15.28-1.25-15.28V162.49h11.93v92.17Z" transform="translate(-21.36 -11.55)"></path><path d="M458,255.41a35.36,35.36,0,0,1-17.58-4.35,32.18,32.18,0,0,1-12.24-12,33.67,33.67,0,0,1-4.47-17.33,33.26,33.26,0,0,1,4.47-17.33,32.55,32.55,0,0,1,12.18-11.86A35.22,35.22,0,0,1,458,188.2a35.76,35.76,0,0,1,17.58,4.29,31.32,31.32,0,0,1,12.17,11.86,36.49,36.49,0,0,1,0,34.78,31.78,31.78,0,0,1-12.17,11.93A35.36,35.36,0,0,1,458,255.41ZM458,245a22.63,22.63,0,0,0,11.36-2.85A20.16,20.16,0,0,0,477.2,234a25.26,25.26,0,0,0,2.86-12.24,24.76,24.76,0,0,0-2.86-12.23,20.36,20.36,0,0,0-7.89-8A22.63,22.63,0,0,0,458,198.64a22.33,22.33,0,0,0-11.31,2.85,21.48,21.48,0,0,0-7.95,8,24.06,24.06,0,0,0-3,12.23,24.55,24.55,0,0,0,3,12.24,21.24,21.24,0,0,0,7.95,8.14A22.33,22.33,0,0,0,458,245Z" transform="translate(-21.36 -11.55)"></path><path d="M590.87,188.2a31.14,31.14,0,0,1,14.22,3.11,22.26,22.26,0,0,1,9.63,9.44q3.48,6.33,3.48,16v37.89H606.27V218.14q0-9.57-4.66-14.41t-13.1-4.85a23.38,23.38,0,0,0-11.06,2.49,17,17,0,0,0-7.27,7.33,25.8,25.8,0,0,0-2.54,12.05v33.91H555.71V188.82h11.43v17.77l-1.86-4.72a22.85,22.85,0,0,1,9.94-10.07A32.6,32.6,0,0,1,590.87,188.2Z" transform="translate(-21.36 -11.55)"></path><path d="M666.4,255.41a31,31,0,0,1-12.86-2.49A19.65,19.65,0,0,1,645,246a17.44,17.44,0,0,1-3-10,18.8,18.8,0,0,1,2.55-9.69,17.6,17.6,0,0,1,8.32-7q5.77-2.61,15.59-2.61h20.87v8.57H669q-9,0-12,3a9.61,9.61,0,0,0-3.11,7.2,9.24,9.24,0,0,0,3.85,7.76q3.85,2.93,10.68,2.92a22.54,22.54,0,0,0,11.74-3,16.89,16.89,0,0,0,7.27-8.69l2.36,8.2a18.56,18.56,0,0,1-8.32,9.25Q675.46,255.41,666.4,255.41Zm21.61-.75V240.75l-.62-2.61V214.41q0-7.57-4.41-11.74t-13.23-4.16a34.73,34.73,0,0,0-11.43,1.93,29.52,29.52,0,0,0-9.44,5.15l-5-8.94a36,36,0,0,1,12.24-6.27,51.09,51.09,0,0,1,15-2.18q13.53,0,20.87,6.59t7.33,20.12v39.75Z" transform="translate(-21.36 -11.55)"></path><path d="M803.67,188.2a31.14,31.14,0,0,1,14.22,3.11,22.26,22.26,0,0,1,9.63,9.44q3.47,6.33,3.47,16v37.89H819.07V218.14q0-9.57-4.66-14.41c-3.11-3.23-7.47-4.85-13.11-4.85a23.36,23.36,0,0,0-11,2.49A17,17,0,0,0,783,208.7a25.68,25.68,0,0,0-2.55,12.05v33.91H768.51V162.49h11.92v44.1l-2.36-4.72A23,23,0,0,1,788,191.8,32.62,32.62,0,0,1,803.67,188.2Z" transform="translate(-21.36 -11.55)"></path><path d="M888.14,255.41a35.36,35.36,0,0,1-17.58-4.35,32.18,32.18,0,0,1-12.24-12,33.67,33.67,0,0,1-4.47-17.33,33.26,33.26,0,0,1,4.47-17.33,32.55,32.55,0,0,1,12.18-11.86,35.22,35.22,0,0,1,17.64-4.35,35.76,35.76,0,0,1,17.58,4.29,31.32,31.32,0,0,1,12.17,11.86,36.49,36.49,0,0,1,0,34.78,31.78,31.78,0,0,1-12.17,11.93A35.36,35.36,0,0,1,888.14,255.41Zm0-10.44a22.63,22.63,0,0,0,11.36-2.85,20.16,20.16,0,0,0,7.89-8.14,25.26,25.26,0,0,0,2.86-12.24,24.76,24.76,0,0,0-2.86-12.23,20.36,20.36,0,0,0-7.89-8,22.63,22.63,0,0,0-11.36-2.85,22.33,22.33,0,0,0-11.31,2.85,21.48,21.48,0,0,0-8,8,24.06,24.06,0,0,0-3,12.23,24.55,24.55,0,0,0,3,12.24,21.24,21.24,0,0,0,8,8.14A22.33,22.33,0,0,0,888.14,245Z" transform="translate(-21.36 -11.55)"></path><path d="M945.65,254.66V188.82h11.43v17.89L956,202.24a20.32,20.32,0,0,1,9.2-10.44q6.45-3.6,15.9-3.6v11.55a9.09,9.09,0,0,0-1.43-.12h-1.3q-9.57,0-15.16,5.71t-5.59,16.53v32.79Z" transform="translate(-21.36 -11.55)"></path><path d="M1017,255.41a31.06,31.06,0,0,1-12.86-2.49,19.71,19.71,0,0,1-8.51-6.89,17.44,17.44,0,0,1-3-10,18.8,18.8,0,0,1,2.55-9.69,17.6,17.6,0,0,1,8.32-7q5.78-2.61,15.59-2.61h20.87v8.57h-20.37q-8.94,0-12.05,3a9.61,9.61,0,0,0-3.11,7.2,9.26,9.26,0,0,0,3.85,7.76q3.86,2.93,10.69,2.92a22.59,22.59,0,0,0,11.74-3,16.92,16.92,0,0,0,7.26-8.69l2.36,8.2A18.51,18.51,0,0,1,1032,252Q1026,255.41,1017,255.41Zm21.61-.75V240.75l-.62-2.61V214.41q0-7.57-4.41-11.74t-13.23-4.16a34.73,34.73,0,0,0-11.43,1.93,29.52,29.52,0,0,0-9.44,5.15l-5-8.94a36,36,0,0,1,12.24-6.27,51.09,51.09,0,0,1,15-2.18q13.55,0,20.87,6.59t7.33,20.12v39.75Z" transform="translate(-21.36 -11.55)"></path><path d="M1146.28,255.41a34.2,34.2,0,0,1-17.08-4.23,30.86,30.86,0,0,1-11.87-11.8,37.82,37.82,0,0,1,0-35.22,31.05,31.05,0,0,1,11.87-11.74,34.3,34.3,0,0,1,17.08-4.22,30.38,30.38,0,0,1,15,3.73,27.17,27.17,0,0,1,10.74,11.18q4,7.45,4,18.63t-3.91,18.64a26.94,26.94,0,0,1-10.62,11.24A30.62,30.62,0,0,1,1146.28,255.41Zm1-10.44a22.39,22.39,0,0,0,11.24-2.85,20.56,20.56,0,0,0,8-8.14,24.84,24.84,0,0,0,2.92-12.24,24.35,24.35,0,0,0-2.92-12.23,20.77,20.77,0,0,0-8-8,23.71,23.71,0,0,0-22.54,0,21.33,21.33,0,0,0-8,8,24,24,0,0,0-3,12.23,24.45,24.45,0,0,0,3,12.24,21.1,21.1,0,0,0,8,8.14A22.3,22.3,0,0,0,1147.27,245Zm22.48,9.69V236.9l.75-15.28-1.24-15.28V162.49h11.92v92.17Z" transform="translate(-21.36 -11.55)"></path><path d="M1239.94,255.41a38.31,38.31,0,0,1-18.57-4.35A31.3,31.3,0,0,1,1209,239.13a33.91,33.91,0,0,1-4.41-17.39,34.78,34.78,0,0,1,4.28-17.39,30.91,30.91,0,0,1,11.8-11.86,35.81,35.81,0,0,1,33.86-.07A30,30,0,0,1,1266,204.29a36.72,36.72,0,0,1,4.16,17.83c0,.49,0,1.07-.06,1.73s-.11,1.29-.19,1.87h-56v-8.57h49.82l-4.85,3a22,22,0,0,0-2.61-11.31,19.88,19.88,0,0,0-7.51-7.76,23.34,23.34,0,0,0-22.17,0,19.61,19.61,0,0,0-7.58,7.82,23.64,23.64,0,0,0-2.74,11.5v2a22.63,22.63,0,0,0,3,11.74,20.91,20.91,0,0,0,8.51,8,26.71,26.71,0,0,0,12.54,2.85,27.36,27.36,0,0,0,10.63-2,23.24,23.24,0,0,0,8.38-6l6.58,7.7a28.77,28.77,0,0,1-11.11,7.95A38.56,38.56,0,0,1,1239.94,255.41Z" transform="translate(-21.36 -11.55)"></path><path d="M1352.61,255.41a53.62,53.62,0,0,1-15.59-2.24,36.54,36.54,0,0,1-11.61-5.46l5-9.45a40.3,40.3,0,0,0,10.43,4.85,41.51,41.51,0,0,0,12.67,2q8.32,0,12-2.36a7.45,7.45,0,0,0,3.67-6.59,5.79,5.79,0,0,0-2.24-4.84,15.26,15.26,0,0,0-5.9-2.61q-3.68-.87-8.14-1.55t-8.94-1.74a36,36,0,0,1-8.2-3,15.48,15.48,0,0,1-6-5.35c-1.49-2.27-2.24-5.32-2.24-9.13a16.94,16.94,0,0,1,3.35-10.43,21.35,21.35,0,0,1,9.51-6.9A39.84,39.84,0,0,1,1355,188.2a57.76,57.76,0,0,1,13.11,1.55,32.8,32.8,0,0,1,10.87,4.41l-5.09,9.45a28.07,28.07,0,0,0-9.32-4.1,42.71,42.71,0,0,0-9.69-1.12q-7.83,0-11.68,2.54t-3.85,6.53a6.17,6.17,0,0,0,2.3,5.15,16.76,16.76,0,0,0,6,2.8,73.16,73.16,0,0,0,8.14,1.67q4.47.69,8.94,1.74a36.69,36.69,0,0,1,8.14,2.92,14.52,14.52,0,0,1,8.26,14.16,16,16,0,0,1-3.48,10.31,22.46,22.46,0,0,1-9.81,6.77A42.39,42.39,0,0,1,1352.61,255.41Z" transform="translate(-21.36 -11.55)"></path><path d="M1432.12,255.41a38.31,38.31,0,0,1-18.57-4.35,31.26,31.26,0,0,1-12.43-11.93,33.91,33.91,0,0,1-4.41-17.39,34.68,34.68,0,0,1,4.29-17.39,30.91,30.91,0,0,1,11.8-11.86,35.79,35.79,0,0,1,33.85-.07,29.91,29.91,0,0,1,11.49,11.87,36.61,36.61,0,0,1,4.16,17.83c0,.49,0,1.07-.06,1.73s-.1,1.29-.18,1.87h-56v-8.57h49.81l-4.84,3a22.21,22.21,0,0,0-2.61-11.31,20,20,0,0,0-7.51-7.76,23.36,23.36,0,0,0-22.18,0,19.67,19.67,0,0,0-7.58,7.82,23.75,23.75,0,0,0-2.73,11.5v2a22.62,22.62,0,0,0,3,11.74,21,21,0,0,0,8.51,8,26.78,26.78,0,0,0,12.55,2.85,27.34,27.34,0,0,0,10.62-2,23.27,23.27,0,0,0,8.39-6l6.58,7.7a28.8,28.8,0,0,1-11.12,7.95A38.54,38.54,0,0,1,1432.12,255.41Z" transform="translate(-21.36 -11.55)"></path><path d="M1543.17,254.66l-28.82-65.84h12.43l25.59,59.63h-6l26.09-59.63h11.68l-28.82,65.84Z" transform="translate(-21.36 -11.55)"></path><path d="M1629.63,255.41a38.31,38.31,0,0,1-18.57-4.35,31.3,31.3,0,0,1-12.42-11.93,33.91,33.91,0,0,1-4.41-17.39,34.78,34.78,0,0,1,4.28-17.39,30.87,30.87,0,0,1,11.81-11.86,35.79,35.79,0,0,1,33.85-.07,30,30,0,0,1,11.49,11.87,36.72,36.72,0,0,1,4.16,17.83c0,.49,0,1.07-.06,1.73s-.11,1.29-.19,1.87h-56v-8.57h49.81l-4.84,3a22.21,22.21,0,0,0-2.61-11.31,20,20,0,0,0-7.52-7.76,23.34,23.34,0,0,0-22.17,0,19.67,19.67,0,0,0-7.58,7.82,23.75,23.75,0,0,0-2.73,11.5v2a22.62,22.62,0,0,0,3,11.74,20.91,20.91,0,0,0,8.51,8A26.75,26.75,0,0,0,1630,245a27.34,27.34,0,0,0,10.62-2,23.24,23.24,0,0,0,8.38-6l6.59,7.7a28.8,28.8,0,0,1-11.12,7.95A38.56,38.56,0,0,1,1629.63,255.41Z" transform="translate(-21.36 -11.55)"></path><path d="M1702.06,255.41a53.52,53.52,0,0,1-15.59-2.24,36.71,36.71,0,0,1-11.62-5.46l5-9.45a40.22,40.22,0,0,0,10.44,4.85,41.46,41.46,0,0,0,12.67,2q8.31,0,12-2.36a7.43,7.43,0,0,0,3.67-6.59,5.79,5.79,0,0,0-2.24-4.84,15.26,15.26,0,0,0-5.9-2.61q-3.66-.87-8.13-1.55t-9-1.74a36.2,36.2,0,0,1-8.2-3,15.56,15.56,0,0,1-6-5.35c-1.49-2.27-2.24-5.32-2.24-9.13a16.88,16.88,0,0,1,3.36-10.43,21.26,21.26,0,0,1,9.5-6.9,39.86,39.86,0,0,1,14.6-2.42,57.74,57.74,0,0,1,13.1,1.55,32.71,32.71,0,0,1,10.87,4.41l-5.09,9.45a28,28,0,0,0-9.32-4.1,42.71,42.71,0,0,0-9.69-1.12c-5.21,0-9.11.85-11.67,2.54s-3.86,3.88-3.86,6.53a6.17,6.17,0,0,0,2.3,5.15,16.73,16.73,0,0,0,6,2.8,73,73,0,0,0,8.13,1.67q4.47.69,8.95,1.74a36.61,36.61,0,0,1,8.13,2.92,15.76,15.76,0,0,1,6,5.22q2.3,3.36,2.29,8.94a16,16,0,0,1-3.47,10.31,22.44,22.44,0,0,1-9.82,6.77A42.3,42.3,0,0,1,1702.06,255.41Z" transform="translate(-21.36 -11.55)"></path><path d="M1742.8,198.64v-9.82h42v9.82Zm32,56.77q-9.93,0-15.4-5.35T1754,234.79V174.41h11.93v59.88q0,5.34,2.67,8.2t7.64,2.85a14.07,14.07,0,0,0,9.32-3.1l3.72,8.57a17.4,17.4,0,0,1-6.52,3.48A27.61,27.61,0,0,1,1774.85,255.41Z" transform="translate(-21.36 -11.55)"></path><path d="M1816.47,176.15a8,8,0,0,1-5.78-2.23,7.37,7.37,0,0,1-2.3-5.47,7.48,7.48,0,0,1,2.3-5.59,8,8,0,0,1,5.78-2.24,8.07,8.07,0,0,1,5.77,2.18,7.14,7.14,0,0,1,2.3,5.4,7.76,7.76,0,0,1-8.07,8Zm-6,78.51V188.82h11.93v65.84Z" transform="translate(-21.36 -11.55)"></path><path d="M1852,254.66V188.82h11.43v17.89l-1.12-4.47a20.28,20.28,0,0,1,9.2-10.44q6.45-3.6,15.9-3.6v11.55a9.09,9.09,0,0,0-1.43-.12h-1.3q-9.57,0-15.16,5.71t-5.59,16.53v32.79Z" transform="translate(-21.36 -11.55)"></path><path d="M1911.37,255.41a8.4,8.4,0,0,1-8.45-8.57,8,8,0,0,1,2.49-6.09,8.35,8.35,0,0,1,6-2.36,8,8,0,0,1,5.78,2.36,8.13,8.13,0,0,1,2.42,6.09,8.33,8.33,0,0,1-2.42,6.14A7.88,7.88,0,0,1,1911.37,255.41Zm28.82,0a8.4,8.4,0,0,1-8.45-8.57,8,8,0,0,1,2.49-6.09,8.35,8.35,0,0,1,6-2.36,8,8,0,0,1,5.78,2.36,8.13,8.13,0,0,1,2.42,6.09A8.33,8.33,0,0,1,1946,253,7.88,7.88,0,0,1,1940.19,255.41Zm28.82,0a8.4,8.4,0,0,1-8.45-8.57,8,8,0,0,1,2.49-6.09,8.36,8.36,0,0,1,6-2.36,8,8,0,0,1,5.78,2.36,8.13,8.13,0,0,1,2.42,6.09,8.33,8.33,0,0,1-2.42,6.14A7.88,7.88,0,0,1,1969,255.41Z" transform="translate(-21.36 -11.55)"></path><path d="M2069.63,255.41a35.3,35.3,0,0,1-17.57-4.35,32.11,32.11,0,0,1-12.24-12,33.67,33.67,0,0,1-4.47-17.33,33.26,33.26,0,0,1,4.47-17.33A32.53,32.53,0,0,1,2052,192.55a35.27,35.27,0,0,1,17.64-4.35,35.73,35.73,0,0,1,17.58,4.29,31.28,31.28,0,0,1,12.18,11.86,36.49,36.49,0,0,1,0,34.78,31.73,31.73,0,0,1-12.18,11.93A35.34,35.34,0,0,1,2069.63,255.41Zm0-10.44a22.64,22.64,0,0,0,11.37-2.85,20.28,20.28,0,0,0,7.89-8.14,25.38,25.38,0,0,0,2.86-12.24,24.87,24.87,0,0,0-2.86-12.23,20.49,20.49,0,0,0-7.89-8,22.64,22.64,0,0,0-11.37-2.85,22.3,22.3,0,0,0-11.3,2.85,21.48,21.48,0,0,0-7.95,8,24,24,0,0,0-3,12.23,24.44,24.44,0,0,0,3,12.24,21.24,21.24,0,0,0,7.95,8.14A22.3,22.3,0,0,0,2069.63,245Z" transform="translate(-21.36 -11.55)"></path><path d="M2194.6,255.41a34.23,34.23,0,0,1-17.08-4.23,30.91,30.91,0,0,1-11.86-11.8,37.82,37.82,0,0,1,0-35.22,31.1,31.1,0,0,1,11.86-11.74,34.33,34.33,0,0,1,17.08-4.22,30.85,30.85,0,0,1,15.28,3.73,26.31,26.31,0,0,1,10.62,11.18q3.91,7.45,3.92,18.63t-4,18.64a27.66,27.66,0,0,1-10.75,11.24A30.07,30.07,0,0,1,2194.6,255.41Zm1-10.44a22.39,22.39,0,0,0,11.24-2.85,20.69,20.69,0,0,0,7.95-8.14,24.84,24.84,0,0,0,2.92-12.24,24.35,24.35,0,0,0-2.92-12.23,20.91,20.91,0,0,0-7.95-8,23.73,23.73,0,0,0-22.55,0,21.48,21.48,0,0,0-7.95,8,24,24,0,0,0-3,12.23,24.44,24.44,0,0,0,3,12.24,21.24,21.24,0,0,0,7.95,8.14A22.31,22.31,0,0,0,2195.6,245Zm22,33.79V237.15l1.25-15.28-.75-15.28V188.82h11.43v89.94Z" transform="translate(-21.36 -11.55)"></path><path d="M2286.65,255.41a33.58,33.58,0,0,1-14.84-3.11,22.25,22.25,0,0,1-9.94-9.5q-3.54-6.41-3.54-16.09V188.82h11.93v36.52q0,9.69,4.65,14.54t13.11,4.84a22,22,0,0,0,10.81-2.54,17.16,17.16,0,0,0,7.08-7.46,26.08,26.08,0,0,0,2.48-11.86v-34h11.93v65.84H2309V236.9l1.87,4.72a23.08,23.08,0,0,1-9.69,10.18A29.26,29.26,0,0,1,2286.65,255.41Z" transform="translate(-21.36 -11.55)"></path><path d="M2379.2,255.41a38.31,38.31,0,0,1-18.57-4.35,31.23,31.23,0,0,1-12.42-11.93,33.81,33.81,0,0,1-4.42-17.39,34.68,34.68,0,0,1,4.29-17.39,30.91,30.91,0,0,1,11.8-11.86,35.79,35.79,0,0,1,33.85-.07,29.91,29.91,0,0,1,11.49,11.87,36.61,36.61,0,0,1,4.17,17.83c0,.49,0,1.07-.07,1.73s-.1,1.29-.18,1.87h-56v-8.57h49.82l-4.85,3a22.21,22.21,0,0,0-2.61-11.31,20,20,0,0,0-7.51-7.76,23.36,23.36,0,0,0-22.18,0,19.65,19.65,0,0,0-7.57,7.82,23.64,23.64,0,0,0-2.74,11.5v2a22.63,22.63,0,0,0,3.05,11.74,20.88,20.88,0,0,0,8.5,8,26.78,26.78,0,0,0,12.55,2.85,27.34,27.34,0,0,0,10.62-2,23.27,23.27,0,0,0,8.39-6l6.58,7.7a28.8,28.8,0,0,1-11.12,7.95A38.51,38.51,0,0,1,2379.2,255.41Z" transform="translate(-21.36 -11.55)"></path><path d="M103,404.48a34.2,34.2,0,0,1-17.08-4.23A30.86,30.86,0,0,1,74,388.45a37.82,37.82,0,0,1,0-35.22A31.05,31.05,0,0,1,85.9,341.49,34.3,34.3,0,0,1,103,337.27,30.38,30.38,0,0,1,118,341a27.17,27.17,0,0,1,10.74,11.18q4,7.45,4,18.63t-3.91,18.64a26.94,26.94,0,0,1-10.62,11.24A30.62,30.62,0,0,1,103,404.48ZM104,394a22.39,22.39,0,0,0,11.24-2.85,20.56,20.56,0,0,0,8-8.14,24.84,24.84,0,0,0,2.92-12.24,24.35,24.35,0,0,0-2.92-12.23,20.77,20.77,0,0,0-8-8,23.71,23.71,0,0,0-22.54,0,21.33,21.33,0,0,0-8,8,24,24,0,0,0-3,12.23,24.45,24.45,0,0,0,3,12.24,21.1,21.1,0,0,0,8,8.14A22.3,22.3,0,0,0,104,394Zm22.49,9.69V386l.74-15.28L126,355.41V311.56h11.92v92.17Z" transform="translate(-21.36 -11.55)"></path><path d="M196.64,404.48a38.31,38.31,0,0,1-18.57-4.35,31.3,31.3,0,0,1-12.42-11.93,33.91,33.91,0,0,1-4.41-17.39,34.78,34.78,0,0,1,4.28-17.39,30.87,30.87,0,0,1,11.81-11.86,35.79,35.79,0,0,1,33.85-.07,30,30,0,0,1,11.49,11.87,36.72,36.72,0,0,1,4.16,17.83c0,.49,0,1.07-.06,1.73s-.11,1.29-.19,1.87h-56v-8.57h49.82l-4.85,3a22.1,22.1,0,0,0-2.6-11.31,20,20,0,0,0-7.52-7.76,23.34,23.34,0,0,0-22.17,0,19.64,19.64,0,0,0-7.58,7.83,23.68,23.68,0,0,0-2.73,11.49v2a22.62,22.62,0,0,0,3,11.74,20.91,20.91,0,0,0,8.51,8A26.71,26.71,0,0,0,197,394a27.36,27.36,0,0,0,10.63-2,23.24,23.24,0,0,0,8.38-6l6.59,7.7a28.88,28.88,0,0,1-11.12,7.95A38.56,38.56,0,0,1,196.64,404.48Z" transform="translate(-21.36 -11.55)"></path><path d="M266.21,403.73l-28.82-65.84h12.42l25.59,59.63h-6l26.09-59.63H307.2l-28.82,65.84Z" transform="translate(-21.36 -11.55)"></path><path d="M352.67,404.48a38.31,38.31,0,0,1-18.57-4.35,31.33,31.33,0,0,1-12.43-11.93,33.91,33.91,0,0,1-4.41-17.39,34.68,34.68,0,0,1,4.29-17.39,30.91,30.91,0,0,1,11.8-11.86,35.79,35.79,0,0,1,33.85-.07,29.91,29.91,0,0,1,11.49,11.87,36.61,36.61,0,0,1,4.17,17.83c0,.49,0,1.07-.07,1.73s-.1,1.29-.18,1.87h-56v-8.57H376.4l-4.85,3a22.21,22.21,0,0,0-2.61-11.31,20,20,0,0,0-7.51-7.76,23.36,23.36,0,0,0-22.18,0,19.7,19.7,0,0,0-7.58,7.83,23.68,23.68,0,0,0-2.73,11.49v2a22.62,22.62,0,0,0,3,11.74,21,21,0,0,0,8.51,8A26.78,26.78,0,0,0,353,394a27.34,27.34,0,0,0,10.62-2,23.27,23.27,0,0,0,8.39-6l6.58,7.7a28.8,28.8,0,0,1-11.12,7.95A38.54,38.54,0,0,1,352.67,404.48Z" transform="translate(-21.36 -11.55)"></path><path d="M475.78,404.48a38.37,38.37,0,0,1-18.58-4.35,31.3,31.3,0,0,1-12.42-11.93,33.91,33.91,0,0,1-4.41-17.39,34.68,34.68,0,0,1,4.29-17.39,30.84,30.84,0,0,1,11.8-11.86,35.79,35.79,0,0,1,33.85-.07,30,30,0,0,1,11.49,11.87A36.72,36.72,0,0,1,506,371.19c0,.49,0,1.07-.06,1.73s-.1,1.29-.19,1.87h-56v-8.57H499.5l-4.84,3a22.21,22.21,0,0,0-2.61-11.31,19.9,19.9,0,0,0-7.52-7.76,23.34,23.34,0,0,0-22.17,0,19.64,19.64,0,0,0-7.58,7.83,23.68,23.68,0,0,0-2.73,11.49v2a22.62,22.62,0,0,0,3,11.74,21,21,0,0,0,8.51,8A26.75,26.75,0,0,0,476.15,394a27.34,27.34,0,0,0,10.62-2,23.15,23.15,0,0,0,8.38-6l6.59,7.7a28.8,28.8,0,0,1-11.12,7.95A38.54,38.54,0,0,1,475.78,404.48Z" transform="translate(-21.36 -11.55)"></path><path d="M517.89,403.73,546.21,367l-.12,6.09-27-35.16h13.29L553,365H548l20.62-27.08h13L554.29,373.3l.12-6.34L583,403.73H569.44L547.7,374.91l4.85.75-21.37,28.07Z" transform="translate(-21.36 -11.55)"></path><path d="M608.82,325.22A8,8,0,0,1,603,323a7.37,7.37,0,0,1-2.3-5.47,7.48,7.48,0,0,1,2.3-5.59,8,8,0,0,1,5.78-2.24,8.1,8.1,0,0,1,5.78,2.18,7.13,7.13,0,0,1,2.29,5.4,7.75,7.75,0,0,1-8.07,8Zm-6,78.51V337.89h11.92v65.84Z" transform="translate(-21.36 -11.55)"></path><path d="M663.23,404.48a53.52,53.52,0,0,1-15.59-2.24A36.71,36.71,0,0,1,636,396.78l5-9.45a40.53,40.53,0,0,0,10.44,4.85,41.46,41.46,0,0,0,12.67,2q8.32,0,12-2.36a7.44,7.44,0,0,0,3.66-6.59,5.76,5.76,0,0,0-2.24-4.84,15.19,15.19,0,0,0-5.9-2.61q-3.66-.87-8.13-1.55c-3-.46-6-1-9-1.74a36.2,36.2,0,0,1-8.2-3,15.56,15.56,0,0,1-6-5.35c-1.49-2.27-2.23-5.32-2.23-9.13a16.88,16.88,0,0,1,3.35-10.43,21.32,21.32,0,0,1,9.5-6.9,39.9,39.9,0,0,1,14.6-2.42,57.74,57.74,0,0,1,13.1,1.55,32.71,32.71,0,0,1,10.87,4.41l-5.09,9.45a28,28,0,0,0-9.32-4.1,42.71,42.71,0,0,0-9.69-1.12c-5.21,0-9.11.85-11.67,2.54s-3.85,3.88-3.85,6.53a6.16,6.16,0,0,0,2.29,5.15,16.82,16.82,0,0,0,6,2.8,73,73,0,0,0,8.13,1.67q4.49.69,8.95,1.74a36.88,36.88,0,0,1,8.14,2.92,15.81,15.81,0,0,1,6,5.22,15.59,15.59,0,0,1,2.3,8.94,16,16,0,0,1-3.48,10.32,22.51,22.51,0,0,1-9.82,6.76A42.3,42.3,0,0,1,663.23,404.48Z" transform="translate(-21.36 -11.55)"></path><path d="M704,347.71v-9.82h42v9.82Zm32,56.77q-9.93,0-15.4-5.35t-5.47-15.27V323.48h11.93v59.88q0,5.34,2.67,8.2t7.64,2.85a14.07,14.07,0,0,0,9.32-3.1l3.72,8.57a17.26,17.26,0,0,1-6.52,3.48A27.56,27.56,0,0,1,736,404.48Z" transform="translate(-21.36 -11.55)"></path><path d="M777.64,325.22a8,8,0,0,1-5.78-2.23,7.37,7.37,0,0,1-2.3-5.47,7.48,7.48,0,0,1,2.3-5.59,8,8,0,0,1,5.78-2.24,8.05,8.05,0,0,1,5.77,2.18,7.11,7.11,0,0,1,2.3,5.4,7.75,7.75,0,0,1-8.07,8Zm-6,78.51V337.89H783.6v65.84Z" transform="translate(-21.36 -11.55)"></path><path d="M813.17,403.73V337.89h11.42v17.89l-1.11-4.47a20.26,20.26,0,0,1,9.19-10.44q6.45-3.6,15.9-3.6v11.55a9.09,9.09,0,0,0-1.43-.12h-1.3q-9.57,0-15.16,5.71t-5.59,16.53v32.79Z" transform="translate(-21.36 -11.55)"></path><path d="M940.49,404.48a38.31,38.31,0,0,1-18.57-4.35A31.3,31.3,0,0,1,909.5,388.2a33.91,33.91,0,0,1-4.41-17.39,34.68,34.68,0,0,1,4.29-17.39,30.84,30.84,0,0,1,11.8-11.86,35.79,35.79,0,0,1,33.85-.07,30,30,0,0,1,11.49,11.87,36.72,36.72,0,0,1,4.16,17.83c0,.49,0,1.07-.06,1.73s-.11,1.29-.19,1.87h-56v-8.57h49.81l-4.84,3a22.21,22.21,0,0,0-2.61-11.31,19.9,19.9,0,0,0-7.52-7.76,23.34,23.34,0,0,0-22.17,0A19.64,19.64,0,0,0,919.5,358a23.68,23.68,0,0,0-2.73,11.49v2a22.62,22.62,0,0,0,3,11.74,20.91,20.91,0,0,0,8.51,8A26.75,26.75,0,0,0,940.87,394a27.34,27.34,0,0,0,10.62-2,23.15,23.15,0,0,0,8.38-6l6.59,7.7a28.8,28.8,0,0,1-11.12,7.95A38.56,38.56,0,0,1,940.49,404.48Zm-11.8-76.15,16.9-16.15h15.15l-20.87,16.15Z" transform="translate(-21.36 -11.55)"></path><path d="M1062.48,404.48a35.3,35.3,0,0,1-17.57-4.35,32.11,32.11,0,0,1-12.24-12,33.67,33.67,0,0,1-4.47-17.33,33.26,33.26,0,0,1,4.47-17.33,32.53,32.53,0,0,1,12.17-11.86,35.27,35.27,0,0,1,17.64-4.35,35.76,35.76,0,0,1,17.58,4.29,31.35,31.35,0,0,1,12.18,11.86,36.49,36.49,0,0,1,0,34.78,31.8,31.8,0,0,1-12.18,11.93A35.36,35.36,0,0,1,1062.48,404.48Zm0-10.44a22.64,22.64,0,0,0,11.37-2.85,20.28,20.28,0,0,0,7.89-8.14,25.38,25.38,0,0,0,2.86-12.24,24.87,24.87,0,0,0-2.86-12.23,20.49,20.49,0,0,0-7.89-8,22.64,22.64,0,0,0-11.37-2.85,22.3,22.3,0,0,0-11.3,2.85,21.48,21.48,0,0,0-8,8,24,24,0,0,0-3,12.23,24.44,24.44,0,0,0,3,12.24,21.24,21.24,0,0,0,8,8.14A22.3,22.3,0,0,0,1062.48,394Z" transform="translate(-21.36 -11.55)"></path><path d="M1160.25,403.73V337.89h11.43v17.89l-1.12-4.47a20.26,20.26,0,0,1,9.19-10.44q6.46-3.6,15.9-3.6v11.55a8.9,8.9,0,0,0-1.43-.12h-1.3q-9.57,0-15.16,5.71t-5.59,16.53v32.79Z" transform="translate(-21.36 -11.55)"></path><path d="M1245.84,404.48a38.31,38.31,0,0,1-18.57-4.35,31.26,31.26,0,0,1-12.43-11.93,33.91,33.91,0,0,1-4.41-17.39,34.68,34.68,0,0,1,4.29-17.39,30.91,30.91,0,0,1,11.8-11.86,35.79,35.79,0,0,1,33.85-.07,29.91,29.91,0,0,1,11.49,11.87,36.61,36.61,0,0,1,4.17,17.83c0,.49,0,1.07-.07,1.73s-.1,1.29-.18,1.87h-56v-8.57h49.82l-4.85,3a22.21,22.21,0,0,0-2.61-11.31,20,20,0,0,0-7.51-7.76,23.36,23.36,0,0,0-22.18,0,19.7,19.7,0,0,0-7.58,7.83,23.68,23.68,0,0,0-2.73,11.49v2a22.53,22.53,0,0,0,3.05,11.74,20.88,20.88,0,0,0,8.5,8,26.78,26.78,0,0,0,12.55,2.85,27.34,27.34,0,0,0,10.62-2,23.27,23.27,0,0,0,8.39-6l6.58,7.7a28.8,28.8,0,0,1-11.12,7.95A38.54,38.54,0,0,1,1245.84,404.48Z" transform="translate(-21.36 -11.55)"></path><path d="M1318.26,404.48a53.62,53.62,0,0,1-15.59-2.24,36.54,36.54,0,0,1-11.61-5.46l5-9.45a40.3,40.3,0,0,0,10.43,4.85,41.46,41.46,0,0,0,12.67,2q8.32,0,12-2.36a7.44,7.44,0,0,0,3.66-6.59,5.78,5.78,0,0,0-2.23-4.84,15.26,15.26,0,0,0-5.9-2.61q-3.68-.87-8.14-1.55t-8.94-1.74a35.85,35.85,0,0,1-8.2-3,15.58,15.58,0,0,1-6-5.35c-1.49-2.27-2.23-5.32-2.23-9.13a16.94,16.94,0,0,1,3.35-10.43,21.35,21.35,0,0,1,9.51-6.9,39.8,39.8,0,0,1,14.59-2.42,57.76,57.76,0,0,1,13.11,1.55,32.8,32.8,0,0,1,10.87,4.41l-5.1,9.45a27.94,27.94,0,0,0-9.31-4.1,42.71,42.71,0,0,0-9.69-1.12q-7.83,0-11.68,2.54t-3.85,6.53a6.14,6.14,0,0,0,2.3,5.15,16.76,16.76,0,0,0,6,2.8,73.16,73.16,0,0,0,8.14,1.67q4.47.69,8.94,1.74a36.88,36.88,0,0,1,8.14,2.92,14.52,14.52,0,0,1,8.26,14.16,16,16,0,0,1-3.48,10.32,22.53,22.53,0,0,1-9.81,6.76A42.39,42.39,0,0,1,1318.26,404.48Z" transform="translate(-21.36 -11.55)"></path><path d="M1368.45,427.83V337.89h11.43v17.77l-.75,15.28,1.24,15.28v41.61Zm34.91-23.35a30.17,30.17,0,0,1-15-3.79,27.54,27.54,0,0,1-10.81-11.24q-4-7.45-4-18.64t3.91-18.63A26.29,26.29,0,0,1,1388.14,341a30.94,30.94,0,0,1,15.22-3.73,34.21,34.21,0,0,1,17.14,4.22,31.22,31.22,0,0,1,11.8,11.74,37.82,37.82,0,0,1,0,35.22,31,31,0,0,1-11.8,11.8A34.11,34.11,0,0,1,1403.36,404.48Zm-1-10.44a22.69,22.69,0,0,0,11.37-2.85,20.69,20.69,0,0,0,8-8.14,25,25,0,0,0,2.92-12.24,24.46,24.46,0,0,0-2.92-12.23,20.91,20.91,0,0,0-8-8,22.69,22.69,0,0,0-11.37-2.85,22.39,22.39,0,0,0-11.24,2.85,20.77,20.77,0,0,0-7.95,8,24.35,24.35,0,0,0-2.92,12.23,24.84,24.84,0,0,0,2.92,12.24,20.56,20.56,0,0,0,7.95,8.14A22.39,22.39,0,0,0,1402.36,394Z" transform="translate(-21.36 -11.55)"></path><path d="M1489.32,404.48a38.31,38.31,0,0,1-18.57-4.35,31.23,31.23,0,0,1-12.42-11.93,33.81,33.81,0,0,1-4.41-17.39,34.68,34.68,0,0,1,4.28-17.39,30.91,30.91,0,0,1,11.8-11.86,35.79,35.79,0,0,1,33.85-.07,29.91,29.91,0,0,1,11.49,11.87,36.61,36.61,0,0,1,4.17,17.83c0,.49,0,1.07-.07,1.73s-.1,1.29-.18,1.87h-56v-8.57h49.82l-4.85,3a22.21,22.21,0,0,0-2.61-11.31,20,20,0,0,0-7.51-7.76,23.36,23.36,0,0,0-22.18,0,19.61,19.61,0,0,0-7.57,7.83,23.57,23.57,0,0,0-2.74,11.49v2a22.63,22.63,0,0,0,3.05,11.74,20.88,20.88,0,0,0,8.5,8,26.78,26.78,0,0,0,12.55,2.85,27.34,27.34,0,0,0,10.62-2,23.27,23.27,0,0,0,8.39-6l6.58,7.7a28.8,28.8,0,0,1-11.12,7.95A38.51,38.51,0,0,1,1489.32,404.48Z" transform="translate(-21.36 -11.55)"></path><path d="M1548.82,325.22a7.93,7.93,0,0,1-5.77-2.23,7.34,7.34,0,0,1-2.3-5.47,7.44,7.44,0,0,1,2.3-5.59,7.93,7.93,0,0,1,5.77-2.24,8.08,8.08,0,0,1,5.78,2.18,7.14,7.14,0,0,1,2.3,5.4,7.77,7.77,0,0,1-8.08,8Zm-6,78.51V337.89h11.93v65.84Z" transform="translate(-21.36 -11.55)"></path><path d="M1574.91,347.71v-9.82h42v9.82Zm32,56.77q-9.95,0-15.4-5.35t-5.47-15.27V323.48H1598v59.88c0,3.56.88,6.29,2.67,8.2s4.32,2.85,7.64,2.85a14,14,0,0,0,9.31-3.1l3.73,8.57a17.34,17.34,0,0,1-6.52,3.48A27.61,27.61,0,0,1,1607,404.48Z" transform="translate(-21.36 -11.55)"></path><path d="M1668.58,404.48a35.31,35.31,0,0,1-17.58-4.35,32.11,32.11,0,0,1-12.24-12,33.67,33.67,0,0,1-4.47-17.33,33.26,33.26,0,0,1,4.47-17.33,32.53,32.53,0,0,1,12.17-11.86,35.28,35.28,0,0,1,17.65-4.35,35.69,35.69,0,0,1,17.57,4.29,31.28,31.28,0,0,1,12.18,11.86,36.49,36.49,0,0,1,0,34.78,31.73,31.73,0,0,1-12.18,11.93A35.3,35.3,0,0,1,1668.58,404.48Zm0-10.44a22.63,22.63,0,0,0,11.36-2.85,20.22,20.22,0,0,0,7.89-8.14,25.38,25.38,0,0,0,2.86-12.24,24.87,24.87,0,0,0-2.86-12.23,20.42,20.42,0,0,0-7.89-8,22.63,22.63,0,0,0-11.36-2.85,22.31,22.31,0,0,0-11.31,2.85,21.48,21.48,0,0,0-8,8,24,24,0,0,0-3,12.23,24.44,24.44,0,0,0,3,12.24,21.24,21.24,0,0,0,8,8.14A22.31,22.31,0,0,0,1668.58,394Z" transform="translate(-21.36 -11.55)"></path><path d="M1785.59,404.48a31,31,0,0,1-12.85-2.49,19.65,19.65,0,0,1-8.51-6.89,17.44,17.44,0,0,1-3-10,18.8,18.8,0,0,1,2.54-9.69,17.67,17.67,0,0,1,8.33-7q5.78-2.61,15.59-2.61h20.87v8.57H1788.2q-8.94,0-12,3a9.61,9.61,0,0,0-3.1,7.2,9.27,9.27,0,0,0,3.85,7.77c2.56,1.94,6.13,2.92,10.68,2.92a22.57,22.57,0,0,0,11.74-3,16.89,16.89,0,0,0,7.27-8.69l2.36,8.2a18.56,18.56,0,0,1-8.32,9.25Q1794.66,404.48,1785.59,404.48Zm21.62-.75V389.82l-.62-2.61V363.48q0-7.58-4.41-11.74T1789,347.58a34.69,34.69,0,0,0-11.43,1.93,29.31,29.31,0,0,0-9.44,5.15l-5-8.94a35.76,35.76,0,0,1,12.24-6.27,51.09,51.09,0,0,1,15-2.18q13.53,0,20.86,6.59t7.33,20.12v39.75Zm-17.89-75.4-20.87-16.15h15.16l16.89,16.15Z" transform="translate(-21.36 -11.55)"></path><path d="M1866.34,404.48a53.57,53.57,0,0,1-15.59-2.24,36.71,36.71,0,0,1-11.62-5.46l5-9.45a40.53,40.53,0,0,0,10.44,4.85,41.46,41.46,0,0,0,12.67,2q8.32,0,12-2.36a7.44,7.44,0,0,0,3.66-6.59,5.78,5.78,0,0,0-2.23-4.84,15.26,15.26,0,0,0-5.9-2.61q-3.68-.87-8.14-1.55t-8.95-1.74a35.94,35.94,0,0,1-8.19-3,15.51,15.51,0,0,1-6-5.35c-1.49-2.27-2.23-5.32-2.23-9.13a16.88,16.88,0,0,1,3.35-10.43,21.32,21.32,0,0,1,9.5-6.9,39.9,39.9,0,0,1,14.6-2.42,57.83,57.83,0,0,1,13.11,1.55,32.8,32.8,0,0,1,10.87,4.41l-5.1,9.45a27.94,27.94,0,0,0-9.31-4.1,42.71,42.71,0,0,0-9.69-1.12q-7.83,0-11.68,2.54t-3.85,6.53a6.14,6.14,0,0,0,2.3,5.15,16.76,16.76,0,0,0,6,2.8,72.69,72.69,0,0,0,8.14,1.67q4.47.69,8.94,1.74a36.88,36.88,0,0,1,8.14,2.92,14.52,14.52,0,0,1,8.26,14.16,16,16,0,0,1-3.48,10.32,22.53,22.53,0,0,1-9.81,6.76A42.39,42.39,0,0,1,1866.34,404.48Z" transform="translate(-21.36 -11.55)"></path><path d="M1991.93,337.27a31.11,31.11,0,0,1,14.22,3.11,22.26,22.26,0,0,1,9.63,9.44q3.48,6.33,3.48,16v37.89h-11.93V367.21q0-9.57-4.65-14.41T1989.57,348a23.4,23.4,0,0,0-11.06,2.48,17,17,0,0,0-7.26,7.33,25.68,25.68,0,0,0-2.55,12.05v33.91h-11.92V337.89h11.42v17.77l-1.86-4.72a22.91,22.91,0,0,1,9.94-10.07A32.6,32.6,0,0,1,1991.93,337.27Z" transform="translate(-21.36 -11.55)"></path><path d="M2076.4,404.48a35.3,35.3,0,0,1-17.57-4.35,32.11,32.11,0,0,1-12.24-12,33.67,33.67,0,0,1-4.47-17.33,33.26,33.26,0,0,1,4.47-17.33,32.53,32.53,0,0,1,12.17-11.86,35.27,35.27,0,0,1,17.64-4.35,35.7,35.7,0,0,1,17.58,4.29,31.28,31.28,0,0,1,12.18,11.86,36.49,36.49,0,0,1,0,34.78A31.73,31.73,0,0,1,2094,400.13,35.31,35.31,0,0,1,2076.4,404.48Zm0-10.44a22.64,22.64,0,0,0,11.37-2.85,20.28,20.28,0,0,0,7.89-8.14,25.38,25.38,0,0,0,2.86-12.24,24.87,24.87,0,0,0-2.86-12.23,20.49,20.49,0,0,0-7.89-8,22.64,22.64,0,0,0-11.37-2.85,22.3,22.3,0,0,0-11.3,2.85,21.48,21.48,0,0,0-7.95,8,24,24,0,0,0-3,12.23,24.44,24.44,0,0,0,3,12.24,21.24,21.24,0,0,0,7.95,8.14A22.3,22.3,0,0,0,2076.4,394Z" transform="translate(-21.36 -11.55)"></path><path d="M2152.8,404.48a53.62,53.62,0,0,1-15.59-2.24,36.54,36.54,0,0,1-11.61-5.46l5-9.45a40.3,40.3,0,0,0,10.43,4.85,41.51,41.51,0,0,0,12.67,2q8.32,0,12-2.36a7.45,7.45,0,0,0,3.67-6.59,5.79,5.79,0,0,0-2.24-4.84,15.26,15.26,0,0,0-5.9-2.61q-3.68-.87-8.14-1.55t-8.94-1.74a36,36,0,0,1-8.2-3,15.48,15.48,0,0,1-6-5.35c-1.49-2.27-2.24-5.32-2.24-9.13a16.94,16.94,0,0,1,3.35-10.43,21.35,21.35,0,0,1,9.51-6.9,39.84,39.84,0,0,1,14.59-2.42,57.76,57.76,0,0,1,13.11,1.55,32.8,32.8,0,0,1,10.87,4.41l-5.09,9.45a28.07,28.07,0,0,0-9.32-4.1,42.71,42.71,0,0,0-9.69-1.12q-7.83,0-11.68,2.54t-3.85,6.53a6.17,6.17,0,0,0,2.3,5.15,16.76,16.76,0,0,0,6,2.8,73.16,73.16,0,0,0,8.14,1.67q4.47.69,8.94,1.74a36.69,36.69,0,0,1,8.14,2.92,14.52,14.52,0,0,1,8.26,14.16,16,16,0,0,1-3.48,10.32,22.53,22.53,0,0,1-9.81,6.76A42.39,42.39,0,0,1,2152.8,404.48Z" transform="translate(-21.36 -11.55)"></path><path d="M2221.87,404.48a53.62,53.62,0,0,1-15.59-2.24,36.54,36.54,0,0,1-11.61-5.46l5-9.45a40.53,40.53,0,0,0,10.44,4.85,41.46,41.46,0,0,0,12.67,2q8.33,0,12-2.36a7.44,7.44,0,0,0,3.66-6.59,5.78,5.78,0,0,0-2.23-4.84,15.26,15.26,0,0,0-5.9-2.61q-3.68-.87-8.14-1.55t-8.94-1.74a35.85,35.85,0,0,1-8.2-3,15.51,15.51,0,0,1-6-5.35c-1.49-2.27-2.23-5.32-2.23-9.13a16.94,16.94,0,0,1,3.35-10.43,21.38,21.38,0,0,1,9.5-6.9,39.9,39.9,0,0,1,14.6-2.42,57.76,57.76,0,0,1,13.11,1.55,32.8,32.8,0,0,1,10.87,4.41l-5.1,9.45a27.94,27.94,0,0,0-9.31-4.1,42.71,42.71,0,0,0-9.69-1.12q-7.83,0-11.68,2.54t-3.85,6.53a6.14,6.14,0,0,0,2.3,5.15,16.76,16.76,0,0,0,6,2.8,73.16,73.16,0,0,0,8.14,1.67q4.47.69,8.94,1.74a36.88,36.88,0,0,1,8.14,2.92,14.52,14.52,0,0,1,8.26,14.16,16,16,0,0,1-3.48,10.32,22.53,22.53,0,0,1-9.81,6.76A42.39,42.39,0,0,1,2221.87,404.48Z" transform="translate(-21.36 -11.55)"></path><path d="M2291.31,404.48a31,31,0,0,1-12.85-2.49,19.59,19.59,0,0,1-8.51-6.89,17.44,17.44,0,0,1-3-10,18.8,18.8,0,0,1,2.55-9.69,17.64,17.64,0,0,1,8.32-7q5.77-2.61,15.59-2.61h20.87v8.57h-20.37q-8.94,0-12.05,3a9.61,9.61,0,0,0-3.1,7.2,9.27,9.27,0,0,0,3.85,7.77q3.84,2.91,10.68,2.92a22.57,22.57,0,0,0,11.74-3,16.94,16.94,0,0,0,7.27-8.69l2.36,8.2a18.54,18.54,0,0,1-8.33,9.25Q2300.38,404.48,2291.31,404.48Zm21.62-.75V389.82l-.62-2.61V363.48c0-5.05-1.48-9-4.41-11.74s-7.35-4.16-13.23-4.16a34.65,34.65,0,0,0-11.43,1.93,29.31,29.31,0,0,0-9.44,5.15l-5-8.94a35.8,35.8,0,0,1,12.23-6.27,51.19,51.19,0,0,1,15-2.18q13.54,0,20.87,6.59t7.33,20.12v39.75Z" transform="translate(-21.36 -11.55)"></path><path d="M2372.06,404.48a53.52,53.52,0,0,1-15.59-2.24,36.71,36.71,0,0,1-11.62-5.46l5-9.45a40.53,40.53,0,0,0,10.44,4.85,41.46,41.46,0,0,0,12.67,2q8.33,0,12-2.36a7.44,7.44,0,0,0,3.66-6.59,5.79,5.79,0,0,0-2.24-4.84,15.19,15.19,0,0,0-5.9-2.61q-3.66-.87-8.13-1.55c-3-.46-6-1-8.95-1.74a36.2,36.2,0,0,1-8.2-3,15.56,15.56,0,0,1-6-5.35c-1.49-2.27-2.24-5.32-2.24-9.13a16.88,16.88,0,0,1,3.36-10.43,21.32,21.32,0,0,1,9.5-6.9,39.9,39.9,0,0,1,14.6-2.42,57.74,57.74,0,0,1,13.1,1.55,32.71,32.71,0,0,1,10.87,4.41l-5.09,9.45a28,28,0,0,0-9.32-4.1,42.71,42.71,0,0,0-9.69-1.12c-5.21,0-9.11.85-11.67,2.54s-3.85,3.88-3.85,6.53a6.16,6.16,0,0,0,2.29,5.15,16.82,16.82,0,0,0,6,2.8,73,73,0,0,0,8.13,1.67q4.49.69,9,1.74a36.88,36.88,0,0,1,8.14,2.92,15.81,15.81,0,0,1,6,5.22,15.59,15.59,0,0,1,2.3,8.94,16,16,0,0,1-3.48,10.32,22.51,22.51,0,0,1-9.82,6.76A42.3,42.3,0,0,1,2372.06,404.48Z" transform="translate(-21.36 -11.55)"></path><path d="M286.7,474.29a7.94,7.94,0,0,1-5.77-2.23,7.37,7.37,0,0,1-2.3-5.47,7.48,7.48,0,0,1,2.3-5.59,8,8,0,0,1,5.77-2.24,8.08,8.08,0,0,1,5.78,2.18,7.14,7.14,0,0,1,2.3,5.4,7.77,7.77,0,0,1-8.08,8Zm-6,78.51V487h11.93V552.8Z" transform="translate(-21.36 -11.55)"></path><path d="M349.44,553.55a34.2,34.2,0,0,1-17.08-4.23,30.86,30.86,0,0,1-11.87-11.8,37.9,37.9,0,0,1,0-35.22,31.05,31.05,0,0,1,11.87-11.74,34.3,34.3,0,0,1,17.08-4.22,30.38,30.38,0,0,1,15,3.73,27.17,27.17,0,0,1,10.74,11.18q4,7.46,4,18.63t-3.91,18.64a26.94,26.94,0,0,1-10.62,11.24A30.49,30.49,0,0,1,349.44,553.55Zm1-10.44a22.39,22.39,0,0,0,11.24-2.85,20.56,20.56,0,0,0,7.95-8.14,24.84,24.84,0,0,0,2.92-12.24,24.35,24.35,0,0,0-2.92-12.23,20.77,20.77,0,0,0-7.95-8,23.71,23.71,0,0,0-22.54,0,21.33,21.33,0,0,0-7.95,8,24,24,0,0,0-3,12.23,24.45,24.45,0,0,0,3,12.24,21.1,21.1,0,0,0,7.95,8.14A22.3,22.3,0,0,0,350.43,543.11Zm22.49,9.69V535l.74-15.28-1.24-15.28V460.63h11.92V552.8Z" transform="translate(-21.36 -11.55)"></path><path d="M443.1,553.55a38.31,38.31,0,0,1-18.57-4.35,31.3,31.3,0,0,1-12.42-11.93,33.91,33.91,0,0,1-4.41-17.39A34.78,34.78,0,0,1,412,502.49a30.87,30.87,0,0,1,11.81-11.86,35.79,35.79,0,0,1,33.85-.07,30,30,0,0,1,11.49,11.87,36.72,36.72,0,0,1,4.16,17.83c0,.49,0,1.07-.06,1.73s-.11,1.29-.19,1.87H417v-8.57h49.82l-4.85,3a22.1,22.1,0,0,0-2.6-11.31,20,20,0,0,0-7.52-7.76,23.34,23.34,0,0,0-22.17,0,19.64,19.64,0,0,0-7.58,7.83,23.69,23.69,0,0,0-2.74,11.49v2a22.63,22.63,0,0,0,3.05,11.74,20.91,20.91,0,0,0,8.51,8,26.71,26.71,0,0,0,12.54,2.85,27.54,27.54,0,0,0,10.63-2,23.38,23.38,0,0,0,8.38-6l6.59,7.7A28.88,28.88,0,0,1,458,550.81,38.56,38.56,0,0,1,443.1,553.55ZM431.3,477.4l16.9-16.15h15.15L442.48,477.4Z" transform="translate(-21.36 -11.55)"></path><path d="M502.61,474.29a8,8,0,0,1-5.78-2.23,7.37,7.37,0,0,1-2.3-5.47,7.48,7.48,0,0,1,2.3-5.59,8,8,0,0,1,5.78-2.24,8.07,8.07,0,0,1,5.77,2.18,7.14,7.14,0,0,1,2.3,5.4,7.76,7.76,0,0,1-8.07,8Zm-6,78.51V487h11.93V552.8Z" transform="translate(-21.36 -11.55)"></path><path d="M557.39,553.55a31.06,31.06,0,0,1-12.86-2.49,19.71,19.71,0,0,1-8.51-6.89,17.44,17.44,0,0,1-3-10,18.8,18.8,0,0,1,2.55-9.69,17.6,17.6,0,0,1,8.32-7q5.77-2.61,15.59-2.61h20.87v8.57H560q-9,0-12,3a9.61,9.61,0,0,0-3.11,7.2,9.27,9.27,0,0,0,3.85,7.77q3.85,2.91,10.69,2.92a22.6,22.6,0,0,0,11.74-3,16.92,16.92,0,0,0,7.26-8.69l2.36,8.2a18.47,18.47,0,0,1-8.32,9.25Q566.45,553.55,557.39,553.55ZM579,552.8V538.89l-.62-2.61V512.55q0-7.57-4.41-11.74t-13.23-4.16a34.73,34.73,0,0,0-11.43,1.93,29.52,29.52,0,0,0-9.44,5.15l-5-8.94a36,36,0,0,1,12.24-6.27,51.09,51.09,0,0,1,15-2.18q13.53,0,20.87,6.59t7.33,20.12V552.8Z" transform="translate(-21.36 -11.55)"></path><path d="M638.13,553.55a53.62,53.62,0,0,1-15.59-2.24,36.65,36.65,0,0,1-11.61-5.46l5-9.45a40.3,40.3,0,0,0,10.43,4.85,41.51,41.51,0,0,0,12.67,2q8.32,0,12-2.36a7.45,7.45,0,0,0,3.67-6.59,5.79,5.79,0,0,0-2.24-4.84,15.26,15.26,0,0,0-5.9-2.61c-2.44-.58-5.16-1.1-8.14-1.55s-6-1-8.94-1.74a36,36,0,0,1-8.2-3,15.48,15.48,0,0,1-6-5.35c-1.49-2.27-2.24-5.32-2.24-9.13a16.94,16.94,0,0,1,3.35-10.43,21.35,21.35,0,0,1,9.51-6.9,39.84,39.84,0,0,1,14.59-2.42,57.76,57.76,0,0,1,13.11,1.55,32.8,32.8,0,0,1,10.87,4.41l-5.09,9.45a28,28,0,0,0-9.32-4.1,42.71,42.71,0,0,0-9.69-1.12q-7.83,0-11.68,2.54t-3.85,6.53a6.17,6.17,0,0,0,2.3,5.15,16.76,16.76,0,0,0,6,2.8,73.16,73.16,0,0,0,8.14,1.67q4.47.69,8.94,1.74a36.51,36.51,0,0,1,8.14,2.92,15.82,15.82,0,0,1,6,5.22,15.59,15.59,0,0,1,2.3,8.94,16,16,0,0,1-3.48,10.32,22.63,22.63,0,0,1-9.81,6.77A42.59,42.59,0,0,1,638.13,553.55Z" transform="translate(-21.36 -11.55)"></path><path d="M757.89,553.55a38.37,38.37,0,0,1-18.58-4.35,31.3,31.3,0,0,1-12.42-11.93,33.91,33.91,0,0,1-4.41-17.39,34.68,34.68,0,0,1,4.29-17.39,30.84,30.84,0,0,1,11.8-11.86,35.79,35.79,0,0,1,33.85-.07,29.91,29.91,0,0,1,11.49,11.87,36.72,36.72,0,0,1,4.16,17.83c0,.49,0,1.07-.06,1.73s-.1,1.29-.19,1.87h-56v-8.57h49.81l-4.84,3A22.21,22.21,0,0,0,774.16,507a19.9,19.9,0,0,0-7.52-7.76,23.34,23.34,0,0,0-22.17,0,19.64,19.64,0,0,0-7.58,7.83,23.68,23.68,0,0,0-2.73,11.49v2a22.62,22.62,0,0,0,3,11.74,21,21,0,0,0,8.51,8,26.75,26.75,0,0,0,12.55,2.85,27.52,27.52,0,0,0,10.62-2,23.42,23.42,0,0,0,8.39-6l6.58,7.7a28.8,28.8,0,0,1-11.12,7.95A38.54,38.54,0,0,1,757.89,553.55Z" transform="translate(-21.36 -11.55)"></path><path d="M870.93,553.55a31.06,31.06,0,0,1-12.86-2.49,19.71,19.71,0,0,1-8.51-6.89,17.51,17.51,0,0,1-3-10,18.8,18.8,0,0,1,2.55-9.69,17.64,17.64,0,0,1,8.32-7q5.77-2.61,15.59-2.61h20.87v8.57H873.54q-8.94,0-12,3a9.61,9.61,0,0,0-3.11,7.2,9.28,9.28,0,0,0,3.86,7.77q3.84,2.91,10.68,2.92a22.6,22.6,0,0,0,11.74-3,17,17,0,0,0,7.27-8.69l2.36,8.2a18.54,18.54,0,0,1-8.33,9.25Q880,553.55,870.93,553.55Zm21.62-.75V538.89l-.62-2.61V512.55c0-5-1.48-9-4.41-11.74s-7.36-4.16-13.23-4.16a34.65,34.65,0,0,0-11.43,1.93,29.31,29.31,0,0,0-9.44,5.15l-5-8.94a35.8,35.8,0,0,1,12.23-6.27,51.09,51.09,0,0,1,15-2.18q13.54,0,20.87,6.59t7.33,20.12V552.8Z" transform="translate(-21.36 -11.55)"></path><path d="M951.68,553.55a53.52,53.52,0,0,1-15.59-2.24,36.71,36.71,0,0,1-11.62-5.46l5-9.45a40.3,40.3,0,0,0,10.43,4.85,41.53,41.53,0,0,0,12.68,2q8.31,0,12-2.36a7.43,7.43,0,0,0,3.67-6.59,5.79,5.79,0,0,0-2.24-4.84,15.26,15.26,0,0,0-5.9-2.61q-3.66-.87-8.14-1.55T943,523.55a36.2,36.2,0,0,1-8.2-3,15.56,15.56,0,0,1-6-5.35c-1.49-2.27-2.24-5.32-2.24-9.13a16.88,16.88,0,0,1,3.36-10.43,21.26,21.26,0,0,1,9.5-6.9,39.86,39.86,0,0,1,14.6-2.42,57.74,57.74,0,0,1,13.1,1.55A32.71,32.71,0,0,1,978,492.3l-5.09,9.45a28,28,0,0,0-9.32-4.1,42.71,42.71,0,0,0-9.69-1.12q-7.83,0-11.68,2.54c-2.56,1.7-3.85,3.88-3.85,6.53a6.17,6.17,0,0,0,2.3,5.15,16.73,16.73,0,0,0,6,2.8,73,73,0,0,0,8.13,1.67q4.47.69,9,1.74a36.61,36.61,0,0,1,8.13,2.92,15.92,15.92,0,0,1,6,5.22q2.29,3.36,2.29,8.94a16.06,16.06,0,0,1-3.47,10.32,22.6,22.6,0,0,1-9.82,6.77A42.53,42.53,0,0,1,951.68,553.55Z" transform="translate(-21.36 -11.55)"></path><path d="M1077.27,486.34a31.14,31.14,0,0,1,14.22,3.11,22.26,22.26,0,0,1,9.63,9.44q3.48,6.33,3.48,16V552.8h-11.93V516.28q0-9.57-4.66-14.41t-13.1-4.84a23.37,23.37,0,0,0-11.06,2.48,17,17,0,0,0-7.27,7.33,25.68,25.68,0,0,0-2.54,12.05V552.8h-11.93V487h11.43v17.77l-1.86-4.72a22.88,22.88,0,0,1,9.93-10.07A32.64,32.64,0,0,1,1077.27,486.34Z" transform="translate(-21.36 -11.55)"></path><path d="M1161.74,553.55a35.36,35.36,0,0,1-17.58-4.35,32.15,32.15,0,0,1-12.23-12,33.57,33.57,0,0,1-4.48-17.33,33.17,33.17,0,0,1,4.48-17.33,32.45,32.45,0,0,1,12.17-11.86,35.22,35.22,0,0,1,17.64-4.35,35.76,35.76,0,0,1,17.58,4.29,31.32,31.32,0,0,1,12.17,11.86,36.49,36.49,0,0,1,0,34.78,31.78,31.78,0,0,1-12.17,11.93A35.36,35.36,0,0,1,1161.74,553.55Zm0-10.44a22.69,22.69,0,0,0,11.37-2.85,20.28,20.28,0,0,0,7.89-8.14,25.37,25.37,0,0,0,2.85-12.24,24.87,24.87,0,0,0-2.85-12.23,20.49,20.49,0,0,0-7.89-8,22.69,22.69,0,0,0-11.37-2.85,22.3,22.3,0,0,0-11.3,2.85,21.43,21.43,0,0,0-8,8,24.06,24.06,0,0,0-3,12.23,24.55,24.55,0,0,0,3,12.24,21.19,21.19,0,0,0,8,8.14A22.3,22.3,0,0,0,1161.74,543.11Z" transform="translate(-21.36 -11.55)"></path><path d="M1238.14,553.55a53.52,53.52,0,0,1-15.59-2.24,36.71,36.71,0,0,1-11.62-5.46l5-9.45a40.22,40.22,0,0,0,10.44,4.85,41.46,41.46,0,0,0,12.67,2q8.31,0,12-2.36a7.43,7.43,0,0,0,3.67-6.59,5.79,5.79,0,0,0-2.24-4.84,15.26,15.26,0,0,0-5.9-2.61q-3.66-.87-8.13-1.55t-9-1.74a36.2,36.2,0,0,1-8.2-3,15.56,15.56,0,0,1-6-5.35c-1.49-2.27-2.24-5.32-2.24-9.13a16.88,16.88,0,0,1,3.36-10.43,21.26,21.26,0,0,1,9.5-6.9,39.9,39.9,0,0,1,14.6-2.42,57.74,57.74,0,0,1,13.1,1.55,32.71,32.71,0,0,1,10.87,4.41l-5.09,9.45a28,28,0,0,0-9.32-4.1,42.71,42.71,0,0,0-9.69-1.12c-5.21,0-9.11.85-11.67,2.54s-3.85,3.88-3.85,6.53a6.16,6.16,0,0,0,2.29,5.15,16.82,16.82,0,0,0,6,2.8,73,73,0,0,0,8.13,1.67c3,.46,6,1,9,1.74a36.61,36.61,0,0,1,8.13,2.92,15.85,15.85,0,0,1,6,5.22,15.59,15.59,0,0,1,2.3,8.94,16.07,16.07,0,0,1-3.48,10.32,22.6,22.6,0,0,1-9.82,6.77A42.53,42.53,0,0,1,1238.14,553.55Z" transform="translate(-21.36 -11.55)"></path><path d="M1307.21,553.55a53.52,53.52,0,0,1-15.59-2.24,36.71,36.71,0,0,1-11.62-5.46l5-9.45a40.22,40.22,0,0,0,10.44,4.85,41.41,41.41,0,0,0,12.67,2q8.31,0,12-2.36a7.43,7.43,0,0,0,3.67-6.59,5.79,5.79,0,0,0-2.24-4.84,15.26,15.26,0,0,0-5.9-2.61q-3.66-.87-8.13-1.55t-9-1.74a36.2,36.2,0,0,1-8.2-3,15.56,15.56,0,0,1-6-5.35c-1.49-2.27-2.24-5.32-2.24-9.13a16.88,16.88,0,0,1,3.36-10.43,21.26,21.26,0,0,1,9.5-6.9,39.86,39.86,0,0,1,14.6-2.42,57.74,57.74,0,0,1,13.1,1.55,32.71,32.71,0,0,1,10.87,4.41l-5.09,9.45a28,28,0,0,0-9.32-4.1,42.71,42.71,0,0,0-9.69-1.12q-7.83,0-11.67,2.54t-3.86,6.53a6.17,6.17,0,0,0,2.3,5.15,16.76,16.76,0,0,0,6,2.8,73.64,73.64,0,0,0,8.14,1.67q4.47.69,9,1.74a36.61,36.61,0,0,1,8.13,2.92,15.92,15.92,0,0,1,6,5.22q2.3,3.36,2.29,8.94a16.06,16.06,0,0,1-3.47,10.32,22.66,22.66,0,0,1-9.82,6.77A42.53,42.53,0,0,1,1307.21,553.55Z" transform="translate(-21.36 -11.55)"></path><path d="M1376.65,553.55a31,31,0,0,1-12.86-2.49,19.65,19.65,0,0,1-8.51-6.89,17.44,17.44,0,0,1-3-10,18.8,18.8,0,0,1,2.55-9.69,17.6,17.6,0,0,1,8.32-7q5.77-2.61,15.59-2.61h20.87v8.57h-20.37q-9,0-12,3a9.58,9.58,0,0,0-3.11,7.2,9.27,9.27,0,0,0,3.85,7.77q3.85,2.91,10.68,2.92a22.55,22.55,0,0,0,11.74-3,16.89,16.89,0,0,0,7.27-8.69l2.36,8.2a18.52,18.52,0,0,1-8.32,9.25Q1385.71,553.55,1376.65,553.55Zm21.61-.75V538.89l-.62-2.61V512.55q0-7.57-4.41-11.74T1380,496.65a34.73,34.73,0,0,0-11.43,1.93,29.52,29.52,0,0,0-9.44,5.15l-5-8.94a36,36,0,0,1,12.24-6.27,51.09,51.09,0,0,1,15-2.18q13.53,0,20.87,6.59t7.33,20.12V552.8Z" transform="translate(-21.36 -11.55)"></path><path d="M1457.39,553.55a53.62,53.62,0,0,1-15.59-2.24,36.54,36.54,0,0,1-11.61-5.46l5-9.45a40.3,40.3,0,0,0,10.43,4.85,41.51,41.51,0,0,0,12.67,2q8.33,0,12-2.36a7.45,7.45,0,0,0,3.67-6.59,5.79,5.79,0,0,0-2.24-4.84,15.26,15.26,0,0,0-5.9-2.61q-3.67-.87-8.14-1.55t-8.94-1.74a36,36,0,0,1-8.2-3,15.48,15.48,0,0,1-6-5.35c-1.5-2.27-2.24-5.32-2.24-9.13a16.94,16.94,0,0,1,3.35-10.43,21.35,21.35,0,0,1,9.51-6.9,39.84,39.84,0,0,1,14.59-2.42,57.76,57.76,0,0,1,13.11,1.55,32.8,32.8,0,0,1,10.87,4.41l-5.09,9.45a28.07,28.07,0,0,0-9.32-4.1,42.71,42.71,0,0,0-9.69-1.12q-7.83,0-11.68,2.54t-3.85,6.53a6.17,6.17,0,0,0,2.3,5.15,16.76,16.76,0,0,0,6,2.8,73.16,73.16,0,0,0,8.14,1.67q4.47.69,8.94,1.74a36.69,36.69,0,0,1,8.14,2.92,15.82,15.82,0,0,1,6,5.22,15.59,15.59,0,0,1,2.3,8.94,16,16,0,0,1-3.48,10.32,22.63,22.63,0,0,1-9.81,6.77A42.62,42.62,0,0,1,1457.39,553.55Z" transform="translate(-21.36 -11.55)"></path><path d="M1565.1,552.8,1536.28,487h12.42l25.59,59.63h-6L1594.41,487h11.68l-28.82,65.84Z" transform="translate(-21.36 -11.55)"></path><path d="M1650.44,553.55a35.31,35.31,0,0,1-17.58-4.35,32.11,32.11,0,0,1-12.24-12,33.67,33.67,0,0,1-4.47-17.33,33.26,33.26,0,0,1,4.47-17.33,32.48,32.48,0,0,1,12.18-11.86,35.22,35.22,0,0,1,17.64-4.35,35.69,35.69,0,0,1,17.57,4.29,31.28,31.28,0,0,1,12.18,11.86,36.49,36.49,0,0,1,0,34.78A31.73,31.73,0,0,1,1668,549.2,35.3,35.3,0,0,1,1650.44,553.55Zm0-10.44a22.63,22.63,0,0,0,11.36-2.85,20.16,20.16,0,0,0,7.89-8.14,25.26,25.26,0,0,0,2.86-12.24,24.76,24.76,0,0,0-2.86-12.23,20.36,20.36,0,0,0-7.89-8,22.63,22.63,0,0,0-11.36-2.85,22.31,22.31,0,0,0-11.31,2.85,21.48,21.48,0,0,0-8,8,24,24,0,0,0-3,12.23,24.44,24.44,0,0,0,3,12.24,21.24,21.24,0,0,0,8,8.14A22.31,22.31,0,0,0,1650.44,543.11Z" transform="translate(-21.36 -11.55)"></path><path d="M1743.11,486.34a31.14,31.14,0,0,1,14.22,3.11,22.26,22.26,0,0,1,9.63,9.44q3.48,6.33,3.48,16V552.8h-11.93V516.28q0-9.57-4.66-14.41t-13.1-4.84a23.37,23.37,0,0,0-11.06,2.48,17,17,0,0,0-7.27,7.33,25.8,25.8,0,0,0-2.54,12.05V552.8H1708V487h11.43v17.77l-1.86-4.72a22.85,22.85,0,0,1,9.94-10.07A32.6,32.6,0,0,1,1743.11,486.34Z" transform="translate(-21.36 -11.55)"></path><path d="M1789.94,496.78V487h42v9.82Zm32,56.77q-9.93,0-15.4-5.34t-5.47-15.28V472.55h11.93v59.88q0,5.34,2.67,8.2c1.78,1.91,4.32,2.85,7.64,2.85a14,14,0,0,0,9.31-3.1l3.73,8.57a17.26,17.26,0,0,1-6.52,3.48A27.61,27.61,0,0,1,1822,553.55Z" transform="translate(-21.36 -11.55)"></path><path d="M1876.9,553.55a31,31,0,0,1-12.86-2.49,19.65,19.65,0,0,1-8.51-6.89,17.44,17.44,0,0,1-3-10,18.8,18.8,0,0,1,2.55-9.69,17.6,17.6,0,0,1,8.32-7q5.77-2.61,15.59-2.61h20.87v8.57h-20.37q-9,0-12,3a9.61,9.61,0,0,0-3.11,7.2,9.27,9.27,0,0,0,3.85,7.77q3.85,2.91,10.69,2.92a22.54,22.54,0,0,0,11.73-3,16.89,16.89,0,0,0,7.27-8.69l2.36,8.2a18.52,18.52,0,0,1-8.32,9.25Q1886,553.55,1876.9,553.55Zm21.61-.75V538.89l-.62-2.61V512.55q0-7.57-4.41-11.74t-13.23-4.16a34.73,34.73,0,0,0-11.43,1.93,29.52,29.52,0,0,0-9.44,5.15l-5-8.94a36,36,0,0,1,12.24-6.27,51.09,51.09,0,0,1,15-2.18q13.53,0,20.87,6.59t7.33,20.12V552.8Z" transform="translate(-21.36 -11.55)"></path><path d="M1966,553.55a34.2,34.2,0,0,1-17.08-4.23,30.86,30.86,0,0,1-11.87-11.8,37.82,37.82,0,0,1,0-35.22,31.05,31.05,0,0,1,11.87-11.74,34.3,34.3,0,0,1,17.08-4.22,30.38,30.38,0,0,1,15,3.73,27.17,27.17,0,0,1,10.74,11.18q4,7.46,4,18.63t-3.91,18.64a26.94,26.94,0,0,1-10.62,11.24A30.52,30.52,0,0,1,1966,553.55Zm1-10.44a22.39,22.39,0,0,0,11.24-2.85,20.56,20.56,0,0,0,8-8.14,24.84,24.84,0,0,0,2.92-12.24,24.35,24.35,0,0,0-2.92-12.23,20.77,20.77,0,0,0-8-8,23.71,23.71,0,0,0-22.54,0,21.33,21.33,0,0,0-8,8,24,24,0,0,0-3,12.23,24.45,24.45,0,0,0,3,12.24,21.1,21.1,0,0,0,8,8.14A22.3,22.3,0,0,0,1967,543.11Zm22.49,9.69V535l.74-15.28L1989,504.48V460.63h11.92V552.8Z" transform="translate(-21.36 -11.55)"></path><path d="M2059.63,553.55a38.31,38.31,0,0,1-18.57-4.35,31.3,31.3,0,0,1-12.42-11.93,33.91,33.91,0,0,1-4.41-17.39,34.78,34.78,0,0,1,4.28-17.39,30.91,30.91,0,0,1,11.8-11.86,35.81,35.81,0,0,1,33.86-.07,30,30,0,0,1,11.49,11.87,36.72,36.72,0,0,1,4.16,17.83c0,.49,0,1.07-.06,1.73s-.11,1.29-.19,1.87h-56v-8.57h49.82l-4.85,3a22.1,22.1,0,0,0-2.6-11.31,20,20,0,0,0-7.52-7.76,23.36,23.36,0,0,0-22.18,0,19.68,19.68,0,0,0-7.57,7.83,23.57,23.57,0,0,0-2.74,11.49v2a22.63,22.63,0,0,0,3,11.74,20.91,20.91,0,0,0,8.51,8,26.71,26.71,0,0,0,12.54,2.85,27.45,27.45,0,0,0,10.62-2,23.33,23.33,0,0,0,8.39-6l6.58,7.7a28.77,28.77,0,0,1-11.11,7.95A38.59,38.59,0,0,1,2059.63,553.55Z" transform="translate(-21.36 -11.55)"></path><path d="M2132.05,553.55a53.62,53.62,0,0,1-15.59-2.24,36.65,36.65,0,0,1-11.61-5.46l5-9.45a40.3,40.3,0,0,0,10.43,4.85,41.51,41.51,0,0,0,12.67,2q8.32,0,12-2.36a7.45,7.45,0,0,0,3.67-6.59,5.79,5.79,0,0,0-2.24-4.84,15.26,15.26,0,0,0-5.9-2.61q-3.66-.87-8.14-1.55t-8.94-1.74a36,36,0,0,1-8.2-3,15.56,15.56,0,0,1-6-5.35c-1.49-2.27-2.24-5.32-2.24-9.13a16.88,16.88,0,0,1,3.36-10.43,21.26,21.26,0,0,1,9.5-6.9,39.86,39.86,0,0,1,14.6-2.42,57.74,57.74,0,0,1,13.1,1.55,32.8,32.8,0,0,1,10.87,4.41l-5.09,9.45a28,28,0,0,0-9.32-4.1,42.71,42.71,0,0,0-9.69-1.12q-7.83,0-11.68,2.54c-2.56,1.7-3.85,3.88-3.85,6.53a6.17,6.17,0,0,0,2.3,5.15,16.76,16.76,0,0,0,6,2.8,73.64,73.64,0,0,0,8.14,1.67q4.47.69,8.94,1.74a36.51,36.51,0,0,1,8.14,2.92,15.82,15.82,0,0,1,6,5.22c1.54,2.24,2.3,5.22,2.3,8.94a16,16,0,0,1-3.48,10.32,22.57,22.57,0,0,1-9.81,6.77A42.59,42.59,0,0,1,2132.05,553.55Z" transform="translate(-21.36 -11.55)"></path><path d="M2177.52,571.19l6.21-25.1,1.62,7.21a8.56,8.56,0,0,1-6-2.24,7.89,7.89,0,0,1-2.42-6.08,8.17,8.17,0,0,1,8.32-8.45,7.6,7.6,0,0,1,5.84,2.42,8.56,8.56,0,0,1,2.24,6,14.91,14.91,0,0,1-.19,2.42,23.09,23.09,0,0,1-.62,2.73c-.29,1-.73,2.3-1.3,3.79l-5.84,17.27Z" transform="translate(-21.36 -11.55)"></path><path d="M163.47,726V636H174.9V653.8l-.74,15.28,1.24,15.28V726Zm34.91-23.35a30.07,30.07,0,0,1-15-3.79,27.6,27.6,0,0,1-10.81-11.24q-4-7.46-4-18.64t3.91-18.63a26.32,26.32,0,0,1,10.68-11.18,31,31,0,0,1,15.22-3.73,34.21,34.21,0,0,1,17.14,4.22,31.25,31.25,0,0,1,11.8,11.75A34.43,34.43,0,0,1,231.67,669a34.8,34.8,0,0,1-4.35,17.64,31,31,0,0,1-11.8,11.8A34.11,34.11,0,0,1,198.38,702.62Zm-1-10.44a22.63,22.63,0,0,0,11.36-2.85,20.56,20.56,0,0,0,7.95-8.14A24.84,24.84,0,0,0,219.62,669a24.35,24.35,0,0,0-2.92-12.23,20.68,20.68,0,0,0-7.95-8,23.77,23.77,0,0,0-22.61,0,20.81,20.81,0,0,0-7.95,8A24.46,24.46,0,0,0,175.27,669a25,25,0,0,0,2.92,12.24,20.69,20.69,0,0,0,7.95,8.14A22.43,22.43,0,0,0,197.39,692.18Z" transform="translate(-21.36 -11.55)"></path><path d="M283.23,702.62a35.31,35.31,0,0,1-17.58-4.35,32,32,0,0,1-12.24-12A33.67,33.67,0,0,1,248.94,669a33.26,33.26,0,0,1,4.47-17.33,32.53,32.53,0,0,1,12.17-11.86,35.28,35.28,0,0,1,17.65-4.35,35.69,35.69,0,0,1,17.57,4.29A31.28,31.28,0,0,1,313,651.56a36.49,36.49,0,0,1,0,34.78,31.73,31.73,0,0,1-12.18,11.93A35.3,35.3,0,0,1,283.23,702.62Zm0-10.44a22.63,22.63,0,0,0,11.36-2.85,20.22,20.22,0,0,0,7.89-8.14A25.38,25.38,0,0,0,305.34,669a24.87,24.87,0,0,0-2.86-12.23,20.33,20.33,0,0,0-7.89-8,22.53,22.53,0,0,0-11.36-2.86,22.21,22.21,0,0,0-11.31,2.86,21.38,21.38,0,0,0-7.95,8A24,24,0,0,0,261,669a24.44,24.44,0,0,0,3,12.24,21.24,21.24,0,0,0,7.95,8.14A22.31,22.31,0,0,0,283.23,692.18Z" transform="translate(-21.36 -11.55)"></path><path d="M340.74,701.87V636h11.43v17.89l-1.12-4.47A20.3,20.3,0,0,1,360.24,639q6.47-3.6,15.9-3.6V647a8.88,8.88,0,0,0-1.42-.12h-1.31q-9.57,0-15.15,5.71t-5.59,16.53v32.79Z" transform="translate(-21.36 -11.55)"></path><path d="M424.22,702.62a34.2,34.2,0,0,1-17.08-4.23,30.93,30.93,0,0,1-11.87-11.8A34.8,34.8,0,0,1,390.93,669a34.43,34.43,0,0,1,4.34-17.57,31.15,31.15,0,0,1,11.87-11.75,34.3,34.3,0,0,1,17.08-4.22,30.88,30.88,0,0,1,15.28,3.73,26.43,26.43,0,0,1,10.62,11.18Q454,657.77,454,669t-4,18.64a27.79,27.79,0,0,1-10.75,11.24A30,30,0,0,1,424.22,702.62Zm1-10.44a22.45,22.45,0,0,0,11.25-2.85,20.69,20.69,0,0,0,8-8.14A25,25,0,0,0,447.33,669a24.46,24.46,0,0,0-2.92-12.23,20.81,20.81,0,0,0-8-8,23.65,23.65,0,0,0-22.55,0,21.38,21.38,0,0,0-8,8A24,24,0,0,0,403,669a24.44,24.44,0,0,0,3,12.24,21.24,21.24,0,0,0,8,8.14A22.3,22.3,0,0,0,425.21,692.18Zm22,33.79V684.36l1.24-15.28-.74-15.28V636h11.43V726Z" transform="translate(-21.36 -11.55)"></path><path d="M516.27,702.62a33.66,33.66,0,0,1-14.85-3.11,22.23,22.23,0,0,1-9.93-9.5q-3.54-6.4-3.54-16.09V636h11.92v36.52q0,9.71,4.66,14.54c3.11,3.23,7.47,4.84,13.11,4.84a21.89,21.89,0,0,0,10.8-2.54,17,17,0,0,0,7.08-7.46A25.94,25.94,0,0,0,538,670.07V636h11.92v65.84h-11.3V684.11l1.86,4.72A23,23,0,0,1,530.8,699,29.32,29.32,0,0,1,516.27,702.62Z" transform="translate(-21.36 -11.55)"></path><path d="M608.82,702.62a38.37,38.37,0,0,1-18.58-4.35,31.3,31.3,0,0,1-12.42-11.93A33.91,33.91,0,0,1,573.41,669a34.68,34.68,0,0,1,4.29-17.39,30.84,30.84,0,0,1,11.8-11.86,35.79,35.79,0,0,1,33.85-.07,29.91,29.91,0,0,1,11.49,11.87A36.75,36.75,0,0,1,639,669.33c0,.49,0,1.07-.06,1.73s-.1,1.29-.19,1.87h-56v-8.57h49.81l-4.84,3A22.21,22.21,0,0,0,625.09,656a19.9,19.9,0,0,0-7.52-7.76,23.34,23.34,0,0,0-22.17,0,19.64,19.64,0,0,0-7.58,7.83,23.68,23.68,0,0,0-2.73,11.49v2a22.62,22.62,0,0,0,3,11.74,21,21,0,0,0,8.51,8,26.78,26.78,0,0,0,12.55,2.85,27.52,27.52,0,0,0,10.62-2,23.42,23.42,0,0,0,8.39-6l6.58,7.7a28.8,28.8,0,0,1-11.12,8A38.54,38.54,0,0,1,608.82,702.62Z" transform="translate(-21.36 -11.55)"></path><path d="M719.87,701.87,691.05,636h12.43l25.59,59.63h-6L749.19,636h11.68l-28.82,65.84Z" transform="translate(-21.36 -11.55)"></path><path d="M784.84,623.36a8,8,0,0,1-5.78-2.23,7.36,7.36,0,0,1-2.29-5.47,7.47,7.47,0,0,1,2.29-5.59,8,8,0,0,1,5.78-2.24,8.1,8.1,0,0,1,5.78,2.18,7.14,7.14,0,0,1,2.3,5.4,7.77,7.77,0,0,1-8.08,8Zm-6,78.51V636H790.8v65.84Z" transform="translate(-21.36 -11.55)"></path><path d="M837.64,701.87,808.82,636h12.42l25.59,59.63h-6L867,636h11.68l-28.82,65.84Z" transform="translate(-21.36 -11.55)"></path><path d="M924.1,702.62a38.37,38.37,0,0,1-18.58-4.35,31.3,31.3,0,0,1-12.42-11.93A33.91,33.91,0,0,1,888.69,669,34.68,34.68,0,0,1,893,651.56a30.84,30.84,0,0,1,11.8-11.86,35.79,35.79,0,0,1,33.85-.07,29.91,29.91,0,0,1,11.49,11.87,36.75,36.75,0,0,1,4.16,17.83c0,.49,0,1.07-.06,1.73s-.1,1.29-.19,1.87H898v-8.57h49.81l-4.84,3A22.21,22.21,0,0,0,940.37,656a19.9,19.9,0,0,0-7.52-7.76,23.34,23.34,0,0,0-22.17,0,19.64,19.64,0,0,0-7.58,7.83,23.68,23.68,0,0,0-2.73,11.49v2a22.62,22.62,0,0,0,3,11.74,21,21,0,0,0,8.51,8,26.75,26.75,0,0,0,12.55,2.85,27.52,27.52,0,0,0,10.62-2,23.42,23.42,0,0,0,8.39-6l6.58,7.7a28.8,28.8,0,0,1-11.12,8A38.54,38.54,0,0,1,924.1,702.62Z" transform="translate(-21.36 -11.55)"></path><path d="M1060,635.41a30.49,30.49,0,0,1,14,3.11,22,22,0,0,1,9.5,9.44q3.42,6.33,3.42,16v37.89H1075V665.35q0-9.57-4.47-14.41T1058,646.1a21.09,21.09,0,0,0-10.43,2.48,16.67,16.67,0,0,0-6.9,7.33,26.88,26.88,0,0,0-2.42,12.05v33.91h-11.93V665.35q0-9.57-4.41-14.41t-12.61-4.84A20.86,20.86,0,0,0,999,648.58a17,17,0,0,0-7,7.33A26.2,26.2,0,0,0,989.56,668v33.91H977.64V636h11.43v17.52l-1.87-4.47A22.48,22.48,0,0,1,996.77,639a30.33,30.33,0,0,1,15-3.6,28.14,28.14,0,0,1,16.27,4.66q6.84,4.66,9,14.1l-4.85-2A24.75,24.75,0,0,1,1042.61,640,32.48,32.48,0,0,1,1060,635.41Z" transform="translate(-21.36 -11.55)"></path><path d="M1144,702.62a35.3,35.3,0,0,1-17.57-4.35,32,32,0,0,1-12.24-12,33.67,33.67,0,0,1-4.47-17.33,33.26,33.26,0,0,1,4.47-17.33,32.53,32.53,0,0,1,12.17-11.86,35.27,35.27,0,0,1,17.64-4.35,35.73,35.73,0,0,1,17.58,4.29,31.28,31.28,0,0,1,12.18,11.86,36.49,36.49,0,0,1,0,34.78,31.73,31.73,0,0,1-12.18,11.93A35.34,35.34,0,0,1,1144,702.62Zm0-10.44a22.64,22.64,0,0,0,11.37-2.85,20.28,20.28,0,0,0,7.89-8.14,25.38,25.38,0,0,0,2.86-12.24,24.87,24.87,0,0,0-2.86-12.23,20.4,20.4,0,0,0-7.89-8,22.54,22.54,0,0,0-11.37-2.86,22.2,22.2,0,0,0-11.3,2.86,21.38,21.38,0,0,0-8,8,24,24,0,0,0-3,12.23,24.44,24.44,0,0,0,3,12.24,21.24,21.24,0,0,0,8,8.14A22.3,22.3,0,0,0,1144,692.18Z" transform="translate(-21.36 -11.55)"></path><path d="M1220.37,702.62a53.62,53.62,0,0,1-15.59-2.24,36.54,36.54,0,0,1-11.61-5.46l5-9.45a40.3,40.3,0,0,0,10.43,4.85,41.46,41.46,0,0,0,12.67,2q8.33,0,12-2.36a7.43,7.43,0,0,0,3.66-6.59,5.78,5.78,0,0,0-2.23-4.84,15.26,15.26,0,0,0-5.9-2.61q-3.67-.87-8.14-1.55t-8.94-1.74a36,36,0,0,1-8.2-3,15.51,15.51,0,0,1-6-5.35c-1.49-2.27-2.23-5.32-2.23-9.13a16.94,16.94,0,0,1,3.35-10.43,21.35,21.35,0,0,1,9.51-6.9,39.8,39.8,0,0,1,14.59-2.42,57.76,57.76,0,0,1,13.11,1.55,32.59,32.59,0,0,1,10.87,4.42l-5.09,9.44a28.07,28.07,0,0,0-9.32-4.1,42.71,42.71,0,0,0-9.69-1.12q-7.83,0-11.68,2.54t-3.85,6.53a6.14,6.14,0,0,0,2.3,5.15,16.6,16.6,0,0,0,6,2.8,73.16,73.16,0,0,0,8.14,1.67q4.47.69,8.94,1.74a36.69,36.69,0,0,1,8.14,2.92,15.82,15.82,0,0,1,6,5.22,15.6,15.6,0,0,1,2.3,9,16,16,0,0,1-3.48,10.31,22.63,22.63,0,0,1-9.81,6.77A42.62,42.62,0,0,1,1220.37,702.62Z" transform="translate(-21.36 -11.55)"></path><path d="M1330.06,702.62a31.06,31.06,0,0,1-12.86-2.49,19.71,19.71,0,0,1-8.51-6.89,17.51,17.51,0,0,1-3-10,18.8,18.8,0,0,1,2.55-9.69,17.64,17.64,0,0,1,8.32-7q5.78-2.61,15.59-2.61H1353v8.57h-20.37q-8.94,0-12.05,3a9.61,9.61,0,0,0-3.11,7.2,9.28,9.28,0,0,0,3.86,7.77q3.84,2.91,10.68,2.92a22.6,22.6,0,0,0,11.74-3,17,17,0,0,0,7.27-8.69l2.36,8.2a18.54,18.54,0,0,1-8.33,9.25Q1339.13,702.62,1330.06,702.62Zm21.62-.75V688l-.62-2.61V661.62c0-5-1.48-9-4.41-11.74s-7.36-4.16-13.23-4.16a34.91,34.91,0,0,0-11.43,1.93,29.31,29.31,0,0,0-9.44,5.15l-5-8.94a36,36,0,0,1,12.23-6.27,51.09,51.09,0,0,1,15-2.18q13.54,0,20.87,6.59t7.33,20.12v39.75Z" transform="translate(-21.36 -11.55)"></path><path d="M1451.43,702.62a31,31,0,0,1-12.86-2.49,19.65,19.65,0,0,1-8.51-6.89,17.44,17.44,0,0,1-3-10,18.8,18.8,0,0,1,2.55-9.69,17.6,17.6,0,0,1,8.32-7q5.77-2.61,15.59-2.61h20.87v8.57H1454q-9,0-12,3a9.61,9.61,0,0,0-3.11,7.2,9.27,9.27,0,0,0,3.85,7.77q3.86,2.91,10.69,2.92a22.54,22.54,0,0,0,11.73-3,16.89,16.89,0,0,0,7.27-8.69l2.36,8.2a18.52,18.52,0,0,1-8.32,9.25Q1460.49,702.62,1451.43,702.62Zm21.61-.75V688l-.62-2.61V661.62q0-7.57-4.41-11.74t-13.23-4.16a35,35,0,0,0-11.43,1.93,29.52,29.52,0,0,0-9.44,5.15l-5-8.94a36.12,36.12,0,0,1,12.24-6.27,51.09,51.09,0,0,1,15-2.18q13.53,0,20.87,6.59t7.33,20.12v39.75Z" transform="translate(-21.36 -11.55)"></path><path d="M1540.5,702.62a34.2,34.2,0,0,1-17.08-4.23,30.86,30.86,0,0,1-11.87-11.8,34.8,34.8,0,0,1-4.34-17.64,34.43,34.43,0,0,1,4.34-17.57,31.08,31.08,0,0,1,11.87-11.75,34.3,34.3,0,0,1,17.08-4.22,30.38,30.38,0,0,1,15,3.73,27.17,27.17,0,0,1,10.74,11.18q4,7.45,4,18.63t-3.91,18.64a26.94,26.94,0,0,1-10.62,11.24A30.52,30.52,0,0,1,1540.5,702.62Zm1-10.44a22.39,22.39,0,0,0,11.24-2.85,20.56,20.56,0,0,0,8-8.14A24.84,24.84,0,0,0,1563.6,669a24.35,24.35,0,0,0-2.92-12.23,20.68,20.68,0,0,0-8-8,23.63,23.63,0,0,0-22.54,0,21.23,21.23,0,0,0-8,8,24,24,0,0,0-3,12.23,24.45,24.45,0,0,0,3,12.24,21.1,21.1,0,0,0,8,8.14A22.3,22.3,0,0,0,1541.49,692.18Zm22.49,9.69V684.11l.74-15.28-1.24-15.28V609.7h11.92v92.17Z" transform="translate(-21.36 -11.55)"></path><path d="M1633,702.62a35.3,35.3,0,0,1-17.57-4.35,32,32,0,0,1-12.24-12,33.67,33.67,0,0,1-4.47-17.33,33.26,33.26,0,0,1,4.47-17.33,32.53,32.53,0,0,1,12.17-11.86,35.27,35.27,0,0,1,17.64-4.35,35.73,35.73,0,0,1,17.58,4.29,31.28,31.28,0,0,1,12.18,11.86,36.49,36.49,0,0,1,0,34.78,31.73,31.73,0,0,1-12.18,11.93A35.34,35.34,0,0,1,1633,702.62Zm0-10.44a22.64,22.64,0,0,0,11.37-2.85,20.28,20.28,0,0,0,7.89-8.14,25.38,25.38,0,0,0,2.86-12.24,24.87,24.87,0,0,0-2.86-12.23,20.4,20.4,0,0,0-7.89-8,22.54,22.54,0,0,0-11.37-2.86,22.2,22.2,0,0,0-11.3,2.86,21.38,21.38,0,0,0-8,8,24,24,0,0,0-3,12.23,24.44,24.44,0,0,0,3,12.24,21.24,21.24,0,0,0,8,8.14A22.3,22.3,0,0,0,1633,692.18Z" transform="translate(-21.36 -11.55)"></path><path d="M1690.56,701.87V609.7h11.93v92.17Z" transform="translate(-21.36 -11.55)"></path><path d="M1761.37,702.62a38.31,38.31,0,0,1-18.57-4.35,31.26,31.26,0,0,1-12.43-11.93A33.91,33.91,0,0,1,1726,669a34.68,34.68,0,0,1,4.29-17.39,30.91,30.91,0,0,1,11.8-11.86,35.79,35.79,0,0,1,33.85-.07,29.91,29.91,0,0,1,11.49,11.87,36.64,36.64,0,0,1,4.16,17.83c0,.49,0,1.07-.06,1.73s-.1,1.29-.18,1.87h-56v-8.57h49.81l-4.84,3a22.21,22.21,0,0,0-2.61-11.31,20,20,0,0,0-7.51-7.76,23.36,23.36,0,0,0-22.18,0,19.64,19.64,0,0,0-7.58,7.83,23.68,23.68,0,0,0-2.73,11.49v2a22.62,22.62,0,0,0,3,11.74,21,21,0,0,0,8.51,8,26.78,26.78,0,0,0,12.55,2.85,27.52,27.52,0,0,0,10.62-2,23.42,23.42,0,0,0,8.39-6l6.58,7.7a28.8,28.8,0,0,1-11.12,8A38.54,38.54,0,0,1,1761.37,702.62Z" transform="translate(-21.36 -11.55)"></path><path d="M1833.79,702.62a53.57,53.57,0,0,1-15.59-2.24,36.71,36.71,0,0,1-11.62-5.46l5-9.45a40.53,40.53,0,0,0,10.44,4.85,41.46,41.46,0,0,0,12.67,2q8.33,0,12-2.36a7.43,7.43,0,0,0,3.66-6.59,5.78,5.78,0,0,0-2.23-4.84,15.26,15.26,0,0,0-5.9-2.61q-3.67-.87-8.14-1.55t-9-1.74a35.94,35.94,0,0,1-8.19-3,15.51,15.51,0,0,1-6-5.35c-1.49-2.27-2.23-5.32-2.23-9.13a16.88,16.88,0,0,1,3.35-10.43,21.38,21.38,0,0,1,9.5-6.9,39.9,39.9,0,0,1,14.6-2.42,57.76,57.76,0,0,1,13.11,1.55,32.59,32.59,0,0,1,10.87,4.42l-5.1,9.44a27.94,27.94,0,0,0-9.31-4.1,42.71,42.71,0,0,0-9.69-1.12q-7.83,0-11.68,2.54t-3.85,6.53a6.14,6.14,0,0,0,2.3,5.15,16.6,16.6,0,0,0,6,2.8,72.69,72.69,0,0,0,8.14,1.67q4.47.69,8.94,1.74A36.88,36.88,0,0,1,1854,669a15.82,15.82,0,0,1,6,5.22,15.6,15.6,0,0,1,2.3,9,16,16,0,0,1-3.48,10.31,22.63,22.63,0,0,1-9.81,6.77A42.62,42.62,0,0,1,1833.79,702.62Z" transform="translate(-21.36 -11.55)"></path><path d="M1912.67,702.62a36.55,36.55,0,0,1-18-4.35,31.94,31.94,0,0,1-12.36-11.93,36.06,36.06,0,0,1,0-34.78,31.49,31.49,0,0,1,12.36-11.86,37,37,0,0,1,18-4.29,35,35,0,0,1,16,3.54,25.15,25.15,0,0,1,10.87,10.5l-9.07,5.84a20.33,20.33,0,0,0-7.89-7.15,22.34,22.34,0,0,0-10-2.29,23.12,23.12,0,0,0-11.55,2.86,21.07,21.07,0,0,0-8.08,8,24,24,0,0,0-3,12.23,24.36,24.36,0,0,0,3,12.3,21,21,0,0,0,8.08,8.08,23.21,23.21,0,0,0,11.55,2.85,22.21,22.21,0,0,0,10-2.3,20.22,20.22,0,0,0,7.89-7.14l9.07,5.72A26.11,26.11,0,0,1,1928.64,699,33.91,33.91,0,0,1,1912.67,702.62Z" transform="translate(-21.36 -11.55)"></path><path d="M1990.07,702.62a38.37,38.37,0,0,1-18.58-4.35,31.3,31.3,0,0,1-12.42-11.93,33.91,33.91,0,0,1-4.41-17.39,34.68,34.68,0,0,1,4.29-17.39,30.84,30.84,0,0,1,11.8-11.86,35.79,35.79,0,0,1,33.85-.07,29.91,29.91,0,0,1,11.49,11.87,36.64,36.64,0,0,1,4.16,17.83c0,.49,0,1.07-.06,1.73s-.1,1.29-.19,1.87h-56v-8.57h49.81l-4.84,3a22.21,22.21,0,0,0-2.61-11.31,19.9,19.9,0,0,0-7.52-7.76,23.34,23.34,0,0,0-22.17,0,19.64,19.64,0,0,0-7.58,7.83,23.68,23.68,0,0,0-2.73,11.49v2a22.62,22.62,0,0,0,3,11.74,21,21,0,0,0,8.51,8,26.78,26.78,0,0,0,12.55,2.85,27.52,27.52,0,0,0,10.62-2,23.42,23.42,0,0,0,8.39-6l6.58,7.7a28.8,28.8,0,0,1-11.12,8A38.54,38.54,0,0,1,1990.07,702.62Zm-24.73-76.15,16.53-16.15h11.43l16.52,16.15H1999l-16.4-13.67h9.94l-16.4,13.67Z" transform="translate(-21.36 -11.55)"></path><path d="M2078.76,635.41a31.19,31.19,0,0,1,14.23,3.11,22.29,22.29,0,0,1,9.62,9.44q3.48,6.33,3.48,16v37.89h-11.92V665.35q0-9.57-4.66-14.41t-13.11-4.84a23.33,23.33,0,0,0-11.05,2.48,17,17,0,0,0-7.27,7.33,25.68,25.68,0,0,0-2.55,12.05v33.91h-11.92V636H2055V653.8l-1.87-4.72a22.91,22.91,0,0,1,9.94-10.07A32.6,32.6,0,0,1,2078.76,635.41Z" transform="translate(-21.36 -11.55)"></path><path d="M2163.73,702.62a36.55,36.55,0,0,1-17.95-4.35,31.94,31.94,0,0,1-12.36-11.93,36.06,36.06,0,0,1,0-34.78,31.49,31.49,0,0,1,12.36-11.86,37,37,0,0,1,17.95-4.29,35,35,0,0,1,16,3.54,25.15,25.15,0,0,1,10.87,10.5l-9.07,5.84a20.4,20.4,0,0,0-7.89-7.15,22.34,22.34,0,0,0-10-2.29,23.12,23.12,0,0,0-11.55,2.86,21.07,21.07,0,0,0-8.08,8,24,24,0,0,0-3,12.23,24.36,24.36,0,0,0,3,12.3,21,21,0,0,0,8.08,8.08,23.21,23.21,0,0,0,11.55,2.85,22.21,22.21,0,0,0,10-2.3,20.29,20.29,0,0,0,7.89-7.14l9.07,5.72A26.11,26.11,0,0,1,2179.7,699,33.91,33.91,0,0,1,2163.73,702.62Z" transform="translate(-21.36 -11.55)"></path><path d="M2217.9,623.36a8,8,0,0,1-5.78-2.23,7.37,7.37,0,0,1-2.3-5.47,7.48,7.48,0,0,1,2.3-5.59,8,8,0,0,1,5.78-2.24,8.07,8.07,0,0,1,5.77,2.18,7.14,7.14,0,0,1,2.3,5.4,7.76,7.76,0,0,1-8.07,8Zm-6,78.51V636h11.93v65.84Z" transform="translate(-21.36 -11.55)"></path><path d="M2272.68,702.62a31,31,0,0,1-12.86-2.49,19.65,19.65,0,0,1-8.51-6.89,17.44,17.44,0,0,1-3-10,18.8,18.8,0,0,1,2.55-9.69,17.6,17.6,0,0,1,8.32-7Q2265,664,2274.79,664h20.87v8.57h-20.37q-9,0-12.05,3a9.61,9.61,0,0,0-3.11,7.2,9.29,9.29,0,0,0,3.85,7.77q3.86,2.91,10.69,2.92a22.6,22.6,0,0,0,11.74-3,16.92,16.92,0,0,0,7.26-8.69L2296,690a18.52,18.52,0,0,1-8.32,9.25Q2281.74,702.62,2272.68,702.62Zm21.61-.75V688l-.62-2.61V661.62q0-7.57-4.41-11.74T2276,645.72a35,35,0,0,0-11.43,1.93,29.52,29.52,0,0,0-9.44,5.15l-5-8.94a36.12,36.12,0,0,1,12.24-6.27,51.09,51.09,0,0,1,15-2.18q13.53,0,20.87,6.59t7.33,20.12v39.75Z" transform="translate(-21.36 -11.55)"></path><path d="M409.62,851.69a36.57,36.57,0,0,1-17.95-4.35,32,32,0,0,1-12.36-11.92,36.08,36.08,0,0,1,0-34.79,31.56,31.56,0,0,1,12.36-11.86,37,37,0,0,1,17.95-4.29,35,35,0,0,1,16,3.54,25.1,25.1,0,0,1,10.87,10.5l-9.07,5.84a20.22,20.22,0,0,0-7.89-7.14,22.31,22.31,0,0,0-10-2.3A23.12,23.12,0,0,0,398,797.78a21.07,21.07,0,0,0-8.08,8,24.06,24.06,0,0,0-3,12.23,24.46,24.46,0,0,0,3,12.3A21,21,0,0,0,398,838.4a23.21,23.21,0,0,0,11.55,2.85,22.3,22.3,0,0,0,10-2.29,20.33,20.33,0,0,0,7.89-7.15l9.07,5.72A26.14,26.14,0,0,1,425.59,848,34,34,0,0,1,409.62,851.69Z" transform="translate(-21.36 -11.55)"></path><path d="M485.9,851.69a35.36,35.36,0,0,1-17.58-4.35,32.08,32.08,0,0,1-12.23-12A33.57,33.57,0,0,1,451.61,818a33.13,33.13,0,0,1,4.48-17.32,32.48,32.48,0,0,1,12.17-11.87,35.22,35.22,0,0,1,17.64-4.35,35.76,35.76,0,0,1,17.58,4.29,31.39,31.39,0,0,1,12.17,11.86,36.51,36.51,0,0,1,0,34.79,31.82,31.82,0,0,1-12.17,11.92A35.36,35.36,0,0,1,485.9,851.69Zm0-10.44a22.69,22.69,0,0,0,11.37-2.85,20.2,20.2,0,0,0,7.88-8.14A25.26,25.26,0,0,0,508,818a24.76,24.76,0,0,0-2.86-12.23,20.31,20.31,0,0,0-7.88-8,22.59,22.59,0,0,0-11.37-2.86,22.2,22.2,0,0,0-11.3,2.86,21.33,21.33,0,0,0-8,8,24.06,24.06,0,0,0-3,12.23,24.55,24.55,0,0,0,3,12.24,21.19,21.19,0,0,0,8,8.14A22.3,22.3,0,0,0,485.9,841.25Z" transform="translate(-21.36 -11.55)"></path><path d="M625.78,784.48a30.45,30.45,0,0,1,14,3.11,22,22,0,0,1,9.51,9.44q3.4,6.33,3.41,16v37.89H640.81V814.42q0-9.57-4.47-14.41t-12.55-4.84a21.21,21.21,0,0,0-10.44,2.48,16.65,16.65,0,0,0-6.89,7.33A26.75,26.75,0,0,0,604,817v33.91H592.11V814.42q0-9.57-4.41-14.41t-12.61-4.84a20.94,20.94,0,0,0-10.31,2.48,17,17,0,0,0-6.95,7.33,26.2,26.2,0,0,0-2.49,12v33.91H543.42V785.1h11.42v17.52L553,798.15a22.41,22.41,0,0,1,9.57-10.06,30.34,30.34,0,0,1,15-3.61,28.24,28.24,0,0,1,16.27,4.66q6.82,4.67,8.94,14.1l-4.84-2a24.78,24.78,0,0,1,10.43-12.17A32.52,32.52,0,0,1,625.78,784.48Z" transform="translate(-21.36 -11.55)"></path><path d="M709.75,851.69a35.36,35.36,0,0,1-17.58-4.35,32.08,32.08,0,0,1-12.23-12A33.67,33.67,0,0,1,675.47,818a33.22,33.22,0,0,1,4.47-17.32,32.55,32.55,0,0,1,12.17-11.87,35.25,35.25,0,0,1,17.64-4.35,35.76,35.76,0,0,1,17.58,4.29,31.39,31.39,0,0,1,12.17,11.86,36.51,36.51,0,0,1,0,34.79,31.82,31.82,0,0,1-12.17,11.92A35.36,35.36,0,0,1,709.75,851.69Zm0-10.44a22.66,22.66,0,0,0,11.37-2.85,20.28,20.28,0,0,0,7.89-8.14A25.37,25.37,0,0,0,731.86,818,24.87,24.87,0,0,0,729,805.79a20.4,20.4,0,0,0-7.89-8,22.57,22.57,0,0,0-11.37-2.86,22.2,22.2,0,0,0-11.3,2.86,21.23,21.23,0,0,0-8,8,24,24,0,0,0-3,12.23,24.44,24.44,0,0,0,3,12.24,21.1,21.1,0,0,0,8,8.14A22.3,22.3,0,0,0,709.75,841.25Z" transform="translate(-21.36 -11.55)"></path><path d="M836.83,851.69a38.31,38.31,0,0,1-18.57-4.35,31.34,31.34,0,0,1-12.42-11.92,33.94,33.94,0,0,1-4.41-17.4,34.71,34.71,0,0,1,4.29-17.39,30.84,30.84,0,0,1,11.8-11.86,33.58,33.58,0,0,1,17-4.29,33.21,33.21,0,0,1,16.9,4.23,30,30,0,0,1,11.49,11.86A36.75,36.75,0,0,1,867,818.4q0,.74-.06,1.74c0,.66-.11,1.28-.19,1.86h-56v-8.57h49.81l-4.84,3a22.17,22.17,0,0,0-2.61-11.3,19.93,19.93,0,0,0-7.52-7.77,23.34,23.34,0,0,0-22.17,0,19.64,19.64,0,0,0-7.58,7.83,23.68,23.68,0,0,0-2.73,11.49v2a22.6,22.6,0,0,0,3,11.74,20.91,20.91,0,0,0,8.51,8,26.75,26.75,0,0,0,12.55,2.85,27.52,27.52,0,0,0,10.62-2,23.26,23.26,0,0,0,8.38-6L862.8,841a29,29,0,0,1-11.12,8A38.74,38.74,0,0,1,836.83,851.69Z" transform="translate(-21.36 -11.55)"></path><path d="M890.37,850.94V758.77H902.3v92.17Z" transform="translate(-21.36 -11.55)"></path><path d="M951.12,851.69a31.22,31.22,0,0,1-12.86-2.48,19.8,19.8,0,0,1-8.51-6.9,17.49,17.49,0,0,1-3-10,18.8,18.8,0,0,1,2.55-9.69,17.6,17.6,0,0,1,8.32-7q5.77-2.61,15.59-2.61H974.1v8.58H953.73q-8.94,0-12.05,3a9.63,9.63,0,0,0-3.11,7.2,9.29,9.29,0,0,0,3.85,7.77q3.86,2.91,10.69,2.92a22.69,22.69,0,0,0,11.74-3,17,17,0,0,0,7.26-8.7l2.36,8.2a18.47,18.47,0,0,1-8.32,9.25Q960.2,851.69,951.12,851.69Zm21.61-.75V837l-.62-2.61V810.7q0-7.59-4.41-11.74t-13.23-4.17A35,35,0,0,0,943,796.72a29.34,29.34,0,0,0-9.44,5.16l-5-9a36.12,36.12,0,0,1,12.24-6.27,51.09,51.09,0,0,1,15-2.18q13.54,0,20.87,6.59T984,811.19v39.75Z" transform="translate(-21.36 -11.55)"></path><path d="M1080.44,851.69a34.2,34.2,0,0,1-17.08-4.23,30.8,30.8,0,0,1-11.87-11.8,37.8,37.8,0,0,1,0-35.21,31,31,0,0,1,11.87-11.74,34.2,34.2,0,0,1,17.08-4.23,30.38,30.38,0,0,1,15,3.73,27.23,27.23,0,0,1,10.74,11.18q4,7.46,4,18.63t-3.91,18.64a26.82,26.82,0,0,1-10.62,11.24A30.52,30.52,0,0,1,1080.44,851.69Zm1-10.44a22.39,22.39,0,0,0,11.24-2.85,20.56,20.56,0,0,0,7.95-8.14,24.84,24.84,0,0,0,2.92-12.24,24.35,24.35,0,0,0-2.92-12.23,20.68,20.68,0,0,0-7.95-8,23.63,23.63,0,0,0-22.54,0,21.23,21.23,0,0,0-8,8,24,24,0,0,0-3,12.23,24.45,24.45,0,0,0,3,12.24,21.1,21.1,0,0,0,8,8.14A22.3,22.3,0,0,0,1081.43,841.25Zm22.49,9.69V833.18l.74-15.28-1.24-15.28V758.77h11.92v92.17Z" transform="translate(-21.36 -11.55)"></path><path d="M1174.1,851.69a38.31,38.31,0,0,1-18.57-4.35,31.34,31.34,0,0,1-12.42-11.92,33.94,33.94,0,0,1-4.41-17.4,34.81,34.81,0,0,1,4.28-17.39,31,31,0,0,1,11.8-11.86,33.61,33.61,0,0,1,17-4.29,33.21,33.21,0,0,1,16.9,4.23,30,30,0,0,1,11.49,11.86,36.75,36.75,0,0,1,4.16,17.83q0,.74-.06,1.74c0,.66-.11,1.28-.19,1.86h-56v-8.57h49.82l-4.85,3a22,22,0,0,0-2.61-11.3,19.84,19.84,0,0,0-7.51-7.77,23.34,23.34,0,0,0-22.17,0,19.64,19.64,0,0,0-7.58,7.83,23.69,23.69,0,0,0-2.74,11.49v2a22.6,22.6,0,0,0,3.05,11.74,20.91,20.91,0,0,0,8.51,8,26.71,26.71,0,0,0,12.54,2.85,27.54,27.54,0,0,0,10.63-2,23.26,23.26,0,0,0,8.38-6l6.58,7.71a29,29,0,0,1-11.11,8A38.74,38.74,0,0,1,1174.1,851.69Z" transform="translate(-21.36 -11.55)"></path><path d="M1243.67,850.94l-28.82-65.84h12.42l25.59,59.63h-6L1273,785.1h11.67l-28.82,65.84Z" transform="translate(-21.36 -11.55)"></path><path d="M1330.13,851.69a38.31,38.31,0,0,1-18.57-4.35,31.3,31.3,0,0,1-12.43-11.92,33.94,33.94,0,0,1-4.41-17.4,34.71,34.71,0,0,1,4.29-17.39,31,31,0,0,1,11.8-11.86,33.59,33.59,0,0,1,17-4.29,33.17,33.17,0,0,1,16.89,4.23,29.82,29.82,0,0,1,11.49,11.86,36.64,36.64,0,0,1,4.17,17.83c0,.49,0,1.07-.07,1.74s-.1,1.28-.18,1.86h-56v-8.57h49.82l-4.85,3a22.17,22.17,0,0,0-2.61-11.3,19.91,19.91,0,0,0-7.51-7.77,23.36,23.36,0,0,0-22.18,0,19.7,19.7,0,0,0-7.58,7.83,23.68,23.68,0,0,0-2.73,11.49v2a22.6,22.6,0,0,0,3,11.74,20.88,20.88,0,0,0,8.5,8,26.78,26.78,0,0,0,12.55,2.85,27.52,27.52,0,0,0,10.62-2,23.3,23.3,0,0,0,8.39-6l6.58,7.71a29,29,0,0,1-11.12,8A38.73,38.73,0,0,1,1330.13,851.69Z" transform="translate(-21.36 -11.55)"></path><path d="M1442.8,851.69a53.57,53.57,0,0,1-15.59-2.24,36.71,36.71,0,0,1-11.62-5.46l5-9.44a43.86,43.86,0,0,0,23.11,6.83q8.32,0,12-2.36a7.43,7.43,0,0,0,3.66-6.59,5.79,5.79,0,0,0-2.23-4.84,15.26,15.26,0,0,0-5.9-2.61q-3.68-.87-8.14-1.55t-9-1.74a35.48,35.48,0,0,1-8.19-3,15.57,15.57,0,0,1-6-5.34q-2.24-3.42-2.23-9.14a16.88,16.88,0,0,1,3.35-10.43,21.23,21.23,0,0,1,9.5-6.89,39.68,39.68,0,0,1,14.6-2.43,57.29,57.29,0,0,1,13.11,1.56,32.38,32.38,0,0,1,10.87,4.41l-5.1,9.44a27.94,27.94,0,0,0-9.31-4.1,42.71,42.71,0,0,0-9.69-1.12q-7.83,0-11.68,2.55a7.57,7.57,0,0,0-3.85,6.52,6.14,6.14,0,0,0,2.3,5.15,16.43,16.43,0,0,0,6,2.8,74.9,74.9,0,0,0,8.14,1.68q4.47.68,8.94,1.74A36.36,36.36,0,0,1,1463,818a15.9,15.9,0,0,1,6,5.22,15.6,15.6,0,0,1,2.3,9,16,16,0,0,1-3.48,10.31,22.55,22.55,0,0,1-9.81,6.77A42.62,42.62,0,0,1,1442.8,851.69Z" transform="translate(-21.36 -11.55)"></path><path d="M1522.3,851.69a38.31,38.31,0,0,1-18.57-4.35,31.34,31.34,0,0,1-12.42-11.92,33.94,33.94,0,0,1-4.41-17.4,34.71,34.71,0,0,1,4.29-17.39,30.91,30.91,0,0,1,11.8-11.86,33.58,33.58,0,0,1,17-4.29,33.21,33.21,0,0,1,16.9,4.23,30,30,0,0,1,11.49,11.86,36.75,36.75,0,0,1,4.16,17.83q0,.74-.06,1.74c0,.66-.11,1.28-.19,1.86h-56v-8.57H1546l-4.84,3a22.17,22.17,0,0,0-2.61-11.3,19.93,19.93,0,0,0-7.52-7.77,23.34,23.34,0,0,0-22.17,0,19.64,19.64,0,0,0-7.58,7.83,23.68,23.68,0,0,0-2.73,11.49v2a22.6,22.6,0,0,0,3,11.74,21,21,0,0,0,8.51,8,26.75,26.75,0,0,0,12.55,2.85,27.52,27.52,0,0,0,10.62-2,23.18,23.18,0,0,0,8.38-6l6.59,7.71a29,29,0,0,1-11.12,8A38.74,38.74,0,0,1,1522.3,851.69Z" transform="translate(-21.36 -11.55)"></path><path d="M1575.84,850.94V785.1h11.43V803l-1.11-4.47a20.2,20.2,0,0,1,9.19-10.43q6.45-3.6,15.9-3.61V796a9.15,9.15,0,0,0-1.43-.13h-1.3q-9.57,0-15.16,5.72t-5.59,16.52v32.79Z" transform="translate(-21.36 -11.55)"></path><path d="M1691.12,850.94,1662.3,785.1h12.43l25.59,59.63h-6l26.09-59.63h11.68l-28.82,65.84Z" transform="translate(-21.36 -11.55)"></path><path d="M1756.09,772.43a7.93,7.93,0,0,1-5.77-2.23,7.3,7.3,0,0,1-2.3-5.47,7.46,7.46,0,0,1,2.3-5.59,7.93,7.93,0,0,1,5.77-2.24,8.1,8.1,0,0,1,5.78,2.18,7.14,7.14,0,0,1,2.3,5.4,7.77,7.77,0,0,1-8.08,7.95Zm-6,78.51V785.1h11.92v65.84Z" transform="translate(-21.36 -11.55)"></path><path d="M1808.89,850.94l-28.82-65.84h12.42l25.59,59.63h-6l26.08-59.63h11.68l-28.82,65.84Z" transform="translate(-21.36 -11.55)"></path><path d="M1873.86,772.43a8,8,0,0,1-5.78-2.23,7.3,7.3,0,0,1-2.3-5.47,7.46,7.46,0,0,1,2.3-5.59,8,8,0,0,1,5.78-2.24,8.07,8.07,0,0,1,5.77,2.18,7.14,7.14,0,0,1,2.3,5.4,7.76,7.76,0,0,1-8.07,7.95Zm-6,78.51V785.1h11.93v65.84Z" transform="translate(-21.36 -11.55)"></path><path d="M1936.59,851.69a34.2,34.2,0,0,1-17.08-4.23,30.86,30.86,0,0,1-11.87-11.8,37.88,37.88,0,0,1,0-35.21,31.05,31.05,0,0,1,11.87-11.74,34.2,34.2,0,0,1,17.08-4.23,30.35,30.35,0,0,1,15,3.73,27.32,27.32,0,0,1,10.75,11.18q4,7.46,4,18.63t-3.91,18.64a26.82,26.82,0,0,1-10.62,11.24A30.49,30.49,0,0,1,1936.59,851.69Zm1-10.44a22.39,22.39,0,0,0,11.24-2.85,20.56,20.56,0,0,0,8-8.14,24.84,24.84,0,0,0,2.92-12.24,24.35,24.35,0,0,0-2.92-12.23,20.68,20.68,0,0,0-8-8,23.63,23.63,0,0,0-22.54,0,21.23,21.23,0,0,0-8,8,24,24,0,0,0-3,12.23,24.44,24.44,0,0,0,3,12.24,21.1,21.1,0,0,0,8,8.14A22.3,22.3,0,0,0,1937.58,841.25Zm22.49,9.69V833.18l.74-15.28-1.24-15.28V758.77h11.93v92.17Z" transform="translate(-21.36 -11.55)"></path><path d="M2020.19,851.69a31.22,31.22,0,0,1-12.86-2.48,19.8,19.8,0,0,1-8.51-6.9,17.49,17.49,0,0,1-3-10,18.8,18.8,0,0,1,2.55-9.69,17.64,17.64,0,0,1,8.32-7q5.77-2.61,15.59-2.61h20.87v8.58H2022.8q-8.94,0-12,3a9.63,9.63,0,0,0-3.11,7.2,9.28,9.28,0,0,0,3.86,7.77q3.84,2.91,10.68,2.92a22.69,22.69,0,0,0,11.74-3,17,17,0,0,0,7.27-8.7l2.36,8.2a18.54,18.54,0,0,1-8.33,9.25Q2029.27,851.69,2020.19,851.69Zm21.62-.75V837l-.62-2.61V810.7c0-5.06-1.48-9-4.41-11.74s-7.36-4.17-13.24-4.17a34.89,34.89,0,0,0-11.42,1.93,29.13,29.13,0,0,0-9.44,5.16l-5-9a36,36,0,0,1,12.23-6.27,51.09,51.09,0,0,1,15-2.18q13.54,0,20.87,6.59t7.33,20.12v39.75Z" transform="translate(-21.36 -11.55)"></path><path d="M2084.91,851.69a8.39,8.39,0,0,1-8.45-8.57A8,8,0,0,1,2079,837a8.35,8.35,0,0,1,6-2.36,8,8,0,0,1,5.78,2.36,8.15,8.15,0,0,1,2.42,6.09,8.37,8.37,0,0,1-2.42,6.15A7.91,7.91,0,0,1,2084.91,851.69Z" transform="translate(-21.36 -11.55)"></path></g></g></svg>