<svg xmlns="http://www.w3.org/2000/svg" viewBox="0 0 1235.45 687.95"><defs><style>.cls-1{fill:#211915;}</style></defs><title>7</title><g id="Camada_2" data-name="Camada 2"><g id="Camada_1-2" data-name="Camada 1"><g id="quer_saber_" data-name="quer saber?"><path class="cls-1" d="M53.87,211.06l-7.31-71.65,8.39-.86,53.4,54L104,193l-6-58.86,10.24-1,7.31,71.65-8.39.86-53.4-54,4.4-.45,6,58.86Z" transform="translate(-46.56 -22.1)"></path><path class="cls-1" d="M164.48,200.39a29.32,29.32,0,0,1-14.85-2.1,26.71,26.71,0,0,1-11.09-8.85,27.91,27.91,0,0,1-5.14-13.9,27.51,27.51,0,0,1,2.23-14.66,26.85,26.85,0,0,1,9-10.8A29.25,29.25,0,0,1,158.83,145a29.59,29.59,0,0,1,14.84,2.06,25.93,25.93,0,0,1,11,8.75,30.22,30.22,0,0,1,2.93,28.66,26.33,26.33,0,0,1-9,10.85A29.22,29.22,0,0,1,164.48,200.39Zm-.88-8.6a18.59,18.59,0,0,0,9.13-3.31,16.77,16.77,0,0,0,5.82-7.36,21,21,0,0,0,1.32-10.33,20.7,20.7,0,0,0-3.38-9.84,16.91,16.91,0,0,0-7.18-5.94,18.72,18.72,0,0,0-9.6-1.4,18.5,18.5,0,0,0-9.08,3.31,17.64,17.64,0,0,0-5.87,7.27,19.84,19.84,0,0,0-1.43,10.33,20.24,20.24,0,0,0,3.48,9.83,17.53,17.53,0,0,0,7.24,6A18.38,18.38,0,0,0,163.6,191.79Z" transform="translate(-46.56 -22.1)"></path><path class="cls-1" d="M232.48,146.19l-.82-8.09,34.6-3.53.82,8.08Zm13.93,45.22-6-59.06q-.81-8,3.36-13.22T256.51,113a24,24,0,0,1,6.17.14,13.34,13.34,0,0,1,5.21,1.9l-2.21,7.78A11.39,11.39,0,0,0,262,121.3a12.55,12.55,0,0,0-4.16-.25c-2.87.29-5,1.32-6.31,3.07s-1.85,4.21-1.53,7.35l.74,7.27.67,4.48,4.82,47.19Zm33-68.74a6.57,6.57,0,0,1-4.95-1.35,6.07,6.07,0,0,1-2.35-4.31,6.17,6.17,0,0,1,1.42-4.8,6.6,6.6,0,0,1,4.57-2.33,6.76,6.76,0,0,1,4.95,1.3,6,6,0,0,1,2.35,4.27,6.42,6.42,0,0,1-6,7.22Zm1.69,65.2-5.54-54.25,9.83-1,5.54,54.26Z" transform="translate(-46.56 -22.1)"></path><path class="cls-1" d="M377.57,122.69a25.25,25.25,0,0,1,11.83,1.38,18.24,18.24,0,0,1,8.63,7q3.35,4.94,4.16,12.92l3.18,31.22-9.82,1-3.07-30.1q-.81-7.87-4.9-11.49t-10.75-2.94a17.55,17.55,0,0,0-8.39,2.92,13.9,13.9,0,0,0-5.06,6.62,22.14,22.14,0,0,0-1,10.14l2.85,27.94-9.83,1-3.07-30.1q-.81-7.87-4.84-11.5t-10.8-2.94a17.29,17.29,0,0,0-8.29,2.92,14.07,14.07,0,0,0-5.11,6.62,21.71,21.71,0,0,0-1,10.14l2.85,27.95-9.82,1-5.54-54.25,9.42-1,1.47,14.43-1.91-3.53a18.59,18.59,0,0,1,7-9.09,25.08,25.08,0,0,1,12.09-4.24,23.4,23.4,0,0,1,13.8,2.47q6,3.27,8.55,10.87l-4.16-1.23a20.52,20.52,0,0,1,7.58-10.91A26.93,26.93,0,0,1,377.57,122.69Z" transform="translate(-46.56 -22.1)"></path><path class="cls-1" d="M426.78,188.31l3-21.2,1.93,5.8a7.05,7.05,0,0,1-5.15-1.34,6.51,6.51,0,0,1-2.51-4.81,6.78,6.78,0,0,1,6.15-7.66,6.25,6.25,0,0,1,5,1.51,7,7,0,0,1,2.35,4.77,12.48,12.48,0,0,1,.05,2,19.25,19.25,0,0,1-.28,2.3c-.15.88-.4,2-.75,3.23l-3.36,14.72Z" transform="translate(-46.56 -22.1)"></path><path class="cls-1" d="M524.83,163l-1.17-11.47-.73-2.1-2-19.55c-.42-4.16-2-7.26-4.62-9.3s-6.41-2.81-11.25-2.32a29,29,0,0,0-9.26,2.55,24.32,24.32,0,0,0-7.34,5l-4.85-6.95a29.81,29.81,0,0,1,9.56-6.2,42.51,42.51,0,0,1,12.15-3q11.15-1.14,17.75,3.67t7.73,16L534.14,162Zm-17.75,2.43a25.66,25.66,0,0,1-10.8-1,16.27,16.27,0,0,1-7.59-5,14.41,14.41,0,0,1-3.3-8,15.53,15.53,0,0,1,1.28-8.2,14.58,14.58,0,0,1,6.27-6.43q4.55-2.64,12.63-3.46l17.2-1.76.72,7.06-16.79,1.72q-7.36.75-9.68,3.47a7.94,7.94,0,0,0-1.95,6.19,7.67,7.67,0,0,0,3.83,6.08c2.27,1.39,5.29,1.89,9,1.51a18.78,18.78,0,0,0,9.43-3.45,14,14,0,0,0,5.25-7.78l2.64,6.56a15.39,15.39,0,0,1-6.08,8.33Q514.55,164.67,507.08,165.43Z" transform="translate(-46.56 -22.1)"></path><path class="cls-1" d="M613.45,151.68A29.59,29.59,0,0,1,599,149.79,27,27,0,0,1,585.46,114a25.19,25.19,0,0,1,8.89-10.16,29.74,29.74,0,0,1,13.74-4.72,28.7,28.7,0,0,1,13,1.52,21.59,21.59,0,0,1,10,7.72q4,5.47,4.93,14.39t-1.93,15a22.26,22.26,0,0,1-8.27,9.68A27.71,27.71,0,0,1,613.45,151.68ZM617,174.27a50.11,50.11,0,0,1-14.69-.62,30.13,30.13,0,0,1-12-4.82l3.94-8.05a27.86,27.86,0,0,0,9.84,4.21,35.54,35.54,0,0,0,11.76.72q9.62-1,13.67-6t3.1-14.17l-1.17-11.47-.07-10.85-1.62-10.8L628.2,97.63l9.32-.95,4.78,46.88q1.47,14.33-5,21.82T617,174.27ZM613.69,143a20.15,20.15,0,0,0,9.4-3.23,17,17,0,0,0,6-6.92,18.9,18.9,0,0,0-1.88-18.42,16.56,16.56,0,0,0-7.23-5.52,20.42,20.42,0,0,0-9.85-1.22,20.78,20.78,0,0,0-9.45,3.19,16.43,16.43,0,0,0-6,6.87,19,19,0,0,0,1.88,18.42,16.89,16.89,0,0,0,7.29,5.57A20.46,20.46,0,0,0,613.69,143Z" transform="translate(-46.56 -22.1)"></path><path class="cls-1" d="M691.63,146.59a31.72,31.72,0,0,1-15.66-2,25.85,25.85,0,0,1-11.24-8.78,28.07,28.07,0,0,1-5.1-14,28.74,28.74,0,0,1,2.07-14.69,25.67,25.67,0,0,1,8.73-10.77,27.86,27.86,0,0,1,13.61-5,27.56,27.56,0,0,1,14.27,2.06,24.74,24.74,0,0,1,10.47,8.81,30.44,30.44,0,0,1,4.93,14.34q.06.61.09,1.44c0,.55,0,1.07,0,1.55l-46.17,4.71-.72-7.06L708,113.07l-3.74,2.86a18.45,18.45,0,0,0-3.1-9.09,16.55,16.55,0,0,0-6.85-5.77A19.33,19.33,0,0,0,676,102.94a16.33,16.33,0,0,0-5.59,7.08,19.64,19.64,0,0,0-1.28,9.7l.16,1.64a18.78,18.78,0,0,0,3.5,9.42,17.26,17.26,0,0,0,7.69,5.88,21.94,21.94,0,0,0,10.57,1.3,22.8,22.8,0,0,0,8.59-2.53,19.33,19.33,0,0,0,6.41-5.62l6.07,5.8a23.92,23.92,0,0,1-8.49,7.48A32,32,0,0,1,691.63,146.59Z" transform="translate(-46.56 -22.1)"></path><path class="cls-1" d="M759.07,83.76a25.72,25.72,0,0,1,12,1.36,18.46,18.46,0,0,1,8.73,7Q783.17,97,784,105l3.19,31.22-9.83,1-3.07-30.09q-.81-7.87-5-11.48T758,92.76a19.46,19.46,0,0,0-8.9,3,14.15,14.15,0,0,0-5.37,6.65,21.21,21.21,0,0,0-1.08,10.15l2.85,27.94-9.83,1-5.54-54.25,9.42-1,1.49,14.64-1.93-3.73A19,19,0,0,1,746.47,88,27.1,27.1,0,0,1,759.07,83.76Z" transform="translate(-46.56 -22.1)"></path><path class="cls-1" d="M798.54,88.42l-.83-8.09,34.6-3.53.82,8.08Zm31.18,44.08q-8.19.84-13.14-3.11t-5.79-12.13l-5.08-49.74,9.83-1,5,49.34c.3,2.94,1.27,5.11,2.89,6.53a8.25,8.25,0,0,0,6.54,1.71,11.63,11.63,0,0,0,7.42-3.34l3.79,6.75a14.34,14.34,0,0,1-5.08,3.41A22.92,22.92,0,0,1,829.72,132.5Z" transform="translate(-46.56 -22.1)"></path><path class="cls-1" d="M881.41,127.22a31.66,31.66,0,0,1-15.67-2,26,26,0,0,1-11.24-8.78,28.16,28.16,0,0,1-5.09-14,28.74,28.74,0,0,1,2.07-14.69A25.65,25.65,0,0,1,860.2,77a29.65,29.65,0,0,1,27.89-2.9,24.86,24.86,0,0,1,10.47,8.81,30.48,30.48,0,0,1,4.93,14.34q.06.61.09,1.44c0,.55,0,1.07,0,1.55L857.42,105l-.72-7.06,41-4.19L894,96.56a18.28,18.28,0,0,0-3.1-9.09,16.52,16.52,0,0,0-6.84-5.77,19.41,19.41,0,0,0-18.27,1.87,16.33,16.33,0,0,0-5.59,7.08,19.53,19.53,0,0,0-1.28,9.7l.16,1.64a18.78,18.78,0,0,0,3.5,9.42,17.28,17.28,0,0,0,7.68,5.88,22,22,0,0,0,10.58,1.3,22.62,22.62,0,0,0,8.59-2.53,19.28,19.28,0,0,0,6.4-5.61l6.08,5.79a24,24,0,0,1-8.49,7.48A32,32,0,0,1,881.41,127.22Z" transform="translate(-46.56 -22.1)"></path><path class="cls-1" d="M1020.91,57a25.38,25.38,0,0,1,11.83,1.38,18.28,18.28,0,0,1,8.62,7q3.35,4.94,4.16,12.92l3.19,31.22-9.83,1-3.07-30.09c-.53-5.26-2.17-9.09-4.89-11.5s-6.32-3.39-10.75-2.94a17.52,17.52,0,0,0-8.39,2.93,13.76,13.76,0,0,0-5.07,6.62,22.36,22.36,0,0,0-1,10.13l2.86,27.95-9.83,1-3.07-30.1q-.81-7.87-4.85-11.5T980,70.1A17.24,17.24,0,0,0,971.76,73a14.07,14.07,0,0,0-5.12,6.63,21.67,21.67,0,0,0-1,10.13l2.85,28-9.83,1L953.1,64.47l9.41-1L964,77.94l-1.92-3.53a18.61,18.61,0,0,1,7-9.09,25.14,25.14,0,0,1,12.08-4.23A23.29,23.29,0,0,1,995,63.56q6,3.25,8.56,10.86l-4.16-1.23A20.54,20.54,0,0,1,1007,62.28,27,27,0,0,1,1020.91,57Z" transform="translate(-46.56 -22.1)"></path><path class="cls-1" d="M1096.68,105.25a31.65,31.65,0,0,1-15.67-2,25.91,25.91,0,0,1-11.24-8.78,28.07,28.07,0,0,1-5.1-14,28.74,28.74,0,0,1,2.07-14.69A25.67,25.67,0,0,1,1075.47,55a29.71,29.71,0,0,1,27.89-2.9A24.72,24.72,0,0,1,1113.82,61a30.29,30.29,0,0,1,4.93,14.33c0,.41.07.89.1,1.44s0,1.07,0,1.55L1072.68,83l-.72-7.06,41-4.19-3.74,2.87a18.38,18.38,0,0,0-3.1-9.1,16.49,16.49,0,0,0-6.85-5.77,19.41,19.41,0,0,0-18.27,1.87,16.28,16.28,0,0,0-5.58,7.09,19.6,19.6,0,0,0-1.29,9.69l.17,1.64a18.77,18.77,0,0,0,3.49,9.42,17.35,17.35,0,0,0,7.69,5.89,22.23,22.23,0,0,0,10.58,1.3,22.81,22.81,0,0,0,8.58-2.54,19.31,19.31,0,0,0,6.41-5.61l6.07,5.79a23.83,23.83,0,0,1-8.49,7.48A32,32,0,0,1,1096.68,105.25Z" transform="translate(-46.56 -22.1)"></path><path class="cls-1" d="M1139,34.94a6.57,6.57,0,0,1-5-1.35,6.45,6.45,0,0,1-.92-9.11,6.54,6.54,0,0,1,4.57-2.33,6.69,6.69,0,0,1,4.94,1.3,5.94,5.94,0,0,1,2.35,4.26,6.42,6.42,0,0,1-6,7.23Zm1.69,65.2-5.53-54.25,9.82-1,5.54,54.25Z" transform="translate(-46.56 -22.1)"></path><path class="cls-1" d="M1198.22,94.89a29.32,29.32,0,0,1-14.85-2.1,26.65,26.65,0,0,1-11.09-8.85,27.92,27.92,0,0,1-5.15-13.9,27.68,27.68,0,0,1,2.23-14.66,27,27,0,0,1,9-10.8,29.21,29.21,0,0,1,14.17-5.07,29.59,29.59,0,0,1,14.84,2.06,25.91,25.91,0,0,1,11,8.75,28.07,28.07,0,0,1,5.1,14,28.19,28.19,0,0,1-2.17,14.7,26.33,26.33,0,0,1-9,10.85A29.22,29.22,0,0,1,1198.22,94.89Zm-.88-8.6a18.73,18.73,0,0,0,9.13-3.31,16.65,16.65,0,0,0,5.81-7.37,20.87,20.87,0,0,0,1.33-10.32,20.6,20.6,0,0,0-3.39-9.84,16.88,16.88,0,0,0-7.17-5.94,18.76,18.76,0,0,0-9.61-1.4,18.46,18.46,0,0,0-9.07,3.31,17.74,17.74,0,0,0-5.88,7.27A20,20,0,0,0,1177.06,69a20.39,20.39,0,0,0,3.49,9.83,17.47,17.47,0,0,0,7.24,6A18.37,18.37,0,0,0,1197.34,86.29Z" transform="translate(-46.56 -22.1)"></path><path class="cls-1" d="M376.73,272.5a28.43,28.43,0,0,1-14.43-2.05,25.55,25.55,0,0,1-10.77-8.72,28.86,28.86,0,0,1-5.06-14.17,28.46,28.46,0,0,1,2.1-14.85A25.77,25.77,0,0,1,357.36,222a28.31,28.31,0,0,1,13.72-4.92,25.5,25.5,0,0,1,12.9,1.79,21.83,21.83,0,0,1,9.69,8.31q3.85,5.82,4.8,15t-1.76,15.69a23,23,0,0,1-7.91,10.17A24.93,24.93,0,0,1,376.73,272.5Zm-.06-8.68a18.45,18.45,0,0,0,9-3.31,17,17,0,0,0,5.87-7.37,20.57,20.57,0,0,0,1.38-10.33A20.18,20.18,0,0,0,389.5,233a17.26,17.26,0,0,0-7.22-5.94,18.69,18.69,0,0,0-9.51-1.41,18.46,18.46,0,0,0-9.07,3.31,17.74,17.74,0,0,0-5.88,7.27,19.85,19.85,0,0,0-1.42,10.33,20.32,20.32,0,0,0,3.48,9.84,17.52,17.52,0,0,0,7.24,6A18.49,18.49,0,0,0,376.67,263.82Zm21,26-3.5-34.29-.26-12.7L392,230.29l-1.49-14.63,9.41-1,7.57,74.11Z" transform="translate(-46.56 -22.1)"></path><path class="cls-1" d="M452.58,264.76a28,28,0,0,1-12.49-1.31,18.42,18.42,0,0,1-9-7q-3.47-5-4.27-13l-3.19-31.22,9.83-1,3.07,30.09q.81,8,5.06,11.59t11.21,2.89a18.16,18.16,0,0,0,8.69-3,14.21,14.21,0,0,0,5.21-6.74,21.4,21.4,0,0,0,1-10l-2.86-28.05,9.83-1,5.54,54.25-9.32.95-1.49-14.64,1.93,3.74a19.13,19.13,0,0,1-7.13,9.21A24.36,24.36,0,0,1,452.58,264.76Z" transform="translate(-46.56 -22.1)"></path><path class="cls-1" d="M528.84,257a31.65,31.65,0,0,1-15.67-2,25.91,25.91,0,0,1-11.24-8.78,28.07,28.07,0,0,1-5.1-14,28.74,28.74,0,0,1,2.07-14.69,25.67,25.67,0,0,1,8.73-10.77,29.64,29.64,0,0,1,27.89-2.9A24.77,24.77,0,0,1,546,212.66,30.37,30.37,0,0,1,550.91,227c0,.41.07.89.1,1.44s0,1.07,0,1.55l-46.17,4.71-.72-7.06,41-4.19-3.74,2.86a18.38,18.38,0,0,0-3.1-9.09,16.49,16.49,0,0,0-6.85-5.77,19.34,19.34,0,0,0-18.27,1.87,16.31,16.31,0,0,0-5.58,7.08,19.64,19.64,0,0,0-1.29,9.7l.17,1.64a18.77,18.77,0,0,0,3.49,9.42,17.26,17.26,0,0,0,7.69,5.88,22,22,0,0,0,10.58,1.3,22.62,22.62,0,0,0,8.58-2.53,19.31,19.31,0,0,0,6.41-5.61l6.07,5.79a23.83,23.83,0,0,1-8.49,7.48A32,32,0,0,1,528.84,257Z" transform="translate(-46.56 -22.1)"></path><path class="cls-1" d="M601.19,269.65a25.85,25.85,0,0,1-6.59-.15,14.72,14.72,0,0,1-5.52-1.92l2.4-7.9a12.12,12.12,0,0,0,8.24,1.75,7.58,7.58,0,0,0,5.75-3q1.85-2.62,1.37-7.33L601,194.17l9.83-1,5.79,56.7q.84,8.3-3.11,13.61T601.19,269.65Zm3.69-86.42a6.61,6.61,0,0,1-5-1.36,6.07,6.07,0,0,1-2.35-4.31,6.18,6.18,0,0,1,1.42-4.8,6.6,6.6,0,0,1,4.57-2.33,6.72,6.72,0,0,1,4.95,1.31,5.89,5.89,0,0,1,2.34,4.26,6.42,6.42,0,0,1-6,7.23Z" transform="translate(-46.56 -22.1)"></path><path class="cls-1" d="M663.65,243.21a27.73,27.73,0,0,1-12.5-1.31,18.39,18.39,0,0,1-9-7q-3.45-5-4.27-13l-3.18-31.22,9.82-1,3.08,30.09q.81,8,5.06,11.59t11.2,2.89a18.2,18.2,0,0,0,8.7-3,14.19,14.19,0,0,0,5.2-6.74,21.52,21.52,0,0,0,1.05-10l-2.86-28,9.83-1,5.53,54.25-9.31.95-1.5-14.64,1.94,3.74a19.19,19.19,0,0,1-7.13,9.21A24.29,24.29,0,0,1,663.65,243.21Z" transform="translate(-46.56 -22.1)"></path><path class="cls-1" d="M739.06,179.56a25.89,25.89,0,0,1,12,1.37,18.44,18.44,0,0,1,8.72,7q3.4,4.92,4.22,12.91L767.17,232l-9.83,1-3.07-30.09q-.79-7.89-5-11.48T738,188.57a19.3,19.3,0,0,0-8.9,3,14.11,14.11,0,0,0-5.38,6.65,21.34,21.34,0,0,0-1.08,10.15l2.85,27.94-9.83,1L710.15,183l9.41-1,1.5,14.64L719.13,193a19,19,0,0,1,7.34-9.13A27,27,0,0,1,739.06,179.56Z" transform="translate(-46.56 -22.1)"></path><path class="cls-1" d="M778.53,184.22l-.82-8.08,34.59-3.53.83,8.08Zm31.18,44.09q-8.19.84-13.14-3.11t-5.79-12.13l-5.07-49.75,9.82-1,5,49.34q.45,4.4,2.89,6.53A8.23,8.23,0,0,0,810,219.9a11.63,11.63,0,0,0,7.41-3.34l3.79,6.75a14.25,14.25,0,0,1-5.08,3.41A22.83,22.83,0,0,1,809.71,228.31Z" transform="translate(-46.56 -22.1)"></path><path class="cls-1" d="M872.71,221.26l-1.17-11.47-.74-2.09-2-19.55q-.64-6.26-4.62-9.31t-11.25-2.31a28.69,28.69,0,0,0-9.26,2.54,24.52,24.52,0,0,0-7.34,5.05l-4.85-7A29.85,29.85,0,0,1,841,171a42.25,42.25,0,0,1,12.16-3.05q11.14-1.14,17.75,3.67t7.73,16L882,220.31ZM855,223.69a25.72,25.72,0,0,1-10.81-1,16.38,16.38,0,0,1-7.59-5,14.55,14.55,0,0,1-3.3-8,15.55,15.55,0,0,1,1.29-8.2,14.57,14.57,0,0,1,6.27-6.43q4.54-2.64,12.63-3.46l17.19-1.76.73,7.07-16.79,1.71q-7.37.75-9.68,3.47a8,8,0,0,0-1.95,6.2,7.64,7.64,0,0,0,3.82,6.07q3.42,2.09,9.05,1.51a18.7,18.7,0,0,0,9.42-3.45,14,14,0,0,0,5.26-7.77l2.64,6.56a15.37,15.37,0,0,1-6.08,8.32Q862.43,222.93,855,223.69Z" transform="translate(-46.56 -22.1)"></path><path class="cls-1" d="M926.54,169.12l-.82-8.09,34.6-3.53.82,8.09Zm31.19,44.08q-8.19.84-13.14-3.1T938.8,198l-5.08-49.74,9.83-1,5,49.34c.3,2.94,1.26,5.11,2.89,6.53A8.29,8.29,0,0,0,958,204.8a11.64,11.64,0,0,0,7.41-3.35l3.79,6.75a14.41,14.41,0,0,1-5.08,3.42A23.18,23.18,0,0,1,957.73,213.2Z" transform="translate(-46.56 -22.1)"></path><path class="cls-1" d="M1008.5,208a29.32,29.32,0,0,1-14.85-2.1,26.65,26.65,0,0,1-11.09-8.85,27.92,27.92,0,0,1-5.15-13.91,27.57,27.57,0,0,1,2.23-14.65,27,27,0,0,1,9-10.8,29.21,29.21,0,0,1,14.17-5.07,29.6,29.6,0,0,1,14.84,2.06,26,26,0,0,1,11,8.75,30.18,30.18,0,0,1,2.92,28.66,26.23,26.23,0,0,1-9,10.85A29.36,29.36,0,0,1,1008.5,208Zm-.88-8.6a18.73,18.73,0,0,0,9.13-3.31,16.65,16.65,0,0,0,5.81-7.37,21,21,0,0,0,1.33-10.32,20.6,20.6,0,0,0-3.39-9.84,16.94,16.94,0,0,0-7.17-5.94,18.76,18.76,0,0,0-9.61-1.4,18.46,18.46,0,0,0-9.07,3.31,17.74,17.74,0,0,0-5.88,7.27,20,20,0,0,0-1.43,10.33,20.29,20.29,0,0,0,3.49,9.83,17.4,17.4,0,0,0,7.24,6A18.37,18.37,0,0,0,1007.62,199.42Z" transform="translate(-46.56 -22.1)"></path><path class="cls-1" d="M1078.31,200.9a28.41,28.41,0,0,1-14.43-2.05,25.56,25.56,0,0,1-10.77-8.72A29,29,0,0,1,1048,176a28.57,28.57,0,0,1,2.11-14.85,25.65,25.65,0,0,1,8.79-10.68,28.3,28.3,0,0,1,13.72-4.91,25,25,0,0,1,12.69,1.81,22.57,22.57,0,0,1,9.8,8.3q3.94,5.81,4.89,15t-1.66,15.68a22.22,22.22,0,0,1-7.8,10.16A25.23,25.23,0,0,1,1078.31,200.9Zm-.06-8.69a18.34,18.34,0,0,0,9-3.3,17,17,0,0,0,5.87-7.37,20.57,20.57,0,0,0,1.38-10.33,20.24,20.24,0,0,0-3.44-9.83,17.26,17.26,0,0,0-7.22-5.94,18.72,18.72,0,0,0-9.51-1.41,18.46,18.46,0,0,0-9.07,3.31,17.74,17.74,0,0,0-5.88,7.27,20,20,0,0,0-1.43,10.33,20.15,20.15,0,0,0,3.49,9.83,17.44,17.44,0,0,0,7.23,6A18.42,18.42,0,0,0,1078.25,192.21Zm19.34,6.1-1.49-14.64-.67-12.65-2.31-12.49-3.69-36.13,9.83-1,7.75,76Z" transform="translate(-46.56 -22.1)"></path><path class="cls-1" d="M1164.94,191.43,1163.77,180l-.73-2.1-2-19.55q-.65-6.24-4.62-9.3t-11.26-2.32a29,29,0,0,0-9.25,2.55,24.49,24.49,0,0,0-7.35,5l-4.84-6.95a29.87,29.87,0,0,1,9.55-6.2,42.51,42.51,0,0,1,12.15-3q11.16-1.14,17.75,3.67t7.74,16l3.34,32.75Zm-17.74,2.44a25.72,25.72,0,0,1-10.81-1,16.32,16.32,0,0,1-7.59-5,14.49,14.49,0,0,1-3.3-8,15.53,15.53,0,0,1,1.29-8.2,14.54,14.54,0,0,1,6.27-6.44q4.55-2.62,12.63-3.46l17.19-1.75.72,7.06-16.78,1.71q-7.38.76-9.68,3.47a8,8,0,0,0-2,6.2,7.66,7.66,0,0,0,3.82,6.08q3.42,2.08,9,1.5a18.6,18.6,0,0,0,9.42-3.44,14,14,0,0,0,5.26-7.78l2.63,6.56a15.34,15.34,0,0,1-6.08,8.33Q1154.67,193.11,1147.2,193.87Z" transform="translate(-46.56 -22.1)"></path><path class="cls-1" d="M1213.73,187.07a44.11,44.11,0,0,1-13-.53,30.5,30.5,0,0,1-10-3.52l3.3-8.2a36.4,36.4,0,0,0,19.62,3.69q6.86-.7,9.68-3a6.13,6.13,0,0,0,2.46-5.73,4.76,4.76,0,0,0-2.25-3.8,12.57,12.57,0,0,0-5.08-1.66q-3.09-.41-6.83-.59c-2.5-.13-5-.35-7.52-.68a29.43,29.43,0,0,1-7-1.77,12.84,12.84,0,0,1-5.37-3.9,13.64,13.64,0,0,1-2.61-7.34,14.06,14.06,0,0,1,1.89-8.88,17.67,17.67,0,0,1,7.25-6.48A32.94,32.94,0,0,1,1210,131.5a47.75,47.75,0,0,1,10.93.18,27,27,0,0,1,9.33,2.71l-3.4,8.21a23.45,23.45,0,0,0-8-2.59,35.85,35.85,0,0,0-8.08-.11q-6.45.66-9.41,3.08a6.31,6.31,0,0,0-2.63,5.7,5.13,5.13,0,0,0,2.33,4.06,13.75,13.75,0,0,0,5.15,1.8,62.48,62.48,0,0,0,6.85.7c2.49.12,5,.35,7.51.68a30,30,0,0,1,7,1.72,13,13,0,0,1,5.35,3.8,12.77,12.77,0,0,1,2.65,7.17,13.26,13.26,0,0,1-2,8.79,18.53,18.53,0,0,1-7.52,6.4A35,35,0,0,1,1213.73,187.07Z" transform="translate(-46.56 -22.1)"></path><path class="cls-1" d="M228.56,381.38a31.61,31.61,0,0,1-15.66-2,25.78,25.78,0,0,1-11.24-8.78,28.07,28.07,0,0,1-5.1-14,28.74,28.74,0,0,1,2.07-14.69,25.67,25.67,0,0,1,8.73-10.77,27.85,27.85,0,0,1,13.61-5,27.56,27.56,0,0,1,14.27,2.05,24.82,24.82,0,0,1,10.47,8.82,30.4,30.4,0,0,1,4.93,14.33q.06.61.09,1.44c0,.55,0,1.07,0,1.55l-46.17,4.72-.72-7.07,41.05-4.19-3.74,2.87a18.48,18.48,0,0,0-3.1-9.1,16.53,16.53,0,0,0-6.85-5.76,19.37,19.37,0,0,0-18.27,1.86,16.3,16.3,0,0,0-5.59,7.09,19.6,19.6,0,0,0-1.28,9.69l.16,1.64a18.78,18.78,0,0,0,3.5,9.42,17.38,17.38,0,0,0,7.68,5.89,22.25,22.25,0,0,0,10.58,1.3,22.8,22.8,0,0,0,8.59-2.54,19.3,19.3,0,0,0,6.41-5.61l6.07,5.79a23.91,23.91,0,0,1-8.49,7.48A32,32,0,0,1,228.56,381.38Z" transform="translate(-46.56 -22.1)"></path><path class="cls-1" d="M288.24,375.29a44.11,44.11,0,0,1-13-.53,30.13,30.13,0,0,1-10-3.52l3.3-8.2a33.72,33.72,0,0,0,9,3.11,34.11,34.11,0,0,0,10.61.58q6.86-.71,9.68-3a6.16,6.16,0,0,0,2.47-5.73,4.81,4.81,0,0,0-2.25-3.8,12.67,12.67,0,0,0-5.09-1.66q-3.09-.4-6.83-.59c-2.5-.13-5-.35-7.52-.68a29.43,29.43,0,0,1-7-1.77,12.84,12.84,0,0,1-5.37-3.9,13.64,13.64,0,0,1-2.61-7.34,14.06,14.06,0,0,1,1.89-8.88,17.67,17.67,0,0,1,7.25-6.48,32.94,32.94,0,0,1,11.82-3.22,47.74,47.74,0,0,1,10.93.18,26.79,26.79,0,0,1,9.33,2.72l-3.4,8.2a23.45,23.45,0,0,0-8-2.59,35.85,35.85,0,0,0-8.08-.11q-6.45.66-9.41,3.08a6.28,6.28,0,0,0-2.62,5.7,5.1,5.1,0,0,0,2.32,4.06,13.82,13.82,0,0,0,5.15,1.8,62.48,62.48,0,0,0,6.85.7c2.49.12,5,.35,7.51.68a29.84,29.84,0,0,1,7,1.72,13.18,13.18,0,0,1,5.36,3.79,12.9,12.9,0,0,1,2.64,7.18,13.2,13.2,0,0,1-2,8.79,18.56,18.56,0,0,1-7.51,6.4A35,35,0,0,1,288.24,375.29Z" transform="translate(-46.56 -22.1)"></path><path class="cls-1" d="M345.15,369.49a44.45,44.45,0,0,1-13-.53,30.35,30.35,0,0,1-10-3.53l3.3-8.2a33.72,33.72,0,0,0,9,3.11,34.13,34.13,0,0,0,10.61.58q6.86-.71,9.68-3a6.16,6.16,0,0,0,2.47-5.73,4.83,4.83,0,0,0-2.25-3.8,12.78,12.78,0,0,0-5.08-1.66c-2.07-.27-4.34-.47-6.84-.59s-5-.35-7.52-.68a29.43,29.43,0,0,1-7-1.77,12.81,12.81,0,0,1-5.36-3.9,13.72,13.72,0,0,1-2.62-7.33,14.08,14.08,0,0,1,1.89-8.89,17.67,17.67,0,0,1,7.25-6.48,32.94,32.94,0,0,1,11.83-3.22,47.76,47.76,0,0,1,10.93.18,26.8,26.8,0,0,1,9.32,2.72l-3.4,8.2a23.38,23.38,0,0,0-8-2.59,35.85,35.85,0,0,0-8.08-.11q-6.45.66-9.41,3.09a6.26,6.26,0,0,0-2.62,5.69,5.11,5.11,0,0,0,2.32,4.06,13.82,13.82,0,0,0,5.15,1.8,62.48,62.48,0,0,0,6.85.7c2.49.12,5,.35,7.51.68a30.05,30.05,0,0,1,7,1.72,13.07,13.07,0,0,1,5.35,3.8A12.84,12.84,0,0,1,367,351a13.2,13.2,0,0,1-2,8.79,18.59,18.59,0,0,1-7.51,6.41A35.46,35.46,0,0,1,345.15,369.49Z" transform="translate(-46.56 -22.1)"></path><path class="cls-1" d="M420.12,361.22,419,349.75l-.73-2.1-2-19.55q-.63-6.24-4.62-9.3t-11.25-2.32A28.91,28.91,0,0,0,391.1,319a24.24,24.24,0,0,0-7.35,5l-4.85-6.95a29.81,29.81,0,0,1,9.56-6.2,42.51,42.51,0,0,1,12.15-3.05q11.16-1.14,17.75,3.67t7.73,16l3.34,32.75Zm-17.75,2.43a25.66,25.66,0,0,1-10.8-1,16.21,16.21,0,0,1-7.59-5,14.35,14.35,0,0,1-3.3-8,15.62,15.62,0,0,1,1.28-8.2,14.6,14.6,0,0,1,6.28-6.43q4.53-2.64,12.62-3.47l17.2-1.75.72,7.06L402,338.66q-7.37.75-9.68,3.47a8,8,0,0,0-1.95,6.19,7.67,7.67,0,0,0,3.83,6.08c2.28,1.39,5.29,1.89,9.05,1.51a18.77,18.77,0,0,0,9.42-3.45,14,14,0,0,0,5.26-7.78l2.63,6.56a15.39,15.39,0,0,1-6.08,8.33Q409.85,362.89,402.37,363.65Z" transform="translate(-46.56 -22.1)"></path><path class="cls-1" d="M468.91,356.86a44.52,44.52,0,0,1-13-.53,30.35,30.35,0,0,1-10-3.53l3.3-8.2a33.67,33.67,0,0,0,9,3.11,34.07,34.07,0,0,0,10.6.58q6.87-.71,9.68-3a6.14,6.14,0,0,0,2.47-5.73,4.78,4.78,0,0,0-2.25-3.8,12.78,12.78,0,0,0-5.08-1.66q-3.09-.4-6.84-.59c-2.49-.13-5-.35-7.51-.68a29.51,29.51,0,0,1-7-1.77,12.87,12.87,0,0,1-5.36-3.9,13.64,13.64,0,0,1-2.61-7.33,14,14,0,0,1,1.88-8.89,17.7,17.7,0,0,1,7.26-6.48,32.94,32.94,0,0,1,11.82-3.22,47.75,47.75,0,0,1,10.93.18,27.08,27.08,0,0,1,9.33,2.72l-3.41,8.2a23.32,23.32,0,0,0-8-2.59,35.85,35.85,0,0,0-8.08-.11q-6.45.66-9.4,3.09a6.26,6.26,0,0,0-2.63,5.69,5.09,5.09,0,0,0,2.33,4.06,13.75,13.75,0,0,0,5.15,1.8,62.29,62.29,0,0,0,6.84.7c2.5.12,5,.35,7.52.68a30.1,30.1,0,0,1,6.95,1.72,13.07,13.07,0,0,1,5.35,3.8,12.91,12.91,0,0,1,2.65,7.17,13.31,13.31,0,0,1-2,8.79,18.69,18.69,0,0,1-7.52,6.41A35.4,35.4,0,0,1,468.91,356.86Z" transform="translate(-46.56 -22.1)"></path><path class="cls-1" d="M541.67,283.44a6.57,6.57,0,0,1-4.95-1.35,6.07,6.07,0,0,1-2.35-4.31,6.2,6.2,0,0,1,1.42-4.8,6.56,6.56,0,0,1,4.58-2.33,6.69,6.69,0,0,1,4.94,1.3,5.94,5.94,0,0,1,2.35,4.26,6.42,6.42,0,0,1-6,7.23Zm1.69,65.2-5.54-54.25,9.83-1,5.54,54.25Z" transform="translate(-46.56 -22.1)"></path><path class="cls-1" d="M600.93,287.43a25.85,25.85,0,0,1,12,1.36,18.46,18.46,0,0,1,8.73,7q3.39,4.94,4.21,12.91L629,339.89l-9.83,1-3.07-30.1q-.81-7.87-5-11.48t-11.21-2.89a19.42,19.42,0,0,0-8.9,3,14,14,0,0,0-5.37,6.65,21.27,21.27,0,0,0-1.09,10.14l2.86,27.95-9.83,1L572,290.9l9.42-1,1.49,14.63L581,300.84a19,19,0,0,1,7.34-9.13A27.06,27.06,0,0,1,600.93,287.43Z" transform="translate(-46.56 -22.1)"></path><path class="cls-1" d="M640.4,292.09l-.83-8.09,34.6-3.53.82,8.09Zm13.92,45.22-6-59.06q-.81-8,3.36-13.22t12.77-6.11a24,24,0,0,1,6.17.14,13.44,13.44,0,0,1,5.21,1.9l-2.21,7.78a11.62,11.62,0,0,0-3.67-1.54,12.82,12.82,0,0,0-4.16-.25c-2.87.3-5,1.32-6.31,3.08s-1.85,4.2-1.53,7.34l.75,7.27.66,4.48,4.82,47.19Zm34.7-3.54-7.75-75.95,9.82-1,7.76,75.95Z" transform="translate(-46.56 -22.1)"></path><path class="cls-1" d="M746.1,328.57a28,28,0,0,1-12.5-1.31,18.39,18.39,0,0,1-9-7q-3.47-5-4.28-13l-3.18-31.22,9.83-1,3.07,30.09q.81,8,5.06,11.59t11.2,2.89a18.2,18.2,0,0,0,8.7-3,14.14,14.14,0,0,0,5.2-6.74,21.52,21.52,0,0,0,1-10l-2.86-28.05,9.83-1,5.53,54.25-9.31.95L763,311.43l1.94,3.74a19.08,19.08,0,0,1-7.13,9.21A24.4,24.4,0,0,1,746.1,328.57Z" transform="translate(-46.56 -22.1)"></path><path class="cls-1" d="M822.35,320.78a31.61,31.61,0,0,1-15.66-2A25.78,25.78,0,0,1,795.45,310a28.07,28.07,0,0,1-5.1-14,28.74,28.74,0,0,1,2.07-14.69,25.67,25.67,0,0,1,8.73-10.77,29.7,29.7,0,0,1,27.88-2.9,24.74,24.74,0,0,1,10.47,8.81,30.48,30.48,0,0,1,4.93,14.34q.06.62.09,1.44c0,.55,0,1.07,0,1.55l-46.17,4.71-.72-7.06,41.05-4.19L835,290.13a18.38,18.38,0,0,0-3.1-9.1,16.53,16.53,0,0,0-6.85-5.76,19.37,19.37,0,0,0-18.27,1.86,16.33,16.33,0,0,0-5.59,7.08,19.66,19.66,0,0,0-1.28,9.7l.17,1.64a18.68,18.68,0,0,0,3.49,9.42,17.35,17.35,0,0,0,7.69,5.89,22.19,22.19,0,0,0,10.57,1.3,22.8,22.8,0,0,0,8.59-2.54,19.3,19.3,0,0,0,6.41-5.61l6.07,5.79a23.82,23.82,0,0,1-8.49,7.48A32,32,0,0,1,822.35,320.78Zm-26.77-60.66,12.26-14.7,9.41-1,15,11.92-8.91.91-14.66-9.89,8.19-.83-12.36,12.64Z" transform="translate(-46.56 -22.1)"></path><path class="cls-1" d="M889.79,258a25.85,25.85,0,0,1,12,1.36,18.46,18.46,0,0,1,8.73,7q3.39,4.94,4.21,12.91l3.19,31.22-9.83,1L905,281.32q-.81-7.87-5-11.48T888.74,267a19.35,19.35,0,0,0-8.9,3,14.1,14.1,0,0,0-5.37,6.65,21.27,21.27,0,0,0-1.09,10.14l2.86,27.95-9.83,1-5.54-54.25,9.42-1,1.49,14.63-1.93-3.73a18.93,18.93,0,0,1,7.35-9.13A27,27,0,0,1,889.79,258Z" transform="translate(-46.56 -22.1)"></path><path class="cls-1" d="M965.46,306.18a30.41,30.41,0,0,1-15.16-2.07,26.53,26.53,0,0,1-11.19-8.79,29.82,29.82,0,0,1-2.92-28.66,26.18,26.18,0,0,1,9.18-10.82,30.83,30.83,0,0,1,14.43-5,29,29,0,0,1,13.46,1.58,20.77,20.77,0,0,1,9.83,7.73l-7,5.58a16.8,16.8,0,0,0-7.1-5.23,18.46,18.46,0,0,0-8.43-1,19.16,19.16,0,0,0-9.28,3.33,17.46,17.46,0,0,0-6,7.28,20,20,0,0,0-1.43,10.33,20.17,20.17,0,0,0,3.49,9.88,17.39,17.39,0,0,0,7.34,6,19.16,19.16,0,0,0,9.76,1.38,18.51,18.51,0,0,0,8-2.73,16.8,16.8,0,0,0,5.9-6.55l8,3.94a21.67,21.67,0,0,1-8.08,9.57A28.07,28.07,0,0,1,965.46,306.18Z" transform="translate(-46.56 -22.1)"></path><path class="cls-1" d="M1003.42,236.32a6.61,6.61,0,0,1-4.95-1.36,6.08,6.08,0,0,1-2.35-4.31,6.22,6.22,0,0,1,1.42-4.8,7.18,7.18,0,0,1,9.52-1,5.9,5.9,0,0,1,2.35,4.26,6.44,6.44,0,0,1-6,7.23Zm1.69,65.19-5.54-54.25,9.83-1,5.54,54.25Z" transform="translate(-46.56 -22.1)"></path><path class="cls-1" d="M1073,294.59l-1.17-11.47-.73-2.1-2-19.55q-.64-6.24-4.62-9.3t-11.25-2.32a29,29,0,0,0-9.26,2.55,24.51,24.51,0,0,0-7.35,5l-4.84-7a30,30,0,0,1,9.55-6.2,42.67,42.67,0,0,1,12.15-3q11.16-1.14,17.76,3.67t7.73,16l3.34,32.76ZM1055.23,297a25.72,25.72,0,0,1-10.81-1,16.38,16.38,0,0,1-7.59-5,14.55,14.55,0,0,1-3.3-8,15.63,15.63,0,0,1,1.29-8.2,14.52,14.52,0,0,1,6.27-6.43q4.54-2.64,12.63-3.46l17.19-1.76.73,7.06L1054.85,272q-7.36.75-9.68,3.47a8,8,0,0,0-2,6.2,7.66,7.66,0,0,0,3.82,6.07q3.42,2.09,9,1.51a18.7,18.7,0,0,0,9.42-3.45,14,14,0,0,0,5.26-7.77l2.64,6.55a15.36,15.36,0,0,1-6.08,8.33Q1062.7,296.26,1055.23,297Z" transform="translate(-46.56 -22.1)"></path><path class="cls-1" d="M1121.76,290.23a44.45,44.45,0,0,1-13-.53,30.35,30.35,0,0,1-10-3.53l3.3-8.2a33.72,33.72,0,0,0,9,3.12,34.43,34.43,0,0,0,10.61.57q6.86-.71,9.68-3a6.18,6.18,0,0,0,2.47-5.74,4.83,4.83,0,0,0-2.25-3.8,12.77,12.77,0,0,0-5.09-1.66q-3.09-.4-6.83-.59c-2.5-.12-5-.35-7.52-.68a29.43,29.43,0,0,1-7-1.77,12.84,12.84,0,0,1-5.37-3.9,13.61,13.61,0,0,1-2.61-7.33,14,14,0,0,1,1.89-8.88,17.53,17.53,0,0,1,7.25-6.48,32.94,32.94,0,0,1,11.82-3.23,47.74,47.74,0,0,1,10.93.18,27,27,0,0,1,9.33,2.72l-3.4,8.21a23.19,23.19,0,0,0-8-2.6,35.27,35.27,0,0,0-8.08-.1q-6.45.65-9.41,3.08a6.26,6.26,0,0,0-2.62,5.69,5.08,5.08,0,0,0,2.32,4.06,13.82,13.82,0,0,0,5.15,1.8,62.48,62.48,0,0,0,6.85.7c2.49.12,5,.35,7.51.68a29.84,29.84,0,0,1,7,1.72,13.2,13.2,0,0,1,5.36,3.8,12.84,12.84,0,0,1,2.64,7.17,13.2,13.2,0,0,1-2,8.79,18.59,18.59,0,0,1-7.51,6.41A35.46,35.46,0,0,1,1121.76,290.23Z" transform="translate(-46.56 -22.1)"></path><path class="cls-1" d="M1220.44,280.16a31.63,31.63,0,0,1-15.67-2,25.89,25.89,0,0,1-11.24-8.77,28.11,28.11,0,0,1-5.1-14,28.76,28.76,0,0,1,2.07-14.69,25.58,25.58,0,0,1,8.73-10.76,27.8,27.8,0,0,1,13.61-5,27.51,27.51,0,0,1,14.28,2.06,24.7,24.7,0,0,1,10.46,8.81,30.3,30.3,0,0,1,4.93,14.34c0,.4.07.89.1,1.44s0,1.06,0,1.55l-46.17,4.71-.72-7.07,41-4.19L1233,249.5a18.38,18.38,0,0,0-3.1-9.1,16.54,16.54,0,0,0-6.85-5.76,17.81,17.81,0,0,0-9.39-1.37,18.08,18.08,0,0,0-8.88,3.23,16.37,16.37,0,0,0-5.59,7.09,19.64,19.64,0,0,0-1.28,9.7l.17,1.63a18.77,18.77,0,0,0,3.49,9.42,17.35,17.35,0,0,0,7.69,5.89,22.23,22.23,0,0,0,10.58,1.3,22.8,22.8,0,0,0,8.58-2.53,19.34,19.34,0,0,0,6.41-5.62l6.07,5.79a24,24,0,0,1-8.49,7.49A32.15,32.15,0,0,1,1220.44,280.16Z" transform="translate(-46.56 -22.1)"></path><path class="cls-1" d="M158,416.37A6.61,6.61,0,0,1,153,415a6,6,0,0,1-2.35-4.31,6.18,6.18,0,0,1,1.42-4.8,6.6,6.6,0,0,1,4.57-2.33,6.72,6.72,0,0,1,4.94,1.31,5.91,5.91,0,0,1,2.35,4.26,6.42,6.42,0,0,1-6,7.23Zm1.69,65.19-5.54-54.25,9.83-1,5.53,54.25Z" transform="translate(-46.56 -22.1)"></path><path class="cls-1" d="M217.23,420.35a25.89,25.89,0,0,1,12,1.37,18.39,18.39,0,0,1,8.72,7q3.41,4.92,4.22,12.91l3.18,31.22-9.82,1-3.08-30.09q-.8-7.89-5.05-11.48t-11.2-2.89a19.3,19.3,0,0,0-8.9,3,14.11,14.11,0,0,0-5.38,6.65,21.46,21.46,0,0,0-1.08,10.15l2.85,27.94-9.83,1-5.53-54.25,9.42-1,1.49,14.64-1.93-3.73a19,19,0,0,1,7.34-9.13A27,27,0,0,1,217.23,420.35Z" transform="translate(-46.56 -22.1)"></path><path class="cls-1" d="M284.81,469.41a44.45,44.45,0,0,1-13-.53,30.12,30.12,0,0,1-10-3.53l3.3-8.19a33.67,33.67,0,0,0,9,3.11,34.35,34.35,0,0,0,10.6.57q6.85-.69,9.68-2.95a6.14,6.14,0,0,0,2.47-5.73,4.78,4.78,0,0,0-2.25-3.81,12.62,12.62,0,0,0-5.08-1.65q-3.09-.4-6.84-.6c-2.49-.12-5-.35-7.51-.68a29.39,29.39,0,0,1-7-1.77,12.7,12.7,0,0,1-5.36-3.89,13.67,13.67,0,0,1-2.61-7.34,14,14,0,0,1,1.88-8.88,17.6,17.6,0,0,1,7.25-6.48,33.06,33.06,0,0,1,11.83-3.23A47.75,47.75,0,0,1,292,414a27,27,0,0,1,9.32,2.72l-3.4,8.21a23.17,23.17,0,0,0-8-2.59,35.27,35.27,0,0,0-8.08-.11q-6.45.66-9.41,3.08a6.28,6.28,0,0,0-2.62,5.7,5.09,5.09,0,0,0,2.33,4.05,13.77,13.77,0,0,0,5.14,1.8,60.36,60.36,0,0,0,6.85.7c2.5.13,5,.35,7.52.68a30.61,30.61,0,0,1,6.95,1.72,13.17,13.17,0,0,1,5.35,3.8,12.9,12.9,0,0,1,2.64,7.18,13.28,13.28,0,0,1-2,8.79,18.75,18.75,0,0,1-7.52,6.4A35,35,0,0,1,284.81,469.41Z" transform="translate(-46.56 -22.1)"></path><path class="cls-1" d="M328.13,484.43l-7.56-74.1,9.42-1L331.48,424l.67,12.66,2.31,12.48,3.5,34.29Zm26.8-22.17a25.07,25.07,0,0,1-12.65-1.87,22.72,22.72,0,0,1-9.85-8.35q-4-5.81-4.9-15t1.66-15.68a21.83,21.83,0,0,1,7.86-10.11,25.64,25.64,0,0,1,12.23-4.35,28.14,28.14,0,0,1,14.48,2,25.78,25.78,0,0,1,10.71,8.68,31.34,31.34,0,0,1,3,29,25.65,25.65,0,0,1-8.73,10.71A28.37,28.37,0,0,1,354.93,462.26Zm-1.7-8.52a18.79,18.79,0,0,0,9.13-3.31,17.11,17.11,0,0,0,5.87-7.37,20.71,20.71,0,0,0,1.37-10.33,20.21,20.21,0,0,0-3.43-9.84,17.2,17.2,0,0,0-7.23-5.93,19.7,19.7,0,0,0-18.63,1.9,17.24,17.24,0,0,0-5.87,7.27,20.16,20.16,0,0,0-1.38,10.33,20.53,20.53,0,0,0,3.44,9.84,17.06,17.06,0,0,0,7.23,6A18.46,18.46,0,0,0,353.23,453.74Z" transform="translate(-46.56 -22.1)"></path><path class="cls-1" d="M399.86,391.68a6.54,6.54,0,0,1-4.95-1.35,6.08,6.08,0,0,1-2.36-4.31,6.21,6.21,0,0,1,1.43-4.8,6.54,6.54,0,0,1,4.57-2.33,6.68,6.68,0,0,1,4.94,1.3,5.91,5.91,0,0,1,2.35,4.26,6.42,6.42,0,0,1-6,7.23Zm1.68,65.2L396,402.63l9.82-1,5.54,54.26Z" transform="translate(-46.56 -22.1)"></path><path class="cls-1" d="M435.73,453.39l-5.54-54.25,9.42-1,1.51,14.74-1.3-3.59a16.79,16.79,0,0,1,6.7-9.38,26.69,26.69,0,0,1,12.8-4.3l1,9.52a7.82,7.82,0,0,0-1.19,0l-1.08.11q-7.87.81-12,6t-3.22,14.08l2.76,27Z" transform="translate(-46.56 -22.1)"></path><path class="cls-1" d="M512.3,445.57l-1.17-11.46-.73-2.1-2-19.55q-.63-6.24-4.62-9.3t-11.25-2.32a29,29,0,0,0-9.26,2.55,24.32,24.32,0,0,0-7.34,5l-4.85-6.95a29.81,29.81,0,0,1,9.56-6.2,42.51,42.51,0,0,1,12.15-3q11.15-1.14,17.75,3.67t7.73,16l3.34,32.75ZM494.55,448a25.66,25.66,0,0,1-10.8-1,16.3,16.3,0,0,1-7.6-5,14.41,14.41,0,0,1-3.29-8,15.53,15.53,0,0,1,1.28-8.2,14.63,14.63,0,0,1,6.27-6.43Q485,416.82,493,416l17.2-1.75.72,7.06L494.17,423q-7.37.75-9.68,3.46a8,8,0,0,0-1.95,6.2,7.67,7.67,0,0,0,3.83,6.08c2.27,1.39,5.29,1.89,9,1.5a18.68,18.68,0,0,0,9.43-3.44,14,14,0,0,0,5.25-7.78l2.64,6.56a15.39,15.39,0,0,1-6.08,8.33Q502,447.25,494.55,448Z" transform="translate(-46.56 -22.1)"></path><path class="cls-1" d="M569.17,440.39A30.3,30.3,0,0,1,554,438.32a26.56,26.56,0,0,1-11.18-8.79,29.86,29.86,0,0,1-2.93-28.66,26.13,26.13,0,0,1,9.19-10.82,30.75,30.75,0,0,1,14.43-5A29,29,0,0,1,577,386.59a20.84,20.84,0,0,1,9.84,7.73l-7,5.58a16.86,16.86,0,0,0-7.1-5.23,18.5,18.5,0,0,0-8.44-1.05A19.26,19.26,0,0,0,555,397a17.53,17.53,0,0,0-6,7.28,22.19,22.19,0,0,0,2.07,20.22,17.41,17.41,0,0,0,7.33,6,19.07,19.07,0,0,0,9.76,1.38,18.55,18.55,0,0,0,8-2.73,16.88,16.88,0,0,0,5.9-6.55l8,3.94A21.53,21.53,0,0,1,582,436,28.16,28.16,0,0,1,569.17,440.39Zm-2.53,22.81a20,20,0,0,1-5-.07,16.06,16.06,0,0,1-4.37-1.26l1.63-5.23a13.33,13.33,0,0,0,3.47,1,15.45,15.45,0,0,0,3.67,0,7.09,7.09,0,0,0,4.24-1.52,3.62,3.62,0,0,0,1.08-3.16,3.56,3.56,0,0,0-1.68-2.78,7.36,7.36,0,0,0-4.56-.62l-2.77.28,1.54-10.29,5.63-.57-.94,6a10.21,10.21,0,0,1,6.93,2.08,8.45,8.45,0,0,1,.05,12.67Q572.37,462.62,566.64,463.2Z" transform="translate(-46.56 -22.1)"></path><path class="cls-1" d="M632,434a29.22,29.22,0,0,1-14.85-2.11A26.56,26.56,0,0,1,606.08,423a27.87,27.87,0,0,1-5.14-13.9,27.51,27.51,0,0,1,2.23-14.66,26.82,26.82,0,0,1,9-10.79,29.25,29.25,0,0,1,14.17-5.07,29.59,29.59,0,0,1,14.84,2,26,26,0,0,1,11,8.75,30.24,30.24,0,0,1,2.93,28.67,26.39,26.39,0,0,1-9,10.85A29.32,29.32,0,0,1,632,434Zm.63-63.78a9.09,9.09,0,0,1-4.46-.58,17.94,17.94,0,0,1-3.67-2.05,35.8,35.8,0,0,0-3.21-2.11,5.05,5.05,0,0,0-3-.73,4.51,4.51,0,0,0-3.46,2.06,8.2,8.2,0,0,0-1.11,4.82l-5.53.57q-.37-5.76,1.94-9.41a8.71,8.71,0,0,1,6.82-4.11,9.11,9.11,0,0,1,4.51.63,18.2,18.2,0,0,1,3.73,2.1c1.12.82,2.18,1.52,3.17,2.11a4.73,4.73,0,0,0,6.43-1.28,7,7,0,0,0,1.08-4.66l5.53-.56a14.15,14.15,0,0,1-1.92,9.09A8.86,8.86,0,0,1,632.65,370.2Zm-1.51,55.18a18.79,18.79,0,0,0,9.13-3.31,16.79,16.79,0,0,0,5.82-7.37,21,21,0,0,0,1.32-10.32,20.7,20.7,0,0,0-3.38-9.84,16.77,16.77,0,0,0-7.18-5.94,18.62,18.62,0,0,0-9.6-1.4,18.39,18.39,0,0,0-9.08,3.3,17.81,17.81,0,0,0-5.88,7.27,20,20,0,0,0-1.42,10.34,20.28,20.28,0,0,0,3.48,9.83,17.58,17.58,0,0,0,7.24,6A18.39,18.39,0,0,0,631.14,425.38Z" transform="translate(-46.56 -22.1)"></path><path class="cls-1" d="M703.57,426.67a31.66,31.66,0,0,1-15.67-2,25.89,25.89,0,0,1-11.24-8.78,28.16,28.16,0,0,1-5.09-14,28.74,28.74,0,0,1,2.07-14.69,25.65,25.65,0,0,1,8.72-10.77,29.64,29.64,0,0,1,27.89-2.9,24.86,24.86,0,0,1,10.47,8.81,30.59,30.59,0,0,1,4.93,14.34q.06.62.09,1.44c0,.55,0,1.07,0,1.55l-46.16,4.71-.72-7.06,41-4.19L716.16,396a18.28,18.28,0,0,0-3.1-9.09,16.52,16.52,0,0,0-6.84-5.77A19.41,19.41,0,0,0,688,383a16.3,16.3,0,0,0-5.59,7.09,19.59,19.59,0,0,0-1.29,9.69l.17,1.64a18.69,18.69,0,0,0,3.5,9.42,17.38,17.38,0,0,0,7.68,5.89A22.11,22.11,0,0,0,703,418a22.62,22.62,0,0,0,8.59-2.53,19.2,19.2,0,0,0,6.4-5.62l6.08,5.8a24,24,0,0,1-8.5,7.48A31.86,31.86,0,0,1,703.57,426.67Z" transform="translate(-46.56 -22.1)"></path><path class="cls-1" d="M763.25,420.58a44.18,44.18,0,0,1-13-.53,30.44,30.44,0,0,1-10-3.52l3.3-8.2A36.28,36.28,0,0,0,763.1,412q6.85-.69,9.68-2.95a6.13,6.13,0,0,0,2.46-5.73,4.78,4.78,0,0,0-2.25-3.81,12.57,12.57,0,0,0-5.08-1.65q-3.09-.4-6.83-.59c-2.5-.13-5-.36-7.52-.69a29,29,0,0,1-7-1.76,12.87,12.87,0,0,1-5.36-3.9,13.64,13.64,0,0,1-2.61-7.34,14.06,14.06,0,0,1,1.89-8.88,17.67,17.67,0,0,1,7.25-6.48A32.94,32.94,0,0,1,759.54,365a48.31,48.31,0,0,1,10.93.17,27.23,27.23,0,0,1,9.33,2.72l-3.4,8.21a23.44,23.44,0,0,0-8-2.59,35.76,35.76,0,0,0-8.07-.11q-6.45.66-9.41,3.08a6.29,6.29,0,0,0-2.63,5.7,5.12,5.12,0,0,0,2.33,4.05,13.58,13.58,0,0,0,5.15,1.81,60.29,60.29,0,0,0,6.84.69q3.75.19,7.52.68a30,30,0,0,1,6.95,1.73,12,12,0,0,1,8,11,13.31,13.31,0,0,1-2,8.79,18.6,18.6,0,0,1-7.52,6.4A35,35,0,0,1,763.25,420.58Z" transform="translate(-46.56 -22.1)"></path><path class="cls-1" d="M861.92,410.51a31.66,31.66,0,0,1-15.67-2A26,26,0,0,1,835,399.71a28.16,28.16,0,0,1-5.09-14A28.74,28.74,0,0,1,832,371.06a25.65,25.65,0,0,1,8.72-10.77,29.65,29.65,0,0,1,27.89-2.9,24.86,24.86,0,0,1,10.47,8.81A30.48,30.48,0,0,1,884,380.54q.06.61.09,1.44c0,.55,0,1.07,0,1.55l-46.16,4.71-.72-7.06,41-4.19-3.75,2.86a18.25,18.25,0,0,0-3.1-9.09,16.52,16.52,0,0,0-6.84-5.77,19.41,19.41,0,0,0-18.27,1.87,16.33,16.33,0,0,0-5.59,7.08,19.53,19.53,0,0,0-1.28,9.7l.16,1.64a18.78,18.78,0,0,0,3.5,9.42,17.28,17.28,0,0,0,7.68,5.88,22,22,0,0,0,10.58,1.3,22.62,22.62,0,0,0,8.59-2.53,19.2,19.2,0,0,0,6.4-5.62l6.08,5.8a24,24,0,0,1-8.5,7.48A31.86,31.86,0,0,1,861.92,410.51Z" transform="translate(-46.56 -22.1)"></path><path class="cls-1" d="M926.65,356.64l-.82-8.09L960.42,345l.83,8.09Zm31.19,44.08q-8.21.84-13.15-3.1t-5.79-12.13l-5.07-49.75,9.82-1,5,49.34q.45,4.4,2.89,6.53a8.22,8.22,0,0,0,6.53,1.71,11.68,11.68,0,0,0,7.42-3.34l3.79,6.75a14.38,14.38,0,0,1-5.08,3.41A22.5,22.5,0,0,1,957.84,400.72Z" transform="translate(-46.56 -22.1)"></path><path class="cls-1" d="M987.15,397.11l-5.54-54.25,9.42-1,1.5,14.74-1.29-3.59a16.71,16.71,0,0,1,6.69-9.37,26.77,26.77,0,0,1,12.8-4.31l1,9.52a7.66,7.66,0,0,0-1.18,0l-1.08.11q-7.87.8-12,6t-3.21,14.09l2.76,27Z" transform="translate(-46.56 -22.1)"></path><path class="cls-1" d="M1063.71,389.3l-1.17-11.47-.73-2.09-2-19.55q-.64-6.26-4.62-9.31T1044,344.57a28.69,28.69,0,0,0-9.26,2.54,24.7,24.7,0,0,0-7.35,5.05l-4.84-7a29.85,29.85,0,0,1,9.55-6.19A41.94,41.94,0,0,1,1044.2,336q11.16-1.14,17.76,3.67t7.73,16l3.34,32.76ZM1046,391.73a25.72,25.72,0,0,1-10.81-1,16.38,16.38,0,0,1-7.59-5,14.55,14.55,0,0,1-3.3-8,15.55,15.55,0,0,1,1.29-8.2,14.57,14.57,0,0,1,6.27-6.43q4.55-2.64,12.63-3.46l17.19-1.76.73,7.07-16.79,1.71q-7.38.75-9.68,3.47a8,8,0,0,0-2,6.2,7.66,7.66,0,0,0,3.82,6.07q3.42,2.08,9,1.51a18.7,18.7,0,0,0,9.42-3.45,14,14,0,0,0,5.26-7.77l2.64,6.55a15.41,15.41,0,0,1-6.08,8.33Q1053.44,391,1046,391.73Z" transform="translate(-46.56 -22.1)"></path><path class="cls-1" d="M1120.26,328.19a25.84,25.84,0,0,1,12,1.37,18.46,18.46,0,0,1,8.73,7q3.39,4.92,4.21,12.91l3.19,31.22-9.83,1-3.07-30.09c-.54-5.26-2.22-9.08-5-11.49s-6.57-3.36-11.21-2.89a19.42,19.42,0,0,0-8.9,3,14.15,14.15,0,0,0-5.37,6.65,21.33,21.33,0,0,0-1.09,10.15l2.86,27.94-9.83,1-5.54-54.25,9.42-1,1.49,14.64-1.93-3.73a18.92,18.92,0,0,1,7.34-9.13A27,27,0,0,1,1120.26,328.19Z" transform="translate(-46.56 -22.1)"></path><path class="cls-1" d="M1187.84,377.25a44.53,44.53,0,0,1-13-.53,30.21,30.21,0,0,1-10-3.53l3.3-8.19a33.8,33.8,0,0,0,9,3.11,34.42,34.42,0,0,0,10.61.57q6.86-.71,9.68-2.95a6.13,6.13,0,0,0,2.46-5.73,4.78,4.78,0,0,0-2.25-3.81,12.57,12.57,0,0,0-5.08-1.65q-3.09-.41-6.83-.6c-2.5-.12-5-.35-7.52-.68a29.51,29.51,0,0,1-7-1.77,12.7,12.7,0,0,1-5.36-3.9,13.61,13.61,0,0,1-2.61-7.33,14,14,0,0,1,1.89-8.88,17.53,17.53,0,0,1,7.25-6.48,32.94,32.94,0,0,1,11.82-3.23,47.75,47.75,0,0,1,10.93.18,27,27,0,0,1,9.33,2.72l-3.4,8.21a23.22,23.22,0,0,0-8-2.59,35.18,35.18,0,0,0-8.07-.11q-6.45.66-9.41,3.08a6.29,6.29,0,0,0-2.63,5.7,5.12,5.12,0,0,0,2.33,4.05,13.75,13.75,0,0,0,5.15,1.8,60.17,60.17,0,0,0,6.84.7c2.5.13,5,.35,7.52.68a30.48,30.48,0,0,1,7,1.72,13.1,13.1,0,0,1,5.35,3.8,12.9,12.9,0,0,1,2.65,7.18,13.28,13.28,0,0,1-2,8.79,18.68,18.68,0,0,1-7.52,6.4A35,35,0,0,1,1187.84,377.25Z" transform="translate(-46.56 -22.1)"></path><path class="cls-1" d="M1223.21,348.92l-.86-8.5,27.53-2.81.87,8.5Z" transform="translate(-46.56 -22.1)"></path><path class="cls-1" d="M202.61,524.3l-.83-8.09,34.6-3.53.82,8.09Zm13.92,45.23-6-59.07q-.81-8,3.36-13.22t12.77-6.11a23.94,23.94,0,0,1,6.17.15,13.13,13.13,0,0,1,5.21,1.9L235.8,501a11.75,11.75,0,0,0-3.67-1.54,12.55,12.55,0,0,0-4.16-.24q-4.31.43-6.31,3.07t-1.53,7.34l.75,7.27.66,4.48,4.82,47.19Z" transform="translate(-46.56 -22.1)"></path><path class="cls-1" d="M279.34,563.74a29.32,29.32,0,0,1-14.85-2.11,26.56,26.56,0,0,1-11.09-8.85,29.66,29.66,0,0,1-2.91-28.56,27,27,0,0,1,9-10.8,29.24,29.24,0,0,1,14.17-5.06,29.59,29.59,0,0,1,14.84,2.05,26,26,0,0,1,11,8.75,30.22,30.22,0,0,1,2.93,28.66,26.33,26.33,0,0,1-9,10.85A29.23,29.23,0,0,1,279.34,563.74Zm-.88-8.6a18.79,18.79,0,0,0,9.13-3.31,16.7,16.7,0,0,0,5.81-7.37,22.89,22.89,0,0,0-2-20.17,16.91,16.91,0,0,0-7.18-5.94,18.72,18.72,0,0,0-9.6-1.39,18.39,18.39,0,0,0-9.08,3.3,17.74,17.74,0,0,0-5.88,7.27,20,20,0,0,0-1.42,10.34,20.32,20.32,0,0,0,3.48,9.83,17.58,17.58,0,0,0,7.24,6A18.39,18.39,0,0,0,278.46,555.14Z" transform="translate(-46.56 -22.1)"></path><path class="cls-1" d="M326.67,558.28,321.13,504l9.42-1,1.51,14.74-1.3-3.59a16.76,16.76,0,0,1,6.7-9.37,26.69,26.69,0,0,1,12.79-4.31l1,9.52a7.77,7.77,0,0,0-1.19,0l-1.08.11q-7.87.81-12,6t-3.22,14.09l2.76,27Z" transform="translate(-46.56 -22.1)"></path><path class="cls-1" d="M435.83,491.81a25.38,25.38,0,0,1,11.83,1.38,18.22,18.22,0,0,1,8.62,7q3.35,4.93,4.16,12.92l3.19,31.22-9.83,1-3.07-30.1c-.53-5.25-2.17-9.08-4.89-11.49s-6.32-3.39-10.75-2.94a17.52,17.52,0,0,0-8.39,2.93,13.69,13.69,0,0,0-5.06,6.62,22.21,22.21,0,0,0-1,10.13l2.86,27.94-9.83,1-3.07-30.09q-.81-7.87-4.85-11.5T395,504.88a17.14,17.14,0,0,0-8.28,2.91,14.07,14.07,0,0,0-5.12,6.63,21.66,21.66,0,0,0-1,10.13l2.85,28-9.83,1L368,499.25l9.41-1,1.48,14.43L377,509.19a18.61,18.61,0,0,1,7-9.09,25.15,25.15,0,0,1,12.08-4.24,23.37,23.37,0,0,1,13.8,2.47q6,3.27,8.56,10.87L414.31,508a20.47,20.47,0,0,1,7.58-10.91A26.89,26.89,0,0,1,435.83,491.81Z" transform="translate(-46.56 -22.1)"></path><path class="cls-1" d="M521.05,538.45,519.88,527l-.73-2.1-2-19.55q-.64-6.24-4.62-9.3t-11.26-2.32a29,29,0,0,0-9.25,2.55,24.49,24.49,0,0,0-7.35,5l-4.84-6.95a29.93,29.93,0,0,1,9.55-6.2,42.51,42.51,0,0,1,12.15-3q11.16-1.14,17.75,3.67t7.74,16l3.34,32.76Zm-17.74,2.43a25.72,25.72,0,0,1-10.81-1,16.38,16.38,0,0,1-7.59-5,14.55,14.55,0,0,1-3.3-8,15.53,15.53,0,0,1,1.29-8.2,14.52,14.52,0,0,1,6.27-6.43c3-1.76,7.23-2.91,12.63-3.46L519,507.11l.72,7.06-16.78,1.72q-7.38.75-9.68,3.47a8,8,0,0,0-1.95,6.2,7.66,7.66,0,0,0,3.82,6.07q3.42,2.08,9.05,1.51a18.7,18.7,0,0,0,9.42-3.45,14,14,0,0,0,5.26-7.77l2.63,6.55a15.31,15.31,0,0,1-6.08,8.33Q510.78,540.12,503.31,540.88Z" transform="translate(-46.56 -22.1)"></path><path class="cls-1" d="M616.49,473.37a25.38,25.38,0,0,1,11.83,1.38,18.3,18.3,0,0,1,8.63,7q3.34,4.93,4.16,12.92l3.19,31.22-9.83,1-3.07-30.09q-.81-7.89-4.9-11.5t-10.74-2.94a17.48,17.48,0,0,0-8.39,2.93,13.76,13.76,0,0,0-5.07,6.62,22.22,22.22,0,0,0-1,10.13L604.17,530l-9.83,1-3.07-30.1q-.79-7.87-4.84-11.5t-10.8-2.93a17.28,17.28,0,0,0-8.29,2.91,14,14,0,0,0-5.11,6.63,21.67,21.67,0,0,0-1,10.13l2.86,27.95-9.83,1-5.54-54.25,9.42-1,1.47,14.43-1.91-3.53a18.56,18.56,0,0,1,7-9.09,25.1,25.1,0,0,1,12.08-4.23,23.31,23.31,0,0,1,13.8,2.47q6,3.25,8.56,10.86L595,489.53a20.49,20.49,0,0,1,7.57-10.91A26.93,26.93,0,0,1,616.49,473.37Z" transform="translate(-46.56 -22.1)"></path><path class="cls-1" d="M691.34,521.69a29.22,29.22,0,0,1-14.85-2.11,26.56,26.56,0,0,1-11.09-8.85,27.87,27.87,0,0,1-5.14-13.9,27.47,27.47,0,0,1,2.23-14.65,26.85,26.85,0,0,1,9-10.8,29.25,29.25,0,0,1,14.17-5.07,29.59,29.59,0,0,1,14.84,2.05,25.88,25.88,0,0,1,11,8.76,30.22,30.22,0,0,1,2.93,28.66,26.39,26.39,0,0,1-9,10.85A29.32,29.32,0,0,1,691.34,521.69Zm-.88-8.6a18.79,18.79,0,0,0,9.13-3.31,16.79,16.79,0,0,0,5.82-7.37,21,21,0,0,0,1.32-10.32,20.59,20.59,0,0,0-3.38-9.84,16.91,16.91,0,0,0-7.18-5.94,19.82,19.82,0,0,0-18.68,1.9,17.71,17.71,0,0,0-5.87,7.27,19.88,19.88,0,0,0-1.43,10.34,20.28,20.28,0,0,0,3.48,9.83,17.6,17.6,0,0,0,7.24,6A18.38,18.38,0,0,0,690.46,513.09Z" transform="translate(-46.56 -22.1)"></path><path class="cls-1" d="M754.29,515.26a44.45,44.45,0,0,1-13-.53,30.36,30.36,0,0,1-10-3.52l3.3-8.2a36.22,36.22,0,0,0,19.61,3.68q6.86-.69,9.68-2.95a6.14,6.14,0,0,0,2.47-5.73A4.85,4.85,0,0,0,764,494.2a12.62,12.62,0,0,0-5.08-1.65c-2.07-.27-4.34-.47-6.84-.59s-5-.36-7.52-.69a29,29,0,0,1-7-1.76,12.81,12.81,0,0,1-5.36-3.9,13.64,13.64,0,0,1-2.61-7.34,14,14,0,0,1,1.88-8.88,17.67,17.67,0,0,1,7.25-6.48,32.94,32.94,0,0,1,11.83-3.22,47.75,47.75,0,0,1,10.93.17,27.24,27.24,0,0,1,9.32,2.72l-3.4,8.21a23.38,23.38,0,0,0-8-2.59,35.28,35.28,0,0,0-8.08-.11q-6.45.66-9.41,3.08a6.3,6.3,0,0,0-2.62,5.7,5.11,5.11,0,0,0,2.32,4.05,13.47,13.47,0,0,0,5.15,1.8,57.93,57.93,0,0,0,6.85.7q3.74.19,7.52.68a30.1,30.1,0,0,1,7,1.73,13,13,0,0,1,5.35,3.79,12.9,12.9,0,0,1,2.64,7.18,13.21,13.21,0,0,1-2,8.79,18.57,18.57,0,0,1-7.51,6.4A35,35,0,0,1,754.29,515.26Z" transform="translate(-46.56 -22.1)"></path><path class="cls-1" d="M827.06,441.85a6.57,6.57,0,0,1-4.95-1.36,6,6,0,0,1-2.35-4.31,6.18,6.18,0,0,1,1.42-4.8,6.59,6.59,0,0,1,4.57-2.32,6.71,6.71,0,0,1,5,1.3,6,6,0,0,1,2.35,4.26,6.42,6.42,0,0,1-6,7.23ZM828.75,507l-5.54-54.25,9.83-1L838.58,506Z" transform="translate(-46.56 -22.1)"></path><path class="cls-1" d="M878.56,502.58a44.52,44.52,0,0,1-13-.53,30.21,30.21,0,0,1-10-3.53l3.3-8.19a33.67,33.67,0,0,0,9,3.11,34.42,34.42,0,0,0,10.61.57q6.86-.7,9.68-2.95a6.13,6.13,0,0,0,2.46-5.73,4.78,4.78,0,0,0-2.25-3.81,12.57,12.57,0,0,0-5.08-1.65q-3.09-.4-6.83-.6c-2.5-.12-5-.35-7.52-.68a29.51,29.51,0,0,1-7-1.77,12.7,12.7,0,0,1-5.36-3.9,13.61,13.61,0,0,1-2.61-7.33,14,14,0,0,1,1.89-8.88,17.53,17.53,0,0,1,7.25-6.48A32.94,32.94,0,0,1,874.85,447a47.75,47.75,0,0,1,10.93.18,27,27,0,0,1,9.33,2.72l-3.4,8.21a23.22,23.22,0,0,0-8-2.59,35.18,35.18,0,0,0-8.07-.11q-6.45.66-9.41,3.08a6.27,6.27,0,0,0-2.63,5.7,5.12,5.12,0,0,0,2.33,4.05,13.75,13.75,0,0,0,5.15,1.8,58,58,0,0,0,6.84.7c2.5.13,5,.35,7.52.68a30.48,30.48,0,0,1,7,1.72,13.1,13.1,0,0,1,5.35,3.8,12.9,12.9,0,0,1,2.65,7.18,13.28,13.28,0,0,1-2,8.79,18.6,18.6,0,0,1-7.52,6.4A35,35,0,0,1,878.56,502.58Z" transform="translate(-46.56 -22.1)"></path><path class="cls-1" d="M935.47,496.77a44.45,44.45,0,0,1-13-.53,30.12,30.12,0,0,1-10-3.53l3.3-8.19a36.22,36.22,0,0,0,19.61,3.68q6.85-.69,9.68-2.95a6.13,6.13,0,0,0,2.46-5.73,4.8,4.8,0,0,0-2.24-3.81,12.67,12.67,0,0,0-5.09-1.65q-3.09-.4-6.83-.6c-2.5-.12-5-.35-7.52-.68a29,29,0,0,1-7-1.76,12.84,12.84,0,0,1-5.37-3.9,13.64,13.64,0,0,1-2.61-7.34,14.06,14.06,0,0,1,1.89-8.88,17.67,17.67,0,0,1,7.25-6.48,32.94,32.94,0,0,1,11.82-3.22,47.18,47.18,0,0,1,10.93.17,27.23,27.23,0,0,1,9.33,2.72l-3.4,8.21a23.24,23.24,0,0,0-8-2.59,35.28,35.28,0,0,0-8.08-.11q-6.45.66-9.41,3.08a6.28,6.28,0,0,0-2.62,5.7,5.08,5.08,0,0,0,2.32,4.05,13.64,13.64,0,0,0,5.15,1.8,57.93,57.93,0,0,0,6.85.7c2.49.13,5,.36,7.51.68a29.84,29.84,0,0,1,6.95,1.73,13.08,13.08,0,0,1,5.36,3.79,12.9,12.9,0,0,1,2.64,7.18,13.23,13.23,0,0,1-2,8.79,18.6,18.6,0,0,1-7.52,6.4A35,35,0,0,1,935.47,496.77Z" transform="translate(-46.56 -22.1)"></path><path class="cls-1" d="M1000.06,490.18a29.32,29.32,0,0,1-14.85-2.1,26.57,26.57,0,0,1-11.09-8.85,27.92,27.92,0,0,1-5.15-13.9,27.59,27.59,0,0,1,2.23-14.66,27,27,0,0,1,9-10.8,29.21,29.21,0,0,1,14.17-5.07,29.59,29.59,0,0,1,14.84,2.06,25.91,25.91,0,0,1,11,8.75,30.22,30.22,0,0,1,2.93,28.66,26.33,26.33,0,0,1-9,10.85A29.32,29.32,0,0,1,1000.06,490.18Zm-.88-8.6a18.63,18.63,0,0,0,9.13-3.31,16.65,16.65,0,0,0,5.81-7.37,21,21,0,0,0,1.33-10.32,20.6,20.6,0,0,0-3.39-9.84,16.88,16.88,0,0,0-7.17-5.94,18.76,18.76,0,0,0-9.61-1.4,18.46,18.46,0,0,0-9.07,3.31,17.74,17.74,0,0,0-5.88,7.27,20,20,0,0,0-1.43,10.33,20.39,20.39,0,0,0,3.49,9.83,17.47,17.47,0,0,0,7.24,6A18.37,18.37,0,0,0,999.18,481.58Z" transform="translate(-46.56 -22.1)"></path><path class="cls-1" d="M1103.93,423.63a25.7,25.7,0,0,1,12,1.36,18.37,18.37,0,0,1,8.73,7q3.4,4.92,4.21,12.91l3.19,31.22-9.83,1L1119.14,447q-.8-7.89-5.05-11.48t-11.2-2.89a19.3,19.3,0,0,0-8.9,3,14.11,14.11,0,0,0-5.38,6.65,21.34,21.34,0,0,0-1.08,10.15l2.85,27.94-9.83,1L1075,427.09l9.41-1,1.5,14.64L1084,437a19,19,0,0,1,7.34-9.13A27,27,0,0,1,1103.93,423.63Z" transform="translate(-46.56 -22.1)"></path><path class="cls-1" d="M1179.19,471.9a29.22,29.22,0,0,1-14.85-2.11,26.55,26.55,0,0,1-11.09-8.84,27.91,27.91,0,0,1-5.14-13.91,27.47,27.47,0,0,1,2.23-14.65,26.85,26.85,0,0,1,9-10.8,29.25,29.25,0,0,1,14.17-5.07,29.59,29.59,0,0,1,14.84,2.06,25.84,25.84,0,0,1,11,8.75,30.22,30.22,0,0,1,2.93,28.66,26.33,26.33,0,0,1-9,10.85A29.32,29.32,0,0,1,1179.19,471.9Zm-.88-8.6a18.69,18.69,0,0,0,9.13-3.31,16.65,16.65,0,0,0,5.81-7.37,22.87,22.87,0,0,0-2-20.16,16.91,16.91,0,0,0-7.18-5.94,19.82,19.82,0,0,0-18.68,1.9,17.77,17.77,0,0,0-5.88,7.28A20,20,0,0,0,1158,446a20.28,20.28,0,0,0,3.48,9.83,17.53,17.53,0,0,0,7.24,6A18.38,18.38,0,0,0,1178.31,463.3Z" transform="translate(-46.56 -22.1)"></path><path class="cls-1" d="M1242.14,465.47a44.11,44.11,0,0,1-13-.53,30.36,30.36,0,0,1-10-3.52l3.3-8.2a33.72,33.72,0,0,0,9,3.11,34.13,34.13,0,0,0,10.61.58q6.85-.71,9.68-3a6.16,6.16,0,0,0,2.47-5.73,4.81,4.81,0,0,0-2.25-3.8,12.62,12.62,0,0,0-5.09-1.66q-3.09-.4-6.83-.59c-2.5-.13-5-.35-7.52-.68a29.43,29.43,0,0,1-7-1.77,12.84,12.84,0,0,1-5.37-3.9,13.72,13.72,0,0,1-2.61-7.34,14.06,14.06,0,0,1,1.89-8.88,17.67,17.67,0,0,1,7.25-6.48,32.94,32.94,0,0,1,11.82-3.22,47.74,47.74,0,0,1,10.93.18,26.79,26.79,0,0,1,9.33,2.72l-3.4,8.2a23.38,23.38,0,0,0-8-2.59,35.85,35.85,0,0,0-8.08-.11q-6.45.66-9.41,3.08a6.28,6.28,0,0,0-2.62,5.7,5.1,5.1,0,0,0,2.32,4.06,13.82,13.82,0,0,0,5.15,1.8,60.24,60.24,0,0,0,6.85.69c2.49.13,5,.36,7.51.69a29.84,29.84,0,0,1,7,1.72,13.18,13.18,0,0,1,5.36,3.79,12.9,12.9,0,0,1,2.64,7.18,13.2,13.2,0,0,1-2,8.79,18.67,18.67,0,0,1-7.51,6.41A35.24,35.24,0,0,1,1242.14,465.47Z" transform="translate(-46.56 -22.1)"></path><path class="cls-1" d="M137.6,616a25.38,25.38,0,0,1,11.83,1.38,18.3,18.3,0,0,1,8.63,7q3.34,4.93,4.16,12.92l3.19,31.22-9.83,1-3.07-30.09q-.81-7.89-4.9-11.5T136.87,625a17.48,17.48,0,0,0-8.39,2.93,13.76,13.76,0,0,0-5.07,6.62,22.08,22.08,0,0,0-1,10.13l2.85,28-9.83,1-3.07-30.1q-.8-7.87-4.84-11.5t-10.8-2.93A17.39,17.39,0,0,0,88.45,632a14.1,14.1,0,0,0-5.11,6.63,21.67,21.67,0,0,0-1,10.13l2.85,28-9.82,1-5.54-54.25,9.42-1,1.47,14.43-1.91-3.53a18.56,18.56,0,0,1,7-9.09,25.1,25.1,0,0,1,12.08-4.23,23.32,23.32,0,0,1,13.8,2.47q6,3.26,8.55,10.86l-4.15-1.23a20.49,20.49,0,0,1,7.57-10.91A26.93,26.93,0,0,1,137.6,616Z" transform="translate(-46.56 -22.1)"></path><path class="cls-1" d="M222.83,662.65l-1.17-11.47-.73-2.09-2-19.55q-.63-6.24-4.62-9.31c-2.65-2-6.41-2.81-11.25-2.31a28.89,28.89,0,0,0-9.25,2.54,24.44,24.44,0,0,0-7.35,5l-4.85-7a29.65,29.65,0,0,1,9.56-6.2,42.18,42.18,0,0,1,12.15-3.05q11.16-1.14,17.75,3.67t7.73,16l3.34,32.76Zm-17.75,2.43a25.83,25.83,0,0,1-10.8-1,16.29,16.29,0,0,1-7.59-5,14.38,14.38,0,0,1-3.3-8,15.64,15.64,0,0,1,1.28-8.2,14.65,14.65,0,0,1,6.28-6.43q4.53-2.64,12.62-3.46l17.2-1.76.72,7.07-16.79,1.71q-7.37.75-9.68,3.47a8,8,0,0,0-2,6.2,7.65,7.65,0,0,0,3.83,6.07c2.28,1.39,5.29,1.89,9,1.51a18.86,18.86,0,0,0,9.42-3.44,14.12,14.12,0,0,0,5.26-7.78l2.63,6.56a15.37,15.37,0,0,1-6.08,8.32Q212.56,664.32,205.08,665.08Z" transform="translate(-46.56 -22.1)"></path><path class="cls-1" d="M254.3,594.07a6.54,6.54,0,0,1-4.94-1.36A6.09,6.09,0,0,1,247,588.4a6.23,6.23,0,0,1,1.43-4.8,6.57,6.57,0,0,1,4.57-2.32,6.68,6.68,0,0,1,4.94,1.3,5.91,5.91,0,0,1,2.35,4.26,6.42,6.42,0,0,1-6,7.23ZM256,659.26,250.46,605l9.82-1,5.54,54.25Z" transform="translate(-46.56 -22.1)"></path><path class="cls-1" d="M305.8,654.8a44.45,44.45,0,0,1-13-.53,30.12,30.12,0,0,1-10-3.53l3.3-8.19a33.72,33.72,0,0,0,9,3.11,34.13,34.13,0,0,0,10.61.57q6.86-.69,9.68-3a6.16,6.16,0,0,0,2.47-5.73,4.83,4.83,0,0,0-2.25-3.81,12.62,12.62,0,0,0-5.08-1.65c-2.07-.27-4.34-.47-6.84-.6s-5-.35-7.52-.68a29.43,29.43,0,0,1-7-1.77,12.7,12.7,0,0,1-5.36-3.89,13.67,13.67,0,0,1-2.61-7.34,14,14,0,0,1,1.88-8.88,17.6,17.6,0,0,1,7.25-6.48,32.86,32.86,0,0,1,11.83-3.22,47.19,47.19,0,0,1,10.93.17,27,27,0,0,1,9.32,2.72l-3.4,8.21a23.17,23.17,0,0,0-8-2.59,35.28,35.28,0,0,0-8.08-.11q-6.45.66-9.41,3.08a6.29,6.29,0,0,0-2.62,5.7,5.09,5.09,0,0,0,2.33,4.05,13.7,13.7,0,0,0,5.14,1.8,57.93,57.93,0,0,0,6.85.7c2.49.13,5,.35,7.52.68a30.61,30.61,0,0,1,6.95,1.72,13.17,13.17,0,0,1,5.35,3.8,12.9,12.9,0,0,1,2.64,7.18,13.21,13.21,0,0,1-2,8.79,18.57,18.57,0,0,1-7.51,6.4A35,35,0,0,1,305.8,654.8Z" transform="translate(-46.56 -22.1)"></path><path class="cls-1" d="M402.74,644.91a28.31,28.31,0,0,1-14.43-2,25.59,25.59,0,0,1-10.77-8.73A28.93,28.93,0,0,1,372.47,620a28.57,28.57,0,0,1,2.11-14.85,25.62,25.62,0,0,1,8.79-10.67,28.41,28.41,0,0,1,13.72-4.92,25.14,25.14,0,0,1,12.69,1.81,22.53,22.53,0,0,1,9.8,8.31q3.94,5.8,4.89,15t-1.65,15.68A22.31,22.31,0,0,1,415,640.5,25.23,25.23,0,0,1,402.74,644.91Zm-.06-8.68a18.54,18.54,0,0,0,9-3.3,17,17,0,0,0,5.87-7.38A20.54,20.54,0,0,0,419,615.23a20.32,20.32,0,0,0-3.44-9.84,17.16,17.16,0,0,0-7.22-5.93,19.62,19.62,0,0,0-18.58,1.89,17.74,17.74,0,0,0-5.88,7.27A20,20,0,0,0,382.4,619a20.32,20.32,0,0,0,3.49,9.83,17.49,17.49,0,0,0,7.23,6A18.42,18.42,0,0,0,402.68,636.23ZM422,642.32l-1.49-14.64L419.86,615l-2.31-12.49-3.69-36.13,9.83-1,7.75,76Z" transform="translate(-46.56 -22.1)"></path><path class="cls-1" d="M454,573.69a6.61,6.61,0,0,1-4.95-1.36,6,6,0,0,1-2.35-4.31,6.18,6.18,0,0,1,1.42-4.8,6.64,6.64,0,0,1,4.57-2.33,6.72,6.72,0,0,1,4.94,1.31,5.91,5.91,0,0,1,2.35,4.26,6.42,6.42,0,0,1-6,7.23Zm1.69,65.19-5.54-54.25,9.83-1,5.53,54.25Z" transform="translate(-46.56 -22.1)"></path><path class="cls-1" d="M477.39,590l-.82-8.08,34.6-3.53.82,8.08Zm13.93,45.23-6-59.06q-.81-8,3.36-13.22t12.77-6.12a24.39,24.39,0,0,1,6.17.15,13.34,13.34,0,0,1,5.21,1.9l-2.21,7.77a11.6,11.6,0,0,0-3.67-1.53,12.35,12.35,0,0,0-4.17-.25c-2.86.29-5,1.32-6.3,3.07s-1.85,4.21-1.53,7.35l.74,7.26.67,4.49,4.82,47.19Z" transform="translate(-46.56 -22.1)"></path><path class="cls-1" d="M555.05,629.36a31.66,31.66,0,0,1-15.67-2,25.84,25.84,0,0,1-11.24-8.78,28.06,28.06,0,0,1-5.09-14,28.85,28.85,0,0,1,2.06-14.69,25.67,25.67,0,0,1,8.73-10.77,27.82,27.82,0,0,1,13.61-4.95,27.49,27.49,0,0,1,14.28,2.06,24.76,24.76,0,0,1,10.47,8.8,30.47,30.47,0,0,1,4.92,14.34c0,.41.08.89.1,1.44s0,1.07,0,1.55l-46.16,4.71-.72-7.06,41-4.19-3.74,2.87a18.38,18.38,0,0,0-3.1-9.1,16.6,16.6,0,0,0-6.84-5.77,19.43,19.43,0,0,0-18.28,1.87,16.38,16.38,0,0,0-5.58,7.08,19.66,19.66,0,0,0-1.29,9.7l.17,1.64a18.77,18.77,0,0,0,3.49,9.42,17.4,17.4,0,0,0,7.69,5.89,22.11,22.11,0,0,0,10.58,1.29,22.51,22.51,0,0,0,8.58-2.53,19.31,19.31,0,0,0,6.41-5.61l6.07,5.79a23.83,23.83,0,0,1-8.49,7.48A31.79,31.79,0,0,1,555.05,629.36Z" transform="translate(-46.56 -22.1)"></path><path class="cls-1" d="M599.1,624.25,593.57,570l9.42-1,1.5,14.74-1.3-3.6a16.8,16.8,0,0,1,6.7-9.37,26.73,26.73,0,0,1,12.8-4.3l1,9.52a7.83,7.83,0,0,0-1.19,0l-1.07.11q-7.89.81-12,6t-3.22,14.08l2.76,27Z" transform="translate(-46.56 -22.1)"></path><path class="cls-1" d="M669.69,617.66a31.61,31.61,0,0,1-15.66-2,25.85,25.85,0,0,1-11.24-8.78,28.07,28.07,0,0,1-5.1-14,28.74,28.74,0,0,1,2.07-14.69,25.67,25.67,0,0,1,8.73-10.77,29.62,29.62,0,0,1,27.88-2.9,24.74,24.74,0,0,1,10.47,8.81,30.48,30.48,0,0,1,4.93,14.34q.06.62.09,1.44c0,.55,0,1.07,0,1.55l-46.17,4.71-.72-7.06,41-4.19L682.29,587a18.48,18.48,0,0,0-3.1-9.09,16.55,16.55,0,0,0-6.85-5.77A19.41,19.41,0,0,0,654.07,574a16.33,16.33,0,0,0-5.59,7.08,19.66,19.66,0,0,0-1.28,9.7l.16,1.64a18.78,18.78,0,0,0,3.5,9.42,17.26,17.26,0,0,0,7.69,5.88,21.94,21.94,0,0,0,10.57,1.3,22.62,22.62,0,0,0,8.59-2.53,19.33,19.33,0,0,0,6.41-5.62l6.07,5.8a23.92,23.92,0,0,1-8.49,7.48A32,32,0,0,1,669.69,617.66Z" transform="translate(-46.56 -22.1)"></path><path class="cls-1" d="M737.13,554.83a25.85,25.85,0,0,1,12,1.36,18.52,18.52,0,0,1,8.73,7q3.39,4.94,4.21,12.91l3.19,31.22-9.83,1-3.07-30.1q-.81-7.87-5.05-11.48t-11.21-2.89a19.31,19.31,0,0,0-8.9,3,14.1,14.1,0,0,0-5.37,6.65,21.27,21.27,0,0,0-1.09,10.14l2.86,27.94-9.83,1-5.54-54.26,9.42-1L719.12,572l-1.93-3.73a19,19,0,0,1,7.34-9.13A27.1,27.1,0,0,1,737.13,554.83Z" transform="translate(-46.56 -22.1)"></path><path class="cls-1" d="M776.6,559.49l-.83-8.09,34.6-3.53.82,8.09Zm31.18,44.08q-8.19.84-13.14-3.1t-5.79-12.14l-5.08-49.74,9.83-1,5,49.34c.3,2.94,1.27,5.11,2.89,6.53a8.29,8.29,0,0,0,6.54,1.72,11.69,11.69,0,0,0,7.42-3.35l3.79,6.75a14.5,14.5,0,0,1-5.08,3.42A23.25,23.25,0,0,1,807.78,603.57Z" transform="translate(-46.56 -22.1)"></path><path class="cls-1" d="M859.47,598.3a31.78,31.78,0,0,1-15.67-2,25.89,25.89,0,0,1-11.24-8.78,28.16,28.16,0,0,1-5.09-14,28.76,28.76,0,0,1,2.07-14.69,25.65,25.65,0,0,1,8.72-10.77,27.92,27.92,0,0,1,13.62-5,27.45,27.45,0,0,1,14.27,2.06A24.79,24.79,0,0,1,876.62,554a30.4,30.4,0,0,1,4.93,14.33q.06.61.09,1.44c0,.55,0,1.07,0,1.55L835.48,576l-.72-7.07,41-4.19-3.75,2.87a18.29,18.29,0,0,0-3.1-9.1,16.5,16.5,0,0,0-6.84-5.76,19.37,19.37,0,0,0-18.27,1.86,16.3,16.3,0,0,0-5.59,7.09,19.6,19.6,0,0,0-1.29,9.69l.17,1.64a18.69,18.69,0,0,0,3.5,9.42,17.38,17.38,0,0,0,7.68,5.89,22.25,22.25,0,0,0,10.58,1.3,22.62,22.62,0,0,0,8.59-2.54,19.17,19.17,0,0,0,6.4-5.61l6.08,5.79a24,24,0,0,1-8.5,7.49A32,32,0,0,1,859.47,598.3Z" transform="translate(-46.56 -22.1)"></path><path class="cls-1" d="M919.15,592.21a44.17,44.17,0,0,1-13-.54,30.21,30.21,0,0,1-10-3.52l3.3-8.2A36.4,36.4,0,0,0,919,583.64q6.86-.71,9.68-3a6.13,6.13,0,0,0,2.46-5.73,4.78,4.78,0,0,0-2.25-3.8,12.57,12.57,0,0,0-5.08-1.66q-3.09-.4-6.83-.59c-2.5-.13-5-.35-7.52-.68a29.43,29.43,0,0,1-7-1.77,12.84,12.84,0,0,1-5.37-3.9,13.64,13.64,0,0,1-2.61-7.34,14.06,14.06,0,0,1,1.89-8.88,17.67,17.67,0,0,1,7.25-6.48,32.94,32.94,0,0,1,11.82-3.22,47.75,47.75,0,0,1,10.93.18,26.79,26.79,0,0,1,9.33,2.72l-3.4,8.2a23.44,23.44,0,0,0-8-2.59,35.76,35.76,0,0,0-8.07-.11q-6.45.66-9.41,3.08a6.31,6.31,0,0,0-2.63,5.7,5.13,5.13,0,0,0,2.33,4.06,13.75,13.75,0,0,0,5.15,1.8,62.48,62.48,0,0,0,6.85.7c2.49.12,5,.35,7.51.68a30,30,0,0,1,7,1.72,13,13,0,0,1,5.35,3.8,12.84,12.84,0,0,1,2.65,7.17,13.26,13.26,0,0,1-2,8.79,18.53,18.53,0,0,1-7.52,6.4A35.17,35.17,0,0,1,919.15,592.21Z" transform="translate(-46.56 -22.1)"></path><path class="cls-1" d="M993.6,584l-7.75-76,9.83-1,7.75,76Z" transform="translate(-46.56 -22.1)"></path><path class="cls-1" d="M1051.09,578.74a29.22,29.22,0,0,1-14.85-2.11,26.61,26.61,0,0,1-11.09-8.84,27.81,27.81,0,0,1-5.14-13.91,27.47,27.47,0,0,1,2.23-14.65,26.85,26.85,0,0,1,9-10.8,29.21,29.21,0,0,1,14.17-5.07,29.59,29.59,0,0,1,14.84,2.06,25.84,25.84,0,0,1,11,8.75,30.22,30.22,0,0,1,2.93,28.66,26.33,26.33,0,0,1-9,10.85A29.32,29.32,0,0,1,1051.09,578.74Zm-.88-8.6a18.69,18.69,0,0,0,9.13-3.31,16.65,16.65,0,0,0,5.81-7.37,22.87,22.87,0,0,0-2.05-20.16,16.91,16.91,0,0,0-7.18-5.94,18.72,18.72,0,0,0-9.6-1.4,18.5,18.5,0,0,0-9.08,3.31,17.68,17.68,0,0,0-5.88,7.27,20,20,0,0,0-1.42,10.33,20.28,20.28,0,0,0,3.48,9.83,17.53,17.53,0,0,0,7.24,6A18.38,18.38,0,0,0,1050.21,570.14Z" transform="translate(-46.56 -22.1)"></path><path class="cls-1" d="M1121.72,571.53a29.32,29.32,0,0,1-14.85-2.1,26.65,26.65,0,0,1-11.09-8.85,29.7,29.7,0,0,1-2.92-28.56,27,27,0,0,1,9-10.8,29.21,29.21,0,0,1,14.17-5.07,29.59,29.59,0,0,1,14.84,2.06,25.91,25.91,0,0,1,11,8.75,30.22,30.22,0,0,1,2.93,28.66,26.33,26.33,0,0,1-9,10.85A29.32,29.32,0,0,1,1121.72,571.53Zm-.88-8.6a18.73,18.73,0,0,0,9.13-3.31,16.65,16.65,0,0,0,5.81-7.37,20.88,20.88,0,0,0,1.33-10.32,20.6,20.6,0,0,0-3.39-9.84,16.88,16.88,0,0,0-7.17-5.94,18.74,18.74,0,0,0-9.6-1.4,18.46,18.46,0,0,0-9.08,3.31,17.74,17.74,0,0,0-5.88,7.27,19.85,19.85,0,0,0-1.42,10.33,20.28,20.28,0,0,0,3.48,9.83,17.53,17.53,0,0,0,7.24,6A18.38,18.38,0,0,0,1120.84,562.93Z" transform="translate(-46.56 -22.1)"></path><path class="cls-1" d="M1169.05,566.08l-7.75-76,9.83-1,7.75,76Zm6.65-13.92-1.08-12.61,28.3-31.74,11.88-1.22-21.55,26-4.87,5Zm34.81,9.69-24-24.24,5.54-8.53,30.52,31.54Z" transform="translate(-46.56 -22.1)"></path><path class="cls-1" d="M1251.61,558.27a44.11,44.11,0,0,1-13-.53,30.36,30.36,0,0,1-10-3.52l3.3-8.2a33.67,33.67,0,0,0,9,3.11,34.07,34.07,0,0,0,10.6.58q6.86-.71,9.68-3a6.14,6.14,0,0,0,2.47-5.73,4.82,4.82,0,0,0-2.25-3.81,12.78,12.78,0,0,0-5.08-1.65q-3.09-.4-6.84-.59c-2.49-.13-5-.35-7.51-.68a29.51,29.51,0,0,1-7-1.77,12.81,12.81,0,0,1-5.36-3.9,13.64,13.64,0,0,1-2.61-7.34,14,14,0,0,1,1.88-8.88,17.67,17.67,0,0,1,7.25-6.48,33.06,33.06,0,0,1,11.83-3.22,47.75,47.75,0,0,1,10.93.18,26.92,26.92,0,0,1,9.33,2.72l-3.41,8.2a23.38,23.38,0,0,0-8-2.59,35.85,35.85,0,0,0-8.08-.11q-6.45.66-9.41,3.08a6.3,6.3,0,0,0-2.62,5.7,5.11,5.11,0,0,0,2.33,4.06,13.75,13.75,0,0,0,5.15,1.8,62.29,62.29,0,0,0,6.84.7c2.5.12,5,.35,7.52.68a30.1,30.1,0,0,1,7,1.72,13.14,13.14,0,0,1,5.35,3.79,13,13,0,0,1,2.65,7.18,13.31,13.31,0,0,1-2,8.79,18.67,18.67,0,0,1-7.52,6.4A35,35,0,0,1,1251.61,558.27Z" transform="translate(-46.56 -22.1)"></path><path class="cls-1" d="M702.65,707.45,701.48,696l-.73-2.09-2-19.56q-.63-6.24-4.62-9.3t-11.25-2.32a29,29,0,0,0-9.26,2.55,24.5,24.5,0,0,0-7.34,5l-4.85-6.95a30,30,0,0,1,9.56-6.2,42.51,42.51,0,0,1,12.15-3q11.16-1.14,17.75,3.67t7.73,16L712,706.5Zm-17.75,2.43a25.66,25.66,0,0,1-10.8-1,16.36,16.36,0,0,1-7.6-5,14.47,14.47,0,0,1-3.29-8,15.62,15.62,0,0,1,1.28-8.2,14.58,14.58,0,0,1,6.27-6.43q4.54-2.64,12.63-3.46l17.2-1.76.72,7.06-16.79,1.72q-7.37.75-9.68,3.47a8,8,0,0,0-2,6.2,7.67,7.67,0,0,0,3.83,6.07c2.27,1.39,5.29,1.89,9,1.51a18.78,18.78,0,0,0,9.43-3.45,14,14,0,0,0,5.25-7.77l2.64,6.55A15.39,15.39,0,0,1,697,705.8Q692.37,709.12,684.9,709.88Z" transform="translate(-46.56 -22.1)"></path><path class="cls-1" d="M758.7,702.35A28,28,0,0,1,746.21,701a18.42,18.42,0,0,1-9-7q-3.45-5-4.27-13l-3.19-31.22,9.83-1L742.66,679q.83,8,5.06,11.59t11.21,2.89a18.16,18.16,0,0,0,8.69-3,14.16,14.16,0,0,0,5.21-6.74,21.52,21.52,0,0,0,1-10L771,645.65l9.83-1,5.54,54.25-9.32,1-1.49-14.64L777.5,689a19.06,19.06,0,0,1-7.12,9.21A24.4,24.4,0,0,1,758.7,702.35Z" transform="translate(-46.56 -22.1)"></path><path class="cls-1" d="M798.25,651l-.83-8.08,34.6-3.53.83,8.08Zm31.18,44.09q-8.19.84-13.14-3.11t-5.79-12.13l-5.08-49.75,9.83-1,5,49.34q.45,4.39,2.89,6.53a8.21,8.21,0,0,0,6.53,1.71,11.68,11.68,0,0,0,7.42-3.34l3.79,6.75a14.25,14.25,0,0,1-5.08,3.41A22.92,22.92,0,0,1,829.43,695.13Z" transform="translate(-46.56 -22.1)"></path><path class="cls-1" d="M881.12,689.85a31.72,31.72,0,0,1-15.66-2,25.85,25.85,0,0,1-11.24-8.78,28.11,28.11,0,0,1-5.1-14,28.74,28.74,0,0,1,2.07-14.69,25.67,25.67,0,0,1,8.73-10.77,27.86,27.86,0,0,1,13.61-5,27.56,27.56,0,0,1,14.27,2.06,24.8,24.8,0,0,1,10.47,8.81,30.48,30.48,0,0,1,4.93,14.34q.06.61.09,1.44c0,.55,0,1.07,0,1.55l-46.17,4.71-.72-7.06,41.05-4.19-3.74,2.86a18.48,18.48,0,0,0-3.1-9.09,16.55,16.55,0,0,0-6.85-5.77,19.33,19.33,0,0,0-18.27,1.87,16.33,16.33,0,0,0-5.59,7.08,19.64,19.64,0,0,0-1.28,9.7l.17,1.64a18.68,18.68,0,0,0,3.49,9.42,17.28,17.28,0,0,0,7.68,5.88,22,22,0,0,0,10.58,1.3,22.62,22.62,0,0,0,8.59-2.53,19.33,19.33,0,0,0,6.41-5.62l6.07,5.8a23.92,23.92,0,0,1-8.49,7.48A32,32,0,0,1,881.12,689.85Zm-26.77-60.67,12.26-14.69,9.41-1,15,11.91-8.91.91-14.66-9.88,8.19-.83-12.36,12.64Z" transform="translate(-46.56 -22.1)"></path><path class="cls-1" d="M948.56,627a25.72,25.72,0,0,1,12,1.36,18.46,18.46,0,0,1,8.73,7q3.39,4.92,4.21,12.91l3.19,31.22-9.83,1-3.07-30.09q-.81-7.87-5-11.48T947.51,636a19.31,19.31,0,0,0-8.9,3,14.1,14.1,0,0,0-5.37,6.65,21.27,21.27,0,0,0-1.09,10.14L935,683.73l-9.83,1-5.54-54.26,9.42-1,1.49,14.64-1.93-3.73A19,19,0,0,1,936,631.3,27.06,27.06,0,0,1,948.56,627Z" transform="translate(-46.56 -22.1)"></path><path class="cls-1" d="M988,631.68l-.83-8.09,34.6-3.53.83,8.09Zm31.18,44.08q-8.19.84-13.14-3.11c-3.31-2.62-5.23-6.67-5.79-12.13l-5.08-49.74,9.83-1,5,49.34c.3,2.93,1.27,5.11,2.89,6.53a8.25,8.25,0,0,0,6.54,1.71,11.63,11.63,0,0,0,7.42-3.34l3.79,6.75a14.5,14.5,0,0,1-5.08,3.42A23.25,23.25,0,0,1,1019.21,675.76Z" transform="translate(-46.56 -22.1)"></path><path class="cls-1" d="M1046.83,607a6.53,6.53,0,0,1-4.94-1.35,6.08,6.08,0,0,1-2.36-4.31,6.2,6.2,0,0,1,1.43-4.8,6.54,6.54,0,0,1,4.57-2.33,6.68,6.68,0,0,1,4.94,1.3,5.94,5.94,0,0,1,2.35,4.26,6.42,6.42,0,0,1-6,7.23Zm1.69,65.2L1043,617.9l9.82-1,5.54,54.25Z" transform="translate(-46.56 -22.1)"></path><path class="cls-1" d="M1106.42,666.86a30.41,30.41,0,0,1-15.16-2.07,26.5,26.5,0,0,1-11.18-8.79,29.86,29.86,0,0,1-2.93-28.66,26.13,26.13,0,0,1,9.19-10.82,30.75,30.75,0,0,1,14.43-5,29,29,0,0,1,13.45,1.58,20.84,20.84,0,0,1,9.84,7.73l-7,5.58a16.92,16.92,0,0,0-7.1-5.23,18.5,18.5,0,0,0-8.44-1,19.16,19.16,0,0,0-9.28,3.33,17.53,17.53,0,0,0-6,7.28,22.19,22.19,0,0,0,2.07,20.22,17.41,17.41,0,0,0,7.33,6,19.29,19.29,0,0,0,9.76,1.38,18.55,18.55,0,0,0,8-2.73,16.88,16.88,0,0,0,5.9-6.55l7.95,3.94a21.6,21.6,0,0,1-8.08,9.57A28.19,28.19,0,0,1,1106.42,666.86Z" transform="translate(-46.56 -22.1)"></path><path class="cls-1" d="M1169.27,660.45a29.32,29.32,0,0,1-14.85-2.11,26.49,26.49,0,0,1-11.09-8.85,29.66,29.66,0,0,1-2.91-28.56,26.91,26.91,0,0,1,9-10.8,29.14,29.14,0,0,1,14.17-5.06,29.59,29.59,0,0,1,14.84,2,26,26,0,0,1,11,8.75,30.22,30.22,0,0,1,2.93,28.66,26.33,26.33,0,0,1-9,10.85A29.23,29.23,0,0,1,1169.27,660.45Zm-.88-8.6a18.83,18.83,0,0,0,9.13-3.31,16.7,16.7,0,0,0,5.81-7.37,22.89,22.89,0,0,0-2-20.17,16.91,16.91,0,0,0-7.18-5.94,18.72,18.72,0,0,0-9.6-1.39,18.39,18.39,0,0,0-9.08,3.3,17.74,17.74,0,0,0-5.88,7.27,20,20,0,0,0-1.42,10.34,20.32,20.32,0,0,0,3.48,9.83,17.58,17.58,0,0,0,7.24,6A18.39,18.39,0,0,0,1168.39,651.85Z" transform="translate(-46.56 -22.1)"></path><path class="cls-1" d="M1232.22,654a44.45,44.45,0,0,1-13-.53,30.35,30.35,0,0,1-10-3.53l3.3-8.2a33.37,33.37,0,0,0,9,3.12,34.43,34.43,0,0,0,10.61.57q6.86-.71,9.68-3a6.17,6.17,0,0,0,2.47-5.74A4.83,4.83,0,0,0,1242,633a12.62,12.62,0,0,0-5.09-1.65c-2.06-.27-4.33-.47-6.83-.6s-5-.35-7.52-.68a29.43,29.43,0,0,1-7-1.77,12.67,12.67,0,0,1-5.37-3.9,13.69,13.69,0,0,1-2.61-7.33,14,14,0,0,1,1.89-8.88,17.53,17.53,0,0,1,7.25-6.48,32.94,32.94,0,0,1,11.82-3.23,47.74,47.74,0,0,1,10.93.18,27,27,0,0,1,9.33,2.72l-3.4,8.21a23.17,23.17,0,0,0-8-2.59,35.28,35.28,0,0,0-8.08-.11q-6.45.66-9.41,3.08a6.26,6.26,0,0,0-2.62,5.7,5.08,5.08,0,0,0,2.32,4,13.82,13.82,0,0,0,5.15,1.8,60.12,60.12,0,0,0,6.85.7c2.49.13,5,.35,7.51.68a29.84,29.84,0,0,1,7,1.72,13.2,13.2,0,0,1,5.36,3.8,12.87,12.87,0,0,1,2.64,7.18,13.23,13.23,0,0,1-2,8.79,18.65,18.65,0,0,1-7.51,6.4A35,35,0,0,1,1232.22,654Z" transform="translate(-46.56 -22.1)"></path><path class="cls-1" d="M1275.93,649.56a6.93,6.93,0,0,1-7.68-6.35,6.66,6.66,0,0,1,1.53-5.23,6.92,6.92,0,0,1,4.72-2.44,6.63,6.63,0,0,1,5,1.46,6.73,6.73,0,0,1,2.5,4.81,6.89,6.89,0,0,1-1.48,5.27A6.54,6.54,0,0,1,1275.93,649.56Z" transform="translate(-46.56 -22.1)"></path></g></g></g></svg>