<svg xmlns="http://www.w3.org/2000/svg" viewBox="0 0 1108.03 533.93"><defs><style>.cls-1{fill:#fff;}</style></defs><title>7</title><g id="Camada_2" data-name="Camada 2"><g id="Camada_1-2" data-name="Camada 1"><g id="pra_gnt" data-name="pra gnt"><rect x="694.83" width="332.41" height="138.19"/><rect x="69.72" y="154.1" width="1038.31" height="138.19"/><rect y="308.06" width="959.46" height="138.19"/><path d="M181.36,119.72V56h24.85a35,35,0,0,1,14.29,2.64,20.27,20.27,0,0,1,9.1,7.64,21.8,21.8,0,0,1,3.19,11.93A21.56,21.56,0,0,1,229.6,90.1a20.65,20.65,0,0,1-9.1,7.64,34.45,34.45,0,0,1-14.29,2.69H186.37l4.09-4.28v23.57Zm9.1-22.66-4.09-4.55h19.57q8.73,0,13.24-3.73t4.51-10.56q0-6.82-4.51-10.56t-13.24-3.73H186.37l4.09-4.55Z" transform="translate(-14.32)"/><path d="M249.08,119.72V71.48h8.37V84.59l-.82-3.28a14.85,14.85,0,0,1,6.74-7.64A23.61,23.61,0,0,1,275,71v8.46a6.38,6.38,0,0,0-1-.09h-1q-7,0-11.11,4.19t-4.09,12.1v24Z" transform="translate(-14.32)"/><path d="M301.33,120.27a22.78,22.78,0,0,1-9.42-1.82,14.43,14.43,0,0,1-6.24-5,12.77,12.77,0,0,1-2.18-7.33,13.84,13.84,0,0,1,1.86-7.1,13,13,0,0,1,6.1-5.1Q295.68,92,302.87,92h15.29v6.28H303.24c-4.37,0-7.32.73-8.83,2.19a7,7,0,0,0-2.28,5.28A6.8,6.8,0,0,0,295,111.4q2.82,2.13,7.83,2.13a16.49,16.49,0,0,0,8.6-2.18,12.43,12.43,0,0,0,5.33-6.37l1.73,6a13.63,13.63,0,0,1-6.1,6.79A21.9,21.9,0,0,1,301.33,120.27Zm15.83-.55V109.53l-.45-1.91V90.23q0-5.55-3.23-8.6t-9.7-3A25.54,25.54,0,0,0,295.41,80a21.53,21.53,0,0,0-6.92,3.78l-3.64-6.55a26.24,26.24,0,0,1,9-4.6,37.49,37.49,0,0,1,11-1.59q9.93,0,15.3,4.82t5.37,14.75v29.12Z" transform="translate(-14.32)"/><path d="M396.17,117.72a26.07,26.07,0,0,1-12.52-3,22.51,22.51,0,0,1-8.73-8.23,22.86,22.86,0,0,1-3.24-12.2,22.78,22.78,0,0,1,3.24-12.24,22.31,22.31,0,0,1,8.73-8.15A26.4,26.4,0,0,1,396.17,71a25.25,25.25,0,0,1,11.29,2.5,19.12,19.12,0,0,1,8.14,7.69q3,5.19,3,13.11t-3,13a19.73,19.73,0,0,1-8.14,7.79A24.52,24.52,0,0,1,396.17,117.72Zm1.09,20.21a44.84,44.84,0,0,1-12.88-1.87,26.62,26.62,0,0,1-10.15-5.32l4.19-6.74a24.94,24.94,0,0,0,8.28,4.6A31.62,31.62,0,0,0,397,130.28q8.55,0,12.56-4t4-12.2V103.89l.91-9.56L414,84.68V71.48h8.28v41.69q0,12.74-6.37,18.75T397.26,137.93Zm-.09-27.86a17.77,17.77,0,0,0,8.56-2,15,15,0,0,0,5.87-5.55,16.74,16.74,0,0,0,0-16.38,14.77,14.77,0,0,0-5.87-5.51,18.22,18.22,0,0,0-8.56-2,18.47,18.47,0,0,0-8.6,2,14.64,14.64,0,0,0-5.92,5.51,16.74,16.74,0,0,0,0,16.38,14.87,14.87,0,0,0,5.92,5.55A18,18,0,0,0,397.17,110.07Z" transform="translate(-14.32)"/><path d="M465.44,120.27a28,28,0,0,1-13.61-3.19,22.85,22.85,0,0,1-9.1-8.73,24.82,24.82,0,0,1-3.24-12.75,25.46,25.46,0,0,1,3.14-12.74,22.71,22.71,0,0,1,8.65-8.69,26.24,26.24,0,0,1,24.8,0,21.94,21.94,0,0,1,8.42,8.69,26.85,26.85,0,0,1,3.05,13.07c0,.36,0,.78,0,1.27s-.08.94-.14,1.37H446.32V92.23h36.5l-3.55,2.19a16.24,16.24,0,0,0-1.91-8.28,14.57,14.57,0,0,0-5.51-5.69,17.13,17.13,0,0,0-16.25,0,14.44,14.44,0,0,0-5.55,5.73,17.43,17.43,0,0,0-2,8.42v1.46a16.55,16.55,0,0,0,2.23,8.6,15.27,15.27,0,0,0,6.23,5.87,19.53,19.53,0,0,0,9.2,2.09,20.12,20.12,0,0,0,7.78-1.45,17,17,0,0,0,6.14-4.37l4.83,5.64a21.21,21.21,0,0,1-8.15,5.83A28.41,28.41,0,0,1,465.44,120.27Z" transform="translate(-14.32)"/><path d="M530.42,71a22.94,22.94,0,0,1,10.43,2.27,16.39,16.39,0,0,1,7,6.92A24.21,24.21,0,0,1,550.45,92v27.76h-8.74V93q0-7-3.41-10.56t-9.6-3.55a17.11,17.11,0,0,0-8.11,1.83,12.43,12.43,0,0,0-5.32,5.37,18.84,18.84,0,0,0-1.87,8.82v24.85h-8.73V71.48H513v13L511.67,81A16.74,16.74,0,0,1,519,73.67,23.85,23.85,0,0,1,530.42,71Z" transform="translate(-14.32)"/><path d="M564.74,78.67V71.48H595.5v7.19Zm23.48,41.6q-7.28,0-11.28-3.91t-4-11.2V60.92h8.74V104.8a8.42,8.42,0,0,0,2,6,7.26,7.26,0,0,0,5.59,2.1,10.3,10.3,0,0,0,6.83-2.28l2.73,6.28a12.64,12.64,0,0,1-4.78,2.55A20.14,20.14,0,0,1,588.22,120.27Z" transform="translate(-14.32)"/><path d="M634.19,120.27a28,28,0,0,1-13.61-3.19,22.91,22.91,0,0,1-9.1-8.73,24.81,24.81,0,0,1-3.23-12.75,25.36,25.36,0,0,1,3.14-12.74A22.57,22.57,0,0,1,620,74.17a26.24,26.24,0,0,1,24.8,0,22,22,0,0,1,8.42,8.69,27,27,0,0,1,3,13.07c0,.36,0,.78,0,1.27s-.08.94-.14,1.37h-41V92.23h36.5L648,94.42a16.14,16.14,0,0,0-1.91-8.28,14.55,14.55,0,0,0-5.5-5.69,17.13,17.13,0,0,0-16.25,0,14.31,14.31,0,0,0-5.55,5.73,17.33,17.33,0,0,0-2,8.42v1.46a16.65,16.65,0,0,0,2.23,8.6,15.3,15.3,0,0,0,6.24,5.87,19.49,19.49,0,0,0,9.19,2.09,20.08,20.08,0,0,0,7.78-1.45,17.05,17.05,0,0,0,6.15-4.37l4.82,5.64a21.17,21.17,0,0,1-8.14,5.83A28.49,28.49,0,0,1,634.19,120.27Z" transform="translate(-14.32)"/><path d="M670,133.19l4.55-18.38,1.18,5.28a6.26,6.26,0,0,1-4.41-1.64A5.78,5.78,0,0,1,669.5,114a6,6,0,0,1,6.1-6.19,5.56,5.56,0,0,1,4.28,1.77,6.3,6.3,0,0,1,1.64,4.42,11.33,11.33,0,0,1-.14,1.77,18.1,18.1,0,0,1-.45,2c-.22.76-.53,1.68-1,2.77l-4.28,12.65Z" transform="translate(-14.32)"/><path class="cls-1" d="M767.74,51.86A31.87,31.87,0,0,1,782.26,55a22.79,22.79,0,0,1,9.83,9.64q3.55,6.47,3.55,16.36v38.69H783.46V82.43q0-9.77-4.75-14.71t-13.38-4.95A23.78,23.78,0,0,0,754,65.31a17.29,17.29,0,0,0-7.42,7.48A26.16,26.16,0,0,0,744,85.09v34.63H731.84V52.49h11.67V70.63l-1.91-4.82a23.41,23.41,0,0,1,10.15-10.27A33.34,33.34,0,0,1,767.74,51.86Z" transform="translate(-14.32)"/><path class="cls-1" d="M844.86,120.48A31.78,31.78,0,0,1,831.73,118a20.16,20.16,0,0,1-8.69-7,17.81,17.81,0,0,1-3-10.21,19.16,19.16,0,0,1,2.6-9.9,17.92,17.92,0,0,1,8.5-7.1Q837,81,847,81h21.31v8.76H847.52q-9.13,0-12.3,3a9.8,9.8,0,0,0-3.17,7.36,9.46,9.46,0,0,0,3.93,7.93q3.93,3,10.91,3a23.11,23.11,0,0,0,12-3,17.38,17.38,0,0,0,7.42-8.88l2.41,8.38a19,19,0,0,1-8.5,9.45Q854.12,120.48,844.86,120.48Zm22.07-.76v-14.2l-.63-2.67V78.62q0-7.73-4.51-12t-13.51-4.25a35.65,35.65,0,0,0-11.67,2A30.27,30.27,0,0,0,827,69.62l-5.07-9.14a36.78,36.78,0,0,1,12.49-6.4,52.26,52.26,0,0,1,15.29-2.22q13.83,0,21.31,6.72t7.48,20.55v40.59Zm-7.48-77.37a11.21,11.21,0,0,1-5.39-1.27,22,22,0,0,1-4.25-3,42.52,42.52,0,0,0-3.68-3,6.13,6.13,0,0,0-3.55-1.26,5.52,5.52,0,0,0-4.51,2.09,10,10,0,0,0-2,5.77h-6.85q.24-7.1,3.55-11.29a10.72,10.72,0,0,1,8.88-4.19,11,11,0,0,1,5.45,1.34,22.9,22.9,0,0,1,4.31,3c1.27,1.14,2.48,2.14,3.62,3a5.82,5.82,0,0,0,8-.76A8.67,8.67,0,0,0,865,27.25h6.85q-.14,6.72-3.49,10.91A10.89,10.89,0,0,1,859.45,42.35Z" transform="translate(-14.32)"/><path class="cls-1" d="M936.82,120.48a36,36,0,0,1-18-4.44,32.7,32.7,0,0,1-12.49-12.24,34.31,34.31,0,0,1-4.57-17.69,33.92,33.92,0,0,1,4.57-17.7A33.22,33.22,0,0,1,918.81,56.3a36,36,0,0,1,18-4.44,36.58,36.58,0,0,1,17.95,4.37A32,32,0,0,1,967.2,68.35a34.69,34.69,0,0,1,4.51,17.76,34.69,34.69,0,0,1-4.51,17.76A32.3,32.3,0,0,1,954.77,116,36,36,0,0,1,936.82,120.48Zm0-10.65a23,23,0,0,0,11.61-2.92,20.55,20.55,0,0,0,8.06-8.31,25.86,25.86,0,0,0,2.91-12.49,25.46,25.46,0,0,0-2.91-12.5,20.92,20.92,0,0,0-8.06-8.18,23.15,23.15,0,0,0-11.61-2.92,22.78,22.78,0,0,0-11.54,2.92,22,22,0,0,0-8.12,8.18,24.55,24.55,0,0,0-3,12.5,24.93,24.93,0,0,0,3,12.49,21.56,21.56,0,0,0,8.12,8.31A22.68,22.68,0,0,0,936.82,109.83Z" transform="translate(-14.32)"/><path class="cls-1" d="M143,272.7a39.11,39.11,0,0,1-19-4.44,32,32,0,0,1-12.69-12.17,34.68,34.68,0,0,1-4.5-17.76,35.53,35.53,0,0,1,4.37-17.76,31.67,31.67,0,0,1,12-12.12,34.42,34.42,0,0,1,17.32-4.37,34,34,0,0,1,17.25,4.31,30.52,30.52,0,0,1,11.73,12.11,37.43,37.43,0,0,1,4.25,18.21c0,.5,0,1.1-.06,1.77s-.11,1.32-.19,1.91H116.37v-8.76h50.87l-5,3.05a22.68,22.68,0,0,0-2.66-11.55,20.31,20.31,0,0,0-7.68-7.92,23.83,23.83,0,0,0-22.64,0,20,20,0,0,0-7.74,8,24.18,24.18,0,0,0-2.79,11.73v2a23.17,23.17,0,0,0,3.11,12,21.3,21.3,0,0,0,8.69,8.18,27.18,27.18,0,0,0,12.81,2.92,28.11,28.11,0,0,0,10.85-2,23.78,23.78,0,0,0,8.56-6.09l6.72,7.86a29.35,29.35,0,0,1-11.35,8.12A39.56,39.56,0,0,1,143,272.7Z" transform="translate(-14.32)"/><path class="cls-1" d="M186,271.94l28.92-37.54-.12,6.21-27.53-35.9h13.57l21.06,27.65h-5.2l21.06-27.65h13.31l-27.9,36.15.12-6.46,29.18,37.54H238.65l-22.2-29.43,5,.76-21.82,28.67Z" transform="translate(-14.32)"/><path class="cls-1" d="M278.86,191.77a8.13,8.13,0,0,1-5.9-2.28,7.49,7.49,0,0,1-2.34-5.58A7.65,7.65,0,0,1,273,178.2a8.13,8.13,0,0,1,5.9-2.28,8.24,8.24,0,0,1,5.9,2.22,7.27,7.27,0,0,1,2.35,5.51,7.9,7.9,0,0,1-8.25,8.12Zm-6.09,80.17V204.71H285v67.23Z" transform="translate(-14.32)"/><path class="cls-1" d="M334.42,272.7a54.76,54.76,0,0,1-15.92-2.28,37.37,37.37,0,0,1-11.86-5.58l5.08-9.64a41.87,41.87,0,0,0,10.65,4.95,42.29,42.29,0,0,0,12.94,2c5.66,0,9.75-.8,12.24-2.41a7.57,7.57,0,0,0,3.74-6.72,5.93,5.93,0,0,0-2.28-4.95,15.57,15.57,0,0,0-6-2.66q-3.74-.88-8.3-1.58c-3.05-.47-6.09-1.06-9.14-1.78a36.56,36.56,0,0,1-8.37-3,15.83,15.83,0,0,1-6.09-5.46q-2.28-3.48-2.28-9.32a17.31,17.31,0,0,1,3.42-10.66,21.78,21.78,0,0,1,9.71-7,40.54,40.54,0,0,1,14.9-2.47,59,59,0,0,1,13.38,1.58,33.1,33.1,0,0,1,11.1,4.51l-5.2,9.64a28.64,28.64,0,0,0-9.51-4.19,44,44,0,0,0-9.9-1.14q-8,0-11.92,2.6t-3.93,6.66A6.27,6.27,0,0,0,323.2,229a16.93,16.93,0,0,0,6.08,2.86,73.91,73.91,0,0,0,8.31,1.71c3.05.47,6.09,1.06,9.14,1.78a37.22,37.22,0,0,1,8.31,3,16.11,16.11,0,0,1,6.08,5.32c1.57,2.29,2.35,5.33,2.35,9.14a16.33,16.33,0,0,1-3.55,10.53,23,23,0,0,1-10,6.91A43.37,43.37,0,0,1,334.42,272.7Z" transform="translate(-14.32)"/><path class="cls-1" d="M376,214.73v-10H418.9v10Zm32.72,58q-10.14,0-15.73-5.45t-5.58-15.6V190h12.18v61.14q0,5.46,2.73,8.37t7.8,2.92a14.37,14.37,0,0,0,9.51-3.17l3.81,8.75a17.63,17.63,0,0,1-6.66,3.55A28.39,28.39,0,0,1,408.75,272.7Z" transform="translate(-14.32)"/><path class="cls-1" d="M472.81,272.7a39.11,39.11,0,0,1-19-4.44,32,32,0,0,1-12.69-12.17,34.68,34.68,0,0,1-4.5-17.76A35.43,35.43,0,0,1,441,220.57a31.53,31.53,0,0,1,12-12.12,34.36,34.36,0,0,1,17.31-4.37,34,34,0,0,1,17.25,4.31,30.61,30.61,0,0,1,11.74,12.11,37.54,37.54,0,0,1,4.25,18.21c0,.5,0,1.1-.07,1.77s-.1,1.32-.19,1.91H446.17v-8.76H497l-5,3.05a22.58,22.58,0,0,0-2.66-11.55,20.36,20.36,0,0,0-7.67-7.92,23.85,23.85,0,0,0-22.65,0,20,20,0,0,0-7.74,8,24.18,24.18,0,0,0-2.79,11.73v2a23.17,23.17,0,0,0,3.11,12,21.3,21.3,0,0,0,8.69,8.18,27.18,27.18,0,0,0,12.81,2.92A28.08,28.08,0,0,0,484,260a23.7,23.7,0,0,0,8.56-6.09l6.72,7.86A29.35,29.35,0,0,1,488,269.91,39.52,39.52,0,0,1,472.81,272.7Z" transform="translate(-14.32)"/><path class="cls-1" d="M597.38,272.7a36.09,36.09,0,0,1-18-4.44A32.8,32.8,0,0,1,566.93,256a34.4,34.4,0,0,1-4.56-17.69,34,34,0,0,1,4.56-17.7,33.25,33.25,0,0,1,12.44-12.11,36,36,0,0,1,18-4.44,36.61,36.61,0,0,1,18,4.37,32,32,0,0,1,12.43,12.12,37.3,37.3,0,0,1,0,35.52,32.51,32.51,0,0,1-12.43,12.17A36.11,36.11,0,0,1,597.38,272.7Zm0-10.65A23.07,23.07,0,0,0,609,259.13a20.59,20.59,0,0,0,8-8.31A25.89,25.89,0,0,0,620,238.33a25.47,25.47,0,0,0-2.92-12.5,20.9,20.9,0,0,0-8-8.18,23.17,23.17,0,0,0-11.61-2.92,22.78,22.78,0,0,0-11.54,2.92,21.84,21.84,0,0,0-8.12,8.18,24.55,24.55,0,0,0-3.05,12.5,25,25,0,0,0,3.05,12.49,21.49,21.49,0,0,0,8.12,8.31A22.68,22.68,0,0,0,597.38,262.05Z" transform="translate(-14.32)"/><path class="cls-1" d="M726.51,272.7a37.34,37.34,0,0,1-18.33-4.44,32.68,32.68,0,0,1-12.62-12.17,36.79,36.79,0,0,1,0-35.52,32.2,32.2,0,0,1,12.62-12.12,37.85,37.85,0,0,1,18.33-4.37,35.7,35.7,0,0,1,16.3,3.61,25.64,25.64,0,0,1,11.1,10.72l-9.26,6a20.71,20.71,0,0,0-8.06-7.29,22.81,22.81,0,0,0-10.21-2.35,23.7,23.7,0,0,0-11.79,2.92,21.6,21.6,0,0,0-8.25,8.18,24.55,24.55,0,0,0-3,12.5,24.91,24.91,0,0,0,3,12.56,21.42,21.42,0,0,0,8.25,8.24,23.59,23.59,0,0,0,11.79,2.92,22.68,22.68,0,0,0,10.21-2.35,20.56,20.56,0,0,0,8.06-7.29l9.26,5.83A26.56,26.56,0,0,1,742.81,269,34.63,34.63,0,0,1,726.51,272.7Z" transform="translate(-14.32)"/><path class="cls-1" d="M805.54,272.7a39.18,39.18,0,0,1-19-4.44,32,32,0,0,1-12.68-12.17,34.59,34.59,0,0,1-4.51-17.76,35.43,35.43,0,0,1,4.38-17.76,31.6,31.6,0,0,1,12-12.12,34.42,34.42,0,0,1,17.32-4.37,34,34,0,0,1,17.25,4.31,30.52,30.52,0,0,1,11.73,12.11,37.54,37.54,0,0,1,4.25,18.21c0,.5,0,1.1-.06,1.77s-.11,1.32-.19,1.91H778.9v-8.76h50.86l-4.94,3.05a22.69,22.69,0,0,0-2.67-11.55,20.36,20.36,0,0,0-7.67-7.92,23.83,23.83,0,0,0-22.64,0,20,20,0,0,0-7.74,8,24.18,24.18,0,0,0-2.79,11.73v2a23.07,23.07,0,0,0,3.11,12,21.24,21.24,0,0,0,8.69,8.18,27.18,27.18,0,0,0,12.81,2.92,28,28,0,0,0,10.84-2,23.73,23.73,0,0,0,8.57-6.09l6.72,7.86a29.39,29.39,0,0,1-11.36,8.12A39.47,39.47,0,0,1,805.54,272.7Z" transform="translate(-14.32)"/><path class="cls-1" d="M860.21,271.94V204.71h11.67V223l-1.14-4.57a20.65,20.65,0,0,1,9.38-10.65q6.6-3.69,16.24-3.68v11.79a9.37,9.37,0,0,0-1.46-.12h-1.33q-9.77,0-15.48,5.83t-5.7,16.87v33.49Z" transform="translate(-14.32)"/><path class="cls-1" d="M911.45,214.73v-10h42.88v10Zm32.73,58q-10.14,0-15.73-5.45t-5.58-15.6V190h12.18v61.14q0,5.46,2.73,8.37t7.8,2.92a14.39,14.39,0,0,0,9.51-3.17L958.9,268a17.63,17.63,0,0,1-6.66,3.55A28.39,28.39,0,0,1,944.18,272.7Z" transform="translate(-14.32)"/><path class="cls-1" d="M1007.1,272.7a36.09,36.09,0,0,1-18-4.44A32.71,32.71,0,0,1,976.66,256a34.31,34.31,0,0,1-4.57-17.69,33.92,33.92,0,0,1,4.57-17.7,33.15,33.15,0,0,1,12.43-12.11,36,36,0,0,1,18-4.44,36.61,36.61,0,0,1,17.95,4.37,32,32,0,0,1,12.43,12.12,37.3,37.3,0,0,1,0,35.52,32.51,32.51,0,0,1-12.43,12.17A36.11,36.11,0,0,1,1007.1,272.7Zm0-10.65a23,23,0,0,0,11.6-2.92,20.55,20.55,0,0,0,8.06-8.31,25.89,25.89,0,0,0,2.92-12.49,25.47,25.47,0,0,0-2.92-12.5,20.86,20.86,0,0,0-8.06-8.18,23.11,23.11,0,0,0-11.6-2.92,22.78,22.78,0,0,0-11.54,2.92,21.84,21.84,0,0,0-8.12,8.18,24.55,24.55,0,0,0-3.05,12.5,25,25,0,0,0,3.05,12.49,21.49,21.49,0,0,0,8.12,8.31A22.68,22.68,0,0,0,1007.1,262.05Z" transform="translate(-14.32)"/><path class="cls-1" d="M72.18,356.3a31.88,31.88,0,0,1,14.53,3.17,22.79,22.79,0,0,1,9.83,9.64q3.54,6.47,3.55,16.36v38.69H87.91V386.87q0-9.76-4.76-14.72t-13.38-4.94a23.92,23.92,0,0,0-11.29,2.53,17.42,17.42,0,0,0-7.42,7.49,26.28,26.28,0,0,0-2.6,12.3v34.63H36.28V356.93H48v18.14l-1.9-4.82A23.31,23.31,0,0,1,56.2,360,33.19,33.19,0,0,1,72.18,356.3Z" transform="translate(-14.32)"/><path class="cls-1" d="M159.58,424.92a39.11,39.11,0,0,1-19-4.44,32,32,0,0,1-12.69-12.18,34.62,34.62,0,0,1-4.5-17.75,35.43,35.43,0,0,1,4.38-17.76,31.53,31.53,0,0,1,12.05-12.12,34.36,34.36,0,0,1,17.31-4.37,33.88,33.88,0,0,1,17.25,4.31,30.55,30.55,0,0,1,11.74,12.11,37.51,37.51,0,0,1,4.25,18.21c0,.5,0,1.1-.07,1.77s-.11,1.31-.19,1.91H132.94v-8.76h50.87l-4.95,3a22.68,22.68,0,0,0-2.66-11.55,20.31,20.31,0,0,0-7.68-7.92,23.83,23.83,0,0,0-22.64,0,20,20,0,0,0-7.74,8,24.16,24.16,0,0,0-2.79,11.73v2a23.17,23.17,0,0,0,3.11,12,21.37,21.37,0,0,0,8.69,8.18A27.18,27.18,0,0,0,160,414.27a28.11,28.11,0,0,0,10.85-2,23.7,23.7,0,0,0,8.56-6.09l6.72,7.86a29.35,29.35,0,0,1-11.35,8.12A39.56,39.56,0,0,1,159.58,424.92Z" transform="translate(-14.32)"/><path class="cls-1" d="M298.35,356.3a31.22,31.22,0,0,1,14.34,3.17,22.45,22.45,0,0,1,9.7,9.64q3.5,6.47,3.49,16.36v38.69H313.7V386.87q0-9.76-4.56-14.72t-12.82-4.94a21.59,21.59,0,0,0-10.65,2.53,17,17,0,0,0-7,7.49,27.36,27.36,0,0,0-2.47,12.3v34.63H264V386.87q0-9.76-4.51-14.72t-12.87-4.94a21.34,21.34,0,0,0-10.53,2.53,17.45,17.45,0,0,0-7.1,7.49,26.68,26.68,0,0,0-2.54,12.3v34.63H214.25V356.93h11.67v17.89l-1.9-4.57A22.86,22.86,0,0,1,233.79,360a30.89,30.89,0,0,1,15.35-3.68,28.77,28.77,0,0,1,16.61,4.75q7,4.76,9.14,14.4l-4.95-2A25.25,25.25,0,0,1,280.6,361,33.1,33.1,0,0,1,298.35,356.3Z" transform="translate(-14.32)"/><path class="cls-1" d="M425.2,424.92a36.11,36.11,0,0,1-17.95-4.44,32.77,32.77,0,0,1-12.49-12.24,34.31,34.31,0,0,1-4.57-17.69,33.92,33.92,0,0,1,4.57-17.7,33.07,33.07,0,0,1,12.43-12.11,36,36,0,0,1,18-4.44,36.61,36.61,0,0,1,17.95,4.37,32,32,0,0,1,12.43,12.12,37.2,37.2,0,0,1,0,35.51,32.47,32.47,0,0,1-12.43,12.18A36.11,36.11,0,0,1,425.2,424.92Zm0-10.65a23.07,23.07,0,0,0,11.61-2.92,20.59,20.59,0,0,0,8.05-8.31,25.78,25.78,0,0,0,2.92-12.49,25.36,25.36,0,0,0-2.92-12.5,20.83,20.83,0,0,0-8.05-8.18A23.17,23.17,0,0,0,425.2,367a22.78,22.78,0,0,0-11.54,2.92,21.91,21.91,0,0,0-8.12,8.18,24.55,24.55,0,0,0-3,12.5,25,25,0,0,0,3,12.49,21.63,21.63,0,0,0,8.12,8.31A22.68,22.68,0,0,0,425.2,414.27Z" transform="translate(-14.32)"/><path class="cls-1" d="M555,424.92a39.18,39.18,0,0,1-19-4.44,32,32,0,0,1-12.68-12.18,34.62,34.62,0,0,1-4.5-17.75,35.43,35.43,0,0,1,4.37-17.76,31.6,31.6,0,0,1,12-12.12,34.42,34.42,0,0,1,17.32-4.37,33.88,33.88,0,0,1,17.25,4.31,30.46,30.46,0,0,1,11.73,12.11,37.51,37.51,0,0,1,4.25,18.21c0,.5,0,1.1-.06,1.77s-.11,1.31-.19,1.91H528.33v-8.76H579.2l-5,3a22.69,22.69,0,0,0-2.67-11.55,20.36,20.36,0,0,0-7.67-7.92,23.83,23.83,0,0,0-22.64,0,20,20,0,0,0-7.74,8,24.16,24.16,0,0,0-2.79,11.73v2a23.07,23.07,0,0,0,3.11,12,21.31,21.31,0,0,0,8.69,8.18,27.18,27.18,0,0,0,12.81,2.92,28,28,0,0,0,10.84-2,23.73,23.73,0,0,0,8.57-6.09l6.72,7.86a29.42,29.42,0,0,1-11.35,8.12A39.56,39.56,0,0,1,555,424.92Z" transform="translate(-14.32)"/><path class="cls-1" d="M609.64,424.16V356.93h11.67V375.2l-1.14-4.57A20.65,20.65,0,0,1,629.55,360q6.6-3.69,16.24-3.68v11.79a9.37,9.37,0,0,0-1.46-.12H643q-9.76,0-15.47,5.83t-5.71,16.87v33.49Z" transform="translate(-14.32)"/><path class="cls-1" d="M667.74,424.16V356.93h11.67V375.2l-1.15-4.57A20.63,20.63,0,0,1,687.65,360q6.6-3.69,16.24-3.68v11.79a9.46,9.46,0,0,0-1.46-.12H701.1q-9.78,0-15.48,5.83t-5.71,16.87v33.49Z" transform="translate(-14.32)"/><path class="cls-1" d="M740.55,424.92a31.61,31.61,0,0,1-13.13-2.54,20.09,20.09,0,0,1-8.69-7,17.78,17.78,0,0,1-3-10.21,19.15,19.15,0,0,1,2.6-9.89,17.94,17.94,0,0,1,8.49-7.1q5.91-2.67,15.92-2.67H764v8.75h-20.8q-9.13,0-12.3,3a9.8,9.8,0,0,0-3.17,7.36,9.44,9.44,0,0,0,3.93,7.92q3.93,3,10.91,3a23,23,0,0,0,12-3,17.35,17.35,0,0,0,7.43-8.88L764.4,412a18.91,18.91,0,0,1-8.5,9.45Q749.81,424.92,740.55,424.92Zm22.07-.76V410l-.63-2.66V383.06q0-7.74-4.51-12T744,366.82a35.66,35.66,0,0,0-11.67,2,30.07,30.07,0,0,0-9.64,5.27l-5.07-9.14a36.68,36.68,0,0,1,12.49-6.4,52.21,52.21,0,0,1,15.29-2.22q13.82,0,21.31,6.72t7.48,20.55v40.59Z" transform="translate(-14.32)"/><path class="cls-1" d="M831.5,424.92a35.05,35.05,0,0,1-17.45-4.31,31.64,31.64,0,0,1-12.11-12.05,35.55,35.55,0,0,1-4.44-18,35.19,35.19,0,0,1,4.44-17.95,31.69,31.69,0,0,1,12.11-12,35,35,0,0,1,17.45-4.31,31.1,31.1,0,0,1,15.34,3.8,27.79,27.79,0,0,1,11,11.42q4.11,7.61,4.12,19t-4,19a27.39,27.39,0,0,1-10.84,11.48A31.18,31.18,0,0,1,831.5,424.92Zm1-10.65A22.77,22.77,0,0,0,844,411.35a21,21,0,0,0,8.12-8.31,25.47,25.47,0,0,0,3-12.49,25,25,0,0,0-3-12.5,21.28,21.28,0,0,0-8.12-8.18,24.14,24.14,0,0,0-23,0,21.84,21.84,0,0,0-8.12,8.18,24.55,24.55,0,0,0-3.05,12.5A25,25,0,0,0,812.85,403a21.56,21.56,0,0,0,8.12,8.31A22.68,22.68,0,0,0,832.51,414.27Zm23,9.89V406l.76-15.6L855,374.82V330h12.18v94.12Z" transform="translate(-14.32)"/><path class="cls-1" d="M926,424.92a36.09,36.09,0,0,1-18-4.44,32.8,32.8,0,0,1-12.5-12.24A34.4,34.4,0,0,1,891,390.55a34,34,0,0,1,4.56-17.7A33.17,33.17,0,0,1,908,360.74a36,36,0,0,1,18-4.44,36.61,36.61,0,0,1,18,4.37,32,32,0,0,1,12.43,12.12,37.28,37.28,0,0,1,0,35.51A32.47,32.47,0,0,1,944,420.48,36.11,36.11,0,0,1,926,424.92Zm0-10.65a23,23,0,0,0,11.6-2.92,20.62,20.62,0,0,0,8.06-8.31,25.89,25.89,0,0,0,2.92-12.49,25.47,25.47,0,0,0-2.92-12.5,20.86,20.86,0,0,0-8.06-8.18A23.11,23.11,0,0,0,926,367a22.84,22.84,0,0,0-11.55,2.92,21.88,21.88,0,0,0-8.11,8.18,24.55,24.55,0,0,0-3.05,12.5A25,25,0,0,0,906.34,403a21.61,21.61,0,0,0,8.11,8.31A22.74,22.74,0,0,0,926,414.27Z" transform="translate(-14.32)"/><path d="M1036.72,375.46a22.77,22.77,0,0,1,10.42,2.28,16.34,16.34,0,0,1,7,6.92,24.18,24.18,0,0,1,2.55,11.74v27.76H1048V397.4q0-7-3.41-10.56c-2.27-2.36-5.48-3.55-9.6-3.55a17.16,17.16,0,0,0-8.1,1.82,12.56,12.56,0,0,0-5.33,5.37,18.89,18.89,0,0,0-1.86,8.83v24.85H1011V375.92h8.37v13l-1.36-3.46a16.69,16.69,0,0,1,7.28-7.38A23.89,23.89,0,0,1,1036.72,375.46Z" transform="translate(-14.32)"/><path d="M1092.06,424.71a22.84,22.84,0,0,1-9.42-1.82,14.5,14.5,0,0,1-6.24-5.06,12.79,12.79,0,0,1-2.18-7.32,13.81,13.81,0,0,1,1.86-7.1,12.91,12.91,0,0,1,6.1-5.1q4.23-1.9,11.43-1.91h15.29v6.28H1094q-6.56,0-8.83,2.18a7,7,0,0,0-2.27,5.28,6.78,6.78,0,0,0,2.82,5.69q2.82,2.15,7.83,2.14a16.63,16.63,0,0,0,8.6-2.18,12.41,12.41,0,0,0,5.32-6.37l1.73,6a13.48,13.48,0,0,1-6.1,6.78A21.88,21.88,0,0,1,1092.06,424.71Zm15.84-.55V414l-.46-1.91V394.67q0-5.55-3.23-8.6t-9.69-3.05a25.55,25.55,0,0,0-8.38,1.41,21.48,21.48,0,0,0-6.91,3.78l-3.65-6.56a26.4,26.4,0,0,1,9-4.59,37.56,37.56,0,0,1,11-1.6q9.92,0,15.29,4.83t5.37,14.74v29.13Z" transform="translate(-14.32)"/><path d="M159.37,484.69A22.8,22.8,0,0,1,169.79,487a16.32,16.32,0,0,1,7.05,6.91,24.21,24.21,0,0,1,2.55,11.74v27.77h-8.74V506.63q0-7-3.41-10.56t-9.6-3.55a17,17,0,0,0-8.1,1.82,12.4,12.4,0,0,0-5.33,5.37,18.86,18.86,0,0,0-1.87,8.83v24.85h-8.73V465.85h8.73v32.31l-1.73-3.46a16.79,16.79,0,0,1,7.29-7.37A23.86,23.86,0,0,1,159.37,484.69Z" transform="translate(-14.32)"/><path d="M221.26,533.93a26,26,0,0,1-12.88-3.18,23.66,23.66,0,0,1-9-8.79,24.68,24.68,0,0,1-3.27-12.69,24.38,24.38,0,0,1,3.27-12.7,23.8,23.8,0,0,1,8.93-8.69,25.73,25.73,0,0,1,12.92-3.19,26.24,26.24,0,0,1,12.88,3.14,22.93,22.93,0,0,1,8.92,8.69,26.76,26.76,0,0,1,0,25.49,23.33,23.33,0,0,1-8.92,8.74A26,26,0,0,1,221.26,533.93Zm0-7.64a16.55,16.55,0,0,0,8.33-2.1,14.75,14.75,0,0,0,5.78-6,18.61,18.61,0,0,0,2.09-9,18.3,18.3,0,0,0-2.09-9,15,15,0,0,0-5.78-5.87,16.54,16.54,0,0,0-8.33-2.09,16.25,16.25,0,0,0-8.28,2.09,15.72,15.72,0,0,0-5.83,5.87,17.69,17.69,0,0,0-2.18,9,18,18,0,0,0,2.18,9,15.47,15.47,0,0,0,5.83,6A16.26,16.26,0,0,0,221.26,526.29Z" transform="translate(-14.32)"/><path d="M263.4,533.39V485.15h8.38v13.1L271,495a14.81,14.81,0,0,1,6.73-7.65,23.64,23.64,0,0,1,11.65-2.64v8.46a7.7,7.7,0,0,0-1-.09h-1q-7,0-11.1,4.19t-4.1,12.11v24Z" transform="translate(-14.32)"/><path d="M315.65,533.93a22.68,22.68,0,0,1-9.42-1.82,14.41,14.41,0,0,1-6.24-5.05,12.82,12.82,0,0,1-2.18-7.33,13.84,13.84,0,0,1,1.86-7.1,13,13,0,0,1,6.1-5.09q4.23-1.92,11.43-1.92h15.29v6.28H317.56q-6.56,0-8.83,2.19a7,7,0,0,0-2.27,5.28,6.79,6.79,0,0,0,2.82,5.69c1.88,1.42,4.49,2.14,7.83,2.14a16.54,16.54,0,0,0,8.6-2.19,12.42,12.42,0,0,0,5.32-6.37l1.73,6a13.56,13.56,0,0,1-6.1,6.78A21.88,21.88,0,0,1,315.65,533.93Zm15.84-.54v-10.2l-.46-1.91V503.9c0-3.71-1.08-6.57-3.23-8.61s-5.39-3.05-9.69-3.05a25.57,25.57,0,0,0-8.38,1.42,21.82,21.82,0,0,0-6.92,3.77l-3.64-6.55a26.59,26.59,0,0,1,9-4.6,37.56,37.56,0,0,1,11-1.59q9.92,0,15.29,4.82t5.37,14.75v29.13Z" transform="translate(-14.32)"/><path d="M410.4,533.93a25.11,25.11,0,0,1-12.51-3.09,22.66,22.66,0,0,1-8.7-8.65A25.54,25.54,0,0,1,386,509.27a25.29,25.29,0,0,1,3.18-12.88,22.84,22.84,0,0,1,8.7-8.61,25.11,25.11,0,0,1,12.51-3.09,22.25,22.25,0,0,1,11,2.73,19.92,19.92,0,0,1,7.88,8.19q3,5.46,3,13.66t-2.87,13.65a19.71,19.71,0,0,1-7.78,8.24A22.39,22.39,0,0,1,410.4,533.93Zm.73-7.64a16.37,16.37,0,0,0,8.24-2.1,15,15,0,0,0,5.82-6,18.19,18.19,0,0,0,2.14-9,17.88,17.88,0,0,0-2.14-9,15.27,15.27,0,0,0-5.82-5.87,17.37,17.37,0,0,0-16.52,0A15.72,15.72,0,0,0,397,500.3a17.58,17.58,0,0,0-2.18,9,17.88,17.88,0,0,0,2.18,9,15.47,15.47,0,0,0,5.83,6A16.23,16.23,0,0,0,411.13,526.29Zm16.47,7.1v-13l.55-11.2L427.24,498V465.85H436v67.54Z" transform="translate(-14.32)"/><path d="M479,533.93a28.15,28.15,0,0,1-13.61-3.18,23,23,0,0,1-9.1-8.74,24.9,24.9,0,0,1-3.23-12.74,25.48,25.48,0,0,1,3.14-12.75,22.57,22.57,0,0,1,8.65-8.69,24.65,24.65,0,0,1,12.42-3.14,24.38,24.38,0,0,1,12.38,3.09,21.9,21.9,0,0,1,8.42,8.7,26.89,26.89,0,0,1,3,13.06c0,.36,0,.79,0,1.27s-.07.94-.13,1.37H459.92V505.9h36.5l-3.55,2.18A16.19,16.19,0,0,0,491,499.8a14.61,14.61,0,0,0-5.5-5.69,17.13,17.13,0,0,0-16.25,0,14.4,14.4,0,0,0-5.55,5.74,17.25,17.25,0,0,0-2,8.41v1.46a16.53,16.53,0,0,0,2.23,8.6,15.21,15.21,0,0,0,6.23,5.87,19.49,19.49,0,0,0,9.19,2.1,20.13,20.13,0,0,0,7.79-1.46,17.1,17.1,0,0,0,6.14-4.37l4.82,5.65a21.15,21.15,0,0,1-8.14,5.82A28.27,28.27,0,0,1,479,533.93Z" transform="translate(-14.32)"/><path d="M561.59,533.93a39,39,0,0,1-11.43-1.64,26.69,26.69,0,0,1-8.51-4l3.64-6.92a29.73,29.73,0,0,0,7.65,3.55,30.3,30.3,0,0,0,9.28,1.46q6.1,0,8.79-1.73a5.43,5.43,0,0,0,2.68-4.83,4.23,4.23,0,0,0-1.64-3.55,11.36,11.36,0,0,0-4.32-1.91q-2.68-.63-6-1.13c-2.19-.34-4.37-.76-6.56-1.28a25.86,25.86,0,0,1-6-2.18,11.34,11.34,0,0,1-4.37-3.92,12.09,12.09,0,0,1-1.64-6.69,12.36,12.36,0,0,1,2.46-7.64,15.62,15.62,0,0,1,7-5.06,29.21,29.21,0,0,1,10.7-1.77,42.06,42.06,0,0,1,9.6,1.14,23.79,23.79,0,0,1,8,3.23L577.15,496a20.58,20.58,0,0,0-6.83-3,31.77,31.77,0,0,0-7.1-.82c-3.82,0-6.67.63-8.55,1.87a5.56,5.56,0,0,0-2.82,4.78,4.52,4.52,0,0,0,1.68,3.78,12.07,12.07,0,0,0,4.37,2,52.36,52.36,0,0,0,6,1.23c2.19.34,4.37.76,6.56,1.28a26.38,26.38,0,0,1,6,2.14,11.6,11.6,0,0,1,4.37,3.82,11.42,11.42,0,0,1,1.68,6.55,11.75,11.75,0,0,1-2.55,7.56,16.55,16.55,0,0,1-7.19,5A31.18,31.18,0,0,1,561.59,533.93Z" transform="translate(-14.32)"/><path d="M619.84,533.93a28.15,28.15,0,0,1-13.61-3.18,23,23,0,0,1-9.1-8.74,24.8,24.8,0,0,1-3.23-12.74A25.48,25.48,0,0,1,597,496.52a22.57,22.57,0,0,1,8.65-8.69,24.65,24.65,0,0,1,12.42-3.14,24.38,24.38,0,0,1,12.38,3.09,22,22,0,0,1,8.42,8.7A26.89,26.89,0,0,1,642,509.54c0,.36,0,.79-.05,1.27s-.08.94-.13,1.37H600.72V505.9h36.5l-3.55,2.18a16.18,16.18,0,0,0-1.91-8.28,14.61,14.61,0,0,0-5.5-5.69,17.13,17.13,0,0,0-16.25,0,14.4,14.4,0,0,0-5.55,5.74,17.26,17.26,0,0,0-2,8.41v1.46a16.62,16.62,0,0,0,2.23,8.6,15.3,15.3,0,0,0,6.24,5.87,19.49,19.49,0,0,0,9.19,2.1,20.08,20.08,0,0,0,7.78-1.46,17.05,17.05,0,0,0,6.15-4.37l4.82,5.65a21.15,21.15,0,0,1-8.14,5.82A28.31,28.31,0,0,1,619.84,533.93Z" transform="translate(-14.32)"/><path d="M701.21,533.39,680.1,485.15h9.1L708,528.84h-4.37l19.11-43.69h8.56l-21.12,48.24Z" transform="translate(-14.32)"/><path d="M764.56,533.93A28.15,28.15,0,0,1,751,530.75a23,23,0,0,1-9.1-8.74,24.9,24.9,0,0,1-3.23-12.74,25.48,25.48,0,0,1,3.14-12.75,22.64,22.64,0,0,1,8.65-8.69,24.65,24.65,0,0,1,12.42-3.14,24.38,24.38,0,0,1,12.38,3.09,21.9,21.9,0,0,1,8.42,8.7,26.89,26.89,0,0,1,3,13.06c0,.36,0,.79,0,1.27s-.07.94-.13,1.37h-41V505.9H782l-3.55,2.18a16.28,16.28,0,0,0-1.91-8.28,14.71,14.71,0,0,0-5.51-5.69,17.13,17.13,0,0,0-16.25,0,14.46,14.46,0,0,0-5.55,5.74,17.25,17.25,0,0,0-2,8.41v1.46a16.53,16.53,0,0,0,2.23,8.6,15.21,15.21,0,0,0,6.23,5.87,19.52,19.52,0,0,0,9.19,2.1,20.13,20.13,0,0,0,7.79-1.46,17.1,17.1,0,0,0,6.14-4.37l4.82,5.65a21.15,21.15,0,0,1-8.14,5.82A28.27,28.27,0,0,1,764.56,533.93Z" transform="translate(-14.32)"/><path d="M817.63,533.93a39,39,0,0,1-11.43-1.64,26.8,26.8,0,0,1-8.51-4l3.64-6.92a29.89,29.89,0,0,0,7.65,3.55,30.3,30.3,0,0,0,9.28,1.46q6.11,0,8.79-1.73a5.43,5.43,0,0,0,2.68-4.83,4.23,4.23,0,0,0-1.64-3.55,11.36,11.36,0,0,0-4.32-1.91q-2.68-.63-6-1.13c-2.19-.34-4.37-.76-6.55-1.28a25.77,25.77,0,0,1-6-2.18,11.34,11.34,0,0,1-4.37-3.92,12.09,12.09,0,0,1-1.64-6.69,12.36,12.36,0,0,1,2.46-7.64,15.62,15.62,0,0,1,7-5.06,29.21,29.21,0,0,1,10.7-1.77,42.06,42.06,0,0,1,9.6,1.14,23.79,23.79,0,0,1,8,3.23L833.19,496a20.63,20.63,0,0,0-6.82-3,31.91,31.91,0,0,0-7.1-.82c-3.83,0-6.68.63-8.56,1.87a5.56,5.56,0,0,0-2.82,4.78,4.52,4.52,0,0,0,1.68,3.78,12.07,12.07,0,0,0,4.37,2,52.36,52.36,0,0,0,6,1.23c2.19.34,4.37.76,6.56,1.28a26.38,26.38,0,0,1,6,2.14,11.6,11.6,0,0,1,4.37,3.82,11.42,11.42,0,0,1,1.68,6.55,11.75,11.75,0,0,1-2.55,7.56,16.55,16.55,0,0,1-7.19,5A31.18,31.18,0,0,1,817.63,533.93Z" transform="translate(-14.32)"/><path d="M847.48,492.34v-7.19h30.77v7.19ZM871,533.93q-7.28,0-11.28-3.91t-4-11.2V474.59h8.74v43.87a8.46,8.46,0,0,0,2,6,7.3,7.3,0,0,0,5.6,2.09,10.27,10.27,0,0,0,6.82-2.28l2.73,6.29a12.54,12.54,0,0,1-4.78,2.54A20.14,20.14,0,0,1,871,533.93Z" transform="translate(-14.32)"/><path d="M901.46,475.86a5.82,5.82,0,0,1-4.24-1.64,5.36,5.36,0,0,1-1.68-4,5.49,5.49,0,0,1,1.68-4.1,5.86,5.86,0,0,1,4.24-1.64,6,6,0,0,1,4.23,1.6,5.23,5.23,0,0,1,1.68,4,5.68,5.68,0,0,1-5.91,5.82Zm-4.37,57.53V485.15h8.74v48.24Z" transform="translate(-14.32)"/><path d="M927.49,533.39V485.15h8.37v13.1L935,495a14.83,14.83,0,0,1,6.74-7.65,23.61,23.61,0,0,1,11.65-2.64v8.46a8,8,0,0,0-1-.09h-1q-7,0-11.11,4.19t-4.09,12.11v24Z" transform="translate(-14.32)"/><path d="M971,533.93a6.13,6.13,0,0,1-6.18-6.28,5.86,5.86,0,0,1,1.82-4.46,6.12,6.12,0,0,1,4.36-1.73,5.89,5.89,0,0,1,4.24,1.73,6,6,0,0,1,1.77,4.46,6.14,6.14,0,0,1-1.77,4.51A5.81,5.81,0,0,1,971,533.93Zm21.12,0a6.13,6.13,0,0,1-6.19-6.28,5.9,5.9,0,0,1,1.82-4.46,6.14,6.14,0,0,1,4.37-1.73,5.85,5.85,0,0,1,4.23,1.73,5.94,5.94,0,0,1,1.78,4.46,6.1,6.1,0,0,1-1.78,4.51A5.77,5.77,0,0,1,992.11,533.93Zm21.12,0a6.13,6.13,0,0,1-6.19-6.28,5.9,5.9,0,0,1,1.82-4.46,6.13,6.13,0,0,1,4.37-1.73,5.85,5.85,0,0,1,4.23,1.73,5.94,5.94,0,0,1,1.78,4.46,6.1,6.1,0,0,1-1.78,4.51A5.77,5.77,0,0,1,1013.23,533.93Z" transform="translate(-14.32)"/></g></g></g></svg>