<svg xmlns="http://www.w3.org/2000/svg" viewBox="0 0 732.29 352.49"><defs><style>.cls-1{fill:none;stroke:#727176;stroke-miterlimit:10;stroke-width:11px;opacity:0.2;}.cls-2{fill:#f7f7f8;}</style></defs><title>8</title><g id="Camada_2" data-name="Camada 2"><g id="Camada_1-2" data-name="Camada 1"><g id="nosso_estilo_" data-name="nosso estilo?"><rect class="cls-1" x="5.5" y="5.5" width="721.29" height="341.49"></rect><path class="cls-2" d="M71.07,157.76v-101H94.6L150.17,124H139.06V56.72h28v101H143.53L87.81,90.49H98.93v67.27Z"></path><path class="cls-2" d="M257.86,159.78a62.61,62.61,0,0,1-22.31-3.9A51.7,51.7,0,0,1,206,128.1a51.2,51.2,0,0,1-4.26-21A50.32,50.32,0,0,1,206,86.31a52.09,52.09,0,0,1,29.52-27.72,66.29,66.29,0,0,1,44.75,0,53.15,53.15,0,0,1,17.75,11,51.39,51.39,0,0,1,11.77,16.6A50.73,50.73,0,0,1,314,107.09a52.36,52.36,0,0,1-4.19,21.15,49.71,49.71,0,0,1-11.76,16.67,53.79,53.79,0,0,1-17.83,11A62.39,62.39,0,0,1,257.86,159.78Zm0-23.67a28.29,28.29,0,0,0,10.75-2,24.85,24.85,0,0,0,8.66-5.85,27.67,27.67,0,0,0,5.77-9.09,34.82,34.82,0,0,0,0-23.82,27.67,27.67,0,0,0-5.77-9.09,24.85,24.85,0,0,0-8.66-5.85,29.64,29.64,0,0,0-21.51,0,25.6,25.6,0,0,0-8.73,5.85,26.17,26.17,0,0,0-5.78,9.09,36.12,36.12,0,0,0,0,23.82,26.17,26.17,0,0,0,5.78,9.09,25.6,25.6,0,0,0,8.73,5.85A28.3,28.3,0,0,0,257.86,136.11Z"></path><path class="cls-2" d="M384.16,159.78a91.61,91.61,0,0,1-24-3.1q-11.47-3.1-18.55-7.87L351,127.59a66,66,0,0,0,15.66,7.15,58.42,58.42,0,0,0,17.68,2.81,36,36,0,0,0,9.6-1,10.61,10.61,0,0,0,5.2-2.89,6.55,6.55,0,0,0,1.66-4.47,6,6,0,0,0-3.18-5.27,31.64,31.64,0,0,0-8.3-3.32q-5.11-1.36-11.11-2.6a110,110,0,0,1-12.2-3.25,46.21,46.21,0,0,1-11.26-5.34,25.44,25.44,0,0,1-8.15-8.66q-3.1-5.34-3.11-13.42A28.76,28.76,0,0,1,348.36,71q4.9-7.37,14.87-11.84t24.83-4.47a86,86,0,0,1,19.56,2.23,57.92,57.92,0,0,1,17,6.71l-8.66,21.08a62.09,62.09,0,0,0-14.29-5.92,53.48,53.48,0,0,0-13.72-1.87,28.9,28.9,0,0,0-9.52,1.29,11.39,11.39,0,0,0-5.2,3.32,6.9,6.9,0,0,0-1.59,4.33,6.06,6.06,0,0,0,3.18,5.42A28.45,28.45,0,0,0,383,94.46q5,1.23,11.18,2.53a124.11,124.11,0,0,1,12.2,3.25,48.91,48.91,0,0,1,11.19,5.19,25.72,25.72,0,0,1,8.3,8.52q3.17,5.26,3.17,13.21a28.6,28.6,0,0,1-5,16.24q-5,7.42-14.94,11.91T384.16,159.78Z"></path><path class="cls-2" d="M497.18,159.78a91.61,91.61,0,0,1-24-3.1q-11.47-3.1-18.55-7.87L464,127.59a66.22,66.22,0,0,0,15.66,7.15,58.49,58.49,0,0,0,17.69,2.81,36.06,36.06,0,0,0,9.6-1,10.58,10.58,0,0,0,5.19-2.89,6.5,6.5,0,0,0,1.66-4.47,6,6,0,0,0-3.17-5.27,31.93,31.93,0,0,0-8.3-3.32q-5.13-1.36-11.12-2.6a110,110,0,0,1-12.2-3.25,46.14,46.14,0,0,1-11.25-5.34,25.56,25.56,0,0,1-8.16-8.66q-3.1-5.34-3.1-13.42A28.75,28.75,0,0,1,461.38,71q4.9-7.37,14.87-11.84t24.83-4.47a86,86,0,0,1,19.56,2.23,57.92,57.92,0,0,1,17,6.71l-8.66,21.08a61.9,61.9,0,0,0-14.29-5.92,53.48,53.48,0,0,0-13.72-1.87,28.9,28.9,0,0,0-9.52,1.29,11.39,11.39,0,0,0-5.2,3.32,6.9,6.9,0,0,0-1.59,4.33,6.06,6.06,0,0,0,3.18,5.42A28.57,28.57,0,0,0,496,94.46q5,1.23,11.18,2.53a124.11,124.11,0,0,1,12.2,3.25,48.91,48.91,0,0,1,11.19,5.19,25.72,25.72,0,0,1,8.3,8.52q3.18,5.26,3.18,13.21a28.6,28.6,0,0,1-5,16.24q-5,7.42-15,11.91T497.18,159.78Z"></path><path class="cls-2" d="M625.65,159.78a62.56,62.56,0,0,1-22.3-3.9,51.63,51.63,0,0,1-29.59-27.78,51.2,51.2,0,0,1-4.26-21,50.32,50.32,0,0,1,4.26-20.78,52,52,0,0,1,29.52-27.72,66.27,66.27,0,0,1,44.74,0,53.19,53.19,0,0,1,17.76,11,51.51,51.51,0,0,1,11.76,16.6,50.73,50.73,0,0,1,4.26,20.93,52.36,52.36,0,0,1-4.18,21.15,49.88,49.88,0,0,1-11.77,16.67,53.58,53.58,0,0,1-17.83,11A62.39,62.39,0,0,1,625.65,159.78Zm0-23.67a28.25,28.25,0,0,0,10.75-2,24.89,24.89,0,0,0,8.67-5.85,27.84,27.84,0,0,0,5.77-9.09,35,35,0,0,0,0-23.82,27.84,27.84,0,0,0-5.77-9.09,24.89,24.89,0,0,0-8.67-5.85,29.61,29.61,0,0,0-21.5,0,25.64,25.64,0,0,0-8.74,5.85,26.29,26.29,0,0,0-5.77,9.09,36.12,36.12,0,0,0,0,23.82,26.29,26.29,0,0,0,5.77,9.09,25.64,25.64,0,0,0,8.74,5.85A28.25,28.25,0,0,0,625.65,136.11Z"></path><path class="cls-2" d="M93.52,271.53h52.83v22.23h-81v-101h79.1V215H93.52Zm-2-39.7h46.92v21.22H91.49Z"></path><path class="cls-2" d="M200.62,295.78a91.61,91.61,0,0,1-24-3.1q-11.47-3.1-18.55-7.87l9.38-21.22a66,66,0,0,0,15.66,7.15,58.44,58.44,0,0,0,17.69,2.81,35.92,35.92,0,0,0,9.59-1,10.61,10.61,0,0,0,5.2-2.89,6.5,6.5,0,0,0,1.66-4.47,6,6,0,0,0-3.17-5.27,31.93,31.93,0,0,0-8.3-3.32q-5.13-1.36-11.12-2.6a110,110,0,0,1-12.2-3.25,46.21,46.21,0,0,1-11.26-5.34,25.53,25.53,0,0,1-8.15-8.66q-3.11-5.34-3.11-13.42A28.76,28.76,0,0,1,164.82,207q4.91-7.37,14.87-11.84t24.83-4.47a86,86,0,0,1,19.56,2.23,57.92,57.92,0,0,1,17,6.71l-8.66,21.08a62.09,62.09,0,0,0-14.29-5.92,53.48,53.48,0,0,0-13.72-1.87,28.9,28.9,0,0,0-9.52,1.29,11.39,11.39,0,0,0-5.2,3.32,6.9,6.9,0,0,0-1.59,4.33,6.06,6.06,0,0,0,3.18,5.42,28.45,28.45,0,0,0,8.23,3.17q5,1.23,11.18,2.53a124.11,124.11,0,0,1,12.2,3.25A48.91,48.91,0,0,1,234,241.43a25.72,25.72,0,0,1,8.3,8.52q3.16,5.27,3.17,13.21a28.6,28.6,0,0,1-5,16.24q-5,7.43-14.94,11.91T200.62,295.78Z"></path><path class="cls-2" d="M281.46,293.76V215.38h-31V192.72h90.51v22.66H310v78.38Z"></path><path class="cls-2" d="M354.64,293.76v-101h28.58v101Z"></path><path class="cls-2" d="M406.46,293.76v-101H435V271.1h48.07v22.66Z"></path><path class="cls-2" d="M546.62,295.78a62.56,62.56,0,0,1-22.3-3.9,51.63,51.63,0,0,1-29.59-27.78,51.2,51.2,0,0,1-4.26-21,50.32,50.32,0,0,1,4.26-20.78,52,52,0,0,1,29.52-27.72,66.29,66.29,0,0,1,44.75,0,53.15,53.15,0,0,1,17.75,11,51.54,51.54,0,0,1,11.77,16.6,50.88,50.88,0,0,1,4.25,20.93,52.36,52.36,0,0,1-4.18,21.15,49.88,49.88,0,0,1-11.77,16.67,53.64,53.64,0,0,1-17.82,11A62.49,62.49,0,0,1,546.62,295.78Zm0-23.67a28.3,28.3,0,0,0,10.76-2,25,25,0,0,0,8.66-5.85,27.84,27.84,0,0,0,5.77-9.09,35,35,0,0,0,0-23.82,27.84,27.84,0,0,0-5.77-9.09,25,25,0,0,0-8.66-5.85,29.64,29.64,0,0,0-21.51,0,25.74,25.74,0,0,0-8.74,5.85,26.29,26.29,0,0,0-5.77,9.09,36.12,36.12,0,0,0,0,23.82,26.29,26.29,0,0,0,5.77,9.09,25.74,25.74,0,0,0,8.74,5.85A28.25,28.25,0,0,0,546.62,272.11Z"></path><path class="cls-2" d="M636.84,257a21.52,21.52,0,0,1,1.51-8.37,28.71,28.71,0,0,1,3.83-6.57,45.12,45.12,0,0,1,5-5.41q2.67-2.46,5-4.62a23.92,23.92,0,0,0,3.83-4.55,9.15,9.15,0,0,0,1.51-5,7.85,7.85,0,0,0-3.54-6.71,15.43,15.43,0,0,0-9.16-2.53A20.36,20.36,0,0,0,634.31,216a21.43,21.43,0,0,0-7.58,7.5l-21.5-11.4a42.5,42.5,0,0,1,16.31-15.52q10.53-5.85,26.7-5.84a57.16,57.16,0,0,1,19.63,3.1A30,30,0,0,1,681.3,203a22.86,22.86,0,0,1,4.91,14.86,26.67,26.67,0,0,1-1.66,9.82,24.78,24.78,0,0,1-4.48,7.36q-2.82,3.18-5.7,5.85t-5.7,5.12a24,24,0,0,0-4.48,5.05,10.84,10.84,0,0,0-1.66,5.92Zm12.85,38.11a16,16,0,0,1-11.77-4.48,14.46,14.46,0,0,1-4.55-10.68,14,14,0,0,1,4.55-10.61A16.56,16.56,0,0,1,649.69,265c4.9,0,8.87,1.43,11.9,4.26a13.92,13.92,0,0,1,4.55,10.61,14.42,14.42,0,0,1-4.55,10.68Q657,295.07,649.69,295.06Z"></path></g></g></g></svg>