<svg xmlns="http://www.w3.org/2000/svg" viewBox="0 0 1103.99 743.6"><defs><style>.cls-1{fill:#f7f7f8;}</style></defs><title>9</title><g id="Camada_2" data-name="Camada 2"><g id="Camada_1-2" data-name="Camada 1"><g id="nosso_estilo_" data-name="nosso estilo?"><path class="cls-1" d="M28.09,71h-8V15h8ZM61,46H27.29V39H61Zm-.72-31h8V71h-8Z" transform="translate(-20.09)"></path><path class="cls-1" d="M114.73,71.6a32.16,32.16,0,0,1-11.88-2.16,28.42,28.42,0,0,1-9.48-6,28.09,28.09,0,0,1-6.24-9.08A28.47,28.47,0,0,1,84.89,43,28.47,28.47,0,0,1,87.13,31.6a28.09,28.09,0,0,1,6.24-9.08,28.55,28.55,0,0,1,9.44-6,32,32,0,0,1,11.92-2.16,32.36,32.36,0,0,1,11.84,2.12,27.79,27.79,0,0,1,9.44,6,27.19,27.19,0,0,1,6.2,9.12,29.07,29.07,0,0,1,2.2,11.4,29,29,0,0,1-2.2,11.44,27.22,27.22,0,0,1-6.2,9.08,27.79,27.79,0,0,1-9.44,6A32.36,32.36,0,0,1,114.73,71.6Zm0-7.12a22.65,22.65,0,0,0,8.6-1.6,20.38,20.38,0,0,0,6.88-4.52,21,21,0,0,0,4.56-6.84A21.84,21.84,0,0,0,136.41,43a21.38,21.38,0,0,0-6.2-15.36A20.19,20.19,0,0,0,123.33,23a22.65,22.65,0,0,0-8.6-1.6,22.92,22.92,0,0,0-8.68,1.6,20.75,20.75,0,0,0-6.92,4.56,21.41,21.41,0,0,0-4.6,6.84A21.75,21.75,0,0,0,92.89,43a22,22,0,0,0,1.64,8.56,20.77,20.77,0,0,0,11.52,11.36A22.92,22.92,0,0,0,114.73,64.48Z" transform="translate(-20.09)"></path><path class="cls-1" d="M167.05,71.6a21.09,21.09,0,0,1-9.28-2.08,18,18,0,0,1-7-6l4.64-5.44A17.7,17.7,0,0,0,160.61,63a12.45,12.45,0,0,0,6.44,1.72q9.6,0,9.6-11.36V21.92H156.41V15h28.16V53q0,9.36-4.44,14T167.05,71.6Z" transform="translate(-20.09)"></path><path class="cls-1" d="M213.29,64h32.64v7H205.29V15h39.52v7H213.29Zm-.72-24.88h28.8v6.8h-28.8Z" transform="translate(-20.09)"></path><path class="cls-1" d="M314.49,71.6a32.64,32.64,0,0,1-11.92-2.12A27.77,27.77,0,0,1,286.89,54.4,28.68,28.68,0,0,1,284.65,43a28.68,28.68,0,0,1,2.24-11.44,27.59,27.59,0,0,1,6.28-9.08,28.25,28.25,0,0,1,9.48-6,35.17,35.17,0,0,1,24.16,0A24.06,24.06,0,0,1,336.17,23l-5,5A22.07,22.07,0,0,0,323.73,23,24.09,24.09,0,0,0,315,21.44a24.37,24.37,0,0,0-8.92,1.6,21.29,21.29,0,0,0-7.12,4.48,19.89,19.89,0,0,0-4.64,6.84,23.16,23.16,0,0,0,0,17.12,20.34,20.34,0,0,0,4.64,6.88A21,21,0,0,0,306,62.88a24,24,0,0,0,8.88,1.6,26.64,26.64,0,0,0,8.6-1.4,21.08,21.08,0,0,0,7.64-4.68l4.56,6.08A28.29,28.29,0,0,1,326,69.8,37,37,0,0,1,314.49,71.6ZM328,63.44V42.64h7.68V64.48Z" transform="translate(-20.09)"></path><path class="cls-1" d="M355.37,71V15h21.84a30.65,30.65,0,0,1,12.56,2.32,17.83,17.83,0,0,1,8,6.72,19.08,19.08,0,0,1,2.8,10.48,18.89,18.89,0,0,1-2.8,10.44,17.87,17.87,0,0,1-8,6.68,30.65,30.65,0,0,1-12.56,2.32H359.77l3.6-3.68V71Zm8-19.92-3.6-3.92H377q7.68,0,11.64-3.32t4-9.32q0-6-4-9.28T377,21.92h-17.2l3.6-4ZM392.81,71,378.57,50.64h8.56L401.53,71Z" transform="translate(-20.09)"></path><path class="cls-1" d="M441.13,71.6q-11,0-17.36-6.32T417.45,46.8V15h8V46.48q0,9.36,4.12,13.68t11.64,4.32q7.59,0,11.72-4.32t4.12-13.68V15h7.76V46.8q0,12.17-6.28,18.48T441.13,71.6Z" transform="translate(-20.09)"></path><path class="cls-1" d="M485.61,71V15h6.56l37,46h-3.44V15h8V71h-6.56l-37-46h3.44V71Z" transform="translate(-20.09)"></path><path class="cls-1" d="M580.25,71.6a32.6,32.6,0,0,1-11.92-2.12A27.77,27.77,0,0,1,552.65,54.4,28.51,28.51,0,0,1,550.41,43a28.51,28.51,0,0,1,2.24-11.44,27.44,27.44,0,0,1,6.28-9.08,28.25,28.25,0,0,1,9.48-6,35.17,35.17,0,0,1,24.16,0A24.06,24.06,0,0,1,601.93,23l-5,5A22.17,22.17,0,0,0,589.49,23a25.52,25.52,0,0,0-17.68,0,21.29,21.29,0,0,0-7.12,4.48,19.89,19.89,0,0,0-4.64,6.84,22.14,22.14,0,0,0-1.64,8.6,21.92,21.92,0,0,0,1.64,8.52,20.34,20.34,0,0,0,4.64,6.88,21,21,0,0,0,7.08,4.52,24,24,0,0,0,8.88,1.6,26.68,26.68,0,0,0,8.6-1.4,21.16,21.16,0,0,0,7.64-4.68l4.56,6.08a28.48,28.48,0,0,1-9.72,5.32A37.09,37.09,0,0,1,580.25,71.6Zm13.52-8.16V42.64h7.68V64.48Z" transform="translate(-20.09)"></path><path class="cls-1" d="M629.13,64h32.64v7H621.13V15h39.52v7H629.13Zm-.72-24.88h28.8v6.8h-28.8Z" transform="translate(-20.09)"></path><path class="cls-1" d="M675.77,82.8l4-16.16,1,4.64a5.5,5.5,0,0,1-3.88-1.44,5.08,5.08,0,0,1-1.56-3.92,5.26,5.26,0,0,1,5.36-5.44A4.89,4.89,0,0,1,684.49,62a5.5,5.5,0,0,1,1.44,3.88,10.05,10.05,0,0,1-.12,1.56,17.41,17.41,0,0,1-.4,1.76c-.19.67-.47,1.48-.84,2.44L680.81,82.8Z" transform="translate(-20.09)"></path><path class="cls-1" d="M719.92,71l25.36-56h7.92l25.44,56h-8.4L747.6,19.44h3.2L728.16,71Zm10.8-14,2.16-6.4H764.4l2.32,6.4Z" transform="translate(-20.09)"></path><path class="cls-1" d="M791.36,71V15h6.56L823,57.28h-3.52L844.32,15h6.56L851,71h-7.68L843.2,27H845L823,64.16h-3.68L797,27h2V71Z" transform="translate(-20.09)"></path><path class="cls-1" d="M863.68,71,889,15H897L922.4,71H914L891.36,19.44h3.2L871.92,71Zm10.8-14,2.16-6.4h31.52l2.32,6.4Z" transform="translate(-20.09)"></path><path class="cls-1" d="M935.12,71V15h6.56l37,46h-3.44V15h8V71h-6.56l-37-46h3.44V71Z" transform="translate(-20.09)"></path><path class="cls-1" d="M1012.48,71h-8V15h8Zm32.88-25h-33.68V39h33.68Zm-.72-31h8V71h-8Z" transform="translate(-20.09)"></path><path class="cls-1" d="M1065.36,71l25.36-56h7.92l25.44,56h-8.4L1093,19.44h3.2L1073.6,71Zm10.8-14,2.16-6.4h31.52l2.32,6.4Zm24.16-46.8a7.08,7.08,0,0,1-3.4-.8,13.55,13.55,0,0,1-2.68-1.88,25.57,25.57,0,0,0-2.32-1.88,3.86,3.86,0,0,0-2.24-.8,3.5,3.5,0,0,0-2.84,1.32,6.32,6.32,0,0,0-1.24,3.64h-4.32a11.91,11.91,0,0,1,2.24-7.12,6.76,6.76,0,0,1,5.6-2.64,7,7,0,0,1,3.44.84,14.72,14.72,0,0,1,2.72,1.92c.8.72,1.56,1.35,2.28,1.88a3.68,3.68,0,0,0,5.08-.48,5.44,5.44,0,0,0,1.2-3.52h4.32a11,11,0,0,1-2.2,6.88A6.86,6.86,0,0,1,1100.32,10.16Z" transform="translate(-20.09)"></path><path class="cls-1" d="M89.73,167V111h8v56Z" transform="translate(-20.09)"></path><path class="cls-1" d="M118.93,167V111h6.56l37,46h-3.44V111h8v56h-6.56l-37-46h3.44v46Z" transform="translate(-20.09)"></path><path class="cls-1" d="M188.29,167V111h23.6a34,34,0,0,1,15.8,3.52,26,26,0,0,1,10.64,9.84,30.1,30.1,0,0,1,0,29.28,26,26,0,0,1-10.64,9.84,34,34,0,0,1-15.8,3.52Zm8-7h15.12a25.8,25.8,0,0,0,12-2.64,19.22,19.22,0,0,0,7.88-7.4,23.09,23.09,0,0,0,0-22,19.26,19.26,0,0,0-7.88-7.36,25.8,25.8,0,0,0-12-2.64H196.29Z" transform="translate(-20.09)"></path><path class="cls-1" d="M258.77,167V111h8v56Z" transform="translate(-20.09)"></path><path class="cls-1" d="M296,160h32.64v7H288V111h39.52v7H296Zm-.72-24.88h28.8v6.8h-28.8Z" transform="translate(-20.09)"></path><path class="cls-1" d="M379.89,160h32.64v7H371.89V111h39.52v7H379.89Zm-.72-24.88H408v6.8h-28.8Z" transform="translate(-20.09)"></path><path class="cls-1" d="M472.13,167.6a38.09,38.09,0,0,1-12.24-2,25.15,25.15,0,0,1-9.2-5.08l3-6.24a25.91,25.91,0,0,0,8.16,4.64,29.39,29.39,0,0,0,10.32,1.84,23.27,23.27,0,0,0,7.92-1.12,9.37,9.37,0,0,0,4.48-3.08,7.32,7.32,0,0,0,1.44-4.44,6.07,6.07,0,0,0-1.88-4.64,14,14,0,0,0-4.88-2.84,53.69,53.69,0,0,0-6.6-1.88q-3.6-.8-7.24-1.88a32.33,32.33,0,0,1-6.64-2.76,13.64,13.64,0,0,1-4.84-4.52,13.2,13.2,0,0,1-1.84-7.32,14.71,14.71,0,0,1,2.28-8,15.85,15.85,0,0,1,7-5.84,28.89,28.89,0,0,1,12.12-2.2,37.58,37.58,0,0,1,9.68,1.28,26.94,26.94,0,0,1,8.32,3.68l-2.64,6.4a25.69,25.69,0,0,0-7.6-3.48,29.72,29.72,0,0,0-7.76-1.08,21.36,21.36,0,0,0-7.76,1.2,9.45,9.45,0,0,0-4.44,3.2,7.65,7.65,0,0,0-1.4,4.48,6.17,6.17,0,0,0,1.88,4.72,13.47,13.47,0,0,0,4.88,2.8,66.86,66.86,0,0,0,6.6,1.88q3.6.84,7.24,1.88a30.68,30.68,0,0,1,6.64,2.72,13.71,13.71,0,0,1,4.84,4.48,12.87,12.87,0,0,1,1.84,7.2,14.36,14.36,0,0,1-2.32,7.88,16,16,0,0,1-7.16,5.84A29.48,29.48,0,0,1,472.13,167.6Z" transform="translate(-20.09)"></path><path class="cls-1" d="M517.89,160h32.64v7H509.89V111h39.52v7H517.89Zm-.72-24.88H546v6.8h-28.8Z" transform="translate(-20.09)"></path><path class="cls-1" d="M567.89,167V111h6.56l25.12,42.32h-3.52L620.85,111h6.56l.08,56h-7.68L619.73,123h1.84l-22.08,37.12h-3.68L573.57,123h2V167Z" transform="translate(-20.09)"></path><path class="cls-1" d="M640.21,167l25.36-56h7.92l25.44,56h-8.4l-22.64-51.52h3.2L648.45,167ZM651,153l2.16-6.4h31.52L687,153Z" transform="translate(-20.09)"></path><path class="cls-1" d="M711.65,167V111h6.55l37,46H751.8V111h8v56h-6.56l-37-46h3.45v46Z" transform="translate(-20.09)"></path><path class="cls-1" d="M772.53,167l25.36-56h7.92l25.43,56h-8.39L800.2,115.44h3.21L780.77,167Zm10.8-14,2.16-6.4H817l2.32,6.4Z" transform="translate(-20.09)"></path><path class="cls-1" d="M895.16,167.6a32.16,32.16,0,0,1-11.88-2.16,28.42,28.42,0,0,1-9.48-6,28.09,28.09,0,0,1-6.24-9.08,29.93,29.93,0,0,1,0-22.72,28.09,28.09,0,0,1,6.24-9.08,28.55,28.55,0,0,1,9.44-6,32,32,0,0,1,11.92-2.16A32.36,32.36,0,0,1,907,112.44a27.79,27.79,0,0,1,9.44,6,27.19,27.19,0,0,1,6.2,9.12,30.74,30.74,0,0,1,0,22.84,27.22,27.22,0,0,1-6.2,9.08,27.79,27.79,0,0,1-9.44,6A32.36,32.36,0,0,1,895.16,167.6Zm0-7.12a22.65,22.65,0,0,0,8.6-1.6,20.19,20.19,0,0,0,6.88-4.56,21.56,21.56,0,0,0,6.2-15.36,21.84,21.84,0,0,0-1.64-8.56,21,21,0,0,0-4.56-6.84,20.38,20.38,0,0,0-6.88-4.52,22.65,22.65,0,0,0-8.6-1.6,22.92,22.92,0,0,0-8.68,1.6A20.77,20.77,0,0,0,875,130.4a22,22,0,0,0-1.64,8.56,21.8,21.8,0,0,0,1.64,8.48,21.36,21.36,0,0,0,4.6,6.88,20.75,20.75,0,0,0,6.92,4.56A22.92,22.92,0,0,0,895.16,160.48Zm18.32,18.16A20.13,20.13,0,0,1,903,175.8a35.64,35.64,0,0,1-5.28-3.84,80.49,80.49,0,0,1-5.92-5.8l8.56-2.24a37.56,37.56,0,0,0,4.6,4.84,15.51,15.51,0,0,0,4.36,2.72,11.84,11.84,0,0,0,4.32.84,13.09,13.09,0,0,0,10.16-4.8l3.76,4.56A17.44,17.44,0,0,1,913.48,178.64Z" transform="translate(-20.09)"></path><path class="cls-1" d="M964.68,167.6q-11,0-17.36-6.32T941,142.8V111h8v31.52q0,9.36,4.12,13.68t11.64,4.32q7.61,0,11.72-4.32t4.12-13.68V111h7.76V142.8q0,12.16-6.28,18.48T964.68,167.6Z" transform="translate(-20.09)"></path><path class="cls-1" d="M1017.16,160h32.64v7h-40.64V111h39.52v7h-31.52Zm-.72-24.88h28.8v6.8h-28.8Z" transform="translate(-20.09)"></path><path class="cls-1" d="M144.69,263l-24.64-56h8.64l22.64,51.68h-5L169.17,207h8l-24.56,56Z" transform="translate(-20.09)"></path><path class="cls-1" d="M196.69,256h32.64v7H188.69V207h39.52v7H196.69ZM196,231.12h28.8v6.8H196Z" transform="translate(-20.09)"></path><path class="cls-1" d="M246.69,263V207h6.56l25.12,42.32h-3.52L299.65,207h6.56l.08,56h-7.68L298.53,219h1.84l-22.08,37.12h-3.68L252.37,219h2V263Z" transform="translate(-20.09)"></path><path class="cls-1" d="M328.21,263.44a5.4,5.4,0,0,1-5.44-5.52,5.15,5.15,0,0,1,1.6-3.92,5.4,5.4,0,0,1,3.84-1.52,5.16,5.16,0,0,1,3.72,1.52,5.23,5.23,0,0,1,1.56,3.92,5.37,5.37,0,0,1-1.56,4A5.08,5.08,0,0,1,328.21,263.44Z" transform="translate(-20.09)"></path><path class="cls-1" d="M350.77,263.44a5.4,5.4,0,0,1-5.44-5.52,5.15,5.15,0,0,1,1.6-3.92,5.4,5.4,0,0,1,3.84-1.52,5.16,5.16,0,0,1,3.72,1.52,5.23,5.23,0,0,1,1.56,3.92,5.37,5.37,0,0,1-1.56,4A5.08,5.08,0,0,1,350.77,263.44Z" transform="translate(-20.09)"></path><path class="cls-1" d="M373.33,263.44a5.4,5.4,0,0,1-5.44-5.52,5.15,5.15,0,0,1,1.6-3.92,5.4,5.4,0,0,1,3.84-1.52,5.16,5.16,0,0,1,3.72,1.52,5.23,5.23,0,0,1,1.56,3.92,5.37,5.37,0,0,1-1.56,4A5.08,5.08,0,0,1,373.33,263.44Z" transform="translate(-20.09)"></path><path class="cls-1" d="M434,263l-18.72-56h8.24l17.2,51.68h-4.16L454.37,207h7.36l17.44,51.68h-4L492.61,207h7.6l-18.72,56h-8.4L456.77,215h2.16L442.53,263Z" transform="translate(-20.09)"></path><path class="cls-1" d="M522.37,263h-8V207h8Zm32.88-25H521.57v-7h33.68Zm-.72-31h8v56h-8Z" transform="translate(-20.09)"></path><path class="cls-1" d="M609,263.6a32.08,32.08,0,0,1-11.88-2.16,28.22,28.22,0,0,1-9.48-6,27.78,27.78,0,0,1-6.24-9.08,29.93,29.93,0,0,1,0-22.72,27.78,27.78,0,0,1,6.24-9.08,28.34,28.34,0,0,1,9.44-6A32,32,0,0,1,609,206.32a32.44,32.44,0,0,1,11.84,2.12,28,28,0,0,1,9.44,6,27.48,27.48,0,0,1,6.2,9.12,30.74,30.74,0,0,1,0,22.84,27.52,27.52,0,0,1-6.2,9.08,28,28,0,0,1-9.44,6A32.44,32.44,0,0,1,609,263.6Zm0-7.12a22.69,22.69,0,0,0,8.6-1.6,20.48,20.48,0,0,0,6.88-4.52,21.35,21.35,0,0,0,4.56-6.84,22,22,0,0,0,1.64-8.56,21.38,21.38,0,0,0-6.2-15.36,20.28,20.28,0,0,0-6.88-4.56,24.13,24.13,0,0,0-17.28,0,20.65,20.65,0,0,0-6.92,4.56,21.09,21.09,0,0,0-4.6,6.84,21.57,21.57,0,0,0-1.64,8.52,21.84,21.84,0,0,0,1.64,8.56,20.77,20.77,0,0,0,11.52,11.36A22.88,22.88,0,0,0,609,256.48Z" transform="translate(-20.09)"></path><path class="cls-1" d="M706.29,263.6a32.07,32.07,0,0,1-11.8-2.12,27.54,27.54,0,0,1-9.36-6,28.14,28.14,0,0,1-6.2-9.08,30.33,30.33,0,0,1,0-22.88,27.86,27.86,0,0,1,15.64-15.08,33.75,33.75,0,0,1,23.76.08,24.56,24.56,0,0,1,9.32,6.52l-5.2,5a20.86,20.86,0,0,0-7.2-5,22.42,22.42,0,0,0-8.56-1.64,23.49,23.49,0,0,0-8.76,1.6,21,21,0,0,0-7,4.48,20.07,20.07,0,0,0-4.6,6.84,23.37,23.37,0,0,0,0,17.2,20.07,20.07,0,0,0,4.6,6.84,21,21,0,0,0,7,4.48,23.49,23.49,0,0,0,8.76,1.6,22.42,22.42,0,0,0,8.56-1.64,20.45,20.45,0,0,0,7.2-5.08l5.2,5a24.87,24.87,0,0,1-9.32,6.56A31.63,31.63,0,0,1,706.29,263.6Z" transform="translate(-20.09)"></path><path class="cls-1" d="M733.65,263,759,207h7.92l25.44,56H784l-22.64-51.52h3.2L741.89,263Zm10.8-14,2.16-6.4h31.52l2.32,6.4Z" transform="translate(-20.09)"></path><path class="cls-1" d="M805.09,263V207h21.84a30.69,30.69,0,0,1,12.56,2.32,17.88,17.88,0,0,1,8,6.72,21,21,0,0,1,0,20.92,17.93,17.93,0,0,1-8,6.68,30.69,30.69,0,0,1-12.56,2.32H809.49l3.6-3.68V263Zm8-19.92-3.6-3.92h17.2q7.68,0,11.64-3.32t3.95-9.32q0-6-3.95-9.28t-11.64-3.28h-17.2l3.6-4ZM842.53,263l-14.25-20.32h8.57L851.24,263Z" transform="translate(-20.09)"></path><path class="cls-1" d="M875.64,256h32.64v7H867.64V207h39.52v7H875.64Zm-.72-24.88h28.8v6.8h-28.8Z" transform="translate(-20.09)"></path><path class="cls-1" d="M942,263.6a38.18,38.18,0,0,1-12.24-2,25.15,25.15,0,0,1-9.2-5.08l3-6.24a26.13,26.13,0,0,0,8.16,4.64A29.39,29.39,0,0,0,942,256.8a23.19,23.19,0,0,0,7.92-1.12,9.37,9.37,0,0,0,4.48-3.08,7.32,7.32,0,0,0,1.44-4.44,6,6,0,0,0-1.88-4.64,14,14,0,0,0-4.88-2.84,53.69,53.69,0,0,0-6.6-1.88q-3.6-.8-7.24-1.88a32.57,32.57,0,0,1-6.64-2.76,13.64,13.64,0,0,1-4.84-4.52,13.28,13.28,0,0,1-1.84-7.32,14.71,14.71,0,0,1,2.28-8,15.85,15.85,0,0,1,7-5.84,29,29,0,0,1,12.12-2.2A37.52,37.52,0,0,1,953,207.6a26.84,26.84,0,0,1,8.32,3.68l-2.64,6.4a25.69,25.69,0,0,0-7.6-3.48,29.66,29.66,0,0,0-7.76-1.08,21.4,21.4,0,0,0-7.76,1.2,9.55,9.55,0,0,0-4.44,3.2,7.65,7.65,0,0,0-1.4,4.48,6.17,6.17,0,0,0,1.88,4.72,13.56,13.56,0,0,0,4.88,2.8,66.86,66.86,0,0,0,6.6,1.88c2.4.56,4.82,1.19,7.24,1.88A30.68,30.68,0,0,1,957,236a13.62,13.62,0,0,1,4.84,4.48,12.87,12.87,0,0,1,1.84,7.2,14.36,14.36,0,0,1-2.32,7.88,16,16,0,0,1-7.16,5.84A29.45,29.45,0,0,1,942,263.6Z" transform="translate(-20.09)"></path><path class="cls-1" d="M988,245.28a13.27,13.27,0,0,1,1-5.44,17.6,17.6,0,0,1,2.6-4.16,29.51,29.51,0,0,1,3.4-3.4q1.85-1.56,3.44-3.12a14.78,14.78,0,0,0,2.6-3.32,8.06,8.06,0,0,0,1-4.08,7.57,7.57,0,0,0-3-6.24q-3-2.4-8.4-2.4a19.92,19.92,0,0,0-8.32,1.6,16.22,16.22,0,0,0-6,4.72l-5.84-4.16a22.67,22.67,0,0,1,8.56-6.6,29.25,29.25,0,0,1,12.16-2.36,26.43,26.43,0,0,1,10,1.72,15,15,0,0,1,6.6,4.88,12.36,12.36,0,0,1,2.36,7.64,14.32,14.32,0,0,1-1,5.76,16.14,16.14,0,0,1-2.64,4.24A36.81,36.81,0,0,1,1003,234c-1.2,1.07-2.33,2.13-3.4,3.2a15.66,15.66,0,0,0-2.64,3.52,9.48,9.48,0,0,0-1,4.56ZM992,263.44a5.12,5.12,0,0,1-5.2-5.12,4.94,4.94,0,0,1,1.48-3.68A5.13,5.13,0,0,1,992,253.2a4.93,4.93,0,0,1,5.12,5.12,5,5,0,0,1-1.44,3.6A4.85,4.85,0,0,1,992,263.44Z" transform="translate(-20.09)"></path><path class="cls-1" d="M139.93,359V303h6.56l37,46h-3.44V303h8v56h-6.56l-37-46h3.44v46Z" transform="translate(-20.09)"></path><path class="cls-1" d="M234.57,359.6a32.12,32.12,0,0,1-11.88-2.16,28.42,28.42,0,0,1-9.48-6,27.78,27.78,0,0,1-6.24-9.08,29.93,29.93,0,0,1,0-22.72,27.78,27.78,0,0,1,6.24-9.08,28.45,28.45,0,0,1,9.44-6,32,32,0,0,1,11.92-2.16,32.4,32.4,0,0,1,11.84,2.12,27.88,27.88,0,0,1,9.44,6,27.33,27.33,0,0,1,6.2,9.12,30.74,30.74,0,0,1,0,22.84,27.37,27.37,0,0,1-6.2,9.08,27.88,27.88,0,0,1-9.44,6A32.4,32.4,0,0,1,234.57,359.6Zm0-7.12a22.69,22.69,0,0,0,8.6-1.6,20.48,20.48,0,0,0,6.88-4.52,21,21,0,0,0,4.56-6.84,22,22,0,0,0,1.64-8.56,21.75,21.75,0,0,0-1.64-8.52,21.46,21.46,0,0,0-4.56-6.84,20.28,20.28,0,0,0-6.88-4.56,22.69,22.69,0,0,0-8.6-1.6,22.92,22.92,0,0,0-8.68,1.6A20.75,20.75,0,0,0,219,315.6a21.25,21.25,0,0,0-4.6,6.84,21.75,21.75,0,0,0-1.64,8.52,22,22,0,0,0,1.64,8.56,20.77,20.77,0,0,0,11.52,11.36A22.92,22.92,0,0,0,234.57,352.48Z" transform="translate(-20.09)"></path><path class="cls-1" d="M297.21,359.6a38.09,38.09,0,0,1-12.24-2,25.15,25.15,0,0,1-9.2-5.08l3-6.24a25.91,25.91,0,0,0,8.16,4.64,29.39,29.39,0,0,0,10.32,1.84,23.27,23.27,0,0,0,7.92-1.12,9.37,9.37,0,0,0,4.48-3.08,7.32,7.32,0,0,0,1.44-4.44,6.07,6.07,0,0,0-1.88-4.64,14,14,0,0,0-4.88-2.84,53.69,53.69,0,0,0-6.6-1.88q-3.6-.8-7.24-1.88a32.33,32.33,0,0,1-6.64-2.76,13.64,13.64,0,0,1-4.84-4.52,13.2,13.2,0,0,1-1.84-7.32,14.71,14.71,0,0,1,2.28-8,15.85,15.85,0,0,1,7-5.84,28.89,28.89,0,0,1,12.12-2.2,37.58,37.58,0,0,1,9.68,1.28,26.94,26.94,0,0,1,8.32,3.68l-2.64,6.4a25.69,25.69,0,0,0-7.6-3.48,29.72,29.72,0,0,0-7.76-1.08,21.36,21.36,0,0,0-7.76,1.2,9.45,9.45,0,0,0-4.44,3.2A7.65,7.65,0,0,0,285,318a6.17,6.17,0,0,0,1.88,4.72,13.47,13.47,0,0,0,4.88,2.8,66.86,66.86,0,0,0,6.6,1.88q3.6.84,7.24,1.88a30.68,30.68,0,0,1,6.64,2.72,13.71,13.71,0,0,1,4.84,4.48,12.87,12.87,0,0,1,1.84,7.2,14.36,14.36,0,0,1-2.32,7.88,16,16,0,0,1-7.16,5.84A29.48,29.48,0,0,1,297.21,359.6Z" transform="translate(-20.09)"></path><path class="cls-1" d="M351.29,359.6a38.09,38.09,0,0,1-12.24-2,25.15,25.15,0,0,1-9.2-5.08l3-6.24A25.91,25.91,0,0,0,341,351a29.39,29.39,0,0,0,10.32,1.84,23.27,23.27,0,0,0,7.92-1.12,9.37,9.37,0,0,0,4.48-3.08,7.32,7.32,0,0,0,1.44-4.44,6.07,6.07,0,0,0-1.88-4.64,14,14,0,0,0-4.88-2.84,53.69,53.69,0,0,0-6.6-1.88q-3.6-.8-7.24-1.88a32.33,32.33,0,0,1-6.64-2.76,13.64,13.64,0,0,1-4.84-4.52,13.2,13.2,0,0,1-1.84-7.32,14.71,14.71,0,0,1,2.28-8,15.85,15.85,0,0,1,7-5.84,28.89,28.89,0,0,1,12.12-2.2,37.58,37.58,0,0,1,9.68,1.28,26.94,26.94,0,0,1,8.32,3.68l-2.64,6.4a25.69,25.69,0,0,0-7.6-3.48,29.72,29.72,0,0,0-7.76-1.08,21.36,21.36,0,0,0-7.76,1.2,9.45,9.45,0,0,0-4.44,3.2,7.65,7.65,0,0,0-1.4,4.48,6.17,6.17,0,0,0,1.88,4.72,13.47,13.47,0,0,0,4.88,2.8,66.86,66.86,0,0,0,6.6,1.88q3.6.84,7.24,1.88a30.68,30.68,0,0,1,6.64,2.72,13.71,13.71,0,0,1,4.84,4.48,12.87,12.87,0,0,1,1.84,7.2,14.36,14.36,0,0,1-2.32,7.88,16,16,0,0,1-7.16,5.84A29.48,29.48,0,0,1,351.29,359.6Z" transform="translate(-20.09)"></path><path class="cls-1" d="M414.33,359.6a32.08,32.08,0,0,1-11.88-2.16,28.42,28.42,0,0,1-9.48-6,27.78,27.78,0,0,1-6.24-9.08,29.93,29.93,0,0,1,0-22.72,27.78,27.78,0,0,1,6.24-9.08,28.45,28.45,0,0,1,9.44-6,32,32,0,0,1,11.92-2.16,32.4,32.4,0,0,1,11.84,2.12,27.88,27.88,0,0,1,9.44,6,27.33,27.33,0,0,1,6.2,9.12,30.74,30.74,0,0,1,0,22.84,27.37,27.37,0,0,1-6.2,9.08,27.88,27.88,0,0,1-9.44,6A32.4,32.4,0,0,1,414.33,359.6Zm0-7.12a22.69,22.69,0,0,0,8.6-1.6,20.48,20.48,0,0,0,6.88-4.52,21,21,0,0,0,4.56-6.84A22,22,0,0,0,436,331a21.75,21.75,0,0,0-1.64-8.52,21.46,21.46,0,0,0-4.56-6.84,20.28,20.28,0,0,0-6.88-4.56,24.13,24.13,0,0,0-17.28,0,20.65,20.65,0,0,0-6.92,4.56,21.25,21.25,0,0,0-4.6,6.84,21.75,21.75,0,0,0-1.64,8.52,22,22,0,0,0,1.64,8.56,20.77,20.77,0,0,0,11.52,11.36A22.88,22.88,0,0,0,414.33,352.48Z" transform="translate(-20.09)"></path><path class="cls-1" d="M494.57,352h32.64v7H486.57V303h39.52v7H494.57Zm-.72-24.88h28.8v6.8h-28.8Z" transform="translate(-20.09)"></path><path class="cls-1" d="M560.89,359.6a38.09,38.09,0,0,1-12.24-2,25.15,25.15,0,0,1-9.2-5.08l3-6.24a25.91,25.91,0,0,0,8.16,4.64,29.39,29.39,0,0,0,10.32,1.84,23.27,23.27,0,0,0,7.92-1.12,9.37,9.37,0,0,0,4.48-3.08,7.32,7.32,0,0,0,1.44-4.44,6.07,6.07,0,0,0-1.88-4.64,14,14,0,0,0-4.88-2.84,53.69,53.69,0,0,0-6.6-1.88q-3.6-.8-7.24-1.88a32.33,32.33,0,0,1-6.64-2.76,13.64,13.64,0,0,1-4.84-4.52,13.2,13.2,0,0,1-1.84-7.32,14.71,14.71,0,0,1,2.28-8,15.85,15.85,0,0,1,7-5.84,28.89,28.89,0,0,1,12.12-2.2,37.58,37.58,0,0,1,9.68,1.28,26.94,26.94,0,0,1,8.32,3.68l-2.64,6.4a25.69,25.69,0,0,0-7.6-3.48,29.72,29.72,0,0,0-7.76-1.08,21.36,21.36,0,0,0-7.76,1.2,9.45,9.45,0,0,0-4.44,3.2,7.65,7.65,0,0,0-1.4,4.48,6.17,6.17,0,0,0,1.88,4.72,13.47,13.47,0,0,0,4.88,2.8,66.86,66.86,0,0,0,6.6,1.88q3.6.84,7.24,1.88a30.68,30.68,0,0,1,6.64,2.72,13.71,13.71,0,0,1,4.84,4.48,13,13,0,0,1,1.84,7.2,14.36,14.36,0,0,1-2.32,7.88,16,16,0,0,1-7.16,5.84A29.48,29.48,0,0,1,560.89,359.6Z" transform="translate(-20.09)"></path><path class="cls-1" d="M609,359v-49h-19.2v-7h46.32v7h-19.2v49Z" transform="translate(-20.09)"></path><path class="cls-1" d="M649.21,359V303h8v56Z" transform="translate(-20.09)"></path><path class="cls-1" d="M678.41,359V303h8v49h30.32v7Z" transform="translate(-20.09)"></path><path class="cls-1" d="M754.57,359.6a32.08,32.08,0,0,1-11.88-2.16,28.22,28.22,0,0,1-9.48-6,27.78,27.78,0,0,1-6.24-9.08,29.93,29.93,0,0,1,0-22.72,27.78,27.78,0,0,1,6.24-9.08,28.34,28.34,0,0,1,9.44-6,32,32,0,0,1,11.92-2.16,32.44,32.44,0,0,1,11.84,2.12,28,28,0,0,1,9.44,6,27.48,27.48,0,0,1,6.2,9.12,30.74,30.74,0,0,1,0,22.84,27.52,27.52,0,0,1-6.2,9.08,28,28,0,0,1-9.44,6A32.44,32.44,0,0,1,754.57,359.6Zm0-7.12a22.69,22.69,0,0,0,8.6-1.6,20.48,20.48,0,0,0,6.88-4.52,21.35,21.35,0,0,0,4.56-6.84,22,22,0,0,0,1.64-8.56,21.38,21.38,0,0,0-6.2-15.36,20.28,20.28,0,0,0-6.88-4.56,24.13,24.13,0,0,0-17.28,0A20.65,20.65,0,0,0,739,315.6a21.09,21.09,0,0,0-4.6,6.84,21.75,21.75,0,0,0-1.64,8.52,22,22,0,0,0,1.64,8.56,20.77,20.77,0,0,0,11.52,11.36A22.88,22.88,0,0,0,754.57,352.48Z" transform="translate(-20.09)"></path><path class="cls-1" d="M837.93,359v-49h-19.2v-7h46.32v7h-19.2v49Z" transform="translate(-20.09)"></path><path class="cls-1" d="M886.17,352h32.64v7H878.17V303h39.52v7H886.17Zm-.72-24.88h28.8v6.8h-28.8Z" transform="translate(-20.09)"></path><path class="cls-1" d="M936.17,359V303h6.56l25.12,42.32h-3.52L989.13,303h6.56l.08,56h-7.68L988,315h1.84l-22.08,37.12h-3.68L941.85,315h2V359Z" transform="translate(-20.09)"></path><path class="cls-1" d="M112.33,455V399h6.56L144,441.28h-3.52L165.29,399h6.56l.08,56h-7.68L164.17,411H166l-22.08,37.12h-3.68L118,411h2V455Z" transform="translate(-20.09)"></path><path class="cls-1" d="M216.33,455.6q-11,0-17.36-6.32t-6.32-18.48V399h8v31.52q0,9.36,4.12,13.68t11.64,4.32q7.6,0,11.72-4.32t4.12-13.68V399H240V430.8q0,12.17-6.28,18.48T216.33,455.6Z" transform="translate(-20.09)"></path><path class="cls-1" d="M260.81,455V399h8v56Z" transform="translate(-20.09)"></path><path class="cls-1" d="M301.13,455v-49h-19.2v-7h46.32v7h-19.2v49Z" transform="translate(-20.09)"></path><path class="cls-1" d="M365.85,455.6A32.08,32.08,0,0,1,354,453.44a28.42,28.42,0,0,1-9.48-6,27.78,27.78,0,0,1-6.24-9.08,29.93,29.93,0,0,1,0-22.72,27.78,27.78,0,0,1,6.24-9.08,28.45,28.45,0,0,1,9.44-6,32,32,0,0,1,11.92-2.16,32.4,32.4,0,0,1,11.84,2.12,27.88,27.88,0,0,1,9.44,6,27.33,27.33,0,0,1,6.2,9.12,30.74,30.74,0,0,1,0,22.84,27.37,27.37,0,0,1-6.2,9.08,27.88,27.88,0,0,1-9.44,6A32.4,32.4,0,0,1,365.85,455.6Zm0-7.12a22.69,22.69,0,0,0,8.6-1.6,20.48,20.48,0,0,0,6.88-4.52,21,21,0,0,0,4.56-6.84,22,22,0,0,0,1.64-8.56,21.75,21.75,0,0,0-1.64-8.52,21.46,21.46,0,0,0-4.56-6.84,20.28,20.28,0,0,0-6.88-4.56,24.13,24.13,0,0,0-17.28,0,20.65,20.65,0,0,0-6.92,4.56,21.25,21.25,0,0,0-4.6,6.84A21.75,21.75,0,0,0,344,427a22,22,0,0,0,1.64,8.56,20.77,20.77,0,0,0,11.52,11.36A22.88,22.88,0,0,0,365.85,448.48Z" transform="translate(-20.09)"></path><path class="cls-1" d="M429.61,455,455,399h7.92l25.44,56h-8.4l-22.64-51.52h3.2L437.85,455Zm10.8-14,2.16-6.4h31.52l2.32,6.4Z" transform="translate(-20.09)"></path><path class="cls-1" d="M543.13,455l-24.64-56h8.64l22.64,51.68h-5L567.61,399h8l-24.56,56Z" transform="translate(-20.09)"></path><path class="cls-1" d="M595.13,448h32.64v7H587.13V399h39.52v7H595.13Zm-.72-24.88h28.8v6.8h-28.8Z" transform="translate(-20.09)"></path><path class="cls-1" d="M645.13,455V399H667a30.69,30.69,0,0,1,12.56,2.32,17.88,17.88,0,0,1,8,6.72,20.94,20.94,0,0,1,0,20.92,17.93,17.93,0,0,1-8,6.68A30.69,30.69,0,0,1,667,437.92H649.53l3.6-3.68V455Zm8-19.92-3.6-3.92h17.2q7.68,0,11.64-3.32t4-9.32q0-6-4-9.28t-11.64-3.28h-17.2l3.6-4ZM682.57,455l-14.24-20.32h8.56L691.29,455Z" transform="translate(-20.09)"></path><path class="cls-1" d="M758.65,455.6a32.07,32.07,0,0,1-11.8-2.12,27.54,27.54,0,0,1-9.36-6,28.14,28.14,0,0,1-6.2-9.08,30.33,30.33,0,0,1,0-22.88,27.86,27.86,0,0,1,15.64-15.08,33.75,33.75,0,0,1,23.76.08A24.56,24.56,0,0,1,780,407l-5.2,5a20.86,20.86,0,0,0-7.2-5,22.42,22.42,0,0,0-8.56-1.64,23.49,23.49,0,0,0-8.76,1.6,21,21,0,0,0-7,4.48,20.07,20.07,0,0,0-4.6,6.84,23.37,23.37,0,0,0,0,17.2,20.07,20.07,0,0,0,4.6,6.84,21,21,0,0,0,7,4.48,23.49,23.49,0,0,0,8.76,1.6,22.42,22.42,0,0,0,8.56-1.64,20.45,20.45,0,0,0,7.2-5.08l5.2,5a24.87,24.87,0,0,1-9.32,6.56A31.63,31.63,0,0,1,758.65,455.6Z" transform="translate(-20.09)"></path><path class="cls-1" d="M819.92,455.6A32.16,32.16,0,0,1,808,453.44a28.28,28.28,0,0,1-9.47-6,27.78,27.78,0,0,1-6.24-9.08,29.8,29.8,0,0,1,0-22.72,27.78,27.78,0,0,1,6.24-9.08,28.4,28.4,0,0,1,9.43-6,34,34,0,0,1,23.76,0,27.79,27.79,0,0,1,9.44,6,27.36,27.36,0,0,1,6.21,9.12,30.74,30.74,0,0,1,0,22.84,27.4,27.4,0,0,1-6.21,9.08,27.79,27.79,0,0,1-9.44,6A32.36,32.36,0,0,1,819.92,455.6Zm0-7.12a22.74,22.74,0,0,0,8.61-1.6,20.58,20.58,0,0,0,6.88-4.52,21.16,21.16,0,0,0,4.55-6.84,21.84,21.84,0,0,0,1.65-8.56,21.49,21.49,0,0,0-6.2-15.36,20.38,20.38,0,0,0-6.88-4.56,24.15,24.15,0,0,0-17.29,0,20.7,20.7,0,0,0-6.91,4.56,21.09,21.09,0,0,0-4.6,6.84,21.57,21.57,0,0,0-1.65,8.52,21.84,21.84,0,0,0,1.65,8.56,20.67,20.67,0,0,0,4.6,6.84,20.91,20.91,0,0,0,6.91,4.52A22.92,22.92,0,0,0,819.92,448.48Z" transform="translate(-20.09)"></path><path class="cls-1" d="M866.24,455V399h6.56l25.12,42.32H894.4L919.2,399h6.56l.08,56h-7.68L918.08,411h1.84l-22.08,37.12h-3.68L871.92,411h2V455Z" transform="translate(-20.09)"></path><path class="cls-1" d="M998.24,455.6a32.08,32.08,0,0,1-11.88-2.16,28.42,28.42,0,0,1-9.48-6,27.78,27.78,0,0,1-6.24-9.08,29.93,29.93,0,0,1,0-22.72,27.78,27.78,0,0,1,6.24-9.08,28.55,28.55,0,0,1,9.44-6,32,32,0,0,1,11.92-2.16,32.4,32.4,0,0,1,11.84,2.12,27.79,27.79,0,0,1,9.44,6,27.33,27.33,0,0,1,6.2,9.12,30.74,30.74,0,0,1,0,22.84,27.37,27.37,0,0,1-6.2,9.08,27.79,27.79,0,0,1-9.44,6A32.4,32.4,0,0,1,998.24,455.6Zm0-7.12a22.69,22.69,0,0,0,8.6-1.6,20.38,20.38,0,0,0,6.88-4.52,21,21,0,0,0,4.56-6.84,22,22,0,0,0,1.64-8.56,21.75,21.75,0,0,0-1.64-8.52,21.46,21.46,0,0,0-4.56-6.84,20.19,20.19,0,0,0-6.88-4.56,24.13,24.13,0,0,0-17.28,0,20.75,20.75,0,0,0-6.92,4.56,21.25,21.25,0,0,0-4.6,6.84A21.75,21.75,0,0,0,976.4,427a22,22,0,0,0,1.64,8.56,20.77,20.77,0,0,0,11.52,11.36A22.88,22.88,0,0,0,998.24,448.48Z" transform="translate(-20.09)"></path><path class="cls-1" d="M42.53,551V495h6.56l25.12,42.32H70.69L95.49,495h6.56l.08,56H94.45L94.37,507h1.84L74.13,544.16H70.45L48.21,507h2V551Z" transform="translate(-20.09)"></path><path class="cls-1" d="M148.61,551.6a32.16,32.16,0,0,1-11.88-2.16,28.42,28.42,0,0,1-9.48-6,27.78,27.78,0,0,1-6.24-9.08,29.93,29.93,0,0,1,0-22.72,27.78,27.78,0,0,1,6.24-9.08,28.45,28.45,0,0,1,9.44-6,32,32,0,0,1,11.92-2.16,32.36,32.36,0,0,1,11.84,2.12,27.88,27.88,0,0,1,9.44,6,27.33,27.33,0,0,1,6.2,9.12,30.74,30.74,0,0,1,0,22.84,27.37,27.37,0,0,1-6.2,9.08,27.88,27.88,0,0,1-9.44,6A32.36,32.36,0,0,1,148.61,551.6Zm0-7.12a22.69,22.69,0,0,0,8.6-1.6,20.48,20.48,0,0,0,6.88-4.52,21,21,0,0,0,4.56-6.84,22,22,0,0,0,1.64-8.56,21.75,21.75,0,0,0-1.64-8.52,21.46,21.46,0,0,0-4.56-6.84,20.28,20.28,0,0,0-6.88-4.56,22.69,22.69,0,0,0-8.6-1.6,22.92,22.92,0,0,0-8.68,1.6A20.75,20.75,0,0,0,133,507.6a21.25,21.25,0,0,0-4.6,6.84,21.75,21.75,0,0,0-1.64,8.52,22,22,0,0,0,1.64,8.56,20.77,20.77,0,0,0,11.52,11.36A22.92,22.92,0,0,0,148.61,544.48Z" transform="translate(-20.09)"></path><path class="cls-1" d="M220.21,551.6a32.08,32.08,0,0,1-11.88-2.16,28.42,28.42,0,0,1-9.48-6,27.78,27.78,0,0,1-6.24-9.08,29.93,29.93,0,0,1,0-22.72,27.78,27.78,0,0,1,6.24-9.08,28.45,28.45,0,0,1,9.44-6,32,32,0,0,1,11.92-2.16,32.4,32.4,0,0,1,11.84,2.12,27.88,27.88,0,0,1,9.44,6,27.33,27.33,0,0,1,6.2,9.12,30.74,30.74,0,0,1,0,22.84,27.37,27.37,0,0,1-6.2,9.08,27.88,27.88,0,0,1-9.44,6A32.4,32.4,0,0,1,220.21,551.6Zm0-7.12a22.69,22.69,0,0,0,8.6-1.6,20.48,20.48,0,0,0,6.88-4.52,21,21,0,0,0,4.56-6.84,22,22,0,0,0,1.64-8.56,21.75,21.75,0,0,0-1.64-8.52,21.46,21.46,0,0,0-4.56-6.84,20.28,20.28,0,0,0-6.88-4.56,24.13,24.13,0,0,0-17.28,0,20.65,20.65,0,0,0-6.92,4.56,21.25,21.25,0,0,0-4.6,6.84,21.75,21.75,0,0,0-1.64,8.52,22,22,0,0,0,1.64,8.56,20.77,20.77,0,0,0,11.52,11.36A22.88,22.88,0,0,0,220.21,544.48Z" transform="translate(-20.09)"></path><path class="cls-1" d="M266.53,551V495h23.6a34,34,0,0,1,15.8,3.52,26,26,0,0,1,10.64,9.84,30.1,30.1,0,0,1,0,29.28,26,26,0,0,1-10.64,9.84,34,34,0,0,1-15.8,3.52Zm8-7h15.12a25.8,25.8,0,0,0,12-2.64,19.22,19.22,0,0,0,7.88-7.4,23.09,23.09,0,0,0,0-22,19.26,19.26,0,0,0-7.88-7.36,25.8,25.8,0,0,0-12-2.64H274.53Z" transform="translate(-20.09)"></path><path class="cls-1" d="M362.93,551V495h23.6a34,34,0,0,1,15.8,3.52A26,26,0,0,1,413,508.32a30.1,30.1,0,0,1,0,29.28,26,26,0,0,1-10.64,9.84,34,34,0,0,1-15.8,3.52Zm8-7h15.12a25.8,25.8,0,0,0,12-2.64A19.22,19.22,0,0,0,406,534a23.09,23.09,0,0,0,0-22,19.26,19.26,0,0,0-7.88-7.36,25.8,25.8,0,0,0-12-2.64H370.93Z" transform="translate(-20.09)"></path><path class="cls-1" d="M458.69,551.6a32.08,32.08,0,0,1-11.88-2.16,28.42,28.42,0,0,1-9.48-6,27.78,27.78,0,0,1-6.24-9.08,29.93,29.93,0,0,1,0-22.72,27.78,27.78,0,0,1,6.24-9.08,28.45,28.45,0,0,1,9.44-6,32,32,0,0,1,11.92-2.16,32.4,32.4,0,0,1,11.84,2.12,27.88,27.88,0,0,1,9.44,6,27.33,27.33,0,0,1,6.2,9.12,30.74,30.74,0,0,1,0,22.84,27.37,27.37,0,0,1-6.2,9.08,27.88,27.88,0,0,1-9.44,6A32.4,32.4,0,0,1,458.69,551.6Zm0-7.12a22.69,22.69,0,0,0,8.6-1.6,20.48,20.48,0,0,0,6.88-4.52,21,21,0,0,0,4.56-6.84,22,22,0,0,0,1.64-8.56,21.75,21.75,0,0,0-1.64-8.52,21.46,21.46,0,0,0-4.56-6.84,20.28,20.28,0,0,0-6.88-4.56A24.13,24.13,0,0,0,450,503a20.65,20.65,0,0,0-6.92,4.56,21.25,21.25,0,0,0-4.6,6.84,21.75,21.75,0,0,0-1.64,8.52,22,22,0,0,0,1.64,8.56A20.77,20.77,0,0,0,450,542.88,22.88,22.88,0,0,0,458.69,544.48Z" transform="translate(-20.09)"></path><path class="cls-1" d="M530.93,551V495h23.6a34,34,0,0,1,15.8,3.52A26,26,0,0,1,581,508.32a30.1,30.1,0,0,1,0,29.28,26,26,0,0,1-10.64,9.84,34,34,0,0,1-15.8,3.52Zm8-7h15.12a25.8,25.8,0,0,0,12-2.64A19.22,19.22,0,0,0,574,534a23.09,23.09,0,0,0,0-22,19.26,19.26,0,0,0-7.88-7.36,25.8,25.8,0,0,0-12-2.64H538.93Z" transform="translate(-20.09)"></path><path class="cls-1" d="M601.41,551V495h8v56Z" transform="translate(-20.09)"></path><path class="cls-1" d="M622.13,551l25.36-56h7.92l25.44,56h-8.4l-22.64-51.52H653L630.37,551Zm10.8-14,2.16-6.4h31.52l2.32,6.4Z" transform="translate(-20.09)"></path><path class="cls-1" d="M727.49,544h32.64v7H719.49V495H759v7H727.49Zm-.72-24.88h28.8v6.8h-28.8Z" transform="translate(-20.09)"></path><path class="cls-1" d="M828.45,551.6a32.07,32.07,0,0,1-11.8-2.12,27.54,27.54,0,0,1-9.36-6,28.14,28.14,0,0,1-6.2-9.08,30.33,30.33,0,0,1,0-22.88,27.86,27.86,0,0,1,15.64-15.08,33.75,33.75,0,0,1,23.76.08,24.56,24.56,0,0,1,9.32,6.52l-5.2,5a20.86,20.86,0,0,0-7.2-5,22.42,22.42,0,0,0-8.56-1.64,23.49,23.49,0,0,0-8.76,1.6,21,21,0,0,0-7,4.48,20.07,20.07,0,0,0-4.6,6.84,23.37,23.37,0,0,0,0,17.2,20.07,20.07,0,0,0,4.6,6.84,21,21,0,0,0,7,4.48,23.49,23.49,0,0,0,8.76,1.6,22.42,22.42,0,0,0,8.56-1.64,20.45,20.45,0,0,0,7.2-5.08l5.2,5a24.87,24.87,0,0,1-9.32,6.56A31.63,31.63,0,0,1,828.45,551.6Z" transform="translate(-20.09)"></path><path class="cls-1" d="M889.73,551.6a32.08,32.08,0,0,1-11.88-2.16,28.22,28.22,0,0,1-9.48-6,27.78,27.78,0,0,1-6.24-9.08,29.93,29.93,0,0,1,0-22.72,27.78,27.78,0,0,1,6.24-9.08,28.34,28.34,0,0,1,9.44-6,32,32,0,0,1,11.92-2.16,32.44,32.44,0,0,1,11.84,2.12,28,28,0,0,1,9.44,6,27.48,27.48,0,0,1,6.2,9.12,30.74,30.74,0,0,1,0,22.84,27.52,27.52,0,0,1-6.2,9.08,28,28,0,0,1-9.44,6A32.44,32.44,0,0,1,889.73,551.6Zm0-7.12a22.69,22.69,0,0,0,8.6-1.6,20.48,20.48,0,0,0,6.88-4.52,21.35,21.35,0,0,0,4.56-6.84,22,22,0,0,0,1.64-8.56,21.38,21.38,0,0,0-6.2-15.36,20.28,20.28,0,0,0-6.88-4.56,24.13,24.13,0,0,0-17.28,0,20.65,20.65,0,0,0-6.92,4.56,21.09,21.09,0,0,0-4.6,6.84,21.57,21.57,0,0,0-1.64,8.52,21.84,21.84,0,0,0,1.64,8.56,20.77,20.77,0,0,0,11.52,11.36A22.88,22.88,0,0,0,889.73,544.48Z" transform="translate(-20.09)"></path><path class="cls-1" d="M936.05,551V495h6.56l25.12,42.32H964.2L989,495h6.56l.08,56H988L987.89,507h1.84l-22.08,37.12H964L941.73,507h2V551Z" transform="translate(-20.09)"></path><path class="cls-1" d="M1068,551.6a32.16,32.16,0,0,1-11.88-2.16,28.42,28.42,0,0,1-9.48-6,28.09,28.09,0,0,1-6.24-9.08,29.93,29.93,0,0,1,0-22.72,28.09,28.09,0,0,1,6.24-9.08,28.55,28.55,0,0,1,9.44-6,32,32,0,0,1,11.92-2.16,32.36,32.36,0,0,1,11.84,2.12,27.79,27.79,0,0,1,9.44,6,27.19,27.19,0,0,1,6.2,9.12,30.74,30.74,0,0,1,0,22.84,27.22,27.22,0,0,1-6.2,9.08,27.79,27.79,0,0,1-9.44,6A32.36,32.36,0,0,1,1068,551.6Zm0-7.12a22.65,22.65,0,0,0,8.6-1.6,20.38,20.38,0,0,0,6.88-4.52,21,21,0,0,0,4.56-6.84,21.84,21.84,0,0,0,1.64-8.56,21.38,21.38,0,0,0-6.2-15.36,20.19,20.19,0,0,0-6.88-4.56,22.65,22.65,0,0,0-8.6-1.6,22.92,22.92,0,0,0-8.68,1.6,20.75,20.75,0,0,0-6.92,4.56,21.41,21.41,0,0,0-4.6,6.84,21.75,21.75,0,0,0-1.64,8.52,22,22,0,0,0,1.64,8.56,20.77,20.77,0,0,0,11.52,11.36A22.92,22.92,0,0,0,1068,544.48Z" transform="translate(-20.09)"></path><path class="cls-1" d="M153.37,647.6a32.16,32.16,0,0,1-11.88-2.16,28.42,28.42,0,0,1-9.48-6,28.09,28.09,0,0,1-6.24-9.08,29.93,29.93,0,0,1,0-22.72,28.09,28.09,0,0,1,6.24-9.08,28.55,28.55,0,0,1,9.44-6,32,32,0,0,1,11.92-2.16,32.36,32.36,0,0,1,11.84,2.12,27.79,27.79,0,0,1,9.44,6,27.19,27.19,0,0,1,6.2,9.12,30.74,30.74,0,0,1,0,22.84,27.22,27.22,0,0,1-6.2,9.08,27.79,27.79,0,0,1-9.44,6A32.36,32.36,0,0,1,153.37,647.6Zm0-7.12a22.65,22.65,0,0,0,8.6-1.6,20.19,20.19,0,0,0,6.88-4.56,21.56,21.56,0,0,0,6.2-15.36,21.84,21.84,0,0,0-1.64-8.56,21,21,0,0,0-4.56-6.84A20.38,20.38,0,0,0,162,599a22.65,22.65,0,0,0-8.6-1.6,22.92,22.92,0,0,0-8.68,1.6,20.77,20.77,0,0,0-11.52,11.36,22,22,0,0,0-1.64,8.56,21.8,21.8,0,0,0,1.64,8.48,21.36,21.36,0,0,0,4.6,6.88,20.75,20.75,0,0,0,6.92,4.56A22.92,22.92,0,0,0,153.37,640.48Zm18.32,18.16a20.13,20.13,0,0,1-10.48-2.84,35.64,35.64,0,0,1-5.28-3.84,80.49,80.49,0,0,1-5.92-5.8l8.56-2.24a37.56,37.56,0,0,0,4.6,4.84,15.51,15.51,0,0,0,4.36,2.72,11.84,11.84,0,0,0,4.32.84,13.09,13.09,0,0,0,10.16-4.8l3.76,4.56A17.44,17.44,0,0,1,171.69,658.64Z" transform="translate(-20.09)"></path><path class="cls-1" d="M222.89,647.6q-11,0-17.36-6.32t-6.32-18.48V591h8v31.52q0,9.36,4.12,13.68T223,640.48q7.6,0,11.72-4.32t4.12-13.68V591h7.76V622.8q0,12.16-6.28,18.48T222.89,647.6Z" transform="translate(-20.09)"></path><path class="cls-1" d="M275.37,640H308v7H267.37V591h39.52v7H275.37Zm-.72-24.88h28.8v6.8h-28.8Z" transform="translate(-20.09)"></path><path class="cls-1" d="M342.81,647l25.36-56h7.92l25.44,56h-8.4l-22.64-51.52h3.2L351.05,647Zm10.8-14,2.16-6.4h31.52l2.32,6.4Z" transform="translate(-20.09)"></path><path class="cls-1" d="M465.45,647.6a32.64,32.64,0,0,1-11.92-2.12,27.77,27.77,0,0,1-15.68-15.08,30.33,30.33,0,0,1,0-22.88,27.59,27.59,0,0,1,6.28-9.08,28.25,28.25,0,0,1,9.48-6,35.17,35.17,0,0,1,24.16,0,24.06,24.06,0,0,1,9.36,6.48l-5,5a22.07,22.07,0,0,0-7.48-4.92,24.09,24.09,0,0,0-8.76-1.56A24.37,24.37,0,0,0,457,599a21.29,21.29,0,0,0-7.12,4.48,19.89,19.89,0,0,0-4.64,6.84,23.16,23.16,0,0,0,0,17.12,20.34,20.34,0,0,0,4.64,6.88,21,21,0,0,0,7.08,4.52,24,24,0,0,0,8.88,1.6,26.64,26.64,0,0,0,8.6-1.4,21.08,21.08,0,0,0,7.64-4.68l4.56,6.08a28.29,28.29,0,0,1-9.72,5.32A37,37,0,0,1,465.45,647.6ZM479,639.44v-20.8h7.68v21.84Z" transform="translate(-20.09)"></path><path class="cls-1" d="M514.33,640H547v7H506.33V591h39.52v7H514.33Zm-.72-24.88h28.8v6.8h-28.8Z" transform="translate(-20.09)"></path><path class="cls-1" d="M564.33,647V591h6.56l37,46h-3.44V591h8v56h-6.56l-37-46h3.44v46Z" transform="translate(-20.09)"></path><path class="cls-1" d="M644.81,647v-49h-19.2v-7h46.32v7h-19.2v49Z" transform="translate(-20.09)"></path><path class="cls-1" d="M693.05,640h32.64v7H685.05V591h39.52v7H693.05Zm-.72-24.88h28.8v6.8h-28.8Z" transform="translate(-20.09)"></path><path class="cls-1" d="M794.25,647.6a32.08,32.08,0,0,1-11.88-2.16,28.22,28.22,0,0,1-9.48-6,27.78,27.78,0,0,1-6.24-9.08,29.93,29.93,0,0,1,0-22.72,27.78,27.78,0,0,1,6.24-9.08,28.34,28.34,0,0,1,9.44-6,32,32,0,0,1,11.92-2.16,32.44,32.44,0,0,1,11.84,2.12,28,28,0,0,1,9.44,6,27.48,27.48,0,0,1,6.2,9.12,30.74,30.74,0,0,1,0,22.84,27.52,27.52,0,0,1-6.2,9.08,28,28,0,0,1-9.44,6A32.44,32.44,0,0,1,794.25,647.6Zm0-7.12a22.69,22.69,0,0,0,8.6-1.6,20.28,20.28,0,0,0,6.88-4.56,21.56,21.56,0,0,0,6.2-15.36,22,22,0,0,0-1.64-8.56,21.35,21.35,0,0,0-4.56-6.84,20.48,20.48,0,0,0-6.88-4.52,24.13,24.13,0,0,0-17.28,0,20.77,20.77,0,0,0-11.52,11.36,21.84,21.84,0,0,0-1.64,8.56,21.62,21.62,0,0,0,1.64,8.48,21,21,0,0,0,4.6,6.88,20.65,20.65,0,0,0,6.92,4.56A22.88,22.88,0,0,0,794.25,640.48Zm18.32,18.16a20.88,20.88,0,0,1-5.36-.68,20.61,20.61,0,0,1-5.12-2.16,34.63,34.63,0,0,1-5.28-3.84,76.72,76.72,0,0,1-5.92-5.8l8.56-2.24a36.89,36.89,0,0,0,4.6,4.84,15.37,15.37,0,0,0,4.36,2.72,11.84,11.84,0,0,0,4.32.84,13.12,13.12,0,0,0,10.16-4.8l3.76,4.56A17.46,17.46,0,0,1,812.57,658.64Z" transform="translate(-20.09)"></path><path class="cls-1" d="M863.77,647.6q-11,0-17.36-6.32t-6.32-18.48V591h8v31.52q0,9.36,4.12,13.68t11.64,4.32q7.59,0,11.72-4.32t4.12-13.68V591h7.76V622.8q0,12.16-6.28,18.48T863.77,647.6Z" transform="translate(-20.09)"></path><path class="cls-1" d="M916.25,640h32.64v7H908.25V591h39.52v7H916.25Zm-.72-24.88h28.8v6.8h-28.8Z" transform="translate(-20.09)"></path><path class="cls-1" d="M966.25,647V591h21.84a30.69,30.69,0,0,1,12.56,2.32,17.88,17.88,0,0,1,8,6.72,20.94,20.94,0,0,1,0,20.92,17.93,17.93,0,0,1-8,6.68,30.69,30.69,0,0,1-12.56,2.32H970.65l3.6-3.68V647Zm8-19.92-3.6-3.92h17.2q7.68,0,11.64-3.32t4-9.32q0-6-4-9.28t-11.64-3.28h-17.2l3.6-4ZM1003.69,647l-14.24-20.32H998l14.4,20.32Z" transform="translate(-20.09)"></path><path class="cls-1" d="M331.77,743.6q-11,0-17.36-6.32t-6.32-18.48V687h8v31.52q0,9.36,4.12,13.68t11.64,4.32q7.61,0,11.72-4.32t4.12-13.68V687h7.76V718.8q0,12.16-6.28,18.48T331.77,743.6Z" transform="translate(-20.09)"></path><path class="cls-1" d="M392.57,743.6a38.09,38.09,0,0,1-12.24-2,25.15,25.15,0,0,1-9.2-5.08l3-6.24a25.91,25.91,0,0,0,8.16,4.64,29.39,29.39,0,0,0,10.32,1.84,23.27,23.27,0,0,0,7.92-1.12A9.37,9.37,0,0,0,405,732.6a7.32,7.32,0,0,0,1.44-4.44,6.07,6.07,0,0,0-1.88-4.64,14,14,0,0,0-4.88-2.84,53.69,53.69,0,0,0-6.6-1.88q-3.6-.79-7.24-1.88a32.33,32.33,0,0,1-6.64-2.76,13.64,13.64,0,0,1-4.84-4.52,13.2,13.2,0,0,1-1.84-7.32,14.71,14.71,0,0,1,2.28-8,15.85,15.85,0,0,1,7-5.84,28.89,28.89,0,0,1,12.12-2.2,37.58,37.58,0,0,1,9.68,1.28,26.94,26.94,0,0,1,8.32,3.68l-2.64,6.4a25.69,25.69,0,0,0-7.6-3.48,29.72,29.72,0,0,0-7.76-1.08,21.36,21.36,0,0,0-7.76,1.2,9.45,9.45,0,0,0-4.44,3.2,7.65,7.65,0,0,0-1.4,4.48,6.17,6.17,0,0,0,1.88,4.72,13.47,13.47,0,0,0,4.88,2.8,66.86,66.86,0,0,0,6.6,1.88q3.6.84,7.24,1.88a30.68,30.68,0,0,1,6.64,2.72,13.71,13.71,0,0,1,4.84,4.48,12.87,12.87,0,0,1,1.84,7.2,14.36,14.36,0,0,1-2.32,7.88,16,16,0,0,1-7.16,5.84A29.48,29.48,0,0,1,392.57,743.6Z" transform="translate(-20.09)"></path><path class="cls-1" d="M421.85,743l25.36-56h7.92l25.44,56h-8.4l-22.64-51.52h3.2L430.09,743Zm10.8-14,2.16-6.4h31.52l2.32,6.4Z" transform="translate(-20.09)"></path><path class="cls-1" d="M493.29,743V687h21.84a30.65,30.65,0,0,1,12.56,2.32,17.83,17.83,0,0,1,8,6.72,20.94,20.94,0,0,1,0,20.92,17.87,17.87,0,0,1-8,6.68,30.65,30.65,0,0,1-12.56,2.32H497.69l3.6-3.68V743Zm8-19.92-3.6-3.92h17.2q7.68,0,11.64-3.32t4-9.32q0-6-4-9.28t-11.64-3.28h-17.2l3.6-4ZM530.73,743l-14.24-20.32h8.56L539.45,743Z" transform="translate(-20.09)"></path><path class="cls-1" d="M589.77,743h-8V687h8Zm32.88-25H589v-7h33.68Zm-.72-31h8v56h-8Z" transform="translate(-20.09)"></path><path class="cls-1" d="M676.41,743.6a32.08,32.08,0,0,1-11.88-2.16,28.22,28.22,0,0,1-9.48-6,27.78,27.78,0,0,1-6.24-9.08,29.93,29.93,0,0,1,0-22.72,27.78,27.78,0,0,1,6.24-9.08,28.34,28.34,0,0,1,9.44-6,32,32,0,0,1,11.92-2.16,32.44,32.44,0,0,1,11.84,2.12,28,28,0,0,1,9.44,6,27.48,27.48,0,0,1,6.2,9.12,30.74,30.74,0,0,1,0,22.84,27.52,27.52,0,0,1-6.2,9.08,28,28,0,0,1-9.44,6A32.44,32.44,0,0,1,676.41,743.6Zm0-7.12a22.69,22.69,0,0,0,8.6-1.6,20.48,20.48,0,0,0,6.88-4.52,21.35,21.35,0,0,0,4.56-6.84,22,22,0,0,0,1.64-8.56,21.38,21.38,0,0,0-6.2-15.36A20.28,20.28,0,0,0,685,695a24.13,24.13,0,0,0-17.28,0,20.65,20.65,0,0,0-6.92,4.56,21.09,21.09,0,0,0-4.6,6.84,21.75,21.75,0,0,0-1.64,8.52,22,22,0,0,0,1.64,8.56,20.77,20.77,0,0,0,11.52,11.36A22.88,22.88,0,0,0,676.41,736.48Z" transform="translate(-20.09)"></path><path class="cls-1" d="M728.73,743.6a21.06,21.06,0,0,1-9.28-2.08,17.88,17.88,0,0,1-7-6l4.64-5.44a17.47,17.47,0,0,0,5.24,4.92,12.4,12.4,0,0,0,6.44,1.72q9.6,0,9.6-11.36V693.92H718.09v-7h28.16v38q0,9.36-4.44,14T728.73,743.6Z" transform="translate(-20.09)"></path><path class="cls-1" d="M775,736h32.64v7H767V687h39.52v7H775Zm-.72-24.88h28.8v6.8h-28.8Z" transform="translate(-20.09)"></path><path class="cls-1" d="M826.49,743.44a5.41,5.41,0,0,1-5.45-5.52,5.16,5.16,0,0,1,1.61-3.92,5.37,5.37,0,0,1,3.84-1.52A5.15,5.15,0,0,1,830.2,734a5.24,5.24,0,0,1,1.57,3.92,5.37,5.37,0,0,1-1.57,4A5.07,5.07,0,0,1,826.49,743.44Z" transform="translate(-20.09)"></path></g></g></g></svg>