<svg xmlns="http://www.w3.org/2000/svg" viewBox="0 0 2061.7 1768.81"><defs><style>.cls-1{fill:#b43176;}.cls-2{fill:#fff;}.cls-3{fill:#ededee;}.cls-4{fill:none;stroke:#717175;stroke-miterlimit:10;stroke-width:11px;opacity:0.2;}</style></defs><title>Ativo 101</title><g id="Camada_2" data-name="Camada 2"><g id="Camada_1-2" data-name="Camada 1"><g id="DESKTOP6"><g id="DESKTOP5"><g id="E_QUER_SABER" data-name="E QUER SABER"><path d="M624.27,186.47l54.18-3.71L680,205.55l-83,5.69-7.1-103.62L671,102.07l1.56,22.8-52.25,3.57Zm-4.86-40.57,48.11-3.29L669,164.37l-48.11,3.29Z" transform="translate(-13.29 -23.05)"/><path d="M791.75,200a64.4,64.4,0,0,1-23.14-2.43,53.16,53.16,0,0,1-32.3-26.42,54.86,54.86,0,0,1-2.93-42.85,53.38,53.38,0,0,1,28.4-30.5,67.78,67.78,0,0,1,45.81-3.13,55.29,55.29,0,0,1,19,10,51.32,51.32,0,0,1,13.23,16.19,56.44,56.44,0,0,1,3,43.15,51.25,51.25,0,0,1-10.9,17.92,55.36,55.36,0,0,1-17.51,12.5A64.09,64.09,0,0,1,791.75,200Zm-1.66-24.28A29.2,29.2,0,0,0,801,172.89a25.61,25.61,0,0,0,8.47-6.61,28.48,28.48,0,0,0,5.28-9.8A33.41,33.41,0,0,0,816,144.19a33.05,33.05,0,0,0-3-12,28.19,28.19,0,0,0-6.56-9,25.63,25.63,0,0,0-9.29-5.39,30.43,30.43,0,0,0-22.06,1.51,26.29,26.29,0,0,0-8.54,6.61,26.77,26.77,0,0,0-5.28,9.8A36.72,36.72,0,0,0,763,160a26.59,26.59,0,0,0,6.57,9,26.25,26.25,0,0,0,9.36,5.39A29.09,29.09,0,0,0,790.09,175.71Zm37.13,44.9a53.28,53.28,0,0,1-12.61-.55A43.59,43.59,0,0,1,803,216.32a68.43,68.43,0,0,1-12.05-7.65q-6.36-4.92-14.29-12.26l30.11-9.79a71.73,71.73,0,0,0,7.25,8.2,18.09,18.09,0,0,0,6.15,4,15.2,15.2,0,0,0,6.23.84q8.58-.58,15.19-8.47l13.78,14.52Q845.57,219.36,827.22,220.61Z" transform="translate(-13.29 -23.05)"/><path d="M912.54,191.72q-22.95,1.58-36.61-10.13t-15.24-34.65l-3.94-57.58,29.31-2,3.88,56.7q.9,13.17,6.48,18.59t14.75,4.79q9.18-.63,13.89-6.75t3.81-19.3L925,84.69l29-2,3.94,57.58q1.57,23-10.52,36.42T912.54,191.72Z" transform="translate(-13.29 -23.05)"/><path d="M1008.38,160.18l54.17-3.71,1.56,22.8-83,5.68L974,81.34l81.12-5.55,1.56,22.79-52.25,3.58Zm-4.86-40.56,48.11-3.3,1.49,21.76-48.11,3.3Z" transform="translate(-13.29 -23.05)"/><path d="M1080.54,178.14l-7.09-103.61,47.22-3.23q14.22-1,24.89,2.91a35.32,35.32,0,0,1,16.82,12.16,36.94,36.94,0,0,1,6.94,20q.83,12-4.15,20.8a35.53,35.53,0,0,1-15,14q-10,5.22-24.26,6.19l-31.09,2.13,12.33-13.34,2.73,40Zm26.81-38.56-14.11-12.72,29.31-2q9.18-.61,13.5-4.93c2.87-2.88,4.15-6.73,3.81-11.57-.31-4.63-2.1-8.2-5.34-10.71s-7.93-3.55-14-3.13l-29.31,2,12.25-14.37Zm37.14,34.19-28.34-36,31.23-2.14,28.49,36Z" transform="translate(-13.29 -23.05)"/><path d="M1269.56,167.29a94.36,94.36,0,0,1-24.87-1.49q-12-2.38-19.57-6.77l8.13-22.42a67.62,67.62,0,0,0,16.57,6.23,59.89,59.89,0,0,0,18.33,1.65,37.85,37.85,0,0,0,9.77-1.71,11,11,0,0,0,5.12-3.33,6.7,6.7,0,0,0,1.39-4.7,6.09,6.09,0,0,0-3.62-5.18,32.45,32.45,0,0,0-8.75-2.83q-5.36-1-11.58-1.88a113.19,113.19,0,0,1-12.73-2.48,47.92,47.92,0,0,1-11.92-4.68,26.33,26.33,0,0,1-9-8.31q-3.55-5.25-4.12-13.55a29.56,29.56,0,0,1,3.89-17.07q4.52-7.89,14.41-13.18t25.15-6.33a88,88,0,0,1,20.21.92,59.3,59.3,0,0,1,17.87,5.69l-7.41,22.22A63.46,63.46,0,0,0,1281.79,83a55.07,55.07,0,0,0-14.2-1,29.84,29.84,0,0,0-9.68,2,11.69,11.69,0,0,0-5.09,3.77,7.16,7.16,0,0,0-1.33,4.56,6.24,6.24,0,0,0,3.64,5.32,29.32,29.32,0,0,0,8.66,2.68q5.26.92,11.65,1.81a128.71,128.71,0,0,1,12.73,2.47,50,50,0,0,1,11.84,4.55,26.36,26.36,0,0,1,9.11,8.15q3.63,5.17,4.18,13.32a29.43,29.43,0,0,1-4,17q-4.59,8-14.49,13.26T1269.56,167.29Z" transform="translate(-13.29 -23.05)"/><path d="M1316.34,162,1355,55.26l28.87-2,53,100.47-30.5,2.09L1364.4,69l11.55-.79L1346.24,160ZM1340,140l6.08-22,50.63-3.47,9,21Z" transform="translate(-13.29 -23.05)"/><path d="M1445.26,153.19l-7.09-103.62,52.7-3.61q20.57-1.4,31.15,5.46t11.41,18.85a24.37,24.37,0,0,1-3.19,14.34,27.27,27.27,0,0,1-11.19,10.29,44.6,44.6,0,0,1-17.82,4.64l2.32-7.3a50.46,50.46,0,0,1,19.25,2,28.1,28.1,0,0,1,13.39,8.82,25.71,25.71,0,0,1,5.56,14.94,24.09,24.09,0,0,1-9.45,21.62q-10.36,8.28-31.38,9.73ZM1472.68,130l24.57-1.68q7.7-.53,11.37-3.38c2.44-1.9,3.55-4.63,3.3-8.18s-1.7-6.1-4.39-7.66-6.59-2.15-11.72-1.8l-26.64,1.83-1.39-20.28,22.2-1.52q7.41-.51,10.93-3.28a8.39,8.39,0,0,0,3.2-7.65q-.36-5.18-4.23-7.37t-11.27-1.68l-20.13,1.37Z" transform="translate(-13.29 -23.05)"/><path d="M1586.39,120.63l54.18-3.71,1.56,22.79-83,5.69L1552,41.78l81.11-5.55,1.56,22.8-52.25,3.57Zm-4.85-40.57,48.1-3.29,1.49,21.76L1583,101.82Z" transform="translate(-13.29 -23.05)"/><path d="M1658.56,138.59,1651.47,35l47.22-3.23q14.2-1,24.88,2.91a35.36,35.36,0,0,1,16.82,12.16,37,37,0,0,1,6.95,20q.81,12-4.16,20.81a35.37,35.37,0,0,1-15,14q-10.07,5.22-24.27,6.2L1672.81,110l12.32-13.33,2.74,40ZM1685.37,100l-14.11-12.71,29.31-2q9.18-.63,13.49-4.94t3.82-11.56q-.48-7-5.34-10.72t-14-3.12l-29.31,2,12.26-14.37Zm37.13,34.19-28.33-36,31.23-2.14,28.49,36Z" transform="translate(-13.29 -23.05)"/><path d="M1785.64,92a22.07,22.07,0,0,1,1-8.69,29.47,29.47,0,0,1,3.46-7,45.78,45.78,0,0,1,4.73-5.9q2.57-2.7,4.78-5.09a24.1,24.1,0,0,0,3.6-4.93,9.37,9.37,0,0,0,1.21-5.21,8.08,8.08,0,0,0-4.1-6.64,15.89,15.89,0,0,0-9.58-1.95,20.92,20.92,0,0,0-10.53,3.55,22,22,0,0,0-7.25,8.23l-22.85-10.18a43.69,43.69,0,0,1,15.63-17.06q10.39-6.74,27-7.87A58.89,58.89,0,0,1,1813,25a30.91,30.91,0,0,1,14.4,8.46,23.52,23.52,0,0,1,6.08,14.9,27.58,27.58,0,0,1-1,10.19,25.51,25.51,0,0,1-4.07,7.86q-2.67,3.45-5.44,6.39c-1.85,2-3.68,3.85-5.49,5.66a24.39,24.39,0,0,0-4.23,5.49,11.07,11.07,0,0,0-1.29,6.19Zm15.85,38.18a16.54,16.54,0,0,1-12.38-3.77,14.88,14.88,0,0,1-5.41-10.63,14.32,14.32,0,0,1,3.92-11.2q4.37-4.68,11.76-5.19,7.56-.52,12.51,3.53a14.34,14.34,0,0,1,5.41,10.56,14.86,14.86,0,0,1-3.91,11.27C1810.49,128,1806.52,129.8,1801.49,130.15Z" transform="translate(-13.29 -23.05)"/><rect class="cls-1" x="1060.16" y="342.72" width="720" height="113.14" transform="translate(-35.78 67.93) rotate(-3.64)"/><rect class="cls-1" x="16.14" y="520.49" width="740.85" height="113.14" transform="translate(-49.16 2.66) rotate(-3.64)"/><polygon class="cls-1" points="1892.92 608.75 1890.9 608.88 1884.4 506.79 1502.12 531.11 1508.61 633.2 1153.57 655.79 1160.76 768.71 1900.11 721.66 1892.92 608.75"/><path class="cls-1" d="M43.08,419l-4.44-64.12,9.81-.67,43.63,46.67-4.86.34L83.8,351.71l11.72-.81L100,415l-9.8.68L46.62,369l4.85-.34,3.43,49.46Z" transform="translate(-13.29 -23.05)"/><path class="cls-1" d="M152.42,412.31a38,38,0,0,1-14-1.52,33,33,0,0,1-11.52-6.2,31.84,31.84,0,0,1-8-10,34.75,34.75,0,0,1-1.81-26.19,31.19,31.19,0,0,1,6.51-11,33.6,33.6,0,0,1,10.51-7.67,37.64,37.64,0,0,1,13.66-3.43,38.28,38.28,0,0,1,13.91,1.47A32.43,32.43,0,0,1,173.18,354a31.47,31.47,0,0,1,7.92,10,33.65,33.65,0,0,1,3.47,13,33.22,33.22,0,0,1-1.65,13.32A31.9,31.9,0,0,1,166,408.93,38.27,38.27,0,0,1,152.42,412.31Zm-.73-10.45a23.71,23.71,0,0,0,8.82-2.26,21.35,21.35,0,0,0,6.78-5.16,21.79,21.79,0,0,0,4.22-7.48,23.78,23.78,0,0,0,1.07-9.18,24.24,24.24,0,0,0-2.28-8.95,20.7,20.7,0,0,0-5.21-6.82,21.65,21.65,0,0,0-7.47-4.18,23.74,23.74,0,0,0-9-1,24.29,24.29,0,0,0-8.91,2.27,20.72,20.72,0,0,0-6.87,5.22A23.22,23.22,0,0,0,135,396.62a20.63,20.63,0,0,0,7.52,4.22A24.15,24.15,0,0,0,151.69,401.86Z" transform="translate(-13.29 -23.05)"/><path class="cls-1" d="M246.69,404.86l-11.9.83-4.44-64.12,46.8-3.24.7,10.08L243,350.82Zm-3.3-34.47,31.87-2.2.69,9.89-31.88,2.21Z" transform="translate(-13.29 -23.05)"/><path class="cls-1" d="M298.17,401.3l-4.44-64.11,11.91-.83,4.44,64.12Z" transform="translate(-13.29 -23.05)"/><path class="cls-1" d="M332.42,398.93,328,334.82l9.8-.68L369.05,379l-5.13.36,24.34-48.71,9.8-.68,4.62,64.1-11.45.79L388,348.42l2.29-.15-20.55,40.81-5.4.37L337.82,351.9l2.75-.19,3.21,46.44Z" transform="translate(-13.29 -23.05)"/><path class="cls-1" d="M421.77,406.74,425.58,386l2.22,6.75a7.82,7.82,0,0,1-5.59-1.59,7,7,0,0,1-2.53-5.3,7.24,7.24,0,0,1,1.78-5.6,7.37,7.37,0,0,1,5.12-2.43,7.18,7.18,0,0,1,5.5,1.74,7.38,7.38,0,0,1,2.44,5.26,12,12,0,0,1,0,2.07,18.48,18.48,0,0,1-.47,2.48c-.25.93-.59,2.12-1.05,3.57l-3.86,13.33Z" transform="translate(-13.29 -23.05)"/><path class="cls-1" d="M473.57,389.17,498,323.05l11.73-.81,33.38,62.12-12.55.86-28.73-56.08,4.76-.33-20.82,59.51Zm12.25-15.76,2.65-9.57L523,361.45l3.85,9.12Z" transform="translate(-13.29 -23.05)"/><path class="cls-1" d="M616.61,380.19a38.15,38.15,0,0,1-14-1.47,32.8,32.8,0,0,1-11.42-6.16,31.84,31.84,0,0,1-8-9.94,35.22,35.22,0,0,1-1.82-26.38A31.41,31.41,0,0,1,588,325.29a32.94,32.94,0,0,1,10.51-7.67,41.46,41.46,0,0,1,28.59-1.75,29,29,0,0,1,11.58,7l-7,7.85a24.73,24.73,0,0,0-8.49-5,25,25,0,0,0-9.69-1.13,25.91,25.91,0,0,0-9.28,2.3,21.86,21.86,0,0,0-7.05,5.18,21.63,21.63,0,0,0-4.36,7.48,24.42,24.42,0,0,0,1.26,18.09,21.31,21.31,0,0,0,5.35,6.86,21.69,21.69,0,0,0,7.65,4.16,25.3,25.3,0,0,0,9.46,1,28.34,28.34,0,0,0,9.1-2.15,25,25,0,0,0,8.12-5.67l7.3,8.43a34.41,34.41,0,0,1-11.12,6.89A45.32,45.32,0,0,1,616.61,380.19Zm13.16-10.67-1.66-23.9,11.18-.78,1.76,25.47Z" transform="translate(-13.29 -23.05)"/><path class="cls-1" d="M673.55,365.21l36.18-2.51.7,10.08-48.09,3.32L657.9,312l46.81-3.24.7,10.08-34.9,2.41Zm-2.81-27.33,31.87-2.2.68,9.8-31.87,2.2Z" transform="translate(-13.29 -23.05)"/><path class="cls-1" d="M728.74,371.51l-4.43-64.12,9.8-.67,43.63,46.67-4.85.34-3.43-49.46,11.73-.81,4.43,64.12-9.8.67-43.54-46.68,4.86-.34,3.42,49.46Z" transform="translate(-13.29 -23.05)"/><path class="cls-1" d="M821,365.13l-3.74-54L796,312.56l-.7-10.08,54.41-3.76.7,10.07-21.25,1.47,3.74,54Z" transform="translate(-13.29 -23.05)"/><path class="cls-1" d="M879.36,351l36.18-2.51.7,10.08-48.09,3.33-4.44-64.12,46.81-3.24.7,10.08L876.32,307Zm-2.81-27.33,31.87-2.2.68,9.8-31.87,2.2Z" transform="translate(-13.29 -23.05)"/><path class="cls-1" d="M964.87,355.17l-4.43-64.11,9.8-.68,31.26,44.86-5.13.36,24.33-48.71,9.81-.68,4.61,64.1-11.44.79-3.22-46.43,2.29-.16-20.55,40.81-5.4.37-26.53-37.55L973,308l3.21,46.44Z" transform="translate(-13.29 -23.05)"/><path class="cls-1" d="M1068.59,337.87l36.18-2.5.7,10.08-48.09,3.32-4.44-64.11,46.81-3.24.7,10.07-34.9,2.42Zm-2.81-27.32,31.87-2.21.68,9.81-31.87,2.2Z" transform="translate(-13.29 -23.05)"/><path class="cls-1" d="M1123.79,344.18l-4.44-64.12,11.91-.82,4.43,64.11Z" transform="translate(-13.29 -23.05)"/><path class="cls-1" d="M1188.15,340.65a38,38,0,0,1-14-1.52,33,33,0,0,1-11.52-6.2,31.84,31.84,0,0,1-8-10,34.75,34.75,0,0,1-1.81-26.19,31.19,31.19,0,0,1,6.51-10.95,33.65,33.65,0,0,1,10.52-7.67,37.54,37.54,0,0,1,13.65-3.43,38.07,38.07,0,0,1,13.91,1.47,32.43,32.43,0,0,1,11.42,6.12,31.47,31.47,0,0,1,7.92,10,35.11,35.11,0,0,1,1.82,26.33,31.89,31.89,0,0,1-16.93,18.66A38.27,38.27,0,0,1,1188.15,340.65Zm-.73-10.45a23.71,23.71,0,0,0,8.82-2.26,21.24,21.24,0,0,0,6.78-5.17,21.66,21.66,0,0,0,4.22-7.47,23.78,23.78,0,0,0,1.07-9.18,24.24,24.24,0,0,0-2.28-8.95,20.7,20.7,0,0,0-5.21-6.82,21.65,21.65,0,0,0-7.47-4.18,23.74,23.74,0,0,0-9-1,24.29,24.29,0,0,0-8.91,2.27,20.55,20.55,0,0,0-6.86,5.22,22.56,22.56,0,0,0-5.39,16.61,22.76,22.76,0,0,0,7.62,15.72,20.63,20.63,0,0,0,7.52,4.22A24.15,24.15,0,0,0,1187.42,330.2Z" transform="translate(-13.29 -23.05)"/><path class="cls-1" d="M1300.62,332.86a37.53,37.53,0,0,1-13.95-1.52,33,33,0,0,1-11.52-6.19,31.7,31.7,0,0,1-8-10,34.67,34.67,0,0,1-1.81-26.15,31.7,31.7,0,0,1,6.51-10.94,33.12,33.12,0,0,1,10.51-7.72,37.39,37.39,0,0,1,13.66-3.43,38.09,38.09,0,0,1,13.91,1.47,31.91,31.91,0,0,1,19.34,16.15,35.11,35.11,0,0,1,1.82,26.29,31.95,31.95,0,0,1-16.94,18.66A38.21,38.21,0,0,1,1300.62,332.86Zm-.72-10.44a23.52,23.52,0,0,0,8.82-2.27,21.24,21.24,0,0,0,11-12.72,25.45,25.45,0,0,0-1.24-18,21.37,21.37,0,0,0-12.68-11,23.59,23.59,0,0,0-9-1,24.29,24.29,0,0,0-8.9,2.27,20.59,20.59,0,0,0-6.87,5.21,23.23,23.23,0,0,0,2.24,32.34,20.78,20.78,0,0,0,7.52,4.22A24.53,24.53,0,0,0,1299.9,322.42Zm22.61,22.18a25.56,25.56,0,0,1-6.65-.37,26.51,26.51,0,0,1-6.41-2.13,37.3,37.3,0,0,1-6.73-4.23q-3.49-2.7-7.73-6.64l12.42-4.08a34.69,34.69,0,0,0,5.27,5.06,16.91,16.91,0,0,0,4.78,2.62,11.9,11.9,0,0,0,4.51.61,14.48,14.48,0,0,0,10.72-6l5.87,6.31A20.47,20.47,0,0,1,1322.51,344.6Z" transform="translate(-13.29 -23.05)"/><path class="cls-1" d="M1380.22,327.36q-13.1.9-21.08-6t-9-21l-2.5-36.09,11.91-.82,2.47,35.72q.69,9.9,5.25,14.09t12.36,3.65q7.78-.54,11.69-5.32t3.22-14.67l-2.48-35.72,11.73-.81,2.5,36.09q1,14.1-6,22T1380.22,327.36Z" transform="translate(-13.29 -23.05)"/><path class="cls-1" d="M1441.19,312.09l36.18-2.5.7,10.08L1430,323l-4.44-64.11,46.81-3.24.7,10.07-34.9,2.42Zm-2.81-27.32,31.88-2.21.67,9.81-31.87,2.2Z" transform="translate(-13.29 -23.05)"/><path class="cls-1" d="M1536.66,316.53a26.56,26.56,0,0,1-11.39-1.6,21.23,21.23,0,0,1-9-6.38l6.22-8.53a19.39,19.39,0,0,0,6.2,5.1,13.77,13.77,0,0,0,7.13,1.34q9.89-.68,9.07-12.5l-2.28-33.06-22.81,1.57-.7-10.07,34.63-2.4,2.94,42.5q.78,11.37-4.33,17.33T1536.66,316.53Z" transform="translate(-13.29 -23.05)"/><path class="cls-1" d="M1607.55,311.63q-13.1.9-21.07-6t-9-21l-2.5-36.09,11.91-.82,2.47,35.72q.69,9.9,5.26,14.09t12.35,3.65q7.79-.54,11.69-5.32t3.22-14.67l-2.47-35.72,11.72-.81,2.5,36.09q1,14.1-6,22T1607.55,311.63Z" transform="translate(-13.29 -23.05)"/><path class="cls-1" d="M1657.31,307.26l-4.43-64.11,9.8-.68,43.63,46.68-4.85.33L1698,240l11.72-.81,4.44,64.12-9.81.68-43.54-46.69,4.86-.33,3.42,49.46Z" transform="translate(-13.29 -23.05)"/><path class="cls-1" d="M1749.55,300.88l-3.74-54-21.25,1.47-.7-10.07,54.41-3.77.7,10.08L1757.72,246l3.74,54Z" transform="translate(-13.29 -23.05)"/><path class="cls-1" d="M1784.45,298.47l24.41-66.11,11.73-.82L1854,293.66l-12.55.87-28.73-56.09,4.76-.33-20.82,59.52Zm12.25-15.76,2.65-9.57,34.53-2.39,3.86,9.12Z" transform="translate(-13.29 -23.05)"/><path class="cls-1" d="M346.42,505.22l-3.74-54-21.25,1.47-.7-10.08,54.41-3.76.7,10.07-21.25,1.47,3.74,54Z" transform="translate(-13.29 -23.05)"/><path class="cls-1" d="M422.78,500.86a38,38,0,0,1-14-1.52,33.09,33.09,0,0,1-11.51-6.2,31.73,31.73,0,0,1-8-10A34.88,34.88,0,0,1,387.53,457,31.35,31.35,0,0,1,394,446a33.65,33.65,0,0,1,10.52-7.67,37.59,37.59,0,0,1,13.66-3.43,38.25,38.25,0,0,1,13.9,1.47,32.47,32.47,0,0,1,11.43,6.12,31.47,31.47,0,0,1,7.91,10,33.48,33.48,0,0,1,3.48,13,33,33,0,0,1-1.66,13.32,31.89,31.89,0,0,1-16.93,18.66A38.22,38.22,0,0,1,422.78,500.86Zm-.72-10.45a23.71,23.71,0,0,0,8.81-2.26,21.24,21.24,0,0,0,6.78-5.17,21.5,21.5,0,0,0,4.22-7.47,23.59,23.59,0,0,0,1.07-9.18,24.24,24.24,0,0,0-2.28-8.95,20.57,20.57,0,0,0-5.21-6.82,21.47,21.47,0,0,0-7.47-4.18,23.71,23.71,0,0,0-9-1,24.29,24.29,0,0,0-8.91,2.27,20.68,20.68,0,0,0-6.86,5.22,22.69,22.69,0,0,0-4.27,7.47,23.22,23.22,0,0,0,6.51,24.86,20.59,20.59,0,0,0,7.51,4.22A24.2,24.2,0,0,0,422.06,490.41Z" transform="translate(-13.29 -23.05)"/><path class="cls-1" d="M474.83,496.33l-4.43-64.11,28.12-2A40.06,40.06,0,0,1,517,433a29.74,29.74,0,0,1,13.1,10.37,34.58,34.58,0,0,1,2.33,33.7,29.7,29.7,0,0,1-11.54,12.08A40,40,0,0,1,503,494.39ZM486,485.43l15.48-1.07a26.68,26.68,0,0,0,12.32-3.61,20.54,20.54,0,0,0,7.71-8.26,22.23,22.23,0,0,0,2.17-11.84,21.71,21.71,0,0,0-3.78-11.34,20.78,20.78,0,0,0-8.77-7,26.65,26.65,0,0,0-12.69-1.88L483,441.47Z" transform="translate(-13.29 -23.05)"/><path class="cls-1" d="M545.54,491.44,570,425.33l11.72-.81,33.38,62.11-12.54.87-28.73-56.09,4.76-.33L557.73,490.6Zm12.26-15.76,2.65-9.57L595,463.72l3.85,9.12Z" transform="translate(-13.29 -23.05)"/><path class="cls-1" d="M648.19,485.26a47.35,47.35,0,0,1-14.48-1.16,32.51,32.51,0,0,1-11.33-4.79l3.48-9.53a33.43,33.43,0,0,0,9.88,4.38,34.74,34.74,0,0,0,11.77,1.21,25.08,25.08,0,0,0,8.07-1.67,9.7,9.7,0,0,0,4.38-3.29,6.75,6.75,0,0,0,1.17-4.36,5.92,5.92,0,0,0-2.43-4.57,15.54,15.54,0,0,0-5.65-2.46q-3.42-.82-7.55-1.41c-2.76-.4-5.53-.92-8.3-1.59a36.76,36.76,0,0,1-7.69-2.74,15.49,15.49,0,0,1-5.82-4.89,15.67,15.67,0,0,1-2.64-8.28,17.44,17.44,0,0,1,2.13-9.77,19.36,19.36,0,0,1,8-7.55q5.53-3,14.33-3.61a45.79,45.79,0,0,1,11.55.67,33.29,33.29,0,0,1,10.19,3.53l-3.12,9.51a35.32,35.32,0,0,0-9.15-3.18,33.23,33.23,0,0,0-8.87-.63,22.51,22.51,0,0,0-7.89,1.74,9.77,9.77,0,0,0-4.32,3.47,7.32,7.32,0,0,0-1.11,4.45,6,6,0,0,0,2.38,4.58,14.72,14.72,0,0,0,5.6,2.42c2.27.51,4.81,1,7.6,1.4s5.55.95,8.3,1.59a35.92,35.92,0,0,1,7.64,2.69,15.75,15.75,0,0,1,5.81,4.85,15.29,15.29,0,0,1,2.64,8.15,17.31,17.31,0,0,1-2.14,9.67,19.29,19.29,0,0,1-8.08,7.55Q657,484.66,648.19,485.26Z" transform="translate(-13.29 -23.05)"/><path class="cls-1" d="M732.43,468.39l36.18-2.51.7,10.08-48.09,3.33-4.44-64.12,46.81-3.24.7,10.08-34.9,2.41Zm-2.81-27.33,31.87-2.2.68,9.8-31.87,2.2Z" transform="translate(-13.29 -23.05)"/><path class="cls-1" d="M807.56,474.23a47.38,47.38,0,0,1-14.48-1.16,32.6,32.6,0,0,1-11.33-4.78l3.48-9.54a33.43,33.43,0,0,0,9.88,4.38,34.52,34.52,0,0,0,11.77,1.21,25.24,25.24,0,0,0,8.08-1.66,9.81,9.81,0,0,0,4.37-3.3A6.74,6.74,0,0,0,820.5,455a5.91,5.91,0,0,0-2.43-4.57,15.71,15.71,0,0,0-5.65-2.46c-2.28-.55-4.79-1-7.55-1.41s-5.53-.92-8.3-1.59a36.75,36.75,0,0,1-7.69-2.73,14.66,14.66,0,0,1-8.46-13.18,17.41,17.41,0,0,1,2.13-9.76,19.23,19.23,0,0,1,8-7.55q5.53-3,14.34-3.62a46.31,46.31,0,0,1,11.55.67,33.59,33.59,0,0,1,10.18,3.53l-3.12,9.52a34.79,34.79,0,0,0-9.14-3.19,34.12,34.12,0,0,0-8.88-.63,23,23,0,0,0-7.89,1.74,9.63,9.63,0,0,0-4.31,3.48,7.25,7.25,0,0,0-1.12,4.44,6,6,0,0,0,2.38,4.58,14.63,14.63,0,0,0,5.6,2.42q3.42.78,7.6,1.41t8.3,1.59a34.85,34.85,0,0,1,7.64,2.69,15.72,15.72,0,0,1,5.81,4.84,15.2,15.2,0,0,1,2.64,8.15,17.31,17.31,0,0,1-2.14,9.67,19.31,19.31,0,0,1-8.08,7.56Q816.36,473.62,807.56,474.23Z" transform="translate(-13.29 -23.05)"/><path class="cls-1" d="M870.22,469.9a47.73,47.73,0,0,1-14.49-1.16A32.6,32.6,0,0,1,844.4,464l3.48-9.53a33.69,33.69,0,0,0,9.88,4.38A34.77,34.77,0,0,0,869.53,460a25.21,25.21,0,0,0,8.08-1.67,9.72,9.72,0,0,0,4.37-3.29,6.75,6.75,0,0,0,1.17-4.36,5.89,5.89,0,0,0-2.43-4.57,15.37,15.37,0,0,0-5.65-2.46c-2.28-.55-4.79-1-7.55-1.42s-5.53-.92-8.3-1.58a36.76,36.76,0,0,1-7.69-2.74,15.49,15.49,0,0,1-5.82-4.89,15.76,15.76,0,0,1-2.64-8.28A17.44,17.44,0,0,1,845.2,415a19.3,19.3,0,0,1,8-7.55q5.53-3,14.34-3.61a45.84,45.84,0,0,1,11.55.67A33.32,33.32,0,0,1,889.31,408l-3.12,9.51a35.53,35.53,0,0,0-9.14-3.19,33.67,33.67,0,0,0-8.88-.62,22.51,22.51,0,0,0-7.89,1.74,9.62,9.62,0,0,0-4.31,3.47,7.26,7.26,0,0,0-1.12,4.45,5.93,5.93,0,0,0,2.39,4.58,14.67,14.67,0,0,0,5.59,2.42q3.42.76,7.6,1.4t8.3,1.59a35.92,35.92,0,0,1,7.64,2.69,15.65,15.65,0,0,1,5.81,4.85,15.19,15.19,0,0,1,2.64,8.14,17.34,17.34,0,0,1-2.14,9.68,19.29,19.29,0,0,1-8.08,7.55Q879,469.3,870.22,469.9Z" transform="translate(-13.29 -23.05)"/><path class="cls-1" d="M903.86,466.65l24.41-66.11,11.73-.81,33.38,62.11-12.55.87L932.1,406.62l4.76-.33L916,465.81Zm12.25-15.76,2.65-9.57,34.53-2.39,3.86,9.12Z" transform="translate(-13.29 -23.05)"/><path class="cls-1" d="M1006.51,460.47A47.73,47.73,0,0,1,992,459.31a32.6,32.6,0,0,1-11.33-4.79l3.49-9.53a33.51,33.51,0,0,0,9.87,4.38,34.77,34.77,0,0,0,11.77,1.21,25.21,25.21,0,0,0,8.08-1.67,9.72,9.72,0,0,0,4.37-3.29,6.75,6.75,0,0,0,1.17-4.36,5.86,5.86,0,0,0-2.43-4.57,15.37,15.37,0,0,0-5.65-2.46c-2.28-.55-4.79-1-7.55-1.42s-5.52-.92-8.3-1.58a36.76,36.76,0,0,1-7.69-2.74A15.39,15.39,0,0,1,982,423.6a15.67,15.67,0,0,1-2.65-8.28,17.44,17.44,0,0,1,2.13-9.77,19.3,19.3,0,0,1,8-7.55q5.54-3,14.34-3.61a45.84,45.84,0,0,1,11.55.67,33.23,33.23,0,0,1,10.18,3.53l-3.11,9.51a35.73,35.73,0,0,0-9.15-3.19,33.67,33.67,0,0,0-8.88-.62,22.51,22.51,0,0,0-7.89,1.74,9.62,9.62,0,0,0-4.31,3.47,7.26,7.26,0,0,0-1.12,4.45,5.93,5.93,0,0,0,2.39,4.58,14.67,14.67,0,0,0,5.59,2.42q3.42.76,7.6,1.4t8.3,1.59a35.72,35.72,0,0,1,7.64,2.69,15.75,15.75,0,0,1,5.81,4.85,15.19,15.19,0,0,1,2.64,8.14,17.26,17.26,0,0,1-2.14,9.68,19.23,19.23,0,0,1-8.08,7.55Q1015.3,459.87,1006.51,460.47Z" transform="translate(-13.29 -23.05)"/><path class="cls-2" d="M1079.53,454.5l-4.43-64.12,11.9-.82,4.44,64.11Z" transform="translate(-13.29 -23.05)"/><path class="cls-2" d="M1113.79,452.13,1109.35,388l9.8-.68L1162.78,434l-4.85.34-3.42-49.47,11.72-.81,4.44,64.12-9.8.68-43.54-46.69,4.85-.33,3.42,49.46Z" transform="translate(-13.29 -23.05)"/><path class="cls-2" d="M1204.92,445.82l-11.9.82-4.44-64.11,46.81-3.24.69,10.07-34.89,2.42Zm-3.3-34.47,31.87-2.2.69,9.89-31.88,2.2Z" transform="translate(-13.29 -23.05)"/><path class="cls-2" d="M1256.4,442.26,1252,378.14l11.91-.82,3.74,54,33.52-2.32.7,10.08Z" transform="translate(-13.29 -23.05)"/><path class="cls-2" d="M1342.93,437.19q-13.1.92-21.08-6t-8.95-21l-2.5-36.09,11.91-.82,2.47,35.72q.69,9.88,5.25,14.08t12.36,3.66q7.78-.54,11.69-5.32t3.22-14.67L1354.82,371l11.73-.82,2.5,36.09q1,14.11-6,22T1342.93,437.19Z" transform="translate(-13.29 -23.05)"/><path class="cls-2" d="M1403.9,421.93l36.18-2.5.7,10.07-48.09,3.33-4.44-64.12,46.81-3.24.7,10.08-34.9,2.41Zm-10-58.86,11.5-13.4,10.25-.71,13.24,11.69-9.34.65-13.28-9.67,8.79-.61-11.82,11.41Zm7.15,31.54L1433,392.4l.67,9.8-31.87,2.21Z" transform="translate(-13.29 -23.05)"/><path class="cls-2" d="M1459.1,428.23l-4.44-64.11,9.8-.68,43.63,46.68-4.85.34L1499.82,361l11.72-.81L1516,424.3l-9.8.68-43.54-46.69,4.85-.33,3.42,49.46Z" transform="translate(-13.29 -23.05)"/><path class="cls-2" d="M1568.06,421.61a37.19,37.19,0,0,1-13.81-1.48A32.19,32.19,0,0,1,1535,404a35.34,35.34,0,0,1-1.82-26.38,32,32,0,0,1,6.51-10.94,33,33,0,0,1,10.42-7.67,39.69,39.69,0,0,1,28.05-1.66,28.61,28.61,0,0,1,11.55,7.25l-7.2,7.77a24.37,24.37,0,0,0-8.26-5.09,23.15,23.15,0,0,0-9.38-1.24,25.14,25.14,0,0,0-9.1,2.29,21.58,21.58,0,0,0-6.91,5.17,22,22,0,0,0-4.31,7.48,24.6,24.6,0,0,0,1.25,18.13,21.9,21.9,0,0,0,5.31,6.82,21.51,21.51,0,0,0,7.55,4.17,25.11,25.11,0,0,0,9.32,1,23,23,0,0,0,9.12-2.52,23.73,23.73,0,0,0,7.49-6.27l8.19,6.7a29.07,29.07,0,0,1-10.43,8.83A36.82,36.82,0,0,1,1568.06,421.61Z" transform="translate(-13.29 -23.05)"/><path class="cls-2" d="M1610,417.8l-4.43-64.12,11.9-.82,4.44,64.11Z" transform="translate(-13.29 -23.05)"/><path class="cls-2" d="M1635.14,416.05l24.41-66.11,11.73-.81,33.38,62.11-12.55.87L1663.38,356l4.76-.33-20.82,59.51Zm12.25-15.75,2.65-9.57,34.53-2.39,3.86,9.12Z" transform="translate(-13.29 -23.05)"/><path class="cls-2" d="M1737.79,409.87a47.42,47.42,0,0,1-14.49-1.16,32.6,32.6,0,0,1-11.33-4.78l3.49-9.54a33.25,33.25,0,0,0,9.87,4.38A34.77,34.77,0,0,0,1737.1,400a25.24,25.24,0,0,0,8.08-1.66,9.81,9.81,0,0,0,4.37-3.3,6.74,6.74,0,0,0,1.17-4.36,5.86,5.86,0,0,0-2.43-4.57,15.71,15.71,0,0,0-5.65-2.46c-2.28-.55-4.79-1-7.55-1.41s-5.52-.92-8.3-1.59a36.76,36.76,0,0,1-7.69-2.74,15.39,15.39,0,0,1-5.81-4.89,15.67,15.67,0,0,1-2.65-8.28,17.41,17.41,0,0,1,2.13-9.76,19.23,19.23,0,0,1,8-7.55q5.55-3,14.34-3.62a46.31,46.31,0,0,1,11.55.67,33.49,33.49,0,0,1,10.18,3.53l-3.11,9.51a35.32,35.32,0,0,0-9.15-3.18,34.12,34.12,0,0,0-8.88-.63,22.73,22.73,0,0,0-7.89,1.74,9.63,9.63,0,0,0-4.31,3.48,7.25,7.25,0,0,0-1.12,4.44,5.93,5.93,0,0,0,2.39,4.58,14.52,14.52,0,0,0,5.59,2.42q3.42.78,7.6,1.4t8.3,1.59a35.2,35.2,0,0,1,7.64,2.7,15.63,15.63,0,0,1,5.81,4.84,15.2,15.2,0,0,1,2.64,8.15,17.22,17.22,0,0,1-2.14,9.67,19.17,19.17,0,0,1-8.08,7.55Q1746.58,409.27,1737.79,409.87Z" transform="translate(-13.29 -23.05)"/><path class="cls-1" d="M1822,393l36.18-2.5.7,10.07-48.09,3.33-4.43-64.12,46.8-3.24.7,10.08L1819,349Zm-2.81-27.32,31.88-2.21.68,9.8-31.88,2.21Z" transform="translate(-13.29 -23.05)"/><path class="cls-2" d="M50.38,633l-4.44-64.12L57.85,568l4.44,64.11Z" transform="translate(-13.29 -23.05)"/><path class="cls-2" d="M84.63,630.59,80.2,566.47l9.8-.68,43.63,46.68-4.85.34-3.43-49.46,11.73-.81,4.43,64.11-9.8.68L88.17,580.64l4.86-.33,3.42,49.46Z" transform="translate(-13.29 -23.05)"/><path class="cls-2" d="M183.8,624.65a47.67,47.67,0,0,1-14.48-1.16A32.51,32.51,0,0,1,158,618.7l3.48-9.53a33.69,33.69,0,0,0,9.88,4.37,34.24,34.24,0,0,0,11.77,1.21,24.9,24.9,0,0,0,8.07-1.66,9.77,9.77,0,0,0,4.38-3.29,6.75,6.75,0,0,0,1.17-4.36,5.89,5.89,0,0,0-2.44-4.57,15.42,15.42,0,0,0-5.64-2.47q-3.42-.81-7.55-1.41t-8.3-1.59a36,36,0,0,1-7.69-2.73,14.66,14.66,0,0,1-8.46-13.17,17.42,17.42,0,0,1,2.13-9.77,19.23,19.23,0,0,1,8-7.55q5.53-3,14.33-3.61a45.33,45.33,0,0,1,11.55.67,33.29,33.29,0,0,1,10.19,3.53l-3.12,9.51a35.35,35.35,0,0,0-9.15-3.19,34.08,34.08,0,0,0-8.87-.63,22.71,22.71,0,0,0-7.89,1.75,9.64,9.64,0,0,0-4.32,3.47,7.32,7.32,0,0,0-1.11,4.45,5.94,5.94,0,0,0,2.38,4.57,14.42,14.42,0,0,0,5.6,2.42c2.27.52,4.81,1,7.6,1.41s5.55,1,8.3,1.59a35.38,35.38,0,0,1,7.64,2.69,15.72,15.72,0,0,1,5.81,4.84,15.4,15.4,0,0,1,2.64,8.15,17.29,17.29,0,0,1-2.14,9.67,19.34,19.34,0,0,1-8.09,7.56Q192.6,624,183.8,624.65Z" transform="translate(-13.29 -23.05)"/><path class="cls-2" d="M226.51,620.77l-4.43-64.12,26.38-1.82a36,36,0,0,1,14.79,1.69,21,21,0,0,1,9.93,7.18,22.26,22.26,0,0,1,4.15,12,21.92,21.92,0,0,1-2.46,12.36,21.61,21.61,0,0,1-8.84,8.53,35,35,0,0,1-14.42,3.8l-19.69,1.37,4.84-5.86,1.66,24Zm10.34-23.54-5.63-5.5,19.15-1.32c5.25-.37,9.12-1.75,11.63-4.17s3.61-5.63,3.33-9.66-1.82-7.07-4.63-9.12-6.85-2.88-12.1-2.52l-19.14,1.33,4.82-6.23Z" transform="translate(-13.29 -23.05)"/><path class="cls-2" d="M297.13,615.88l-4.43-64.11,11.9-.83L309,615.06Z" transform="translate(-13.29 -23.05)"/><path class="cls-2" d="M331.39,613.51,327,549.4l26.38-1.83a36,36,0,0,1,14.8,1.7,21,21,0,0,1,9.93,7.18,22.27,22.27,0,0,1,4.14,12,20.57,20.57,0,0,1-11.31,20.76A35.41,35.41,0,0,1,356.47,593l-19.69,1.37,4.85-5.68,1.66,24ZM341.72,590l-5.62-5.41,19.15-1.33q7.88-.54,11.62-4.21t3.33-9.71q-.4-6-4.63-9.11t-12.09-2.52L334.33,559l4.82-6.22Zm31.62,20.63-17.82-22.14,12.73-.88,17.91,22.13Z" transform="translate(-13.29 -23.05)"/><path class="cls-2" d="M394.31,609.16l24.42-66.11,11.72-.81,33.38,62.11-12.55.87-28.73-56.09,4.77-.33-20.83,59.52Zm12.26-15.76,2.65-9.57,34.53-2.39,3.85,9.12Z" transform="translate(-13.29 -23.05)"/><path class="cls-2" d="M505.84,602.36A37.19,37.19,0,0,1,492,600.88a32.19,32.19,0,0,1-19.25-16.11A35.34,35.34,0,0,1,471,558.39a32,32,0,0,1,6.51-10.94,33,33,0,0,1,10.42-7.67,39.69,39.69,0,0,1,28.05-1.66,28.61,28.61,0,0,1,11.55,7.25l-7.2,7.77a24.37,24.37,0,0,0-8.26-5.09,23.15,23.15,0,0,0-9.38-1.24,25.14,25.14,0,0,0-9.1,2.29,21.44,21.44,0,0,0-6.91,5.17,21.83,21.83,0,0,0-4.31,7.48,24.47,24.47,0,0,0,1.25,18.13,21.9,21.9,0,0,0,5.31,6.82,21.51,21.51,0,0,0,7.55,4.17,25.08,25.08,0,0,0,9.32,1,23,23,0,0,0,9.12-2.52,23.73,23.73,0,0,0,7.49-6.27l8.19,6.7a29.15,29.15,0,0,1-10.43,8.83A36.82,36.82,0,0,1,505.84,602.36Zm-2.92,20.18a21.85,21.85,0,0,1-4.62-.14,13.62,13.62,0,0,1-3.85-1.12l1.64-5.54a16.86,16.86,0,0,0,3.1.89,13.1,13.1,0,0,0,3.23.14,6.18,6.18,0,0,0,3.74-1.17,2.86,2.86,0,0,0,1-2.37A2.64,2.64,0,0,0,505.8,611a6.73,6.73,0,0,0-3.81-.57l-2.84.2L501,601l6.13-.42-.82,5.3a9.26,9.26,0,0,1,6.18,2.2,7.58,7.58,0,0,1-.64,11.5C509.67,621.3,506.7,622.28,502.92,622.54Z" transform="translate(-13.29 -23.05)"/><path class="cls-2" d="M576.46,597.48a38,38,0,0,1-14-1.52,33,33,0,0,1-11.52-6.2,31.55,31.55,0,0,1-8-10,32.86,32.86,0,0,1-3.47-12.88,33.22,33.22,0,0,1,1.65-13.32,31.24,31.24,0,0,1,6.52-10.94A33.47,33.47,0,0,1,558.24,535a40.08,40.08,0,0,1,27.57-2,32.33,32.33,0,0,1,11.42,6.11,31.3,31.3,0,0,1,7.91,10A35.17,35.17,0,0,1,607,575.44,31.87,31.87,0,0,1,590,594.1,38,38,0,0,1,576.46,597.48ZM575.74,587a23.71,23.71,0,0,0,8.82-2.27,21.2,21.2,0,0,0,6.77-5.16,21.86,21.86,0,0,0,4.23-7.47,23.86,23.86,0,0,0,1.06-9.19,24.29,24.29,0,0,0-2.27-9,20.8,20.8,0,0,0-5.21-6.82,21.81,21.81,0,0,0-7.47-4.18,23.79,23.79,0,0,0-9-1,24.3,24.3,0,0,0-8.9,2.28,20.46,20.46,0,0,0-6.87,5.21,23.63,23.63,0,0,0-3,25.47,22.62,22.62,0,0,0,5.26,6.86A20.53,20.53,0,0,0,566.6,586,24.41,24.41,0,0,0,575.74,587Zm2.46-60.18a8.16,8.16,0,0,1-4.09-.68,19.45,19.45,0,0,1-3.31-1.94q-1.5-1.08-2.85-1.92a4.4,4.4,0,0,0-2.63-.73,3.8,3.8,0,0,0-3,1.68,7.05,7.05,0,0,0-1.1,4.12l-6.13.43c-.14-3.74.6-6.76,2.22-9.08a8.64,8.64,0,0,1,6.83-3.79,9.11,9.11,0,0,1,4.13.59,14.56,14.56,0,0,1,3.35,1.88c1,.76,1.94,1.4,2.81,1.93A4.34,4.34,0,0,0,577,520a4.07,4.07,0,0,0,3.06-1.59,5.88,5.88,0,0,0,1.06-3.94l6.14-.42a13.9,13.9,0,0,1-2.19,8.94A8.71,8.71,0,0,1,578.2,526.86Z" transform="translate(-13.29 -23.05)"/><path class="cls-2" d="M639.73,582.06l36.18-2.51.69,10.08L628.52,593l-4.44-64.12,46.81-3.24.69,10.08-34.9,2.41Zm-2.81-27.33,31.87-2.2.68,9.8-31.88,2.2Z" transform="translate(-13.29 -23.05)"/><path class="cls-2" d="M714.86,587.9a47.35,47.35,0,0,1-14.48-1.16A32.51,32.51,0,0,1,689.05,582l3.48-9.54a33.32,33.32,0,0,0,9.88,4.38A34.74,34.74,0,0,0,714.18,578a25.17,25.17,0,0,0,8.07-1.66,9.79,9.79,0,0,0,4.38-3.3,6.74,6.74,0,0,0,1.17-4.36,5.9,5.9,0,0,0-2.44-4.57,15.58,15.58,0,0,0-5.64-2.46q-3.42-.82-7.55-1.41t-8.3-1.59a37.11,37.11,0,0,1-7.69-2.73,14.66,14.66,0,0,1-8.46-13.18,17.41,17.41,0,0,1,2.13-9.76,19.23,19.23,0,0,1,8-7.55q5.54-3,14.33-3.62a45.79,45.79,0,0,1,11.55.68A33.28,33.28,0,0,1,734,526l-3.12,9.52a35,35,0,0,0-9.15-3.19,34.12,34.12,0,0,0-8.88-.63,22.72,22.72,0,0,0-7.88,1.74,9.72,9.72,0,0,0-4.32,3.48,7.37,7.37,0,0,0-1.12,4.44,6,6,0,0,0,2.39,4.58,14.57,14.57,0,0,0,5.6,2.42c2.27.52,4.81,1,7.6,1.41s5.55,1,8.3,1.59a34.85,34.85,0,0,1,7.64,2.69,15.72,15.72,0,0,1,5.81,4.84,15.28,15.28,0,0,1,2.63,8.15,17.22,17.22,0,0,1-2.13,9.67,19.26,19.26,0,0,1-8.09,7.55Q723.66,587.29,714.86,587.9Z" transform="translate(-13.29 -23.05)"/><path class="cls-1" d="M799.1,571l36.18-2.5.7,10.07-48.09,3.33-4.44-64.12,46.81-3.23.69,10.07-34.89,2.42Zm-2.81-27.32,31.87-2.21.68,9.8L797,553.51Z" transform="translate(-13.29 -23.05)"/><path class="cls-1" d="M897.62,574.34l-3.74-54-21.25,1.47-.7-10.08,54.41-3.76L927,518l-21.25,1.47,3.73,54Z" transform="translate(-13.29 -23.05)"/><path class="cls-1" d="M944.79,571.07,940.35,507l26.38-1.83a35.86,35.86,0,0,1,14.8,1.7,21,21,0,0,1,9.93,7.17,22.33,22.33,0,0,1,4.14,12,20.57,20.57,0,0,1-11.31,20.76,35.41,35.41,0,0,1-14.42,3.75l-19.69,1.37,4.85-5.68,1.66,24Zm10.33-23.53-5.62-5.41,19.15-1.33q7.88-.54,11.62-4.21t3.33-9.71q-.4-6-4.63-9.11t-12.09-2.52l-19.15,1.32,4.82-6.22Zm31.62,20.63L968.92,546l12.73-.88,17.91,22.13Z" transform="translate(-13.29 -23.05)"/><path class="cls-1" d="M1007.71,566.72l24.42-66.11,11.72-.81,33.38,62.11-12.55.87L1036,506.69l4.77-.33-20.83,59.52ZM1020,551l2.65-9.57,34.53-2.39,3.85,9.12Z" transform="translate(-13.29 -23.05)"/><path class="cls-1" d="M1090.42,561,1086,496.88l9.8-.68,43.64,46.68-4.86.34-3.42-49.46,11.72-.81,4.44,64.11-9.8.68L1094,511.05l4.85-.33,3.43,49.46Z" transform="translate(-13.29 -23.05)"/><path class="cls-1" d="M1189.59,555.06a47.73,47.73,0,0,1-14.49-1.16,32.54,32.54,0,0,1-11.32-4.79l3.48-9.53a33.25,33.25,0,0,0,9.87,4.37,34.27,34.27,0,0,0,11.77,1.21,25,25,0,0,0,8.08-1.66,9.72,9.72,0,0,0,4.37-3.29,6.75,6.75,0,0,0,1.17-4.36,5.85,5.85,0,0,0-2.43-4.57,15.55,15.55,0,0,0-5.65-2.47q-3.4-.81-7.55-1.41c-2.76-.39-5.52-.92-8.3-1.58a36.76,36.76,0,0,1-7.69-2.74,14.7,14.7,0,0,1-8.46-13.17,17.44,17.44,0,0,1,2.13-9.77,19.42,19.42,0,0,1,8-7.55q5.55-3,14.34-3.61a45.33,45.33,0,0,1,11.55.67,33.23,33.23,0,0,1,10.18,3.53l-3.11,9.51a35.73,35.73,0,0,0-9.15-3.19,34.12,34.12,0,0,0-8.88-.63,22.65,22.65,0,0,0-7.88,1.75,9.53,9.53,0,0,0-4.32,3.47,7.26,7.26,0,0,0-1.12,4.45,5.94,5.94,0,0,0,2.39,4.57,14.35,14.35,0,0,0,5.6,2.42q3.4.78,7.59,1.41t8.3,1.59a35.81,35.81,0,0,1,7.65,2.69,15.81,15.81,0,0,1,5.81,4.85,15.25,15.25,0,0,1,2.63,8.14,17.26,17.26,0,0,1-2.14,9.68,19.23,19.23,0,0,1-8.08,7.55Q1198.38,554.46,1189.59,555.06Z" transform="translate(-13.29 -23.05)"/><path class="cls-1" d="M1244.21,550.36l-11.91.82-4.44-64.11,46.81-3.24.69,10.07-34.89,2.42Zm-3.31-34.47,31.88-2.2.68,9.89-31.87,2.2Z" transform="translate(-13.29 -23.05)"/><path class="cls-1" d="M1325.06,545.68a37.79,37.79,0,0,1-14-1.51,33.21,33.21,0,0,1-11.52-6.2,31.7,31.7,0,0,1-8-10,34.75,34.75,0,0,1-1.81-26.19,31.19,31.19,0,0,1,6.51-11,33.6,33.6,0,0,1,10.51-7.67,37.59,37.59,0,0,1,13.66-3.43,38.09,38.09,0,0,1,13.91,1.47,32.43,32.43,0,0,1,11.42,6.12,31.36,31.36,0,0,1,7.92,10,33.6,33.6,0,0,1,3.47,13,33.22,33.22,0,0,1-1.65,13.32,32,32,0,0,1-16.93,18.66A38.27,38.27,0,0,1,1325.06,545.68Zm-.73-10.44a23.71,23.71,0,0,0,8.82-2.26,21.09,21.09,0,0,0,6.77-5.17,21.52,21.52,0,0,0,4.23-7.47,23.59,23.59,0,0,0,1.06-9.18,24.15,24.15,0,0,0-2.27-9,20.91,20.91,0,0,0-5.21-6.82,21.79,21.79,0,0,0-7.47-4.17,23.57,23.57,0,0,0-9-1,24.29,24.29,0,0,0-8.9,2.27,20.59,20.59,0,0,0-6.87,5.22,23.22,23.22,0,0,0,2.24,32.33,20.63,20.63,0,0,0,7.52,4.22A24.15,24.15,0,0,0,1324.33,535.24Z" transform="translate(-13.29 -23.05)"/><path class="cls-1" d="M1377.11,541.16l-4.44-64.11,26.38-1.83a36,36,0,0,1,14.8,1.69,21,21,0,0,1,9.93,7.18,22.25,22.25,0,0,1,4.14,12.05,20.55,20.55,0,0,1-11.31,20.75,35.24,35.24,0,0,1-14.41,3.76L1382.5,522l4.86-5.67,1.66,24Zm10.33-23.54-5.62-5.41,19.15-1.32q7.88-.54,11.62-4.21t3.34-9.71q-.42-6-4.64-9.11t-12.09-2.53l-19.14,1.33,4.81-6.22Zm31.62,20.64-17.82-22.14,12.73-.88,17.91,22.13Z" transform="translate(-13.29 -23.05)"/><path class="cls-1" d="M1449.1,536.18l-4.44-64.12,9.81-.67,31.26,44.86-5.13.36,24.33-48.72,9.8-.67,4.62,64.1-11.45.79-3.21-46.44,2.29-.15-20.55,40.81-5.41.37-26.52-37.55,2.75-.19,3.21,46.44Z" transform="translate(-13.29 -23.05)"/><path class="cls-1" d="M1532.54,530.41,1557,464.29l11.72-.81,33.38,62.12-12.55.87-28.73-56.09,4.77-.33-20.83,59.51Zm12.26-15.76,2.65-9.57,34.53-2.39,3.85,9.12Z" transform="translate(-13.29 -23.05)"/><path class="cls-1" d="M1645.57,522.59l-4.44-64.12,11.91-.82,4.43,64.11Z" transform="translate(-13.29 -23.05)"/><path class="cls-1" d="M1699.76,519.76a47.35,47.35,0,0,1-14.48-1.16,32.51,32.51,0,0,1-11.33-4.79l3.48-9.53a33.43,33.43,0,0,0,9.88,4.38,34.74,34.74,0,0,0,11.77,1.21,25.14,25.14,0,0,0,8.07-1.67,9.7,9.7,0,0,0,4.38-3.29,6.75,6.75,0,0,0,1.17-4.36,5.9,5.9,0,0,0-2.44-4.57,15.42,15.42,0,0,0-5.64-2.47q-3.42-.81-7.55-1.4t-8.3-1.59a36.56,36.56,0,0,1-7.69-2.74,15.42,15.42,0,0,1-5.82-4.89,15.58,15.58,0,0,1-2.64-8.28,17.44,17.44,0,0,1,2.13-9.77,19.36,19.36,0,0,1,8-7.55q5.54-3,14.33-3.61a45.79,45.79,0,0,1,11.55.67,33.29,33.29,0,0,1,10.19,3.53l-3.12,9.51a35.73,35.73,0,0,0-9.15-3.19,33.63,33.63,0,0,0-8.87-.62,22.51,22.51,0,0,0-7.89,1.74,9.77,9.77,0,0,0-4.32,3.47,7.32,7.32,0,0,0-1.11,4.45,5.92,5.92,0,0,0,2.38,4.57,14.57,14.57,0,0,0,5.6,2.43c2.27.51,4.81,1,7.6,1.4s5.55.95,8.3,1.59a35.92,35.92,0,0,1,7.64,2.69,15.75,15.75,0,0,1,5.81,4.85,15.28,15.28,0,0,1,2.63,8.14,17.25,17.25,0,0,1-2.13,9.68,19.32,19.32,0,0,1-8.09,7.55Q1708.56,519.16,1699.76,519.76Z" transform="translate(-13.29 -23.05)"/><path class="cls-1" d="M1762.41,515.42a47.35,47.35,0,0,1-14.48-1.16,32.51,32.51,0,0,1-11.33-4.78l3.48-9.54a33.43,33.43,0,0,0,9.88,4.38,34.49,34.49,0,0,0,11.77,1.21,24.9,24.9,0,0,0,8.07-1.66,9.84,9.84,0,0,0,4.38-3.29,6.78,6.78,0,0,0,1.17-4.37,5.94,5.94,0,0,0-2.43-4.57,15.79,15.79,0,0,0-5.65-2.46q-3.42-.82-7.55-1.41t-8.3-1.59a36,36,0,0,1-7.69-2.73,14.66,14.66,0,0,1-8.46-13.18,17.41,17.41,0,0,1,2.13-9.76,19.23,19.23,0,0,1,8-7.55q5.54-3,14.33-3.62a45.79,45.79,0,0,1,11.55.68,33,33,0,0,1,10.19,3.53l-3.12,9.51a35.35,35.35,0,0,0-9.15-3.19,34.08,34.08,0,0,0-8.87-.63,23,23,0,0,0-7.89,1.74,9.72,9.72,0,0,0-4.32,3.48,7.4,7.4,0,0,0-1.12,4.45,6,6,0,0,0,2.39,4.57,14.57,14.57,0,0,0,5.6,2.42c2.27.52,4.81,1,7.6,1.41s5.55.95,8.3,1.59a35.38,35.38,0,0,1,7.64,2.69,15.72,15.72,0,0,1,5.81,4.84,15.31,15.31,0,0,1,2.63,8.15,17.22,17.22,0,0,1-2.13,9.67,19.34,19.34,0,0,1-8.09,7.56Q1771.21,514.81,1762.41,515.42Z" transform="translate(-13.29 -23.05)"/><path class="cls-1" d="M1835.23,510.39a38,38,0,0,1-14-1.52,33.14,33.14,0,0,1-11.52-6.2,31.84,31.84,0,0,1-8-10,34.75,34.75,0,0,1-1.81-26.19,31.19,31.19,0,0,1,6.51-10.95,33.65,33.65,0,0,1,10.52-7.67,40.06,40.06,0,0,1,27.56-1.95A32.16,32.16,0,0,1,1856,452a31.47,31.47,0,0,1,7.92,10,35.11,35.11,0,0,1,1.82,26.33A31.89,31.89,0,0,1,1848.8,507,38.22,38.22,0,0,1,1835.23,510.39Zm-.72-10.45a23.71,23.71,0,0,0,8.81-2.26,21.24,21.24,0,0,0,6.78-5.17,21.66,21.66,0,0,0,4.22-7.47,23.59,23.59,0,0,0,1.07-9.18,24.24,24.24,0,0,0-2.28-8.95,20.57,20.57,0,0,0-5.21-6.82,21.47,21.47,0,0,0-7.47-4.18,23.74,23.74,0,0,0-9-1,24.29,24.29,0,0,0-8.91,2.27,20.55,20.55,0,0,0-6.86,5.22,22.56,22.56,0,0,0-5.39,16.61,22.76,22.76,0,0,0,7.62,15.72,20.71,20.71,0,0,0,7.52,4.22A24.2,24.2,0,0,0,1834.51,499.94Z" transform="translate(-13.29 -23.05)"/><path class="cls-1" d="M311.59,722.14,307.15,658l9.8-.67L360.59,704l-4.86.34-3.42-49.46,11.72-.81,4.44,64.12-9.8.67L315.13,672.2l4.85-.34,3.43,49.46Z" transform="translate(-13.29 -23.05)"/><path class="cls-1" d="M420.92,715.5A38,38,0,0,1,407,714a33,33,0,0,1-11.52-6.2,31.7,31.7,0,0,1-8-10,34.75,34.75,0,0,1-1.81-26.19,31.19,31.19,0,0,1,6.51-11A33.6,33.6,0,0,1,402.7,653a37.59,37.59,0,0,1,13.66-3.43A38.31,38.31,0,0,1,430.27,651a32.51,32.51,0,0,1,11.42,6.12,31.47,31.47,0,0,1,7.92,10,33.65,33.65,0,0,1,3.47,13,33.22,33.22,0,0,1-1.65,13.32,31.9,31.9,0,0,1-16.93,18.66A38.33,38.33,0,0,1,420.92,715.5Zm-.72-10.45a23.71,23.71,0,0,0,8.82-2.26,21.2,21.2,0,0,0,6.77-5.16,21.65,21.65,0,0,0,4.23-7.48,23.59,23.59,0,0,0,1.06-9.18,24,24,0,0,0-2.27-9,20.7,20.7,0,0,0-5.21-6.82,21.65,21.65,0,0,0-7.47-4.18,23.79,23.79,0,0,0-9.05-1,24.29,24.29,0,0,0-8.9,2.27,20.59,20.59,0,0,0-6.87,5.22,23.22,23.22,0,0,0,2.24,32.33,20.63,20.63,0,0,0,7.52,4.22A24.13,24.13,0,0,0,420.2,705.05Z" transform="translate(-13.29 -23.05)"/><path class="cls-1" d="M492.92,710.51a47.42,47.42,0,0,1-14.49-1.16,32.41,32.41,0,0,1-11.33-4.78l3.49-9.54a33.25,33.25,0,0,0,9.87,4.38,34.52,34.52,0,0,0,11.77,1.21,25,25,0,0,0,8.08-1.66,9.79,9.79,0,0,0,4.37-3.29,6.78,6.78,0,0,0,1.17-4.37,5.88,5.88,0,0,0-2.43-4.57,15.71,15.71,0,0,0-5.65-2.46c-2.27-.54-4.79-1-7.55-1.41s-5.52-.92-8.3-1.59a36.19,36.19,0,0,1-7.69-2.73,14.7,14.7,0,0,1-8.46-13.18,17.41,17.41,0,0,1,2.13-9.76,19.29,19.29,0,0,1,8-7.55q5.55-3,14.34-3.62a45.85,45.85,0,0,1,11.55.68A33,33,0,0,1,512,648.64l-3.11,9.51a35.35,35.35,0,0,0-9.15-3.19,34.12,34.12,0,0,0-8.88-.63,23,23,0,0,0-7.89,1.74,9.63,9.63,0,0,0-4.31,3.48,7.26,7.26,0,0,0-1.12,4.45,5.94,5.94,0,0,0,2.39,4.57,14.52,14.52,0,0,0,5.59,2.42q3.42.78,7.6,1.41t8.3,1.59a35.19,35.19,0,0,1,7.64,2.69,15.83,15.83,0,0,1,5.82,4.84,15.31,15.31,0,0,1,2.63,8.15,17.22,17.22,0,0,1-2.14,9.67,19.25,19.25,0,0,1-8.08,7.56Q501.71,709.9,492.92,710.51Z" transform="translate(-13.29 -23.05)"/><path class="cls-1" d="M565.94,704.54l-4.43-64.11,9.8-.68,31.26,44.86-5.12.36,24.33-48.71,9.8-.68,4.62,64.1-11.45.79L621.53,654l2.29-.15-20.55,40.81-5.4.37-26.53-37.55,2.75-.19,3.21,46.44Z" transform="translate(-13.29 -23.05)"/><path class="cls-1" d="M649.39,698.77l24.41-66.11,11.73-.82L718.91,694l-12.55.87-28.73-56.09,4.76-.33-20.82,59.52ZM661.64,683l2.65-9.57,34.53-2.39,3.85,9.12Z" transform="translate(-13.29 -23.05)"/><path class="cls-1" d="M732.09,693.05l-4.43-64.12,11.91-.82L744,692.22Z" transform="translate(-13.29 -23.05)"/><path class="cls-1" d="M786.29,690.22a47.64,47.64,0,0,1-14.48-1.16,32.51,32.51,0,0,1-11.33-4.79l3.48-9.53a33.5,33.5,0,0,0,9.87,4.37,34.27,34.27,0,0,0,11.77,1.21,25,25,0,0,0,8.08-1.66,9.79,9.79,0,0,0,4.37-3.29,6.77,6.77,0,0,0,1.17-4.36,5.85,5.85,0,0,0-2.43-4.57,15.57,15.57,0,0,0-5.64-2.47q-3.42-.81-7.56-1.41t-8.3-1.58a37,37,0,0,1-7.69-2.74,14.7,14.7,0,0,1-8.46-13.17,17.36,17.36,0,0,1,2.14-9.77,19.33,19.33,0,0,1,8-7.55q5.55-3,14.34-3.61a45.33,45.33,0,0,1,11.55.67,33,33,0,0,1,10.18,3.53l-3.11,9.51a35.73,35.73,0,0,0-9.15-3.19,34.12,34.12,0,0,0-8.88-.63,22.71,22.71,0,0,0-7.88,1.75,9.58,9.58,0,0,0-4.32,3.47,7.26,7.26,0,0,0-1.12,4.45,5.94,5.94,0,0,0,2.39,4.57,14.42,14.42,0,0,0,5.6,2.42q3.4.78,7.59,1.41t8.31,1.59a35.92,35.92,0,0,1,7.64,2.69,15.8,15.8,0,0,1,5.81,4.84,15.31,15.31,0,0,1,2.63,8.15,17.12,17.12,0,0,1-2.14,9.67,19.25,19.25,0,0,1-8.08,7.56Q795.09,689.62,786.29,690.22Z" transform="translate(-13.29 -23.05)"/><path class="cls-1" d="M859.32,684.24l-4.44-64.11,28.12-2a40.1,40.1,0,0,1,18.46,2.73,29.71,29.71,0,0,1,13.09,10.37,34.58,34.58,0,0,1,2.33,33.7,29.7,29.7,0,0,1-11.54,12.08,40,40,0,0,1-17.9,5.24Zm11.21-10.9L886,672.27a26.67,26.67,0,0,0,12.31-3.61A20.54,20.54,0,0,0,906,660.4a22.23,22.23,0,0,0,2.17-11.84,21.8,21.8,0,0,0-3.77-11.34,20.84,20.84,0,0,0-8.77-7,26.69,26.69,0,0,0-12.7-1.88l-15.48,1.07Z" transform="translate(-13.29 -23.05)"/><path class="cls-1" d="M940,678.66l-4.44-64.12,11.91-.82,4.44,64.12Z" transform="translate(-13.29 -23.05)"/><path class="cls-1" d="M986.17,675.47l-11.91.82-4.43-64.12,46.8-3.23.7,10.07-34.9,2.42ZM982.87,641l31.87-2.21.69,9.89-31.88,2.21Z" transform="translate(-13.29 -23.05)"/><path class="cls-1" d="M1048.86,661,1085,658.5l.69,10.08-48.08,3.33-4.44-64.12,46.81-3.24.69,10.08-34.9,2.41Zm-2.81-27.33,31.87-2.2.68,9.8-31.88,2.2Z" transform="translate(-13.29 -23.05)"/><path class="cls-1" d="M1104.05,667.31l-4.43-64.12,26.38-1.82a36,36,0,0,1,14.79,1.69,21,21,0,0,1,9.93,7.18,22.26,22.26,0,0,1,4.15,12,21.73,21.73,0,0,1-2.46,12.32,21.48,21.48,0,0,1-8.85,8.43,35.45,35.45,0,0,1-14.42,3.76l-19.69,1.36,4.85-5.67,1.66,24Zm10.34-23.54-5.62-5.41,19.14-1.32q7.88-.56,11.63-4.21t3.33-9.71q-.42-6-4.63-9.11t-12.1-2.53L1107,612.81l4.81-6.23ZM1146,664.41l-17.82-22.14,12.73-.89,17.92,22.14Z" transform="translate(-13.29 -23.05)"/><path class="cls-1" d="M1187.25,651.43l36.18-2.5.7,10.07L1176,662.33l-4.43-64.12,46.8-3.24.7,10.08-34.9,2.41Zm-2.81-27.32,31.88-2.21.68,9.8-31.88,2.21Z" transform="translate(-13.29 -23.05)"/><path class="cls-1" d="M1242.45,657.74,1238,593.62l9.8-.68,43.64,46.68-4.86.34-3.42-49.47,11.72-.81,4.44,64.12-9.8.68L1246,607.79l4.85-.33,3.43,49.46Z" transform="translate(-13.29 -23.05)"/><path class="cls-1" d="M1334.69,651.35l-3.74-54-21.25,1.47-.7-10.07,54.41-3.77.69,10.08-21.25,1.47,3.74,54Z" transform="translate(-13.29 -23.05)"/><path class="cls-1" d="M1393.06,637.19l36.19-2.5.69,10.07-48.09,3.33L1377.42,584l46.8-3.23.7,10.07-34.9,2.41Zm-2.81-27.32,31.88-2.21.68,9.8-31.88,2.21Z" transform="translate(-13.29 -23.05)"/><path class="cls-1" d="M1468.2,643a47.64,47.64,0,0,1-14.48-1.16,32.51,32.51,0,0,1-11.33-4.79l3.48-9.54a33.25,33.25,0,0,0,9.87,4.38,34.33,34.33,0,0,0,11.78,1.21,24.9,24.9,0,0,0,8.07-1.66,9.74,9.74,0,0,0,4.37-3.29,6.78,6.78,0,0,0,1.18-4.36,5.92,5.92,0,0,0-2.44-4.58,15.74,15.74,0,0,0-5.64-2.46q-3.42-.81-7.56-1.41t-8.3-1.59a36.39,36.39,0,0,1-7.69-2.73,14.67,14.67,0,0,1-8.45-13.17,17.27,17.27,0,0,1,2.13-9.77,19.33,19.33,0,0,1,8-7.55q5.55-3,14.34-3.61a45.33,45.33,0,0,1,11.55.67,33,33,0,0,1,10.18,3.53l-3.11,9.51a35.35,35.35,0,0,0-9.15-3.19,34.12,34.12,0,0,0-8.88-.63,22.71,22.71,0,0,0-7.88,1.75,9.64,9.64,0,0,0-4.32,3.47,7.33,7.33,0,0,0-1.12,4.45,5.94,5.94,0,0,0,2.39,4.57,14.42,14.42,0,0,0,5.6,2.42c2.27.52,4.81,1,7.6,1.41s5.55,1,8.3,1.59a35.38,35.38,0,0,1,7.64,2.69,15.8,15.8,0,0,1,5.81,4.84,15.31,15.31,0,0,1,2.63,8.15,17.22,17.22,0,0,1-2.13,9.67,19.34,19.34,0,0,1-8.09,7.56Q1477,642.42,1468.2,643Z" transform="translate(-13.29 -23.05)"/><path class="cls-2" d="M1541.23,637.06,1536.79,573l11.91-.83,3.74,54,33.52-2.32.7,10.08Z" transform="translate(-13.29 -23.05)"/><path class="cls-2" d="M1630.05,631.84a38,38,0,0,1-14-1.52,33,33,0,0,1-11.52-6.2,31.73,31.73,0,0,1-8-10,34.75,34.75,0,0,1-1.81-26.19,31.06,31.06,0,0,1,6.51-10.94,33.59,33.59,0,0,1,10.51-7.68,40.08,40.08,0,0,1,27.57-2,32.25,32.25,0,0,1,11.42,6.11,31.47,31.47,0,0,1,7.92,10,35.11,35.11,0,0,1,1.82,26.33,31.9,31.9,0,0,1-16.93,18.66A38.06,38.06,0,0,1,1630.05,631.84Zm-.73-10.44a23.71,23.71,0,0,0,8.82-2.27,21.35,21.35,0,0,0,6.78-5.16,21.84,21.84,0,0,0,4.22-7.47,23.86,23.86,0,0,0,1.07-9.19,24.24,24.24,0,0,0-2.28-8.95,20.8,20.8,0,0,0-5.21-6.82,21.81,21.81,0,0,0-7.47-4.18,23.74,23.74,0,0,0-9-1,24.49,24.49,0,0,0-8.91,2.27,20.82,20.82,0,0,0-6.87,5.22,23,23,0,0,0-4.26,7.47,23.25,23.25,0,0,0,6.5,24.86,20.63,20.63,0,0,0,7.52,4.22A24.35,24.35,0,0,0,1629.32,621.4Z" transform="translate(-13.29 -23.05)"/><path class="cls-2" d="M1712.21,626.15a37.58,37.58,0,0,1-14-1.52,33,33,0,0,1-11.52-6.19,31.84,31.84,0,0,1-8-10,34.78,34.78,0,0,1-1.81-26.2,31.24,31.24,0,0,1,6.51-10.94,33.56,33.56,0,0,1,10.51-7.67,37.64,37.64,0,0,1,13.66-3.43,38.07,38.07,0,0,1,13.91,1.47,32.57,32.57,0,0,1,11.42,6.11,31.4,31.4,0,0,1,7.92,10,35.23,35.23,0,0,1,1.82,26.33,32,32,0,0,1-16.93,18.66A38.27,38.27,0,0,1,1712.21,626.15Zm-.73-10.44a23.71,23.71,0,0,0,8.82-2.26,21.24,21.24,0,0,0,6.78-5.17,21.66,21.66,0,0,0,4.22-7.47,23.81,23.81,0,0,0,1.07-9.18,24.3,24.3,0,0,0-2.28-9,20.91,20.91,0,0,0-5.21-6.82,21.79,21.79,0,0,0-7.47-4.17,23.54,23.54,0,0,0-9-1,24.29,24.29,0,0,0-8.91,2.27,20.69,20.69,0,0,0-6.87,5.21,23,23,0,0,0-4.26,7.48,23.25,23.25,0,0,0,6.5,24.86,20.63,20.63,0,0,0,7.52,4.22A24.35,24.35,0,0,0,1711.48,615.71Z" transform="translate(-13.29 -23.05)"/><path class="cls-2" d="M1764.26,621.63l-4.44-64.11,11.91-.83,4.44,64.12Zm9.49-15.84-1.53-14.07,31.11-37.22,13.47-.93-25.89,31.61-6.09,7.7ZM1809,618.54,1782.3,591l7.36-9.26,33.31,35.8Z" transform="translate(-13.29 -23.05)"/><path class="cls-2" d="M1854.63,616.3a47.38,47.38,0,0,1-14.48-1.16,32.6,32.6,0,0,1-11.33-4.79l3.48-9.53a33.43,33.43,0,0,0,9.88,4.38,34.77,34.77,0,0,0,11.77,1.21,25.08,25.08,0,0,0,8.07-1.67,9.7,9.7,0,0,0,4.38-3.29,6.75,6.75,0,0,0,1.17-4.36,5.89,5.89,0,0,0-2.43-4.57,15.37,15.37,0,0,0-5.65-2.46c-2.28-.55-4.79-1-7.55-1.41s-5.53-.92-8.3-1.59a36.76,36.76,0,0,1-7.69-2.74,15.49,15.49,0,0,1-5.82-4.89,15.76,15.76,0,0,1-2.64-8.28,17.44,17.44,0,0,1,2.13-9.77,19.36,19.36,0,0,1,8-7.55q5.53-3,14.33-3.61a45.79,45.79,0,0,1,11.55.67,33.29,33.29,0,0,1,10.19,3.53l-3.12,9.51a35.26,35.26,0,0,0-9.14-3.18,33.3,33.3,0,0,0-8.88-.63,22.51,22.51,0,0,0-7.89,1.74,9.68,9.68,0,0,0-4.31,3.47,7.26,7.26,0,0,0-1.12,4.45,6,6,0,0,0,2.38,4.58,14.79,14.79,0,0,0,5.6,2.42q3.42.76,7.6,1.4t8.3,1.59a35.92,35.92,0,0,1,7.64,2.69,15.75,15.75,0,0,1,5.81,4.85,15.28,15.28,0,0,1,2.64,8.14,17.32,17.32,0,0,1-2.14,9.68,19.29,19.29,0,0,1-8.08,7.55Q1863.43,615.7,1854.63,616.3Z" transform="translate(-13.29 -23.05)"/><path class="cls-2" d="M1205.44,767.55l24.41-66.11,11.73-.81L1275,762.74l-12.55.87-28.73-56.09,4.76-.33-20.82,59.52Zm12.25-15.76,2.65-9.57,34.53-2.39,3.86,9.13Z" transform="translate(-13.29 -23.05)"/><path class="cls-2" d="M1314.31,760.94q-13.1.9-21.07-6t-9-21l-2.49-36.08,11.91-.83,2.47,35.72q.67,9.9,5.25,14.09c3,2.8,7.16,4,12.36,3.65s9.08-2.13,11.68-5.31,3.68-8.08,3.22-14.68l-2.47-35.72,11.73-.81,2.49,36.09q1,14.1-6,22T1314.31,760.94Z" transform="translate(-13.29 -23.05)"/><path class="cls-2" d="M1375.89,755.76l-3.73-54-21.25,1.47-.7-10.08,54.41-3.76.69,10.07-21.25,1.47,3.74,54Z" transform="translate(-13.29 -23.05)"/><path class="cls-2" d="M1434.28,741.59l36.18-2.5.69,10.08-48.09,3.32-4.43-64.11,46.8-3.24.7,10.07-34.9,2.42Zm-10-58.85,11.5-13.41,10.26-.7,13.23,11.69L1450,681l-13.28-9.66,8.8-.61-11.82,11.4Zm7.15,31.53,31.88-2.2.68,9.8-31.88,2.2Z" transform="translate(-13.29 -23.05)"/><path class="cls-2" d="M1489.47,747.9,1485,683.78l9.8-.67,43.64,46.68-4.86.33-3.42-49.46,11.72-.81,4.44,64.11-9.8.68L1493,698l4.85-.34,3.43,49.46Z" transform="translate(-13.29 -23.05)"/><path class="cls-2" d="M1581.71,741.52l-3.74-54L1556.72,689l-.7-10.08,54.41-3.76.69,10.07-21.25,1.47,3.74,54Z" transform="translate(-13.29 -23.05)"/><path class="cls-2" d="M1628.88,738.25l-4.44-64.11,11.91-.83,4.43,64.12Z" transform="translate(-13.29 -23.05)"/><path class="cls-2" d="M1692.87,734.75a37.38,37.38,0,0,1-13.81-1.49,32.14,32.14,0,0,1-19.25-16.1,35.22,35.22,0,0,1-1.82-26.38,31.74,31.74,0,0,1,6.51-10.95,32.79,32.79,0,0,1,10.42-7.66,39.62,39.62,0,0,1,28-1.67,28.5,28.5,0,0,1,11.54,7.25l-7.19,7.77a24.32,24.32,0,0,0-8.27-5.09,22.93,22.93,0,0,0-9.38-1.23,24.83,24.83,0,0,0-9.09,2.28,21.47,21.47,0,0,0-6.91,5.17,21.86,21.86,0,0,0-4.32,7.48,24.57,24.57,0,0,0,1.26,18.14,22,22,0,0,0,5.3,6.81,21.56,21.56,0,0,0,7.56,4.17,24.85,24.85,0,0,0,9.32,1,23,23,0,0,0,9.12-2.52,23.69,23.69,0,0,0,7.48-6.27l8.2,6.71a29,29,0,0,1-10.44,8.82A37,37,0,0,1,1692.87,734.75Z" transform="translate(-13.29 -23.05)"/><path class="cls-2" d="M1763.49,729.86a37.79,37.79,0,0,1-14-1.52,33,33,0,0,1-11.52-6.2,31.69,31.69,0,0,1-8-10,34.78,34.78,0,0,1-1.81-26.2,31.3,31.3,0,0,1,6.51-10.94,33.52,33.52,0,0,1,10.52-7.68,40.06,40.06,0,0,1,27.56-2,32.32,32.32,0,0,1,11.42,6.11,31.47,31.47,0,0,1,7.92,10,35.13,35.13,0,0,1,1.82,26.34,31.83,31.83,0,0,1-16.93,18.65A38,38,0,0,1,1763.49,729.86Zm-.72-10.44a23.52,23.52,0,0,0,8.81-2.27,21.21,21.21,0,0,0,6.78-5.16,21.75,21.75,0,0,0,4.22-7.47,23.67,23.67,0,0,0,1.07-9.19,24.29,24.29,0,0,0-2.28-9,20.77,20.77,0,0,0-5.21-6.82,21.79,21.79,0,0,0-7.47-4.18,23.74,23.74,0,0,0-9-1,24.5,24.5,0,0,0-8.91,2.28,20.65,20.65,0,0,0-6.86,5.21,23.24,23.24,0,0,0,2.23,32.34,20.69,20.69,0,0,0,7.52,4.21A24.38,24.38,0,0,0,1762.77,719.42Z" transform="translate(-13.29 -23.05)"/><path class="cls-2" d="M1835.48,724.88a47.35,47.35,0,0,1-14.48-1.16,32.7,32.7,0,0,1-11.33-4.78l3.48-9.54a33.43,33.43,0,0,0,9.88,4.38A34.74,34.74,0,0,0,1834.8,715a24.82,24.82,0,0,0,8.07-1.67,9.7,9.7,0,0,0,4.38-3.29,6.75,6.75,0,0,0,1.17-4.36,5.92,5.92,0,0,0-2.43-4.57,15.71,15.71,0,0,0-5.65-2.46q-3.42-.82-7.55-1.41c-2.76-.4-5.53-.92-8.3-1.59a36.76,36.76,0,0,1-7.69-2.74A15.49,15.49,0,0,1,1811,688a15.67,15.67,0,0,1-2.64-8.28,17.44,17.44,0,0,1,2.13-9.77,19.36,19.36,0,0,1,8-7.55q5.54-3,14.33-3.61a45.79,45.79,0,0,1,11.55.67,33.29,33.29,0,0,1,10.19,3.53l-3.12,9.51a35.32,35.32,0,0,0-9.15-3.18,33.23,33.23,0,0,0-8.87-.63,22.51,22.51,0,0,0-7.89,1.74,9.77,9.77,0,0,0-4.32,3.47,7.32,7.32,0,0,0-1.11,4.45,6,6,0,0,0,2.38,4.58,14.72,14.72,0,0,0,5.6,2.42q3.42.76,7.6,1.4c2.79.42,5.55,1,8.3,1.59a35.92,35.92,0,0,1,7.64,2.69,15.75,15.75,0,0,1,5.81,4.85,15.29,15.29,0,0,1,2.64,8.15,17.31,17.31,0,0,1-2.14,9.67,19.29,19.29,0,0,1-8.08,7.55Q1844.28,724.28,1835.48,724.88Z" transform="translate(-13.29 -23.05)"/><path class="cls-2" d="M1882.72,721.33a7.44,7.44,0,0,1-8.13-7.16,7.11,7.11,0,0,1,1.82-5.6,7.61,7.61,0,0,1,5.26-2.44,7.41,7.41,0,0,1,5.37,1.7,7.11,7.11,0,0,1,2.57,5.3,7.42,7.42,0,0,1-1.81,5.69A7.19,7.19,0,0,1,1882.72,721.33Z" transform="translate(-13.29 -23.05)"/></g></g><rect class="cls-3" x="928.3" y="1199.64" width="1133.4" height="228.78"/><path class="cls-3" d="M1059.91,1115h-7.2V1064.6h7.2Zm29.56-22.45h-30.28v-6.25h30.28Zm-.65-27.91h7.2V1115h-7.2Z" transform="translate(-13.29 -23.05)"/><path class="cls-3" d="M1134.64,1115.53a29,29,0,0,1-10.68-1.94,25.51,25.51,0,0,1-8.52-5.43,25,25,0,0,1-5.61-8.17,26.81,26.81,0,0,1,0-20.42,25,25,0,0,1,5.61-8.17,25.63,25.63,0,0,1,8.49-5.43,28.86,28.86,0,0,1,10.71-1.94,29.3,29.3,0,0,1,10.65,1.9,25.29,25.29,0,0,1,8.49,5.4,24.69,24.69,0,0,1,5.57,8.2,27.62,27.62,0,0,1,0,20.54,24.73,24.73,0,0,1-5.57,8.16,25.14,25.14,0,0,1-8.49,5.4A29.09,29.09,0,0,1,1134.64,1115.53Zm0-6.4a20.5,20.5,0,0,0,7.74-1.44,18.4,18.4,0,0,0,6.18-4.06,18.89,18.89,0,0,0,4.1-6.15,19.82,19.82,0,0,0,1.48-7.7,19.55,19.55,0,0,0-1.48-7.66,19.32,19.32,0,0,0-4.1-6.15,18.2,18.2,0,0,0-6.18-4.1,21.68,21.68,0,0,0-15.54,0,18.57,18.57,0,0,0-6.22,4.1,19,19,0,0,0-4.14,6.15,19.55,19.55,0,0,0-1.47,7.66,19.82,19.82,0,0,0,1.47,7.7,18.53,18.53,0,0,0,4.14,6.15,18.77,18.77,0,0,0,6.22,4.06A20.59,20.59,0,0,0,1134.64,1109.13Z" transform="translate(-13.29 -23.05)"/><path class="cls-3" d="M1178.52,1115.53a18.93,18.93,0,0,1-8.34-1.87,16,16,0,0,1-6.33-5.39l4.17-4.89a15.8,15.8,0,0,0,4.71,4.42,11.21,11.21,0,0,0,5.79,1.55q8.64,0,8.63-10.22v-28.27H1169v-6.26h25.32v34.17q0,8.42-4,12.59T1178.52,1115.53Z" transform="translate(-13.29 -23.05)"/><path class="cls-3" d="M1216.93,1108.7h29.35V1115h-36.54V1064.6h35.53v6.26h-28.34Zm-.65-22.37h25.9v6.11h-25.9Z" transform="translate(-13.29 -23.05)"/><path class="cls-3" d="M1301.59,1115.53a29.26,29.26,0,0,1-10.71-1.9,25,25,0,0,1-14.1-13.56,27.22,27.22,0,0,1,0-20.58,24.87,24.87,0,0,1,5.64-8.16,25.77,25.77,0,0,1,8.53-5.4,31.67,31.67,0,0,1,21.72,0,21.68,21.68,0,0,1,8.42,5.83l-4.46,4.46a19.86,19.86,0,0,0-6.73-4.43,22.94,22.94,0,0,0-15.89,0,19.13,19.13,0,0,0-6.41,4,17.88,17.88,0,0,0-4.17,6.15,20.88,20.88,0,0,0,0,15.39,18.43,18.43,0,0,0,4.17,6.19,18.92,18.92,0,0,0,6.37,4.06,21.68,21.68,0,0,0,8,1.44,23.87,23.87,0,0,0,7.74-1.26,19,19,0,0,0,6.87-4.21l4.1,5.47a25.64,25.64,0,0,1-8.74,4.78A33.35,33.35,0,0,1,1301.59,1115.53Zm12.16-7.34v-18.7h6.91v19.64Z" transform="translate(-13.29 -23.05)"/><path class="cls-3" d="M1335.19,1115V1064.6h19.63a27.67,27.67,0,0,1,11.3,2.09,16.07,16.07,0,0,1,7.19,6,17.18,17.18,0,0,1,2.52,9.43,17,17,0,0,1-2.52,9.38,16.07,16.07,0,0,1-7.19,6,27.68,27.68,0,0,1-11.3,2.08h-15.68l3.24-3.3V1115Zm7.19-17.92-3.24-3.52h15.47q6.9,0,10.46-3a10.32,10.32,0,0,0,3.56-8.38c0-3.6-1.18-6.38-3.56-8.35s-5.86-3-10.46-3h-15.47l3.24-3.59Zm26.47,17.92-12.8-18.27h7.69l13,18.27Z" transform="translate(-13.29 -23.05)"/><path class="cls-3" d="M1409.13,1115.53q-9.93,0-15.61-5.68t-5.68-16.62V1064.6H1395V1093q0,8.41,3.71,12.3t10.46,3.88q6.84,0,10.54-3.88t3.7-12.3V1064.6h7v28.63q0,10.93-5.64,16.62T1409.13,1115.53Z" transform="translate(-13.29 -23.05)"/><path class="cls-3" d="M1446,1115V1064.6h5.9l33.3,41.36h-3.09V1064.6h7.19V1115h-5.9l-33.3-41.36h3.09V1115Z" transform="translate(-13.29 -23.05)"/><path class="cls-3" d="M1527.89,1115.53a29.27,29.27,0,0,1-10.72-1.9,25,25,0,0,1-14.1-13.56,27.34,27.34,0,0,1,0-20.58,24.9,24.9,0,0,1,5.65-8.16,25.62,25.62,0,0,1,8.52-5.4,31.67,31.67,0,0,1,21.72,0,21.68,21.68,0,0,1,8.42,5.83l-4.46,4.46a19.83,19.83,0,0,0-6.72-4.43,23,23,0,0,0-15.9,0,19.09,19.09,0,0,0-6.4,4,17.74,17.74,0,0,0-4.17,6.15,20.74,20.74,0,0,0,0,15.39,18.28,18.28,0,0,0,4.17,6.19,19,19,0,0,0,6.36,4.06,21.7,21.7,0,0,0,8,1.44,23.86,23.86,0,0,0,7.73-1.26,19,19,0,0,0,6.87-4.21l4.1,5.47a25.55,25.55,0,0,1-8.74,4.78A33.24,33.24,0,0,1,1527.89,1115.53Zm12.15-7.34v-18.7H1547v19.64Z" transform="translate(-13.29 -23.05)"/><path class="cls-3" d="M1568.67,1108.7H1598V1115h-36.54V1064.6H1597v6.26h-28.34Zm-.65-22.37h25.9v6.11H1568Z" transform="translate(-13.29 -23.05)"/><path class="cls-3" d="M1607.44,1125.6l3.6-14.53.93,4.17a4.93,4.93,0,0,1-3.48-1.29,4.55,4.55,0,0,1-1.41-3.53,4.75,4.75,0,0,1,4.82-4.89,4.37,4.37,0,0,1,3.38,1.41,4.89,4.89,0,0,1,1.3,3.48,9.36,9.36,0,0,1-.11,1.41,13.57,13.57,0,0,1-.36,1.58c-.17.6-.42,1.33-.76,2.19l-3.38,10Z" transform="translate(-13.29 -23.05)"/><path class="cls-3" d="M1640.82,1115l22.8-50.36h7.12l22.88,50.36h-7.56l-20.35-46.33h2.87L1648.23,1115Zm9.71-12.59,1.94-5.76h28.34l2.09,5.76Z" transform="translate(-13.29 -23.05)"/><path class="cls-3" d="M1701.89,1115V1064.6h5.9l22.58,38.06h-3.16l22.3-38.06h5.89l.08,50.36h-6.91l-.07-39.49h1.65l-19.85,33.37H1727l-20-33.37h1.8V1115Z" transform="translate(-13.29 -23.05)"/><path class="cls-3" d="M1763.75,1115l22.8-50.36h7.12l22.87,50.36H1809l-20.35-46.33h2.87L1771.16,1115Zm9.71-12.59,1.94-5.76h28.34l2.09,5.76Z" transform="translate(-13.29 -23.05)"/><path class="cls-3" d="M1824.82,1115V1064.6h5.89L1864,1106h-3.09V1064.6h7.19V1115h-5.9l-33.3-41.36H1832V1115Z" transform="translate(-13.29 -23.05)"/><path class="cls-3" d="M1891.21,1115H1884V1064.6h7.19Zm29.56-22.45h-30.28v-6.25h30.28Zm-.64-27.91h7.19V1115h-7.19Z" transform="translate(-13.29 -23.05)"/><path class="cls-3" d="M1935.59,1115l22.8-50.36h7.12l22.88,50.36h-7.56l-20.35-46.33h2.88L1943,1115Zm9.71-12.59,1.94-5.76h28.34l2.09,5.76Zm21.72-42.08a6.28,6.28,0,0,1-3-.72,12.24,12.24,0,0,1-2.41-1.69,23.88,23.88,0,0,0-2.09-1.69,3.44,3.44,0,0,0-2-.72,3.13,3.13,0,0,0-2.56,1.19,5.67,5.67,0,0,0-1.11,3.27h-3.89a10.7,10.7,0,0,1,2-6.4,6.06,6.06,0,0,1,5-2.38,6.25,6.25,0,0,1,3.1.76,13.31,13.31,0,0,1,2.44,1.72c.72.65,1.41,1.22,2,1.7a3.36,3.36,0,0,0,2,.71,3.28,3.28,0,0,0,2.59-1.15,4.92,4.92,0,0,0,1.08-3.16h3.88a9.88,9.88,0,0,1-2,6.18A6.19,6.19,0,0,1,1967,1060.29Z" transform="translate(-13.29 -23.05)"/><path class="cls-3" d="M993.3,1201.27v-50.35h7.19v50.35Z" transform="translate(-13.29 -23.05)"/><path class="cls-3" d="M1016.39,1201.27v-50.35h5.9l33.3,41.36h-3.09v-41.36h7.19v50.35h-5.9l-33.3-41.36h3.09v41.36Z" transform="translate(-13.29 -23.05)"/><path class="cls-3" d="M1075.59,1201.27v-50.35h21.22a30.6,30.6,0,0,1,14.2,3.17,23.44,23.44,0,0,1,9.57,8.84,27,27,0,0,1,0,26.33,23.4,23.4,0,0,1-9.57,8.85,30.59,30.59,0,0,1-14.2,3.16Zm7.19-6.25h13.6a23.18,23.18,0,0,0,10.82-2.38,17.25,17.25,0,0,0,7.09-6.65,20.82,20.82,0,0,0,0-19.82,17.38,17.38,0,0,0-7.09-6.62,23.18,23.18,0,0,0-10.82-2.37h-13.6Z" transform="translate(-13.29 -23.05)"/><path class="cls-3" d="M1135.79,1201.27v-50.35h7.2v50.35Z" transform="translate(-13.29 -23.05)"/><path class="cls-3" d="M1166.08,1195h29.34v6.25h-36.54v-50.35h35.54v6.26h-28.34Zm-.65-22.38h25.89v6.12h-25.89Z" transform="translate(-13.29 -23.05)"/><path class="cls-3" d="M1235.2,1195h29.35v6.25H1228v-50.35h35.53v6.26H1235.2Zm-.65-22.38h25.9v6.12h-25.9Z" transform="translate(-13.29 -23.05)"/><path class="cls-3" d="M1311.81,1201.85a34.5,34.5,0,0,1-11-1.76,22.58,22.58,0,0,1-8.27-4.57l2.66-5.61a23.34,23.34,0,0,0,7.34,4.17,26.53,26.53,0,0,0,9.28,1.65,21,21,0,0,0,7.12-1,8.52,8.52,0,0,0,4-2.77,6.61,6.61,0,0,0,1.29-4,5.46,5.46,0,0,0-1.69-4.18,12.68,12.68,0,0,0-4.39-2.55,47.83,47.83,0,0,0-5.93-1.69q-3.24-.72-6.51-1.69a29.77,29.77,0,0,1-6-2.48,12.14,12.14,0,0,1-4.35-4.07,11.83,11.83,0,0,1-1.66-6.58,13.25,13.25,0,0,1,2-7.15,14.25,14.25,0,0,1,6.33-5.26,26.23,26.23,0,0,1,10.9-2,33.43,33.43,0,0,1,8.7,1.15,24.19,24.19,0,0,1,7.49,3.31l-2.38,5.75a23.15,23.15,0,0,0-6.83-3.13,26.66,26.66,0,0,0-7-1,19.23,19.23,0,0,0-7,1.08,8.51,8.51,0,0,0-4,2.88,6.85,6.85,0,0,0-1.26,4,5.57,5.57,0,0,0,1.69,4.25,12.33,12.33,0,0,0,4.39,2.52q2.7.93,5.94,1.69t6.51,1.69a28.06,28.06,0,0,1,6,2.44,12.47,12.47,0,0,1,4.35,4,11.61,11.61,0,0,1,1.65,6.47,12.93,12.93,0,0,1-2.08,7.09,14.51,14.51,0,0,1-6.44,5.25A26.54,26.54,0,0,1,1311.81,1201.85Z" transform="translate(-13.29 -23.05)"/><path class="cls-3" d="M1349.79,1195h29.34v6.25h-36.54v-50.35h35.54v6.26h-28.34Zm-.65-22.38H1375v6.12h-25.89Z" transform="translate(-13.29 -23.05)"/><path class="cls-3" d="M1391.58,1201.27v-50.35h5.9l22.58,38h-3.16l22.3-38h5.9l.07,50.35h-6.91l-.07-39.49h1.66L1420,1195.16h-3.31l-20-33.38h1.79v39.49Z" transform="translate(-13.29 -23.05)"/><path class="cls-3" d="M1453.44,1201.27l22.8-50.35h7.12l22.88,50.35h-7.56L1478.33,1155h2.87l-20.35,46.32Zm9.71-12.58,1.94-5.76h28.34l2.09,5.76Z" transform="translate(-13.29 -23.05)"/><path class="cls-3" d="M1514.51,1201.27v-50.35h5.9l33.3,41.36h-3.09v-41.36h7.19v50.35h-5.9l-33.3-41.36h3.09v41.36Z" transform="translate(-13.29 -23.05)"/><path class="cls-3" d="M1566.08,1201.27l22.81-50.35H1596l22.87,50.35h-7.55L1591,1155h2.88l-20.36,46.32Zm9.71-12.58,2-5.76h28.34l2.08,5.76Z" transform="translate(-13.29 -23.05)"/><path class="cls-3" d="M1670,1201.85a29,29,0,0,1-10.68-1.94,25.67,25.67,0,0,1-8.52-5.43,25,25,0,0,1-5.61-8.17,26.84,26.84,0,0,1,0-20.43,25.17,25.17,0,0,1,14.1-13.59,28.66,28.66,0,0,1,10.71-1.94,29.09,29.09,0,0,1,10.65,1.9,25.14,25.14,0,0,1,8.49,5.4,24.59,24.59,0,0,1,5.57,8.2,27.6,27.6,0,0,1,0,20.53,24.77,24.77,0,0,1-5.57,8.17,25.27,25.27,0,0,1-8.49,5.39A29.09,29.09,0,0,1,1670,1201.85Zm0-6.4a20.5,20.5,0,0,0,7.74-1.44,18.2,18.2,0,0,0,6.18-4.1,19.39,19.39,0,0,0,4.1-6.19,19.6,19.6,0,0,0,1.48-7.62,19.82,19.82,0,0,0-1.48-7.7,18.89,18.89,0,0,0-4.1-6.15,18.4,18.4,0,0,0-6.18-4.06,21.68,21.68,0,0,0-15.54,0,18.68,18.68,0,0,0-10.36,10.21,19.82,19.82,0,0,0-1.47,7.7,19.6,19.6,0,0,0,1.47,7.62,19,19,0,0,0,4.14,6.19,18.47,18.47,0,0,0,6.22,4.1A20.59,20.59,0,0,0,1670,1195.45Zm16.48,16.33a18.29,18.29,0,0,1-9.43-2.56,31.73,31.73,0,0,1-4.75-3.45,70.72,70.72,0,0,1-5.32-5.22l7.7-2a34.52,34.52,0,0,0,4.13,4.35,14,14,0,0,0,3.92,2.45,10.74,10.74,0,0,0,3.89.75,11.79,11.79,0,0,0,9.13-4.31l3.39,4.1A15.72,15.72,0,0,1,1686.5,1211.78Z" transform="translate(-13.29 -23.05)"/><path class="cls-3" d="M1729.37,1201.85q-9.93,0-15.61-5.68t-5.69-16.62v-28.63h7.2v28.34q0,8.41,3.7,12.3t10.47,3.89q6.82,0,10.54-3.89t3.7-12.3v-28.34h7v28.63q0,10.93-5.65,16.62T1729.37,1201.85Z" transform="translate(-13.29 -23.05)"/><path class="cls-3" d="M1773.39,1195h29.34v6.25h-36.54v-50.35h35.54v6.26h-28.34Zm-.65-22.38h25.89v6.12h-25.89Z" transform="translate(-13.29 -23.05)"/><path class="cls-3" d="M1849.85,1201.27l-22.16-50.35h7.77l20.36,46.47h-4.46l20.5-46.47h7.19L1857,1201.27Z" transform="translate(-13.29 -23.05)"/><path class="cls-3" d="M1893.44,1195h29.35v6.25h-36.54v-50.35h35.53v6.26h-28.34Zm-.65-22.38h25.9v6.12h-25.9Z" transform="translate(-13.29 -23.05)"/><path class="cls-3" d="M1935.23,1201.27v-50.35h5.9l22.59,38h-3.17l22.3-38h5.9l.07,50.35h-6.91l-.07-39.49h1.66l-19.86,33.38h-3.31l-20-33.38h1.8v39.49Z" transform="translate(-13.29 -23.05)"/><path class="cls-3" d="M2005.36,1201.71a4.87,4.87,0,0,1-4.89-5,4.63,4.63,0,0,1,1.44-3.52,4.84,4.84,0,0,1,3.45-1.37,4.65,4.65,0,0,1,3.35,1.37,4.71,4.71,0,0,1,1.4,3.52,4.83,4.83,0,0,1-1.4,3.56A4.57,4.57,0,0,1,2005.36,1201.71Z" transform="translate(-13.29 -23.05)"/><path class="cls-3" d="M2022.48,1201.71a4.87,4.87,0,0,1-4.89-5,4.63,4.63,0,0,1,1.44-3.52,4.84,4.84,0,0,1,3.45-1.37,4.65,4.65,0,0,1,3.35,1.37,4.71,4.71,0,0,1,1.4,3.52,4.83,4.83,0,0,1-1.4,3.56A4.57,4.57,0,0,1,2022.48,1201.71Z" transform="translate(-13.29 -23.05)"/><path class="cls-3" d="M2039.6,1201.71a4.87,4.87,0,0,1-4.89-5,4.63,4.63,0,0,1,1.44-3.52,4.84,4.84,0,0,1,3.45-1.37,4.61,4.61,0,0,1,3.34,1.37,4.68,4.68,0,0,1,1.41,3.52,4.8,4.8,0,0,1-1.41,3.56A4.53,4.53,0,0,1,2039.6,1201.71Z" transform="translate(-13.29 -23.05)"/><path class="cls-3" d="M993.09,1537.73v-49.31h5.77l32.62,40.5h-3v-40.5h7v49.31h-5.77l-32.62-40.5h3v40.5Z" transform="translate(-13.29 -23.05)"/><path class="cls-3" d="M1073.31,1538.29a28.18,28.18,0,0,1-10.45-1.9,25,25,0,0,1-8.35-5.32,24.65,24.65,0,0,1-5.5-8,26.39,26.39,0,0,1,0-20,24.65,24.65,0,0,1,5.5-8,25.14,25.14,0,0,1,8.31-5.32,30,30,0,0,1,20.92,0,24.57,24.57,0,0,1,8.31,5.28,23.94,23.94,0,0,1,5.46,8,27,27,0,0,1,0,20.11,24,24,0,0,1-5.46,8,24.57,24.57,0,0,1-8.31,5.28A28.35,28.35,0,0,1,1073.31,1538.29Zm0-6.27a20,20,0,0,0,7.58-1.41,17.9,17.9,0,0,0,6-4,18.38,18.38,0,0,0,4-6,19.36,19.36,0,0,0,1.44-7.53,18.76,18.76,0,0,0-5.46-13.53,17.68,17.68,0,0,0-6-4,21.24,21.24,0,0,0-15.22,0,18.14,18.14,0,0,0-6.09,4,18.78,18.78,0,0,0-4,6,19.15,19.15,0,0,0-1.44,7.51,19.36,19.36,0,0,0,1.44,7.53,18.15,18.15,0,0,0,4,6,18.37,18.37,0,0,0,6.09,4A20.21,20.21,0,0,0,1073.31,1532Z" transform="translate(-13.29 -23.05)"/><path class="cls-3" d="M1125.37,1538.29a33.67,33.67,0,0,1-10.78-1.72,22.06,22.06,0,0,1-8.1-4.48l2.61-5.49a22.83,22.83,0,0,0,7.18,4.08,25.92,25.92,0,0,0,9.09,1.62,20.51,20.51,0,0,0,7-1,8.27,8.27,0,0,0,3.94-2.71,6.42,6.42,0,0,0,1.27-3.91,5.36,5.36,0,0,0-1.65-4.09,12.51,12.51,0,0,0-4.3-2.5,48.71,48.71,0,0,0-5.81-1.65c-2.11-.47-4.24-1-6.37-1.66a28,28,0,0,1-5.85-2.43,12,12,0,0,1-4.26-4,11.65,11.65,0,0,1-1.62-6.44,13,13,0,0,1,2-7,13.94,13.94,0,0,1,6.2-5.14,25.38,25.38,0,0,1,10.67-1.94,33,33,0,0,1,8.53,1.13,23.68,23.68,0,0,1,7.32,3.24l-2.32,5.63a22.67,22.67,0,0,0-6.69-3.06,26,26,0,0,0-6.84-1,18.93,18.93,0,0,0-6.83,1.05,8.41,8.41,0,0,0-3.91,2.82,6.72,6.72,0,0,0-1.23,3.94,5.4,5.4,0,0,0,1.66,4.16,11.88,11.88,0,0,0,4.29,2.47,57.57,57.57,0,0,0,5.81,1.65c2.12.49,4.24,1,6.38,1.66a27.06,27.06,0,0,1,5.84,2.39,12.07,12.07,0,0,1,4.26,4,11.31,11.31,0,0,1,1.62,6.33,12.67,12.67,0,0,1-2,6.94,14.08,14.08,0,0,1-6.3,5.14A25.85,25.85,0,0,1,1125.37,1538.29Z" transform="translate(-13.29 -23.05)"/><path class="cls-3" d="M1169.88,1538.29a33.67,33.67,0,0,1-10.78-1.72,22.22,22.22,0,0,1-8.1-4.48l2.61-5.49a23,23,0,0,0,7.18,4.08,26,26,0,0,0,9.09,1.62,20.47,20.47,0,0,0,7-1,8.3,8.3,0,0,0,4-2.71,6.49,6.49,0,0,0,1.27-3.91,5.37,5.37,0,0,0-1.66-4.09,12.32,12.32,0,0,0-4.3-2.5,48.18,48.18,0,0,0-5.81-1.65c-2.11-.47-4.23-1-6.37-1.66a28,28,0,0,1-5.85-2.43,12,12,0,0,1-4.26-4,11.65,11.65,0,0,1-1.62-6.44,12.94,12.94,0,0,1,2-7,13.89,13.89,0,0,1,6.2-5.14,25.35,25.35,0,0,1,10.67-1.94,33,33,0,0,1,8.52,1.13,23.74,23.74,0,0,1,7.33,3.24l-2.33,5.63a22.44,22.44,0,0,0-6.69-3.06,26,26,0,0,0-6.83-1,18.89,18.89,0,0,0-6.83,1.05,8.36,8.36,0,0,0-3.91,2.82,6.66,6.66,0,0,0-1.24,3.94,5.44,5.44,0,0,0,1.66,4.16,11.84,11.84,0,0,0,4.3,2.47,56.83,56.83,0,0,0,5.81,1.65c2.11.49,4.23,1,6.37,1.66a26.94,26.94,0,0,1,5.85,2.39,12.07,12.07,0,0,1,4.26,4,11.31,11.31,0,0,1,1.62,6.33,12.67,12.67,0,0,1-2,6.94,14.16,14.16,0,0,1-6.31,5.14A25.85,25.85,0,0,1,1169.88,1538.29Z" transform="translate(-13.29 -23.05)"/><path class="cls-3" d="M1222.28,1538.29a28.27,28.27,0,0,1-10.46-1.9,25.07,25.07,0,0,1-8.34-5.32,24.65,24.65,0,0,1-5.5-8,26.39,26.39,0,0,1,0-20,24.65,24.65,0,0,1,5.5-8,25.14,25.14,0,0,1,8.31-5.32,30,30,0,0,1,20.92,0A24.57,24.57,0,0,1,1241,1495a23.94,23.94,0,0,1,5.46,8,27,27,0,0,1,0,20.11,24,24,0,0,1-5.46,8,24.57,24.57,0,0,1-8.31,5.28A28.35,28.35,0,0,1,1222.28,1538.29Zm0-6.27a20,20,0,0,0,7.58-1.41,17.9,17.9,0,0,0,6.05-4,18.38,18.38,0,0,0,4-6,19.36,19.36,0,0,0,1.44-7.53,18.76,18.76,0,0,0-5.46-13.53,17.68,17.68,0,0,0-6.05-4,21.24,21.24,0,0,0-15.22,0,18.14,18.14,0,0,0-6.09,4,18.78,18.78,0,0,0-4,6,19.15,19.15,0,0,0-1.44,7.51,19.36,19.36,0,0,0,1.44,7.53,18.15,18.15,0,0,0,4,6,18.37,18.37,0,0,0,6.09,4A20.21,20.21,0,0,0,1222.28,1532Z" transform="translate(-13.29 -23.05)"/><path class="cls-3" d="M1286.73,1531.6h28.74v6.13h-35.78v-49.31h34.79v6.13h-27.75Zm-.63-21.91h25.36v6H1286.1Z" transform="translate(-13.29 -23.05)"/><path class="cls-3" d="M1342,1538.29a33.61,33.61,0,0,1-10.77-1.72,22.06,22.06,0,0,1-8.1-4.48l2.6-5.49a23,23,0,0,0,7.19,4.08,25.9,25.9,0,0,0,9.08,1.62,20.53,20.53,0,0,0,7-1,8.27,8.27,0,0,0,3.94-2.71,6.42,6.42,0,0,0,1.27-3.91,5.34,5.34,0,0,0-1.66-4.09,12.37,12.37,0,0,0-4.29-2.5,48.71,48.71,0,0,0-5.81-1.65c-2.12-.47-4.24-1-6.38-1.66a28,28,0,0,1-5.84-2.43,11.92,11.92,0,0,1-4.27-4,11.65,11.65,0,0,1-1.62-6.44,12.94,12.94,0,0,1,2-7,13.94,13.94,0,0,1,6.2-5.14,25.35,25.35,0,0,1,10.67-1.94,33,33,0,0,1,8.52,1.13,23.74,23.74,0,0,1,7.33,3.24l-2.32,5.63a22.61,22.61,0,0,0-6.7-3.06,25.83,25.83,0,0,0-6.83-1,18.89,18.89,0,0,0-6.83,1.05,8.36,8.36,0,0,0-3.91,2.82,6.72,6.72,0,0,0-1.23,3.94,5.43,5.43,0,0,0,1.65,4.16,12,12,0,0,0,4.3,2.47,57.57,57.57,0,0,0,5.81,1.65c2.11.49,4.24,1,6.37,1.66a26.94,26.94,0,0,1,5.85,2.39,12.07,12.07,0,0,1,4.26,4,11.31,11.31,0,0,1,1.62,6.33,12.67,12.67,0,0,1-2,6.94,14.08,14.08,0,0,1-6.3,5.14A25.93,25.93,0,0,1,1342,1538.29Z" transform="translate(-13.29 -23.05)"/><path class="cls-3" d="M1381.26,1537.73v-43.18h-16.91v-6.13h40.78v6.13h-16.9v43.18Z" transform="translate(-13.29 -23.05)"/><path class="cls-3" d="M1413.59,1537.73v-49.31h7v49.31Z" transform="translate(-13.29 -23.05)"/><path class="cls-3" d="M1436.2,1537.73v-49.31h7v43.18h26.69v6.13Z" transform="translate(-13.29 -23.05)"/><path class="cls-3" d="M1500.15,1538.29a28.23,28.23,0,0,1-10.46-1.9,25,25,0,0,1-8.34-5.32,24.65,24.65,0,0,1-5.5-8,26.39,26.39,0,0,1,0-20,24.65,24.65,0,0,1,5.5-8,24.93,24.93,0,0,1,8.31-5.32,30,30,0,0,1,20.92,0,24.57,24.57,0,0,1,8.31,5.28,24.09,24.09,0,0,1,5.46,8,27.16,27.16,0,0,1,0,20.11,24.13,24.13,0,0,1-5.46,8,24.57,24.57,0,0,1-8.31,5.28A28.39,28.39,0,0,1,1500.15,1538.29Zm0-6.27a20,20,0,0,0,7.57-1.41,17.84,17.84,0,0,0,6.06-4,18.7,18.7,0,0,0,4-6,19.36,19.36,0,0,0,1.44-7.53,19.15,19.15,0,0,0-1.44-7.51,19.37,19.37,0,0,0-4-6,17.63,17.63,0,0,0-6.06-4,21.21,21.21,0,0,0-15.21,0,18,18,0,0,0-6.09,4,18.78,18.78,0,0,0-4.05,6,19,19,0,0,0-1.45,7.51,19.18,19.18,0,0,0,1.45,7.53,18.3,18.3,0,0,0,10.14,10A20.17,20.17,0,0,0,1500.15,1532Z" transform="translate(-13.29 -23.05)"/><path class="cls-3" d="M1567.35,1537.73v-43.18h-16.91v-6.13h40.78v6.13h-16.9v43.18Z" transform="translate(-13.29 -23.05)"/><path class="cls-3" d="M1606.72,1531.6h28.74v6.13h-35.78v-49.31h34.79v6.13h-27.75Zm-.63-21.91h25.35v6h-25.35Z" transform="translate(-13.29 -23.05)"/><path class="cls-3" d="M1647.64,1537.73v-49.31h5.78l22.12,37.26h-3.1l21.83-37.26h5.78l.07,49.31h-6.76l-.07-38.67h1.62l-19.45,32.68h-3.24l-19.58-32.68h1.76v38.67Z" transform="translate(-13.29 -23.05)"/><path class="cls-3" d="M1735.4,1537.73v-49.31h5.78l22.12,37.26h-3.1l21.83-37.26h5.78l.07,49.31h-6.76l-.07-38.67h1.62l-19.44,32.68H1760l-19.59-32.68h1.77v38.67Z" transform="translate(-13.29 -23.05)"/><path class="cls-3" d="M1823.87,1538.29q-9.72,0-15.28-5.56t-5.57-16.27v-28h7v27.75q0,8.25,3.63,12t10.25,3.8q6.69,0,10.32-3.8t3.63-12v-27.75h6.83v28q0,10.69-5.53,16.27T1823.87,1538.29Z" transform="translate(-13.29 -23.05)"/><path class="cls-3" d="M1859.93,1537.73v-49.31h7v49.31Z" transform="translate(-13.29 -23.05)"/><path class="cls-3" d="M1892.33,1537.73v-43.18h-16.9v-6.13h40.78v6.13h-16.9v43.18Z" transform="translate(-13.29 -23.05)"/><path class="cls-3" d="M1946.22,1538.29a28.19,28.19,0,0,1-10.46-1.9,25,25,0,0,1-8.35-5.32,24.47,24.47,0,0,1-5.49-8,26.27,26.27,0,0,1,0-20,24.47,24.47,0,0,1,5.49-8,25.14,25.14,0,0,1,8.31-5.32,30,30,0,0,1,20.92,0A24.57,24.57,0,0,1,1965,1495a23.94,23.94,0,0,1,5.46,8,27,27,0,0,1,0,20.11,24,24,0,0,1-5.46,8,24.57,24.57,0,0,1-8.31,5.28A28.34,28.34,0,0,1,1946.22,1538.29Zm0-6.27a20,20,0,0,0,7.57-1.41,17.9,17.9,0,0,0,6-4,18.38,18.38,0,0,0,4-6,19.36,19.36,0,0,0,1.44-7.53,18.76,18.76,0,0,0-5.46-13.53,17.68,17.68,0,0,0-6-4,21.24,21.24,0,0,0-15.22,0,18.14,18.14,0,0,0-6.09,4,18.78,18.78,0,0,0-4,6,19.15,19.15,0,0,0-1.44,7.51,19.36,19.36,0,0,0,1.44,7.53,18.15,18.15,0,0,0,4,6,18.37,18.37,0,0,0,6.09,4A20.23,20.23,0,0,0,1946.22,1532Z" transform="translate(-13.29 -23.05)"/><path class="cls-3" d="M1996.15,1537.73l22.33-49.31h7l22.39,49.31h-7.39l-19.94-45.36h2.82l-19.93,45.36Zm9.51-12.33,1.9-5.63h27.76l2,5.63Z" transform="translate(-13.29 -23.05)"/><path class="cls-3" d="M1011.58,1622.25l-21.7-49.3h7.61l19.93,45.5h-4.36l20.07-45.5h7l-21.63,49.3Z" transform="translate(-13.29 -23.05)"/><path class="cls-3" d="M1054.26,1616.12H1083v6.13h-35.78V1573H1082v6.12h-27.75Zm-.63-21.9H1079v6h-25.35Z" transform="translate(-13.29 -23.05)"/><path class="cls-3" d="M1095.18,1622.25V1573h19.23a27.07,27.07,0,0,1,11.06,2,15.71,15.71,0,0,1,7,5.91,16.87,16.87,0,0,1,2.46,9.23,16.66,16.66,0,0,1-2.46,9.19,15.78,15.78,0,0,1-7,5.88,26.9,26.9,0,0,1-11.06,2h-15.35l3.17-3.24v18.24Zm7-17.54-3.17-3.45h15.14q6.77,0,10.25-2.92a10.12,10.12,0,0,0,3.49-8.21,10,10,0,0,0-3.49-8.17q-3.48-2.88-10.25-2.89h-15.14l3.17-3.52Zm25.92,17.54-12.54-17.89h7.54l12.68,17.89Z" transform="translate(-13.29 -23.05)"/><path class="cls-3" d="M1188.93,1622.81a28.31,28.31,0,0,1-10.39-1.86,24.45,24.45,0,0,1-8.24-5.29,24.9,24.9,0,0,1-5.46-8,26.72,26.72,0,0,1,0-20.14,24.55,24.55,0,0,1,13.77-13.28,29.67,29.67,0,0,1,20.92.07,21.46,21.46,0,0,1,8.21,5.74l-4.58,4.44a18.31,18.31,0,0,0-6.34-4.41,19.72,19.72,0,0,0-7.53-1.44,20.74,20.74,0,0,0-7.72,1.41,18.53,18.53,0,0,0-6.16,3.94,17.7,17.7,0,0,0-4.05,6,20.62,20.62,0,0,0,0,15.14,17.75,17.75,0,0,0,4.05,6,18.55,18.55,0,0,0,6.16,4,20.74,20.74,0,0,0,7.72,1.4,19.72,19.72,0,0,0,7.53-1.44,17.84,17.84,0,0,0,6.34-4.47l4.58,4.44a21.86,21.86,0,0,1-8.21,5.77A27.63,27.63,0,0,1,1188.93,1622.81Z" transform="translate(-13.29 -23.05)"/><path class="cls-3" d="M1239.79,1622.81a28.19,28.19,0,0,1-10.46-1.9,25,25,0,0,1-8.35-5.32,24.36,24.36,0,0,1-5.49-8,26.37,26.37,0,0,1,0-20,24.4,24.4,0,0,1,5.49-8,25.14,25.14,0,0,1,8.31-5.32,30,30,0,0,1,20.92,0,24.57,24.57,0,0,1,8.31,5.28,24,24,0,0,1,5.46,8,27,27,0,0,1,0,20.11,24,24,0,0,1-5.46,8,24.75,24.75,0,0,1-8.31,5.29A28.54,28.54,0,0,1,1239.79,1622.81Zm0-6.27a20,20,0,0,0,7.57-1.4,18.19,18.19,0,0,0,6.06-4,18.55,18.55,0,0,0,4-6,19.36,19.36,0,0,0,1.45-7.53,18.92,18.92,0,0,0-5.46-13.53,18,18,0,0,0-6.06-4,21.21,21.21,0,0,0-15.21,0,18.23,18.23,0,0,0-6.1,4,18.72,18.72,0,0,0-4,6,19.1,19.1,0,0,0-1.44,7.5,19.36,19.36,0,0,0,1.44,7.53,18.19,18.19,0,0,0,4,6,18.46,18.46,0,0,0,6.1,4A20.17,20.17,0,0,0,1239.79,1616.54Z" transform="translate(-13.29 -23.05)"/><path class="cls-3" d="M1277.47,1622.25V1573h5.78l22.11,37.26h-3.1L1324.1,1573h5.77l.07,49.3h-6.76l-.07-38.67h1.62l-19.44,32.68h-3.24l-19.58-32.68h1.76v38.67Z" transform="translate(-13.29 -23.05)"/><path class="cls-3" d="M1387.49,1622.81a28.23,28.23,0,0,1-10.46-1.9,25,25,0,0,1-8.35-5.32,24.36,24.36,0,0,1-5.49-8,26.37,26.37,0,0,1,0-20,24.4,24.4,0,0,1,5.49-8,25.14,25.14,0,0,1,8.31-5.32,30,30,0,0,1,20.92,0,24.52,24.52,0,0,1,8.32,5.28,24.17,24.17,0,0,1,5.45,8,27,27,0,0,1,0,20.11,24.1,24.1,0,0,1-5.45,8,24.69,24.69,0,0,1-8.32,5.29A28.5,28.5,0,0,1,1387.49,1622.81Zm0-6.27a20,20,0,0,0,7.57-1.4,18.09,18.09,0,0,0,6.06-4,18.55,18.55,0,0,0,4-6,19.18,19.18,0,0,0,1.45-7.53,18.92,18.92,0,0,0-5.46-13.53,17.87,17.87,0,0,0-6.06-4,21.21,21.21,0,0,0-15.21,0,18.23,18.23,0,0,0-6.1,4,18.67,18.67,0,0,0-5.49,13.53,19.36,19.36,0,0,0,1.44,7.53,18.25,18.25,0,0,0,10.15,10A20.17,20.17,0,0,0,1387.49,1616.54Z" transform="translate(-13.29 -23.05)"/><path class="cls-3" d="M1444.89,1622.25V1573h5.78l22.12,37.26h-3.1l21.83-37.26h5.78l.07,49.3h-6.76l-.07-38.67h1.62l-19.44,32.68h-3.24l-19.59-32.68h1.77v38.67Z" transform="translate(-13.29 -23.05)"/><path class="cls-3" d="M1535.19,1622.81a28.23,28.23,0,0,1-10.46-1.9,24.87,24.87,0,0,1-8.34-5.32,24.54,24.54,0,0,1-5.5-8,26.37,26.37,0,0,1,0-20,24.58,24.58,0,0,1,5.5-8,24.93,24.93,0,0,1,8.31-5.32,30,30,0,0,1,20.92,0,24.15,24.15,0,0,1,13.77,13.31,27.16,27.16,0,0,1,0,20.11,24.28,24.28,0,0,1-5.46,8,24.75,24.75,0,0,1-8.31,5.29A28.6,28.6,0,0,1,1535.19,1622.81Zm0-6.27a20,20,0,0,0,7.57-1.4,18,18,0,0,0,6.06-4,18.74,18.74,0,0,0,4-6,19.36,19.36,0,0,0,1.44-7.53,19.1,19.1,0,0,0-1.44-7.5,19.3,19.3,0,0,0-4-6,17.77,17.77,0,0,0-6.06-4,21.21,21.21,0,0,0-15.21,0,18.09,18.09,0,0,0-6.09,4,18.72,18.72,0,0,0-4,6,18.93,18.93,0,0,0-1.45,7.5,19.18,19.18,0,0,0,1.45,7.53,18.27,18.27,0,0,0,10.14,10A20.17,20.17,0,0,0,1535.19,1616.54Z" transform="translate(-13.29 -23.05)"/><path class="cls-3" d="M1595.13,1622.81a28.23,28.23,0,0,1-10.46-1.9,24.87,24.87,0,0,1-8.34-5.32,24.54,24.54,0,0,1-5.5-8,26.37,26.37,0,0,1,0-20,24.58,24.58,0,0,1,5.5-8,24.93,24.93,0,0,1,8.31-5.32,30,30,0,0,1,20.92,0,24.15,24.15,0,0,1,13.77,13.31,27.16,27.16,0,0,1,0,20.11,24.28,24.28,0,0,1-5.46,8,24.75,24.75,0,0,1-8.31,5.29A28.6,28.6,0,0,1,1595.13,1622.81Zm0-6.27a20,20,0,0,0,7.57-1.4,18,18,0,0,0,6.06-4,18.74,18.74,0,0,0,4-6,19.36,19.36,0,0,0,1.44-7.53,19.1,19.1,0,0,0-1.44-7.5,19.3,19.3,0,0,0-4-6,17.77,17.77,0,0,0-6.06-4,21.21,21.21,0,0,0-15.21,0,18.09,18.09,0,0,0-6.09,4,18.72,18.72,0,0,0-4.05,6,18.93,18.93,0,0,0-1.45,7.5,19.18,19.18,0,0,0,1.45,7.53,18.27,18.27,0,0,0,10.14,10A20.17,20.17,0,0,0,1595.13,1616.54Z" transform="translate(-13.29 -23.05)"/><path class="cls-3" d="M1632.81,1622.25V1573h20.78a30,30,0,0,1,13.91,3.09,22.9,22.9,0,0,1,9.37,8.67,26.47,26.47,0,0,1,0,25.78,22.88,22.88,0,0,1-9.37,8.66,29.92,29.92,0,0,1-13.91,3.1Zm7-6.13h13.31a22.68,22.68,0,0,0,10.6-2.32,16.93,16.93,0,0,0,6.94-6.52,20.35,20.35,0,0,0,0-19.4,17,17,0,0,0-6.94-6.48,22.68,22.68,0,0,0-10.6-2.33h-13.31Z" transform="translate(-13.29 -23.05)"/><path class="cls-3" d="M1711.49,1622.25V1573h20.78a30.07,30.07,0,0,1,13.91,3.09,23,23,0,0,1,9.37,8.67,26.54,26.54,0,0,1,0,25.78,22.94,22.94,0,0,1-9.37,8.66,29.94,29.94,0,0,1-13.91,3.1Zm7-6.13h13.32a22.73,22.73,0,0,0,10.6-2.32,16.84,16.84,0,0,0,6.93-6.52,20.28,20.28,0,0,0,0-19.4,17,17,0,0,0-6.93-6.48,22.74,22.74,0,0,0-10.6-2.33h-13.32Z" transform="translate(-13.29 -23.05)"/><path class="cls-3" d="M1792.7,1622.81a28.23,28.23,0,0,1-10.46-1.9,24.87,24.87,0,0,1-8.34-5.32,24.39,24.39,0,0,1-5.5-8,26.37,26.37,0,0,1,0-20,24.43,24.43,0,0,1,5.5-8,24.93,24.93,0,0,1,8.31-5.32,30,30,0,0,1,20.92,0,24.15,24.15,0,0,1,13.77,13.31,27.16,27.16,0,0,1,0,20.11,24.28,24.28,0,0,1-5.46,8,24.75,24.75,0,0,1-8.31,5.29A28.6,28.6,0,0,1,1792.7,1622.81Zm0-6.27a20,20,0,0,0,7.57-1.4,18,18,0,0,0,6.06-4,18.74,18.74,0,0,0,4-6,19.36,19.36,0,0,0,1.44-7.53,19.1,19.1,0,0,0-1.44-7.5,19.3,19.3,0,0,0-4-6,17.77,17.77,0,0,0-6.06-4,21.21,21.21,0,0,0-15.21,0,18.09,18.09,0,0,0-6.09,4,18.72,18.72,0,0,0-4,6,18.93,18.93,0,0,0-1.45,7.5,19.18,19.18,0,0,0,1.45,7.53,18.27,18.27,0,0,0,10.14,10A20.17,20.17,0,0,0,1792.7,1616.54Z" transform="translate(-13.29 -23.05)"/><path class="cls-3" d="M1850.11,1622.25V1573h20.77a30.11,30.11,0,0,1,13.92,3.09,22.94,22.94,0,0,1,9.36,8.67,26.47,26.47,0,0,1,0,25.78,22.92,22.92,0,0,1-9.36,8.66,30,30,0,0,1-13.92,3.1Zm7-6.13h13.31a22.68,22.68,0,0,0,10.6-2.32,16.87,16.87,0,0,0,6.94-6.52,20.28,20.28,0,0,0,0-19.4,17,17,0,0,0-6.94-6.48,22.68,22.68,0,0,0-10.6-2.33h-13.31Z" transform="translate(-13.29 -23.05)"/><path class="cls-3" d="M1909.06,1622.25V1573h7v49.3Z" transform="translate(-13.29 -23.05)"/><path class="cls-3" d="M1924.2,1622.25l22.33-49.3h7l22.4,49.3h-7.39l-19.94-45.36h2.82l-19.93,45.36Zm9.51-12.33,1.9-5.63h27.76l2,5.63Z" transform="translate(-13.29 -23.05)"/><path class="cls-3" d="M2010.77,1616.12h28.74v6.13h-35.79V1573h34.8v6.12h-27.75Zm-.64-21.9h25.36v6h-25.36Z" transform="translate(-13.29 -23.05)"/><path class="cls-3" d="M1035.84,1707.34a28.31,28.31,0,0,1-10.39-1.87,24.42,24.42,0,0,1-8.24-5.28,24.94,24.94,0,0,1-5.46-8,26.72,26.72,0,0,1,0-20.14,24.55,24.55,0,0,1,13.77-13.28,28.31,28.31,0,0,1,10.39-1.87,28,28,0,0,1,10.53,1.94,21.57,21.57,0,0,1,8.21,5.74l-4.58,4.44a18.28,18.28,0,0,0-6.34-4.4,19.72,19.72,0,0,0-7.53-1.45,20.74,20.74,0,0,0-7.72,1.41,18.55,18.55,0,0,0-6.16,4,17.66,17.66,0,0,0-4.05,6,20.62,20.62,0,0,0,0,15.14,17.66,17.66,0,0,0,4.05,6,18.55,18.55,0,0,0,6.16,4,20.74,20.74,0,0,0,7.72,1.41,19.54,19.54,0,0,0,7.53-1.45,17.84,17.84,0,0,0,6.34-4.47l4.58,4.44a21.86,21.86,0,0,1-8.21,5.77A27.64,27.64,0,0,1,1035.84,1707.34Z" transform="translate(-13.29 -23.05)"/><path class="cls-3" d="M1086.7,1707.34a28.19,28.19,0,0,1-10.46-1.91,25,25,0,0,1-8.35-5.31,24.51,24.51,0,0,1-5.49-8,26.24,26.24,0,0,1,0-20,24.51,24.51,0,0,1,5.49-8,25.11,25.11,0,0,1,8.31-5.31,28.14,28.14,0,0,1,10.5-1.91,28.55,28.55,0,0,1,10.42,1.87,24.88,24.88,0,0,1,8.31,5.28,24,24,0,0,1,5.46,8,27,27,0,0,1,0,20.11,24,24,0,0,1-5.46,8,24.73,24.73,0,0,1-8.31,5.28A28.55,28.55,0,0,1,1086.7,1707.34Zm0-6.27a20,20,0,0,0,7.57-1.41,18.19,18.19,0,0,0,6.06-4,18.62,18.62,0,0,0,4-6,19.41,19.41,0,0,0,1.44-7.54,18.81,18.81,0,0,0-5.45-13.52,17.84,17.84,0,0,0-6.06-4,20,20,0,0,0-7.57-1.41,20.26,20.26,0,0,0-7.65,1.41,18.16,18.16,0,0,0-6.09,4,18.57,18.57,0,0,0-4,6,19.13,19.13,0,0,0-1.44,7.5,19.41,19.41,0,0,0,1.44,7.54,18.25,18.25,0,0,0,4,6,18.52,18.52,0,0,0,6.09,4A20.26,20.26,0,0,0,1086.7,1701.07Z" transform="translate(-13.29 -23.05)"/><path class="cls-3" d="M1124.38,1706.77v-49.3h5.78l22.11,37.26h-3.1l21.84-37.26h5.77l.07,49.3h-6.76l-.07-38.67h1.62l-19.44,32.69H1149l-19.58-32.69h1.76v38.67Z" transform="translate(-13.29 -23.05)"/><path class="cls-3" d="M1234.4,1707.34a28.19,28.19,0,0,1-10.46-1.91,25,25,0,0,1-8.35-5.31,24.51,24.51,0,0,1-5.49-8,26.37,26.37,0,0,1,0-20,24.51,24.51,0,0,1,5.49-8,25.11,25.11,0,0,1,8.31-5.31,28.22,28.22,0,0,1,10.5-1.91,28.55,28.55,0,0,1,10.42,1.87,24.68,24.68,0,0,1,8.31,5.28,24,24,0,0,1,5.46,8,27,27,0,0,1,0,20.11,24,24,0,0,1-5.46,8,24.53,24.53,0,0,1-8.31,5.28A28.55,28.55,0,0,1,1234.4,1707.34Zm0-6.27a20,20,0,0,0,7.57-1.41,18.19,18.19,0,0,0,6.06-4,18.62,18.62,0,0,0,4-6,19.41,19.41,0,0,0,1.45-7.54,19.14,19.14,0,0,0-1.45-7.5,18.94,18.94,0,0,0-4-6,17.84,17.84,0,0,0-6.06-4,21.21,21.21,0,0,0-15.21,0,18.11,18.11,0,0,0-6.1,4,18.89,18.89,0,0,0-4.05,6,19.13,19.13,0,0,0-1.44,7.5,19.41,19.41,0,0,0,1.44,7.54,18.27,18.27,0,0,0,10.15,10A20.17,20.17,0,0,0,1234.4,1701.07Z" transform="translate(-13.29 -23.05)"/><path class="cls-3" d="M1314.06,1707.34a28.23,28.23,0,0,1-10.46-1.91,25,25,0,0,1-8.35-5.31,24.66,24.66,0,0,1-5.49-8,26.37,26.37,0,0,1,0-20,24.66,24.66,0,0,1,5.49-8,25.05,25.05,0,0,1,8.32-5.31,28.13,28.13,0,0,1,10.49-1.91,28.51,28.51,0,0,1,10.42,1.87,24.83,24.83,0,0,1,8.32,5.28,24.34,24.34,0,0,1,5.46,8,27.16,27.16,0,0,1,0,20.11,24.32,24.32,0,0,1-5.46,8,24.67,24.67,0,0,1-8.32,5.28A28.51,28.51,0,0,1,1314.06,1707.34Zm0-6.27a20,20,0,0,0,7.57-1.41,17.65,17.65,0,0,0,6.06-4,19,19,0,0,0,5.46-13.52,19.23,19.23,0,0,0-1.45-7.54,18.62,18.62,0,0,0-4-6,18,18,0,0,0-6.06-4,21.21,21.21,0,0,0-15.21,0,18.3,18.3,0,0,0-10.14,10,19.23,19.23,0,0,0-1.45,7.54,19,19,0,0,0,1.45,7.47,18.48,18.48,0,0,0,4,6.05,18,18,0,0,0,6.09,4A20.17,20.17,0,0,0,1314.06,1701.07Zm16.13,16a18.28,18.28,0,0,1-4.72-.6,19.07,19.07,0,0,1-4.51-1.9,30.54,30.54,0,0,1-4.65-3.39,69.35,69.35,0,0,1-5.21-5.1l7.54-2a33.76,33.76,0,0,0,4,4.26,13.49,13.49,0,0,0,3.84,2.39,10.27,10.27,0,0,0,3.8.74,11.56,11.56,0,0,0,9-4.22l3.31,4A15.38,15.38,0,0,1,1330.19,1717.06Z" transform="translate(-13.29 -23.05)"/><path class="cls-3" d="M1372.17,1707.34q-9.72,0-15.29-5.57t-5.56-16.27v-28h7v27.75q0,8.23,3.63,12t10.25,3.81q6.69,0,10.32-3.81t3.63-12v-27.75H1393v28q0,10.71-5.53,16.27T1372.17,1707.34Z" transform="translate(-13.29 -23.05)"/><path class="cls-3" d="M1415.27,1700.64H1444v6.13h-35.78v-49.3H1443v6.13h-27.76Zm-.63-21.9H1440v6h-25.36Z" transform="translate(-13.29 -23.05)"/><path class="cls-3" d="M1468.45,1706.77l22.33-49.3h7l22.4,49.3h-7.39l-19.94-45.36h2.82l-19.93,45.36Zm9.51-12.32,1.9-5.64h27.76l2,5.64Z" transform="translate(-13.29 -23.05)"/><path class="cls-3" d="M1570.23,1707.34a28.73,28.73,0,0,1-10.49-1.87,24.46,24.46,0,0,1-13.81-13.28,26.72,26.72,0,0,1,0-20.14,24.47,24.47,0,0,1,5.53-8,25.16,25.16,0,0,1,8.35-5.28,30.87,30.87,0,0,1,21.27,0,21.11,21.11,0,0,1,8.24,5.7l-4.37,4.37a19.38,19.38,0,0,0-6.58-4.33,21.18,21.18,0,0,0-7.72-1.38,21.51,21.51,0,0,0-7.85,1.41,18.74,18.74,0,0,0-6.27,4,17.45,17.45,0,0,0-4.08,6,19.45,19.45,0,0,0-1.45,7.57,19.24,19.24,0,0,0,1.45,7.5,17.9,17.9,0,0,0,4.08,6.06,18.56,18.56,0,0,0,6.24,4,21.18,21.18,0,0,0,7.81,1.41,23.21,23.21,0,0,0,7.58-1.24,18.54,18.54,0,0,0,6.72-4.12l4,5.36a25.19,25.19,0,0,1-8.56,4.68A32.49,32.49,0,0,1,1570.23,1707.34Zm11.91-7.19v-18.31h6.76v19.23Z" transform="translate(-13.29 -23.05)"/><path class="cls-3" d="M1610.17,1700.64h28.74v6.13h-35.79v-49.3h34.8v6.13h-27.75Zm-.64-21.9h25.36v6h-25.36Z" transform="translate(-13.29 -23.05)"/><path class="cls-3" d="M1651.09,1706.77v-49.3h5.78l32.61,40.5h-3v-40.5h7v49.3h-5.77l-32.61-40.5h3v40.5Z" transform="translate(-13.29 -23.05)"/><path class="cls-3" d="M1718.85,1706.77V1663.6H1702v-6.13h40.78v6.13h-16.91v43.17Z" transform="translate(-13.29 -23.05)"/><path class="cls-3" d="M1758.22,1700.64H1787v6.13h-35.78v-49.3H1786v6.13h-27.75Zm-.63-21.9H1783v6h-25.36Z" transform="translate(-13.29 -23.05)"/><path class="cls-3" d="M1841.13,1707.34a28.19,28.19,0,0,1-10.46-1.91,25,25,0,0,1-8.35-5.31,24.51,24.51,0,0,1-5.49-8,26.24,26.24,0,0,1,0-20,24.51,24.51,0,0,1,5.49-8,25.11,25.11,0,0,1,8.31-5.31,28.14,28.14,0,0,1,10.5-1.91,28.55,28.55,0,0,1,10.42,1.87,24.88,24.88,0,0,1,8.31,5.28,24,24,0,0,1,5.46,8,27,27,0,0,1,0,20.11,24,24,0,0,1-5.46,8,24.73,24.73,0,0,1-8.31,5.28A28.55,28.55,0,0,1,1841.13,1707.34Zm0-6.27a20,20,0,0,0,7.57-1.41,17.71,17.71,0,0,0,6-4,18.72,18.72,0,0,0,4-6.05,19.2,19.2,0,0,0,1.44-7.47,19.41,19.41,0,0,0-1.44-7.54,18.48,18.48,0,0,0-4-6,18,18,0,0,0-6-4,21.24,21.24,0,0,0-15.22,0,18.52,18.52,0,0,0-6.09,4,18.25,18.25,0,0,0-4.05,6,19.41,19.41,0,0,0-1.44,7.54,19.2,19.2,0,0,0,1.44,7.47,18.48,18.48,0,0,0,4.05,6.05,18.16,18.16,0,0,0,6.09,4A20.23,20.23,0,0,0,1841.13,1701.07Zm16.13,16a18.23,18.23,0,0,1-4.72-.6,18.73,18.73,0,0,1-4.51-1.9,30.06,30.06,0,0,1-4.65-3.39,65.76,65.76,0,0,1-5.21-5.1l7.53-2a33.76,33.76,0,0,0,4,4.26,13.49,13.49,0,0,0,3.84,2.39,10.32,10.32,0,0,0,3.81.74,11.56,11.56,0,0,0,8.94-4.22l3.31,4A15.35,15.35,0,0,1,1857.26,1717.06Z" transform="translate(-13.29 -23.05)"/><path class="cls-3" d="M1899.23,1707.34q-9.72,0-15.28-5.57t-5.56-16.27v-28h7v27.75q0,8.23,3.63,12t10.25,3.81q6.69,0,10.31-3.81t3.63-12v-27.75h6.83v28q0,10.71-5.53,16.27T1899.23,1707.34Z" transform="translate(-13.29 -23.05)"/><path class="cls-3" d="M1942.34,1700.64h28.74v6.13H1935.3v-49.3h34.79v6.13h-27.75Zm-.63-21.9h25.35v6h-25.35Z" transform="translate(-13.29 -23.05)"/><path class="cls-3" d="M1983.26,1706.77v-49.3h19.23a27.07,27.07,0,0,1,11.06,2,15.59,15.59,0,0,1,7,5.92,18.41,18.41,0,0,1,0,18.42,15.7,15.7,0,0,1-7,5.88,27.07,27.07,0,0,1-11.06,2h-15.35l3.17-3.24v18.24Zm7-17.54-3.17-3.45h15.14q6.77,0,10.25-2.92a11.35,11.35,0,0,0,0-16.38q-3.49-2.88-10.25-2.88h-15.14l3.17-3.53Zm25.92,17.54-12.54-17.89h7.54l12.67,17.89Z" transform="translate(-13.29 -23.05)"/><path class="cls-3" d="M1322.83,1791.86q-9.72,0-15.28-5.57T1302,1770v-28h7v27.75q0,8.25,3.62,12t10.25,3.8q6.69,0,10.32-3.8t3.63-12V1742h6.83v28q0,10.71-5.53,16.27T1322.83,1791.86Z" transform="translate(-13.29 -23.05)"/><path class="cls-3" d="M1373.26,1791.86a33.29,33.29,0,0,1-10.77-1.73,22.05,22.05,0,0,1-8.1-4.47l2.6-5.49a22.89,22.89,0,0,0,7.19,4.08,25.9,25.9,0,0,0,9.08,1.62,20.79,20.79,0,0,0,7-1,8.26,8.26,0,0,0,3.94-2.72,6.46,6.46,0,0,0,1.27-3.9,5.32,5.32,0,0,0-1.66-4.09,12.21,12.21,0,0,0-4.29-2.5,48.85,48.85,0,0,0-5.82-1.66c-2.11-.46-4.23-1-6.37-1.65a28.83,28.83,0,0,1-5.85-2.43,12,12,0,0,1-4.26-4,11.68,11.68,0,0,1-1.62-6.45,12.91,12.91,0,0,1,2-7,14,14,0,0,1,6.2-5.15,25.52,25.52,0,0,1,10.67-1.93,33,33,0,0,1,8.52,1.12,24.22,24.22,0,0,1,7.33,3.24l-2.33,5.64a22.44,22.44,0,0,0-6.69-3.06,25.91,25.91,0,0,0-6.83-1,18.87,18.87,0,0,0-6.83,1.06,8.36,8.36,0,0,0-3.91,2.82,6.72,6.72,0,0,0-1.23,3.94,5.43,5.43,0,0,0,1.65,4.16,11.91,11.91,0,0,0,4.3,2.46,57.49,57.49,0,0,0,5.81,1.66c2.11.49,4.24,1,6.37,1.65a27.47,27.47,0,0,1,5.85,2.4,12,12,0,0,1,4.26,3.94,11.36,11.36,0,0,1,1.62,6.34,12.69,12.69,0,0,1-2,6.94,14.11,14.11,0,0,1-6.31,5.14A26,26,0,0,1,1373.26,1791.86Z" transform="translate(-13.29 -23.05)"/><path class="cls-3" d="M1395.94,1791.3l22.33-49.31h7l22.4,49.31h-7.39l-19.94-45.36h2.82l-19.93,45.36Zm9.51-12.33,1.9-5.64h27.75l2.05,5.64Z" transform="translate(-13.29 -23.05)"/><path class="cls-3" d="M1455.74,1791.3V1742H1475a27.07,27.07,0,0,1,11.06,2,15.72,15.72,0,0,1,7,5.92,16.85,16.85,0,0,1,2.47,9.23,16.67,16.67,0,0,1-2.47,9.19,15.7,15.7,0,0,1-7,5.88,27.07,27.07,0,0,1-11.06,2h-15.36l3.17-3.24v18.25Zm7-17.54-3.17-3.45h15.15q6.77,0,10.25-2.93a10.12,10.12,0,0,0,3.48-8.2A10,10,0,0,0,1485,1751q-3.49-2.9-10.25-2.89h-15.15l3.17-3.52Zm25.92,17.54-12.53-17.89h7.53l12.68,17.89Z" transform="translate(-13.29 -23.05)"/><path class="cls-3" d="M1534.49,1791.3h-7V1742h7Zm29-22h-29.66v-6.13h29.66Zm-.64-27.33h7v49.31h-7Z" transform="translate(-13.29 -23.05)"/><path class="cls-3" d="M1607.67,1791.86a28.23,28.23,0,0,1-10.46-1.9,25,25,0,0,1-8.35-5.32,24.47,24.47,0,0,1-5.49-8,26.39,26.39,0,0,1,0-20,24.36,24.36,0,0,1,5.49-8,25.14,25.14,0,0,1,8.31-5.32,28.21,28.21,0,0,1,10.5-1.9,28.5,28.5,0,0,1,10.42,1.86,24.69,24.69,0,0,1,8.32,5.29,24,24,0,0,1,5.45,8,27,27,0,0,1,0,20.11,24.2,24.2,0,0,1-5.45,8,24.52,24.52,0,0,1-8.32,5.28A28.3,28.3,0,0,1,1607.67,1791.86Zm0-6.27a20,20,0,0,0,7.57-1.41,17.94,17.94,0,0,0,6.06-4,18.51,18.51,0,0,0,4-6,19.19,19.19,0,0,0,1.45-7.54,19,19,0,0,0-1.45-7.5,19.17,19.17,0,0,0-4-6,17.75,17.75,0,0,0-6.06-4,21.36,21.36,0,0,0-15.21,0,18.11,18.11,0,0,0-6.1,4,18.63,18.63,0,0,0-5.49,13.52,19.37,19.37,0,0,0,1.44,7.54,18.27,18.27,0,0,0,10.15,10A20.17,20.17,0,0,0,1607.67,1785.59Z" transform="translate(-13.29 -23.05)"/><path class="cls-3" d="M1650.63,1791.86a18.62,18.62,0,0,1-8.17-1.83,15.68,15.68,0,0,1-6.19-5.28l4.08-4.79a15.53,15.53,0,0,0,4.61,4.33,11,11,0,0,0,5.67,1.51q8.46,0,8.46-10v-27.68h-17.82V1742h24.79v33.46q0,8.23-3.91,12.32C1659.54,1790.5,1655.71,1791.86,1650.63,1791.86Z" transform="translate(-13.29 -23.05)"/><path class="cls-3" d="M1688.25,1785.17H1717v6.13H1681.2V1742H1716v6.13h-27.75Zm-.64-21.91H1713v6h-25.36Z" transform="translate(-13.29 -23.05)"/><path class="cls-3" d="M1730.51,1791.72a4.76,4.76,0,0,1-4.79-4.86,4.54,4.54,0,0,1,1.41-3.45,4.72,4.72,0,0,1,3.38-1.34,4.53,4.53,0,0,1,3.27,1.34,4.59,4.59,0,0,1,1.38,3.45,4.69,4.69,0,0,1-1.38,3.48A4.45,4.45,0,0,1,1730.51,1791.72Z" transform="translate(-13.29 -23.05)"/><path d="M1038.19,1394.6l-32.54-90.24h24.65l27,77.66H1045.4l28.18-77.66h22.31l27.17,77.66h-11.41l27.68-77.66h23.14l-32.7,90.24h-25.16L1080.45,1328H1088l-24.49,66.59Z" transform="translate(-13.29 -23.05)"/><path d="M1231.41,1303a42,42,0,0,1,19.2,4.28,31,31,0,0,1,13.34,13.08q4.86,8.8,4.86,22.56v51.66h-26.17V1347q0-10.89-4.78-16.1t-13.5-5.2a23,23,0,0,0-11.15,2.69,18.75,18.75,0,0,0-7.72,7.88q-2.76,5.2-2.76,13.75v44.62h-26.17V1270.15h26.17v59.2l-5.87-7.55a33.48,33.48,0,0,1,13.92-13.92A42.91,42.91,0,0,1,1231.41,1303Z" transform="translate(-13.29 -23.05)"/><path d="M1337.74,1395.94a52.49,52.49,0,0,1-25.41-6,46.89,46.89,0,0,1-17.52-64.49,44.7,44.7,0,0,1,17.52-16.44,53.25,53.25,0,0,1,25.41-6,54.13,54.13,0,0,1,25.67,6,44.61,44.61,0,0,1,17.61,16.44,45.48,45.48,0,0,1,6.37,24.07,44.23,44.23,0,0,1-24,40.42A53.36,53.36,0,0,1,1337.74,1395.94Zm0-21.47a23.43,23.43,0,0,0,11.83-2.93,21.58,21.58,0,0,0,8.22-8.64,27.77,27.77,0,0,0,3.1-13.42,27.14,27.14,0,0,0-3.1-13.42,21.83,21.83,0,0,0-8.22-8.47,23.08,23.08,0,0,0-11.66-2.93,23.51,23.51,0,0,0-11.74,2.93,21.61,21.61,0,0,0-8.3,8.47,27,27,0,0,0-3.11,13.42,27.66,27.66,0,0,0,3.11,13.42,21.36,21.36,0,0,0,8.3,8.64A23.17,23.17,0,0,0,1337.74,1374.47Z" transform="translate(-13.29 -23.05)"/><path d="M1499.6,1395.94a54.86,54.86,0,0,1-25.92-6,46.55,46.55,0,0,1-17.78-64.49,45.88,45.88,0,0,1,17.78-16.44,54.19,54.19,0,0,1,25.92-6q14.25,0,24.9,6a34.57,34.57,0,0,1,15.35,16.86l-20.13,11.07a24.25,24.25,0,0,0-8.89-9.31,22.85,22.85,0,0,0-11.4-2.93,24.49,24.49,0,0,0-11.91,2.93,21.82,21.82,0,0,0-8.55,8.47,26.42,26.42,0,0,0-3.19,13.42A26.86,26.86,0,0,0,1479,1363a21.66,21.66,0,0,0,8.55,8.56,24.49,24.49,0,0,0,11.91,2.93,22.85,22.85,0,0,0,11.4-2.93,24,24,0,0,0,8.89-9.48l20.13,11.07a35.07,35.07,0,0,1-15.35,16.77Q1513.85,1395.95,1499.6,1395.94Z" transform="translate(-13.29 -23.05)"/><path d="M1584.8,1395.94a41.18,41.18,0,0,1-18-3.61,28,28,0,0,1-11.65-9.81,24.54,24.54,0,0,1-4.11-13.92,25.33,25.33,0,0,1,3.94-14q3.93-6.12,12.49-9.47t22.48-3.36h23.82v15.1h-21.14q-9.23,0-12.66,3a9.64,9.64,0,0,0-3.44,7.55,9.39,9.39,0,0,0,3.94,8q3.95,2.94,10.65,2.94a23.82,23.82,0,0,0,12-3,16.51,16.51,0,0,0,7.46-9.23l4,12.25a23.76,23.76,0,0,1-10.39,13Q1596.7,1395.94,1584.8,1395.94Zm27.51-1.34V1377l-1.68-3.86V1341.6q0-8.38-5.12-13.09t-15.68-4.69a45.5,45.5,0,0,0-14.17,2.26,39.7,39.7,0,0,0-12,6.12l-9.23-18.28a53,53,0,0,1,17.78-8.13,81.61,81.61,0,0,1,21.13-2.77q20.64,0,32,9.73t11.4,30.36v51.49Z" transform="translate(-13.29 -23.05)"/><path d="M1662.29,1394.6v-90.24h25V1330l-3.52-7.54a28.93,28.93,0,0,1,12.91-14.51q8.89-5,21.64-5v24.32c-1-.22-2-.39-2.94-.5a24.07,24.07,0,0,0-2.77-.17q-11.07,0-17.61,6.21t-6.54,19.12v42.6Z" transform="translate(-13.29 -23.05)"/><path d="M1779.7,1395.94q-15.43,0-27-6a44.55,44.55,0,0,1-17.94-16.52,45.07,45.07,0,0,1-6.38-23.9,47,47,0,0,1,6.12-24A43.08,43.08,0,0,1,1751.6,1309a51.16,51.16,0,0,1,24.74-6,49.85,49.85,0,0,1,23.9,5.7,42.86,42.86,0,0,1,16.86,16.1q6.2,10.41,6.21,25c0,1-.06,2.16-.17,3.44s-.23,2.49-.34,3.61h-73.29V1341.6h59.54l-10.23,4.53a23.91,23.91,0,0,0-2.69-12.25,20.82,20.82,0,0,0-7.88-8.13,22.84,22.84,0,0,0-11.74-2.94,23.27,23.27,0,0,0-11.82,2.94,20.39,20.39,0,0,0-8,8.21,26,26,0,0,0-2.85,12.5v4a24.71,24.71,0,0,0,3.35,13.08,22.15,22.15,0,0,0,9.23,8.47,31.15,31.15,0,0,0,14.09,2.93,33.3,33.3,0,0,0,12.49-2.18,30.79,30.79,0,0,0,10-6.54l13.92,15.1a40.71,40.71,0,0,1-15.6,10.82A57.8,57.8,0,0,1,1779.7,1395.94Z" transform="translate(-13.29 -23.05)"/><path d="M1873,1395.94a86.88,86.88,0,0,1-22.14-2.77q-10.56-2.76-16.94-7l8.56-18.62a65.47,65.47,0,0,0,14.84,6.13,60.29,60.29,0,0,0,16.69,2.43q9.06,0,12.83-2.18a6.71,6.71,0,0,0,3.77-6,5.14,5.14,0,0,0-2.93-4.78,25.73,25.73,0,0,0-7.72-2.43c-3.18-.56-6.74-1.12-10.65-1.68a104.65,104.65,0,0,1-11.66-2.35,45.36,45.36,0,0,1-10.73-4.27,21,21,0,0,1-7.88-7.64q-2.94-4.86-2.94-12.58a24.46,24.46,0,0,1,5-15.18,32.64,32.64,0,0,1,14.26-10.31q9.23-3.69,22.31-3.69a87,87,0,0,1,18.87,2.1,58.28,58.28,0,0,1,16,5.78l-8.88,18.62a46.85,46.85,0,0,0-13-5.2,56.85,56.85,0,0,0-12.67-1.51q-9.06,0-13.08,2.35t-4,6a5.58,5.58,0,0,0,3,5.11,23.63,23.63,0,0,0,7.89,2.6q4.86.84,10.73,1.68a100.46,100.46,0,0,1,11.57,2.35,45.69,45.69,0,0,1,10.66,4.27,21.16,21.16,0,0,1,7.88,7.64q2.93,4.86,2.93,12.58a23.18,23.18,0,0,1-5,14.67q-5,6.47-14.51,10.15T1873,1395.94Z" transform="translate(-13.29 -23.05)"/><path d="M1955.47,1353.67a25.16,25.16,0,0,1,1.93-10.14,34.41,34.41,0,0,1,4.87-8.06,58.94,58.94,0,0,1,6.28-6.62q3.36-3,6.29-5.79a30.71,30.71,0,0,0,4.87-5.78,12.58,12.58,0,0,0,1.93-6.88,11.41,11.41,0,0,0-5-9.56q-4.95-3.69-13-3.69a30,30,0,0,0-14.34,3.27,28.48,28.48,0,0,0-10.15,9.14l-20.29-11.91a48.24,48.24,0,0,1,18.7-16.44q11.82-6,28.76-6a63.15,63.15,0,0,1,22.31,3.6,33.28,33.28,0,0,1,14.93,10.49q5.37,6.87,5.37,16.77a31.09,31.09,0,0,1-2,11.82,30.73,30.73,0,0,1-5.2,8.64,72.33,72.33,0,0,1-6.79,6.88q-3.6,3.18-6.79,6.2a30.17,30.17,0,0,0-5.2,6.38,14.73,14.73,0,0,0-2,7.71Zm12.75,42.27a15.46,15.46,0,0,1-11.41-4.53,14.66,14.66,0,0,1-4.52-10.73,14,14,0,0,1,4.52-10.65,15.92,15.92,0,0,1,11.41-4.28q7.21,0,11.66,4.28a14.18,14.18,0,0,1,4.44,10.65,14.82,14.82,0,0,1-4.44,10.73A15.62,15.62,0,0,1,1968.22,1395.94Z" transform="translate(-13.29 -23.05)"/><rect class="cls-4" x="5.51" y="1210.04" width="825.99" height="391.06"/><path class="cls-3" d="M93.89,1407.45V1291.74h26.94l63.65,77H171.75v-77h32.07v115.71H176.87l-63.8-77h12.72v77Z" transform="translate(-13.29 -23.05)"/><path class="cls-3" d="M307.79,1409.77a71.6,71.6,0,0,1-25.54-4.47,59.11,59.11,0,0,1-33.88-31.82,58.45,58.45,0,0,1-4.88-24,57.51,57.51,0,0,1,4.88-23.8,59.57,59.57,0,0,1,33.8-31.74,75.82,75.82,0,0,1,51.24,0,60.91,60.91,0,0,1,20.34,12.56,59,59,0,0,1,13.47,19,58.13,58.13,0,0,1,4.87,24,59.87,59.87,0,0,1-4.79,24.22,57.1,57.1,0,0,1-13.47,19.09,61.61,61.61,0,0,1-20.42,12.56A71.38,71.38,0,0,1,307.79,1409.77Zm0-27.11a32.32,32.32,0,0,0,12.32-2.32,28.43,28.43,0,0,0,9.92-6.69,31.7,31.7,0,0,0,6.61-10.42,40.09,40.09,0,0,0,0-27.27,31.75,31.75,0,0,0-6.61-10.41,28.59,28.59,0,0,0-9.92-6.7,34,34,0,0,0-24.63,0,29.38,29.38,0,0,0-10,6.7,30.08,30.08,0,0,0-6.62,10.41,41.4,41.4,0,0,0,0,27.27,30,30,0,0,0,6.62,10.42,29.21,29.21,0,0,0,10,6.69A32.26,32.26,0,0,0,307.79,1382.66Z" transform="translate(-13.29 -23.05)"/><path class="cls-3" d="M452.43,1409.77a104.91,104.91,0,0,1-27.52-3.56q-13.14-3.56-21.24-9l10.74-24.29a76,76,0,0,0,17.94,8.18,66.58,66.58,0,0,0,20.25,3.22,41.21,41.21,0,0,0,11-1.16,12.26,12.26,0,0,0,6-3.3,7.46,7.46,0,0,0,1.9-5.13,6.8,6.8,0,0,0-3.64-6,36.17,36.17,0,0,0-9.5-3.8q-5.87-1.58-12.73-3a125.51,125.51,0,0,1-14-3.72,53.56,53.56,0,0,1-12.89-6.11,29.31,29.31,0,0,1-9.34-9.92q-3.56-6.12-3.55-15.37a32.91,32.91,0,0,1,5.62-18.68q5.61-8.43,17-13.56t28.43-5.12a98.22,98.22,0,0,1,22.4,2.56,66,66,0,0,1,19.43,7.69l-9.92,24.13a71.25,71.25,0,0,0-16.37-6.78,61.23,61.23,0,0,0-15.7-2.15,33,33,0,0,0-10.91,1.49,12.9,12.9,0,0,0-5.95,3.8,7.86,7.86,0,0,0-1.82,5,6.92,6.92,0,0,0,3.64,6.2,32.9,32.9,0,0,0,9.42,3.64q5.77,1.41,12.81,2.89a140.54,140.54,0,0,1,14,3.72,55.58,55.58,0,0,1,12.81,6,29.24,29.24,0,0,1,9.5,9.75q3.65,6,3.64,15.13a32.77,32.77,0,0,1-5.7,18.6q-5.72,8.51-17.11,13.63T452.43,1409.77Z" transform="translate(-13.29 -23.05)"/><path class="cls-3" d="M581.86,1409.77a104.91,104.91,0,0,1-27.52-3.56q-13.14-3.56-21.24-9l10.74-24.29a76,76,0,0,0,17.94,8.18,66.58,66.58,0,0,0,20.25,3.22,41.21,41.21,0,0,0,11-1.16,12.26,12.26,0,0,0,6-3.3,7.46,7.46,0,0,0,1.9-5.13,6.8,6.8,0,0,0-3.64-6,36.17,36.17,0,0,0-9.5-3.8q-5.87-1.58-12.73-3a125.51,125.51,0,0,1-14-3.72,53.56,53.56,0,0,1-12.89-6.11,29.31,29.31,0,0,1-9.34-9.92q-3.56-6.12-3.55-15.37a32.91,32.91,0,0,1,5.62-18.68q5.61-8.43,17-13.56t28.43-5.12a98.22,98.22,0,0,1,22.4,2.56,66,66,0,0,1,19.43,7.69l-9.92,24.13a71.25,71.25,0,0,0-16.37-6.78,61.23,61.23,0,0,0-15.7-2.15,33,33,0,0,0-10.91,1.49,12.9,12.9,0,0,0-6,3.8,7.86,7.86,0,0,0-1.82,5,6.92,6.92,0,0,0,3.64,6.2,32.9,32.9,0,0,0,9.42,3.64q5.78,1.41,12.81,2.89a140.54,140.54,0,0,1,14,3.72,55.58,55.58,0,0,1,12.81,6,29.24,29.24,0,0,1,9.5,9.75q3.64,6,3.64,15.13a32.77,32.77,0,0,1-5.7,18.6q-5.72,8.51-17.11,13.63T581.86,1409.77Z" transform="translate(-13.29 -23.05)"/><path class="cls-3" d="M729,1409.77a71.6,71.6,0,0,1-25.54-4.47,59.09,59.09,0,0,1-33.89-31.82,58.61,58.61,0,0,1-4.87-24,57.67,57.67,0,0,1,4.87-23.8,59.55,59.55,0,0,1,33.81-31.74,75.82,75.82,0,0,1,51.24,0,60.87,60.87,0,0,1,20.33,12.56,58.86,58.86,0,0,1,13.47,19,58.14,58.14,0,0,1,4.88,24,60,60,0,0,1-4.79,24.22A57,57,0,0,1,775,1392.74a61.57,61.57,0,0,1-20.41,12.56A71.45,71.45,0,0,1,729,1409.77Zm0-27.11a32.3,32.3,0,0,0,12.31-2.32,28.43,28.43,0,0,0,9.92-6.69,31.7,31.7,0,0,0,6.61-10.42,39.93,39.93,0,0,0,0-27.27,31.75,31.75,0,0,0-6.61-10.41,28.59,28.59,0,0,0-9.92-6.7,34,34,0,0,0-24.63,0,29.48,29.48,0,0,0-10,6.7,30.06,30.06,0,0,0-6.61,10.41,41.4,41.4,0,0,0,0,27.27,30,30,0,0,0,6.61,10.42,29.31,29.31,0,0,0,10,6.69A32.32,32.32,0,0,0,729,1382.66Z" transform="translate(-13.29 -23.05)"/><path class="cls-3" d="M119.6,1537.74h60.5v25.46H87.36V1447.48H178v25.46H119.6Zm-2.32-45.46H171v24.3H117.28Z" transform="translate(-13.29 -23.05)"/><path class="cls-3" d="M242.25,1565.51a105.33,105.33,0,0,1-27.52-3.55q-13.14-3.56-21.24-9l10.74-24.3a76,76,0,0,0,17.94,8.18,66.58,66.58,0,0,0,20.25,3.22,41.69,41.69,0,0,0,11-1.15,12.27,12.27,0,0,0,6-3.31,7.5,7.5,0,0,0,1.9-5.12,6.8,6.8,0,0,0-3.64-6,36.17,36.17,0,0,0-9.5-3.8q-5.87-1.58-12.73-3a127.63,127.63,0,0,1-14-3.71,53.41,53.41,0,0,1-12.89-6.12,29.22,29.22,0,0,1-9.34-9.92q-3.56-6.11-3.56-15.37a33,33,0,0,1,5.62-18.68q5.63-8.43,17-13.56t28.43-5.12a98.22,98.22,0,0,1,22.4,2.56,65.86,65.86,0,0,1,19.42,7.69l-9.91,24.13a71.43,71.43,0,0,0-16.37-6.78,61.2,61.2,0,0,0-15.7-2.14,33,33,0,0,0-10.91,1.48,12.91,12.91,0,0,0-5.95,3.81,7.82,7.82,0,0,0-1.82,5,6.91,6.91,0,0,0,3.64,6.19,32.61,32.61,0,0,0,9.42,3.64q5.77,1.41,12.81,2.89a140.54,140.54,0,0,1,14,3.72,56,56,0,0,1,12.81,6A29.18,29.18,0,0,1,290,1513q3.64,6,3.64,15.12a32.77,32.77,0,0,1-5.7,18.6q-5.71,8.51-17.11,13.63T242.25,1565.51Z" transform="translate(-13.29 -23.05)"/><path class="cls-3" d="M334.82,1563.2v-89.76H299.28v-26H402.92v26H367.55v89.76Z" transform="translate(-13.29 -23.05)"/><path class="cls-3" d="M418.63,1563.2V1447.48h32.73V1563.2Z" transform="translate(-13.29 -23.05)"/><path class="cls-3" d="M478,1563.2V1447.48H510.7v89.76h55v26Z" transform="translate(-13.29 -23.05)"/><path class="cls-3" d="M638.48,1565.51a71.78,71.78,0,0,1-25.54-4.46,59.18,59.18,0,0,1-33.89-31.82,58.69,58.69,0,0,1-4.88-24.06,57.67,57.67,0,0,1,4.88-23.8,59.57,59.57,0,0,1,33.8-31.74,75.84,75.84,0,0,1,51.25,0,60.89,60.89,0,0,1,20.33,12.57,58.75,58.75,0,0,1,13.47,19,58.06,58.06,0,0,1,4.88,24,60,60,0,0,1-4.79,24.22,57,57,0,0,1-13.48,19.09,61.76,61.76,0,0,1-20.41,12.57A71.67,71.67,0,0,1,638.48,1565.51Zm0-27.11a32.49,32.49,0,0,0,12.31-2.31,28.59,28.59,0,0,0,9.92-6.7,31.75,31.75,0,0,0,6.61-10.41,40,40,0,0,0,0-27.28,31.75,31.75,0,0,0-6.61-10.41,28.59,28.59,0,0,0-9.92-6.7,34,34,0,0,0-24.63,0,29.38,29.38,0,0,0-10,6.7,29.92,29.92,0,0,0-6.61,10.41,41.26,41.26,0,0,0,0,27.28,29.92,29.92,0,0,0,6.61,10.41,29.38,29.38,0,0,0,10,6.7A32.5,32.5,0,0,0,638.48,1538.4Z" transform="translate(-13.29 -23.05)"/><path class="cls-3" d="M741.79,1521a24.7,24.7,0,0,1,1.73-9.58,32.66,32.66,0,0,1,4.39-7.53,51,51,0,0,1,5.7-6.19q3.06-2.82,5.7-5.29a27.55,27.55,0,0,0,4.38-5.21,10.45,10.45,0,0,0,1.74-5.7,9,9,0,0,0-4-7.69q-4.05-2.89-10.5-2.89a23.22,23.22,0,0,0-12,3.14,24.38,24.38,0,0,0-8.68,8.59l-24.63-13.06a48.77,48.77,0,0,1,18.68-17.77q12.06-6.69,30.58-6.69a65.48,65.48,0,0,1,22.48,3.55,34.39,34.39,0,0,1,15.37,10.5q5.63,6.94,5.62,17a30.38,30.38,0,0,1-1.9,11.24,28.49,28.49,0,0,1-5.12,8.43q-3.22,3.63-6.53,6.69t-6.53,5.87a27.34,27.34,0,0,0-5.13,5.79,12.35,12.35,0,0,0-1.9,6.77Zm14.71,43.64q-8.26,0-13.47-5.12a16.57,16.57,0,0,1-5.21-12.23,16,16,0,0,1,5.21-12.15q5.21-4.87,13.47-4.88,8.43,0,13.64,4.88a16,16,0,0,1,5.21,12.15,16.57,16.57,0,0,1-5.21,12.23Q764.94,1564.69,756.5,1564.68Z" transform="translate(-13.29 -23.05)"/></g></g></g></svg>