<svg xmlns="http://www.w3.org/2000/svg" viewBox="0 0 2334.55 613.03"><defs><style>.cls-1{fill:#b43176;}.cls-2{fill:#fff;}</style></defs><title>8</title><g id="Camada_2" data-name="Camada 2"><g id="Camada_1-2" data-name="Camada 1"><rect class="cls-1" x="1425.07" width="688.15" height="159"/><rect class="cls-1" y="454.02" width="1950.12" height="159"/><rect class="cls-1" x="503.86" y="298.39" width="1830.69" height="159"/><path class="cls-2" d="M-620.91,2662a46.18,46.18,0,0,1-17.17-3.13,41,41,0,0,1-13.7-8.73,40,40,0,0,1-9-13.12,41,41,0,0,1-3.24-16.42,41,41,0,0,1,3.24-16.41,40.14,40.14,0,0,1,9-13.13,41.24,41.24,0,0,1,13.64-8.72,46.09,46.09,0,0,1,17.23-3.13,46.83,46.83,0,0,1,17.11,3.07,40.44,40.44,0,0,1,13.64,8.67,39.47,39.47,0,0,1,9,13.18,42.12,42.12,0,0,1,3.18,16.47,42,42,0,0,1-3.18,16.54,39.63,39.63,0,0,1-9,13.12,40.44,40.44,0,0,1-13.64,8.67A46.83,46.83,0,0,1-620.91,2662Zm0-10.29a32.68,32.68,0,0,0,12.42-2.32,29.47,29.47,0,0,0,10-6.53,30.51,30.51,0,0,0,6.59-9.88,31.76,31.76,0,0,0,2.37-12.38,31.3,31.3,0,0,0-2.37-12.31,31.27,31.27,0,0,0-6.59-9.88,29,29,0,0,0-10-6.59,32.68,32.68,0,0,0-12.42-2.32,33.06,33.06,0,0,0-12.55,2.32,29.63,29.63,0,0,0-10,6.59,30.78,30.78,0,0,0-6.65,9.88,31.3,31.3,0,0,0-2.37,12.31,31.76,31.76,0,0,0,2.37,12.38,30,30,0,0,0,6.65,9.88,30.08,30.08,0,0,0,10,6.53A33.06,33.06,0,0,0-620.91,2651.66Z" transform="translate(694 -2537.35)"/><path class="cls-2" d="M-492.81,2661.71a31.88,31.88,0,0,1-15.9-3.93,28.82,28.82,0,0,1-11-11,32.37,32.37,0,0,1-4-16.42,32.1,32.1,0,0,1,4-16.36,28.94,28.94,0,0,1,11-10.92,31.88,31.88,0,0,1,15.9-3.93,28.79,28.79,0,0,1,14.22,3.46A24.73,24.73,0,0,1-468.7,2613q3.63,6.93,3.64,17.34t-3.76,17.34a25.75,25.75,0,0,1-10,10.47A28,28,0,0,1-492.81,2661.71Zm.92-9.71a20.74,20.74,0,0,0,10.47-2.66,19.19,19.19,0,0,0,7.4-7.57,23.14,23.14,0,0,0,2.71-11.39A22.77,22.77,0,0,0-474,2619a19.47,19.47,0,0,0-7.4-7.45,20.74,20.74,0,0,0-10.47-2.66,20.64,20.64,0,0,0-10.52,2.66,20,20,0,0,0-7.4,7.45,22.38,22.38,0,0,0-2.77,11.39,22.74,22.74,0,0,0,2.77,11.39,19.66,19.66,0,0,0,7.4,7.57A20.64,20.64,0,0,0-491.89,2652Zm20.47,31.45v-38.73l1.15-14.22-.69-14.22v-16.54h10.64v83.71Z" transform="translate(694 -2537.35)"/><path class="cls-2" d="M-407.14,2661.71a31.26,31.26,0,0,1-13.82-2.89,20.68,20.68,0,0,1-9.25-8.84q-3.29-6-3.29-15v-35.27h11.1v34q0,9,4.33,13.53t12.2,4.51a20.41,20.41,0,0,0,10.06-2.37,15.93,15.93,0,0,0,6.59-6.94,24.21,24.21,0,0,0,2.31-11v-31.68h11.1V2661h-10.52v-16.53l1.74,4.39a21.47,21.47,0,0,1-9,9.48A27.26,27.26,0,0,1-407.14,2661.71Z" transform="translate(694 -2537.35)"/><path class="cls-2" d="M-321,2661.71a35.63,35.63,0,0,1-17.28-4,29.15,29.15,0,0,1-11.56-11.1,31.56,31.56,0,0,1-4.11-16.19,32.27,32.27,0,0,1,4-16.18,28.81,28.81,0,0,1,11-11,31.36,31.36,0,0,1,15.78-4,30.93,30.93,0,0,1,15.72,3.93,27.87,27.87,0,0,1,10.7,11,34.17,34.17,0,0,1,3.87,16.59q0,.69-.06,1.62c0,.61-.1,1.19-.17,1.73h-52.15v-8h46.37l-4.51,2.78a20.73,20.73,0,0,0-2.43-10.52,18.65,18.65,0,0,0-7-7.23,20.13,20.13,0,0,0-10.34-2.6,20.23,20.23,0,0,0-10.29,2.6,18.35,18.35,0,0,0-7.06,7.29,22.08,22.08,0,0,0-2.54,10.69V2631a21.07,21.07,0,0,0,2.83,10.93,19.5,19.5,0,0,0,7.92,7.45,24.77,24.77,0,0,0,11.68,2.66,25.44,25.44,0,0,0,9.89-1.85,21.66,21.66,0,0,0,7.8-5.55l6.13,7.17a26.83,26.83,0,0,1-10.35,7.4A35.93,35.93,0,0,1-321,2661.71Z" transform="translate(694 -2537.35)"/><path class="cls-2" d="M-208.4,2661.71a31.87,31.87,0,0,1-15.89-3.93,28.69,28.69,0,0,1-11-11,32.37,32.37,0,0,1-4-16.42,32.1,32.1,0,0,1,4-16.36,28.81,28.81,0,0,1,11-10.92,31.87,31.87,0,0,1,15.89-3.93,28.31,28.31,0,0,1,14,3.46,25.42,25.42,0,0,1,10,10.41q3.75,6.93,3.75,17.34t-3.64,17.34a25,25,0,0,1-9.88,10.47A28.47,28.47,0,0,1-208.4,2661.71Zm.93-9.71a20.73,20.73,0,0,0,10.46-2.66,19.12,19.12,0,0,0,7.4-7.57,23.15,23.15,0,0,0,2.72-11.39,22.77,22.77,0,0,0-2.72-11.39,19.4,19.4,0,0,0-7.4-7.45,20.73,20.73,0,0,0-10.46-2.66,20.64,20.64,0,0,0-10.52,2.66,19.9,19.9,0,0,0-7.4,7.45,22.38,22.38,0,0,0-2.78,11.39,22.75,22.75,0,0,0,2.78,11.39,19.59,19.59,0,0,0,7.4,7.57A20.64,20.64,0,0,0-207.47,2652Zm20.93,9v-16.53l.69-14.22L-187,2616v-40.81h11.1V2661Z" transform="translate(694 -2537.35)"/><path class="cls-2" d="M-121.22,2661.71a35.7,35.7,0,0,1-17.29-4,29.22,29.22,0,0,1-11.56-11.1,31.65,31.65,0,0,1-4.1-16.19,32.27,32.27,0,0,1,4-16.18,28.85,28.85,0,0,1,11-11,31.36,31.36,0,0,1,15.78-4,31,31,0,0,1,15.73,3.93,27.85,27.85,0,0,1,10.69,11,34.17,34.17,0,0,1,3.87,16.59c0,.46,0,1-.05,1.62s-.1,1.19-.18,1.73H-145.5v-8h46.36l-4.51,2.78a20.62,20.62,0,0,0-2.42-10.52,18.65,18.65,0,0,0-7-7.23,20.19,20.19,0,0,0-10.35-2.6,20.28,20.28,0,0,0-10.29,2.6,18.32,18.32,0,0,0-7,7.29,22,22,0,0,0-2.54,10.69V2631a21.07,21.07,0,0,0,2.83,10.93,19.5,19.5,0,0,0,7.92,7.45,24.74,24.74,0,0,0,11.68,2.66,25.39,25.39,0,0,0,9.88-1.85,21.61,21.61,0,0,0,7.81-5.55l6.12,7.17a26.72,26.72,0,0,1-10.34,7.4A36,36,0,0,1-121.22,2661.71Z" transform="translate(694 -2537.35)"/><path class="cls-2" d="M-56.47,2661l-26.83-61.28h11.56l23.82,55.5h-5.55l24.28-55.5h10.87L-45.14,2661Z" transform="translate(694 -2537.35)"/><path class="cls-2" d="M24,2661.71a35.63,35.63,0,0,1-17.28-4,29.15,29.15,0,0,1-11.56-11.1A31.56,31.56,0,0,1-9,2630.38a32.27,32.27,0,0,1,4-16.18,28.81,28.81,0,0,1,11-11,31.36,31.36,0,0,1,15.78-4,30.93,30.93,0,0,1,15.72,3.93,27.87,27.87,0,0,1,10.7,11,34.17,34.17,0,0,1,3.87,16.59q0,.69-.06,1.62c0,.61-.1,1.19-.17,1.73H-.28v-8H46.08l-4.51,2.78a20.62,20.62,0,0,0-2.43-10.52,18.69,18.69,0,0,0-7-7.23,20.19,20.19,0,0,0-10.35-2.6,20.23,20.23,0,0,0-10.29,2.6,18.26,18.26,0,0,0-7,7.29,22,22,0,0,0-2.55,10.69V2631a21.07,21.07,0,0,0,2.83,10.93,19.5,19.5,0,0,0,7.92,7.45A24.8,24.8,0,0,0,24.34,2652a25.44,25.44,0,0,0,9.89-1.85,21.66,21.66,0,0,0,7.8-5.55l6.13,7.17a26.83,26.83,0,0,1-10.35,7.4A35.93,35.93,0,0,1,24,2661.71Z" transform="translate(694 -2537.35)"/><path class="cls-2" d="M138.57,2661.71a35.63,35.63,0,0,1-17.28-4,29.18,29.18,0,0,1-11.57-11.1,31.65,31.65,0,0,1-4.1-16.19,32.27,32.27,0,0,1,4-16.18,28.85,28.85,0,0,1,11-11,31.41,31.41,0,0,1,15.78-4,31,31,0,0,1,15.73,3.93,27.78,27.78,0,0,1,10.69,11,34.17,34.17,0,0,1,3.88,16.59q0,.69-.06,1.62c0,.61-.1,1.19-.18,1.73H114.29v-8h46.36l-4.5,2.78a20.73,20.73,0,0,0-2.43-10.52,18.65,18.65,0,0,0-7-7.23,21.78,21.78,0,0,0-20.64,0,18.39,18.39,0,0,0-7,7.29,22.08,22.08,0,0,0-2.54,10.69V2631a21.07,21.07,0,0,0,2.83,10.93,19.5,19.5,0,0,0,7.92,7.45,24.74,24.74,0,0,0,11.68,2.66,25.36,25.36,0,0,0,9.88-1.85,21.61,21.61,0,0,0,7.81-5.55l6.13,7.17a26.83,26.83,0,0,1-10.35,7.4A36,36,0,0,1,138.57,2661.71Z" transform="translate(694 -2537.35)"/><path class="cls-2" d="M177.77,2661l26.36-34.22-.12,5.66-25.09-32.72h12.37l19.2,25.21h-4.74l19.19-25.21h12.14l-25.44,33,.12-5.89L238.35,2661h-12.6l-20.24-26.82,4.51.69L190.14,2661Z" transform="translate(694 -2537.35)"/><path class="cls-2" d="M262.4,2588a7.4,7.4,0,0,1-5.38-2.08,6.81,6.81,0,0,1-2.14-5.09,7,7,0,0,1,2.14-5.2,7.4,7.4,0,0,1,5.38-2.08,7.5,7.5,0,0,1,5.37,2,6.64,6.64,0,0,1,2.14,5,7.22,7.22,0,0,1-7.51,7.4ZM256.85,2661v-61.28H268V2661Z" transform="translate(694 -2537.35)"/><path class="cls-2" d="M313,2661.71a49.71,49.71,0,0,1-14.51-2.08,33.84,33.84,0,0,1-10.81-5.08l4.62-8.79a38,38,0,0,0,9.71,4.51,38.62,38.62,0,0,0,11.79,1.85q7.76,0,11.16-2.2a6.9,6.9,0,0,0,3.41-6.13,5.39,5.39,0,0,0-2.08-4.51,14.37,14.37,0,0,0-5.49-2.42c-2.27-.54-4.8-1-7.57-1.45s-5.55-1-8.33-1.62a33.16,33.16,0,0,1-7.63-2.77,14.48,14.48,0,0,1-5.55-5,15.32,15.32,0,0,1-2.08-8.5,15.73,15.73,0,0,1,3.12-9.71,19.71,19.71,0,0,1,8.85-6.42,37,37,0,0,1,13.58-2.25,53.65,53.65,0,0,1,12.2,1.44,30.54,30.54,0,0,1,10.12,4.1l-4.74,8.79a26.15,26.15,0,0,0-8.68-3.81,39.56,39.56,0,0,0-9-1q-7.29,0-10.87,2.37a7.06,7.06,0,0,0-3.59,6.07,5.73,5.73,0,0,0,2.14,4.79,15.56,15.56,0,0,0,5.55,2.61,72,72,0,0,0,7.58,1.56c2.77.42,5.55,1,8.32,1.62a33.63,33.63,0,0,1,7.57,2.71,14.65,14.65,0,0,1,5.55,4.86,14.43,14.43,0,0,1,2.14,8.32,14.9,14.9,0,0,1-3.24,9.6,20.84,20.84,0,0,1-9.13,6.3A39.57,39.57,0,0,1,313,2661.71Z" transform="translate(694 -2537.35)"/><path class="cls-2" d="M351,2608.88v-9.14H390v9.14Zm29.83,52.83q-9.26,0-14.34-5t-5.09-14.22v-56.19h11.1v55.73c0,3.31.83,5.86,2.49,7.63s4,2.66,7.11,2.66a13.06,13.06,0,0,0,8.67-2.89l3.47,8a16.17,16.17,0,0,1-6.07,3.23A25.59,25.59,0,0,1,380.79,2661.71Z" transform="translate(694 -2537.35)"/><path class="cls-2" d="M419.52,2588a7.4,7.4,0,0,1-5.38-2.08,6.81,6.81,0,0,1-2.14-5.09,7,7,0,0,1,2.14-5.2,7.4,7.4,0,0,1,5.38-2.08,7.5,7.5,0,0,1,5.37,2,6.64,6.64,0,0,1,2.14,5,7.22,7.22,0,0,1-7.51,7.4ZM414,2661v-61.28h11.1V2661Z" transform="translate(694 -2537.35)"/><path class="cls-2" d="M452.58,2661v-61.28h10.64v16.65l-1-4.16a18.8,18.8,0,0,1,8.55-9.71q6-3.36,14.8-3.35v10.75a7.73,7.73,0,0,0-1.33-.12H483q-8.91,0-14.11,5.32t-5.2,15.38V2661Z" transform="translate(694 -2537.35)"/><path class="cls-2" d="M571.09,2661.71a35.7,35.7,0,0,1-17.29-4,29.22,29.22,0,0,1-11.56-11.1,31.65,31.65,0,0,1-4.1-16.19,32.27,32.27,0,0,1,4-16.18,28.85,28.85,0,0,1,11-11,31.36,31.36,0,0,1,15.78-4,31,31,0,0,1,15.73,3.93,27.85,27.85,0,0,1,10.69,11,34.17,34.17,0,0,1,3.87,16.59c0,.46,0,1,0,1.62s-.1,1.19-.18,1.73H546.81v-8h46.36l-4.51,2.78a20.52,20.52,0,0,0-2.43-10.52,18.55,18.55,0,0,0-7-7.23,21.78,21.78,0,0,0-20.64,0,18.32,18.32,0,0,0-7.05,7.29,22,22,0,0,0-2.54,10.69V2631a21.07,21.07,0,0,0,2.83,10.93,19.5,19.5,0,0,0,7.92,7.45,24.74,24.74,0,0,0,11.68,2.66,25.39,25.39,0,0,0,9.88-1.85,21.61,21.61,0,0,0,7.81-5.55l6.12,7.17a26.68,26.68,0,0,1-10.35,7.4A35.88,35.88,0,0,1,571.09,2661.71Zm-11-70.87,15.72-15h14.1l-19.42,15Z" transform="translate(694 -2537.35)"/><path class="cls-2" d="M684.62,2661.71a32.88,32.88,0,0,1-16.36-4,29.9,29.9,0,0,1-11.38-11.16,31.29,31.29,0,0,1-4.17-16.13,30.91,30.91,0,0,1,4.17-16.13,30.25,30.25,0,0,1,11.33-11,32.75,32.75,0,0,1,16.41-4,33.36,33.36,0,0,1,16.36,4,29.14,29.14,0,0,1,11.33,11,33.92,33.92,0,0,1,0,32.37,29.55,29.55,0,0,1-11.33,11.1A32.85,32.85,0,0,1,684.62,2661.71Zm0-9.71a20.94,20.94,0,0,0,10.58-2.66,18.81,18.81,0,0,0,7.35-7.57,23.57,23.57,0,0,0,2.65-11.39,23.19,23.19,0,0,0-2.65-11.39,19.08,19.08,0,0,0-7.35-7.45,20.94,20.94,0,0,0-10.58-2.66,20.67,20.67,0,0,0-10.52,2.66,20,20,0,0,0-7.4,7.45,22.38,22.38,0,0,0-2.77,11.39,22.74,22.74,0,0,0,2.77,11.39,19.66,19.66,0,0,0,7.4,7.57A20.67,20.67,0,0,0,684.62,2652Z" transform="translate(694 -2537.35)"/><path class="cls-2" d="M777.17,2661v-80.48h31.38q10.59,0,18.06,3.33a25.56,25.56,0,0,1,11.49,9.66,27.42,27.42,0,0,1,4,15.06,27.13,27.13,0,0,1-4,15,25.76,25.76,0,0,1-11.49,9.6q-7.49,3.33-18.06,3.33H783.49l5.17-5.29V2661Zm11.49-28.63-5.17-5.63h24.72q11,0,16.73-4.77t5.69-13.4q0-8.62-5.69-13.34t-16.73-4.71H783.49l5.17-5.75ZM831,2661l-20.46-29.2h12.3l20.7,29.2Z" transform="translate(694 -2537.35)"/><path class="cls-2" d="M878.57,2651h46.91v10h-58.4v-80.48h56.79v10h-45.3Zm-1-35.76h41.39V2625H877.54Z" transform="translate(694 -2537.35)"/><path class="cls-2" d="M973.89,2661.94a54.84,54.84,0,0,1-17.59-2.82,35.87,35.87,0,0,1-13.22-7.3l4.25-9a37,37,0,0,0,11.73,6.67,42.11,42.11,0,0,0,14.83,2.65,33.6,33.6,0,0,0,11.38-1.61,13.48,13.48,0,0,0,6.44-4.43,10.5,10.5,0,0,0,2.07-6.38,8.72,8.72,0,0,0-2.7-6.67,20,20,0,0,0-7-4.08,75.62,75.62,0,0,0-9.48-2.7q-5.18-1.15-10.41-2.7a46.67,46.67,0,0,1-9.54-4,19.65,19.65,0,0,1-7-6.5Q945,2609,945,2602.61a21.1,21.1,0,0,1,3.28-11.44,22.77,22.77,0,0,1,10.11-8.39q6.84-3.17,17.42-3.16a53.66,53.66,0,0,1,13.92,1.84,38.54,38.54,0,0,1,12,5.29l-3.79,9.19a37.12,37.12,0,0,0-10.92-5,43,43,0,0,0-11.16-1.55,30.46,30.46,0,0,0-11.15,1.73,13.56,13.56,0,0,0-6.38,4.59,11,11,0,0,0-2,6.44,8.87,8.87,0,0,0,2.7,6.79,19.55,19.55,0,0,0,7,4,93.09,93.09,0,0,0,9.49,2.7q5.18,1.22,10.4,2.7a44.74,44.74,0,0,1,9.55,3.91,19.73,19.73,0,0,1,6.95,6.44,18.49,18.49,0,0,1,2.65,10.35,20.59,20.59,0,0,1-3.34,11.32,23,23,0,0,1-10.29,8.4Q984.46,2661.95,973.89,2661.94Z" transform="translate(694 -2537.35)"/><path class="cls-2" d="M1028.16,2661v-80.48h31.39q10.58,0,18,3.33a25.56,25.56,0,0,1,11.49,9.66,27.42,27.42,0,0,1,4,15.06,27.13,27.13,0,0,1-4,15,26,26,0,0,1-11.49,9.65q-7.49,3.4-18,3.4h-25.07l5.17-5.41V2661Zm11.49-28.63-5.17-5.75h24.72q11,0,16.73-4.71t5.69-13.34q0-8.62-5.69-13.34t-16.73-4.71h-24.72l5.17-5.75Z" transform="translate(694 -2537.35)"/><path class="cls-2" d="M1127.84,2651h46.91v10h-58.41v-80.48h56.8v10h-45.3Zm-1-35.76h41.39V2625h-41.39Z" transform="translate(694 -2537.35)"/><path class="cls-2" d="M1199.7,2661v-80.48h11.5V2661Z" transform="translate(694 -2537.35)"/><path class="cls-2" d="M1257.65,2661v-70.48h-27.6v-10h66.58v10H1269V2661Z" transform="translate(694 -2537.35)"/><path class="cls-2" d="M1350.66,2661.94a46.12,46.12,0,0,1-17.07-3.1,40.91,40.91,0,0,1-13.62-8.68,39.92,39.92,0,0,1-9-13,43,43,0,0,1,0-32.66,39.92,39.92,0,0,1,9-13,41,41,0,0,1,13.56-8.68,49,49,0,0,1,34.15-.06,40.44,40.44,0,0,1,13.57,8.63,39.36,39.36,0,0,1,8.91,13.1,44.21,44.21,0,0,1,0,32.83,39.46,39.46,0,0,1-8.91,13.05,40.26,40.26,0,0,1-13.57,8.62A46.26,46.26,0,0,1,1350.66,2661.94Zm0-10.23a32.71,32.71,0,0,0,12.36-2.3,29.29,29.29,0,0,0,9.89-6.5,30.37,30.37,0,0,0,6.56-9.83,31.53,31.53,0,0,0,2.35-12.3,30.65,30.65,0,0,0-8.91-22.08,29,29,0,0,0-9.89-6.55,34.66,34.66,0,0,0-24.83,0,29.61,29.61,0,0,0-10,6.55,30.84,30.84,0,0,0-6.61,9.83,31.18,31.18,0,0,0-2.35,12.25,31.53,31.53,0,0,0,2.35,12.3,29.85,29.85,0,0,0,16.56,16.33A33,33,0,0,0,1350.66,2651.71Z" transform="translate(694 -2537.35)"/><path class="cls-2" d="M1470.86,2661.71a29,29,0,0,1-12-2.31A18.37,18.37,0,0,1,1451,2653a16.25,16.25,0,0,1-2.78-9.31,17.51,17.51,0,0,1,2.37-9,16.38,16.38,0,0,1,7.75-6.47q5.39-2.43,14.51-2.43h19.42v8h-19q-8.33,0-11.21,2.78a9,9,0,0,0-2.89,6.71,8.61,8.61,0,0,0,3.58,7.22q3.59,2.71,10,2.72a21,21,0,0,0,10.92-2.78,15.79,15.79,0,0,0,6.77-8.09l2.19,7.63a17.25,17.25,0,0,1-7.74,8.62Q1479.3,2661.72,1470.86,2661.71ZM1491,2661v-12.95l-.57-2.43v-22.08q0-7-4.11-10.93t-12.31-3.87a32.56,32.56,0,0,0-10.64,1.79,27.59,27.59,0,0,0-8.79,4.8l-4.62-8.32a33.33,33.33,0,0,1,11.39-5.84,47.5,47.5,0,0,1,13.93-2q12.6,0,19.42,6.12t6.82,18.73v37Zm-16.65-70.18-19.42-15H1469l15.72,15Z" transform="translate(694 -2537.35)"/><path class="cls-2" d="M1546,2661.71a49.71,49.71,0,0,1-14.51-2.08,33.84,33.84,0,0,1-10.81-5.08l4.62-8.79a38,38,0,0,0,9.71,4.51,38.63,38.63,0,0,0,11.8,1.85q7.74,0,11.15-2.2a6.9,6.9,0,0,0,3.41-6.13,5.39,5.39,0,0,0-2.08-4.51,14.37,14.37,0,0,0-5.49-2.42c-2.27-.54-4.8-1-7.57-1.45s-5.55-1-8.33-1.62a33.16,33.16,0,0,1-7.63-2.77,14.48,14.48,0,0,1-5.55-5,15.32,15.32,0,0,1-2.08-8.5,15.73,15.73,0,0,1,3.12-9.71,19.71,19.71,0,0,1,8.85-6.42,37,37,0,0,1,13.58-2.25,53.65,53.65,0,0,1,12.2,1.44,30.54,30.54,0,0,1,10.12,4.1l-4.74,8.79a26.19,26.19,0,0,0-8.67-3.81,39.71,39.71,0,0,0-9-1q-7.29,0-10.87,2.37a7.06,7.06,0,0,0-3.59,6.07,5.73,5.73,0,0,0,2.14,4.79,15.56,15.56,0,0,0,5.55,2.61,72,72,0,0,0,7.58,1.56c2.77.42,5.55,1,8.32,1.62a33.63,33.63,0,0,1,7.57,2.71,14.65,14.65,0,0,1,5.55,4.86,14.43,14.43,0,0,1,2.14,8.32,14.9,14.9,0,0,1-3.24,9.6,20.84,20.84,0,0,1-9.13,6.3A39.57,39.57,0,0,1,1546,2661.71Z" transform="translate(694 -2537.35)"/><path class="cls-2" d="M-626.35,2747.8a29.1,29.1,0,0,1,13.24,2.89,20.81,20.81,0,0,1,9,8.79q3.24,5.89,3.24,14.91v35.27H-612v-34q0-8.91-4.34-13.42t-12.2-4.5a21.81,21.81,0,0,0-10.29,2.31,15.79,15.79,0,0,0-6.76,6.82,23.94,23.94,0,0,0-2.37,11.21v31.57h-11.1v-61.28h10.64v16.53l-1.74-4.39a21.28,21.28,0,0,1,9.25-9.36A30.31,30.31,0,0,1-626.35,2747.8Z" transform="translate(694 -2537.35)"/><path class="cls-2" d="M-547.73,2810.35a33,33,0,0,1-16.36-4,29.92,29.92,0,0,1-11.39-11.16,31.38,31.38,0,0,1-4.16-16.13,31,31,0,0,1,4.16-16.13,30.32,30.32,0,0,1,11.33-11,32.8,32.8,0,0,1,16.42-4,33.28,33.28,0,0,1,16.36,4,29.19,29.19,0,0,1,11.33,11,31.58,31.58,0,0,1,4.11,16.19,31.56,31.56,0,0,1-4.11,16.19,29.62,29.62,0,0,1-11.33,11.1A33,33,0,0,1-547.73,2810.35Zm0-9.71a21.07,21.07,0,0,0,10.58-2.66,18.78,18.78,0,0,0,7.34-7.57,23.6,23.6,0,0,0,2.66-11.39,23.19,23.19,0,0,0-2.66-11.39,19,19,0,0,0-7.34-7.46,21.07,21.07,0,0,0-10.58-2.66,20.74,20.74,0,0,0-10.52,2.66,20,20,0,0,0-7.4,7.46,22.38,22.38,0,0,0-2.77,11.39,22.77,22.77,0,0,0,2.77,11.39,19.73,19.73,0,0,0,7.4,7.57A20.74,20.74,0,0,0-547.73,2800.64Z" transform="translate(694 -2537.35)"/><path class="cls-2" d="M-476.62,2810.35a49.71,49.71,0,0,1-14.51-2.08,33.84,33.84,0,0,1-10.81-5.09l4.62-8.78a38.29,38.29,0,0,0,9.71,4.51,38.57,38.57,0,0,0,11.79,1.85q7.76,0,11.16-2.2a6.92,6.92,0,0,0,3.41-6.13,5.39,5.39,0,0,0-2.08-4.51,14.22,14.22,0,0,0-5.49-2.43c-2.27-.53-4.8-1-7.57-1.44s-5.55-1-8.33-1.62a33.16,33.16,0,0,1-7.63-2.77,14.51,14.51,0,0,1-5.55-5,15.29,15.29,0,0,1-2.08-8.49,15.78,15.78,0,0,1,3.12-9.72,19.77,19.77,0,0,1,8.85-6.41,36.82,36.82,0,0,1,13.58-2.26,53.67,53.67,0,0,1,12.2,1.45,30.41,30.41,0,0,1,10.12,4.1l-4.74,8.79a26.38,26.38,0,0,0-8.68-3.82,40.13,40.13,0,0,0-9-1c-4.86,0-8.48.8-10.87,2.37a7.07,7.07,0,0,0-3.59,6.07,5.75,5.75,0,0,0,2.14,4.8,15.39,15.39,0,0,0,5.55,2.6,67.22,67.22,0,0,0,7.58,1.56c2.77.43,5.55,1,8.32,1.62a33.63,33.63,0,0,1,7.57,2.72,14.56,14.56,0,0,1,5.55,4.86,14.43,14.43,0,0,1,2.14,8.32,14.9,14.9,0,0,1-3.24,9.6,20.92,20.92,0,0,1-9.13,6.3A39.57,39.57,0,0,1-476.62,2810.35Z" transform="translate(694 -2537.35)"/><path class="cls-2" d="M-412.34,2810.35a49.71,49.71,0,0,1-14.51-2.08,34,34,0,0,1-10.81-5.09l4.62-8.78a38.29,38.29,0,0,0,9.71,4.51,38.63,38.63,0,0,0,11.8,1.85q7.74,0,11.15-2.2a6.89,6.89,0,0,0,3.41-6.13,5.39,5.39,0,0,0-2.08-4.51,14.15,14.15,0,0,0-5.49-2.43c-2.27-.53-4.8-1-7.57-1.44s-5.55-1-8.33-1.62a33.33,33.33,0,0,1-7.63-2.77,14.51,14.51,0,0,1-5.55-5,15.37,15.37,0,0,1-2.08-8.49,15.78,15.78,0,0,1,3.12-9.72,19.82,19.82,0,0,1,8.85-6.41,36.82,36.82,0,0,1,13.58-2.26,53.67,53.67,0,0,1,12.2,1.45,30.33,30.33,0,0,1,10.12,4.1l-4.74,8.79a26.42,26.42,0,0,0-8.67-3.82,40.28,40.28,0,0,0-9-1c-4.86,0-8.48.8-10.87,2.37a7.06,7.06,0,0,0-3.58,6.07,5.72,5.72,0,0,0,2.14,4.8,15.23,15.23,0,0,0,5.55,2.6,66.56,66.56,0,0,0,7.57,1.56c2.77.43,5.55,1,8.32,1.62a33.9,33.9,0,0,1,7.58,2.72,14.71,14.71,0,0,1,5.55,4.86,14.51,14.51,0,0,1,2.13,8.32,15,15,0,0,1-3.23,9.6,21,21,0,0,1-9.14,6.3A39.57,39.57,0,0,1-412.34,2810.35Z" transform="translate(694 -2537.35)"/><path class="cls-2" d="M-347.71,2810.35a29,29,0,0,1-12-2.31,18.32,18.32,0,0,1-7.92-6.42,16.21,16.21,0,0,1-2.77-9.3,17.51,17.51,0,0,1,2.37-9,16.37,16.37,0,0,1,7.74-6.48q5.38-2.43,14.51-2.43h19.43v8h-19q-8.31,0-11.21,2.78a8.93,8.93,0,0,0-2.89,6.7,8.61,8.61,0,0,0,3.58,7.23q3.58,2.72,9.95,2.72a21,21,0,0,0,10.92-2.78,15.83,15.83,0,0,0,6.77-8.09l2.19,7.63a17.23,17.23,0,0,1-7.74,8.61Q-339.27,2810.35-347.71,2810.35Zm20.11-.69v-12.95l-.57-2.43V2772.2q0-7-4.11-10.93t-12.31-3.87a32.56,32.56,0,0,0-10.64,1.79A27.59,27.59,0,0,0-364,2764l-4.62-8.32a33.42,33.42,0,0,1,11.39-5.84,47.51,47.51,0,0,1,13.93-2q12.6,0,19.42,6.13t6.83,18.73v37Z" transform="translate(694 -2537.35)"/><path class="cls-2" d="M-272.56,2810.35a49.71,49.71,0,0,1-14.51-2.08,34,34,0,0,1-10.81-5.09l4.62-8.78a38.29,38.29,0,0,0,9.71,4.51,38.63,38.63,0,0,0,11.8,1.85q7.74,0,11.15-2.2a6.89,6.89,0,0,0,3.41-6.13,5.39,5.39,0,0,0-2.08-4.51,14.15,14.15,0,0,0-5.49-2.43c-2.27-.53-4.8-1-7.57-1.44s-5.55-1-8.33-1.62a33.33,33.33,0,0,1-7.63-2.77,14.51,14.51,0,0,1-5.55-5,15.37,15.37,0,0,1-2.08-8.49,15.78,15.78,0,0,1,3.12-9.72,19.82,19.82,0,0,1,8.85-6.41,36.82,36.82,0,0,1,13.58-2.26,53.67,53.67,0,0,1,12.2,1.45,30.33,30.33,0,0,1,10.12,4.1l-4.74,8.79a26.42,26.42,0,0,0-8.67-3.82,40.28,40.28,0,0,0-9-1c-4.86,0-8.48.8-10.87,2.37a7.06,7.06,0,0,0-3.58,6.07,5.74,5.74,0,0,0,2.13,4.8,15.39,15.39,0,0,0,5.55,2.6,67.22,67.22,0,0,0,7.58,1.56c2.77.43,5.55,1,8.32,1.62a33.63,33.63,0,0,1,7.57,2.72,14.56,14.56,0,0,1,5.55,4.86,14.43,14.43,0,0,1,2.14,8.32,15,15,0,0,1-3.23,9.6,21,21,0,0,1-9.14,6.3A39.57,39.57,0,0,1-272.56,2810.35Z" transform="translate(694 -2537.35)"/><path class="cls-2" d="M-182.85,2736.59a7.42,7.42,0,0,1-5.37-2.08,6.83,6.83,0,0,1-2.14-5.09,6.93,6.93,0,0,1,2.14-5.2,7.38,7.38,0,0,1,5.37-2.08,7.52,7.52,0,0,1,5.38,2,6.62,6.62,0,0,1,2.14,5,7.25,7.25,0,0,1-2.08,5.26A7.24,7.24,0,0,1-182.85,2736.59Zm-5.54,73.07v-61.28h11.09v61.28Z" transform="translate(694 -2537.35)"/><path class="cls-2" d="M-124.46,2810.35a31.91,31.91,0,0,1-15.9-3.93,28.82,28.82,0,0,1-11-11,32.4,32.4,0,0,1-4-16.42,32.07,32.07,0,0,1,4-16.36,29,29,0,0,1,11-10.93,31.91,31.91,0,0,1,15.9-3.93,28.35,28.35,0,0,1,14,3.47,25.28,25.28,0,0,1,10,10.41q3.77,6.93,3.76,17.34t-3.64,17.34a25,25,0,0,1-9.89,10.47A28.4,28.4,0,0,1-124.46,2810.35Zm.93-9.71a20.84,20.84,0,0,0,10.46-2.66,19.19,19.19,0,0,0,7.4-7.57,23.18,23.18,0,0,0,2.72-11.39,22.77,22.77,0,0,0-2.72-11.39,19.43,19.43,0,0,0-7.4-7.46,20.84,20.84,0,0,0-10.46-2.66,20.78,20.78,0,0,0-10.53,2.66,19.9,19.9,0,0,0-7.39,7.46,22.38,22.38,0,0,0-2.78,11.39,22.77,22.77,0,0,0,2.78,11.39,19.64,19.64,0,0,0,7.39,7.57A20.78,20.78,0,0,0-123.53,2800.64Zm20.92,9v-16.53l.7-14.23-1.16-14.22v-40.81H-92v85.79Z" transform="translate(694 -2537.35)"/><path class="cls-2" d="M-37.28,2810.35a35.76,35.76,0,0,1-17.29-4,29.15,29.15,0,0,1-11.56-11.1A31.56,31.56,0,0,1-70.24,2779a32.33,32.33,0,0,1,4-16.19,28.78,28.78,0,0,1,11-11,31.26,31.26,0,0,1,15.78-4,30.93,30.93,0,0,1,15.72,3.93,28,28,0,0,1,10.7,11.05,34.17,34.17,0,0,1,3.87,16.59q0,.69-.06,1.62c0,.61-.09,1.19-.17,1.73H-61.56v-8H-15.2l-4.51,2.78A20.52,20.52,0,0,0-22.14,2767a18.56,18.56,0,0,0-7-7.23,20.19,20.19,0,0,0-10.35-2.6,20.23,20.23,0,0,0-10.29,2.6,18.23,18.23,0,0,0-7,7.28,22,22,0,0,0-2.55,10.7v1.85a21,21,0,0,0,2.84,10.92,19.37,19.37,0,0,0,7.91,7.46,24.92,24.92,0,0,0,11.68,2.66,25.63,25.63,0,0,0,9.89-1.85,21.58,21.58,0,0,0,7.8-5.55l6.13,7.17a26.93,26.93,0,0,1-10.35,7.4A36.1,36.1,0,0,1-37.28,2810.35Z" transform="translate(694 -2537.35)"/><path class="cls-2" d="M18.1,2736.59a7.44,7.44,0,0,1-5.38-2.08,6.83,6.83,0,0,1-2.14-5.09,6.93,6.93,0,0,1,2.14-5.2,7.4,7.4,0,0,1,5.38-2.08,7.5,7.5,0,0,1,5.37,2,6.62,6.62,0,0,1,2.14,5,7.22,7.22,0,0,1-7.51,7.4Zm-5.55,73.07v-61.28h11.1v61.28Z" transform="translate(694 -2537.35)"/><path class="cls-2" d="M69.08,2810.35a28.9,28.9,0,0,1-12-2.31,18.32,18.32,0,0,1-7.92-6.42,16.22,16.22,0,0,1-2.78-9.3,17.51,17.51,0,0,1,2.37-9,16.4,16.4,0,0,1,7.75-6.48q5.37-2.43,14.51-2.43H90.47v8h-19q-8.33,0-11.21,2.78a8.93,8.93,0,0,0-2.89,6.7,8.61,8.61,0,0,0,3.58,7.23q3.59,2.72,9.94,2.72A21,21,0,0,0,81.86,2799a15.81,15.81,0,0,0,6.76-8.09l2.2,7.63a17.3,17.3,0,0,1-7.75,8.61Q77.52,2810.35,69.08,2810.35Zm20.12-.69v-12.95l-.58-2.43V2772.2q0-7-4.1-10.93T72.2,2757.4a32.55,32.55,0,0,0-10.63,1.79,27.59,27.59,0,0,0-8.79,4.8l-4.62-8.32a33.37,33.37,0,0,1,11.38-5.84,47.62,47.62,0,0,1,13.94-2q12.6,0,19.42,6.13t6.82,18.73v37Z" transform="translate(694 -2537.35)"/><path class="cls-2" d="M144.23,2810.35a49.81,49.81,0,0,1-14.51-2.08,34.05,34.05,0,0,1-10.81-5.09l4.63-8.78a38.13,38.13,0,0,0,9.71,4.51,38.52,38.52,0,0,0,11.79,1.85c5.17,0,8.88-.74,11.16-2.2a6.92,6.92,0,0,0,3.41-6.13,5.39,5.39,0,0,0-2.08-4.51,14.22,14.22,0,0,0-5.49-2.43c-2.28-.53-4.8-1-7.58-1.44s-5.55-1-8.32-1.62a33,33,0,0,1-7.63-2.77,14.51,14.51,0,0,1-5.55-5,15.29,15.29,0,0,1-2.08-8.49,15.78,15.78,0,0,1,3.12-9.72,19.79,19.79,0,0,1,8.84-6.41,36.91,36.91,0,0,1,13.59-2.26,53.74,53.74,0,0,1,12.2,1.45,30.27,30.27,0,0,1,10.11,4.1l-4.74,8.79a26.24,26.24,0,0,0-8.67-3.82,40.15,40.15,0,0,0-9-1c-4.85,0-8.48.8-10.86,2.37a7.07,7.07,0,0,0-3.59,6.07,5.72,5.72,0,0,0,2.14,4.8,15.39,15.39,0,0,0,5.55,2.6,67,67,0,0,0,7.57,1.56c2.78.43,5.55,1,8.33,1.62A33.81,33.81,0,0,1,163,2779a14.71,14.71,0,0,1,5.55,4.86,14.43,14.43,0,0,1,2.14,8.32,14.9,14.9,0,0,1-3.24,9.6,21,21,0,0,1-9.13,6.3A39.62,39.62,0,0,1,144.23,2810.35Z" transform="translate(694 -2537.35)"/><path class="cls-2" d="M255.69,2810.35a35.76,35.76,0,0,1-17.29-4,29.22,29.22,0,0,1-11.56-11.1,31.55,31.55,0,0,1-4.1-16.19,32.43,32.43,0,0,1,4-16.19,28.78,28.78,0,0,1,11-11,31.26,31.26,0,0,1,15.78-4,30.91,30.91,0,0,1,15.72,3.93,27.89,27.89,0,0,1,10.7,11.05,34.17,34.17,0,0,1,3.87,16.59q0,.69-.06,1.62c0,.61-.09,1.19-.17,1.73H231.41v-8h46.36l-4.51,2.78a20.52,20.52,0,0,0-2.43-10.52,18.49,18.49,0,0,0-7-7.23,21.78,21.78,0,0,0-20.64,0,18.23,18.23,0,0,0-7,7.28,22,22,0,0,0-2.55,10.7v1.85a21,21,0,0,0,2.84,10.92,19.33,19.33,0,0,0,7.92,7.46,24.85,24.85,0,0,0,11.67,2.66,25.59,25.59,0,0,0,9.89-1.85,21.49,21.49,0,0,0,7.8-5.55l6.13,7.17a26.78,26.78,0,0,1-10.35,7.4A36.1,36.1,0,0,1,255.69,2810.35Z" transform="translate(694 -2537.35)"/><path class="cls-2" d="M360.9,2810.35a29,29,0,0,1-12-2.31,18.32,18.32,0,0,1-7.92-6.42,16.21,16.21,0,0,1-2.77-9.3,17.51,17.51,0,0,1,2.37-9,16.42,16.42,0,0,1,7.74-6.48q5.38-2.43,14.51-2.43h19.43v8h-19q-8.32,0-11.22,2.78a8.93,8.93,0,0,0-2.89,6.7,8.62,8.62,0,0,0,3.59,7.23q3.57,2.72,9.94,2.72a21,21,0,0,0,10.92-2.78,15.79,15.79,0,0,0,6.77-8.09l2.19,7.63a17.23,17.23,0,0,1-7.74,8.61Q369.34,2810.35,360.9,2810.35Zm20.12-.69v-12.95l-.58-2.43V2772.2q0-7-4.11-10.93T364,2757.4a32.6,32.6,0,0,0-10.64,1.79,27.43,27.43,0,0,0-8.78,4.8l-4.63-8.32a33.42,33.42,0,0,1,11.39-5.84,47.56,47.56,0,0,1,13.93-2q12.6,0,19.43,6.13t6.82,18.73v37Z" transform="translate(694 -2537.35)"/><path class="cls-2" d="M436.05,2810.35a49.71,49.71,0,0,1-14.51-2.08,34,34,0,0,1-10.81-5.09l4.62-8.78a40.68,40.68,0,0,0,21.51,6.36q7.74,0,11.16-2.2a6.92,6.92,0,0,0,3.41-6.13,5.4,5.4,0,0,0-2.09-4.51,14.09,14.09,0,0,0-5.49-2.43c-2.27-.53-4.8-1-7.57-1.44s-5.55-1-8.32-1.62a33.24,33.24,0,0,1-7.64-2.77,14.51,14.51,0,0,1-5.55-5,15.37,15.37,0,0,1-2.08-8.49,15.72,15.72,0,0,1,3.13-9.72,19.74,19.74,0,0,1,8.84-6.41,36.87,36.87,0,0,1,13.59-2.26,53.66,53.66,0,0,1,12.19,1.45,30.24,30.24,0,0,1,10.12,4.1l-4.74,8.79a26.42,26.42,0,0,0-8.67-3.82,40.22,40.22,0,0,0-9-1c-4.86,0-8.48.8-10.87,2.37a7.06,7.06,0,0,0-3.58,6.07,5.72,5.72,0,0,0,2.14,4.8,15.23,15.23,0,0,0,5.55,2.6,66.56,66.56,0,0,0,7.57,1.56c2.77.43,5.55,1,8.32,1.62a33.9,33.9,0,0,1,7.58,2.72,14.71,14.71,0,0,1,5.55,4.86,14.51,14.51,0,0,1,2.13,8.32,15,15,0,0,1-3.23,9.6,21,21,0,0,1-9.14,6.3A39.57,39.57,0,0,1,436.05,2810.35Z" transform="translate(694 -2537.35)"/><path class="cls-2" d="M552.94,2747.8a29,29,0,0,1,13.23,2.89,20.7,20.7,0,0,1,9,8.79q3.24,5.89,3.24,14.91v35.27h-11.1v-34q0-8.91-4.33-13.42t-12.2-4.5a21.81,21.81,0,0,0-10.29,2.31,15.74,15.74,0,0,0-6.76,6.82,23.94,23.94,0,0,0-2.37,11.21v31.57h-11.1v-61.28h10.63v16.53l-1.73-4.39a21.23,21.23,0,0,1,9.25-9.36A30.28,30.28,0,0,1,552.94,2747.8Z" transform="translate(694 -2537.35)"/><path class="cls-2" d="M631.56,2810.35a33,33,0,0,1-16.36-4,29.85,29.85,0,0,1-11.39-11.16,31.29,31.29,0,0,1-4.16-16.13,30.9,30.9,0,0,1,4.16-16.13,30.25,30.25,0,0,1,11.33-11,32.8,32.8,0,0,1,16.42-4,33.31,33.31,0,0,1,16.36,4,29.25,29.25,0,0,1,11.33,11,34,34,0,0,1,0,32.38,29.68,29.68,0,0,1-11.33,11.1A33,33,0,0,1,631.56,2810.35Zm0-9.71a21.1,21.1,0,0,0,10.58-2.66,18.85,18.85,0,0,0,7.34-7.57,23.6,23.6,0,0,0,2.66-11.39,23.19,23.19,0,0,0-2.66-11.39,19.08,19.08,0,0,0-7.34-7.46,21.1,21.1,0,0,0-10.58-2.66,20.74,20.74,0,0,0-10.52,2.66,19.92,19.92,0,0,0-7.4,7.46,22.38,22.38,0,0,0-2.78,11.39,22.77,22.77,0,0,0,2.78,11.39A19.66,19.66,0,0,0,621,2798,20.74,20.74,0,0,0,631.56,2800.64Z" transform="translate(694 -2537.35)"/><path class="cls-2" d="M702.66,2810.35a49.76,49.76,0,0,1-14.51-2.08,34,34,0,0,1-10.81-5.09l4.62-8.78a40.76,40.76,0,0,0,21.51,6.36q7.74,0,11.16-2.2a6.92,6.92,0,0,0,3.41-6.13,5.42,5.42,0,0,0-2.08-4.51,14.2,14.2,0,0,0-5.5-2.43c-2.27-.53-4.79-1-7.57-1.44s-5.55-1-8.32-1.62a33,33,0,0,1-7.63-2.77,14.37,14.37,0,0,1-5.55-5,15.29,15.29,0,0,1-2.08-8.49,15.78,15.78,0,0,1,3.12-9.72,19.79,19.79,0,0,1,8.84-6.41,36.87,36.87,0,0,1,13.59-2.26,53.66,53.66,0,0,1,12.19,1.45,30.24,30.24,0,0,1,10.12,4.1l-4.74,8.79a26.24,26.24,0,0,0-8.67-3.82,40.22,40.22,0,0,0-9-1c-4.85,0-8.48.8-10.87,2.37a7.06,7.06,0,0,0-3.58,6.07,5.72,5.72,0,0,0,2.14,4.8,15.23,15.23,0,0,0,5.55,2.6,67,67,0,0,0,7.57,1.56c2.78.43,5.55,1,8.33,1.62a34,34,0,0,1,7.57,2.72,14.71,14.71,0,0,1,5.55,4.86,14.51,14.51,0,0,1,2.14,8.32,14.9,14.9,0,0,1-3.24,9.6,21,21,0,0,1-9.13,6.3A39.62,39.62,0,0,1,702.66,2810.35Z" transform="translate(694 -2537.35)"/><path class="cls-2" d="M766.94,2810.35a49.81,49.81,0,0,1-14.51-2.08,34.05,34.05,0,0,1-10.81-5.09l4.63-8.78a38.13,38.13,0,0,0,9.71,4.51,38.52,38.52,0,0,0,11.79,1.85c5.17,0,8.88-.74,11.16-2.2a6.92,6.92,0,0,0,3.41-6.13,5.39,5.39,0,0,0-2.08-4.51,14.22,14.22,0,0,0-5.49-2.43c-2.28-.53-4.8-1-7.58-1.44s-5.55-1-8.32-1.62a33,33,0,0,1-7.63-2.77,14.51,14.51,0,0,1-5.55-5,15.29,15.29,0,0,1-2.08-8.49,15.78,15.78,0,0,1,3.12-9.72,19.79,19.79,0,0,1,8.84-6.41,36.91,36.91,0,0,1,13.59-2.26,53.74,53.74,0,0,1,12.2,1.45,30.27,30.27,0,0,1,10.11,4.1l-4.74,8.79a26.24,26.24,0,0,0-8.67-3.82,40.15,40.15,0,0,0-9-1c-4.85,0-8.48.8-10.86,2.37a7.07,7.07,0,0,0-3.59,6.07,5.72,5.72,0,0,0,2.14,4.8,15.39,15.39,0,0,0,5.55,2.6,67,67,0,0,0,7.57,1.56c2.78.43,5.55,1,8.33,1.62a33.81,33.81,0,0,1,7.57,2.72,14.71,14.71,0,0,1,5.55,4.86,14.43,14.43,0,0,1,2.14,8.32,14.9,14.9,0,0,1-3.24,9.6,21,21,0,0,1-9.13,6.3A39.62,39.62,0,0,1,766.94,2810.35Z" transform="translate(694 -2537.35)"/><path class="cls-2" d="M831.57,2810.35a28.9,28.9,0,0,1-12-2.31,18.32,18.32,0,0,1-7.92-6.42,16.22,16.22,0,0,1-2.78-9.3,17.51,17.51,0,0,1,2.37-9,16.4,16.4,0,0,1,7.75-6.48q5.37-2.43,14.51-2.43H853v8H834q-8.32,0-11.21,2.78a8.93,8.93,0,0,0-2.89,6.7,8.61,8.61,0,0,0,3.58,7.23q3.59,2.72,9.94,2.72a21,21,0,0,0,10.93-2.78,15.81,15.81,0,0,0,6.76-8.09l2.2,7.63a17.3,17.3,0,0,1-7.75,8.61Q840,2810.35,831.57,2810.35Zm20.12-.69v-12.95l-.58-2.43V2772.2q0-7-4.1-10.93t-12.32-3.87a32.55,32.55,0,0,0-10.63,1.79,27.59,27.59,0,0,0-8.79,4.8l-4.62-8.32a33.37,33.37,0,0,1,11.38-5.84,47.62,47.62,0,0,1,13.94-2q12.6,0,19.42,6.13t6.82,18.73v37Z" transform="translate(694 -2537.35)"/><path class="cls-2" d="M906.72,2810.35a49.81,49.81,0,0,1-14.51-2.08,34.05,34.05,0,0,1-10.81-5.09l4.63-8.78a38.13,38.13,0,0,0,9.71,4.51,38.52,38.52,0,0,0,11.79,1.85q7.74,0,11.16-2.2a6.92,6.92,0,0,0,3.41-6.13,5.39,5.39,0,0,0-2.08-4.51,14.22,14.22,0,0,0-5.49-2.43c-2.28-.53-4.8-1-7.58-1.44s-5.55-1-8.32-1.62a33,33,0,0,1-7.63-2.77,14.51,14.51,0,0,1-5.55-5,15.29,15.29,0,0,1-2.08-8.49,15.78,15.78,0,0,1,3.12-9.72,19.79,19.79,0,0,1,8.84-6.41,36.91,36.91,0,0,1,13.59-2.26,53.74,53.74,0,0,1,12.2,1.45,30.27,30.27,0,0,1,10.11,4.1l-4.74,8.79a26.24,26.24,0,0,0-8.67-3.82,40.15,40.15,0,0,0-9-1c-4.85,0-8.48.8-10.86,2.37a7.07,7.07,0,0,0-3.59,6.07,5.72,5.72,0,0,0,2.14,4.8,15.39,15.39,0,0,0,5.55,2.6,67,67,0,0,0,7.57,1.56c2.78.43,5.55,1,8.33,1.62a33.81,33.81,0,0,1,7.57,2.72,14.71,14.71,0,0,1,5.55,4.86,14.43,14.43,0,0,1,2.14,8.32,14.9,14.9,0,0,1-3.24,9.6,21,21,0,0,1-9.13,6.3A39.62,39.62,0,0,1,906.72,2810.35Z" transform="translate(694 -2537.35)"/><path class="cls-2" d="M1007,2809.66l-26.82-61.28H991.7l23.82,55.5H1010l24.28-55.5h10.86l-26.82,61.28Z" transform="translate(694 -2537.35)"/><path class="cls-2" d="M1086.39,2810.35a33,33,0,0,1-16.36-4,29.92,29.92,0,0,1-11.39-11.16,31.38,31.38,0,0,1-4.16-16.13,31,31,0,0,1,4.16-16.13,30.32,30.32,0,0,1,11.33-11,32.8,32.8,0,0,1,16.42-4,33.28,33.28,0,0,1,16.36,4,29.19,29.19,0,0,1,11.33,11,34,34,0,0,1,0,32.38,29.62,29.62,0,0,1-11.33,11.1A33,33,0,0,1,1086.39,2810.35Zm0-9.71A21.07,21.07,0,0,0,1097,2798a18.78,18.78,0,0,0,7.34-7.57A23.6,23.6,0,0,0,1107,2779a23.19,23.19,0,0,0-2.66-11.39,19,19,0,0,0-7.34-7.46,21.07,21.07,0,0,0-10.58-2.66,20.74,20.74,0,0,0-10.52,2.66,19.92,19.92,0,0,0-7.4,7.46,22.38,22.38,0,0,0-2.78,11.39,22.77,22.77,0,0,0,2.78,11.39,19.66,19.66,0,0,0,7.4,7.57A20.74,20.74,0,0,0,1086.39,2800.64Z" transform="translate(694 -2537.35)"/><path class="cls-2" d="M1172.64,2747.8a29.1,29.1,0,0,1,13.24,2.89,20.81,20.81,0,0,1,9,8.79q3.23,5.89,3.23,14.91v35.27H1187v-34q0-8.91-4.34-13.42t-12.2-4.5a21.81,21.81,0,0,0-10.29,2.31,15.79,15.79,0,0,0-6.76,6.82,23.94,23.94,0,0,0-2.37,11.21v31.57h-11.1v-61.28h10.64v16.53l-1.74-4.39a21.28,21.28,0,0,1,9.25-9.36A30.28,30.28,0,0,1,1172.64,2747.8Z" transform="translate(694 -2537.35)"/><path class="cls-2" d="M1216.23,2757.51v-9.13h39.08v9.13Zm29.83,52.84q-9.25,0-14.34-5t-5.09-14.22V2735h11.1v55.73c0,3.31.83,5.86,2.49,7.63s4,2.66,7.11,2.66a13.11,13.11,0,0,0,8.67-2.89l3.47,8a16.05,16.05,0,0,1-6.07,3.24A25.94,25.94,0,0,1,1246.06,2810.35Z" transform="translate(694 -2537.35)"/><path class="cls-2" d="M1297.16,2810.35a29,29,0,0,1-12-2.31,18.32,18.32,0,0,1-7.92-6.42,16.21,16.21,0,0,1-2.77-9.3,17.51,17.51,0,0,1,2.37-9,16.42,16.42,0,0,1,7.74-6.48q5.39-2.43,14.51-2.43h19.43v8h-19q-8.33,0-11.22,2.78a8.93,8.93,0,0,0-2.89,6.7,8.61,8.61,0,0,0,3.58,7.23q3.59,2.72,10,2.72a21,21,0,0,0,10.92-2.78,15.79,15.79,0,0,0,6.77-8.09l2.19,7.63a17.23,17.23,0,0,1-7.74,8.61Q1305.6,2810.35,1297.16,2810.35Zm20.11-.69v-12.95l-.57-2.43V2772.2q0-7-4.11-10.93t-12.31-3.87a32.6,32.6,0,0,0-10.64,1.79,27.43,27.43,0,0,0-8.78,4.8l-4.63-8.32a33.42,33.42,0,0,1,11.39-5.84,47.56,47.56,0,0,1,13.93-2q12.6,0,19.43,6.13t6.82,18.73v37Z" transform="translate(694 -2537.35)"/><path class="cls-2" d="M1380.05,2810.35a31.87,31.87,0,0,1-15.89-3.93,28.69,28.69,0,0,1-11-11,32.4,32.4,0,0,1-4-16.42,32.07,32.07,0,0,1,4-16.36,28.9,28.9,0,0,1,11-10.93,31.87,31.87,0,0,1,15.89-3.93,28.32,28.32,0,0,1,14,3.47,25.3,25.3,0,0,1,10,10.41q3.75,6.93,3.75,17.34t-3.64,17.34a25,25,0,0,1-9.88,10.47A28.47,28.47,0,0,1,1380.05,2810.35Zm.93-9.71a20.84,20.84,0,0,0,10.46-2.66,19.19,19.19,0,0,0,7.4-7.57,23.18,23.18,0,0,0,2.72-11.39,22.77,22.77,0,0,0-2.72-11.39,19.43,19.43,0,0,0-7.4-7.46,22,22,0,0,0-21,0,19.92,19.92,0,0,0-7.4,7.46,22.38,22.38,0,0,0-2.78,11.39,22.77,22.77,0,0,0,2.78,11.39,19.66,19.66,0,0,0,7.4,7.57A20.74,20.74,0,0,0,1381,2800.64Zm20.93,9v-16.53l.69-14.23-1.16-14.22v-40.81h11.1v85.79Z" transform="translate(694 -2537.35)"/><path class="cls-2" d="M1467.23,2810.35a35.81,35.81,0,0,1-17.29-4,29.22,29.22,0,0,1-11.56-11.1,31.65,31.65,0,0,1-4.1-16.19,32.33,32.33,0,0,1,4-16.19,28.83,28.83,0,0,1,11-11,31.26,31.26,0,0,1,15.78-4,31,31,0,0,1,15.73,3.93,27.94,27.94,0,0,1,10.69,11.05,34.17,34.17,0,0,1,3.87,16.59c0,.46,0,1,0,1.62s-.1,1.19-.18,1.73H1443v-8h46.36l-4.51,2.78a20.52,20.52,0,0,0-2.43-10.52,18.42,18.42,0,0,0-7-7.23,21.78,21.78,0,0,0-20.64,0,18.3,18.3,0,0,0-7,7.28,22,22,0,0,0-2.54,10.7v1.85a21,21,0,0,0,2.83,10.92,19.45,19.45,0,0,0,7.92,7.46,24.86,24.86,0,0,0,11.68,2.66,25.57,25.57,0,0,0,9.88-1.85,21.61,21.61,0,0,0,7.81-5.55l6.12,7.17a26.82,26.82,0,0,1-10.34,7.4A36.16,36.16,0,0,1,1467.23,2810.35Z" transform="translate(694 -2537.35)"/><path class="cls-2" d="M1534.63,2810.35a49.81,49.81,0,0,1-14.51-2.08,34.05,34.05,0,0,1-10.81-5.09l4.63-8.78a40.68,40.68,0,0,0,21.5,6.36q7.75,0,11.16-2.2a6.92,6.92,0,0,0,3.41-6.13,5.39,5.39,0,0,0-2.08-4.51,14.22,14.22,0,0,0-5.49-2.43c-2.28-.53-4.8-1-7.58-1.44s-5.54-1-8.32-1.62a33.16,33.16,0,0,1-7.63-2.77,14.51,14.51,0,0,1-5.55-5,15.29,15.29,0,0,1-2.08-8.49,15.78,15.78,0,0,1,3.12-9.72,19.77,19.77,0,0,1,8.85-6.41,36.82,36.82,0,0,1,13.58-2.26,53.74,53.74,0,0,1,12.2,1.45,30.27,30.27,0,0,1,10.11,4.1l-4.74,8.79a26.24,26.24,0,0,0-8.67-3.82,40.15,40.15,0,0,0-9-1c-4.85,0-8.48.8-10.86,2.37a7.07,7.07,0,0,0-3.59,6.07,5.72,5.72,0,0,0,2.14,4.8,15.39,15.39,0,0,0,5.55,2.6,67,67,0,0,0,7.57,1.56c2.78.43,5.55,1,8.33,1.62a33.81,33.81,0,0,1,7.57,2.72,14.71,14.71,0,0,1,5.55,4.86,14.43,14.43,0,0,1,2.14,8.32,14.9,14.9,0,0,1-3.24,9.6,21,21,0,0,1-9.13,6.3A39.59,39.59,0,0,1,1534.63,2810.35Z" transform="translate(694 -2537.35)"/><path class="cls-2" d="M1577,2826.77l5.78-23.35,1.5,6.7a7.93,7.93,0,0,1-5.6-2.08,7.32,7.32,0,0,1-2.26-5.67,7.62,7.62,0,0,1,7.75-7.86,7,7,0,0,1,5.43,2.26,7.93,7.93,0,0,1,2.08,5.6,15.11,15.11,0,0,1-.17,2.26,23.7,23.7,0,0,1-.58,2.54c-.27,1-.68,2.14-1.21,3.53l-5.44,16.07Z" transform="translate(694 -2537.35)"/><path class="cls-2" d="M-659.07,2980.73V2897h10.64v16.53l-.7,14.22L-648,2942v38.74Zm32.49-21.74a27.93,27.93,0,0,1-13.93-3.53A25.53,25.53,0,0,1-650.57,2945q-3.76-6.93-3.76-17.34t3.64-17.35a24.54,24.54,0,0,1,10-10.4,28.89,28.89,0,0,1,14.16-3.47,31.84,31.84,0,0,1,16,3.93,29,29,0,0,1,11,10.93,32,32,0,0,1,4,16.36,32.43,32.43,0,0,1-4,16.42,29,29,0,0,1-11,11A31.84,31.84,0,0,1-626.58,2959Zm-.92-9.71a21,21,0,0,0,10.57-2.66,19.12,19.12,0,0,0,7.4-7.57,23.2,23.2,0,0,0,2.72-11.39,22.75,22.75,0,0,0-2.72-11.39,19.36,19.36,0,0,0-7.4-7.46,21,21,0,0,0-10.57-2.66,20.85,20.85,0,0,0-10.47,2.66,19.43,19.43,0,0,0-7.4,7.46,22.75,22.75,0,0,0-2.71,11.39,23.2,23.2,0,0,0,2.71,11.39,19.19,19.19,0,0,0,7.4,7.57A20.85,20.85,0,0,0-627.5,2949.28Z" transform="translate(694 -2537.35)"/><path class="cls-2" d="M-547.61,2959a32.86,32.86,0,0,1-16.36-4,29.76,29.76,0,0,1-11.39-11.15,31.29,31.29,0,0,1-4.16-16.13,30.88,30.88,0,0,1,4.16-16.13,30.25,30.25,0,0,1,11.33-11,32.8,32.8,0,0,1,16.42-4,33.31,33.31,0,0,1,16.36,4,29.25,29.25,0,0,1,11.33,11,31.65,31.65,0,0,1,4.1,16.19,31.61,31.61,0,0,1-4.1,16.18,29.54,29.54,0,0,1-11.33,11.1A32.91,32.91,0,0,1-547.61,2959Zm0-9.71a21,21,0,0,0,10.57-2.66,18.81,18.81,0,0,0,7.35-7.57,23.63,23.63,0,0,0,2.66-11.39,23.16,23.16,0,0,0-2.66-11.39,19,19,0,0,0-7.35-7.46,21,21,0,0,0-10.57-2.66,20.78,20.78,0,0,0-10.53,2.66,20,20,0,0,0-7.39,7.46,22.35,22.35,0,0,0-2.78,11.39,22.8,22.8,0,0,0,2.78,11.39,19.71,19.71,0,0,0,7.39,7.57A20.78,20.78,0,0,0-547.61,2949.28Z" transform="translate(694 -2537.35)"/><path class="cls-2" d="M-494.08,2958.3V2897h10.63v16.65l-1-4.17a18.89,18.89,0,0,1,8.56-9.71q6-3.35,14.8-3.35v10.75a9,9,0,0,0-1.33-.11h-1.22q-8.9,0-14.1,5.32t-5.2,15.37v30.53Z" transform="translate(694 -2537.35)"/><path class="cls-2" d="M-416.39,2959a31.91,31.91,0,0,1-15.9-3.93,28.82,28.82,0,0,1-11-11,32.42,32.42,0,0,1-4-16.42,32,32,0,0,1,4-16.36,28.9,28.9,0,0,1,11-10.93,31.91,31.91,0,0,1,15.9-3.93,28.8,28.8,0,0,1,14.22,3.47,24.65,24.65,0,0,1,9.89,10.4q3.63,6.95,3.64,17.35T-392.4,2945a25.65,25.65,0,0,1-10,10.46A27.86,27.86,0,0,1-416.39,2959Zm.93-9.71a20.84,20.84,0,0,0,10.46-2.66,19.19,19.19,0,0,0,7.4-7.57,23.2,23.2,0,0,0,2.72-11.39,22.75,22.75,0,0,0-2.72-11.39,19.43,19.43,0,0,0-7.4-7.46,20.84,20.84,0,0,0-10.46-2.66,20.78,20.78,0,0,0-10.53,2.66,20,20,0,0,0-7.4,7.46,22.35,22.35,0,0,0-2.77,11.39,22.8,22.8,0,0,0,2.77,11.39,19.73,19.73,0,0,0,7.4,7.57A20.78,20.78,0,0,0-415.46,2949.28Zm20.46,31.45V2942l1.16-14.22-.7-14.22V2897h10.64v83.71Z" transform="translate(694 -2537.35)"/><path class="cls-2" d="M-330.72,2959a31.19,31.19,0,0,1-13.81-2.89,20.6,20.6,0,0,1-9.25-8.85q-3.3-5.94-3.3-15V2897H-346v34q0,9,4.34,13.53t12.19,4.51a20.41,20.41,0,0,0,10.06-2.37,15.93,15.93,0,0,0,6.59-6.94,24.21,24.21,0,0,0,2.31-11V2897h11.1v61.28h-10.52v-16.54l1.74,4.4a21.51,21.51,0,0,1-9,9.48A27.36,27.36,0,0,1-330.72,2959Z" transform="translate(694 -2537.35)"/><path class="cls-2" d="M-244.58,2959a35.65,35.65,0,0,1-17.29-4,29,29,0,0,1-11.56-11.1,31.52,31.52,0,0,1-4.11-16.18,32.31,32.31,0,0,1,4-16.19,28.78,28.78,0,0,1,11-11,31.26,31.26,0,0,1,15.78-4,30.93,30.93,0,0,1,15.72,3.93,27.87,27.87,0,0,1,10.7,11,34.17,34.17,0,0,1,3.87,16.59q0,.7-.06,1.62c0,.62-.09,1.2-.17,1.74h-52.14v-8h46.36l-4.51,2.77a20.55,20.55,0,0,0-2.43-10.52,18.53,18.53,0,0,0-7-7.22,20.09,20.09,0,0,0-10.35-2.6,20.13,20.13,0,0,0-10.29,2.6,18.23,18.23,0,0,0-7.05,7.28,22,22,0,0,0-2.55,10.7v1.85a21.07,21.07,0,0,0,2.84,10.92,19.33,19.33,0,0,0,7.92,7.46,24.85,24.85,0,0,0,11.67,2.66,25.63,25.63,0,0,0,9.89-1.85,21.58,21.58,0,0,0,7.8-5.55l6.13,7.17a27,27,0,0,1-10.35,7.4A36.1,36.1,0,0,1-244.58,2959Z" transform="translate(694 -2537.35)"/><path class="cls-2" d="M-132.52,2958.3l-35.41-80.49h12.42l32.54,74.28h-7.13l32.77-74.28h11.49l-35.29,80.49Z" transform="translate(694 -2537.35)"/><path class="cls-2" d="M-69.28,2958.3v-80.49h11.5v80.49Z" transform="translate(694 -2537.35)"/><path class="cls-2" d="M-4.89,2958.3l-35.42-80.49h12.42l32.54,74.28H-2.48l32.77-74.28h11.5L6.49,2958.3Z" transform="translate(694 -2537.35)"/><path class="cls-2" d="M69.84,2948.29h46.91v10H58.34v-80.49h56.8v10H69.84Zm-1-35.75H110.2v9.77H68.81Z" transform="translate(694 -2537.35)"/><path class="cls-2" d="M141.7,2958.3v-80.49h9.43l36.1,60.82h-5.06l35.64-60.82h9.43l.12,80.49h-11l-.12-63.13h2.65l-31.73,53.35h-5.29l-32-53.35h2.88v63.13Z" transform="translate(694 -2537.35)"/><path class="cls-2" d="M294.16,2959.22a46.14,46.14,0,0,1-17.08-3.11,40.75,40.75,0,0,1-13.62-8.68,40.08,40.08,0,0,1-9-13,43,43,0,0,1,0-32.65,40.08,40.08,0,0,1,9-13.05A40.83,40.83,0,0,1,277,2880a46,46,0,0,1,17.13-3.11,46.46,46.46,0,0,1,17,3.05,40.22,40.22,0,0,1,13.57,8.62,39.3,39.3,0,0,1,8.91,13.11,44.21,44.21,0,0,1,0,32.83,39.46,39.46,0,0,1-8.91,13.05,40.22,40.22,0,0,1-13.57,8.62A46.46,46.46,0,0,1,294.16,2959.22Zm0-10.24a32.59,32.59,0,0,0,12.36-2.3,29.36,29.36,0,0,0,9.89-6.49,30.45,30.45,0,0,0,6.55-9.83,31.62,31.62,0,0,0,2.36-12.31,30.76,30.76,0,0,0-8.91-22.07,29.1,29.1,0,0,0-9.89-6.56,34.82,34.82,0,0,0-24.84,0,29.6,29.6,0,0,0-9.94,6.56,30.57,30.57,0,0,0-6.61,9.83,31,31,0,0,0-2.36,12.24,31.44,31.44,0,0,0,2.36,12.31,29.82,29.82,0,0,0,16.55,16.32A32.88,32.88,0,0,0,294.16,2949Z" transform="translate(694 -2537.35)"/><path class="cls-2" d="M384.18,2959.22a54.88,54.88,0,0,1-17.59-2.82q-8.38-2.82-13.22-7.3l4.25-9a37.42,37.42,0,0,0,11.73,6.67,42.37,42.37,0,0,0,14.83,2.64,33.42,33.42,0,0,0,11.39-1.61,13.44,13.44,0,0,0,6.43-4.42,10.52,10.52,0,0,0,2.07-6.38,8.7,8.7,0,0,0-2.7-6.67,19.93,19.93,0,0,0-7-4.08,78,78,0,0,0-9.49-2.71q-5.17-1.14-10.4-2.7a46.44,46.44,0,0,1-9.55-4,19.51,19.51,0,0,1-6.95-6.49q-2.66-4.08-2.65-10.52a21.18,21.18,0,0,1,3.28-11.44,22.81,22.81,0,0,1,10.12-8.4q6.84-3.15,17.42-3.16a54.08,54.08,0,0,1,13.91,1.84,38.94,38.94,0,0,1,12,5.29l-3.8,9.2a36.86,36.86,0,0,0-10.92-5,42.47,42.47,0,0,0-11.15-1.55,30.65,30.65,0,0,0-11.15,1.72,13.56,13.56,0,0,0-6.39,4.6,11,11,0,0,0-2,6.44,8.84,8.84,0,0,0,2.7,6.78,19.38,19.38,0,0,0,7,4,97.47,97.47,0,0,0,9.48,2.7q5.18,1.2,10.41,2.7a44.44,44.44,0,0,1,9.54,3.91,19.76,19.76,0,0,1,7,6.44,18.51,18.51,0,0,1,2.64,10.34,20.7,20.7,0,0,1-3.33,11.33,23.07,23.07,0,0,1-10.29,8.39Q394.76,2959.21,384.18,2959.22Z" transform="translate(694 -2537.35)"/><path class="cls-2" d="M463.52,2958.3,500,2877.81h11.39l36.56,80.49H535.84l-32.54-74.05h4.6l-32.54,74.05ZM479,2938.17l3.1-9.19h45.3l3.34,9.19Z" transform="translate(694 -2537.35)"/><path class="cls-2" d="M591.25,2958.3l36.45-80.49h11.38l36.57,80.49H663.57L631,2884.25h4.6L603.1,2958.3Zm15.52-20.13,3.11-9.19h45.3l3.33,9.19Z" transform="translate(694 -2537.35)"/><path class="cls-2" d="M693.93,2958.3v-80.49h33.91a49,49,0,0,1,22.71,5.06A37.4,37.4,0,0,1,765.84,2897a43.2,43.2,0,0,1,0,42.08,37.29,37.29,0,0,1-15.29,14.15,49,49,0,0,1-22.71,5.06Zm11.49-10h21.73a37.08,37.08,0,0,0,17.31-3.79,27.62,27.62,0,0,0,11.32-10.64,33.13,33.13,0,0,0,0-31.67,27.75,27.75,0,0,0-11.32-10.58,37.08,37.08,0,0,0-17.31-3.79H705.42Z" transform="translate(694 -2537.35)"/><path class="cls-2" d="M831.55,2959.22a46.13,46.13,0,0,1-17.07-3.11,40.79,40.79,0,0,1-13.63-8.68,40.23,40.23,0,0,1-9-13,43.12,43.12,0,0,1,0-32.65,40.23,40.23,0,0,1,9-13.05,40.93,40.93,0,0,1,13.57-8.68,46,46,0,0,1,17.13-3.11,46.55,46.55,0,0,1,17,3.05,40.42,40.42,0,0,1,13.57,8.62,39.3,39.3,0,0,1,8.91,13.11,44.21,44.21,0,0,1,0,32.83,39.46,39.46,0,0,1-8.91,13.05,40.42,40.42,0,0,1-13.57,8.62A46.55,46.55,0,0,1,831.55,2959.22Zm0-10.24a32.52,32.52,0,0,0,12.36-2.3,29.26,29.26,0,0,0,9.89-6.49,30.29,30.29,0,0,0,6.55-9.83,31.62,31.62,0,0,0,2.36-12.31A30.76,30.76,0,0,0,853.8,2896a29,29,0,0,0-9.89-6.56,34.8,34.8,0,0,0-24.83,0,29.64,29.64,0,0,0-10,6.56,30.57,30.57,0,0,0-6.61,9.83,31.17,31.17,0,0,0-2.36,12.24,31.62,31.62,0,0,0,2.36,12.31,29.79,29.79,0,0,0,16.56,16.32A32.83,32.83,0,0,0,831.55,2949Z" transform="translate(694 -2537.35)"/><path class="cls-2" d="M898.12,2958.3v-80.49h11.5v70.48H953.2v10Z" transform="translate(694 -2537.35)"/><path class="cls-2" d="M984.24,2948.29h46.91v10H972.74v-80.49h56.8v10h-45.3Zm-1-35.75h41.4v9.77H983.2Z" transform="translate(694 -2537.35)"/><path class="cls-2" d="M1079.55,2959.22a54.88,54.88,0,0,1-17.59-2.82q-8.39-2.82-13.22-7.3l4.26-9a37.25,37.25,0,0,0,11.72,6.67,42.37,42.37,0,0,0,14.83,2.64,33.42,33.42,0,0,0,11.39-1.61,13.47,13.47,0,0,0,6.44-4.42,10.52,10.52,0,0,0,2.07-6.38,8.71,8.71,0,0,0-2.71-6.67,19.93,19.93,0,0,0-7-4.08,77.49,77.49,0,0,0-9.49-2.71q-5.16-1.14-10.4-2.7a46.12,46.12,0,0,1-9.54-4,19.45,19.45,0,0,1-7-6.49,19.06,19.06,0,0,1-2.64-10.52,21.17,21.17,0,0,1,3.27-11.44,22.81,22.81,0,0,1,10.12-8.4q6.84-3.15,17.42-3.16a54.08,54.08,0,0,1,13.91,1.84,38.94,38.94,0,0,1,12,5.29l-3.8,9.2a36.75,36.75,0,0,0-10.92-5,42.47,42.47,0,0,0-11.15-1.55,30.69,30.69,0,0,0-11.15,1.72,13.53,13.53,0,0,0-6.38,4.6,10.92,10.92,0,0,0-2,6.44,8.81,8.81,0,0,0,2.71,6.78,19.33,19.33,0,0,0,7,4,97.47,97.47,0,0,0,9.48,2.7q5.17,1.2,10.41,2.7a44.44,44.44,0,0,1,9.54,3.91,19.76,19.76,0,0,1,7,6.44,18.51,18.51,0,0,1,2.64,10.34,20.7,20.7,0,0,1-3.33,11.33,23,23,0,0,1-10.29,8.39Q1090.13,2959.21,1079.55,2959.22Z" transform="translate(694 -2537.35)"/><path class="cls-2" d="M1169.81,2959.22a46,46,0,0,1-17-3,39.8,39.8,0,0,1-13.45-8.62,40.38,40.38,0,0,1-8.91-13.05,43.6,43.6,0,0,1,0-32.89,39.92,39.92,0,0,1,9-13.05,40.36,40.36,0,0,1,13.51-8.62,48.48,48.48,0,0,1,34.14.11,35.36,35.36,0,0,1,13.4,9.37l-7.48,7.25a29.79,29.79,0,0,0-10.34-7.19,32.19,32.19,0,0,0-12.31-2.35,34,34,0,0,0-12.59,2.29,30.34,30.34,0,0,0-10.06,6.44,29.17,29.17,0,0,0-6.61,9.83,33.68,33.68,0,0,0,0,24.72,29,29,0,0,0,6.61,9.83,30.18,30.18,0,0,0,10.06,6.44,33.75,33.75,0,0,0,12.59,2.3,32.19,32.19,0,0,0,12.31-2.35,29.21,29.21,0,0,0,10.34-7.3l7.48,7.24a35.83,35.83,0,0,1-13.4,9.43A45.43,45.43,0,0,1,1169.81,2959.22Z" transform="translate(694 -2537.35)"/><path class="cls-2" d="M1234.77,2948.29h46.91v10h-58.41v-80.49h56.8v10h-45.3Zm-3.56-77,15.29-15h10.58l15.29,15h-10l-15.17-12.65h9.2l-15.18,12.65Zm2.53,41.28h41.39v9.77h-41.39Z" transform="translate(694 -2537.35)"/><path class="cls-2" d="M1306.63,2958.3v-80.49h9.43l53.23,66.11h-4.94v-66.11h11.5v80.49h-9.43l-53.24-66.12h5v66.12Z" transform="translate(694 -2537.35)"/><path class="cls-2" d="M1442.3,2959.22a46.07,46.07,0,0,1-17-3,39.9,39.9,0,0,1-13.45-8.62,40.69,40.69,0,0,1-8.91-13.05,43.6,43.6,0,0,1,0-32.89,40,40,0,0,1,22.48-21.67,48.51,48.51,0,0,1,34.15.11,35.32,35.32,0,0,1,13.39,9.37l-7.47,7.25a29.92,29.92,0,0,0-10.35-7.19,32.11,32.11,0,0,0-12.3-2.35,33.91,33.91,0,0,0-12.59,2.29,30.24,30.24,0,0,0-10.06,6.44,29,29,0,0,0-6.61,9.83,33.55,33.55,0,0,0,0,24.72,28.83,28.83,0,0,0,6.61,9.83,30.08,30.08,0,0,0,10.06,6.44,33.71,33.71,0,0,0,12.59,2.3,32.11,32.11,0,0,0,12.3-2.35,29.34,29.34,0,0,0,10.35-7.3l7.47,7.24a35.8,35.8,0,0,1-13.39,9.43A45.44,45.44,0,0,1,1442.3,2959.22Z" transform="translate(694 -2537.35)"/><path class="cls-2" d="M1495.77,2958.3v-80.49h11.49v80.49Z" transform="translate(694 -2537.35)"/><path class="cls-2" d="M1525.54,2958.3l36.45-80.49h11.38l36.57,80.49h-12.08l-32.53-74.05h4.6l-32.54,74.05Zm15.53-20.13,3.1-9.19h45.3l3.34,9.19Z" transform="translate(694 -2537.35)"/><path class="cls-2" d="M-621.53,3107.85a46.07,46.07,0,0,1-17-3,39.67,39.67,0,0,1-13.45-8.63,40.32,40.32,0,0,1-8.91-13,41,41,0,0,1-3.22-16.44,41,41,0,0,1,3.22-16.44,39.92,39.92,0,0,1,9-13.05,40.2,40.2,0,0,1,13.51-8.62,46,46,0,0,1,17-3,45.66,45.66,0,0,1,17.18,3.16,35.25,35.25,0,0,1,13.4,9.37l-7.47,7.25a29.92,29.92,0,0,0-10.35-7.19,32.19,32.19,0,0,0-12.3-2.36,33.92,33.92,0,0,0-12.59,2.3,30.14,30.14,0,0,0-10.06,6.44,29,29,0,0,0-6.62,9.83,32,32,0,0,0-2.35,12.36,32,32,0,0,0,2.35,12.36,29,29,0,0,0,6.62,9.83,30,30,0,0,0,10.06,6.44,33.71,33.71,0,0,0,12.59,2.3,32.19,32.19,0,0,0,12.3-2.36,29.21,29.21,0,0,0,10.35-7.3l7.47,7.25a35.81,35.81,0,0,1-13.4,9.42A45.24,45.24,0,0,1-621.53,3107.85Z" transform="translate(694 -2537.35)"/><path class="cls-2" d="M-533.46,3107.85a46.12,46.12,0,0,1-17.07-3.1,40.79,40.79,0,0,1-13.63-8.68,40.23,40.23,0,0,1-9-13.05,41,41,0,0,1-3.21-16.33,40.9,40.9,0,0,1,3.21-16.32,40,40,0,0,1,9-13,41,41,0,0,1,13.57-8.69,46.19,46.19,0,0,1,17.13-3.1,46.55,46.55,0,0,1,17,3,40.26,40.26,0,0,1,13.57,8.62,39.3,39.3,0,0,1,8.91,13.11,42,42,0,0,1,3.16,16.38,41.9,41.9,0,0,1-3.16,16.44,39.25,39.25,0,0,1-8.91,13,40.29,40.29,0,0,1-13.57,8.63A46.54,46.54,0,0,1-533.46,3107.85Zm0-10.23a32.52,32.52,0,0,0,12.36-2.3,29.41,29.41,0,0,0,9.89-6.49,30.23,30.23,0,0,0,6.55-9.84,31.54,31.54,0,0,0,2.36-12.3,31.17,31.17,0,0,0-2.36-12.24,30.94,30.94,0,0,0-6.55-9.83,29,29,0,0,0-9.89-6.56,32.71,32.71,0,0,0-12.36-2.3,33,33,0,0,0-12.47,2.3,29.64,29.64,0,0,0-10,6.56,30.46,30.46,0,0,0-6.61,9.83,31.17,31.17,0,0,0-2.36,12.24,31.54,31.54,0,0,0,2.36,12.3,29.76,29.76,0,0,0,6.61,9.84,30.07,30.07,0,0,0,10,6.49A32.83,32.83,0,0,0-533.46,3097.62Z" transform="translate(694 -2537.35)"/><path class="cls-2" d="M-466.89,3106.93v-80.48h9.43l36.1,60.82h-5.06l35.65-60.82h9.43l.11,80.48h-11l-.11-63.12h2.64l-31.73,53.35h-5.29l-32-53.35h2.87v63.12Z" transform="translate(694 -2537.35)"/><path class="cls-2" d="M-314.43,3107.85a46.12,46.12,0,0,1-17.07-3.1,40.69,40.69,0,0,1-13.63-8.68,40.23,40.23,0,0,1-9-13.05,41,41,0,0,1-3.22-16.33,40.91,40.91,0,0,1,3.22-16.32,40,40,0,0,1,9-13,40.86,40.86,0,0,1,13.57-8.69,46.19,46.19,0,0,1,17.13-3.1,46.55,46.55,0,0,1,17,3,40.12,40.12,0,0,1,13.56,8.62,39.15,39.15,0,0,1,8.91,13.11,41.85,41.85,0,0,1,3.17,16.38,41.72,41.72,0,0,1-3.17,16.44,39.11,39.11,0,0,1-8.91,13,40.15,40.15,0,0,1-13.56,8.63A46.54,46.54,0,0,1-314.43,3107.85Zm0-10.23a32.56,32.56,0,0,0,12.36-2.3,29.51,29.51,0,0,0,9.89-6.49,30.39,30.39,0,0,0,6.55-9.84,31.54,31.54,0,0,0,2.36-12.3,31.17,31.17,0,0,0-2.36-12.24,31.11,31.11,0,0,0-6.55-9.83,29.1,29.1,0,0,0-9.89-6.56,32.75,32.75,0,0,0-12.36-2.3,33.11,33.11,0,0,0-12.48,2.3,29.6,29.6,0,0,0-9.94,6.56,30.46,30.46,0,0,0-6.61,9.83,31.17,31.17,0,0,0-2.36,12.24,31.54,31.54,0,0,0,2.36,12.3,29.76,29.76,0,0,0,6.61,9.84,30,30,0,0,0,9.94,6.49A32.92,32.92,0,0,0-314.43,3097.62Z" transform="translate(694 -2537.35)"/><path class="cls-2" d="M-199.11,3096.93h46.91v10h-58.41v-80.48h56.8v10h-45.3Zm-1-35.76h41.39V3071h-41.39Z" transform="translate(694 -2537.35)"/><path class="cls-2" d="M-127.25,3106.93v-80.48h11.5v70.48h43.57v10Z" transform="translate(694 -2537.35)"/><path class="cls-2" d="M-64.82,3106.93l36.45-80.48H-17l36.56,80.48H7.5l-32.54-74h4.6l-32.54,74Zm15.52-20.12,3.11-9.2H-.89l3.33,9.2Z" transform="translate(694 -2537.35)"/><path class="cls-2" d="M75.11,3106.93v-80.48H109a49,49,0,0,1,22.71,5.06A37.34,37.34,0,0,1,147,3045.65a43.2,43.2,0,0,1,0,42.08,37.36,37.36,0,0,1-15.29,14.15,49,49,0,0,1-22.71,5Zm11.49-10h21.74a37.07,37.07,0,0,0,17.3-3.79A27.56,27.56,0,0,0,137,3082.5a33.13,33.13,0,0,0,0-31.67,27.62,27.62,0,0,0-11.32-10.58,37.07,37.07,0,0,0-17.3-3.8H86.6Z" transform="translate(694 -2537.35)"/><path class="cls-2" d="M187.9,3096.93h46.91v10H176.4v-80.48h56.8v10H187.9Zm-1-35.76h41.39V3071H186.86Z" transform="translate(694 -2537.35)"/><path class="cls-2" d="M281.83,3106.93l-35.41-80.48h12.42l32.54,74.27h-7.13L317,3026.45h11.49l-35.29,80.48Z" transform="translate(694 -2537.35)"/><path class="cls-2" d="M356.57,3096.93h46.91v10H345.07v-80.48h56.8v10h-45.3Zm-1-35.76h41.39V3071H355.53Z" transform="translate(694 -2537.35)"/><path class="cls-2" d="M489.13,3107.85a54.88,54.88,0,0,1-17.59-2.81,36.24,36.24,0,0,1-13.22-7.3l4.26-9a37.45,37.45,0,0,0,11.72,6.67,42.37,42.37,0,0,0,14.83,2.64,33.66,33.66,0,0,0,11.39-1.61A13.48,13.48,0,0,0,507,3092a10.48,10.48,0,0,0,2.07-6.38,8.73,8.73,0,0,0-2.71-6.67,20.24,20.24,0,0,0-7-4.08,79.35,79.35,0,0,0-9.49-2.7c-3.44-.76-6.91-1.67-10.4-2.7a46.67,46.67,0,0,1-9.54-4,19.45,19.45,0,0,1-7-6.49,19.06,19.06,0,0,1-2.64-10.52,21.15,21.15,0,0,1,3.27-11.44,22.81,22.81,0,0,1,10.12-8.4q6.84-3.17,17.42-3.16a53.65,53.65,0,0,1,13.91,1.84,38.84,38.84,0,0,1,12,5.29l-3.8,9.2a36.75,36.75,0,0,0-10.92-5,42.49,42.49,0,0,0-11.15-1.56,30.67,30.67,0,0,0-11.15,1.73,13.53,13.53,0,0,0-6.38,4.6,10.9,10.9,0,0,0-2,6.44,8.83,8.83,0,0,0,2.71,6.78,19.18,19.18,0,0,0,7,4,95.42,95.42,0,0,0,9.48,2.71q5.17,1.2,10.41,2.7a43.93,43.93,0,0,1,9.54,3.91,19.67,19.67,0,0,1,7,6.44,18.51,18.51,0,0,1,2.64,10.34A20.7,20.7,0,0,1,517,3096.3a23.08,23.08,0,0,1-10.29,8.39Q499.71,3107.86,489.13,3107.85Z" transform="translate(694 -2537.35)"/><path class="cls-2" d="M554.9,3096.93h46.91v10H543.4v-80.48h56.8v10H554.9Zm-1-35.76h41.4V3071h-41.4Z" transform="translate(694 -2537.35)"/><path class="cls-2" d="M626.76,3106.93v-80.48h31.39q10.58,0,18.05,3.33a25.7,25.7,0,0,1,11.5,9.66,27.5,27.5,0,0,1,4,15.06,27.21,27.21,0,0,1-4,15,25.71,25.71,0,0,1-11.5,9.6q-7.47,3.33-18.05,3.33H633.08l5.18-5.29v29.78Zm11.5-28.63-5.18-5.63H657.8q11,0,16.73-4.77t5.69-13.4q0-8.61-5.69-13.33t-16.73-4.72H633.08l5.18-5.75Zm42.31,28.63-20.47-29.2h12.31l20.69,29.2Z" transform="translate(694 -2537.35)"/><path class="cls-2" d="M777.15,3106.93l-35.42-80.48h12.42l32.54,74.27h-7.13l32.77-74.27h11.5l-35.3,80.48Z" transform="translate(694 -2537.35)"/><path class="cls-2" d="M840.38,3106.93v-80.48h11.5v80.48Z" transform="translate(694 -2537.35)"/><path class="cls-2" d="M904.77,3106.93l-35.41-80.48h12.42l32.53,74.27h-7.12L940,3026.45h11.5l-35.3,80.48Z" transform="translate(694 -2537.35)"/><path class="cls-2" d="M968,3106.93v-80.48H979.5v80.48Z" transform="translate(694 -2537.35)"/><path class="cls-2" d="M1010,3106.93v-80.48h33.92a49,49,0,0,1,22.71,5.06,37.4,37.4,0,0,1,15.29,14.14,43.27,43.27,0,0,1,0,42.08,37.42,37.42,0,0,1-15.29,14.15,49,49,0,0,1-22.71,5Zm11.5-10h21.73a37.08,37.08,0,0,0,17.31-3.79,27.62,27.62,0,0,0,11.32-10.64,33.13,33.13,0,0,0,0-31.67,27.68,27.68,0,0,0-11.32-10.58,37.08,37.08,0,0,0-17.31-3.8h-21.73Z" transform="translate(694 -2537.35)"/><path class="cls-2" d="M1097.93,3106.93l36.45-80.48h11.38l36.56,80.48h-12.07l-32.54-74h4.6l-32.54,74Zm15.52-20.12,3.11-9.2h45.3l3.33,9.2Z" transform="translate(694 -2537.35)"/><path class="cls-2" d="M1204.05,3107.62a7.31,7.31,0,0,1-5.4-2.18,7.07,7.07,0,0,1-2.19-5.18,7,7,0,0,1,2.19-5.28,7.55,7.55,0,0,1,5.4-2.07,7.09,7.09,0,0,1,7.36,7.35,7.28,7.28,0,0,1-2.07,5.18A7,7,0,0,1,1204.05,3107.62Zm-4.48-26.1-2.07-55.07h13l-2.18,55.07Z" transform="translate(694 -2537.35)"/></g></g></svg>