<svg xmlns="http://www.w3.org/2000/svg" viewBox="0 0 2334.55 7311.64"><defs><style>.cls-1{fill:#fff;}.cls-2{fill:#b43176;}</style></defs><title>8</title><g id="Camada_2" data-name="Camada 2"><g id="Camada_1-2" data-name="Camada 1"><g id="DESKTOP2"><path class="cls-1" d="M423.53,192.67q-15.27,0-26.95-5.84a41.4,41.4,0,0,1-18.18-18q-6.52-12.13-6.51-30.54V70.06h35v62.88q0,15.27,6.39,22.34t18.08,7.07a28.39,28.39,0,0,0,14.37-3.59,25.38,25.38,0,0,0,10-10.77q3.72-7.19,3.71-18v-60h34.8V190.88H461V157.42l6.06,9.88a42.88,42.88,0,0,1-18,19A52.37,52.37,0,0,1,423.53,192.67Z" transform="translate(0 -68.29)"/><path class="cls-1" d="M681.54,68.3A55,55,0,0,1,707,74a40.55,40.55,0,0,1,17.4,17.52q6.29,11.79,6.28,30.2V190.9h-35V127.13q0-14.59-5.94-21.56t-16.73-7a27.45,27.45,0,0,0-13.92,3.48,22.71,22.71,0,0,0-9.32,10.33q-3.27,6.84-3.26,17.85v60.62h-35V127.12q0-14.59-6-21.56t-17.18-7a27,27,0,0,0-13.69,3.48,23.45,23.45,0,0,0-9.44,10.33q-3.36,6.84-3.37,17.85v60.63h-35V70.08h33.46v32.78L554,93.43a41.8,41.8,0,0,1,17.74-18.75A53.8,53.8,0,0,1,598,68.29q16.62,0,29.19,8.42t16.62,25.71l-12.35-3.37a49.43,49.43,0,0,1,19.31-22.34Q664,68.29,681.54,68.3Z" transform="translate(0 -68.29)"/><path class="cls-1" d="M799.64,192.71q-13.92,0-24-4.83A37.69,37.69,0,0,1,760,174.74a33,33,0,0,1-5.5-18.64,33.89,33.89,0,0,1,5.28-18.75q5.28-8.19,16.73-12.68t30.09-4.49h31.88v20.21H810.2q-12.35,0-17,4a12.88,12.88,0,0,0-4.61,10.1,12.6,12.6,0,0,0,5.28,10.67q5.26,3.93,14.26,3.93a31.71,31.71,0,0,0,16.05-4,22,22,0,0,0,10-12.35l5.39,16.39a31.81,31.81,0,0,1-13.92,17.41Q815.58,192.71,799.64,192.71Zm36.83-1.79V167.34l-2.25-5.17V120q0-11.23-6.85-17.52t-21-6.29a61,61,0,0,0-19,3,53.21,53.21,0,0,0-16,8.2L759,82.9A71.2,71.2,0,0,1,782.81,72a109.54,109.54,0,0,1,28.3-3.7q27.61,0,42.88,13T869.26,122v68.94Z" transform="translate(0 -68.29)"/><path class="cls-1" d="M1119.18,68.34q14.37,0,25.48,5.73a40.55,40.55,0,0,1,17.4,17.52q6.29,11.79,6.29,30.2V191h-35V127.18q0-14.59-6-21.56t-16.73-7a27.45,27.45,0,0,0-13.92,3.48,22.84,22.84,0,0,0-9.32,10.32q-3.26,6.86-3.26,17.85v60.63h-35V127.17q0-14.6-5.94-21.56t-17.18-7a27,27,0,0,0-13.7,3.48,23.46,23.46,0,0,0-9.43,10.32q-3.37,6.85-3.37,17.86v60.62h-35l0-120.81h33.45v32.78l-6.29-9.43a41.91,41.91,0,0,1,17.74-18.75,53.84,53.84,0,0,1,26.28-6.4q16.61,0,29.19,8.43t16.61,25.71L1069.1,99.1a49.38,49.38,0,0,1,19.31-22.34Q1101.67,68.35,1119.18,68.34Z" transform="translate(0 -68.29)"/><path class="cls-1" d="M1237.28,192.76q-13.93,0-24-4.83a37.66,37.66,0,0,1-15.61-13.14,33,33,0,0,1-5.49-18.64,33.88,33.88,0,0,1,5.27-18.75q5.28-8.19,16.73-12.68t30.09-4.49h31.89v20.21h-28.3q-12.35,0-16.95,4a12.87,12.87,0,0,0-4.6,10.1,12.6,12.6,0,0,0,5.27,10.67q5.28,3.93,14.26,3.93a31.85,31.85,0,0,0,16.06-4,22.08,22.08,0,0,0,10-12.35l5.39,16.39a31.77,31.77,0,0,1-13.93,17.4Q1253.22,192.76,1237.28,192.76Zm36.82-1.8V167.39l-2.24-5.17V120q0-11.24-6.84-17.52t-21-6.29a61,61,0,0,0-19,3,52.92,52.92,0,0,0-16.06,8.2L1196.64,83a71.16,71.16,0,0,1,23.81-10.89,109.52,109.52,0,0,1,28.29-3.7q27.62,0,42.89,13T1306.89,122V191Z" transform="translate(0 -68.29)"/><path class="cls-1" d="M1338.54,191l0-120.8H1372v34.35l-4.71-10.1A38.75,38.75,0,0,1,1384.59,75q11.9-6.63,29-6.62v32.56a39.53,39.53,0,0,0-3.93-.68,31.6,31.6,0,0,0-3.7-.22q-14.82,0-23.58,8.3t-8.76,25.6v57Z" transform="translate(0 -68.29)"/><path class="cls-1" d="M1491.69,192.78q-19.55,0-34.7-8a59.61,59.61,0,0,1-32.44-54.23q0-18.2,8.65-32.11a61.41,61.41,0,0,1,23.81-22q15.15-8.07,34.69-8.07,19.08,0,33.34,8a46.28,46.28,0,0,1,20.55,22.57l-26.95,14.82q-4.94-8.53-11.9-12.47a30.63,30.63,0,0,0-15.27-3.93,32.66,32.66,0,0,0-15.94,3.93,29.22,29.22,0,0,0-11.45,11.34q-4.27,7.41-4.27,18t4.26,18.08a29,29,0,0,0,11.45,11.45,32.68,32.68,0,0,0,15.94,3.93,30.52,30.52,0,0,0,15.27-3.93q7-3.92,11.91-12.68l26.94,14.82A46.94,46.94,0,0,1,1525,184.7Q1510.77,192.79,1491.69,192.78Z" transform="translate(0 -68.29)"/><path class="cls-1" d="M1603.28,192.8q-13.92,0-24-4.83a37.66,37.66,0,0,1-15.61-13.14,33,33,0,0,1-5.5-18.64,33.89,33.89,0,0,1,5.28-18.75q5.28-8.19,16.73-12.68t30.09-4.49h31.89v20.21h-28.3q-12.35,0-16.95,4a12.88,12.88,0,0,0-4.61,10.1,12.6,12.6,0,0,0,5.28,10.67q5.28,3.93,14.26,3.93a31.81,31.81,0,0,0,16-4,22.06,22.06,0,0,0,10-12.35l5.38,16.39a31.71,31.71,0,0,1-13.92,17.4Q1619.22,192.8,1603.28,192.8Zm36.83-1.8V167.43l-2.24-5.17V120.05q0-11.23-6.85-17.52t-21-6.29a61,61,0,0,0-19,3,52.92,52.92,0,0,0-16.06,8.2L1562.65,83a71.16,71.16,0,0,1,23.81-10.89,109.52,109.52,0,0,1,28.29-3.7q27.62,0,42.89,13t15.26,40.64V191Z" transform="translate(0 -68.29)"/><path class="cls-1" d="M852.6,439.41a70.35,70.35,0,0,1-15.72-1.69,38.46,38.46,0,0,1-12.57-5.05l9.43-25.37a25.14,25.14,0,0,0,14.82,4.26q6.74,0,10.44-4.26t3.71-13.47V273.25h35V393.61q0,21.09-11.79,33.45T852.6,439.41Zm27.64-183q-9.88,0-15.94-5.62a19,19,0,0,1,0-27.84q6.06-5.61,16-5.62,9.64,0,15.83,5.28a17.08,17.08,0,0,1,6.17,13.59,19,19,0,0,1-6.07,14.48Q890.12,256.41,880.24,256.41Z" transform="translate(0 -68.29)"/><path class="cls-1" d="M987.56,395.86q-19.09,0-34-8.09a60.59,60.59,0,0,1-23.46-22.12q-8.54-14-8.53-32,0-18.18,8.53-32.22a59.88,59.88,0,0,1,23.47-22q14.94-8,34-8,19.3,0,34.35,8a59.67,59.67,0,0,1,23.58,22q8.54,14,8.53,32.22t-8.54,32.11a60.8,60.8,0,0,1-23.58,22Q1006.87,395.87,987.56,395.86Zm0-28.74a31.24,31.24,0,0,0,15.83-3.93,28.78,28.78,0,0,0,11-11.56,37,37,0,0,0,4.16-18q0-10.56-4.15-18a29.22,29.22,0,0,0-11-11.34,30.81,30.81,0,0,0-15.61-3.93,31.41,31.41,0,0,0-15.72,3.93A28.94,28.94,0,0,0,961,315.7q-4.17,7.4-4.16,18a37,37,0,0,0,4.15,18,28.55,28.55,0,0,0,11.12,11.57A30.92,30.92,0,0,0,987.56,367.12Z" transform="translate(0 -68.29)"/><path class="cls-1" d="M1107,394.08l-50.74-120.81h35.93l42.2,104h-18l44-104h33.46l-51,120.8Z" transform="translate(0 -68.29)"/><path class="cls-1" d="M1264.87,395.89q-20.67,0-36.15-8.09a59.76,59.76,0,0,1-24-22.12q-8.54-14-8.52-32t8.19-32.11a57.66,57.66,0,0,1,22.91-22.12,68.42,68.42,0,0,1,33.12-8,66.71,66.71,0,0,1,32,7.64A57.38,57.38,0,0,1,1315,300.69q8.31,13.92,8.31,33.46c0,1.35-.08,2.88-.23,4.6s-.3,3.33-.45,4.83h-98.12V323.13h79.71l-13.7,6.06a31.9,31.9,0,0,0-3.59-16.39,27.83,27.83,0,0,0-10.55-10.89,30.62,30.62,0,0,0-15.72-3.93,31.24,31.24,0,0,0-15.83,3.93,27.34,27.34,0,0,0-10.66,11,34.65,34.65,0,0,0-3.82,16.73V335a33.17,33.17,0,0,0,4.48,17.51,29.67,29.67,0,0,0,12.35,11.34q7.86,3.93,18.86,3.93a44.88,44.88,0,0,0,16.73-2.91,41.48,41.48,0,0,0,13.37-8.76l18.63,20.21a54.19,54.19,0,0,1-20.88,14.48Q1281.26,395.9,1264.87,395.89Z" transform="translate(0 -68.29)"/><path class="cls-1" d="M1501.33,271.52a54.85,54.85,0,0,1,25.49,5.73,40.64,40.64,0,0,1,17.4,17.51q6.27,11.79,6.28,30.21v69.16h-35V330.35q0-14.6-6-21.56t-16.73-7a27.45,27.45,0,0,0-13.92,3.48,22.82,22.82,0,0,0-9.32,10.33q-3.25,6.86-3.26,17.85v60.63h-35V330.34q0-14.59-5.94-21.55t-17.18-7a27,27,0,0,0-13.7,3.48,23.54,23.54,0,0,0-9.43,10.33q-3.37,6.86-3.37,17.85v60.63h-35l0-120.8h33.45v32.79l-6.29-9.44a41.8,41.8,0,0,1,17.75-18.74,53.69,53.69,0,0,1,26.27-6.4q16.6,0,29.19,8.42t16.61,25.72l-12.35-3.37a49.4,49.4,0,0,1,19.32-22.34Q1483.82,271.51,1501.33,271.52Z" transform="translate(0 -68.29)"/><path class="cls-1" d="M1604.84,339.34a33.87,33.87,0,0,1,2.58-13.58,45.56,45.56,0,0,1,6.52-10.78,77.92,77.92,0,0,1,8.42-8.87q4.48-4,8.42-7.74a41.23,41.23,0,0,0,6.51-7.75,16.73,16.73,0,0,0,2.58-9.21,15.26,15.26,0,0,0-6.62-12.8q-6.62-4.94-17.4-4.94a40.13,40.13,0,0,0-19.2,4.38,38,38,0,0,0-13.59,12.24l-27.16-16a64.42,64.42,0,0,1,25-22q15.82-8.09,38.51-8.08,17.05,0,29.86,4.83t20,14q7.18,9.22,7.19,22.46a39.85,39.85,0,0,1-9.66,27.39,95.38,95.38,0,0,1-9.1,9.21q-4.83,4.26-9.09,8.31a40.12,40.12,0,0,0-7,8.53,19.65,19.65,0,0,0-2.7,10.33Zm17.06,56.59a20.7,20.7,0,0,1-15.27-6.06,19.65,19.65,0,0,1-6.06-14.37,18.8,18.8,0,0,1,6.06-14.26,21.35,21.35,0,0,1,15.27-5.73q9.66,0,15.61,5.73a19,19,0,0,1,6,14.26,19.84,19.84,0,0,1-6,14.37Q1631.55,395.93,1621.9,395.93Z" transform="translate(0 -68.29)"/></g><g id="DESKTOP"><rect class="cls-2" x="1425.07" y="6698.62" width="688.15" height="159"/><rect class="cls-2" y="7152.64" width="1950.12" height="159"/><rect class="cls-2" x="503.86" y="6997" width="1830.69" height="159"/><path class="cls-1" d="M73.09,6891.5a46.42,46.42,0,0,1-17.17-3.12,41.12,41.12,0,0,1-13.7-8.73,40.18,40.18,0,0,1-9-13.13,43.2,43.2,0,0,1,0-32.83,40.25,40.25,0,0,1,9-13.12,41.11,41.11,0,0,1,13.64-8.73,46.32,46.32,0,0,1,17.23-3.12,46.75,46.75,0,0,1,17.11,3.06,40.34,40.34,0,0,1,13.64,8.67,39.32,39.32,0,0,1,9,13.18,44.42,44.42,0,0,1,0,33,39.48,39.48,0,0,1-9,13.12,40.34,40.34,0,0,1-13.64,8.67A46.54,46.54,0,0,1,73.09,6891.5Zm0-10.29a32.92,32.92,0,0,0,12.43-2.31,29.6,29.6,0,0,0,9.94-6.54,30.4,30.4,0,0,0,6.59-9.88,31.74,31.74,0,0,0,2.37-12.37,30.87,30.87,0,0,0-9-22.2,29.14,29.14,0,0,0-9.94-6.59,34.89,34.89,0,0,0-25,0,29.72,29.72,0,0,0-10,6.59,30.86,30.86,0,0,0-6.64,9.88,31.35,31.35,0,0,0-2.37,12.32,31.74,31.74,0,0,0,2.37,12.37,30,30,0,0,0,16.65,16.42A33.16,33.16,0,0,0,73.09,6881.21Z" transform="translate(0 -68.29)"/><path class="cls-1" d="M201.19,6891.27a31.87,31.87,0,0,1-15.89-3.93,28.81,28.81,0,0,1-11.05-11,35.27,35.27,0,0,1,0-32.78,28.9,28.9,0,0,1,11.05-10.92,31.87,31.87,0,0,1,15.89-3.93,28.69,28.69,0,0,1,14.22,3.47,24.59,24.59,0,0,1,9.89,10.4q3.64,6.94,3.64,17.34t-3.76,17.35a25.65,25.65,0,0,1-10,10.46A27.94,27.94,0,0,1,201.19,6891.27Zm.93-9.72a20.83,20.83,0,0,0,10.46-2.65,19.21,19.21,0,0,0,7.4-7.58,23.15,23.15,0,0,0,2.72-11.39,22.74,22.74,0,0,0-2.72-11.38,19.36,19.36,0,0,0-7.4-7.46,22,22,0,0,0-21,0,19.85,19.85,0,0,0-7.4,7.46,22.34,22.34,0,0,0-2.78,11.38,22.75,22.75,0,0,0,2.78,11.39,19.69,19.69,0,0,0,7.4,7.58A20.74,20.74,0,0,0,202.12,6881.55ZM222.58,6913v-38.73l1.16-14.22-.7-14.22V6829.3h10.64V6913Z" transform="translate(0 -68.29)"/><path class="cls-1" d="M286.86,6891.27a31.36,31.36,0,0,1-13.81-2.89,20.76,20.76,0,0,1-9.25-8.85q-3.3-6-3.3-15V6829.3h11.1v34q0,9,4.34,13.52t12.2,4.51a20.4,20.4,0,0,0,10.05-2.37,16,16,0,0,0,6.6-6.93,24.26,24.26,0,0,0,2.31-11V6829.3h11.1v61.27H307.68V6874l1.73,4.39a21.41,21.41,0,0,1-9,9.48A27.26,27.26,0,0,1,286.86,6891.27Z" transform="translate(0 -68.29)"/><path class="cls-1" d="M373,6891.27a35.67,35.67,0,0,1-17.29-4.05,29.22,29.22,0,0,1-11.56-11.1,31.55,31.55,0,0,1-4.1-16.19,32.29,32.29,0,0,1,4-16.18,28.76,28.76,0,0,1,11-11,31.26,31.26,0,0,1,15.78-4,31,31,0,0,1,15.73,3.93,27.85,27.85,0,0,1,10.69,11,34.17,34.17,0,0,1,3.87,16.59c0,.46,0,1,0,1.62s-.1,1.2-.18,1.73H348.72v-8h46.36l-4.51,2.77a20.52,20.52,0,0,0-2.43-10.52,18.55,18.55,0,0,0-7-7.23,21.78,21.78,0,0,0-20.64,0,18.39,18.39,0,0,0-7.05,7.29,22,22,0,0,0-2.55,10.69v1.85a21.08,21.08,0,0,0,2.84,10.93,19.46,19.46,0,0,0,7.92,7.46,24.85,24.85,0,0,0,11.67,2.65,25.41,25.41,0,0,0,9.89-1.85,21.49,21.49,0,0,0,7.8-5.55l6.13,7.17a26.68,26.68,0,0,1-10.35,7.4A35.88,35.88,0,0,1,373,6891.27Z" transform="translate(0 -68.29)"/><path class="cls-1" d="M485.61,6891.27a31.88,31.88,0,0,1-15.9-3.93,28.85,28.85,0,0,1-11-11,35.19,35.19,0,0,1,0-32.78,28.94,28.94,0,0,1,11-10.92,31.88,31.88,0,0,1,15.9-3.93,28.24,28.24,0,0,1,14,3.47,25.37,25.37,0,0,1,10,10.4q3.75,6.94,3.76,17.34t-3.64,17.35a25,25,0,0,1-9.89,10.46A28.41,28.41,0,0,1,485.61,6891.27Zm.92-9.72A20.84,20.84,0,0,0,497,6878.9a19.21,19.21,0,0,0,7.4-7.58,23.14,23.14,0,0,0,2.71-11.39,22.73,22.73,0,0,0-2.71-11.38,19.36,19.36,0,0,0-7.4-7.46,22,22,0,0,0-21,0,19.92,19.92,0,0,0-7.4,7.46,22.34,22.34,0,0,0-2.77,11.38,22.74,22.74,0,0,0,2.77,11.39,19.76,19.76,0,0,0,7.4,7.58A20.74,20.74,0,0,0,486.53,6881.55Zm20.93,9V6874l.69-14.22L507,6845.6v-40.82h11.1v85.79Z" transform="translate(0 -68.29)"/><path class="cls-1" d="M572.78,6891.27a35.63,35.63,0,0,1-17.28-4.05,29.15,29.15,0,0,1-11.56-11.1,31.56,31.56,0,0,1-4.11-16.19,32.29,32.29,0,0,1,4-16.18,28.78,28.78,0,0,1,11-11,31.26,31.26,0,0,1,15.78-4,30.93,30.93,0,0,1,15.72,3.93,27.87,27.87,0,0,1,10.7,11,34.17,34.17,0,0,1,3.87,16.59q0,.69-.06,1.62c0,.62-.1,1.2-.17,1.73H548.5v-8h46.37l-4.51,2.77a20.73,20.73,0,0,0-2.43-10.52,18.65,18.65,0,0,0-7-7.23,21.76,21.76,0,0,0-20.63,0,18.41,18.41,0,0,0-7.06,7.29,22.11,22.11,0,0,0-2.54,10.69v1.85a21.07,21.07,0,0,0,2.83,10.93,19.52,19.52,0,0,0,7.92,7.46,24.89,24.89,0,0,0,11.68,2.65,25.44,25.44,0,0,0,9.89-1.85,21.66,21.66,0,0,0,7.8-5.55l6.13,7.17a26.83,26.83,0,0,1-10.35,7.4A35.93,35.93,0,0,1,572.78,6891.27Z" transform="translate(0 -68.29)"/><path class="cls-1" d="M637.53,6890.57l-26.82-61.27h11.56l23.82,55.49h-5.55l24.28-55.49h10.86l-26.82,61.27Z" transform="translate(0 -68.29)"/><path class="cls-1" d="M718,6891.27a35.7,35.7,0,0,1-17.29-4.05,29.22,29.22,0,0,1-11.56-11.1,31.65,31.65,0,0,1-4.1-16.19,32.29,32.29,0,0,1,4-16.18,28.83,28.83,0,0,1,11-11,31.26,31.26,0,0,1,15.78-4,31,31,0,0,1,15.73,3.93,27.85,27.85,0,0,1,10.69,11,34.17,34.17,0,0,1,3.87,16.59c0,.46,0,1-.05,1.62s-.1,1.2-.18,1.73H693.72v-8h46.36l-4.51,2.77a20.52,20.52,0,0,0-2.43-10.52,18.55,18.55,0,0,0-7-7.23,21.78,21.78,0,0,0-20.64,0,18.39,18.39,0,0,0-7,7.29,22,22,0,0,0-2.54,10.69v1.85a21.07,21.07,0,0,0,2.83,10.93,19.52,19.52,0,0,0,7.92,7.46,24.86,24.86,0,0,0,11.68,2.65,25.39,25.39,0,0,0,9.88-1.85,21.61,21.61,0,0,0,7.81-5.55l6.12,7.17a26.72,26.72,0,0,1-10.34,7.4A36,36,0,0,1,718,6891.27Z" transform="translate(0 -68.29)"/><path class="cls-1" d="M832.58,6891.27a35.65,35.65,0,0,1-17.29-4.05,29.15,29.15,0,0,1-11.56-11.1,31.56,31.56,0,0,1-4.11-16.19,32.29,32.29,0,0,1,4-16.18,28.78,28.78,0,0,1,11-11,31.26,31.26,0,0,1,15.78-4,30.93,30.93,0,0,1,15.72,3.93,27.87,27.87,0,0,1,10.7,11,34.17,34.17,0,0,1,3.87,16.59q0,.69-.06,1.62c0,.62-.09,1.2-.17,1.73H808.3v-8h46.36l-4.51,2.77a20.62,20.62,0,0,0-2.43-10.52,18.69,18.69,0,0,0-7-7.23,21.78,21.78,0,0,0-20.64,0A18.32,18.32,0,0,0,813,6848a22,22,0,0,0-2.55,10.69v1.85a21.08,21.08,0,0,0,2.84,10.93,19.43,19.43,0,0,0,7.91,7.46,24.92,24.92,0,0,0,11.68,2.65,25.44,25.44,0,0,0,9.89-1.85,21.58,21.58,0,0,0,7.8-5.55l6.13,7.17a26.83,26.83,0,0,1-10.35,7.4A35.92,35.92,0,0,1,832.58,6891.27Z" transform="translate(0 -68.29)"/><path class="cls-1" d="M871.77,6890.57l26.36-34.22L898,6862l-25.09-32.72H885.3l19.19,25.2h-4.74l19.19-25.2h12.14l-25.43,32.95.11-5.9,26.59,34.22h-12.6l-20.23-26.82,4.51.69-19.89,26.13Z" transform="translate(0 -68.29)"/><path class="cls-1" d="M956.4,6817.5a7.4,7.4,0,0,1-5.38-2.08,6.85,6.85,0,0,1-2.14-5.09,7,7,0,0,1,2.14-5.2,7.4,7.4,0,0,1,5.38-2.08,7.56,7.56,0,0,1,5.38,2,6.67,6.67,0,0,1,2.14,5,7.23,7.23,0,0,1-7.52,7.4Zm-5.55,73.07V6829.3H962v61.27Z" transform="translate(0 -68.29)"/><path class="cls-1" d="M1007,6891.27a50.05,50.05,0,0,1-14.51-2.08,34.16,34.16,0,0,1-10.81-5.09l4.62-8.79a37.54,37.54,0,0,0,9.72,4.51,38.52,38.52,0,0,0,11.79,1.85q7.74,0,11.16-2.2a6.9,6.9,0,0,0,3.41-6.12,5.41,5.41,0,0,0-2.08-4.51,14.2,14.2,0,0,0-5.5-2.43q-3.4-.81-7.57-1.45c-2.77-.42-5.55-1-8.32-1.61a33,33,0,0,1-7.63-2.78,14.26,14.26,0,0,1-5.55-5,15.3,15.3,0,0,1-2.09-8.5,15.74,15.74,0,0,1,3.13-9.71,19.81,19.81,0,0,1,8.84-6.42,37.09,37.09,0,0,1,13.59-2.25,53.63,53.63,0,0,1,12.19,1.44,30.24,30.24,0,0,1,10.12,4.11l-4.74,8.78a26,26,0,0,0-8.67-3.81,39.65,39.65,0,0,0-9-1q-7.29,0-10.87,2.37a7.05,7.05,0,0,0-3.58,6.07,5.73,5.73,0,0,0,2.14,4.8,15.56,15.56,0,0,0,5.55,2.6,67,67,0,0,0,7.57,1.56c2.77.42,5.55,1,8.32,1.62a33.89,33.89,0,0,1,7.58,2.71,14.8,14.8,0,0,1,5.55,4.86,14.53,14.53,0,0,1,2.14,8.32,14.9,14.9,0,0,1-3.24,9.6,20.9,20.9,0,0,1-9.13,6.3A39.43,39.43,0,0,1,1007,6891.27Z" transform="translate(0 -68.29)"/><path class="cls-1" d="M1045,6838.43v-9.13H1084v9.13Zm29.83,52.84q-9.26,0-14.34-5t-5.08-14.22v-56.19h11.1v55.73c0,3.32.82,5.86,2.48,7.63s4,2.66,7.11,2.66a13.06,13.06,0,0,0,8.67-2.89l3.47,8a16.26,16.26,0,0,1-6.07,3.24A25.94,25.94,0,0,1,1074.79,6891.27Z" transform="translate(0 -68.29)"/><path class="cls-1" d="M1113.52,6817.5a7.4,7.4,0,0,1-5.38-2.08,6.84,6.84,0,0,1-2.13-5.09,7,7,0,0,1,2.13-5.2,7.4,7.4,0,0,1,5.38-2.08,7.56,7.56,0,0,1,5.38,2,6.67,6.67,0,0,1,2.14,5,7.23,7.23,0,0,1-7.52,7.4Zm-5.55,73.07V6829.3h11.1v61.27Z" transform="translate(0 -68.29)"/><path class="cls-1" d="M1146.59,6890.57V6829.3h10.63v16.64l-1-4.16a18.85,18.85,0,0,1,8.56-9.71q6-3.34,14.8-3.35v10.75a7.91,7.91,0,0,0-1.33-.12H1177q-8.9,0-14.1,5.32t-5.2,15.38v30.52Z" transform="translate(0 -68.29)"/><path class="cls-1" d="M1265.09,6891.27a35.63,35.63,0,0,1-17.28-4.05,29.15,29.15,0,0,1-11.56-11.1,31.56,31.56,0,0,1-4.11-16.19,32.29,32.29,0,0,1,4-16.18,28.83,28.83,0,0,1,11-11,31.32,31.32,0,0,1,15.79-4,30.93,30.93,0,0,1,15.72,3.93,27.78,27.78,0,0,1,10.69,11,34.06,34.06,0,0,1,3.88,16.59q0,.69-.06,1.62c0,.62-.1,1.2-.17,1.73h-52.15v-8h46.37l-4.51,2.77a20.73,20.73,0,0,0-2.43-10.52,18.65,18.65,0,0,0-7-7.23,21.76,21.76,0,0,0-20.63,0,18.41,18.41,0,0,0-7.06,7.29,22.11,22.11,0,0,0-2.54,10.69v1.85a21.07,21.07,0,0,0,2.83,10.93,19.52,19.52,0,0,0,7.92,7.46,24.89,24.89,0,0,0,11.68,2.65,25.36,25.36,0,0,0,9.88-1.85,21.61,21.61,0,0,0,7.81-5.55l6.13,7.17a26.83,26.83,0,0,1-10.35,7.4A36,36,0,0,1,1265.09,6891.27Zm-11-70.88,15.72-15h14.11l-19.43,15Z" transform="translate(0 -68.29)"/><path class="cls-1" d="M1378.63,6891.27a32.86,32.86,0,0,1-16.36-4.05,29.85,29.85,0,0,1-11.39-11.16,31.36,31.36,0,0,1-4.16-16.13,31,31,0,0,1,4.16-16.12,30.2,30.2,0,0,1,11.33-11.05,32.89,32.89,0,0,1,16.42-4,33.28,33.28,0,0,1,16.36,4,29.25,29.25,0,0,1,11.33,11,34,34,0,0,1,0,32.37,29.68,29.68,0,0,1-11.33,11.1A32.89,32.89,0,0,1,1378.63,6891.27Zm0-9.72a21.07,21.07,0,0,0,10.58-2.65,18.81,18.81,0,0,0,7.34-7.58,23.57,23.57,0,0,0,2.66-11.39,23.15,23.15,0,0,0-2.66-11.38,19,19,0,0,0-7.34-7.46,21.07,21.07,0,0,0-10.58-2.66,20.74,20.74,0,0,0-10.52,2.66,19.85,19.85,0,0,0-7.4,7.46,22.34,22.34,0,0,0-2.78,11.38,22.75,22.75,0,0,0,2.78,11.39,19.69,19.69,0,0,0,7.4,7.58A20.74,20.74,0,0,0,1378.63,6881.55Z" transform="translate(0 -68.29)"/><path class="cls-1" d="M1471.17,6890.57v-80.48h31.39q10.57,0,18,3.33a25.7,25.7,0,0,1,11.5,9.66,27.5,27.5,0,0,1,4,15.06,27.21,27.21,0,0,1-4,15,25.71,25.71,0,0,1-11.5,9.6q-7.47,3.33-18,3.33h-25.07l5.18-5.29v29.78Zm11.5-28.63-5.18-5.63h24.72q11,0,16.73-4.77t5.69-13.4q0-8.61-5.69-13.33t-16.73-4.72h-24.72l5.18-5.75Zm42.31,28.63-20.47-29.2h12.31l20.69,29.2Z" transform="translate(0 -68.29)"/><path class="cls-1" d="M1572.58,6880.57h46.91v10h-58.41v-80.48h56.8v10h-45.3Zm-1-35.76h41.39v9.78h-41.39Z" transform="translate(0 -68.29)"/><path class="cls-1" d="M1667.89,6891.49a54.88,54.88,0,0,1-17.59-2.81,36.1,36.1,0,0,1-13.22-7.31l4.25-9a37.41,37.41,0,0,0,11.73,6.66,42.15,42.15,0,0,0,14.83,2.65,33.66,33.66,0,0,0,11.39-1.61,13.45,13.45,0,0,0,6.43-4.43,10.48,10.48,0,0,0,2.07-6.38,8.72,8.72,0,0,0-2.7-6.67,20.24,20.24,0,0,0-7-4.08,79.89,79.89,0,0,0-9.49-2.7q-5.17-1.16-10.4-2.7a47,47,0,0,1-9.55-4,19.51,19.51,0,0,1-7-6.49q-2.65-4.08-2.65-10.53a21.15,21.15,0,0,1,3.28-11.43,22.81,22.81,0,0,1,10.12-8.4q6.84-3.16,17.42-3.16a53.65,53.65,0,0,1,13.91,1.84,38.94,38.94,0,0,1,12,5.29l-3.8,9.2a37.15,37.15,0,0,0-10.92-5,42.89,42.89,0,0,0-11.15-1.55,30.73,30.73,0,0,0-11.16,1.73,13.58,13.58,0,0,0-6.38,4.6,11,11,0,0,0-2,6.43,8.87,8.87,0,0,0,2.7,6.79,19.22,19.22,0,0,0,7,4,92.14,92.14,0,0,0,9.48,2.7q5.18,1.22,10.41,2.71a43.93,43.93,0,0,1,9.54,3.91,19.73,19.73,0,0,1,7,6.43,18.57,18.57,0,0,1,2.64,10.35,20.7,20.7,0,0,1-3.33,11.33,23.14,23.14,0,0,1-10.29,8.39Q1678.47,6891.49,1667.89,6891.49Z" transform="translate(0 -68.29)"/><path class="cls-1" d="M1722.16,6890.57v-80.48h31.39q10.58,0,18,3.33a25.7,25.7,0,0,1,11.5,9.66,27.5,27.5,0,0,1,4,15.06,27.21,27.21,0,0,1-4,15,26.08,26.08,0,0,1-11.5,9.66q-7.47,3.39-18,3.39h-25.07l5.18-5.41v29.78Zm11.5-28.63-5.18-5.75h24.72q11,0,16.73-4.71t5.69-13.34q0-8.61-5.69-13.33t-16.73-4.72h-24.72l5.18-5.75Z" transform="translate(0 -68.29)"/><path class="cls-1" d="M1821.84,6880.57h46.91v10h-58.4v-80.48h56.79v10h-45.3Zm-1-35.76h41.39v9.78h-41.39Z" transform="translate(0 -68.29)"/><path class="cls-1" d="M1893.7,6890.57v-80.48h11.5v80.48Z" transform="translate(0 -68.29)"/><path class="cls-1" d="M1951.65,6890.57v-70.48h-27.59v-10h66.57v10H1963v70.48Z" transform="translate(0 -68.29)"/><path class="cls-1" d="M2044.67,6891.49a46.14,46.14,0,0,1-17.08-3.1,40.75,40.75,0,0,1-13.62-8.68,40.23,40.23,0,0,1-9-13.05,43,43,0,0,1,0-32.66,40.23,40.23,0,0,1,9-13.05,41,41,0,0,1,13.57-8.68,46,46,0,0,1,17.13-3.1,46.46,46.46,0,0,1,17,3.05,40.07,40.07,0,0,1,13.57,8.62,39.3,39.3,0,0,1,8.91,13.11,44.19,44.19,0,0,1,0,32.82,39.25,39.25,0,0,1-8.91,13,40.09,40.09,0,0,1-13.57,8.63A46.45,46.45,0,0,1,2044.67,6891.49Zm0-10.23A32.79,32.79,0,0,0,2057,6879a29.39,29.39,0,0,0,9.89-6.5,30.24,30.24,0,0,0,6.55-9.83,31.54,31.54,0,0,0,2.36-12.3,30.76,30.76,0,0,0-8.91-22.07,29.1,29.1,0,0,0-9.89-6.56,34.68,34.68,0,0,0-24.84,0,29.6,29.6,0,0,0-9.94,6.56,30.46,30.46,0,0,0-6.61,9.83,31,31,0,0,0-2.36,12.24,31.36,31.36,0,0,0,2.36,12.3,29.87,29.87,0,0,0,16.55,16.33A33.08,33.08,0,0,0,2044.67,6881.26Z" transform="translate(0 -68.29)"/><path class="cls-1" d="M2164.86,6891.27a28.82,28.82,0,0,1-12-2.32,18.37,18.37,0,0,1-7.92-6.41,16.24,16.24,0,0,1-2.77-9.31,17.54,17.54,0,0,1,2.37-9,16.44,16.44,0,0,1,7.75-6.47q5.37-2.43,14.5-2.43h19.43v8h-19q-8.33,0-11.22,2.77a9,9,0,0,0-2.89,6.71,8.62,8.62,0,0,0,3.59,7.22q3.57,2.73,9.94,2.72a21.07,21.07,0,0,0,10.93-2.77,15.8,15.8,0,0,0,6.76-8.1l2.2,7.63a17.28,17.28,0,0,1-7.75,8.62Q2173.3,6891.27,2164.86,6891.27Zm20.12-.7v-12.95l-.58-2.42v-22.09q0-7.05-4.11-10.92t-12.31-3.88a32.35,32.35,0,0,0-10.64,1.8,27.44,27.44,0,0,0-8.78,4.79l-4.63-8.32a33.6,33.6,0,0,1,11.39-5.84,47.55,47.55,0,0,1,13.93-2q12.6,0,19.43,6.13t6.82,18.72v37Zm-16.65-70.18-19.43-15H2163l15.72,15Z" transform="translate(0 -68.29)"/><path class="cls-1" d="M2240,6891.27a50.05,50.05,0,0,1-14.51-2.08,34.16,34.16,0,0,1-10.81-5.09l4.62-8.79a37.54,37.54,0,0,0,9.72,4.51,38.52,38.52,0,0,0,11.79,1.85q7.74,0,11.16-2.2a6.9,6.9,0,0,0,3.41-6.12,5.41,5.41,0,0,0-2.08-4.51,14.2,14.2,0,0,0-5.5-2.43q-3.41-.81-7.57-1.45c-2.77-.42-5.55-1-8.32-1.61a33,33,0,0,1-7.63-2.78,14.26,14.26,0,0,1-5.55-5,15.3,15.3,0,0,1-2.09-8.5,15.74,15.74,0,0,1,3.13-9.71,19.81,19.81,0,0,1,8.84-6.42,37.09,37.09,0,0,1,13.59-2.25,53.63,53.63,0,0,1,12.19,1.44,30.24,30.24,0,0,1,10.12,4.11l-4.74,8.78a26.1,26.1,0,0,0-8.67-3.81,39.65,39.65,0,0,0-9-1q-7.28,0-10.87,2.37a7.05,7.05,0,0,0-3.58,6.07,5.73,5.73,0,0,0,2.14,4.8,15.56,15.56,0,0,0,5.55,2.6,67,67,0,0,0,7.57,1.56c2.77.42,5.55,1,8.32,1.62a33.89,33.89,0,0,1,7.58,2.71,14.8,14.8,0,0,1,5.55,4.86,14.53,14.53,0,0,1,2.14,8.32,14.9,14.9,0,0,1-3.24,9.6,20.88,20.88,0,0,1-9.14,6.3A39.33,39.33,0,0,1,2240,6891.27Z" transform="translate(0 -68.29)"/><path class="cls-1" d="M67.66,6977.35a28.9,28.9,0,0,1,13.23,2.9,20.63,20.63,0,0,1,9,8.78q3.24,5.9,3.24,14.92v35.26H82v-34q0-8.91-4.33-13.41t-12.2-4.51a21.81,21.81,0,0,0-10.29,2.31,15.79,15.79,0,0,0-6.76,6.82A23.83,23.83,0,0,0,46,7007.65v31.56H34.94v-61.28H45.57v16.54l-1.73-4.4a21.28,21.28,0,0,1,9.25-9.36A30.28,30.28,0,0,1,67.66,6977.35Z" transform="translate(0 -68.29)"/><path class="cls-1" d="M146.28,7039.9a32.85,32.85,0,0,1-16.36-4,29.85,29.85,0,0,1-11.39-11.16,31.29,31.29,0,0,1-4.17-16.13,30.91,30.91,0,0,1,4.17-16.13,30.25,30.25,0,0,1,11.33-11,32.8,32.8,0,0,1,16.42-4,33.42,33.42,0,0,1,16.36,4A29.28,29.28,0,0,1,174,6992.39a34,34,0,0,1,0,32.37,29.68,29.68,0,0,1-11.33,11.1A32.91,32.91,0,0,1,146.28,7039.9Zm0-9.71a20.93,20.93,0,0,0,10.57-2.66,18.74,18.74,0,0,0,7.35-7.57,23.57,23.57,0,0,0,2.66-11.39,23.19,23.19,0,0,0-2.66-11.39,19,19,0,0,0-7.35-7.45,20.93,20.93,0,0,0-10.57-2.66,20.68,20.68,0,0,0-10.53,2.66,20,20,0,0,0-7.4,7.45,22.38,22.38,0,0,0-2.77,11.39,22.74,22.74,0,0,0,2.77,11.39,19.66,19.66,0,0,0,7.4,7.57A20.68,20.68,0,0,0,146.28,7030.19Z" transform="translate(0 -68.29)"/><path class="cls-1" d="M217.38,7039.9a49.71,49.71,0,0,1-14.51-2.08,34,34,0,0,1-10.81-5.08l4.62-8.79a37.87,37.87,0,0,0,9.72,4.51,38.52,38.52,0,0,0,11.79,1.85q7.74,0,11.16-2.2a6.92,6.92,0,0,0,3.41-6.13,5.42,5.42,0,0,0-2.08-4.51,14.35,14.35,0,0,0-5.5-2.42q-3.41-.81-7.57-1.45c-2.77-.42-5.55-1-8.32-1.62a33,33,0,0,1-7.63-2.77,14.34,14.34,0,0,1-5.55-5,15.32,15.32,0,0,1-2.09-8.5,15.74,15.74,0,0,1,3.13-9.71,19.73,19.73,0,0,1,8.84-6.42,37.08,37.08,0,0,1,13.59-2.26,53.66,53.66,0,0,1,12.19,1.45,30.45,30.45,0,0,1,10.12,4.1l-4.74,8.79a26,26,0,0,0-8.67-3.81,39.65,39.65,0,0,0-9-1q-7.29,0-10.87,2.37a7.05,7.05,0,0,0-3.58,6.07,5.7,5.7,0,0,0,2.14,4.79,15.4,15.4,0,0,0,5.55,2.61,71.75,71.75,0,0,0,7.57,1.56c2.77.42,5.55,1,8.32,1.61a34.4,34.4,0,0,1,7.58,2.72,14.8,14.8,0,0,1,5.55,4.86,14.51,14.51,0,0,1,2.14,8.32,14.9,14.9,0,0,1-3.24,9.6,20.9,20.9,0,0,1-9.13,6.3A39.66,39.66,0,0,1,217.38,7039.9Z" transform="translate(0 -68.29)"/><path class="cls-1" d="M281.66,7039.9a49.76,49.76,0,0,1-14.51-2.08,34.05,34.05,0,0,1-10.81-5.08L261,7024a37.79,37.79,0,0,0,9.71,4.51,38.52,38.52,0,0,0,11.79,1.85q7.74,0,11.16-2.2A6.92,6.92,0,0,0,297,7022a5.39,5.39,0,0,0-2.08-4.51,14.37,14.37,0,0,0-5.49-2.42c-2.28-.54-4.8-1-7.58-1.45s-5.55-1-8.32-1.62a33,33,0,0,1-7.63-2.77,14.48,14.48,0,0,1-5.55-5,15.32,15.32,0,0,1-2.08-8.5,15.73,15.73,0,0,1,3.12-9.71,19.73,19.73,0,0,1,8.84-6.42,37.12,37.12,0,0,1,13.59-2.26,53.74,53.74,0,0,1,12.2,1.45,30.48,30.48,0,0,1,10.11,4.1l-4.74,8.79a26,26,0,0,0-8.67-3.81,39.58,39.58,0,0,0-9-1q-7.28,0-10.87,2.37a7.05,7.05,0,0,0-3.58,6.07,5.7,5.7,0,0,0,2.14,4.79,15.48,15.48,0,0,0,5.55,2.61,71.75,71.75,0,0,0,7.57,1.56c2.78.42,5.55,1,8.33,1.61a34.31,34.31,0,0,1,7.57,2.72,14.8,14.8,0,0,1,5.55,4.86,14.51,14.51,0,0,1,2.14,8.32,14.9,14.9,0,0,1-3.24,9.6,20.9,20.9,0,0,1-9.13,6.3A39.62,39.62,0,0,1,281.66,7039.9Z" transform="translate(0 -68.29)"/><path class="cls-1" d="M346.29,7039.9a29,29,0,0,1-12-2.31,18.37,18.37,0,0,1-7.92-6.41,16.24,16.24,0,0,1-2.77-9.31,17.51,17.51,0,0,1,2.37-9,16.33,16.33,0,0,1,7.75-6.47q5.37-2.43,14.51-2.43h19.42v8h-19q-8.33,0-11.22,2.78a9,9,0,0,0-2.89,6.71,8.62,8.62,0,0,0,3.59,7.22q3.58,2.71,9.94,2.72a21.07,21.07,0,0,0,10.93-2.78,15.78,15.78,0,0,0,6.76-8.09l2.2,7.63a17.32,17.32,0,0,1-7.75,8.62Q354.73,7039.91,346.29,7039.9Zm20.12-.69v-12.95l-.58-2.43v-22.08q0-7-4.1-10.93T349.41,6987a32.5,32.5,0,0,0-10.63,1.79,27.59,27.59,0,0,0-8.79,4.8l-4.63-8.32a33.42,33.42,0,0,1,11.39-5.84,47.56,47.56,0,0,1,13.93-2q12.6,0,19.43,6.13t6.82,18.73v37Z" transform="translate(0 -68.29)"/><path class="cls-1" d="M421.44,7039.9a49.76,49.76,0,0,1-14.51-2.08,34,34,0,0,1-10.81-5.08l4.63-8.79a37.79,37.79,0,0,0,9.71,4.51,38.52,38.52,0,0,0,11.79,1.85q7.74,0,11.16-2.2a6.92,6.92,0,0,0,3.41-6.13,5.42,5.42,0,0,0-2.08-4.51,14.37,14.37,0,0,0-5.49-2.42c-2.28-.54-4.8-1-7.58-1.45s-5.55-1-8.32-1.62a33,33,0,0,1-7.63-2.77,14.48,14.48,0,0,1-5.55-5,15.32,15.32,0,0,1-2.08-8.5,15.73,15.73,0,0,1,3.12-9.71,19.73,19.73,0,0,1,8.84-6.42,37.12,37.12,0,0,1,13.59-2.26,53.81,53.81,0,0,1,12.2,1.45,30.48,30.48,0,0,1,10.11,4.1l-4.74,8.79a26,26,0,0,0-8.67-3.81,39.65,39.65,0,0,0-9-1q-7.27,0-10.87,2.37a7.05,7.05,0,0,0-3.58,6.07,5.7,5.7,0,0,0,2.14,4.79,15.4,15.4,0,0,0,5.55,2.61,71.75,71.75,0,0,0,7.57,1.56c2.78.42,5.55,1,8.33,1.61a34.5,34.5,0,0,1,7.57,2.72,14.8,14.8,0,0,1,5.55,4.86,14.51,14.51,0,0,1,2.14,8.32,14.9,14.9,0,0,1-3.24,9.6,20.9,20.9,0,0,1-9.13,6.3A39.62,39.62,0,0,1,421.44,7039.9Z" transform="translate(0 -68.29)"/><path class="cls-1" d="M511.16,6966.14a7.4,7.4,0,0,1-5.38-2.08,6.85,6.85,0,0,1-2.14-5.09,7,7,0,0,1,2.14-5.2,7.4,7.4,0,0,1,5.38-2.08,7.52,7.52,0,0,1,5.38,2,6.66,6.66,0,0,1,2.13,5,7.22,7.22,0,0,1-7.51,7.4Zm-5.55,73.07v-61.28h11.1v61.28Z" transform="translate(0 -68.29)"/><path class="cls-1" d="M569.54,7039.9a31.87,31.87,0,0,1-15.89-3.93,28.69,28.69,0,0,1-11-11,35.19,35.19,0,0,1,0-32.78,28.81,28.81,0,0,1,11-10.92,31.87,31.87,0,0,1,15.89-3.94,28.32,28.32,0,0,1,14,3.47,25.36,25.36,0,0,1,10,10.41q3.75,6.93,3.75,17.34t-3.64,17.34a25,25,0,0,1-9.88,10.47A28.47,28.47,0,0,1,569.54,7039.9Zm.93-9.71a20.73,20.73,0,0,0,10.46-2.66,19.12,19.12,0,0,0,7.4-7.57,23.15,23.15,0,0,0,2.72-11.39,22.77,22.77,0,0,0-2.72-11.39,19.4,19.4,0,0,0-7.4-7.45,22,22,0,0,0-21,0,19.9,19.9,0,0,0-7.4,7.45,22.38,22.38,0,0,0-2.78,11.39,22.75,22.75,0,0,0,2.78,11.39,19.59,19.59,0,0,0,7.4,7.57A20.64,20.64,0,0,0,570.47,7030.19Zm20.93,9v-16.53l.69-14.22-1.16-14.23v-40.81H602v85.79Z" transform="translate(0 -68.29)"/><path class="cls-1" d="M656.72,7039.9a35.7,35.7,0,0,1-17.29-4,29.22,29.22,0,0,1-11.56-11.1,31.65,31.65,0,0,1-4.1-16.19,32.27,32.27,0,0,1,4-16.18,28.85,28.85,0,0,1,11-11.05,31.36,31.36,0,0,1,15.78-4,31,31,0,0,1,15.73,3.94,27.85,27.85,0,0,1,10.69,11,34.17,34.17,0,0,1,3.87,16.59c0,.46,0,1,0,1.62s-.1,1.19-.18,1.73H632.44v-8H678.8l-4.51,2.78a20.62,20.62,0,0,0-2.42-10.52,18.65,18.65,0,0,0-7-7.23,21.78,21.78,0,0,0-20.64,0,18.36,18.36,0,0,0-7.05,7.28,22,22,0,0,0-2.54,10.7v1.85a21.07,21.07,0,0,0,2.83,10.93,19.5,19.5,0,0,0,7.92,7.45,24.74,24.74,0,0,0,11.68,2.66,25.39,25.39,0,0,0,9.88-1.85,21.61,21.61,0,0,0,7.81-5.55l6.12,7.17a26.72,26.72,0,0,1-10.34,7.4A36,36,0,0,1,656.72,7039.9Z" transform="translate(0 -68.29)"/><path class="cls-1" d="M712.1,6966.14a7.4,7.4,0,0,1-5.38-2.08,6.84,6.84,0,0,1-2.13-5.09,7,7,0,0,1,2.13-5.2,7.4,7.4,0,0,1,5.38-2.08,7.52,7.52,0,0,1,5.38,2,6.67,6.67,0,0,1,2.14,5,7.23,7.23,0,0,1-7.52,7.4Zm-5.55,73.07v-61.28h11.1v61.28Z" transform="translate(0 -68.29)"/><path class="cls-1" d="M763.09,7039.9a29,29,0,0,1-12-2.31,18.37,18.37,0,0,1-7.92-6.41,16.24,16.24,0,0,1-2.77-9.31,17.41,17.41,0,0,1,2.37-9,16.3,16.3,0,0,1,7.74-6.47q5.38-2.43,14.51-2.43h19.43v8h-19q-8.32,0-11.21,2.78a9,9,0,0,0-2.89,6.71,8.61,8.61,0,0,0,3.58,7.22q3.59,2.71,10,2.72a21,21,0,0,0,10.92-2.78,15.79,15.79,0,0,0,6.77-8.09l2.19,7.63a17.25,17.25,0,0,1-7.74,8.62Q771.53,7039.91,763.09,7039.9Zm20.11-.69v-12.95l-.57-2.43v-22.08q0-7-4.11-10.93T766.21,6987a32.56,32.56,0,0,0-10.64,1.79,27.59,27.59,0,0,0-8.79,4.8l-4.62-8.32a33.33,33.33,0,0,1,11.39-5.84,47.51,47.51,0,0,1,13.93-2q12.6,0,19.42,6.13t6.83,18.73v37Z" transform="translate(0 -68.29)"/><path class="cls-1" d="M838.24,7039.9a49.71,49.71,0,0,1-14.51-2.08,34,34,0,0,1-10.81-5.08l4.62-8.79a38,38,0,0,0,9.71,4.51,38.63,38.63,0,0,0,11.8,1.85q7.74,0,11.15-2.2a6.89,6.89,0,0,0,3.41-6.13,5.39,5.39,0,0,0-2.08-4.51,14.3,14.3,0,0,0-5.49-2.42c-2.27-.54-4.8-1-7.57-1.45s-5.55-1-8.33-1.62a33.33,33.33,0,0,1-7.63-2.77,14.48,14.48,0,0,1-5.55-5,15.41,15.41,0,0,1-2.08-8.5A15.73,15.73,0,0,1,818,6986a19.77,19.77,0,0,1,8.85-6.42,37,37,0,0,1,13.58-2.26,53.67,53.67,0,0,1,12.2,1.45,30.54,30.54,0,0,1,10.12,4.1l-4.74,8.79a26.19,26.19,0,0,0-8.67-3.81,39.71,39.71,0,0,0-9-1q-7.29,0-10.87,2.37a7.05,7.05,0,0,0-3.58,6.07,5.72,5.72,0,0,0,2.13,4.79,15.56,15.56,0,0,0,5.55,2.61,72,72,0,0,0,7.58,1.56c2.77.42,5.55,1,8.32,1.61a34.13,34.13,0,0,1,7.57,2.72,14.65,14.65,0,0,1,5.55,4.86,14.43,14.43,0,0,1,2.14,8.32,15,15,0,0,1-3.23,9.6,20.93,20.93,0,0,1-9.14,6.3A39.57,39.57,0,0,1,838.24,7039.9Z" transform="translate(0 -68.29)"/><path class="cls-1" d="M949.69,7039.9a35.63,35.63,0,0,1-17.28-4,29.18,29.18,0,0,1-11.57-11.1,31.65,31.65,0,0,1-4.1-16.19,32.27,32.27,0,0,1,4-16.18,28.85,28.85,0,0,1,11-11.05,31.39,31.39,0,0,1,15.78-4,31,31,0,0,1,15.73,3.94,27.85,27.85,0,0,1,10.69,11,34.17,34.17,0,0,1,3.88,16.59q0,.69-.06,1.62c0,.61-.1,1.19-.18,1.73H925.41v-8h46.36l-4.51,2.78a20.62,20.62,0,0,0-2.42-10.52,18.65,18.65,0,0,0-7-7.23,21.78,21.78,0,0,0-20.64,0,18.43,18.43,0,0,0-7.05,7.28,22.15,22.15,0,0,0-2.54,10.7v1.85a21.07,21.07,0,0,0,2.83,10.93,19.5,19.5,0,0,0,7.92,7.45,24.74,24.74,0,0,0,11.68,2.66,25.39,25.39,0,0,0,9.88-1.85,21.61,21.61,0,0,0,7.81-5.55l6.12,7.17a26.72,26.72,0,0,1-10.34,7.4A36,36,0,0,1,949.69,7039.9Z" transform="translate(0 -68.29)"/><path class="cls-1" d="M1054.9,7039.9a28.9,28.9,0,0,1-12-2.31,18.37,18.37,0,0,1-7.92-6.41,16.25,16.25,0,0,1-2.78-9.31,17.51,17.51,0,0,1,2.37-9,16.33,16.33,0,0,1,7.75-6.47q5.37-2.43,14.51-2.43h19.42v8h-19q-8.32,0-11.21,2.78a9,9,0,0,0-2.89,6.71,8.61,8.61,0,0,0,3.58,7.22q3.59,2.71,9.94,2.72a21,21,0,0,0,10.93-2.78,15.78,15.78,0,0,0,6.76-8.09l2.2,7.63a17.32,17.32,0,0,1-7.75,8.62Q1063.34,7039.91,1054.9,7039.9Zm20.12-.69v-12.95l-.58-2.43v-22.08q0-7-4.1-10.93T1058,6987a32.55,32.55,0,0,0-10.63,1.79,27.59,27.59,0,0,0-8.79,4.8l-4.62-8.32a33.37,33.37,0,0,1,11.38-5.84,47.62,47.62,0,0,1,13.94-2q12.6,0,19.42,6.13t6.82,18.73v37Z" transform="translate(0 -68.29)"/><path class="cls-1" d="M1130.05,7039.9a49.81,49.81,0,0,1-14.51-2.08,34.05,34.05,0,0,1-10.81-5.08l4.63-8.79a37.79,37.79,0,0,0,9.71,4.51,38.52,38.52,0,0,0,11.79,1.85c5.17,0,8.88-.73,11.16-2.2a6.92,6.92,0,0,0,3.41-6.13,5.39,5.39,0,0,0-2.08-4.51,14.37,14.37,0,0,0-5.49-2.42c-2.28-.54-4.8-1-7.58-1.45s-5.55-1-8.32-1.62a33,33,0,0,1-7.63-2.77,14.48,14.48,0,0,1-5.55-5,15.32,15.32,0,0,1-2.08-8.5,15.73,15.73,0,0,1,3.12-9.71,19.73,19.73,0,0,1,8.84-6.42,37.12,37.12,0,0,1,13.59-2.26,53.74,53.74,0,0,1,12.2,1.45,30.48,30.48,0,0,1,10.11,4.1l-4.74,8.79a26,26,0,0,0-8.67-3.81,39.58,39.58,0,0,0-9-1c-4.85,0-8.48.79-10.86,2.37a7.06,7.06,0,0,0-3.59,6.07,5.7,5.7,0,0,0,2.14,4.79,15.56,15.56,0,0,0,5.55,2.61,71.75,71.75,0,0,0,7.57,1.56c2.78.42,5.55,1,8.33,1.61a34.31,34.31,0,0,1,7.57,2.72,14.8,14.8,0,0,1,5.55,4.86,14.43,14.43,0,0,1,2.14,8.32,14.9,14.9,0,0,1-3.24,9.6,20.9,20.9,0,0,1-9.13,6.3A39.62,39.62,0,0,1,1130.05,7039.9Z" transform="translate(0 -68.29)"/><path class="cls-1" d="M1246.94,6977.35a29,29,0,0,1,13.24,2.9,20.73,20.73,0,0,1,9,8.78q3.24,5.9,3.24,14.92v35.26h-11.1v-34q0-8.91-4.34-13.41t-12.2-4.51a21.81,21.81,0,0,0-10.29,2.31,15.84,15.84,0,0,0-6.76,6.82,24,24,0,0,0-2.37,11.22v31.56h-11.1v-61.28h10.64v16.54l-1.74-4.4a21.33,21.33,0,0,1,9.25-9.36A30.28,30.28,0,0,1,1246.94,6977.35Z" transform="translate(0 -68.29)"/><path class="cls-1" d="M1325.56,7039.9a32.88,32.88,0,0,1-16.36-4,29.92,29.92,0,0,1-11.39-11.16,31.38,31.38,0,0,1-4.16-16.13,31,31,0,0,1,4.16-16.13,30.32,30.32,0,0,1,11.33-11,32.8,32.8,0,0,1,16.42-4,33.39,33.39,0,0,1,16.36,4,29.21,29.21,0,0,1,11.33,11.05,33.92,33.92,0,0,1,0,32.37,29.62,29.62,0,0,1-11.33,11.1A32.88,32.88,0,0,1,1325.56,7039.9Zm0-9.71a21,21,0,0,0,10.58-2.66,18.72,18.72,0,0,0,7.34-7.57,23.57,23.57,0,0,0,2.66-11.39,23.19,23.19,0,0,0-2.66-11.39,19,19,0,0,0-7.34-7.45,21,21,0,0,0-10.58-2.66,20.64,20.64,0,0,0-10.52,2.66,20,20,0,0,0-7.4,7.45,22.38,22.38,0,0,0-2.78,11.39,22.75,22.75,0,0,0,2.78,11.39,19.66,19.66,0,0,0,7.4,7.57A20.64,20.64,0,0,0,1325.56,7030.19Z" transform="translate(0 -68.29)"/><path class="cls-1" d="M1396.66,7039.9a49.81,49.81,0,0,1-14.51-2.08,34.05,34.05,0,0,1-10.81-5.08L1376,7024a38,38,0,0,0,9.71,4.51,38.52,38.52,0,0,0,11.79,1.85q7.76,0,11.16-2.2A6.92,6.92,0,0,0,1412,7022a5.39,5.39,0,0,0-2.08-4.51,14.37,14.37,0,0,0-5.49-2.42q-3.42-.81-7.57-1.45c-2.78-.42-5.55-1-8.33-1.62a33.16,33.16,0,0,1-7.63-2.77,14.48,14.48,0,0,1-5.55-5,15.32,15.32,0,0,1-2.08-8.5,15.73,15.73,0,0,1,3.12-9.71,19.71,19.71,0,0,1,8.85-6.42,37,37,0,0,1,13.58-2.26,53.74,53.74,0,0,1,12.2,1.45,30.63,30.63,0,0,1,10.12,4.1l-4.74,8.79a26.15,26.15,0,0,0-8.68-3.81,39.56,39.56,0,0,0-9-1q-7.29,0-10.87,2.37a7.06,7.06,0,0,0-3.59,6.07,5.73,5.73,0,0,0,2.14,4.79,15.56,15.56,0,0,0,5.55,2.61,71.75,71.75,0,0,0,7.57,1.56c2.78.42,5.55,1,8.33,1.61a34.31,34.31,0,0,1,7.57,2.72,14.8,14.8,0,0,1,5.55,4.86,14.43,14.43,0,0,1,2.14,8.32,14.9,14.9,0,0,1-3.24,9.6,20.9,20.9,0,0,1-9.13,6.3A39.59,39.59,0,0,1,1396.66,7039.9Z" transform="translate(0 -68.29)"/><path class="cls-1" d="M1461,7039.9a49.71,49.71,0,0,1-14.51-2.08,34,34,0,0,1-10.81-5.08l4.62-8.79a38,38,0,0,0,9.71,4.51,38.63,38.63,0,0,0,11.8,1.85q7.74,0,11.15-2.2a6.89,6.89,0,0,0,3.41-6.13,5.39,5.39,0,0,0-2.08-4.51,14.3,14.3,0,0,0-5.49-2.42c-2.27-.54-4.8-1-7.57-1.45s-5.55-1-8.33-1.62a33.33,33.33,0,0,1-7.63-2.77,14.48,14.48,0,0,1-5.55-5,15.41,15.41,0,0,1-2.08-8.5,15.73,15.73,0,0,1,3.12-9.71,19.71,19.71,0,0,1,8.85-6.42,37,37,0,0,1,13.58-2.26,53.67,53.67,0,0,1,12.2,1.45,30.54,30.54,0,0,1,10.12,4.1l-4.74,8.79a26.19,26.19,0,0,0-8.67-3.81,39.71,39.71,0,0,0-9-1q-7.29,0-10.87,2.37a7.05,7.05,0,0,0-3.58,6.07,5.72,5.72,0,0,0,2.13,4.79,15.56,15.56,0,0,0,5.55,2.61,72,72,0,0,0,7.58,1.56c2.77.42,5.55,1,8.32,1.61a34.13,34.13,0,0,1,7.57,2.72,14.65,14.65,0,0,1,5.55,4.86,14.43,14.43,0,0,1,2.14,8.32,15,15,0,0,1-3.23,9.6,20.93,20.93,0,0,1-9.14,6.3A39.57,39.57,0,0,1,1461,7039.9Z" transform="translate(0 -68.29)"/><path class="cls-1" d="M1525.58,7039.9a29,29,0,0,1-12-2.31,18.37,18.37,0,0,1-7.92-6.41,16.24,16.24,0,0,1-2.77-9.31,17.41,17.41,0,0,1,2.37-9,16.3,16.3,0,0,1,7.74-6.47q5.38-2.43,14.51-2.43H1547v8h-19q-8.32,0-11.21,2.78a9,9,0,0,0-2.89,6.71,8.61,8.61,0,0,0,3.58,7.22q3.58,2.71,10,2.72a21,21,0,0,0,10.92-2.78,15.79,15.79,0,0,0,6.77-8.09l2.19,7.63a17.25,17.25,0,0,1-7.74,8.62Q1534,7039.91,1525.58,7039.9Zm20.11-.69v-12.95l-.57-2.43v-22.08q0-7-4.11-10.93T1528.7,6987a32.56,32.56,0,0,0-10.64,1.79,27.59,27.59,0,0,0-8.79,4.8l-4.62-8.32a33.33,33.33,0,0,1,11.39-5.84,47.51,47.51,0,0,1,13.93-2q12.6,0,19.42,6.13t6.82,18.73v37Z" transform="translate(0 -68.29)"/><path class="cls-1" d="M1600.73,7039.9a49.71,49.71,0,0,1-14.51-2.08,34,34,0,0,1-10.81-5.08L1580,7024a38,38,0,0,0,9.71,4.51,38.63,38.63,0,0,0,11.8,1.85q7.74,0,11.15-2.2a6.89,6.89,0,0,0,3.41-6.13,5.39,5.39,0,0,0-2.08-4.51,14.37,14.37,0,0,0-5.49-2.42c-2.27-.54-4.8-1-7.57-1.45s-5.55-1-8.33-1.62a33.33,33.33,0,0,1-7.63-2.77,14.48,14.48,0,0,1-5.55-5,15.41,15.41,0,0,1-2.08-8.5,15.73,15.73,0,0,1,3.12-9.71,19.71,19.71,0,0,1,8.85-6.42,37,37,0,0,1,13.58-2.26,53.67,53.67,0,0,1,12.2,1.45,30.54,30.54,0,0,1,10.12,4.1l-4.74,8.79a26.19,26.19,0,0,0-8.67-3.81,39.71,39.71,0,0,0-9-1q-7.29,0-10.87,2.37a7.05,7.05,0,0,0-3.58,6.07,5.72,5.72,0,0,0,2.13,4.79,15.56,15.56,0,0,0,5.55,2.61,72,72,0,0,0,7.58,1.56c2.77.42,5.55,1,8.32,1.61a34.13,34.13,0,0,1,7.57,2.72,14.65,14.65,0,0,1,5.55,4.86,14.43,14.43,0,0,1,2.14,8.32,15,15,0,0,1-3.23,9.6,20.93,20.93,0,0,1-9.14,6.3A39.57,39.57,0,0,1,1600.73,7039.9Z" transform="translate(0 -68.29)"/><path class="cls-1" d="M1701,7039.21l-26.82-61.28h11.56l23.82,55.5H1704l24.28-55.5h10.87l-26.82,61.28Z" transform="translate(0 -68.29)"/><path class="cls-1" d="M1780.39,7039.9a32.88,32.88,0,0,1-16.36-4,29.92,29.92,0,0,1-11.39-11.16,31.38,31.38,0,0,1-4.16-16.13,31,31,0,0,1,4.16-16.13,30.35,30.35,0,0,1,11.34-11,32.76,32.76,0,0,1,16.41-4,33.39,33.39,0,0,1,16.36,4,29.14,29.14,0,0,1,11.33,11.05,33.92,33.92,0,0,1,0,32.37,29.55,29.55,0,0,1-11.33,11.1A32.88,32.88,0,0,1,1780.39,7039.9Zm0-9.71a21,21,0,0,0,10.58-2.66,18.72,18.72,0,0,0,7.34-7.57,23.46,23.46,0,0,0,2.66-11.39,23.08,23.08,0,0,0-2.66-11.39,19,19,0,0,0-7.34-7.45,21,21,0,0,0-10.58-2.66,20.64,20.64,0,0,0-10.52,2.66,20,20,0,0,0-7.4,7.45,22.38,22.38,0,0,0-2.77,11.39,22.74,22.74,0,0,0,2.77,11.39,19.66,19.66,0,0,0,7.4,7.57A20.64,20.64,0,0,0,1780.39,7030.19Z" transform="translate(0 -68.29)"/><path class="cls-1" d="M1866.64,6977.35a28.94,28.94,0,0,1,13.24,2.9,20.68,20.68,0,0,1,9,8.78q3.24,5.9,3.24,14.92v35.26H1881v-34q0-8.91-4.34-13.41t-12.19-4.51a21.79,21.79,0,0,0-10.29,2.31,15.87,15.87,0,0,0-6.77,6.82,24,24,0,0,0-2.37,11.22v31.56h-11.1v-61.28h10.64v16.54l-1.73-4.4a21.23,21.23,0,0,1,9.25-9.36A30.24,30.24,0,0,1,1866.64,6977.35Z" transform="translate(0 -68.29)"/><path class="cls-1" d="M1910.23,6987.07v-9.14h39.08v9.14Zm29.83,52.83q-9.25,0-14.34-5t-5.08-14.22v-56.19h11.1v55.73c0,3.31.82,5.86,2.48,7.63s4,2.66,7.11,2.66a13.06,13.06,0,0,0,8.67-2.89l3.47,8a16.1,16.1,0,0,1-6.07,3.23A25.59,25.59,0,0,1,1940.06,7039.9Z" transform="translate(0 -68.29)"/><path class="cls-1" d="M1991.16,7039.9a28.9,28.9,0,0,1-12-2.31,18.31,18.31,0,0,1-7.92-6.41,16.25,16.25,0,0,1-2.78-9.31,17.51,17.51,0,0,1,2.37-9,16.33,16.33,0,0,1,7.75-6.47q5.37-2.43,14.51-2.43h19.42v8h-19q-8.33,0-11.22,2.78a9,9,0,0,0-2.89,6.71,8.62,8.62,0,0,0,3.59,7.22q3.59,2.71,9.94,2.72a21,21,0,0,0,10.93-2.78,15.78,15.78,0,0,0,6.76-8.09l2.2,7.63a17.32,17.32,0,0,1-7.75,8.62Q1999.6,7039.91,1991.16,7039.9Zm20.12-.69v-12.95l-.58-2.43v-22.08q0-7-4.1-10.93t-12.32-3.87a32.55,32.55,0,0,0-10.63,1.79,27.59,27.59,0,0,0-8.79,4.8l-4.62-8.32a33.28,33.28,0,0,1,11.38-5.84,47.58,47.58,0,0,1,13.94-2q12.6,0,19.42,6.13t6.82,18.73v37Z" transform="translate(0 -68.29)"/><path class="cls-1" d="M2074.06,7039.9a31.88,31.88,0,0,1-15.9-3.93,28.82,28.82,0,0,1-11-11,35.19,35.19,0,0,1,0-32.78,28.94,28.94,0,0,1,11-10.92,31.88,31.88,0,0,1,15.9-3.94,28.35,28.35,0,0,1,14,3.47,25.4,25.4,0,0,1,10,10.41q3.75,6.93,3.76,17.34t-3.65,17.34a24.92,24.92,0,0,1-9.88,10.47A28.4,28.4,0,0,1,2074.06,7039.9Zm.92-9.71a20.77,20.77,0,0,0,10.47-2.66,19.19,19.19,0,0,0,7.4-7.57,23.14,23.14,0,0,0,2.71-11.39,22.77,22.77,0,0,0-2.71-11.39,19.47,19.47,0,0,0-7.4-7.45,22,22,0,0,0-21,0,20,20,0,0,0-7.4,7.45,22.38,22.38,0,0,0-2.77,11.39,22.74,22.74,0,0,0,2.77,11.39,19.66,19.66,0,0,0,7.4,7.57A20.64,20.64,0,0,0,2075,7030.19Zm20.93,9v-16.53l.69-14.22-1.15-14.23v-40.81h11.1v85.79Z" transform="translate(0 -68.29)"/><path class="cls-1" d="M2161.23,7039.9a35.63,35.63,0,0,1-17.28-4,29.15,29.15,0,0,1-11.56-11.1,31.56,31.56,0,0,1-4.11-16.19,32.27,32.27,0,0,1,4-16.18,28.85,28.85,0,0,1,11-11.05,31.43,31.43,0,0,1,15.79-4,30.94,30.94,0,0,1,15.72,3.94,27.78,27.78,0,0,1,10.69,11,34.06,34.06,0,0,1,3.88,16.59q0,.69-.06,1.62c0,.61-.1,1.19-.17,1.73H2137v-8h46.37l-4.51,2.78a20.73,20.73,0,0,0-2.43-10.52,18.65,18.65,0,0,0-7-7.23,21.76,21.76,0,0,0-20.63,0,18.39,18.39,0,0,0-7.06,7.28,22.15,22.15,0,0,0-2.54,10.7v1.85a21.07,21.07,0,0,0,2.83,10.93,19.5,19.5,0,0,0,7.92,7.45,24.77,24.77,0,0,0,11.68,2.66,25.36,25.36,0,0,0,9.88-1.85,21.61,21.61,0,0,0,7.81-5.55l6.13,7.17a26.83,26.83,0,0,1-10.35,7.4A36,36,0,0,1,2161.23,7039.9Z" transform="translate(0 -68.29)"/><path class="cls-1" d="M2228.64,7039.9a49.71,49.71,0,0,1-14.51-2.08,34,34,0,0,1-10.81-5.08l4.62-8.79a38,38,0,0,0,9.71,4.51,38.63,38.63,0,0,0,11.8,1.85q7.74,0,11.15-2.2A6.89,6.89,0,0,0,2244,7022a5.39,5.39,0,0,0-2.08-4.51,14.3,14.3,0,0,0-5.49-2.42c-2.27-.54-4.8-1-7.57-1.45s-5.55-1-8.33-1.62a33.33,33.33,0,0,1-7.63-2.77,14.48,14.48,0,0,1-5.55-5,15.41,15.41,0,0,1-2.08-8.5,15.73,15.73,0,0,1,3.12-9.71,19.77,19.77,0,0,1,8.85-6.42,37,37,0,0,1,13.58-2.26,53.67,53.67,0,0,1,12.2,1.45,30.54,30.54,0,0,1,10.12,4.1l-4.74,8.79a26.19,26.19,0,0,0-8.67-3.81,39.71,39.71,0,0,0-9-1q-7.29,0-10.87,2.37a7.05,7.05,0,0,0-3.58,6.07,5.7,5.7,0,0,0,2.14,4.79,15.4,15.4,0,0,0,5.55,2.61,71.22,71.22,0,0,0,7.57,1.56c2.77.42,5.55,1,8.32,1.61a34.4,34.4,0,0,1,7.58,2.72,14.8,14.8,0,0,1,5.55,4.86,14.51,14.51,0,0,1,2.13,8.32,15,15,0,0,1-3.23,9.6,20.93,20.93,0,0,1-9.14,6.3A39.57,39.57,0,0,1,2228.64,7039.9Z" transform="translate(0 -68.29)"/><path class="cls-1" d="M2271,7056.32l5.78-23.35,1.51,6.7a7.93,7.93,0,0,1-5.61-2.08,7.34,7.34,0,0,1-2.26-5.66,7.62,7.62,0,0,1,7.75-7.87,7,7,0,0,1,5.43,2.26,7.94,7.94,0,0,1,2.09,5.61,13.85,13.85,0,0,1-.18,2.25,22.07,22.07,0,0,1-.58,2.55c-.27,1-.67,2.13-1.21,3.52l-5.43,16.07Z" transform="translate(0 -68.29)"/><path class="cls-1" d="M34.94,7210.28v-83.71H45.57v16.53l-.69,14.22L46,7171.55v38.73Zm32.48-21.74A28.05,28.05,0,0,1,53.49,7185a25.62,25.62,0,0,1-10.06-10.47q-3.75-6.93-3.75-17.34t3.64-17.34a24.49,24.49,0,0,1,9.94-10.41A28.89,28.89,0,0,1,67.42,7126a31.82,31.82,0,0,1,16,3.93,29.17,29.17,0,0,1,11,10.93,32.07,32.07,0,0,1,4,16.36,32.4,32.4,0,0,1-4,16.42,29,29,0,0,1-11,11A31.82,31.82,0,0,1,67.42,7188.54Zm-.92-9.71a21.07,21.07,0,0,0,10.58-2.66,19.19,19.19,0,0,0,7.4-7.57,23.17,23.17,0,0,0,2.71-11.39,22.77,22.77,0,0,0-2.71-11.39,19.43,19.43,0,0,0-7.4-7.46,21.07,21.07,0,0,0-10.58-2.66A20.81,20.81,0,0,0,56,7138.36a19.36,19.36,0,0,0-7.4,7.46,22.67,22.67,0,0,0-2.72,11.39,23.07,23.07,0,0,0,2.72,11.39,19.12,19.12,0,0,0,7.4,7.57A20.81,20.81,0,0,0,66.5,7178.83Z" transform="translate(0 -68.29)"/><path class="cls-1" d="M146.39,7188.54a33,33,0,0,1-16.36-4,29.92,29.92,0,0,1-11.39-11.16,31.38,31.38,0,0,1-4.16-16.13,31,31,0,0,1,4.16-16.13A30.32,30.32,0,0,1,130,7130a32.8,32.8,0,0,1,16.42-4.05,33.28,33.28,0,0,1,16.36,4,29.19,29.19,0,0,1,11.33,11,34,34,0,0,1,0,32.38,29.62,29.62,0,0,1-11.33,11.1A33,33,0,0,1,146.39,7188.54Zm0-9.71a21.07,21.07,0,0,0,10.58-2.66,18.78,18.78,0,0,0,7.34-7.57,23.6,23.6,0,0,0,2.66-11.39,23.19,23.19,0,0,0-2.66-11.39,19,19,0,0,0-7.34-7.46,21.07,21.07,0,0,0-10.58-2.66,20.74,20.74,0,0,0-10.52,2.66,20,20,0,0,0-7.4,7.46,22.38,22.38,0,0,0-2.78,11.39,22.77,22.77,0,0,0,2.78,11.39,19.73,19.73,0,0,0,7.4,7.57A20.74,20.74,0,0,0,146.39,7178.83Z" transform="translate(0 -68.29)"/><path class="cls-1" d="M199.92,7187.85v-61.28h10.64v16.65l-1-4.16a18.75,18.75,0,0,1,8.55-9.71q6-3.36,14.8-3.36v10.76a7.82,7.82,0,0,0-1.33-.12h-1.21q-8.91,0-14.11,5.32t-5.2,15.37v30.53Z" transform="translate(0 -68.29)"/><path class="cls-1" d="M277.61,7188.54a31.87,31.87,0,0,1-15.89-3.93,28.69,28.69,0,0,1-11-11,32.4,32.4,0,0,1-4.05-16.42,32.07,32.07,0,0,1,4.05-16.36,28.9,28.9,0,0,1,11-10.93,31.87,31.87,0,0,1,15.89-3.93,28.86,28.86,0,0,1,14.23,3.47,24.59,24.59,0,0,1,9.88,10.41q3.64,6.93,3.64,17.34t-3.75,17.34a25.7,25.7,0,0,1-10,10.47A27.93,27.93,0,0,1,277.61,7188.54Zm.93-9.71a20.84,20.84,0,0,0,10.46-2.66,19.19,19.19,0,0,0,7.4-7.57,23.18,23.18,0,0,0,2.72-11.39,22.77,22.77,0,0,0-2.72-11.39,19.43,19.43,0,0,0-7.4-7.46,22,22,0,0,0-21,0,19.92,19.92,0,0,0-7.4,7.46,22.38,22.38,0,0,0-2.78,11.39,22.77,22.77,0,0,0,2.78,11.39,19.66,19.66,0,0,0,7.4,7.57A20.74,20.74,0,0,0,278.54,7178.83ZM299,7210.28v-38.73l1.16-14.23-.69-14.22v-16.53H310.1v83.71Z" transform="translate(0 -68.29)"/><path class="cls-1" d="M363.29,7188.54a31.23,31.23,0,0,1-13.82-2.89,20.68,20.68,0,0,1-9.25-8.84q-3.3-6-3.29-15v-35.26H348v34q0,9,4.34,13.53t12.2,4.51a20.47,20.47,0,0,0,10.06-2.37,16,16,0,0,0,6.59-6.94,24.21,24.21,0,0,0,2.31-11v-31.68h11.1v61.28H384.1v-16.54l1.73,4.4a21.46,21.46,0,0,1-9,9.48A27.22,27.22,0,0,1,363.29,7188.54Z" transform="translate(0 -68.29)"/><path class="cls-1" d="M449.42,7188.54a35.81,35.81,0,0,1-17.29-4,29.22,29.22,0,0,1-11.56-11.1,31.65,31.65,0,0,1-4.1-16.19,32.33,32.33,0,0,1,4-16.19,28.83,28.83,0,0,1,11-11,31.26,31.26,0,0,1,15.78-4,31,31,0,0,1,15.73,3.93A27.94,27.94,0,0,1,473.64,7141a34.17,34.17,0,0,1,3.87,16.59c0,.46,0,1-.05,1.62s-.1,1.19-.18,1.73H425.14v-8H471.5l-4.51,2.78a20.62,20.62,0,0,0-2.42-10.52,18.51,18.51,0,0,0-7-7.23,21.78,21.78,0,0,0-20.64,0,18.37,18.37,0,0,0-7.05,7.28,22,22,0,0,0-2.54,10.7v1.85a21,21,0,0,0,2.83,10.92,19.45,19.45,0,0,0,7.92,7.46,24.86,24.86,0,0,0,11.68,2.66,25.57,25.57,0,0,0,9.88-1.85,21.61,21.61,0,0,0,7.81-5.55l6.12,7.17a26.82,26.82,0,0,1-10.34,7.4A36.16,36.16,0,0,1,449.42,7188.54Z" transform="translate(0 -68.29)"/><path class="cls-1" d="M561.49,7187.85l-35.42-80.49h12.42L571,7181.64H563.9l32.77-74.28h11.5l-35.3,80.49Z" transform="translate(0 -68.29)"/><path class="cls-1" d="M624.72,7187.85v-80.49h11.5v80.49Z" transform="translate(0 -68.29)"/><path class="cls-1" d="M689.11,7187.85l-35.41-80.49h12.42l32.53,74.28h-7.12l32.76-74.28h11.5l-35.3,80.49Z" transform="translate(0 -68.29)"/><path class="cls-1" d="M763.84,7177.85h46.91v10h-58.4v-80.49h56.8v10H763.84Zm-1-35.76H804.2v9.77H762.81Z" transform="translate(0 -68.29)"/><path class="cls-1" d="M835.7,7187.85v-80.49h9.43l36.11,60.83h-5.06l35.64-60.83h9.43l.11,80.49h-11l-.11-63.12h2.64l-31.73,53.34h-5.29l-32-53.34h2.87v63.12Z" transform="translate(0 -68.29)"/><path class="cls-1" d="M988.16,7188.77a46.13,46.13,0,0,1-17.07-3.11,40.79,40.79,0,0,1-13.63-8.68,40,40,0,0,1-9-13,43.12,43.12,0,0,1,0-32.65,40.23,40.23,0,0,1,9-13.05,40.93,40.93,0,0,1,13.57-8.68,46,46,0,0,1,17.13-3.11,46.55,46.55,0,0,1,17,3.05,40.28,40.28,0,0,1,13.56,8.62,39.18,39.18,0,0,1,8.92,13.11,44.21,44.21,0,0,1,0,32.83,39.33,39.33,0,0,1-8.92,13.05,40.12,40.12,0,0,1-13.56,8.62A46.55,46.55,0,0,1,988.16,7188.77Zm0-10.24a32.71,32.71,0,0,0,12.36-2.29,29.44,29.44,0,0,0,9.89-6.5,30.18,30.18,0,0,0,6.55-9.83,31.61,31.61,0,0,0,2.36-12.3,30.76,30.76,0,0,0-8.91-22.08,29,29,0,0,0-9.89-6.55,34.66,34.66,0,0,0-24.83,0,29.61,29.61,0,0,0-10,6.55,30.57,30.57,0,0,0-6.61,9.83,31.18,31.18,0,0,0-2.36,12.25,31.61,31.61,0,0,0,2.36,12.3,29.72,29.72,0,0,0,6.61,9.83,30.1,30.1,0,0,0,10,6.5A33,33,0,0,0,988.16,7178.53Z" transform="translate(0 -68.29)"/><path class="cls-1" d="M1078.19,7188.77a54.79,54.79,0,0,1-17.59-2.82q-8.4-2.82-13.23-7.3l4.26-9a37,37,0,0,0,11.73,6.67,42.33,42.33,0,0,0,14.83,2.64,33.63,33.63,0,0,0,11.38-1.6A13.55,13.55,0,0,0,1096,7173a10.52,10.52,0,0,0,2.07-6.38,8.72,8.72,0,0,0-2.7-6.67,20,20,0,0,0-7-4.08,75.62,75.62,0,0,0-9.48-2.7q-5.18-1.16-10.41-2.71a46.1,46.1,0,0,1-9.54-4,19.56,19.56,0,0,1-7-6.5,19.06,19.06,0,0,1-2.64-10.52,21.1,21.1,0,0,1,3.28-11.44,22.71,22.71,0,0,1,10.11-8.39q6.84-3.16,17.42-3.17a54,54,0,0,1,13.91,1.84,38.84,38.84,0,0,1,12,5.29l-3.79,9.2a37.06,37.06,0,0,0-10.93-5,42.47,42.47,0,0,0-11.15-1.55,30.69,30.69,0,0,0-11.15,1.72,13.64,13.64,0,0,0-6.38,4.6,11,11,0,0,0-2,6.44,8.83,8.83,0,0,0,2.7,6.78,19.42,19.42,0,0,0,7,4,95.73,95.73,0,0,0,9.49,2.7c3.45.8,6.91,1.71,10.4,2.7a44.74,44.74,0,0,1,9.55,3.91,19.73,19.73,0,0,1,7,6.44,18.53,18.53,0,0,1,2.65,10.35,20.68,20.68,0,0,1-3.34,11.32,23,23,0,0,1-10.29,8.4Q1088.76,7188.78,1078.19,7188.77Z" transform="translate(0 -68.29)"/><path class="cls-1" d="M1157.52,7187.85l36.45-80.49h11.38l36.56,80.49h-12.07l-32.54-74.05h4.6l-32.54,74.05Zm15.52-20.12,3.11-9.2h45.3l3.33,9.2Z" transform="translate(0 -68.29)"/><path class="cls-1" d="M1285.26,7187.85l36.44-80.49h11.39l36.56,80.49h-12.07L1325,7113.8h4.6l-32.54,74.05Zm15.52-20.12,3.1-9.2h45.3l3.34,9.2Z" transform="translate(0 -68.29)"/><path class="cls-1" d="M1387.93,7187.85v-80.49h33.92a49,49,0,0,1,22.71,5.06,37.42,37.42,0,0,1,15.29,14.15,43.27,43.27,0,0,1,0,42.08,37.4,37.4,0,0,1-15.29,14.14,49,49,0,0,1-22.71,5.06Zm11.5-10h21.73a37,37,0,0,0,17.3-3.8,27.63,27.63,0,0,0,11.33-10.63,33.22,33.22,0,0,0,0-31.68,27.77,27.77,0,0,0-11.33-10.58,37,37,0,0,0-17.3-3.79h-21.73Z" transform="translate(0 -68.29)"/><path class="cls-1" d="M1525.56,7188.77a46.14,46.14,0,0,1-17.08-3.11,40.75,40.75,0,0,1-13.62-8.68,39.71,39.71,0,0,1-9-13,43,43,0,0,1,0-32.65,39.92,39.92,0,0,1,9-13.05,40.89,40.89,0,0,1,13.56-8.68,48.87,48.87,0,0,1,34.15-.06,40.32,40.32,0,0,1,13.57,8.62,39.3,39.3,0,0,1,8.91,13.11,44.21,44.21,0,0,1,0,32.83,39.46,39.46,0,0,1-8.91,13.05,40.17,40.17,0,0,1-13.57,8.62A46.46,46.46,0,0,1,1525.56,7188.77Zm0-10.24a32.78,32.78,0,0,0,12.36-2.29,29.5,29.5,0,0,0,9.88-6.5,30.21,30.21,0,0,0,6.56-9.83,31.6,31.6,0,0,0,2.35-12.3,30.65,30.65,0,0,0-8.91-22.08,29,29,0,0,0-9.88-6.55,34.68,34.68,0,0,0-24.84,0,29.57,29.57,0,0,0-9.94,6.55,30.59,30.59,0,0,0-6.62,9.83,31.18,31.18,0,0,0-2.35,12.25,31.6,31.6,0,0,0,2.35,12.3,29.75,29.75,0,0,0,6.62,9.83,30.05,30.05,0,0,0,9.94,6.5A33,33,0,0,0,1525.56,7178.53Z" transform="translate(0 -68.29)"/><path class="cls-1" d="M1592.13,7187.85v-80.49h11.49v70.49h43.58v10Z" transform="translate(0 -68.29)"/><path class="cls-1" d="M1678.24,7177.85h46.91v10h-58.4v-80.49h56.79v10h-45.3Zm-1-35.76h41.39v9.77h-41.39Z" transform="translate(0 -68.29)"/><path class="cls-1" d="M1773.56,7188.77A54.84,54.84,0,0,1,1756,7186q-8.4-2.82-13.23-7.3l4.26-9a37,37,0,0,0,11.73,6.67,42.33,42.33,0,0,0,14.83,2.64,33.63,33.63,0,0,0,11.38-1.6,13.55,13.55,0,0,0,6.44-4.43,10.52,10.52,0,0,0,2.07-6.38,8.72,8.72,0,0,0-2.7-6.67,19.89,19.89,0,0,0-7-4.08,75.62,75.62,0,0,0-9.48-2.7q-5.18-1.16-10.41-2.71a46.1,46.1,0,0,1-9.54-4,19.65,19.65,0,0,1-7-6.5,19.06,19.06,0,0,1-2.64-10.52A21.1,21.1,0,0,1,1748,7118a22.71,22.71,0,0,1,10.11-8.39q6.84-3.16,17.42-3.17a54.1,54.1,0,0,1,13.92,1.84,38.89,38.89,0,0,1,12,5.29l-3.79,9.2a37.12,37.12,0,0,0-10.92-5,42.54,42.54,0,0,0-11.16-1.55,30.69,30.69,0,0,0-11.15,1.72,13.64,13.64,0,0,0-6.38,4.6,11,11,0,0,0-2,6.44,8.83,8.83,0,0,0,2.7,6.78,19.42,19.42,0,0,0,7,4,95.73,95.73,0,0,0,9.49,2.7c3.45.8,6.91,1.71,10.4,2.7a44.74,44.74,0,0,1,9.55,3.91,19.73,19.73,0,0,1,7,6.44,18.45,18.45,0,0,1,2.65,10.35,20.59,20.59,0,0,1-3.34,11.32,23,23,0,0,1-10.29,8.4Q1784.13,7188.78,1773.56,7188.77Z" transform="translate(0 -68.29)"/><path class="cls-1" d="M1863.81,7188.77a46.07,46.07,0,0,1-17-3.05,39.75,39.75,0,0,1-13.45-8.62,40.4,40.4,0,0,1-12.13-29.49,41.12,41.12,0,0,1,3.22-16.45,40,40,0,0,1,22.48-21.67,48.43,48.43,0,0,1,34.15.12,35.21,35.21,0,0,1,13.39,9.37l-7.47,7.24a30.06,30.06,0,0,0-10.35-7.19,32.11,32.11,0,0,0-12.3-2.35,33.71,33.71,0,0,0-12.59,2.3,30.08,30.08,0,0,0-10.06,6.44,28.93,28.93,0,0,0-6.61,9.83,33.55,33.55,0,0,0,0,24.72,29,29,0,0,0,6.61,9.83,30.24,30.24,0,0,0,10.06,6.44,33.91,33.91,0,0,0,12.59,2.29,32.11,32.11,0,0,0,12.3-2.35,29.34,29.34,0,0,0,10.35-7.3l7.47,7.24a35.8,35.8,0,0,1-13.39,9.43A45.25,45.25,0,0,1,1863.81,7188.77Z" transform="translate(0 -68.29)"/><path class="cls-1" d="M1928.77,7177.85h46.91v10h-58.4v-80.49h56.79v10h-45.3Zm-3.56-77,15.29-15h10.58l15.29,15h-10l-15.18-12.65h9.2l-15.18,12.65Zm2.53,41.28h41.39v9.77h-41.39Z" transform="translate(0 -68.29)"/><path class="cls-1" d="M2000.63,7187.85v-80.49h9.43l53.24,66.12h-5v-66.12h11.5v80.49h-9.43l-53.23-66.11h4.94v66.11Z" transform="translate(0 -68.29)"/><path class="cls-1" d="M2136.31,7188.77a46,46,0,0,1-17-3.05,39.55,39.55,0,0,1-13.45-8.62,40.56,40.56,0,0,1-8.92-13.05,43.73,43.73,0,0,1,0-32.89,40,40,0,0,1,22.48-21.67,48.43,48.43,0,0,1,34.15.12A35.25,35.25,0,0,1,2167,7119l-7.48,7.24a30,30,0,0,0-10.35-7.19,32.11,32.11,0,0,0-12.3-2.35,33.75,33.75,0,0,0-12.59,2.3,30.18,30.18,0,0,0-10.06,6.44,28.93,28.93,0,0,0-6.61,9.83,33.55,33.55,0,0,0,0,24.72,29,29,0,0,0,6.61,9.83,30.34,30.34,0,0,0,10.06,6.44,34,34,0,0,0,12.59,2.29,32.11,32.11,0,0,0,12.3-2.35,29.25,29.25,0,0,0,10.35-7.3l7.48,7.24a35.83,35.83,0,0,1-13.4,9.43A45.24,45.24,0,0,1,2136.31,7188.77Z" transform="translate(0 -68.29)"/><path class="cls-1" d="M2189.77,7187.85v-80.49h11.5v80.49Z" transform="translate(0 -68.29)"/><path class="cls-1" d="M2219.55,7187.85l36.45-80.49h11.38l36.56,80.49h-12.07l-32.54-74.05h4.6l-32.54,74.05Zm15.52-20.12,3.1-9.2h45.31l3.33,9.2Z" transform="translate(0 -68.29)"/><path class="cls-1" d="M72.47,7337.41a46,46,0,0,1-16.95-3.05,39.84,39.84,0,0,1-13.46-8.62,40.69,40.69,0,0,1-8.91-13.05,43.6,43.6,0,0,1,0-32.89,40,40,0,0,1,22.48-21.67,46,46,0,0,1,17-3.05,45.87,45.87,0,0,1,17.19,3.16,35.32,35.32,0,0,1,13.39,9.37l-7.47,7.25a29.92,29.92,0,0,0-10.35-7.19,32.11,32.11,0,0,0-12.3-2.35,34,34,0,0,0-12.59,2.29,30.24,30.24,0,0,0-10.06,6.44,29,29,0,0,0-6.61,9.83,33.55,33.55,0,0,0,0,24.72,28.83,28.83,0,0,0,6.61,9.83,30.08,30.08,0,0,0,10.06,6.44,33.75,33.75,0,0,0,12.59,2.3,32.11,32.11,0,0,0,12.3-2.35,29.34,29.34,0,0,0,10.35-7.3l7.47,7.24a35.8,35.8,0,0,1-13.39,9.43A45.44,45.44,0,0,1,72.47,7337.41Z" transform="translate(0 -68.29)"/><path class="cls-1" d="M160.55,7337.41a46.14,46.14,0,0,1-17.08-3.11,40.75,40.75,0,0,1-13.62-8.68,39.92,39.92,0,0,1-9-13.05,43,43,0,0,1,0-32.65,39.92,39.92,0,0,1,9-13.05,40.89,40.89,0,0,1,13.56-8.68,48.87,48.87,0,0,1,34.15-.06,40.32,40.32,0,0,1,13.57,8.62,39.3,39.3,0,0,1,8.91,13.11,44.21,44.21,0,0,1,0,32.83,39.46,39.46,0,0,1-8.91,13.05,40.32,40.32,0,0,1-13.57,8.62A46.46,46.46,0,0,1,160.55,7337.41Zm0-10.24a32.59,32.59,0,0,0,12.36-2.3,29.32,29.32,0,0,0,9.88-6.49,30.32,30.32,0,0,0,6.56-9.83,31.62,31.62,0,0,0,2.35-12.31,30.65,30.65,0,0,0-8.91-22.07,29.06,29.06,0,0,0-9.88-6.56,34.82,34.82,0,0,0-24.84,0,29.6,29.6,0,0,0-9.94,6.56,30.59,30.59,0,0,0-6.62,9.83,31.16,31.16,0,0,0-2.35,12.24,31.62,31.62,0,0,0,2.35,12.31,29.87,29.87,0,0,0,16.56,16.32A32.88,32.88,0,0,0,160.55,7327.17Z" transform="translate(0 -68.29)"/><path class="cls-1" d="M227.12,7336.49V7256h9.42l36.11,60.82h-5.06L303.23,7256h9.43l.11,80.49h-11l-.12-63.13h2.65l-31.74,53.35h-5.29l-32-53.35h2.87v63.13Z" transform="translate(0 -68.29)"/><path class="cls-1" d="M379.57,7337.41a46.13,46.13,0,0,1-17.07-3.11,40.75,40.75,0,0,1-13.62-8.68,39.92,39.92,0,0,1-9-13.05,43,43,0,0,1,0-32.65,39.92,39.92,0,0,1,9-13.05,40.89,40.89,0,0,1,13.56-8.68,48.87,48.87,0,0,1,34.15-.06,40.42,40.42,0,0,1,13.57,8.62,39.3,39.3,0,0,1,8.91,13.11,44.21,44.21,0,0,1,0,32.83,39.46,39.46,0,0,1-8.91,13.05,40.42,40.42,0,0,1-13.57,8.62A46.47,46.47,0,0,1,379.57,7337.41Zm0-10.24a32.52,32.52,0,0,0,12.36-2.3,29.26,29.26,0,0,0,9.89-6.49,30.48,30.48,0,0,0,6.56-9.83,31.62,31.62,0,0,0,2.35-12.31,30.65,30.65,0,0,0-8.91-22.07,29,29,0,0,0-9.89-6.56,34.8,34.8,0,0,0-24.83,0,29.64,29.64,0,0,0-10,6.56,30.73,30.73,0,0,0-6.61,9.83,31.16,31.16,0,0,0-2.35,12.24,31.62,31.62,0,0,0,2.35,12.31,29.79,29.79,0,0,0,16.56,16.32A32.83,32.83,0,0,0,379.57,7327.17Z" transform="translate(0 -68.29)"/><path class="cls-1" d="M494.89,7326.48H541.8v10H483.4V7256h56.79v10h-45.3Zm-1-35.75h41.39v9.77H493.86Z" transform="translate(0 -68.29)"/><path class="cls-1" d="M566.75,7336.49V7256h11.5v70.48h43.58v10Z" transform="translate(0 -68.29)"/><path class="cls-1" d="M629.19,7336.49,665.63,7256H677l36.56,80.49H701.51L669,7262.44h4.6L641,7336.49Zm15.52-20.13,3.1-9.19h45.3l3.34,9.19Z" transform="translate(0 -68.29)"/><path class="cls-1" d="M769.11,7336.49V7256H803a49,49,0,0,1,22.71,5.06A37.46,37.46,0,0,1,841,7275.2a43.27,43.27,0,0,1,0,42.08,37.35,37.35,0,0,1-15.29,14.15,49,49,0,0,1-22.71,5.06Zm11.5-10h21.73a37,37,0,0,0,17.3-3.79A27.65,27.65,0,0,0,831,7312.05a33.2,33.2,0,0,0,0-31.67,27.77,27.77,0,0,0-11.33-10.58,37,37,0,0,0-17.3-3.79H780.61Z" transform="translate(0 -68.29)"/><path class="cls-1" d="M881.9,7326.48h46.91v10H870.4V7256h56.8v10H881.9Zm-1-35.75h41.39v9.77H880.87Z" transform="translate(0 -68.29)"/><path class="cls-1" d="M975.84,7336.49,940.43,7256h12.41l32.54,74.28h-7.13L1011,7256h11.5l-35.3,80.49Z" transform="translate(0 -68.29)"/><path class="cls-1" d="M1050.57,7326.48h46.91v10h-58.41V7256h56.8v10h-45.3Zm-1-35.75h41.39v9.77h-41.39Z" transform="translate(0 -68.29)"/><path class="cls-1" d="M1183.14,7337.41a54.84,54.84,0,0,1-17.59-2.82q-8.4-2.82-13.23-7.3l4.26-9a37.2,37.2,0,0,0,11.73,6.67,42.33,42.33,0,0,0,14.83,2.64,33.35,33.35,0,0,0,11.38-1.61,13.47,13.47,0,0,0,6.44-4.42,10.52,10.52,0,0,0,2.07-6.38,8.7,8.7,0,0,0-2.7-6.67,19.89,19.89,0,0,0-7-4.08,77.31,77.31,0,0,0-9.48-2.71q-5.17-1.14-10.41-2.7a46.12,46.12,0,0,1-9.54-4,19.62,19.62,0,0,1-7-6.49,19.06,19.06,0,0,1-2.64-10.52,21.1,21.1,0,0,1,3.28-11.44,22.72,22.72,0,0,1,10.11-8.4q6.84-3.15,17.42-3.16a54.1,54.1,0,0,1,13.92,1.84,38.89,38.89,0,0,1,12,5.29l-3.79,9.2a36.86,36.86,0,0,0-10.92-5,42.54,42.54,0,0,0-11.16-1.55,30.69,30.69,0,0,0-11.15,1.72,13.58,13.58,0,0,0-6.38,4.6,11,11,0,0,0-2,6.44,8.84,8.84,0,0,0,2.7,6.78,19.42,19.42,0,0,0,7,4,98.52,98.52,0,0,0,9.49,2.7q5.18,1.2,10.4,2.7a44.74,44.74,0,0,1,9.55,3.91,19.73,19.73,0,0,1,7,6.44,18.43,18.43,0,0,1,2.65,10.34,20.63,20.63,0,0,1-3.34,11.33,23,23,0,0,1-10.29,8.39Q1193.71,7337.41,1183.14,7337.41Z" transform="translate(0 -68.29)"/><path class="cls-1" d="M1248.9,7326.48h46.91v10h-58.4V7256h56.79v10h-45.3Zm-1-35.75h41.39v9.77h-41.39Z" transform="translate(0 -68.29)"/><path class="cls-1" d="M1320.76,7336.49V7256h31.39q10.57,0,18,3.34a25.51,25.51,0,0,1,11.5,9.65,27.51,27.51,0,0,1,4,15.07,27.2,27.2,0,0,1-4,15,25.6,25.6,0,0,1-11.5,9.6q-7.47,3.35-18,3.34h-25.06l5.17-5.29v29.78Zm11.5-28.63-5.17-5.64h24.72q11,0,16.73-4.77t5.69-13.39q0-8.62-5.69-13.34t-16.73-4.71h-24.72l5.17-5.75Zm42.31,28.63-20.46-29.21h12.3l20.7,29.21Z" transform="translate(0 -68.29)"/><path class="cls-1" d="M1471.15,7336.49,1435.74,7256h12.42l32.53,74.28h-7.12l32.76-74.28h11.5l-35.3,80.49Z" transform="translate(0 -68.29)"/><path class="cls-1" d="M1534.39,7336.49V7256h11.49v80.49Z" transform="translate(0 -68.29)"/><path class="cls-1" d="M1598.78,7336.49,1563.36,7256h12.42l32.54,74.28h-7.13L1634,7256h11.5l-35.3,80.49Z" transform="translate(0 -68.29)"/><path class="cls-1" d="M1662,7336.49V7256h11.5v80.49Z" transform="translate(0 -68.29)"/><path class="cls-1" d="M1704,7336.49V7256h33.92a49,49,0,0,1,22.7,5.06,37.49,37.49,0,0,1,15.3,14.14,43.27,43.27,0,0,1,0,42.08,37.38,37.38,0,0,1-15.3,14.15,49,49,0,0,1-22.7,5.06Zm11.5-10h21.73a37.07,37.07,0,0,0,17.3-3.79,27.56,27.56,0,0,0,11.32-10.64,33.13,33.13,0,0,0,0-31.67,27.68,27.68,0,0,0-11.32-10.58,37.07,37.07,0,0,0-17.3-3.79h-21.73Z" transform="translate(0 -68.29)"/><path class="cls-1" d="M1791.93,7336.49l36.45-80.49h11.38l36.57,80.49h-12.08l-32.53-74.05h4.6l-32.54,74.05Zm15.53-20.13,3.1-9.19h45.3l3.33,9.19Z" transform="translate(0 -68.29)"/><path class="cls-1" d="M1898.06,7337.18a7.34,7.34,0,0,1-5.41-2.19,7.08,7.08,0,0,1-2.18-5.17,7,7,0,0,1,2.18-5.29,7.57,7.57,0,0,1,5.41-2.07,7.09,7.09,0,0,1,7.36,7.36,7.25,7.25,0,0,1-2.07,5.17A7,7,0,0,1,1898.06,7337.18Zm-4.49-26.1L1891.5,7256h13l-2.19,55.08Z" transform="translate(0 -68.29)"/></g></g></g></svg>