<svg xmlns="http://www.w3.org/2000/svg" viewBox="0 0 3584.34 4919.15"><defs><style>.cls-1{fill:#fff;}.cls-2{fill:#211915;}.cls-3{fill:#ededee;}.cls-4{fill:none;stroke:#717175;stroke-miterlimit:10;stroke-width:11px;opacity:0.2;}</style></defs><title>6</title><g id="Camada_2" data-name="Camada 2"><g id="Camada_1-2" data-name="Camada 1"><g id="DESKTOP2"><path class="cls-1" d="M398.09,270q-15.27,0-26.94-5.84a41.38,41.38,0,0,1-18.19-18q-6.51-12.12-6.5-30.54V147.42h35V210.3q0,15.27,6.39,22.34T406,239.71a28.29,28.29,0,0,0,14.37-3.59,25.38,25.38,0,0,0,10-10.77q3.71-7.18,3.71-18V147.43h34.8V268.24H435.59V234.78l6.06,9.88a42.8,42.8,0,0,1-18,19A52.32,52.32,0,0,1,398.09,270Z" transform="translate(0 -128.47)"/><path class="cls-1" d="M656.11,145.66a54.85,54.85,0,0,1,25.49,5.73A40.48,40.48,0,0,1,699,168.9q6.29,11.79,6.28,30.2v69.17h-35V204.49q0-14.6-6-21.56t-16.72-7a27.49,27.49,0,0,0-13.93,3.48,22.82,22.82,0,0,0-9.32,10.33q-3.26,6.85-3.25,17.85v60.63H586V204.48q0-14.59-5.95-21.56t-17.18-7a27,27,0,0,0-13.7,3.48,23.49,23.49,0,0,0-9.43,10.33q-3.36,6.85-3.37,17.85v60.63h-35V147.44h33.46v32.78l-6.28-9.43A41.8,41.8,0,0,1,546.31,152a53.8,53.8,0,0,1,26.27-6.39q16.62,0,29.19,8.42t16.61,25.71L606,176.41a49.45,49.45,0,0,1,19.32-22.34Q638.59,145.66,656.11,145.66Z" transform="translate(0 -128.47)"/><path class="cls-1" d="M774.21,270.07q-13.94,0-24-4.83a37.63,37.63,0,0,1-15.6-13.14,33,33,0,0,1-5.5-18.64,33.89,33.89,0,0,1,5.28-18.75q5.26-8.19,16.73-12.68t30.09-4.49h31.88v20.21H784.77q-12.36,0-17,4a12.88,12.88,0,0,0-4.6,10.11,12.6,12.6,0,0,0,5.27,10.66q5.28,3.93,14.26,3.93a31.75,31.75,0,0,0,16.06-4,22.08,22.08,0,0,0,10-12.35l5.39,16.4a31.87,31.87,0,0,1-13.92,17.4Q790.15,270.08,774.21,270.07ZM811,268.28V244.7l-2.25-5.17V197.32q0-11.22-6.85-17.52t-21-6.28a60.69,60.69,0,0,0-19,3,53.38,53.38,0,0,0-16.06,8.2l-12.34-24.48a71.11,71.11,0,0,1,23.8-10.89,109.52,109.52,0,0,1,28.29-3.7q27.63,0,42.89,13t15.27,40.64v68.94Z" transform="translate(0 -128.47)"/><path class="cls-1" d="M1093.75,145.71a55,55,0,0,1,25.48,5.72,40.55,40.55,0,0,1,17.4,17.52q6.28,11.79,6.29,30.2v69.16h-35V204.54q0-14.59-6-21.56t-16.73-7a27.45,27.45,0,0,0-13.92,3.48,22.82,22.82,0,0,0-9.32,10.33q-3.26,6.84-3.26,17.85V268.3h-35V204.53q0-14.59-5.95-21.56t-17.17-7a27,27,0,0,0-13.7,3.48,23.43,23.43,0,0,0-9.43,10.33q-3.37,6.84-3.37,17.85v60.62H939V147.48h33.46v32.78l-6.29-9.43a41.85,41.85,0,0,1,17.74-18.75,53.8,53.8,0,0,1,26.27-6.39q16.62,0,29.19,8.42T1056,179.83l-12.35-3.37A49.43,49.43,0,0,1,1063,154.12Q1076.22,145.7,1093.75,145.71Z" transform="translate(0 -128.47)"/><path class="cls-1" d="M1211.84,270.12q-13.92,0-24-4.83a37.66,37.66,0,0,1-15.61-13.14,33,33,0,0,1-5.5-18.64,33.89,33.89,0,0,1,5.28-18.75q5.28-8.19,16.73-12.68t30.09-4.49h31.89V217.8H1222.4q-12.35,0-17,4a12.88,12.88,0,0,0-4.61,10.1,12.6,12.6,0,0,0,5.28,10.67q5.27,3.93,14.26,3.93a31.81,31.81,0,0,0,16-4,22.06,22.06,0,0,0,10-12.35l5.38,16.39A31.77,31.77,0,0,1,1237.89,264Q1227.78,270.12,1211.84,270.12Zm36.83-1.8V244.75l-2.24-5.17V197.37q0-11.24-6.85-17.52t-21-6.29a61,61,0,0,0-19,3,53.21,53.21,0,0,0-16,8.2l-12.35-24.48a71.2,71.2,0,0,1,23.8-10.89,109.66,109.66,0,0,1,28.3-3.7q27.62,0,42.88,13t15.27,40.64v68.94Z" transform="translate(0 -128.47)"/><path class="cls-1" d="M1313.11,268.33V147.53h33.46v34.36l-4.72-10.11a38.84,38.84,0,0,1,17.29-19.42q11.91-6.62,29-6.62V178.3a39.53,39.53,0,0,0-3.93-.68,34,34,0,0,0-3.71-.22q-14.82,0-23.57,8.3t-8.76,25.6v57Z" transform="translate(0 -128.47)"/><path class="cls-1" d="M1466.25,270.15q-19.53,0-34.69-8a59.57,59.57,0,0,1-32.44-54.23q0-18.19,8.65-32.11a61.35,61.35,0,0,1,23.8-22q15.17-8.09,34.7-8.08,19.08,0,33.34,8a46.26,46.26,0,0,1,20.54,22.57l-26.94,14.82q-4.95-8.54-11.9-12.47a30.63,30.63,0,0,0-15.27-3.93,32.66,32.66,0,0,0-15.94,3.93A29.25,29.25,0,0,0,1438.64,190q-4.26,7.41-4.27,18t4.27,18.08a29,29,0,0,0,11.45,11.45A32.66,32.66,0,0,0,1466,241.4a30.52,30.52,0,0,0,15.27-3.92q7-3.93,11.9-12.69l27,14.82a47.1,47.1,0,0,1-20.55,22.46Q1485.34,270.14,1466.25,270.15Z" transform="translate(0 -128.47)"/><path class="cls-1" d="M1577.85,270.16q-13.92,0-24-4.83a37.69,37.69,0,0,1-15.6-13.14,33,33,0,0,1-5.5-18.64A33.89,33.89,0,0,1,1538,214.8q5.28-8.19,16.73-12.68t30.09-4.49h31.88v20.21h-28.29q-12.35,0-17,4a12.88,12.88,0,0,0-4.61,10.1,12.6,12.6,0,0,0,5.28,10.67q5.26,3.93,14.26,3.93a31.81,31.81,0,0,0,16-4,22,22,0,0,0,10-12.35l5.39,16.39A31.85,31.85,0,0,1,1603.9,264Q1593.79,270.16,1577.85,270.16Zm36.83-1.79V244.79l-2.25-5.17V197.41q0-11.24-6.85-17.52t-21-6.29a61,61,0,0,0-19,3,53.21,53.21,0,0,0-16,8.2l-12.35-24.48a71.2,71.2,0,0,1,23.8-10.89,109.54,109.54,0,0,1,28.3-3.7q27.62,0,42.88,13t15.27,40.64v68.94Z" transform="translate(0 -128.47)"/><path class="cls-1" d="M827.17,516.77a70.35,70.35,0,0,1-15.72-1.69A38.24,38.24,0,0,1,798.88,510l9.43-25.37a25.19,25.19,0,0,0,14.82,4.27q6.74,0,10.44-4.27t3.71-13.47V350.61h35V471q0,21.11-11.79,33.45T827.17,516.77Zm27.64-183q-9.88,0-15.94-5.62a19,19,0,0,1,0-27.84q6.06-5.61,15.94-5.61,9.66,0,15.83,5.28a17,17,0,0,1,6.18,13.58A19.06,19.06,0,0,1,870.75,328Q864.69,333.77,854.81,333.77Z" transform="translate(0 -128.47)"/><path class="cls-1" d="M962.12,473.22q-19.08,0-34-8.08A60.71,60.71,0,0,1,904.64,443q-8.53-14-8.53-32,0-18.19,8.54-32.23a60,60,0,0,1,23.47-22q14.93-8,34-8,19.3,0,34.35,8a59.74,59.74,0,0,1,23.58,22q8.52,14,8.53,32.22t-8.54,32.11a60.8,60.8,0,0,1-23.58,22Q981.44,473.23,962.12,473.22Zm0-28.74A31.27,31.27,0,0,0,978,440.55,28.78,28.78,0,0,0,989,429a37,37,0,0,0,4.16-18q0-10.56-4.15-18a29.24,29.24,0,0,0-11-11.34,30.75,30.75,0,0,0-15.6-3.93,31.41,31.41,0,0,0-15.72,3.93,29,29,0,0,0-11.12,11.34q-4.15,7.41-4.15,18a37,37,0,0,0,4.15,18,28.53,28.53,0,0,0,11.11,11.57A31,31,0,0,0,962.13,444.48Z" transform="translate(0 -128.47)"/><path class="cls-1" d="M1081.58,471.44l-50.73-120.81h35.93l42.2,104h-18l44-104h33.46l-51,120.8Z" transform="translate(0 -128.47)"/><path class="cls-1" d="M1239.44,473.25q-20.67,0-36.15-8.08a59.79,59.79,0,0,1-24-22.13q-8.54-14-8.53-32t8.2-32.11a57.73,57.73,0,0,1,22.91-22.12,68.39,68.39,0,0,1,33.12-8,66.86,66.86,0,0,1,32,7.64,57.38,57.38,0,0,1,22.56,21.56q8.31,13.93,8.31,33.46c0,1.35-.08,2.88-.23,4.6s-.3,3.34-.45,4.83H1199V400.5h79.71l-13.7,6.07a32,32,0,0,0-3.59-16.4,28,28,0,0,0-10.55-10.89,30.62,30.62,0,0,0-15.72-3.93,31.24,31.24,0,0,0-15.83,3.93,27.43,27.43,0,0,0-10.67,11,34.79,34.79,0,0,0-3.82,16.73v5.39a33.18,33.18,0,0,0,4.49,17.51,29.55,29.55,0,0,0,12.35,11.34q7.86,3.93,18.86,3.93a44.72,44.72,0,0,0,16.73-2.91,41.27,41.27,0,0,0,13.36-8.76l18.64,20.21a54.15,54.15,0,0,1-20.89,14.48Q1255.83,473.26,1239.44,473.25Z" transform="translate(0 -128.47)"/><path class="cls-1" d="M1475.9,348.88a54.81,54.81,0,0,1,25.48,5.73,40.55,40.55,0,0,1,17.4,17.52q6.29,11.79,6.29,30.2v69.16h-35V407.71q0-14.59-6-21.55t-16.73-7a27.45,27.45,0,0,0-13.92,3.48,22.87,22.87,0,0,0-9.32,10.33q-3.25,6.86-3.26,17.85v60.63h-35V407.7q0-14.58-5.95-21.55t-17.17-7a27,27,0,0,0-13.7,3.48,23.49,23.49,0,0,0-9.43,10.33q-3.37,6.86-3.37,17.85v60.63h-35V350.66h33.46v32.79l-6.29-9.43a41.8,41.8,0,0,1,17.74-18.75,53.73,53.73,0,0,1,26.28-6.4q16.61,0,29.19,8.42T1438.17,383l-12.35-3.37a49.38,49.38,0,0,1,19.31-22.34Q1458.38,348.87,1475.9,348.88Z" transform="translate(0 -128.47)"/><path class="cls-1" d="M1579.41,416.71a33.89,33.89,0,0,1,2.58-13.59,46.06,46.06,0,0,1,6.51-10.78,80.6,80.6,0,0,1,8.42-8.87c3-2.69,5.8-5.27,8.43-7.74a41.29,41.29,0,0,0,6.51-7.75,16.72,16.72,0,0,0,2.58-9.2,15.28,15.28,0,0,0-6.62-12.8q-6.63-5-17.4-5a40.13,40.13,0,0,0-19.2,4.38,38,38,0,0,0-13.59,12.24l-27.17-15.95a64.57,64.57,0,0,1,25-22q15.84-8.08,38.51-8.08,17.07,0,29.87,4.83t20,14q7.19,9.21,7.18,22.45a42,42,0,0,1-2.69,15.83,41.42,41.42,0,0,1-7,11.57,95.16,95.16,0,0,1-9.09,9.2c-3.22,2.85-6.25,5.61-9.1,8.31a40.74,40.74,0,0,0-7,8.53,19.76,19.76,0,0,0-2.69,10.33Zm17.06,56.58a20.7,20.7,0,0,1-15.27-6.06,19.6,19.6,0,0,1-6.06-14.37,18.82,18.82,0,0,1,6.06-14.26,21.35,21.35,0,0,1,15.27-5.73q9.65,0,15.61,5.73a19,19,0,0,1,5.94,14.26,19.8,19.8,0,0,1-6,14.37Q1606.11,473.29,1596.47,473.29Z" transform="translate(0 -128.47)"/><path class="cls-1" d="M1758.74,218.91a40.51,40.51,0,0,1-14.93-2.7A35.16,35.16,0,0,1,1724,197a38.43,38.43,0,0,1,0-28.85A35.28,35.28,0,0,1,1743.76,149a42.66,42.66,0,0,1,29.87,0,35.85,35.85,0,0,1,11.88,7.59,34.87,34.87,0,0,1,7.85,11.53,38.82,38.82,0,0,1,0,29,34.73,34.73,0,0,1-7.85,11.52,35.88,35.88,0,0,1-11.88,7.6A40.15,40.15,0,0,1,1758.74,218.91Zm0-6.73a31.58,31.58,0,0,0,11.88-2.19,28,28,0,0,0,9.48-6.22,28.82,28.82,0,0,0,6.27-9.38,31.94,31.94,0,0,0,0-23.55,28.71,28.71,0,0,0-6.27-9.38,27.85,27.85,0,0,0-9.48-6.22,31.58,31.58,0,0,0-11.88-2.19,31.94,31.94,0,0,0-11.92,2.19,28.44,28.44,0,0,0-15.91,15.6,31.94,31.94,0,0,0,0,23.5A28.32,28.32,0,0,0,1746.82,210,31.94,31.94,0,0,0,1758.74,212.18Z" transform="translate(0 -128.47)"/><path class="cls-1" d="M1871,218.91a40.56,40.56,0,0,1-14.94-2.7,35.11,35.11,0,0,1-11.93-7.65,35.56,35.56,0,0,1-7.85-11.52,38.56,38.56,0,0,1,0-28.85A35.28,35.28,0,0,1,1856,149a42.66,42.66,0,0,1,29.87,0,35.85,35.85,0,0,1,11.88,7.59,34.87,34.87,0,0,1,7.85,11.53,38.82,38.82,0,0,1,0,29,34.73,34.73,0,0,1-7.85,11.52,35.88,35.88,0,0,1-11.88,7.6A40.13,40.13,0,0,1,1871,218.91Zm0-6.73a31.53,31.53,0,0,0,11.87-2.19,28.13,28.13,0,0,0,9.49-6.22,29,29,0,0,0,6.27-9.43,31.94,31.94,0,0,0,0-23.5,29,29,0,0,0-6.27-9.38,28,28,0,0,0-9.49-6.22,31.53,31.53,0,0,0-11.87-2.19,32,32,0,0,0-11.93,2.19,28.44,28.44,0,0,0-15.91,15.6,31.94,31.94,0,0,0,0,23.5A28.32,28.32,0,0,0,1859.07,210,32,32,0,0,0,1871,212.18Zm23.34,20.29a24.19,24.19,0,0,1-6.32-.82,25.69,25.69,0,0,1-6.17-2.6,40,40,0,0,1-6.37-4.64q-3.26-2.85-7.14-6.93l8.26-2a46.56,46.56,0,0,0,6.17,6.22,23.5,23.5,0,0,0,5.91,3.62,15.36,15.36,0,0,0,5.76,1.17,17.28,17.28,0,0,0,13.57-6.52l3.67,4.38A21.46,21.46,0,0,1,1894.34,232.47Z" transform="translate(0 -128.47)"/><path class="cls-1" d="M1954.09,218.91q-13.66,0-21.51-7.85t-7.86-23.25V146.93h7.55v40.58q0,12.65,5.71,18.65t16.11,6q10.5,0,16.21-6t5.71-18.65V146.93h7.34v40.88q0,15.41-7.8,23.25T1954.09,218.91Z" transform="translate(0 -128.47)"/><path class="cls-1" d="M2013.63,211.77h42.92v6.53h-50.47V146.93H2055v6.52h-41.39Zm-.82-32.93h37.73v6.42h-37.73Z" transform="translate(0 -128.47)"/><path class="cls-1" d="M2120.68,218.91a45.11,45.11,0,0,1-15.24-2.6,29.11,29.11,0,0,1-11.27-6.68l3-5.81a30.15,30.15,0,0,0,10.14,6.17,36.54,36.54,0,0,0,13.41,2.5,29.86,29.86,0,0,0,11-1.69,13.31,13.31,0,0,0,6.22-4.53,10.8,10.8,0,0,0,2-6.32,9.41,9.41,0,0,0-2.4-6.73,16.61,16.61,0,0,0-6.27-4,69,69,0,0,0-8.56-2.6q-4.7-1.12-9.38-2.4a39.52,39.52,0,0,1-8.62-3.41,18,18,0,0,1-6.32-5.66,16.09,16.09,0,0,1-2.39-9.23,17.82,17.82,0,0,1,2.8-9.73,19.58,19.58,0,0,1,8.61-7.14q5.82-2.7,14.89-2.7a43.45,43.45,0,0,1,11.93,1.68,34.27,34.27,0,0,1,10.19,4.64l-2.54,6a33.68,33.68,0,0,0-9.74-4.48,37.24,37.24,0,0,0-9.94-1.43,28,28,0,0,0-10.6,1.73,13.47,13.47,0,0,0-6.17,4.64,11.35,11.35,0,0,0-2,6.58,9.45,9.45,0,0,0,2.39,6.73,16,16,0,0,0,6.33,4,74.92,74.92,0,0,0,8.61,2.55q4.7,1.13,9.33,2.45a43,43,0,0,1,8.56,3.42,17.57,17.57,0,0,1,6.33,5.55,15.72,15.72,0,0,1,2.39,9.08,17.49,17.49,0,0,1-2.85,9.63,19.91,19.91,0,0,1-8.72,7.14Q2129.86,218.91,2120.68,218.91Z" transform="translate(0 -128.47)"/><path class="cls-1" d="M2152.29,218.3l32.62-71.37h7.44L2225,218.3H2217l-30-67h3.06l-30,67Zm12.84-19.07,2.25-6.12h41.49l2.24,6.12Z" transform="translate(0 -128.47)"/><path class="cls-1" d="M2236.81,218.3V146.93h30.79q11.93,0,18.5,4.79t6.58,13.56a16.21,16.21,0,0,1-10,15.8,25,25,0,0,1-10.15,2l1.73-2.44a30,30,0,0,1,11.78,2.09,16.83,16.83,0,0,1,7.7,6.22,18.08,18.08,0,0,1,2.75,10.24q0,9.08-6.68,14.07t-20.13,5Zm7.54-6.22h25.18q9.39,0,14.38-3.21t5-10.25q0-6.93-5-10.14t-14.38-3.22h-26V179h23.55q8.57,0,13.3-3.26t4.74-9.68q0-6.53-4.74-9.74t-13.3-3.21h-22.74Z" transform="translate(0 -128.47)"/><path class="cls-1" d="M2321.23,211.77h42.92v6.53h-50.47V146.93h48.94v6.52h-41.39Zm-.82-32.93h37.72v6.42h-37.72Z" transform="translate(0 -128.47)"/><path class="cls-1" d="M2381.89,218.3V146.93h6.22l32.62,55.67h-3.26l32.32-55.67H2456V218.3h-7.24V158.25h1.73l-29.77,51h-3.57l-30-51h1.94V218.3Z" transform="translate(0 -128.47)"/><path class="cls-1" d="M2510.45,218.91a40.47,40.47,0,0,1-14.93-2.7A35.16,35.16,0,0,1,2475.74,197a38.43,38.43,0,0,1,0-28.85A35.3,35.3,0,0,1,2495.46,149a42.68,42.68,0,0,1,29.88,0,35.85,35.85,0,0,1,11.88,7.59,34.87,34.87,0,0,1,7.85,11.53,38.82,38.82,0,0,1,0,29,34.73,34.73,0,0,1-7.85,11.52,35.88,35.88,0,0,1-11.88,7.6A40.19,40.19,0,0,1,2510.45,218.91Zm0-6.73a31.62,31.62,0,0,0,11.88-2.19,28,28,0,0,0,9.48-6.22,28.82,28.82,0,0,0,6.27-9.38,31.94,31.94,0,0,0,0-23.55,28.71,28.71,0,0,0-6.27-9.38,27.85,27.85,0,0,0-9.48-6.22,31.62,31.62,0,0,0-11.88-2.19,32,32,0,0,0-11.93,2.19,28.46,28.46,0,0,0-15.9,15.6,31.94,31.94,0,0,0,0,23.5,28.34,28.34,0,0,0,15.9,15.65A32,32,0,0,0,2510.45,212.18Z" transform="translate(0 -128.47)"/><path class="cls-1" d="M2584.47,218.91a45.11,45.11,0,0,1-15.24-2.6,29.11,29.11,0,0,1-11.27-6.68l3-5.81a30.15,30.15,0,0,0,10.14,6.17,36.54,36.54,0,0,0,13.41,2.5,29.86,29.86,0,0,0,11-1.69,13.31,13.31,0,0,0,6.22-4.53,10.8,10.8,0,0,0,2-6.32,9.41,9.41,0,0,0-2.4-6.73,16.61,16.61,0,0,0-6.27-4,69,69,0,0,0-8.56-2.6q-4.69-1.12-9.38-2.4a39.52,39.52,0,0,1-8.62-3.41,18,18,0,0,1-6.32-5.66,16.09,16.09,0,0,1-2.39-9.23,17.82,17.82,0,0,1,2.8-9.73,19.58,19.58,0,0,1,8.61-7.14q5.82-2.7,14.89-2.7a43.45,43.45,0,0,1,11.93,1.68,34.27,34.27,0,0,1,10.19,4.64l-2.54,6a33.68,33.68,0,0,0-9.74-4.48,37.24,37.24,0,0,0-9.94-1.43,28,28,0,0,0-10.6,1.73,13.47,13.47,0,0,0-6.17,4.64,11.35,11.35,0,0,0-2,6.58,9.45,9.45,0,0,0,2.39,6.73,16,16,0,0,0,6.33,4,74.92,74.92,0,0,0,8.61,2.55q4.7,1.13,9.33,2.45a43,43,0,0,1,8.56,3.42,17.57,17.57,0,0,1,6.33,5.55,15.72,15.72,0,0,1,2.39,9.08,17.49,17.49,0,0,1-2.85,9.63,19.91,19.91,0,0,1-8.72,7.14Q2593.64,218.91,2584.47,218.91Z" transform="translate(0 -128.47)"/><path class="cls-1" d="M2661.75,211.77h42.92v6.53h-50.46V146.93h48.94v6.52h-41.4Zm-.81-32.93h37.72v6.42h-37.72Zm11.21-37.72,14-12.65h9.68l-16.51,12.65Z" transform="translate(0 -128.47)"/><path class="cls-1" d="M2780.32,218.91a40.51,40.51,0,0,1-14.93-2.7A35.16,35.16,0,0,1,2745.61,197a38.43,38.43,0,0,1,0-28.85A35.28,35.28,0,0,1,2765.34,149a42.66,42.66,0,0,1,29.87,0,35.85,35.85,0,0,1,11.88,7.59,34.87,34.87,0,0,1,7.85,11.53,38.82,38.82,0,0,1,0,29,34.73,34.73,0,0,1-7.85,11.52,35.88,35.88,0,0,1-11.88,7.6A40.19,40.19,0,0,1,2780.32,218.91Zm0-6.73A31.58,31.58,0,0,0,2792.2,210a28,28,0,0,0,9.48-6.22,28.72,28.72,0,0,0,6.27-9.43,31.81,31.81,0,0,0,0-23.5,28.71,28.71,0,0,0-6.27-9.38,27.85,27.85,0,0,0-9.48-6.22,31.58,31.58,0,0,0-11.88-2.19,31.94,31.94,0,0,0-11.92,2.19,28.44,28.44,0,0,0-15.91,15.6,31.94,31.94,0,0,0,0,23.5A28.32,28.32,0,0,0,2768.4,210,31.94,31.94,0,0,0,2780.32,212.18Zm23.35,20.29a24.19,24.19,0,0,1-6.32-.82,25.53,25.53,0,0,1-6.17-2.6,39.58,39.58,0,0,1-6.37-4.64c-2.18-1.9-4.55-4.21-7.14-6.93l8.26-2a46,46,0,0,0,6.17,6.22,23.32,23.32,0,0,0,5.91,3.62,15.36,15.36,0,0,0,5.76,1.17q8,0,13.56-6.52l3.67,4.38A21.43,21.43,0,0,1,2803.67,232.47Z" transform="translate(0 -128.47)"/><path class="cls-1" d="M2863.42,218.91q-13.66,0-21.52-7.85t-7.85-23.25V146.93h7.55v40.58q0,12.65,5.71,18.65t16.11,6q10.5,0,16.21-6t5.71-18.65V146.93h7.34v40.88q0,15.41-7.8,23.25T2863.42,218.91Z" transform="translate(0 -128.47)"/><path class="cls-1" d="M2923,211.77h42.92v6.53h-50.47V146.93h48.94v6.52H2923Zm-.82-32.93h37.73v6.42h-37.73Z" transform="translate(0 -128.47)"/><path class="cls-1" d="M3010.33,218.3V146.93h6.22l49.25,62h-3.27v-62H3070V218.3h-6.22l-49.15-62h3.27v62Z" transform="translate(0 -128.47)"/><path class="cls-1" d="M3081.8,218.3l32.63-71.37h7.44l32.63,71.37h-8l-30-67h3.06l-30,67Zm12.85-19.07,2.24-6.12h41.5l2.24,6.12Zm30.48-58.72a8.48,8.48,0,0,1-4.18-1,16.69,16.69,0,0,1-3.31-2.4,37.9,37.9,0,0,0-2.91-2.45,4.87,4.87,0,0,0-2.95-1.07,4.51,4.51,0,0,0-3.73,1.74,8.52,8.52,0,0,0-1.58,4.79h-4.38a13.45,13.45,0,0,1,2.7-8.16,8,8,0,0,1,6.48-3.06,8.47,8.47,0,0,1,4.23,1.07,18,18,0,0,1,3.36,2.45,33.43,33.43,0,0,0,2.86,2.4,4.77,4.77,0,0,0,2.9,1,4.7,4.7,0,0,0,3.77-1.69,7.24,7.24,0,0,0,1.53-4.64h4.39a12.45,12.45,0,0,1-2.65,8A8.13,8.13,0,0,1,3125.13,140.51Z" transform="translate(0 -128.47)"/><path class="cls-1" d="M3196.5,218.91a40.56,40.56,0,0,1-14.94-2.7A35.19,35.19,0,0,1,3161.79,197a38.43,38.43,0,0,1,0-28.85A35.3,35.3,0,0,1,3181.51,149a42.68,42.68,0,0,1,29.88,0,35.71,35.71,0,0,1,11.87,7.59,34.72,34.72,0,0,1,7.85,11.53,38.69,38.69,0,0,1,0,29,34.58,34.58,0,0,1-7.85,11.52,35.73,35.73,0,0,1-11.87,7.6A40.19,40.19,0,0,1,3196.5,218.91Zm0-6.73a31.62,31.62,0,0,0,11.88-2.19,28.19,28.19,0,0,0,9.48-6.22,29,29,0,0,0,6.27-9.38,32.07,32.07,0,0,0,0-23.55,28.87,28.87,0,0,0-6.27-9.38,28,28,0,0,0-9.48-6.22,31.62,31.62,0,0,0-11.88-2.19,32,32,0,0,0-11.93,2.19,28.46,28.46,0,0,0-15.9,15.6,31.81,31.81,0,0,0,0,23.5,28.34,28.34,0,0,0,15.9,15.65A32,32,0,0,0,3196.5,212.18Z" transform="translate(0 -128.47)"/><path class="cls-1" d="M1747.22,350.55A45.11,45.11,0,0,1,1732,348a29.31,29.31,0,0,1-11.27-6.68l3-5.81a30.19,30.19,0,0,0,10.15,6.16,36.24,36.24,0,0,0,13.4,2.5,30.09,30.09,0,0,0,11-1.68,13.2,13.2,0,0,0,6.22-4.54,10.78,10.78,0,0,0,2-6.32,9.43,9.43,0,0,0-2.4-6.73,16.32,16.32,0,0,0-6.27-4,66.83,66.83,0,0,0-8.56-2.6c-3.13-.75-6.25-1.55-9.38-2.4a39.26,39.26,0,0,1-8.61-3.42,17.83,17.83,0,0,1-6.33-5.65,16.16,16.16,0,0,1-2.39-9.23,17.88,17.88,0,0,1,2.8-9.74,19.6,19.6,0,0,1,8.62-7.13q5.81-2.71,14.88-2.71a43.09,43.09,0,0,1,11.93,1.69,34.44,34.44,0,0,1,10.2,4.63l-2.55,6a34,34,0,0,0-9.74-4.49,37.21,37.21,0,0,0-9.94-1.42,28,28,0,0,0-10.6,1.73,13.41,13.41,0,0,0-6.17,4.64,11.35,11.35,0,0,0-2,6.58,9.39,9.39,0,0,0,2.4,6.72,15.9,15.9,0,0,0,6.32,4,79.81,79.81,0,0,0,8.61,2.55c3.13.75,6.24,1.56,9.33,2.45a43.89,43.89,0,0,1,8.57,3.41,17.74,17.74,0,0,1,6.32,5.56,15.69,15.69,0,0,1,2.39,9.07,17.5,17.5,0,0,1-2.85,9.64,19.9,19.9,0,0,1-8.72,7.13Q1756.4,350.55,1747.22,350.55Z" transform="translate(0 -128.47)"/><path class="cls-1" d="M1821.45,350.55a40.36,40.36,0,0,1-14.94-2.71,35.08,35.08,0,0,1-11.93-7.64,35.56,35.56,0,0,1-7.85-11.52,38.58,38.58,0,0,1,0-28.86,35.22,35.22,0,0,1,19.73-19.16,42.51,42.51,0,0,1,29.87,0,35.85,35.85,0,0,1,11.88,7.59,34.73,34.73,0,0,1,7.85,11.52,38.84,38.84,0,0,1,0,29,34.73,34.73,0,0,1-7.85,11.52,35.85,35.85,0,0,1-11.88,7.59A39.93,39.93,0,0,1,1821.45,350.55Zm0-6.73a31.34,31.34,0,0,0,11.87-2.2,28.11,28.11,0,0,0,9.49-6.21,29.25,29.25,0,0,0,6.27-9.38,32.1,32.1,0,0,0,0-23.56,29.25,29.25,0,0,0-6.27-9.38,28.28,28.28,0,0,0-9.49-6.22,31.53,31.53,0,0,0-11.87-2.19,32,32,0,0,0-11.93,2.19,28.44,28.44,0,0,0-15.91,15.6,31.94,31.94,0,0,0,0,23.5,28.24,28.24,0,0,0,15.91,15.65A31.76,31.76,0,0,0,1821.45,343.82Z" transform="translate(0 -128.47)"/><path class="cls-1" d="M1875.79,349.93V278.57H1882l32.62,55.66h-3.26l32.32-55.66h6.22v71.36h-7.24V289.88h1.73l-29.77,51h-3.57l-30-51H1883v60.05Z" transform="translate(0 -128.47)"/><path class="cls-1" d="M2004.35,350.55a40.27,40.27,0,0,1-14.93-2.71,35.11,35.11,0,0,1-19.78-19.16,38.46,38.46,0,0,1,0-28.86,35.24,35.24,0,0,1,19.72-19.16,42.54,42.54,0,0,1,29.88,0,35.71,35.71,0,0,1,11.87,7.59,34.6,34.6,0,0,1,7.86,11.52,38.84,38.84,0,0,1,0,29,34.6,34.6,0,0,1-7.86,11.52,35.71,35.71,0,0,1-11.87,7.59A40,40,0,0,1,2004.35,350.55Zm0-6.73a31.43,31.43,0,0,0,11.88-2.2,28.07,28.07,0,0,0,9.48-6.21A28.93,28.93,0,0,0,2032,326a32.1,32.1,0,0,0,0-23.56,28.93,28.93,0,0,0-6.27-9.38,28.24,28.24,0,0,0-9.48-6.22,31.62,31.62,0,0,0-11.88-2.19,32,32,0,0,0-11.93,2.19,28.46,28.46,0,0,0-15.9,15.6,31.94,31.94,0,0,0,0,23.5,28.26,28.26,0,0,0,15.9,15.65A31.8,31.8,0,0,0,2004.35,343.82Z" transform="translate(0 -128.47)"/><path class="cls-1" d="M2078.37,350.55a45.11,45.11,0,0,1-15.24-2.6,29.23,29.23,0,0,1-11.27-6.68l3-5.81a30,30,0,0,0,10.14,6.16,36.33,36.33,0,0,0,13.41,2.5,30.09,30.09,0,0,0,11-1.68,13.25,13.25,0,0,0,6.22-4.54,10.78,10.78,0,0,0,2-6.32,9.43,9.43,0,0,0-2.4-6.73,16.47,16.47,0,0,0-6.27-4,67.32,67.32,0,0,0-8.56-2.6q-4.7-1.12-9.38-2.4a39.54,39.54,0,0,1-8.62-3.42,17.79,17.79,0,0,1-6.32-5.65,16.09,16.09,0,0,1-2.39-9.23,17.88,17.88,0,0,1,2.8-9.74,19.62,19.62,0,0,1,8.61-7.13q5.82-2.71,14.89-2.71a43.09,43.09,0,0,1,11.93,1.69,34.26,34.26,0,0,1,10.19,4.63l-2.54,6a34,34,0,0,0-9.74-4.49,37.21,37.21,0,0,0-9.94-1.42,28.06,28.06,0,0,0-10.61,1.73,13.43,13.43,0,0,0-6.16,4.64,11.35,11.35,0,0,0-2,6.58,9.43,9.43,0,0,0,2.39,6.72,16,16,0,0,0,6.33,4,79.14,79.14,0,0,0,8.61,2.55c3.13.75,6.24,1.56,9.33,2.45a43.55,43.55,0,0,1,8.56,3.41,17.57,17.57,0,0,1,6.32,5.56,15.61,15.61,0,0,1,2.4,9.07,17.5,17.5,0,0,1-2.85,9.64,20,20,0,0,1-8.72,7.13Q2087.55,350.55,2078.37,350.55Z" transform="translate(0 -128.47)"/><path class="cls-2" d="M2148.11,349.93V278.57h6.22l49.24,62h-3.26v-62h7.44v71.36h-6.22l-49.14-62h3.26v62Z" transform="translate(0 -128.47)"/><path class="cls-2" d="M2238.54,343.41h42.92v6.52H2231V278.57h48.94v6.52h-41.39Zm-.82-32.93h37.73v6.42h-37.73Z" transform="translate(0 -128.47)"/><path class="cls-2" d="M2299.2,349.93V278.57h6.22l32.63,55.66h-3.27l32.32-55.66h6.22v71.36h-7.23V289.88h1.73l-29.77,51h-3.57l-30-51h1.94v60.05Z" transform="translate(0 -128.47)"/><path class="cls-2" d="M2452,350.55q-13.67,0-21.51-7.85t-7.85-23.25V278.57h7.54v40.57q0,12.64,5.71,18.66t16.11,6q10.5,0,16.21-6t5.71-18.66V278.57h7.34v40.88q0,15.39-7.8,23.25T2452,350.55Z" transform="translate(0 -128.47)"/><path class="cls-2" d="M2504,349.93V278.57h6.22l32.62,55.66h-3.26l32.32-55.66h6.22v71.36h-7.24V289.88h1.73l-29.77,51h-3.57l-30-51h1.94v60.05Z" transform="translate(0 -128.47)"/><path class="cls-2" d="M2590,349.93l32.62-71.36H2630l32.63,71.36h-8l-30-67h3.06l-30,67Zm12.84-19.06,2.24-6.12h41.5l2.24,6.12Z" transform="translate(0 -128.47)"/><path class="cls-2" d="M2701.21,349.93V278.57h6.22l32.62,55.66h-3.26l32.32-55.66h6.22v71.36h-7.24V289.88h1.73l-29.77,51h-3.57l-30-51h1.94v60.05Z" transform="translate(0 -128.47)"/><path class="cls-2" d="M2787.15,349.93l32.63-71.36h7.44l32.63,71.36h-7.95l-30-67H2825l-30,67ZM2800,330.87l2.24-6.12h41.5l2.24,6.12Z" transform="translate(0 -128.47)"/><path class="cls-2" d="M2871.67,349.93V278.57h26.72a38.11,38.11,0,0,1,15.6,2.9,22.54,22.54,0,0,1,10,8.36,23.9,23.9,0,0,1,3.52,13.2,23.47,23.47,0,0,1-3.52,13,22.41,22.41,0,0,1-10,8.36,38.1,38.1,0,0,1-15.6,2.91h-22.53l3.36-3.47v26.1Zm7.55-25.48-3.36-3.57h22.32q10.71,0,16.26-4.69T2920,303q0-8.55-5.56-13.25t-16.26-4.69h-22.32l3.36-3.57Zm41.19,25.48L2902.06,324h8.15l18.46,25.89Z" transform="translate(0 -128.47)"/><path class="cls-2" d="M2976.38,350.55a39.9,39.9,0,0,1-14.88-2.71,34.75,34.75,0,0,1-19.63-19.11,38.84,38.84,0,0,1,0-29,34.73,34.73,0,0,1,7.85-11.52,35.75,35.75,0,0,1,11.88-7.59,39.9,39.9,0,0,1,14.88-2.71,40.68,40.68,0,0,1,14.58,2.6,29.32,29.32,0,0,1,11.52,7.8l-4.79,4.8a26.49,26.49,0,0,0-9.68-6.48,32.4,32.4,0,0,0-11.42-2,32,32,0,0,0-11.93,2.19,28.57,28.57,0,0,0-9.58,6.22,29.83,29.83,0,0,0,0,42.32,28.39,28.39,0,0,0,9.58,6.21,33.22,33.22,0,0,0,23.35.16,27.15,27.15,0,0,0,9.68-6.53l4.79,4.79a29.67,29.67,0,0,1-11.52,7.86A40.33,40.33,0,0,1,2976.38,350.55Z" transform="translate(0 -128.47)"/><path class="cls-2" d="M3005.44,349.93l32.63-71.36h7.44l32.62,71.36h-8l-30-67h3.06l-30,67Zm12.85-19.06,2.24-6.12H3062l2.24,6.12Z" transform="translate(0 -128.47)"/><path class="cls-2" d="M3116.67,349.93V278.57h7.55v71.36Z" transform="translate(0 -128.47)"/><path class="cls-2" d="M3147.46,349.93V278.57h6.22l49.24,62h-3.26v-62h7.44v71.36h-6.21l-49.15-62H3155v62Z" transform="translate(0 -128.47)"/><path class="cls-2" d="M3237.89,349.93h-7.54V278.57h48.94v6.52h-41.4Zm-.81-36.8h37.72v6.52h-37.72Z" transform="translate(0 -128.47)"/><path class="cls-2" d="M3280.1,349.93l32.63-71.36h7.44l32.63,71.36h-8l-30-67h3.06l-30,67ZM3293,330.87l2.24-6.12h41.5l2.24,6.12Z" transform="translate(0 -128.47)"/><path class="cls-2" d="M3364.62,349.93V278.57h6.22l49.25,62h-3.26v-62h7.44v71.36h-6.22l-49.14-62h3.26v62Z" transform="translate(0 -128.47)"/><path class="cls-2" d="M3461.38,349.93V285.09H3436.3v-6.52H3494v6.52h-25.09v64.84Z" transform="translate(0 -128.47)"/><path class="cls-2" d="M3506,349.93V278.57h7.55v71.36Z" transform="translate(0 -128.47)"/><path class="cls-2" d="M3536.82,349.93V278.57h7.55v64.84h40v6.52Z" transform="translate(0 -128.47)"/><path class="cls-2" d="M1727.55,481.57V410.2h6.22l49.24,62h-3.26v-62h7.44v71.37H1781l-49.14-62h3.26v62Z" transform="translate(0 -128.47)"/><path class="cls-2" d="M1818,475h42.92v6.53h-50.47V410.2h48.94v6.53H1818Zm-.82-32.93h37.73v6.43h-37.73Z" transform="translate(0 -128.47)"/><path class="cls-2" d="M1878.64,481.57V410.2h6.22l32.63,55.67h-3.27l32.32-55.67h6.22v71.37h-7.24V421.52h1.74l-29.77,51h-3.57l-30-51h1.94v60.05Z" transform="translate(0 -128.47)"/><path class="cls-2" d="M2016.59,481.57V416.73H1991.5V410.2h57.71v6.53h-25.08v64.84Z" transform="translate(0 -128.47)"/><path class="cls-2" d="M2091.42,482.18a40.56,40.56,0,0,1-14.94-2.7,35.16,35.16,0,0,1-19.78-19.17,38.56,38.56,0,0,1,0-28.85,35.28,35.28,0,0,1,19.73-19.17,42.68,42.68,0,0,1,29.88,0,35.58,35.58,0,0,1,11.87,7.6,34.58,34.58,0,0,1,7.85,11.52,38.69,38.69,0,0,1,0,28.95,34.58,34.58,0,0,1-7.85,11.52,35.58,35.58,0,0,1-11.87,7.6A40.19,40.19,0,0,1,2091.42,482.18Zm0-6.73a31.62,31.62,0,0,0,11.88-2.19,28,28,0,0,0,9.48-6.22,29,29,0,0,0,6.27-9.38,32.07,32.07,0,0,0,0-23.55,29.14,29.14,0,0,0-6.27-9.38,28.19,28.19,0,0,0-9.48-6.22,31.62,31.62,0,0,0-11.88-2.19,32,32,0,0,0-11.93,2.19,28.46,28.46,0,0,0-15.9,15.6,31.81,31.81,0,0,0,0,23.5,28.34,28.34,0,0,0,15.9,15.65A32,32,0,0,0,2091.42,475.45Z" transform="translate(0 -128.47)"/><path class="cls-2" d="M2158.61,481.57V416.73h-25.08V410.2h57.7v6.53h-25.08v64.84Z" transform="translate(0 -128.47)"/><path class="cls-2" d="M2188.28,481.57l32.62-71.37h7.45L2261,481.57H2253l-30-67h3.06l-30,67Zm12.84-19.07,2.25-6.11h41.49l2.25,6.11Z" transform="translate(0 -128.47)"/><path class="cls-2" d="M2272.8,481.57V410.2h7.54V475h40v6.53Z" transform="translate(0 -128.47)"/><path class="cls-2" d="M2332.85,481.57V410.2h6.22l32.62,55.67h-3.26l32.32-55.67H2407v71.37h-7.24V421.52h1.73l-29.77,51h-3.56l-30-51h1.94v60.05Z" transform="translate(0 -128.47)"/><path class="cls-2" d="M2437.76,475h42.92v6.53h-50.46V410.2h48.93v6.53h-41.39Zm-.82-32.93h37.73v6.43h-37.73Z" transform="translate(0 -128.47)"/><path class="cls-2" d="M2498.42,481.57V410.2h6.22l49.25,62h-3.27v-62h7.45v71.37h-6.22l-49.15-62H2506v62Z" transform="translate(0 -128.47)"/><path class="cls-2" d="M2595.18,481.57V416.73H2570.1V410.2h57.7v6.53h-25.08v64.84Z" transform="translate(0 -128.47)"/><path class="cls-2" d="M2647.38,475h42.92v6.53h-50.47V410.2h48.94v6.53h-41.39Zm-.82-32.93h37.73v6.43h-37.73Z" transform="translate(0 -128.47)"/><path class="cls-2" d="M2723.33,481.57,2756,410.2h7.44L2796,481.57h-8l-30-67h3.06l-30,67Zm12.85-19.07,2.24-6.11h41.5l2.24,6.11Z" transform="translate(0 -128.47)"/><path class="cls-2" d="M2807.85,481.57V410.2h29.06a42.3,42.3,0,0,1,20,4.54,33.19,33.19,0,0,1,13.41,12.59,38.33,38.33,0,0,1,0,37.11A33.19,33.19,0,0,1,2856.94,477a42.3,42.3,0,0,1-20,4.54Zm7.55-6.53h21.1a34.46,34.46,0,0,0,16.47-3.72A27.21,27.21,0,0,0,2863.83,461a31.67,31.67,0,0,0,0-30.34A27.36,27.36,0,0,0,2853,420.45a34.57,34.57,0,0,0-16.47-3.72h-21.1Z" transform="translate(0 -128.47)"/><path class="cls-2" d="M2920.82,482.18q-13.67,0-21.51-7.85t-7.86-23.24V410.2H2899v40.58q0,12.64,5.71,18.66t16.11,6q10.5,0,16.21-6t5.71-18.66V410.2h7.34v40.89q0,15.39-7.8,23.24T2920.82,482.18Z" transform="translate(0 -128.47)"/><path class="cls-2" d="M2972.81,481.57V410.2h7.55V475h40v6.53Z" transform="translate(0 -128.47)"/><path class="cls-2" d="M3040.11,481.57V416.73H3015V410.2h57.71v6.53h-25.08v64.84Z" transform="translate(0 -128.47)"/><path class="cls-2" d="M3069.77,481.57l32.63-71.37h7.44l32.63,71.37h-7.95l-30-67h3.06l-30,67Zm12.85-19.07,2.24-6.11h41.5l2.24,6.11Z" transform="translate(0 -128.47)"/><path class="cls-2" d="M3157,482.08a5.13,5.13,0,0,1-3.83-1.63,5.52,5.52,0,0,1-1.58-4,5.41,5.41,0,1,1,10.81,0,5.52,5.52,0,0,1-1.58,4A5.13,5.13,0,0,1,3157,482.08Zm22.12,0a5.1,5.1,0,0,1-3.82-1.63,5.48,5.48,0,0,1-1.58-4,5.4,5.4,0,1,1,10.8,0,5.48,5.48,0,0,1-1.58,4A5.11,5.11,0,0,1,3179.07,482.08Zm22.23,0a5.13,5.13,0,0,1-3.83-1.63,5.52,5.52,0,0,1-1.58-4,5.41,5.41,0,1,1,10.81,0,5.52,5.52,0,0,1-1.58,4A5.11,5.11,0,0,1,3201.3,482.08Z" transform="translate(0 -128.47)"/></g><g id="DESKTOP6"><rect class="cls-3" x="928.28" y="4349.98" width="1133.4" height="228.78"/><path class="cls-3" d="M1046.6,4370.72h-7.19v-50.36h7.19Zm29.57-22.45h-30.29V4342h30.29Zm-.65-27.91h7.19v50.36h-7.19Z" transform="translate(0 -128.47)"/><path class="cls-3" d="M1121.34,4371.29a28.93,28.93,0,0,1-10.68-1.94,25.4,25.4,0,0,1-8.53-5.43,25,25,0,0,1-5.61-8.17,26.94,26.94,0,0,1,0-20.42,25,25,0,0,1,5.61-8.17,25.84,25.84,0,0,1,8.49-5.43,28.87,28.87,0,0,1,10.72-1.94,29.28,29.28,0,0,1,10.64,1.9,25.29,25.29,0,0,1,8.49,5.4,24.57,24.57,0,0,1,5.58,8.2,27.62,27.62,0,0,1,0,20.54,24.61,24.61,0,0,1-5.58,8.16,25.14,25.14,0,0,1-8.49,5.4A29.07,29.07,0,0,1,1121.34,4371.29Zm0-6.4a20.41,20.41,0,0,0,7.73-1.44,18.44,18.44,0,0,0,6.19-4.06,19,19,0,0,0,4.1-6.15,19.82,19.82,0,0,0,1.47-7.7,19.19,19.19,0,0,0-5.57-13.81,18.25,18.25,0,0,0-6.19-4.1,20.41,20.41,0,0,0-7.73-1.44,20.68,20.68,0,0,0-7.81,1.44,18.67,18.67,0,0,0-6.22,4.1,19.08,19.08,0,0,0-4.13,6.15,19.37,19.37,0,0,0-1.48,7.66,19.64,19.64,0,0,0,1.48,7.7,18.66,18.66,0,0,0,4.13,6.15,18.87,18.87,0,0,0,6.22,4.06A20.68,20.68,0,0,0,1121.34,4364.89Z" transform="translate(0 -128.47)"/><path class="cls-3" d="M1165.22,4371.29a19,19,0,0,1-8.35-1.87,16,16,0,0,1-6.33-5.39l4.17-4.89a15.71,15.71,0,0,0,4.72,4.42,11.21,11.21,0,0,0,5.79,1.55q8.63,0,8.63-10.22v-28.27h-18.2v-6.26H1181v34.17q0,8.42-4,12.59T1165.22,4371.29Z" transform="translate(0 -128.47)"/><path class="cls-3" d="M1203.63,4364.46H1233v6.26h-36.54v-50.36H1232v6.26h-28.34Zm-.65-22.37h25.89v6.11H1203Z" transform="translate(0 -128.47)"/><path class="cls-3" d="M1288.29,4371.29a29.27,29.27,0,0,1-10.72-1.9,25,25,0,0,1-14.1-13.56,27.34,27.34,0,0,1,0-20.58,24.9,24.9,0,0,1,5.65-8.16,25.62,25.62,0,0,1,8.52-5.4,31.7,31.7,0,0,1,21.73,0,21.65,21.65,0,0,1,8.41,5.83l-4.46,4.46a19.83,19.83,0,0,0-6.72-4.43,23,23,0,0,0-15.9,0,19.09,19.09,0,0,0-6.4,4,17.74,17.74,0,0,0-4.17,6.15,20.74,20.74,0,0,0,0,15.39,18.28,18.28,0,0,0,4.17,6.19,19,19,0,0,0,6.36,4.06,21.7,21.7,0,0,0,8,1.44,23.86,23.86,0,0,0,7.73-1.26,19,19,0,0,0,6.87-4.21l4.1,5.47a25.55,25.55,0,0,1-8.74,4.78A33.24,33.24,0,0,1,1288.29,4371.29Zm12.16-7.34v-18.7h6.9v19.64Z" transform="translate(0 -128.47)"/><path class="cls-3" d="M1321.88,4370.72v-50.36h19.64a27.62,27.62,0,0,1,11.29,2.09,16,16,0,0,1,7.19,6,17.18,17.18,0,0,1,2.52,9.43,17,17,0,0,1-2.52,9.38,16,16,0,0,1-7.19,6,27.62,27.62,0,0,1-11.29,2.09h-15.68l3.23-3.31v18.63Zm7.19-17.91-3.23-3.53h15.46c4.61,0,8.09-1,10.47-3a11.61,11.61,0,0,0,0-16.73c-2.38-2-5.86-2.95-10.47-2.95h-15.46l3.23-3.59Zm26.47,17.91-12.8-18.27h7.7l12.94,18.27Z" transform="translate(0 -128.47)"/><path class="cls-3" d="M1395.83,4371.29q-9.93,0-15.61-5.68t-5.69-16.62v-28.63h7.2v28.35q0,8.41,3.7,12.3t10.47,3.88q6.82,0,10.54-3.88t3.7-12.3v-28.35h7V4349q0,10.93-5.65,16.62T1395.83,4371.29Z" transform="translate(0 -128.47)"/><path class="cls-3" d="M1432.65,4370.72v-50.36h5.9l33.31,41.37h-3.1v-41.37h7.2v50.36h-5.9l-33.31-41.36h3.1v41.36Z" transform="translate(0 -128.47)"/><path class="cls-3" d="M1514.58,4371.29a29.35,29.35,0,0,1-10.72-1.9,25,25,0,0,1-14.09-13.56,27.22,27.22,0,0,1,0-20.58,24.87,24.87,0,0,1,5.64-8.16,25.57,25.57,0,0,1,8.53-5.4,31.67,31.67,0,0,1,21.72,0,21.76,21.76,0,0,1,8.42,5.83l-4.46,4.46a20,20,0,0,0-6.73-4.43,23,23,0,0,0-15.9,0,19.09,19.09,0,0,0-6.4,4,17.74,17.74,0,0,0-4.17,6.15,20.88,20.88,0,0,0,0,15.39,18.28,18.28,0,0,0,4.17,6.19,18.92,18.92,0,0,0,6.37,4.06,21.64,21.64,0,0,0,8,1.44,23.81,23.81,0,0,0,7.73-1.26,19,19,0,0,0,6.87-4.21l4.1,5.47a25.46,25.46,0,0,1-8.74,4.78A33.24,33.24,0,0,1,1514.58,4371.29Zm12.16-7.34v-18.7h6.9v19.64Z" transform="translate(0 -128.47)"/><path class="cls-3" d="M1555.37,4364.46h29.34v6.26h-36.54v-50.36h35.54v6.26h-28.34Zm-.65-22.37h25.89v6.11h-25.89Z" transform="translate(0 -128.47)"/><path class="cls-3" d="M1594.14,4381.36l3.59-14.53.94,4.17a5,5,0,0,1-3.49-1.29,4.57,4.57,0,0,1-1.4-3.52,4.73,4.73,0,0,1,4.82-4.9,4.39,4.39,0,0,1,3.38,1.41,4.94,4.94,0,0,1,1.29,3.49,9.32,9.32,0,0,1-.1,1.4c-.08.45-.2,1-.36,1.58s-.43,1.33-.76,2.19l-3.38,10Z" transform="translate(0 -128.47)"/><path class="cls-3" d="M1627.51,4370.72l22.81-50.36h7.12l22.87,50.36h-7.55l-20.36-46.33h2.88l-20.36,46.33Zm9.71-12.59,2-5.76h28.34l2.08,5.76Z" transform="translate(0 -128.47)"/><path class="cls-3" d="M1688.58,4370.72v-50.36h5.9l22.59,38.06h-3.17l22.3-38.06h5.9l.07,50.36h-6.9l-.08-39.49h1.66L1717,4364.6h-3.31l-20-33.37h1.8v39.49Z" transform="translate(0 -128.47)"/><path class="cls-3" d="M1750.44,4370.72l22.8-50.36h7.13l22.87,50.36h-7.55l-20.36-46.33h2.88l-20.36,46.33Zm9.71-12.59,1.94-5.76h28.35l2.08,5.76Z" transform="translate(0 -128.47)"/><path class="cls-3" d="M1811.51,4370.72v-50.36h5.9l33.3,41.37h-3.09v-41.37h7.19v50.36h-5.89l-33.31-41.36h3.09v41.36Z" transform="translate(0 -128.47)"/><path class="cls-3" d="M1877.9,4370.72h-7.19v-50.36h7.19Zm29.57-22.45h-30.29V4342h30.29Zm-.65-27.91H1914v50.36h-7.19Z" transform="translate(0 -128.47)"/><path class="cls-3" d="M1922.29,4370.72l22.8-50.36h7.12l22.87,50.36h-7.55l-20.36-46.33h2.88l-20.36,46.33Zm9.71-12.59,1.94-5.76h28.34l2.08,5.76Zm21.72-42.08a6.34,6.34,0,0,1-3.06-.72,12.24,12.24,0,0,1-2.41-1.69,23.82,23.82,0,0,0-2.08-1.69,3.49,3.49,0,0,0-2-.72,3.12,3.12,0,0,0-2.55,1.19,5.67,5.67,0,0,0-1.12,3.27h-3.88a10.7,10.7,0,0,1,2-6.4,6.07,6.07,0,0,1,5-2.38,6.21,6.21,0,0,1,3.09.76,13,13,0,0,1,2.45,1.73c.72.64,1.4,1.21,2,1.69a3.32,3.32,0,0,0,4.57-.44,4.86,4.86,0,0,0,1.07-3.16h3.89a9.89,9.89,0,0,1-2,6.18A6.16,6.16,0,0,1,1953.72,4316.05Z" transform="translate(0 -128.47)"/><path class="cls-3" d="M980,4457v-50.35h7.2V4457Z" transform="translate(0 -128.47)"/><path class="cls-3" d="M1003.08,4457v-50.35h5.9l33.31,41.36h-3.1v-41.36h7.2V4457h-5.9l-33.31-41.36h3.1V4457Z" transform="translate(0 -128.47)"/><path class="cls-3" d="M1062.28,4457v-50.35h21.22a30.64,30.64,0,0,1,14.21,3.17,23.44,23.44,0,0,1,9.57,8.84,27.12,27.12,0,0,1,0,26.33,23.4,23.4,0,0,1-9.57,8.85,30.64,30.64,0,0,1-14.21,3.16Zm7.2-6.25h13.59a23.26,23.26,0,0,0,10.83-2.38,17.28,17.28,0,0,0,7.08-6.65,20.75,20.75,0,0,0,0-19.82,17.41,17.41,0,0,0-7.08-6.62,23.25,23.25,0,0,0-10.83-2.37h-13.59Z" transform="translate(0 -128.47)"/><path class="cls-3" d="M1122.49,4457v-50.35h7.19V4457Z" transform="translate(0 -128.47)"/><path class="cls-3" d="M1152.77,4450.78h29.35V4457h-36.54v-50.35h35.53v6.26h-28.34Zm-.65-22.38H1178v6.12h-25.9Z" transform="translate(0 -128.47)"/><path class="cls-3" d="M1221.9,4450.78h29.34V4457H1214.7v-50.35h35.54v6.26H1221.9Zm-.65-22.38h25.89v6.12h-25.89Z" transform="translate(0 -128.47)"/><path class="cls-3" d="M1298.5,4457.61a34.48,34.48,0,0,1-11-1.76,22.58,22.58,0,0,1-8.27-4.57l2.66-5.61a23.17,23.17,0,0,0,7.33,4.17,26.57,26.57,0,0,0,9.28,1.65,21,21,0,0,0,7.12-1,8.42,8.42,0,0,0,4-2.77,6.55,6.55,0,0,0,1.3-4,5.49,5.49,0,0,0-1.69-4.18,12.68,12.68,0,0,0-4.39-2.55,48.5,48.5,0,0,0-5.94-1.69q-3.23-.72-6.51-1.69a29.2,29.2,0,0,1-6-2.48,12.31,12.31,0,0,1-4.35-4.07,11.91,11.91,0,0,1-1.65-6.58,13.16,13.16,0,0,1,2-7.15,14.19,14.19,0,0,1,6.33-5.26,26.17,26.17,0,0,1,10.9-2,33.54,33.54,0,0,1,8.7,1.15,24,24,0,0,1,7.48,3.31l-2.37,5.75a23.2,23.2,0,0,0-6.84-3.13,26.59,26.59,0,0,0-7-1,19.2,19.2,0,0,0-7,1.08,8.46,8.46,0,0,0-4,2.88,6.85,6.85,0,0,0-1.26,4,5.52,5.52,0,0,0,1.69,4.25,12.25,12.25,0,0,0,4.39,2.52,61.11,61.11,0,0,0,5.93,1.69q3.24.75,6.51,1.69a28.06,28.06,0,0,1,6,2.44,12.3,12.3,0,0,1,4.35,4,11.61,11.61,0,0,1,1.66,6.47,12.94,12.94,0,0,1-2.09,7.09,14.46,14.46,0,0,1-6.44,5.25A26.54,26.54,0,0,1,1298.5,4457.61Z" transform="translate(0 -128.47)"/><path class="cls-3" d="M1336.48,4450.78h29.35V4457h-36.54v-50.35h35.53v6.26h-28.34Zm-.65-22.38h25.9v6.12h-25.9Z" transform="translate(0 -128.47)"/><path class="cls-3" d="M1378.27,4457v-50.35h5.9l22.59,38h-3.17l22.3-38h5.9l.07,50.35H1425l-.07-39.49h1.65l-19.85,33.38h-3.31l-20-33.38h1.8V4457Z" transform="translate(0 -128.47)"/><path class="cls-3" d="M1440.13,4457l22.81-50.35h7.12l22.87,50.35h-7.55L1465,4410.71h2.88L1447.54,4457Zm9.71-12.58,2-5.76h28.34l2.08,5.76Z" transform="translate(0 -128.47)"/><path class="cls-3" d="M1501.2,4457v-50.35h5.9l33.31,41.36h-3.1v-41.36h7.2V4457h-5.9l-33.31-41.36h3.1V4457Z" transform="translate(0 -128.47)"/><path class="cls-3" d="M1552.78,4457l22.8-50.35h7.12l22.88,50.35H1598l-20.35-46.32h2.87L1560.19,4457Zm9.71-12.58,1.94-5.76h28.34l2.09,5.76Z" transform="translate(0 -128.47)"/><path class="cls-3" d="M1656.72,4457.61a28.93,28.93,0,0,1-10.68-1.94,25.71,25.71,0,0,1-8.53-5.43,25,25,0,0,1-5.61-8.17,27,27,0,0,1,0-20.43,25.1,25.1,0,0,1,5.61-8.16,25.52,25.52,0,0,1,8.49-5.43,28.67,28.67,0,0,1,10.72-1.94,29.07,29.07,0,0,1,10.64,1.9,25.14,25.14,0,0,1,8.49,5.4,24.47,24.47,0,0,1,5.58,8.2,27.73,27.73,0,0,1,0,20.53,24.65,24.65,0,0,1-5.58,8.17,25.27,25.27,0,0,1-8.49,5.39A29.08,29.08,0,0,1,1656.72,4457.61Zm0-6.4a20.41,20.41,0,0,0,7.73-1.44,18.25,18.25,0,0,0,6.19-4.1,19.37,19.37,0,0,0,5.57-13.81,19.82,19.82,0,0,0-1.47-7.7,19,19,0,0,0-4.1-6.15,18.44,18.44,0,0,0-6.19-4.06,20.41,20.41,0,0,0-7.73-1.44,20.68,20.68,0,0,0-7.81,1.44,18.62,18.62,0,0,0-10.35,10.21,19.64,19.64,0,0,0-1.48,7.7,19.42,19.42,0,0,0,1.48,7.62,19,19,0,0,0,4.13,6.19,18.57,18.57,0,0,0,6.22,4.1A20.68,20.68,0,0,0,1656.72,4451.21Zm16.47,16.33a18.22,18.22,0,0,1-9.42-2.56,31.23,31.23,0,0,1-4.75-3.45,68.88,68.88,0,0,1-5.32-5.22l7.69-2a33.84,33.84,0,0,0,4.14,4.35,13.88,13.88,0,0,0,3.92,2.45,10.69,10.69,0,0,0,3.88.75,11.81,11.81,0,0,0,9.14-4.31l3.38,4.1A15.69,15.69,0,0,1,1673.19,4467.54Z" transform="translate(0 -128.47)"/><path class="cls-3" d="M1716.06,4457.61q-9.93,0-15.61-5.68t-5.68-16.62v-28.63H1702V4435q0,8.41,3.71,12.3t10.46,3.89q6.84,0,10.54-3.89t3.7-12.3v-28.34h7v28.63q0,10.94-5.64,16.62T1716.06,4457.61Z" transform="translate(0 -128.47)"/><path class="cls-3" d="M1760.08,4450.78h29.35V4457h-36.54v-50.35h35.53v6.26h-28.34Zm-.65-22.38h25.9v6.12h-25.9Z" transform="translate(0 -128.47)"/><path class="cls-3" d="M1836.54,4457l-22.15-50.35h7.77l20.35,46.47h-4.46l20.5-46.47h7.2L1843.67,4457Z" transform="translate(0 -128.47)"/><path class="cls-3" d="M1880.13,4450.78h29.35V4457h-36.54v-50.35h35.53v6.26h-28.34Zm-.64-22.38h25.89v6.12h-25.89Z" transform="translate(0 -128.47)"/><path class="cls-3" d="M1921.93,4457v-50.35h5.89l22.59,38h-3.16l22.29-38h5.9l.07,50.35h-6.9l-.07-39.49h1.65l-19.85,33.38H1947l-20-33.38h1.8V4457Z" transform="translate(0 -128.47)"/><path class="cls-3" d="M1992.06,4457.47a4.85,4.85,0,0,1-4.89-5,4.62,4.62,0,0,1,1.43-3.52,4.85,4.85,0,0,1,3.46-1.37,4.62,4.62,0,0,1,3.34,1.37,4.67,4.67,0,0,1,1.4,3.52,4.79,4.79,0,0,1-1.4,3.56A4.54,4.54,0,0,1,1992.06,4457.47Z" transform="translate(0 -128.47)"/><path class="cls-3" d="M2009.18,4457.47a4.85,4.85,0,0,1-4.89-5,4.62,4.62,0,0,1,1.43-3.52,4.85,4.85,0,0,1,3.46-1.37,4.62,4.62,0,0,1,3.34,1.37,4.67,4.67,0,0,1,1.4,3.52,4.79,4.79,0,0,1-1.4,3.56A4.54,4.54,0,0,1,2009.18,4457.47Z" transform="translate(0 -128.47)"/><path class="cls-3" d="M2026.3,4457.47a4.87,4.87,0,0,1-4.9-5,4.63,4.63,0,0,1,1.44-3.52,4.85,4.85,0,0,1,3.46-1.37,4.64,4.64,0,0,1,3.34,1.37,4.71,4.71,0,0,1,1.4,3.52,4.83,4.83,0,0,1-1.4,3.56A4.56,4.56,0,0,1,2026.3,4457.47Z" transform="translate(0 -128.47)"/><path class="cls-3" d="M979.78,4793.49v-49.31h5.78l32.61,40.5h-3v-40.5h7.05v49.31h-5.78L983.8,4753h3v40.5Z" transform="translate(0 -128.47)"/><path class="cls-3" d="M1060,4794.05a28.23,28.23,0,0,1-10.46-1.9,25,25,0,0,1-8.35-5.32,24.62,24.62,0,0,1-5.49-8,26.39,26.39,0,0,1,0-20,24.62,24.62,0,0,1,5.49-8,25.08,25.08,0,0,1,8.32-5.32,29.94,29.94,0,0,1,20.91,0,24.52,24.52,0,0,1,8.32,5.28,24.07,24.07,0,0,1,5.45,8,27,27,0,0,1,0,20.11,24.1,24.1,0,0,1-5.45,8,24.69,24.69,0,0,1-8.32,5.29A28.5,28.5,0,0,1,1060,4794.05Zm0-6.27a20,20,0,0,0,7.57-1.41,17.79,17.79,0,0,0,6.06-4,18.51,18.51,0,0,0,4-6,19.18,19.18,0,0,0,1.45-7.53,19,19,0,0,0-1.45-7.51,19.17,19.17,0,0,0-4-6,17.72,17.72,0,0,0-6.06-4,21.21,21.21,0,0,0-15.21,0,17.94,17.94,0,0,0-6.09,4,18.58,18.58,0,0,0-5.5,13.53,19.36,19.36,0,0,0,1.44,7.53,18.33,18.33,0,0,0,4.06,6,18,18,0,0,0,6.09,4A20.17,20.17,0,0,0,1060,4787.78Z" transform="translate(0 -128.47)"/><path class="cls-3" d="M1112.06,4794.05a33.67,33.67,0,0,1-10.78-1.72,22.22,22.22,0,0,1-8.1-4.48l2.61-5.49a22.89,22.89,0,0,0,7.19,4.08,25.9,25.9,0,0,0,9.08,1.62,20.43,20.43,0,0,0,7-1,8.3,8.3,0,0,0,4-2.71,6.49,6.49,0,0,0,1.27-3.91,5.37,5.37,0,0,0-1.66-4.09,12.37,12.37,0,0,0-4.29-2.5,48.89,48.89,0,0,0-5.82-1.65c-2.11-.47-4.23-1-6.37-1.66a28,28,0,0,1-5.85-2.43,11.88,11.88,0,0,1-4.26-4,11.65,11.65,0,0,1-1.62-6.44,12.94,12.94,0,0,1,2-7,13.89,13.89,0,0,1,6.2-5.14,25.51,25.51,0,0,1,10.67-1.94,33,33,0,0,1,8.52,1.13,23.74,23.74,0,0,1,7.33,3.24l-2.33,5.63a22.44,22.44,0,0,0-6.69-3.06,25.89,25.89,0,0,0-6.83-1,18.89,18.89,0,0,0-6.83,1.05,8.36,8.36,0,0,0-3.91,2.82,6.73,6.73,0,0,0-1.24,3.94,5.44,5.44,0,0,0,1.66,4.16,11.92,11.92,0,0,0,4.3,2.47,56.83,56.83,0,0,0,5.81,1.65c2.11.49,4.23,1.05,6.37,1.66a27.45,27.45,0,0,1,5.85,2.39,12.07,12.07,0,0,1,4.26,3.95,11.31,11.31,0,0,1,1.62,6.33,12.67,12.67,0,0,1-2,6.94,14.16,14.16,0,0,1-6.31,5.14A25.85,25.85,0,0,1,1112.06,4794.05Z" transform="translate(0 -128.47)"/><path class="cls-3" d="M1156.58,4794.05a33.67,33.67,0,0,1-10.78-1.72,22.06,22.06,0,0,1-8.1-4.48l2.61-5.49a22.83,22.83,0,0,0,7.18,4.08,25.92,25.92,0,0,0,9.09,1.62,20.51,20.51,0,0,0,7-1,8.27,8.27,0,0,0,3.94-2.71,6.42,6.42,0,0,0,1.27-3.91,5.36,5.36,0,0,0-1.65-4.09,12.51,12.51,0,0,0-4.3-2.5,48.71,48.71,0,0,0-5.81-1.65c-2.11-.47-4.24-1-6.38-1.66a28.18,28.18,0,0,1-5.84-2.43,11.88,11.88,0,0,1-4.26-4,11.65,11.65,0,0,1-1.62-6.44,13,13,0,0,1,2-7,13.94,13.94,0,0,1,6.2-5.14,25.54,25.54,0,0,1,10.67-1.94,33,33,0,0,1,8.53,1.13,23.79,23.79,0,0,1,7.32,3.24l-2.32,5.63a22.67,22.67,0,0,0-6.69-3.06,26,26,0,0,0-6.84-1,18.89,18.89,0,0,0-6.83,1.05,8.41,8.41,0,0,0-3.91,2.82,6.72,6.72,0,0,0-1.23,3.94,5.43,5.43,0,0,0,1.65,4.16,12,12,0,0,0,4.3,2.47,57.57,57.57,0,0,0,5.81,1.65c2.11.49,4.24,1.05,6.38,1.66a27.58,27.58,0,0,1,5.84,2.39,12.07,12.07,0,0,1,4.26,3.95,11.31,11.31,0,0,1,1.62,6.33,12.67,12.67,0,0,1-2,6.94,14.08,14.08,0,0,1-6.3,5.14A25.85,25.85,0,0,1,1156.58,4794.05Z" transform="translate(0 -128.47)"/><path class="cls-3" d="M1209,4794.05a28.23,28.23,0,0,1-10.46-1.9,25,25,0,0,1-8.35-5.32,24.47,24.47,0,0,1-5.49-8,26.39,26.39,0,0,1,0-20,24.47,24.47,0,0,1,5.49-8,25.14,25.14,0,0,1,8.31-5.32,30,30,0,0,1,20.92,0,24.38,24.38,0,0,1,8.31,5.28,23.94,23.94,0,0,1,5.46,8,27,27,0,0,1,0,20.11,24,24,0,0,1-5.46,8,24.55,24.55,0,0,1-8.31,5.29A28.5,28.5,0,0,1,1209,4794.05Zm0-6.27a20,20,0,0,0,7.57-1.41,17.79,17.79,0,0,0,6.06-4,18.51,18.51,0,0,0,4-6,19.18,19.18,0,0,0,1.45-7.53,19,19,0,0,0-1.45-7.51,19.17,19.17,0,0,0-4-6,17.72,17.72,0,0,0-6.06-4,21.21,21.21,0,0,0-15.21,0,18.08,18.08,0,0,0-6.1,4,18.63,18.63,0,0,0-5.49,13.53,19.36,19.36,0,0,0,1.44,7.53,18.46,18.46,0,0,0,4,6,18.15,18.15,0,0,0,6.1,4A20.17,20.17,0,0,0,1209,4787.78Z" transform="translate(0 -128.47)"/><path class="cls-3" d="M1273.43,4787.36h28.74v6.13h-35.79v-49.31h34.8v6.13h-27.75Zm-.64-21.91h25.36v6h-25.36Z" transform="translate(0 -128.47)"/><path class="cls-3" d="M1328.72,4794.05a33.67,33.67,0,0,1-10.78-1.72,22.06,22.06,0,0,1-8.1-4.48l2.61-5.49a23,23,0,0,0,7.18,4.08,25.92,25.92,0,0,0,9.09,1.62,20.47,20.47,0,0,0,7-1,8.3,8.3,0,0,0,4-2.71,6.48,6.48,0,0,0,1.26-3.91,5.36,5.36,0,0,0-1.65-4.09,12.42,12.42,0,0,0-4.3-2.5,48.71,48.71,0,0,0-5.81-1.65c-2.11-.47-4.24-1-6.37-1.66a28,28,0,0,1-5.85-2.43,11.88,11.88,0,0,1-4.26-4,11.65,11.65,0,0,1-1.62-6.44,12.94,12.94,0,0,1,2-7,13.89,13.89,0,0,1,6.2-5.14,25.51,25.51,0,0,1,10.67-1.94,33,33,0,0,1,8.52,1.13,23.58,23.58,0,0,1,7.32,3.24l-2.32,5.63a22.44,22.44,0,0,0-6.69-3.06,26,26,0,0,0-6.83-1,19,19,0,0,0-6.84,1.05,8.47,8.47,0,0,0-3.91,2.82,6.72,6.72,0,0,0-1.23,3.94,5.4,5.4,0,0,0,1.66,4.16,11.88,11.88,0,0,0,4.29,2.47,57.57,57.57,0,0,0,5.81,1.65c2.12.49,4.24,1.05,6.38,1.66a27.67,27.67,0,0,1,5.85,2.39,12.07,12.07,0,0,1,4.26,3.95,11.31,11.31,0,0,1,1.62,6.33,12.59,12.59,0,0,1-2,6.94,14.08,14.08,0,0,1-6.3,5.14A25.85,25.85,0,0,1,1328.72,4794.05Z" transform="translate(0 -128.47)"/><path class="cls-3" d="M1368,4793.49v-43.18h-16.9v-6.13h40.78v6.13h-16.91v43.18Z" transform="translate(0 -128.47)"/><path class="cls-3" d="M1400.28,4793.49v-49.31h7v49.31Z" transform="translate(0 -128.47)"/><path class="cls-3" d="M1422.89,4793.49v-49.31h7v43.18h26.7v6.13Z" transform="translate(0 -128.47)"/><path class="cls-3" d="M1486.85,4794.05a28.19,28.19,0,0,1-10.46-1.9,25,25,0,0,1-8.35-5.32,24.47,24.47,0,0,1-5.49-8,26.27,26.27,0,0,1,0-20,24.47,24.47,0,0,1,5.49-8,25.14,25.14,0,0,1,8.31-5.32,30,30,0,0,1,20.92,0,24.57,24.57,0,0,1,8.31,5.28,23.94,23.94,0,0,1,5.46,8,27,27,0,0,1,0,20.11,24,24,0,0,1-5.46,8,24.75,24.75,0,0,1-8.31,5.29A28.54,28.54,0,0,1,1486.85,4794.05Zm0-6.27a20,20,0,0,0,7.57-1.41,17.89,17.89,0,0,0,6.06-4,18.51,18.51,0,0,0,4-6,19.36,19.36,0,0,0,1.44-7.53,18.81,18.81,0,0,0-5.45-13.53,17.82,17.82,0,0,0-6.06-4,20,20,0,0,0-7.57-1.41,20.26,20.26,0,0,0-7.65,1.41,18.14,18.14,0,0,0-6.09,4,18.78,18.78,0,0,0-4,6,19.15,19.15,0,0,0-1.44,7.51,19.36,19.36,0,0,0,1.44,7.53,18.3,18.3,0,0,0,10.14,10A20.26,20.26,0,0,0,1486.85,4787.78Z" transform="translate(0 -128.47)"/><path class="cls-3" d="M1554,4793.49v-43.18h-16.9v-6.13h40.78v6.13H1561v43.18Z" transform="translate(0 -128.47)"/><path class="cls-3" d="M1593.41,4787.36h28.74v6.13h-35.78v-49.31h34.8v6.13h-27.76Zm-.63-21.91h25.36v6h-25.36Z" transform="translate(0 -128.47)"/><path class="cls-3" d="M1634.34,4793.49v-49.31h5.77l22.12,37.26h-3.1l21.84-37.26h5.77l.07,49.31h-6.76l-.07-38.67h1.62l-19.44,32.68h-3.24l-19.58-32.68h1.76v38.67Z" transform="translate(0 -128.47)"/><path class="cls-3" d="M1722.1,4793.49v-49.31h5.77l22.12,37.26h-3.1l21.84-37.26h5.77l.07,49.31h-6.76l-.07-38.67h1.62l-19.44,32.68h-3.24l-19.58-32.68h1.76v38.67Z" transform="translate(0 -128.47)"/><path class="cls-3" d="M1810.57,4794.05q-9.72,0-15.29-5.56t-5.56-16.27v-28h7v27.75q0,8.25,3.63,12t10.25,3.8q6.69,0,10.31-3.8t3.63-12v-27.75h6.83v28q0,10.7-5.53,16.27T1810.57,4794.05Z" transform="translate(0 -128.47)"/><path class="cls-3" d="M1846.63,4793.49v-49.31h7v49.31Z" transform="translate(0 -128.47)"/><path class="cls-3" d="M1879,4793.49v-43.18h-16.91v-6.13h40.78v6.13H1886v43.18Z" transform="translate(0 -128.47)"/><path class="cls-3" d="M1932.91,4794.05a28.23,28.23,0,0,1-10.46-1.9,25,25,0,0,1-8.35-5.32,24.62,24.62,0,0,1-5.49-8,26.39,26.39,0,0,1,0-20,24.62,24.62,0,0,1,5.49-8,25.08,25.08,0,0,1,8.32-5.32,29.94,29.94,0,0,1,20.91,0,24.52,24.52,0,0,1,8.32,5.28,24.24,24.24,0,0,1,5.46,8,27.16,27.16,0,0,1,0,20.11,24.28,24.28,0,0,1-5.46,8,24.69,24.69,0,0,1-8.32,5.29A28.5,28.5,0,0,1,1932.91,4794.05Zm0-6.27a20,20,0,0,0,7.57-1.41,17.79,17.79,0,0,0,6.06-4,18.51,18.51,0,0,0,4-6,19.18,19.18,0,0,0,1.45-7.53,19,19,0,0,0-1.45-7.51,19.17,19.17,0,0,0-4-6,17.72,17.72,0,0,0-6.06-4,21.21,21.21,0,0,0-15.21,0,17.94,17.94,0,0,0-6.09,4,18.78,18.78,0,0,0-4,6,19,19,0,0,0-1.45,7.51,19.18,19.18,0,0,0,1.45,7.53,18.3,18.3,0,0,0,10.14,10A20.17,20.17,0,0,0,1932.91,4787.78Z" transform="translate(0 -128.47)"/><path class="cls-3" d="M1982.85,4793.49l22.33-49.31h7l22.4,49.31h-7.4l-19.93-45.36H2010l-19.94,45.36Zm9.51-12.33,1.9-5.63H2022l2,5.63Z" transform="translate(0 -128.47)"/><path class="cls-3" d="M998.27,4878l-21.69-49.3h7.61l19.93,45.5h-4.37l20.08-45.5h7l-21.62,49.3Z" transform="translate(0 -128.47)"/><path class="cls-3" d="M1041,4871.88h28.73V4878h-35.78v-49.3h34.8v6.12H1041Zm-.64-21.9h25.36v6h-25.36Z" transform="translate(0 -128.47)"/><path class="cls-3" d="M1081.88,4878v-49.3h19.23a27.1,27.1,0,0,1,11.06,2,15.63,15.63,0,0,1,7,5.91,16.88,16.88,0,0,1,2.47,9.23,16.67,16.67,0,0,1-2.47,9.19,15.7,15.7,0,0,1-7,5.88,26.93,26.93,0,0,1-11.06,2.05h-15.36l3.17-3.24V4878Zm7-17.54-3.17-3.45h15.15q6.76,0,10.25-2.92a10.14,10.14,0,0,0,3.48-8.21,10,10,0,0,0-3.48-8.17q-3.5-2.88-10.25-2.89h-15.15l3.17-3.52Zm25.92,17.54-12.53-17.89h7.53l12.68,17.89Z" transform="translate(0 -128.47)"/><path class="cls-3" d="M1175.63,4878.57a28.27,28.27,0,0,1-10.39-1.86,24.46,24.46,0,0,1-13.7-13.28,26.72,26.72,0,0,1,0-20.14,24.46,24.46,0,0,1,13.77-13.28,29.67,29.67,0,0,1,20.92.07,21.5,21.5,0,0,1,8.2,5.74l-4.57,4.44a18.41,18.41,0,0,0-6.34-4.41,19.73,19.73,0,0,0-7.54-1.44,20.72,20.72,0,0,0-7.71,1.41,18.57,18.57,0,0,0-6.17,3.94,18,18,0,0,0-4,6,20.62,20.62,0,0,0,0,15.14,18,18,0,0,0,4,6,18.6,18.6,0,0,0,6.17,3.95,20.72,20.72,0,0,0,7.71,1.41,19.74,19.74,0,0,0,7.54-1.45,17.93,17.93,0,0,0,6.34-4.47l4.57,4.44a21.91,21.91,0,0,1-8.2,5.77A27.67,27.67,0,0,1,1175.63,4878.57Z" transform="translate(0 -128.47)"/><path class="cls-3" d="M1226.48,4878.57a28.27,28.27,0,0,1-10.46-1.9,25,25,0,0,1-8.34-5.32,24.54,24.54,0,0,1-5.5-8,26.37,26.37,0,0,1,0-20,24.58,24.58,0,0,1,5.5-8A24.93,24.93,0,0,1,1216,4830a30,30,0,0,1,20.92,0,24.57,24.57,0,0,1,8.31,5.28,24,24,0,0,1,5.46,8,27.16,27.16,0,0,1,0,20.11,24,24,0,0,1-5.46,8,24.75,24.75,0,0,1-8.31,5.29A28.6,28.6,0,0,1,1226.48,4878.57Zm0-6.26a20,20,0,0,0,7.57-1.41,18,18,0,0,0,6.06-4,18.58,18.58,0,0,0,4-6,19.36,19.36,0,0,0,1.44-7.53,18.81,18.81,0,0,0-5.46-13.53,17.77,17.77,0,0,0-6.06-4,20,20,0,0,0-7.57-1.41,20.17,20.17,0,0,0-7.64,1.41,18.19,18.19,0,0,0-6.09,4,18.72,18.72,0,0,0-4,6,18.93,18.93,0,0,0-1.45,7.5,19.18,19.18,0,0,0,1.45,7.53,18.19,18.19,0,0,0,4,6,18.42,18.42,0,0,0,6.09,4A20.17,20.17,0,0,0,1226.48,4872.31Z" transform="translate(0 -128.47)"/><path class="cls-3" d="M1264.17,4878v-49.3h5.77l22.12,37.26H1289l21.83-37.26h5.78l.07,49.3h-6.76l-.07-38.67h1.62L1292,4872h-3.24l-19.58-32.68h1.76V4878Z" transform="translate(0 -128.47)"/><path class="cls-3" d="M1374.18,4878.57a28.27,28.27,0,0,1-10.46-1.9,25.07,25.07,0,0,1-8.34-5.32,24.54,24.54,0,0,1-5.5-8,26.37,26.37,0,0,1,0-20,24.58,24.58,0,0,1,5.5-8,25.14,25.14,0,0,1,8.31-5.32,30,30,0,0,1,20.92,0,24.57,24.57,0,0,1,8.31,5.28,24,24,0,0,1,5.46,8,27,27,0,0,1,0,20.11,24,24,0,0,1-5.46,8,24.75,24.75,0,0,1-8.31,5.29A28.56,28.56,0,0,1,1374.18,4878.57Zm0-6.26a20,20,0,0,0,7.58-1.41,18,18,0,0,0,6-4,18.42,18.42,0,0,0,4-6,19.36,19.36,0,0,0,1.44-7.53,18.81,18.81,0,0,0-5.46-13.53,17.83,17.83,0,0,0-6-4,21.24,21.24,0,0,0-15.22,0,18.29,18.29,0,0,0-6.09,4,18.72,18.72,0,0,0-4,6,19.1,19.1,0,0,0-1.44,7.5,19.36,19.36,0,0,0,1.44,7.53,18.19,18.19,0,0,0,4,6,18.52,18.52,0,0,0,6.09,4A20.21,20.21,0,0,0,1374.18,4872.31Z" transform="translate(0 -128.47)"/><path class="cls-3" d="M1431.59,4878v-49.3h5.77l22.12,37.26h-3.1l21.84-37.26H1484l.07,49.3h-6.76l-.07-38.67h1.62L1459.41,4872h-3.24l-19.58-32.68h1.76V4878Z" transform="translate(0 -128.47)"/><path class="cls-3" d="M1521.89,4878.57a28.19,28.19,0,0,1-10.46-1.9,25,25,0,0,1-8.35-5.32,24.36,24.36,0,0,1-5.49-8,26.24,26.24,0,0,1,0-20,24.4,24.4,0,0,1,5.49-8,25.14,25.14,0,0,1,8.31-5.32,30,30,0,0,1,20.92,0,24.57,24.57,0,0,1,8.31,5.28,24,24,0,0,1,5.46,8,27,27,0,0,1,0,20.11,24,24,0,0,1-5.46,8,24.75,24.75,0,0,1-8.31,5.29A28.54,28.54,0,0,1,1521.89,4878.57Zm0-6.26a20,20,0,0,0,7.57-1.41,18.19,18.19,0,0,0,6.06-4,18.55,18.55,0,0,0,4-6,19.36,19.36,0,0,0,1.44-7.53,18.86,18.86,0,0,0-5.45-13.53,18,18,0,0,0-6.06-4,20,20,0,0,0-7.57-1.41,20.26,20.26,0,0,0-7.65,1.41,18.29,18.29,0,0,0-6.09,4,18.72,18.72,0,0,0-4.05,6,19.1,19.1,0,0,0-1.44,7.5,19.36,19.36,0,0,0,1.44,7.53,18.19,18.19,0,0,0,4.05,6,18.52,18.52,0,0,0,6.09,4A20.26,20.26,0,0,0,1521.89,4872.31Z" transform="translate(0 -128.47)"/><path class="cls-3" d="M1581.83,4878.57a28.19,28.19,0,0,1-10.46-1.9,25,25,0,0,1-8.35-5.32,24.36,24.36,0,0,1-5.49-8,26.24,26.24,0,0,1,0-20,24.4,24.4,0,0,1,5.49-8,25.14,25.14,0,0,1,8.31-5.32,30,30,0,0,1,20.92,0,24.57,24.57,0,0,1,8.31,5.28,24,24,0,0,1,5.46,8,27,27,0,0,1,0,20.11,24,24,0,0,1-5.46,8,24.75,24.75,0,0,1-8.31,5.29A28.54,28.54,0,0,1,1581.83,4878.57Zm0-6.26a20,20,0,0,0,7.57-1.41,18.19,18.19,0,0,0,6.06-4,18.55,18.55,0,0,0,4-6,19.36,19.36,0,0,0,1.44-7.53,18.86,18.86,0,0,0-5.45-13.53,18,18,0,0,0-6.06-4,20,20,0,0,0-7.57-1.41,20.26,20.26,0,0,0-7.65,1.41,18.29,18.29,0,0,0-6.09,4,18.72,18.72,0,0,0-4,6,19.1,19.1,0,0,0-1.44,7.5,19.36,19.36,0,0,0,1.44,7.53,18.19,18.19,0,0,0,4,6,18.52,18.52,0,0,0,6.09,4A20.26,20.26,0,0,0,1581.83,4872.31Z" transform="translate(0 -128.47)"/><path class="cls-3" d="M1619.51,4878v-49.3h20.78a30.07,30.07,0,0,1,13.91,3.09,23,23,0,0,1,9.37,8.67,26.54,26.54,0,0,1,0,25.78,22.88,22.88,0,0,1-9.37,8.66,29.94,29.94,0,0,1-13.91,3.1Zm7-6.13h13.31a22.75,22.75,0,0,0,10.61-2.32,16.84,16.84,0,0,0,6.93-6.52,20.28,20.28,0,0,0,0-19.4,17,17,0,0,0-6.93-6.48,22.75,22.75,0,0,0-10.61-2.33h-13.31Z" transform="translate(0 -128.47)"/><path class="cls-3" d="M1698.18,4878v-49.3H1719a30,30,0,0,1,13.91,3.09,22.9,22.9,0,0,1,9.37,8.67,26.47,26.47,0,0,1,0,25.78,22.81,22.81,0,0,1-9.37,8.66A29.92,29.92,0,0,1,1719,4878Zm7-6.13h13.31a22.68,22.68,0,0,0,10.6-2.32,16.87,16.87,0,0,0,6.94-6.52,20.35,20.35,0,0,0,0-19.4,17,17,0,0,0-6.94-6.48,22.68,22.68,0,0,0-10.6-2.33h-13.31Z" transform="translate(0 -128.47)"/><path class="cls-3" d="M1779.4,4878.57a28.19,28.19,0,0,1-10.46-1.9,25,25,0,0,1-8.35-5.32,24.36,24.36,0,0,1-5.49-8,26.24,26.24,0,0,1,0-20,24.4,24.4,0,0,1,5.49-8,25.14,25.14,0,0,1,8.31-5.32,30,30,0,0,1,20.92,0,24.57,24.57,0,0,1,8.31,5.28,24,24,0,0,1,5.46,8,27,27,0,0,1,0,20.11,24,24,0,0,1-5.46,8,24.75,24.75,0,0,1-8.31,5.29A28.54,28.54,0,0,1,1779.4,4878.57Zm0-6.26a20,20,0,0,0,7.57-1.41,18.19,18.19,0,0,0,6.06-4,18.55,18.55,0,0,0,4-6,19.36,19.36,0,0,0,1.44-7.53,18.86,18.86,0,0,0-5.45-13.53,18,18,0,0,0-6.06-4,20,20,0,0,0-7.57-1.41,20.26,20.26,0,0,0-7.65,1.41,18.29,18.29,0,0,0-6.09,4,18.72,18.72,0,0,0-4.05,6,19.1,19.1,0,0,0-1.44,7.5,19.36,19.36,0,0,0,1.44,7.53,18.19,18.19,0,0,0,4.05,6,18.52,18.52,0,0,0,6.09,4A20.26,20.26,0,0,0,1779.4,4872.31Z" transform="translate(0 -128.47)"/><path class="cls-3" d="M1836.8,4878v-49.3h20.78a30,30,0,0,1,13.91,3.09,22.9,22.9,0,0,1,9.37,8.67,26.54,26.54,0,0,1,0,25.78,22.81,22.81,0,0,1-9.37,8.66,29.92,29.92,0,0,1-13.91,3.1Zm7-6.13h13.32a22.73,22.73,0,0,0,10.6-2.32,16.84,16.84,0,0,0,6.93-6.52,20.28,20.28,0,0,0,0-19.4,17,17,0,0,0-6.93-6.48,22.74,22.74,0,0,0-10.6-2.33h-13.32Z" transform="translate(0 -128.47)"/><path class="cls-3" d="M1895.75,4878v-49.3h7V4878Z" transform="translate(0 -128.47)"/><path class="cls-3" d="M1910.9,4878l22.33-49.3h7l22.4,49.3h-7.4l-19.93-45.36h2.82L1918.15,4878Zm9.51-12.33,1.9-5.63h27.75l2,5.63Z" transform="translate(0 -128.47)"/><path class="cls-3" d="M1997.46,4871.88h28.74V4878h-35.78v-49.3h34.79v6.12h-27.75Zm-.63-21.9h25.36v6h-25.36Z" transform="translate(0 -128.47)"/><path class="cls-3" d="M1022.54,4963.1a28.27,28.27,0,0,1-10.39-1.87,24.17,24.17,0,0,1-8.24-5.28,24.63,24.63,0,0,1-5.46-8,26.72,26.72,0,0,1,0-20.14,24.51,24.51,0,0,1,5.49-8,25,25,0,0,1,8.28-5.28,29.67,29.67,0,0,1,20.92.07,21.61,21.61,0,0,1,8.2,5.74l-4.57,4.44a18.38,18.38,0,0,0-6.34-4.4,19.74,19.74,0,0,0-7.54-1.45,20.72,20.72,0,0,0-7.71,1.41,18.6,18.6,0,0,0-6.17,3.95,18,18,0,0,0-4,6,20.62,20.62,0,0,0,0,15.14,18,18,0,0,0,4,6,18.6,18.6,0,0,0,6.17,3.95,20.72,20.72,0,0,0,7.71,1.41,19.55,19.55,0,0,0,7.54-1.45,17.93,17.93,0,0,0,6.34-4.47l4.57,4.44a21.91,21.91,0,0,1-8.2,5.77A27.67,27.67,0,0,1,1022.54,4963.1Z" transform="translate(0 -128.47)"/><path class="cls-3" d="M1073.39,4963.1a28.23,28.23,0,0,1-10.46-1.91,24.84,24.84,0,0,1-8.34-5.31,24.58,24.58,0,0,1-5.5-8,26.37,26.37,0,0,1,0-20,24.63,24.63,0,0,1,13.81-13.31,28.13,28.13,0,0,1,10.49-1.91,28.6,28.6,0,0,1,10.43,1.87,24.88,24.88,0,0,1,8.31,5.28,24.19,24.19,0,0,1,5.46,8,27.16,27.16,0,0,1,0,20.11,24.17,24.17,0,0,1-5.46,8,24.57,24.57,0,0,1-8.31,5.28A28.6,28.6,0,0,1,1073.39,4963.1Zm0-6.27a20,20,0,0,0,7.57-1.41,18,18,0,0,0,6.06-4,18.7,18.7,0,0,0,4-6,19.41,19.41,0,0,0,1.44-7.54,18.76,18.76,0,0,0-5.46-13.52,17.65,17.65,0,0,0-6.06-4,21.21,21.21,0,0,0-15.21,0,18,18,0,0,0-6.09,4,18.57,18.57,0,0,0-4.05,6,19,19,0,0,0-1.45,7.5,19.23,19.23,0,0,0,1.45,7.54,18.3,18.3,0,0,0,10.14,10A20.17,20.17,0,0,0,1073.39,4956.83Z" transform="translate(0 -128.47)"/><path class="cls-3" d="M1111.07,4962.53v-49.3h5.78l22.12,37.26h-3.1l21.83-37.26h5.78l.07,49.3h-6.76l-.07-38.67h1.62l-19.44,32.69h-3.24l-19.58-32.69h1.76v38.67Z" transform="translate(0 -128.47)"/><path class="cls-3" d="M1221.09,4963.1a28.27,28.27,0,0,1-10.46-1.91,24.94,24.94,0,0,1-8.34-5.31,24.58,24.58,0,0,1-5.5-8,26.37,26.37,0,0,1,0-20,24.63,24.63,0,0,1,13.81-13.31,28.13,28.13,0,0,1,10.49-1.91,28.6,28.6,0,0,1,10.43,1.87,24.88,24.88,0,0,1,8.31,5.28,24,24,0,0,1,5.46,8,27,27,0,0,1,0,20.11,24,24,0,0,1-5.46,8,24.57,24.57,0,0,1-8.31,5.28A28.6,28.6,0,0,1,1221.09,4963.1Zm0-6.27a20,20,0,0,0,7.58-1.41,18,18,0,0,0,6-4,18.54,18.54,0,0,0,4-6,19.41,19.41,0,0,0,1.44-7.54,18.76,18.76,0,0,0-5.46-13.52,17.71,17.71,0,0,0-6-4,21.24,21.24,0,0,0-15.22,0,18.16,18.16,0,0,0-6.09,4,18.57,18.57,0,0,0-4,6,19.14,19.14,0,0,0-1.45,7.5,19.41,19.41,0,0,0,1.45,7.54,18.15,18.15,0,0,0,4,6,18.52,18.52,0,0,0,6.09,4A20.21,20.21,0,0,0,1221.09,4956.83Z" transform="translate(0 -128.47)"/><path class="cls-3" d="M1300.76,4963.1a28.19,28.19,0,0,1-10.46-1.91,25,25,0,0,1-8.35-5.31,24.4,24.4,0,0,1-5.49-8,26.24,26.24,0,0,1,0-20,24.51,24.51,0,0,1,5.49-8,25.11,25.11,0,0,1,8.31-5.31,28.14,28.14,0,0,1,10.5-1.91,28.55,28.55,0,0,1,10.42,1.87,24.88,24.88,0,0,1,8.31,5.28,24,24,0,0,1,5.46,8,27,27,0,0,1,0,20.11,24,24,0,0,1-5.46,8,24.57,24.57,0,0,1-8.31,5.28A28.55,28.55,0,0,1,1300.76,4963.1Zm0-6.27a20,20,0,0,0,7.57-1.41,17.71,17.71,0,0,0,6.05-4,18.72,18.72,0,0,0,4-6,19.2,19.2,0,0,0,1.44-7.47,19.44,19.44,0,0,0-1.44-7.54,18.48,18.48,0,0,0-4-6,18,18,0,0,0-6.05-4,21.24,21.24,0,0,0-15.22,0,18.52,18.52,0,0,0-6.09,4,18.25,18.25,0,0,0-4,6,19.44,19.44,0,0,0-1.44,7.54,19.2,19.2,0,0,0,1.44,7.47,18.48,18.48,0,0,0,4,6,18.16,18.16,0,0,0,6.09,4A20.23,20.23,0,0,0,1300.76,4956.83Zm16.13,16a18.23,18.23,0,0,1-4.72-.6,18.73,18.73,0,0,1-4.51-1.9,30.63,30.63,0,0,1-4.65-3.38,67.85,67.85,0,0,1-5.21-5.11l7.53-2a33.76,33.76,0,0,0,4.05,4.26,13.49,13.49,0,0,0,3.84,2.39,10.32,10.32,0,0,0,3.81.74A11.56,11.56,0,0,0,1326,4963l3.31,4A15.35,15.35,0,0,1,1316.89,4972.82Z" transform="translate(0 -128.47)"/><path class="cls-3" d="M1358.86,4963.1q-9.72,0-15.28-5.57t-5.56-16.27v-28h7V4941q0,8.24,3.63,12t10.24,3.81c4.47,0,7.9-1.27,10.32-3.81s3.63-6.55,3.63-12v-27.75h6.83v28q0,10.71-5.53,16.27T1358.86,4963.1Z" transform="translate(0 -128.47)"/><path class="cls-3" d="M1402,4956.4h28.74v6.13h-35.78v-49.3h34.79v6.13H1402Zm-.63-21.9h25.35v6h-25.35Z" transform="translate(0 -128.47)"/><path class="cls-3" d="M1455.15,4962.53l22.33-49.3h7l22.4,49.3h-7.4l-19.93-45.36h2.82l-19.94,45.36Zm9.51-12.32,1.9-5.64h27.75l2,5.64Z" transform="translate(0 -128.47)"/><path class="cls-3" d="M1556.93,4963.1a28.75,28.75,0,0,1-10.5-1.87,24.4,24.4,0,0,1-13.8-13.28,26.6,26.6,0,0,1,0-20.14,24.17,24.17,0,0,1,5.53-8,25.22,25.22,0,0,1,8.34-5.28,30.87,30.87,0,0,1,21.27,0,21.11,21.11,0,0,1,8.24,5.7l-4.36,4.37a19.41,19.41,0,0,0-6.59-4.33,21.12,21.12,0,0,0-7.71-1.38,21.43,21.43,0,0,0-7.85,1.41,18.74,18.74,0,0,0-6.27,3.95,17.48,17.48,0,0,0-4.09,6,19.63,19.63,0,0,0-1.44,7.57,19.42,19.42,0,0,0,1.44,7.5,17.83,17.83,0,0,0,4.09,6.06,18.62,18.62,0,0,0,6.23,4,21.23,21.23,0,0,0,7.82,1.41,23.41,23.41,0,0,0,7.57-1.23,18.74,18.74,0,0,0,6.73-4.13l4,5.36a25.1,25.1,0,0,1-8.56,4.68A32.47,32.47,0,0,1,1556.93,4963.1Zm11.9-7.19V4937.6h6.76v19.23Z" transform="translate(0 -128.47)"/><path class="cls-3" d="M1596.86,4956.4h28.74v6.13h-35.78v-49.3h34.79v6.13h-27.75Zm-.63-21.9h25.36v6h-25.36Z" transform="translate(0 -128.47)"/><path class="cls-3" d="M1637.79,4962.53v-49.3h5.77l32.61,40.5h-3v-40.5h7v49.3h-5.78L1641.8,4922h3v40.5Z" transform="translate(0 -128.47)"/><path class="cls-3" d="M1705.55,4962.53v-43.17h-16.91v-6.13h40.78v6.13h-16.9v43.17Z" transform="translate(0 -128.47)"/><path class="cls-3" d="M1744.92,4956.4h28.74v6.13h-35.79v-49.3h34.8v6.13h-27.75Zm-.64-21.9h25.36v6h-25.36Z" transform="translate(0 -128.47)"/><path class="cls-3" d="M1827.82,4963.1a28.23,28.23,0,0,1-10.46-1.91,25,25,0,0,1-8.35-5.31,24.56,24.56,0,0,1-5.49-8,26.37,26.37,0,0,1,0-20,24.66,24.66,0,0,1,5.49-8,25.05,25.05,0,0,1,8.32-5.31,28.13,28.13,0,0,1,10.49-1.91,28.51,28.51,0,0,1,10.42,1.87,24.83,24.83,0,0,1,8.32,5.28,24.34,24.34,0,0,1,5.46,8,27.16,27.16,0,0,1,0,20.11,24.2,24.2,0,0,1-13.78,13.28A28.51,28.51,0,0,1,1827.82,4963.1Zm0-6.27a20,20,0,0,0,7.57-1.41,17.75,17.75,0,0,0,6.06-4,19,19,0,0,0,5.46-13.52,19.26,19.26,0,0,0-1.45-7.54,18.62,18.62,0,0,0-4-6,18.09,18.09,0,0,0-6.06-4,21.21,21.21,0,0,0-15.21,0,18.3,18.3,0,0,0-10.14,10,19.26,19.26,0,0,0-1.45,7.54,19,19,0,0,0,1.45,7.47,18.48,18.48,0,0,0,4,6,18,18,0,0,0,6.09,4A20.17,20.17,0,0,0,1827.82,4956.83Zm16.13,16a18.28,18.28,0,0,1-4.72-.6,19.07,19.07,0,0,1-4.51-1.9,31.13,31.13,0,0,1-4.65-3.38,71.68,71.68,0,0,1-5.21-5.11l7.54-2a33.76,33.76,0,0,0,4,4.26,13.49,13.49,0,0,0,3.84,2.39,10.27,10.27,0,0,0,3.8.74,11.56,11.56,0,0,0,9-4.22l3.31,4A15.38,15.38,0,0,1,1844,4972.82Z" transform="translate(0 -128.47)"/><path class="cls-3" d="M1885.93,4963.1q-9.72,0-15.28-5.57t-5.57-16.27v-28h7V4941q0,8.24,3.63,12t10.25,3.81q6.69,0,10.32-3.81t3.63-12v-27.75h6.83v28q0,10.71-5.53,16.27T1885.93,4963.1Z" transform="translate(0 -128.47)"/><path class="cls-3" d="M1929,4956.4h28.74v6.13H1922v-49.3h34.8v6.13H1929Zm-.63-21.9h25.36v6H1928.4Z" transform="translate(0 -128.47)"/><path class="cls-3" d="M1970,4962.53v-49.3h19.23a27.1,27.1,0,0,1,11.06,2,15.65,15.65,0,0,1,7,5.92,18.47,18.47,0,0,1,0,18.42,15.75,15.75,0,0,1-7,5.88,27.1,27.1,0,0,1-11.06,2h-15.36l3.17-3.24v18.24Zm7-17.54-3.17-3.45H1989q6.75,0,10.24-2.92a11.35,11.35,0,0,0,0-16.38q-3.48-2.88-10.24-2.88h-15.15l3.17-3.53Zm25.92,17.54-12.54-17.89h7.54l12.68,17.89Z" transform="translate(0 -128.47)"/><path class="cls-3" d="M1309.53,5047.62q-9.72,0-15.29-5.56t-5.56-16.28v-28h7v27.75q0,8.25,3.63,12.05t10.25,3.8q6.69,0,10.32-3.8t3.62-12.05v-27.75h6.84v28q0,10.71-5.53,16.28T1309.53,5047.62Z" transform="translate(0 -128.47)"/><path class="cls-3" d="M1360,5047.62a33.4,33.4,0,0,1-10.78-1.73,22.05,22.05,0,0,1-8.1-4.47l2.61-5.49a22.83,22.83,0,0,0,7.18,4.08,25.92,25.92,0,0,0,9.09,1.62,20.72,20.72,0,0,0,7-1,8.27,8.27,0,0,0,3.94-2.71,6.44,6.44,0,0,0,1.27-3.91,5.35,5.35,0,0,0-1.65-4.09,12.35,12.35,0,0,0-4.3-2.5,48.67,48.67,0,0,0-5.81-1.66c-2.11-.46-4.24-1-6.37-1.65a28,28,0,0,1-5.85-2.43,12,12,0,0,1-4.26-4,11.68,11.68,0,0,1-1.62-6.45,12.91,12.91,0,0,1,2-7,13.94,13.94,0,0,1,6.19-5.15,25.55,25.55,0,0,1,10.67-1.93,33,33,0,0,1,8.53,1.12,23.93,23.93,0,0,1,7.32,3.25l-2.32,5.63a22.56,22.56,0,0,0-6.69-3.06,26,26,0,0,0-6.84-1,18.91,18.91,0,0,0-6.83,1.06,8.41,8.41,0,0,0-3.91,2.82,6.72,6.72,0,0,0-1.23,3.94,5.4,5.4,0,0,0,1.66,4.16,11.86,11.86,0,0,0,4.29,2.46,55,55,0,0,0,5.81,1.66c2.12.49,4.24,1,6.38,1.65a27.59,27.59,0,0,1,5.84,2.4,12.13,12.13,0,0,1,4.26,3.94,11.28,11.28,0,0,1,1.63,6.34,12.7,12.7,0,0,1-2,6.94,14.08,14.08,0,0,1-6.3,5.14A25.85,25.85,0,0,1,1360,5047.62Z" transform="translate(0 -128.47)"/><path class="cls-3" d="M1382.64,5047.06l22.32-49.31h7l22.4,49.31h-7.4L1407,5001.7h2.81l-19.93,45.36Zm9.51-12.33,1.9-5.63h27.75l2,5.63Z" transform="translate(0 -128.47)"/><path class="cls-3" d="M1442.44,5047.06v-49.31h19.22a27.07,27.07,0,0,1,11.06,2,15.74,15.74,0,0,1,7,5.92,16.85,16.85,0,0,1,2.46,9.23,16.66,16.66,0,0,1-2.46,9.19,15.73,15.73,0,0,1-7,5.88,27.07,27.07,0,0,1-11.06,2h-15.35l3.17-3.24v18.25Zm7-17.54-3.17-3.45h15.14q6.77,0,10.25-2.93a10.1,10.1,0,0,0,3.49-8.2,10,10,0,0,0-3.49-8.17q-3.48-2.9-10.25-2.89h-15.14l3.17-3.52Zm25.92,17.54-12.54-17.89h7.54l12.68,17.89Z" transform="translate(0 -128.47)"/><path class="cls-3" d="M1521.18,5047.06h-7v-49.31h7Zm29-22h-29.65V5019h29.65Zm-.63-27.33h7v49.31h-7Z" transform="translate(0 -128.47)"/><path class="cls-3" d="M1594.36,5047.62a28.27,28.27,0,0,1-10.46-1.9,25.07,25.07,0,0,1-8.34-5.32,24.65,24.65,0,0,1-5.5-8,26.39,26.39,0,0,1,0-20,24.65,24.65,0,0,1,5.5-8,25.14,25.14,0,0,1,8.31-5.32,28.12,28.12,0,0,1,10.49-1.9,28.56,28.56,0,0,1,10.43,1.86,24.75,24.75,0,0,1,8.31,5.29,23.85,23.85,0,0,1,5.46,8,27,27,0,0,1,0,20.11,24.08,24.08,0,0,1-5.46,8,24.57,24.57,0,0,1-8.31,5.28A28.35,28.35,0,0,1,1594.36,5047.62Zm0-6.27a20,20,0,0,0,7.58-1.41,17.9,17.9,0,0,0,6-4,18.38,18.38,0,0,0,4-6,19.37,19.37,0,0,0,1.44-7.54,18.76,18.76,0,0,0-5.46-13.52,17.85,17.85,0,0,0-6-4,21.38,21.38,0,0,0-15.22,0,18.32,18.32,0,0,0-6.09,4,18.78,18.78,0,0,0-4.05,6,19.13,19.13,0,0,0-1.44,7.5,19.37,19.37,0,0,0,1.44,7.54,18.15,18.15,0,0,0,4.05,6,18.37,18.37,0,0,0,6.09,4A20.21,20.21,0,0,0,1594.36,5041.35Z" transform="translate(0 -128.47)"/><path class="cls-3" d="M1637.33,5047.62a18.58,18.58,0,0,1-8.17-1.83,15.71,15.71,0,0,1-6.2-5.28l4.09-4.79a15.41,15.41,0,0,0,4.61,4.33,10.94,10.94,0,0,0,5.67,1.51q8.45,0,8.45-10v-27.68H1628v-6.13h24.79v33.46q0,8.23-3.9,12.32T1637.33,5047.62Z" transform="translate(0 -128.47)"/><path class="cls-3" d="M1674.94,5040.93h28.74v6.13H1667.9v-49.31h34.79v6.13h-27.75Zm-.63-21.91h25.35v6h-25.35Z" transform="translate(0 -128.47)"/><path class="cls-3" d="M1717.2,5047.48a4.76,4.76,0,0,1-4.79-4.86,4.54,4.54,0,0,1,1.41-3.45,4.75,4.75,0,0,1,3.38-1.34,4.56,4.56,0,0,1,3.28,1.34,4.62,4.62,0,0,1,1.37,3.45,4.72,4.72,0,0,1-1.37,3.48A4.47,4.47,0,0,1,1717.2,5047.48Z" transform="translate(0 -128.47)"/><path d="M1024.88,4650.36l-32.54-90.24H1017l27,77.66h-11.91l28.18-77.66h22.31l27.17,77.66h-11.4l27.67-77.66h23.15l-32.71,90.24H1091.3l-24.15-66.59h7.55l-24.49,66.59Z" transform="translate(0 -128.47)"/><path d="M1218.1,4558.78a42.05,42.05,0,0,1,19.21,4.28,31,31,0,0,1,13.33,13.08q4.86,8.8,4.86,22.56v51.66h-26.16v-47.64q0-10.89-4.78-16.1t-13.5-5.2a23,23,0,0,0-11.16,2.69,18.67,18.67,0,0,0-7.71,7.88q-2.78,5.2-2.77,13.75v44.62h-26.16V4525.91h26.16v59.2l-5.87-7.55a33.48,33.48,0,0,1,13.92-13.92A43,43,0,0,1,1218.1,4558.78Z" transform="translate(0 -128.47)"/><path d="M1324.44,4651.7a52.43,52.43,0,0,1-25.41-6,46.91,46.91,0,0,1-17.53-64.49,44.72,44.72,0,0,1,17.53-16.44,53.19,53.19,0,0,1,25.41-5.95,54.09,54.09,0,0,1,25.66,5.95,44.61,44.61,0,0,1,17.61,16.44,45.4,45.4,0,0,1,6.38,24.07,44.26,44.26,0,0,1-24,40.42A53.32,53.32,0,0,1,1324.44,4651.7Zm0-21.47a23.39,23.39,0,0,0,11.82-2.93,21.58,21.58,0,0,0,8.22-8.64,27.65,27.65,0,0,0,3.1-13.42,27,27,0,0,0-3.1-13.42,21.83,21.83,0,0,0-8.22-8.47,23,23,0,0,0-11.65-2.93,23.58,23.58,0,0,0-11.75,2.93,21.68,21.68,0,0,0-8.3,8.47,27,27,0,0,0-3.1,13.42,27.65,27.65,0,0,0,3.1,13.42,21.43,21.43,0,0,0,8.3,8.64A23.23,23.23,0,0,0,1324.44,4630.23Z" transform="translate(0 -128.47)"/><path d="M1486.29,4651.7a54.82,54.82,0,0,1-25.91-5.95,46.52,46.52,0,0,1-17.78-64.49,45.74,45.74,0,0,1,17.78-16.44,54.15,54.15,0,0,1,25.91-6q14.25,0,24.91,5.95a34.61,34.61,0,0,1,15.35,16.86l-20.13,11.07a24.33,24.33,0,0,0-8.89-9.31,22.89,22.89,0,0,0-11.41-2.93,24.49,24.49,0,0,0-11.91,2.93,21.88,21.88,0,0,0-8.55,8.47,26.52,26.52,0,0,0-3.19,13.42,27,27,0,0,0,3.19,13.5,21.72,21.72,0,0,0,8.55,8.56,24.49,24.49,0,0,0,11.91,2.93,22.89,22.89,0,0,0,11.41-2.93,24.1,24.1,0,0,0,8.89-9.48l20.13,11.07a35.12,35.12,0,0,1-15.35,16.77Q1500.55,4651.71,1486.29,4651.7Z" transform="translate(0 -128.47)"/><path d="M1571.49,4651.7a41.16,41.16,0,0,1-17.94-3.61,28.09,28.09,0,0,1-11.66-9.81,24.62,24.62,0,0,1-4.11-13.92,25.33,25.33,0,0,1,3.94-14q3.94-6.12,12.5-9.47t22.47-3.36h23.82v15.1h-21.13q-9.23,0-12.67,3a9.63,9.63,0,0,0-3.43,7.55,9.39,9.39,0,0,0,3.94,8q3.93,2.94,10.65,2.94a23.76,23.76,0,0,0,12-3,16.47,16.47,0,0,0,7.46-9.23l4,12.25a23.78,23.78,0,0,1-10.4,13Q1583.41,4651.7,1571.49,4651.7Zm27.51-1.34v-17.61l-1.68-3.86v-31.53q0-8.38-5.11-13.09t-15.68-4.69a45.56,45.56,0,0,0-14.18,2.26,39.7,39.7,0,0,0-12,6.12l-9.22-18.28a52.9,52.9,0,0,1,17.77-8.13,81.69,81.69,0,0,1,21.14-2.77q20.63,0,32,9.73t11.41,30.36v51.49Z" transform="translate(0 -128.47)"/><path d="M1649,4650.36v-90.24h25v25.66l-3.52-7.54a29,29,0,0,1,12.92-14.51q8.88-4.95,21.63-4.95v24.32a29.45,29.45,0,0,0-2.93-.5,24.2,24.2,0,0,0-2.77-.17q-11.07,0-17.61,6.21t-6.54,19.12v42.6Z" transform="translate(0 -128.47)"/><path d="M1766.39,4651.7q-15.44,0-27-6a44.58,44.58,0,0,1-18-16.52,45.06,45.06,0,0,1-6.37-23.9,47,47,0,0,1,6.12-24,43,43,0,0,1,17.11-16.53,51.16,51.16,0,0,1,24.74-5.95,49.85,49.85,0,0,1,23.9,5.7,42.77,42.77,0,0,1,16.85,16.1q6.21,10.41,6.21,25c0,1-.06,2.16-.17,3.44s-.22,2.49-.33,3.61h-73.3v-15.26h59.54l-10.23,4.53a23.91,23.91,0,0,0-2.68-12.25,20.82,20.82,0,0,0-7.88-8.13,22.88,22.88,0,0,0-11.75-2.94,23.3,23.3,0,0,0-11.82,2.94,20.42,20.42,0,0,0-8,8.22,25.91,25.91,0,0,0-2.85,12.49v4a24.72,24.72,0,0,0,3.36,13.08,22.13,22.13,0,0,0,9.22,8.47,31.15,31.15,0,0,0,14.09,2.93,33.35,33.35,0,0,0,12.5-2.18,30.79,30.79,0,0,0,10-6.54l13.92,15.1a40.71,40.71,0,0,1-15.6,10.82A57.89,57.89,0,0,1,1766.39,4651.7Z" transform="translate(0 -128.47)"/><path d="M1859.65,4651.7a86.77,86.77,0,0,1-22.14-2.77q-10.58-2.76-16.94-7l8.55-18.62a65.86,65.86,0,0,0,14.84,6.13,60.34,60.34,0,0,0,16.69,2.43q9.06,0,12.83-2.18a6.7,6.7,0,0,0,3.78-6,5.13,5.13,0,0,0-2.94-4.78,25.75,25.75,0,0,0-7.71-2.43q-4.78-.84-10.65-1.68a104.19,104.19,0,0,1-11.66-2.35,45.27,45.27,0,0,1-10.74-4.27,21.16,21.16,0,0,1-7.88-7.64q-2.94-4.86-2.93-12.58a24.4,24.4,0,0,1,5-15.18,32.55,32.55,0,0,1,14.25-10.31q9.23-3.69,22.31-3.69a87,87,0,0,1,18.87,2.1,58.23,58.23,0,0,1,16,5.78l-8.89,18.62a46.61,46.61,0,0,0-13-5.2,56.83,56.83,0,0,0-12.66-1.51q-9.06,0-13.08,2.35t-4,6a5.59,5.59,0,0,0,3,5.11,23.56,23.56,0,0,0,7.88,2.6q4.86.84,10.74,1.68a100.46,100.46,0,0,1,11.57,2.35,45.21,45.21,0,0,1,10.65,4.28,20.91,20.91,0,0,1,7.88,7.63q2.94,4.86,2.94,12.58a23.24,23.24,0,0,1-5,14.67q-5,6.47-14.51,10.15T1859.65,4651.7Z" transform="translate(0 -128.47)"/><path d="M1942.17,4609.43a25.16,25.16,0,0,1,1.93-10.14,34,34,0,0,1,4.86-8.06,59,59,0,0,1,6.29-6.62q3.35-3,6.29-5.79a30.64,30.64,0,0,0,4.86-5.78,12.5,12.5,0,0,0,1.93-6.88,11.41,11.41,0,0,0-4.95-9.56c-3.29-2.46-7.63-3.69-13-3.69a30,30,0,0,0-14.34,3.27,28.31,28.31,0,0,0-10.15,9.14l-20.3-11.91a48.2,48.2,0,0,1,18.7-16.43q11.84-6,28.77-6a63.19,63.19,0,0,1,22.31,3.6A33.31,33.31,0,0,1,1990.3,4545q5.37,6.87,5.37,16.77a31.29,31.29,0,0,1-2,11.82,31,31,0,0,1-5.2,8.64,72.34,72.34,0,0,1-6.79,6.88q-3.62,3.18-6.8,6.2a30.8,30.8,0,0,0-5.2,6.38,14.73,14.73,0,0,0-2,7.71Zm12.74,42.27a15.46,15.46,0,0,1-11.4-4.53,14.67,14.67,0,0,1-4.53-10.73,14,14,0,0,1,4.53-10.65,16,16,0,0,1,11.4-4.28q7.21,0,11.66,4.28a14.19,14.19,0,0,1,4.45,10.65,14.83,14.83,0,0,1-4.45,10.73A15.6,15.6,0,0,1,1954.91,4651.7Z" transform="translate(0 -128.47)"/><rect class="cls-4" x="5.5" y="4360.38" width="825.99" height="391.06"/><path class="cls-3" d="M80.59,4663.21V4547.5h26.94l63.64,77H158.44v-77h32.07v115.71H163.57l-63.81-77h12.73v77Z" transform="translate(0 -128.47)"/><path class="cls-3" d="M294.49,4665.53a71.6,71.6,0,0,1-25.54-4.47,59.09,59.09,0,0,1-33.89-31.82,58.61,58.61,0,0,1-4.88-24.05,57.67,57.67,0,0,1,4.88-23.8,59.55,59.55,0,0,1,33.81-31.74,75.82,75.82,0,0,1,51.24,0,60.87,60.87,0,0,1,20.33,12.56,58.86,58.86,0,0,1,13.47,19,58.14,58.14,0,0,1,4.88,24,60,60,0,0,1-4.79,24.22,57,57,0,0,1-13.48,19.09,61.57,61.57,0,0,1-20.41,12.56A71.45,71.45,0,0,1,294.49,4665.53Zm0-27.11a32.3,32.3,0,0,0,12.31-2.32,28.43,28.43,0,0,0,9.92-6.69,31.7,31.7,0,0,0,6.61-10.42,39.93,39.93,0,0,0,0-27.27,31.75,31.75,0,0,0-6.61-10.41,28.59,28.59,0,0,0-9.92-6.7,34,34,0,0,0-24.63,0,29.48,29.48,0,0,0-10,6.7,29.92,29.92,0,0,0-6.61,10.41,41.23,41.23,0,0,0,0,27.27,29.87,29.87,0,0,0,6.61,10.42,29.31,29.31,0,0,0,10,6.69A32.32,32.32,0,0,0,294.49,4638.42Z" transform="translate(0 -128.47)"/><path class="cls-3" d="M439.13,4665.53A105,105,0,0,1,411.6,4662q-13.14-3.55-21.24-9l10.75-24.29a75.73,75.73,0,0,0,17.93,8.18,66.68,66.68,0,0,0,20.25,3.22,41.15,41.15,0,0,0,11-1.16,12.21,12.21,0,0,0,6-3.3,7.47,7.47,0,0,0,1.91-5.13,6.82,6.82,0,0,0-3.64-6,36.4,36.4,0,0,0-9.51-3.8q-5.87-1.57-12.72-3a124.36,124.36,0,0,1-14-3.72,53.63,53.63,0,0,1-12.9-6.11,29.41,29.41,0,0,1-9.34-9.92q-3.56-6.12-3.55-15.37a32.91,32.91,0,0,1,5.62-18.68q5.63-8.43,17-13.56t28.43-5.12a98.29,98.29,0,0,1,22.4,2.56,66,66,0,0,1,19.42,7.69l-9.92,24.13a71.18,71.18,0,0,0-16.36-6.78,61.3,61.3,0,0,0-15.71-2.15,33,33,0,0,0-10.91,1.49,13,13,0,0,0-5.95,3.8,7.92,7.92,0,0,0-1.82,5,6.94,6.94,0,0,0,3.64,6.2,32.9,32.9,0,0,0,9.42,3.64q5.79,1.41,12.81,2.89a139.82,139.82,0,0,1,14,3.72,55.58,55.58,0,0,1,12.81,5.95,29.37,29.37,0,0,1,9.51,9.75q3.63,6,3.63,15.13a32.77,32.77,0,0,1-5.7,18.6q-5.7,8.5-17.11,13.63T439.13,4665.53Z" transform="translate(0 -128.47)"/><path class="cls-3" d="M568.56,4665.53A105,105,0,0,1,541,4662q-13.14-3.55-21.24-9l10.75-24.29a75.73,75.73,0,0,0,17.93,8.18,66.68,66.68,0,0,0,20.25,3.22,41.15,41.15,0,0,0,11-1.16,12.21,12.21,0,0,0,5.95-3.3,7.47,7.47,0,0,0,1.91-5.13,6.82,6.82,0,0,0-3.64-6,36.4,36.4,0,0,0-9.51-3.8q-5.86-1.57-12.72-3a124.36,124.36,0,0,1-14-3.72,53.63,53.63,0,0,1-12.9-6.11,29.31,29.31,0,0,1-9.34-9.92q-3.56-6.12-3.55-15.37a32.91,32.91,0,0,1,5.62-18.68q5.63-8.43,17-13.56t28.43-5.12a98.29,98.29,0,0,1,22.4,2.56,66,66,0,0,1,19.42,7.69l-9.92,24.13a71.18,71.18,0,0,0-16.36-6.78,61.3,61.3,0,0,0-15.71-2.15,33,33,0,0,0-10.91,1.49,13,13,0,0,0-6,3.8,7.92,7.92,0,0,0-1.82,5,6.94,6.94,0,0,0,3.64,6.2,32.9,32.9,0,0,0,9.42,3.64q5.79,1.41,12.81,2.89a139.82,139.82,0,0,1,14,3.72,55.58,55.58,0,0,1,12.81,5.95,29.37,29.37,0,0,1,9.51,9.75q3.63,6,3.63,15.13a32.77,32.77,0,0,1-5.7,18.6q-5.7,8.5-17.11,13.63T568.56,4665.53Z" transform="translate(0 -128.47)"/><path class="cls-3" d="M715.67,4665.53a71.6,71.6,0,0,1-25.54-4.47,59.11,59.11,0,0,1-33.88-31.82,58.45,58.45,0,0,1-4.88-24.05,57.51,57.51,0,0,1,4.88-23.8,59.57,59.57,0,0,1,33.8-31.74,75.82,75.82,0,0,1,51.24,0,60.81,60.81,0,0,1,20.34,12.56,58.86,58.86,0,0,1,13.47,19,58.14,58.14,0,0,1,4.88,24,59.88,59.88,0,0,1-4.8,24.22,57,57,0,0,1-13.47,19.09,61.61,61.61,0,0,1-20.42,12.56A71.38,71.38,0,0,1,715.67,4665.53Zm0-27.11A32.32,32.32,0,0,0,728,4636.1a28.43,28.43,0,0,0,9.92-6.69,31.7,31.7,0,0,0,6.61-10.42,40.09,40.09,0,0,0,0-27.27,31.75,31.75,0,0,0-6.61-10.41,28.59,28.59,0,0,0-9.92-6.7,34,34,0,0,0-24.63,0,29.38,29.38,0,0,0-10,6.7,30.08,30.08,0,0,0-6.62,10.41,41.4,41.4,0,0,0,0,27.27,30,30,0,0,0,6.62,10.42,29.21,29.21,0,0,0,10,6.69A32.26,32.26,0,0,0,715.67,4638.42Z" transform="translate(0 -128.47)"/><path class="cls-3" d="M106.29,4793.5h60.5V4819H74.06V4703.24h90.58v25.46H106.29ZM104,4748H157.7v24.3H104Z" transform="translate(0 -128.47)"/><path class="cls-3" d="M228.94,4821.27a105.39,105.39,0,0,1-27.52-3.55q-13.14-3.55-21.24-9l10.75-24.3a75.73,75.73,0,0,0,17.93,8.18,66.68,66.68,0,0,0,20.25,3.22,41.63,41.63,0,0,0,11-1.15,12.22,12.22,0,0,0,6-3.31,7.45,7.45,0,0,0,1.9-5.12,6.81,6.81,0,0,0-3.63-6,36.4,36.4,0,0,0-9.51-3.8q-5.87-1.57-12.73-3a126.88,126.88,0,0,1-14-3.71,53.66,53.66,0,0,1-12.9-6.12,29.22,29.22,0,0,1-9.34-9.92q-3.56-6.1-3.55-15.37a32.94,32.94,0,0,1,5.62-18.68q5.61-8.43,17-13.56t28.43-5.12a98.29,98.29,0,0,1,22.4,2.56,66,66,0,0,1,19.42,7.69l-9.92,24.13a71.36,71.36,0,0,0-16.36-6.78,61.28,61.28,0,0,0-15.71-2.14,33,33,0,0,0-10.91,1.48,13,13,0,0,0-6,3.81,7.88,7.88,0,0,0-1.82,5,6.93,6.93,0,0,0,3.64,6.19,32.61,32.61,0,0,0,9.42,3.64q5.79,1.41,12.81,2.89a142.57,142.57,0,0,1,14,3.72,55.58,55.58,0,0,1,12.81,5.95,29.4,29.4,0,0,1,9.51,9.76q3.63,6,3.63,15.12a32.77,32.77,0,0,1-5.7,18.6q-5.7,8.52-17.11,13.64T228.94,4821.27Z" transform="translate(0 -128.47)"/><path class="cls-3" d="M321.51,4819V4729.2H286v-26H389.62v26H354.24V4819Z" transform="translate(0 -128.47)"/><path class="cls-3" d="M405.32,4819V4703.24h32.73V4819Z" transform="translate(0 -128.47)"/><path class="cls-3" d="M464.66,4819V4703.24h32.73V4793h55.05v26Z" transform="translate(0 -128.47)"/><path class="cls-3" d="M625.17,4821.27a71.82,71.82,0,0,1-25.54-4.46A59.25,59.25,0,0,1,565.74,4785a58.69,58.69,0,0,1-4.87-24.06,57.67,57.67,0,0,1,4.87-23.8,59.63,59.63,0,0,1,33.81-31.74,75.82,75.82,0,0,1,51.24,0A60.94,60.94,0,0,1,671.13,4718a58.91,58.91,0,0,1,13.47,19,58.05,58.05,0,0,1,4.87,24,59.87,59.87,0,0,1-4.79,24.22,57,57,0,0,1-13.47,19.09,61.8,61.8,0,0,1-20.42,12.57A71.59,71.59,0,0,1,625.17,4821.27Zm0-27.11a32.54,32.54,0,0,0,12.32-2.31,28.55,28.55,0,0,0,9.91-6.7,31.78,31.78,0,0,0,6.62-10.41,40.12,40.12,0,0,0,0-27.28,31.78,31.78,0,0,0-6.62-10.41,28.55,28.55,0,0,0-9.91-6.7,34,34,0,0,0-24.63,0,29.29,29.29,0,0,0-10,6.7,30.08,30.08,0,0,0-6.62,10.41,41.43,41.43,0,0,0,0,27.28,30.08,30.08,0,0,0,6.62,10.41,29.29,29.29,0,0,0,10,6.7A32.45,32.45,0,0,0,625.17,4794.16Z" transform="translate(0 -128.47)"/><path class="cls-3" d="M728.48,4776.8a24.52,24.52,0,0,1,1.74-9.58,33,33,0,0,1,4.38-7.53,51,51,0,0,1,5.7-6.19q3.06-2.82,5.71-5.29a27.55,27.55,0,0,0,4.38-5.21,10.52,10.52,0,0,0,1.73-5.7,9,9,0,0,0-4-7.69q-4.05-2.89-10.49-2.89a23.35,23.35,0,0,0-12,3.14,24.54,24.54,0,0,0-8.68,8.59l-24.63-13.06A48.91,48.91,0,0,1,711,4707.62q12.07-6.69,30.58-6.69a65.44,65.44,0,0,1,22.48,3.55A34.36,34.36,0,0,1,779.4,4715q5.61,6.94,5.62,17a30.59,30.59,0,0,1-1.9,11.24,28.51,28.51,0,0,1-5.13,8.43q-3.22,3.63-6.53,6.69t-6.53,5.87a27,27,0,0,0-5.12,5.79,12.27,12.27,0,0,0-1.9,6.77Zm14.72,43.64c-5.52,0-10-1.7-13.48-5.12a16.56,16.56,0,0,1-5.2-12.23,16,16,0,0,1,5.2-12.15c3.48-3.25,8-4.88,13.48-4.88s10.16,1.63,13.63,4.88a16,16,0,0,1,5.21,12.15,16.57,16.57,0,0,1-5.21,12.23Q751.63,4820.45,743.2,4820.44Z" transform="translate(0 -128.47)"/></g></g></g></svg>