<svg xmlns="http://www.w3.org/2000/svg" viewBox="0 0 3200.18 329.96"><defs><style>.cls-1{fill:#ededee;}</style></defs><title>4</title><g id="Camada_2" data-name="Camada 2"><g id="Camada_1-2" data-name="Camada 1"><g id="DESKTOP4_cópia" data-name="DESKTOP4 cópia"><rect x="574.47" width="395.39" height="81.07"/><rect x="2.67" y="78.17" width="1889.22" height="81.07"/><rect x="612.6" y="159.57" width="368.4" height="81.07"/><rect x="2952.74" y="159.57" width="158.22" height="81.07"/><rect x="848.33" y="237.33" width="1473.36" height="86.88"/><rect x="2376.25" y="3.03" width="823.93" height="81.07"/><path class="cls-1" d="M45.54,78.54,68.43,28h7.14l23,50.53H91L70.52,32.06h2.89L53,78.54Zm9.75-12.63,2-5.77H85.68l2.09,5.77Z" transform="translate(-45.54)"/><path class="cls-1" d="M110,78.54V28h21.3a30.66,30.66,0,0,1,14.25,3.18,23.42,23.42,0,0,1,9.6,8.88,25.08,25.08,0,0,1,3.43,13.21,25.11,25.11,0,0,1-3.43,13.21,23.42,23.42,0,0,1-9.6,8.88,30.65,30.65,0,0,1-14.25,3.17Zm7.22-6.28h13.64a23.27,23.27,0,0,0,10.87-2.38,17.37,17.37,0,0,0,7.11-6.68,19.23,19.23,0,0,0,2.52-9.92,19.2,19.2,0,0,0-2.52-10,17.41,17.41,0,0,0-7.11-6.64,23.27,23.27,0,0,0-10.87-2.38H117.22Z" transform="translate(-45.54)"/><path class="cls-1" d="M196.41,79.12a28.94,28.94,0,0,1-10.72-2,25.58,25.58,0,0,1-8.56-5.45,25.22,25.22,0,0,1-5.63-8.19,27,27,0,0,1,0-20.5,25.22,25.22,0,0,1,5.63-8.19,25.7,25.7,0,0,1,8.52-5.45,28.89,28.89,0,0,1,10.76-1.95,29.25,29.25,0,0,1,10.68,1.91,25.45,25.45,0,0,1,8.52,5.41A24.72,24.72,0,0,1,221.2,43a27.68,27.68,0,0,1,0,20.61,24.66,24.66,0,0,1-5.59,8.19,25.32,25.32,0,0,1-8.52,5.42A29.25,29.25,0,0,1,196.41,79.12Zm0-6.42a20.41,20.41,0,0,0,7.76-1.45,18.29,18.29,0,0,0,6.2-4.08A18.92,18.92,0,0,0,214.49,61a20.8,20.8,0,0,0,0-15.41,19.58,19.58,0,0,0-4.12-6.17,18.07,18.07,0,0,0-6.2-4.11,20.41,20.41,0,0,0-7.76-1.45,20.64,20.64,0,0,0-7.84,1.45,18.53,18.53,0,0,0-6.24,4.11,19.12,19.12,0,0,0-5.63,13.86A19.71,19.71,0,0,0,178.18,61a18.76,18.76,0,0,0,10.39,10.25A20.64,20.64,0,0,0,196.41,72.7Z" transform="translate(-45.54)"/><path class="cls-1" d="M238.2,78.54V28h19.71a27.65,27.65,0,0,1,11.33,2.1,16.07,16.07,0,0,1,7.22,6.06A17.29,17.29,0,0,1,279,45.63a17.08,17.08,0,0,1-2.52,9.42,16.12,16.12,0,0,1-7.22,6,27.65,27.65,0,0,1-11.33,2.1H242.17l3.25-3.32V78.54Zm7.22-18L242.17,57h15.52q6.93,0,10.5-3a10.38,10.38,0,0,0,3.57-8.41,10.29,10.29,0,0,0-3.57-8.38q-3.57-3-10.5-3H242.17l3.25-3.61Zm26.56,18L259.13,60.21h7.73l13,18.33Z" transform="translate(-45.54)"/><path class="cls-1" d="M287,78.54,309.88,28H317l23,50.53H332.4L312,32.06h2.89L294.43,78.54Zm9.75-12.63,1.95-5.77h28.44l2.09,5.77Z" transform="translate(-45.54)"/><path class="cls-1" d="M351.45,78.54V28h5.92L380,66.2h-3.18L399.24,28h5.92l.07,50.53H398.3l-.07-39.63h1.66L380,72.41h-3.32l-20.07-33.5h1.8V78.54Z" transform="translate(-45.54)"/><path class="cls-1" d="M447.17,79.12a28.94,28.94,0,0,1-10.72-2,25.58,25.58,0,0,1-8.56-5.45,25.22,25.22,0,0,1-5.63-8.19,27,27,0,0,1,0-20.5,25.22,25.22,0,0,1,5.63-8.19,25.7,25.7,0,0,1,8.52-5.45,28.89,28.89,0,0,1,10.76-1.95,29.25,29.25,0,0,1,10.68,1.91,25.45,25.45,0,0,1,8.52,5.41A24.72,24.72,0,0,1,472,43a26.22,26.22,0,0,1,2,10.29,26.12,26.12,0,0,1-2,10.32,24.66,24.66,0,0,1-5.59,8.19,25.32,25.32,0,0,1-8.52,5.42A29.25,29.25,0,0,1,447.17,79.12Zm0-6.42a20.38,20.38,0,0,0,7.76-1.45,18.29,18.29,0,0,0,6.2-4.08A18.92,18.92,0,0,0,465.25,61a19.78,19.78,0,0,0-4.12-21.58,18.07,18.07,0,0,0-6.2-4.11,21.68,21.68,0,0,0-15.59,0,18.47,18.47,0,0,0-6.25,4.11,19.12,19.12,0,0,0-5.63,13.86A19.71,19.71,0,0,0,428.94,61a18.73,18.73,0,0,0,10.4,10.25A20.55,20.55,0,0,0,447.17,72.7Z" transform="translate(-45.54)"/><path class="cls-1" d="M503.69,79.12a34.47,34.47,0,0,1-11.05-1.77,22.6,22.6,0,0,1-8.3-4.58L487,67.14a23.41,23.41,0,0,0,7.37,4.18A26.45,26.45,0,0,0,503.69,73a20.86,20.86,0,0,0,7.14-1,8.47,8.47,0,0,0,4.05-2.77,6.65,6.65,0,0,0,1.29-4A5.48,5.48,0,0,0,514.48,61a12.59,12.59,0,0,0-4.4-2.56,50.67,50.67,0,0,0-6-1.7c-2.17-.48-4.34-1-6.53-1.69a29.17,29.17,0,0,1-6-2.49,12.23,12.23,0,0,1-4.37-4.08,11.93,11.93,0,0,1-1.66-6.61,13.21,13.21,0,0,1,2.06-7.18A14.28,14.28,0,0,1,494,29.42a26.18,26.18,0,0,1,10.93-2,33.79,33.79,0,0,1,8.74,1.15,24.46,24.46,0,0,1,7.51,3.32l-2.39,5.78a23,23,0,0,0-6.85-3.14,26.85,26.85,0,0,0-7-1,19.08,19.08,0,0,0-7,1.09,8.5,8.5,0,0,0-4,2.88,6.86,6.86,0,0,0-1.27,4.05,5.53,5.53,0,0,0,1.7,4.25,12.1,12.1,0,0,0,4.4,2.53,59.75,59.75,0,0,0,6,1.7c2.16.5,4.34,1.07,6.53,1.69a28,28,0,0,1,6,2.46,12.39,12.39,0,0,1,4.37,4,11.67,11.67,0,0,1,1.66,6.5,13,13,0,0,1-2.09,7.11,14.53,14.53,0,0,1-6.47,5.27A26.69,26.69,0,0,1,503.69,79.12Z" transform="translate(-45.54)"/><path class="cls-1" d="M553.49,78.54,576.37,28h7.15l23,50.53h-7.58L578.47,32.06h2.88L560.93,78.54Zm9.75-12.63,2-5.77h28.44l2.09,5.77Z" transform="translate(-45.54)"/><path class="cls-1" d="M641.34,78.54V28h5.92L669.92,66.2h-3.17L689.12,28H695l.07,50.53h-6.93l-.07-39.63h1.66l-19.92,33.5h-3.32l-20.07-33.5h1.81V78.54Z" transform="translate(-45.54)"/><path class="cls-1" d="M714.24,78.54V28h7.22V78.54Z" transform="translate(-45.54)"/><path class="cls-1" d="M755.31,79.12a34.41,34.41,0,0,1-11-1.77,22.6,22.6,0,0,1-8.3-4.58l2.67-5.63A23.35,23.35,0,0,0,746,71.32,26.53,26.53,0,0,0,755.31,73a20.88,20.88,0,0,0,7.15-1,8.39,8.39,0,0,0,4-2.77,6.59,6.59,0,0,0,1.3-4A5.48,5.48,0,0,0,766.11,61a12.64,12.64,0,0,0-4.41-2.56,50.48,50.48,0,0,0-6-1.7q-3.25-.72-6.54-1.69a29.4,29.4,0,0,1-6-2.49,12.2,12.2,0,0,1-4.36-4.08,11.93,11.93,0,0,1-1.66-6.61,13.29,13.29,0,0,1,2-7.18,14.31,14.31,0,0,1,6.36-5.27,26.15,26.15,0,0,1,10.93-2,33.79,33.79,0,0,1,8.74,1.15,24.5,24.5,0,0,1,7.5,3.32l-2.38,5.78a23.09,23.09,0,0,0-6.86-3.14,26.78,26.78,0,0,0-7-1,19.08,19.08,0,0,0-7,1.09,8.53,8.53,0,0,0-4,2.88,6.92,6.92,0,0,0-1.26,4.05,5.53,5.53,0,0,0,1.7,4.25,12.1,12.1,0,0,0,4.4,2.53,59.52,59.52,0,0,0,6,1.7c2.17.5,4.35,1.07,6.54,1.69a28.26,28.26,0,0,1,6,2.46,12.47,12.47,0,0,1,4.37,4,11.67,11.67,0,0,1,1.66,6.5,13,13,0,0,1-2.1,7.11,14.5,14.5,0,0,1-6.46,5.27A26.71,26.71,0,0,1,755.31,79.12Z" transform="translate(-45.54)"/><path class="cls-1" d="M798.7,78.54V34.3H781.37V28h41.8V34.3H805.84V78.54Z" transform="translate(-45.54)"/><path class="cls-1" d="M855,79.12q-10,0-15.67-5.7t-5.7-16.68V28h7.22V56.46q0,8.45,3.72,12.34t10.5,3.9q6.85,0,10.58-3.9t3.71-12.34V28h7V56.74q0,11-5.66,16.68T855,79.12Z" transform="translate(-45.54)"/><path class="cls-1" d="M895.13,78.54V28h19.71a27.65,27.65,0,0,1,11.33,2.1,16.07,16.07,0,0,1,7.22,6.06,17.29,17.29,0,0,1,2.52,9.46,17.08,17.08,0,0,1-2.52,9.42,16.12,16.12,0,0,1-7.22,6,27.65,27.65,0,0,1-11.33,2.1H899.1l3.25-3.32V78.54Zm7.22-18L899.1,57h15.52q6.93,0,10.5-3a10.35,10.35,0,0,0,3.58-8.41,10.27,10.27,0,0,0-3.58-8.38q-3.57-3-10.5-3H899.1l3.25-3.61Zm26.56,18L916.06,60.21h7.73l13,18.33Z" transform="translate(-45.54)"/><path class="cls-1" d="M943.93,78.54,966.81,28H974l23,50.53h-7.58L968.9,32.06h2.89L951.36,78.54Zm9.74-12.63,2-5.77h28.44l2.09,5.77Z" transform="translate(-45.54)"/><path class="cls-1" d="M1031.77,78.54V28h21.3a30.69,30.69,0,0,1,14.25,3.18,23.42,23.42,0,0,1,9.6,8.88,25.08,25.08,0,0,1,3.43,13.21,25.11,25.11,0,0,1-3.43,13.21,23.42,23.42,0,0,1-9.6,8.88,30.68,30.68,0,0,1-14.25,3.17Zm7.22-6.28h13.64a23.27,23.27,0,0,0,10.87-2.38,17.37,17.37,0,0,0,7.11-6.68,19.23,19.23,0,0,0,2.52-9.92,19.2,19.2,0,0,0-2.52-10,17.41,17.41,0,0,0-7.11-6.64,23.27,23.27,0,0,0-10.87-2.38H1039Z" transform="translate(-45.54)"/><path class="cls-1" d="M1118.17,79.12a28.88,28.88,0,0,1-10.71-2,25.58,25.58,0,0,1-8.56-5.45,25.06,25.06,0,0,1-5.63-8.19,25.58,25.58,0,0,1-2-10.25,25.58,25.58,0,0,1,2-10.25,25.06,25.06,0,0,1,5.63-8.19,25.7,25.7,0,0,1,8.52-5.45,28.87,28.87,0,0,1,10.75-1.95,29.34,29.34,0,0,1,10.69,1.91,25.45,25.45,0,0,1,8.52,5.41A24.72,24.72,0,0,1,1143,43a26.39,26.39,0,0,1,2,10.29,26.29,26.29,0,0,1-2,10.32,24.66,24.66,0,0,1-5.59,8.19,25.32,25.32,0,0,1-8.52,5.42A29.34,29.34,0,0,1,1118.17,79.12Zm0-6.42a20.38,20.38,0,0,0,7.76-1.45,18.33,18.33,0,0,0,6.21-4.08,18.92,18.92,0,0,0,4.12-6.17,20.8,20.8,0,0,0,0-15.41,19.58,19.58,0,0,0-4.12-6.17,18.11,18.11,0,0,0-6.21-4.11,21.68,21.68,0,0,0-15.59,0,18.53,18.53,0,0,0-6.24,4.11,19.17,19.17,0,0,0-4.15,6.17A20.8,20.8,0,0,0,1100,61a18.54,18.54,0,0,0,4.15,6.17,18.75,18.75,0,0,0,6.24,4.08A20.55,20.55,0,0,0,1118.17,72.7Z" transform="translate(-45.54)"/><path class="cls-1" d="M1175.7,78.54,1198.59,28h7.14l23,50.53h-7.58l-20.43-46.48h2.89l-20.43,46.48Zm9.75-12.63,2-5.77h28.44l2.09,5.77Z" transform="translate(-45.54)"/><path class="cls-1" d="M1240.16,78.54V28h5.92l33.42,41.51h-3.1V28h7.22V78.54h-5.92L1244.28,37h3.1v41.5Z" transform="translate(-45.54)"/><path class="cls-1" d="M1312.78,78.54V34.3h-17.33V28h41.8V34.3h-17.33V78.54Z" transform="translate(-45.54)"/><path class="cls-1" d="M1349.09,78.54V28h7.21V78.54Z" transform="translate(-45.54)"/><path class="cls-1" d="M1398.24,79.12a29.44,29.44,0,0,1-10.75-1.91,25.09,25.09,0,0,1-14.15-13.61,25.78,25.78,0,0,1-2-10.32,25.78,25.78,0,0,1,2-10.32,24.87,24.87,0,0,1,5.67-8.2,25.68,25.68,0,0,1,8.55-5.41,31.75,31.75,0,0,1,21.8,0,21.77,21.77,0,0,1,8.44,5.84l-4.47,4.48a20,20,0,0,0-6.75-4.44,23,23,0,0,0-15.95,0,19.25,19.25,0,0,0-6.43,4,17.94,17.94,0,0,0-4.18,6.17A20.9,20.9,0,0,0,1380,61a18.25,18.25,0,0,0,4.18,6.2,19,19,0,0,0,6.39,4.08,21.6,21.6,0,0,0,8,1.45,23.73,23.73,0,0,0,7.76-1.27,19.13,19.13,0,0,0,6.9-4.22l4.11,5.49a25.9,25.9,0,0,1-8.77,4.8A33.54,33.54,0,0,1,1398.24,79.12Zm12.2-7.36V53h6.93V72.7Z" transform="translate(-45.54)"/><path class="cls-1" d="M1457.94,79.12a28.94,28.94,0,0,1-10.72-2,25.58,25.58,0,0,1-8.56-5.45,25.22,25.22,0,0,1-5.63-8.19,27,27,0,0,1,0-20.5,25.22,25.22,0,0,1,5.63-8.19,25.7,25.7,0,0,1,8.52-5.45,28.89,28.89,0,0,1,10.76-1.95,29.25,29.25,0,0,1,10.68,1.91,25.45,25.45,0,0,1,8.52,5.41,24.72,24.72,0,0,1,5.59,8.23,27.68,27.68,0,0,1,0,20.61,24.66,24.66,0,0,1-5.59,8.19,25.32,25.32,0,0,1-8.52,5.42A29.25,29.25,0,0,1,1457.94,79.12Zm0-6.42a20.41,20.41,0,0,0,7.76-1.45,18.29,18.29,0,0,0,6.2-4.08A18.92,18.92,0,0,0,1476,61a20.8,20.8,0,0,0,0-15.41,19.58,19.58,0,0,0-4.12-6.17,18.07,18.07,0,0,0-6.2-4.11,20.41,20.41,0,0,0-7.76-1.45,20.64,20.64,0,0,0-7.84,1.45,18.53,18.53,0,0,0-6.24,4.11,19.12,19.12,0,0,0-5.63,13.86,19.71,19.71,0,0,0,1.48,7.72,18.76,18.76,0,0,0,10.39,10.25A20.64,20.64,0,0,0,1457.94,72.7Z" transform="translate(-45.54)"/><path class="cls-1" d="M1545.71,79.12a29,29,0,0,1-10.65-1.91,25,25,0,0,1-8.44-5.42,25.45,25.45,0,0,1-5.6-8.19,26,26,0,0,1-2-10.32A26,26,0,0,1,1521,43a25.07,25.07,0,0,1,14.12-13.61,30.49,30.49,0,0,1,21.43.07,22.15,22.15,0,0,1,8.41,5.89l-4.69,4.54a18.74,18.74,0,0,0-6.5-4.51,20.25,20.25,0,0,0-7.72-1.48,21.1,21.1,0,0,0-7.9,1.45,19,19,0,0,0-6.32,4,18.29,18.29,0,0,0-4.15,6.17,21.08,21.08,0,0,0,0,15.52,18.29,18.29,0,0,0,4.15,6.17,19,19,0,0,0,6.32,4,21.1,21.1,0,0,0,7.9,1.45,20.25,20.25,0,0,0,7.72-1.48,18.33,18.33,0,0,0,6.5-4.59l4.69,4.55a22.44,22.44,0,0,1-8.41,5.92A28.34,28.34,0,0,1,1545.71,79.12Z" transform="translate(-45.54)"/><path class="cls-1" d="M1601,79.12a29,29,0,0,1-10.72-2,25.63,25.63,0,0,1-8.55-5.45,25.06,25.06,0,0,1-5.63-8.19,25.58,25.58,0,0,1-2-10.25,25.58,25.58,0,0,1,2-10.25,25.06,25.06,0,0,1,5.63-8.19,25.6,25.6,0,0,1,8.52-5.45A28.83,28.83,0,0,1,1601,27.44a29.34,29.34,0,0,1,10.69,1.91,25.31,25.31,0,0,1,8.51,5.41,24.75,24.75,0,0,1,5.6,8.23,26.39,26.39,0,0,1,2,10.29,26.29,26.29,0,0,1-2,10.32,24.68,24.68,0,0,1-5.6,8.19,25.18,25.18,0,0,1-8.51,5.42A29.34,29.34,0,0,1,1601,79.12Zm0-6.42a20.38,20.38,0,0,0,7.76-1.45,18.43,18.43,0,0,0,6.21-4.08,18.74,18.74,0,0,0,4.11-6.17,20.8,20.8,0,0,0,0-15.41,19.38,19.38,0,0,0-4.11-6.17,18.21,18.21,0,0,0-6.21-4.11,21.68,21.68,0,0,0-15.59,0,18.53,18.53,0,0,0-6.24,4.11,19.17,19.17,0,0,0-4.15,6.17,20.8,20.8,0,0,0,0,15.41,18.54,18.54,0,0,0,4.15,6.17,18.75,18.75,0,0,0,6.24,4.08A20.55,20.55,0,0,0,1601,72.7Z" transform="translate(-45.54)"/><path class="cls-1" d="M1642.8,78.54V28h5.91l22.67,38.19h-3.18L1690.58,28h5.92l.07,50.53h-6.93l-.07-39.63h1.66l-19.92,33.5H1668l-20.07-33.5h1.81V78.54Z" transform="translate(-45.54)"/><path class="cls-1" d="M1761.9,79.12a28.94,28.94,0,0,1-10.72-2,25.58,25.58,0,0,1-8.56-5.45,25.22,25.22,0,0,1-5.63-8.19,27,27,0,0,1,0-20.5,25.22,25.22,0,0,1,5.63-8.19,25.7,25.7,0,0,1,8.52-5.45,28.89,28.89,0,0,1,10.76-1.95,29.25,29.25,0,0,1,10.68,1.91,25.45,25.45,0,0,1,8.52,5.41,24.72,24.72,0,0,1,5.59,8.23,27.68,27.68,0,0,1,0,20.61,24.66,24.66,0,0,1-5.59,8.19,25.32,25.32,0,0,1-8.52,5.42A29.25,29.25,0,0,1,1761.9,79.12Zm0-6.42a20.41,20.41,0,0,0,7.76-1.45,18.29,18.29,0,0,0,6.2-4.08A18.92,18.92,0,0,0,1780,61a20.8,20.8,0,0,0,0-15.41,19.58,19.58,0,0,0-4.12-6.17,18.07,18.07,0,0,0-6.2-4.11,20.41,20.41,0,0,0-7.76-1.45,20.64,20.64,0,0,0-7.84,1.45,18.53,18.53,0,0,0-6.24,4.11,19.12,19.12,0,0,0-5.63,13.86,19.71,19.71,0,0,0,1.48,7.72,18.76,18.76,0,0,0,10.39,10.25A20.64,20.64,0,0,0,1761.9,72.7Z" transform="translate(-45.54)"/><path class="cls-1" d="M1827.08,78.54V28H1833l33.42,41.51h-3.11V28h7.22V78.54h-5.92L1831.19,37h3.11v41.5Z" transform="translate(-45.54)"/><path class="cls-1" d="M1912.47,79.12a29,29,0,0,1-10.72-2,25.43,25.43,0,0,1-8.55-5.45,24.91,24.91,0,0,1-5.63-8.19,25.58,25.58,0,0,1-2-10.25,25.58,25.58,0,0,1,2-10.25,24.91,24.91,0,0,1,5.63-8.19,25.56,25.56,0,0,1,8.51-5.45,28.92,28.92,0,0,1,10.76-1.95,29.25,29.25,0,0,1,10.68,1.91,25.45,25.45,0,0,1,8.52,5.41,24.57,24.57,0,0,1,5.59,8.23,26.22,26.22,0,0,1,2,10.29,26.12,26.12,0,0,1-2,10.32,24.51,24.51,0,0,1-5.59,8.19,25.32,25.32,0,0,1-8.52,5.42A29.25,29.25,0,0,1,1912.47,79.12Zm0-6.42a20.38,20.38,0,0,0,7.76-1.45,18.43,18.43,0,0,0,6.21-4.08,19.05,19.05,0,0,0,4.11-6.17,19.81,19.81,0,0,0-4.11-21.58,18.21,18.21,0,0,0-6.21-4.11,21.68,21.68,0,0,0-15.59,0,18.57,18.57,0,0,0-6.25,4.11,19.33,19.33,0,0,0-4.15,6.17,20.8,20.8,0,0,0,0,15.41,18.73,18.73,0,0,0,10.4,10.25A20.55,20.55,0,0,0,1912.47,72.7Z" transform="translate(-45.54)"/><path class="cls-1" d="M1967.26,78.54,1945,28h7.8l20.43,46.64h-4.48L1989.34,28h7.22L1974.4,78.54Z" transform="translate(-45.54)"/><path class="cls-1" d="M2029.26,79.12a29,29,0,0,1-10.72-2,25.53,25.53,0,0,1-8.55-5.45,25.06,25.06,0,0,1-5.63-8.19,25.58,25.58,0,0,1-2-10.25,25.58,25.58,0,0,1,2-10.25,25.06,25.06,0,0,1,5.63-8.19,25.5,25.5,0,0,1,8.52-5.45,28.83,28.83,0,0,1,10.75-1.95A29.34,29.34,0,0,1,2040,29.35a25.31,25.31,0,0,1,8.51,5.41,24.75,24.75,0,0,1,5.6,8.23,26.39,26.39,0,0,1,2,10.29,26.29,26.29,0,0,1-2,10.32,24.68,24.68,0,0,1-5.6,8.19,25.18,25.18,0,0,1-8.51,5.42A29.34,29.34,0,0,1,2029.26,79.12Zm0-6.42a20.38,20.38,0,0,0,7.76-1.45,18.43,18.43,0,0,0,6.21-4.08,18.74,18.74,0,0,0,4.11-6.17,20.8,20.8,0,0,0,0-15.41,19.38,19.38,0,0,0-4.11-6.17,18.21,18.21,0,0,0-6.21-4.11,21.68,21.68,0,0,0-15.59,0,18.53,18.53,0,0,0-6.24,4.11,19.17,19.17,0,0,0-4.15,6.17A20.8,20.8,0,0,0,2011,61a18.54,18.54,0,0,0,4.15,6.17,18.75,18.75,0,0,0,6.24,4.08A20.55,20.55,0,0,0,2029.26,72.7Z" transform="translate(-45.54)"/><path class="cls-1" d="M2070.26,79a4.88,4.88,0,0,1-4.91-5,4.63,4.63,0,0,1,1.45-3.54,4.85,4.85,0,0,1,3.46-1.37A4.75,4.75,0,0,1,2075,74a4.84,4.84,0,0,1-1.41,3.57A4.59,4.59,0,0,1,2070.26,79Z" transform="translate(-45.54)"/><path class="cls-1" d="M2128.08,79.12a34.41,34.41,0,0,1-11-1.77,22.65,22.65,0,0,1-8.31-4.58l2.68-5.63a23.24,23.24,0,0,0,7.36,4.18,26.49,26.49,0,0,0,9.31,1.67,20.92,20.92,0,0,0,7.15-1,8.48,8.48,0,0,0,4-2.77,6.65,6.65,0,0,0,1.3-4,5.49,5.49,0,0,0-1.7-4.19,12.59,12.59,0,0,0-4.4-2.56,50.67,50.67,0,0,0-6-1.7q-3.24-.72-6.53-1.69a29.17,29.17,0,0,1-6-2.49,12.23,12.23,0,0,1-4.37-4.08,11.93,11.93,0,0,1-1.66-6.61,13.3,13.3,0,0,1,2.06-7.18,14.33,14.33,0,0,1,6.35-5.27,26.2,26.2,0,0,1,10.94-2,33.77,33.77,0,0,1,8.73,1.15,24.46,24.46,0,0,1,7.51,3.32l-2.38,5.78a23.2,23.2,0,0,0-6.86-3.14,26.83,26.83,0,0,0-7-1,19.14,19.14,0,0,0-7,1.09,8.55,8.55,0,0,0-4,2.88,6.92,6.92,0,0,0-1.26,4.05,5.52,5.52,0,0,0,1.69,4.25,12.1,12.1,0,0,0,4.4,2.53,59.75,59.75,0,0,0,6,1.7c2.17.5,4.34,1.07,6.53,1.69a28,28,0,0,1,6,2.46,12.39,12.39,0,0,1,4.37,4,11.59,11.59,0,0,1,1.66,6.5,13,13,0,0,1-2.09,7.11,14.55,14.55,0,0,1-6.46,5.27A26.71,26.71,0,0,1,2128.08,79.12Z" transform="translate(-45.54)"/><path class="cls-1" d="M2185,79.12a29,29,0,0,1-10.72-2,25.43,25.43,0,0,1-8.55-5.45,24.91,24.91,0,0,1-5.63-8.19,26.89,26.89,0,0,1,0-20.5,24.91,24.91,0,0,1,5.63-8.19,25.56,25.56,0,0,1,8.51-5.45A28.92,28.92,0,0,1,2185,27.44a29.25,29.25,0,0,1,10.68,1.91,25.45,25.45,0,0,1,8.52,5.41,24.57,24.57,0,0,1,5.59,8.23,26.22,26.22,0,0,1,2,10.29,26.12,26.12,0,0,1-2,10.32,24.51,24.51,0,0,1-5.59,8.19,25.32,25.32,0,0,1-8.52,5.42A29.25,29.25,0,0,1,2185,79.12Zm0-6.42a20.38,20.38,0,0,0,7.76-1.45,18.43,18.43,0,0,0,6.21-4.08A19.05,19.05,0,0,0,2203,61a19.81,19.81,0,0,0-4.11-21.58,18.21,18.21,0,0,0-6.21-4.11,21.68,21.68,0,0,0-15.59,0,18.57,18.57,0,0,0-6.25,4.11,19.33,19.33,0,0,0-4.15,6.17,20.8,20.8,0,0,0,0,15.41,18.73,18.73,0,0,0,10.4,10.25A20.55,20.55,0,0,0,2185,72.7Z" transform="translate(-45.54)"/><path class="cls-1" d="M2226.75,78.54V28h5.92l22.67,38.19h-3.18L2274.54,28h5.92l.07,50.53h-6.93l-.07-39.63h1.66l-19.93,33.5h-3.32l-20.06-33.5h1.8V78.54Z" transform="translate(-45.54)"/><path class="cls-1" d="M2322.47,79.12a28.94,28.94,0,0,1-10.72-2,25.58,25.58,0,0,1-8.56-5.45,25.22,25.22,0,0,1-5.63-8.19,27,27,0,0,1,0-20.5,25.22,25.22,0,0,1,5.63-8.19,25.7,25.7,0,0,1,8.52-5.45,28.89,28.89,0,0,1,10.76-1.95,29.25,29.25,0,0,1,10.68,1.91,25.45,25.45,0,0,1,8.52,5.41,24.72,24.72,0,0,1,5.59,8.23,27.68,27.68,0,0,1,0,20.61,24.66,24.66,0,0,1-5.59,8.19,25.32,25.32,0,0,1-8.52,5.42A29.25,29.25,0,0,1,2322.47,79.12Zm0-6.42a20.41,20.41,0,0,0,7.76-1.45,18.29,18.29,0,0,0,6.2-4.08,18.92,18.92,0,0,0,4.12-6.17,20.8,20.8,0,0,0,0-15.41,19.58,19.58,0,0,0-4.12-6.17,18.07,18.07,0,0,0-6.2-4.11,20.41,20.41,0,0,0-7.76-1.45,20.64,20.64,0,0,0-7.84,1.45,18.53,18.53,0,0,0-6.24,4.11,19.12,19.12,0,0,0-5.63,13.86,19.71,19.71,0,0,0,1.48,7.72,18.76,18.76,0,0,0,10.39,10.25A20.64,20.64,0,0,0,2322.47,72.7Z" transform="translate(-45.54)"/><path class="cls-1" d="M2379,79.12a34.43,34.43,0,0,1-11-1.77,22.6,22.6,0,0,1-8.3-4.58l2.67-5.63a23.35,23.35,0,0,0,7.36,4.18A26.54,26.54,0,0,0,2379,73a20.86,20.86,0,0,0,7.14-1,8.39,8.39,0,0,0,4-2.77,6.59,6.59,0,0,0,1.3-4,5.48,5.48,0,0,0-1.69-4.19,12.55,12.55,0,0,0-4.41-2.56,50.48,50.48,0,0,0-5.95-1.7q-3.26-.72-6.53-1.69a29.49,29.49,0,0,1-6-2.49,12.2,12.2,0,0,1-4.36-4.08,11.93,11.93,0,0,1-1.66-6.61,13.29,13.29,0,0,1,2.05-7.18,14.36,14.36,0,0,1,6.36-5.27,26.15,26.15,0,0,1,10.93-2,33.79,33.79,0,0,1,8.74,1.15,24.4,24.4,0,0,1,7.5,3.32l-2.38,5.78a23,23,0,0,0-6.86-3.14,26.78,26.78,0,0,0-7-1,19.08,19.08,0,0,0-7,1.09,8.58,8.58,0,0,0-4,2.88,6.92,6.92,0,0,0-1.26,4.05,5.53,5.53,0,0,0,1.7,4.25,12.1,12.1,0,0,0,4.4,2.53,59,59,0,0,0,6,1.7c2.16.5,4.34,1.07,6.53,1.69a28.26,28.26,0,0,1,6,2.46,12.47,12.47,0,0,1,4.37,4,11.67,11.67,0,0,1,1.66,6.5,13,13,0,0,1-2.1,7.11,14.5,14.5,0,0,1-6.46,5.27A26.69,26.69,0,0,1,2379,79.12Z" transform="translate(-45.54)"/><path class="cls-1" d="M2428.79,78.54,2451.67,28h7.15l22.95,50.53h-7.58l-20.42-46.48h2.88l-20.43,46.48Zm9.74-12.63,1.95-5.77h28.44l2.1,5.77Z" transform="translate(-45.54)"/><path class="cls-1" d="M2493.25,78.54V28H2513a27.66,27.66,0,0,1,11.34,2.1,16.07,16.07,0,0,1,7.22,6.06,17.29,17.29,0,0,1,2.52,9.46,17.08,17.08,0,0,1-2.52,9.42,16.39,16.39,0,0,1-7.22,6.06A27.32,27.32,0,0,1,2513,63.24h-15.73l3.25-3.39V78.54Zm7.22-18L2497.22,57h15.52q6.93,0,10.5-3t3.57-8.37a10.29,10.29,0,0,0-3.57-8.38q-3.57-3-10.5-3h-15.52l3.25-3.61Z" transform="translate(-45.54)"/><path class="cls-1" d="M2538.43,78.54,2561.32,28h7.14l23,50.53h-7.58l-20.43-46.48h2.89l-20.43,46.48Zm9.75-12.63,2-5.77h28.44l2.09,5.77Z" transform="translate(-45.54)"/><path class="cls-1" d="M2602.89,78.54V28h7.22V78.54Z" transform="translate(-45.54)"/><path class="cls-1" d="M2622.6,78.54l21-28.65v5.55L2623.75,28H2632l15.74,21.59-3.25.07L2660.13,28H2668l-19.7,27v-5.2l21,28.73H2661l-16.75-23h3.18l-16.53,23Z" transform="translate(-45.54)"/><path class="cls-1" d="M2702.79,79.12a28.88,28.88,0,0,1-10.71-2,25.58,25.58,0,0,1-8.56-5.45,25.06,25.06,0,0,1-5.63-8.19,25.58,25.58,0,0,1-2-10.25,25.58,25.58,0,0,1,2-10.25,25.06,25.06,0,0,1,5.63-8.19,25.7,25.7,0,0,1,8.52-5.45,28.87,28.87,0,0,1,10.75-1.95,29.34,29.34,0,0,1,10.69,1.91,25.45,25.45,0,0,1,8.52,5.41,24.72,24.72,0,0,1,5.59,8.23,26.39,26.39,0,0,1,2,10.29,26.29,26.29,0,0,1-2,10.32,24.66,24.66,0,0,1-5.59,8.19,25.32,25.32,0,0,1-8.52,5.42A29.34,29.34,0,0,1,2702.79,79.12Zm0-6.42a20.38,20.38,0,0,0,7.76-1.45,18.33,18.33,0,0,0,6.21-4.08,18.92,18.92,0,0,0,4.12-6.17,20.8,20.8,0,0,0,0-15.41,19.58,19.58,0,0,0-4.12-6.17,18.11,18.11,0,0,0-6.21-4.11,21.68,21.68,0,0,0-15.59,0,18.53,18.53,0,0,0-6.24,4.11,19.17,19.17,0,0,0-4.15,6.17,20.8,20.8,0,0,0,0,15.41,18.54,18.54,0,0,0,4.15,6.17,18.75,18.75,0,0,0,6.24,4.08A20.55,20.55,0,0,0,2702.79,72.7Z" transform="translate(-45.54)"/><path class="cls-1" d="M2744.59,78.54V28h5.92l33.42,41.51h-3.11V28H2788V78.54h-5.92L2748.7,37h3.11v41.5Z" transform="translate(-45.54)"/><path class="cls-1" d="M2799.52,78.54,2822.4,28h7.15l22.95,50.53h-7.58l-20.43-46.48h2.89L2807,78.54Zm9.74-12.63,1.95-5.77h28.44l2.1,5.77Z" transform="translate(-45.54)"/><path class="cls-1" d="M2864,78.54V28h21.29a30.73,30.73,0,0,1,14.26,3.18,23.55,23.55,0,0,1,9.6,8.88,25.17,25.17,0,0,1,3.43,13.21,25.2,25.2,0,0,1-3.43,13.21,23.55,23.55,0,0,1-9.6,8.88,30.73,30.73,0,0,1-14.26,3.17Zm7.22-6.28h13.64a23.2,23.2,0,0,0,10.86-2.38,17.25,17.25,0,0,0,7.11-6.68,19.14,19.14,0,0,0,2.53-9.92,19.11,19.11,0,0,0-2.53-10,17.28,17.28,0,0,0-7.11-6.64,23.2,23.2,0,0,0-10.86-2.38H2871.2Z" transform="translate(-45.54)"/><path class="cls-1" d="M2919.2,78.54,2942.08,28h7.15l22.95,50.53h-7.58l-20.43-46.48h2.89l-20.43,46.48Zm9.74-12.63,1.95-5.77h28.44l2.09,5.77Z" transform="translate(-45.54)"/><path class="cls-1" d="M2998.38,79.12a34.41,34.41,0,0,1-11-1.77,22.52,22.52,0,0,1-8.3-4.58l2.67-5.63a23.35,23.35,0,0,0,7.36,4.18,26.49,26.49,0,0,0,9.31,1.67,20.88,20.88,0,0,0,7.15-1,8.43,8.43,0,0,0,4-2.77,6.59,6.59,0,0,0,1.3-4,5.49,5.49,0,0,0-1.7-4.19,12.59,12.59,0,0,0-4.4-2.56,50.12,50.12,0,0,0-6-1.7q-3.24-.72-6.53-1.69a29.4,29.4,0,0,1-6-2.49,12.31,12.31,0,0,1-4.37-4.08,12,12,0,0,1-1.66-6.61,13.3,13.3,0,0,1,2.06-7.18,14.33,14.33,0,0,1,6.35-5.27,26.23,26.23,0,0,1,10.94-2,33.71,33.71,0,0,1,8.73,1.15,24.46,24.46,0,0,1,7.51,3.32l-2.38,5.78a23.09,23.09,0,0,0-6.86-3.14,26.83,26.83,0,0,0-7-1,19.08,19.08,0,0,0-7,1.09,8.53,8.53,0,0,0-4,2.88,6.92,6.92,0,0,0-1.26,4.05,5.52,5.52,0,0,0,1.69,4.25,12.07,12.07,0,0,0,4.41,2.53,59.52,59.52,0,0,0,5.95,1.7c2.17.5,4.34,1.07,6.53,1.69a28.35,28.35,0,0,1,6,2.46,12.44,12.44,0,0,1,4.36,4,11.59,11.59,0,0,1,1.66,6.5,13,13,0,0,1-2.09,7.11,14.55,14.55,0,0,1-6.46,5.27A26.71,26.71,0,0,1,2998.38,79.12Z" transform="translate(-45.54)"/><path class="cls-1" d="M3055.84,78.54V28h19.7a27.66,27.66,0,0,1,11.34,2.1,16.12,16.12,0,0,1,7.22,6.06,17.29,17.29,0,0,1,2.52,9.46,17.08,17.08,0,0,1-2.52,9.42,16.44,16.44,0,0,1-7.22,6.06,27.32,27.32,0,0,1-11.34,2.13h-15.73l3.25-3.39V78.54Zm7.22-18L3059.81,57h15.52q6.93,0,10.5-3t3.57-8.37a10.29,10.29,0,0,0-3.57-8.38q-3.57-3-10.5-3h-15.52l3.25-3.61Z" transform="translate(-45.54)"/><path class="cls-1" d="M3134.73,79.12a29,29,0,0,1-10.72-2,25.63,25.63,0,0,1-8.55-5.45,25.06,25.06,0,0,1-5.63-8.19,25.58,25.58,0,0,1-2-10.25,25.58,25.58,0,0,1,2-10.25,25.06,25.06,0,0,1,5.63-8.19,25.6,25.6,0,0,1,8.52-5.45,28.87,28.87,0,0,1,10.75-1.95,29.34,29.34,0,0,1,10.69,1.91,25.31,25.31,0,0,1,8.51,5.41,24.75,24.75,0,0,1,5.6,8.23,26.39,26.39,0,0,1,2,10.29,26.29,26.29,0,0,1-2,10.32,24.68,24.68,0,0,1-5.6,8.19,25.18,25.18,0,0,1-8.51,5.42A29.34,29.34,0,0,1,3134.73,79.12Zm0-6.42a20.38,20.38,0,0,0,7.76-1.45,18.43,18.43,0,0,0,6.21-4.08,18.74,18.74,0,0,0,4.11-6.17,20.8,20.8,0,0,0,0-15.41,19.38,19.38,0,0,0-4.11-6.17,18.21,18.21,0,0,0-6.21-4.11,21.68,21.68,0,0,0-15.59,0,18.53,18.53,0,0,0-6.24,4.11,19.17,19.17,0,0,0-4.15,6.17,20.8,20.8,0,0,0,0,15.41,18.54,18.54,0,0,0,4.15,6.17,18.75,18.75,0,0,0,6.24,4.08A20.55,20.55,0,0,0,3134.73,72.7Z" transform="translate(-45.54)"/><path class="cls-1" d="M3176.53,78.54V28h19.7a27.66,27.66,0,0,1,11.34,2.1,16,16,0,0,1,7.21,6.06,17.21,17.21,0,0,1,2.53,9.46,17,17,0,0,1-2.53,9.42,16.09,16.09,0,0,1-7.21,6,27.66,27.66,0,0,1-11.34,2.1H3180.5l3.24-3.32V78.54Zm7.21-18L3180.5,57H3196q6.93,0,10.5-3a10.38,10.38,0,0,0,3.57-8.41,10.29,10.29,0,0,0-3.57-8.38q-3.57-3-10.5-3H3180.5l3.24-3.61Zm26.57,18-12.85-18.33h7.72l13,18.33Z" transform="translate(-45.54)"/><path class="cls-1" d="M90.55,158.84,68.32,108.31h7.8l20.42,46.63H92.07l20.57-46.63h7.22L97.7,158.84Z" transform="translate(-45.54)"/><path class="cls-1" d="M130.25,158.84V108.31h7.22v50.53Z" transform="translate(-45.54)"/><path class="cls-1" d="M149,158.84l22.88-50.53H179l23,50.53h-7.58l-20.43-46.49h2.89l-20.43,46.49Zm9.74-12.64,1.95-5.77h28.44l2.09,5.77Z" transform="translate(-45.54)"/><path class="cls-1" d="M235.5,159.41a29.28,29.28,0,0,1-10.76-1.91,25,25,0,0,1-14.15-13.61,27.37,27.37,0,0,1,0-20.64,24.87,24.87,0,0,1,5.67-8.19,25.65,25.65,0,0,1,8.55-5.42,31.75,31.75,0,0,1,21.8,0,21.73,21.73,0,0,1,8.45,5.85L250.58,120a20,20,0,0,0-6.75-4.44,21.69,21.69,0,0,0-7.9-1.4,22.1,22.1,0,0,0-8.05,1.44,19.1,19.1,0,0,0-6.42,4,17.82,17.82,0,0,0-4.19,6.17,20,20,0,0,0-1.48,7.76,19.81,19.81,0,0,0,1.48,7.69,18.27,18.27,0,0,0,4.19,6.21,19.16,19.16,0,0,0,6.38,4.08,21.86,21.86,0,0,0,8,1.44,24,24,0,0,0,7.76-1.26,19.07,19.07,0,0,0,6.89-4.23l4.11,5.49a25.47,25.47,0,0,1-8.77,4.8A33.43,33.43,0,0,1,235.5,159.41Zm12.19-7.36V133.28h6.93V153Z" transform="translate(-45.54)"/><path class="cls-1" d="M279.6,152.56h29.45v6.28H272.38V108.31H308v6.28H279.6ZM279,130.11h26v6.13H279Z" transform="translate(-45.54)"/><path class="cls-1" d="M324.71,158.84V108.31h5.92l33.42,41.5H361v-41.5h7.22v50.53h-5.92l-33.42-41.51h3.1v41.51Z" transform="translate(-45.54)"/><path class="cls-1" d="M402,159.41a34.41,34.41,0,0,1-11-1.76,22.66,22.66,0,0,1-8.31-4.59l2.68-5.63a23.26,23.26,0,0,0,7.36,4.19,26.48,26.48,0,0,0,9.31,1.66,21.2,21.2,0,0,0,7.15-1,8.57,8.57,0,0,0,4-2.78,6.65,6.65,0,0,0,1.3-4,5.46,5.46,0,0,0-1.7-4.18,12.6,12.6,0,0,0-4.4-2.57,48.86,48.86,0,0,0-6-1.69q-3.24-.72-6.53-1.7a29.17,29.17,0,0,1-6-2.49,12.23,12.23,0,0,1-4.37-4.08,11.92,11.92,0,0,1-1.66-6.6A13.27,13.27,0,0,1,386,115a14.27,14.27,0,0,1,6.35-5.27,26,26,0,0,1,10.94-2,33.78,33.78,0,0,1,8.73,1.16,24.22,24.22,0,0,1,7.51,3.32L417.11,118a23.46,23.46,0,0,0-6.86-3.14,26.81,26.81,0,0,0-7-1,19.28,19.28,0,0,0-7,1.08,8.48,8.48,0,0,0-4,2.89,6.89,6.89,0,0,0-1.26,4,5.56,5.56,0,0,0,1.69,4.26,12.05,12.05,0,0,0,4.41,2.52,56.28,56.28,0,0,0,5.95,1.7c2.17.51,4.34,1.07,6.53,1.7a27.53,27.53,0,0,1,6,2.45,12.39,12.39,0,0,1,4.37,4,11.61,11.61,0,0,1,1.66,6.5,13,13,0,0,1-2.09,7.11,14.49,14.49,0,0,1-6.46,5.27A26.71,26.71,0,0,1,402,159.41Z" transform="translate(-45.54)"/><path class="cls-1" d="M433.78,169.52l3.61-14.58.94,4.19a5,5,0,0,1-3.5-1.3,4.59,4.59,0,0,1-1.41-3.54,4.75,4.75,0,0,1,4.83-4.91,4.41,4.41,0,0,1,3.4,1.41,5,5,0,0,1,1.3,3.5,9.36,9.36,0,0,1-.11,1.41,16,16,0,0,1-.36,1.58c-.17.61-.42,1.34-.76,2.21l-3.39,10Z" transform="translate(-45.54)"/><path class="cls-1" d="M481.27,158.84V108.31H501a27.79,27.79,0,0,1,11.33,2.09,16,16,0,0,1,7.22,6.07,18.86,18.86,0,0,1,0,18.87,16.27,16.27,0,0,1-7.22,6.06A27.27,27.27,0,0,1,501,143.53H485.24l3.25-3.39v18.7Zm7.22-18-3.25-3.61h15.52q6.93,0,10.51-3t3.57-8.37q0-5.42-3.57-8.37t-10.51-3H485.24l3.25-3.61Z" transform="translate(-45.54)"/><path class="cls-1" d="M543.86,152.56h29.45v6.28H536.64V108.31H572.3v6.28H543.86Zm-.65-22.45h26v6.13h-26Z" transform="translate(-45.54)"/><path class="cls-1" d="M603.7,159.41a34.47,34.47,0,0,1-11.05-1.76,22.61,22.61,0,0,1-8.3-4.59l2.67-5.63a23.48,23.48,0,0,0,7.36,4.19,26.53,26.53,0,0,0,9.32,1.66,21.13,21.13,0,0,0,7.14-1,8.47,8.47,0,0,0,4-2.78,6.59,6.59,0,0,0,1.3-4,5.46,5.46,0,0,0-1.69-4.18,12.56,12.56,0,0,0-4.41-2.57,48.68,48.68,0,0,0-6-1.69c-2.17-.48-4.34-1-6.53-1.7a29.49,29.49,0,0,1-6-2.49,12.2,12.2,0,0,1-4.36-4.08,11.92,11.92,0,0,1-1.66-6.6,13.27,13.27,0,0,1,2-7.18,14.3,14.3,0,0,1,6.36-5.27,26,26,0,0,1,10.93-2,33.8,33.8,0,0,1,8.74,1.16,24.16,24.16,0,0,1,7.5,3.32L618.78,118a23.22,23.22,0,0,0-6.86-3.14,26.75,26.75,0,0,0-7-1,19.31,19.31,0,0,0-7,1.08,8.53,8.53,0,0,0-4,2.89,6.89,6.89,0,0,0-1.26,4,5.57,5.57,0,0,0,1.7,4.26,12.09,12.09,0,0,0,4.4,2.52,57.18,57.18,0,0,0,6,1.7c2.16.51,4.34,1.07,6.53,1.7a27.53,27.53,0,0,1,6,2.45,12.47,12.47,0,0,1,4.37,4,11.7,11.7,0,0,1,1.66,6.5,13,13,0,0,1-2.1,7.11,14.43,14.43,0,0,1-6.46,5.27A26.69,26.69,0,0,1,603.7,159.41Z" transform="translate(-45.54)"/><path class="cls-1" d="M652.49,159.41a34.41,34.41,0,0,1-11-1.76,22.52,22.52,0,0,1-8.3-4.59l2.67-5.63a23.26,23.26,0,0,0,7.36,4.19,26.48,26.48,0,0,0,9.31,1.66,21.16,21.16,0,0,0,7.15-1,8.52,8.52,0,0,0,4-2.78,6.59,6.59,0,0,0,1.3-4,5.46,5.46,0,0,0-1.7-4.18,12.6,12.6,0,0,0-4.4-2.57,48.86,48.86,0,0,0-6-1.69q-3.24-.72-6.53-1.7a29.17,29.17,0,0,1-6-2.49,12.31,12.31,0,0,1-4.37-4.08,12,12,0,0,1-1.66-6.6,13.27,13.27,0,0,1,2.06-7.18,14.27,14.27,0,0,1,6.35-5.27,26,26,0,0,1,10.94-2,33.78,33.78,0,0,1,8.73,1.16,24.22,24.22,0,0,1,7.51,3.32L667.58,118a23.34,23.34,0,0,0-6.86-3.14,26.81,26.81,0,0,0-7-1,19.28,19.28,0,0,0-7,1.08,8.48,8.48,0,0,0-4,2.89,6.89,6.89,0,0,0-1.26,4,5.56,5.56,0,0,0,1.69,4.26,12.05,12.05,0,0,0,4.41,2.52,57,57,0,0,0,6,1.7c2.17.51,4.34,1.07,6.53,1.7a27.53,27.53,0,0,1,6,2.45,12.39,12.39,0,0,1,4.37,4,11.61,11.61,0,0,1,1.66,6.5,13,13,0,0,1-2.09,7.11,14.49,14.49,0,0,1-6.46,5.27A26.71,26.71,0,0,1,652.49,159.41Z" transform="translate(-45.54)"/><path class="cls-1" d="M709.37,159.41a29.18,29.18,0,0,1-10.72-1.94A25.59,25.59,0,0,1,690.1,152a25.06,25.06,0,0,1-5.63-8.2,27,27,0,0,1,0-20.5,25,25,0,0,1,5.63-8.19,25.72,25.72,0,0,1,8.51-5.45,28.92,28.92,0,0,1,10.76-2,29.25,29.25,0,0,1,10.68,1.91,25.32,25.32,0,0,1,8.52,5.42,24.47,24.47,0,0,1,5.59,8.23,27.65,27.65,0,0,1,0,20.6,24.65,24.65,0,0,1-5.59,8.2,25.29,25.29,0,0,1-8.52,5.41A29,29,0,0,1,709.37,159.41Zm0-6.42a20.56,20.56,0,0,0,7.76-1.44,18.73,18.73,0,0,0,6.21-4.08,19.27,19.27,0,0,0,4.11-6.17,19.79,19.79,0,0,0,1.48-7.73,19.44,19.44,0,0,0-1.48-7.68,19.65,19.65,0,0,0-4.11-6.18,18.21,18.21,0,0,0-6.21-4.11,21.82,21.82,0,0,0-15.59,0,18.57,18.57,0,0,0-6.25,4.11,19.26,19.26,0,0,0-4.15,6.18,19.62,19.62,0,0,0-1.48,7.68,20,20,0,0,0,1.48,7.73,18.9,18.9,0,0,0,4.15,6.17,19.11,19.11,0,0,0,6.25,4.08A20.74,20.74,0,0,0,709.37,153Z" transform="translate(-45.54)"/><path class="cls-1" d="M742.79,158.84l22.88-50.53h7.15l22.95,50.53h-7.58l-20.42-46.49h2.88l-20.42,46.49Zm9.75-12.64,1.94-5.77h28.44l2.1,5.77Z" transform="translate(-45.54)"/><path class="cls-1" d="M822,159.41a34.41,34.41,0,0,1-11-1.76,22.61,22.61,0,0,1-8.3-4.59l2.67-5.63a23.37,23.37,0,0,0,7.36,4.19,26.52,26.52,0,0,0,9.31,1.66,21.16,21.16,0,0,0,7.15-1,8.47,8.47,0,0,0,4-2.78,6.59,6.59,0,0,0,1.3-4,5.46,5.46,0,0,0-1.69-4.18,12.65,12.65,0,0,0-4.41-2.57,48.68,48.68,0,0,0-6-1.69q-3.25-.72-6.53-1.7a29.26,29.26,0,0,1-6-2.49,12.2,12.2,0,0,1-4.36-4.08,11.92,11.92,0,0,1-1.66-6.6,13.27,13.27,0,0,1,2-7.18,14.3,14.3,0,0,1,6.36-5.27,26,26,0,0,1,10.93-2,33.8,33.8,0,0,1,8.74,1.16,24.27,24.27,0,0,1,7.5,3.32L837.06,118a23.22,23.22,0,0,0-6.86-3.14,26.75,26.75,0,0,0-7-1,19.31,19.31,0,0,0-7,1.08,8.53,8.53,0,0,0-4,2.89,6.89,6.89,0,0,0-1.26,4,5.57,5.57,0,0,0,1.7,4.26,12.09,12.09,0,0,0,4.4,2.52,56.49,56.49,0,0,0,6,1.7c2.16.51,4.34,1.07,6.53,1.7a27.73,27.73,0,0,1,6,2.45,12.47,12.47,0,0,1,4.37,4,11.7,11.7,0,0,1,1.66,6.5,13,13,0,0,1-2.1,7.11,14.43,14.43,0,0,1-6.46,5.27A26.71,26.71,0,0,1,822,159.41Z" transform="translate(-45.54)"/><path class="cls-1" d="M886.65,152.56H916.1v6.28H879.43V108.31h35.66v6.28H886.65ZM886,130.11h26v6.13H886Z" transform="translate(-45.54)"/><path class="cls-1" d="M977.74,159.41a28.76,28.76,0,0,1-10.64-1.91,24.89,24.89,0,0,1-8.45-5.41,25.41,25.41,0,0,1-5.59-8.2,27.37,27.37,0,0,1,0-20.64,24.91,24.91,0,0,1,5.63-8.19,25.24,25.24,0,0,1,8.48-5.42,29,29,0,0,1,10.65-1.91,28.61,28.61,0,0,1,10.79,2A22.1,22.1,0,0,1,997,115.6l-4.7,4.55a18.66,18.66,0,0,0-6.49-4.51,20.12,20.12,0,0,0-7.73-1.48,21.3,21.3,0,0,0-7.9,1.44,19,19,0,0,0-6.32,4,18.29,18.29,0,0,0-4.15,6.17,21.08,21.08,0,0,0,0,15.52,18.29,18.29,0,0,0,4.15,6.17,19,19,0,0,0,6.32,4.05,21.3,21.3,0,0,0,7.9,1.44,20.12,20.12,0,0,0,7.73-1.48,18.35,18.35,0,0,0,6.49-4.58l4.7,4.54a22.41,22.41,0,0,1-8.41,5.92A28.43,28.43,0,0,1,977.74,159.41Z" transform="translate(-45.54)"/><path class="cls-1" d="M1032.24,159.41q-10,0-15.66-5.7t-5.7-16.67V108.31h7.21v28.44q0,8.44,3.72,12.34t10.5,3.9q6.87,0,10.58-3.9t3.72-12.34V108.31h7V137q0,11-5.67,16.67T1032.24,159.41Z" transform="translate(-45.54)"/><path class="cls-1" d="M1072.37,158.84V108.31h7.22v44.25H1107v6.28Z" transform="translate(-45.54)"/><path class="cls-1" d="M1124.56,158.84V114.59h-17.32v-6.28H1149v6.28h-17.32v44.25Z" transform="translate(-45.54)"/><path class="cls-1" d="M1180.87,159.41q-10,0-15.67-5.7T1159.5,137V108.31h7.22v28.44q0,8.44,3.72,12.34c2.47,2.6,6,3.9,10.5,3.9s8.09-1.3,10.57-3.9,3.72-6.71,3.72-12.34V108.31h7V137q0,11-5.66,16.67T1180.87,159.41Z" transform="translate(-45.54)"/><path class="cls-1" d="M1221,158.84V108.31h19.71A27.82,27.82,0,0,1,1252,110.4a16.09,16.09,0,0,1,7.22,6.07,18.92,18.92,0,0,1,0,18.87,16.2,16.2,0,0,1-7.22,6,27.82,27.82,0,0,1-11.33,2.09H1225l3.25-3.32v18.7Zm7.22-18-3.25-3.53h15.52q6.93,0,10.5-3a10.38,10.38,0,0,0,3.58-8.41,10.26,10.26,0,0,0-3.58-8.37q-3.57-3-10.5-3H1225l3.25-3.61Zm26.56,18-12.85-18.34h7.73l13,18.34Z" transform="translate(-45.54)"/><path class="cls-1" d="M1269.79,158.84l22.89-50.53h7.14l23,50.53h-7.58l-20.43-46.49h2.89l-20.43,46.49Zm9.75-12.64,2-5.77h28.44l2.09,5.77Z" transform="translate(-45.54)"/><path class="cls-1" d="M1349,159.41a34.41,34.41,0,0,1-11-1.76,22.57,22.57,0,0,1-8.31-4.59l2.67-5.63a23.42,23.42,0,0,0,7.37,4.19,26.44,26.44,0,0,0,9.31,1.66,21.2,21.2,0,0,0,7.15-1,8.57,8.57,0,0,0,4-2.78,6.65,6.65,0,0,0,1.3-4,5.46,5.46,0,0,0-1.7-4.18,12.6,12.6,0,0,0-4.4-2.57,48.86,48.86,0,0,0-6-1.69q-3.24-.72-6.53-1.7a29.17,29.17,0,0,1-6-2.49,12.23,12.23,0,0,1-4.37-4.08,11.92,11.92,0,0,1-1.66-6.6,13.27,13.27,0,0,1,2.06-7.18,14.27,14.27,0,0,1,6.35-5.27,26,26,0,0,1,10.94-2,33.78,33.78,0,0,1,8.73,1.16,24.22,24.22,0,0,1,7.51,3.32l-2.38,5.77a23.46,23.46,0,0,0-6.86-3.14,26.81,26.81,0,0,0-7-1,19.37,19.37,0,0,0-7,1.08,8.49,8.49,0,0,0-4,2.89,6.89,6.89,0,0,0-1.26,4,5.56,5.56,0,0,0,1.69,4.26,12.09,12.09,0,0,0,4.4,2.52,57.18,57.18,0,0,0,6,1.7c2.16.51,4.34,1.07,6.53,1.7a27.53,27.53,0,0,1,6,2.45,12.39,12.39,0,0,1,4.37,4,11.61,11.61,0,0,1,1.66,6.5,13,13,0,0,1-2.09,7.11,14.49,14.49,0,0,1-6.46,5.27A26.74,26.74,0,0,1,1349,159.41Z" transform="translate(-45.54)"/><path class="cls-1" d="M1406.44,158.84V108.31h21.29a30.85,30.85,0,0,1,14.26,3.17,23.55,23.55,0,0,1,9.6,8.88,27.22,27.22,0,0,1,0,26.42,23.55,23.55,0,0,1-9.6,8.88,30.73,30.73,0,0,1-14.26,3.18Zm7.21-6.28h13.65a23.26,23.26,0,0,0,10.86-2.39,17.28,17.28,0,0,0,7.11-6.67,20.81,20.81,0,0,0,0-19.89,17.41,17.41,0,0,0-7.11-6.64,23.26,23.26,0,0,0-10.86-2.38h-13.65Z" transform="translate(-45.54)"/><path class="cls-1" d="M1470,158.84V108.31h7.22v50.53Z" transform="translate(-45.54)"/><path class="cls-1" d="M1503.59,158.84h-7.22V108.31H1532v6.28h-28.44Zm-.72-26.64h26.06v6.21h-26.06Z" transform="translate(-45.54)"/><path class="cls-1" d="M1553.4,152.56h29.45v6.28h-36.67V108.31h35.66v6.28H1553.4Zm-.65-22.45h26v6.13h-26Z" transform="translate(-45.54)"/><path class="cls-1" d="M1598.51,158.84V108.31h19.71a27.79,27.79,0,0,1,11.33,2.09,16,16,0,0,1,7.22,6.07,18.86,18.86,0,0,1,0,18.87,16.15,16.15,0,0,1-7.22,6,27.79,27.79,0,0,1-11.33,2.09h-15.74l3.25-3.32v18.7Zm7.22-18-3.25-3.53H1618q6.93,0,10.51-3a10.38,10.38,0,0,0,3.57-8.41q0-5.42-3.57-8.37t-10.51-3h-15.52l3.25-3.61Zm26.56,18-12.84-18.34h7.72l13,18.34Z" transform="translate(-45.54)"/><path class="cls-1" d="M1662.18,152.56h29.45v6.28H1655V108.31h35.66v6.28h-28.44Zm-.65-22.45h26v6.13h-26Z" transform="translate(-45.54)"/><path class="cls-1" d="M1707.29,158.84V108.31h5.92l33.42,41.5h-3.1v-41.5h7.22v50.53h-5.92l-33.42-41.51h3.1v41.51Z" transform="translate(-45.54)"/><path class="cls-1" d="M1779.91,158.84V114.59h-17.33v-6.28h41.8v6.28h-17.33v44.25Z" transform="translate(-45.54)"/><path class="cls-1" d="M1823.43,152.56h29.45v6.28h-36.66V108.31h35.65v6.28h-28.44Zm-.65-22.45h26v6.13h-26Z" transform="translate(-45.54)"/><path class="cls-1" d="M1883.27,159.41a34.41,34.41,0,0,1-11-1.76,22.61,22.61,0,0,1-8.3-4.59l2.67-5.63a23.37,23.37,0,0,0,7.36,4.19,26.48,26.48,0,0,0,9.31,1.66,21.16,21.16,0,0,0,7.15-1,8.47,8.47,0,0,0,4-2.78,6.59,6.59,0,0,0,1.3-4,5.46,5.46,0,0,0-1.7-4.18,12.51,12.51,0,0,0-4.4-2.57,48.68,48.68,0,0,0-6-1.69q-3.26-.72-6.54-1.7a29.4,29.4,0,0,1-6-2.49,12.2,12.2,0,0,1-4.36-4.08,11.92,11.92,0,0,1-1.67-6.6,13.27,13.27,0,0,1,2.06-7.18,14.27,14.27,0,0,1,6.35-5.27,26.06,26.06,0,0,1,10.94-2,33.72,33.72,0,0,1,8.73,1.16,24.22,24.22,0,0,1,7.51,3.32l-2.38,5.77a23.34,23.34,0,0,0-6.86-3.14,26.81,26.81,0,0,0-7-1,19.31,19.31,0,0,0-7,1.08,8.48,8.48,0,0,0-4,2.89,6.89,6.89,0,0,0-1.26,4,5.53,5.53,0,0,0,1.7,4.26,12,12,0,0,0,4.4,2.52,57,57,0,0,0,6,1.7c2.17.51,4.35,1.07,6.54,1.7a27.73,27.73,0,0,1,6,2.45,12.36,12.36,0,0,1,4.36,4,11.61,11.61,0,0,1,1.66,6.5,12.94,12.94,0,0,1-2.09,7.11,14.49,14.49,0,0,1-6.46,5.27A26.71,26.71,0,0,1,1883.27,159.41Z" transform="translate(-45.54)"/><path class="cls-1" d="M1919.43,159.27a4.87,4.87,0,0,1-4.9-5,4.69,4.69,0,0,1,1.44-3.54,4.87,4.87,0,0,1,3.46-1.37,4.67,4.67,0,0,1,3.36,1.37,4.74,4.74,0,0,1,1.41,3.54,4.84,4.84,0,0,1-1.41,3.57A4.59,4.59,0,0,1,1919.43,159.27Z" transform="translate(-45.54)"/><path class="cls-1" d="M1977.25,159.41a34.41,34.41,0,0,1-11-1.76,22.61,22.61,0,0,1-8.3-4.59l2.67-5.63a23.37,23.37,0,0,0,7.36,4.19,26.48,26.48,0,0,0,9.31,1.66,21.16,21.16,0,0,0,7.15-1,8.52,8.52,0,0,0,4-2.78,6.59,6.59,0,0,0,1.3-4,5.46,5.46,0,0,0-1.7-4.18,12.51,12.51,0,0,0-4.4-2.57,48.68,48.68,0,0,0-6-1.69q-3.26-.72-6.54-1.7a29.4,29.4,0,0,1-6-2.49,12.31,12.31,0,0,1-4.37-4.08,12,12,0,0,1-1.66-6.6,13.27,13.27,0,0,1,2.06-7.18,14.27,14.27,0,0,1,6.35-5.27,26.06,26.06,0,0,1,10.94-2,33.72,33.72,0,0,1,8.73,1.16,24.22,24.22,0,0,1,7.51,3.32l-2.38,5.77a23.34,23.34,0,0,0-6.86-3.14,26.81,26.81,0,0,0-7-1,19.31,19.31,0,0,0-7,1.08,8.48,8.48,0,0,0-4,2.89,6.89,6.89,0,0,0-1.26,4,5.56,5.56,0,0,0,1.69,4.26,12.05,12.05,0,0,0,4.41,2.52,57,57,0,0,0,6,1.7c2.17.51,4.35,1.07,6.54,1.7a27.94,27.94,0,0,1,6,2.45,12.36,12.36,0,0,1,4.36,4,11.61,11.61,0,0,1,1.66,6.5,12.94,12.94,0,0,1-2.09,7.11,14.49,14.49,0,0,1-6.46,5.27A26.71,26.71,0,0,1,1977.25,159.41Z" transform="translate(-45.54)"/><path class="cls-1" d="M2034.13,159.41a29.18,29.18,0,0,1-10.72-1.94,25.59,25.59,0,0,1-8.55-5.45,25.06,25.06,0,0,1-5.63-8.2,27,27,0,0,1,0-20.5,25,25,0,0,1,5.63-8.19,25.66,25.66,0,0,1,8.52-5.45,28.83,28.83,0,0,1,10.75-2,29.25,29.25,0,0,1,10.68,1.91,25.22,25.22,0,0,1,8.52,5.42,24.64,24.64,0,0,1,5.6,8.23,27.78,27.78,0,0,1,0,20.6,24.83,24.83,0,0,1-5.6,8.2,25.19,25.19,0,0,1-8.52,5.41A29,29,0,0,1,2034.13,159.41Zm0-6.42a20.56,20.56,0,0,0,7.76-1.44,18.73,18.73,0,0,0,6.21-4.08,19.11,19.11,0,0,0,4.11-6.17,19.79,19.79,0,0,0,1.48-7.73,19.35,19.35,0,0,0-5.59-13.86,18.21,18.21,0,0,0-6.21-4.11,21.82,21.82,0,0,0-15.59,0,18.53,18.53,0,0,0-6.24,4.11,19.13,19.13,0,0,0-4.16,6.18,19.62,19.62,0,0,0-1.48,7.68,20,20,0,0,0,1.48,7.73,18.77,18.77,0,0,0,4.16,6.17,19.07,19.07,0,0,0,6.24,4.08A20.74,20.74,0,0,0,2034.13,153Z" transform="translate(-45.54)"/><path class="cls-1" d="M2075.92,158.84V108.31h5.92l22.67,38.18h-3.18l22.38-38.18h5.92l.07,50.53h-6.93l-.07-39.63h1.66l-19.92,33.49h-3.32l-20.07-33.49h1.8v39.63Z" transform="translate(-45.54)"/><path class="cls-1" d="M2171.64,159.41a29.18,29.18,0,0,1-10.72-1.94,25.59,25.59,0,0,1-8.55-5.45,25.06,25.06,0,0,1-5.63-8.2,26.89,26.89,0,0,1,0-20.5,25,25,0,0,1,5.63-8.19,25.72,25.72,0,0,1,8.51-5.45,28.92,28.92,0,0,1,10.76-2,29.25,29.25,0,0,1,10.68,1.91,25.32,25.32,0,0,1,8.52,5.42,24.47,24.47,0,0,1,5.59,8.23,27.65,27.65,0,0,1,0,20.6,24.65,24.65,0,0,1-5.59,8.2,25.29,25.29,0,0,1-8.52,5.41A29,29,0,0,1,2171.64,159.41Zm0-6.42a20.56,20.56,0,0,0,7.76-1.44,18.73,18.73,0,0,0,6.21-4.08,19.27,19.27,0,0,0,4.11-6.17,19.79,19.79,0,0,0,1.48-7.73,19.44,19.44,0,0,0-1.48-7.68,19.65,19.65,0,0,0-4.11-6.18,18.21,18.21,0,0,0-6.21-4.11,21.82,21.82,0,0,0-15.59,0,18.47,18.47,0,0,0-6.25,4.11,19.26,19.26,0,0,0-4.15,6.18,19.62,19.62,0,0,0-1.48,7.68,20,20,0,0,0,1.48,7.73,18.73,18.73,0,0,0,10.4,10.25A20.74,20.74,0,0,0,2171.64,153Z" transform="translate(-45.54)"/><path class="cls-1" d="M2228.16,159.41a34.51,34.51,0,0,1-11-1.76,22.61,22.61,0,0,1-8.3-4.59l2.67-5.63a23.42,23.42,0,0,0,7.37,4.19,26.44,26.44,0,0,0,9.31,1.66,21.13,21.13,0,0,0,7.14-1,8.55,8.55,0,0,0,4-2.78,6.65,6.65,0,0,0,1.29-4,5.46,5.46,0,0,0-1.69-4.18,12.6,12.6,0,0,0-4.4-2.57,48.86,48.86,0,0,0-6-1.69c-2.17-.48-4.34-1-6.53-1.7a29.17,29.17,0,0,1-6-2.49,12.23,12.23,0,0,1-4.37-4.08,11.92,11.92,0,0,1-1.66-6.6,13.19,13.19,0,0,1,2.06-7.18,14.21,14.21,0,0,1,6.35-5.27,26,26,0,0,1,10.93-2,33.8,33.8,0,0,1,8.74,1.16,24.22,24.22,0,0,1,7.51,3.32l-2.39,5.77a23.28,23.28,0,0,0-6.85-3.14,26.83,26.83,0,0,0-7-1,19.31,19.31,0,0,0-7,1.08,8.44,8.44,0,0,0-4,2.89,6.83,6.83,0,0,0-1.27,4,5.57,5.57,0,0,0,1.7,4.26,12.09,12.09,0,0,0,4.4,2.52,57.18,57.18,0,0,0,6,1.7c2.16.51,4.34,1.07,6.53,1.7a27.53,27.53,0,0,1,6,2.45,12.39,12.39,0,0,1,4.37,4,11.7,11.7,0,0,1,1.66,6.5,13,13,0,0,1-2.09,7.11,14.46,14.46,0,0,1-6.47,5.27A26.69,26.69,0,0,1,2228.16,159.41Z" transform="translate(-45.54)"/><path class="cls-1" d="M2285.61,158.84V108.31h7.22v44.25h27.36v6.28Z" transform="translate(-45.54)"/><path class="cls-1" d="M2354.33,159.41a29.18,29.18,0,0,1-10.72-1.94,25.79,25.79,0,0,1-8.55-5.45,25.21,25.21,0,0,1-5.63-8.2,27,27,0,0,1,0-20.5,25.17,25.17,0,0,1,5.63-8.19,25.76,25.76,0,0,1,8.52-5.45,28.83,28.83,0,0,1,10.75-2,29.34,29.34,0,0,1,10.69,1.91,25.18,25.18,0,0,1,8.51,5.42,24.64,24.64,0,0,1,5.6,8.23,27.78,27.78,0,0,1,0,20.6,24.83,24.83,0,0,1-5.6,8.2,25.15,25.15,0,0,1-8.51,5.41A29.14,29.14,0,0,1,2354.33,159.41Zm0-6.42a20.56,20.56,0,0,0,7.76-1.44,18.73,18.73,0,0,0,6.21-4.08,19,19,0,0,0,4.11-6.17,19.79,19.79,0,0,0,1.48-7.73,19.35,19.35,0,0,0-5.59-13.86,18.21,18.21,0,0,0-6.21-4.11,21.82,21.82,0,0,0-15.59,0,18.53,18.53,0,0,0-6.24,4.11,19.1,19.1,0,0,0-4.15,6.18,19.44,19.44,0,0,0-1.48,7.68,19.79,19.79,0,0,0,1.48,7.73,18.74,18.74,0,0,0,4.15,6.17,19.07,19.07,0,0,0,6.24,4.08A20.74,20.74,0,0,0,2354.33,153Z" transform="translate(-45.54)"/><path class="cls-1" d="M2417.06,159.41q-10,0-15.66-5.7T2395.69,137V108.31h7.22v28.44q0,8.44,3.72,12.34t10.5,3.9q6.85,0,10.58-3.9t3.71-12.34V108.31h7V137q0,11-5.67,16.67T2417.06,159.41Z" transform="translate(-45.54)"/><path class="cls-1" d="M2479.79,159.41a28.77,28.77,0,0,1-10.65-1.91,24.89,24.89,0,0,1-8.45-5.41,26.67,26.67,0,0,1-5.59-28.84,25.18,25.18,0,0,1,14.11-13.61,29,29,0,0,1,10.65-1.91,28.57,28.57,0,0,1,10.79,2,22.1,22.1,0,0,1,8.41,5.88l-4.69,4.55a18.7,18.7,0,0,0-6.5-4.51,20.1,20.1,0,0,0-7.72-1.48,21.35,21.35,0,0,0-7.91,1.44,18.92,18.92,0,0,0-6.31,4,18.14,18.14,0,0,0-4.15,6.17,21.08,21.08,0,0,0,0,15.52,18.14,18.14,0,0,0,4.15,6.17,18.94,18.94,0,0,0,6.31,4.05,21.35,21.35,0,0,0,7.91,1.44,20.1,20.1,0,0,0,7.72-1.48,18.39,18.39,0,0,0,6.5-4.58l4.69,4.54a22.41,22.41,0,0,1-8.41,5.92A28.41,28.41,0,0,1,2479.79,159.41Z" transform="translate(-45.54)"/><path class="cls-1" d="M2504.47,158.84l22.88-50.53h7.15l22.95,50.53h-7.58l-20.42-46.49h2.88l-20.42,46.49Zm9.75-12.64,2-5.77h28.44l2.09,5.77Z" transform="translate(-45.54)"/><path class="cls-1" d="M2583.66,159.41a34.42,34.42,0,0,1-11-1.76,22.61,22.61,0,0,1-8.3-4.59l2.67-5.63a23.37,23.37,0,0,0,7.36,4.19,26.53,26.53,0,0,0,9.32,1.66,21.13,21.13,0,0,0,7.14-1,8.47,8.47,0,0,0,4-2.78,6.59,6.59,0,0,0,1.3-4,5.46,5.46,0,0,0-1.69-4.18,12.56,12.56,0,0,0-4.41-2.57,48.68,48.68,0,0,0-5.95-1.69q-3.26-.72-6.53-1.7a29.49,29.49,0,0,1-6-2.49,12.2,12.2,0,0,1-4.36-4.08,11.92,11.92,0,0,1-1.66-6.6,13.27,13.27,0,0,1,2.05-7.18,14.3,14.3,0,0,1,6.36-5.27,26,26,0,0,1,10.93-2,33.8,33.8,0,0,1,8.74,1.16,24.16,24.16,0,0,1,7.5,3.32l-2.38,5.77a23.22,23.22,0,0,0-6.86-3.14,26.75,26.75,0,0,0-7-1,19.31,19.31,0,0,0-7,1.08,8.53,8.53,0,0,0-4,2.89,6.89,6.89,0,0,0-1.26,4,5.57,5.57,0,0,0,1.7,4.26,12.09,12.09,0,0,0,4.4,2.52,57.18,57.18,0,0,0,6,1.7c2.16.51,4.34,1.07,6.53,1.7a27.73,27.73,0,0,1,6,2.45,12.47,12.47,0,0,1,4.37,4,11.7,11.7,0,0,1,1.66,6.5,13,13,0,0,1-2.1,7.11,14.43,14.43,0,0,1-6.46,5.27A26.69,26.69,0,0,1,2583.66,159.41Z" transform="translate(-45.54)"/><path class="cls-1" d="M2641.11,158.84V108.31h19.71a27.82,27.82,0,0,1,11.33,2.09,16.09,16.09,0,0,1,7.22,6.07,18.86,18.86,0,0,1,0,18.87,16.32,16.32,0,0,1-7.22,6.06,27.31,27.31,0,0,1-11.33,2.13h-15.74l3.25-3.39v18.7Zm7.22-18-3.25-3.61h15.52q6.93,0,10.5-3t3.58-8.37q0-5.42-3.58-8.37t-10.5-3h-15.52l3.25-3.61Z" transform="translate(-45.54)"/><path class="cls-1" d="M2703.69,152.56h29.45v6.28h-36.66V108.31h35.65v6.28h-28.44Zm-.65-22.45h26v6.13h-26Z" transform="translate(-45.54)"/><path class="cls-1" d="M2748.81,158.84V108.31H2756v44.25h27.35v6.28Z" transform="translate(-45.54)"/><path class="cls-1" d="M2817.53,159.41a29.14,29.14,0,0,1-10.72-1.94,25.73,25.73,0,0,1-8.56-5.45,25.37,25.37,0,0,1-5.63-8.2,27,27,0,0,1,0-20.5,25.33,25.33,0,0,1,5.63-8.19,25.86,25.86,0,0,1,8.52-5.45,28.89,28.89,0,0,1,10.76-2,29.25,29.25,0,0,1,10.68,1.91,25.32,25.32,0,0,1,8.52,5.42,24.62,24.62,0,0,1,5.59,8.23,27.65,27.65,0,0,1,0,20.6,24.8,24.8,0,0,1-5.59,8.2,25.29,25.29,0,0,1-8.52,5.41A29,29,0,0,1,2817.53,159.41Zm0-6.42a20.6,20.6,0,0,0,7.76-1.44,18.59,18.59,0,0,0,6.2-4.08,19.14,19.14,0,0,0,4.12-6.17,20,20,0,0,0,1.48-7.73,19.3,19.3,0,0,0-5.6-13.86,18.07,18.07,0,0,0-6.2-4.11,21.82,21.82,0,0,0-15.59,0,18.47,18.47,0,0,0-6.25,4.11,19.16,19.16,0,0,0-5.63,13.86,19.79,19.79,0,0,0,1.48,7.73,18.73,18.73,0,0,0,10.4,10.25A20.74,20.74,0,0,0,2817.53,153Z" transform="translate(-45.54)"/><path class="cls-1" d="M2874.05,159.41a34.47,34.47,0,0,1-11.05-1.76,22.61,22.61,0,0,1-8.3-4.59l2.67-5.63a23.48,23.48,0,0,0,7.36,4.19,26.53,26.53,0,0,0,9.32,1.66,21.13,21.13,0,0,0,7.14-1,8.47,8.47,0,0,0,4-2.78,6.59,6.59,0,0,0,1.3-4,5.46,5.46,0,0,0-1.69-4.18,12.56,12.56,0,0,0-4.41-2.57,48.68,48.68,0,0,0-5.95-1.69c-2.17-.48-4.34-1-6.53-1.7a29.17,29.17,0,0,1-6-2.49,12.15,12.15,0,0,1-4.37-4.08,11.92,11.92,0,0,1-1.66-6.6A13.19,13.19,0,0,1,2858,115a14.21,14.21,0,0,1,6.35-5.27,26,26,0,0,1,10.93-2,33.8,33.8,0,0,1,8.74,1.16,24.16,24.16,0,0,1,7.5,3.32l-2.38,5.77a23.22,23.22,0,0,0-6.86-3.14,26.75,26.75,0,0,0-7-1,19.31,19.31,0,0,0-7,1.08,8.44,8.44,0,0,0-4,2.89,6.83,6.83,0,0,0-1.27,4,5.57,5.57,0,0,0,1.7,4.26,12.09,12.09,0,0,0,4.4,2.52,57.18,57.18,0,0,0,6,1.7c2.16.51,4.34,1.07,6.53,1.7a27.53,27.53,0,0,1,6,2.45,12.47,12.47,0,0,1,4.37,4,11.7,11.7,0,0,1,1.66,6.5,13,13,0,0,1-2.1,7.11,14.38,14.38,0,0,1-6.46,5.27A26.69,26.69,0,0,1,2874.05,159.41Z" transform="translate(-45.54)"/><path class="cls-1" d="M2931.5,158.84V108.31h7.22v44.25h27.36v6.28Z" transform="translate(-45.54)"/><path class="cls-1" d="M3000.22,159.41a29.18,29.18,0,0,1-10.72-1.94A25.69,25.69,0,0,1,2981,152a25.06,25.06,0,0,1-5.63-8.2,27,27,0,0,1,0-20.5,25,25,0,0,1,5.63-8.19,25.66,25.66,0,0,1,8.52-5.45,28.83,28.83,0,0,1,10.75-2,29.25,29.25,0,0,1,10.68,1.91,25.12,25.12,0,0,1,8.52,5.42,24.64,24.64,0,0,1,5.6,8.23,27.78,27.78,0,0,1,0,20.6,24.83,24.83,0,0,1-5.6,8.2,25.1,25.1,0,0,1-8.52,5.41A29,29,0,0,1,3000.22,159.41Zm0-6.42a20.56,20.56,0,0,0,7.76-1.44,18.73,18.73,0,0,0,6.21-4.08,19.11,19.11,0,0,0,4.11-6.17,19.79,19.79,0,0,0,1.48-7.73,19.35,19.35,0,0,0-5.59-13.86,18.21,18.21,0,0,0-6.21-4.11,21.82,21.82,0,0,0-15.59,0,18.53,18.53,0,0,0-6.24,4.11,19.13,19.13,0,0,0-4.16,6.18,19.61,19.61,0,0,0-1.47,7.68,20,20,0,0,0,1.47,7.73,18.77,18.77,0,0,0,4.16,6.17,19.07,19.07,0,0,0,6.24,4.08A20.74,20.74,0,0,0,3000.22,153Z" transform="translate(-45.54)"/><path class="cls-1" d="M3064.82,159.41a29.08,29.08,0,0,1-10.71-1.94,25.73,25.73,0,0,1-8.56-5.45,25.81,25.81,0,0,1,0-36.89,25.86,25.86,0,0,1,8.52-5.45,28.87,28.87,0,0,1,10.75-2,29.31,29.31,0,0,1,10.69,1.91,25.32,25.32,0,0,1,8.52,5.42,24.62,24.62,0,0,1,5.59,8.23,27.78,27.78,0,0,1,0,20.6,24.8,24.8,0,0,1-5.59,8.2,25.29,25.29,0,0,1-8.52,5.41A29.1,29.1,0,0,1,3064.82,159.41Zm0-6.42a20.56,20.56,0,0,0,7.76-1.44,18.63,18.63,0,0,0,6.21-4.08,19.14,19.14,0,0,0,4.12-6.17,20,20,0,0,0,1.48-7.73,19.3,19.3,0,0,0-5.6-13.86,18.11,18.11,0,0,0-6.21-4.11,20.56,20.56,0,0,0-7.76-1.44,20.82,20.82,0,0,0-7.83,1.44,18.53,18.53,0,0,0-6.24,4.11,19.1,19.1,0,0,0-4.15,6.18,19.44,19.44,0,0,0-1.48,7.68,19.79,19.79,0,0,0,1.48,7.73,18.74,18.74,0,0,0,4.15,6.17,19.07,19.07,0,0,0,6.24,4.08A20.82,20.82,0,0,0,3064.82,153Z" transform="translate(-45.54)"/><path class="cls-1" d="M3106.62,158.84V108.31h7.22v50.53Zm6.35-12.2-.36-8.81,28.66-29.52h8.23l-22.16,23.39-4.05,4.47Zm29.45,12.2-20.72-24.11,4.84-5.34,24.33,29.45Z" transform="translate(-45.54)"/><path class="cls-1" d="M3176.13,159.41a34.41,34.41,0,0,1-11-1.76,22.52,22.52,0,0,1-8.3-4.59l2.67-5.63a23.26,23.26,0,0,0,7.36,4.19,26.48,26.48,0,0,0,9.31,1.66,21.16,21.16,0,0,0,7.15-1,8.57,8.57,0,0,0,4-2.78,6.65,6.65,0,0,0,1.3-4,5.46,5.46,0,0,0-1.7-4.18,12.6,12.6,0,0,0-4.4-2.57,48.86,48.86,0,0,0-6-1.69q-3.24-.72-6.53-1.7a29.17,29.17,0,0,1-6-2.49,12.31,12.31,0,0,1-4.37-4.08,12,12,0,0,1-1.66-6.6,13.27,13.27,0,0,1,2.06-7.18,14.27,14.27,0,0,1,6.35-5.27,26,26,0,0,1,10.94-2,33.78,33.78,0,0,1,8.73,1.16,24.22,24.22,0,0,1,7.51,3.32l-2.38,5.77a23.46,23.46,0,0,0-6.86-3.14,26.81,26.81,0,0,0-7-1,19.28,19.28,0,0,0-7,1.08,8.48,8.48,0,0,0-4,2.89,6.89,6.89,0,0,0-1.26,4,5.56,5.56,0,0,0,1.69,4.26,12.05,12.05,0,0,0,4.41,2.52,57,57,0,0,0,5.95,1.7c2.17.51,4.34,1.07,6.53,1.7a27.53,27.53,0,0,1,6,2.45,12.39,12.39,0,0,1,4.37,4,11.61,11.61,0,0,1,1.66,6.5,13,13,0,0,1-2.09,7.11,14.49,14.49,0,0,1-6.46,5.27A26.71,26.71,0,0,1,3176.13,159.41Z" transform="translate(-45.54)"/><path class="cls-1" d="M141.48,239.13V188.6h21.29A30.73,30.73,0,0,1,177,191.78a23.55,23.55,0,0,1,9.6,8.88,27.15,27.15,0,0,1,0,26.42A23.46,23.46,0,0,1,177,236a30.73,30.73,0,0,1-14.26,3.18Zm7.22-6.28h13.64a23.26,23.26,0,0,0,10.86-2.38,17.25,17.25,0,0,0,7.11-6.68,20.79,20.79,0,0,0,0-19.88,17.37,17.37,0,0,0-7.11-6.65,23.38,23.38,0,0,0-10.86-2.38H148.7Z" transform="translate(-45.54)"/><path class="cls-1" d="M196.7,239.13l22.88-50.53h7.14l23,50.53H242.1l-20.43-46.49h2.89l-20.43,46.49Zm9.74-12.63,1.95-5.78h28.44l2.09,5.78Z" transform="translate(-45.54)"/><path class="cls-1" d="M275.88,239.71a34.41,34.41,0,0,1-11-1.77,22.66,22.66,0,0,1-8.3-4.58l2.67-5.63a23.24,23.24,0,0,0,7.36,4.18,26.48,26.48,0,0,0,9.31,1.66,20.91,20.91,0,0,0,7.15-1,8.45,8.45,0,0,0,4-2.78,6.56,6.56,0,0,0,1.3-4,5.47,5.47,0,0,0-1.7-4.19,12.59,12.59,0,0,0-4.4-2.56,48.81,48.81,0,0,0-6-1.7q-3.24-.72-6.53-1.7a28.1,28.1,0,0,1-6-2.49,12.37,12.37,0,0,1-4.37-4.07,12,12,0,0,1-1.66-6.61,13.27,13.27,0,0,1,2.06-7.18,14.27,14.27,0,0,1,6.35-5.27,26.19,26.19,0,0,1,10.94-2,33.78,33.78,0,0,1,8.73,1.16,24.46,24.46,0,0,1,7.51,3.32L291,198.27a23.34,23.34,0,0,0-6.86-3.14,27.24,27.24,0,0,0-7-1,19.28,19.28,0,0,0-7,1.08,8.54,8.54,0,0,0-4,2.89,6.89,6.89,0,0,0-1.26,4,5.56,5.56,0,0,0,1.69,4.26,12.21,12.21,0,0,0,4.41,2.53,59.6,59.6,0,0,0,5.95,1.69c2.17.51,4.34,1.08,6.53,1.7a28.34,28.34,0,0,1,6,2.45,12.47,12.47,0,0,1,4.36,4,11.58,11.58,0,0,1,1.66,6.49,13,13,0,0,1-2.09,7.11,14.49,14.49,0,0,1-6.46,5.27A26.54,26.54,0,0,1,275.88,239.71Z" transform="translate(-45.54)"/><path class="cls-1" d="M333.34,239.13V188.6h5.92l33.42,41.51h-3.11V188.6h7.22v50.53h-5.92l-33.42-41.51h3.11v41.51Z" transform="translate(-45.54)"/><path class="cls-1" d="M418.73,239.71a29,29,0,0,1-10.72-2,25.59,25.59,0,0,1-8.55-5.45,25,25,0,0,1-5.63-8.19,27,27,0,0,1,0-20.5,25.06,25.06,0,0,1,5.63-8.2A25.72,25.72,0,0,1,408,190a30.66,30.66,0,0,1,21.44,0,25.29,25.29,0,0,1,8.52,5.41,24.57,24.57,0,0,1,5.59,8.23,27.68,27.68,0,0,1,0,20.61,24.51,24.51,0,0,1-5.59,8.19,25.14,25.14,0,0,1-8.52,5.41A29,29,0,0,1,418.73,239.71Zm0-6.43a20.56,20.56,0,0,0,7.76-1.44,18.43,18.43,0,0,0,6.21-4.08,19.05,19.05,0,0,0,4.11-6.17,19.74,19.74,0,0,0,1.48-7.72A19.3,19.3,0,0,0,432.7,200a18.38,18.38,0,0,0-6.21-4.12,21.82,21.82,0,0,0-15.59,0,18.75,18.75,0,0,0-6.25,4.12,19.22,19.22,0,0,0-4.15,6.17,19.67,19.67,0,0,0-1.48,7.69,19.92,19.92,0,0,0,1.48,7.72,18.73,18.73,0,0,0,10.4,10.25A20.74,20.74,0,0,0,418.73,233.28Z" transform="translate(-45.54)"/><path class="cls-1" d="M475.25,239.71a34.52,34.52,0,0,1-11.05-1.77,22.74,22.74,0,0,1-8.3-4.58l2.67-5.63a23.41,23.41,0,0,0,7.37,4.18,26.44,26.44,0,0,0,9.31,1.66,20.85,20.85,0,0,0,7.14-1,8.48,8.48,0,0,0,4.05-2.78,6.62,6.62,0,0,0,1.3-4,5.47,5.47,0,0,0-1.7-4.19,12.59,12.59,0,0,0-4.4-2.56,48.81,48.81,0,0,0-6-1.7q-3.24-.72-6.53-1.7a28.1,28.1,0,0,1-6-2.49,12.29,12.29,0,0,1-4.37-4.07,11.93,11.93,0,0,1-1.66-6.61,13.27,13.27,0,0,1,2.06-7.18,14.27,14.27,0,0,1,6.35-5.27,26.19,26.19,0,0,1,10.94-2,33.78,33.78,0,0,1,8.73,1.16,24.46,24.46,0,0,1,7.51,3.32l-2.39,5.77a23.28,23.28,0,0,0-6.85-3.14,27.24,27.24,0,0,0-7-1,19.37,19.37,0,0,0-7,1.08,8.51,8.51,0,0,0-4,2.89,6.9,6.9,0,0,0-1.27,4,5.57,5.57,0,0,0,1.7,4.26,12.25,12.25,0,0,0,4.4,2.53,59.83,59.83,0,0,0,6,1.69q3.24.76,6.53,1.7a28,28,0,0,1,6,2.45,12.41,12.41,0,0,1,4.37,4,11.58,11.58,0,0,1,1.66,6.49,13,13,0,0,1-2.09,7.11,14.49,14.49,0,0,1-6.46,5.27A26.57,26.57,0,0,1,475.25,239.71Z" transform="translate(-45.54)"/><path class="cls-1" d="M524,239.71a34.41,34.41,0,0,1-11-1.77,22.74,22.74,0,0,1-8.3-4.58l2.67-5.63a23.35,23.35,0,0,0,7.36,4.18,26.52,26.52,0,0,0,9.31,1.66,20.91,20.91,0,0,0,7.15-1,8.4,8.4,0,0,0,4-2.78,6.56,6.56,0,0,0,1.3-4,5.44,5.44,0,0,0-1.7-4.19,12.5,12.5,0,0,0-4.4-2.56,48.64,48.64,0,0,0-5.95-1.7q-3.26-.72-6.54-1.7a28.31,28.31,0,0,1-6-2.49,12.26,12.26,0,0,1-4.36-4.07,11.93,11.93,0,0,1-1.66-6.61,13.27,13.27,0,0,1,2.05-7.18,14.27,14.27,0,0,1,6.35-5.27,26.22,26.22,0,0,1,10.94-2,33.67,33.67,0,0,1,8.73,1.16,24.46,24.46,0,0,1,7.51,3.32l-2.38,5.77a23.34,23.34,0,0,0-6.86-3.14,27.18,27.18,0,0,0-7-1,19.31,19.31,0,0,0-7,1.08,8.54,8.54,0,0,0-4,2.89,6.89,6.89,0,0,0-1.26,4,5.53,5.53,0,0,0,1.7,4.26,12.16,12.16,0,0,0,4.4,2.53,59.6,59.6,0,0,0,5.95,1.69q3.26.76,6.54,1.7a28.25,28.25,0,0,1,6,2.45,12.5,12.5,0,0,1,4.37,4,11.66,11.66,0,0,1,1.66,6.49,13,13,0,0,1-2.1,7.11,14.43,14.43,0,0,1-6.46,5.27A26.54,26.54,0,0,1,524,239.71Z" transform="translate(-45.54)"/><path class="cls-1" d="M550.46,239.13l22.88-50.53h7.15l23,50.53h-7.58l-20.42-46.49h2.88L557.9,239.13Zm9.75-12.63,1.95-5.78H590.6l2.09,5.78Z" transform="translate(-45.54)"/><path class="cls-1" d="M629.65,239.71a34.47,34.47,0,0,1-11-1.77,22.74,22.74,0,0,1-8.3-4.58l2.67-5.63a23.47,23.47,0,0,0,7.36,4.18,26.53,26.53,0,0,0,9.32,1.66,20.88,20.88,0,0,0,7.14-1,8.4,8.4,0,0,0,4-2.78,6.56,6.56,0,0,0,1.3-4,5.46,5.46,0,0,0-1.69-4.19A12.55,12.55,0,0,0,636,219a48.64,48.64,0,0,0-5.95-1.7c-2.17-.48-4.34-1.05-6.53-1.7a28.1,28.1,0,0,1-6-2.49,12.21,12.21,0,0,1-4.37-4.07,11.93,11.93,0,0,1-1.66-6.61,13.19,13.19,0,0,1,2.06-7.18,14.21,14.21,0,0,1,6.35-5.27,26.17,26.17,0,0,1,10.93-2,33.8,33.8,0,0,1,8.74,1.16,24.4,24.4,0,0,1,7.5,3.32l-2.38,5.77a23.22,23.22,0,0,0-6.86-3.14,27.18,27.18,0,0,0-7-1,19.31,19.31,0,0,0-7,1.08,8.51,8.51,0,0,0-4,2.89,6.83,6.83,0,0,0-1.27,4,5.57,5.57,0,0,0,1.7,4.26,12.25,12.25,0,0,0,4.4,2.53,59.83,59.83,0,0,0,6,1.69q3.24.76,6.53,1.7a28,28,0,0,1,6,2.45,12.41,12.41,0,0,1,4.37,4,11.66,11.66,0,0,1,1.66,6.49,13,13,0,0,1-2.1,7.11,14.43,14.43,0,0,1-6.46,5.27A26.52,26.52,0,0,1,629.65,239.71Z" transform="translate(-45.54)"/><path class="cls-1" d="M709.7,239.71a28.77,28.77,0,0,1-10.65-1.92,24.84,24.84,0,0,1-8.45-5.41,25.42,25.42,0,0,1-5.59-8.19,27.4,27.4,0,0,1,0-20.65,25.12,25.12,0,0,1,14.11-13.6,30.37,30.37,0,0,1,21.44.07,22.1,22.1,0,0,1,8.41,5.88l-4.69,4.55a18.83,18.83,0,0,0-6.5-4.51,20.1,20.1,0,0,0-7.72-1.48,21.35,21.35,0,0,0-7.91,1.44,19.07,19.07,0,0,0-6.31,4,18.19,18.19,0,0,0-4.15,6.18,21.08,21.08,0,0,0,0,15.52,18.14,18.14,0,0,0,4.15,6.17,18.92,18.92,0,0,0,6.31,4,21.35,21.35,0,0,0,7.91,1.44,20.1,20.1,0,0,0,7.72-1.48,18.26,18.26,0,0,0,6.5-4.58l4.69,4.55a22.52,22.52,0,0,1-8.41,5.92A28.6,28.6,0,0,1,709.7,239.71Z" transform="translate(-45.54)"/><path class="cls-1" d="M750.48,232.85h29.45v6.28H743.26V188.6h35.66v6.28H750.48Zm-.65-22.45h26v6.14h-26Z" transform="translate(-45.54)"/><path class="cls-1" d="M795.59,239.13V188.6h7.22v44.25h27.36v6.28Z" transform="translate(-45.54)"/><path class="cls-1" d="M849.66,232.85h29.45v6.28H842.44V188.6H878.1v6.28H849.66ZM849,210.4h26v6.14H849Z" transform="translate(-45.54)"/><path class="cls-1" d="M894.77,239.13V188.6h22.67q8.73,0,13.42,3.5a11.3,11.3,0,0,1,4.7,9.57,12.39,12.39,0,0,1-1.85,6.93,12.14,12.14,0,0,1-4.94,4.33,15.1,15.1,0,0,1-6.71,1.51l1.3-2.16a18.29,18.29,0,0,1,7.65,1.51,12.37,12.37,0,0,1,5.27,4.44,12.81,12.81,0,0,1,2,7.26,11.76,11.76,0,0,1-4.88,10.07q-4.86,3.57-14.47,3.57Zm7.22-5.85h16.6c4,0,7-.67,9.17-2a7,7,0,0,0,3.18-6.35c0-2.93-1.06-5.08-3.18-6.42s-5.17-2-9.17-2H901.34v-5.84h15.45c3.65,0,6.49-.68,8.52-2a7.59,7.59,0,0,0,0-12.13q-3-2-8.52-2H902Z" transform="translate(-45.54)"/><path class="cls-1" d="M968.11,239.71a34.41,34.41,0,0,1-11-1.77,22.71,22.71,0,0,1-8.31-4.58l2.67-5.63a23.41,23.41,0,0,0,7.37,4.18,26.44,26.44,0,0,0,9.31,1.66,21,21,0,0,0,7.15-1,8.5,8.5,0,0,0,4-2.78,6.62,6.62,0,0,0,1.3-4,5.47,5.47,0,0,0-1.7-4.19,12.59,12.59,0,0,0-4.4-2.56,48.81,48.81,0,0,0-6-1.7q-3.24-.72-6.53-1.7a28.1,28.1,0,0,1-6-2.49,12.29,12.29,0,0,1-4.37-4.07,11.93,11.93,0,0,1-1.66-6.61,13.27,13.27,0,0,1,2.06-7.18A14.27,14.27,0,0,1,958.4,190a26.19,26.19,0,0,1,10.94-2,33.78,33.78,0,0,1,8.73,1.16,24.46,24.46,0,0,1,7.51,3.32l-2.38,5.77a23.46,23.46,0,0,0-6.86-3.14,27.24,27.24,0,0,0-7-1,19.37,19.37,0,0,0-7,1.08,8.56,8.56,0,0,0-4,2.89,6.89,6.89,0,0,0-1.26,4,5.56,5.56,0,0,0,1.69,4.26,12.25,12.25,0,0,0,4.4,2.53,59.83,59.83,0,0,0,6,1.69q3.24.76,6.53,1.7a28,28,0,0,1,6,2.45,12.41,12.41,0,0,1,4.37,4,11.58,11.58,0,0,1,1.66,6.49,13,13,0,0,1-2.09,7.11,14.49,14.49,0,0,1-6.46,5.27A26.57,26.57,0,0,1,968.11,239.71Z" transform="translate(-45.54)"/><path class="cls-1" d="M999.87,249.81l3.61-14.58.93,4.19a5,5,0,0,1-3.5-1.3,4.62,4.62,0,0,1-1.4-3.54,4.75,4.75,0,0,1,4.83-4.91,4.41,4.41,0,0,1,3.4,1.41,5,5,0,0,1,1.29,3.5,9.36,9.36,0,0,1-.1,1.41q-.12.69-.36,1.59c-.17.6-.43,1.33-.76,2.2l-3.4,10Z" transform="translate(-45.54)"/><path class="cls-1" d="M1047.36,239.13V188.6h5.92L1076,226.79h-3.18l22.38-38.19h5.92l.07,50.53h-6.93l-.07-39.63h1.66L1075.87,233h-3.32l-20.06-33.49h1.8v39.63Z" transform="translate(-45.54)"/><path class="cls-1" d="M1112.61,239.13l22.89-50.53h7.14l23,50.53H1158l-20.43-46.49h2.89l-20.43,46.49Zm9.75-12.63,2-5.78h28.44l2.09,5.78Z" transform="translate(-45.54)"/><path class="cls-1" d="M1191.8,239.71a34.41,34.41,0,0,1-11-1.77,22.79,22.79,0,0,1-8.31-4.58l2.68-5.63a23.24,23.24,0,0,0,7.36,4.18,26.48,26.48,0,0,0,9.31,1.66,21,21,0,0,0,7.15-1,8.5,8.5,0,0,0,4-2.78,6.62,6.62,0,0,0,1.3-4,5.47,5.47,0,0,0-1.7-4.19,12.59,12.59,0,0,0-4.4-2.56,48.81,48.81,0,0,0-6-1.7q-3.24-.72-6.53-1.7a28.1,28.1,0,0,1-6-2.49,12.29,12.29,0,0,1-4.37-4.07,11.93,11.93,0,0,1-1.66-6.61,13.27,13.27,0,0,1,2.06-7.18,14.27,14.27,0,0,1,6.35-5.27,26.19,26.19,0,0,1,10.94-2,33.78,33.78,0,0,1,8.73,1.16,24.46,24.46,0,0,1,7.51,3.32l-2.38,5.77a23.46,23.46,0,0,0-6.86-3.14,27.24,27.24,0,0,0-7-1,19.28,19.28,0,0,0-7,1.08,8.54,8.54,0,0,0-4,2.89,6.89,6.89,0,0,0-1.26,4,5.56,5.56,0,0,0,1.69,4.26,12.21,12.21,0,0,0,4.41,2.53,58.85,58.85,0,0,0,6,1.69c2.17.51,4.34,1.08,6.53,1.7a28,28,0,0,1,6,2.45,12.41,12.41,0,0,1,4.37,4,11.58,11.58,0,0,1,1.66,6.49,13,13,0,0,1-2.09,7.11,14.49,14.49,0,0,1-6.46,5.27A26.54,26.54,0,0,1,1191.8,239.71Z" transform="translate(-45.54)"/><path class="cls-1" d="M1264,239.71a34.41,34.41,0,0,1-11-1.77,22.66,22.66,0,0,1-8.3-4.58l2.67-5.63a23.35,23.35,0,0,0,7.36,4.18,26.48,26.48,0,0,0,9.31,1.66,20.91,20.91,0,0,0,7.15-1,8.45,8.45,0,0,0,4-2.78,6.56,6.56,0,0,0,1.3-4,5.47,5.47,0,0,0-1.7-4.19,12.59,12.59,0,0,0-4.4-2.56,48.81,48.81,0,0,0-6-1.7q-3.24-.72-6.53-1.7a28.31,28.31,0,0,1-6-2.49,12.37,12.37,0,0,1-4.37-4.07,12,12,0,0,1-1.66-6.61,13.27,13.27,0,0,1,2.06-7.18,14.27,14.27,0,0,1,6.35-5.27,26.19,26.19,0,0,1,10.94-2,33.78,33.78,0,0,1,8.73,1.16,24.46,24.46,0,0,1,7.51,3.32l-2.38,5.77a23.34,23.34,0,0,0-6.86-3.14,27.24,27.24,0,0,0-7-1,19.28,19.28,0,0,0-7,1.08,8.54,8.54,0,0,0-4,2.89,6.89,6.89,0,0,0-1.26,4,5.56,5.56,0,0,0,1.69,4.26A12.21,12.21,0,0,0,1259,209a59.6,59.6,0,0,0,6,1.69c2.17.51,4.34,1.08,6.53,1.7a28.34,28.34,0,0,1,6,2.45,12.47,12.47,0,0,1,4.36,4,11.58,11.58,0,0,1,1.66,6.49,13,13,0,0,1-2.09,7.11,14.49,14.49,0,0,1-6.46,5.27A26.54,26.54,0,0,1,1264,239.71Z" transform="translate(-45.54)"/><path class="cls-1" d="M1290.4,239.13l22.88-50.53h7.15l23,50.53h-7.58l-20.42-46.49h2.88l-20.43,46.49Zm9.74-12.63,1.95-5.78h28.44l2.1,5.78Z" transform="translate(-45.54)"/><path class="cls-1" d="M1354.86,239.13V188.6h22.66q8.74,0,13.43,3.5a11.29,11.29,0,0,1,4.69,9.57,11.78,11.78,0,0,1-6.78,11.26,15.11,15.11,0,0,1-6.72,1.51l1.3-2.16a18.23,18.23,0,0,1,7.65,1.51,12.31,12.31,0,0,1,5.27,4.44,12.81,12.81,0,0,1,2,7.26,11.75,11.75,0,0,1-4.87,10.07q-4.87,3.57-14.47,3.57Zm7.22-5.85h16.6q6,0,9.17-2a7,7,0,0,0,3.17-6.35c0-2.93-1.06-5.08-3.17-6.42s-5.18-2-9.17-2h-17.25v-5.84h15.44c3.66,0,6.5-.68,8.52-2a7.59,7.59,0,0,0,0-12.13q-3-2-8.52-2h-14.79Z" transform="translate(-45.54)"/><path class="cls-1" d="M1420.69,232.85h29.45v6.28h-36.67V188.6h35.66v6.28h-28.44ZM1420,210.4h26v6.14h-26Z" transform="translate(-45.54)"/><path class="cls-1" d="M1465.8,239.13V188.6h5.92l22.67,38.19h-3.18l22.38-38.19h5.92l.07,50.53h-6.93l-.07-39.63h1.66L1494.31,233H1491l-20.06-33.49h1.8v39.63Z" transform="translate(-45.54)"/><path class="cls-1" d="M1561.52,239.71a28.9,28.9,0,0,1-10.72-2,25.73,25.73,0,0,1-8.56-5.45,25.33,25.33,0,0,1-5.63-8.19A25.57,25.57,0,0,1,1550.76,190a30.66,30.66,0,0,1,21.44,0,25.29,25.29,0,0,1,8.52,5.41,24.72,24.72,0,0,1,5.59,8.23,27.68,27.68,0,0,1,0,20.61,24.66,24.66,0,0,1-5.59,8.19,25.14,25.14,0,0,1-8.52,5.41A29.09,29.09,0,0,1,1561.52,239.71Zm0-6.43a20.6,20.6,0,0,0,7.76-1.44,18.29,18.29,0,0,0,6.2-4.08,18.92,18.92,0,0,0,4.12-6.17,19.92,19.92,0,0,0,1.48-7.72,19.67,19.67,0,0,0-1.48-7.69,19.46,19.46,0,0,0-4.12-6.17,18.24,18.24,0,0,0-6.2-4.12,20.6,20.6,0,0,0-7.76-1.44,20.83,20.83,0,0,0-7.84,1.44,18.7,18.7,0,0,0-6.24,4.12,19.06,19.06,0,0,0-4.15,6.17,19.49,19.49,0,0,0-1.48,7.69,19.74,19.74,0,0,0,1.48,7.72,18.54,18.54,0,0,0,4.15,6.17,18.75,18.75,0,0,0,6.24,4.08A20.83,20.83,0,0,0,1561.52,233.28Z" transform="translate(-45.54)"/><path class="cls-1" d="M1618,239.71a34.41,34.41,0,0,1-11-1.77,22.74,22.74,0,0,1-8.3-4.58l2.67-5.63a23.35,23.35,0,0,0,7.36,4.18,26.52,26.52,0,0,0,9.31,1.66,20.91,20.91,0,0,0,7.15-1,8.4,8.4,0,0,0,4-2.78,6.56,6.56,0,0,0,1.3-4,5.46,5.46,0,0,0-1.69-4.19,12.55,12.55,0,0,0-4.41-2.56,48.64,48.64,0,0,0-6-1.7q-3.26-.72-6.53-1.7a28.18,28.18,0,0,1-6-2.49,12.26,12.26,0,0,1-4.36-4.07,11.93,11.93,0,0,1-1.66-6.61,13.27,13.27,0,0,1,2-7.18,14.3,14.3,0,0,1,6.36-5.27,26.14,26.14,0,0,1,10.93-2,33.8,33.8,0,0,1,8.74,1.16,24.5,24.5,0,0,1,7.5,3.32l-2.38,5.77a23.22,23.22,0,0,0-6.86-3.14,27.18,27.18,0,0,0-7-1,19.31,19.31,0,0,0-7,1.08,8.59,8.59,0,0,0-4,2.89,6.89,6.89,0,0,0-1.26,4,5.57,5.57,0,0,0,1.7,4.26,12.25,12.25,0,0,0,4.4,2.53,59.07,59.07,0,0,0,6,1.69q3.24.76,6.53,1.7a28.25,28.25,0,0,1,6,2.45,12.5,12.5,0,0,1,4.37,4,11.66,11.66,0,0,1,1.66,6.49,13,13,0,0,1-2.1,7.11,14.43,14.43,0,0,1-6.46,5.27A26.54,26.54,0,0,1,1618,239.71Z" transform="translate(-45.54)"/><path class="cls-1" d="M1698.3,239.71a29,29,0,0,1-10.72-2,25.59,25.59,0,0,1-8.55-5.45,25,25,0,0,1-5.63-8.19,27,27,0,0,1,0-20.5,25.06,25.06,0,0,1,5.63-8.2,25.66,25.66,0,0,1,8.52-5.45,30.63,30.63,0,0,1,21.43,0,25.19,25.19,0,0,1,8.52,5.41,24.75,24.75,0,0,1,5.6,8.23,27.81,27.81,0,0,1,0,20.61,24.68,24.68,0,0,1-5.6,8.19,25,25,0,0,1-8.52,5.41A29,29,0,0,1,1698.3,239.71Zm0-6.43a20.56,20.56,0,0,0,7.76-1.44,18.21,18.21,0,0,0,6.21-4.11,19.49,19.49,0,0,0,5.59-13.86,19.79,19.79,0,0,0-1.48-7.73,19.11,19.11,0,0,0-4.11-6.17,18.58,18.58,0,0,0-6.21-4.08,21.82,21.82,0,0,0-15.59,0,18.73,18.73,0,0,0-10.4,10.25,20,20,0,0,0-1.48,7.73,19.75,19.75,0,0,0,1.48,7.65,19.18,19.18,0,0,0,4.15,6.21,18.57,18.57,0,0,0,6.25,4.11A20.74,20.74,0,0,0,1698.3,233.28Zm16.53,16.39a19.22,19.22,0,0,1-4.84-.61,19,19,0,0,1-4.62-1.95,31.3,31.3,0,0,1-4.76-3.47,69.12,69.12,0,0,1-5.34-5.23l7.72-2a34,34,0,0,0,4.15,4.36,14.15,14.15,0,0,0,3.94,2.46,10.8,10.8,0,0,0,3.89.76,11.84,11.84,0,0,0,9.17-4.33l3.39,4.11A15.71,15.71,0,0,1,1714.83,249.67Z" transform="translate(-45.54)"/><path class="cls-1" d="M1761,239.71q-10,0-15.67-5.7t-5.7-16.68V188.6h7.22V217q0,8.44,3.72,12.35c2.47,2.59,6,3.89,10.5,3.89s8.1-1.3,10.57-3.89,3.72-6.72,3.72-12.35V188.6h7v28.73q0,11-5.66,16.68T1761,239.71Z" transform="translate(-45.54)"/><path class="cls-1" d="M1808.38,232.85h29.45v6.28h-36.67V188.6h35.66v6.28h-28.44Zm-.65-22.45h26v6.14h-26Z" transform="translate(-45.54)"/><path class="cls-1" d="M1876.88,239.13V188.6h5.92l33.42,41.51h-3.1V188.6h7.21v50.53h-5.92L1881,197.62h3.11v41.51Z" transform="translate(-45.54)"/><path class="cls-1" d="M1931.81,239.13l22.88-50.53h7.15l23,50.53h-7.58l-20.42-46.49h2.88l-20.42,46.49Zm9.75-12.63,1.94-5.78h28.44l2.1,5.78Zm21.79-42.23a6.34,6.34,0,0,1-3.06-.72,12.35,12.35,0,0,1-2.42-1.7,23.88,23.88,0,0,0-2.09-1.69,3.51,3.51,0,0,0-2-.73,3.15,3.15,0,0,0-2.56,1.2,5.67,5.67,0,0,0-1.12,3.28h-3.89a10.63,10.63,0,0,1,2-6.42,6.09,6.09,0,0,1,5-2.39,6.35,6.35,0,0,1,3.1.76,13.17,13.17,0,0,1,2.46,1.73c.72.65,1.41,1.22,2,1.7a3.33,3.33,0,0,0,4.59-.43,5,5,0,0,0,1.08-3.18h3.9a9.92,9.92,0,0,1-2,6.21A6.18,6.18,0,0,1,1963.35,184.27Z" transform="translate(-45.54)"/><path class="cls-1" d="M2018.36,239.71a28.94,28.94,0,0,1-10.72-2,25.59,25.59,0,0,1-8.55-5.45,25.2,25.2,0,0,1-5.64-8.19,27,27,0,0,1,0-20.5,25.24,25.24,0,0,1,5.64-8.2,25.72,25.72,0,0,1,8.51-5.45,30.66,30.66,0,0,1,21.44,0,25.29,25.29,0,0,1,8.52,5.41,24.72,24.72,0,0,1,5.59,8.23,27.68,27.68,0,0,1,0,20.61,24.66,24.66,0,0,1-5.59,8.19,25.14,25.14,0,0,1-8.52,5.41A29,29,0,0,1,2018.36,239.71Zm0-6.43a20.56,20.56,0,0,0,7.76-1.44,18.43,18.43,0,0,0,6.21-4.08,19.05,19.05,0,0,0,4.11-6.17,19.74,19.74,0,0,0,1.48-7.72,19.3,19.3,0,0,0-5.59-13.86,18.38,18.38,0,0,0-6.21-4.12,21.82,21.82,0,0,0-15.59,0,18.65,18.65,0,0,0-6.25,4.12,19.22,19.22,0,0,0-4.15,6.17,19.49,19.49,0,0,0-1.48,7.69,19.74,19.74,0,0,0,1.48,7.72,18.73,18.73,0,0,0,10.4,10.25A20.74,20.74,0,0,0,2018.36,233.28Z" transform="translate(-45.54)"/><path class="cls-1" d="M2075.89,239.13l22.88-50.53h7.15l22.95,50.53h-7.58l-20.43-46.49h2.89l-20.43,46.49Zm9.74-12.63,1.95-5.78H2116l2.09,5.78Z" transform="translate(-45.54)"/><path class="cls-1" d="M2140.35,239.13V188.6h21.29a30.73,30.73,0,0,1,14.26,3.18,23.55,23.55,0,0,1,9.6,8.88,27.22,27.22,0,0,1,0,26.42,23.46,23.46,0,0,1-9.6,8.87,30.73,30.73,0,0,1-14.26,3.18Zm7.21-6.28h13.65a23.26,23.26,0,0,0,10.86-2.38,17.25,17.25,0,0,0,7.11-6.68,20.79,20.79,0,0,0,0-19.88,17.37,17.37,0,0,0-7.11-6.65,23.38,23.38,0,0,0-10.86-2.38h-13.65Z" transform="translate(-45.54)"/><path class="cls-1" d="M2203.94,239.13V188.6h7.22v50.53Z" transform="translate(-45.54)"/><path class="cls-1" d="M2222.63,239.13l22.89-50.53h7.14l23,50.53H2268l-20.43-46.49h2.89l-20.43,46.49Zm9.75-12.63,1.95-5.78h28.44l2.09,5.78Z" transform="translate(-45.54)"/><path class="cls-1" d="M2287.09,239.13V188.6H2293l33.42,41.51h-3.1V188.6h7.22v50.53h-5.92l-33.42-41.51h3.1v41.51Z" transform="translate(-45.54)"/><path class="cls-1" d="M2359.71,239.13V194.88h-17.33V188.6h41.8v6.28h-17.33v44.25Z" transform="translate(-45.54)"/><path class="cls-1" d="M2385.84,239.13l22.88-50.53h7.15l23,50.53h-7.58l-20.43-46.49h2.89l-20.43,46.49Zm9.74-12.63,2-5.78H2426l2.1,5.78Z" transform="translate(-45.54)"/><path class="cls-1" d="M2488.27,239.13,2466,188.6h7.8l20.43,46.63h-4.48l20.57-46.63h7.22l-22.16,50.53Z" transform="translate(-45.54)"/><path class="cls-1" d="M2535.18,232.85h29.45v6.28H2528V188.6h35.65v6.28h-28.44Zm-.65-22.45h26v6.14h-26Z" transform="translate(-45.54)"/><path class="cls-1" d="M2595,239.71a34.41,34.41,0,0,1-11-1.77,22.74,22.74,0,0,1-8.3-4.58l2.67-5.63a23.35,23.35,0,0,0,7.36,4.18,26.48,26.48,0,0,0,9.31,1.66,20.91,20.91,0,0,0,7.15-1,8.4,8.4,0,0,0,4-2.78,6.56,6.56,0,0,0,1.3-4,5.47,5.47,0,0,0-1.7-4.19,12.5,12.5,0,0,0-4.4-2.56,48.64,48.64,0,0,0-5.95-1.7q-3.26-.72-6.54-1.7a28.31,28.31,0,0,1-6-2.49,12.26,12.26,0,0,1-4.36-4.07,11.93,11.93,0,0,1-1.67-6.61,13.27,13.27,0,0,1,2.06-7.18,14.27,14.27,0,0,1,6.35-5.27,26.22,26.22,0,0,1,10.94-2,33.72,33.72,0,0,1,8.73,1.16,24.46,24.46,0,0,1,7.51,3.32l-2.38,5.77a23.34,23.34,0,0,0-6.86-3.14,27.24,27.24,0,0,0-7-1,19.31,19.31,0,0,0-7,1.08,8.54,8.54,0,0,0-4,2.89,6.89,6.89,0,0,0-1.26,4,5.53,5.53,0,0,0,1.7,4.26,12.16,12.16,0,0,0,4.4,2.53,59.6,59.6,0,0,0,6,1.69q3.25.76,6.54,1.7a28.25,28.25,0,0,1,6,2.45,12.38,12.38,0,0,1,4.36,4,11.58,11.58,0,0,1,1.66,6.49,12.94,12.94,0,0,1-2.09,7.11,14.49,14.49,0,0,1-6.46,5.27A26.54,26.54,0,0,1,2595,239.71Z" transform="translate(-45.54)"/><path class="cls-1" d="M2638.4,239.13V194.88h-17.32V188.6h41.79v6.28h-17.32v44.25Z" transform="translate(-45.54)"/><path class="cls-1" d="M2674.71,239.13V188.6h7.22v50.53Z" transform="translate(-45.54)"/><path class="cls-1" d="M2701.06,239.13V188.6h19.7a27.66,27.66,0,0,1,11.34,2.1,16.06,16.06,0,0,1,7.22,6.06,17.28,17.28,0,0,1,2.52,9.45,17.08,17.08,0,0,1-2.52,9.42,16.13,16.13,0,0,1-7.22,6,27.66,27.66,0,0,1-11.34,2.1H2705l3.25-3.33v18.7Zm7.22-18-3.25-3.54h15.52q6.93,0,10.5-3a11.64,11.64,0,0,0,0-16.78q-3.57-3-10.5-3H2705l3.25-3.61Zm26.56,18L2722,220.8h7.73l13,18.33Z" transform="translate(-45.54)"/><path class="cls-1" d="M2773.24,239.13l22.88-50.53h7.15l22.95,50.53h-7.58l-20.42-46.49h2.88l-20.43,46.49ZM2783,226.5l1.95-5.78h28.44l2.1,5.78Z" transform="translate(-45.54)"/><path class="cls-1" d="M2837.7,239.13V188.6h7.22v44.25h27.35v6.28Z" transform="translate(-45.54)"/><path class="cls-1" d="M2906.42,239.71a29.29,29.29,0,0,1-10.76-1.92,25.11,25.11,0,0,1-14.15-13.6,27.4,27.4,0,0,1,0-20.65,25.08,25.08,0,0,1,5.67-8.19,25.57,25.57,0,0,1,8.56-5.41,29.46,29.46,0,0,1,10.82-1.92,29.82,29.82,0,0,1,11,1.95,21.73,21.73,0,0,1,8.45,5.85l-4.48,4.48a19.73,19.73,0,0,0-6.74-4.44,21.79,21.79,0,0,0-7.91-1.41,22.1,22.1,0,0,0-8,1.44,19.26,19.26,0,0,0-6.42,4,18,18,0,0,0-4.19,6.18,20,20,0,0,0-1.48,7.76,19.79,19.79,0,0,0,1.48,7.68,18.22,18.22,0,0,0,4.19,6.21,18.8,18.8,0,0,0,6.39,4.08,21.77,21.77,0,0,0,8,1.44,24,24,0,0,0,7.76-1.26,19.1,19.1,0,0,0,6.89-4.22l4.12,5.48a25.66,25.66,0,0,1-8.77,4.8A33.25,33.25,0,0,1,2906.42,239.71Zm12.2-7.37V213.58h6.93v19.7Z" transform="translate(-45.54)"/><path class="cls-1" d="M2966.11,239.71a29,29,0,0,1-10.72-2,25.79,25.79,0,0,1-8.55-5.45,25.17,25.17,0,0,1-5.63-8.19,27,27,0,0,1,0-20.5,25.21,25.21,0,0,1,5.63-8.2,25.76,25.76,0,0,1,8.52-5.45,28.83,28.83,0,0,1,10.75-1.95,29.14,29.14,0,0,1,10.69,1.92,25.15,25.15,0,0,1,8.51,5.41,24.75,24.75,0,0,1,5.6,8.23,27.81,27.81,0,0,1,0,20.61,24.68,24.68,0,0,1-5.6,8.19,25,25,0,0,1-8.51,5.41A29.14,29.14,0,0,1,2966.11,239.71Zm0-6.43a20.56,20.56,0,0,0,7.76-1.44,18.43,18.43,0,0,0,6.21-4.08,18.74,18.74,0,0,0,4.11-6.17,19.74,19.74,0,0,0,1.48-7.72,19.49,19.49,0,0,0-1.48-7.69,19.27,19.27,0,0,0-4.11-6.17,18.38,18.38,0,0,0-6.21-4.12,21.82,21.82,0,0,0-15.59,0A18.7,18.7,0,0,0,2952,200a19.06,19.06,0,0,0-4.15,6.17,19.49,19.49,0,0,0-1.48,7.69,19.74,19.74,0,0,0,1.48,7.72,18.54,18.54,0,0,0,4.15,6.17,18.75,18.75,0,0,0,6.24,4.08A20.74,20.74,0,0,0,2966.11,233.28Z" transform="translate(-45.54)"/><path class="cls-1" d="M3046,239.71a34.52,34.52,0,0,1-11.05-1.77,22.74,22.74,0,0,1-8.3-4.58l2.67-5.63a23.41,23.41,0,0,0,7.37,4.18,26.44,26.44,0,0,0,9.31,1.66,20.85,20.85,0,0,0,7.14-1,8.48,8.48,0,0,0,4.05-2.78,6.62,6.62,0,0,0,1.3-4,5.47,5.47,0,0,0-1.7-4.19,12.59,12.59,0,0,0-4.4-2.56,48.81,48.81,0,0,0-6-1.7q-3.24-.72-6.53-1.7a28.1,28.1,0,0,1-6-2.49,12.29,12.29,0,0,1-4.37-4.07,11.93,11.93,0,0,1-1.66-6.61,13.27,13.27,0,0,1,2.06-7.18,14.27,14.27,0,0,1,6.35-5.27,26.19,26.19,0,0,1,10.94-2,33.78,33.78,0,0,1,8.73,1.16,24.46,24.46,0,0,1,7.51,3.32l-2.39,5.77a23.28,23.28,0,0,0-6.85-3.14,27.24,27.24,0,0,0-7-1,19.37,19.37,0,0,0-7,1.08,8.51,8.51,0,0,0-4,2.89,6.9,6.9,0,0,0-1.27,4,5.57,5.57,0,0,0,1.7,4.26,12.25,12.25,0,0,0,4.4,2.53,59.83,59.83,0,0,0,6,1.69q3.24.76,6.53,1.7a28,28,0,0,1,6,2.45,12.41,12.41,0,0,1,4.37,4,11.58,11.58,0,0,1,1.66,6.49,13,13,0,0,1-2.09,7.11,14.49,14.49,0,0,1-6.46,5.27A26.57,26.57,0,0,1,3046,239.71Z" transform="translate(-45.54)"/><path class="cls-1" d="M3102.9,239.71a28.94,28.94,0,0,1-10.72-2,25.73,25.73,0,0,1-8.56-5.45,25.33,25.33,0,0,1-5.63-8.19,27,27,0,0,1,0-20.5,25.37,25.37,0,0,1,5.63-8.2,25.86,25.86,0,0,1,8.52-5.45,30.66,30.66,0,0,1,21.44,0,25.29,25.29,0,0,1,8.52,5.41,24.72,24.72,0,0,1,5.59,8.23,27.68,27.68,0,0,1,0,20.61,24.66,24.66,0,0,1-5.59,8.19,25.14,25.14,0,0,1-8.52,5.41A29,29,0,0,1,3102.9,239.71Zm0-6.43a20.56,20.56,0,0,0,7.76-1.44,18.29,18.29,0,0,0,6.2-4.08,18.92,18.92,0,0,0,4.12-6.17,19.74,19.74,0,0,0,1.48-7.72,19.26,19.26,0,0,0-5.6-13.86,18.24,18.24,0,0,0-6.2-4.12,21.82,21.82,0,0,0-15.59,0,18.65,18.65,0,0,0-6.25,4.12,19.22,19.22,0,0,0-4.15,6.17,19.49,19.49,0,0,0-1.48,7.69,19.74,19.74,0,0,0,1.48,7.72,18.73,18.73,0,0,0,10.4,10.25A20.74,20.74,0,0,0,3102.9,233.28Zm-5.42-48.79,9.82-9.39h8.81L3104,184.49Z" transform="translate(-45.54)"/><path class="cls-1" d="M920,319.42V268.9h19.7A27.67,27.67,0,0,1,951,271a16.19,16.19,0,0,1,7.22,6.06,17.29,17.29,0,0,1,2.52,9.46,17.08,17.08,0,0,1-2.52,9.42A16.44,16.44,0,0,1,951,302a27.32,27.32,0,0,1-11.34,2.13H924l3.25-3.39v18.69Zm7.22-18L924,297.84h15.52q6.93,0,10.5-3t3.57-8.37q0-5.42-3.57-8.37t-10.5-3H924l3.25-3.61Z" transform="translate(-45.54)"/><path class="cls-1" d="M998.89,320a29,29,0,0,1-10.72-1.95,25.63,25.63,0,0,1-8.55-5.45,25.06,25.06,0,0,1-5.63-8.19,27,27,0,0,1,0-20.5,25.06,25.06,0,0,1,5.63-8.19,25.6,25.6,0,0,1,8.52-5.45,28.87,28.87,0,0,1,10.75-1.95,29.34,29.34,0,0,1,10.69,1.91,25.31,25.31,0,0,1,8.51,5.41,24.75,24.75,0,0,1,5.6,8.23,27.81,27.81,0,0,1,0,20.61,24.68,24.68,0,0,1-5.6,8.19,25.18,25.18,0,0,1-8.51,5.42A29.34,29.34,0,0,1,998.89,320Zm0-6.42a20.38,20.38,0,0,0,7.76-1.45,18.43,18.43,0,0,0,6.21-4.08,18.74,18.74,0,0,0,4.11-6.17,20.8,20.8,0,0,0,0-15.41,19.38,19.38,0,0,0-4.11-6.17,18.21,18.21,0,0,0-6.21-4.11,21.68,21.68,0,0,0-15.59,0,18.53,18.53,0,0,0-6.24,4.11,19.17,19.17,0,0,0-4.15,6.17,20.8,20.8,0,0,0,0,15.41,18.54,18.54,0,0,0,4.15,6.17,18.75,18.75,0,0,0,6.24,4.08A20.55,20.55,0,0,0,998.89,313.58Z" transform="translate(-45.54)"/><path class="cls-1" d="M1040.69,319.42V268.9h19.7a27.59,27.59,0,0,1,11.33,2.09,16.08,16.08,0,0,1,7.22,6.06,17.21,17.21,0,0,1,2.53,9.46,17,17,0,0,1-2.53,9.42,16.15,16.15,0,0,1-7.22,6,27.75,27.75,0,0,1-11.33,2.09h-15.73l3.24-3.32v18.69Zm7.21-18-3.24-3.54h15.52q6.93,0,10.5-3a10.38,10.38,0,0,0,3.57-8.41q0-5.42-3.57-8.37t-10.5-3h-15.52l3.24-3.61Zm26.57,18-12.85-18.33h7.72l13,18.33Z" transform="translate(-45.54)"/><path class="cls-1" d="M1119.94,320a29,29,0,0,1-10.72-1.95,25.63,25.63,0,0,1-8.55-5.45,25.06,25.06,0,0,1-5.63-8.19,27,27,0,0,1,0-20.5,25.06,25.06,0,0,1,5.63-8.19,25.6,25.6,0,0,1,8.52-5.45,28.83,28.83,0,0,1,10.75-1.95,29.34,29.34,0,0,1,10.69,1.91,25.31,25.31,0,0,1,8.51,5.41,24.75,24.75,0,0,1,5.6,8.23,27.81,27.81,0,0,1,0,20.61,24.68,24.68,0,0,1-5.6,8.19,25.18,25.18,0,0,1-8.51,5.42A29.34,29.34,0,0,1,1119.94,320Zm0-6.42a20.38,20.38,0,0,0,7.76-1.45,18.21,18.21,0,0,0,6.21-4.11,19.23,19.23,0,0,0,4.11-6.21,20.69,20.69,0,0,0,0-15.37,18.89,18.89,0,0,0-4.11-6.18,18.55,18.55,0,0,0-6.21-4.07,21.68,21.68,0,0,0-15.59,0,18.88,18.88,0,0,0-6.24,4.07,18.68,18.68,0,0,0-4.15,6.18,20.69,20.69,0,0,0,0,15.37,19,19,0,0,0,4.15,6.21,18.53,18.53,0,0,0,6.24,4.11A20.55,20.55,0,0,0,1119.94,313.58ZM1136.47,330a18.7,18.7,0,0,1-4.83-.61,19,19,0,0,1-4.62-2,31.36,31.36,0,0,1-4.77-3.47,71,71,0,0,1-5.34-5.23l7.72-2a34.16,34.16,0,0,0,4.15,4.37,13.87,13.87,0,0,0,3.94,2.45,10.6,10.6,0,0,0,3.9.76,11.8,11.8,0,0,0,9.16-4.33l3.4,4.11A15.75,15.75,0,0,1,1136.47,330Z" transform="translate(-45.54)"/><path class="cls-1" d="M1182.67,320q-10,0-15.66-5.7t-5.71-16.68V268.9h7.22v28.44q0,8.45,3.72,12.34t10.5,3.9q6.85,0,10.58-3.9t3.71-12.34V268.9h7v28.72q0,11-5.67,16.68T1182.67,320Z" transform="translate(-45.54)"/><path class="cls-1" d="M1230,313.14h29.45v6.28H1222.8V268.9h35.66v6.28H1230Zm-.65-22.45h26v6.14h-26Z" transform="translate(-45.54)"/><path class="cls-1" d="M1295.92,288.39l-.43-19.49h6.06l-.5,19.49Zm13.07,0-.44-19.49h6.07l-.51,19.49Z" transform="translate(-45.54)"/><path class="cls-1" d="M1320,319.42l22.88-50.52H1350l23,50.52h-7.58l-20.43-46.48h2.89l-20.43,46.48Zm9.74-12.63,2-5.77h28.44l2.1,5.77Z" transform="translate(-45.54)"/><path class="cls-1" d="M1384.42,319.42V268.9h7.22v44.24H1419v6.28Z" transform="translate(-45.54)"/><path class="cls-1" d="M1453.14,320a29.49,29.49,0,0,1-10.76-1.91,25.09,25.09,0,0,1-14.15-13.61,27.37,27.37,0,0,1,0-20.64,25,25,0,0,1,5.67-8.2,25.78,25.78,0,0,1,8.55-5.41,31.75,31.75,0,0,1,21.8,0,21.81,21.81,0,0,1,8.45,5.84l-4.48,4.48a20,20,0,0,0-6.75-4.44,23,23,0,0,0-16,0,19.1,19.1,0,0,0-6.42,4,18,18,0,0,0-4.19,6.17,20.9,20.9,0,0,0,0,15.45,18.28,18.28,0,0,0,4.19,6.2,18.8,18.8,0,0,0,6.39,4.08,21.57,21.57,0,0,0,8,1.45,23.78,23.78,0,0,0,7.76-1.27,19.1,19.1,0,0,0,6.89-4.22l4.12,5.49a25.83,25.83,0,0,1-8.77,4.8A33.54,33.54,0,0,1,1453.14,320Zm12.2-7.36V293.87h6.93v19.71Z" transform="translate(-45.54)"/><path class="cls-1" d="M1511,320q-10,0-15.67-5.7t-5.7-16.68V268.9h7.22v28.44q0,8.45,3.72,12.34t10.5,3.9q6.85,0,10.57-3.9t3.72-12.34V268.9h7v28.72q0,11-5.67,16.68T1511,320Z" transform="translate(-45.54)"/><path class="cls-1" d="M1558.31,313.14h29.45v6.28h-36.67V268.9h35.66v6.28h-28.44Zm-.65-22.45h26v6.14h-26Zm5.92-25.91,9.81-9.38h8.81l-12.13,9.38Z" transform="translate(-45.54)"/><path class="cls-1" d="M1603.42,319.42V268.9h5.92L1632,307.08h-3.17l22.38-38.18h5.91l.08,50.52h-6.93l-.07-39.62h1.66l-19.93,33.49h-3.32l-20.06-33.49h1.8v39.62Z" transform="translate(-45.54)"/><path class="cls-1" d="M1673.73,288.39l-.44-19.49h6.07l-.51,19.49Zm13.06,0-.43-19.49h6.06l-.5,19.49Z" transform="translate(-45.54)"/><path class="cls-1" d="M1739.12,313.14h29.45v6.28H1731.9V268.9h35.66v6.28h-28.44Zm-.65-22.45h26v6.14h-26Z" transform="translate(-45.54)"/><path class="cls-1" d="M1799,320a34.41,34.41,0,0,1-11-1.77,22.52,22.52,0,0,1-8.3-4.58l2.67-5.63a23.56,23.56,0,0,0,7.36,4.19,26.71,26.71,0,0,0,9.31,1.66,20.88,20.88,0,0,0,7.15-1,8.43,8.43,0,0,0,4-2.77,6.59,6.59,0,0,0,1.3-4,5.49,5.49,0,0,0-1.7-4.19,12.59,12.59,0,0,0-4.4-2.56,50.48,50.48,0,0,0-5.95-1.7q-3.26-.72-6.54-1.69a29.4,29.4,0,0,1-6-2.49,12.31,12.31,0,0,1-4.37-4.08,12,12,0,0,1-1.66-6.61,13.3,13.3,0,0,1,2.06-7.18,14.33,14.33,0,0,1,6.35-5.27,26.23,26.23,0,0,1,10.94-2,33.71,33.71,0,0,1,8.73,1.15,24.46,24.46,0,0,1,7.51,3.32l-2.38,5.78a23.09,23.09,0,0,0-6.86-3.14,26.83,26.83,0,0,0-7-1,19.08,19.08,0,0,0-7,1.09,8.53,8.53,0,0,0-4,2.88,6.92,6.92,0,0,0-1.26,4.05,5.52,5.52,0,0,0,1.69,4.25,12.07,12.07,0,0,0,4.41,2.53,59.52,59.52,0,0,0,6,1.7c2.17.5,4.34,1.07,6.54,1.69a28.48,28.48,0,0,1,6,2.46,12.36,12.36,0,0,1,4.36,4,11.59,11.59,0,0,1,1.66,6.5,12.94,12.94,0,0,1-2.09,7.11A14.55,14.55,0,0,1,1810,318,26.71,26.71,0,0,1,1799,320Z" transform="translate(-45.54)"/><path class="cls-1" d="M1842.34,319.42V275.18H1825V268.9h41.79v6.28h-17.32v44.24Z" transform="translate(-45.54)"/><path class="cls-1" d="M1868.47,319.42l22.89-50.52h7.14l23,50.52h-7.58l-20.43-46.48h2.89l-20.43,46.48Zm9.75-12.63,2-5.77h28.44l2.09,5.77Zm11.33-42,9.82-9.38h8.8l-12.12,9.38Z" transform="translate(-45.54)"/><path class="cls-1" d="M1977.25,320q-10,0-15.66-5.7t-5.7-16.68V268.9h7.21v28.44q0,8.45,3.72,12.34t10.5,3.9q6.87,0,10.58-3.9t3.72-12.34V268.9h7v28.72q0,11-5.67,16.68T1977.25,320Z" transform="translate(-45.54)"/><path class="cls-1" d="M2032.11,320a34.41,34.41,0,0,1-11-1.77,22.52,22.52,0,0,1-8.3-4.58l2.67-5.63a23.45,23.45,0,0,0,7.36,4.19,26.71,26.71,0,0,0,9.31,1.66,20.88,20.88,0,0,0,7.15-1,8.48,8.48,0,0,0,4-2.77,6.65,6.65,0,0,0,1.3-4,5.49,5.49,0,0,0-1.7-4.19,12.59,12.59,0,0,0-4.4-2.56,50.67,50.67,0,0,0-6-1.7q-3.24-.72-6.53-1.69a29.17,29.17,0,0,1-6-2.49,12.31,12.31,0,0,1-4.37-4.08,12,12,0,0,1-1.66-6.61,13.3,13.3,0,0,1,2.06-7.18,14.33,14.33,0,0,1,6.35-5.27,26.2,26.2,0,0,1,10.94-2,33.77,33.77,0,0,1,8.73,1.15,24.46,24.46,0,0,1,7.51,3.32l-2.38,5.78a23.2,23.2,0,0,0-6.86-3.14,26.83,26.83,0,0,0-7-1,19,19,0,0,0-7,1.09,8.53,8.53,0,0,0-4,2.88,6.92,6.92,0,0,0-1.26,4.05,5.52,5.52,0,0,0,1.69,4.25,12.07,12.07,0,0,0,4.41,2.53,59.52,59.52,0,0,0,5.95,1.7c2.17.5,4.34,1.07,6.53,1.69a28,28,0,0,1,6,2.46,12.39,12.39,0,0,1,4.37,4,11.59,11.59,0,0,1,1.66,6.5,13,13,0,0,1-2.09,7.11,14.55,14.55,0,0,1-6.46,5.27A26.71,26.71,0,0,1,2032.11,320Z" transform="translate(-45.54)"/><path class="cls-1" d="M2058.53,319.42l22.88-50.52h7.15l23,50.52h-7.58l-20.43-46.48h2.89L2066,319.42Zm9.74-12.63,1.95-5.77h28.44l2.1,5.77Z" transform="translate(-45.54)"/><path class="cls-1" d="M2123,319.42V268.9h5.92l33.42,41.5h-3.11V268.9h7.22v50.52h-5.92l-33.42-41.5h3.11v41.5Z" transform="translate(-45.54)"/><path class="cls-1" d="M2185.57,319.42V268.9h21.29a30.7,30.7,0,0,1,14.26,3.17,23.55,23.55,0,0,1,9.6,8.88,27.15,27.15,0,0,1,0,26.42,23.55,23.55,0,0,1-9.6,8.88,30.7,30.7,0,0,1-14.26,3.17Zm7.22-6.28h13.64a23.2,23.2,0,0,0,10.86-2.38,17.25,17.25,0,0,0,7.11-6.68,20.79,20.79,0,0,0,0-19.88,17.35,17.35,0,0,0-7.11-6.64,23.2,23.2,0,0,0-10.86-2.38h-13.64Z" transform="translate(-45.54)"/><path class="cls-1" d="M2272,320a29,29,0,0,1-10.72-1.95,25.63,25.63,0,0,1-8.55-5.45,25.06,25.06,0,0,1-5.63-8.19,27,27,0,0,1,0-20.5,25.06,25.06,0,0,1,5.63-8.19,25.6,25.6,0,0,1,8.52-5.45,28.83,28.83,0,0,1,10.75-1.95,29.34,29.34,0,0,1,10.69,1.91,25.31,25.31,0,0,1,8.51,5.41,24.75,24.75,0,0,1,5.6,8.23,27.81,27.81,0,0,1,0,20.61,24.68,24.68,0,0,1-5.6,8.19,25.18,25.18,0,0,1-8.51,5.42A29.34,29.34,0,0,1,2272,320Zm0-6.42a20.38,20.38,0,0,0,7.76-1.45,18.43,18.43,0,0,0,6.21-4.08,18.74,18.74,0,0,0,4.11-6.17,20.8,20.8,0,0,0,0-15.41,19.38,19.38,0,0,0-4.11-6.17,18.21,18.21,0,0,0-6.21-4.11,21.68,21.68,0,0,0-15.59,0,18.53,18.53,0,0,0-6.24,4.11,19.17,19.17,0,0,0-4.15,6.17,20.8,20.8,0,0,0,0,15.41,18.54,18.54,0,0,0,4.15,6.17,18.75,18.75,0,0,0,6.24,4.08A20.55,20.55,0,0,0,2272,313.58Z" transform="translate(-45.54)"/><path class="cls-1" d="M2313,319.86a4.88,4.88,0,0,1-4.91-5,4.63,4.63,0,0,1,1.45-3.54A4.85,4.85,0,0,1,2313,310a4.75,4.75,0,0,1,4.77,4.91,4.84,4.84,0,0,1-1.41,3.57A4.59,4.59,0,0,1,2313,319.86Zm16.75,0a4.87,4.87,0,0,1-4.91-5,4.66,4.66,0,0,1,1.44-3.54,4.89,4.89,0,0,1,3.47-1.37,4.67,4.67,0,0,1,3.36,1.37,4.74,4.74,0,0,1,1.4,3.54,4.87,4.87,0,0,1-1.4,3.57A4.59,4.59,0,0,1,2329.72,319.86Zm16.75,0a4.87,4.87,0,0,1-4.91-5,4.66,4.66,0,0,1,1.44-3.54,4.87,4.87,0,0,1,3.47-1.37,4.75,4.75,0,0,1,4.76,4.91,4.84,4.84,0,0,1-1.41,3.57A4.58,4.58,0,0,1,2346.47,319.86Z" transform="translate(-45.54)"/></g></g></g></svg>