<svg xmlns="http://www.w3.org/2000/svg" viewBox="0 0 1954.5 894.99"><defs><style>.cls-1{fill:none;stroke:#fff;stroke-miterlimit:10;stroke-width:8px;}.cls-2{font-size:289.65px;fill:#fff;font-family:Montserrat-Bold, Montserrat;font-weight:700;}.cls-3{letter-spacing:-0.02em;}.cls-4{letter-spacing:-0.01em;}.cls-5{letter-spacing:0.02em;}</style></defs><g id="Camada_2" data-name="Camada 2"><g id="Camada_1-2" data-name="Camada 1"><path class="cls-1" d="M84.66,278.61A134.56,134.56,0,0,1,45,277.51Q25.91,274,14.41,267.18l9.71-25q11.39,5.94,27.49,9.12a104.08,104.08,0,0,0,32.26,1.32q20.8-2.4,29.3-9.35t7.26-17.52q-.89-7.77-7-11.47t-15.51-4.83q-9.42-1.11-20.79-1.54T54.28,206.1A89.25,89.25,0,0,1,32.92,201a39,39,0,0,1-16.45-11.64q-6.57-7.91-8.22-22.19a42.56,42.56,0,0,1,5.39-27.06q7.09-12.15,21.78-20t35.8-10.25a144.82,144.82,0,0,1,33.22.11q17.06,2,28.45,7.9l-10,25.07a71,71,0,0,0-24.48-7.57,108.36,108.36,0,0,0-24.55,0q-19.58,2.26-28.47,9.73t-7.75,17.42q1,8.39,7.23,12.23A41.87,41.87,0,0,0,60.57,180a183.64,183.64,0,0,0,20.83,1.86q11.37.42,22.86,1.77a91.42,91.42,0,0,1,21.19,5A39.69,39.69,0,0,1,141.86,200q6.72,7.73,8.32,21.7,1.73,14.92-5.73,26.79t-22.59,19.75Q106.73,276.08,84.66,278.61Z"></path><path class="cls-1" d="M272.54,223.62q-8.43,8.85-22.41,10.45-12.42,1.44-19.93-4.94t-9-19.74L210.9,120.24l47.22-5.44L255.3,90.26,208.08,95.7l-4.15-36-29.82,3.43,4.15,36-28,3.22,2.82,24.54,28-3.22,10.41,90.4q2.85,24.85,18.06,36.63t40.06,8.93a69.94,69.94,0,0,0,19.4-5.07A43.61,43.61,0,0,0,284.32,244Z"></path><path class="cls-1" d="M416.37,86.83q-20.24-14.35-54.08-10.46a129.12,129.12,0,0,0-36.81,9.75,90.64,90.64,0,0,0-28.79,19.21l15,20.93a74,74,0,0,1,22.12-15.6,87.55,87.55,0,0,1,28-8.11q22.05-2.53,34.28,6.6t14.41,28.09l.67,5.9L364,148.57q-24.56,2.84-38.24,11t-18.81,19.8a47.42,47.42,0,0,0-3.58,25,43.87,43.87,0,0,0,10.34,24.15q8.71,10.17,23.26,14.79t32.87,2.51q22.67-2.61,36.6-12.87a48.7,48.7,0,0,0,14.74-16.84l2.49,21.63,28.27-3.26-11.44-99.4Q436.59,101.2,416.37,86.83ZM400.65,211.4q-11.73,8.9-28.5,10.83-17.08,2-27.56-4.22a23.31,23.31,0,0,1-11.86-18.31,24.2,24.2,0,0,1,5.69-18.91q6.9-8.35,29.28-10.93l46-5.29,2.65,23A42.72,42.72,0,0,1,400.65,211.4Z"></path><path class="cls-1" d="M586.9,187.44q-8.43,8.85-22.4,10.45-12.43,1.43-19.93-4.95t-9-19.73L525.27,84.05l47.22-5.43-2.83-24.54-47.22,5.43-4.14-36-29.83,3.43,4.15,36-28,3.21,2.83,24.55,28-3.22,10.4,90.39q2.86,24.87,18.07,36.64T564,223.44a69.67,69.67,0,0,0,19.4-5.06,43.72,43.72,0,0,0,15.31-10.58Z"></path><path class="cls-1" d="M740.51,34.41l9.8,85.12q2,17.4-2.8,30.38A43.11,43.11,0,0,1,732,170.59q-10.77,7.69-26.29,9.48-21.13,2.43-34.17-8.34t-15.83-35L645.14,45.39l-29.82,3.43,10.91,94.75q2.79,24.23,13.48,39.21a55.91,55.91,0,0,0,27.59,20.9q16.89,5.94,38,3.5,20.19-2.33,35.31-13.2a58,58,0,0,0,17.55-19.8l2.85,24.7,28.26-3.26L770.33,31Z"></path><path class="cls-1" d="M893.56,185.51a134.9,134.9,0,0,1-39.63-1.1q-19.12-3.47-30.62-10.33L833,149q11.38,5.94,27.49,9.11a103.78,103.78,0,0,0,32.26,1.33q20.81-2.4,29.3-9.36t7.26-17.52q-.89-7.75-7-11.47t-15.51-4.82q-9.42-1.12-20.79-1.54T863.18,113a89.72,89.72,0,0,1-21.36-5.09,39.14,39.14,0,0,1-16.45-11.64q-6.57-7.91-8.22-22.19A42.56,42.56,0,0,1,822.54,47q7.1-12.15,21.78-20t35.8-10.26a144.82,144.82,0,0,1,33.22.11q17.05,2,28.45,7.9l-10,25.08a70.82,70.82,0,0,0-24.48-7.57,107.78,107.78,0,0,0-24.55,0Q863.17,44.53,854.27,52t-7.75,17.42q1,8.38,7.23,12.23a41.87,41.87,0,0,0,15.72,5.27,183.76,183.76,0,0,0,20.83,1.85q11.37.42,22.86,1.78a91.42,91.42,0,0,1,21.19,5,39.81,39.81,0,0,1,16.41,11.34q6.72,7.73,8.32,21.7a40.29,40.29,0,0,1-5.73,26.79q-7.44,11.86-22.59,19.75T893.56,185.51Z"></path><path class="cls-1" d="M994.67,46.71a21.09,21.09,0,0,1-23.59-19q-1.07-9.33,4.46-15.94a21,21,0,0,1,14.23-7.62,20.13,20.13,0,0,1,15.13,4.24q6.74,5.2,7.81,14.52A21,21,0,0,1,1008.42,39,19.85,19.85,0,0,1,994.67,46.71Zm14.45,125.5a21.09,21.09,0,0,1-23.59-19q-1.08-9.33,4.46-15.94a21,21,0,0,1,14.23-7.62,20.12,20.12,0,0,1,15.12,4.24q6.74,5.21,7.81,14.52a21,21,0,0,1-4.28,16.08A19.87,19.87,0,0,1,1009.12,172.21Z"></path><text class="cls-2" transform="translate(28.15 558.14) rotate(-6.57)"><tspan class="cls-3">W</tspan><tspan x="330.2" y="0">ORK IN</tspan><tspan class="cls-4" x="0" y="262.02">P</tspan><tspan x="209.12" y="262.02">ROGRES</tspan><tspan class="cls-5" x="1481.81" y="262.02">S</tspan><tspan x="1672.39" y="262.02">...</tspan></text></g></g></svg>