<svg xmlns="http://www.w3.org/2000/svg" viewBox="0 0 393.07 80.91"><defs><style>.cls-1{fill:none;stroke:#fff;stroke-miterlimit:10;stroke-width:3px;}</style></defs><title>Ativo 8</title><g id="Camada_2" data-name="Camada 2"><g id="Camada_1-2" data-name="Camada 1"><path class="cls-1" d="M28.09,79.41a51.66,51.66,0,0,1-15-2.15A35.26,35.26,0,0,1,1.92,72L6.7,62.92a39,39,0,0,0,10,4.66,40,40,0,0,0,12.19,1.91q8,0,11.53-2.27A7.13,7.13,0,0,0,44,60.89a5.57,5.57,0,0,0-2.15-4.66,14.69,14.69,0,0,0-5.68-2.51q-3.52-.84-7.83-1.5t-8.6-1.67a33.69,33.69,0,0,1-7.89-2.87A14.8,14.8,0,0,1,6.1,42.55,15.88,15.88,0,0,1,4,33.76a16.24,16.24,0,0,1,3.22-10,20.53,20.53,0,0,1,9.15-6.64,38.3,38.3,0,0,1,14-2.33A55,55,0,0,1,43,16.26,31.29,31.29,0,0,1,53.42,20.5l-4.9,9.08a27,27,0,0,0-9-3.94,41.22,41.22,0,0,0-9.32-1.08Q22.71,24.56,19,27a7.31,7.31,0,0,0-3.7,6.27,5.92,5.92,0,0,0,2.21,5,15.79,15.79,0,0,0,5.74,2.69,70.47,70.47,0,0,0,7.82,1.62q4.31.64,8.61,1.67A34.87,34.87,0,0,1,47.5,47a15.18,15.18,0,0,1,5.74,5,15,15,0,0,1,2.21,8.61,15.42,15.42,0,0,1-3.35,9.92,21.63,21.63,0,0,1-9.44,6.51A40.89,40.89,0,0,1,28.09,79.41Z"></path><path class="cls-1" d="M101.81,66.74a13.54,13.54,0,0,1-9,3q-4.78,0-7.35-2.75t-2.57-7.89V24.8h18.16V15.36H82.93V1.5H71.46V15.36H60.71V24.8H71.46V59.57q0,9.57,5.26,14.7t14.81,5.14a26.58,26.58,0,0,0,7.59-1.08A16.7,16.7,0,0,0,105.4,75Z"></path><path class="cls-1" d="M162.39,21.1q-7-6.33-20.07-6.34a49.32,49.32,0,0,0-14.4,2.09,34.66,34.66,0,0,0-11.77,6l4.78,8.6a28.39,28.39,0,0,1,9.08-5,33.63,33.63,0,0,1,11-1.85q8.49,0,12.73,4T158,40v2.27H139.81q-9.45,0-15,2.51a17,17,0,0,0-8,6.69,18.11,18.11,0,0,0-2.44,9.32,16.8,16.8,0,0,0,2.86,9.62A19,19,0,0,0,125.41,77a29.93,29.93,0,0,0,12.37,2.39q8.72,0,14.45-3.29a18.6,18.6,0,0,0,6.34-5.75v8.32h10.87V40.45Q169.44,27.43,162.39,21.1ZM151,67.7a21.76,21.76,0,0,1-11.29,2.87q-6.57,0-10.28-2.81a8.9,8.9,0,0,1-3.7-7.47,9.25,9.25,0,0,1,3-6.93q3-2.86,11.59-2.87H158v8.84A16.26,16.26,0,0,1,151,67.7Z"></path><path class="cls-1" d="M222.73,66.74a13.52,13.52,0,0,1-9,3q-4.78,0-7.35-2.75t-2.57-7.89V24.8H222V15.36H203.85V1.5H192.38V15.36H181.63V24.8h10.75V59.57q0,9.57,5.26,14.7t14.82,5.14A26.51,26.51,0,0,0,220,78.33,16.7,16.7,0,0,0,226.32,75Z"></path><path class="cls-1" d="M287.73,15.36V48.1a24.92,24.92,0,0,1-2.39,11.41,16.41,16.41,0,0,1-6.81,7.17,21,21,0,0,1-10.39,2.45q-8.13,0-12.61-4.66t-4.48-14V15.36H239.58V51.81q0,9.31,3.4,15.47a21.47,21.47,0,0,0,9.56,9.14,32.37,32.37,0,0,0,14.28,3,28.2,28.2,0,0,0,14-3.47,22.09,22.09,0,0,0,7.53-6.75v9.5h10.88V15.36Z"></path><path class="cls-1" d="M339.23,79.41a51.64,51.64,0,0,1-15-2.15A35.26,35.26,0,0,1,313.07,72l4.77-9.08a39.22,39.22,0,0,0,10,4.66,39.9,39.9,0,0,0,12.19,1.91q8,0,11.53-2.27a7.13,7.13,0,0,0,3.53-6.33A5.56,5.56,0,0,0,353,56.23a14.58,14.58,0,0,0-5.67-2.51q-3.53-.84-7.83-1.5c-2.87-.43-5.73-1-8.6-1.67A33.69,33.69,0,0,1,323,47.68a14.8,14.8,0,0,1-5.73-5.13c-1.44-2.19-2.15-5.12-2.15-8.79a16.24,16.24,0,0,1,3.22-10,20.5,20.5,0,0,1,9.14-6.64,38.37,38.37,0,0,1,14-2.33,55.09,55.09,0,0,1,12.61,1.5,31.29,31.29,0,0,1,10.46,4.24l-4.9,9.08a27,27,0,0,0-9-3.94,41.09,41.09,0,0,0-9.32-1.08q-7.51,0-11.23,2.45a7.31,7.31,0,0,0-3.7,6.27,5.9,5.9,0,0,0,2.21,5,15.73,15.73,0,0,0,5.73,2.69,70.67,70.67,0,0,0,7.83,1.62q4.3.64,8.6,1.67A34.78,34.78,0,0,1,358.65,47a15.18,15.18,0,0,1,5.74,5,15,15,0,0,1,2.21,8.61,15.42,15.42,0,0,1-3.35,9.92,21.69,21.69,0,0,1-9.44,6.51A40.9,40.9,0,0,1,339.23,79.41Z"></path><path class="cls-1" d="M383.68,31.13a8.06,8.06,0,0,1-8.12-8.24A7.71,7.71,0,0,1,378,17a8,8,0,0,1,5.73-2.27A7.7,7.7,0,0,1,389.24,17a7.85,7.85,0,0,1,2.33,5.86,8,8,0,0,1-2.33,5.91A7.56,7.56,0,0,1,383.68,31.13Zm0,48.28a8.06,8.06,0,0,1-8.12-8.25A7.67,7.67,0,0,1,378,65.31,8,8,0,0,1,383.68,63a7.7,7.7,0,0,1,5.56,2.27,7.81,7.81,0,0,1,2.33,5.85,8,8,0,0,1-2.33,5.92A7.6,7.6,0,0,1,383.68,79.41Z"></path></g></g></svg>