<svg xmlns="http://www.w3.org/2000/svg" viewBox="0 0 719.87 180.26"><defs><style>.cls-1{fill:#f7f7f8;}</style></defs><title>Ativo 9</title><g id="Camada_2" data-name="Camada 2"><g id="Camada_1-2" data-name="Camada 1"><path class="cls-1" d="M27.89,94.08,2.43,16.6H21l22,68.63h-9.3l23-68.63h16.6L95.52,85.23h-9L109.13,16.6h17.16L100.83,94.08h-19L62.09,33.87h5.09L47,94.08Z" transform="translate(-2.43 -15.27)"></path><path class="cls-1" d="M172.89,95.41a46.46,46.46,0,0,1-16.83-3A41.06,41.06,0,0,1,142.56,84a38,38,0,0,1-8.91-12.73,39.82,39.82,0,0,1-3.15-15.94,39.68,39.68,0,0,1,3.15-16,38.07,38.07,0,0,1,8.91-12.68A41.15,41.15,0,0,1,156,18.26a46.27,46.27,0,0,1,16.88-3,46.94,46.94,0,0,1,16.88,2.94,40.3,40.3,0,0,1,13.44,8.35,38,38,0,0,1,8.91,12.73,39.94,39.94,0,0,1,3.16,16.05,40,40,0,0,1-3.16,16,37.81,37.81,0,0,1-8.91,12.79,40.3,40.3,0,0,1-13.44,8.35A46.94,46.94,0,0,1,172.89,95.41Zm0-15.17a24.57,24.57,0,0,0,9.57-1.82,23.2,23.2,0,0,0,7.69-5.2,23.93,23.93,0,0,0,5.15-7.86,26.3,26.3,0,0,0,1.83-10,26.3,26.3,0,0,0-1.83-10,24,24,0,0,0-5.15-7.85,23.22,23.22,0,0,0-7.69-5.21,24.76,24.76,0,0,0-9.57-1.82,25.13,25.13,0,0,0-9.63,1.82,22.57,22.57,0,0,0-7.7,5.21,24.65,24.65,0,0,0-5.09,7.85,26.49,26.49,0,0,0-1.82,10,26.49,26.49,0,0,0,1.82,10,24.59,24.59,0,0,0,5.09,7.86,22.55,22.55,0,0,0,7.7,5.2A25,25,0,0,0,172.89,80.24Z" transform="translate(-2.43 -15.27)"></path><path class="cls-1" d="M228.78,94.08V16.6h33.54A43.59,43.59,0,0,1,280.25,20a26.26,26.26,0,0,1,11.62,9.68A26.85,26.85,0,0,1,296,44.6a26.78,26.78,0,0,1-4.1,15,25.7,25.7,0,0,1-11.62,9.52,44.82,44.82,0,0,1-17.93,3.27H238.63l8.19-7.75V94.08Zm18-27.45-8.19-8.52h22.69q8.19,0,12.4-3.54t4.2-10c0-4.27-1.4-7.58-4.2-9.9s-6.94-3.49-12.4-3.49H238.63l8.19-8.52Zm31.33,27.45L258.67,66h19.25l19.49,28.11Z" transform="translate(-2.43 -15.27)"></path><path class="cls-1" d="M310.13,94.08V16.6H328V94.08Zm15.94-17.71-.89-20.7L362.26,16.6h19.93l-33.32,36L338.69,63.2Zm37.08,17.71L335.59,60.43l11.73-12.84,36.86,46.49Z" transform="translate(-2.43 -15.27)"></path><path class="cls-1" d="M423.36,94.08V16.6h18V94.08Z" transform="translate(-2.43 -15.27)"></path><path class="cls-1" d="M459.66,94.08V16.6h14.83l45.72,55.79H513V16.6h17.71V94.08H515.89L470.18,38.3h7.19V94.08Z" transform="translate(-2.43 -15.27)"></path><path class="cls-1" d="M9.19,194.21V116.73H42.72a43.53,43.53,0,0,1,17.93,3.37,26.37,26.37,0,0,1,11.63,9.69,29.44,29.44,0,0,1,0,29.94,26.74,26.74,0,0,1-11.63,9.68,42.87,42.87,0,0,1-17.93,3.44H19l8.19-8.08v29.44Zm18-27.45L19,158.24H41.73q8.19,0,12.39-3.55t4.21-10q0-6.42-4.21-9.9t-12.39-3.49H19l8.19-8.52Z" transform="translate(-2.43 -15.27)"></path><path class="cls-1" d="M89.1,194.21V116.73h33.54a43.6,43.6,0,0,1,17.93,3.37,26.34,26.34,0,0,1,11.62,9.69,29.44,29.44,0,0,1,0,29.94,25.75,25.75,0,0,1-11.62,9.52,44.82,44.82,0,0,1-17.93,3.26H99l8.19-7.74v29.44Zm18-27.45L99,158.24h22.69q8.19,0,12.4-3.55t4.2-10q0-6.42-4.2-9.9t-12.4-3.49H99l8.19-8.52Zm31.32,27.45L119,166.09h19.26l19.48,28.12Z" transform="translate(-2.43 -15.27)"></path><path class="cls-1" d="M208,195.54a46.37,46.37,0,0,1-16.82-3,41,41,0,0,1-13.51-8.41,38.26,38.26,0,0,1-8.91-12.73,42.06,42.06,0,0,1,0-31.94,38.42,38.42,0,0,1,8.91-12.67,41.15,41.15,0,0,1,13.45-8.41,46.31,46.31,0,0,1,16.88-3,47.12,47.12,0,0,1,16.88,2.93,40.53,40.53,0,0,1,13.45,8.36,38.11,38.11,0,0,1,8.91,12.73,42.31,42.31,0,0,1,0,32,38,38,0,0,1-8.91,12.79,40.35,40.35,0,0,1-13.45,8.35A46.9,46.9,0,0,1,208,195.54Zm0-15.17a24.77,24.77,0,0,0,9.58-1.82,23.28,23.28,0,0,0,7.69-5.21,24,24,0,0,0,5.14-7.85,28.35,28.35,0,0,0,0-20,23.9,23.9,0,0,0-5.14-7.86,23.4,23.4,0,0,0-7.69-5.2,24.59,24.59,0,0,0-9.58-1.83,25,25,0,0,0-9.63,1.83,22.6,22.6,0,0,0-7.69,5.2,24.42,24.42,0,0,0-5.09,7.86,28.35,28.35,0,0,0,0,20,24.48,24.48,0,0,0,5.09,7.85,22.49,22.49,0,0,0,7.69,5.21A25.13,25.13,0,0,0,208,180.37Z" transform="translate(-2.43 -15.27)"></path><path class="cls-1" d="M301.28,195.54a47.39,47.39,0,0,1-16.94-2.94,38.54,38.54,0,0,1-22.19-21.08,42.46,42.46,0,0,1,0-32.1,38,38,0,0,1,8.91-12.73,40.45,40.45,0,0,1,13.5-8.36,51.46,51.46,0,0,1,35.59.5,36.81,36.81,0,0,1,13.89,10l-11.4,10.63a28.55,28.55,0,0,0-9.3-6.7,27.24,27.24,0,0,0-11-2.16,27.55,27.55,0,0,0-10.18,1.83,23.52,23.52,0,0,0-8,5.15A22.7,22.7,0,0,0,279,145.4a28.3,28.3,0,0,0,0,20,22.67,22.67,0,0,0,5.21,7.92,24.34,24.34,0,0,0,8,5.2,26.32,26.32,0,0,0,10.12,1.88,31,31,0,0,0,10.35-1.77,30.62,30.62,0,0,0,9.8-5.87l10.18,13a46.13,46.13,0,0,1-14.72,7.36A57.51,57.51,0,0,1,301.28,195.54Zm14.94-12.18V154.25H332.6v31.44Z" transform="translate(-2.43 -15.27)"></path><path class="cls-1" d="M349.2,194.21V116.73h33.54a43.6,43.6,0,0,1,17.93,3.37,26.28,26.28,0,0,1,11.62,9.69,29.38,29.38,0,0,1,0,29.94,25.7,25.7,0,0,1-11.62,9.52,44.82,44.82,0,0,1-17.93,3.26H359.05l8.19-7.74v29.44Zm18-27.45-8.19-8.52h22.69q8.19,0,12.4-3.55t4.21-10q0-6.42-4.21-9.9t-12.4-3.49H359.05l8.19-8.52Zm31.33,27.45-19.48-28.12h19.26l19.48,28.12Z" transform="translate(-2.43 -15.27)"></path><path class="cls-1" d="M448.37,179.82h42.17v14.39h-60V116.73H489.1v14.39H448.37Zm-1.33-32h37.3v14.06H447Z" transform="translate(-2.43 -15.27)"></path><path class="cls-1" d="M530.39,195.54a63.83,63.83,0,0,1-17.88-2.49,41.59,41.59,0,0,1-13.78-6.48l6.09-13.5a42.55,42.55,0,0,0,11.73,5.81,44,44,0,0,0,13.84,2.27A27.32,27.32,0,0,0,539,180a10.72,10.72,0,0,0,4.81-2.93,6.41,6.41,0,0,0,1.55-4.26,5.85,5.85,0,0,0-2.43-4.93,20.15,20.15,0,0,0-6.48-3c-2.69-.77-5.63-1.51-8.8-2.21s-6.36-1.55-9.57-2.55a38.3,38.3,0,0,1-8.86-4,18.84,18.84,0,0,1-6.42-6.53,19.77,19.77,0,0,1-2.38-10.13,21.86,21.86,0,0,1,3.54-12.12,24.23,24.23,0,0,1,10.8-8.74q7.24-3.27,18.2-3.27a59.86,59.86,0,0,1,14.45,1.77,42.81,42.81,0,0,1,12.45,5.09l-5.64,13.51a45,45,0,0,0-10.74-4.49,41,41,0,0,0-10.63-1.49A25.75,25.75,0,0,0,524.3,131a9.87,9.87,0,0,0-4.7,3.16,7.16,7.16,0,0,0-1.5,4.42,6,6,0,0,0,2.44,5,17.72,17.72,0,0,0,6.42,2.94q4,1.05,8.85,2.1a97.77,97.77,0,0,1,9.63,2.6,43.83,43.83,0,0,1,8.75,3.93,19,19,0,0,1,6.47,6.42,18.78,18.78,0,0,1,2.49,10,21.14,21.14,0,0,1-3.6,11.95,25.11,25.11,0,0,1-10.9,8.75Q541.35,195.54,530.39,195.54Z" transform="translate(-2.43 -15.27)"></path><path class="cls-1" d="M601,195.54a63.71,63.71,0,0,1-17.87-2.49,41.5,41.5,0,0,1-13.78-6.48l6.08-13.5a42.47,42.47,0,0,0,11.74,5.81A43.84,43.84,0,0,0,601,181.15a27.32,27.32,0,0,0,8.58-1.11,10.76,10.76,0,0,0,4.82-2.93,6.4,6.4,0,0,0,1.54-4.26,5.85,5.85,0,0,0-2.43-4.93,20,20,0,0,0-6.47-3q-4-1.16-8.8-2.21t-9.58-2.55a38.22,38.22,0,0,1-8.85-4,18.67,18.67,0,0,1-6.42-6.53A19.68,19.68,0,0,1,571,139.53a21.86,21.86,0,0,1,3.54-12.12,24.2,24.2,0,0,1,10.79-8.74q7.24-3.27,18.21-3.27A59.78,59.78,0,0,1,618,117.17a42.81,42.81,0,0,1,12.45,5.09l-5.64,13.51a45,45,0,0,0-10.74-4.49,41,41,0,0,0-10.62-1.49,25.71,25.71,0,0,0-8.52,1.16,9.91,9.91,0,0,0-4.71,3.16,7.15,7.15,0,0,0-1.49,4.42,6,6,0,0,0,2.43,5,17.8,17.8,0,0,0,6.42,2.94q4,1.05,8.86,2.1a99.29,99.29,0,0,1,9.63,2.6,43.74,43.74,0,0,1,8.74,3.93,18,18,0,0,1,9,16.44,21.21,21.21,0,0,1-3.59,11.95,25.11,25.11,0,0,1-10.9,8.75Q612,195.54,601,195.54Z" transform="translate(-2.43 -15.27)"></path><path class="cls-1" d="M653.57,195.09a10.52,10.52,0,0,1-7.58-3,11.17,11.17,0,0,1,0-15.55,11.18,11.18,0,0,1,15.22,0,10.82,10.82,0,0,1-7.64,18.59Z" transform="translate(-2.43 -15.27)"></path><path class="cls-1" d="M682.57,195.09a10.52,10.52,0,0,1-7.58-3,11.17,11.17,0,0,1,0-15.55,11.18,11.18,0,0,1,15.22,0,10.82,10.82,0,0,1-7.64,18.59Z" transform="translate(-2.43 -15.27)"></path><path class="cls-1" d="M711.57,195.09a10.52,10.52,0,0,1-7.58-3,11.14,11.14,0,0,1,0-15.55,11.18,11.18,0,0,1,15.22,0,10.82,10.82,0,0,1-7.64,18.59Z" transform="translate(-2.43 -15.27)"></path></g></g></svg>