<svg xmlns="http://www.w3.org/2000/svg" viewBox="0 0 2281.5 216"><defs><style>.cls-1{fill:#fff;}</style></defs><title>Ativo 14</title><g id="Camada_2" data-name="Camada 2"><g id="Camada_1-2" data-name="Camada 1"><rect width="2281.5" height="216"/><path class="cls-1" d="M136.67,159.53A70,70,0,0,1,115,156.22q-10.26-3.3-16.08-8.32l5.65-10A53.25,53.25,0,0,0,119,145.3a54.94,54.94,0,0,0,18.54,3.13q13.24,0,19.08-4.21A13.13,13.13,0,0,0,162.45,133a10.43,10.43,0,0,0-3.27-8.15,21.27,21.27,0,0,0-8.56-4.47,104.43,104.43,0,0,0-11.84-2.59q-6.53-1.08-13-2.51a47.22,47.22,0,0,1-11.75-4.2,23.12,23.12,0,0,1-8.56-7.61q-3.27-4.83-3.27-12.88a23.6,23.6,0,0,1,4.23-13.79,28.07,28.07,0,0,1,12.45-9.57q8.22-3.49,20-3.5a69.35,69.35,0,0,1,18,2.42,49,49,0,0,1,14.83,6.35l-5.47,10.2a42,42,0,0,0-13.25-6.17A54.89,54.89,0,0,0,139,74.69q-12.54,0-18.45,4.39c-4,2.93-5.92,6.65-5.92,11.19a10.92,10.92,0,0,0,3.27,8.41,22.28,22.28,0,0,0,8.66,4.74,86.2,86.2,0,0,0,11.83,2.77q6.45,1.08,12.89,2.6a57.69,57.69,0,0,1,11.84,4.11,21.79,21.79,0,0,1,8.65,7.34Q175,125,175,132.68a23,23,0,0,1-4.5,14.23q-4.5,6-13.07,9.31T136.67,159.53Z"/><path class="cls-1" d="M183.46,75.22V64.66h57.4V75.21Zm43.82,84.29q-13.08,0-20.14-7.15t-7.07-20.22V43.9H212.6v87.53q0,8.24,4.16,12.7t11.92,4.48a20.06,20.06,0,0,0,13.77-4.84l4.42,9.13a23,23,0,0,1-8.92,5A35.72,35.72,0,0,1,227.28,159.51Z"/><path class="cls-1" d="M295.81,159.5A43.41,43.41,0,0,1,277.7,156,26.92,26.92,0,0,1,266,146.35a25.27,25.27,0,0,1-4.06-14.23,26.34,26.34,0,0,1,3.44-13.33q3.45-6,11.3-9.67t21.11-3.67h32v9.49H298.09q-13.43,0-18.63,4.83a15.7,15.7,0,0,0-5.21,12,15.52,15.52,0,0,0,6.19,12.89q6.18,4.83,17.31,4.83A33.09,33.09,0,0,0,316,144.55a28.21,28.21,0,0,0,11.21-14.23l2.83,8.77A29.78,29.78,0,0,1,317.79,154Q309.06,159.5,295.81,159.5Zm32-.9V137.84l-.53-3.4V99.72q0-12-6.62-18.44t-19.7-6.44a48.44,48.44,0,0,0-17.13,3,43.39,43.39,0,0,0-13.77,8l-5.66-9.48a49.89,49.89,0,0,1,17-9.4,65.12,65.12,0,0,1,20.84-3.31q18,0,27.82,9t9.81,27.47V158.6Z"/><path class="cls-1" d="M359.37,75.19V64.63h57.41V75.18Zm43.82,84.29q-13.06,0-20.13-7.15T376,132.1l0-88.23h12.54l0,87.53q0,8.24,4.15,12.7t11.92,4.48a20.11,20.11,0,0,0,13.78-4.84l4.42,9.13a23.07,23.07,0,0,1-8.92,5A35.84,35.84,0,0,1,403.19,159.48Z"/><path class="cls-1" d="M483.91,159.47A45.22,45.22,0,0,1,463.24,155a31.45,31.45,0,0,1-13.69-13.42q-4.86-9-4.86-22.37V64.62h12.54v53.16q0,15,7.33,22.64t20.58,7.6A33.88,33.88,0,0,0,502,144a26.66,26.66,0,0,0,11-11.73q3.79-7.69,3.79-18.44V64.6h12.54l0,94h-12V132.8l2,4.65a34.68,34.68,0,0,1-13.69,16.2A39.82,39.82,0,0,1,483.91,159.47Z"/><path class="cls-1" d="M589.17,159.45a70.42,70.42,0,0,1-21.72-3.3q-10.25-3.32-16.08-8.32l5.66-10a53.31,53.31,0,0,0,14.48,7.43,55.29,55.29,0,0,0,18.55,3.13q13.25,0,19.07-4.21A13.15,13.15,0,0,0,615,133a10.4,10.4,0,0,0-3.27-8.14,21.45,21.45,0,0,0-8.57-4.48,104.23,104.23,0,0,0-11.83-2.59q-6.54-1.08-13-2.5A47.41,47.41,0,0,1,566.56,111a23.13,23.13,0,0,1-8.57-7.6q-3.27-4.83-3.27-12.89A23.51,23.51,0,0,1,559,76.77a28,28,0,0,1,12.45-9.58q8.21-3.49,20-3.49a69.34,69.34,0,0,1,18,2.41,49.35,49.35,0,0,1,14.84,6.35l-5.48,10.2a42,42,0,0,0-13.24-6.17,55,55,0,0,0-14.13-1.88Q578.91,74.63,573,79t-5.92,11.19a10.92,10.92,0,0,0,3.27,8.41,22.35,22.35,0,0,0,8.66,4.74,86.16,86.16,0,0,0,11.83,2.78q6.45,1.06,12.9,2.59a58.19,58.19,0,0,1,11.83,4.11,21.82,21.82,0,0,1,8.66,7.34q3.27,4.74,3.27,12.44a23,23,0,0,1-4.5,14.23q-4.51,6-13.07,9.31T589.17,159.45Z"/><path class="cls-1" d="M651.68,83.19a8.79,8.79,0,0,1-6.62-2.86,9.68,9.68,0,0,1-2.74-7,9.33,9.33,0,0,1,2.74-7,9.53,9.53,0,0,1,13.25,0,9.36,9.36,0,0,1,2.73,7,9.73,9.73,0,0,1-2.73,7A8.84,8.84,0,0,1,651.68,83.19Zm0,76.25a8.84,8.84,0,0,1-6.63-2.86,9.78,9.78,0,0,1-2.74-7,9.33,9.33,0,0,1,2.74-7,9.5,9.5,0,0,1,13.25,0,9.36,9.36,0,0,1,2.74,7,9.76,9.76,0,0,1-2.74,7A8.82,8.82,0,0,1,651.7,159.44Z"/><path class="cls-1" d="M753.08,158.53l-35-94h12l31.81,87.16h-5.48l32.66-87.17h10.78l32.33,87.17h-5.47L859,64.55h11.48l-35.13,94H823.55l-31.1-82h3.71l-31.25,82Z"/><path class="cls-1" d="M924.58,159.4a47.13,47.13,0,0,1-24.2-6.18,45.05,45.05,0,0,1-16.78-17.08,49.16,49.16,0,0,1-6.19-24.7q0-14.14,6.18-24.88a44.81,44.81,0,0,1,16.78-16.83,51.33,51.33,0,0,1,48.65.08,44.88,44.88,0,0,1,16.79,16.82q6.09,10.65,6.09,24.79a49.58,49.58,0,0,1-6.08,24.79,44.39,44.39,0,0,1-16.87,17A48.2,48.2,0,0,1,924.58,159.4Zm0-11.28a34.47,34.47,0,0,0,17.83-4.57,32.54,32.54,0,0,0,12.28-12.89,39.82,39.82,0,0,0,4.5-19.24,39.72,39.72,0,0,0-4.51-19.33A32.73,32.73,0,0,0,942.4,79.3a36.48,36.48,0,0,0-35.32,0,33.38,33.38,0,0,0-12.36,12.8,39,39,0,0,0-4.59,19.33,39.16,39.16,0,0,0,4.59,19.24A33.38,33.38,0,0,0,907,143.56,33.77,33.77,0,0,0,924.58,148.12Z"/><path class="cls-1" d="M997.52,158.49v-94h12V90.11l-1.24-4.47a30.9,30.9,0,0,1,13.07-16.38q9.18-5.64,22.79-5.64V76a11.28,11.28,0,0,1-1.42-.09,11.12,11.12,0,0,0-1.41-.09q-14.65,0-23,9t-8.3,25.69v48Z"/><path class="cls-1" d="M1066.93,158.48l0-132.81h12.54l0,132.8Zm9.89-24.35.35-16.28,57.75-53.35h15.36l-40.79,39.56-7.06,6.08Zm62,24.33-38.69-48.85,8.12-9.85,45.94,58.7Z"/><path class="cls-1" d="M1225.7,43.72a9.1,9.1,0,0,1-9.19-9.13,8.54,8.54,0,0,1,2.65-6.35,9,9,0,0,1,6.53-2.6,9.17,9.17,0,0,1,6.54,2.51,8.25,8.25,0,0,1,2.65,6.26,9.19,9.19,0,0,1-2.56,6.62A8.76,8.76,0,0,1,1225.7,43.72Zm-6.34,114.73,0-94h12.54l0,94Z"/><path class="cls-1" d="M1314.19,63.57A43.08,43.08,0,0,1,1334.06,68a31.42,31.42,0,0,1,13.43,13.34q4.85,8.94,4.86,22.55v54.59h-12.54V105.09q0-14.85-7.34-22.46T1311.89,75a35.17,35.17,0,0,0-17.22,4,27.46,27.46,0,0,0-11.3,11.63q-4,7.62-4,18.35v49.4h-12.54l0-94h12V90.25l-1.95-4.83a34.1,34.1,0,0,1,14.13-16Q1300.77,63.58,1314.19,63.57Z"/><path class="cls-1" d="M1432.55,193.14l0-128.69h12V92.72l-1.23,18.8,1.77,19v62.65Zm47.86-33.84a42.49,42.49,0,0,1-21.73-5.63,40.6,40.6,0,0,1-15.46-16.29q-5.74-10.65-5.74-26t5.65-26a39.31,39.31,0,0,1,15.36-16.2,43.32,43.32,0,0,1,21.9-5.55,47,47,0,0,1,23.76,6,42.94,42.94,0,0,1,16.51,16.82q6,10.83,6,25,0,14.31-6,25.06a43.68,43.68,0,0,1-16.51,16.82A46.5,46.5,0,0,1,1480.41,159.3Zm-.89-11.27a34.35,34.35,0,0,0,17.66-4.57,33.21,33.21,0,0,0,12.36-12.89,39.19,39.19,0,0,0,4.59-19.24,38.68,38.68,0,0,0-4.59-19.15,34.15,34.15,0,0,0-12.37-12.89,33.73,33.73,0,0,0-17.66-4.65,34.18,34.18,0,0,0-17.75,4.66,33.11,33.11,0,0,0-12.36,12.89,39.3,39.3,0,0,0-4.5,19.15,39.82,39.82,0,0,0,4.5,19.24,32.38,32.38,0,0,0,12.37,12.88A34.61,34.61,0,0,0,1479.52,148Z"/><path class="cls-1" d="M1552.29,158.39l0-94h12V90l-1.24-4.47a30.9,30.9,0,0,1,13.07-16.38q9.18-5.64,22.78-5.65V75.87a9.54,9.54,0,0,1-1.41-.09,13.33,13.33,0,0,0-1.41-.08q-14.67,0-23,9t-8.3,25.68v48Z"/><path class="cls-1" d="M1658.62,159.27a47.15,47.15,0,0,1-24.2-6.17A45.08,45.08,0,0,1,1617.64,136a49.16,49.16,0,0,1-6.19-24.7q0-14.13,6.18-24.88a44.81,44.81,0,0,1,16.78-16.83,51.29,51.29,0,0,1,48.65.09,44.81,44.81,0,0,1,16.79,16.82q6.09,10.65,6.09,24.79a49.61,49.61,0,0,1-6.08,24.79,44.3,44.3,0,0,1-16.87,17A48.1,48.1,0,0,1,1658.62,159.27Zm0-11.27a34.66,34.66,0,0,0,17.83-4.57,32.6,32.6,0,0,0,12.28-12.89,39.82,39.82,0,0,0,4.5-19.24A39.69,39.69,0,0,0,1688.72,92a32.69,32.69,0,0,0-12.28-12.8,36.44,36.44,0,0,0-35.32,0A33.31,33.31,0,0,0,1628.76,92a39.06,39.06,0,0,0-4.59,19.33,39.19,39.19,0,0,0,4.59,19.24A32.82,32.82,0,0,0,1658.62,148Z"/><path class="cls-1" d="M1768.83,154.78A48.85,48.85,0,0,1,1745,149a43,43,0,0,1-16.69-16.2,46.15,46.15,0,0,1-6.1-23.8,45.69,45.69,0,0,1,6.09-23.72,42.57,42.57,0,0,1,16.69-16,49.29,49.29,0,0,1,23.84-5.73,47.08,47.08,0,0,1,22.26,5.18,38.53,38.53,0,0,1,15.72,15.39q5.84,10.2,5.83,24.88t-5.82,24.88a39.62,39.62,0,0,1-15.72,15.57A45.75,45.75,0,0,1,1768.83,154.78Zm2.3,39.19a78.76,78.76,0,0,1-24.37-3.75q-11.65-3.75-18.9-10.74l6.35-9.66a48.24,48.24,0,0,0,16.17,9.39,59.25,59.25,0,0,0,20.4,3.49q17.65,0,26-8.33t8.3-25.86V125.06L1806.8,109l-1.24-16.11V64.38h12l0,82.51q0,24.35-11.74,35.71T1771.13,194Zm-1.07-50.47a37,37,0,0,0,18.2-4.39,32.56,32.56,0,0,0,12.53-12.17,34.76,34.76,0,0,0,4.59-18,34.31,34.31,0,0,0-4.59-17.9A33,33,0,0,0,1788.25,79a39.75,39.75,0,0,0-36.3,0,32,32,0,0,0-12.54,12.08,34.84,34.84,0,0,0-4.5,17.9,35.21,35.21,0,0,0,4.51,18A31.72,31.72,0,0,0,1752,139.12,37.2,37.2,0,0,0,1770.06,143.5Z"/><path class="cls-1" d="M1852.55,158.34l0-94h12V90l-1.24-4.48a30.92,30.92,0,0,1,13.07-16.37q9.18-5.64,22.78-5.65V75.82a9.54,9.54,0,0,1-1.41-.09,13.34,13.34,0,0,0-1.41-.09q-14.67,0-23,9t-8.3,25.68v48Z"/><path class="cls-1" d="M1960.47,159.22q-14.49,0-25.44-6.17a44.56,44.56,0,0,1-17.13-17,49,49,0,0,1-6.19-24.79,50.38,50.38,0,0,1,5.91-24.7,44.07,44.07,0,0,1,39.47-23.1,44.79,44.79,0,0,1,23.23,6,42.43,42.43,0,0,1,16,16.82q5.84,10.83,5.83,25c0,.6,0,1.23-.09,1.88s-.08,1.35-.08,2.06l-80.72,0v-9.49h74l-4.94,3.76A37.51,37.51,0,0,0,1986,91.29a32.16,32.16,0,0,0-11.75-12.44,32.56,32.56,0,0,0-17.13-4.47A33.12,33.12,0,0,0,1940,78.86a30.91,30.91,0,0,0-11.84,12.53,39.08,39.08,0,0,0-4.23,18.44v2a37.24,37.24,0,0,0,4.68,18.88,32.87,32.87,0,0,0,13.07,12.7,39.37,39.37,0,0,0,19.17,4.56,40.82,40.82,0,0,0,15.81-3,32.86,32.86,0,0,0,12.62-9.31l7.07,8.23a39.88,39.88,0,0,1-15.45,11.46A51.6,51.6,0,0,1,1960.47,159.22Z"/><path class="cls-1" d="M2052.66,159.2a70.07,70.07,0,0,1-21.72-3.3q-10.25-3.32-16.08-8.32l5.65-10A53.25,53.25,0,0,0,2035,145a55,55,0,0,0,18.54,3.13q13.24,0,19.08-4.21a13.14,13.14,0,0,0,5.82-11.19,10.44,10.44,0,0,0-3.26-8.14,21.52,21.52,0,0,0-8.57-4.48,106.15,106.15,0,0,0-11.84-2.59q-6.53-1.06-13-2.5a47.41,47.41,0,0,1-11.74-4.21,23.05,23.05,0,0,1-8.57-7.6q-3.27-4.83-3.27-12.89a23.51,23.51,0,0,1,4.24-13.78,28,28,0,0,1,12.45-9.58q8.2-3.49,20-3.49a69.34,69.34,0,0,1,18,2.41,49.46,49.46,0,0,1,14.84,6.35l-5.48,10.2a42,42,0,0,0-13.25-6.17,54.44,54.44,0,0,0-14.13-1.87q-12.54,0-18.45,4.38t-5.92,11.19c0,3.58,1.09,6.39,3.27,8.41a22.28,22.28,0,0,0,8.66,4.74,86.16,86.16,0,0,0,11.83,2.78q6.45,1.06,12.89,2.59a58.08,58.08,0,0,1,11.84,4.11,21.89,21.89,0,0,1,8.66,7.34q3.26,4.74,3.26,12.44a22.92,22.92,0,0,1-4.5,14.23q-4.5,6-13.07,9.31T2052.66,159.2Z"/><path class="cls-1" d="M2138.85,159.19a70.12,70.12,0,0,1-21.72-3.31q-10.24-3.3-16.08-8.32l5.65-10a53.25,53.25,0,0,0,14.49,7.42,55,55,0,0,0,18.54,3.13q13.26,0,19.08-4.21a13.14,13.14,0,0,0,5.83-11.18,10.43,10.43,0,0,0-3.27-8.15,21.31,21.31,0,0,0-8.57-4.47,104.23,104.23,0,0,0-11.83-2.59q-6.54-1.08-13-2.51a47,47,0,0,1-11.74-4.2,23.08,23.08,0,0,1-8.57-7.61q-3.27-4.83-3.27-12.88a23.54,23.54,0,0,1,4.24-13.79,28,28,0,0,1,12.45-9.57q8.2-3.5,20-3.5a69.35,69.35,0,0,1,18,2.42A49.21,49.21,0,0,1,2174,72.2l-5.48,10.2a42,42,0,0,0-13.25-6.17,54.44,54.44,0,0,0-14.12-1.88q-12.55,0-18.46,4.39c-3.95,2.93-5.92,6.65-5.92,11.19a10.92,10.92,0,0,0,3.27,8.41,22.35,22.35,0,0,0,8.66,4.74,86.2,86.2,0,0,0,11.83,2.77q6.45,1.08,12.9,2.6a57.59,57.59,0,0,1,11.83,4.11,21.82,21.82,0,0,1,8.66,7.34c2.17,3.16,3.27,7.31,3.27,12.44a22.94,22.94,0,0,1-4.51,14.22q-4.5,6-13.06,9.32T2138.85,159.19Z"/></g></g></svg>