<svg xmlns="http://www.w3.org/2000/svg" viewBox="0 0 1682.35 400.36"><defs><style>.cls-1{fill:#fff;}</style></defs><title>Ativo 14</title><g id="Camada_2" data-name="Camada 2"><g id="Camada_1-2" data-name="Camada 1"><rect width="726.45" height="233.54"/><rect y="166.82" width="1682.35" height="233.54"/><path class="cls-1" d="M104.21,165.72a75.78,75.78,0,0,1-23.49-3.58q-11.07-3.57-17.38-9l6.11-10.84a57.51,57.51,0,0,0,15.66,8,59.49,59.49,0,0,0,20,3.38q14.32,0,20.63-4.55a14.2,14.2,0,0,0,6.3-12.1,11.25,11.25,0,0,0-3.54-8.8,23.12,23.12,0,0,0-9.26-4.84,113.67,113.67,0,0,0-12.8-2.8q-7.06-1.16-14-2.71a51,51,0,0,1-12.7-4.54,25,25,0,0,1-9.27-8.23Q67,99.93,67,91.22a25.5,25.5,0,0,1,4.58-14.9Q76.12,69.74,85,66t21.68-3.77a74.48,74.48,0,0,1,19.47,2.61,53.36,53.36,0,0,1,16,6.86l-5.92,11A45.47,45.47,0,0,0,122,76a59.49,59.49,0,0,0-15.28-2q-13.56,0-20,4.75T80.33,90.83q0,5.81,3.53,9.1a24.14,24.14,0,0,0,9.36,5.12,92.38,92.38,0,0,0,12.8,3q7,1.15,13.94,2.8a63.32,63.32,0,0,1,12.79,4.45,23.6,23.6,0,0,1,9.36,7.94q3.54,5.13,3.54,13.44a24.93,24.93,0,0,1-4.87,15.39q-4.87,6.5-14.13,10.07T104.21,165.72Z" transform="translate(0 -1.81)"/><path class="cls-1" d="M154.8,74.56V63.15h62.06V74.55Zm47.38,91.14q-14.15,0-21.78-7.73t-7.64-21.87V40.69H186.3l0,94.63q0,8.91,4.49,13.74t12.89,4.84q9,0,14.9-5.23l4.77,9.87a25,25,0,0,1-9.64,5.42A39,39,0,0,1,202.18,165.7Z" transform="translate(0 -1.81)"/><path class="cls-1" d="M276.27,165.69a47,47,0,0,1-19.58-3.77A29.18,29.18,0,0,1,244,151.47a27.33,27.33,0,0,1-4.39-15.38,28.45,28.45,0,0,1,3.72-14.42q3.72-6.48,12.22-10.45t22.82-4h34.57V117.5H278.74q-14.5,0-20.14,5.23a17,17,0,0,0-5.63,13,16.77,16.77,0,0,0,6.68,13.93q6.69,5.22,18.72,5.22,11.46,0,19.76-5.32a30.53,30.53,0,0,0,12.13-15.39l3.05,9.48A32.17,32.17,0,0,1,300,159.69Q290.59,165.69,276.27,165.69Zm34.56-1V142.27l-.57-3.68V101.05q0-13-7.16-19.93t-21.3-7a52.42,52.42,0,0,0-18.52,3.3,47.08,47.08,0,0,0-14.9,8.71L242.26,75.9a54.1,54.1,0,0,1,18.33-10.16,70.43,70.43,0,0,1,22.54-3.58q19.47,0,30.08,9.76t10.6,29.71v63.08Z" transform="translate(0 -1.81)"/><path class="cls-1" d="M345,74.53V63.11h62.06V74.52Zm47.38,91.14q-14.14,0-21.77-7.74T363,136.07V40.66h13.56v94.63q0,8.91,4.49,13.74t12.89,4.84q9,0,14.9-5.23l4.77,9.87a25,25,0,0,1-9.64,5.42A39,39,0,0,1,392.38,165.67Z" transform="translate(0 -1.81)"/><path class="cls-1" d="M479.65,165.66q-12.79,0-22.35-4.84a34,34,0,0,1-14.8-14.51q-5.25-9.67-5.25-24.19v-59h13.55v57.47q0,16.26,7.93,24.48T481,153.27a36.53,36.53,0,0,0,18.24-4.36,28.79,28.79,0,0,0,11.84-12.67q4.09-8.33,4.1-19.94V63.08h13.56l0,101.6h-13V136.82l2.1,5A37.48,37.48,0,0,1,503,159.36Q493,165.66,479.65,165.66Z" transform="translate(0 -1.81)"/><path class="cls-1" d="M593.46,165.64A75.87,75.87,0,0,1,570,162.06q-11.07-3.57-17.37-9l6.1-10.83a57.8,57.8,0,0,0,15.66,8,59.52,59.52,0,0,0,20.06,3.39q14.33,0,20.62-4.55a14.21,14.21,0,0,0,6.3-12.1,11.26,11.26,0,0,0-3.53-8.8,23.17,23.17,0,0,0-9.27-4.84,113.47,113.47,0,0,0-12.79-2.8q-7.07-1.17-14-2.71a51,51,0,0,1-12.7-4.55,24.84,24.84,0,0,1-9.26-8.22q-3.54-5.22-3.54-13.93a25.46,25.46,0,0,1,4.58-14.9q4.59-6.58,13.47-10.36t21.67-3.78a75,75,0,0,1,19.48,2.61,53.15,53.15,0,0,1,16,6.87l-5.92,11a45.47,45.47,0,0,0-14.32-6.67,59,59,0,0,0-15.28-2q-13.56,0-19.95,4.74t-6.4,12.1q0,5.81,3.53,9.09a24.1,24.1,0,0,0,9.36,5.13,94.2,94.2,0,0,0,12.8,3q7,1.16,13.94,2.8a62.81,62.81,0,0,1,12.8,4.45,23.55,23.55,0,0,1,9.35,7.93q3.54,5.13,3.54,13.45A24.87,24.87,0,0,1,630,152q-4.86,6.48-14.13,10.06T593.46,165.64Z" transform="translate(0 -1.81)"/><path class="cls-1" d="M661.05,83.19a9.52,9.52,0,0,1-7.16-3.1,10.48,10.48,0,0,1-3-7.55,10.06,10.06,0,0,1,3-7.54,10.28,10.28,0,0,1,14.32,0,10.12,10.12,0,0,1,3,7.55,10.52,10.52,0,0,1-3,7.55A9.56,9.56,0,0,1,661.05,83.19Zm0,82.44a9.54,9.54,0,0,1-7.17-3.1,10.52,10.52,0,0,1-3-7.55,10.1,10.1,0,0,1,3-7.54,10.28,10.28,0,0,1,14.32,0,10.09,10.09,0,0,1,3,7.55,10.52,10.52,0,0,1-2.95,7.55A9.59,9.59,0,0,1,661.07,165.63Z" transform="translate(0 -1.81)"/><path class="cls-1" d="M97.75,339.82,59.92,238.23h13l34.39,94.23h-5.92l35.32-94.25h11.65l35,94.24h-5.92l34.93-94.25h12.41l-38,101.6h-12.8l-33.62-88.63h4l-33.79,88.64Z" transform="translate(0 -1.81)"/><path class="cls-1" d="M283.18,340.76A51,51,0,0,1,257,334.08a48.69,48.69,0,0,1-18.14-18.47,53.21,53.21,0,0,1-6.69-26.71q0-15.28,6.68-26.9A48.37,48.37,0,0,1,257,243.81a55.5,55.5,0,0,1,52.61.08,48.6,48.6,0,0,1,18.15,18.19q6.58,11.52,6.59,26.8a53.75,53.75,0,0,1-6.59,26.81,47.9,47.9,0,0,1-18.23,18.38A52.06,52.06,0,0,1,283.18,340.76Zm0-12.2a37.35,37.35,0,0,0,19.28-4.93,35.24,35.24,0,0,0,13.27-13.94,43,43,0,0,0,4.87-20.8q0-12-4.87-20.9a35.39,35.39,0,0,0-13.28-13.84,39.41,39.41,0,0,0-38.19,0A36,36,0,0,0,250.89,268q-5,8.89-5,20.9a42.35,42.35,0,0,0,5,20.8,36.06,36.06,0,0,0,13.27,13.93A36.49,36.49,0,0,0,283.18,328.56Z" transform="translate(0 -1.81)"/><path class="cls-1" d="M362.05,339.77l0-101.59h13v27.68L373.68,261a33.38,33.38,0,0,1,14.13-17.71q9.93-6.09,24.63-6.1v13.35a13.08,13.08,0,0,1-1.53-.09,11.23,11.23,0,0,0-1.53-.1q-15.86,0-24.82,9.78t-9,27.77v51.86Z" transform="translate(0 -1.81)"/><path class="cls-1" d="M437.1,339.76l0-143.59h13.56l0,143.59Zm10.68-26.32.38-17.61,62.44-57.68h16.61l-44.1,42.77-7.64,6.58Zm67,26.31L473,286.92l8.78-10.64,49.66,63.47Z" transform="translate(0 -1.81)"/><path class="cls-1" d="M608.75,215.69a9.87,9.87,0,0,1-9.93-9.87,9.24,9.24,0,0,1,2.86-6.87,9.72,9.72,0,0,1,7.07-2.81,9.89,9.89,0,0,1,7.07,2.71,8.93,8.93,0,0,1,2.86,6.77,10,10,0,0,1-2.77,7.16A9.43,9.43,0,0,1,608.75,215.69Zm-6.85,124,0-101.59h13.56l0,101.6Z" transform="translate(0 -1.81)"/><path class="cls-1" d="M704.43,237.15a46.57,46.57,0,0,1,21.49,4.74,33.85,33.85,0,0,1,14.51,14.41q5.25,9.68,5.26,24.39v59H732.14V282q0-16.07-7.93-24.28T702,249.54a38.1,38.1,0,0,0-18.62,4.35,29.79,29.79,0,0,0-12.22,12.58q-4.29,8.23-4.29,19.84v53.41H653.27l0-101.6h13V266l-2.1-5.22a36.82,36.82,0,0,1,15.27-17.33Q689.91,237.16,704.43,237.15Z" transform="translate(0 -1.81)"/><path class="cls-1" d="M832.4,377.24l0-139.14h13v30.58L844,289,846,309.5v67.74Zm51.75-36.59a46,46,0,0,1-23.49-6.09A43.82,43.82,0,0,1,843.94,317q-6.21-11.51-6.21-28.15t6.11-28.16a42.56,42.56,0,0,1,16.61-17.52,46.86,46.86,0,0,1,23.68-6,51,51,0,0,1,25.69,6.48,46.4,46.4,0,0,1,17.85,18.19q6.5,11.7,6.5,27,0,15.48-6.49,27.1a47.27,47.27,0,0,1-17.85,18.19A50.24,50.24,0,0,1,884.15,340.65Zm-1-12.19a37,37,0,0,0,19.1-4.94,35.85,35.85,0,0,0,13.36-13.93,42.39,42.39,0,0,0,5-20.81,41.8,41.8,0,0,0-5-20.7A37.84,37.84,0,0,0,864,254.15a35.93,35.93,0,0,0-13.37,13.94,42.43,42.43,0,0,0-4.87,20.71,43.1,43.1,0,0,0,4.88,20.8A34.91,34.91,0,0,0,864,323.53,37.48,37.48,0,0,0,883.19,328.46Z" transform="translate(0 -1.81)"/><path class="cls-1" d="M961.87,339.67l0-101.6h13v27.68l-1.33-4.84a33.32,33.32,0,0,1,14.12-17.71q9.93-6.1,24.64-6.1v13.35a11.23,11.23,0,0,1-1.53-.1,13.08,13.08,0,0,0-1.53-.09q-15.84,0-24.82,9.77t-9,27.78v51.86Z" transform="translate(0 -1.81)"/><path class="cls-1" d="M1076.83,340.62a51,51,0,0,1-26.16-6.67,48.81,48.81,0,0,1-18.15-18.48,53.19,53.19,0,0,1-6.68-26.7q0-15.28,6.67-26.9a48.53,48.53,0,0,1,18.14-18.2,55.56,55.56,0,0,1,52.62.09A48.43,48.43,0,0,1,1121.41,262q6.58,11.51,6.59,26.8,0,15.09-6.58,26.8a47.86,47.86,0,0,1-18.23,18.39A52.09,52.09,0,0,1,1076.83,340.62Zm0-12.19a37.39,37.39,0,0,0,19.29-4.94,35.28,35.28,0,0,0,13.27-13.93,43,43,0,0,0,4.86-20.81q0-12-4.87-20.9A35.41,35.41,0,0,0,1096.11,254a39.46,39.46,0,0,0-38.2,0,36.08,36.08,0,0,0-13.36,13.84q-5,8.91-5,20.9a42.39,42.39,0,0,0,5,20.81,35.45,35.45,0,0,0,32.28,18.86Z" transform="translate(0 -1.81)"/><path class="cls-1" d="M1196,335.76a52.74,52.74,0,0,1-25.79-6.28,46.52,46.52,0,0,1-18-17.51,49.9,49.9,0,0,1-6.59-25.74q0-14.52,6.59-25.64a46,46,0,0,1,18-17.33,53.43,53.43,0,0,1,25.78-6.19,51.12,51.12,0,0,1,24.06,5.6,41.67,41.67,0,0,1,17,16.64q6.3,11,6.31,26.9t-6.3,26.9a42.91,42.91,0,0,1-17,16.84A49.64,49.64,0,0,1,1196,335.76Zm2.49,42.38a85.33,85.33,0,0,1-26.36-4.06q-12.6-4.05-20.43-11.6l6.87-10.46A52.11,52.11,0,0,0,1176,362.18,64.11,64.11,0,0,0,1198.1,366q19.1,0,28.07-9t9-28V303.63l1.91-17.42-1.34-17.41V238h13v89.21q0,26.31-12.69,38.61T1198.49,378.14Zm-1.16-54.57a40.06,40.06,0,0,0,19.67-4.74,35.3,35.3,0,0,0,13.56-13.17,37.64,37.64,0,0,0,5-19.45,37.06,37.06,0,0,0-5-19.35A35.46,35.46,0,0,0,1217,253.8a43,43,0,0,0-39.25,0,34.54,34.54,0,0,0-13.55,13.06,37.6,37.6,0,0,0-4.87,19.36,38.24,38.24,0,0,0,4.87,19.45,34.38,34.38,0,0,0,13.56,13.15A40.23,40.23,0,0,0,1197.33,323.57Z" transform="translate(0 -1.81)"/><path class="cls-1" d="M1286.51,339.62V238h13v27.67l-1.34-4.84a33.42,33.42,0,0,1,14.13-17.71q9.93-6.09,24.63-6.1V250.4a11,11,0,0,1-1.52-.1,13.1,13.1,0,0,0-1.53-.1Q1318,250.2,1309,260t-9,27.77v51.86Z" transform="translate(0 -1.81)"/><path class="cls-1" d="M1403.2,340.57q-15.66,0-27.5-6.68a48.06,48.06,0,0,1-18.53-18.38,53,53,0,0,1-6.69-26.8q0-15.09,6.39-26.71a47.65,47.65,0,0,1,42.68-25,48.46,48.46,0,0,1,25.11,6.48A45.93,45.93,0,0,1,1442,261.7q6.3,11.71,6.31,27c0,.65,0,1.33-.1,2s-.09,1.45-.09,2.22l-87.28,0V282.71h80l-5.35,4.06a40.47,40.47,0,0,0-4.68-19.64,34.8,34.8,0,0,0-12.7-13.45,35.24,35.24,0,0,0-18.53-4.83,35.74,35.74,0,0,0-18.52,4.84,33.37,33.37,0,0,0-12.79,13.55,42.09,42.09,0,0,0-4.58,19.93v2.13a40.13,40.13,0,0,0,5.06,20.41,35.48,35.48,0,0,0,14.14,13.74,42.62,42.62,0,0,0,20.72,4.93,44,44,0,0,0,17.09-3.29A35.57,35.57,0,0,0,1434.32,315l7.64,8.9a42.93,42.93,0,0,1-16.71,12.38A56,56,0,0,1,1403.2,340.57Z" transform="translate(0 -1.81)"/><path class="cls-1" d="M1502.88,340.55a75.78,75.78,0,0,1-23.49-3.58q-11.09-3.57-17.38-9l6.11-10.84a57.79,57.79,0,0,0,15.66,8,59.7,59.7,0,0,0,20,3.38q14.33,0,20.63-4.55a14.21,14.21,0,0,0,6.3-12.1,11.25,11.25,0,0,0-3.54-8.8,23.12,23.12,0,0,0-9.26-4.84,113.67,113.67,0,0,0-12.8-2.8q-7.07-1.17-14-2.71a50.64,50.64,0,0,1-12.7-4.55,25,25,0,0,1-9.27-8.22q-3.53-5.22-3.53-13.93a25.41,25.41,0,0,1,4.58-14.9q4.57-6.59,13.46-10.36t21.67-3.78a74.92,74.92,0,0,1,19.48,2.61,53.47,53.47,0,0,1,16,6.87l-5.92,11a45.52,45.52,0,0,0-14.33-6.67,58.92,58.92,0,0,0-15.27-2q-13.56,0-20,4.74t-6.39,12.1q0,5.8,3.53,9.09a24,24,0,0,0,9.36,5.13,92.23,92.23,0,0,0,12.79,3q7,1.15,14,2.8a62.71,62.71,0,0,1,12.79,4.45,23.65,23.65,0,0,1,9.36,7.93q3.53,5.13,3.53,13.45a24.86,24.86,0,0,1-4.86,15.39q-4.87,6.48-14.13,10.06T1502.88,340.55Z" transform="translate(0 -1.81)"/><path class="cls-1" d="M1596.07,340.53a76.07,76.07,0,0,1-23.49-3.57q-11.08-3.58-17.38-9l6.11-10.84a57.23,57.23,0,0,0,15.66,8,59.49,59.49,0,0,0,20,3.38q14.32,0,20.63-4.55a14.2,14.2,0,0,0,6.3-12.09,11.27,11.27,0,0,0-3.54-8.81,23,23,0,0,0-9.26-4.83,111.42,111.42,0,0,0-12.8-2.81q-7.06-1.15-14-2.71a51,51,0,0,1-12.7-4.54,25,25,0,0,1-9.27-8.22q-3.52-5.24-3.53-13.94a25.43,25.43,0,0,1,4.58-14.9q4.57-6.57,13.46-10.35t21.67-3.78a74.92,74.92,0,0,1,19.48,2.61,53.47,53.47,0,0,1,16,6.86l-5.92,11a45.45,45.45,0,0,0-14.33-6.68,59.35,59.35,0,0,0-15.27-2q-13.56,0-20,4.75t-6.39,12.09q0,5.81,3.53,9.1a24.28,24.28,0,0,0,9.36,5.13,94.08,94.08,0,0,0,12.79,3q7,1.17,13.94,2.81a62,62,0,0,1,12.8,4.45,23.57,23.57,0,0,1,9.36,7.93q3.52,5.13,3.54,13.45a24.92,24.92,0,0,1-4.87,15.38q-4.87,6.5-14.13,10.07T1596.07,340.53Z" transform="translate(0 -1.81)"/></g></g></svg>