<svg xmlns="http://www.w3.org/2000/svg" viewBox="0 0 1466.68 138.86"><defs><style>.cls-1{fill:#fff;}</style></defs><title>x576</title><g id="Camada_2" data-name="Camada 2"><g id="Camada_1-2" data-name="Camada 1"><rect width="1466.68" height="138.86"></rect><path class="cls-1" d="M87.84,102.55a45.09,45.09,0,0,1-14-2.13,29.79,29.79,0,0,1-10.33-5.34l3.63-6.45a34.13,34.13,0,0,0,9.31,4.78,35.48,35.48,0,0,0,11.92,2q8.52,0,12.27-2.71a8.45,8.45,0,0,0,3.74-7.19,6.72,6.72,0,0,0-2.1-5.24,13.77,13.77,0,0,0-5.51-2.87,67.54,67.54,0,0,0-7.61-1.67c-2.8-.46-5.58-1-8.34-1.61a30.11,30.11,0,0,1-7.55-2.7,14.87,14.87,0,0,1-5.51-4.89,14.55,14.55,0,0,1-2.1-8.28,15.15,15.15,0,0,1,2.72-8.86,18,18,0,0,1,8-6.16A32.83,32.83,0,0,1,89.3,41a44.76,44.76,0,0,1,11.58,1.55,31.74,31.74,0,0,1,9.54,4.09l-3.52,6.56a27,27,0,0,0-8.51-4A35.06,35.06,0,0,0,89.3,48q-8.05,0-11.86,2.82A8.59,8.59,0,0,0,73.64,58a7,7,0,0,0,2.1,5.41,14.29,14.29,0,0,0,5.56,3.05,55.37,55.37,0,0,0,7.61,1.78q4.14.69,8.29,1.67a37.24,37.24,0,0,1,7.61,2.64,14.13,14.13,0,0,1,5.56,4.72,13.83,13.83,0,0,1,2.1,8,14.8,14.8,0,0,1-2.89,9.15,18.52,18.52,0,0,1-8.4,6A37.06,37.06,0,0,1,87.84,102.55Z"></path><path class="cls-1" d="M117.92,48.35V41.56h36.91v6.79Zm28.16,54.19q-8.4,0-12.94-4.6t-4.55-13V28.21h8.06V84.48q0,5.3,2.67,8.17c1.77,1.92,4.33,2.87,7.66,2.87a12.86,12.86,0,0,0,8.86-3.11l2.84,5.87A14.84,14.84,0,0,1,153,101.5,22.8,22.8,0,0,1,146.08,102.54Z"></path><path class="cls-1" d="M190.14,102.53a27.85,27.85,0,0,1-11.64-2.24A17.27,17.27,0,0,1,171,94.08a16.22,16.22,0,0,1-2.62-9.15,16.87,16.87,0,0,1,2.22-8.57,15.57,15.57,0,0,1,7.26-6.21c3.37-1.58,7.89-2.36,13.57-2.37h20.55v6.1H191.61q-8.62,0-12,3.11a10.1,10.1,0,0,0-3.35,7.71,10,10,0,0,0,4,8.28q4,3.12,11.13,3.11a21.33,21.33,0,0,0,11.75-3.17,18.11,18.11,0,0,0,7.2-9.15l1.82,5.64A19.06,19.06,0,0,1,204.27,99C200.53,101.34,195.81,102.53,190.14,102.53Zm20.55-.58V88.61l-.34-2.19V64.1q0-7.71-4.26-11.85t-12.66-4.14a31,31,0,0,0-11,2,27.88,27.88,0,0,0-8.86,5.18l-3.63-6.1a32,32,0,0,1,10.9-6A41.87,41.87,0,0,1,194.21,41q11.58,0,17.89,5.8t6.3,17.66V102Z"></path><path class="cls-1" d="M231,48.33V41.54h36.9v6.79Zm28.17,54.19q-8.4,0-12.94-4.6t-4.55-13V28.2h8.06V84.46q0,5.3,2.67,8.17c1.78,1.92,4.34,2.87,7.67,2.87a12.86,12.86,0,0,0,8.85-3.1l2.84,5.86a14.8,14.8,0,0,1-5.73,3.22A22.8,22.8,0,0,1,259.17,102.52Z"></path><path class="cls-1" d="M311.06,102.51a29,29,0,0,1-13.29-2.87A20.3,20.3,0,0,1,289,91q-3.12-5.74-3.12-14.38V41.53h8.06V75.71q0,9.66,4.71,14.55t13.23,4.89a21.83,21.83,0,0,0,10.85-2.59,17.07,17.07,0,0,0,7-7.54,26.51,26.51,0,0,0,2.44-11.85V41.53h8.06v60.41h-7.72V85.37l1.25,3A22.29,22.29,0,0,1,325,98.77,25.58,25.58,0,0,1,311.06,102.51Z"></path><path class="cls-1" d="M378.73,102.5a45,45,0,0,1-14-2.13A29.59,29.59,0,0,1,354.43,95l3.63-6.45a34.43,34.43,0,0,0,9.31,4.78,35.5,35.5,0,0,0,11.93,2q8.51,0,12.26-2.71a8.44,8.44,0,0,0,3.75-7.19,6.73,6.73,0,0,0-2.11-5.24,13.73,13.73,0,0,0-5.5-2.87,67.54,67.54,0,0,0-7.61-1.67c-2.8-.46-5.58-1-8.35-1.61a30.25,30.25,0,0,1-7.55-2.7,14.87,14.87,0,0,1-5.51-4.89,14.55,14.55,0,0,1-2.1-8.28,15.09,15.09,0,0,1,2.73-8.86,18,18,0,0,1,8-6.16,32.84,32.84,0,0,1,12.89-2.25,44.76,44.76,0,0,1,11.58,1.55,31.74,31.74,0,0,1,9.54,4.09l-3.52,6.56a26.9,26.9,0,0,0-8.52-4A35,35,0,0,0,380.2,48q-8.07,0-11.87,2.82a8.62,8.62,0,0,0-3.8,7.2,7,7,0,0,0,2.1,5.4,14.34,14.34,0,0,0,5.57,3.05,55.21,55.21,0,0,0,7.6,1.78q4.15.69,8.29,1.67a37.24,37.24,0,0,1,7.61,2.64,14.16,14.16,0,0,1,5.57,4.72,13.91,13.91,0,0,1,2.1,8,14.81,14.81,0,0,1-2.9,9.15,18.52,18.52,0,0,1-8.4,6A37.06,37.06,0,0,1,378.73,102.5Z"></path><path class="cls-1" d="M418.92,53.48a5.66,5.66,0,0,1-4.26-1.84,6.23,6.23,0,0,1-1.76-4.49,6,6,0,0,1,1.76-4.49,6.12,6.12,0,0,1,8.51,0,6,6,0,0,1,1.76,4.49,6.24,6.24,0,0,1-1.76,4.49A5.69,5.69,0,0,1,418.92,53.48Zm0,49a5.65,5.65,0,0,1-4.25-1.84,6.2,6.2,0,0,1-1.76-4.48,6,6,0,0,1,1.75-4.49,6.11,6.11,0,0,1,8.52,0,6,6,0,0,1,1.76,4.49,6.24,6.24,0,0,1-1.76,4.48A5.66,5.66,0,0,1,418.92,102.49Z"></path><path class="cls-1" d="M484.1,101.91,461.6,41.5h7.73l20.44,56h-3.52l21-56h6.93l20.78,56h-3.52l20.77-56h7.38L537,101.9H529.4l-20-52.69h2.38l-20.09,52.7Z"></path><path class="cls-1" d="M594.35,102.46a30.29,30.29,0,0,1-15.56-4,29.05,29.05,0,0,1-10.79-11,31.65,31.65,0,0,1-4-15.88,31.36,31.36,0,0,1,4-16,28.79,28.79,0,0,1,10.78-10.82,33,33,0,0,1,31.28,0,28.88,28.88,0,0,1,10.79,10.82,31.51,31.51,0,0,1,3.92,15.93,31.94,31.94,0,0,1-3.91,15.94A28.46,28.46,0,0,1,610,98.49,30.94,30.94,0,0,1,594.35,102.46Zm0-7.24a22.26,22.26,0,0,0,11.46-2.94A21,21,0,0,0,613.7,84a25.57,25.57,0,0,0,2.9-12.37,25.5,25.5,0,0,0-2.9-12.42A21.05,21.05,0,0,0,605.81,51a23.43,23.43,0,0,0-22.71,0,21.45,21.45,0,0,0-8,8.22,25.11,25.11,0,0,0-2.95,12.43A25.17,25.17,0,0,0,575.15,84a21.37,21.37,0,0,0,7.9,8.28A21.66,21.66,0,0,0,594.35,95.22Z"></path><path class="cls-1" d="M641.24,101.88V41.47H649V57.93l-.79-2.88a19.83,19.83,0,0,1,8.4-10.53q5.9-3.63,14.65-3.63v7.94a6.85,6.85,0,0,1-.91,0,7,7,0,0,0-.91-.06q-9.42,0-14.76,5.81T649.3,71v30.84Z"></path><path class="cls-1" d="M685.86,101.87V16.5h8.06v85.37Zm6.36-15.65.22-10.47,37.13-34.29h9.87L713.22,66.89l-4.54,3.91Zm39.85,15.65L707.2,70.46l5.22-6.33L742,101.86Z"></path><path class="cls-1" d="M787.92,28.1a5.84,5.84,0,0,1-5.9-5.87,5.5,5.5,0,0,1,1.7-4.08,5.79,5.79,0,0,1,4.2-1.67,5.88,5.88,0,0,1,4.2,1.61,5.32,5.32,0,0,1,1.71,4,5.94,5.94,0,0,1-1.65,4.26A5.63,5.63,0,0,1,787.92,28.1Zm-4.07,73.76V41.45h8.06v60.41Z"></path><path class="cls-1" d="M844.81,40.86a27.72,27.72,0,0,1,12.78,2.82,20.21,20.21,0,0,1,8.63,8.57q3.12,5.76,3.12,14.5v35.09h-8.06V67.56q0-9.56-4.71-14.44t-13.23-4.89a22.58,22.58,0,0,0-11.07,2.59A17.61,17.61,0,0,0,825,58.3a25.22,25.22,0,0,0-2.55,11.79v31.76h-8.06V41.44h7.72V58l-1.25-3.1a21.79,21.79,0,0,1,9.08-10.3A28.34,28.34,0,0,1,844.81,40.86Z"></path><path class="cls-1" d="M920.9,124.16l0-82.73h7.73V59.61l-.79,12.08L929,83.88v40.27Zm30.76-21.76a27.26,27.26,0,0,1-14-3.62,26,26,0,0,1-9.94-10.47q-3.69-6.84-3.69-16.74t3.63-16.74a25.32,25.32,0,0,1,9.88-10.42,27.92,27.92,0,0,1,14.07-3.56,30.3,30.3,0,0,1,15.28,3.85,27.58,27.58,0,0,1,10.61,10.81,32.48,32.48,0,0,1,3.87,16.05,32.49,32.49,0,0,1-3.86,16.11,28.14,28.14,0,0,1-10.61,10.82A29.93,29.93,0,0,1,951.66,102.4Zm-.56-7.25a22,22,0,0,0,11.35-2.93,21.37,21.37,0,0,0,7.95-8.29,25.26,25.26,0,0,0,3-12.37,24.86,24.86,0,0,0-3-12.31A22.5,22.5,0,0,0,939.68,51a21.35,21.35,0,0,0-7.95,8.29,25.25,25.25,0,0,0-2.89,12.31,25.6,25.6,0,0,0,2.89,12.37,20.8,20.8,0,0,0,7.95,8.28A22.2,22.2,0,0,0,951.1,95.15Z"></path><path class="cls-1" d="M997.88,101.82V41.41h7.72V57.87l-.8-2.88a19.93,19.93,0,0,1,8.4-10.53q5.91-3.63,14.65-3.63v7.94c-.3,0-.6,0-.91-.05a6.8,6.8,0,0,0-.9-.06q-9.43,0-14.76,5.81T1005.93,71v30.84Z"></path><path class="cls-1" d="M1066.23,102.38a30.32,30.32,0,0,1-15.56-4,29.05,29.05,0,0,1-10.79-11,31.65,31.65,0,0,1-4-15.88,31.46,31.46,0,0,1,4-16,28.86,28.86,0,0,1,10.78-10.82,33.07,33.07,0,0,1,31.29,0,28.93,28.93,0,0,1,10.78,10.82,31.41,31.41,0,0,1,3.92,15.93,32,32,0,0,1-3.91,15.94,28.53,28.53,0,0,1-10.84,10.93A30.91,30.91,0,0,1,1066.23,102.38Zm0-7.24a22.33,22.33,0,0,0,11.47-2.94,21,21,0,0,0,7.89-8.29,25.57,25.57,0,0,0,2.89-12.37,25.5,25.5,0,0,0-2.9-12.42,21.05,21.05,0,0,0-7.89-8.23,23.43,23.43,0,0,0-22.71,0,21.45,21.45,0,0,0-8,8.22,25.11,25.11,0,0,0-3,12.43,25.18,25.18,0,0,0,3,12.37,21.41,21.41,0,0,0,7.89,8.28A21.66,21.66,0,0,0,1066.23,95.14Z"></path><path class="cls-1" d="M1137.08,99.5a31.35,31.35,0,0,1-15.33-3.74A27.6,27.6,0,0,1,1111,85.35a29.68,29.68,0,0,1-3.92-15.3A29.36,29.36,0,0,1,1111,54.8a27.39,27.39,0,0,1,10.73-10.3,31.77,31.77,0,0,1,15.33-3.69,30.38,30.38,0,0,1,14.31,3.34,24.7,24.7,0,0,1,10.1,9.89q3.75,6.56,3.75,16t-3.74,16a25.58,25.58,0,0,1-10.1,10A29.53,29.53,0,0,1,1137.08,99.5Zm1.48,25.19a50.79,50.79,0,0,1-15.67-2.41,30.76,30.76,0,0,1-12.15-6.9l4.09-6.22a30.8,30.8,0,0,0,10.39,6,37.78,37.78,0,0,0,13.11,2.24q11.36,0,16.69-5.35t5.34-16.63V80.39L1161.49,70l-.8-10.36V41.39h7.72V94.43q0,15.64-7.55,22.95T1138.56,124.69Zm-.69-32.44a23.83,23.83,0,0,0,11.7-2.82,21,21,0,0,0,8.06-7.83A22.41,22.41,0,0,0,1160.58,70a22,22,0,0,0-3-11.51,21,21,0,0,0-8.06-7.76,25.54,25.54,0,0,0-23.33,0,20.5,20.5,0,0,0-8.06,7.77,22.35,22.35,0,0,0-2.9,11.5,22.69,22.69,0,0,0,2.9,11.57,20.49,20.49,0,0,0,8.06,7.82A23.92,23.92,0,0,0,1137.87,92.25Z"></path><path class="cls-1" d="M1190.9,101.79V41.38h7.72V57.83l-.79-2.87a19.76,19.76,0,0,1,8.4-10.53q5.9-3.63,14.64-3.63v7.94a6.84,6.84,0,0,1-.91-.06,7.07,7.07,0,0,0-.91-.06q-9.42,0-14.76,5.82T1199,71v30.84Z"></path><path class="cls-1" d="M1260.27,102.35a32.72,32.72,0,0,1-16.35-4,28.6,28.6,0,0,1-11-10.92,31.59,31.59,0,0,1-4-15.94,32.43,32.43,0,0,1,3.8-15.88,28.38,28.38,0,0,1,25.38-14.85A28.83,28.83,0,0,1,1273,44.65a27.32,27.32,0,0,1,10.28,10.81,33.54,33.54,0,0,1,3.75,16.05c0,.39,0,.79-.06,1.21s-.06.86-.06,1.32h-51.89V68h47.58l-3.18,2.42a24,24,0,0,0-2.79-11.68,20.61,20.61,0,0,0-7.55-8,20.88,20.88,0,0,0-11-2.88,21.23,21.23,0,0,0-11,2.88,19.79,19.79,0,0,0-7.61,8.06,25,25,0,0,0-2.72,11.85v1.26a23.87,23.87,0,0,0,3,12.14,21,21,0,0,0,8.4,8.17,25.3,25.3,0,0,0,12.32,2.93,26.13,26.13,0,0,0,10.16-2,21,21,0,0,0,8.12-6l4.54,5.29a25.67,25.67,0,0,1-9.93,7.37A33.22,33.22,0,0,1,1260.27,102.35Z"></path><path class="cls-1" d="M1319.54,102.34a45.07,45.07,0,0,1-14-2.13,29.75,29.75,0,0,1-10.34-5.34l3.64-6.45a34.13,34.13,0,0,0,9.31,4.78,35.44,35.44,0,0,0,11.92,2q8.52,0,12.26-2.71a8.44,8.44,0,0,0,3.75-7.19,6.72,6.72,0,0,0-2.1-5.24,13.84,13.84,0,0,0-5.51-2.87,67.54,67.54,0,0,0-7.61-1.67c-2.8-.46-5.58-1-8.34-1.61a30.18,30.18,0,0,1-7.56-2.7,14.84,14.84,0,0,1-5.5-4.89,14.47,14.47,0,0,1-2.11-8.28,15.09,15.09,0,0,1,2.73-8.86,17.92,17.92,0,0,1,8-6.16A32.88,32.88,0,0,1,1321,40.78a44.76,44.76,0,0,1,11.58,1.55,31.74,31.74,0,0,1,9.54,4.09L1338.61,53a26.9,26.9,0,0,0-8.52-4A35,35,0,0,0,1321,47.8q-8.07,0-11.87,2.82a8.62,8.62,0,0,0-3.8,7.2,7,7,0,0,0,2.1,5.4,14.34,14.34,0,0,0,5.57,3,55.37,55.37,0,0,0,7.61,1.78q4.14.69,8.28,1.67a37,37,0,0,1,7.61,2.64,14.16,14.16,0,0,1,5.57,4.72,13.83,13.83,0,0,1,2.1,8,14.87,14.87,0,0,1-2.89,9.15,18.61,18.61,0,0,1-8.41,6A37,37,0,0,1,1319.54,102.34Z"></path><path class="cls-1" d="M1375,102.33a44.84,44.84,0,0,1-14-2.13,29.62,29.62,0,0,1-10.33-5.34l3.63-6.45a34.43,34.43,0,0,0,9.31,4.78,35.5,35.5,0,0,0,11.93,2q8.51,0,12.26-2.71a8.41,8.41,0,0,0,3.74-7.19,6.72,6.72,0,0,0-2.1-5.24,13.73,13.73,0,0,0-5.5-2.87,67.54,67.54,0,0,0-7.61-1.67c-2.8-.46-5.58-1-8.35-1.61a30.25,30.25,0,0,1-7.55-2.7,14.87,14.87,0,0,1-5.51-4.89,14.55,14.55,0,0,1-2.1-8.28,15.11,15.11,0,0,1,2.73-8.86,18,18,0,0,1,8-6.16,32.84,32.84,0,0,1,12.89-2.25A44.34,44.34,0,0,1,1388,42.33a31.49,31.49,0,0,1,9.54,4.08L1394,53a26.9,26.9,0,0,0-8.52-4,35,35,0,0,0-9.08-1.21q-8.07,0-11.87,2.82a8.62,8.62,0,0,0-3.8,7.2,7,7,0,0,0,2.1,5.4,14.34,14.34,0,0,0,5.57,3.05A55.21,55.21,0,0,0,1376,68q4.15.69,8.29,1.67a36.66,36.66,0,0,1,7.61,2.65,13,13,0,0,1,7.67,12.71,14.81,14.81,0,0,1-2.9,9.15,18.52,18.52,0,0,1-8.4,6A37.06,37.06,0,0,1,1375,102.33Z"></path></g></g></svg>