<svg xmlns="http://www.w3.org/2000/svg" viewBox="0 0 2281.5 216"><defs><style>.cls-1{fill:#fff;}</style></defs><title>x768</title><g id="Camada_2" data-name="Camada 2"><g id="Camada_1-2" data-name="Camada 1"><rect width="2281.5" height="216"/><path class="cls-1" d="M136.64,159.53a70.14,70.14,0,0,1-21.73-3.31q-10.25-3.32-16.07-8.32l5.65-10A53,53,0,0,0,119,145.3a55,55,0,0,0,18.55,3.13q13.24,0,19.07-4.21A13.12,13.12,0,0,0,162.42,133a10.41,10.41,0,0,0-3.27-8.14,21.25,21.25,0,0,0-8.57-4.47,104.14,104.14,0,0,0-11.83-2.6q-6.54-1.06-13-2.5a47.08,47.08,0,0,1-11.75-4.2,23.15,23.15,0,0,1-8.57-7.61q-3.27-4.83-3.27-12.89a23.53,23.53,0,0,1,4.24-13.78,28,28,0,0,1,12.45-9.58q8.2-3.48,20-3.49a69.26,69.26,0,0,1,18,2.41,49.35,49.35,0,0,1,14.84,6.35L166.3,82.74a42.12,42.12,0,0,0-13.25-6.18,54.88,54.88,0,0,0-14.13-1.87q-12.54,0-18.46,4.39a13.35,13.35,0,0,0-5.91,11.18c0,3.58,1.08,6.39,3.26,8.42a22.48,22.48,0,0,0,8.66,4.74,87.69,87.69,0,0,0,11.83,2.77q6.45,1.07,12.9,2.59A58,58,0,0,1,163,112.9a21.8,21.8,0,0,1,8.66,7.33Q175,125,175,132.67a23,23,0,0,1-4.5,14.23q-4.52,6-13.07,9.31T136.64,159.53Z"/><path class="cls-1" d="M183.42,75.22V64.66h57.41V75.21Zm43.82,84.29q-13.06,0-20.14-7.15T200,132.13l0-88.24h12.54l0,87.52q0,8.24,4.15,12.71t11.92,4.47a20.06,20.06,0,0,0,13.78-4.83l4.42,9.13a23.32,23.32,0,0,1-8.92,5A36.16,36.16,0,0,1,227.24,159.51Z"/><path class="cls-1" d="M295.77,159.5a43.36,43.36,0,0,1-18.1-3.49,26.86,26.86,0,0,1-11.75-9.66,25.3,25.3,0,0,1-4.07-14.23,26.25,26.25,0,0,1,3.45-13.33q3.43-6,11.3-9.67t21.1-3.67h32v9.49H298.06q-13.43,0-18.63,4.84a16.47,16.47,0,0,0,1,24.88q6.18,4.83,17.31,4.83A33.07,33.07,0,0,0,316,144.55a28.15,28.15,0,0,0,11.21-14.23l2.83,8.77A29.71,29.71,0,0,1,317.76,154Q309,159.5,295.77,159.5Zm32-.9V137.84l-.53-3.4V99.71q0-12-6.63-18.43t-19.69-6.44a48.36,48.36,0,0,0-17.13,3,43.55,43.55,0,0,0-13.78,8l-5.65-9.48a49.84,49.84,0,0,1,16.95-9.4,65.12,65.12,0,0,1,20.84-3.32q18,0,27.82,9t9.81,27.47V158.6Z"/><path class="cls-1" d="M359.34,75.19V64.63h57.4V75.18Zm43.82,84.29q-13.08,0-20.14-7.15T376,132.1V43.86h12.54v87.52q0,8.24,4.15,12.71t11.93,4.47a20.05,20.05,0,0,0,13.77-4.83l4.42,9.13a23.25,23.25,0,0,1-8.92,5A36.1,36.1,0,0,1,403.16,159.48Z"/><path class="cls-1" d="M483.87,159.47A45.15,45.15,0,0,1,463.21,155a31.42,31.42,0,0,1-13.69-13.43q-4.87-8.94-4.87-22.37V64.61h12.54v53.16q0,15,7.34,22.64t20.58,7.6A33.76,33.76,0,0,0,502,144a26.53,26.53,0,0,0,10.95-11.72q3.8-7.69,3.8-18.44V64.6h12.54v94h-12V132.79l1.94,4.66a34.61,34.61,0,0,1-13.68,16.2A39.85,39.85,0,0,1,483.87,159.47Z"/><path class="cls-1" d="M589.14,159.45a70.14,70.14,0,0,1-21.73-3.31q-10.24-3.3-16.07-8.32l5.65-10a53.18,53.18,0,0,0,14.48,7.42A55,55,0,0,0,590,148.35q13.25,0,19.07-4.21A13.12,13.12,0,0,0,614.92,133a10.43,10.43,0,0,0-3.27-8.15,21.25,21.25,0,0,0-8.57-4.47,103.75,103.75,0,0,0-11.83-2.59q-6.54-1.08-13-2.51a47.08,47.08,0,0,1-11.75-4.2,23.15,23.15,0,0,1-8.57-7.61c-2.18-3.22-3.26-7.51-3.27-12.88a23.61,23.61,0,0,1,4.24-13.79,28.07,28.07,0,0,1,12.45-9.57q8.22-3.49,20-3.5a69.28,69.28,0,0,1,18,2.42,49.24,49.24,0,0,1,14.84,6.35l-5.47,10.2a42.1,42.1,0,0,0-13.25-6.17,54.89,54.89,0,0,0-14.13-1.88Q578.88,74.61,573,79c-3.94,2.93-5.91,6.65-5.91,11.19a10.92,10.92,0,0,0,3.27,8.41,22.3,22.3,0,0,0,8.65,4.74,86.35,86.35,0,0,0,11.84,2.77q6.44,1.08,12.89,2.6a57.69,57.69,0,0,1,11.84,4.11,21.79,21.79,0,0,1,8.65,7.34q3.27,4.74,3.27,12.44a23,23,0,0,1-4.5,14.23q-4.5,6-13.07,9.31T589.14,159.45Z"/><path class="cls-1" d="M651.65,83.19A8.84,8.84,0,0,1,645,80.33a9.73,9.73,0,0,1-2.73-7,9.36,9.36,0,0,1,2.73-7,9.5,9.5,0,0,1,13.25,0,9.36,9.36,0,0,1,2.74,7,9.72,9.72,0,0,1-2.74,7A8.81,8.81,0,0,1,651.65,83.19Zm0,76.25a8.81,8.81,0,0,1-6.62-2.86,9.72,9.72,0,0,1-2.74-7,9.35,9.35,0,0,1,2.73-7,9.52,9.52,0,0,1,13.25,0,9.33,9.33,0,0,1,2.74,7,9.68,9.68,0,0,1-2.74,7A8.82,8.82,0,0,1,651.66,159.44Z"/><path class="cls-1" d="M753,158.53l-35-94h12l31.81,87.16h-5.48l32.67-87.17h10.77l32.34,87.16h-5.48L859,64.54h11.48l-35.13,94H823.51l-31.1-82h3.71l-31.25,82Z"/><path class="cls-1" d="M924.54,159.39a47.15,47.15,0,0,1-24.2-6.17,45.08,45.08,0,0,1-16.78-17.09,49.34,49.34,0,0,1-6.19-24.7q0-14.13,6.18-24.88a44.71,44.71,0,0,1,16.78-16.82,51.35,51.35,0,0,1,48.66.08,44.78,44.78,0,0,1,16.78,16.82q6.09,10.65,6.1,24.79a49.72,49.72,0,0,1-6.09,24.79,44.23,44.23,0,0,1-16.87,17A48.07,48.07,0,0,1,924.54,159.39Zm0-11.27a34.62,34.62,0,0,0,17.84-4.57,32.51,32.51,0,0,0,12.27-12.89,39.82,39.82,0,0,0,4.5-19.24,39.58,39.58,0,0,0-4.51-19.33,32.73,32.73,0,0,0-12.27-12.8,36.46,36.46,0,0,0-35.33,0,33.31,33.31,0,0,0-12.36,12.8,39.06,39.06,0,0,0-4.59,19.33,39.09,39.09,0,0,0,4.6,19.24A33.42,33.42,0,0,0,907,143.56,33.8,33.8,0,0,0,924.54,148.12Z"/><path class="cls-1" d="M997.49,158.49l0-94h12V90.11l-1.23-4.47a30.84,30.84,0,0,1,13.06-16.38q9.2-5.64,22.79-5.64V76a11.12,11.12,0,0,1-1.41-.09,11.28,11.28,0,0,0-1.42-.09q-14.65,0-23,9T1010,110.52v48Z"/><path class="cls-1" d="M1066.9,158.47l0-132.8h12.54l0,132.81Zm9.88-24.34.35-16.29,57.75-53.34h15.37l-40.8,39.56-7.06,6.09Zm62,24.33-38.69-48.85,8.13-9.85,45.93,58.7Z"/><path class="cls-1" d="M1225.66,43.72a9.13,9.13,0,0,1-9.19-9.13,8.58,8.58,0,0,1,2.65-6.35,9,9,0,0,1,6.54-2.6,9.17,9.17,0,0,1,6.53,2.5,8.27,8.27,0,0,1,2.65,6.27,9.22,9.22,0,0,1-2.56,6.62A8.73,8.73,0,0,1,1225.66,43.72Zm-6.34,114.73v-94h12.54v94Z"/><path class="cls-1" d="M1314.15,63.57A43.05,43.05,0,0,1,1334,68a31.4,31.4,0,0,1,13.43,13.33q4.86,9,4.86,22.56v54.59h-12.54V105.09q0-14.85-7.34-22.46T1311.86,75a35.23,35.23,0,0,0-17.22,4,27.5,27.5,0,0,0-11.31,11.64q-4,7.61-4,18.35v49.4h-12.54v-94h12V90.24l-1.94-4.83a34.05,34.05,0,0,1,14.12-16Q1300.73,63.57,1314.15,63.57Z"/><path class="cls-1" d="M1432.51,193.13l0-128.69h12V92.72l-1.23,18.8,1.77,19v62.64Zm47.86-33.83a42.49,42.49,0,0,1-21.73-5.64,40.51,40.51,0,0,1-15.46-16.28q-5.73-10.65-5.74-26t5.65-26a39.37,39.37,0,0,1,15.36-16.2,43.37,43.37,0,0,1,21.9-5.55,47.18,47.18,0,0,1,23.76,6,43.1,43.1,0,0,1,16.52,16.82q6,10.85,6,25,0,14.33-6,25.06a43.7,43.7,0,0,1-16.51,16.83A46.47,46.47,0,0,1,1480.37,159.3Zm-.89-11.28a34.22,34.22,0,0,0,17.66-4.56,33.3,33.3,0,0,0,12.37-12.89,39.12,39.12,0,0,0,4.58-19.25,38.7,38.7,0,0,0-4.59-19.15,35,35,0,0,0-47.78-12.87,33.15,33.15,0,0,0-12.36,12.88,39.34,39.34,0,0,0-4.5,19.16,39.71,39.71,0,0,0,4.51,19.24,32.36,32.36,0,0,0,12.36,12.88A34.73,34.73,0,0,0,1479.48,148Z"/><path class="cls-1" d="M1552.25,158.39v-94h12V90L1563,85.54a30.9,30.9,0,0,1,13.07-16.38q9.18-5.64,22.78-5.64V75.87a11.16,11.16,0,0,1-1.42-.09,11.12,11.12,0,0,0-1.41-.09q-14.65,0-23,9t-8.3,25.69v48Z"/><path class="cls-1" d="M1658.58,159.27a47.25,47.25,0,0,1-24.2-6.17A45.15,45.15,0,0,1,1617.6,136a49.16,49.16,0,0,1-6.19-24.7q0-14.15,6.18-24.88a44.81,44.81,0,0,1,16.78-16.83,51.35,51.35,0,0,1,48.66.08,44.93,44.93,0,0,1,16.78,16.82q6.09,10.65,6.1,24.79a49.69,49.69,0,0,1-6.09,24.79,44.32,44.32,0,0,1-16.87,17A48.1,48.1,0,0,1,1658.58,159.27Zm0-11.28a34.53,34.53,0,0,0,17.84-4.57,32.49,32.49,0,0,0,12.27-12.88,39.86,39.86,0,0,0,4.5-19.25A39.61,39.61,0,0,0,1688.68,92a32.71,32.71,0,0,0-12.27-12.79,36.46,36.46,0,0,0-35.33,0A33.35,33.35,0,0,0,1628.72,92a39.11,39.11,0,0,0-4.59,19.33,39.1,39.1,0,0,0,4.6,19.25A33.39,33.39,0,0,0,1641,143.43,33.8,33.8,0,0,0,1658.58,148Z"/><path class="cls-1" d="M1768.79,154.77A48.56,48.56,0,0,1,1745,149a43,43,0,0,1-16.7-16.19,46.18,46.18,0,0,1-6.09-23.81,45.56,45.56,0,0,1,6.08-23.71,42.74,42.74,0,0,1,16.69-16,49.44,49.44,0,0,1,23.85-5.73A47.17,47.17,0,0,1,1791,68.68a38.41,38.41,0,0,1,15.72,15.39q5.84,10.2,5.84,24.88t-5.83,24.88a39.66,39.66,0,0,1-15.71,15.57A45.92,45.92,0,0,1,1768.79,154.77Zm2.3,39.2a79.1,79.1,0,0,1-24.37-3.75q-11.65-3.76-18.9-10.74l6.36-9.67a48.28,48.28,0,0,0,16.16,9.4,59.53,59.53,0,0,0,20.4,3.49q17.65,0,26-8.33t8.3-25.87V125.06l1.77-16.11-1.24-16.11V64.38h12l0,82.51q0,24.35-11.74,35.71T1771.09,194ZM1770,143.5a37,37,0,0,0,18.19-4.39,32.65,32.65,0,0,0,12.54-12.17,34.86,34.86,0,0,0,4.59-18,34.38,34.38,0,0,0-4.6-17.9A32.86,32.86,0,0,0,1788.21,79a39.75,39.75,0,0,0-36.3,0,31.9,31.9,0,0,0-12.54,12.08,34.82,34.82,0,0,0-4.5,17.9,35.31,35.31,0,0,0,4.51,18,31.78,31.78,0,0,0,12.54,12.17A37.21,37.21,0,0,0,1770,143.5Z"/><path class="cls-1" d="M1852.51,158.34l0-94h12V90l-1.24-4.48a30.9,30.9,0,0,1,13.07-16.38q9.18-5.64,22.78-5.64V75.82a11.16,11.16,0,0,1-1.42-.09,11.12,11.12,0,0,0-1.41-.09q-14.67,0-23,9t-8.3,25.69v48Z"/><path class="cls-1" d="M1960.43,159.22q-14.49,0-25.44-6.17a44.62,44.62,0,0,1-17.13-17,49,49,0,0,1-6.19-24.79,50.28,50.28,0,0,1,5.92-24.7,44,44,0,0,1,39.47-23.1,44.87,44.87,0,0,1,23.22,6,42.56,42.56,0,0,1,16,16.82q5.84,10.83,5.83,25c0,.6,0,1.23-.08,1.88a19.54,19.54,0,0,0-.09,2.06h-80.72v-9.48l74,0-4.94,3.76a37.47,37.47,0,0,0-4.33-18.16,32.09,32.09,0,0,0-11.75-12.44,32.54,32.54,0,0,0-17.13-4.47,33,33,0,0,0-17.13,4.48,30.82,30.82,0,0,0-11.83,12.53,38.93,38.93,0,0,0-4.24,18.43v2a37.19,37.19,0,0,0,4.68,18.88,32.85,32.85,0,0,0,13.08,12.71,39.47,39.47,0,0,0,19.16,4.56,40.64,40.64,0,0,0,15.81-3.05,32.83,32.83,0,0,0,12.62-9.3l7.07,8.23a39.76,39.76,0,0,1-15.45,11.45A51.75,51.75,0,0,1,1960.43,159.22Z"/><path class="cls-1" d="M2052.62,159.2a70.08,70.08,0,0,1-21.72-3.31q-10.25-3.3-16.08-8.32l5.65-10A53.25,53.25,0,0,0,2035,145a55,55,0,0,0,18.54,3.13q13.26,0,19.08-4.21a13.14,13.14,0,0,0,5.83-11.18,10.5,10.5,0,0,0-3.27-8.15,21.44,21.44,0,0,0-8.57-4.47,104,104,0,0,0-11.84-2.59q-6.53-1.08-13-2.51a47,47,0,0,1-11.74-4.2,23,23,0,0,1-8.57-7.61q-3.27-4.83-3.27-12.88a23.54,23.54,0,0,1,4.24-13.79,28,28,0,0,1,12.45-9.57q8.21-3.49,20-3.5a69.35,69.35,0,0,1,18,2.42,49.46,49.46,0,0,1,14.84,6.35l-5.48,10.2A42,42,0,0,0,2069,76.24a54.89,54.89,0,0,0-14.13-1.88q-12.54,0-18.45,4.39c-4,2.93-5.92,6.65-5.92,11.19a10.92,10.92,0,0,0,3.27,8.41,22.28,22.28,0,0,0,8.66,4.74,84.76,84.76,0,0,0,11.83,2.77q6.45,1.08,12.9,2.6a57.59,57.59,0,0,1,11.83,4.11,21.82,21.82,0,0,1,8.66,7.34q3.26,4.74,3.27,12.44a23,23,0,0,1-4.51,14.23q-4.5,6-13.06,9.31T2052.62,159.2Z"/><path class="cls-1" d="M2138.81,159.19a70.12,70.12,0,0,1-21.72-3.31q-10.24-3.31-16.08-8.32l5.66-10a53,53,0,0,0,14.48,7.43,55,55,0,0,0,18.55,3.13q13.25,0,19.07-4.21a13.15,13.15,0,0,0,5.83-11.19,10.41,10.41,0,0,0-3.27-8.14,21.31,21.31,0,0,0-8.57-4.47,104.14,104.14,0,0,0-11.83-2.6q-6.54-1.07-13-2.5a46.62,46.62,0,0,1-11.74-4.21,23,23,0,0,1-8.57-7.6q-3.27-4.83-3.27-12.89a23.51,23.51,0,0,1,4.24-13.78,28,28,0,0,1,12.45-9.58q8.2-3.48,20-3.49a69.34,69.34,0,0,1,18,2.41A49.35,49.35,0,0,1,2174,72.19l-5.48,10.21a42.07,42.07,0,0,0-13.24-6.18,55,55,0,0,0-14.13-1.87q-12.55,0-18.46,4.38t-5.92,11.19c0,3.58,1.09,6.39,3.27,8.41a22.49,22.49,0,0,0,8.66,4.75,87.69,87.69,0,0,0,11.83,2.77q6.45,1.07,12.9,2.59a58.2,58.2,0,0,1,11.83,4.12,21.8,21.8,0,0,1,8.66,7.33q3.27,4.74,3.27,12.44a23,23,0,0,1-4.5,14.23q-4.51,6-13.07,9.31T2138.81,159.19Z"/></g></g></svg>